  0
SECTION
  2
HEADER
  9
$ACADVER
  1
AC1024
  9
$ACADMAINTVER
 70
6
  9
$DWGCODEPAGE
  3
ANSI_1252
  9
$LASTSAVEDBY
  1
ezdxf
  9
$INSBASE
 10
0.0
 20
0.0
 30
0.0
  9
$EXTMIN
 10
1e+20
 20
1e+20
 30
1e+20
  9
$EXTMAX
 10
-1e+20
 20
-1e+20
 30
-1e+20
  9
$LIMMIN
 10
0.0
 20
0.0
  9
$LIMMAX
 10
420.0
 20
297.0
  9
$ORTHOMODE
 70
0
  9
$REGENMODE
 70
1
  9
$FILLMODE
 70
1
  9
$QTEXTMODE
 70
0
  9
$MIRRTEXT
 70
1
  9
$LTSCALE
 40
1.0
  9
$ATTMODE
 70
1
  9
$TEXTSIZE
 40
2.5
  9
$TRACEWID
 40
1.0
  9
$TEXTSTYLE
  7
Standard
  9
$CLAYER
  8
0
  9
$CELTYPE
  6
ByLayer
  9
$CECOLOR
 62
256
  9
$CELTSCALE
 40
1.0
  9
$DISPSILH
 70
0
  9
$DIMSCALE
 40
1.0
  9
$DIMASZ
 40
2.5
  9
$DIMEXO
 40
0.625
  9
$DIMDLI
 40
3.75
  9
$DIMRND
 40
0.0
  9
$DIMDLE
 40
0.0
  9
$DIMEXE
 40
1.25
  9
$DIMTP
 40
0.0
  9
$DIMTM
 40
0.0
  9
$DIMTXT
 40
2.5
  9
$DIMCEN
 40
2.5
  9
$DIMTSZ
 40
0.0
  9
$DIMTOL
 70
0
  9
$DIMLIM
 70
0
  9
$DIMTIH
 70
0
  9
$DIMTOH
 70
0
  9
$DIMSE1
 70
0
  9
$DIMSE2
 70
0
  9
$DIMTAD
 70
1
  9
$DIMZIN
 70
8
  9
$DIMBLK
  1

  9
$DIMASO
 70
1
  9
$DIMSHO
 70
1
  9
$DIMPOST
  1

  9
$DIMAPOST
  1

  9
$DIMALT
 70
0
  9
$DIMALTD
 70
3
  9
$DIMALTF
 40
0.03937007874
  9
$DIMLFAC
 40
1.0
  9
$DIMTOFL
 70
1
  9
$DIMTVP
 40
0.0
  9
$DIMTIX
 70
0
  9
$DIMSOXD
 70
0
  9
$DIMSAH
 70
0
  9
$DIMBLK1
  1

  9
$DIMBLK2
  1

  9
$DIMSTYLE
  2
ISO-25
  9
$DIMCLRD
 70
0
  9
$DIMCLRE
 70
0
  9
$DIMCLRT
 70
0
  9
$DIMTFAC
 40
1.0
  9
$DIMGAP
 40
0.625
  9
$DIMJUST
 70
0
  9
$DIMSD1
 70
0
  9
$DIMSD2
 70
0
  9
$DIMTOLJ
 70
0
  9
$DIMTZIN
 70
8
  9
$DIMALTZ
 70
0
  9
$DIMALTTZ
 70
0
  9
$DIMUPT
 70
0
  9
$DIMDEC
 70
2
  9
$DIMTDEC
 70
2
  9
$DIMALTU
 70
2
  9
$DIMALTTD
 70
3
  9
$DIMTXSTY
  7
Standard
  9
$DIMAUNIT
 70
0
  9
$DIMADEC
 70
0
  9
$DIMALTRND
 40
0.0
  9
$DIMAZIN
 70
0
  9
$DIMDSEP
 70
44
  9
$DIMATFIT
 70
3
  9
$DIMFRAC
 70
0
  9
$DIMLDRBLK
  1

  9
$DIMLUNIT
 70
2
  9
$DIMLWD
 70
-2
  9
$DIMLWE
 70
-2
  9
$DIMTMOVE
 70
0
  9
$DIMFXL
 40
1.0
  9
$DIMFXLON
 70
0
  9
$DIMJOGANG
 40
0.785398163397
  9
$DIMTFILL
 70
0
  9
$DIMTFILLCLR
 70
0
  9
$DIMARCSYM
 70
0
  9
$DIMLTYPE
  6

  9
$DIMLTEX1
  6

  9
$DIMLTEX2
  6

  9
$DIMTXTDIRECTION
 70
0
  9
$LUNITS
 70
2
  9
$LUPREC
 70
4
  9
$SKETCHINC
 40
1.0
  9
$FILLETRAD
 40
10.0
  9
$AUNITS
 70
0
  9
$AUPREC
 70
2
  9
$MENU
  1
.
  9
$ELEVATION
 40
0.0
  9
$PELEVATION
 40
0.0
  9
$THICKNESS
 40
0.0
  9
$LIMCHECK
 70
0
  9
$CHAMFERA
 40
0.0
  9
$CHAMFERB
 40
0.0
  9
$CHAMFERC
 40
0.0
  9
$CHAMFERD
 40
0.0
  9
$SKPOLY
 70
0
  9
$TDCREATE
 40
2461234.7037847224
  9
$TDUCREATE
 40
2458532.153996898
  9
$TDUPDATE
 40
2461234.7037847224
  9
$TDUUPDATE
 40
2458532.1544311
  9
$TDINDWG
 40
0.0
  9
$TDUSRTIMER
 40
0.0
  9
$USRTIMER
 70
1
  9
$ANGBASE
 50
0.0
  9
$ANGDIR
 70
0
  9
$PDMODE
 70
0
  9
$PDSIZE
 40
0.0
  9
$PLINEWID
 40
0.0
  9
$SPLFRAME
 70
0
  9
$SPLINETYPE
 70
6
  9
$SPLINESEGS
 70
8
  9
$HANDSEED
  5
352
  9
$SURFTAB1
 70
6
  9
$SURFTAB2
 70
6
  9
$SURFTYPE
 70
6
  9
$SURFU
 70
6
  9
$SURFV
 70
6
  9
$UCSBASE
  2

  9
$UCSNAME
  2

  9
$UCSORG
 10
0.0
 20
0.0
 30
0.0
  9
$UCSXDIR
 10
1.0
 20
0.0
 30
0.0
  9
$UCSYDIR
 10
0.0
 20
1.0
 30
0.0
  9
$UCSORTHOREF
  2

  9
$UCSORTHOVIEW
 70
0
  9
$UCSORGTOP
 10
0.0
 20
0.0
 30
0.0
  9
$UCSORGBOTTOM
 10
0.0
 20
0.0
 30
0.0
  9
$UCSORGLEFT
 10
0.0
 20
0.0
 30
0.0
  9
$UCSORGRIGHT
 10
0.0
 20
0.0
 30
0.0
  9
$UCSORGFRONT
 10
0.0
 20
0.0
 30
0.0
  9
$UCSORGBACK
 10
0.0
 20
0.0
 30
0.0
  9
$PUCSBASE
  2

  9
$PUCSNAME
  2

  9
$PUCSORG
 10
0.0
 20
0.0
 30
0.0
  9
$PUCSXDIR
 10
1.0
 20
0.0
 30
0.0
  9
$PUCSYDIR
 10
0.0
 20
1.0
 30
0.0
  9
$PUCSORTHOREF
  2

  9
$PUCSORTHOVIEW
 70
0
  9
$PUCSORGTOP
 10
0.0
 20
0.0
 30
0.0
  9
$PUCSORGBOTTOM
 10
0.0
 20
0.0
 30
0.0
  9
$PUCSORGLEFT
 10
0.0
 20
0.0
 30
0.0
  9
$PUCSORGRIGHT
 10
0.0
 20
0.0
 30
0.0
  9
$PUCSORGFRONT
 10
0.0
 20
0.0
 30
0.0
  9
$PUCSORGBACK
 10
0.0
 20
0.0
 30
0.0
  9
$USERI1
 70
0
  9
$USERI2
 70
0
  9
$USERI3
 70
0
  9
$USERI4
 70
0
  9
$USERI5
 70
0
  9
$USERR1
 40
0.0
  9
$USERR2
 40
0.0
  9
$USERR3
 40
0.0
  9
$USERR4
 40
0.0
  9
$USERR5
 40
0.0
  9
$WORLDVIEW
 70
1
  9
$SHADEDGE
 70
3
  9
$SHADEDIF
 70
70
  9
$TILEMODE
 70
1
  9
$MAXACTVP
 70
64
  9
$PINSBASE
 10
0.0
 20
0.0
 30
0.0
  9
$PLIMCHECK
 70
0
  9
$PEXTMIN
 10
1e+20
 20
1e+20
 30
1e+20
  9
$PEXTMAX
 10
-1e+20
 20
-1e+20
 30
-1e+20
  9
$PLIMMIN
 10
0.0
 20
0.0
  9
$PLIMMAX
 10
420.0
 20
297.0
  9
$UNITMODE
 70
0
  9
$VISRETAIN
 70
1
  9
$PLINEGEN
 70
0
  9
$PSLTSCALE
 70
1
  9
$TREEDEPTH
 70
3020
  9
$CMLSTYLE
  2
Standard
  9
$CMLJUST
 70
0
  9
$CMLSCALE
 40
20.0
  9
$PROXYGRAPHICS
 70
1
  9
$MEASUREMENT
 70
1
  9
$CELWEIGHT
370
-1
  9
$ENDCAPS
280
0
  9
$JOINSTYLE
280
0
  9
$LWDISPLAY
290
0
  9
$INSUNITS
 70
5
  9
$HYPERLINKBASE
  1

  9
$STYLESHEET
  1

  9
$XEDIT
290
1
  9
$CEPSNTYPE
380
0
  9
$PSTYLEMODE
290
1
  9
$FINGERPRINTGUID
  2
{B5E70554-5785-4963-8390-E836FCC0F7F9}
  9
$VERSIONGUID
  2
{AD87CDB6-93DA-4CB9-9909-107368822DAD}
  9
$EXTNAMES
290
1
  9
$PSVPSCALE
 40
0.0
  9
$OLESTARTUP
290
0
  9
$SORTENTS
280
127
  9
$INDEXCTL
280
0
  9
$HIDETEXT
280
1
  9
$XCLIPFRAME
280
1
  9
$HALOGAP
280
0
  9
$OBSCOLOR
 70
257
  9
$OBSLTYPE
280
0
  9
$INTERSECTIONDISPLAY
280
0
  9
$INTERSECTIONCOLOR
 70
257
  9
$DIMASSOC
280
2
  9
$PROJECTNAME
  1

  9
$CAMERADISPLAY
290
0
  9
$LENSLENGTH
 40
50.0
  9
$CAMERAHEIGHT
 40
0.0
  9
$STEPSPERSEC
 40
24.0
  9
$STEPSIZE
 40
100.0
  9
$3DDWFPREC
 40
2.0
  9
$PSOLWIDTH
 40
0.005
  9
$PSOLHEIGHT
 40
0.08
  9
$LOFTANG1
 40
1.570796326795
  9
$LOFTANG2
 40
1.570796326795
  9
$LOFTMAG1
 40
0.0
  9
$LOFTMAG2
 40
0.0
  9
$LOFTPARAM
 70
7
  9
$LOFTNORMALS
280
1
  9
$LATITUDE
 40
37.795
  9
$LONGITUDE
 40
-122.394
  9
$NORTHDIRECTION
 40
0.0
  9
$TIMEZONE
 70
-8000
  9
$LIGHTGLYPHDISPLAY
280
1
  9
$TILEMODELIGHTSYNCH
280
1
  9
$CMATERIAL
347
20
  9
$SOLIDHIST
280
0
  9
$SHOWHIST
280
1
  9
$DWFFRAME
280
2
  9
$DGNFRAME
280
2
  9
$REALWORLDSCALE
290
1
  9
$INTERFERECOLOR
 62
256
  9
$CSHADOW
280
0
  9
$SHADOWPLANELOCATION
 40
0.0
  0
ENDSEC
  0
SECTION
  2
CLASSES
  0
CLASS
  1
ACDBDICTIONARYWDFLT
  2
AcDbDictionaryWithDefault
  3
ObjectDBX Classes
 90
0
 91
0
280
0
281
0
  0
CLASS
  1
SUN
  2
AcDbSun
  3
SCENEOE
 90
1153
 91
0
280
0
281
0
  0
CLASS
  1
VISUALSTYLE
  2
AcDbVisualStyle
  3
ObjectDBX Classes
 90
4095
 91
0
280
0
281
0
  0
CLASS
  1
MATERIAL
  2
AcDbMaterial
  3
ObjectDBX Classes
 90
1153
 91
0
280
0
281
0
  0
CLASS
  1
SCALE
  2
AcDbScale
  3
ObjectDBX Classes
 90
1153
 91
0
280
0
281
0
  0
CLASS
  1
TABLESTYLE
  2
AcDbTableStyle
  3
ObjectDBX Classes
 90
4095
 91
0
280
0
281
0
  0
CLASS
  1
MLEADERSTYLE
  2
AcDbMLeaderStyle
  3
ACDB_MLEADERSTYLE_CLASS
 90
4095
 91
0
280
0
281
0
  0
CLASS
  1
DICTIONARYVAR
  2
AcDbDictionaryVar
  3
ObjectDBX Classes
 90
0
 91
0
280
0
281
0
  0
CLASS
  1
CELLSTYLEMAP
  2
AcDbCellStyleMap
  3
ObjectDBX Classes
 90
1152
 91
0
280
0
281
0
  0
CLASS
  1
MENTALRAYRENDERSETTINGS
  2
AcDbMentalRayRenderSettings
  3
SCENEOE
 90
1024
 91
0
280
0
281
0
  0
CLASS
  1
ACDBDETAILVIEWSTYLE
  2
AcDbDetailViewStyle
  3
ObjectDBX Classes
 90
1025
 91
0
280
0
281
0
  0
CLASS
  1
ACDBSECTIONVIEWSTYLE
  2
AcDbSectionViewStyle
  3
ObjectDBX Classes
 90
1025
 91
0
280
0
281
0
  0
CLASS
  1
RASTERVARIABLES
  2
AcDbRasterVariables
  3
ISM
 90
0
 91
0
280
0
281
0
  0
CLASS
  1
ACDBPLACEHOLDER
  2
AcDbPlaceHolder
  3
ObjectDBX Classes
 90
0
 91
0
280
0
281
0
  0
CLASS
  1
LAYOUT
  2
AcDbLayout
  3
ObjectDBX Classes
 90
0
 91
0
280
0
281
0
  0
ENDSEC
  0
SECTION
  2
TABLES
  0
TABLE
  2
VPORT
  5
8
330
0
100
AcDbSymbolTable
 70
1
  0
VPORT
  5
23
330
8
100
AcDbSymbolTableRecord
100
AcDbViewportTableRecord
  2
*Active
 70
0
 10
0.0
 20
0.0
 11
1.0
 21
1.0
 12
0.0
 22
0.0
 13
0.0
 23
0.0
 14
0.5
 24
0.5
 15
0.5
 25
0.5
 16
0.0
 26
0.0
 36
1.0
 17
0.0
 27
0.0
 37
0.0
 40
1000.0
 41
1.34
 42
50.0
 43
0.0
 44
0.0
 50
0.0
 51
0.0
 71
0
 72
1000
 73
1
 74
3
 75
0
 76
0
 77
0
 78
0
281
0
 65
0
146
0.0
  0
ENDTAB
  0
TABLE
  2
LTYPE
  5
2
330
0
100
AcDbSymbolTable
 70
3
  0
LTYPE
  5
24
330
2
100
AcDbSymbolTableRecord
100
AcDbLinetypeTableRecord
  2
ByBlock
 70
0
  3

 72
65
 73
0
 40
0.0
  0
LTYPE
  5
25
330
2
100
AcDbSymbolTableRecord
100
AcDbLinetypeTableRecord
  2
ByLayer
 70
0
  3

 72
65
 73
0
 40
0.0
  0
LTYPE
  5
26
330
2
100
AcDbSymbolTableRecord
100
AcDbLinetypeTableRecord
  2
Continuous
 70
0
  3

 72
65
 73
0
 40
0.0
  0
ENDTAB
  0
TABLE
  2
LAYER
  5
1
330
0
100
AcDbSymbolTable
 70
5
  0
LAYER
  5
27
330
1
100
AcDbSymbolTableRecord
100
AcDbLayerTableRecord
  2
0
 70
0
 62
7
  6
Continuous
370
-3
390
13
347
21
  0
LAYER
  5
28
330
1
100
AcDbSymbolTableRecord
100
AcDbLayerTableRecord
  2
Defpoints
 70
0
 62
7
  6
Continuous
290
0
370
-3
390
13
347
21
  0
LAYER
  5
2F
330
1
100
AcDbSymbolTableRecord
100
AcDbLayerTableRecord
  2
WALL
 70
0
 62
7
  6
Continuous
370
-3
390
13
347
21
  0
LAYER
  5
30
330
1
100
AcDbSymbolTableRecord
100
AcDbLayerTableRecord
  2
WINDOW
 70
0
 62
5
  6
Continuous
370
-3
390
13
347
21
  0
LAYER
  5
31D
330
1
100
AcDbSymbolTableRecord
100
AcDbLayerTableRecord
  2
DOORZONE
 70
0
 62
2
  6
Continuous
370
-3
390
13
347
21
  0
ENDTAB
  0
TABLE
  2
STYLE
  5
5
330
0
100
AcDbSymbolTable
 70
1
  0
STYLE
  5
29
330
5
100
AcDbSymbolTableRecord
100
AcDbTextStyleTableRecord
  2
Standard
 70
0
 40
0.0
 41
1.0
 50
0.0
 71
0
 42
2.5
  3
txt
  4

  0
ENDTAB
  0
TABLE
  2
VIEW
  5
7
330
0
100
AcDbSymbolTable
 70
0
  0
ENDTAB
  0
TABLE
  2
UCS
  5
6
330
0
100
AcDbSymbolTable
 70
0
  0
ENDTAB
  0
TABLE
  2
APPID
  5
3
330
0
100
AcDbSymbolTable
 70
3
  0
APPID
  5
2A
330
3
100
AcDbSymbolTableRecord
100
AcDbRegAppTableRecord
  2
ACAD
 70
0
  0
APPID
  5
34F
330
3
100
AcDbSymbolTableRecord
100
AcDbRegAppTableRecord
  2
HATCHBACKGROUNDCOLOR
 70
0
  0
APPID
  5
350
330
3
100
AcDbSymbolTableRecord
100
AcDbRegAppTableRecord
  2
EZDXF
 70
0
  0
ENDTAB
  0
TABLE
  2
DIMSTYLE
  5
4
330
0
100
AcDbSymbolTable
 70
1
100
AcDbDimStyleTable
  0
DIMSTYLE
105
2B
330
4
100
AcDbSymbolTableRecord
100
AcDbDimStyleTableRecord
  2
Standard
 70
0
 40
1.0
 41
2.5
 42
0.625
 43
3.75
 44
1.25
 45
0.0
 46
0.0
 47
0.0
 48
0.0
 49
2.5
140
2.5
141
2.5
142
0.0
143
0.03937007874
144
1.0
145
0.0
146
1.0
147
0.625
148
0.0
 69
0
 70
0
 71
0
 72
0
 73
0
 74
0
 75
0
 76
0
 77
1
 78
8
 79
3
170
0
171
3
172
1
173
0
174
0
175
0
176
0
177
0
178
0
179
2
271
2
272
2
273
2
274
3
275
0
276
0
277
2
278
44
279
0
280
0
281
0
282
0
283
0
284
8
285
0
286
0
288
0
289
3
290
0
371
-2
372
-2
  0
ENDTAB
  0
TABLE
  2
BLOCK_RECORD
  5
9
330
0
100
AcDbSymbolTable
 70
2
  0
BLOCK_RECORD
  5
17
330
9
100
AcDbSymbolTableRecord
100
AcDbBlockTableRecord
  2
*Model_Space
340
1A
 70
0
280
1
281
0
  0
BLOCK_RECORD
  5
1B
330
9
100
AcDbSymbolTableRecord
100
AcDbBlockTableRecord
  2
*Paper_Space
340
1E
 70
0
280
1
281
0
  0
ENDTAB
  0
ENDSEC
  0
SECTION
  2
BLOCKS
  0
BLOCK
  5
18
330
17
100
AcDbEntity
  8
0
100
AcDbBlockBegin
  2
*Model_Space
 70
0
 10
0.0
 20
0.0
 30
0.0
  3
*Model_Space
  1

  0
ENDBLK
  5
19
330
17
100
AcDbEntity
  8
0
100
AcDbBlockEnd
  0
BLOCK
  5
1C
330
1B
100
AcDbEntity
  8
0
100
AcDbBlockBegin
  2
*Paper_Space
 70
0
 10
0.0
 20
0.0
 30
0.0
  3
*Paper_Space
  1

  0
ENDBLK
  5
1D
330
1B
100
AcDbEntity
  8
0
100
AcDbBlockEnd
  0
ENDSEC
  0
SECTION
  2
ENTITIES
  0
LWPOLYLINE
  5
31
330
17
100
AcDbEntity
  8
WALL
100
AcDbPolyline
 90
4
 70
1
 10
588.75
 20
2666.25
 10
705.0
 20
2666.25
 10
705.0
 20
2645.625
 10
588.75
 20
2645.625
  0
HATCH
  5
32
330
17
100
AcDbEntity
  8
WALL
100
AcDbHatch
 10
0.0
 20
0.0
 30
0.0
210
0.0
220
0.0
230
1.0
  2
SOLID
 70
1
 71
0
 91
1
 92
3
 72
0
 73
1
 93
4
 10
588.75
 20
2666.25
 10
705.0
 20
2666.25
 10
705.0
 20
2645.625
 10
588.75
 20
2645.625
 97
0
 75
1
 76
1
 98
0
  0
LWPOLYLINE
  5
33
330
17
100
AcDbEntity
  8
WALL
100
AcDbPolyline
 90
4
 70
1
 10
922.5
 20
2666.25
 10
1068.75
 20
2666.25
 10
1068.75
 20
2643.75
 10
922.5
 20
2643.75
  0
HATCH
  5
34
330
17
100
AcDbEntity
  8
WALL
100
AcDbHatch
 10
0.0
 20
0.0
 30
0.0
210
0.0
220
0.0
230
1.0
  2
SOLID
 70
1
 71
0
 91
1
 92
3
 72
0
 73
1
 93
4
 10
922.5
 20
2666.25
 10
1068.75
 20
2666.25
 10
1068.75
 20
2643.75
 10
922.5
 20
2643.75
 97
0
 75
1
 76
1
 98
0
  0
LWPOLYLINE
  5
35
330
17
100
AcDbEntity
  8
WALL
100
AcDbPolyline
 90
4
 70
1
 10
1140.0
 20
2666.25
 10
1481.25
 20
2666.25
 10
1481.25
 20
2643.75
 10
1140.0
 20
2643.75
  0
HATCH
  5
36
330
17
100
AcDbEntity
  8
WALL
100
AcDbHatch
 10
0.0
 20
0.0
 30
0.0
210
0.0
220
0.0
230
1.0
  2
SOLID
 70
1
 71
0
 91
1
 92
3
 72
0
 73
1
 93
4
 10
1140.0
 20
2666.25
 10
1481.25
 20
2666.25
 10
1481.25
 20
2643.75
 10
1140.0
 20
2643.75
 97
0
 75
1
 76
1
 98
0
  0
LWPOLYLINE
  5
37
330
17
100
AcDbEntity
  8
WALL
100
AcDbPolyline
 90
4
 70
1
 10
963.75
 20
2640.0
 10
1020.0
 20
2640.0
 10
1020.0
 20
2628.75
 10
963.75
 20
2628.75
  0
HATCH
  5
38
330
17
100
AcDbEntity
  8
WALL
100
AcDbHatch
 10
0.0
 20
0.0
 30
0.0
210
0.0
220
0.0
230
1.0
  2
SOLID
 70
1
 71
0
 91
1
 92
3
 72
0
 73
1
 93
4
 10
963.75
 20
2640.0
 10
1020.0
 20
2640.0
 10
1020.0
 20
2628.75
 10
963.75
 20
2628.75
 97
0
 75
1
 76
1
 98
0
  0
LWPOLYLINE
  5
39
330
17
100
AcDbEntity
  8
WALL
100
AcDbPolyline
 90
4
 70
1
 10
920.625
 20
2636.25
 10
960.0
 20
2636.25
 10
960.0
 20
2632.5
 10
920.625
 20
2632.5
  0
HATCH
  5
3A
330
17
100
AcDbEntity
  8
WALL
100
AcDbHatch
 10
0.0
 20
0.0
 30
0.0
210
0.0
220
0.0
230
1.0
  2
SOLID
 70
1
 71
0
 91
1
 92
3
 72
0
 73
1
 93
4
 10
920.625
 20
2636.25
 10
960.0
 20
2636.25
 10
960.0
 20
2632.5
 10
920.625
 20
2632.5
 97
0
 75
1
 76
1
 98
0
  0
LWPOLYLINE
  5
3B
330
17
100
AcDbEntity
  8
WALL
100
AcDbPolyline
 90
4
 70
1
 10
1140.0
 20
2634.375
 10
1271.25
 20
2634.375
 10
1271.25
 20
2625.0
 10
1140.0
 20
2625.0
  0
HATCH
  5
3C
330
17
100
AcDbEntity
  8
WALL
100
AcDbHatch
 10
0.0
 20
0.0
 30
0.0
210
0.0
220
0.0
230
1.0
  2
SOLID
 70
1
 71
0
 91
1
 92
3
 72
0
 73
1
 93
4
 10
1140.0
 20
2634.375
 10
1271.25
 20
2634.375
 10
1271.25
 20
2625.0
 10
1140.0
 20
2625.0
 97
0
 75
1
 76
1
 98
0
  0
LWPOLYLINE
  5
3D
330
17
100
AcDbEntity
  8
WALL
100
AcDbPolyline
 90
4
 70
1
 10
1391.25
 20
2636.25
 10
1481.25
 20
2636.25
 10
1481.25
 20
2628.75
 10
1391.25
 20
2628.75
  0
HATCH
  5
3E
330
17
100
AcDbEntity
  8
WALL
100
AcDbHatch
 10
0.0
 20
0.0
 30
0.0
210
0.0
220
0.0
230
1.0
  2
SOLID
 70
1
 71
0
 91
1
 92
3
 72
0
 73
1
 93
4
 10
1391.25
 20
2636.25
 10
1481.25
 20
2636.25
 10
1481.25
 20
2628.75
 10
1391.25
 20
2628.75
 97
0
 75
1
 76
1
 98
0
  0
LWPOLYLINE
  5
3F
330
17
100
AcDbEntity
  8
WALL
100
AcDbPolyline
 90
4
 70
1
 10
1158.75
 20
2621.25
 10
1230.0
 20
2621.25
 10
1230.0
 20
2613.75
 10
1158.75
 20
2613.75
  0
HATCH
  5
40
330
17
100
AcDbEntity
  8
WALL
100
AcDbHatch
 10
0.0
 20
0.0
 30
0.0
210
0.0
220
0.0
230
1.0
  2
SOLID
 70
1
 71
0
 91
1
 92
3
 72
0
 73
1
 93
4
 10
1158.75
 20
2621.25
 10
1230.0
 20
2621.25
 10
1230.0
 20
2613.75
 10
1158.75
 20
2613.75
 97
0
 75
1
 76
1
 98
0
  0
LWPOLYLINE
  5
41
330
17
100
AcDbEntity
  8
WALL
100
AcDbPolyline
 90
4
 70
1
 10
1320.0
 20
2617.5
 10
1410.0
 20
2617.5
 10
1410.0
 20
2606.25
 10
1320.0
 20
2606.25
  0
HATCH
  5
42
330
17
100
AcDbEntity
  8
WALL
100
AcDbHatch
 10
0.0
 20
0.0
 30
0.0
210
0.0
220
0.0
230
1.0
  2
SOLID
 70
1
 71
0
 91
1
 92
3
 72
0
 73
1
 93
4
 10
1320.0
 20
2617.5
 10
1410.0
 20
2617.5
 10
1410.0
 20
2606.25
 10
1320.0
 20
2606.25
 97
0
 75
1
 76
1
 98
0
  0
LWPOLYLINE
  5
43
330
17
100
AcDbEntity
  8
WALL
100
AcDbPolyline
 90
4
 70
1
 10
1447.5
 20
2617.5
 10
1496.25
 20
2617.5
 10
1496.25
 20
2606.25
 10
1447.5
 20
2606.25
  0
HATCH
  5
44
330
17
100
AcDbEntity
  8
WALL
100
AcDbHatch
 10
0.0
 20
0.0
 30
0.0
210
0.0
220
0.0
230
1.0
  2
SOLID
 70
1
 71
0
 91
1
 92
3
 72
0
 73
1
 93
4
 10
1447.5
 20
2617.5
 10
1496.25
 20
2617.5
 10
1496.25
 20
2606.25
 10
1447.5
 20
2606.25
 97
0
 75
1
 76
1
 98
0
  0
LWPOLYLINE
  5
45
330
17
100
AcDbEntity
  8
WALL
100
AcDbPolyline
 90
4
 70
1
 10
1290.0
 20
2598.75
 10
1353.75
 20
2598.75
 10
1353.75
 20
2591.25
 10
1290.0
 20
2591.25
  0
HATCH
  5
46
330
17
100
AcDbEntity
  8
WALL
100
AcDbHatch
 10
0.0
 20
0.0
 30
0.0
210
0.0
220
0.0
230
1.0
  2
SOLID
 70
1
 71
0
 91
1
 92
3
 72
0
 73
1
 93
4
 10
1290.0
 20
2598.75
 10
1353.75
 20
2598.75
 10
1353.75
 20
2591.25
 10
1290.0
 20
2591.25
 97
0
 75
1
 76
1
 98
0
  0
LWPOLYLINE
  5
47
330
17
100
AcDbEntity
  8
WALL
100
AcDbPolyline
 90
4
 70
1
 10
1473.75
 20
2591.25
 10
1515.0
 20
2591.25
 10
1515.0
 20
2587.5
 10
1473.75
 20
2587.5
  0
HATCH
  5
48
330
17
100
AcDbEntity
  8
WALL
100
AcDbHatch
 10
0.0
 20
0.0
 30
0.0
210
0.0
220
0.0
230
1.0
  2
SOLID
 70
1
 71
0
 91
1
 92
3
 72
0
 73
1
 93
4
 10
1473.75
 20
2591.25
 10
1515.0
 20
2591.25
 10
1515.0
 20
2587.5
 10
1473.75
 20
2587.5
 97
0
 75
1
 76
1
 98
0
  0
LWPOLYLINE
  5
49
330
17
100
AcDbEntity
  8
WALL
100
AcDbPolyline
 90
4
 70
1
 10
828.75
 20
2587.5
 10
881.25
 20
2587.5
 10
881.25
 20
2585.625
 10
828.75
 20
2585.625
  0
HATCH
  5
4A
330
17
100
AcDbEntity
  8
WALL
100
AcDbHatch
 10
0.0
 20
0.0
 30
0.0
210
0.0
220
0.0
230
1.0
  2
SOLID
 70
1
 71
0
 91
1
 92
3
 72
0
 73
1
 93
4
 10
828.75
 20
2587.5
 10
881.25
 20
2587.5
 10
881.25
 20
2585.625
 10
828.75
 20
2585.625
 97
0
 75
1
 76
1
 98
0
  0
LWPOLYLINE
  5
4B
330
17
100
AcDbEntity
  8
WALL
100
AcDbPolyline
 90
4
 70
1
 10
1518.75
 20
2572.5
 10
1560.0
 20
2572.5
 10
1560.0
 20
2561.25
 10
1518.75
 20
2561.25
  0
HATCH
  5
4C
330
17
100
AcDbEntity
  8
WALL
100
AcDbHatch
 10
0.0
 20
0.0
 30
0.0
210
0.0
220
0.0
230
1.0
  2
SOLID
 70
1
 71
0
 91
1
 92
3
 72
0
 73
1
 93
4
 10
1518.75
 20
2572.5
 10
1560.0
 20
2572.5
 10
1560.0
 20
2561.25
 10
1518.75
 20
2561.25
 97
0
 75
1
 76
1
 98
0
  0
LWPOLYLINE
  5
4D
330
17
100
AcDbEntity
  8
WALL
100
AcDbPolyline
 90
4
 70
1
 10
1518.75
 20
2531.25
 10
1560.0
 20
2531.25
 10
1560.0
 20
2523.75
 10
1518.75
 20
2523.75
  0
HATCH
  5
4E
330
17
100
AcDbEntity
  8
WALL
100
AcDbHatch
 10
0.0
 20
0.0
 30
0.0
210
0.0
220
0.0
230
1.0
  2
SOLID
 70
1
 71
0
 91
1
 92
3
 72
0
 73
1
 93
4
 10
1518.75
 20
2531.25
 10
1560.0
 20
2531.25
 10
1560.0
 20
2523.75
 10
1518.75
 20
2523.75
 97
0
 75
1
 76
1
 98
0
  0
LWPOLYLINE
  5
4F
330
17
100
AcDbEntity
  8
WALL
100
AcDbPolyline
 90
4
 70
1
 10
1518.75
 20
2520.0
 10
1560.0
 20
2520.0
 10
1560.0
 20
2518.125
 10
1518.75
 20
2518.125
  0
HATCH
  5
50
330
17
100
AcDbEntity
  8
WALL
100
AcDbHatch
 10
0.0
 20
0.0
 30
0.0
210
0.0
220
0.0
230
1.0
  2
SOLID
 70
1
 71
0
 91
1
 92
3
 72
0
 73
1
 93
4
 10
1518.75
 20
2520.0
 10
1560.0
 20
2520.0
 10
1560.0
 20
2518.125
 10
1518.75
 20
2518.125
 97
0
 75
1
 76
1
 98
0
  0
LWPOLYLINE
  5
51
330
17
100
AcDbEntity
  8
WALL
100
AcDbPolyline
 90
4
 70
1
 10
1515.0
 20
2512.5
 10
1560.0
 20
2512.5
 10
1560.0
 20
2508.75
 10
1515.0
 20
2508.75
  0
HATCH
  5
52
330
17
100
AcDbEntity
  8
WALL
100
AcDbHatch
 10
0.0
 20
0.0
 30
0.0
210
0.0
220
0.0
230
1.0
  2
SOLID
 70
1
 71
0
 91
1
 92
3
 72
0
 73
1
 93
4
 10
1515.0
 20
2512.5
 10
1560.0
 20
2512.5
 10
1560.0
 20
2508.75
 10
1515.0
 20
2508.75
 97
0
 75
1
 76
1
 98
0
  0
LWPOLYLINE
  5
53
330
17
100
AcDbEntity
  8
WALL
100
AcDbPolyline
 90
4
 70
1
 10
926.25
 20
2497.5
 10
1098.75
 20
2497.5
 10
1098.75
 20
2471.25
 10
926.25
 20
2471.25
  0
HATCH
  5
54
330
17
100
AcDbEntity
  8
WALL
100
AcDbHatch
 10
0.0
 20
0.0
 30
0.0
210
0.0
220
0.0
230
1.0
  2
SOLID
 70
1
 71
0
 91
1
 92
3
 72
0
 73
1
 93
4
 10
926.25
 20
2497.5
 10
1098.75
 20
2497.5
 10
1098.75
 20
2471.25
 10
926.25
 20
2471.25
 97
0
 75
1
 76
1
 98
0
  0
LWPOLYLINE
  5
55
330
17
100
AcDbEntity
  8
WALL
100
AcDbPolyline
 90
4
 70
1
 10
911.25
 20
2475.0
 10
1095.0
 20
2475.0
 10
1095.0
 20
2452.5
 10
911.25
 20
2452.5
  0
HATCH
  5
56
330
17
100
AcDbEntity
  8
WALL
100
AcDbHatch
 10
0.0
 20
0.0
 30
0.0
210
0.0
220
0.0
230
1.0
  2
SOLID
 70
1
 71
0
 91
1
 92
3
 72
0
 73
1
 93
4
 10
911.25
 20
2475.0
 10
1095.0
 20
2475.0
 10
1095.0
 20
2452.5
 10
911.25
 20
2452.5
 97
0
 75
1
 76
1
 98
0
  0
LWPOLYLINE
  5
57
330
17
100
AcDbEntity
  8
WALL
100
AcDbPolyline
 90
4
 70
1
 10
1027.5
 20
2441.25
 10
1083.75
 20
2441.25
 10
1083.75
 20
2418.75
 10
1027.5
 20
2418.75
  0
HATCH
  5
58
330
17
100
AcDbEntity
  8
WALL
100
AcDbHatch
 10
0.0
 20
0.0
 30
0.0
210
0.0
220
0.0
230
1.0
  2
SOLID
 70
1
 71
0
 91
1
 92
3
 72
0
 73
1
 93
4
 10
1027.5
 20
2441.25
 10
1083.75
 20
2441.25
 10
1083.75
 20
2418.75
 10
1027.5
 20
2418.75
 97
0
 75
1
 76
1
 98
0
  0
LWPOLYLINE
  5
59
330
17
100
AcDbEntity
  8
WALL
100
AcDbPolyline
 90
4
 70
1
 10
952.5
 20
2426.25
 10
1008.75
 20
2426.25
 10
1008.75
 20
2418.75
 10
952.5
 20
2418.75
  0
HATCH
  5
5A
330
17
100
AcDbEntity
  8
WALL
100
AcDbHatch
 10
0.0
 20
0.0
 30
0.0
210
0.0
220
0.0
230
1.0
  2
SOLID
 70
1
 71
0
 91
1
 92
3
 72
0
 73
1
 93
4
 10
952.5
 20
2426.25
 10
1008.75
 20
2426.25
 10
1008.75
 20
2418.75
 10
952.5
 20
2418.75
 97
0
 75
1
 76
1
 98
0
  0
LWPOLYLINE
  5
5B
330
17
100
AcDbEntity
  8
WALL
100
AcDbPolyline
 90
4
 70
1
 10
1031.25
 20
2415.0
 10
1083.75
 20
2415.0
 10
1083.75
 20
2396.25
 10
1031.25
 20
2396.25
  0
HATCH
  5
5C
330
17
100
AcDbEntity
  8
WALL
100
AcDbHatch
 10
0.0
 20
0.0
 30
0.0
210
0.0
220
0.0
230
1.0
  2
SOLID
 70
1
 71
0
 91
1
 92
3
 72
0
 73
1
 93
4
 10
1031.25
 20
2415.0
 10
1083.75
 20
2415.0
 10
1083.75
 20
2396.25
 10
1031.25
 20
2396.25
 97
0
 75
1
 76
1
 98
0
  0
LWPOLYLINE
  5
5D
330
17
100
AcDbEntity
  8
WALL
100
AcDbPolyline
 90
4
 70
1
 10
952.5
 20
2392.5
 10
1080.0
 20
2392.5
 10
1080.0
 20
2381.25
 10
952.5
 20
2381.25
  0
HATCH
  5
5E
330
17
100
AcDbEntity
  8
WALL
100
AcDbHatch
 10
0.0
 20
0.0
 30
0.0
210
0.0
220
0.0
230
1.0
  2
SOLID
 70
1
 71
0
 91
1
 92
3
 72
0
 73
1
 93
4
 10
952.5
 20
2392.5
 10
1080.0
 20
2392.5
 10
1080.0
 20
2381.25
 10
952.5
 20
2381.25
 97
0
 75
1
 76
1
 98
0
  0
LWPOLYLINE
  5
5F
330
17
100
AcDbEntity
  8
WALL
100
AcDbPolyline
 90
4
 70
1
 10
1016.25
 20
2358.75
 10
1083.75
 20
2358.75
 10
1083.75
 20
2347.5
 10
1016.25
 20
2347.5
  0
HATCH
  5
60
330
17
100
AcDbEntity
  8
WALL
100
AcDbHatch
 10
0.0
 20
0.0
 30
0.0
210
0.0
220
0.0
230
1.0
  2
SOLID
 70
1
 71
0
 91
1
 92
3
 72
0
 73
1
 93
4
 10
1016.25
 20
2358.75
 10
1083.75
 20
2358.75
 10
1083.75
 20
2347.5
 10
1016.25
 20
2347.5
 97
0
 75
1
 76
1
 98
0
  0
LWPOLYLINE
  5
61
330
17
100
AcDbEntity
  8
WALL
100
AcDbPolyline
 90
4
 70
1
 10
1031.25
 20
2283.75
 10
1083.75
 20
2283.75
 10
1083.75
 20
2278.125
 10
1031.25
 20
2278.125
  0
HATCH
  5
62
330
17
100
AcDbEntity
  8
WALL
100
AcDbHatch
 10
0.0
 20
0.0
 30
0.0
210
0.0
220
0.0
230
1.0
  2
SOLID
 70
1
 71
0
 91
1
 92
3
 72
0
 73
1
 93
4
 10
1031.25
 20
2283.75
 10
1083.75
 20
2283.75
 10
1083.75
 20
2278.125
 10
1031.25
 20
2278.125
 97
0
 75
1
 76
1
 98
0
  0
LWPOLYLINE
  5
63
330
17
100
AcDbEntity
  8
WALL
100
AcDbPolyline
 90
4
 70
1
 10
1203.75
 20
2225.625
 10
1248.75
 20
2225.625
 10
1248.75
 20
2212.5
 10
1203.75
 20
2212.5
  0
HATCH
  5
64
330
17
100
AcDbEntity
  8
WALL
100
AcDbHatch
 10
0.0
 20
0.0
 30
0.0
210
0.0
220
0.0
230
1.0
  2
SOLID
 70
1
 71
0
 91
1
 92
3
 72
0
 73
1
 93
4
 10
1203.75
 20
2225.625
 10
1248.75
 20
2225.625
 10
1248.75
 20
2212.5
 10
1203.75
 20
2212.5
 97
0
 75
1
 76
1
 98
0
  0
LWPOLYLINE
  5
65
330
17
100
AcDbEntity
  8
WALL
100
AcDbPolyline
 90
4
 70
1
 10
1091.25
 20
2220.0
 10
1185.0
 20
2220.0
 10
1185.0
 20
2212.5
 10
1091.25
 20
2212.5
  0
HATCH
  5
66
330
17
100
AcDbEntity
  8
WALL
100
AcDbHatch
 10
0.0
 20
0.0
 30
0.0
210
0.0
220
0.0
230
1.0
  2
SOLID
 70
1
 71
0
 91
1
 92
3
 72
0
 73
1
 93
4
 10
1091.25
 20
2220.0
 10
1185.0
 20
2220.0
 10
1185.0
 20
2212.5
 10
1091.25
 20
2212.5
 97
0
 75
1
 76
1
 98
0
  0
LWPOLYLINE
  5
67
330
17
100
AcDbEntity
  8
WALL
100
AcDbPolyline
 90
4
 70
1
 10
1286.25
 20
2220.0
 10
1361.25
 20
2220.0
 10
1361.25
 20
2212.5
 10
1286.25
 20
2212.5
  0
HATCH
  5
68
330
17
100
AcDbEntity
  8
WALL
100
AcDbHatch
 10
0.0
 20
0.0
 30
0.0
210
0.0
220
0.0
230
1.0
  2
SOLID
 70
1
 71
0
 91
1
 92
3
 72
0
 73
1
 93
4
 10
1286.25
 20
2220.0
 10
1361.25
 20
2220.0
 10
1361.25
 20
2212.5
 10
1286.25
 20
2212.5
 97
0
 75
1
 76
1
 98
0
  0
LWPOLYLINE
  5
69
330
17
100
AcDbEntity
  8
WALL
100
AcDbPolyline
 90
4
 70
1
 10
393.75
 20
2208.75
 10
468.75
 20
2208.75
 10
468.75
 20
2186.25
 10
393.75
 20
2186.25
  0
HATCH
  5
6A
330
17
100
AcDbEntity
  8
WALL
100
AcDbHatch
 10
0.0
 20
0.0
 30
0.0
210
0.0
220
0.0
230
1.0
  2
SOLID
 70
1
 71
0
 91
1
 92
3
 72
0
 73
1
 93
4
 10
393.75
 20
2208.75
 10
468.75
 20
2208.75
 10
468.75
 20
2186.25
 10
393.75
 20
2186.25
 97
0
 75
1
 76
1
 98
0
  0
LWPOLYLINE
  5
6B
330
17
100
AcDbEntity
  8
WALL
100
AcDbPolyline
 90
4
 70
1
 10
2328.75
 20
2208.75
 10
2388.75
 20
2208.75
 10
2388.75
 20
2197.5
 10
2328.75
 20
2197.5
  0
HATCH
  5
6C
330
17
100
AcDbEntity
  8
WALL
100
AcDbHatch
 10
0.0
 20
0.0
 30
0.0
210
0.0
220
0.0
230
1.0
  2
SOLID
 70
1
 71
0
 91
1
 92
3
 72
0
 73
1
 93
4
 10
2328.75
 20
2208.75
 10
2388.75
 20
2208.75
 10
2388.75
 20
2197.5
 10
2328.75
 20
2197.5
 97
0
 75
1
 76
1
 98
0
  0
LWPOLYLINE
  5
6D
330
17
100
AcDbEntity
  8
WALL
100
AcDbPolyline
 90
4
 70
1
 10
2433.75
 20
2208.75
 10
2475.0
 20
2208.75
 10
2475.0
 20
2205.0
 10
2433.75
 20
2205.0
  0
HATCH
  5
6E
330
17
100
AcDbEntity
  8
WALL
100
AcDbHatch
 10
0.0
 20
0.0
 30
0.0
210
0.0
220
0.0
230
1.0
  2
SOLID
 70
1
 71
0
 91
1
 92
3
 72
0
 73
1
 93
4
 10
2433.75
 20
2208.75
 10
2475.0
 20
2208.75
 10
2475.0
 20
2205.0
 10
2433.75
 20
2205.0
 97
0
 75
1
 76
1
 98
0
  0
LWPOLYLINE
  5
6F
330
17
100
AcDbEntity
  8
WALL
100
AcDbPolyline
 90
4
 70
1
 10
2167.5
 20
2201.25
 10
2257.5
 20
2201.25
 10
2257.5
 20
2171.25
 10
2167.5
 20
2171.25
  0
HATCH
  5
70
330
17
100
AcDbEntity
  8
WALL
100
AcDbHatch
 10
0.0
 20
0.0
 30
0.0
210
0.0
220
0.0
230
1.0
  2
SOLID
 70
1
 71
0
 91
1
 92
3
 72
0
 73
1
 93
4
 10
2167.5
 20
2201.25
 10
2257.5
 20
2201.25
 10
2257.5
 20
2171.25
 10
2167.5
 20
2171.25
 97
0
 75
1
 76
1
 98
0
  0
LWPOLYLINE
  5
71
330
17
100
AcDbEntity
  8
WALL
100
AcDbPolyline
 90
4
 70
1
 10
2433.75
 20
2197.5
 10
2493.75
 20
2197.5
 10
2493.75
 20
2178.75
 10
2433.75
 20
2178.75
  0
HATCH
  5
72
330
17
100
AcDbEntity
  8
WALL
100
AcDbHatch
 10
0.0
 20
0.0
 30
0.0
210
0.0
220
0.0
230
1.0
  2
SOLID
 70
1
 71
0
 91
1
 92
3
 72
0
 73
1
 93
4
 10
2433.75
 20
2197.5
 10
2493.75
 20
2197.5
 10
2493.75
 20
2178.75
 10
2433.75
 20
2178.75
 97
0
 75
1
 76
1
 98
0
  0
LWPOLYLINE
  5
73
330
17
100
AcDbEntity
  8
WALL
100
AcDbPolyline
 90
4
 70
1
 10
772.5
 20
2193.75
 10
813.75
 20
2193.75
 10
813.75
 20
2188.125
 10
772.5
 20
2188.125
  0
HATCH
  5
74
330
17
100
AcDbEntity
  8
WALL
100
AcDbHatch
 10
0.0
 20
0.0
 30
0.0
210
0.0
220
0.0
230
1.0
  2
SOLID
 70
1
 71
0
 91
1
 92
3
 72
0
 73
1
 93
4
 10
772.5
 20
2193.75
 10
813.75
 20
2193.75
 10
813.75
 20
2188.125
 10
772.5
 20
2188.125
 97
0
 75
1
 76
1
 98
0
  0
LWPOLYLINE
  5
75
330
17
100
AcDbEntity
  8
WALL
100
AcDbPolyline
 90
4
 70
1
 10
528.75
 20
2190.0
 10
573.75
 20
2190.0
 10
573.75
 20
2186.25
 10
528.75
 20
2186.25
  0
HATCH
  5
76
330
17
100
AcDbEntity
  8
WALL
100
AcDbHatch
 10
0.0
 20
0.0
 30
0.0
210
0.0
220
0.0
230
1.0
  2
SOLID
 70
1
 71
0
 91
1
 92
3
 72
0
 73
1
 93
4
 10
528.75
 20
2190.0
 10
573.75
 20
2190.0
 10
573.75
 20
2186.25
 10
528.75
 20
2186.25
 97
0
 75
1
 76
1
 98
0
  0
LWPOLYLINE
  5
77
330
17
100
AcDbEntity
  8
WALL
100
AcDbPolyline
 90
4
 70
1
 10
716.25
 20
2186.25
 10
757.5
 20
2186.25
 10
757.5
 20
2182.5
 10
716.25
 20
2182.5
  0
HATCH
  5
78
330
17
100
AcDbEntity
  8
WALL
100
AcDbHatch
 10
0.0
 20
0.0
 30
0.0
210
0.0
220
0.0
230
1.0
  2
SOLID
 70
1
 71
0
 91
1
 92
3
 72
0
 73
1
 93
4
 10
716.25
 20
2186.25
 10
757.5
 20
2186.25
 10
757.5
 20
2182.5
 10
716.25
 20
2182.5
 97
0
 75
1
 76
1
 98
0
  0
LWPOLYLINE
  5
79
330
17
100
AcDbEntity
  8
WALL
100
AcDbPolyline
 90
4
 70
1
 10
1473.75
 20
2186.25
 10
1515.0
 20
2186.25
 10
1515.0
 20
2182.5
 10
1473.75
 20
2182.5
  0
HATCH
  5
7A
330
17
100
AcDbEntity
  8
WALL
100
AcDbHatch
 10
0.0
 20
0.0
 30
0.0
210
0.0
220
0.0
230
1.0
  2
SOLID
 70
1
 71
0
 91
1
 92
3
 72
0
 73
1
 93
4
 10
1473.75
 20
2186.25
 10
1515.0
 20
2186.25
 10
1515.0
 20
2182.5
 10
1473.75
 20
2182.5
 97
0
 75
1
 76
1
 98
0
  0
LWPOLYLINE
  5
7B
330
17
100
AcDbEntity
  8
WALL
100
AcDbPolyline
 90
4
 70
1
 10
1590.0
 20
2180.625
 10
1830.0
 20
2180.625
 10
1830.0
 20
2160.0
 10
1590.0
 20
2160.0
  0
HATCH
  5
7C
330
17
100
AcDbEntity
  8
WALL
100
AcDbHatch
 10
0.0
 20
0.0
 30
0.0
210
0.0
220
0.0
230
1.0
  2
SOLID
 70
1
 71
0
 91
1
 92
3
 72
0
 73
1
 93
4
 10
1590.0
 20
2180.625
 10
1830.0
 20
2180.625
 10
1830.0
 20
2160.0
 10
1590.0
 20
2160.0
 97
0
 75
1
 76
1
 98
0
  0
LWPOLYLINE
  5
7D
330
17
100
AcDbEntity
  8
WALL
100
AcDbPolyline
 90
4
 70
1
 10
1916.25
 20
2182.5
 10
2107.5
 20
2182.5
 10
2107.5
 20
2152.5
 10
1916.25
 20
2152.5
  0
HATCH
  5
7E
330
17
100
AcDbEntity
  8
WALL
100
AcDbHatch
 10
0.0
 20
0.0
 30
0.0
210
0.0
220
0.0
230
1.0
  2
SOLID
 70
1
 71
0
 91
1
 92
3
 72
0
 73
1
 93
4
 10
1916.25
 20
2182.5
 10
2107.5
 20
2182.5
 10
2107.5
 20
2152.5
 10
1916.25
 20
2152.5
 97
0
 75
1
 76
1
 98
0
  0
LWPOLYLINE
  5
7F
330
17
100
AcDbEntity
  8
WALL
100
AcDbPolyline
 90
4
 70
1
 10
1125.0
 20
2178.75
 10
1338.75
 20
2178.75
 10
1338.75
 20
2160.0
 10
1125.0
 20
2160.0
  0
HATCH
  5
80
330
17
100
AcDbEntity
  8
WALL
100
AcDbHatch
 10
0.0
 20
0.0
 30
0.0
210
0.0
220
0.0
230
1.0
  2
SOLID
 70
1
 71
0
 91
1
 92
3
 72
0
 73
1
 93
4
 10
1125.0
 20
2178.75
 10
1338.75
 20
2178.75
 10
1338.75
 20
2160.0
 10
1125.0
 20
2160.0
 97
0
 75
1
 76
1
 98
0
  0
LWPOLYLINE
  5
81
330
17
100
AcDbEntity
  8
WALL
100
AcDbPolyline
 90
4
 70
1
 10
1342.5
 20
2178.75
 10
1496.25
 20
2178.75
 10
1496.25
 20
2167.5
 10
1342.5
 20
2167.5
  0
HATCH
  5
82
330
17
100
AcDbEntity
  8
WALL
100
AcDbHatch
 10
0.0
 20
0.0
 30
0.0
210
0.0
220
0.0
230
1.0
  2
SOLID
 70
1
 71
0
 91
1
 92
3
 72
0
 73
1
 93
4
 10
1342.5
 20
2178.75
 10
1496.25
 20
2178.75
 10
1496.25
 20
2167.5
 10
1342.5
 20
2167.5
 97
0
 75
1
 76
1
 98
0
  0
LWPOLYLINE
  5
83
330
17
100
AcDbEntity
  8
WALL
100
AcDbPolyline
 90
4
 70
1
 10
491.25
 20
2154.375
 10
532.5
 20
2154.375
 10
532.5
 20
2145.0
 10
491.25
 20
2145.0
  0
HATCH
  5
84
330
17
100
AcDbEntity
  8
WALL
100
AcDbHatch
 10
0.0
 20
0.0
 30
0.0
210
0.0
220
0.0
230
1.0
  2
SOLID
 70
1
 71
0
 91
1
 92
3
 72
0
 73
1
 93
4
 10
491.25
 20
2154.375
 10
532.5
 20
2154.375
 10
532.5
 20
2145.0
 10
491.25
 20
2145.0
 97
0
 75
1
 76
1
 98
0
  0
LWPOLYLINE
  5
85
330
17
100
AcDbEntity
  8
WALL
100
AcDbPolyline
 90
4
 70
1
 10
390.0
 20
2152.5
 10
468.75
 20
2152.5
 10
468.75
 20
2141.25
 10
390.0
 20
2141.25
  0
HATCH
  5
86
330
17
100
AcDbEntity
  8
WALL
100
AcDbHatch
 10
0.0
 20
0.0
 30
0.0
210
0.0
220
0.0
230
1.0
  2
SOLID
 70
1
 71
0
 91
1
 92
3
 72
0
 73
1
 93
4
 10
390.0
 20
2152.5
 10
468.75
 20
2152.5
 10
468.75
 20
2141.25
 10
390.0
 20
2141.25
 97
0
 75
1
 76
1
 98
0
  0
LWPOLYLINE
  5
87
330
17
100
AcDbEntity
  8
WALL
100
AcDbPolyline
 90
4
 70
1
 10
1987.5
 20
2152.5
 10
2043.75
 20
2152.5
 10
2043.75
 20
2145.0
 10
1987.5
 20
2145.0
  0
HATCH
  5
88
330
17
100
AcDbEntity
  8
WALL
100
AcDbHatch
 10
0.0
 20
0.0
 30
0.0
210
0.0
220
0.0
230
1.0
  2
SOLID
 70
1
 71
0
 91
1
 92
3
 72
0
 73
1
 93
4
 10
1987.5
 20
2152.5
 10
2043.75
 20
2152.5
 10
2043.75
 20
2145.0
 10
1987.5
 20
2145.0
 97
0
 75
1
 76
1
 98
0
  0
LWPOLYLINE
  5
89
330
17
100
AcDbEntity
  8
WALL
100
AcDbPolyline
 90
4
 70
1
 10
2141.25
 20
2152.5
 10
2205.0
 20
2152.5
 10
2205.0
 20
2141.25
 10
2141.25
 20
2141.25
  0
HATCH
  5
8A
330
17
100
AcDbEntity
  8
WALL
100
AcDbHatch
 10
0.0
 20
0.0
 30
0.0
210
0.0
220
0.0
230
1.0
  2
SOLID
 70
1
 71
0
 91
1
 92
3
 72
0
 73
1
 93
4
 10
2141.25
 20
2152.5
 10
2205.0
 20
2152.5
 10
2205.0
 20
2141.25
 10
2141.25
 20
2141.25
 97
0
 75
1
 76
1
 98
0
  0
LWPOLYLINE
  5
8B
330
17
100
AcDbEntity
  8
WALL
100
AcDbPolyline
 90
4
 70
1
 10
1455.0
 20
2148.75
 10
1518.75
 20
2148.75
 10
1518.75
 20
2141.25
 10
1455.0
 20
2141.25
  0
HATCH
  5
8C
330
17
100
AcDbEntity
  8
WALL
100
AcDbHatch
 10
0.0
 20
0.0
 30
0.0
210
0.0
220
0.0
230
1.0
  2
SOLID
 70
1
 71
0
 91
1
 92
3
 72
0
 73
1
 93
4
 10
1455.0
 20
2148.75
 10
1518.75
 20
2148.75
 10
1518.75
 20
2141.25
 10
1455.0
 20
2141.25
 97
0
 75
1
 76
1
 98
0
  0
LWPOLYLINE
  5
8D
330
17
100
AcDbEntity
  8
WALL
100
AcDbPolyline
 90
4
 70
1
 10
570.0
 20
2139.375
 10
611.25
 20
2139.375
 10
611.25
 20
2135.625
 10
570.0
 20
2135.625
  0
HATCH
  5
8E
330
17
100
AcDbEntity
  8
WALL
100
AcDbHatch
 10
0.0
 20
0.0
 30
0.0
210
0.0
220
0.0
230
1.0
  2
SOLID
 70
1
 71
0
 91
1
 92
3
 72
0
 73
1
 93
4
 10
570.0
 20
2139.375
 10
611.25
 20
2139.375
 10
611.25
 20
2135.625
 10
570.0
 20
2135.625
 97
0
 75
1
 76
1
 98
0
  0
LWPOLYLINE
  5
8F
330
17
100
AcDbEntity
  8
WALL
100
AcDbPolyline
 90
4
 70
1
 10
457.5
 20
2131.875
 10
510.0
 20
2131.875
 10
510.0
 20
2126.25
 10
457.5
 20
2126.25
  0
HATCH
  5
90
330
17
100
AcDbEntity
  8
WALL
100
AcDbHatch
 10
0.0
 20
0.0
 30
0.0
210
0.0
220
0.0
230
1.0
  2
SOLID
 70
1
 71
0
 91
1
 92
3
 72
0
 73
1
 93
4
 10
457.5
 20
2131.875
 10
510.0
 20
2131.875
 10
510.0
 20
2126.25
 10
457.5
 20
2126.25
 97
0
 75
1
 76
1
 98
0
  0
LWPOLYLINE
  5
91
330
17
100
AcDbEntity
  8
WALL
100
AcDbPolyline
 90
4
 70
1
 10
397.5
 20
2126.25
 10
438.75
 20
2126.25
 10
438.75
 20
2124.375
 10
397.5
 20
2124.375
  0
HATCH
  5
92
330
17
100
AcDbEntity
  8
WALL
100
AcDbHatch
 10
0.0
 20
0.0
 30
0.0
210
0.0
220
0.0
230
1.0
  2
SOLID
 70
1
 71
0
 91
1
 92
3
 72
0
 73
1
 93
4
 10
397.5
 20
2126.25
 10
438.75
 20
2126.25
 10
438.75
 20
2124.375
 10
397.5
 20
2124.375
 97
0
 75
1
 76
1
 98
0
  0
LWPOLYLINE
  5
93
330
17
100
AcDbEntity
  8
WALL
100
AcDbPolyline
 90
4
 70
1
 10
810.0
 20
2126.25
 10
858.75
 20
2126.25
 10
858.75
 20
2118.75
 10
810.0
 20
2118.75
  0
HATCH
  5
94
330
17
100
AcDbEntity
  8
WALL
100
AcDbHatch
 10
0.0
 20
0.0
 30
0.0
210
0.0
220
0.0
230
1.0
  2
SOLID
 70
1
 71
0
 91
1
 92
3
 72
0
 73
1
 93
4
 10
810.0
 20
2126.25
 10
858.75
 20
2126.25
 10
858.75
 20
2118.75
 10
810.0
 20
2118.75
 97
0
 75
1
 76
1
 98
0
  0
LWPOLYLINE
  5
95
330
17
100
AcDbEntity
  8
WALL
100
AcDbPolyline
 90
4
 70
1
 10
690.0
 20
2122.5
 10
753.75
 20
2122.5
 10
753.75
 20
2115.0
 10
690.0
 20
2115.0
  0
HATCH
  5
96
330
17
100
AcDbEntity
  8
WALL
100
AcDbHatch
 10
0.0
 20
0.0
 30
0.0
210
0.0
220
0.0
230
1.0
  2
SOLID
 70
1
 71
0
 91
1
 92
3
 72
0
 73
1
 93
4
 10
690.0
 20
2122.5
 10
753.75
 20
2122.5
 10
753.75
 20
2115.0
 10
690.0
 20
2115.0
 97
0
 75
1
 76
1
 98
0
  0
LWPOLYLINE
  5
97
330
17
100
AcDbEntity
  8
WALL
100
AcDbPolyline
 90
4
 70
1
 10
393.75
 20
2118.75
 10
435.0
 20
2118.75
 10
435.0
 20
2113.125
 10
393.75
 20
2113.125
  0
HATCH
  5
98
330
17
100
AcDbEntity
  8
WALL
100
AcDbHatch
 10
0.0
 20
0.0
 30
0.0
210
0.0
220
0.0
230
1.0
  2
SOLID
 70
1
 71
0
 91
1
 92
3
 72
0
 73
1
 93
4
 10
393.75
 20
2118.75
 10
435.0
 20
2118.75
 10
435.0
 20
2113.125
 10
393.75
 20
2113.125
 97
0
 75
1
 76
1
 98
0
  0
LWPOLYLINE
  5
99
330
17
100
AcDbEntity
  8
WALL
100
AcDbPolyline
 90
4
 70
1
 10
483.75
 20
2081.25
 10
532.5
 20
2081.25
 10
532.5
 20
2068.125
 10
483.75
 20
2068.125
  0
HATCH
  5
9A
330
17
100
AcDbEntity
  8
WALL
100
AcDbHatch
 10
0.0
 20
0.0
 30
0.0
210
0.0
220
0.0
230
1.0
  2
SOLID
 70
1
 71
0
 91
1
 92
3
 72
0
 73
1
 93
4
 10
483.75
 20
2081.25
 10
532.5
 20
2081.25
 10
532.5
 20
2068.125
 10
483.75
 20
2068.125
 97
0
 75
1
 76
1
 98
0
  0
LWPOLYLINE
  5
9B
330
17
100
AcDbEntity
  8
WALL
100
AcDbPolyline
 90
4
 70
1
 10
810.0
 20
2073.75
 10
858.75
 20
2073.75
 10
858.75
 20
2068.125
 10
810.0
 20
2068.125
  0
HATCH
  5
9C
330
17
100
AcDbEntity
  8
WALL
100
AcDbHatch
 10
0.0
 20
0.0
 30
0.0
210
0.0
220
0.0
230
1.0
  2
SOLID
 70
1
 71
0
 91
1
 92
3
 72
0
 73
1
 93
4
 10
810.0
 20
2073.75
 10
858.75
 20
2073.75
 10
858.75
 20
2068.125
 10
810.0
 20
2068.125
 97
0
 75
1
 76
1
 98
0
  0
LWPOLYLINE
  5
9D
330
17
100
AcDbEntity
  8
WALL
100
AcDbPolyline
 90
4
 70
1
 10
810.0
 20
2040.0
 10
870.0
 20
2040.0
 10
870.0
 20
2028.75
 10
810.0
 20
2028.75
  0
HATCH
  5
9E
330
17
100
AcDbEntity
  8
WALL
100
AcDbHatch
 10
0.0
 20
0.0
 30
0.0
210
0.0
220
0.0
230
1.0
  2
SOLID
 70
1
 71
0
 91
1
 92
3
 72
0
 73
1
 93
4
 10
810.0
 20
2040.0
 10
870.0
 20
2040.0
 10
870.0
 20
2028.75
 10
810.0
 20
2028.75
 97
0
 75
1
 76
1
 98
0
  0
LWPOLYLINE
  5
9F
330
17
100
AcDbEntity
  8
WALL
100
AcDbPolyline
 90
4
 70
1
 10
2137.5
 20
2017.5
 10
2223.75
 20
2017.5
 10
2223.75
 20
2006.25
 10
2137.5
 20
2006.25
  0
HATCH
  5
A0
330
17
100
AcDbEntity
  8
WALL
100
AcDbHatch
 10
0.0
 20
0.0
 30
0.0
210
0.0
220
0.0
230
1.0
  2
SOLID
 70
1
 71
0
 91
1
 92
3
 72
0
 73
1
 93
4
 10
2137.5
 20
2017.5
 10
2223.75
 20
2017.5
 10
2223.75
 20
2006.25
 10
2137.5
 20
2006.25
 97
0
 75
1
 76
1
 98
0
  0
LWPOLYLINE
  5
A1
330
17
100
AcDbEntity
  8
WALL
100
AcDbPolyline
 90
4
 70
1
 10
810.0
 20
2013.75
 10
873.75
 20
2013.75
 10
873.75
 20
1998.75
 10
810.0
 20
1998.75
  0
HATCH
  5
A2
330
17
100
AcDbEntity
  8
WALL
100
AcDbHatch
 10
0.0
 20
0.0
 30
0.0
210
0.0
220
0.0
230
1.0
  2
SOLID
 70
1
 71
0
 91
1
 92
3
 72
0
 73
1
 93
4
 10
810.0
 20
2013.75
 10
873.75
 20
2013.75
 10
873.75
 20
1998.75
 10
810.0
 20
1998.75
 97
0
 75
1
 76
1
 98
0
  0
LWPOLYLINE
  5
A3
330
17
100
AcDbEntity
  8
WALL
100
AcDbPolyline
 90
4
 70
1
 10
1451.25
 20
2013.75
 10
1537.5
 20
2013.75
 10
1537.5
 20
2004.375
 10
1451.25
 20
2004.375
  0
HATCH
  5
A4
330
17
100
AcDbEntity
  8
WALL
100
AcDbHatch
 10
0.0
 20
0.0
 30
0.0
210
0.0
220
0.0
230
1.0
  2
SOLID
 70
1
 71
0
 91
1
 92
3
 72
0
 73
1
 93
4
 10
1451.25
 20
2013.75
 10
1537.5
 20
2013.75
 10
1537.5
 20
2004.375
 10
1451.25
 20
2004.375
 97
0
 75
1
 76
1
 98
0
  0
LWPOLYLINE
  5
A5
330
17
100
AcDbEntity
  8
WALL
100
AcDbPolyline
 90
4
 70
1
 10
2137.5
 20
1989.375
 10
2182.5
 20
1989.375
 10
2182.5
 20
1983.75
 10
2137.5
 20
1983.75
  0
HATCH
  5
A6
330
17
100
AcDbEntity
  8
WALL
100
AcDbHatch
 10
0.0
 20
0.0
 30
0.0
210
0.0
220
0.0
230
1.0
  2
SOLID
 70
1
 71
0
 91
1
 92
3
 72
0
 73
1
 93
4
 10
2137.5
 20
1989.375
 10
2182.5
 20
1989.375
 10
2182.5
 20
1983.75
 10
2137.5
 20
1983.75
 97
0
 75
1
 76
1
 98
0
  0
LWPOLYLINE
  5
A7
330
17
100
AcDbEntity
  8
WALL
100
AcDbPolyline
 90
4
 70
1
 10
1466.25
 20
1987.5
 10
1541.25
 20
1987.5
 10
1541.25
 20
1980.0
 10
1466.25
 20
1980.0
  0
HATCH
  5
A8
330
17
100
AcDbEntity
  8
WALL
100
AcDbHatch
 10
0.0
 20
0.0
 30
0.0
210
0.0
220
0.0
230
1.0
  2
SOLID
 70
1
 71
0
 91
1
 92
3
 72
0
 73
1
 93
4
 10
1466.25
 20
1987.5
 10
1541.25
 20
1987.5
 10
1541.25
 20
1980.0
 10
1466.25
 20
1980.0
 97
0
 75
1
 76
1
 98
0
  0
LWPOLYLINE
  5
A9
330
17
100
AcDbEntity
  8
WALL
100
AcDbPolyline
 90
4
 70
1
 10
1005.0
 20
1976.25
 10
1087.5
 20
1976.25
 10
1087.5
 20
1957.5
 10
1005.0
 20
1957.5
  0
HATCH
  5
AA
330
17
100
AcDbEntity
  8
WALL
100
AcDbHatch
 10
0.0
 20
0.0
 30
0.0
210
0.0
220
0.0
230
1.0
  2
SOLID
 70
1
 71
0
 91
1
 92
3
 72
0
 73
1
 93
4
 10
1005.0
 20
1976.25
 10
1087.5
 20
1976.25
 10
1087.5
 20
1957.5
 10
1005.0
 20
1957.5
 97
0
 75
1
 76
1
 98
0
  0
LWPOLYLINE
  5
AB
330
17
100
AcDbEntity
  8
WALL
100
AcDbPolyline
 90
4
 70
1
 10
1605.0
 20
1953.75
 10
1646.25
 20
1953.75
 10
1646.25
 20
1948.125
 10
1605.0
 20
1948.125
  0
HATCH
  5
AC
330
17
100
AcDbEntity
  8
WALL
100
AcDbHatch
 10
0.0
 20
0.0
 30
0.0
210
0.0
220
0.0
230
1.0
  2
SOLID
 70
1
 71
0
 91
1
 92
3
 72
0
 73
1
 93
4
 10
1605.0
 20
1953.75
 10
1646.25
 20
1953.75
 10
1646.25
 20
1948.125
 10
1605.0
 20
1948.125
 97
0
 75
1
 76
1
 98
0
  0
LWPOLYLINE
  5
AD
330
17
100
AcDbEntity
  8
WALL
100
AcDbPolyline
 90
4
 70
1
 10
1635.0
 20
1905.0
 10
1695.0
 20
1905.0
 10
1695.0
 20
1897.5
 10
1635.0
 20
1897.5
  0
HATCH
  5
AE
330
17
100
AcDbEntity
  8
WALL
100
AcDbHatch
 10
0.0
 20
0.0
 30
0.0
210
0.0
220
0.0
230
1.0
  2
SOLID
 70
1
 71
0
 91
1
 92
3
 72
0
 73
1
 93
4
 10
1635.0
 20
1905.0
 10
1695.0
 20
1905.0
 10
1695.0
 20
1897.5
 10
1635.0
 20
1897.5
 97
0
 75
1
 76
1
 98
0
  0
LWPOLYLINE
  5
AF
330
17
100
AcDbEntity
  8
WALL
100
AcDbPolyline
 90
4
 70
1
 10
1451.25
 20
1858.125
 10
1541.25
 20
1858.125
 10
1541.25
 20
1841.25
 10
1451.25
 20
1841.25
  0
HATCH
  5
B0
330
17
100
AcDbEntity
  8
WALL
100
AcDbHatch
 10
0.0
 20
0.0
 30
0.0
210
0.0
220
0.0
230
1.0
  2
SOLID
 70
1
 71
0
 91
1
 92
3
 72
0
 73
1
 93
4
 10
1451.25
 20
1858.125
 10
1541.25
 20
1858.125
 10
1541.25
 20
1841.25
 10
1451.25
 20
1841.25
 97
0
 75
1
 76
1
 98
0
  0
LWPOLYLINE
  5
B1
330
17
100
AcDbEntity
  8
WALL
100
AcDbPolyline
 90
4
 70
1
 10
2137.5
 20
1860.0
 10
2227.5
 20
1860.0
 10
2227.5
 20
1841.25
 10
2137.5
 20
1841.25
  0
HATCH
  5
B2
330
17
100
AcDbEntity
  8
WALL
100
AcDbHatch
 10
0.0
 20
0.0
 30
0.0
210
0.0
220
0.0
230
1.0
  2
SOLID
 70
1
 71
0
 91
1
 92
3
 72
0
 73
1
 93
4
 10
2137.5
 20
1860.0
 10
2227.5
 20
1860.0
 10
2227.5
 20
1841.25
 10
2137.5
 20
1841.25
 97
0
 75
1
 76
1
 98
0
  0
LWPOLYLINE
  5
B3
330
17
100
AcDbEntity
  8
WALL
100
AcDbPolyline
 90
4
 70
1
 10
1286.25
 20
1822.5
 10
1443.75
 20
1822.5
 10
1443.75
 20
1800.0
 10
1286.25
 20
1800.0
  0
HATCH
  5
B4
330
17
100
AcDbEntity
  8
WALL
100
AcDbHatch
 10
0.0
 20
0.0
 30
0.0
210
0.0
220
0.0
230
1.0
  2
SOLID
 70
1
 71
0
 91
1
 92
3
 72
0
 73
1
 93
4
 10
1286.25
 20
1822.5
 10
1443.75
 20
1822.5
 10
1443.75
 20
1800.0
 10
1286.25
 20
1800.0
 97
0
 75
1
 76
1
 98
0
  0
LWPOLYLINE
  5
B5
330
17
100
AcDbEntity
  8
WALL
100
AcDbPolyline
 90
4
 70
1
 10
1980.0
 20
1822.5
 10
2148.75
 20
1822.5
 10
2148.75
 20
1800.0
 10
1980.0
 20
1800.0
  0
HATCH
  5
B6
330
17
100
AcDbEntity
  8
WALL
100
AcDbHatch
 10
0.0
 20
0.0
 30
0.0
210
0.0
220
0.0
230
1.0
  2
SOLID
 70
1
 71
0
 91
1
 92
3
 72
0
 73
1
 93
4
 10
1980.0
 20
1822.5
 10
2148.75
 20
1822.5
 10
2148.75
 20
1800.0
 10
1980.0
 20
1800.0
 97
0
 75
1
 76
1
 98
0
  0
LWPOLYLINE
  5
B7
330
17
100
AcDbEntity
  8
WALL
100
AcDbPolyline
 90
4
 70
1
 10
1357.5
 20
1743.75
 10
1443.75
 20
1743.75
 10
1443.75
 20
1732.5
 10
1357.5
 20
1732.5
  0
HATCH
  5
B8
330
17
100
AcDbEntity
  8
WALL
100
AcDbHatch
 10
0.0
 20
0.0
 30
0.0
210
0.0
220
0.0
230
1.0
  2
SOLID
 70
1
 71
0
 91
1
 92
3
 72
0
 73
1
 93
4
 10
1357.5
 20
1743.75
 10
1443.75
 20
1743.75
 10
1443.75
 20
1732.5
 10
1357.5
 20
1732.5
 97
0
 75
1
 76
1
 98
0
  0
LWPOLYLINE
  5
B9
330
17
100
AcDbEntity
  8
WALL
100
AcDbPolyline
 90
4
 70
1
 10
2092.5
 20
1728.75
 10
2137.5
 20
1728.75
 10
2137.5
 20
1721.25
 10
2092.5
 20
1721.25
  0
HATCH
  5
BA
330
17
100
AcDbEntity
  8
WALL
100
AcDbHatch
 10
0.0
 20
0.0
 30
0.0
210
0.0
220
0.0
230
1.0
  2
SOLID
 70
1
 71
0
 91
1
 92
3
 72
0
 73
1
 93
4
 10
2092.5
 20
1728.75
 10
2137.5
 20
1728.75
 10
2137.5
 20
1721.25
 10
2092.5
 20
1721.25
 97
0
 75
1
 76
1
 98
0
  0
LWPOLYLINE
  5
BB
330
17
100
AcDbEntity
  8
WALL
100
AcDbPolyline
 90
4
 70
1
 10
1080.0
 20
1687.5
 10
1155.0
 20
1687.5
 10
1155.0
 20
1672.5
 10
1080.0
 20
1672.5
  0
HATCH
  5
BC
330
17
100
AcDbEntity
  8
WALL
100
AcDbHatch
 10
0.0
 20
0.0
 30
0.0
210
0.0
220
0.0
230
1.0
  2
SOLID
 70
1
 71
0
 91
1
 92
3
 72
0
 73
1
 93
4
 10
1080.0
 20
1687.5
 10
1155.0
 20
1687.5
 10
1155.0
 20
1672.5
 10
1080.0
 20
1672.5
 97
0
 75
1
 76
1
 98
0
  0
LWPOLYLINE
  5
BD
330
17
100
AcDbEntity
  8
WALL
100
AcDbPolyline
 90
4
 70
1
 10
2085.0
 20
1680.0
 10
2137.5
 20
1680.0
 10
2137.5
 20
1665.0
 10
2085.0
 20
1665.0
  0
HATCH
  5
BE
330
17
100
AcDbEntity
  8
WALL
100
AcDbHatch
 10
0.0
 20
0.0
 30
0.0
210
0.0
220
0.0
230
1.0
  2
SOLID
 70
1
 71
0
 91
1
 92
3
 72
0
 73
1
 93
4
 10
2085.0
 20
1680.0
 10
2137.5
 20
1680.0
 10
2137.5
 20
1665.0
 10
2085.0
 20
1665.0
 97
0
 75
1
 76
1
 98
0
  0
LWPOLYLINE
  5
BF
330
17
100
AcDbEntity
  8
WALL
100
AcDbPolyline
 90
4
 70
1
 10
1095.0
 20
1661.25
 10
1155.0
 20
1661.25
 10
1155.0
 20
1651.875
 10
1095.0
 20
1651.875
  0
HATCH
  5
C0
330
17
100
AcDbEntity
  8
WALL
100
AcDbHatch
 10
0.0
 20
0.0
 30
0.0
210
0.0
220
0.0
230
1.0
  2
SOLID
 70
1
 71
0
 91
1
 92
3
 72
0
 73
1
 93
4
 10
1095.0
 20
1661.25
 10
1155.0
 20
1661.25
 10
1155.0
 20
1651.875
 10
1095.0
 20
1651.875
 97
0
 75
1
 76
1
 98
0
  0
LWPOLYLINE
  5
C1
330
17
100
AcDbEntity
  8
WALL
100
AcDbPolyline
 90
4
 70
1
 10
2092.5
 20
1661.25
 10
2145.0
 20
1661.25
 10
2145.0
 20
1638.75
 10
2092.5
 20
1638.75
  0
HATCH
  5
C2
330
17
100
AcDbEntity
  8
WALL
100
AcDbHatch
 10
0.0
 20
0.0
 30
0.0
210
0.0
220
0.0
230
1.0
  2
SOLID
 70
1
 71
0
 91
1
 92
3
 72
0
 73
1
 93
4
 10
2092.5
 20
1661.25
 10
2145.0
 20
1661.25
 10
2145.0
 20
1638.75
 10
2092.5
 20
1638.75
 97
0
 75
1
 76
1
 98
0
  0
LWPOLYLINE
  5
C3
330
17
100
AcDbEntity
  8
WALL
100
AcDbPolyline
 90
4
 70
1
 10
1440.0
 20
1582.5
 10
1485.0
 20
1582.5
 10
1485.0
 20
1576.875
 10
1440.0
 20
1576.875
  0
HATCH
  5
C4
330
17
100
AcDbEntity
  8
WALL
100
AcDbHatch
 10
0.0
 20
0.0
 30
0.0
210
0.0
220
0.0
230
1.0
  2
SOLID
 70
1
 71
0
 91
1
 92
3
 72
0
 73
1
 93
4
 10
1440.0
 20
1582.5
 10
1485.0
 20
1582.5
 10
1485.0
 20
1576.875
 10
1440.0
 20
1576.875
 97
0
 75
1
 76
1
 98
0
  0
LWPOLYLINE
  5
C5
330
17
100
AcDbEntity
  8
WALL
100
AcDbPolyline
 90
4
 70
1
 10
2328.75
 20
1575.0
 10
2411.25
 20
1575.0
 10
2411.25
 20
1552.5
 10
2328.75
 20
1552.5
  0
HATCH
  5
C6
330
17
100
AcDbEntity
  8
WALL
100
AcDbHatch
 10
0.0
 20
0.0
 30
0.0
210
0.0
220
0.0
230
1.0
  2
SOLID
 70
1
 71
0
 91
1
 92
3
 72
0
 73
1
 93
4
 10
2328.75
 20
1575.0
 10
2411.25
 20
1575.0
 10
2411.25
 20
1552.5
 10
2328.75
 20
1552.5
 97
0
 75
1
 76
1
 98
0
  0
LWPOLYLINE
  5
C7
330
17
100
AcDbEntity
  8
WALL
100
AcDbPolyline
 90
4
 70
1
 10
1083.75
 20
1563.75
 10
1128.75
 20
1563.75
 10
1128.75
 20
1560.0
 10
1083.75
 20
1560.0
  0
HATCH
  5
C8
330
17
100
AcDbEntity
  8
WALL
100
AcDbHatch
 10
0.0
 20
0.0
 30
0.0
210
0.0
220
0.0
230
1.0
  2
SOLID
 70
1
 71
0
 91
1
 92
3
 72
0
 73
1
 93
4
 10
1083.75
 20
1563.75
 10
1128.75
 20
1563.75
 10
1128.75
 20
1560.0
 10
1083.75
 20
1560.0
 97
0
 75
1
 76
1
 98
0
  0
LWPOLYLINE
  5
C9
330
17
100
AcDbEntity
  8
WALL
100
AcDbPolyline
 90
4
 70
1
 10
1815.0
 20
1548.75
 10
2257.5
 20
1548.75
 10
2257.5
 20
1518.75
 10
1815.0
 20
1518.75
  0
HATCH
  5
CA
330
17
100
AcDbEntity
  8
WALL
100
AcDbHatch
 10
0.0
 20
0.0
 30
0.0
210
0.0
220
0.0
230
1.0
  2
SOLID
 70
1
 71
0
 91
1
 92
3
 72
0
 73
1
 93
4
 10
1815.0
 20
1548.75
 10
2257.5
 20
1548.75
 10
2257.5
 20
1518.75
 10
1815.0
 20
1518.75
 97
0
 75
1
 76
1
 98
0
  0
LWPOLYLINE
  5
CB
330
17
100
AcDbEntity
  8
WALL
100
AcDbPolyline
 90
4
 70
1
 10
1462.5
 20
1513.125
 10
1530.0
 20
1513.125
 10
1530.0
 20
1507.5
 10
1462.5
 20
1507.5
  0
HATCH
  5
CC
330
17
100
AcDbEntity
  8
WALL
100
AcDbHatch
 10
0.0
 20
0.0
 30
0.0
210
0.0
220
0.0
230
1.0
  2
SOLID
 70
1
 71
0
 91
1
 92
3
 72
0
 73
1
 93
4
 10
1462.5
 20
1513.125
 10
1530.0
 20
1513.125
 10
1530.0
 20
1507.5
 10
1462.5
 20
1507.5
 97
0
 75
1
 76
1
 98
0
  0
LWPOLYLINE
  5
CD
330
17
100
AcDbEntity
  8
WALL
100
AcDbPolyline
 90
4
 70
1
 10
723.75
 20
1441.875
 10
870.0
 20
1441.875
 10
870.0
 20
1413.75
 10
723.75
 20
1413.75
  0
HATCH
  5
CE
330
17
100
AcDbEntity
  8
WALL
100
AcDbHatch
 10
0.0
 20
0.0
 30
0.0
210
0.0
220
0.0
230
1.0
  2
SOLID
 70
1
 71
0
 91
1
 92
3
 72
0
 73
1
 93
4
 10
723.75
 20
1441.875
 10
870.0
 20
1441.875
 10
870.0
 20
1413.75
 10
723.75
 20
1413.75
 97
0
 75
1
 76
1
 98
0
  0
LWPOLYLINE
  5
CF
330
17
100
AcDbEntity
  8
WALL
100
AcDbPolyline
 90
4
 70
1
 10
2077.5
 20
1426.875
 10
2160.0
 20
1426.875
 10
2160.0
 20
1417.5
 10
2077.5
 20
1417.5
  0
HATCH
  5
D0
330
17
100
AcDbEntity
  8
WALL
100
AcDbHatch
 10
0.0
 20
0.0
 30
0.0
210
0.0
220
0.0
230
1.0
  2
SOLID
 70
1
 71
0
 91
1
 92
3
 72
0
 73
1
 93
4
 10
2077.5
 20
1426.875
 10
2160.0
 20
1426.875
 10
2160.0
 20
1417.5
 10
2077.5
 20
1417.5
 97
0
 75
1
 76
1
 98
0
  0
LWPOLYLINE
  5
D1
330
17
100
AcDbEntity
  8
WALL
100
AcDbPolyline
 90
4
 70
1
 10
2081.25
 20
1413.75
 10
2250.0
 20
1413.75
 10
2250.0
 20
1383.75
 10
2081.25
 20
1383.75
  0
HATCH
  5
D2
330
17
100
AcDbEntity
  8
WALL
100
AcDbHatch
 10
0.0
 20
0.0
 30
0.0
210
0.0
220
0.0
230
1.0
  2
SOLID
 70
1
 71
0
 91
1
 92
3
 72
0
 73
1
 93
4
 10
2081.25
 20
1413.75
 10
2250.0
 20
1413.75
 10
2250.0
 20
1383.75
 10
2081.25
 20
1383.75
 97
0
 75
1
 76
1
 98
0
  0
LWPOLYLINE
  5
D3
330
17
100
AcDbEntity
  8
WALL
100
AcDbPolyline
 90
4
 70
1
 10
2265.0
 20
1350.0
 10
2310.0
 20
1350.0
 10
2310.0
 20
1342.5
 10
2265.0
 20
1342.5
  0
HATCH
  5
D4
330
17
100
AcDbEntity
  8
WALL
100
AcDbHatch
 10
0.0
 20
0.0
 30
0.0
210
0.0
220
0.0
230
1.0
  2
SOLID
 70
1
 71
0
 91
1
 92
3
 72
0
 73
1
 93
4
 10
2265.0
 20
1350.0
 10
2310.0
 20
1350.0
 10
2310.0
 20
1342.5
 10
2265.0
 20
1342.5
 97
0
 75
1
 76
1
 98
0
  0
LWPOLYLINE
  5
D5
330
17
100
AcDbEntity
  8
WALL
100
AcDbPolyline
 90
4
 70
1
 10
1436.25
 20
1316.25
 10
1567.5
 20
1316.25
 10
1567.5
 20
1301.25
 10
1436.25
 20
1301.25
  0
HATCH
  5
D6
330
17
100
AcDbEntity
  8
WALL
100
AcDbHatch
 10
0.0
 20
0.0
 30
0.0
210
0.0
220
0.0
230
1.0
  2
SOLID
 70
1
 71
0
 91
1
 92
3
 72
0
 73
1
 93
4
 10
1436.25
 20
1316.25
 10
1567.5
 20
1316.25
 10
1567.5
 20
1301.25
 10
1436.25
 20
1301.25
 97
0
 75
1
 76
1
 98
0
  0
LWPOLYLINE
  5
D7
330
17
100
AcDbEntity
  8
WALL
100
AcDbPolyline
 90
4
 70
1
 10
2085.0
 20
1306.875
 10
2156.25
 20
1306.875
 10
2156.25
 20
1297.5
 10
2085.0
 20
1297.5
  0
HATCH
  5
D8
330
17
100
AcDbEntity
  8
WALL
100
AcDbHatch
 10
0.0
 20
0.0
 30
0.0
210
0.0
220
0.0
230
1.0
  2
SOLID
 70
1
 71
0
 91
1
 92
3
 72
0
 73
1
 93
4
 10
2085.0
 20
1306.875
 10
2156.25
 20
1306.875
 10
2156.25
 20
1297.5
 10
2085.0
 20
1297.5
 97
0
 75
1
 76
1
 98
0
  0
LWPOLYLINE
  5
D9
330
17
100
AcDbEntity
  8
WALL
100
AcDbPolyline
 90
4
 70
1
 10
1316.25
 20
1297.5
 10
1616.25
 20
1297.5
 10
1616.25
 20
1271.25
 10
1316.25
 20
1271.25
  0
HATCH
  5
DA
330
17
100
AcDbEntity
  8
WALL
100
AcDbHatch
 10
0.0
 20
0.0
 30
0.0
210
0.0
220
0.0
230
1.0
  2
SOLID
 70
1
 71
0
 91
1
 92
3
 72
0
 73
1
 93
4
 10
1316.25
 20
1297.5
 10
1616.25
 20
1297.5
 10
1616.25
 20
1271.25
 10
1316.25
 20
1271.25
 97
0
 75
1
 76
1
 98
0
  0
LWPOLYLINE
  5
DB
330
17
100
AcDbEntity
  8
WALL
100
AcDbPolyline
 90
4
 70
1
 10
2283.75
 20
1293.75
 10
2411.25
 20
1293.75
 10
2411.25
 20
1278.75
 10
2283.75
 20
1278.75
  0
HATCH
  5
DC
330
17
100
AcDbEntity
  8
WALL
100
AcDbHatch
 10
0.0
 20
0.0
 30
0.0
210
0.0
220
0.0
230
1.0
  2
SOLID
 70
1
 71
0
 91
1
 92
3
 72
0
 73
1
 93
4
 10
2283.75
 20
1293.75
 10
2411.25
 20
1293.75
 10
2411.25
 20
1278.75
 10
2283.75
 20
1278.75
 97
0
 75
1
 76
1
 98
0
  0
LWPOLYLINE
  5
DD
330
17
100
AcDbEntity
  8
WALL
100
AcDbPolyline
 90
4
 70
1
 10
1852.5
 20
1282.5
 10
1946.25
 20
1282.5
 10
1946.25
 20
1271.25
 10
1852.5
 20
1271.25
  0
HATCH
  5
DE
330
17
100
AcDbEntity
  8
WALL
100
AcDbHatch
 10
0.0
 20
0.0
 30
0.0
210
0.0
220
0.0
230
1.0
  2
SOLID
 70
1
 71
0
 91
1
 92
3
 72
0
 73
1
 93
4
 10
1852.5
 20
1282.5
 10
1946.25
 20
1282.5
 10
1946.25
 20
1271.25
 10
1852.5
 20
1271.25
 97
0
 75
1
 76
1
 98
0
  0
LWPOLYLINE
  5
DF
330
17
100
AcDbEntity
  8
WALL
100
AcDbPolyline
 90
4
 70
1
 10
2201.25
 20
1192.5
 10
2250.0
 20
1192.5
 10
2250.0
 20
1188.75
 10
2201.25
 20
1188.75
  0
HATCH
  5
E0
330
17
100
AcDbEntity
  8
WALL
100
AcDbHatch
 10
0.0
 20
0.0
 30
0.0
210
0.0
220
0.0
230
1.0
  2
SOLID
 70
1
 71
0
 91
1
 92
3
 72
0
 73
1
 93
4
 10
2201.25
 20
1192.5
 10
2250.0
 20
1192.5
 10
2250.0
 20
1188.75
 10
2201.25
 20
1188.75
 97
0
 75
1
 76
1
 98
0
  0
LWPOLYLINE
  5
E1
330
17
100
AcDbEntity
  8
WALL
100
AcDbPolyline
 90
4
 70
1
 10
517.5
 20
1177.5
 10
588.75
 20
1177.5
 10
588.75
 20
1168.125
 10
517.5
 20
1168.125
  0
HATCH
  5
E2
330
17
100
AcDbEntity
  8
WALL
100
AcDbHatch
 10
0.0
 20
0.0
 30
0.0
210
0.0
220
0.0
230
1.0
  2
SOLID
 70
1
 71
0
 91
1
 92
3
 72
0
 73
1
 93
4
 10
517.5
 20
1177.5
 10
588.75
 20
1177.5
 10
588.75
 20
1168.125
 10
517.5
 20
1168.125
 97
0
 75
1
 76
1
 98
0
  0
LWPOLYLINE
  5
E3
330
17
100
AcDbEntity
  8
WALL
100
AcDbPolyline
 90
4
 70
1
 10
1211.25
 20
1149.375
 10
1353.75
 20
1149.375
 10
1353.75
 20
1121.25
 10
1211.25
 20
1121.25
  0
HATCH
  5
E4
330
17
100
AcDbEntity
  8
WALL
100
AcDbHatch
 10
0.0
 20
0.0
 30
0.0
210
0.0
220
0.0
230
1.0
  2
SOLID
 70
1
 71
0
 91
1
 92
3
 72
0
 73
1
 93
4
 10
1211.25
 20
1149.375
 10
1353.75
 20
1149.375
 10
1353.75
 20
1121.25
 10
1211.25
 20
1121.25
 97
0
 75
1
 76
1
 98
0
  0
LWPOLYLINE
  5
E5
330
17
100
AcDbEntity
  8
WALL
100
AcDbPolyline
 90
4
 70
1
 10
993.75
 20
1140.0
 10
1065.0
 20
1140.0
 10
1065.0
 20
1119.375
 10
993.75
 20
1119.375
  0
HATCH
  5
E6
330
17
100
AcDbEntity
  8
WALL
100
AcDbHatch
 10
0.0
 20
0.0
 30
0.0
210
0.0
220
0.0
230
1.0
  2
SOLID
 70
1
 71
0
 91
1
 92
3
 72
0
 73
1
 93
4
 10
993.75
 20
1140.0
 10
1065.0
 20
1140.0
 10
1065.0
 20
1119.375
 10
993.75
 20
1119.375
 97
0
 75
1
 76
1
 98
0
  0
LWPOLYLINE
  5
E7
330
17
100
AcDbEntity
  8
WALL
100
AcDbPolyline
 90
4
 70
1
 10
1128.75
 20
1140.0
 10
1226.25
 20
1140.0
 10
1226.25
 20
1111.875
 10
1128.75
 20
1111.875
  0
HATCH
  5
E8
330
17
100
AcDbEntity
  8
WALL
100
AcDbHatch
 10
0.0
 20
0.0
 30
0.0
210
0.0
220
0.0
230
1.0
  2
SOLID
 70
1
 71
0
 91
1
 92
3
 72
0
 73
1
 93
4
 10
1128.75
 20
1140.0
 10
1226.25
 20
1140.0
 10
1226.25
 20
1111.875
 10
1128.75
 20
1111.875
 97
0
 75
1
 76
1
 98
0
  0
LWPOLYLINE
  5
E9
330
17
100
AcDbEntity
  8
WALL
100
AcDbPolyline
 90
4
 70
1
 10
1185.0
 20
1110.0
 10
1267.5
 20
1110.0
 10
1267.5
 20
1089.375
 10
1185.0
 20
1089.375
  0
HATCH
  5
EA
330
17
100
AcDbEntity
  8
WALL
100
AcDbHatch
 10
0.0
 20
0.0
 30
0.0
210
0.0
220
0.0
230
1.0
  2
SOLID
 70
1
 71
0
 91
1
 92
3
 72
0
 73
1
 93
4
 10
1185.0
 20
1110.0
 10
1267.5
 20
1110.0
 10
1267.5
 20
1089.375
 10
1185.0
 20
1089.375
 97
0
 75
1
 76
1
 98
0
  0
LWPOLYLINE
  5
EB
330
17
100
AcDbEntity
  8
WALL
100
AcDbPolyline
 90
4
 70
1
 10
1027.5
 20
1093.125
 10
1072.5
 20
1093.125
 10
1072.5
 20
1089.375
 10
1027.5
 20
1089.375
  0
HATCH
  5
EC
330
17
100
AcDbEntity
  8
WALL
100
AcDbHatch
 10
0.0
 20
0.0
 30
0.0
210
0.0
220
0.0
230
1.0
  2
SOLID
 70
1
 71
0
 91
1
 92
3
 72
0
 73
1
 93
4
 10
1027.5
 20
1093.125
 10
1072.5
 20
1093.125
 10
1072.5
 20
1089.375
 10
1027.5
 20
1089.375
 97
0
 75
1
 76
1
 98
0
  0
LWPOLYLINE
  5
ED
330
17
100
AcDbEntity
  8
WALL
100
AcDbPolyline
 90
4
 70
1
 10
1278.75
 20
1095.0
 10
1320.0
 20
1095.0
 10
1320.0
 20
1089.375
 10
1278.75
 20
1089.375
  0
HATCH
  5
EE
330
17
100
AcDbEntity
  8
WALL
100
AcDbHatch
 10
0.0
 20
0.0
 30
0.0
210
0.0
220
0.0
230
1.0
  2
SOLID
 70
1
 71
0
 91
1
 92
3
 72
0
 73
1
 93
4
 10
1278.75
 20
1095.0
 10
1320.0
 20
1095.0
 10
1320.0
 20
1089.375
 10
1278.75
 20
1089.375
 97
0
 75
1
 76
1
 98
0
  0
LWPOLYLINE
  5
EF
330
17
100
AcDbEntity
  8
WALL
100
AcDbPolyline
 90
4
 70
1
 10
1803.75
 20
1083.75
 10
2253.75
 20
1083.75
 10
2253.75
 20
1057.5
 10
1803.75
 20
1057.5
  0
HATCH
  5
F0
330
17
100
AcDbEntity
  8
WALL
100
AcDbHatch
 10
0.0
 20
0.0
 30
0.0
210
0.0
220
0.0
230
1.0
  2
SOLID
 70
1
 71
0
 91
1
 92
3
 72
0
 73
1
 93
4
 10
1803.75
 20
1083.75
 10
2253.75
 20
1083.75
 10
2253.75
 20
1057.5
 10
1803.75
 20
1057.5
 97
0
 75
1
 76
1
 98
0
  0
LWPOLYLINE
  5
F1
330
17
100
AcDbEntity
  8
WALL
100
AcDbPolyline
 90
4
 70
1
 10
1245.0
 20
1050.0
 10
1286.25
 20
1050.0
 10
1286.25
 20
1048.125
 10
1245.0
 20
1048.125
  0
HATCH
  5
F2
330
17
100
AcDbEntity
  8
WALL
100
AcDbHatch
 10
0.0
 20
0.0
 30
0.0
210
0.0
220
0.0
230
1.0
  2
SOLID
 70
1
 71
0
 91
1
 92
3
 72
0
 73
1
 93
4
 10
1245.0
 20
1050.0
 10
1286.25
 20
1050.0
 10
1286.25
 20
1048.125
 10
1245.0
 20
1048.125
 97
0
 75
1
 76
1
 98
0
  0
LWPOLYLINE
  5
F3
330
17
100
AcDbEntity
  8
WALL
100
AcDbPolyline
 90
4
 70
1
 10
2516.25
 20
1008.75
 10
2561.25
 20
1008.75
 10
2561.25
 20
1005.0
 10
2516.25
 20
1005.0
  0
HATCH
  5
F4
330
17
100
AcDbEntity
  8
WALL
100
AcDbHatch
 10
0.0
 20
0.0
 30
0.0
210
0.0
220
0.0
230
1.0
  2
SOLID
 70
1
 71
0
 91
1
 92
3
 72
0
 73
1
 93
4
 10
2516.25
 20
1008.75
 10
2561.25
 20
1008.75
 10
2561.25
 20
1005.0
 10
2516.25
 20
1005.0
 97
0
 75
1
 76
1
 98
0
  0
LWPOLYLINE
  5
F5
330
17
100
AcDbEntity
  8
WALL
100
AcDbPolyline
 90
4
 70
1
 10
1260.0
 20
993.75
 10
1305.0
 20
993.75
 10
1305.0
 20
982.5
 10
1260.0
 20
982.5
  0
HATCH
  5
F6
330
17
100
AcDbEntity
  8
WALL
100
AcDbHatch
 10
0.0
 20
0.0
 30
0.0
210
0.0
220
0.0
230
1.0
  2
SOLID
 70
1
 71
0
 91
1
 92
3
 72
0
 73
1
 93
4
 10
1260.0
 20
993.75
 10
1305.0
 20
993.75
 10
1305.0
 20
982.5
 10
1260.0
 20
982.5
 97
0
 75
1
 76
1
 98
0
  0
LWPOLYLINE
  5
F7
330
17
100
AcDbEntity
  8
WALL
100
AcDbPolyline
 90
4
 70
1
 10
952.5
 20
986.25
 10
997.5
 20
986.25
 10
997.5
 20
982.5
 10
952.5
 20
982.5
  0
HATCH
  5
F8
330
17
100
AcDbEntity
  8
WALL
100
AcDbHatch
 10
0.0
 20
0.0
 30
0.0
210
0.0
220
0.0
230
1.0
  2
SOLID
 70
1
 71
0
 91
1
 92
3
 72
0
 73
1
 93
4
 10
952.5
 20
986.25
 10
997.5
 20
986.25
 10
997.5
 20
982.5
 10
952.5
 20
982.5
 97
0
 75
1
 76
1
 98
0
  0
LWPOLYLINE
  5
F9
330
17
100
AcDbEntity
  8
WALL
100
AcDbPolyline
 90
4
 70
1
 10
2508.75
 20
978.75
 10
2591.25
 20
978.75
 10
2591.25
 20
967.5
 10
2508.75
 20
967.5
  0
HATCH
  5
FA
330
17
100
AcDbEntity
  8
WALL
100
AcDbHatch
 10
0.0
 20
0.0
 30
0.0
210
0.0
220
0.0
230
1.0
  2
SOLID
 70
1
 71
0
 91
1
 92
3
 72
0
 73
1
 93
4
 10
2508.75
 20
978.75
 10
2591.25
 20
978.75
 10
2591.25
 20
967.5
 10
2508.75
 20
967.5
 97
0
 75
1
 76
1
 98
0
  0
LWPOLYLINE
  5
FB
330
17
100
AcDbEntity
  8
WALL
100
AcDbPolyline
 90
4
 70
1
 10
1256.25
 20
945.0
 10
1301.25
 20
945.0
 10
1301.25
 20
941.25
 10
1256.25
 20
941.25
  0
HATCH
  5
FC
330
17
100
AcDbEntity
  8
WALL
100
AcDbHatch
 10
0.0
 20
0.0
 30
0.0
210
0.0
220
0.0
230
1.0
  2
SOLID
 70
1
 71
0
 91
1
 92
3
 72
0
 73
1
 93
4
 10
1256.25
 20
945.0
 10
1301.25
 20
945.0
 10
1301.25
 20
941.25
 10
1256.25
 20
941.25
 97
0
 75
1
 76
1
 98
0
  0
LWPOLYLINE
  5
FD
330
17
100
AcDbEntity
  8
WALL
100
AcDbPolyline
 90
4
 70
1
 10
2347.5
 20
933.75
 10
2388.75
 20
933.75
 10
2388.75
 20
924.375
 10
2347.5
 20
924.375
  0
HATCH
  5
FE
330
17
100
AcDbEntity
  8
WALL
100
AcDbHatch
 10
0.0
 20
0.0
 30
0.0
210
0.0
220
0.0
230
1.0
  2
SOLID
 70
1
 71
0
 91
1
 92
3
 72
0
 73
1
 93
4
 10
2347.5
 20
933.75
 10
2388.75
 20
933.75
 10
2388.75
 20
924.375
 10
2347.5
 20
924.375
 97
0
 75
1
 76
1
 98
0
  0
LWPOLYLINE
  5
FF
330
17
100
AcDbEntity
  8
WALL
100
AcDbPolyline
 90
4
 70
1
 10
960.0
 20
907.5
 10
1046.25
 20
907.5
 10
1046.25
 20
888.75
 10
960.0
 20
888.75
  0
HATCH
  5
100
330
17
100
AcDbEntity
  8
WALL
100
AcDbHatch
 10
0.0
 20
0.0
 30
0.0
210
0.0
220
0.0
230
1.0
  2
SOLID
 70
1
 71
0
 91
1
 92
3
 72
0
 73
1
 93
4
 10
960.0
 20
907.5
 10
1046.25
 20
907.5
 10
1046.25
 20
888.75
 10
960.0
 20
888.75
 97
0
 75
1
 76
1
 98
0
  0
LWPOLYLINE
  5
101
330
17
100
AcDbEntity
  8
WALL
100
AcDbPolyline
 90
4
 70
1
 10
1143.75
 20
907.5
 10
1211.25
 20
907.5
 10
1211.25
 20
885.0
 10
1143.75
 20
885.0
  0
HATCH
  5
102
330
17
100
AcDbEntity
  8
WALL
100
AcDbHatch
 10
0.0
 20
0.0
 30
0.0
210
0.0
220
0.0
230
1.0
  2
SOLID
 70
1
 71
0
 91
1
 92
3
 72
0
 73
1
 93
4
 10
1143.75
 20
907.5
 10
1211.25
 20
907.5
 10
1211.25
 20
885.0
 10
1143.75
 20
885.0
 97
0
 75
1
 76
1
 98
0
  0
LWPOLYLINE
  5
103
330
17
100
AcDbEntity
  8
WALL
100
AcDbPolyline
 90
4
 70
1
 10
1166.25
 20
877.5
 10
1241.25
 20
877.5
 10
1241.25
 20
858.75
 10
1166.25
 20
858.75
  0
HATCH
  5
104
330
17
100
AcDbEntity
  8
WALL
100
AcDbHatch
 10
0.0
 20
0.0
 30
0.0
210
0.0
220
0.0
230
1.0
  2
SOLID
 70
1
 71
0
 91
1
 92
3
 72
0
 73
1
 93
4
 10
1166.25
 20
877.5
 10
1241.25
 20
877.5
 10
1241.25
 20
858.75
 10
1166.25
 20
858.75
 97
0
 75
1
 76
1
 98
0
  0
LWPOLYLINE
  5
105
330
17
100
AcDbEntity
  8
WALL
100
AcDbPolyline
 90
4
 70
1
 10
2377.5
 20
877.5
 10
2422.5
 20
877.5
 10
2422.5
 20
873.75
 10
2377.5
 20
873.75
  0
HATCH
  5
106
330
17
100
AcDbEntity
  8
WALL
100
AcDbHatch
 10
0.0
 20
0.0
 30
0.0
210
0.0
220
0.0
230
1.0
  2
SOLID
 70
1
 71
0
 91
1
 92
3
 72
0
 73
1
 93
4
 10
2377.5
 20
877.5
 10
2422.5
 20
877.5
 10
2422.5
 20
873.75
 10
2377.5
 20
873.75
 97
0
 75
1
 76
1
 98
0
  0
LWPOLYLINE
  5
107
330
17
100
AcDbEntity
  8
WALL
100
AcDbPolyline
 90
4
 70
1
 10
990.0
 20
840.0
 10
1046.25
 20
840.0
 10
1046.25
 20
819.375
 10
990.0
 20
819.375
  0
HATCH
  5
108
330
17
100
AcDbEntity
  8
WALL
100
AcDbHatch
 10
0.0
 20
0.0
 30
0.0
210
0.0
220
0.0
230
1.0
  2
SOLID
 70
1
 71
0
 91
1
 92
3
 72
0
 73
1
 93
4
 10
990.0
 20
840.0
 10
1046.25
 20
840.0
 10
1046.25
 20
819.375
 10
990.0
 20
819.375
 97
0
 75
1
 76
1
 98
0
  0
LWPOLYLINE
  5
109
330
17
100
AcDbEntity
  8
WALL
100
AcDbPolyline
 90
4
 70
1
 10
1121.25
 20
840.0
 10
1230.0
 20
840.0
 10
1230.0
 20
817.5
 10
1121.25
 20
817.5
  0
HATCH
  5
10A
330
17
100
AcDbEntity
  8
WALL
100
AcDbHatch
 10
0.0
 20
0.0
 30
0.0
210
0.0
220
0.0
230
1.0
  2
SOLID
 70
1
 71
0
 91
1
 92
3
 72
0
 73
1
 93
4
 10
1121.25
 20
840.0
 10
1230.0
 20
840.0
 10
1230.0
 20
817.5
 10
1121.25
 20
817.5
 97
0
 75
1
 76
1
 98
0
  0
LWPOLYLINE
  5
10B
330
17
100
AcDbEntity
  8
WALL
100
AcDbPolyline
 90
4
 70
1
 10
1233.75
 20
840.0
 10
1338.75
 20
840.0
 10
1338.75
 20
819.375
 10
1233.75
 20
819.375
  0
HATCH
  5
10C
330
17
100
AcDbEntity
  8
WALL
100
AcDbHatch
 10
0.0
 20
0.0
 30
0.0
210
0.0
220
0.0
230
1.0
  2
SOLID
 70
1
 71
0
 91
1
 92
3
 72
0
 73
1
 93
4
 10
1233.75
 20
840.0
 10
1338.75
 20
840.0
 10
1338.75
 20
819.375
 10
1233.75
 20
819.375
 97
0
 75
1
 76
1
 98
0
  0
LWPOLYLINE
  5
10D
330
17
100
AcDbEntity
  8
WALL
100
AcDbPolyline
 90
4
 70
1
 10
1785.0
 20
840.0
 10
1920.0
 20
840.0
 10
1920.0
 20
821.25
 10
1785.0
 20
821.25
  0
HATCH
  5
10E
330
17
100
AcDbEntity
  8
WALL
100
AcDbHatch
 10
0.0
 20
0.0
 30
0.0
210
0.0
220
0.0
230
1.0
  2
SOLID
 70
1
 71
0
 91
1
 92
3
 72
0
 73
1
 93
4
 10
1785.0
 20
840.0
 10
1920.0
 20
840.0
 10
1920.0
 20
821.25
 10
1785.0
 20
821.25
 97
0
 75
1
 76
1
 98
0
  0
LWPOLYLINE
  5
10F
330
17
100
AcDbEntity
  8
WALL
100
AcDbPolyline
 90
4
 70
1
 10
2437.5
 20
836.25
 10
2493.75
 20
836.25
 10
2493.75
 20
817.5
 10
2437.5
 20
817.5
  0
HATCH
  5
110
330
17
100
AcDbEntity
  8
WALL
100
AcDbHatch
 10
0.0
 20
0.0
 30
0.0
210
0.0
220
0.0
230
1.0
  2
SOLID
 70
1
 71
0
 91
1
 92
3
 72
0
 73
1
 93
4
 10
2437.5
 20
836.25
 10
2493.75
 20
836.25
 10
2493.75
 20
817.5
 10
2437.5
 20
817.5
 97
0
 75
1
 76
1
 98
0
  0
LWPOLYLINE
  5
111
330
17
100
AcDbEntity
  8
WALL
100
AcDbPolyline
 90
4
 70
1
 10
2287.5
 20
825.0
 10
2328.75
 20
825.0
 10
2328.75
 20
823.125
 10
2287.5
 20
823.125
  0
HATCH
  5
112
330
17
100
AcDbEntity
  8
WALL
100
AcDbHatch
 10
0.0
 20
0.0
 30
0.0
210
0.0
220
0.0
230
1.0
  2
SOLID
 70
1
 71
0
 91
1
 92
3
 72
0
 73
1
 93
4
 10
2287.5
 20
825.0
 10
2328.75
 20
825.0
 10
2328.75
 20
823.125
 10
2287.5
 20
823.125
 97
0
 75
1
 76
1
 98
0
  0
LWPOLYLINE
  5
113
330
17
100
AcDbEntity
  8
WALL
100
AcDbPolyline
 90
4
 70
1
 10
2445.0
 20
813.75
 10
2493.75
 20
813.75
 10
2493.75
 20
806.25
 10
2445.0
 20
806.25
  0
HATCH
  5
114
330
17
100
AcDbEntity
  8
WALL
100
AcDbHatch
 10
0.0
 20
0.0
 30
0.0
210
0.0
220
0.0
230
1.0
  2
SOLID
 70
1
 71
0
 91
1
 92
3
 72
0
 73
1
 93
4
 10
2445.0
 20
813.75
 10
2493.75
 20
813.75
 10
2493.75
 20
806.25
 10
2445.0
 20
806.25
 97
0
 75
1
 76
1
 98
0
  0
LWPOLYLINE
  5
115
330
17
100
AcDbEntity
  8
WALL
100
AcDbPolyline
 90
4
 70
1
 10
2295.0
 20
802.5
 10
2351.25
 20
802.5
 10
2351.25
 20
798.75
 10
2295.0
 20
798.75
  0
HATCH
  5
116
330
17
100
AcDbEntity
  8
WALL
100
AcDbHatch
 10
0.0
 20
0.0
 30
0.0
210
0.0
220
0.0
230
1.0
  2
SOLID
 70
1
 71
0
 91
1
 92
3
 72
0
 73
1
 93
4
 10
2295.0
 20
802.5
 10
2351.25
 20
802.5
 10
2351.25
 20
798.75
 10
2295.0
 20
798.75
 97
0
 75
1
 76
1
 98
0
  0
LWPOLYLINE
  5
117
330
17
100
AcDbEntity
  8
WALL
100
AcDbPolyline
 90
4
 70
1
 10
2295.0
 20
795.0
 10
2355.0
 20
795.0
 10
2355.0
 20
793.125
 10
2295.0
 20
793.125
  0
HATCH
  5
118
330
17
100
AcDbEntity
  8
WALL
100
AcDbHatch
 10
0.0
 20
0.0
 30
0.0
210
0.0
220
0.0
230
1.0
  2
SOLID
 70
1
 71
0
 91
1
 92
3
 72
0
 73
1
 93
4
 10
2295.0
 20
795.0
 10
2355.0
 20
795.0
 10
2355.0
 20
793.125
 10
2295.0
 20
793.125
 97
0
 75
1
 76
1
 98
0
  0
LWPOLYLINE
  5
119
330
17
100
AcDbEntity
  8
WALL
100
AcDbPolyline
 90
4
 70
1
 10
2550.0
 20
772.5
 10
2595.0
 20
772.5
 10
2595.0
 20
768.75
 10
2550.0
 20
768.75
  0
HATCH
  5
11A
330
17
100
AcDbEntity
  8
WALL
100
AcDbHatch
 10
0.0
 20
0.0
 30
0.0
210
0.0
220
0.0
230
1.0
  2
SOLID
 70
1
 71
0
 91
1
 92
3
 72
0
 73
1
 93
4
 10
2550.0
 20
772.5
 10
2595.0
 20
772.5
 10
2595.0
 20
768.75
 10
2550.0
 20
768.75
 97
0
 75
1
 76
1
 98
0
  0
LWPOLYLINE
  5
11B
330
17
100
AcDbEntity
  8
WALL
100
AcDbPolyline
 90
4
 70
1
 10
333.75
 20
746.25
 10
412.5
 20
746.25
 10
412.5
 20
735.0
 10
333.75
 20
735.0
  0
HATCH
  5
11C
330
17
100
AcDbEntity
  8
WALL
100
AcDbHatch
 10
0.0
 20
0.0
 30
0.0
210
0.0
220
0.0
230
1.0
  2
SOLID
 70
1
 71
0
 91
1
 92
3
 72
0
 73
1
 93
4
 10
333.75
 20
746.25
 10
412.5
 20
746.25
 10
412.5
 20
735.0
 10
333.75
 20
735.0
 97
0
 75
1
 76
1
 98
0
  0
LWPOLYLINE
  5
11D
330
17
100
AcDbEntity
  8
WALL
100
AcDbPolyline
 90
4
 70
1
 10
168.75
 20
740.625
 10
213.75
 20
740.625
 10
213.75
 20
733.125
 10
168.75
 20
733.125
  0
HATCH
  5
11E
330
17
100
AcDbEntity
  8
WALL
100
AcDbHatch
 10
0.0
 20
0.0
 30
0.0
210
0.0
220
0.0
230
1.0
  2
SOLID
 70
1
 71
0
 91
1
 92
3
 72
0
 73
1
 93
4
 10
168.75
 20
740.625
 10
213.75
 20
740.625
 10
213.75
 20
733.125
 10
168.75
 20
733.125
 97
0
 75
1
 76
1
 98
0
  0
LWPOLYLINE
  5
11F
330
17
100
AcDbEntity
  8
WALL
100
AcDbPolyline
 90
4
 70
1
 10
1788.75
 20
736.875
 10
1837.5
 20
736.875
 10
1837.5
 20
727.5
 10
1788.75
 20
727.5
  0
HATCH
  5
120
330
17
100
AcDbEntity
  8
WALL
100
AcDbHatch
 10
0.0
 20
0.0
 30
0.0
210
0.0
220
0.0
230
1.0
  2
SOLID
 70
1
 71
0
 91
1
 92
3
 72
0
 73
1
 93
4
 10
1788.75
 20
736.875
 10
1837.5
 20
736.875
 10
1837.5
 20
727.5
 10
1788.75
 20
727.5
 97
0
 75
1
 76
1
 98
0
  0
LWPOLYLINE
  5
121
330
17
100
AcDbEntity
  8
WALL
100
AcDbPolyline
 90
4
 70
1
 10
2550.0
 20
738.75
 10
2591.25
 20
738.75
 10
2591.25
 20
735.0
 10
2550.0
 20
735.0
  0
HATCH
  5
122
330
17
100
AcDbEntity
  8
WALL
100
AcDbHatch
 10
0.0
 20
0.0
 30
0.0
210
0.0
220
0.0
230
1.0
  2
SOLID
 70
1
 71
0
 91
1
 92
3
 72
0
 73
1
 93
4
 10
2550.0
 20
738.75
 10
2591.25
 20
738.75
 10
2591.25
 20
735.0
 10
2550.0
 20
735.0
 97
0
 75
1
 76
1
 98
0
  0
LWPOLYLINE
  5
123
330
17
100
AcDbEntity
  8
WALL
100
AcDbPolyline
 90
4
 70
1
 10
1856.25
 20
735.0
 10
1920.0
 20
735.0
 10
1920.0
 20
729.375
 10
1856.25
 20
729.375
  0
HATCH
  5
124
330
17
100
AcDbEntity
  8
WALL
100
AcDbHatch
 10
0.0
 20
0.0
 30
0.0
210
0.0
220
0.0
230
1.0
  2
SOLID
 70
1
 71
0
 91
1
 92
3
 72
0
 73
1
 93
4
 10
1856.25
 20
735.0
 10
1920.0
 20
735.0
 10
1920.0
 20
729.375
 10
1856.25
 20
729.375
 97
0
 75
1
 76
1
 98
0
  0
LWPOLYLINE
  5
125
330
17
100
AcDbEntity
  8
WALL
100
AcDbPolyline
 90
4
 70
1
 10
1691.25
 20
723.75
 10
1766.25
 20
723.75
 10
1766.25
 20
714.375
 10
1691.25
 20
714.375
  0
HATCH
  5
126
330
17
100
AcDbEntity
  8
WALL
100
AcDbHatch
 10
0.0
 20
0.0
 30
0.0
210
0.0
220
0.0
230
1.0
  2
SOLID
 70
1
 71
0
 91
1
 92
3
 72
0
 73
1
 93
4
 10
1691.25
 20
723.75
 10
1766.25
 20
723.75
 10
1766.25
 20
714.375
 10
1691.25
 20
714.375
 97
0
 75
1
 76
1
 98
0
  0
LWPOLYLINE
  5
127
330
17
100
AcDbEntity
  8
WALL
100
AcDbPolyline
 90
4
 70
1
 10
2047.5
 20
714.375
 10
2107.5
 20
714.375
 10
2107.5
 20
708.75
 10
2047.5
 20
708.75
  0
HATCH
  5
128
330
17
100
AcDbEntity
  8
WALL
100
AcDbHatch
 10
0.0
 20
0.0
 30
0.0
210
0.0
220
0.0
230
1.0
  2
SOLID
 70
1
 71
0
 91
1
 92
3
 72
0
 73
1
 93
4
 10
2047.5
 20
714.375
 10
2107.5
 20
714.375
 10
2107.5
 20
708.75
 10
2047.5
 20
708.75
 97
0
 75
1
 76
1
 98
0
  0
LWPOLYLINE
  5
129
330
17
100
AcDbEntity
  8
WALL
100
AcDbPolyline
 90
4
 70
1
 10
2208.75
 20
710.625
 10
2261.25
 20
710.625
 10
2261.25
 20
706.875
 10
2208.75
 20
706.875
  0
HATCH
  5
12A
330
17
100
AcDbEntity
  8
WALL
100
AcDbHatch
 10
0.0
 20
0.0
 30
0.0
210
0.0
220
0.0
230
1.0
  2
SOLID
 70
1
 71
0
 91
1
 92
3
 72
0
 73
1
 93
4
 10
2208.75
 20
710.625
 10
2261.25
 20
710.625
 10
2261.25
 20
706.875
 10
2208.75
 20
706.875
 97
0
 75
1
 76
1
 98
0
  0
LWPOLYLINE
  5
12B
330
17
100
AcDbEntity
  8
WALL
100
AcDbPolyline
 90
4
 70
1
 10
108.75
 20
706.875
 10
195.0
 20
706.875
 10
195.0
 20
701.25
 10
108.75
 20
701.25
  0
HATCH
  5
12C
330
17
100
AcDbEntity
  8
WALL
100
AcDbHatch
 10
0.0
 20
0.0
 30
0.0
210
0.0
220
0.0
230
1.0
  2
SOLID
 70
1
 71
0
 91
1
 92
3
 72
0
 73
1
 93
4
 10
108.75
 20
706.875
 10
195.0
 20
706.875
 10
195.0
 20
701.25
 10
108.75
 20
701.25
 97
0
 75
1
 76
1
 98
0
  0
LWPOLYLINE
  5
12D
330
17
100
AcDbEntity
  8
WALL
100
AcDbPolyline
 90
4
 70
1
 10
1657.5
 20
695.625
 10
2021.25
 20
695.625
 10
2021.25
 20
660.0
 10
1657.5
 20
660.0
  0
HATCH
  5
12E
330
17
100
AcDbEntity
  8
WALL
100
AcDbHatch
 10
0.0
 20
0.0
 30
0.0
210
0.0
220
0.0
230
1.0
  2
SOLID
 70
1
 71
0
 91
1
 92
3
 72
0
 73
1
 93
4
 10
1657.5
 20
695.625
 10
2021.25
 20
695.625
 10
2021.25
 20
660.0
 10
1657.5
 20
660.0
 97
0
 75
1
 76
1
 98
0
  0
LWPOLYLINE
  5
12F
330
17
100
AcDbEntity
  8
WALL
100
AcDbPolyline
 90
4
 70
1
 10
1500.0
 20
693.75
 10
1601.25
 20
693.75
 10
1601.25
 20
663.75
 10
1500.0
 20
663.75
  0
HATCH
  5
130
330
17
100
AcDbEntity
  8
WALL
100
AcDbHatch
 10
0.0
 20
0.0
 30
0.0
210
0.0
220
0.0
230
1.0
  2
SOLID
 70
1
 71
0
 91
1
 92
3
 72
0
 73
1
 93
4
 10
1500.0
 20
693.75
 10
1601.25
 20
693.75
 10
1601.25
 20
663.75
 10
1500.0
 20
663.75
 97
0
 75
1
 76
1
 98
0
  0
LWPOLYLINE
  5
131
330
17
100
AcDbEntity
  8
WALL
100
AcDbPolyline
 90
4
 70
1
 10
892.5
 20
690.0
 10
1128.75
 20
690.0
 10
1128.75
 20
660.0
 10
892.5
 20
660.0
  0
HATCH
  5
132
330
17
100
AcDbEntity
  8
WALL
100
AcDbHatch
 10
0.0
 20
0.0
 30
0.0
210
0.0
220
0.0
230
1.0
  2
SOLID
 70
1
 71
0
 91
1
 92
3
 72
0
 73
1
 93
4
 10
892.5
 20
690.0
 10
1128.75
 20
690.0
 10
1128.75
 20
660.0
 10
892.5
 20
660.0
 97
0
 75
1
 76
1
 98
0
  0
LWPOLYLINE
  5
133
330
17
100
AcDbEntity
  8
WALL
100
AcDbPolyline
 90
4
 70
1
 10
322.5
 20
663.75
 10
375.0
 20
663.75
 10
375.0
 20
652.5
 10
322.5
 20
652.5
  0
HATCH
  5
134
330
17
100
AcDbEntity
  8
WALL
100
AcDbHatch
 10
0.0
 20
0.0
 30
0.0
210
0.0
220
0.0
230
1.0
  2
SOLID
 70
1
 71
0
 91
1
 92
3
 72
0
 73
1
 93
4
 10
322.5
 20
663.75
 10
375.0
 20
663.75
 10
375.0
 20
652.5
 10
322.5
 20
652.5
 97
0
 75
1
 76
1
 98
0
  0
LWPOLYLINE
  5
135
330
17
100
AcDbEntity
  8
WALL
100
AcDbPolyline
 90
4
 70
1
 10
2118.75
 20
592.5
 10
2160.0
 20
592.5
 10
2160.0
 20
586.875
 10
2118.75
 20
586.875
  0
HATCH
  5
136
330
17
100
AcDbEntity
  8
WALL
100
AcDbHatch
 10
0.0
 20
0.0
 30
0.0
210
0.0
220
0.0
230
1.0
  2
SOLID
 70
1
 71
0
 91
1
 92
3
 72
0
 73
1
 93
4
 10
2118.75
 20
592.5
 10
2160.0
 20
592.5
 10
2160.0
 20
586.875
 10
2118.75
 20
586.875
 97
0
 75
1
 76
1
 98
0
  0
LWPOLYLINE
  5
137
330
17
100
AcDbEntity
  8
WALL
100
AcDbPolyline
 90
4
 70
1
 10
2478.75
 20
583.125
 10
2568.75
 20
583.125
 10
2568.75
 20
568.125
 10
2478.75
 20
568.125
  0
HATCH
  5
138
330
17
100
AcDbEntity
  8
WALL
100
AcDbHatch
 10
0.0
 20
0.0
 30
0.0
210
0.0
220
0.0
230
1.0
  2
SOLID
 70
1
 71
0
 91
1
 92
3
 72
0
 73
1
 93
4
 10
2478.75
 20
583.125
 10
2568.75
 20
583.125
 10
2568.75
 20
568.125
 10
2478.75
 20
568.125
 97
0
 75
1
 76
1
 98
0
  0
LWPOLYLINE
  5
139
330
17
100
AcDbEntity
  8
WALL
100
AcDbPolyline
 90
4
 70
1
 10
2340.0
 20
566.25
 10
2418.75
 20
566.25
 10
2418.75
 20
536.25
 10
2340.0
 20
536.25
  0
HATCH
  5
13A
330
17
100
AcDbEntity
  8
WALL
100
AcDbHatch
 10
0.0
 20
0.0
 30
0.0
210
0.0
220
0.0
230
1.0
  2
SOLID
 70
1
 71
0
 91
1
 92
3
 72
0
 73
1
 93
4
 10
2340.0
 20
566.25
 10
2418.75
 20
566.25
 10
2418.75
 20
536.25
 10
2340.0
 20
536.25
 97
0
 75
1
 76
1
 98
0
  0
LWPOLYLINE
  5
13B
330
17
100
AcDbEntity
  8
WALL
100
AcDbPolyline
 90
4
 70
1
 10
960.0
 20
551.25
 10
1023.75
 20
551.25
 10
1023.75
 20
536.25
 10
960.0
 20
536.25
  0
HATCH
  5
13C
330
17
100
AcDbEntity
  8
WALL
100
AcDbHatch
 10
0.0
 20
0.0
 30
0.0
210
0.0
220
0.0
230
1.0
  2
SOLID
 70
1
 71
0
 91
1
 92
3
 72
0
 73
1
 93
4
 10
960.0
 20
551.25
 10
1023.75
 20
551.25
 10
1023.75
 20
536.25
 10
960.0
 20
536.25
 97
0
 75
1
 76
1
 98
0
  0
LWPOLYLINE
  5
13D
330
17
100
AcDbEntity
  8
WALL
100
AcDbPolyline
 90
4
 70
1
 10
753.75
 20
528.75
 10
802.5
 20
528.75
 10
802.5
 20
523.125
 10
753.75
 20
523.125
  0
HATCH
  5
13E
330
17
100
AcDbEntity
  8
WALL
100
AcDbHatch
 10
0.0
 20
0.0
 30
0.0
210
0.0
220
0.0
230
1.0
  2
SOLID
 70
1
 71
0
 91
1
 92
3
 72
0
 73
1
 93
4
 10
753.75
 20
528.75
 10
802.5
 20
528.75
 10
802.5
 20
523.125
 10
753.75
 20
523.125
 97
0
 75
1
 76
1
 98
0
  0
LWPOLYLINE
  5
13F
330
17
100
AcDbEntity
  8
WALL
100
AcDbPolyline
 90
4
 70
1
 10
1976.25
 20
515.625
 10
2208.75
 20
515.625
 10
2208.75
 20
461.25
 10
1976.25
 20
461.25
  0
HATCH
  5
140
330
17
100
AcDbEntity
  8
WALL
100
AcDbHatch
 10
0.0
 20
0.0
 30
0.0
210
0.0
220
0.0
230
1.0
  2
SOLID
 70
1
 71
0
 91
1
 92
3
 72
0
 73
1
 93
4
 10
1976.25
 20
515.625
 10
2208.75
 20
515.625
 10
2208.75
 20
461.25
 10
1976.25
 20
461.25
 97
0
 75
1
 76
1
 98
0
  0
LWPOLYLINE
  5
141
330
17
100
AcDbEntity
  8
WALL
100
AcDbPolyline
 90
4
 70
1
 10
1908.75
 20
506.25
 10
1961.25
 20
506.25
 10
1961.25
 20
502.5
 10
1908.75
 20
502.5
  0
HATCH
  5
142
330
17
100
AcDbEntity
  8
WALL
100
AcDbHatch
 10
0.0
 20
0.0
 30
0.0
210
0.0
220
0.0
230
1.0
  2
SOLID
 70
1
 71
0
 91
1
 92
3
 72
0
 73
1
 93
4
 10
1908.75
 20
506.25
 10
1961.25
 20
506.25
 10
1961.25
 20
502.5
 10
1908.75
 20
502.5
 97
0
 75
1
 76
1
 98
0
  0
LWPOLYLINE
  5
143
330
17
100
AcDbEntity
  8
WALL
100
AcDbPolyline
 90
4
 70
1
 10
1923.75
 20
487.5
 10
1965.0
 20
487.5
 10
1965.0
 20
483.75
 10
1923.75
 20
483.75
  0
HATCH
  5
144
330
17
100
AcDbEntity
  8
WALL
100
AcDbHatch
 10
0.0
 20
0.0
 30
0.0
210
0.0
220
0.0
230
1.0
  2
SOLID
 70
1
 71
0
 91
1
 92
3
 72
0
 73
1
 93
4
 10
1923.75
 20
487.5
 10
1965.0
 20
487.5
 10
1965.0
 20
483.75
 10
1923.75
 20
483.75
 97
0
 75
1
 76
1
 98
0
  0
LWPOLYLINE
  5
145
330
17
100
AcDbEntity
  8
WALL
100
AcDbPolyline
 90
4
 70
1
 10
2036.25
 20
483.75
 10
2081.25
 20
483.75
 10
2081.25
 20
476.25
 10
2036.25
 20
476.25
  0
HATCH
  5
146
330
17
100
AcDbEntity
  8
WALL
100
AcDbHatch
 10
0.0
 20
0.0
 30
0.0
210
0.0
220
0.0
230
1.0
  2
SOLID
 70
1
 71
0
 91
1
 92
3
 72
0
 73
1
 93
4
 10
2036.25
 20
483.75
 10
2081.25
 20
483.75
 10
2081.25
 20
476.25
 10
2036.25
 20
476.25
 97
0
 75
1
 76
1
 98
0
  0
LWPOLYLINE
  5
147
330
17
100
AcDbEntity
  8
WALL
100
AcDbPolyline
 90
4
 70
1
 10
2055.0
 20
453.75
 10
2118.75
 20
453.75
 10
2118.75
 20
444.375
 10
2055.0
 20
444.375
  0
HATCH
  5
148
330
17
100
AcDbEntity
  8
WALL
100
AcDbHatch
 10
0.0
 20
0.0
 30
0.0
210
0.0
220
0.0
230
1.0
  2
SOLID
 70
1
 71
0
 91
1
 92
3
 72
0
 73
1
 93
4
 10
2055.0
 20
453.75
 10
2118.75
 20
453.75
 10
2118.75
 20
444.375
 10
2055.0
 20
444.375
 97
0
 75
1
 76
1
 98
0
  0
LWPOLYLINE
  5
149
330
17
100
AcDbEntity
  8
WALL
100
AcDbPolyline
 90
4
 70
1
 10
1721.25
 20
438.75
 10
1786.875
 20
438.75
 10
1786.875
 20
420.0
 10
1721.25
 20
420.0
  0
HATCH
  5
14A
330
17
100
AcDbEntity
  8
WALL
100
AcDbHatch
 10
0.0
 20
0.0
 30
0.0
210
0.0
220
0.0
230
1.0
  2
SOLID
 70
1
 71
0
 91
1
 92
3
 72
0
 73
1
 93
4
 10
1721.25
 20
438.75
 10
1786.875
 20
438.75
 10
1786.875
 20
420.0
 10
1721.25
 20
420.0
 97
0
 75
1
 76
1
 98
0
  0
LWPOLYLINE
  5
14B
330
17
100
AcDbEntity
  8
WALL
100
AcDbPolyline
 90
4
 70
1
 10
2115.0
 20
420.0
 10
2160.0
 20
420.0
 10
2160.0
 20
412.5
 10
2115.0
 20
412.5
  0
HATCH
  5
14C
330
17
100
AcDbEntity
  8
WALL
100
AcDbHatch
 10
0.0
 20
0.0
 30
0.0
210
0.0
220
0.0
230
1.0
  2
SOLID
 70
1
 71
0
 91
1
 92
3
 72
0
 73
1
 93
4
 10
2115.0
 20
420.0
 10
2160.0
 20
420.0
 10
2160.0
 20
412.5
 10
2115.0
 20
412.5
 97
0
 75
1
 76
1
 98
0
  0
LWPOLYLINE
  5
14D
330
17
100
AcDbEntity
  8
WALL
100
AcDbPolyline
 90
4
 70
1
 10
1308.75
 20
367.5
 10
1428.75
 20
367.5
 10
1428.75
 20
356.25
 10
1308.75
 20
356.25
  0
HATCH
  5
14E
330
17
100
AcDbEntity
  8
WALL
100
AcDbHatch
 10
0.0
 20
0.0
 30
0.0
210
0.0
220
0.0
230
1.0
  2
SOLID
 70
1
 71
0
 91
1
 92
3
 72
0
 73
1
 93
4
 10
1308.75
 20
367.5
 10
1428.75
 20
367.5
 10
1428.75
 20
356.25
 10
1308.75
 20
356.25
 97
0
 75
1
 76
1
 98
0
  0
LWPOLYLINE
  5
14F
330
17
100
AcDbEntity
  8
WALL
100
AcDbPolyline
 90
4
 70
1
 10
1541.25
 20
367.5
 10
1635.0
 20
367.5
 10
1635.0
 20
356.25
 10
1541.25
 20
356.25
  0
HATCH
  5
150
330
17
100
AcDbEntity
  8
WALL
100
AcDbHatch
 10
0.0
 20
0.0
 30
0.0
210
0.0
220
0.0
230
1.0
  2
SOLID
 70
1
 71
0
 91
1
 92
3
 72
0
 73
1
 93
4
 10
1541.25
 20
367.5
 10
1635.0
 20
367.5
 10
1635.0
 20
356.25
 10
1541.25
 20
356.25
 97
0
 75
1
 76
1
 98
0
  0
LWPOLYLINE
  5
151
330
17
100
AcDbEntity
  8
WALL
100
AcDbPolyline
 90
4
 70
1
 10
2085.0
 20
352.5
 10
2227.5
 20
352.5
 10
2227.5
 20
333.75
 10
2085.0
 20
333.75
  0
HATCH
  5
152
330
17
100
AcDbEntity
  8
WALL
100
AcDbHatch
 10
0.0
 20
0.0
 30
0.0
210
0.0
220
0.0
230
1.0
  2
SOLID
 70
1
 71
0
 91
1
 92
3
 72
0
 73
1
 93
4
 10
2085.0
 20
352.5
 10
2227.5
 20
352.5
 10
2227.5
 20
333.75
 10
2085.0
 20
333.75
 97
0
 75
1
 76
1
 98
0
  0
LWPOLYLINE
  5
153
330
17
100
AcDbEntity
  8
WALL
100
AcDbPolyline
 90
4
 70
1
 10
1953.75
 20
348.75
 10
2047.5
 20
348.75
 10
2047.5
 20
331.875
 10
1953.75
 20
331.875
  0
HATCH
  5
154
330
17
100
AcDbEntity
  8
WALL
100
AcDbHatch
 10
0.0
 20
0.0
 30
0.0
210
0.0
220
0.0
230
1.0
  2
SOLID
 70
1
 71
0
 91
1
 92
3
 72
0
 73
1
 93
4
 10
1953.75
 20
348.75
 10
2047.5
 20
348.75
 10
2047.5
 20
331.875
 10
1953.75
 20
331.875
 97
0
 75
1
 76
1
 98
0
  0
LWPOLYLINE
  5
155
330
17
100
AcDbEntity
  8
WALL
100
AcDbPolyline
 90
4
 70
1
 10
2257.5
 20
281.25
 10
2313.75
 20
281.25
 10
2313.75
 20
266.25
 10
2257.5
 20
266.25
  0
HATCH
  5
156
330
17
100
AcDbEntity
  8
WALL
100
AcDbHatch
 10
0.0
 20
0.0
 30
0.0
210
0.0
220
0.0
230
1.0
  2
SOLID
 70
1
 71
0
 91
1
 92
3
 72
0
 73
1
 93
4
 10
2257.5
 20
281.25
 10
2313.75
 20
281.25
 10
2313.75
 20
266.25
 10
2257.5
 20
266.25
 97
0
 75
1
 76
1
 98
0
  0
LWPOLYLINE
  5
157
330
17
100
AcDbEntity
  8
WALL
100
AcDbPolyline
 90
4
 70
1
 10
1923.75
 20
277.5
 10
2070.0
 20
277.5
 10
2070.0
 20
258.75
 10
1923.75
 20
258.75
  0
HATCH
  5
158
330
17
100
AcDbEntity
  8
WALL
100
AcDbHatch
 10
0.0
 20
0.0
 30
0.0
210
0.0
220
0.0
230
1.0
  2
SOLID
 70
1
 71
0
 91
1
 92
3
 72
0
 73
1
 93
4
 10
1923.75
 20
277.5
 10
2070.0
 20
277.5
 10
2070.0
 20
258.75
 10
1923.75
 20
258.75
 97
0
 75
1
 76
1
 98
0
  0
LWPOLYLINE
  5
159
330
17
100
AcDbEntity
  8
WALL
100
AcDbPolyline
 90
4
 70
1
 10
2085.0
 20
277.5
 10
2208.75
 20
277.5
 10
2208.75
 20
262.5
 10
2085.0
 20
262.5
  0
HATCH
  5
15A
330
17
100
AcDbEntity
  8
WALL
100
AcDbHatch
 10
0.0
 20
0.0
 30
0.0
210
0.0
220
0.0
230
1.0
  2
SOLID
 70
1
 71
0
 91
1
 92
3
 72
0
 73
1
 93
4
 10
2085.0
 20
277.5
 10
2208.75
 20
277.5
 10
2208.75
 20
262.5
 10
2085.0
 20
262.5
 97
0
 75
1
 76
1
 98
0
  0
LWPOLYLINE
  5
15B
330
17
100
AcDbEntity
  8
WALL
100
AcDbPolyline
 90
4
 70
1
 10
2388.75
 20
270.0
 10
2478.75
 20
270.0
 10
2478.75
 20
258.75
 10
2388.75
 20
258.75
  0
HATCH
  5
15C
330
17
100
AcDbEntity
  8
WALL
100
AcDbHatch
 10
0.0
 20
0.0
 30
0.0
210
0.0
220
0.0
230
1.0
  2
SOLID
 70
1
 71
0
 91
1
 92
3
 72
0
 73
1
 93
4
 10
2388.75
 20
270.0
 10
2478.75
 20
270.0
 10
2478.75
 20
258.75
 10
2388.75
 20
258.75
 97
0
 75
1
 76
1
 98
0
  0
LWPOLYLINE
  5
15D
330
17
100
AcDbEntity
  8
WALL
100
AcDbPolyline
 90
4
 70
1
 10
2246.25
 20
258.75
 10
2291.25
 20
258.75
 10
2291.25
 20
251.25
 10
2246.25
 20
251.25
  0
HATCH
  5
15E
330
17
100
AcDbEntity
  8
WALL
100
AcDbHatch
 10
0.0
 20
0.0
 30
0.0
210
0.0
220
0.0
230
1.0
  2
SOLID
 70
1
 71
0
 91
1
 92
3
 72
0
 73
1
 93
4
 10
2246.25
 20
258.75
 10
2291.25
 20
258.75
 10
2291.25
 20
251.25
 10
2246.25
 20
251.25
 97
0
 75
1
 76
1
 98
0
  0
LWPOLYLINE
  5
15F
330
17
100
AcDbEntity
  8
WALL
100
AcDbPolyline
 90
4
 70
1
 10
1893.75
 20
243.75
 10
2253.75
 20
243.75
 10
2253.75
 20
228.75
 10
1893.75
 20
228.75
  0
HATCH
  5
160
330
17
100
AcDbEntity
  8
WALL
100
AcDbHatch
 10
0.0
 20
0.0
 30
0.0
210
0.0
220
0.0
230
1.0
  2
SOLID
 70
1
 71
0
 91
1
 92
3
 72
0
 73
1
 93
4
 10
1893.75
 20
243.75
 10
2253.75
 20
243.75
 10
2253.75
 20
228.75
 10
1893.75
 20
228.75
 97
0
 75
1
 76
1
 98
0
  0
LWPOLYLINE
  5
161
330
17
100
AcDbEntity
  8
WALL
100
AcDbPolyline
 90
4
 70
1
 10
375.0
 20
236.25
 10
450.0
 20
236.25
 10
450.0
 20
226.875
 10
375.0
 20
226.875
  0
HATCH
  5
162
330
17
100
AcDbEntity
  8
WALL
100
AcDbHatch
 10
0.0
 20
0.0
 30
0.0
210
0.0
220
0.0
230
1.0
  2
SOLID
 70
1
 71
0
 91
1
 92
3
 72
0
 73
1
 93
4
 10
375.0
 20
236.25
 10
450.0
 20
236.25
 10
450.0
 20
226.875
 10
375.0
 20
226.875
 97
0
 75
1
 76
1
 98
0
  0
LWPOLYLINE
  5
163
330
17
100
AcDbEntity
  8
WALL
100
AcDbPolyline
 90
4
 70
1
 10
1350.0
 20
236.25
 10
1440.0
 20
236.25
 10
1440.0
 20
225.0
 10
1350.0
 20
225.0
  0
HATCH
  5
164
330
17
100
AcDbEntity
  8
WALL
100
AcDbHatch
 10
0.0
 20
0.0
 30
0.0
210
0.0
220
0.0
230
1.0
  2
SOLID
 70
1
 71
0
 91
1
 92
3
 72
0
 73
1
 93
4
 10
1350.0
 20
236.25
 10
1440.0
 20
236.25
 10
1440.0
 20
225.0
 10
1350.0
 20
225.0
 97
0
 75
1
 76
1
 98
0
  0
LWPOLYLINE
  5
165
330
17
100
AcDbEntity
  8
WALL
100
AcDbPolyline
 90
4
 70
1
 10
536.25
 20
232.5
 10
600.0
 20
232.5
 10
600.0
 20
226.875
 10
536.25
 20
226.875
  0
HATCH
  5
166
330
17
100
AcDbEntity
  8
WALL
100
AcDbHatch
 10
0.0
 20
0.0
 30
0.0
210
0.0
220
0.0
230
1.0
  2
SOLID
 70
1
 71
0
 91
1
 92
3
 72
0
 73
1
 93
4
 10
536.25
 20
232.5
 10
600.0
 20
232.5
 10
600.0
 20
226.875
 10
536.25
 20
226.875
 97
0
 75
1
 76
1
 98
0
  0
LWPOLYLINE
  5
167
330
17
100
AcDbEntity
  8
WALL
100
AcDbPolyline
 90
4
 70
1
 10
1098.75
 20
228.75
 10
1335.0
 20
228.75
 10
1335.0
 20
198.75
 10
1098.75
 20
198.75
  0
HATCH
  5
168
330
17
100
AcDbEntity
  8
WALL
100
AcDbHatch
 10
0.0
 20
0.0
 30
0.0
210
0.0
220
0.0
230
1.0
  2
SOLID
 70
1
 71
0
 91
1
 92
3
 72
0
 73
1
 93
4
 10
1098.75
 20
228.75
 10
1335.0
 20
228.75
 10
1335.0
 20
198.75
 10
1098.75
 20
198.75
 97
0
 75
1
 76
1
 98
0
  0
LWPOLYLINE
  5
169
330
17
100
AcDbEntity
  8
WALL
100
AcDbPolyline
 90
4
 70
1
 10
843.75
 20
225.0
 10
1050.0
 20
225.0
 10
1050.0
 20
213.75
 10
843.75
 20
213.75
  0
HATCH
  5
16A
330
17
100
AcDbEntity
  8
WALL
100
AcDbHatch
 10
0.0
 20
0.0
 30
0.0
210
0.0
220
0.0
230
1.0
  2
SOLID
 70
1
 71
0
 91
1
 92
3
 72
0
 73
1
 93
4
 10
843.75
 20
225.0
 10
1050.0
 20
225.0
 10
1050.0
 20
213.75
 10
843.75
 20
213.75
 97
0
 75
1
 76
1
 98
0
  0
LWPOLYLINE
  5
16B
330
17
100
AcDbEntity
  8
WALL
100
AcDbPolyline
 90
4
 70
1
 10
2163.75
 20
221.25
 10
2223.75
 20
221.25
 10
2223.75
 20
213.75
 10
2163.75
 20
213.75
  0
HATCH
  5
16C
330
17
100
AcDbEntity
  8
WALL
100
AcDbHatch
 10
0.0
 20
0.0
 30
0.0
210
0.0
220
0.0
230
1.0
  2
SOLID
 70
1
 71
0
 91
1
 92
3
 72
0
 73
1
 93
4
 10
2163.75
 20
221.25
 10
2223.75
 20
221.25
 10
2223.75
 20
213.75
 10
2163.75
 20
213.75
 97
0
 75
1
 76
1
 98
0
  0
LWPOLYLINE
  5
16D
330
17
100
AcDbEntity
  8
WALL
100
AcDbPolyline
 90
4
 70
1
 10
1833.75
 20
217.5
 10
1901.25
 20
217.5
 10
1901.25
 20
206.25
 10
1833.75
 20
206.25
  0
HATCH
  5
16E
330
17
100
AcDbEntity
  8
WALL
100
AcDbHatch
 10
0.0
 20
0.0
 30
0.0
210
0.0
220
0.0
230
1.0
  2
SOLID
 70
1
 71
0
 91
1
 92
3
 72
0
 73
1
 93
4
 10
1833.75
 20
217.5
 10
1901.25
 20
217.5
 10
1901.25
 20
206.25
 10
1833.75
 20
206.25
 97
0
 75
1
 76
1
 98
0
  0
LWPOLYLINE
  5
16F
330
17
100
AcDbEntity
  8
WALL
100
AcDbPolyline
 90
4
 70
1
 10
1586.25
 20
2690.625
 10
1605.0
 20
2690.625
 10
1605.0
 20
2424.375
 10
1586.25
 20
2424.375
  0
HATCH
  5
170
330
17
100
AcDbEntity
  8
WALL
100
AcDbHatch
 10
0.0
 20
0.0
 30
0.0
210
0.0
220
0.0
230
1.0
  2
SOLID
 70
1
 71
0
 91
1
 92
3
 72
0
 73
1
 93
4
 10
1586.25
 20
2690.625
 10
1605.0
 20
2690.625
 10
1605.0
 20
2424.375
 10
1586.25
 20
2424.375
 97
0
 75
1
 76
1
 98
0
  0
LWPOLYLINE
  5
171
330
17
100
AcDbEntity
  8
WALL
100
AcDbPolyline
 90
4
 70
1
 10
1335.0
 20
2670.0
 10
1342.5
 20
2670.0
 10
1342.5
 20
2628.75
 10
1335.0
 20
2628.75
  0
HATCH
  5
172
330
17
100
AcDbEntity
  8
WALL
100
AcDbHatch
 10
0.0
 20
0.0
 30
0.0
210
0.0
220
0.0
230
1.0
  2
SOLID
 70
1
 71
0
 91
1
 92
3
 72
0
 73
1
 93
4
 10
1335.0
 20
2670.0
 10
1342.5
 20
2670.0
 10
1342.5
 20
2628.75
 10
1335.0
 20
2628.75
 97
0
 75
1
 76
1
 98
0
  0
LWPOLYLINE
  5
173
330
17
100
AcDbEntity
  8
WALL
100
AcDbPolyline
 90
4
 70
1
 10
1353.75
 20
2670.0
 10
1361.25
 20
2670.0
 10
1361.25
 20
2606.25
 10
1353.75
 20
2606.25
  0
HATCH
  5
174
330
17
100
AcDbEntity
  8
WALL
100
AcDbHatch
 10
0.0
 20
0.0
 30
0.0
210
0.0
220
0.0
230
1.0
  2
SOLID
 70
1
 71
0
 91
1
 92
3
 72
0
 73
1
 93
4
 10
1353.75
 20
2670.0
 10
1361.25
 20
2670.0
 10
1361.25
 20
2606.25
 10
1353.75
 20
2606.25
 97
0
 75
1
 76
1
 98
0
  0
LWPOLYLINE
  5
175
330
17
100
AcDbEntity
  8
WALL
100
AcDbPolyline
 90
4
 70
1
 10
532.5
 20
2666.25
 10
555.0
 20
2666.25
 10
555.0
 20
2210.625
 10
532.5
 20
2210.625
  0
HATCH
  5
176
330
17
100
AcDbEntity
  8
WALL
100
AcDbHatch
 10
0.0
 20
0.0
 30
0.0
210
0.0
220
0.0
230
1.0
  2
SOLID
 70
1
 71
0
 91
1
 92
3
 72
0
 73
1
 93
4
 10
532.5
 20
2666.25
 10
555.0
 20
2666.25
 10
555.0
 20
2210.625
 10
532.5
 20
2210.625
 97
0
 75
1
 76
1
 98
0
  0
LWPOLYLINE
  5
177
330
17
100
AcDbEntity
  8
WALL
100
AcDbPolyline
 90
4
 70
1
 10
924.375
 20
2666.25
 10
930.0
 20
2666.25
 10
930.0
 20
2625.0
 10
924.375
 20
2625.0
  0
HATCH
  5
178
330
17
100
AcDbEntity
  8
WALL
100
AcDbHatch
 10
0.0
 20
0.0
 30
0.0
210
0.0
220
0.0
230
1.0
  2
SOLID
 70
1
 71
0
 91
1
 92
3
 72
0
 73
1
 93
4
 10
924.375
 20
2666.25
 10
930.0
 20
2666.25
 10
930.0
 20
2625.0
 10
924.375
 20
2625.0
 97
0
 75
1
 76
1
 98
0
  0
LWPOLYLINE
  5
179
330
17
100
AcDbEntity
  8
WALL
100
AcDbPolyline
 90
4
 70
1
 10
967.5
 20
2666.25
 10
971.25
 20
2666.25
 10
971.25
 20
2626.875
 10
967.5
 20
2626.875
  0
HATCH
  5
17A
330
17
100
AcDbEntity
  8
WALL
100
AcDbHatch
 10
0.0
 20
0.0
 30
0.0
210
0.0
220
0.0
230
1.0
  2
SOLID
 70
1
 71
0
 91
1
 92
3
 72
0
 73
1
 93
4
 10
967.5
 20
2666.25
 10
971.25
 20
2666.25
 10
971.25
 20
2626.875
 10
967.5
 20
2626.875
 97
0
 75
1
 76
1
 98
0
  0
LWPOLYLINE
  5
17B
330
17
100
AcDbEntity
  8
WALL
100
AcDbPolyline
 90
4
 70
1
 10
978.75
 20
2666.25
 10
986.25
 20
2666.25
 10
986.25
 20
2615.625
 10
978.75
 20
2615.625
  0
HATCH
  5
17C
330
17
100
AcDbEntity
  8
WALL
100
AcDbHatch
 10
0.0
 20
0.0
 30
0.0
210
0.0
220
0.0
230
1.0
  2
SOLID
 70
1
 71
0
 91
1
 92
3
 72
0
 73
1
 93
4
 10
978.75
 20
2666.25
 10
986.25
 20
2666.25
 10
986.25
 20
2615.625
 10
978.75
 20
2615.625
 97
0
 75
1
 76
1
 98
0
  0
LWPOLYLINE
  5
17D
330
17
100
AcDbEntity
  8
WALL
100
AcDbPolyline
 90
4
 70
1
 10
1001.25
 20
2666.25
 10
1005.0
 20
2666.25
 10
1005.0
 20
2625.0
 10
1001.25
 20
2625.0
  0
HATCH
  5
17E
330
17
100
AcDbEntity
  8
WALL
100
AcDbHatch
 10
0.0
 20
0.0
 30
0.0
210
0.0
220
0.0
230
1.0
  2
SOLID
 70
1
 71
0
 91
1
 92
3
 72
0
 73
1
 93
4
 10
1001.25
 20
2666.25
 10
1005.0
 20
2666.25
 10
1005.0
 20
2625.0
 10
1001.25
 20
2625.0
 97
0
 75
1
 76
1
 98
0
  0
LWPOLYLINE
  5
17F
330
17
100
AcDbEntity
  8
WALL
100
AcDbPolyline
 90
4
 70
1
 10
1008.75
 20
2666.25
 10
1016.25
 20
2666.25
 10
1016.25
 20
2615.625
 10
1008.75
 20
2615.625
  0
HATCH
  5
180
330
17
100
AcDbEntity
  8
WALL
100
AcDbHatch
 10
0.0
 20
0.0
 30
0.0
210
0.0
220
0.0
230
1.0
  2
SOLID
 70
1
 71
0
 91
1
 92
3
 72
0
 73
1
 93
4
 10
1008.75
 20
2666.25
 10
1016.25
 20
2666.25
 10
1016.25
 20
2615.625
 10
1008.75
 20
2615.625
 97
0
 75
1
 76
1
 98
0
  0
LWPOLYLINE
  5
181
330
17
100
AcDbEntity
  8
WALL
100
AcDbPolyline
 90
4
 70
1
 10
1031.25
 20
2666.25
 10
1042.5
 20
2666.25
 10
1042.5
 20
2608.125
 10
1031.25
 20
2608.125
  0
HATCH
  5
182
330
17
100
AcDbEntity
  8
WALL
100
AcDbHatch
 10
0.0
 20
0.0
 30
0.0
210
0.0
220
0.0
230
1.0
  2
SOLID
 70
1
 71
0
 91
1
 92
3
 72
0
 73
1
 93
4
 10
1031.25
 20
2666.25
 10
1042.5
 20
2666.25
 10
1042.5
 20
2608.125
 10
1031.25
 20
2608.125
 97
0
 75
1
 76
1
 98
0
  0
LWPOLYLINE
  5
183
330
17
100
AcDbEntity
  8
WALL
100
AcDbPolyline
 90
4
 70
1
 10
1057.5
 20
2666.25
 10
1061.25
 20
2666.25
 10
1061.25
 20
2626.875
 10
1057.5
 20
2626.875
  0
HATCH
  5
184
330
17
100
AcDbEntity
  8
WALL
100
AcDbHatch
 10
0.0
 20
0.0
 30
0.0
210
0.0
220
0.0
230
1.0
  2
SOLID
 70
1
 71
0
 91
1
 92
3
 72
0
 73
1
 93
4
 10
1057.5
 20
2666.25
 10
1061.25
 20
2666.25
 10
1061.25
 20
2626.875
 10
1057.5
 20
2626.875
 97
0
 75
1
 76
1
 98
0
  0
LWPOLYLINE
  5
185
330
17
100
AcDbEntity
  8
WALL
100
AcDbPolyline
 90
4
 70
1
 10
1207.5
 20
2666.25
 10
1230.0
 20
2666.25
 10
1230.0
 20
2593.125
 10
1207.5
 20
2593.125
  0
HATCH
  5
186
330
17
100
AcDbEntity
  8
WALL
100
AcDbHatch
 10
0.0
 20
0.0
 30
0.0
210
0.0
220
0.0
230
1.0
  2
SOLID
 70
1
 71
0
 91
1
 92
3
 72
0
 73
1
 93
4
 10
1207.5
 20
2666.25
 10
1230.0
 20
2666.25
 10
1230.0
 20
2593.125
 10
1207.5
 20
2593.125
 97
0
 75
1
 76
1
 98
0
  0
LWPOLYLINE
  5
187
330
17
100
AcDbEntity
  8
WALL
100
AcDbPolyline
 90
4
 70
1
 10
1252.5
 20
2666.25
 10
1263.75
 20
2666.25
 10
1263.75
 20
2617.5
 10
1252.5
 20
2617.5
  0
HATCH
  5
188
330
17
100
AcDbEntity
  8
WALL
100
AcDbHatch
 10
0.0
 20
0.0
 30
0.0
210
0.0
220
0.0
230
1.0
  2
SOLID
 70
1
 71
0
 91
1
 92
3
 72
0
 73
1
 93
4
 10
1252.5
 20
2666.25
 10
1263.75
 20
2666.25
 10
1263.75
 20
2617.5
 10
1252.5
 20
2617.5
 97
0
 75
1
 76
1
 98
0
  0
LWPOLYLINE
  5
189
330
17
100
AcDbEntity
  8
WALL
100
AcDbPolyline
 90
4
 70
1
 10
1402.5
 20
2666.25
 10
1410.0
 20
2666.25
 10
1410.0
 20
2595.0
 10
1402.5
 20
2595.0
  0
HATCH
  5
18A
330
17
100
AcDbEntity
  8
WALL
100
AcDbHatch
 10
0.0
 20
0.0
 30
0.0
210
0.0
220
0.0
230
1.0
  2
SOLID
 70
1
 71
0
 91
1
 92
3
 72
0
 73
1
 93
4
 10
1402.5
 20
2666.25
 10
1410.0
 20
2666.25
 10
1410.0
 20
2595.0
 10
1402.5
 20
2595.0
 97
0
 75
1
 76
1
 98
0
  0
LWPOLYLINE
  5
18B
330
17
100
AcDbEntity
  8
WALL
100
AcDbPolyline
 90
4
 70
1
 10
1421.25
 20
2666.25
 10
1432.5
 20
2666.25
 10
1432.5
 20
2621.25
 10
1421.25
 20
2621.25
  0
HATCH
  5
18C
330
17
100
AcDbEntity
  8
WALL
100
AcDbHatch
 10
0.0
 20
0.0
 30
0.0
210
0.0
220
0.0
230
1.0
  2
SOLID
 70
1
 71
0
 91
1
 92
3
 72
0
 73
1
 93
4
 10
1421.25
 20
2666.25
 10
1432.5
 20
2666.25
 10
1432.5
 20
2621.25
 10
1421.25
 20
2621.25
 97
0
 75
1
 76
1
 98
0
  0
LWPOLYLINE
  5
18D
330
17
100
AcDbEntity
  8
WALL
100
AcDbPolyline
 90
4
 70
1
 10
1447.5
 20
2666.25
 10
1451.25
 20
2666.25
 10
1451.25
 20
2626.875
 10
1447.5
 20
2626.875
  0
HATCH
  5
18E
330
17
100
AcDbEntity
  8
WALL
100
AcDbHatch
 10
0.0
 20
0.0
 30
0.0
210
0.0
220
0.0
230
1.0
  2
SOLID
 70
1
 71
0
 91
1
 92
3
 72
0
 73
1
 93
4
 10
1447.5
 20
2666.25
 10
1451.25
 20
2666.25
 10
1451.25
 20
2626.875
 10
1447.5
 20
2626.875
 97
0
 75
1
 76
1
 98
0
  0
LWPOLYLINE
  5
18F
330
17
100
AcDbEntity
  8
WALL
100
AcDbPolyline
 90
4
 70
1
 10
1458.75
 20
2666.25
 10
1473.75
 20
2666.25
 10
1473.75
 20
2602.5
 10
1458.75
 20
2602.5
  0
HATCH
  5
190
330
17
100
AcDbEntity
  8
WALL
100
AcDbHatch
 10
0.0
 20
0.0
 30
0.0
210
0.0
220
0.0
230
1.0
  2
SOLID
 70
1
 71
0
 91
1
 92
3
 72
0
 73
1
 93
4
 10
1458.75
 20
2666.25
 10
1473.75
 20
2666.25
 10
1473.75
 20
2602.5
 10
1458.75
 20
2602.5
 97
0
 75
1
 76
1
 98
0
  0
LWPOLYLINE
  5
191
330
17
100
AcDbEntity
  8
WALL
100
AcDbPolyline
 90
4
 70
1
 10
1477.5
 20
2638.125
 10
1483.125
 20
2638.125
 10
1483.125
 20
2583.75
 10
1477.5
 20
2583.75
  0
HATCH
  5
192
330
17
100
AcDbEntity
  8
WALL
100
AcDbHatch
 10
0.0
 20
0.0
 30
0.0
210
0.0
220
0.0
230
1.0
  2
SOLID
 70
1
 71
0
 91
1
 92
3
 72
0
 73
1
 93
4
 10
1477.5
 20
2638.125
 10
1483.125
 20
2638.125
 10
1483.125
 20
2583.75
 10
1477.5
 20
2583.75
 97
0
 75
1
 76
1
 98
0
  0
LWPOLYLINE
  5
193
330
17
100
AcDbEntity
  8
WALL
100
AcDbPolyline
 90
4
 70
1
 10
1305.0
 20
2625.0
 10
1308.75
 20
2625.0
 10
1308.75
 20
2585.625
 10
1305.0
 20
2585.625
  0
HATCH
  5
194
330
17
100
AcDbEntity
  8
WALL
100
AcDbHatch
 10
0.0
 20
0.0
 30
0.0
210
0.0
220
0.0
230
1.0
  2
SOLID
 70
1
 71
0
 91
1
 92
3
 72
0
 73
1
 93
4
 10
1305.0
 20
2625.0
 10
1308.75
 20
2625.0
 10
1308.75
 20
2585.625
 10
1305.0
 20
2585.625
 97
0
 75
1
 76
1
 98
0
  0
LWPOLYLINE
  5
195
330
17
100
AcDbEntity
  8
WALL
100
AcDbPolyline
 90
4
 70
1
 10
1503.75
 20
2600.625
 10
1515.0
 20
2600.625
 10
1515.0
 20
2529.375
 10
1503.75
 20
2529.375
  0
HATCH
  5
196
330
17
100
AcDbEntity
  8
WALL
100
AcDbHatch
 10
0.0
 20
0.0
 30
0.0
210
0.0
220
0.0
230
1.0
  2
SOLID
 70
1
 71
0
 91
1
 92
3
 72
0
 73
1
 93
4
 10
1503.75
 20
2600.625
 10
1515.0
 20
2600.625
 10
1515.0
 20
2529.375
 10
1503.75
 20
2529.375
 97
0
 75
1
 76
1
 98
0
  0
LWPOLYLINE
  5
197
330
17
100
AcDbEntity
  8
WALL
100
AcDbPolyline
 90
4
 70
1
 10
1530.0
 20
2587.5
 10
1560.0
 20
2587.5
 10
1560.0
 20
2268.75
 10
1530.0
 20
2268.75
  0
HATCH
  5
198
330
17
100
AcDbEntity
  8
WALL
100
AcDbHatch
 10
0.0
 20
0.0
 30
0.0
210
0.0
220
0.0
230
1.0
  2
SOLID
 70
1
 71
0
 91
1
 92
3
 72
0
 73
1
 93
4
 10
1530.0
 20
2587.5
 10
1560.0
 20
2587.5
 10
1560.0
 20
2268.75
 10
1530.0
 20
2268.75
 97
0
 75
1
 76
1
 98
0
  0
LWPOLYLINE
  5
199
330
17
100
AcDbEntity
  8
WALL
100
AcDbPolyline
 90
4
 70
1
 10
858.75
 20
2555.625
 10
873.75
 20
2555.625
 10
873.75
 20
2486.25
 10
858.75
 20
2486.25
  0
HATCH
  5
19A
330
17
100
AcDbEntity
  8
WALL
100
AcDbHatch
 10
0.0
 20
0.0
 30
0.0
210
0.0
220
0.0
230
1.0
  2
SOLID
 70
1
 71
0
 91
1
 92
3
 72
0
 73
1
 93
4
 10
858.75
 20
2555.625
 10
873.75
 20
2555.625
 10
873.75
 20
2486.25
 10
858.75
 20
2486.25
 97
0
 75
1
 76
1
 98
0
  0
LWPOLYLINE
  5
19B
330
17
100
AcDbEntity
  8
WALL
100
AcDbPolyline
 90
4
 70
1
 10
1185.0
 20
2525.625
 10
1192.5
 20
2525.625
 10
1192.5
 20
2471.25
 10
1185.0
 20
2471.25
  0
HATCH
  5
19C
330
17
100
AcDbEntity
  8
WALL
100
AcDbHatch
 10
0.0
 20
0.0
 30
0.0
210
0.0
220
0.0
230
1.0
  2
SOLID
 70
1
 71
0
 91
1
 92
3
 72
0
 73
1
 93
4
 10
1185.0
 20
2525.625
 10
1192.5
 20
2525.625
 10
1192.5
 20
2471.25
 10
1185.0
 20
2471.25
 97
0
 75
1
 76
1
 98
0
  0
LWPOLYLINE
  5
19D
330
17
100
AcDbEntity
  8
WALL
100
AcDbPolyline
 90
4
 70
1
 10
975.0
 20
2508.75
 10
1008.75
 20
2508.75
 10
1008.75
 20
2416.875
 10
975.0
 20
2416.875
  0
HATCH
  5
19E
330
17
100
AcDbEntity
  8
WALL
100
AcDbHatch
 10
0.0
 20
0.0
 30
0.0
210
0.0
220
0.0
230
1.0
  2
SOLID
 70
1
 71
0
 91
1
 92
3
 72
0
 73
1
 93
4
 10
975.0
 20
2508.75
 10
1008.75
 20
2508.75
 10
1008.75
 20
2416.875
 10
975.0
 20
2416.875
 97
0
 75
1
 76
1
 98
0
  0
LWPOLYLINE
  5
19F
330
17
100
AcDbEntity
  8
WALL
100
AcDbPolyline
 90
4
 70
1
 10
1057.5
 20
2503.125
 10
1080.0
 20
2503.125
 10
1080.0
 20
2373.75
 10
1057.5
 20
2373.75
  0
HATCH
  5
1A0
330
17
100
AcDbEntity
  8
WALL
100
AcDbHatch
 10
0.0
 20
0.0
 30
0.0
210
0.0
220
0.0
230
1.0
  2
SOLID
 70
1
 71
0
 91
1
 92
3
 72
0
 73
1
 93
4
 10
1057.5
 20
2503.125
 10
1080.0
 20
2503.125
 10
1080.0
 20
2373.75
 10
1057.5
 20
2373.75
 97
0
 75
1
 76
1
 98
0
  0
LWPOLYLINE
  5
1A1
330
17
100
AcDbEntity
  8
WALL
100
AcDbPolyline
 90
4
 70
1
 10
963.75
 20
2497.5
 10
967.5
 20
2497.5
 10
967.5
 20
2448.75
 10
963.75
 20
2448.75
  0
HATCH
  5
1A2
330
17
100
AcDbEntity
  8
WALL
100
AcDbHatch
 10
0.0
 20
0.0
 30
0.0
210
0.0
220
0.0
230
1.0
  2
SOLID
 70
1
 71
0
 91
1
 92
3
 72
0
 73
1
 93
4
 10
963.75
 20
2497.5
 10
967.5
 20
2497.5
 10
967.5
 20
2448.75
 10
963.75
 20
2448.75
 97
0
 75
1
 76
1
 98
0
  0
LWPOLYLINE
  5
1A3
330
17
100
AcDbEntity
  8
WALL
100
AcDbPolyline
 90
4
 70
1
 10
1038.75
 20
2443.125
 10
1053.75
 20
2443.125
 10
1053.75
 20
2381.25
 10
1038.75
 20
2381.25
  0
HATCH
  5
1A4
330
17
100
AcDbEntity
  8
WALL
100
AcDbHatch
 10
0.0
 20
0.0
 30
0.0
210
0.0
220
0.0
230
1.0
  2
SOLID
 70
1
 71
0
 91
1
 92
3
 72
0
 73
1
 93
4
 10
1038.75
 20
2443.125
 10
1053.75
 20
2443.125
 10
1053.75
 20
2381.25
 10
1038.75
 20
2381.25
 97
0
 75
1
 76
1
 98
0
  0
LWPOLYLINE
  5
1A5
330
17
100
AcDbEntity
  8
WALL
100
AcDbPolyline
 90
4
 70
1
 10
1586.25
 20
2416.875
 10
1601.25
 20
2416.875
 10
1601.25
 20
2356.875
 10
1586.25
 20
2356.875
  0
HATCH
  5
1A6
330
17
100
AcDbEntity
  8
WALL
100
AcDbHatch
 10
0.0
 20
0.0
 30
0.0
210
0.0
220
0.0
230
1.0
  2
SOLID
 70
1
 71
0
 91
1
 92
3
 72
0
 73
1
 93
4
 10
1586.25
 20
2416.875
 10
1601.25
 20
2416.875
 10
1601.25
 20
2356.875
 10
1586.25
 20
2356.875
 97
0
 75
1
 76
1
 98
0
  0
LWPOLYLINE
  5
1A7
330
17
100
AcDbEntity
  8
WALL
100
AcDbPolyline
 90
4
 70
1
 10
1586.25
 20
2311.875
 10
1601.25
 20
2311.875
 10
1601.25
 20
2205.0
 10
1586.25
 20
2205.0
  0
HATCH
  5
1A8
330
17
100
AcDbEntity
  8
WALL
100
AcDbHatch
 10
0.0
 20
0.0
 30
0.0
210
0.0
220
0.0
230
1.0
  2
SOLID
 70
1
 71
0
 91
1
 92
3
 72
0
 73
1
 93
4
 10
1586.25
 20
2311.875
 10
1601.25
 20
2311.875
 10
1601.25
 20
2205.0
 10
1586.25
 20
2205.0
 97
0
 75
1
 76
1
 98
0
  0
LWPOLYLINE
  5
1A9
330
17
100
AcDbEntity
  8
WALL
100
AcDbPolyline
 90
4
 70
1
 10
1248.75
 20
2274.375
 10
1260.0
 20
2274.375
 10
1260.0
 20
2218.125
 10
1248.75
 20
2218.125
  0
HATCH
  5
1AA
330
17
100
AcDbEntity
  8
WALL
100
AcDbHatch
 10
0.0
 20
0.0
 30
0.0
210
0.0
220
0.0
230
1.0
  2
SOLID
 70
1
 71
0
 91
1
 92
3
 72
0
 73
1
 93
4
 10
1248.75
 20
2274.375
 10
1260.0
 20
2274.375
 10
1260.0
 20
2218.125
 10
1248.75
 20
2218.125
 97
0
 75
1
 76
1
 98
0
  0
LWPOLYLINE
  5
1AB
330
17
100
AcDbEntity
  8
WALL
100
AcDbPolyline
 90
4
 70
1
 10
1533.75
 20
2255.625
 10
1545.0
 20
2255.625
 10
1545.0
 20
2208.75
 10
1533.75
 20
2208.75
  0
HATCH
  5
1AC
330
17
100
AcDbEntity
  8
WALL
100
AcDbHatch
 10
0.0
 20
0.0
 30
0.0
210
0.0
220
0.0
230
1.0
  2
SOLID
 70
1
 71
0
 91
1
 92
3
 72
0
 73
1
 93
4
 10
1533.75
 20
2255.625
 10
1545.0
 20
2255.625
 10
1545.0
 20
2208.75
 10
1533.75
 20
2208.75
 97
0
 75
1
 76
1
 98
0
  0
LWPOLYLINE
  5
1AD
330
17
100
AcDbEntity
  8
WALL
100
AcDbPolyline
 90
4
 70
1
 10
776.25
 20
2221.875
 10
802.5
 20
2221.875
 10
802.5
 20
1998.75
 10
776.25
 20
1998.75
  0
HATCH
  5
1AE
330
17
100
AcDbEntity
  8
WALL
100
AcDbHatch
 10
0.0
 20
0.0
 30
0.0
210
0.0
220
0.0
230
1.0
  2
SOLID
 70
1
 71
0
 91
1
 92
3
 72
0
 73
1
 93
4
 10
776.25
 20
2221.875
 10
802.5
 20
2221.875
 10
802.5
 20
1998.75
 10
776.25
 20
1998.75
 97
0
 75
1
 76
1
 98
0
  0
LWPOLYLINE
  5
1AF
330
17
100
AcDbEntity
  8
WALL
100
AcDbPolyline
 90
4
 70
1
 10
1080.0
 20
2214.375
 10
1087.5
 20
2214.375
 10
1087.5
 20
2171.25
 10
1080.0
 20
2171.25
  0
HATCH
  5
1B0
330
17
100
AcDbEntity
  8
WALL
100
AcDbHatch
 10
0.0
 20
0.0
 30
0.0
210
0.0
220
0.0
230
1.0
  2
SOLID
 70
1
 71
0
 91
1
 92
3
 72
0
 73
1
 93
4
 10
1080.0
 20
2214.375
 10
1087.5
 20
2214.375
 10
1087.5
 20
2171.25
 10
1080.0
 20
2171.25
 97
0
 75
1
 76
1
 98
0
  0
LWPOLYLINE
  5
1B1
330
17
100
AcDbEntity
  8
WALL
100
AcDbPolyline
 90
4
 70
1
 10
393.75
 20
2208.75
 10
412.5
 20
2208.75
 10
412.5
 20
1989.375
 10
393.75
 20
1989.375
  0
HATCH
  5
1B2
330
17
100
AcDbEntity
  8
WALL
100
AcDbHatch
 10
0.0
 20
0.0
 30
0.0
210
0.0
220
0.0
230
1.0
  2
SOLID
 70
1
 71
0
 91
1
 92
3
 72
0
 73
1
 93
4
 10
393.75
 20
2208.75
 10
412.5
 20
2208.75
 10
412.5
 20
1989.375
 10
393.75
 20
1989.375
 97
0
 75
1
 76
1
 98
0
  0
LWPOLYLINE
  5
1B3
330
17
100
AcDbEntity
  8
WALL
100
AcDbPolyline
 90
4
 70
1
 10
2242.5
 20
2201.25
 10
2253.75
 20
2201.25
 10
2253.75
 20
1813.125
 10
2242.5
 20
1813.125
  0
HATCH
  5
1B4
330
17
100
AcDbEntity
  8
WALL
100
AcDbHatch
 10
0.0
 20
0.0
 30
0.0
210
0.0
220
0.0
230
1.0
  2
SOLID
 70
1
 71
0
 91
1
 92
3
 72
0
 73
1
 93
4
 10
2242.5
 20
2201.25
 10
2253.75
 20
2201.25
 10
2253.75
 20
1813.125
 10
2242.5
 20
1813.125
 97
0
 75
1
 76
1
 98
0
  0
LWPOLYLINE
  5
1B5
330
17
100
AcDbEntity
  8
WALL
100
AcDbPolyline
 90
4
 70
1
 10
1717.5
 20
2180.625
 10
1740.0
 20
2180.625
 10
1740.0
 20
1766.25
 10
1717.5
 20
1766.25
  0
HATCH
  5
1B6
330
17
100
AcDbEntity
  8
WALL
100
AcDbHatch
 10
0.0
 20
0.0
 30
0.0
210
0.0
220
0.0
230
1.0
  2
SOLID
 70
1
 71
0
 91
1
 92
3
 72
0
 73
1
 93
4
 10
1717.5
 20
2180.625
 10
1740.0
 20
2180.625
 10
1740.0
 20
1766.25
 10
1717.5
 20
1766.25
 97
0
 75
1
 76
1
 98
0
  0
LWPOLYLINE
  5
1B7
330
17
100
AcDbEntity
  8
WALL
100
AcDbPolyline
 90
4
 70
1
 10
1125.0
 20
2178.75
 10
1143.75
 20
2178.75
 10
1143.75
 20
1987.5
 10
1125.0
 20
1987.5
  0
HATCH
  5
1B8
330
17
100
AcDbEntity
  8
WALL
100
AcDbHatch
 10
0.0
 20
0.0
 30
0.0
210
0.0
220
0.0
230
1.0
  2
SOLID
 70
1
 71
0
 91
1
 92
3
 72
0
 73
1
 93
4
 10
1125.0
 20
2178.75
 10
1143.75
 20
2178.75
 10
1143.75
 20
1987.5
 10
1125.0
 20
1987.5
 97
0
 75
1
 76
1
 98
0
  0
LWPOLYLINE
  5
1B9
330
17
100
AcDbEntity
  8
WALL
100
AcDbPolyline
 90
4
 70
1
 10
1995.0
 20
2178.75
 10
2010.0
 20
2178.75
 10
2010.0
 20
2126.25
 10
1995.0
 20
2126.25
  0
HATCH
  5
1BA
330
17
100
AcDbEntity
  8
WALL
100
AcDbHatch
 10
0.0
 20
0.0
 30
0.0
210
0.0
220
0.0
230
1.0
  2
SOLID
 70
1
 71
0
 91
1
 92
3
 72
0
 73
1
 93
4
 10
1995.0
 20
2178.75
 10
2010.0
 20
2178.75
 10
2010.0
 20
2126.25
 10
1995.0
 20
2126.25
 97
0
 75
1
 76
1
 98
0
  0
LWPOLYLINE
  5
1BB
330
17
100
AcDbEntity
  8
WALL
100
AcDbPolyline
 90
4
 70
1
 10
2021.25
 20
2178.75
 10
2025.0
 20
2178.75
 10
2025.0
 20
2130.0
 10
2021.25
 20
2130.0
  0
HATCH
  5
1BC
330
17
100
AcDbEntity
  8
WALL
100
AcDbHatch
 10
0.0
 20
0.0
 30
0.0
210
0.0
220
0.0
230
1.0
  2
SOLID
 70
1
 71
0
 91
1
 92
3
 72
0
 73
1
 93
4
 10
2021.25
 20
2178.75
 10
2025.0
 20
2178.75
 10
2025.0
 20
2130.0
 10
2021.25
 20
2130.0
 97
0
 75
1
 76
1
 98
0
  0
LWPOLYLINE
  5
1BD
330
17
100
AcDbEntity
  8
WALL
100
AcDbPolyline
 90
4
 70
1
 10
1556.25
 20
2175.0
 10
1567.5
 20
2175.0
 10
1567.5
 20
1978.125
 10
1556.25
 20
1978.125
  0
HATCH
  5
1BE
330
17
100
AcDbEntity
  8
WALL
100
AcDbHatch
 10
0.0
 20
0.0
 30
0.0
210
0.0
220
0.0
230
1.0
  2
SOLID
 70
1
 71
0
 91
1
 92
3
 72
0
 73
1
 93
4
 10
1556.25
 20
2175.0
 10
1567.5
 20
2175.0
 10
1567.5
 20
1978.125
 10
1556.25
 20
1978.125
 97
0
 75
1
 76
1
 98
0
  0
LWPOLYLINE
  5
1BF
330
17
100
AcDbEntity
  8
WALL
100
AcDbPolyline
 90
4
 70
1
 10
416.25
 20
2171.25
 10
431.25
 20
2171.25
 10
431.25
 20
2109.375
 10
416.25
 20
2109.375
  0
HATCH
  5
1C0
330
17
100
AcDbEntity
  8
WALL
100
AcDbHatch
 10
0.0
 20
0.0
 30
0.0
210
0.0
220
0.0
230
1.0
  2
SOLID
 70
1
 71
0
 91
1
 92
3
 72
0
 73
1
 93
4
 10
416.25
 20
2171.25
 10
431.25
 20
2171.25
 10
431.25
 20
2109.375
 10
416.25
 20
2109.375
 97
0
 75
1
 76
1
 98
0
  0
LWPOLYLINE
  5
1C1
330
17
100
AcDbEntity
  8
WALL
100
AcDbPolyline
 90
4
 70
1
 10
810.0
 20
2150.625
 10
840.0
 20
2150.625
 10
840.0
 20
1998.75
 10
810.0
 20
1998.75
  0
HATCH
  5
1C2
330
17
100
AcDbEntity
  8
WALL
100
AcDbHatch
 10
0.0
 20
0.0
 30
0.0
210
0.0
220
0.0
230
1.0
  2
SOLID
 70
1
 71
0
 91
1
 92
3
 72
0
 73
1
 93
4
 10
810.0
 20
2150.625
 10
840.0
 20
2150.625
 10
840.0
 20
1998.75
 10
810.0
 20
1998.75
 97
0
 75
1
 76
1
 98
0
  0
LWPOLYLINE
  5
1C3
330
17
100
AcDbEntity
  8
WALL
100
AcDbPolyline
 90
4
 70
1
 10
2208.75
 20
2152.5
 10
2223.75
 20
2152.5
 10
2223.75
 20
2006.25
 10
2208.75
 20
2006.25
  0
HATCH
  5
1C4
330
17
100
AcDbEntity
  8
WALL
100
AcDbHatch
 10
0.0
 20
0.0
 30
0.0
210
0.0
220
0.0
230
1.0
  2
SOLID
 70
1
 71
0
 91
1
 92
3
 72
0
 73
1
 93
4
 10
2208.75
 20
2152.5
 10
2223.75
 20
2152.5
 10
2223.75
 20
2006.25
 10
2208.75
 20
2006.25
 97
0
 75
1
 76
1
 98
0
  0
LWPOLYLINE
  5
1C5
330
17
100
AcDbEntity
  8
WALL
100
AcDbPolyline
 90
4
 70
1
 10
1522.5
 20
2148.75
 10
1537.5
 20
2148.75
 10
1537.5
 20
2002.5
 10
1522.5
 20
2002.5
  0
HATCH
  5
1C6
330
17
100
AcDbEntity
  8
WALL
100
AcDbHatch
 10
0.0
 20
0.0
 30
0.0
210
0.0
220
0.0
230
1.0
  2
SOLID
 70
1
 71
0
 91
1
 92
3
 72
0
 73
1
 93
4
 10
1522.5
 20
2148.75
 10
1537.5
 20
2148.75
 10
1537.5
 20
2002.5
 10
1522.5
 20
2002.5
 97
0
 75
1
 76
1
 98
0
  0
LWPOLYLINE
  5
1C7
330
17
100
AcDbEntity
  8
WALL
100
AcDbPolyline
 90
4
 70
1
 10
1447.5
 20
2120.625
 10
1466.25
 20
2120.625
 10
1466.25
 20
2019.375
 10
1447.5
 20
2019.375
  0
HATCH
  5
1C8
330
17
100
AcDbEntity
  8
WALL
100
AcDbHatch
 10
0.0
 20
0.0
 30
0.0
210
0.0
220
0.0
230
1.0
  2
SOLID
 70
1
 71
0
 91
1
 92
3
 72
0
 73
1
 93
4
 10
1447.5
 20
2120.625
 10
1466.25
 20
2120.625
 10
1466.25
 20
2019.375
 10
1447.5
 20
2019.375
 97
0
 75
1
 76
1
 98
0
  0
LWPOLYLINE
  5
1C9
330
17
100
AcDbEntity
  8
WALL
100
AcDbPolyline
 90
4
 70
1
 10
1297.5
 20
2116.875
 10
1323.75
 20
2116.875
 10
1323.75
 20
2051.25
 10
1297.5
 20
2051.25
  0
HATCH
  5
1CA
330
17
100
AcDbEntity
  8
WALL
100
AcDbHatch
 10
0.0
 20
0.0
 30
0.0
210
0.0
220
0.0
230
1.0
  2
SOLID
 70
1
 71
0
 91
1
 92
3
 72
0
 73
1
 93
4
 10
1297.5
 20
2116.875
 10
1323.75
 20
2116.875
 10
1323.75
 20
2051.25
 10
1297.5
 20
2051.25
 97
0
 75
1
 76
1
 98
0
  0
LWPOLYLINE
  5
1CB
330
17
100
AcDbEntity
  8
WALL
100
AcDbPolyline
 90
4
 70
1
 10
2133.75
 20
2116.875
 10
2152.5
 20
2116.875
 10
2152.5
 20
2026.875
 10
2133.75
 20
2026.875
  0
HATCH
  5
1CC
330
17
100
AcDbEntity
  8
WALL
100
AcDbHatch
 10
0.0
 20
0.0
 30
0.0
210
0.0
220
0.0
230
1.0
  2
SOLID
 70
1
 71
0
 91
1
 92
3
 72
0
 73
1
 93
4
 10
2133.75
 20
2116.875
 10
2152.5
 20
2116.875
 10
2152.5
 20
2026.875
 10
2133.75
 20
2026.875
 97
0
 75
1
 76
1
 98
0
  0
LWPOLYLINE
  5
1CD
330
17
100
AcDbEntity
  8
WALL
100
AcDbPolyline
 90
4
 70
1
 10
1233.75
 20
2101.875
 10
1256.25
 20
2101.875
 10
1256.25
 20
2040.0
 10
1233.75
 20
2040.0
  0
HATCH
  5
1CE
330
17
100
AcDbEntity
  8
WALL
100
AcDbHatch
 10
0.0
 20
0.0
 30
0.0
210
0.0
220
0.0
230
1.0
  2
SOLID
 70
1
 71
0
 91
1
 92
3
 72
0
 73
1
 93
4
 10
1233.75
 20
2101.875
 10
1256.25
 20
2101.875
 10
1256.25
 20
2040.0
 10
1233.75
 20
2040.0
 97
0
 75
1
 76
1
 98
0
  0
LWPOLYLINE
  5
1CF
330
17
100
AcDbEntity
  8
WALL
100
AcDbPolyline
 90
4
 70
1
 10
1995.0
 20
2098.125
 10
2013.75
 20
2098.125
 10
2013.75
 20
2040.0
 10
1995.0
 20
2040.0
  0
HATCH
  5
1D0
330
17
100
AcDbEntity
  8
WALL
100
AcDbHatch
 10
0.0
 20
0.0
 30
0.0
210
0.0
220
0.0
230
1.0
  2
SOLID
 70
1
 71
0
 91
1
 92
3
 72
0
 73
1
 93
4
 10
1995.0
 20
2098.125
 10
2013.75
 20
2098.125
 10
2013.75
 20
2040.0
 10
1995.0
 20
2040.0
 97
0
 75
1
 76
1
 98
0
  0
LWPOLYLINE
  5
1D1
330
17
100
AcDbEntity
  8
WALL
100
AcDbPolyline
 90
4
 70
1
 10
2208.75
 20
1995.0
 10
2223.75
 20
1995.0
 10
2223.75
 20
1841.25
 10
2208.75
 20
1841.25
  0
HATCH
  5
1D2
330
17
100
AcDbEntity
  8
WALL
100
AcDbHatch
 10
0.0
 20
0.0
 30
0.0
210
0.0
220
0.0
230
1.0
  2
SOLID
 70
1
 71
0
 91
1
 92
3
 72
0
 73
1
 93
4
 10
2208.75
 20
1995.0
 10
2223.75
 20
1995.0
 10
2223.75
 20
1841.25
 10
2208.75
 20
1841.25
 97
0
 75
1
 76
1
 98
0
  0
LWPOLYLINE
  5
1D3
330
17
100
AcDbEntity
  8
WALL
100
AcDbPolyline
 90
4
 70
1
 10
1526.25
 20
1991.25
 10
1537.5
 20
1991.25
 10
1537.5
 20
1895.625
 10
1526.25
 20
1895.625
  0
HATCH
  5
1D4
330
17
100
AcDbEntity
  8
WALL
100
AcDbHatch
 10
0.0
 20
0.0
 30
0.0
210
0.0
220
0.0
230
1.0
  2
SOLID
 70
1
 71
0
 91
1
 92
3
 72
0
 73
1
 93
4
 10
1526.25
 20
1991.25
 10
1537.5
 20
1991.25
 10
1537.5
 20
1895.625
 10
1526.25
 20
1895.625
 97
0
 75
1
 76
1
 98
0
  0
LWPOLYLINE
  5
1D5
330
17
100
AcDbEntity
  8
WALL
100
AcDbPolyline
 90
4
 70
1
 10
2021.25
 20
1976.25
 10
2032.5
 20
1976.25
 10
2032.5
 20
1931.25
 10
2021.25
 20
1931.25
  0
HATCH
  5
1D6
330
17
100
AcDbEntity
  8
WALL
100
AcDbHatch
 10
0.0
 20
0.0
 30
0.0
210
0.0
220
0.0
230
1.0
  2
SOLID
 70
1
 71
0
 91
1
 92
3
 72
0
 73
1
 93
4
 10
2021.25
 20
1976.25
 10
2032.5
 20
1976.25
 10
2032.5
 20
1931.25
 10
2021.25
 20
1931.25
 97
0
 75
1
 76
1
 98
0
  0
LWPOLYLINE
  5
1D7
330
17
100
AcDbEntity
  8
WALL
100
AcDbPolyline
 90
4
 70
1
 10
1447.5
 20
1955.625
 10
1462.5
 20
1955.625
 10
1462.5
 20
1875.0
 10
1447.5
 20
1875.0
  0
HATCH
  5
1D8
330
17
100
AcDbEntity
  8
WALL
100
AcDbHatch
 10
0.0
 20
0.0
 30
0.0
210
0.0
220
0.0
230
1.0
  2
SOLID
 70
1
 71
0
 91
1
 92
3
 72
0
 73
1
 93
4
 10
1447.5
 20
1955.625
 10
1462.5
 20
1955.625
 10
1462.5
 20
1875.0
 10
1447.5
 20
1875.0
 97
0
 75
1
 76
1
 98
0
  0
LWPOLYLINE
  5
1D9
330
17
100
AcDbEntity
  8
WALL
100
AcDbPolyline
 90
4
 70
1
 10
2133.75
 20
1955.625
 10
2148.75
 20
1955.625
 10
2148.75
 20
1876.875
 10
2133.75
 20
1876.875
  0
HATCH
  5
1DA
330
17
100
AcDbEntity
  8
WALL
100
AcDbHatch
 10
0.0
 20
0.0
 30
0.0
210
0.0
220
0.0
230
1.0
  2
SOLID
 70
1
 71
0
 91
1
 92
3
 72
0
 73
1
 93
4
 10
2133.75
 20
1955.625
 10
2148.75
 20
1955.625
 10
2148.75
 20
1876.875
 10
2133.75
 20
1876.875
 97
0
 75
1
 76
1
 98
0
  0
LWPOLYLINE
  5
1DB
330
17
100
AcDbEntity
  8
WALL
100
AcDbPolyline
 90
4
 70
1
 10
1267.5
 20
1953.75
 10
1282.5
 20
1953.75
 10
1282.5
 20
1895.625
 10
1267.5
 20
1895.625
  0
HATCH
  5
1DC
330
17
100
AcDbEntity
  8
WALL
100
AcDbHatch
 10
0.0
 20
0.0
 30
0.0
210
0.0
220
0.0
230
1.0
  2
SOLID
 70
1
 71
0
 91
1
 92
3
 72
0
 73
1
 93
4
 10
1267.5
 20
1953.75
 10
1282.5
 20
1953.75
 10
1282.5
 20
1895.625
 10
1267.5
 20
1895.625
 97
0
 75
1
 76
1
 98
0
  0
LWPOLYLINE
  5
1DD
330
17
100
AcDbEntity
  8
WALL
100
AcDbPolyline
 90
4
 70
1
 10
1927.5
 20
1938.75
 10
1942.5
 20
1938.75
 10
1942.5
 20
1893.75
 10
1927.5
 20
1893.75
  0
HATCH
  5
1DE
330
17
100
AcDbEntity
  8
WALL
100
AcDbHatch
 10
0.0
 20
0.0
 30
0.0
210
0.0
220
0.0
230
1.0
  2
SOLID
 70
1
 71
0
 91
1
 92
3
 72
0
 73
1
 93
4
 10
1927.5
 20
1938.75
 10
1942.5
 20
1938.75
 10
1942.5
 20
1893.75
 10
1927.5
 20
1893.75
 97
0
 75
1
 76
1
 98
0
  0
LWPOLYLINE
  5
1DF
330
17
100
AcDbEntity
  8
WALL
100
AcDbPolyline
 90
4
 70
1
 10
1125.0
 20
1867.5
 10
1155.0
 20
1867.5
 10
1155.0
 20
1650.0
 10
1125.0
 20
1650.0
  0
HATCH
  5
1E0
330
17
100
AcDbEntity
  8
WALL
100
AcDbHatch
 10
0.0
 20
0.0
 30
0.0
210
0.0
220
0.0
230
1.0
  2
SOLID
 70
1
 71
0
 91
1
 92
3
 72
0
 73
1
 93
4
 10
1125.0
 20
1867.5
 10
1155.0
 20
1867.5
 10
1155.0
 20
1650.0
 10
1125.0
 20
1650.0
 97
0
 75
1
 76
1
 98
0
  0
LWPOLYLINE
  5
1E1
330
17
100
AcDbEntity
  8
WALL
100
AcDbPolyline
 90
4
 70
1
 10
2287.5
 20
1830.0
 10
2310.0
 20
1830.0
 10
2310.0
 20
1590.0
 10
2287.5
 20
1590.0
  0
HATCH
  5
1E2
330
17
100
AcDbEntity
  8
WALL
100
AcDbHatch
 10
0.0
 20
0.0
 30
0.0
210
0.0
220
0.0
230
1.0
  2
SOLID
 70
1
 71
0
 91
1
 92
3
 72
0
 73
1
 93
4
 10
2287.5
 20
1830.0
 10
2310.0
 20
1830.0
 10
2310.0
 20
1590.0
 10
2287.5
 20
1590.0
 97
0
 75
1
 76
1
 98
0
  0
LWPOLYLINE
  5
1E3
330
17
100
AcDbEntity
  8
WALL
100
AcDbPolyline
 90
4
 70
1
 10
2388.75
 20
1818.75
 10
2411.25
 20
1818.75
 10
2411.25
 20
1546.875
 10
2388.75
 20
1546.875
  0
HATCH
  5
1E4
330
17
100
AcDbEntity
  8
WALL
100
AcDbHatch
 10
0.0
 20
0.0
 30
0.0
210
0.0
220
0.0
230
1.0
  2
SOLID
 70
1
 71
0
 91
1
 92
3
 72
0
 73
1
 93
4
 10
2388.75
 20
1818.75
 10
2411.25
 20
1818.75
 10
2411.25
 20
1546.875
 10
2388.75
 20
1546.875
 97
0
 75
1
 76
1
 98
0
  0
LWPOLYLINE
  5
1E5
330
17
100
AcDbEntity
  8
WALL
100
AcDbPolyline
 90
4
 70
1
 10
2107.5
 20
1732.5
 10
2118.75
 20
1732.5
 10
2118.75
 20
1689.375
 10
2107.5
 20
1689.375
  0
HATCH
  5
1E6
330
17
100
AcDbEntity
  8
WALL
100
AcDbHatch
 10
0.0
 20
0.0
 30
0.0
210
0.0
220
0.0
230
1.0
  2
SOLID
 70
1
 71
0
 91
1
 92
3
 72
0
 73
1
 93
4
 10
2107.5
 20
1732.5
 10
2118.75
 20
1732.5
 10
2118.75
 20
1689.375
 10
2107.5
 20
1689.375
 97
0
 75
1
 76
1
 98
0
  0
LWPOLYLINE
  5
1E7
330
17
100
AcDbEntity
  8
WALL
100
AcDbPolyline
 90
4
 70
1
 10
1095.0
 20
1700.625
 10
1121.25
 20
1700.625
 10
1121.25
 20
1552.5
 10
1095.0
 20
1552.5
  0
HATCH
  5
1E8
330
17
100
AcDbEntity
  8
WALL
100
AcDbHatch
 10
0.0
 20
0.0
 30
0.0
210
0.0
220
0.0
230
1.0
  2
SOLID
 70
1
 71
0
 91
1
 92
3
 72
0
 73
1
 93
4
 10
1095.0
 20
1700.625
 10
1121.25
 20
1700.625
 10
1121.25
 20
1552.5
 10
1095.0
 20
1552.5
 97
0
 75
1
 76
1
 98
0
  0
LWPOLYLINE
  5
1E9
330
17
100
AcDbEntity
  8
WALL
100
AcDbPolyline
 90
4
 70
1
 10
1425.0
 20
1696.875
 10
1440.0
 20
1696.875
 10
1440.0
 20
1636.875
 10
1425.0
 20
1636.875
  0
HATCH
  5
1EA
330
17
100
AcDbEntity
  8
WALL
100
AcDbHatch
 10
0.0
 20
0.0
 30
0.0
210
0.0
220
0.0
230
1.0
  2
SOLID
 70
1
 71
0
 91
1
 92
3
 72
0
 73
1
 93
4
 10
1425.0
 20
1696.875
 10
1440.0
 20
1696.875
 10
1440.0
 20
1636.875
 10
1425.0
 20
1636.875
 97
0
 75
1
 76
1
 98
0
  0
LWPOLYLINE
  5
1EB
330
17
100
AcDbEntity
  8
WALL
100
AcDbPolyline
 90
4
 70
1
 10
1590.0
 20
1698.75
 10
1616.25
 20
1698.75
 10
1616.25
 20
1312.5
 10
1590.0
 20
1312.5
  0
HATCH
  5
1EC
330
17
100
AcDbEntity
  8
WALL
100
AcDbHatch
 10
0.0
 20
0.0
 30
0.0
210
0.0
220
0.0
230
1.0
  2
SOLID
 70
1
 71
0
 91
1
 92
3
 72
0
 73
1
 93
4
 10
1590.0
 20
1698.75
 10
1616.25
 20
1698.75
 10
1616.25
 20
1312.5
 10
1590.0
 20
1312.5
 97
0
 75
1
 76
1
 98
0
  0
LWPOLYLINE
  5
1ED
330
17
100
AcDbEntity
  8
WALL
100
AcDbPolyline
 90
4
 70
1
 10
2103.75
 20
1685.625
 10
2118.75
 20
1685.625
 10
2118.75
 20
1633.125
 10
2103.75
 20
1633.125
  0
HATCH
  5
1EE
330
17
100
AcDbEntity
  8
WALL
100
AcDbHatch
 10
0.0
 20
0.0
 30
0.0
210
0.0
220
0.0
230
1.0
  2
SOLID
 70
1
 71
0
 91
1
 92
3
 72
0
 73
1
 93
4
 10
2103.75
 20
1685.625
 10
2118.75
 20
1685.625
 10
2118.75
 20
1633.125
 10
2103.75
 20
1633.125
 97
0
 75
1
 76
1
 98
0
  0
LWPOLYLINE
  5
1EF
330
17
100
AcDbEntity
  8
WALL
100
AcDbPolyline
 90
4
 70
1
 10
2126.25
 20
1678.125
 10
2141.25
 20
1678.125
 10
2141.25
 20
1623.75
 10
2126.25
 20
1623.75
  0
HATCH
  5
1F0
330
17
100
AcDbEntity
  8
WALL
100
AcDbHatch
 10
0.0
 20
0.0
 30
0.0
210
0.0
220
0.0
230
1.0
  2
SOLID
 70
1
 71
0
 91
1
 92
3
 72
0
 73
1
 93
4
 10
2126.25
 20
1678.125
 10
2141.25
 20
1678.125
 10
2141.25
 20
1623.75
 10
2126.25
 20
1623.75
 97
0
 75
1
 76
1
 98
0
  0
LWPOLYLINE
  5
1F1
330
17
100
AcDbEntity
  8
WALL
100
AcDbPolyline
 90
4
 70
1
 10
840.0
 20
1651.875
 10
866.25
 20
1651.875
 10
866.25
 20
1413.75
 10
840.0
 20
1413.75
  0
HATCH
  5
1F2
330
17
100
AcDbEntity
  8
WALL
100
AcDbHatch
 10
0.0
 20
0.0
 30
0.0
210
0.0
220
0.0
230
1.0
  2
SOLID
 70
1
 71
0
 91
1
 92
3
 72
0
 73
1
 93
4
 10
840.0
 20
1651.875
 10
866.25
 20
1651.875
 10
866.25
 20
1413.75
 10
840.0
 20
1413.75
 97
0
 75
1
 76
1
 98
0
  0
LWPOLYLINE
  5
1F3
330
17
100
AcDbEntity
  8
WALL
100
AcDbPolyline
 90
4
 70
1
 10
1440.0
 20
1593.75
 10
1451.25
 20
1593.75
 10
1451.25
 20
1500.0
 10
1440.0
 20
1500.0
  0
HATCH
  5
1F4
330
17
100
AcDbEntity
  8
WALL
100
AcDbHatch
 10
0.0
 20
0.0
 30
0.0
210
0.0
220
0.0
230
1.0
  2
SOLID
 70
1
 71
0
 91
1
 92
3
 72
0
 73
1
 93
4
 10
1440.0
 20
1593.75
 10
1451.25
 20
1593.75
 10
1451.25
 20
1500.0
 10
1440.0
 20
1500.0
 97
0
 75
1
 76
1
 98
0
  0
LWPOLYLINE
  5
1F5
330
17
100
AcDbEntity
  8
WALL
100
AcDbPolyline
 90
4
 70
1
 10
1132.5
 20
1567.5
 10
1155.0
 20
1567.5
 10
1155.0
 20
1428.75
 10
1132.5
 20
1428.75
  0
HATCH
  5
1F6
330
17
100
AcDbEntity
  8
WALL
100
AcDbHatch
 10
0.0
 20
0.0
 30
0.0
210
0.0
220
0.0
230
1.0
  2
SOLID
 70
1
 71
0
 91
1
 92
3
 72
0
 73
1
 93
4
 10
1132.5
 20
1567.5
 10
1155.0
 20
1567.5
 10
1155.0
 20
1428.75
 10
1132.5
 20
1428.75
 97
0
 75
1
 76
1
 98
0
  0
LWPOLYLINE
  5
1F7
330
17
100
AcDbEntity
  8
WALL
100
AcDbPolyline
 90
4
 70
1
 10
2388.75
 20
1535.625
 10
2411.25
 20
1535.625
 10
2411.25
 20
1278.75
 10
2388.75
 20
1278.75
  0
HATCH
  5
1F8
330
17
100
AcDbEntity
  8
WALL
100
AcDbHatch
 10
0.0
 20
0.0
 30
0.0
210
0.0
220
0.0
230
1.0
  2
SOLID
 70
1
 71
0
 91
1
 92
3
 72
0
 73
1
 93
4
 10
2388.75
 20
1535.625
 10
2411.25
 20
1535.625
 10
2411.25
 20
1278.75
 10
2388.75
 20
1278.75
 97
0
 75
1
 76
1
 98
0
  0
LWPOLYLINE
  5
1F9
330
17
100
AcDbEntity
  8
WALL
100
AcDbPolyline
 90
4
 70
1
 10
1556.25
 20
1531.875
 10
1567.5
 20
1531.875
 10
1567.5
 20
1396.875
 10
1556.25
 20
1396.875
  0
HATCH
  5
1FA
330
17
100
AcDbEntity
  8
WALL
100
AcDbHatch
 10
0.0
 20
0.0
 30
0.0
210
0.0
220
0.0
230
1.0
  2
SOLID
 70
1
 71
0
 91
1
 92
3
 72
0
 73
1
 93
4
 10
1556.25
 20
1531.875
 10
1567.5
 20
1531.875
 10
1567.5
 20
1396.875
 10
1556.25
 20
1396.875
 97
0
 75
1
 76
1
 98
0
  0
LWPOLYLINE
  5
1FB
330
17
100
AcDbEntity
  8
WALL
100
AcDbPolyline
 90
4
 70
1
 10
2283.75
 20
1530.0
 10
2310.0
 20
1530.0
 10
2310.0
 20
1233.75
 10
2283.75
 20
1233.75
  0
HATCH
  5
1FC
330
17
100
AcDbEntity
  8
WALL
100
AcDbHatch
 10
0.0
 20
0.0
 30
0.0
210
0.0
220
0.0
230
1.0
  2
SOLID
 70
1
 71
0
 91
1
 92
3
 72
0
 73
1
 93
4
 10
2283.75
 20
1530.0
 10
2310.0
 20
1530.0
 10
2310.0
 20
1233.75
 10
2283.75
 20
1233.75
 97
0
 75
1
 76
1
 98
0
  0
LWPOLYLINE
  5
1FD
330
17
100
AcDbEntity
  8
WALL
100
AcDbPolyline
 90
4
 70
1
 10
1440.0
 20
1496.25
 10
1451.25
 20
1496.25
 10
1451.25
 20
1280.625
 10
1440.0
 20
1280.625
  0
HATCH
  5
1FE
330
17
100
AcDbEntity
  8
WALL
100
AcDbHatch
 10
0.0
 20
0.0
 30
0.0
210
0.0
220
0.0
230
1.0
  2
SOLID
 70
1
 71
0
 91
1
 92
3
 72
0
 73
1
 93
4
 10
1440.0
 20
1496.25
 10
1451.25
 20
1496.25
 10
1451.25
 20
1280.625
 10
1440.0
 20
1280.625
 97
0
 75
1
 76
1
 98
0
  0
LWPOLYLINE
  5
1FF
330
17
100
AcDbEntity
  8
WALL
100
AcDbPolyline
 90
4
 70
1
 10
2205.0
 20
1449.375
 10
2223.75
 20
1449.375
 10
2223.75
 20
1381.875
 10
2205.0
 20
1381.875
  0
HATCH
  5
200
330
17
100
AcDbEntity
  8
WALL
100
AcDbHatch
 10
0.0
 20
0.0
 30
0.0
210
0.0
220
0.0
230
1.0
  2
SOLID
 70
1
 71
0
 91
1
 92
3
 72
0
 73
1
 93
4
 10
2205.0
 20
1449.375
 10
2223.75
 20
1449.375
 10
2223.75
 20
1381.875
 10
2205.0
 20
1381.875
 97
0
 75
1
 76
1
 98
0
  0
LWPOLYLINE
  5
201
330
17
100
AcDbEntity
  8
WALL
100
AcDbPolyline
 90
4
 70
1
 10
1533.75
 20
1436.25
 10
1541.25
 20
1436.25
 10
1541.25
 20
1374.375
 10
1533.75
 20
1374.375
  0
HATCH
  5
202
330
17
100
AcDbEntity
  8
WALL
100
AcDbHatch
 10
0.0
 20
0.0
 30
0.0
210
0.0
220
0.0
230
1.0
  2
SOLID
 70
1
 71
0
 91
1
 92
3
 72
0
 73
1
 93
4
 10
1533.75
 20
1436.25
 10
1541.25
 20
1436.25
 10
1541.25
 20
1374.375
 10
1533.75
 20
1374.375
 97
0
 75
1
 76
1
 98
0
  0
LWPOLYLINE
  5
203
330
17
100
AcDbEntity
  8
WALL
100
AcDbPolyline
 90
4
 70
1
 10
2103.75
 20
1434.375
 10
2107.5
 20
1434.375
 10
2107.5
 20
1393.125
 10
2103.75
 20
1393.125
  0
HATCH
  5
204
330
17
100
AcDbEntity
  8
WALL
100
AcDbHatch
 10
0.0
 20
0.0
 30
0.0
210
0.0
220
0.0
230
1.0
  2
SOLID
 70
1
 71
0
 91
1
 92
3
 72
0
 73
1
 93
4
 10
2103.75
 20
1434.375
 10
2107.5
 20
1434.375
 10
2107.5
 20
1393.125
 10
2103.75
 20
1393.125
 97
0
 75
1
 76
1
 98
0
  0
LWPOLYLINE
  5
205
330
17
100
AcDbEntity
  8
WALL
100
AcDbPolyline
 90
4
 70
1
 10
2111.25
 20
1428.75
 10
2122.5
 20
1428.75
 10
2122.5
 20
1385.625
 10
2111.25
 20
1385.625
  0
HATCH
  5
206
330
17
100
AcDbEntity
  8
WALL
100
AcDbHatch
 10
0.0
 20
0.0
 30
0.0
210
0.0
220
0.0
230
1.0
  2
SOLID
 70
1
 71
0
 91
1
 92
3
 72
0
 73
1
 93
4
 10
2111.25
 20
1428.75
 10
2122.5
 20
1428.75
 10
2122.5
 20
1385.625
 10
2111.25
 20
1385.625
 97
0
 75
1
 76
1
 98
0
  0
LWPOLYLINE
  5
207
330
17
100
AcDbEntity
  8
WALL
100
AcDbPolyline
 90
4
 70
1
 10
2148.75
 20
1425.0
 10
2156.25
 20
1425.0
 10
2156.25
 20
1383.75
 10
2148.75
 20
1383.75
  0
HATCH
  5
208
330
17
100
AcDbEntity
  8
WALL
100
AcDbHatch
 10
0.0
 20
0.0
 30
0.0
210
0.0
220
0.0
230
1.0
  2
SOLID
 70
1
 71
0
 91
1
 92
3
 72
0
 73
1
 93
4
 10
2148.75
 20
1425.0
 10
2156.25
 20
1425.0
 10
2156.25
 20
1383.75
 10
2148.75
 20
1383.75
 97
0
 75
1
 76
1
 98
0
  0
LWPOLYLINE
  5
209
330
17
100
AcDbEntity
  8
WALL
100
AcDbPolyline
 90
4
 70
1
 10
1556.25
 20
1395.0
 10
1567.5
 20
1395.0
 10
1567.5
 20
1280.625
 10
1556.25
 20
1280.625
  0
HATCH
  5
20A
330
17
100
AcDbEntity
  8
WALL
100
AcDbHatch
 10
0.0
 20
0.0
 30
0.0
210
0.0
220
0.0
230
1.0
  2
SOLID
 70
1
 71
0
 91
1
 92
3
 72
0
 73
1
 93
4
 10
1556.25
 20
1395.0
 10
1567.5
 20
1395.0
 10
1567.5
 20
1280.625
 10
1556.25
 20
1280.625
 97
0
 75
1
 76
1
 98
0
  0
LWPOLYLINE
  5
20B
330
17
100
AcDbEntity
  8
WALL
100
AcDbPolyline
 90
4
 70
1
 10
1818.75
 20
1374.375
 10
1837.5
 20
1374.375
 10
1837.5
 20
1321.875
 10
1818.75
 20
1321.875
  0
HATCH
  5
20C
330
17
100
AcDbEntity
  8
WALL
100
AcDbHatch
 10
0.0
 20
0.0
 30
0.0
210
0.0
220
0.0
230
1.0
  2
SOLID
 70
1
 71
0
 91
1
 92
3
 72
0
 73
1
 93
4
 10
1818.75
 20
1374.375
 10
1837.5
 20
1374.375
 10
1837.5
 20
1321.875
 10
1818.75
 20
1321.875
 97
0
 75
1
 76
1
 98
0
  0
LWPOLYLINE
  5
20D
330
17
100
AcDbEntity
  8
WALL
100
AcDbPolyline
 90
4
 70
1
 10
1132.5
 20
1361.25
 10
1155.0
 20
1361.25
 10
1155.0
 20
1278.75
 10
1132.5
 20
1278.75
  0
HATCH
  5
20E
330
17
100
AcDbEntity
  8
WALL
100
AcDbHatch
 10
0.0
 20
0.0
 30
0.0
210
0.0
220
0.0
230
1.0
  2
SOLID
 70
1
 71
0
 91
1
 92
3
 72
0
 73
1
 93
4
 10
1132.5
 20
1361.25
 10
1155.0
 20
1361.25
 10
1155.0
 20
1278.75
 10
1132.5
 20
1278.75
 97
0
 75
1
 76
1
 98
0
  0
LWPOLYLINE
  5
20F
330
17
100
AcDbEntity
  8
WALL
100
AcDbPolyline
 90
4
 70
1
 10
1800.0
 20
1348.125
 10
1807.5
 20
1348.125
 10
1807.5
 20
1306.875
 10
1800.0
 20
1306.875
  0
HATCH
  5
210
330
17
100
AcDbEntity
  8
WALL
100
AcDbHatch
 10
0.0
 20
0.0
 30
0.0
210
0.0
220
0.0
230
1.0
  2
SOLID
 70
1
 71
0
 91
1
 92
3
 72
0
 73
1
 93
4
 10
1800.0
 20
1348.125
 10
1807.5
 20
1348.125
 10
1807.5
 20
1306.875
 10
1800.0
 20
1306.875
 97
0
 75
1
 76
1
 98
0
  0
LWPOLYLINE
  5
211
330
17
100
AcDbEntity
  8
WALL
100
AcDbPolyline
 90
4
 70
1
 10
1503.75
 20
1316.25
 10
1507.5
 20
1316.25
 10
1507.5
 20
1276.875
 10
1503.75
 20
1276.875
  0
HATCH
  5
212
330
17
100
AcDbEntity
  8
WALL
100
AcDbHatch
 10
0.0
 20
0.0
 30
0.0
210
0.0
220
0.0
230
1.0
  2
SOLID
 70
1
 71
0
 91
1
 92
3
 72
0
 73
1
 93
4
 10
1503.75
 20
1316.25
 10
1507.5
 20
1316.25
 10
1507.5
 20
1276.875
 10
1503.75
 20
1276.875
 97
0
 75
1
 76
1
 98
0
  0
LWPOLYLINE
  5
213
330
17
100
AcDbEntity
  8
WALL
100
AcDbPolyline
 90
4
 70
1
 10
1533.75
 20
1316.25
 10
1537.5
 20
1316.25
 10
1537.5
 20
1276.875
 10
1533.75
 20
1276.875
  0
HATCH
  5
214
330
17
100
AcDbEntity
  8
WALL
100
AcDbHatch
 10
0.0
 20
0.0
 30
0.0
210
0.0
220
0.0
230
1.0
  2
SOLID
 70
1
 71
0
 91
1
 92
3
 72
0
 73
1
 93
4
 10
1533.75
 20
1316.25
 10
1537.5
 20
1316.25
 10
1537.5
 20
1276.875
 10
1533.75
 20
1276.875
 97
0
 75
1
 76
1
 98
0
  0
LWPOLYLINE
  5
215
330
17
100
AcDbEntity
  8
WALL
100
AcDbPolyline
 90
4
 70
1
 10
2591.25
 20
1306.875
 10
2606.25
 20
1306.875
 10
2606.25
 20
1228.125
 10
2591.25
 20
1228.125
  0
HATCH
  5
216
330
17
100
AcDbEntity
  8
WALL
100
AcDbHatch
 10
0.0
 20
0.0
 30
0.0
210
0.0
220
0.0
230
1.0
  2
SOLID
 70
1
 71
0
 91
1
 92
3
 72
0
 73
1
 93
4
 10
2591.25
 20
1306.875
 10
2606.25
 20
1306.875
 10
2606.25
 20
1228.125
 10
2591.25
 20
1228.125
 97
0
 75
1
 76
1
 98
0
  0
LWPOLYLINE
  5
217
330
17
100
AcDbEntity
  8
WALL
100
AcDbPolyline
 90
4
 70
1
 10
1995.0
 20
1305.0
 10
2006.25
 20
1305.0
 10
2006.25
 20
1230.0
 10
1995.0
 20
1230.0
  0
HATCH
  5
218
330
17
100
AcDbEntity
  8
WALL
100
AcDbHatch
 10
0.0
 20
0.0
 30
0.0
210
0.0
220
0.0
230
1.0
  2
SOLID
 70
1
 71
0
 91
1
 92
3
 72
0
 73
1
 93
4
 10
1995.0
 20
1305.0
 10
2006.25
 20
1305.0
 10
2006.25
 20
1230.0
 10
1995.0
 20
1230.0
 97
0
 75
1
 76
1
 98
0
  0
LWPOLYLINE
  5
219
330
17
100
AcDbEntity
  8
WALL
100
AcDbPolyline
 90
4
 70
1
 10
427.5
 20
1286.25
 10
457.5
 20
1286.25
 10
457.5
 20
855.0
 10
427.5
 20
855.0
  0
HATCH
  5
21A
330
17
100
AcDbEntity
  8
WALL
100
AcDbHatch
 10
0.0
 20
0.0
 30
0.0
210
0.0
220
0.0
230
1.0
  2
SOLID
 70
1
 71
0
 91
1
 92
3
 72
0
 73
1
 93
4
 10
427.5
 20
1286.25
 10
457.5
 20
1286.25
 10
457.5
 20
855.0
 10
427.5
 20
855.0
 97
0
 75
1
 76
1
 98
0
  0
LWPOLYLINE
  5
21B
330
17
100
AcDbEntity
  8
WALL
100
AcDbPolyline
 90
4
 70
1
 10
600.0
 20
1275.0
 10
611.25
 20
1275.0
 10
611.25
 20
1185.0
 10
600.0
 20
1185.0
  0
HATCH
  5
21C
330
17
100
AcDbEntity
  8
WALL
100
AcDbHatch
 10
0.0
 20
0.0
 30
0.0
210
0.0
220
0.0
230
1.0
  2
SOLID
 70
1
 71
0
 91
1
 92
3
 72
0
 73
1
 93
4
 10
600.0
 20
1275.0
 10
611.25
 20
1275.0
 10
611.25
 20
1185.0
 10
600.0
 20
1185.0
 97
0
 75
1
 76
1
 98
0
  0
LWPOLYLINE
  5
21D
330
17
100
AcDbEntity
  8
WALL
100
AcDbPolyline
 90
4
 70
1
 10
1995.0
 20
1196.25
 10
2010.0
 20
1196.25
 10
2010.0
 20
1106.25
 10
1995.0
 20
1106.25
  0
HATCH
  5
21E
330
17
100
AcDbEntity
  8
WALL
100
AcDbHatch
 10
0.0
 20
0.0
 30
0.0
210
0.0
220
0.0
230
1.0
  2
SOLID
 70
1
 71
0
 91
1
 92
3
 72
0
 73
1
 93
4
 10
1995.0
 20
1196.25
 10
2010.0
 20
1196.25
 10
2010.0
 20
1106.25
 10
1995.0
 20
1106.25
 97
0
 75
1
 76
1
 98
0
  0
LWPOLYLINE
  5
21F
330
17
100
AcDbEntity
  8
WALL
100
AcDbPolyline
 90
4
 70
1
 10
1143.75
 20
1162.5
 10
1151.25
 20
1162.5
 10
1151.25
 20
1119.375
 10
1143.75
 20
1119.375
  0
HATCH
  5
220
330
17
100
AcDbEntity
  8
WALL
100
AcDbHatch
 10
0.0
 20
0.0
 30
0.0
210
0.0
220
0.0
230
1.0
  2
SOLID
 70
1
 71
0
 91
1
 92
3
 72
0
 73
1
 93
4
 10
1143.75
 20
1162.5
 10
1151.25
 20
1162.5
 10
1151.25
 20
1119.375
 10
1143.75
 20
1119.375
 97
0
 75
1
 76
1
 98
0
  0
LWPOLYLINE
  5
221
330
17
100
AcDbEntity
  8
WALL
100
AcDbPolyline
 90
4
 70
1
 10
1188.75
 20
1162.5
 10
1207.5
 20
1162.5
 10
1207.5
 20
1087.5
 10
1188.75
 20
1087.5
  0
HATCH
  5
222
330
17
100
AcDbEntity
  8
WALL
100
AcDbHatch
 10
0.0
 20
0.0
 30
0.0
210
0.0
220
0.0
230
1.0
  2
SOLID
 70
1
 71
0
 91
1
 92
3
 72
0
 73
1
 93
4
 10
1188.75
 20
1162.5
 10
1207.5
 20
1162.5
 10
1207.5
 20
1087.5
 10
1188.75
 20
1087.5
 97
0
 75
1
 76
1
 98
0
  0
LWPOLYLINE
  5
223
330
17
100
AcDbEntity
  8
WALL
100
AcDbPolyline
 90
4
 70
1
 10
1252.5
 20
1162.5
 10
1256.25
 20
1162.5
 10
1256.25
 20
1123.125
 10
1252.5
 20
1123.125
  0
HATCH
  5
224
330
17
100
AcDbEntity
  8
WALL
100
AcDbHatch
 10
0.0
 20
0.0
 30
0.0
210
0.0
220
0.0
230
1.0
  2
SOLID
 70
1
 71
0
 91
1
 92
3
 72
0
 73
1
 93
4
 10
1252.5
 20
1162.5
 10
1256.25
 20
1162.5
 10
1256.25
 20
1123.125
 10
1252.5
 20
1123.125
 97
0
 75
1
 76
1
 98
0
  0
LWPOLYLINE
  5
225
330
17
100
AcDbEntity
  8
WALL
100
AcDbPolyline
 90
4
 70
1
 10
1293.75
 20
1162.5
 10
1297.5
 20
1162.5
 10
1297.5
 20
1119.375
 10
1293.75
 20
1119.375
  0
HATCH
  5
226
330
17
100
AcDbEntity
  8
WALL
100
AcDbHatch
 10
0.0
 20
0.0
 30
0.0
210
0.0
220
0.0
230
1.0
  2
SOLID
 70
1
 71
0
 91
1
 92
3
 72
0
 73
1
 93
4
 10
1293.75
 20
1162.5
 10
1297.5
 20
1162.5
 10
1297.5
 20
1119.375
 10
1293.75
 20
1119.375
 97
0
 75
1
 76
1
 98
0
  0
LWPOLYLINE
  5
227
330
17
100
AcDbEntity
  8
WALL
100
AcDbPolyline
 90
4
 70
1
 10
1320.0
 20
1162.5
 10
1353.75
 20
1162.5
 10
1353.75
 20
1087.5
 10
1320.0
 20
1087.5
  0
HATCH
  5
228
330
17
100
AcDbEntity
  8
WALL
100
AcDbHatch
 10
0.0
 20
0.0
 30
0.0
210
0.0
220
0.0
230
1.0
  2
SOLID
 70
1
 71
0
 91
1
 92
3
 72
0
 73
1
 93
4
 10
1320.0
 20
1162.5
 10
1353.75
 20
1162.5
 10
1353.75
 20
1087.5
 10
1320.0
 20
1087.5
 97
0
 75
1
 76
1
 98
0
  0
LWPOLYLINE
  5
229
330
17
100
AcDbEntity
  8
WALL
100
AcDbPolyline
 90
4
 70
1
 10
997.5
 20
1158.75
 10
1001.25
 20
1158.75
 10
1001.25
 20
1117.5
 10
997.5
 20
1117.5
  0
HATCH
  5
22A
330
17
100
AcDbEntity
  8
WALL
100
AcDbHatch
 10
0.0
 20
0.0
 30
0.0
210
0.0
220
0.0
230
1.0
  2
SOLID
 70
1
 71
0
 91
1
 92
3
 72
0
 73
1
 93
4
 10
997.5
 20
1158.75
 10
1001.25
 20
1158.75
 10
1001.25
 20
1117.5
 10
997.5
 20
1117.5
 97
0
 75
1
 76
1
 98
0
  0
LWPOLYLINE
  5
22B
330
17
100
AcDbEntity
  8
WALL
100
AcDbPolyline
 90
4
 70
1
 10
1211.25
 20
1158.75
 10
1226.25
 20
1158.75
 10
1226.25
 20
1087.5
 10
1211.25
 20
1087.5
  0
HATCH
  5
22C
330
17
100
AcDbEntity
  8
WALL
100
AcDbHatch
 10
0.0
 20
0.0
 30
0.0
210
0.0
220
0.0
230
1.0
  2
SOLID
 70
1
 71
0
 91
1
 92
3
 72
0
 73
1
 93
4
 10
1211.25
 20
1158.75
 10
1226.25
 20
1158.75
 10
1226.25
 20
1087.5
 10
1211.25
 20
1087.5
 97
0
 75
1
 76
1
 98
0
  0
LWPOLYLINE
  5
22D
330
17
100
AcDbEntity
  8
WALL
100
AcDbPolyline
 90
4
 70
1
 10
1368.75
 20
1089.375
 10
1395.0
 20
1089.375
 10
1395.0
 20
881.25
 10
1368.75
 20
881.25
  0
HATCH
  5
22E
330
17
100
AcDbEntity
  8
WALL
100
AcDbHatch
 10
0.0
 20
0.0
 30
0.0
210
0.0
220
0.0
230
1.0
  2
SOLID
 70
1
 71
0
 91
1
 92
3
 72
0
 73
1
 93
4
 10
1368.75
 20
1089.375
 10
1395.0
 20
1089.375
 10
1395.0
 20
881.25
 10
1368.75
 20
881.25
 97
0
 75
1
 76
1
 98
0
  0
LWPOLYLINE
  5
22F
330
17
100
AcDbEntity
  8
WALL
100
AcDbPolyline
 90
4
 70
1
 10
2550.0
 20
1021.875
 10
2565.0
 20
1021.875
 10
2565.0
 20
905.625
 10
2550.0
 20
905.625
  0
HATCH
  5
230
330
17
100
AcDbEntity
  8
WALL
100
AcDbHatch
 10
0.0
 20
0.0
 30
0.0
210
0.0
220
0.0
230
1.0
  2
SOLID
 70
1
 71
0
 91
1
 92
3
 72
0
 73
1
 93
4
 10
2550.0
 20
1021.875
 10
2565.0
 20
1021.875
 10
2565.0
 20
905.625
 10
2550.0
 20
905.625
 97
0
 75
1
 76
1
 98
0
  0
LWPOLYLINE
  5
231
330
17
100
AcDbEntity
  8
WALL
100
AcDbPolyline
 90
4
 70
1
 10
2572.5
 20
1023.75
 10
2591.25
 20
1023.75
 10
2591.25
 20
886.875
 10
2572.5
 20
886.875
  0
HATCH
  5
232
330
17
100
AcDbEntity
  8
WALL
100
AcDbHatch
 10
0.0
 20
0.0
 30
0.0
210
0.0
220
0.0
230
1.0
  2
SOLID
 70
1
 71
0
 91
1
 92
3
 72
0
 73
1
 93
4
 10
2572.5
 20
1023.75
 10
2591.25
 20
1023.75
 10
2591.25
 20
886.875
 10
2572.5
 20
886.875
 97
0
 75
1
 76
1
 98
0
  0
LWPOLYLINE
  5
233
330
17
100
AcDbEntity
  8
WALL
100
AcDbPolyline
 90
4
 70
1
 10
1263.75
 20
1014.375
 10
1271.25
 20
1014.375
 10
1271.25
 20
973.125
 10
1263.75
 20
973.125
  0
HATCH
  5
234
330
17
100
AcDbEntity
  8
WALL
100
AcDbHatch
 10
0.0
 20
0.0
 30
0.0
210
0.0
220
0.0
230
1.0
  2
SOLID
 70
1
 71
0
 91
1
 92
3
 72
0
 73
1
 93
4
 10
1263.75
 20
1014.375
 10
1271.25
 20
1014.375
 10
1271.25
 20
973.125
 10
1263.75
 20
973.125
 97
0
 75
1
 76
1
 98
0
  0
LWPOLYLINE
  5
235
330
17
100
AcDbEntity
  8
WALL
100
AcDbPolyline
 90
4
 70
1
 10
971.25
 20
971.25
 10
978.75
 20
971.25
 10
978.75
 20
930.0
 10
971.25
 20
930.0
  0
HATCH
  5
236
330
17
100
AcDbEntity
  8
WALL
100
AcDbHatch
 10
0.0
 20
0.0
 30
0.0
210
0.0
220
0.0
230
1.0
  2
SOLID
 70
1
 71
0
 91
1
 92
3
 72
0
 73
1
 93
4
 10
971.25
 20
971.25
 10
978.75
 20
971.25
 10
978.75
 20
930.0
 10
971.25
 20
930.0
 97
0
 75
1
 76
1
 98
0
  0
LWPOLYLINE
  5
237
330
17
100
AcDbEntity
  8
WALL
100
AcDbPolyline
 90
4
 70
1
 10
2373.75
 20
943.125
 10
2385.0
 20
943.125
 10
2385.0
 20
871.875
 10
2373.75
 20
871.875
  0
HATCH
  5
238
330
17
100
AcDbEntity
  8
WALL
100
AcDbHatch
 10
0.0
 20
0.0
 30
0.0
210
0.0
220
0.0
230
1.0
  2
SOLID
 70
1
 71
0
 91
1
 92
3
 72
0
 73
1
 93
4
 10
2373.75
 20
943.125
 10
2385.0
 20
943.125
 10
2385.0
 20
871.875
 10
2373.75
 20
871.875
 97
0
 75
1
 76
1
 98
0
  0
LWPOLYLINE
  5
239
330
17
100
AcDbEntity
  8
WALL
100
AcDbPolyline
 90
4
 70
1
 10
2347.5
 20
935.625
 10
2351.25
 20
935.625
 10
2351.25
 20
894.375
 10
2347.5
 20
894.375
  0
HATCH
  5
23A
330
17
100
AcDbEntity
  8
WALL
100
AcDbHatch
 10
0.0
 20
0.0
 30
0.0
210
0.0
220
0.0
230
1.0
  2
SOLID
 70
1
 71
0
 91
1
 92
3
 72
0
 73
1
 93
4
 10
2347.5
 20
935.625
 10
2351.25
 20
935.625
 10
2351.25
 20
894.375
 10
2347.5
 20
894.375
 97
0
 75
1
 76
1
 98
0
  0
LWPOLYLINE
  5
23B
330
17
100
AcDbEntity
  8
WALL
100
AcDbPolyline
 90
4
 70
1
 10
2415.0
 20
931.875
 10
2418.75
 20
931.875
 10
2418.75
 20
862.5
 10
2415.0
 20
862.5
  0
HATCH
  5
23C
330
17
100
AcDbEntity
  8
WALL
100
AcDbHatch
 10
0.0
 20
0.0
 30
0.0
210
0.0
220
0.0
230
1.0
  2
SOLID
 70
1
 71
0
 91
1
 92
3
 72
0
 73
1
 93
4
 10
2415.0
 20
931.875
 10
2418.75
 20
931.875
 10
2418.75
 20
862.5
 10
2415.0
 20
862.5
 97
0
 75
1
 76
1
 98
0
  0
LWPOLYLINE
  5
23D
330
17
100
AcDbEntity
  8
WALL
100
AcDbPolyline
 90
4
 70
1
 10
1023.75
 20
924.375
 10
1031.25
 20
924.375
 10
1031.25
 20
879.375
 10
1023.75
 20
879.375
  0
HATCH
  5
23E
330
17
100
AcDbEntity
  8
WALL
100
AcDbHatch
 10
0.0
 20
0.0
 30
0.0
210
0.0
220
0.0
230
1.0
  2
SOLID
 70
1
 71
0
 91
1
 92
3
 72
0
 73
1
 93
4
 10
1023.75
 20
924.375
 10
1031.25
 20
924.375
 10
1031.25
 20
879.375
 10
1023.75
 20
879.375
 97
0
 75
1
 76
1
 98
0
  0
LWPOLYLINE
  5
23F
330
17
100
AcDbEntity
  8
WALL
100
AcDbPolyline
 90
4
 70
1
 10
1211.25
 20
911.25
 10
1241.25
 20
911.25
 10
1241.25
 20
819.375
 10
1211.25
 20
819.375
  0
HATCH
  5
240
330
17
100
AcDbEntity
  8
WALL
100
AcDbHatch
 10
0.0
 20
0.0
 30
0.0
210
0.0
220
0.0
230
1.0
  2
SOLID
 70
1
 71
0
 91
1
 92
3
 72
0
 73
1
 93
4
 10
1211.25
 20
911.25
 10
1241.25
 20
911.25
 10
1241.25
 20
819.375
 10
1211.25
 20
819.375
 97
0
 75
1
 76
1
 98
0
  0
LWPOLYLINE
  5
241
330
17
100
AcDbEntity
  8
WALL
100
AcDbPolyline
 90
4
 70
1
 10
1196.25
 20
905.625
 10
1207.5
 20
905.625
 10
1207.5
 20
811.875
 10
1196.25
 20
811.875
  0
HATCH
  5
242
330
17
100
AcDbEntity
  8
WALL
100
AcDbHatch
 10
0.0
 20
0.0
 30
0.0
210
0.0
220
0.0
230
1.0
  2
SOLID
 70
1
 71
0
 91
1
 92
3
 72
0
 73
1
 93
4
 10
1196.25
 20
905.625
 10
1207.5
 20
905.625
 10
1207.5
 20
811.875
 10
1196.25
 20
811.875
 97
0
 75
1
 76
1
 98
0
  0
LWPOLYLINE
  5
243
330
17
100
AcDbEntity
  8
WALL
100
AcDbPolyline
 90
4
 70
1
 10
1747.5
 20
877.5
 10
1766.25
 20
877.5
 10
1766.25
 20
714.375
 10
1747.5
 20
714.375
  0
HATCH
  5
244
330
17
100
AcDbEntity
  8
WALL
100
AcDbHatch
 10
0.0
 20
0.0
 30
0.0
210
0.0
220
0.0
230
1.0
  2
SOLID
 70
1
 71
0
 91
1
 92
3
 72
0
 73
1
 93
4
 10
1747.5
 20
877.5
 10
1766.25
 20
877.5
 10
1766.25
 20
714.375
 10
1747.5
 20
714.375
 97
0
 75
1
 76
1
 98
0
  0
LWPOLYLINE
  5
245
330
17
100
AcDbEntity
  8
WALL
100
AcDbPolyline
 90
4
 70
1
 10
2291.25
 20
862.5
 10
2325.0
 20
862.5
 10
2325.0
 20
772.5
 10
2291.25
 20
772.5
  0
HATCH
  5
246
330
17
100
AcDbEntity
  8
WALL
100
AcDbHatch
 10
0.0
 20
0.0
 30
0.0
210
0.0
220
0.0
230
1.0
  2
SOLID
 70
1
 71
0
 91
1
 92
3
 72
0
 73
1
 93
4
 10
2291.25
 20
862.5
 10
2325.0
 20
862.5
 10
2325.0
 20
772.5
 10
2291.25
 20
772.5
 97
0
 75
1
 76
1
 98
0
  0
LWPOLYLINE
  5
247
330
17
100
AcDbEntity
  8
WALL
100
AcDbPolyline
 90
4
 70
1
 10
2478.75
 20
853.125
 10
2490.0
 20
853.125
 10
2490.0
 20
776.25
 10
2478.75
 20
776.25
  0
HATCH
  5
248
330
17
100
AcDbEntity
  8
WALL
100
AcDbHatch
 10
0.0
 20
0.0
 30
0.0
210
0.0
220
0.0
230
1.0
  2
SOLID
 70
1
 71
0
 91
1
 92
3
 72
0
 73
1
 93
4
 10
2478.75
 20
853.125
 10
2490.0
 20
853.125
 10
2490.0
 20
776.25
 10
2478.75
 20
776.25
 97
0
 75
1
 76
1
 98
0
  0
LWPOLYLINE
  5
249
330
17
100
AcDbEntity
  8
WALL
100
AcDbPolyline
 90
4
 70
1
 10
2250.0
 20
845.625
 10
2261.25
 20
845.625
 10
2261.25
 20
766.875
 10
2250.0
 20
766.875
  0
HATCH
  5
24A
330
17
100
AcDbEntity
  8
WALL
100
AcDbHatch
 10
0.0
 20
0.0
 30
0.0
210
0.0
220
0.0
230
1.0
  2
SOLID
 70
1
 71
0
 91
1
 92
3
 72
0
 73
1
 93
4
 10
2250.0
 20
845.625
 10
2261.25
 20
845.625
 10
2261.25
 20
766.875
 10
2250.0
 20
766.875
 97
0
 75
1
 76
1
 98
0
  0
LWPOLYLINE
  5
24B
330
17
100
AcDbEntity
  8
WALL
100
AcDbPolyline
 90
4
 70
1
 10
2448.75
 20
840.0
 10
2460.0
 20
840.0
 10
2460.0
 20
798.75
 10
2448.75
 20
798.75
  0
HATCH
  5
24C
330
17
100
AcDbEntity
  8
WALL
100
AcDbHatch
 10
0.0
 20
0.0
 30
0.0
210
0.0
220
0.0
230
1.0
  2
SOLID
 70
1
 71
0
 91
1
 92
3
 72
0
 73
1
 93
4
 10
2448.75
 20
840.0
 10
2460.0
 20
840.0
 10
2460.0
 20
798.75
 10
2448.75
 20
798.75
 97
0
 75
1
 76
1
 98
0
  0
LWPOLYLINE
  5
24D
330
17
100
AcDbEntity
  8
WALL
100
AcDbPolyline
 90
4
 70
1
 10
1777.5
 20
830.625
 10
1792.5
 20
830.625
 10
1792.5
 20
753.75
 10
1777.5
 20
753.75
  0
HATCH
  5
24E
330
17
100
AcDbEntity
  8
WALL
100
AcDbHatch
 10
0.0
 20
0.0
 30
0.0
210
0.0
220
0.0
230
1.0
  2
SOLID
 70
1
 71
0
 91
1
 92
3
 72
0
 73
1
 93
4
 10
1777.5
 20
830.625
 10
1792.5
 20
830.625
 10
1792.5
 20
753.75
 10
1777.5
 20
753.75
 97
0
 75
1
 76
1
 98
0
  0
LWPOLYLINE
  5
24F
330
17
100
AcDbEntity
  8
WALL
100
AcDbPolyline
 90
4
 70
1
 10
1916.25
 20
830.625
 10
1935.0
 20
830.625
 10
1935.0
 20
740.625
 10
1916.25
 20
740.625
  0
HATCH
  5
250
330
17
100
AcDbEntity
  8
WALL
100
AcDbHatch
 10
0.0
 20
0.0
 30
0.0
210
0.0
220
0.0
230
1.0
  2
SOLID
 70
1
 71
0
 91
1
 92
3
 72
0
 73
1
 93
4
 10
1916.25
 20
830.625
 10
1935.0
 20
830.625
 10
1935.0
 20
740.625
 10
1916.25
 20
740.625
 97
0
 75
1
 76
1
 98
0
  0
LWPOLYLINE
  5
251
330
17
100
AcDbEntity
  8
WALL
100
AcDbPolyline
 90
4
 70
1
 10
2550.0
 20
793.125
 10
2568.75
 20
793.125
 10
2568.75
 20
710.625
 10
2550.0
 20
710.625
  0
HATCH
  5
252
330
17
100
AcDbEntity
  8
WALL
100
AcDbHatch
 10
0.0
 20
0.0
 30
0.0
210
0.0
220
0.0
230
1.0
  2
SOLID
 70
1
 71
0
 91
1
 92
3
 72
0
 73
1
 93
4
 10
2550.0
 20
793.125
 10
2568.75
 20
793.125
 10
2568.75
 20
710.625
 10
2550.0
 20
710.625
 97
0
 75
1
 76
1
 98
0
  0
LWPOLYLINE
  5
253
330
17
100
AcDbEntity
  8
WALL
100
AcDbPolyline
 90
4
 70
1
 10
2520.0
 20
789.375
 10
2523.75
 20
789.375
 10
2523.75
 20
744.375
 10
2520.0
 20
744.375
  0
HATCH
  5
254
330
17
100
AcDbEntity
  8
WALL
100
AcDbHatch
 10
0.0
 20
0.0
 30
0.0
210
0.0
220
0.0
230
1.0
  2
SOLID
 70
1
 71
0
 91
1
 92
3
 72
0
 73
1
 93
4
 10
2520.0
 20
789.375
 10
2523.75
 20
789.375
 10
2523.75
 20
744.375
 10
2520.0
 20
744.375
 97
0
 75
1
 76
1
 98
0
  0
LWPOLYLINE
  5
255
330
17
100
AcDbEntity
  8
WALL
100
AcDbPolyline
 90
4
 70
1
 10
2572.5
 20
778.125
 10
2587.5
 20
778.125
 10
2587.5
 20
684.375
 10
2572.5
 20
684.375
  0
HATCH
  5
256
330
17
100
AcDbEntity
  8
WALL
100
AcDbHatch
 10
0.0
 20
0.0
 30
0.0
210
0.0
220
0.0
230
1.0
  2
SOLID
 70
1
 71
0
 91
1
 92
3
 72
0
 73
1
 93
4
 10
2572.5
 20
778.125
 10
2587.5
 20
778.125
 10
2587.5
 20
684.375
 10
2572.5
 20
684.375
 97
0
 75
1
 76
1
 98
0
  0
LWPOLYLINE
  5
257
330
17
100
AcDbEntity
  8
WALL
100
AcDbPolyline
 90
4
 70
1
 10
1803.75
 20
766.875
 10
1811.25
 20
766.875
 10
1811.25
 20
727.5
 10
1803.75
 20
727.5
  0
HATCH
  5
258
330
17
100
AcDbEntity
  8
WALL
100
AcDbHatch
 10
0.0
 20
0.0
 30
0.0
210
0.0
220
0.0
230
1.0
  2
SOLID
 70
1
 71
0
 91
1
 92
3
 72
0
 73
1
 93
4
 10
1803.75
 20
766.875
 10
1811.25
 20
766.875
 10
1811.25
 20
727.5
 10
1803.75
 20
727.5
 97
0
 75
1
 76
1
 98
0
  0
LWPOLYLINE
  5
259
330
17
100
AcDbEntity
  8
WALL
100
AcDbPolyline
 90
4
 70
1
 10
1803.75
 20
706.875
 10
1807.5
 20
706.875
 10
1807.5
 20
667.5
 10
1803.75
 20
667.5
  0
HATCH
  5
25A
330
17
100
AcDbEntity
  8
WALL
100
AcDbHatch
 10
0.0
 20
0.0
 30
0.0
210
0.0
220
0.0
230
1.0
  2
SOLID
 70
1
 71
0
 91
1
 92
3
 72
0
 73
1
 93
4
 10
1803.75
 20
706.875
 10
1807.5
 20
706.875
 10
1807.5
 20
667.5
 10
1803.75
 20
667.5
 97
0
 75
1
 76
1
 98
0
  0
LWPOLYLINE
  5
25B
330
17
100
AcDbEntity
  8
WALL
100
AcDbPolyline
 90
4
 70
1
 10
45.0
 20
703.125
 10
48.75
 20
703.125
 10
48.75
 20
661.875
 10
45.0
 20
661.875
  0
HATCH
  5
25C
330
17
100
AcDbEntity
  8
WALL
100
AcDbHatch
 10
0.0
 20
0.0
 30
0.0
210
0.0
220
0.0
230
1.0
  2
SOLID
 70
1
 71
0
 91
1
 92
3
 72
0
 73
1
 93
4
 10
45.0
 20
703.125
 10
48.75
 20
703.125
 10
48.75
 20
661.875
 10
45.0
 20
661.875
 97
0
 75
1
 76
1
 98
0
  0
LWPOLYLINE
  5
25D
330
17
100
AcDbEntity
  8
WALL
100
AcDbPolyline
 90
4
 70
1
 10
813.75
 20
703.125
 10
825.0
 20
703.125
 10
825.0
 20
609.375
 10
813.75
 20
609.375
  0
HATCH
  5
25E
330
17
100
AcDbEntity
  8
WALL
100
AcDbHatch
 10
0.0
 20
0.0
 30
0.0
210
0.0
220
0.0
230
1.0
  2
SOLID
 70
1
 71
0
 91
1
 92
3
 72
0
 73
1
 93
4
 10
813.75
 20
703.125
 10
825.0
 20
703.125
 10
825.0
 20
609.375
 10
813.75
 20
609.375
 97
0
 75
1
 76
1
 98
0
  0
LWPOLYLINE
  5
25F
330
17
100
AcDbEntity
  8
WALL
100
AcDbPolyline
 90
4
 70
1
 10
1856.25
 20
705.0
 10
1860.0
 20
705.0
 10
1860.0
 20
665.625
 10
1856.25
 20
665.625
  0
HATCH
  5
260
330
17
100
AcDbEntity
  8
WALL
100
AcDbHatch
 10
0.0
 20
0.0
 30
0.0
210
0.0
220
0.0
230
1.0
  2
SOLID
 70
1
 71
0
 91
1
 92
3
 72
0
 73
1
 93
4
 10
1856.25
 20
705.0
 10
1860.0
 20
705.0
 10
1860.0
 20
665.625
 10
1856.25
 20
665.625
 97
0
 75
1
 76
1
 98
0
  0
LWPOLYLINE
  5
261
330
17
100
AcDbEntity
  8
WALL
100
AcDbPolyline
 90
4
 70
1
 10
1308.75
 20
690.0
 10
1323.75
 20
690.0
 10
1323.75
 20
283.125
 10
1308.75
 20
283.125
  0
HATCH
  5
262
330
17
100
AcDbEntity
  8
WALL
100
AcDbHatch
 10
0.0
 20
0.0
 30
0.0
210
0.0
220
0.0
230
1.0
  2
SOLID
 70
1
 71
0
 91
1
 92
3
 72
0
 73
1
 93
4
 10
1308.75
 20
690.0
 10
1323.75
 20
690.0
 10
1323.75
 20
283.125
 10
1308.75
 20
283.125
 97
0
 75
1
 76
1
 98
0
  0
LWPOLYLINE
  5
263
330
17
100
AcDbEntity
  8
WALL
100
AcDbPolyline
 90
4
 70
1
 10
2583.75
 20
658.125
 10
2595.0
 20
658.125
 10
2595.0
 20
590.625
 10
2583.75
 20
590.625
  0
HATCH
  5
264
330
17
100
AcDbEntity
  8
WALL
100
AcDbHatch
 10
0.0
 20
0.0
 30
0.0
210
0.0
220
0.0
230
1.0
  2
SOLID
 70
1
 71
0
 91
1
 92
3
 72
0
 73
1
 93
4
 10
2583.75
 20
658.125
 10
2595.0
 20
658.125
 10
2595.0
 20
590.625
 10
2583.75
 20
590.625
 97
0
 75
1
 76
1
 98
0
  0
LWPOLYLINE
  5
265
330
17
100
AcDbEntity
  8
WALL
100
AcDbPolyline
 90
4
 70
1
 10
1001.25
 20
603.75
 10
1023.75
 20
603.75
 10
1023.75
 20
534.375
 10
1001.25
 20
534.375
  0
HATCH
  5
266
330
17
100
AcDbEntity
  8
WALL
100
AcDbHatch
 10
0.0
 20
0.0
 30
0.0
210
0.0
220
0.0
230
1.0
  2
SOLID
 70
1
 71
0
 91
1
 92
3
 72
0
 73
1
 93
4
 10
1001.25
 20
603.75
 10
1023.75
 20
603.75
 10
1023.75
 20
534.375
 10
1001.25
 20
534.375
 97
0
 75
1
 76
1
 98
0
  0
LWPOLYLINE
  5
267
330
17
100
AcDbEntity
  8
WALL
100
AcDbPolyline
 90
4
 70
1
 10
1980.0
 20
573.75
 10
1987.5
 20
573.75
 10
1987.5
 20
532.5
 10
1980.0
 20
532.5
  0
HATCH
  5
268
330
17
100
AcDbEntity
  8
WALL
100
AcDbHatch
 10
0.0
 20
0.0
 30
0.0
210
0.0
220
0.0
230
1.0
  2
SOLID
 70
1
 71
0
 91
1
 92
3
 72
0
 73
1
 93
4
 10
1980.0
 20
573.75
 10
1987.5
 20
573.75
 10
1987.5
 20
532.5
 10
1980.0
 20
532.5
 97
0
 75
1
 76
1
 98
0
  0
LWPOLYLINE
  5
269
330
17
100
AcDbEntity
  8
WALL
100
AcDbPolyline
 90
4
 70
1
 10
1991.25
 20
525.0
 10
2002.5
 20
525.0
 10
2002.5
 20
474.375
 10
1991.25
 20
474.375
  0
HATCH
  5
26A
330
17
100
AcDbEntity
  8
WALL
100
AcDbHatch
 10
0.0
 20
0.0
 30
0.0
210
0.0
220
0.0
230
1.0
  2
SOLID
 70
1
 71
0
 91
1
 92
3
 72
0
 73
1
 93
4
 10
1991.25
 20
525.0
 10
2002.5
 20
525.0
 10
2002.5
 20
474.375
 10
1991.25
 20
474.375
 97
0
 75
1
 76
1
 98
0
  0
LWPOLYLINE
  5
26B
330
17
100
AcDbEntity
  8
WALL
100
AcDbPolyline
 90
4
 70
1
 10
1927.5
 20
521.25
 10
1935.0
 20
521.25
 10
1935.0
 20
476.25
 10
1927.5
 20
476.25
  0
HATCH
  5
26C
330
17
100
AcDbEntity
  8
WALL
100
AcDbHatch
 10
0.0
 20
0.0
 30
0.0
210
0.0
220
0.0
230
1.0
  2
SOLID
 70
1
 71
0
 91
1
 92
3
 72
0
 73
1
 93
4
 10
1927.5
 20
521.25
 10
1935.0
 20
521.25
 10
1935.0
 20
476.25
 10
1927.5
 20
476.25
 97
0
 75
1
 76
1
 98
0
  0
LWPOLYLINE
  5
26D
330
17
100
AcDbEntity
  8
WALL
100
AcDbPolyline
 90
4
 70
1
 10
2073.75
 20
517.5
 10
2081.25
 20
517.5
 10
2081.25
 20
470.625
 10
2073.75
 20
470.625
  0
HATCH
  5
26E
330
17
100
AcDbEntity
  8
WALL
100
AcDbHatch
 10
0.0
 20
0.0
 30
0.0
210
0.0
220
0.0
230
1.0
  2
SOLID
 70
1
 71
0
 91
1
 92
3
 72
0
 73
1
 93
4
 10
2073.75
 20
517.5
 10
2081.25
 20
517.5
 10
2081.25
 20
470.625
 10
2073.75
 20
470.625
 97
0
 75
1
 76
1
 98
0
  0
LWPOLYLINE
  5
26F
330
17
100
AcDbEntity
  8
WALL
100
AcDbPolyline
 90
4
 70
1
 10
2118.75
 20
515.625
 10
2122.5
 20
515.625
 10
2122.5
 20
465.0
 10
2118.75
 20
465.0
  0
HATCH
  5
270
330
17
100
AcDbEntity
  8
WALL
100
AcDbHatch
 10
0.0
 20
0.0
 30
0.0
210
0.0
220
0.0
230
1.0
  2
SOLID
 70
1
 71
0
 91
1
 92
3
 72
0
 73
1
 93
4
 10
2118.75
 20
515.625
 10
2122.5
 20
515.625
 10
2122.5
 20
465.0
 10
2118.75
 20
465.0
 97
0
 75
1
 76
1
 98
0
  0
LWPOLYLINE
  5
271
330
17
100
AcDbEntity
  8
WALL
100
AcDbPolyline
 90
4
 70
1
 10
2088.75
 20
513.75
 10
2111.25
 20
513.75
 10
2111.25
 20
461.25
 10
2088.75
 20
461.25
  0
HATCH
  5
272
330
17
100
AcDbEntity
  8
WALL
100
AcDbHatch
 10
0.0
 20
0.0
 30
0.0
210
0.0
220
0.0
230
1.0
  2
SOLID
 70
1
 71
0
 91
1
 92
3
 72
0
 73
1
 93
4
 10
2088.75
 20
513.75
 10
2111.25
 20
513.75
 10
2111.25
 20
461.25
 10
2088.75
 20
461.25
 97
0
 75
1
 76
1
 98
0
  0
LWPOLYLINE
  5
273
330
17
100
AcDbEntity
  8
WALL
100
AcDbPolyline
 90
4
 70
1
 10
2272.5
 20
513.75
 10
2313.75
 20
513.75
 10
2313.75
 20
221.25
 10
2272.5
 20
221.25
  0
HATCH
  5
274
330
17
100
AcDbEntity
  8
WALL
100
AcDbHatch
 10
0.0
 20
0.0
 30
0.0
210
0.0
220
0.0
230
1.0
  2
SOLID
 70
1
 71
0
 91
1
 92
3
 72
0
 73
1
 93
4
 10
2272.5
 20
513.75
 10
2313.75
 20
513.75
 10
2313.75
 20
221.25
 10
2272.5
 20
221.25
 97
0
 75
1
 76
1
 98
0
  0
LWPOLYLINE
  5
275
330
17
100
AcDbEntity
  8
WALL
100
AcDbPolyline
 90
4
 70
1
 10
2137.5
 20
508.125
 10
2152.5
 20
508.125
 10
2152.5
 20
451.875
 10
2137.5
 20
451.875
  0
HATCH
  5
276
330
17
100
AcDbEntity
  8
WALL
100
AcDbHatch
 10
0.0
 20
0.0
 30
0.0
210
0.0
220
0.0
230
1.0
  2
SOLID
 70
1
 71
0
 91
1
 92
3
 72
0
 73
1
 93
4
 10
2137.5
 20
508.125
 10
2152.5
 20
508.125
 10
2152.5
 20
451.875
 10
2137.5
 20
451.875
 97
0
 75
1
 76
1
 98
0
  0
LWPOLYLINE
  5
277
330
17
100
AcDbEntity
  8
WALL
100
AcDbPolyline
 90
4
 70
1
 10
2163.75
 20
508.125
 10
2190.0
 20
508.125
 10
2190.0
 20
436.875
 10
2163.75
 20
436.875
  0
HATCH
  5
278
330
17
100
AcDbEntity
  8
WALL
100
AcDbHatch
 10
0.0
 20
0.0
 30
0.0
210
0.0
220
0.0
230
1.0
  2
SOLID
 70
1
 71
0
 91
1
 92
3
 72
0
 73
1
 93
4
 10
2163.75
 20
508.125
 10
2190.0
 20
508.125
 10
2190.0
 20
436.875
 10
2163.75
 20
436.875
 97
0
 75
1
 76
1
 98
0
  0
LWPOLYLINE
  5
279
330
17
100
AcDbEntity
  8
WALL
100
AcDbPolyline
 90
4
 70
1
 10
2058.75
 20
506.25
 10
2062.5
 20
506.25
 10
2062.5
 20
450.0
 10
2058.75
 20
450.0
  0
HATCH
  5
27A
330
17
100
AcDbEntity
  8
WALL
100
AcDbHatch
 10
0.0
 20
0.0
 30
0.0
210
0.0
220
0.0
230
1.0
  2
SOLID
 70
1
 71
0
 91
1
 92
3
 72
0
 73
1
 93
4
 10
2058.75
 20
506.25
 10
2062.5
 20
506.25
 10
2062.5
 20
450.0
 10
2058.75
 20
450.0
 97
0
 75
1
 76
1
 98
0
  0
LWPOLYLINE
  5
27B
330
17
100
AcDbEntity
  8
WALL
100
AcDbPolyline
 90
4
 70
1
 10
2126.25
 20
498.75
 10
2130.0
 20
498.75
 10
2130.0
 20
457.5
 10
2126.25
 20
457.5
  0
HATCH
  5
27C
330
17
100
AcDbEntity
  8
WALL
100
AcDbHatch
 10
0.0
 20
0.0
 30
0.0
210
0.0
220
0.0
230
1.0
  2
SOLID
 70
1
 71
0
 91
1
 92
3
 72
0
 73
1
 93
4
 10
2126.25
 20
498.75
 10
2130.0
 20
498.75
 10
2130.0
 20
457.5
 10
2126.25
 20
457.5
 97
0
 75
1
 76
1
 98
0
  0
LWPOLYLINE
  5
27D
330
17
100
AcDbEntity
  8
WALL
100
AcDbPolyline
 90
4
 70
1
 10
810.0
 20
455.625
 10
821.25
 20
455.625
 10
821.25
 20
361.875
 10
810.0
 20
361.875
  0
HATCH
  5
27E
330
17
100
AcDbEntity
  8
WALL
100
AcDbHatch
 10
0.0
 20
0.0
 30
0.0
210
0.0
220
0.0
230
1.0
  2
SOLID
 70
1
 71
0
 91
1
 92
3
 72
0
 73
1
 93
4
 10
810.0
 20
455.625
 10
821.25
 20
455.625
 10
821.25
 20
361.875
 10
810.0
 20
361.875
 97
0
 75
1
 76
1
 98
0
  0
LWPOLYLINE
  5
27F
330
17
100
AcDbEntity
  8
WALL
100
AcDbPolyline
 90
4
 70
1
 10
1725.0
 20
448.125
 10
1728.75
 20
448.125
 10
1728.75
 20
397.5
 10
1725.0
 20
397.5
  0
HATCH
  5
280
330
17
100
AcDbEntity
  8
WALL
100
AcDbHatch
 10
0.0
 20
0.0
 30
0.0
210
0.0
220
0.0
230
1.0
  2
SOLID
 70
1
 71
0
 91
1
 92
3
 72
0
 73
1
 93
4
 10
1725.0
 20
448.125
 10
1728.75
 20
448.125
 10
1728.75
 20
397.5
 10
1725.0
 20
397.5
 97
0
 75
1
 76
1
 98
0
  0
LWPOLYLINE
  5
281
330
17
100
AcDbEntity
  8
WALL
100
AcDbPolyline
 90
4
 70
1
 10
843.75
 20
435.0
 10
873.75
 20
435.0
 10
873.75
 20
217.5
 10
843.75
 20
217.5
  0
HATCH
  5
282
330
17
100
AcDbEntity
  8
WALL
100
AcDbHatch
 10
0.0
 20
0.0
 30
0.0
210
0.0
220
0.0
230
1.0
  2
SOLID
 70
1
 71
0
 91
1
 92
3
 72
0
 73
1
 93
4
 10
843.75
 20
435.0
 10
873.75
 20
435.0
 10
873.75
 20
217.5
 10
843.75
 20
217.5
 97
0
 75
1
 76
1
 98
0
  0
LWPOLYLINE
  5
283
330
17
100
AcDbEntity
  8
WALL
100
AcDbPolyline
 90
4
 70
1
 10
2212.5
 20
412.5
 10
2253.75
 20
412.5
 10
2253.75
 20
271.875
 10
2212.5
 20
271.875
  0
HATCH
  5
284
330
17
100
AcDbEntity
  8
WALL
100
AcDbHatch
 10
0.0
 20
0.0
 30
0.0
210
0.0
220
0.0
230
1.0
  2
SOLID
 70
1
 71
0
 91
1
 92
3
 72
0
 73
1
 93
4
 10
2212.5
 20
412.5
 10
2253.75
 20
412.5
 10
2253.75
 20
271.875
 10
2212.5
 20
271.875
 97
0
 75
1
 76
1
 98
0
  0
LWPOLYLINE
  5
285
330
17
100
AcDbEntity
  8
WALL
100
AcDbPolyline
 90
4
 70
1
 10
1807.5
 20
401.25
 10
1833.75
 20
401.25
 10
1833.75
 20
348.75
 10
1807.5
 20
348.75
  0
HATCH
  5
286
330
17
100
AcDbEntity
  8
WALL
100
AcDbHatch
 10
0.0
 20
0.0
 30
0.0
210
0.0
220
0.0
230
1.0
  2
SOLID
 70
1
 71
0
 91
1
 92
3
 72
0
 73
1
 93
4
 10
1807.5
 20
401.25
 10
1833.75
 20
401.25
 10
1833.75
 20
348.75
 10
1807.5
 20
348.75
 97
0
 75
1
 76
1
 98
0
  0
LWPOLYLINE
  5
287
330
17
100
AcDbEntity
  8
WALL
100
AcDbPolyline
 90
4
 70
1
 10
1241.25
 20
395.625
 10
1260.0
 20
395.625
 10
1260.0
 20
307.5
 10
1241.25
 20
307.5
  0
HATCH
  5
288
330
17
100
AcDbEntity
  8
WALL
100
AcDbHatch
 10
0.0
 20
0.0
 30
0.0
210
0.0
220
0.0
230
1.0
  2
SOLID
 70
1
 71
0
 91
1
 92
3
 72
0
 73
1
 93
4
 10
1241.25
 20
395.625
 10
1260.0
 20
395.625
 10
1260.0
 20
307.5
 10
1241.25
 20
307.5
 97
0
 75
1
 76
1
 98
0
  0
LWPOLYLINE
  5
289
330
17
100
AcDbEntity
  8
WALL
100
AcDbPolyline
 90
4
 70
1
 10
1893.75
 20
350.625
 10
1905.0
 20
350.625
 10
1905.0
 20
230.625
 10
1893.75
 20
230.625
  0
HATCH
  5
28A
330
17
100
AcDbEntity
  8
WALL
100
AcDbHatch
 10
0.0
 20
0.0
 30
0.0
210
0.0
220
0.0
230
1.0
  2
SOLID
 70
1
 71
0
 91
1
 92
3
 72
0
 73
1
 93
4
 10
1893.75
 20
350.625
 10
1905.0
 20
350.625
 10
1905.0
 20
230.625
 10
1893.75
 20
230.625
 97
0
 75
1
 76
1
 98
0
  0
LWPOLYLINE
  5
28B
330
17
100
AcDbEntity
  8
WALL
100
AcDbPolyline
 90
4
 70
1
 10
2058.75
 20
335.625
 10
2070.0
 20
335.625
 10
2070.0
 20
279.375
 10
2058.75
 20
279.375
  0
HATCH
  5
28C
330
17
100
AcDbEntity
  8
WALL
100
AcDbHatch
 10
0.0
 20
0.0
 30
0.0
210
0.0
220
0.0
230
1.0
  2
SOLID
 70
1
 71
0
 91
1
 92
3
 72
0
 73
1
 93
4
 10
2058.75
 20
335.625
 10
2070.0
 20
335.625
 10
2070.0
 20
279.375
 10
2058.75
 20
279.375
 97
0
 75
1
 76
1
 98
0
  0
LWPOLYLINE
  5
28D
330
17
100
AcDbEntity
  8
WALL
100
AcDbPolyline
 90
4
 70
1
 10
48.75
 20
313.125
 10
63.75
 20
313.125
 10
63.75
 20
249.375
 10
48.75
 20
249.375
  0
HATCH
  5
28E
330
17
100
AcDbEntity
  8
WALL
100
AcDbHatch
 10
0.0
 20
0.0
 30
0.0
210
0.0
220
0.0
230
1.0
  2
SOLID
 70
1
 71
0
 91
1
 92
3
 72
0
 73
1
 93
4
 10
48.75
 20
313.125
 10
63.75
 20
313.125
 10
63.75
 20
249.375
 10
48.75
 20
249.375
 97
0
 75
1
 76
1
 98
0
  0
LWPOLYLINE
  5
28F
330
17
100
AcDbEntity
  8
WALL
100
AcDbPolyline
 90
4
 70
1
 10
2246.25
 20
271.875
 10
2253.75
 20
271.875
 10
2253.75
 20
228.75
 10
2246.25
 20
228.75
  0
HATCH
  5
290
330
17
100
AcDbEntity
  8
WALL
100
AcDbHatch
 10
0.0
 20
0.0
 30
0.0
210
0.0
220
0.0
230
1.0
  2
SOLID
 70
1
 71
0
 91
1
 92
3
 72
0
 73
1
 93
4
 10
2246.25
 20
271.875
 10
2253.75
 20
271.875
 10
2253.75
 20
228.75
 10
2246.25
 20
228.75
 97
0
 75
1
 76
1
 98
0
  0
LWPOLYLINE
  5
291
330
17
100
AcDbEntity
  8
WALL
100
AcDbPolyline
 90
4
 70
1
 10
2163.75
 20
243.75
 10
2175.0
 20
243.75
 10
2175.0
 20
202.5
 10
2163.75
 20
202.5
  0
HATCH
  5
292
330
17
100
AcDbEntity
  8
WALL
100
AcDbHatch
 10
0.0
 20
0.0
 30
0.0
210
0.0
220
0.0
230
1.0
  2
SOLID
 70
1
 71
0
 91
1
 92
3
 72
0
 73
1
 93
4
 10
2163.75
 20
243.75
 10
2175.0
 20
243.75
 10
2175.0
 20
202.5
 10
2163.75
 20
202.5
 97
0
 75
1
 76
1
 98
0
  0
LINE
  5
293
330
17
100
AcDbEntity
  8
WINDOW
100
AcDbLine
 10
1008.75
 20
2441.25
 30
0.0
 11
1027.5
 21
2441.25
 31
0.0
  0
LINE
  5
294
330
17
100
AcDbEntity
  8
WINDOW
100
AcDbLine
 10
1008.75
 20
2433.75
 30
0.0
 11
1027.5
 21
2433.75
 31
0.0
  0
LINE
  5
295
330
17
100
AcDbEntity
  8
WINDOW
100
AcDbLine
 10
1008.75
 20
2426.25
 30
0.0
 11
1027.5
 21
2426.25
 31
0.0
  0
LINE
  5
296
330
17
100
AcDbEntity
  8
WINDOW
100
AcDbLine
 10
1008.75
 20
2418.75
 30
0.0
 11
1027.5
 21
2418.75
 31
0.0
  0
LINE
  5
297
330
17
100
AcDbEntity
  8
WINDOW
100
AcDbLine
 10
1008.75
 20
2441.25
 30
0.0
 11
1008.75
 21
2418.75
 31
0.0
  0
LINE
  5
298
330
17
100
AcDbEntity
  8
WINDOW
100
AcDbLine
 10
1027.5
 20
2441.25
 30
0.0
 11
1027.5
 21
2418.75
 31
0.0
  0
LINE
  5
299
330
17
100
AcDbEntity
  8
WINDOW
100
AcDbLine
 10
1185.0
 20
2225.625
 30
0.0
 11
1203.75
 21
2225.625
 31
0.0
  0
LINE
  5
29A
330
17
100
AcDbEntity
  8
WINDOW
100
AcDbLine
 10
1185.0
 20
2221.25
 30
0.0
 11
1203.75
 21
2221.25
 31
0.0
  0
LINE
  5
29B
330
17
100
AcDbEntity
  8
WINDOW
100
AcDbLine
 10
1185.0
 20
2216.875
 30
0.0
 11
1203.75
 21
2216.875
 31
0.0
  0
LINE
  5
29C
330
17
100
AcDbEntity
  8
WINDOW
100
AcDbLine
 10
1185.0
 20
2212.5
 30
0.0
 11
1203.75
 21
2212.5
 31
0.0
  0
LINE
  5
29D
330
17
100
AcDbEntity
  8
WINDOW
100
AcDbLine
 10
1185.0
 20
2225.625
 30
0.0
 11
1185.0
 21
2212.5
 31
0.0
  0
LINE
  5
29E
330
17
100
AcDbEntity
  8
WINDOW
100
AcDbLine
 10
1203.75
 20
2225.625
 30
0.0
 11
1203.75
 21
2212.5
 31
0.0
  0
LINE
  5
29F
330
17
100
AcDbEntity
  8
WINDOW
100
AcDbLine
 10
1248.75
 20
2225.625
 30
0.0
 11
1286.25
 21
2225.625
 31
0.0
  0
LINE
  5
2A0
330
17
100
AcDbEntity
  8
WINDOW
100
AcDbLine
 10
1248.75
 20
2221.25
 30
0.0
 11
1286.25
 21
2221.25
 31
0.0
  0
LINE
  5
2A1
330
17
100
AcDbEntity
  8
WINDOW
100
AcDbLine
 10
1248.75
 20
2216.875
 30
0.0
 11
1286.25
 21
2216.875
 31
0.0
  0
LINE
  5
2A2
330
17
100
AcDbEntity
  8
WINDOW
100
AcDbLine
 10
1248.75
 20
2212.5
 30
0.0
 11
1286.25
 21
2212.5
 31
0.0
  0
LINE
  5
2A3
330
17
100
AcDbEntity
  8
WINDOW
100
AcDbLine
 10
1248.75
 20
2225.625
 30
0.0
 11
1248.75
 21
2212.5
 31
0.0
  0
LINE
  5
2A4
330
17
100
AcDbEntity
  8
WINDOW
100
AcDbLine
 10
1286.25
 20
2225.625
 30
0.0
 11
1286.25
 21
2212.5
 31
0.0
  0
LINE
  5
2A5
330
17
100
AcDbEntity
  8
WINDOW
100
AcDbLine
 10
468.75
 20
2208.75
 30
0.0
 11
528.75
 21
2208.75
 31
0.0
  0
LINE
  5
2A6
330
17
100
AcDbEntity
  8
WINDOW
100
AcDbLine
 10
468.75
 20
2201.25
 30
0.0
 11
528.75
 21
2201.25
 31
0.0
  0
LINE
  5
2A7
330
17
100
AcDbEntity
  8
WINDOW
100
AcDbLine
 10
468.75
 20
2193.75
 30
0.0
 11
528.75
 21
2193.75
 31
0.0
  0
LINE
  5
2A8
330
17
100
AcDbEntity
  8
WINDOW
100
AcDbLine
 10
468.75
 20
2186.25
 30
0.0
 11
528.75
 21
2186.25
 31
0.0
  0
LINE
  5
2A9
330
17
100
AcDbEntity
  8
WINDOW
100
AcDbLine
 10
468.75
 20
2208.75
 30
0.0
 11
468.75
 21
2186.25
 31
0.0
  0
LINE
  5
2AA
330
17
100
AcDbEntity
  8
WINDOW
100
AcDbLine
 10
528.75
 20
2208.75
 30
0.0
 11
528.75
 21
2186.25
 31
0.0
  0
LINE
  5
2AB
330
17
100
AcDbEntity
  8
WINDOW
100
AcDbLine
 10
1515.0
 20
2201.25
 30
0.0
 11
2167.5
 21
2201.25
 31
0.0
  0
LINE
  5
2AC
330
17
100
AcDbEntity
  8
WINDOW
100
AcDbLine
 10
1515.0
 20
2191.25
 30
0.0
 11
2167.5
 21
2191.25
 31
0.0
  0
LINE
  5
2AD
330
17
100
AcDbEntity
  8
WINDOW
100
AcDbLine
 10
1515.0
 20
2181.25
 30
0.0
 11
2167.5
 21
2181.25
 31
0.0
  0
LINE
  5
2AE
330
17
100
AcDbEntity
  8
WINDOW
100
AcDbLine
 10
1515.0
 20
2171.25
 30
0.0
 11
2167.5
 21
2171.25
 31
0.0
  0
LINE
  5
2AF
330
17
100
AcDbEntity
  8
WINDOW
100
AcDbLine
 10
1515.0
 20
2201.25
 30
0.0
 11
1515.0
 21
2171.25
 31
0.0
  0
LINE
  5
2B0
330
17
100
AcDbEntity
  8
WINDOW
100
AcDbLine
 10
2167.5
 20
2201.25
 30
0.0
 11
2167.5
 21
2171.25
 31
0.0
  0
LINE
  5
2B1
330
17
100
AcDbEntity
  8
WINDOW
100
AcDbLine
 10
468.75
 20
2154.375
 30
0.0
 11
491.25
 21
2154.375
 31
0.0
  0
LINE
  5
2B2
330
17
100
AcDbEntity
  8
WINDOW
100
AcDbLine
 10
468.75
 20
2150.0
 30
0.0
 11
491.25
 21
2150.0
 31
0.0
  0
LINE
  5
2B3
330
17
100
AcDbEntity
  8
WINDOW
100
AcDbLine
 10
468.75
 20
2145.625
 30
0.0
 11
491.25
 21
2145.625
 31
0.0
  0
LINE
  5
2B4
330
17
100
AcDbEntity
  8
WINDOW
100
AcDbLine
 10
468.75
 20
2141.25
 30
0.0
 11
491.25
 21
2141.25
 31
0.0
  0
LINE
  5
2B5
330
17
100
AcDbEntity
  8
WINDOW
100
AcDbLine
 10
468.75
 20
2154.375
 30
0.0
 11
468.75
 21
2141.25
 31
0.0
  0
LINE
  5
2B6
330
17
100
AcDbEntity
  8
WINDOW
100
AcDbLine
 10
491.25
 20
2154.375
 30
0.0
 11
491.25
 21
2141.25
 31
0.0
  0
LINE
  5
2B7
330
17
100
AcDbEntity
  8
WINDOW
100
AcDbLine
 10
532.5
 20
2154.375
 30
0.0
 11
570.0
 21
2154.375
 31
0.0
  0
LINE
  5
2B8
330
17
100
AcDbEntity
  8
WINDOW
100
AcDbLine
 10
532.5
 20
2148.125
 30
0.0
 11
570.0
 21
2148.125
 31
0.0
  0
LINE
  5
2B9
330
17
100
AcDbEntity
  8
WINDOW
100
AcDbLine
 10
532.5
 20
2141.875
 30
0.0
 11
570.0
 21
2141.875
 31
0.0
  0
LINE
  5
2BA
330
17
100
AcDbEntity
  8
WINDOW
100
AcDbLine
 10
532.5
 20
2135.625
 30
0.0
 11
570.0
 21
2135.625
 31
0.0
  0
LINE
  5
2BB
330
17
100
AcDbEntity
  8
WINDOW
100
AcDbLine
 10
532.5
 20
2154.375
 30
0.0
 11
532.5
 21
2135.625
 31
0.0
  0
LINE
  5
2BC
330
17
100
AcDbEntity
  8
WINDOW
100
AcDbLine
 10
570.0
 20
2154.375
 30
0.0
 11
570.0
 21
2135.625
 31
0.0
  0
LINE
  5
2BD
330
17
100
AcDbEntity
  8
WINDOW
100
AcDbLine
 10
213.75
 20
746.25
 30
0.0
 11
333.75
 21
746.25
 31
0.0
  0
LINE
  5
2BE
330
17
100
AcDbEntity
  8
WINDOW
100
AcDbLine
 10
213.75
 20
741.8750000000001
 30
0.0
 11
333.75
 21
741.8750000000001
 31
0.0
  0
LINE
  5
2BF
330
17
100
AcDbEntity
  8
WINDOW
100
AcDbLine
 10
213.75
 20
737.4999999999999
 30
0.0
 11
333.75
 21
737.4999999999999
 31
0.0
  0
LINE
  5
2C0
330
17
100
AcDbEntity
  8
WINDOW
100
AcDbLine
 10
213.75
 20
733.125
 30
0.0
 11
333.75
 21
733.125
 31
0.0
  0
LINE
  5
2C1
330
17
100
AcDbEntity
  8
WINDOW
100
AcDbLine
 10
213.75
 20
746.25
 30
0.0
 11
213.75
 21
733.125
 31
0.0
  0
LINE
  5
2C2
330
17
100
AcDbEntity
  8
WINDOW
100
AcDbLine
 10
333.75
 20
746.25
 30
0.0
 11
333.75
 21
733.125
 31
0.0
  0
LINE
  5
2C3
330
17
100
AcDbEntity
  8
WINDOW
100
AcDbLine
 10
1766.25
 20
723.75
 30
0.0
 11
2047.5
 21
723.75
 31
0.0
  0
LINE
  5
2C4
330
17
100
AcDbEntity
  8
WINDOW
100
AcDbLine
 10
1766.25
 20
718.7499999999999
 30
0.0
 11
2047.5
 21
718.7499999999999
 31
0.0
  0
LINE
  5
2C5
330
17
100
AcDbEntity
  8
WINDOW
100
AcDbLine
 10
1766.25
 20
713.7500000000001
 30
0.0
 11
2047.5
 21
713.7500000000001
 31
0.0
  0
LINE
  5
2C6
330
17
100
AcDbEntity
  8
WINDOW
100
AcDbLine
 10
1766.25
 20
708.75
 30
0.0
 11
2047.5
 21
708.75
 31
0.0
  0
LINE
  5
2C7
330
17
100
AcDbEntity
  8
WINDOW
100
AcDbLine
 10
1766.25
 20
723.75
 30
0.0
 11
1766.25
 21
708.75
 31
0.0
  0
LINE
  5
2C8
330
17
100
AcDbEntity
  8
WINDOW
100
AcDbLine
 10
2047.5
 20
723.75
 30
0.0
 11
2047.5
 21
708.75
 31
0.0
  0
LINE
  5
2C9
330
17
100
AcDbEntity
  8
WINDOW
100
AcDbLine
 10
2073.75
 20
438.75
 30
0.0
 11
2115.0
 21
438.75
 31
0.0
  0
LINE
  5
2CA
330
17
100
AcDbEntity
  8
WINDOW
100
AcDbLine
 10
2073.75
 20
429.9999999999999
 30
0.0
 11
2115.0
 21
429.9999999999999
 31
0.0
  0
LINE
  5
2CB
330
17
100
AcDbEntity
  8
WINDOW
100
AcDbLine
 10
2073.75
 20
421.2500000000001
 30
0.0
 11
2115.0
 21
421.2500000000001
 31
0.0
  0
LINE
  5
2CC
330
17
100
AcDbEntity
  8
WINDOW
100
AcDbLine
 10
2073.75
 20
412.5
 30
0.0
 11
2115.0
 21
412.5
 31
0.0
  0
LINE
  5
2CD
330
17
100
AcDbEntity
  8
WINDOW
100
AcDbLine
 10
2073.75
 20
438.75
 30
0.0
 11
2073.75
 21
412.5
 31
0.0
  0
LINE
  5
2CE
330
17
100
AcDbEntity
  8
WINDOW
100
AcDbLine
 10
2115.0
 20
438.75
 30
0.0
 11
2115.0
 21
412.5
 31
0.0
  0
LINE
  5
2CF
330
17
100
AcDbEntity
  8
WINDOW
100
AcDbLine
 10
2047.5
 20
352.5
 30
0.0
 11
2085.0
 21
352.5
 31
0.0
  0
LINE
  5
2D0
330
17
100
AcDbEntity
  8
WINDOW
100
AcDbLine
 10
2047.5
 20
345.6249999999999
 30
0.0
 11
2085.0
 21
345.6249999999999
 31
0.0
  0
LINE
  5
2D1
330
17
100
AcDbEntity
  8
WINDOW
100
AcDbLine
 10
2047.5
 20
338.7500000000001
 30
0.0
 11
2085.0
 21
338.7500000000001
 31
0.0
  0
LINE
  5
2D2
330
17
100
AcDbEntity
  8
WINDOW
100
AcDbLine
 10
2047.5
 20
331.875
 30
0.0
 11
2085.0
 21
331.875
 31
0.0
  0
LINE
  5
2D3
330
17
100
AcDbEntity
  8
WINDOW
100
AcDbLine
 10
2047.5
 20
352.5
 30
0.0
 11
2047.5
 21
331.875
 31
0.0
  0
LINE
  5
2D4
330
17
100
AcDbEntity
  8
WINDOW
100
AcDbLine
 10
2085.0
 20
352.5
 30
0.0
 11
2085.0
 21
331.875
 31
0.0
  0
LINE
  5
2D5
330
17
100
AcDbEntity
  8
WINDOW
100
AcDbLine
 10
1050.0
 20
236.25
 30
0.0
 11
1350.0
 21
236.25
 31
0.0
  0
LINE
  5
2D6
330
17
100
AcDbEntity
  8
WINDOW
100
AcDbLine
 10
1050.0
 20
228.75
 30
0.0
 11
1350.0
 21
228.75
 31
0.0
  0
LINE
  5
2D7
330
17
100
AcDbEntity
  8
WINDOW
100
AcDbLine
 10
1050.0
 20
221.25
 30
0.0
 11
1350.0
 21
221.25
 31
0.0
  0
LINE
  5
2D8
330
17
100
AcDbEntity
  8
WINDOW
100
AcDbLine
 10
1050.0
 20
213.75
 30
0.0
 11
1350.0
 21
213.75
 31
0.0
  0
LINE
  5
2D9
330
17
100
AcDbEntity
  8
WINDOW
100
AcDbLine
 10
1050.0
 20
236.25
 30
0.0
 11
1050.0
 21
213.75
 31
0.0
  0
LINE
  5
2DA
330
17
100
AcDbEntity
  8
WINDOW
100
AcDbLine
 10
1350.0
 20
236.25
 30
0.0
 11
1350.0
 21
213.75
 31
0.0
  0
LINE
  5
2DB
330
17
100
AcDbEntity
  8
WINDOW
100
AcDbLine
 10
1440.0
 20
243.75
 30
0.0
 11
1893.75
 21
243.75
 31
0.0
  0
LINE
  5
2DC
330
17
100
AcDbEntity
  8
WINDOW
100
AcDbLine
 10
1440.0
 20
237.50000000000014
 30
0.0
 11
1893.75
 21
237.50000000000014
 31
0.0
  0
LINE
  5
2DD
330
17
100
AcDbEntity
  8
WINDOW
100
AcDbLine
 10
1440.0
 20
231.24999999999986
 30
0.0
 11
1893.75
 21
231.24999999999986
 31
0.0
  0
LINE
  5
2DE
330
17
100
AcDbEntity
  8
WINDOW
100
AcDbLine
 10
1440.0
 20
225.0
 30
0.0
 11
1893.75
 21
225.0
 31
0.0
  0
LINE
  5
2DF
330
17
100
AcDbEntity
  8
WINDOW
100
AcDbLine
 10
1440.0
 20
243.75
 30
0.0
 11
1440.0
 21
225.0
 31
0.0
  0
LINE
  5
2E0
330
17
100
AcDbEntity
  8
WINDOW
100
AcDbLine
 10
1893.75
 20
243.75
 30
0.0
 11
1893.75
 21
225.0
 31
0.0
  0
LINE
  5
2E1
330
17
100
AcDbEntity
  8
WINDOW
100
AcDbLine
 10
810.0
 20
609.375
 30
0.0
 11
810.0
 21
455.625
 31
0.0
  0
LINE
  5
2E2
330
17
100
AcDbEntity
  8
WINDOW
100
AcDbLine
 10
815.0
 20
609.375
 30
0.0
 11
815.0
 21
455.625
 31
0.0
  0
LINE
  5
2E3
330
17
100
AcDbEntity
  8
WINDOW
100
AcDbLine
 10
820.0
 20
609.375
 30
0.0
 11
820.0
 21
455.625
 31
0.0
  0
LINE
  5
2E4
330
17
100
AcDbEntity
  8
WINDOW
100
AcDbLine
 10
825.0
 20
609.375
 30
0.0
 11
825.0
 21
455.625
 31
0.0
  0
LINE
  5
2E5
330
17
100
AcDbEntity
  8
WINDOW
100
AcDbLine
 10
810.0
 20
609.375
 30
0.0
 11
825.0
 21
609.375
 31
0.0
  0
LINE
  5
2E6
330
17
100
AcDbEntity
  8
WINDOW
100
AcDbLine
 10
810.0
 20
455.625
 30
0.0
 11
825.0
 21
455.625
 31
0.0
  0
LINE
  5
2E7
330
17
100
AcDbEntity
  8
WINDOW
100
AcDbLine
 10
1447.5
 20
2019.375
 30
0.0
 11
1447.5
 21
1955.625
 31
0.0
  0
LINE
  5
2E8
330
17
100
AcDbEntity
  8
WINDOW
100
AcDbLine
 10
1453.75
 20
2019.375
 30
0.0
 11
1453.75
 21
1955.625
 31
0.0
  0
LINE
  5
2E9
330
17
100
AcDbEntity
  8
WINDOW
100
AcDbLine
 10
1460.0
 20
2019.375
 30
0.0
 11
1460.0
 21
1955.625
 31
0.0
  0
LINE
  5
2EA
330
17
100
AcDbEntity
  8
WINDOW
100
AcDbLine
 10
1466.25
 20
2019.375
 30
0.0
 11
1466.25
 21
1955.625
 31
0.0
  0
LINE
  5
2EB
330
17
100
AcDbEntity
  8
WINDOW
100
AcDbLine
 10
1447.5
 20
2019.375
 30
0.0
 11
1466.25
 21
2019.375
 31
0.0
  0
LINE
  5
2EC
330
17
100
AcDbEntity
  8
WINDOW
100
AcDbLine
 10
1447.5
 20
1955.625
 30
0.0
 11
1466.25
 21
1955.625
 31
0.0
  0
LINE
  5
2ED
330
17
100
AcDbEntity
  8
WINDOW
100
AcDbLine
 10
1440.0
 20
1875.0
 30
0.0
 11
1440.0
 21
1593.75
 31
0.0
  0
LINE
  5
2EE
330
17
100
AcDbEntity
  8
WINDOW
100
AcDbLine
 10
1447.5
 20
1875.0
 30
0.0
 11
1447.5
 21
1593.75
 31
0.0
  0
LINE
  5
2EF
330
17
100
AcDbEntity
  8
WINDOW
100
AcDbLine
 10
1455.0
 20
1875.0
 30
0.0
 11
1455.0
 21
1593.75
 31
0.0
  0
LINE
  5
2F0
330
17
100
AcDbEntity
  8
WINDOW
100
AcDbLine
 10
1462.5
 20
1875.0
 30
0.0
 11
1462.5
 21
1593.75
 31
0.0
  0
LINE
  5
2F1
330
17
100
AcDbEntity
  8
WINDOW
100
AcDbLine
 10
1440.0
 20
1875.0
 30
0.0
 11
1462.5
 21
1875.0
 31
0.0
  0
LINE
  5
2F2
330
17
100
AcDbEntity
  8
WINDOW
100
AcDbLine
 10
1440.0
 20
1593.75
 30
0.0
 11
1462.5
 21
1593.75
 31
0.0
  0
LINE
  5
2F3
330
17
100
AcDbEntity
  8
WINDOW
100
AcDbLine
 10
1530.0
 20
2268.75
 30
0.0
 11
1530.0
 21
2255.625
 31
0.0
  0
LINE
  5
2F4
330
17
100
AcDbEntity
  8
WINDOW
100
AcDbLine
 10
1540.0
 20
2268.75
 30
0.0
 11
1540.0
 21
2255.625
 31
0.0
  0
LINE
  5
2F5
330
17
100
AcDbEntity
  8
WINDOW
100
AcDbLine
 10
1550.0
 20
2268.75
 30
0.0
 11
1550.0
 21
2255.625
 31
0.0
  0
LINE
  5
2F6
330
17
100
AcDbEntity
  8
WINDOW
100
AcDbLine
 10
1560.0
 20
2268.75
 30
0.0
 11
1560.0
 21
2255.625
 31
0.0
  0
LINE
  5
2F7
330
17
100
AcDbEntity
  8
WINDOW
100
AcDbLine
 10
1530.0
 20
2268.75
 30
0.0
 11
1560.0
 21
2268.75
 31
0.0
  0
LINE
  5
2F8
330
17
100
AcDbEntity
  8
WINDOW
100
AcDbLine
 10
1530.0
 20
2255.625
 30
0.0
 11
1560.0
 21
2255.625
 31
0.0
  0
LINE
  5
2F9
330
17
100
AcDbEntity
  8
WINDOW
100
AcDbLine
 10
1586.25
 20
2356.875
 30
0.0
 11
1586.25
 21
2311.875
 31
0.0
  0
LINE
  5
2FA
330
17
100
AcDbEntity
  8
WINDOW
100
AcDbLine
 10
1591.25
 20
2356.875
 30
0.0
 11
1591.25
 21
2311.875
 31
0.0
  0
LINE
  5
2FB
330
17
100
AcDbEntity
  8
WINDOW
100
AcDbLine
 10
1596.25
 20
2356.875
 30
0.0
 11
1596.25
 21
2311.875
 31
0.0
  0
LINE
  5
2FC
330
17
100
AcDbEntity
  8
WINDOW
100
AcDbLine
 10
1601.25
 20
2356.875
 30
0.0
 11
1601.25
 21
2311.875
 31
0.0
  0
LINE
  5
2FD
330
17
100
AcDbEntity
  8
WINDOW
100
AcDbLine
 10
1586.25
 20
2356.875
 30
0.0
 11
1601.25
 21
2356.875
 31
0.0
  0
LINE
  5
2FE
330
17
100
AcDbEntity
  8
WINDOW
100
AcDbLine
 10
1586.25
 20
2311.875
 30
0.0
 11
1601.25
 21
2311.875
 31
0.0
  0
LINE
  5
2FF
330
17
100
AcDbEntity
  8
WINDOW
100
AcDbLine
 10
1586.25
 20
2205.0
 30
0.0
 11
1586.25
 21
1698.75
 31
0.0
  0
LINE
  5
300
330
17
100
AcDbEntity
  8
WINDOW
100
AcDbLine
 10
1596.25
 20
2205.0
 30
0.0
 11
1596.25
 21
1698.75
 31
0.0
  0
LINE
  5
301
330
17
100
AcDbEntity
  8
WINDOW
100
AcDbLine
 10
1606.25
 20
2205.0
 30
0.0
 11
1606.25
 21
1698.75
 31
0.0
  0
LINE
  5
302
330
17
100
AcDbEntity
  8
WINDOW
100
AcDbLine
 10
1616.25
 20
2205.0
 30
0.0
 11
1616.25
 21
1698.75
 31
0.0
  0
LINE
  5
303
330
17
100
AcDbEntity
  8
WINDOW
100
AcDbLine
 10
1586.25
 20
2205.0
 30
0.0
 11
1616.25
 21
2205.0
 31
0.0
  0
LINE
  5
304
330
17
100
AcDbEntity
  8
WINDOW
100
AcDbLine
 10
1586.25
 20
1698.75
 30
0.0
 11
1616.25
 21
1698.75
 31
0.0
  0
LINE
  5
305
330
17
100
AcDbEntity
  8
WINDOW
100
AcDbLine
 10
2133.75
 20
2026.875
 30
0.0
 11
2133.75
 21
1955.625
 31
0.0
  0
LINE
  5
306
330
17
100
AcDbEntity
  8
WINDOW
100
AcDbLine
 10
2140.0
 20
2026.875
 30
0.0
 11
2140.0
 21
1955.625
 31
0.0
  0
LINE
  5
307
330
17
100
AcDbEntity
  8
WINDOW
100
AcDbLine
 10
2146.25
 20
2026.875
 30
0.0
 11
2146.25
 21
1955.625
 31
0.0
  0
LINE
  5
308
330
17
100
AcDbEntity
  8
WINDOW
100
AcDbLine
 10
2152.5
 20
2026.875
 30
0.0
 11
2152.5
 21
1955.625
 31
0.0
  0
LINE
  5
309
330
17
100
AcDbEntity
  8
WINDOW
100
AcDbLine
 10
2133.75
 20
2026.875
 30
0.0
 11
2152.5
 21
2026.875
 31
0.0
  0
LINE
  5
30A
330
17
100
AcDbEntity
  8
WINDOW
100
AcDbLine
 10
2133.75
 20
1955.625
 30
0.0
 11
2152.5
 21
1955.625
 31
0.0
  0
LINE
  5
30B
330
17
100
AcDbEntity
  8
WINDOW
100
AcDbLine
 10
2550.0
 20
905.625
 30
0.0
 11
2550.0
 21
793.125
 31
0.0
  0
LINE
  5
30C
330
17
100
AcDbEntity
  8
WINDOW
100
AcDbLine
 10
2556.25
 20
905.625
 30
0.0
 11
2556.25
 21
793.125
 31
0.0
  0
LINE
  5
30D
330
17
100
AcDbEntity
  8
WINDOW
100
AcDbLine
 10
2562.5
 20
905.625
 30
0.0
 11
2562.5
 21
793.125
 31
0.0
  0
LINE
  5
30E
330
17
100
AcDbEntity
  8
WINDOW
100
AcDbLine
 10
2568.75
 20
905.625
 30
0.0
 11
2568.75
 21
793.125
 31
0.0
  0
LINE
  5
30F
330
17
100
AcDbEntity
  8
WINDOW
100
AcDbLine
 10
2550.0
 20
905.625
 30
0.0
 11
2568.75
 21
905.625
 31
0.0
  0
LINE
  5
310
330
17
100
AcDbEntity
  8
WINDOW
100
AcDbLine
 10
2550.0
 20
793.125
 30
0.0
 11
2568.75
 21
793.125
 31
0.0
  0
LINE
  5
311
330
17
100
AcDbEntity
  8
WINDOW
100
AcDbLine
 10
2572.5
 20
886.875
 30
0.0
 11
2572.5
 21
778.125
 31
0.0
  0
LINE
  5
312
330
17
100
AcDbEntity
  8
WINDOW
100
AcDbLine
 10
2578.75
 20
886.875
 30
0.0
 11
2578.75
 21
778.125
 31
0.0
  0
LINE
  5
313
330
17
100
AcDbEntity
  8
WINDOW
100
AcDbLine
 10
2585.0
 20
886.875
 30
0.0
 11
2585.0
 21
778.125
 31
0.0
  0
LINE
  5
314
330
17
100
AcDbEntity
  8
WINDOW
100
AcDbLine
 10
2591.25
 20
886.875
 30
0.0
 11
2591.25
 21
778.125
 31
0.0
  0
LINE
  5
315
330
17
100
AcDbEntity
  8
WINDOW
100
AcDbLine
 10
2572.5
 20
886.875
 30
0.0
 11
2591.25
 21
886.875
 31
0.0
  0
LINE
  5
316
330
17
100
AcDbEntity
  8
WINDOW
100
AcDbLine
 10
2572.5
 20
778.125
 30
0.0
 11
2591.25
 21
778.125
 31
0.0
  0
LINE
  5
317
330
17
100
AcDbEntity
  8
WINDOW
100
AcDbLine
 10
2572.5
 20
684.375
 30
0.0
 11
2572.5
 21
658.125
 31
0.0
  0
LINE
  5
318
330
17
100
AcDbEntity
  8
WINDOW
100
AcDbLine
 10
2580.0
 20
684.375
 30
0.0
 11
2580.0
 21
658.125
 31
0.0
  0
LINE
  5
319
330
17
100
AcDbEntity
  8
WINDOW
100
AcDbLine
 10
2587.5
 20
684.375
 30
0.0
 11
2587.5
 21
658.125
 31
0.0
  0
LINE
  5
31A
330
17
100
AcDbEntity
  8
WINDOW
100
AcDbLine
 10
2595.0
 20
684.375
 30
0.0
 11
2595.0
 21
658.125
 31
0.0
  0
LINE
  5
31B
330
17
100
AcDbEntity
  8
WINDOW
100
AcDbLine
 10
2572.5
 20
684.375
 30
0.0
 11
2595.0
 21
684.375
 31
0.0
  0
LINE
  5
31C
330
17
100
AcDbEntity
  8
WINDOW
100
AcDbLine
 10
2572.5
 20
658.125
 30
0.0
 11
2595.0
 21
658.125
 31
0.0
  0
LWPOLYLINE
  5
31E
330
17
100
AcDbEntity
  8
DOORZONE
100
AcDbPolyline
 90
4
 70
1
 10
1068.75
 20
2726.25
 10
1140.0
 20
2726.25
 10
1140.0
 20
2583.75
 10
1068.75
 20
2583.75
  0
LWPOLYLINE
  5
31F
330
17
100
AcDbEntity
  8
DOORZONE
100
AcDbPolyline
 90
4
 70
1
 10
1481.25
 20
2760.0
 10
1586.25
 20
2760.0
 10
1586.25
 20
2550.0
 10
1481.25
 20
2550.0
  0
LWPOLYLINE
  5
320
330
17
100
AcDbEntity
  8
DOORZONE
100
AcDbPolyline
 90
4
 70
1
 10
1271.25
 20
2693.4375
 10
1335.0
 20
2693.4375
 10
1335.0
 20
2565.9375
 10
1271.25
 20
2565.9375
  0
LWPOLYLINE
  5
321
330
17
100
AcDbEntity
  8
DOORZONE
100
AcDbPolyline
 90
4
 70
1
 10
1353.75
 20
2643.75
 10
1402.5
 20
2643.75
 10
1402.5
 20
2546.25
 10
1353.75
 20
2546.25
  0
LWPOLYLINE
  5
322
330
17
100
AcDbEntity
  8
DOORZONE
100
AcDbPolyline
 90
4
 70
1
 10
1098.75
 20
2570.625
 10
1185.0
 20
2570.625
 10
1185.0
 20
2398.125
 10
1098.75
 20
2398.125
  0
LWPOLYLINE
  5
323
330
17
100
AcDbEntity
  8
DOORZONE
100
AcDbPolyline
 90
4
 70
1
 10
2388.75
 20
2251.875
 10
2433.75
 20
2251.875
 10
2433.75
 20
2161.875
 10
2388.75
 20
2161.875
  0
LWPOLYLINE
  5
324
330
17
100
AcDbEntity
  8
DOORZONE
100
AcDbPolyline
 90
4
 70
1
 10
468.75
 20
2248.125
 10
528.75
 20
2248.125
 10
528.75
 20
2128.125
 10
468.75
 20
2128.125
  0
LWPOLYLINE
  5
325
330
17
100
AcDbEntity
  8
DOORZONE
100
AcDbPolyline
 90
4
 70
1
 10
2043.75
 20
2246.25
 10
2141.25
 20
2246.25
 10
2141.25
 20
2051.25
 10
2043.75
 20
2051.25
  0
LWPOLYLINE
  5
326
330
17
100
AcDbEntity
  8
DOORZONE
100
AcDbPolyline
 90
4
 70
1
 10
412.5
 20
2145.9375
 10
483.75
 20
2145.9375
 10
483.75
 20
2003.4375
 10
412.5
 20
2003.4375
  0
LWPOLYLINE
  5
327
330
17
100
AcDbEntity
  8
DOORZONE
100
AcDbPolyline
 90
4
 70
1
 10
1646.25
 20
2022.1875
 10
1717.5
 20
2022.1875
 10
1717.5
 20
1879.6875
 10
1646.25
 20
1879.6875
  0
LWPOLYLINE
  5
328
330
17
100
AcDbEntity
  8
DOORZONE
100
AcDbPolyline
 90
4
 70
1
 10
1155.0
 20
1942.5
 10
1286.25
 20
1942.5
 10
1286.25
 20
1680.0
 10
1155.0
 20
1680.0
  0
LWPOLYLINE
  5
329
330
17
100
AcDbEntity
  8
DOORZONE
100
AcDbPolyline
 90
4
 70
1
 10
2137.5
 20
1875.0
 10
2287.5
 20
1875.0
 10
2287.5
 20
1575.0
 10
2137.5
 20
1575.0
  0
LWPOLYLINE
  5
32A
330
17
100
AcDbEntity
  8
DOORZONE
100
AcDbPolyline
 90
4
 70
1
 10
1485.0
 20
1684.6875
 10
1590.0
 20
1684.6875
 10
1590.0
 20
1474.6875
 10
1485.0
 20
1474.6875
  0
LWPOLYLINE
  5
32B
330
17
100
AcDbEntity
  8
DOORZONE
100
AcDbPolyline
 90
4
 70
1
 10
2160.0
 20
1467.1875
 10
2205.0
 20
1467.1875
 10
2205.0
 20
1377.1875
 10
2160.0
 20
1377.1875
  0
LWPOLYLINE
  5
32C
330
17
100
AcDbEntity
  8
DOORZONE
100
AcDbPolyline
 90
4
 70
1
 10
2310.0
 20
1425.0
 10
2388.75
 20
1425.0
 10
2388.75
 20
1267.5
 10
2310.0
 20
1267.5
  0
LWPOLYLINE
  5
32D
330
17
100
AcDbEntity
  8
DOORZONE
100
AcDbPolyline
 90
4
 70
1
 10
2006.25
 20
1380.9375
 10
2085.0
 20
1380.9375
 10
2085.0
 20
1223.4375
 10
2006.25
 20
1223.4375
  0
LWPOLYLINE
  5
32E
330
17
100
AcDbEntity
  8
DOORZONE
100
AcDbPolyline
 90
4
 70
1
 10
457.5
 20
1232.8125
 10
517.5
 20
1232.8125
 10
517.5
 20
1112.8125
 10
457.5
 20
1112.8125
  0
LWPOLYLINE
  5
32F
330
17
100
AcDbEntity
  8
DOORZONE
100
AcDbPolyline
 90
4
 70
1
 10
1065.0
 20
1193.4375
 10
1128.75
 20
1193.4375
 10
1128.75
 20
1065.9375
 10
1065.0
 20
1065.9375
  0
LWPOLYLINE
  5
330
330
17
100
AcDbEntity
  8
DOORZONE
100
AcDbPolyline
 90
4
 70
1
 10
1286.25
 20
1131.5625
 10
1368.75
 20
1131.5625
 10
1368.75
 20
966.5625
 10
1286.25
 20
966.5625
  0
LWPOLYLINE
  5
331
330
17
100
AcDbEntity
  8
DOORZONE
100
AcDbPolyline
 90
4
 70
1
 10
1301.25
 20
1010.625
 10
1368.75
 20
1010.625
 10
1368.75
 20
875.625
 10
1301.25
 20
875.625
  0
LWPOLYLINE
  5
332
330
17
100
AcDbEntity
  8
DOORZONE
100
AcDbPolyline
 90
4
 70
1
 10
1046.25
 20
995.625
 10
1143.75
 20
995.625
 10
1143.75
 20
800.625
 10
1046.25
 20
800.625
  0
LWPOLYLINE
  5
333
330
17
100
AcDbEntity
  8
DOORZONE
100
AcDbPolyline
 90
4
 70
1
 10
2325.0
 20
939.375
 10
2437.5
 20
939.375
 10
2437.5
 20
714.375
 10
2325.0
 20
714.375
  0
LWPOLYLINE
  5
334
330
17
100
AcDbEntity
  8
DOORZONE
100
AcDbPolyline
 90
4
 70
1
 10
2107.5
 20
810.0
 10
2208.75
 20
810.0
 10
2208.75
 20
607.5
 10
2107.5
 20
607.5
  0
LWPOLYLINE
  5
335
330
17
100
AcDbEntity
  8
DOORZONE
100
AcDbPolyline
 90
4
 70
1
 10
1601.25
 20
734.0625
 10
1657.5
 20
734.0625
 10
1657.5
 20
621.5625
 10
1601.25
 20
621.5625
  0
LWPOLYLINE
  5
336
330
17
100
AcDbEntity
  8
DOORZONE
100
AcDbPolyline
 90
4
 70
1
 10
825.0
 20
742.5
 10
892.5
 20
742.5
 10
892.5
 20
607.5
 10
825.0
 20
607.5
  0
LWPOLYLINE
  5
337
330
17
100
AcDbEntity
  8
DOORZONE
100
AcDbPolyline
 90
4
 70
1
 10
2208.75
 20
552.1875
 10
2272.5
 20
552.1875
 10
2272.5
 20
424.6875
 10
2208.75
 20
424.6875
  0
LWPOLYLINE
  5
338
330
17
100
AcDbEntity
  8
DOORZONE
100
AcDbPolyline
 90
4
 70
1
 10
2118.75
 20
494.0625
 10
2163.75
 20
494.0625
 10
2163.75
 20
404.0625
 10
2118.75
 20
404.0625
  0
LWPOLYLINE
  5
339
330
17
100
AcDbEntity
  8
DOORZONE
100
AcDbPolyline
 90
4
 70
1
 10
1428.75
 20
474.375
 10
1541.25
 20
474.375
 10
1541.25
 20
249.375
 10
1428.75
 20
249.375
  0
LWPOLYLINE
  5
33A
330
17
100
AcDbEntity
  8
DOORZONE
100
AcDbPolyline
 90
4
 70
1
 10
1260.0
 20
410.625
 10
1308.75
 20
410.625
 10
1308.75
 20
313.125
 10
1260.0
 20
313.125
  0
LWPOLYLINE
  5
33B
330
17
100
AcDbEntity
  8
DOORZONE
100
AcDbPolyline
 90
4
 70
1
 10
1905.0
 20
389.0625
 10
1953.75
 20
389.0625
 10
1953.75
 20
291.5625
 10
1905.0
 20
291.5625
  0
LWPOLYLINE
  5
33C
330
17
100
AcDbEntity
  8
DOORZONE
100
AcDbPolyline
 90
4
 70
1
 10
2313.75
 20
339.375
 10
2388.75
 20
339.375
 10
2388.75
 20
189.375
 10
2313.75
 20
189.375
  0
LWPOLYLINE
  5
33D
330
17
100
AcDbEntity
  8
DOORZONE
100
AcDbPolyline
 90
4
 70
1
 10
450.0
 20
317.8125
 10
536.25
 20
317.8125
 10
536.25
 20
145.3125
 10
450.0
 20
145.3125
  0
LWPOLYLINE
  5
33E
330
17
100
AcDbEntity
  8
DOORZONE
100
AcDbPolyline
 90
4
 70
1
 10
1020.0
 20
2278.125
 10
1020.0
 20
2214.375
 10
1147.5
 20
2214.375
 10
1147.5
 20
2278.125
  0
LWPOLYLINE
  5
33F
330
17
100
AcDbEntity
  8
DOORZONE
100
AcDbPolyline
 90
4
 70
1
 10
1014.375
 20
1987.5
 10
1014.375
 20
1867.5
 10
1254.375
 20
1867.5
 10
1254.375
 20
1987.5
  0
LWPOLYLINE
  5
340
330
17
100
AcDbEntity
  8
DOORZONE
100
AcDbPolyline
 90
4
 70
1
 10
1267.5
 20
2160.0
 10
1267.5
 20
2116.875
 10
1353.75
 20
2116.875
 10
1353.75
 20
2160.0
  0
LWPOLYLINE
  5
341
330
17
100
AcDbEntity
  8
DOORZONE
100
AcDbPolyline
 90
4
 70
1
 10
1918.125
 20
1931.25
 10
1918.125
 20
1822.5
 10
2135.625
 20
1822.5
 10
2135.625
 20
1931.25
  0
LWPOLYLINE
  5
342
330
17
100
AcDbEntity
  8
DOORZONE
100
AcDbPolyline
 90
4
 70
1
 10
1057.5
 20
1650.0
 10
1057.5
 20
1567.5
 10
1222.5
 20
1567.5
 10
1222.5
 20
1650.0
  0
LWPOLYLINE
  5
343
330
17
100
AcDbEntity
  8
DOORZONE
100
AcDbPolyline
 90
4
 70
1
 10
2238.75
 20
1590.0
 10
2238.75
 20
1530.0
 10
2358.75
 20
1530.0
 10
2358.75
 20
1590.0
  0
LWPOLYLINE
  5
344
330
17
100
AcDbEntity
  8
DOORZONE
100
AcDbPolyline
 90
4
 70
1
 10
1076.25
 20
1428.75
 10
1076.25
 20
1361.25
 10
1211.25
 20
1361.25
 10
1211.25
 20
1428.75
  0
LWPOLYLINE
  5
345
330
17
100
AcDbEntity
  8
DOORZONE
100
AcDbPolyline
 90
4
 70
1
 10
2145.0
 20
1518.75
 10
2145.0
 20
1449.375
 10
2283.75
 20
1449.375
 10
2283.75
 20
1518.75
  0
LWPOLYLINE
  5
346
330
17
100
AcDbEntity
  8
DOORZONE
100
AcDbPolyline
 90
4
 70
1
 10
1479.375
 20
1374.375
 10
1479.375
 20
1316.25
 10
1595.625
 20
1316.25
 10
1595.625
 20
1374.375
  0
LWPOLYLINE
  5
347
330
17
100
AcDbEntity
  8
DOORZONE
100
AcDbPolyline
 90
4
 70
1
 10
1683.75
 20
1518.75
 10
1683.75
 20
1374.375
 10
1972.5
 20
1374.375
 10
1972.5
 20
1518.75
  0
LWPOLYLINE
  5
348
330
17
100
AcDbEntity
  8
DOORZONE
100
AcDbPolyline
 90
4
 70
1
 10
1031.25
 20
1278.75
 10
1031.25
 20
1162.5
 10
1263.75
 20
1162.5
 10
1263.75
 20
1278.75
  0
LWPOLYLINE
  5
349
330
17
100
AcDbEntity
  8
DOORZONE
100
AcDbPolyline
 90
4
 70
1
 10
1228.125
 20
1271.25
 10
1228.125
 20
1162.5
 10
1445.625
 20
1162.5
 10
1445.625
 20
1271.25
  0
LWPOLYLINE
  5
34A
330
17
100
AcDbEntity
  8
DOORZONE
100
AcDbPolyline
 90
4
 70
1
 10
2431.875
 20
710.625
 10
2431.875
 20
583.125
 10
2686.875
 20
583.125
 10
2686.875
 20
710.625
  0
LWPOLYLINE
  5
34B
330
17
100
AcDbEntity
  8
DOORZONE
100
AcDbPolyline
 90
4
 70
1
 10
1753.125
 20
821.25
 10
1753.125
 20
766.875
 10
1861.875
 20
766.875
 10
1861.875
 20
821.25
  0
LWPOLYLINE
  5
34C
330
17
100
AcDbEntity
  8
DOORZONE
100
AcDbPolyline
 90
4
 70
1
 10
1186.875
 20
819.375
 10
1186.875
 20
690.0
 10
1445.625
 20
690.0
 10
1445.625
 20
819.375
  0
LWPOLYLINE
  5
34D
330
17
100
AcDbEntity
  8
DOORZONE
100
AcDbPolyline
 90
4
 70
1
 10
956.25
 20
660.0
 10
956.25
 20
603.75
 10
1068.75
 20
603.75
 10
1068.75
 20
660.0
  0
LWPOLYLINE
  5
34E
330
17
100
AcDbEntity
  8
DOORZONE
100
AcDbPolyline
 90
4
 70
1
 10
2049.375
 20
586.875
 10
2049.375
 20
515.625
 10
2191.875
 20
515.625
 10
2191.875
 20
586.875
  0
ENDSEC
  0
SECTION
  2
OBJECTS
  0
DICTIONARY
  5
A
330
0
100
AcDbDictionary
281
1
  3
ACAD_COLOR
350
B
  3
ACAD_GROUP
350
C
  3
ACAD_LAYOUT
350
D
  3
ACAD_MATERIAL
350
E
  3
ACAD_MLEADERSTYLE
350
F
  3
ACAD_MLINESTYLE
350
10
  3
ACAD_PLOTSETTINGS
350
11
  3
ACAD_PLOTSTYLENAME
350
12
  3
ACAD_SCALELIST
350
14
  3
ACAD_TABLESTYLE
350
15
  3
ACAD_VISUALSTYLE
350
16
  3
EZDXF_META
350
2D
  0
DICTIONARY
  5
B
330
A
100
AcDbDictionary
281
1
  0
DICTIONARY
  5
C
330
A
100
AcDbDictionary
281
1
  0
DICTIONARY
  5
D
330
A
100
AcDbDictionary
281
1
  3
Model
350
1A
  3
Layout1
350
1E
  0
DICTIONARY
  5
E
330
A
100
AcDbDictionary
281
1
  3
ByBlock
350
1F
  3
ByLayer
350
20
  3
Global
350
21
  0
DICTIONARY
  5
F
330
A
100
AcDbDictionary
281
1
  3
Standard
350
2C
  0
DICTIONARY
  5
10
330
A
100
AcDbDictionary
281
1
  3
Standard
350
22
  0
DICTIONARY
  5
11
330
A
100
AcDbDictionary
281
1
  0
ACDBDICTIONARYWDFLT
  5
12
330
A
100
AcDbDictionary
281
1
  3
Normal
350
13
100
AcDbDictionaryWithDefault
340
13
  0
ACDBPLACEHOLDER
  5
13
330
12
  0
DICTIONARY
  5
14
330
A
100
AcDbDictionary
281
1
  0
DICTIONARY
  5
15
330
A
100
AcDbDictionary
281
1
  0
DICTIONARY
  5
16
330
A
100
AcDbDictionary
281
1
  0
LAYOUT
  5
1A
330
D
100
AcDbPlotSettings
  1

  4
A3
  6

 40
7.5
 41
20.0
 42
7.5
 43
20.0
 44
420.0
 45
297.0
 46
0.0
 47
0.0
 48
0.0
 49
0.0
140
0.0
141
0.0
142
1.0
143
1.0
 70
1024
 72
1
 73
0
 74
5
  7

 75
16
 76
0
 77
2
 78
300
147
1.0
148
0.0
149
0.0
100
AcDbLayout
  1
Model
 70
1
 71
0
 10
0.0
 20
0.0
 11
420.0
 21
297.0
 12
0.0
 22
0.0
 32
0.0
 14
1e+20
 24
1e+20
 34
1e+20
 15
-1e+20
 25
-1e+20
 35
-1e+20
146
0.0
 13
0.0
 23
0.0
 33
0.0
 16
1.0
 26
0.0
 36
0.0
 17
0.0
 27
1.0
 37
0.0
 76
1
330
17
  0
LAYOUT
  5
1E
330
D
100
AcDbPlotSettings
  1

  4
A3
  6

 40
7.5
 41
20.0
 42
7.5
 43
20.0
 44
420.0
 45
297.0
 46
0.0
 47
0.0
 48
0.0
 49
0.0
140
0.0
141
0.0
142
1.0
143
1.0
 70
0
 72
1
 73
0
 74
5
  7

 75
16
 76
0
 77
2
 78
300
147
1.0
148
0.0
149
0.0
100
AcDbLayout
  1
Layout1
 70
1
 71
1
 10
0.0
 20
0.0
 11
420.0
 21
297.0
 12
0.0
 22
0.0
 32
0.0
 14
1e+20
 24
1e+20
 34
1e+20
 15
-1e+20
 25
-1e+20
 35
-1e+20
146
0.0
 13
0.0
 23
0.0
 33
0.0
 16
1.0
 26
0.0
 36
0.0
 17
0.0
 27
1.0
 37
0.0
 76
1
330
1B
  0
MATERIAL
  5
1F
102
{ACAD_REACTORS
330
E
102
}
330
E
100
AcDbMaterial
  1
ByBlock
  2

 70
0
 40
1.0
 71
1
 41
1.0
 91
-1023410177
 42
1.0
 72
1
  3

 73
1
 74
1
 75
1
 44
0.5
 73
0
 45
1.0
 46
1.0
 77
1
  4

 78
1
 79
1
170
1
 48
1.0
171
1
  6

172
1
173
1
174
1
140
1.0
141
1.0
175
1
  7

176
1
177
1
178
1
143
1.0
179
1
  8

270
1
271
1
272
1
145
1.0
146
1.0
273
1
  9

274
1
275
1
276
1
 42
1.0
 72
1
  3

 73
1
 74
1
 75
1
 94
63
  0
MATERIAL
  5
20
102
{ACAD_REACTORS
330
E
102
}
330
E
100
AcDbMaterial
  1
ByLayer
  2

 70
0
 40
1.0
 71
1
 41
1.0
 91
-1023410177
 42
1.0
 72
1
  3

 73
1
 74
1
 75
1
 44
0.5
 73
0
 45
1.0
 46
1.0
 77
1
  4

 78
1
 79
1
170
1
 48
1.0
171
1
  6

172
1
173
1
174
1
140
1.0
141
1.0
175
1
  7

176
1
177
1
178
1
143
1.0
179
1
  8

270
1
271
1
272
1
145
1.0
146
1.0
273
1
  9

274
1
275
1
276
1
 42
1.0
 72
1
  3

 73
1
 74
1
 75
1
 94
63
  0
MATERIAL
  5
21
102
{ACAD_REACTORS
330
E
102
}
330
E
100
AcDbMaterial
  1
Global
  2

 70
0
 40
1.0
 71
1
 41
1.0
 91
-1023410177
 42
1.0
 72
1
  3

 73
1
 74
1
 75
1
 44
0.5
 73
0
 45
1.0
 46
1.0
 77
1
  4

 78
1
 79
1
170
1
 48
1.0
171
1
  6

172
1
173
1
174
1
140
1.0
141
1.0
175
1
  7

176
1
177
1
178
1
143
1.0
179
1
  8

270
1
271
1
272
1
145
1.0
146
1.0
273
1
  9

274
1
275
1
276
1
 42
1.0
 72
1
  3

 73
1
 74
1
 75
1
 94
63
  0
MLINESTYLE
  5
22
102
{ACAD_REACTORS
330
10
102
}
330
10
100
AcDbMlineStyle
  2
Standard
 70
0
  3

 62
256
 51
90.0
 52
90.0
 71
2
 49
0.5
 62
256
  6
BYLAYER
 49
-0.5
 62
256
  6
BYLAYER
  0
MLEADERSTYLE
  5
2C
102
{ACAD_REACTORS
330
F
102
}
330
F
100
AcDbMLeaderStyle
179
2
170
2
171
1
172
0
 90
2
 40
0.0
 41
0.0
173
1
 91
-1056964608
 92
-2
290
1
 42
2.0
291
1
 43
8.0
  3
Standard
 44
4.0
300

342
29
174
1
175
1
176
0
178
1
 93
-1056964608
 45
4.0
292
0
297
0
 46
4.0
 94
-1056964608
 47
1.0
 49
1.0
140
1.0
294
1
141
0.0
177
0
142
1.0
295
0
296
0
143
3.75
271
0
272
9
273
9
  0
DICTIONARY
  5
2D
330
A
100
AcDbDictionary
280
1
281
1
  3
CREATED_BY_EZDXF
350
2E
  3
WRITTEN_BY_EZDXF
350
351
  0
DICTIONARYVAR
  5
2E
330
2D
100
DictionaryVariables
280
0
  1
1.4.4 @ 2026-07-12T08:53:27.121492+00:00
  0
DICTIONARYVAR
  5
351
330
2D
100
DictionaryVariables
280
0
  1
1.4.4 @ 2026-07-12T08:53:27.135693+00:00
  0
ENDSEC
  0
EOF
