  0
SECTION
  2
HEADER
  9
$ACADVER
  1
AC1024
  9
$ACADMAINTVER
 70
6
  9
$DWGCODEPAGE
  3
ANSI_1252
  9
$LASTSAVEDBY
  1
ezdxf
  9
$INSBASE
 10
0.0
 20
0.0
 30
0.0
  9
$EXTMIN
 10
1e+20
 20
1e+20
 30
1e+20
  9
$EXTMAX
 10
-1e+20
 20
-1e+20
 30
-1e+20
  9
$LIMMIN
 10
0.0
 20
0.0
  9
$LIMMAX
 10
420.0
 20
297.0
  9
$ORTHOMODE
 70
0
  9
$REGENMODE
 70
1
  9
$FILLMODE
 70
1
  9
$QTEXTMODE
 70
0
  9
$MIRRTEXT
 70
1
  9
$LTSCALE
 40
1.0
  9
$ATTMODE
 70
1
  9
$TEXTSIZE
 40
2.5
  9
$TRACEWID
 40
1.0
  9
$TEXTSTYLE
  7
Standard
  9
$CLAYER
  8
0
  9
$CELTYPE
  6
ByLayer
  9
$CECOLOR
 62
256
  9
$CELTSCALE
 40
1.0
  9
$DISPSILH
 70
0
  9
$DIMSCALE
 40
1.0
  9
$DIMASZ
 40
2.5
  9
$DIMEXO
 40
0.625
  9
$DIMDLI
 40
3.75
  9
$DIMRND
 40
0.0
  9
$DIMDLE
 40
0.0
  9
$DIMEXE
 40
1.25
  9
$DIMTP
 40
0.0
  9
$DIMTM
 40
0.0
  9
$DIMTXT
 40
2.5
  9
$DIMCEN
 40
2.5
  9
$DIMTSZ
 40
0.0
  9
$DIMTOL
 70
0
  9
$DIMLIM
 70
0
  9
$DIMTIH
 70
0
  9
$DIMTOH
 70
0
  9
$DIMSE1
 70
0
  9
$DIMSE2
 70
0
  9
$DIMTAD
 70
1
  9
$DIMZIN
 70
8
  9
$DIMBLK
  1

  9
$DIMASO
 70
1
  9
$DIMSHO
 70
1
  9
$DIMPOST
  1

  9
$DIMAPOST
  1

  9
$DIMALT
 70
0
  9
$DIMALTD
 70
3
  9
$DIMALTF
 40
0.03937007874
  9
$DIMLFAC
 40
1.0
  9
$DIMTOFL
 70
1
  9
$DIMTVP
 40
0.0
  9
$DIMTIX
 70
0
  9
$DIMSOXD
 70
0
  9
$DIMSAH
 70
0
  9
$DIMBLK1
  1

  9
$DIMBLK2
  1

  9
$DIMSTYLE
  2
ISO-25
  9
$DIMCLRD
 70
0
  9
$DIMCLRE
 70
0
  9
$DIMCLRT
 70
0
  9
$DIMTFAC
 40
1.0
  9
$DIMGAP
 40
0.625
  9
$DIMJUST
 70
0
  9
$DIMSD1
 70
0
  9
$DIMSD2
 70
0
  9
$DIMTOLJ
 70
0
  9
$DIMTZIN
 70
8
  9
$DIMALTZ
 70
0
  9
$DIMALTTZ
 70
0
  9
$DIMUPT
 70
0
  9
$DIMDEC
 70
2
  9
$DIMTDEC
 70
2
  9
$DIMALTU
 70
2
  9
$DIMALTTD
 70
3
  9
$DIMTXSTY
  7
Standard
  9
$DIMAUNIT
 70
0
  9
$DIMADEC
 70
0
  9
$DIMALTRND
 40
0.0
  9
$DIMAZIN
 70
0
  9
$DIMDSEP
 70
44
  9
$DIMATFIT
 70
3
  9
$DIMFRAC
 70
0
  9
$DIMLDRBLK
  1

  9
$DIMLUNIT
 70
2
  9
$DIMLWD
 70
-2
  9
$DIMLWE
 70
-2
  9
$DIMTMOVE
 70
0
  9
$DIMFXL
 40
1.0
  9
$DIMFXLON
 70
0
  9
$DIMJOGANG
 40
0.785398163397
  9
$DIMTFILL
 70
0
  9
$DIMTFILLCLR
 70
0
  9
$DIMARCSYM
 70
0
  9
$DIMLTYPE
  6

  9
$DIMLTEX1
  6

  9
$DIMLTEX2
  6

  9
$DIMTXTDIRECTION
 70
0
  9
$LUNITS
 70
2
  9
$LUPREC
 70
4
  9
$SKETCHINC
 40
1.0
  9
$FILLETRAD
 40
10.0
  9
$AUNITS
 70
0
  9
$AUPREC
 70
2
  9
$MENU
  1
.
  9
$ELEVATION
 40
0.0
  9
$PELEVATION
 40
0.0
  9
$THICKNESS
 40
0.0
  9
$LIMCHECK
 70
0
  9
$CHAMFERA
 40
0.0
  9
$CHAMFERB
 40
0.0
  9
$CHAMFERC
 40
0.0
  9
$CHAMFERD
 40
0.0
  9
$SKPOLY
 70
0
  9
$TDCREATE
 40
2461234.703865741
  9
$TDUCREATE
 40
2458532.153996898
  9
$TDUPDATE
 40
2461234.703865741
  9
$TDUUPDATE
 40
2458532.1544311
  9
$TDINDWG
 40
0.0
  9
$TDUSRTIMER
 40
0.0
  9
$USRTIMER
 70
1
  9
$ANGBASE
 50
0.0
  9
$ANGDIR
 70
0
  9
$PDMODE
 70
0
  9
$PDSIZE
 40
0.0
  9
$PLINEWID
 40
0.0
  9
$SPLFRAME
 70
0
  9
$SPLINETYPE
 70
6
  9
$SPLINESEGS
 70
8
  9
$HANDSEED
  5
21F
  9
$SURFTAB1
 70
6
  9
$SURFTAB2
 70
6
  9
$SURFTYPE
 70
6
  9
$SURFU
 70
6
  9
$SURFV
 70
6
  9
$UCSBASE
  2

  9
$UCSNAME
  2

  9
$UCSORG
 10
0.0
 20
0.0
 30
0.0
  9
$UCSXDIR
 10
1.0
 20
0.0
 30
0.0
  9
$UCSYDIR
 10
0.0
 20
1.0
 30
0.0
  9
$UCSORTHOREF
  2

  9
$UCSORTHOVIEW
 70
0
  9
$UCSORGTOP
 10
0.0
 20
0.0
 30
0.0
  9
$UCSORGBOTTOM
 10
0.0
 20
0.0
 30
0.0
  9
$UCSORGLEFT
 10
0.0
 20
0.0
 30
0.0
  9
$UCSORGRIGHT
 10
0.0
 20
0.0
 30
0.0
  9
$UCSORGFRONT
 10
0.0
 20
0.0
 30
0.0
  9
$UCSORGBACK
 10
0.0
 20
0.0
 30
0.0
  9
$PUCSBASE
  2

  9
$PUCSNAME
  2

  9
$PUCSORG
 10
0.0
 20
0.0
 30
0.0
  9
$PUCSXDIR
 10
1.0
 20
0.0
 30
0.0
  9
$PUCSYDIR
 10
0.0
 20
1.0
 30
0.0
  9
$PUCSORTHOREF
  2

  9
$PUCSORTHOVIEW
 70
0
  9
$PUCSORGTOP
 10
0.0
 20
0.0
 30
0.0
  9
$PUCSORGBOTTOM
 10
0.0
 20
0.0
 30
0.0
  9
$PUCSORGLEFT
 10
0.0
 20
0.0
 30
0.0
  9
$PUCSORGRIGHT
 10
0.0
 20
0.0
 30
0.0
  9
$PUCSORGFRONT
 10
0.0
 20
0.0
 30
0.0
  9
$PUCSORGBACK
 10
0.0
 20
0.0
 30
0.0
  9
$USERI1
 70
0
  9
$USERI2
 70
0
  9
$USERI3
 70
0
  9
$USERI4
 70
0
  9
$USERI5
 70
0
  9
$USERR1
 40
0.0
  9
$USERR2
 40
0.0
  9
$USERR3
 40
0.0
  9
$USERR4
 40
0.0
  9
$USERR5
 40
0.0
  9
$WORLDVIEW
 70
1
  9
$SHADEDGE
 70
3
  9
$SHADEDIF
 70
70
  9
$TILEMODE
 70
1
  9
$MAXACTVP
 70
64
  9
$PINSBASE
 10
0.0
 20
0.0
 30
0.0
  9
$PLIMCHECK
 70
0
  9
$PEXTMIN
 10
1e+20
 20
1e+20
 30
1e+20
  9
$PEXTMAX
 10
-1e+20
 20
-1e+20
 30
-1e+20
  9
$PLIMMIN
 10
0.0
 20
0.0
  9
$PLIMMAX
 10
420.0
 20
297.0
  9
$UNITMODE
 70
0
  9
$VISRETAIN
 70
1
  9
$PLINEGEN
 70
0
  9
$PSLTSCALE
 70
1
  9
$TREEDEPTH
 70
3020
  9
$CMLSTYLE
  2
Standard
  9
$CMLJUST
 70
0
  9
$CMLSCALE
 40
20.0
  9
$PROXYGRAPHICS
 70
1
  9
$MEASUREMENT
 70
1
  9
$CELWEIGHT
370
-1
  9
$ENDCAPS
280
0
  9
$JOINSTYLE
280
0
  9
$LWDISPLAY
290
0
  9
$INSUNITS
 70
5
  9
$HYPERLINKBASE
  1

  9
$STYLESHEET
  1

  9
$XEDIT
290
1
  9
$CEPSNTYPE
380
0
  9
$PSTYLEMODE
290
1
  9
$FINGERPRINTGUID
  2
{92A07A28-0832-438E-830A-C8F441E8971D}
  9
$VERSIONGUID
  2
{6684DE39-AF28-4C9F-AED7-B30EF0FF0219}
  9
$EXTNAMES
290
1
  9
$PSVPSCALE
 40
0.0
  9
$OLESTARTUP
290
0
  9
$SORTENTS
280
127
  9
$INDEXCTL
280
0
  9
$HIDETEXT
280
1
  9
$XCLIPFRAME
280
1
  9
$HALOGAP
280
0
  9
$OBSCOLOR
 70
257
  9
$OBSLTYPE
280
0
  9
$INTERSECTIONDISPLAY
280
0
  9
$INTERSECTIONCOLOR
 70
257
  9
$DIMASSOC
280
2
  9
$PROJECTNAME
  1

  9
$CAMERADISPLAY
290
0
  9
$LENSLENGTH
 40
50.0
  9
$CAMERAHEIGHT
 40
0.0
  9
$STEPSPERSEC
 40
24.0
  9
$STEPSIZE
 40
100.0
  9
$3DDWFPREC
 40
2.0
  9
$PSOLWIDTH
 40
0.005
  9
$PSOLHEIGHT
 40
0.08
  9
$LOFTANG1
 40
1.570796326795
  9
$LOFTANG2
 40
1.570796326795
  9
$LOFTMAG1
 40
0.0
  9
$LOFTMAG2
 40
0.0
  9
$LOFTPARAM
 70
7
  9
$LOFTNORMALS
280
1
  9
$LATITUDE
 40
37.795
  9
$LONGITUDE
 40
-122.394
  9
$NORTHDIRECTION
 40
0.0
  9
$TIMEZONE
 70
-8000
  9
$LIGHTGLYPHDISPLAY
280
1
  9
$TILEMODELIGHTSYNCH
280
1
  9
$CMATERIAL
347
20
  9
$SOLIDHIST
280
0
  9
$SHOWHIST
280
1
  9
$DWFFRAME
280
2
  9
$DGNFRAME
280
2
  9
$REALWORLDSCALE
290
1
  9
$INTERFERECOLOR
 62
256
  9
$CSHADOW
280
0
  9
$SHADOWPLANELOCATION
 40
0.0
  0
ENDSEC
  0
SECTION
  2
CLASSES
  0
CLASS
  1
ACDBDICTIONARYWDFLT
  2
AcDbDictionaryWithDefault
  3
ObjectDBX Classes
 90
0
 91
0
280
0
281
0
  0
CLASS
  1
SUN
  2
AcDbSun
  3
SCENEOE
 90
1153
 91
0
280
0
281
0
  0
CLASS
  1
VISUALSTYLE
  2
AcDbVisualStyle
  3
ObjectDBX Classes
 90
4095
 91
0
280
0
281
0
  0
CLASS
  1
MATERIAL
  2
AcDbMaterial
  3
ObjectDBX Classes
 90
1153
 91
0
280
0
281
0
  0
CLASS
  1
SCALE
  2
AcDbScale
  3
ObjectDBX Classes
 90
1153
 91
0
280
0
281
0
  0
CLASS
  1
TABLESTYLE
  2
AcDbTableStyle
  3
ObjectDBX Classes
 90
4095
 91
0
280
0
281
0
  0
CLASS
  1
MLEADERSTYLE
  2
AcDbMLeaderStyle
  3
ACDB_MLEADERSTYLE_CLASS
 90
4095
 91
0
280
0
281
0
  0
CLASS
  1
DICTIONARYVAR
  2
AcDbDictionaryVar
  3
ObjectDBX Classes
 90
0
 91
0
280
0
281
0
  0
CLASS
  1
CELLSTYLEMAP
  2
AcDbCellStyleMap
  3
ObjectDBX Classes
 90
1152
 91
0
280
0
281
0
  0
CLASS
  1
MENTALRAYRENDERSETTINGS
  2
AcDbMentalRayRenderSettings
  3
SCENEOE
 90
1024
 91
0
280
0
281
0
  0
CLASS
  1
ACDBDETAILVIEWSTYLE
  2
AcDbDetailViewStyle
  3
ObjectDBX Classes
 90
1025
 91
0
280
0
281
0
  0
CLASS
  1
ACDBSECTIONVIEWSTYLE
  2
AcDbSectionViewStyle
  3
ObjectDBX Classes
 90
1025
 91
0
280
0
281
0
  0
CLASS
  1
RASTERVARIABLES
  2
AcDbRasterVariables
  3
ISM
 90
0
 91
0
280
0
281
0
  0
CLASS
  1
ACDBPLACEHOLDER
  2
AcDbPlaceHolder
  3
ObjectDBX Classes
 90
0
 91
0
280
0
281
0
  0
CLASS
  1
LAYOUT
  2
AcDbLayout
  3
ObjectDBX Classes
 90
0
 91
0
280
0
281
0
  0
ENDSEC
  0
SECTION
  2
TABLES
  0
TABLE
  2
VPORT
  5
8
330
0
100
AcDbSymbolTable
 70
1
  0
VPORT
  5
23
330
8
100
AcDbSymbolTableRecord
100
AcDbViewportTableRecord
  2
*Active
 70
0
 10
0.0
 20
0.0
 11
1.0
 21
1.0
 12
0.0
 22
0.0
 13
0.0
 23
0.0
 14
0.5
 24
0.5
 15
0.5
 25
0.5
 16
0.0
 26
0.0
 36
1.0
 17
0.0
 27
0.0
 37
0.0
 40
1000.0
 41
1.34
 42
50.0
 43
0.0
 44
0.0
 50
0.0
 51
0.0
 71
0
 72
1000
 73
1
 74
3
 75
0
 76
0
 77
0
 78
0
281
0
 65
0
146
0.0
  0
ENDTAB
  0
TABLE
  2
LTYPE
  5
2
330
0
100
AcDbSymbolTable
 70
3
  0
LTYPE
  5
24
330
2
100
AcDbSymbolTableRecord
100
AcDbLinetypeTableRecord
  2
ByBlock
 70
0
  3

 72
65
 73
0
 40
0.0
  0
LTYPE
  5
25
330
2
100
AcDbSymbolTableRecord
100
AcDbLinetypeTableRecord
  2
ByLayer
 70
0
  3

 72
65
 73
0
 40
0.0
  0
LTYPE
  5
26
330
2
100
AcDbSymbolTableRecord
100
AcDbLinetypeTableRecord
  2
Continuous
 70
0
  3

 72
65
 73
0
 40
0.0
  0
ENDTAB
  0
TABLE
  2
LAYER
  5
1
330
0
100
AcDbSymbolTable
 70
5
  0
LAYER
  5
27
330
1
100
AcDbSymbolTableRecord
100
AcDbLayerTableRecord
  2
0
 70
0
 62
7
  6
Continuous
370
-3
390
13
347
21
  0
LAYER
  5
28
330
1
100
AcDbSymbolTableRecord
100
AcDbLayerTableRecord
  2
Defpoints
 70
0
 62
7
  6
Continuous
290
0
370
-3
390
13
347
21
  0
LAYER
  5
2F
330
1
100
AcDbSymbolTableRecord
100
AcDbLayerTableRecord
  2
WALL
 70
0
 62
7
  6
Continuous
370
-3
390
13
347
21
  0
LAYER
  5
30
330
1
100
AcDbSymbolTableRecord
100
AcDbLayerTableRecord
  2
WINDOW
 70
0
 62
5
  6
Continuous
370
-3
390
13
347
21
  0
LAYER
  5
1F5
330
1
100
AcDbSymbolTableRecord
100
AcDbLayerTableRecord
  2
DOORZONE
 70
0
 62
2
  6
Continuous
370
-3
390
13
347
21
  0
ENDTAB
  0
TABLE
  2
STYLE
  5
5
330
0
100
AcDbSymbolTable
 70
1
  0
STYLE
  5
29
330
5
100
AcDbSymbolTableRecord
100
AcDbTextStyleTableRecord
  2
Standard
 70
0
 40
0.0
 41
1.0
 50
0.0
 71
0
 42
2.5
  3
txt
  4

  0
ENDTAB
  0
TABLE
  2
VIEW
  5
7
330
0
100
AcDbSymbolTable
 70
0
  0
ENDTAB
  0
TABLE
  2
UCS
  5
6
330
0
100
AcDbSymbolTable
 70
0
  0
ENDTAB
  0
TABLE
  2
APPID
  5
3
330
0
100
AcDbSymbolTable
 70
3
  0
APPID
  5
2A
330
3
100
AcDbSymbolTableRecord
100
AcDbRegAppTableRecord
  2
ACAD
 70
0
  0
APPID
  5
21C
330
3
100
AcDbSymbolTableRecord
100
AcDbRegAppTableRecord
  2
HATCHBACKGROUNDCOLOR
 70
0
  0
APPID
  5
21D
330
3
100
AcDbSymbolTableRecord
100
AcDbRegAppTableRecord
  2
EZDXF
 70
0
  0
ENDTAB
  0
TABLE
  2
DIMSTYLE
  5
4
330
0
100
AcDbSymbolTable
 70
1
100
AcDbDimStyleTable
  0
DIMSTYLE
105
2B
330
4
100
AcDbSymbolTableRecord
100
AcDbDimStyleTableRecord
  2
Standard
 70
0
 40
1.0
 41
2.5
 42
0.625
 43
3.75
 44
1.25
 45
0.0
 46
0.0
 47
0.0
 48
0.0
 49
2.5
140
2.5
141
2.5
142
0.0
143
0.03937007874
144
1.0
145
0.0
146
1.0
147
0.625
148
0.0
 69
0
 70
0
 71
0
 72
0
 73
0
 74
0
 75
0
 76
0
 77
1
 78
8
 79
3
170
0
171
3
172
1
173
0
174
0
175
0
176
0
177
0
178
0
179
2
271
2
272
2
273
2
274
3
275
0
276
0
277
2
278
44
279
0
280
0
281
0
282
0
283
0
284
8
285
0
286
0
288
0
289
3
290
0
371
-2
372
-2
  0
ENDTAB
  0
TABLE
  2
BLOCK_RECORD
  5
9
330
0
100
AcDbSymbolTable
 70
2
  0
BLOCK_RECORD
  5
17
330
9
100
AcDbSymbolTableRecord
100
AcDbBlockTableRecord
  2
*Model_Space
340
1A
 70
0
280
1
281
0
  0
BLOCK_RECORD
  5
1B
330
9
100
AcDbSymbolTableRecord
100
AcDbBlockTableRecord
  2
*Paper_Space
340
1E
 70
0
280
1
281
0
  0
ENDTAB
  0
ENDSEC
  0
SECTION
  2
BLOCKS
  0
BLOCK
  5
18
330
17
100
AcDbEntity
  8
0
100
AcDbBlockBegin
  2
*Model_Space
 70
0
 10
0.0
 20
0.0
 30
0.0
  3
*Model_Space
  1

  0
ENDBLK
  5
19
330
17
100
AcDbEntity
  8
0
100
AcDbBlockEnd
  0
BLOCK
  5
1C
330
1B
100
AcDbEntity
  8
0
100
AcDbBlockBegin
  2
*Paper_Space
 70
0
 10
0.0
 20
0.0
 30
0.0
  3
*Paper_Space
  1

  0
ENDBLK
  5
1D
330
1B
100
AcDbEntity
  8
0
100
AcDbBlockEnd
  0
ENDSEC
  0
SECTION
  2
ENTITIES
  0
LWPOLYLINE
  5
31
330
17
100
AcDbEntity
  8
WALL
100
AcDbPolyline
 90
4
 70
1
 10
248.57142857142856
 20
2727.8571428571427
 10
291.42857142857144
 20
2727.8571428571427
 10
291.42857142857144
 20
2719.285714285714
 10
248.57142857142856
 20
2719.285714285714
  0
HATCH
  5
32
330
17
100
AcDbEntity
  8
WALL
100
AcDbHatch
 10
0.0
 20
0.0
 30
0.0
210
0.0
220
0.0
230
1.0
  2
SOLID
 70
1
 71
0
 91
1
 92
3
 72
0
 73
1
 93
4
 10
248.57142857142856
 20
2727.8571428571427
 10
291.42857142857144
 20
2727.8571428571427
 10
291.42857142857144
 20
2719.285714285714
 10
248.57142857142856
 20
2719.285714285714
 97
0
 75
1
 76
1
 98
0
  0
LWPOLYLINE
  5
33
330
17
100
AcDbEntity
  8
WALL
100
AcDbPolyline
 90
4
 70
1
 10
467.1428571428571
 20
2727.8571428571427
 10
514.2857142857142
 20
2727.8571428571427
 10
514.2857142857142
 20
2719.285714285714
 10
467.1428571428571
 20
2719.285714285714
  0
HATCH
  5
34
330
17
100
AcDbEntity
  8
WALL
100
AcDbHatch
 10
0.0
 20
0.0
 30
0.0
210
0.0
220
0.0
230
1.0
  2
SOLID
 70
1
 71
0
 91
1
 92
3
 72
0
 73
1
 93
4
 10
467.1428571428571
 20
2727.8571428571427
 10
514.2857142857142
 20
2727.8571428571427
 10
514.2857142857142
 20
2719.285714285714
 10
467.1428571428571
 20
2719.285714285714
 97
0
 75
1
 76
1
 98
0
  0
LWPOLYLINE
  5
35
330
17
100
AcDbEntity
  8
WALL
100
AcDbPolyline
 90
4
 70
1
 10
1414.2857142857142
 20
2727.8571428571427
 10
1457.142857142857
 20
2727.8571428571427
 10
1457.142857142857
 20
2719.285714285714
 10
1414.2857142857142
 20
2719.285714285714
  0
HATCH
  5
36
330
17
100
AcDbEntity
  8
WALL
100
AcDbHatch
 10
0.0
 20
0.0
 30
0.0
210
0.0
220
0.0
230
1.0
  2
SOLID
 70
1
 71
0
 91
1
 92
3
 72
0
 73
1
 93
4
 10
1414.2857142857142
 20
2727.8571428571427
 10
1457.142857142857
 20
2727.8571428571427
 10
1457.142857142857
 20
2719.285714285714
 10
1414.2857142857142
 20
2719.285714285714
 97
0
 75
1
 76
1
 98
0
  0
LWPOLYLINE
  5
37
330
17
100
AcDbEntity
  8
WALL
100
AcDbPolyline
 90
4
 70
1
 10
1632.857142857143
 20
2727.8571428571427
 10
1675.7142857142856
 20
2727.8571428571427
 10
1675.7142857142856
 20
2721.4285714285716
 10
1632.857142857143
 20
2721.4285714285716
  0
HATCH
  5
38
330
17
100
AcDbEntity
  8
WALL
100
AcDbHatch
 10
0.0
 20
0.0
 30
0.0
210
0.0
220
0.0
230
1.0
  2
SOLID
 70
1
 71
0
 91
1
 92
3
 72
0
 73
1
 93
4
 10
1632.857142857143
 20
2727.8571428571427
 10
1675.7142857142856
 20
2727.8571428571427
 10
1675.7142857142856
 20
2721.4285714285716
 10
1632.857142857143
 20
2721.4285714285716
 97
0
 75
1
 76
1
 98
0
  0
LWPOLYLINE
  5
39
330
17
100
AcDbEntity
  8
WALL
100
AcDbPolyline
 90
4
 70
1
 10
1414.2857142857142
 20
2715.0
 10
1457.142857142857
 20
2715.0
 10
1457.142857142857
 20
2706.4285714285716
 10
1414.2857142857142
 20
2706.4285714285716
  0
HATCH
  5
3A
330
17
100
AcDbEntity
  8
WALL
100
AcDbHatch
 10
0.0
 20
0.0
 30
0.0
210
0.0
220
0.0
230
1.0
  2
SOLID
 70
1
 71
0
 91
1
 92
3
 72
0
 73
1
 93
4
 10
1414.2857142857142
 20
2715.0
 10
1457.142857142857
 20
2715.0
 10
1457.142857142857
 20
2706.4285714285716
 10
1414.2857142857142
 20
2706.4285714285716
 97
0
 75
1
 76
1
 98
0
  0
LWPOLYLINE
  5
3B
330
17
100
AcDbEntity
  8
WALL
100
AcDbPolyline
 90
4
 70
1
 10
1675.7142857142856
 20
2685.0
 10
1864.2857142857142
 20
2685.0
 10
1864.2857142857142
 20
2676.4285714285716
 10
1675.7142857142856
 20
2676.4285714285716
  0
HATCH
  5
3C
330
17
100
AcDbEntity
  8
WALL
100
AcDbHatch
 10
0.0
 20
0.0
 30
0.0
210
0.0
220
0.0
230
1.0
  2
SOLID
 70
1
 71
0
 91
1
 92
3
 72
0
 73
1
 93
4
 10
1675.7142857142856
 20
2685.0
 10
1864.2857142857142
 20
2685.0
 10
1864.2857142857142
 20
2676.4285714285716
 10
1675.7142857142856
 20
2676.4285714285716
 97
0
 75
1
 76
1
 98
0
  0
LWPOLYLINE
  5
3D
330
17
100
AcDbEntity
  8
WALL
100
AcDbPolyline
 90
4
 70
1
 10
707.1428571428571
 20
2496.4285714285716
 10
1000.7142857142857
 20
2496.4285714285716
 10
1000.7142857142857
 20
2470.714285714286
 10
707.1428571428571
 20
2470.714285714286
  0
HATCH
  5
3E
330
17
100
AcDbEntity
  8
WALL
100
AcDbHatch
 10
0.0
 20
0.0
 30
0.0
210
0.0
220
0.0
230
1.0
  2
SOLID
 70
1
 71
0
 91
1
 92
3
 72
0
 73
1
 93
4
 10
707.1428571428571
 20
2496.4285714285716
 10
1000.7142857142857
 20
2496.4285714285716
 10
1000.7142857142857
 20
2470.714285714286
 10
707.1428571428571
 20
2470.714285714286
 97
0
 75
1
 76
1
 98
0
  0
LWPOLYLINE
  5
3F
330
17
100
AcDbEntity
  8
WALL
100
AcDbPolyline
 90
4
 70
1
 10
1060.7142857142858
 20
2496.4285714285716
 10
1110.0
 20
2496.4285714285716
 10
1110.0
 20
2470.714285714286
 10
1060.7142857142858
 20
2470.714285714286
  0
HATCH
  5
40
330
17
100
AcDbEntity
  8
WALL
100
AcDbHatch
 10
0.0
 20
0.0
 30
0.0
210
0.0
220
0.0
230
1.0
  2
SOLID
 70
1
 71
0
 91
1
 92
3
 72
0
 73
1
 93
4
 10
1060.7142857142858
 20
2496.4285714285716
 10
1110.0
 20
2496.4285714285716
 10
1110.0
 20
2470.714285714286
 10
1060.7142857142858
 20
2470.714285714286
 97
0
 75
1
 76
1
 98
0
  0
LWPOLYLINE
  5
41
330
17
100
AcDbEntity
  8
WALL
100
AcDbPolyline
 90
4
 70
1
 10
1414.2857142857142
 20
2496.4285714285716
 10
1457.142857142857
 20
2496.4285714285716
 10
1457.142857142857
 20
2487.8571428571427
 10
1414.2857142857142
 20
2487.8571428571427
  0
HATCH
  5
42
330
17
100
AcDbEntity
  8
WALL
100
AcDbHatch
 10
0.0
 20
0.0
 30
0.0
210
0.0
220
0.0
230
1.0
  2
SOLID
 70
1
 71
0
 91
1
 92
3
 72
0
 73
1
 93
4
 10
1414.2857142857142
 20
2496.4285714285716
 10
1457.142857142857
 20
2496.4285714285716
 10
1457.142857142857
 20
2487.8571428571427
 10
1414.2857142857142
 20
2487.8571428571427
 97
0
 75
1
 76
1
 98
0
  0
LWPOLYLINE
  5
43
330
17
100
AcDbEntity
  8
WALL
100
AcDbPolyline
 90
4
 70
1
 10
1772.142857142857
 20
2496.4285714285716
 10
1847.142857142857
 20
2496.4285714285716
 10
1847.142857142857
 20
2470.714285714286
 10
1772.142857142857
 20
2470.714285714286
  0
HATCH
  5
44
330
17
100
AcDbEntity
  8
WALL
100
AcDbHatch
 10
0.0
 20
0.0
 30
0.0
210
0.0
220
0.0
230
1.0
  2
SOLID
 70
1
 71
0
 91
1
 92
3
 72
0
 73
1
 93
4
 10
1772.142857142857
 20
2496.4285714285716
 10
1847.142857142857
 20
2496.4285714285716
 10
1847.142857142857
 20
2470.714285714286
 10
1772.142857142857
 20
2470.714285714286
 97
0
 75
1
 76
1
 98
0
  0
LWPOLYLINE
  5
45
330
17
100
AcDbEntity
  8
WALL
100
AcDbPolyline
 90
4
 70
1
 10
111.42857142857143
 20
2462.142857142857
 10
694.2857142857142
 20
2462.142857142857
 10
694.2857142857142
 20
2449.285714285714
 10
111.42857142857143
 20
2449.285714285714
  0
HATCH
  5
46
330
17
100
AcDbEntity
  8
WALL
100
AcDbHatch
 10
0.0
 20
0.0
 30
0.0
210
0.0
220
0.0
230
1.0
  2
SOLID
 70
1
 71
0
 91
1
 92
3
 72
0
 73
1
 93
4
 10
111.42857142857143
 20
2462.142857142857
 10
694.2857142857142
 20
2462.142857142857
 10
694.2857142857142
 20
2449.285714285714
 10
111.42857142857143
 20
2449.285714285714
 97
0
 75
1
 76
1
 98
0
  0
LWPOLYLINE
  5
47
330
17
100
AcDbEntity
  8
WALL
100
AcDbPolyline
 90
4
 70
1
 10
1105.7142857142858
 20
2462.142857142857
 10
1414.2857142857142
 20
2462.142857142857
 10
1414.2857142857142
 20
2453.5714285714284
 10
1105.7142857142858
 20
2453.5714285714284
  0
HATCH
  5
48
330
17
100
AcDbEntity
  8
WALL
100
AcDbHatch
 10
0.0
 20
0.0
 30
0.0
210
0.0
220
0.0
230
1.0
  2
SOLID
 70
1
 71
0
 91
1
 92
3
 72
0
 73
1
 93
4
 10
1105.7142857142858
 20
2462.142857142857
 10
1414.2857142857142
 20
2462.142857142857
 10
1414.2857142857142
 20
2453.5714285714284
 10
1105.7142857142858
 20
2453.5714285714284
 97
0
 75
1
 76
1
 98
0
  0
LWPOLYLINE
  5
49
330
17
100
AcDbEntity
  8
WALL
100
AcDbPolyline
 90
4
 70
1
 10
1452.857142857143
 20
2462.142857142857
 10
1626.4285714285713
 20
2462.142857142857
 10
1626.4285714285713
 20
2453.5714285714284
 10
1452.857142857143
 20
2453.5714285714284
  0
HATCH
  5
4A
330
17
100
AcDbEntity
  8
WALL
100
AcDbHatch
 10
0.0
 20
0.0
 30
0.0
210
0.0
220
0.0
230
1.0
  2
SOLID
 70
1
 71
0
 91
1
 92
3
 72
0
 73
1
 93
4
 10
1452.857142857143
 20
2462.142857142857
 10
1626.4285714285713
 20
2462.142857142857
 10
1626.4285714285713
 20
2453.5714285714284
 10
1452.857142857143
 20
2453.5714285714284
 97
0
 75
1
 76
1
 98
0
  0
LWPOLYLINE
  5
4B
330
17
100
AcDbEntity
  8
WALL
100
AcDbPolyline
 90
4
 70
1
 10
741.4285714285714
 20
2457.8571428571427
 10
887.1428571428571
 20
2457.8571428571427
 10
887.1428571428571
 20
2449.285714285714
 10
741.4285714285714
 20
2449.285714285714
  0
HATCH
  5
4C
330
17
100
AcDbEntity
  8
WALL
100
AcDbHatch
 10
0.0
 20
0.0
 30
0.0
210
0.0
220
0.0
230
1.0
  2
SOLID
 70
1
 71
0
 91
1
 92
3
 72
0
 73
1
 93
4
 10
741.4285714285714
 20
2457.8571428571427
 10
887.1428571428571
 20
2457.8571428571427
 10
887.1428571428571
 20
2449.285714285714
 10
741.4285714285714
 20
2449.285714285714
 97
0
 75
1
 76
1
 98
0
  0
LWPOLYLINE
  5
4D
330
17
100
AcDbEntity
  8
WALL
100
AcDbPolyline
 90
4
 70
1
 10
912.8571428571428
 20
2457.8571428571427
 10
1062.857142857143
 20
2457.8571428571427
 10
1062.857142857143
 20
2449.285714285714
 10
912.8571428571428
 20
2449.285714285714
  0
HATCH
  5
4E
330
17
100
AcDbEntity
  8
WALL
100
AcDbHatch
 10
0.0
 20
0.0
 30
0.0
210
0.0
220
0.0
230
1.0
  2
SOLID
 70
1
 71
0
 91
1
 92
3
 72
0
 73
1
 93
4
 10
912.8571428571428
 20
2457.8571428571427
 10
1062.857142857143
 20
2457.8571428571427
 10
1062.857142857143
 20
2449.285714285714
 10
912.8571428571428
 20
2449.285714285714
 97
0
 75
1
 76
1
 98
0
  0
LWPOLYLINE
  5
4F
330
17
100
AcDbEntity
  8
WALL
100
AcDbPolyline
 90
4
 70
1
 10
741.4285714285714
 20
2025.0
 10
805.7142857142857
 20
2025.0
 10
805.7142857142857
 20
2016.4285714285713
 10
741.4285714285714
 20
2016.4285714285713
  0
HATCH
  5
50
330
17
100
AcDbEntity
  8
WALL
100
AcDbHatch
 10
0.0
 20
0.0
 30
0.0
210
0.0
220
0.0
230
1.0
  2
SOLID
 70
1
 71
0
 91
1
 92
3
 72
0
 73
1
 93
4
 10
741.4285714285714
 20
2025.0
 10
805.7142857142857
 20
2025.0
 10
805.7142857142857
 20
2016.4285714285713
 10
741.4285714285714
 20
2016.4285714285713
 97
0
 75
1
 76
1
 98
0
  0
LWPOLYLINE
  5
51
330
17
100
AcDbEntity
  8
WALL
100
AcDbPolyline
 90
4
 70
1
 10
810.0
 20
2025.0
 10
870.0
 20
2025.0
 10
870.0
 20
2016.4285714285713
 10
810.0
 20
2016.4285714285713
  0
HATCH
  5
52
330
17
100
AcDbEntity
  8
WALL
100
AcDbHatch
 10
0.0
 20
0.0
 30
0.0
210
0.0
220
0.0
230
1.0
  2
SOLID
 70
1
 71
0
 91
1
 92
3
 72
0
 73
1
 93
4
 10
810.0
 20
2025.0
 10
870.0
 20
2025.0
 10
870.0
 20
2016.4285714285713
 10
810.0
 20
2016.4285714285713
 97
0
 75
1
 76
1
 98
0
  0
LWPOLYLINE
  5
53
330
17
100
AcDbEntity
  8
WALL
100
AcDbPolyline
 90
4
 70
1
 10
921.4285714285714
 20
2025.0
 10
1015.7142857142857
 20
2025.0
 10
1015.7142857142857
 20
2016.4285714285713
 10
921.4285714285714
 20
2016.4285714285713
  0
HATCH
  5
54
330
17
100
AcDbEntity
  8
WALL
100
AcDbHatch
 10
0.0
 20
0.0
 30
0.0
210
0.0
220
0.0
230
1.0
  2
SOLID
 70
1
 71
0
 91
1
 92
3
 72
0
 73
1
 93
4
 10
921.4285714285714
 20
2025.0
 10
1015.7142857142857
 20
2025.0
 10
1015.7142857142857
 20
2016.4285714285713
 10
921.4285714285714
 20
2016.4285714285713
 97
0
 75
1
 76
1
 98
0
  0
LWPOLYLINE
  5
55
330
17
100
AcDbEntity
  8
WALL
100
AcDbPolyline
 90
4
 70
1
 10
1032.857142857143
 20
2020.7142857142856
 10
1075.7142857142858
 20
2020.7142857142856
 10
1075.7142857142858
 20
2016.4285714285713
 10
1032.857142857143
 20
2016.4285714285713
  0
HATCH
  5
56
330
17
100
AcDbEntity
  8
WALL
100
AcDbHatch
 10
0.0
 20
0.0
 30
0.0
210
0.0
220
0.0
230
1.0
  2
SOLID
 70
1
 71
0
 91
1
 92
3
 72
0
 73
1
 93
4
 10
1032.857142857143
 20
2020.7142857142856
 10
1075.7142857142858
 20
2020.7142857142856
 10
1075.7142857142858
 20
2016.4285714285713
 10
1032.857142857143
 20
2016.4285714285713
 97
0
 75
1
 76
1
 98
0
  0
LWPOLYLINE
  5
57
330
17
100
AcDbEntity
  8
WALL
100
AcDbPolyline
 90
4
 70
1
 10
1611.4285714285713
 20
2003.5714285714284
 10
1650.0
 20
2003.5714285714284
 10
1650.0
 20
2001.4285714285713
 10
1611.4285714285713
 20
2001.4285714285713
  0
HATCH
  5
58
330
17
100
AcDbEntity
  8
WALL
100
AcDbHatch
 10
0.0
 20
0.0
 30
0.0
210
0.0
220
0.0
230
1.0
  2
SOLID
 70
1
 71
0
 91
1
 92
3
 72
0
 73
1
 93
4
 10
1611.4285714285713
 20
2003.5714285714284
 10
1650.0
 20
2003.5714285714284
 10
1650.0
 20
2001.4285714285713
 10
1611.4285714285713
 20
2001.4285714285713
 97
0
 75
1
 76
1
 98
0
  0
LWPOLYLINE
  5
59
330
17
100
AcDbEntity
  8
WALL
100
AcDbPolyline
 90
4
 70
1
 10
1362.857142857143
 20
1969.2857142857142
 10
1714.2857142857142
 20
1969.2857142857142
 10
1714.2857142857142
 20
1956.4285714285713
 10
1362.857142857143
 20
1956.4285714285713
  0
HATCH
  5
5A
330
17
100
AcDbEntity
  8
WALL
100
AcDbHatch
 10
0.0
 20
0.0
 30
0.0
210
0.0
220
0.0
230
1.0
  2
SOLID
 70
1
 71
0
 91
1
 92
3
 72
0
 73
1
 93
4
 10
1362.857142857143
 20
1969.2857142857142
 10
1714.2857142857142
 20
1969.2857142857142
 10
1714.2857142857142
 20
1956.4285714285713
 10
1362.857142857143
 20
1956.4285714285713
 97
0
 75
1
 76
1
 98
0
  0
LWPOLYLINE
  5
5B
330
17
100
AcDbEntity
  8
WALL
100
AcDbPolyline
 90
4
 70
1
 10
304.2857142857143
 20
1836.4285714285713
 10
355.7142857142857
 20
1836.4285714285713
 10
355.7142857142857
 20
1827.857142857143
 10
304.2857142857143
 20
1827.857142857143
  0
HATCH
  5
5C
330
17
100
AcDbEntity
  8
WALL
100
AcDbHatch
 10
0.0
 20
0.0
 30
0.0
210
0.0
220
0.0
230
1.0
  2
SOLID
 70
1
 71
0
 91
1
 92
3
 72
0
 73
1
 93
4
 10
304.2857142857143
 20
1836.4285714285713
 10
355.7142857142857
 20
1836.4285714285713
 10
355.7142857142857
 20
1827.857142857143
 10
304.2857142857143
 20
1827.857142857143
 97
0
 75
1
 76
1
 98
0
  0
LWPOLYLINE
  5
5D
330
17
100
AcDbEntity
  8
WALL
100
AcDbPolyline
 90
4
 70
1
 10
582.8571428571429
 20
1827.857142857143
 10
642.8571428571429
 20
1827.857142857143
 10
642.8571428571429
 20
1819.2857142857142
 10
582.8571428571429
 20
1819.2857142857142
  0
HATCH
  5
5E
330
17
100
AcDbEntity
  8
WALL
100
AcDbHatch
 10
0.0
 20
0.0
 30
0.0
210
0.0
220
0.0
230
1.0
  2
SOLID
 70
1
 71
0
 91
1
 92
3
 72
0
 73
1
 93
4
 10
582.8571428571429
 20
1827.857142857143
 10
642.8571428571429
 20
1827.857142857143
 10
642.8571428571429
 20
1819.2857142857142
 10
582.8571428571429
 20
1819.2857142857142
 97
0
 75
1
 76
1
 98
0
  0
LWPOLYLINE
  5
5F
330
17
100
AcDbEntity
  8
WALL
100
AcDbPolyline
 90
4
 70
1
 10
891.4285714285714
 20
1692.857142857143
 10
930.0
 20
1692.857142857143
 10
930.0
 20
1684.2857142857142
 10
891.4285714285714
 20
1684.2857142857142
  0
HATCH
  5
60
330
17
100
AcDbEntity
  8
WALL
100
AcDbHatch
 10
0.0
 20
0.0
 30
0.0
210
0.0
220
0.0
230
1.0
  2
SOLID
 70
1
 71
0
 91
1
 92
3
 72
0
 73
1
 93
4
 10
891.4285714285714
 20
1692.857142857143
 10
930.0
 20
1692.857142857143
 10
930.0
 20
1684.2857142857142
 10
891.4285714285714
 20
1684.2857142857142
 97
0
 75
1
 76
1
 98
0
  0
LWPOLYLINE
  5
61
330
17
100
AcDbEntity
  8
WALL
100
AcDbPolyline
 90
4
 70
1
 10
407.1428571428571
 20
1583.5714285714284
 10
471.4285714285714
 20
1583.5714285714284
 10
471.4285714285714
 20
1575.0
 10
407.1428571428571
 20
1575.0
  0
HATCH
  5
62
330
17
100
AcDbEntity
  8
WALL
100
AcDbHatch
 10
0.0
 20
0.0
 30
0.0
210
0.0
220
0.0
230
1.0
  2
SOLID
 70
1
 71
0
 91
1
 92
3
 72
0
 73
1
 93
4
 10
407.1428571428571
 20
1583.5714285714284
 10
471.4285714285714
 20
1583.5714285714284
 10
471.4285714285714
 20
1575.0
 10
407.1428571428571
 20
1575.0
 97
0
 75
1
 76
1
 98
0
  0
LWPOLYLINE
  5
63
330
17
100
AcDbEntity
  8
WALL
100
AcDbPolyline
 90
4
 70
1
 10
222.85714285714286
 20
1562.142857142857
 10
630.0
 20
1562.142857142857
 10
630.0
 20
1540.7142857142858
 10
222.85714285714286
 20
1540.7142857142858
  0
HATCH
  5
64
330
17
100
AcDbEntity
  8
WALL
100
AcDbHatch
 10
0.0
 20
0.0
 30
0.0
210
0.0
220
0.0
230
1.0
  2
SOLID
 70
1
 71
0
 91
1
 92
3
 72
0
 73
1
 93
4
 10
222.85714285714286
 20
1562.142857142857
 10
630.0
 20
1562.142857142857
 10
630.0
 20
1540.7142857142858
 10
222.85714285714286
 20
1540.7142857142858
 97
0
 75
1
 76
1
 98
0
  0
LWPOLYLINE
  5
65
330
17
100
AcDbEntity
  8
WALL
100
AcDbPolyline
 90
4
 70
1
 10
1495.7142857142858
 20
1485.0
 10
1542.857142857143
 20
1485.0
 10
1542.857142857143
 20
1476.4285714285713
 10
1495.7142857142858
 20
1476.4285714285713
  0
HATCH
  5
66
330
17
100
AcDbEntity
  8
WALL
100
AcDbHatch
 10
0.0
 20
0.0
 30
0.0
210
0.0
220
0.0
230
1.0
  2
SOLID
 70
1
 71
0
 91
1
 92
3
 72
0
 73
1
 93
4
 10
1495.7142857142858
 20
1485.0
 10
1542.857142857143
 20
1485.0
 10
1542.857142857143
 20
1476.4285714285713
 10
1495.7142857142858
 20
1476.4285714285713
 97
0
 75
1
 76
1
 98
0
  0
LWPOLYLINE
  5
67
330
17
100
AcDbEntity
  8
WALL
100
AcDbPolyline
 90
4
 70
1
 10
1277.142857142857
 20
1416.4285714285713
 10
1431.4285714285713
 20
1416.4285714285713
 10
1431.4285714285713
 20
1407.857142857143
 10
1277.142857142857
 20
1407.857142857143
  0
HATCH
  5
68
330
17
100
AcDbEntity
  8
WALL
100
AcDbHatch
 10
0.0
 20
0.0
 30
0.0
210
0.0
220
0.0
230
1.0
  2
SOLID
 70
1
 71
0
 91
1
 92
3
 72
0
 73
1
 93
4
 10
1277.142857142857
 20
1416.4285714285713
 10
1431.4285714285713
 20
1416.4285714285713
 10
1431.4285714285713
 20
1407.857142857143
 10
1277.142857142857
 20
1407.857142857143
 97
0
 75
1
 76
1
 98
0
  0
LWPOLYLINE
  5
69
330
17
100
AcDbEntity
  8
WALL
100
AcDbPolyline
 90
4
 70
1
 10
1517.142857142857
 20
1369.2857142857142
 10
1581.4285714285713
 20
1369.2857142857142
 10
1581.4285714285713
 20
1360.7142857142858
 10
1517.142857142857
 20
1360.7142857142858
  0
HATCH
  5
6A
330
17
100
AcDbEntity
  8
WALL
100
AcDbHatch
 10
0.0
 20
0.0
 30
0.0
210
0.0
220
0.0
230
1.0
  2
SOLID
 70
1
 71
0
 91
1
 92
3
 72
0
 73
1
 93
4
 10
1517.142857142857
 20
1369.2857142857142
 10
1581.4285714285713
 20
1369.2857142857142
 10
1581.4285714285713
 20
1360.7142857142858
 10
1517.142857142857
 20
1360.7142857142858
 97
0
 75
1
 76
1
 98
0
  0
LWPOLYLINE
  5
6B
330
17
100
AcDbEntity
  8
WALL
100
AcDbPolyline
 90
4
 70
1
 10
1277.142857142857
 20
1339.2857142857142
 10
1350.0
 20
1339.2857142857142
 10
1350.0
 20
1326.4285714285713
 10
1277.142857142857
 20
1326.4285714285713
  0
HATCH
  5
6C
330
17
100
AcDbEntity
  8
WALL
100
AcDbHatch
 10
0.0
 20
0.0
 30
0.0
210
0.0
220
0.0
230
1.0
  2
SOLID
 70
1
 71
0
 91
1
 92
3
 72
0
 73
1
 93
4
 10
1277.142857142857
 20
1339.2857142857142
 10
1350.0
 20
1339.2857142857142
 10
1350.0
 20
1326.4285714285713
 10
1277.142857142857
 20
1326.4285714285713
 97
0
 75
1
 76
1
 98
0
  0
LWPOLYLINE
  5
6D
330
17
100
AcDbEntity
  8
WALL
100
AcDbPolyline
 90
4
 70
1
 10
1354.2857142857142
 20
1339.2857142857142
 10
1431.4285714285713
 20
1339.2857142857142
 10
1431.4285714285713
 20
1330.7142857142858
 10
1354.2857142857142
 20
1330.7142857142858
  0
HATCH
  5
6E
330
17
100
AcDbEntity
  8
WALL
100
AcDbHatch
 10
0.0
 20
0.0
 30
0.0
210
0.0
220
0.0
230
1.0
  2
SOLID
 70
1
 71
0
 91
1
 92
3
 72
0
 73
1
 93
4
 10
1354.2857142857142
 20
1339.2857142857142
 10
1431.4285714285713
 20
1339.2857142857142
 10
1431.4285714285713
 20
1330.7142857142858
 10
1354.2857142857142
 20
1330.7142857142858
 97
0
 75
1
 76
1
 98
0
  0
LWPOLYLINE
  5
6F
330
17
100
AcDbEntity
  8
WALL
100
AcDbPolyline
 90
4
 70
1
 10
1277.142857142857
 20
1322.142857142857
 10
1324.2857142857142
 20
1322.142857142857
 10
1324.2857142857142
 20
1309.2857142857142
 10
1277.142857142857
 20
1309.2857142857142
  0
HATCH
  5
70
330
17
100
AcDbEntity
  8
WALL
100
AcDbHatch
 10
0.0
 20
0.0
 30
0.0
210
0.0
220
0.0
230
1.0
  2
SOLID
 70
1
 71
0
 91
1
 92
3
 72
0
 73
1
 93
4
 10
1277.142857142857
 20
1322.142857142857
 10
1324.2857142857142
 20
1322.142857142857
 10
1324.2857142857142
 20
1309.2857142857142
 10
1277.142857142857
 20
1309.2857142857142
 97
0
 75
1
 76
1
 98
0
  0
LWPOLYLINE
  5
71
330
17
100
AcDbEntity
  8
WALL
100
AcDbPolyline
 90
4
 70
1
 10
1461.4285714285713
 20
1313.5714285714284
 10
1628.5714285714284
 20
1313.5714285714284
 10
1628.5714285714284
 20
1305.0
 10
1461.4285714285713
 20
1305.0
  0
HATCH
  5
72
330
17
100
AcDbEntity
  8
WALL
100
AcDbHatch
 10
0.0
 20
0.0
 30
0.0
210
0.0
220
0.0
230
1.0
  2
SOLID
 70
1
 71
0
 91
1
 92
3
 72
0
 73
1
 93
4
 10
1461.4285714285713
 20
1313.5714285714284
 10
1628.5714285714284
 20
1313.5714285714284
 10
1628.5714285714284
 20
1305.0
 10
1461.4285714285713
 20
1305.0
 97
0
 75
1
 76
1
 98
0
  0
LWPOLYLINE
  5
73
330
17
100
AcDbEntity
  8
WALL
100
AcDbPolyline
 90
4
 70
1
 10
1294.2857142857142
 20
1305.0
 10
1354.2857142857142
 20
1305.0
 10
1354.2857142857142
 20
1296.4285714285713
 10
1294.2857142857142
 20
1296.4285714285713
  0
HATCH
  5
74
330
17
100
AcDbEntity
  8
WALL
100
AcDbHatch
 10
0.0
 20
0.0
 30
0.0
210
0.0
220
0.0
230
1.0
  2
SOLID
 70
1
 71
0
 91
1
 92
3
 72
0
 73
1
 93
4
 10
1294.2857142857142
 20
1305.0
 10
1354.2857142857142
 20
1305.0
 10
1354.2857142857142
 20
1296.4285714285713
 10
1294.2857142857142
 20
1296.4285714285713
 97
0
 75
1
 76
1
 98
0
  0
LWPOLYLINE
  5
75
330
17
100
AcDbEntity
  8
WALL
100
AcDbPolyline
 90
4
 70
1
 10
1247.142857142857
 20
1296.4285714285713
 10
1294.2857142857142
 20
1296.4285714285713
 10
1294.2857142857142
 20
1279.2857142857142
 10
1247.142857142857
 20
1279.2857142857142
  0
HATCH
  5
76
330
17
100
AcDbEntity
  8
WALL
100
AcDbHatch
 10
0.0
 20
0.0
 30
0.0
210
0.0
220
0.0
230
1.0
  2
SOLID
 70
1
 71
0
 91
1
 92
3
 72
0
 73
1
 93
4
 10
1247.142857142857
 20
1296.4285714285713
 10
1294.2857142857142
 20
1296.4285714285713
 10
1294.2857142857142
 20
1279.2857142857142
 10
1247.142857142857
 20
1279.2857142857142
 97
0
 75
1
 76
1
 98
0
  0
LWPOLYLINE
  5
77
330
17
100
AcDbEntity
  8
WALL
100
AcDbPolyline
 90
4
 70
1
 10
1354.2857142857142
 20
1292.142857142857
 10
1414.2857142857142
 20
1292.142857142857
 10
1414.2857142857142
 20
1279.2857142857142
 10
1354.2857142857142
 20
1279.2857142857142
  0
HATCH
  5
78
330
17
100
AcDbEntity
  8
WALL
100
AcDbHatch
 10
0.0
 20
0.0
 30
0.0
210
0.0
220
0.0
230
1.0
  2
SOLID
 70
1
 71
0
 91
1
 92
3
 72
0
 73
1
 93
4
 10
1354.2857142857142
 20
1292.142857142857
 10
1414.2857142857142
 20
1292.142857142857
 10
1414.2857142857142
 20
1279.2857142857142
 10
1354.2857142857142
 20
1279.2857142857142
 97
0
 75
1
 76
1
 98
0
  0
LWPOLYLINE
  5
79
330
17
100
AcDbEntity
  8
WALL
100
AcDbPolyline
 90
4
 70
1
 10
1260.0
 20
1275.0
 10
1380.0
 20
1275.0
 10
1380.0
 20
1266.4285714285713
 10
1260.0
 20
1266.4285714285713
  0
HATCH
  5
7A
330
17
100
AcDbEntity
  8
WALL
100
AcDbHatch
 10
0.0
 20
0.0
 30
0.0
210
0.0
220
0.0
230
1.0
  2
SOLID
 70
1
 71
0
 91
1
 92
3
 72
0
 73
1
 93
4
 10
1260.0
 20
1275.0
 10
1380.0
 20
1275.0
 10
1380.0
 20
1266.4285714285713
 10
1260.0
 20
1266.4285714285713
 97
0
 75
1
 76
1
 98
0
  0
LWPOLYLINE
  5
7B
330
17
100
AcDbEntity
  8
WALL
100
AcDbPolyline
 90
4
 70
1
 10
1388.5714285714284
 20
1275.0
 10
1431.4285714285713
 20
1275.0
 10
1431.4285714285713
 20
1270.7142857142858
 10
1388.5714285714284
 20
1270.7142857142858
  0
HATCH
  5
7C
330
17
100
AcDbEntity
  8
WALL
100
AcDbHatch
 10
0.0
 20
0.0
 30
0.0
210
0.0
220
0.0
230
1.0
  2
SOLID
 70
1
 71
0
 91
1
 92
3
 72
0
 73
1
 93
4
 10
1388.5714285714284
 20
1275.0
 10
1431.4285714285713
 20
1275.0
 10
1431.4285714285713
 20
1270.7142857142858
 10
1388.5714285714284
 20
1270.7142857142858
 97
0
 75
1
 76
1
 98
0
  0
LWPOLYLINE
  5
7D
330
17
100
AcDbEntity
  8
WALL
100
AcDbPolyline
 90
4
 70
1
 10
1538.5714285714284
 20
1275.0
 10
1620.0
 20
1275.0
 10
1620.0
 20
1266.4285714285713
 10
1538.5714285714284
 20
1266.4285714285713
  0
HATCH
  5
7E
330
17
100
AcDbEntity
  8
WALL
100
AcDbHatch
 10
0.0
 20
0.0
 30
0.0
210
0.0
220
0.0
230
1.0
  2
SOLID
 70
1
 71
0
 91
1
 92
3
 72
0
 73
1
 93
4
 10
1538.5714285714284
 20
1275.0
 10
1620.0
 20
1275.0
 10
1620.0
 20
1266.4285714285713
 10
1538.5714285714284
 20
1266.4285714285713
 97
0
 75
1
 76
1
 98
0
  0
LWPOLYLINE
  5
7F
330
17
100
AcDbEntity
  8
WALL
100
AcDbPolyline
 90
4
 70
1
 10
227.14285714285714
 20
1193.5714285714284
 10
308.57142857142856
 20
1193.5714285714284
 10
308.57142857142856
 20
1185.0
 10
227.14285714285714
 20
1185.0
  0
HATCH
  5
80
330
17
100
AcDbEntity
  8
WALL
100
AcDbHatch
 10
0.0
 20
0.0
 30
0.0
210
0.0
220
0.0
230
1.0
  2
SOLID
 70
1
 71
0
 91
1
 92
3
 72
0
 73
1
 93
4
 10
227.14285714285714
 20
1193.5714285714284
 10
308.57142857142856
 20
1193.5714285714284
 10
308.57142857142856
 20
1185.0
 10
227.14285714285714
 20
1185.0
 97
0
 75
1
 76
1
 98
0
  0
LWPOLYLINE
  5
81
330
17
100
AcDbEntity
  8
WALL
100
AcDbPolyline
 90
4
 70
1
 10
377.1428571428571
 20
1193.5714285714284
 10
458.57142857142856
 20
1193.5714285714284
 10
458.57142857142856
 20
1185.0
 10
377.1428571428571
 20
1185.0
  0
HATCH
  5
82
330
17
100
AcDbEntity
  8
WALL
100
AcDbHatch
 10
0.0
 20
0.0
 30
0.0
210
0.0
220
0.0
230
1.0
  2
SOLID
 70
1
 71
0
 91
1
 92
3
 72
0
 73
1
 93
4
 10
377.1428571428571
 20
1193.5714285714284
 10
458.57142857142856
 20
1193.5714285714284
 10
458.57142857142856
 20
1185.0
 10
377.1428571428571
 20
1185.0
 97
0
 75
1
 76
1
 98
0
  0
LWPOLYLINE
  5
83
330
17
100
AcDbEntity
  8
WALL
100
AcDbPolyline
 90
4
 70
1
 10
1555.7142857142858
 20
1193.5714285714284
 10
1620.0
 20
1193.5714285714284
 10
1620.0
 20
1178.5714285714284
 10
1555.7142857142858
 20
1178.5714285714284
  0
HATCH
  5
84
330
17
100
AcDbEntity
  8
WALL
100
AcDbHatch
 10
0.0
 20
0.0
 30
0.0
210
0.0
220
0.0
230
1.0
  2
SOLID
 70
1
 71
0
 91
1
 92
3
 72
0
 73
1
 93
4
 10
1555.7142857142858
 20
1193.5714285714284
 10
1620.0
 20
1193.5714285714284
 10
1620.0
 20
1178.5714285714284
 10
1555.7142857142858
 20
1178.5714285714284
 97
0
 75
1
 76
1
 98
0
  0
LWPOLYLINE
  5
85
330
17
100
AcDbEntity
  8
WALL
100
AcDbPolyline
 90
4
 70
1
 10
60.0
 20
1159.2857142857142
 10
115.71428571428571
 20
1159.2857142857142
 10
115.71428571428571
 20
1157.142857142857
 10
60.0
 20
1157.142857142857
  0
HATCH
  5
86
330
17
100
AcDbEntity
  8
WALL
100
AcDbHatch
 10
0.0
 20
0.0
 30
0.0
210
0.0
220
0.0
230
1.0
  2
SOLID
 70
1
 71
0
 91
1
 92
3
 72
0
 73
1
 93
4
 10
60.0
 20
1159.2857142857142
 10
115.71428571428571
 20
1159.2857142857142
 10
115.71428571428571
 20
1157.142857142857
 10
60.0
 20
1157.142857142857
 97
0
 75
1
 76
1
 98
0
  0
LWPOLYLINE
  5
87
330
17
100
AcDbEntity
  8
WALL
100
AcDbPolyline
 90
4
 70
1
 10
501.4285714285714
 20
1150.7142857142858
 10
912.8571428571428
 20
1150.7142857142858
 10
912.8571428571428
 20
1142.142857142857
 10
501.4285714285714
 20
1142.142857142857
  0
HATCH
  5
88
330
17
100
AcDbEntity
  8
WALL
100
AcDbHatch
 10
0.0
 20
0.0
 30
0.0
210
0.0
220
0.0
230
1.0
  2
SOLID
 70
1
 71
0
 91
1
 92
3
 72
0
 73
1
 93
4
 10
501.4285714285714
 20
1150.7142857142858
 10
912.8571428571428
 20
1150.7142857142858
 10
912.8571428571428
 20
1142.142857142857
 10
501.4285714285714
 20
1142.142857142857
 97
0
 75
1
 76
1
 98
0
  0
LWPOLYLINE
  5
89
330
17
100
AcDbEntity
  8
WALL
100
AcDbPolyline
 90
4
 70
1
 10
1225.7142857142858
 20
893.5714285714286
 10
1335.0
 20
893.5714285714286
 10
1335.0
 20
863.5714285714286
 10
1225.7142857142858
 20
863.5714285714286
  0
HATCH
  5
8A
330
17
100
AcDbEntity
  8
WALL
100
AcDbHatch
 10
0.0
 20
0.0
 30
0.0
210
0.0
220
0.0
230
1.0
  2
SOLID
 70
1
 71
0
 91
1
 92
3
 72
0
 73
1
 93
4
 10
1225.7142857142858
 20
893.5714285714286
 10
1335.0
 20
893.5714285714286
 10
1335.0
 20
863.5714285714286
 10
1225.7142857142858
 20
863.5714285714286
 97
0
 75
1
 76
1
 98
0
  0
LWPOLYLINE
  5
8B
330
17
100
AcDbEntity
  8
WALL
100
AcDbPolyline
 90
4
 70
1
 10
1632.857142857143
 20
893.5714285714286
 10
1847.142857142857
 20
893.5714285714286
 10
1847.142857142857
 20
863.5714285714286
 10
1632.857142857143
 20
863.5714285714286
  0
HATCH
  5
8C
330
17
100
AcDbEntity
  8
WALL
100
AcDbHatch
 10
0.0
 20
0.0
 30
0.0
210
0.0
220
0.0
230
1.0
  2
SOLID
 70
1
 71
0
 91
1
 92
3
 72
0
 73
1
 93
4
 10
1632.857142857143
 20
893.5714285714286
 10
1847.142857142857
 20
893.5714285714286
 10
1847.142857142857
 20
863.5714285714286
 10
1632.857142857143
 20
863.5714285714286
 97
0
 75
1
 76
1
 98
0
  0
LWPOLYLINE
  5
8D
330
17
100
AcDbEntity
  8
WALL
100
AcDbPolyline
 90
4
 70
1
 10
443.57142857142856
 20
756.4285714285714
 10
642.8571428571429
 20
756.4285714285714
 10
642.8571428571429
 20
735.0
 10
443.57142857142856
 20
735.0
  0
HATCH
  5
8E
330
17
100
AcDbEntity
  8
WALL
100
AcDbHatch
 10
0.0
 20
0.0
 30
0.0
210
0.0
220
0.0
230
1.0
  2
SOLID
 70
1
 71
0
 91
1
 92
3
 72
0
 73
1
 93
4
 10
443.57142857142856
 20
756.4285714285714
 10
642.8571428571429
 20
756.4285714285714
 10
642.8571428571429
 20
735.0
 10
443.57142857142856
 20
735.0
 97
0
 75
1
 76
1
 98
0
  0
LWPOLYLINE
  5
8F
330
17
100
AcDbEntity
  8
WALL
100
AcDbPolyline
 90
4
 70
1
 10
394.2857142857143
 20
679.2857142857142
 10
432.85714285714283
 20
679.2857142857142
 10
432.85714285714283
 20
672.8571428571429
 10
394.2857142857143
 20
672.8571428571429
  0
HATCH
  5
90
330
17
100
AcDbEntity
  8
WALL
100
AcDbHatch
 10
0.0
 20
0.0
 30
0.0
210
0.0
220
0.0
230
1.0
  2
SOLID
 70
1
 71
0
 91
1
 92
3
 72
0
 73
1
 93
4
 10
394.2857142857143
 20
679.2857142857142
 10
432.85714285714283
 20
679.2857142857142
 10
432.85714285714283
 20
672.8571428571429
 10
394.2857142857143
 20
672.8571428571429
 97
0
 75
1
 76
1
 98
0
  0
LWPOLYLINE
  5
91
330
17
100
AcDbEntity
  8
WALL
100
AcDbPolyline
 90
4
 70
1
 10
1279.2857142857142
 20
657.8571428571429
 10
1847.142857142857
 20
657.8571428571429
 10
1847.142857142857
 20
632.1428571428571
 10
1279.2857142857142
 20
632.1428571428571
  0
HATCH
  5
92
330
17
100
AcDbEntity
  8
WALL
100
AcDbHatch
 10
0.0
 20
0.0
 30
0.0
210
0.0
220
0.0
230
1.0
  2
SOLID
 70
1
 71
0
 91
1
 92
3
 72
0
 73
1
 93
4
 10
1279.2857142857142
 20
657.8571428571429
 10
1847.142857142857
 20
657.8571428571429
 10
1847.142857142857
 20
632.1428571428571
 10
1279.2857142857142
 20
632.1428571428571
 97
0
 75
1
 76
1
 98
0
  0
LWPOLYLINE
  5
93
330
17
100
AcDbEntity
  8
WALL
100
AcDbPolyline
 90
4
 70
1
 10
1684.2857142857142
 20
606.4285714285714
 10
1722.857142857143
 20
606.4285714285714
 10
1722.857142857143
 20
600.0
 10
1684.2857142857142
 20
600.0
  0
HATCH
  5
94
330
17
100
AcDbEntity
  8
WALL
100
AcDbHatch
 10
0.0
 20
0.0
 30
0.0
210
0.0
220
0.0
230
1.0
  2
SOLID
 70
1
 71
0
 91
1
 92
3
 72
0
 73
1
 93
4
 10
1684.2857142857142
 20
606.4285714285714
 10
1722.857142857143
 20
606.4285714285714
 10
1722.857142857143
 20
600.0
 10
1684.2857142857142
 20
600.0
 97
0
 75
1
 76
1
 98
0
  0
LWPOLYLINE
  5
95
330
17
100
AcDbEntity
  8
WALL
100
AcDbPolyline
 90
4
 70
1
 10
1692.857142857143
 20
533.5714285714286
 10
1812.857142857143
 20
533.5714285714286
 10
1812.857142857143
 20
525.0
 10
1692.857142857143
 20
525.0
  0
HATCH
  5
96
330
17
100
AcDbEntity
  8
WALL
100
AcDbHatch
 10
0.0
 20
0.0
 30
0.0
210
0.0
220
0.0
230
1.0
  2
SOLID
 70
1
 71
0
 91
1
 92
3
 72
0
 73
1
 93
4
 10
1692.857142857143
 20
533.5714285714286
 10
1812.857142857143
 20
533.5714285714286
 10
1812.857142857143
 20
525.0
 10
1692.857142857143
 20
525.0
 97
0
 75
1
 76
1
 98
0
  0
LWPOLYLINE
  5
97
330
17
100
AcDbEntity
  8
WALL
100
AcDbPolyline
 90
4
 70
1
 10
1335.0
 20
516.4285714285714
 10
1427.142857142857
 20
516.4285714285714
 10
1427.142857142857
 20
507.85714285714283
 10
1335.0
 20
507.85714285714283
  0
HATCH
  5
98
330
17
100
AcDbEntity
  8
WALL
100
AcDbHatch
 10
0.0
 20
0.0
 30
0.0
210
0.0
220
0.0
230
1.0
  2
SOLID
 70
1
 71
0
 91
1
 92
3
 72
0
 73
1
 93
4
 10
1335.0
 20
516.4285714285714
 10
1427.142857142857
 20
516.4285714285714
 10
1427.142857142857
 20
507.85714285714283
 10
1335.0
 20
507.85714285714283
 97
0
 75
1
 76
1
 98
0
  0
LWPOLYLINE
  5
99
330
17
100
AcDbEntity
  8
WALL
100
AcDbPolyline
 90
4
 70
1
 10
1266.4285714285713
 20
456.4285714285714
 10
1431.4285714285713
 20
456.4285714285714
 10
1431.4285714285713
 20
443.57142857142856
 10
1266.4285714285713
 20
443.57142857142856
  0
HATCH
  5
9A
330
17
100
AcDbEntity
  8
WALL
100
AcDbHatch
 10
0.0
 20
0.0
 30
0.0
210
0.0
220
0.0
230
1.0
  2
SOLID
 70
1
 71
0
 91
1
 92
3
 72
0
 73
1
 93
4
 10
1266.4285714285713
 20
456.4285714285714
 10
1431.4285714285713
 20
456.4285714285714
 10
1431.4285714285713
 20
443.57142857142856
 10
1266.4285714285713
 20
443.57142857142856
 97
0
 75
1
 76
1
 98
0
  0
LWPOLYLINE
  5
9B
330
17
100
AcDbEntity
  8
WALL
100
AcDbPolyline
 90
4
 70
1
 10
1212.857142857143
 20
285.0
 10
1264.2857142857142
 20
285.0
 10
1264.2857142857142
 20
276.42857142857144
 10
1212.857142857143
 20
276.42857142857144
  0
HATCH
  5
9C
330
17
100
AcDbEntity
  8
WALL
100
AcDbHatch
 10
0.0
 20
0.0
 30
0.0
210
0.0
220
0.0
230
1.0
  2
SOLID
 70
1
 71
0
 91
1
 92
3
 72
0
 73
1
 93
4
 10
1212.857142857143
 20
285.0
 10
1264.2857142857142
 20
285.0
 10
1264.2857142857142
 20
276.42857142857144
 10
1212.857142857143
 20
276.42857142857144
 97
0
 75
1
 76
1
 98
0
  0
LWPOLYLINE
  5
9D
330
17
100
AcDbEntity
  8
WALL
100
AcDbPolyline
 90
4
 70
1
 10
291.42857142857144
 20
274.2857142857143
 10
330.0
 20
274.2857142857143
 10
330.0
 20
270.0
 10
291.42857142857144
 20
270.0
  0
HATCH
  5
9E
330
17
100
AcDbEntity
  8
WALL
100
AcDbHatch
 10
0.0
 20
0.0
 30
0.0
210
0.0
220
0.0
230
1.0
  2
SOLID
 70
1
 71
0
 91
1
 92
3
 72
0
 73
1
 93
4
 10
291.42857142857144
 20
274.2857142857143
 10
330.0
 20
274.2857142857143
 10
330.0
 20
270.0
 10
291.42857142857144
 20
270.0
 97
0
 75
1
 76
1
 98
0
  0
LWPOLYLINE
  5
9F
330
17
100
AcDbEntity
  8
WALL
100
AcDbPolyline
 90
4
 70
1
 10
98.57142857142857
 20
259.2857142857143
 10
321.42857142857144
 20
259.2857142857143
 10
321.42857142857144
 20
233.57142857142856
 10
98.57142857142857
 20
233.57142857142856
  0
HATCH
  5
A0
330
17
100
AcDbEntity
  8
WALL
100
AcDbHatch
 10
0.0
 20
0.0
 30
0.0
210
0.0
220
0.0
230
1.0
  2
SOLID
 70
1
 71
0
 91
1
 92
3
 72
0
 73
1
 93
4
 10
98.57142857142857
 20
259.2857142857143
 10
321.42857142857144
 20
259.2857142857143
 10
321.42857142857144
 20
233.57142857142856
 10
98.57142857142857
 20
233.57142857142856
 97
0
 75
1
 76
1
 98
0
  0
LWPOLYLINE
  5
A1
330
17
100
AcDbEntity
  8
WALL
100
AcDbPolyline
 90
4
 70
1
 10
1495.7142857142858
 20
250.7142857142857
 10
1568.5714285714284
 20
250.7142857142857
 10
1568.5714285714284
 20
242.14285714285714
 10
1495.7142857142858
 20
242.14285714285714
  0
HATCH
  5
A2
330
17
100
AcDbEntity
  8
WALL
100
AcDbHatch
 10
0.0
 20
0.0
 30
0.0
210
0.0
220
0.0
230
1.0
  2
SOLID
 70
1
 71
0
 91
1
 92
3
 72
0
 73
1
 93
4
 10
1495.7142857142858
 20
250.7142857142857
 10
1568.5714285714284
 20
250.7142857142857
 10
1568.5714285714284
 20
242.14285714285714
 10
1495.7142857142858
 20
242.14285714285714
 97
0
 75
1
 76
1
 98
0
  0
LWPOLYLINE
  5
A3
330
17
100
AcDbEntity
  8
WALL
100
AcDbPolyline
 90
4
 70
1
 10
1662.857142857143
 20
237.85714285714286
 10
1731.4285714285713
 20
237.85714285714286
 10
1731.4285714285713
 20
229.28571428571428
 10
1662.857142857143
 20
229.28571428571428
  0
HATCH
  5
A4
330
17
100
AcDbEntity
  8
WALL
100
AcDbHatch
 10
0.0
 20
0.0
 30
0.0
210
0.0
220
0.0
230
1.0
  2
SOLID
 70
1
 71
0
 91
1
 92
3
 72
0
 73
1
 93
4
 10
1662.857142857143
 20
237.85714285714286
 10
1731.4285714285713
 20
237.85714285714286
 10
1731.4285714285713
 20
229.28571428571428
 10
1662.857142857143
 20
229.28571428571428
 97
0
 75
1
 76
1
 98
0
  0
LWPOLYLINE
  5
A5
330
17
100
AcDbEntity
  8
WALL
100
AcDbPolyline
 90
4
 70
1
 10
282.85714285714283
 20
186.42857142857142
 10
921.4285714285714
 20
186.42857142857142
 10
921.4285714285714
 20
169.28571428571428
 10
282.85714285714283
 20
169.28571428571428
  0
HATCH
  5
A6
330
17
100
AcDbEntity
  8
WALL
100
AcDbHatch
 10
0.0
 20
0.0
 30
0.0
210
0.0
220
0.0
230
1.0
  2
SOLID
 70
1
 71
0
 91
1
 92
3
 72
0
 73
1
 93
4
 10
282.85714285714283
 20
186.42857142857142
 10
921.4285714285714
 20
186.42857142857142
 10
921.4285714285714
 20
169.28571428571428
 10
282.85714285714283
 20
169.28571428571428
 97
0
 75
1
 76
1
 98
0
  0
LWPOLYLINE
  5
A7
330
17
100
AcDbEntity
  8
WALL
100
AcDbPolyline
 90
4
 70
1
 10
1279.2857142857142
 20
182.14285714285714
 10
1324.2857142857142
 20
182.14285714285714
 10
1324.2857142857142
 20
173.57142857142856
 10
1279.2857142857142
 20
173.57142857142856
  0
HATCH
  5
A8
330
17
100
AcDbEntity
  8
WALL
100
AcDbHatch
 10
0.0
 20
0.0
 30
0.0
210
0.0
220
0.0
230
1.0
  2
SOLID
 70
1
 71
0
 91
1
 92
3
 72
0
 73
1
 93
4
 10
1279.2857142857142
 20
182.14285714285714
 10
1324.2857142857142
 20
182.14285714285714
 10
1324.2857142857142
 20
173.57142857142856
 10
1279.2857142857142
 20
173.57142857142856
 97
0
 75
1
 76
1
 98
0
  0
LWPOLYLINE
  5
A9
330
17
100
AcDbEntity
  8
WALL
100
AcDbPolyline
 90
4
 70
1
 10
1667.142857142857
 20
160.71428571428572
 10
1727.142857142857
 20
160.71428571428572
 10
1727.142857142857
 20
122.14285714285714
 10
1667.142857142857
 20
122.14285714285714
  0
HATCH
  5
AA
330
17
100
AcDbEntity
  8
WALL
100
AcDbHatch
 10
0.0
 20
0.0
 30
0.0
210
0.0
220
0.0
230
1.0
  2
SOLID
 70
1
 71
0
 91
1
 92
3
 72
0
 73
1
 93
4
 10
1667.142857142857
 20
160.71428571428572
 10
1727.142857142857
 20
160.71428571428572
 10
1727.142857142857
 20
122.14285714285714
 10
1667.142857142857
 20
122.14285714285714
 97
0
 75
1
 76
1
 98
0
  0
LWPOLYLINE
  5
AB
330
17
100
AcDbEntity
  8
WALL
100
AcDbPolyline
 90
4
 70
1
 10
1521.4285714285713
 20
135.0
 10
1596.4285714285713
 20
135.0
 10
1596.4285714285713
 20
117.85714285714285
 10
1521.4285714285713
 20
117.85714285714285
  0
HATCH
  5
AC
330
17
100
AcDbEntity
  8
WALL
100
AcDbHatch
 10
0.0
 20
0.0
 30
0.0
210
0.0
220
0.0
230
1.0
  2
SOLID
 70
1
 71
0
 91
1
 92
3
 72
0
 73
1
 93
4
 10
1521.4285714285713
 20
135.0
 10
1596.4285714285713
 20
135.0
 10
1596.4285714285713
 20
117.85714285714285
 10
1521.4285714285713
 20
117.85714285714285
 97
0
 75
1
 76
1
 98
0
  0
LWPOLYLINE
  5
AD
330
17
100
AcDbEntity
  8
WALL
100
AcDbPolyline
 90
4
 70
1
 10
1478.5714285714284
 20
130.71428571428572
 10
1517.142857142857
 20
130.71428571428572
 10
1517.142857142857
 20
124.28571428571428
 10
1478.5714285714284
 20
124.28571428571428
  0
HATCH
  5
AE
330
17
100
AcDbEntity
  8
WALL
100
AcDbHatch
 10
0.0
 20
0.0
 30
0.0
210
0.0
220
0.0
230
1.0
  2
SOLID
 70
1
 71
0
 91
1
 92
3
 72
0
 73
1
 93
4
 10
1478.5714285714284
 20
130.71428571428572
 10
1517.142857142857
 20
130.71428571428572
 10
1517.142857142857
 20
124.28571428571428
 10
1478.5714285714284
 20
124.28571428571428
 97
0
 75
1
 76
1
 98
0
  0
LWPOLYLINE
  5
AF
330
17
100
AcDbEntity
  8
WALL
100
AcDbPolyline
 90
4
 70
1
 10
1632.857142857143
 20
117.85714285714285
 10
1692.857142857143
 20
117.85714285714285
 10
1692.857142857143
 20
109.28571428571428
 10
1632.857142857143
 20
109.28571428571428
  0
HATCH
  5
B0
330
17
100
AcDbEntity
  8
WALL
100
AcDbHatch
 10
0.0
 20
0.0
 30
0.0
210
0.0
220
0.0
230
1.0
  2
SOLID
 70
1
 71
0
 91
1
 92
3
 72
0
 73
1
 93
4
 10
1632.857142857143
 20
117.85714285714285
 10
1692.857142857143
 20
117.85714285714285
 10
1692.857142857143
 20
109.28571428571428
 10
1632.857142857143
 20
109.28571428571428
 97
0
 75
1
 76
1
 98
0
  0
LWPOLYLINE
  5
B1
330
17
100
AcDbEntity
  8
WALL
100
AcDbPolyline
 90
4
 70
1
 10
1287.857142857143
 20
105.0
 10
1414.2857142857142
 20
105.0
 10
1414.2857142857142
 20
96.42857142857143
 10
1287.857142857143
 20
96.42857142857143
  0
HATCH
  5
B2
330
17
100
AcDbEntity
  8
WALL
100
AcDbHatch
 10
0.0
 20
0.0
 30
0.0
210
0.0
220
0.0
230
1.0
  2
SOLID
 70
1
 71
0
 91
1
 92
3
 72
0
 73
1
 93
4
 10
1287.857142857143
 20
105.0
 10
1414.2857142857142
 20
105.0
 10
1414.2857142857142
 20
96.42857142857143
 10
1287.857142857143
 20
96.42857142857143
 97
0
 75
1
 76
1
 98
0
  0
LWPOLYLINE
  5
B3
330
17
100
AcDbEntity
  8
WALL
100
AcDbPolyline
 90
4
 70
1
 10
1632.857142857143
 20
105.0
 10
1692.857142857143
 20
105.0
 10
1692.857142857143
 20
92.14285714285714
 10
1632.857142857143
 20
92.14285714285714
  0
HATCH
  5
B4
330
17
100
AcDbEntity
  8
WALL
100
AcDbHatch
 10
0.0
 20
0.0
 30
0.0
210
0.0
220
0.0
230
1.0
  2
SOLID
 70
1
 71
0
 91
1
 92
3
 72
0
 73
1
 93
4
 10
1632.857142857143
 20
105.0
 10
1692.857142857143
 20
105.0
 10
1692.857142857143
 20
92.14285714285714
 10
1632.857142857143
 20
92.14285714285714
 97
0
 75
1
 76
1
 98
0
  0
LWPOLYLINE
  5
B5
330
17
100
AcDbEntity
  8
WALL
100
AcDbPolyline
 90
4
 70
1
 10
1448.5714285714284
 20
79.28571428571428
 10
1615.7142857142858
 20
79.28571428571428
 10
1615.7142857142858
 20
70.71428571428571
 10
1448.5714285714284
 20
70.71428571428571
  0
HATCH
  5
B6
330
17
100
AcDbEntity
  8
WALL
100
AcDbHatch
 10
0.0
 20
0.0
 30
0.0
210
0.0
220
0.0
230
1.0
  2
SOLID
 70
1
 71
0
 91
1
 92
3
 72
0
 73
1
 93
4
 10
1448.5714285714284
 20
79.28571428571428
 10
1615.7142857142858
 20
79.28571428571428
 10
1615.7142857142858
 20
70.71428571428571
 10
1448.5714285714284
 20
70.71428571428571
 97
0
 75
1
 76
1
 98
0
  0
LWPOLYLINE
  5
B7
330
17
100
AcDbEntity
  8
WALL
100
AcDbPolyline
 90
4
 70
1
 10
1264.2857142857142
 20
70.71428571428571
 10
1414.2857142857142
 20
70.71428571428571
 10
1414.2857142857142
 20
45.0
 10
1264.2857142857142
 20
45.0
  0
HATCH
  5
B8
330
17
100
AcDbEntity
  8
WALL
100
AcDbHatch
 10
0.0
 20
0.0
 30
0.0
210
0.0
220
0.0
230
1.0
  2
SOLID
 70
1
 71
0
 91
1
 92
3
 72
0
 73
1
 93
4
 10
1264.2857142857142
 20
70.71428571428571
 10
1414.2857142857142
 20
70.71428571428571
 10
1414.2857142857142
 20
45.0
 10
1264.2857142857142
 20
45.0
 97
0
 75
1
 76
1
 98
0
  0
LWPOLYLINE
  5
B9
330
17
100
AcDbEntity
  8
WALL
100
AcDbPolyline
 90
4
 70
1
 10
861.4285714285714
 20
53.57142857142857
 10
921.4285714285714
 20
53.57142857142857
 10
921.4285714285714
 20
45.0
 10
861.4285714285714
 20
45.0
  0
HATCH
  5
BA
330
17
100
AcDbEntity
  8
WALL
100
AcDbHatch
 10
0.0
 20
0.0
 30
0.0
210
0.0
220
0.0
230
1.0
  2
SOLID
 70
1
 71
0
 91
1
 92
3
 72
0
 73
1
 93
4
 10
861.4285714285714
 20
53.57142857142857
 10
921.4285714285714
 20
53.57142857142857
 10
921.4285714285714
 20
45.0
 10
861.4285714285714
 20
45.0
 97
0
 75
1
 76
1
 98
0
  0
LWPOLYLINE
  5
BB
330
17
100
AcDbEntity
  8
WALL
100
AcDbPolyline
 90
4
 70
1
 10
1448.5714285714284
 20
49.285714285714285
 10
1538.5714285714284
 20
49.285714285714285
 10
1538.5714285714284
 20
36.42857142857143
 10
1448.5714285714284
 20
36.42857142857143
  0
HATCH
  5
BC
330
17
100
AcDbEntity
  8
WALL
100
AcDbHatch
 10
0.0
 20
0.0
 30
0.0
210
0.0
220
0.0
230
1.0
  2
SOLID
 70
1
 71
0
 91
1
 92
3
 72
0
 73
1
 93
4
 10
1448.5714285714284
 20
49.285714285714285
 10
1538.5714285714284
 20
49.285714285714285
 10
1538.5714285714284
 20
36.42857142857143
 10
1448.5714285714284
 20
36.42857142857143
 97
0
 75
1
 76
1
 98
0
  0
LWPOLYLINE
  5
BD
330
17
100
AcDbEntity
  8
WALL
100
AcDbPolyline
 90
4
 70
1
 10
240.0
 20
45.0
 10
304.2857142857143
 20
45.0
 10
304.2857142857143
 20
36.42857142857143
 10
240.0
 20
36.42857142857143
  0
HATCH
  5
BE
330
17
100
AcDbEntity
  8
WALL
100
AcDbHatch
 10
0.0
 20
0.0
 30
0.0
210
0.0
220
0.0
230
1.0
  2
SOLID
 70
1
 71
0
 91
1
 92
3
 72
0
 73
1
 93
4
 10
240.0
 20
45.0
 10
304.2857142857143
 20
45.0
 10
304.2857142857143
 20
36.42857142857143
 10
240.0
 20
36.42857142857143
 97
0
 75
1
 76
1
 98
0
  0
LWPOLYLINE
  5
BF
330
17
100
AcDbEntity
  8
WALL
100
AcDbPolyline
 90
4
 70
1
 10
394.2857142857143
 20
45.0
 10
488.57142857142856
 20
45.0
 10
488.57142857142856
 20
36.42857142857143
 10
394.2857142857143
 20
36.42857142857143
  0
HATCH
  5
C0
330
17
100
AcDbEntity
  8
WALL
100
AcDbHatch
 10
0.0
 20
0.0
 30
0.0
210
0.0
220
0.0
230
1.0
  2
SOLID
 70
1
 71
0
 91
1
 92
3
 72
0
 73
1
 93
4
 10
394.2857142857143
 20
45.0
 10
488.57142857142856
 20
45.0
 10
488.57142857142856
 20
36.42857142857143
 10
394.2857142857143
 20
36.42857142857143
 97
0
 75
1
 76
1
 98
0
  0
LWPOLYLINE
  5
C1
330
17
100
AcDbEntity
  8
WALL
100
AcDbPolyline
 90
4
 70
1
 10
1572.857142857143
 20
45.0
 10
1650.0
 20
45.0
 10
1650.0
 20
36.42857142857143
 10
1572.857142857143
 20
36.42857142857143
  0
HATCH
  5
C2
330
17
100
AcDbEntity
  8
WALL
100
AcDbHatch
 10
0.0
 20
0.0
 30
0.0
210
0.0
220
0.0
230
1.0
  2
SOLID
 70
1
 71
0
 91
1
 92
3
 72
0
 73
1
 93
4
 10
1572.857142857143
 20
45.0
 10
1650.0
 20
45.0
 10
1650.0
 20
36.42857142857143
 10
1572.857142857143
 20
36.42857142857143
 97
0
 75
1
 76
1
 98
0
  0
LWPOLYLINE
  5
C3
330
17
100
AcDbEntity
  8
WALL
100
AcDbPolyline
 90
4
 70
1
 10
1446.4285714285713
 20
2871.4285714285716
 10
1455.0
 20
2871.4285714285716
 10
1455.0
 20
2702.142857142857
 10
1446.4285714285713
 20
2702.142857142857
  0
HATCH
  5
C4
330
17
100
AcDbEntity
  8
WALL
100
AcDbHatch
 10
0.0
 20
0.0
 30
0.0
210
0.0
220
0.0
230
1.0
  2
SOLID
 70
1
 71
0
 91
1
 92
3
 72
0
 73
1
 93
4
 10
1446.4285714285713
 20
2871.4285714285716
 10
1455.0
 20
2871.4285714285716
 10
1455.0
 20
2702.142857142857
 10
1446.4285714285713
 20
2702.142857142857
 97
0
 75
1
 76
1
 98
0
  0
LWPOLYLINE
  5
C5
330
17
100
AcDbEntity
  8
WALL
100
AcDbPolyline
 90
4
 70
1
 10
623.5714285714286
 20
2845.714285714286
 10
632.1428571428571
 20
2845.714285714286
 10
632.1428571428571
 20
2725.714285714286
 10
623.5714285714286
 20
2725.714285714286
  0
HATCH
  5
C6
330
17
100
AcDbEntity
  8
WALL
100
AcDbHatch
 10
0.0
 20
0.0
 30
0.0
210
0.0
220
0.0
230
1.0
  2
SOLID
 70
1
 71
0
 91
1
 92
3
 72
0
 73
1
 93
4
 10
623.5714285714286
 20
2845.714285714286
 10
632.1428571428571
 20
2845.714285714286
 10
632.1428571428571
 20
2725.714285714286
 10
623.5714285714286
 20
2725.714285714286
 97
0
 75
1
 76
1
 98
0
  0
LWPOLYLINE
  5
C7
330
17
100
AcDbEntity
  8
WALL
100
AcDbPolyline
 90
4
 70
1
 10
1420.7142857142858
 20
2845.714285714286
 10
1429.2857142857142
 20
2845.714285714286
 10
1429.2857142857142
 20
2702.142857142857
 10
1420.7142857142858
 20
2702.142857142857
  0
HATCH
  5
C8
330
17
100
AcDbEntity
  8
WALL
100
AcDbHatch
 10
0.0
 20
0.0
 30
0.0
210
0.0
220
0.0
230
1.0
  2
SOLID
 70
1
 71
0
 91
1
 92
3
 72
0
 73
1
 93
4
 10
1420.7142857142858
 20
2845.714285714286
 10
1429.2857142857142
 20
2845.714285714286
 10
1429.2857142857142
 20
2702.142857142857
 10
1420.7142857142858
 20
2702.142857142857
 97
0
 75
1
 76
1
 98
0
  0
LWPOLYLINE
  5
C9
330
17
100
AcDbEntity
  8
WALL
100
AcDbPolyline
 90
4
 70
1
 10
726.4285714285714
 20
2667.8571428571427
 10
735.0
 20
2667.8571428571427
 10
735.0
 20
2614.285714285714
 10
726.4285714285714
 20
2614.285714285714
  0
HATCH
  5
CA
330
17
100
AcDbEntity
  8
WALL
100
AcDbHatch
 10
0.0
 20
0.0
 30
0.0
210
0.0
220
0.0
230
1.0
  2
SOLID
 70
1
 71
0
 91
1
 92
3
 72
0
 73
1
 93
4
 10
726.4285714285714
 20
2667.8571428571427
 10
735.0
 20
2667.8571428571427
 10
735.0
 20
2614.285714285714
 10
726.4285714285714
 20
2614.285714285714
 97
0
 75
1
 76
1
 98
0
  0
LWPOLYLINE
  5
CB
330
17
100
AcDbEntity
  8
WALL
100
AcDbPolyline
 90
4
 70
1
 10
623.5714285714286
 20
2665.714285714286
 10
632.1428571428571
 20
2665.714285714286
 10
632.1428571428571
 20
2490.0
 10
623.5714285714286
 20
2490.0
  0
HATCH
  5
CC
330
17
100
AcDbEntity
  8
WALL
100
AcDbHatch
 10
0.0
 20
0.0
 30
0.0
210
0.0
220
0.0
230
1.0
  2
SOLID
 70
1
 71
0
 91
1
 92
3
 72
0
 73
1
 93
4
 10
623.5714285714286
 20
2665.714285714286
 10
632.1428571428571
 20
2665.714285714286
 10
632.1428571428571
 20
2490.0
 10
623.5714285714286
 20
2490.0
 97
0
 75
1
 76
1
 98
0
  0
LWPOLYLINE
  5
CD
330
17
100
AcDbEntity
  8
WALL
100
AcDbPolyline
 90
4
 70
1
 10
1420.7142857142858
 20
2612.142857142857
 10
1429.2857142857142
 20
2612.142857142857
 10
1429.2857142857142
 20
2460.0
 10
1420.7142857142858
 20
2460.0
  0
HATCH
  5
CE
330
17
100
AcDbEntity
  8
WALL
100
AcDbHatch
 10
0.0
 20
0.0
 30
0.0
210
0.0
220
0.0
230
1.0
  2
SOLID
 70
1
 71
0
 91
1
 92
3
 72
0
 73
1
 93
4
 10
1420.7142857142858
 20
2612.142857142857
 10
1429.2857142857142
 20
2612.142857142857
 10
1429.2857142857142
 20
2460.0
 10
1420.7142857142858
 20
2460.0
 97
0
 75
1
 76
1
 98
0
  0
LWPOLYLINE
  5
CF
330
17
100
AcDbEntity
  8
WALL
100
AcDbPolyline
 90
4
 70
1
 10
1446.4285714285713
 20
2612.142857142857
 10
1455.0
 20
2612.142857142857
 10
1455.0
 20
2477.142857142857
 10
1446.4285714285713
 20
2477.142857142857
  0
HATCH
  5
D0
330
17
100
AcDbEntity
  8
WALL
100
AcDbHatch
 10
0.0
 20
0.0
 30
0.0
210
0.0
220
0.0
230
1.0
  2
SOLID
 70
1
 71
0
 91
1
 92
3
 72
0
 73
1
 93
4
 10
1446.4285714285713
 20
2612.142857142857
 10
1455.0
 20
2612.142857142857
 10
1455.0
 20
2477.142857142857
 10
1446.4285714285713
 20
2477.142857142857
 97
0
 75
1
 76
1
 98
0
  0
LWPOLYLINE
  5
D1
330
17
100
AcDbEntity
  8
WALL
100
AcDbPolyline
 90
4
 70
1
 10
503.57142857142856
 20
2590.714285714286
 10
512.1428571428571
 20
2590.714285714286
 10
512.1428571428571
 20
2507.142857142857
 10
503.57142857142856
 20
2507.142857142857
  0
HATCH
  5
D2
330
17
100
AcDbEntity
  8
WALL
100
AcDbHatch
 10
0.0
 20
0.0
 30
0.0
210
0.0
220
0.0
230
1.0
  2
SOLID
 70
1
 71
0
 91
1
 92
3
 72
0
 73
1
 93
4
 10
503.57142857142856
 20
2590.714285714286
 10
512.1428571428571
 20
2590.714285714286
 10
512.1428571428571
 20
2507.142857142857
 10
503.57142857142856
 20
2507.142857142857
 97
0
 75
1
 76
1
 98
0
  0
LWPOLYLINE
  5
D3
330
17
100
AcDbEntity
  8
WALL
100
AcDbPolyline
 90
4
 70
1
 10
469.2857142857143
 20
2558.5714285714284
 10
477.85714285714283
 20
2558.5714285714284
 10
477.85714285714283
 20
2485.714285714286
 10
469.2857142857143
 20
2485.714285714286
  0
HATCH
  5
D4
330
17
100
AcDbEntity
  8
WALL
100
AcDbHatch
 10
0.0
 20
0.0
 30
0.0
210
0.0
220
0.0
230
1.0
  2
SOLID
 70
1
 71
0
 91
1
 92
3
 72
0
 73
1
 93
4
 10
469.2857142857143
 20
2558.5714285714284
 10
477.85714285714283
 20
2558.5714285714284
 10
477.85714285714283
 20
2485.714285714286
 10
469.2857142857143
 20
2485.714285714286
 97
0
 75
1
 76
1
 98
0
  0
LWPOLYLINE
  5
D5
330
17
100
AcDbEntity
  8
WALL
100
AcDbPolyline
 90
4
 70
1
 10
831.4285714285714
 20
2498.5714285714284
 10
833.5714285714286
 20
2498.5714285714284
 10
833.5714285714286
 20
2460.0
 10
831.4285714285714
 20
2460.0
  0
HATCH
  5
D6
330
17
100
AcDbEntity
  8
WALL
100
AcDbHatch
 10
0.0
 20
0.0
 30
0.0
210
0.0
220
0.0
230
1.0
  2
SOLID
 70
1
 71
0
 91
1
 92
3
 72
0
 73
1
 93
4
 10
831.4285714285714
 20
2498.5714285714284
 10
833.5714285714286
 20
2498.5714285714284
 10
833.5714285714286
 20
2460.0
 10
831.4285714285714
 20
2460.0
 97
0
 75
1
 76
1
 98
0
  0
LWPOLYLINE
  5
D7
330
17
100
AcDbEntity
  8
WALL
100
AcDbPolyline
 90
4
 70
1
 10
1047.857142857143
 20
2457.8571428571427
 10
1060.7142857142858
 20
2457.8571428571427
 10
1060.7142857142858
 20
2005.7142857142856
 10
1047.857142857143
 20
2005.7142857142856
  0
HATCH
  5
D8
330
17
100
AcDbEntity
  8
WALL
100
AcDbHatch
 10
0.0
 20
0.0
 30
0.0
210
0.0
220
0.0
230
1.0
  2
SOLID
 70
1
 71
0
 91
1
 92
3
 72
0
 73
1
 93
4
 10
1047.857142857143
 20
2457.8571428571427
 10
1060.7142857142858
 20
2457.8571428571427
 10
1060.7142857142858
 20
2005.7142857142856
 10
1047.857142857143
 20
2005.7142857142856
 97
0
 75
1
 76
1
 98
0
  0
LWPOLYLINE
  5
D9
330
17
100
AcDbEntity
  8
WALL
100
AcDbPolyline
 90
4
 70
1
 10
726.4285714285714
 20
2455.714285714286
 10
735.0
 20
2455.714285714286
 10
735.0
 20
1997.142857142857
 10
726.4285714285714
 20
1997.142857142857
  0
HATCH
  5
DA
330
17
100
AcDbEntity
  8
WALL
100
AcDbHatch
 10
0.0
 20
0.0
 30
0.0
210
0.0
220
0.0
230
1.0
  2
SOLID
 70
1
 71
0
 91
1
 92
3
 72
0
 73
1
 93
4
 10
726.4285714285714
 20
2455.714285714286
 10
735.0
 20
2455.714285714286
 10
735.0
 20
1997.142857142857
 10
726.4285714285714
 20
1997.142857142857
 97
0
 75
1
 76
1
 98
0
  0
LWPOLYLINE
  5
DB
330
17
100
AcDbEntity
  8
WALL
100
AcDbPolyline
 90
4
 70
1
 10
872.1428571428571
 20
2455.714285714286
 10
885.0
 20
2455.714285714286
 10
885.0
 20
1902.857142857143
 10
872.1428571428571
 20
1902.857142857143
  0
HATCH
  5
DC
330
17
100
AcDbEntity
  8
WALL
100
AcDbHatch
 10
0.0
 20
0.0
 30
0.0
210
0.0
220
0.0
230
1.0
  2
SOLID
 70
1
 71
0
 91
1
 92
3
 72
0
 73
1
 93
4
 10
872.1428571428571
 20
2455.714285714286
 10
885.0
 20
2455.714285714286
 10
885.0
 20
1902.857142857143
 10
872.1428571428571
 20
1902.857142857143
 97
0
 75
1
 76
1
 98
0
  0
LWPOLYLINE
  5
DD
330
17
100
AcDbEntity
  8
WALL
100
AcDbPolyline
 90
4
 70
1
 10
580.7142857142857
 20
2427.8571428571427
 10
602.1428571428571
 20
2427.8571428571427
 10
602.1428571428571
 20
2134.285714285714
 10
580.7142857142857
 20
2134.285714285714
  0
HATCH
  5
DE
330
17
100
AcDbEntity
  8
WALL
100
AcDbHatch
 10
0.0
 20
0.0
 30
0.0
210
0.0
220
0.0
230
1.0
  2
SOLID
 70
1
 71
0
 91
1
 92
3
 72
0
 73
1
 93
4
 10
580.7142857142857
 20
2427.8571428571427
 10
602.1428571428571
 20
2427.8571428571427
 10
602.1428571428571
 20
2134.285714285714
 10
580.7142857142857
 20
2134.285714285714
 97
0
 75
1
 76
1
 98
0
  0
LWPOLYLINE
  5
DF
330
17
100
AcDbEntity
  8
WALL
100
AcDbPolyline
 90
4
 70
1
 10
199.28571428571428
 20
2382.8571428571427
 10
216.42857142857142
 20
2382.8571428571427
 10
216.42857142857142
 20
2318.5714285714284
 10
199.28571428571428
 20
2318.5714285714284
  0
HATCH
  5
E0
330
17
100
AcDbEntity
  8
WALL
100
AcDbHatch
 10
0.0
 20
0.0
 30
0.0
210
0.0
220
0.0
230
1.0
  2
SOLID
 70
1
 71
0
 91
1
 92
3
 72
0
 73
1
 93
4
 10
199.28571428571428
 20
2382.8571428571427
 10
216.42857142857142
 20
2382.8571428571427
 10
216.42857142857142
 20
2318.5714285714284
 10
199.28571428571428
 20
2318.5714285714284
 97
0
 75
1
 76
1
 98
0
  0
LWPOLYLINE
  5
E1
330
17
100
AcDbEntity
  8
WALL
100
AcDbPolyline
 90
4
 70
1
 10
1810.7142857142856
 20
2327.142857142857
 10
1819.2857142857142
 20
2327.142857142857
 10
1819.2857142857142
 20
1967.142857142857
 10
1810.7142857142856
 20
1967.142857142857
  0
HATCH
  5
E2
330
17
100
AcDbEntity
  8
WALL
100
AcDbHatch
 10
0.0
 20
0.0
 30
0.0
210
0.0
220
0.0
230
1.0
  2
SOLID
 70
1
 71
0
 91
1
 92
3
 72
0
 73
1
 93
4
 10
1810.7142857142856
 20
2327.142857142857
 10
1819.2857142857142
 20
2327.142857142857
 10
1819.2857142857142
 20
1967.142857142857
 10
1810.7142857142856
 20
1967.142857142857
 97
0
 75
1
 76
1
 98
0
  0
LWPOLYLINE
  5
E3
330
17
100
AcDbEntity
  8
WALL
100
AcDbPolyline
 90
4
 70
1
 10
910.7142857142857
 20
2310.0
 10
919.2857142857142
 20
2310.0
 10
919.2857142857142
 20
2237.142857142857
 10
910.7142857142857
 20
2237.142857142857
  0
HATCH
  5
E4
330
17
100
AcDbEntity
  8
WALL
100
AcDbHatch
 10
0.0
 20
0.0
 30
0.0
210
0.0
220
0.0
230
1.0
  2
SOLID
 70
1
 71
0
 91
1
 92
3
 72
0
 73
1
 93
4
 10
910.7142857142857
 20
2310.0
 10
919.2857142857142
 20
2310.0
 10
919.2857142857142
 20
2237.142857142857
 10
910.7142857142857
 20
2237.142857142857
 97
0
 75
1
 76
1
 98
0
  0
LWPOLYLINE
  5
E5
330
17
100
AcDbEntity
  8
WALL
100
AcDbPolyline
 90
4
 70
1
 10
979.2857142857142
 20
2252.142857142857
 10
987.8571428571428
 20
2252.142857142857
 10
987.8571428571428
 20
2194.285714285714
 10
979.2857142857142
 20
2194.285714285714
  0
HATCH
  5
E6
330
17
100
AcDbEntity
  8
WALL
100
AcDbHatch
 10
0.0
 20
0.0
 30
0.0
210
0.0
220
0.0
230
1.0
  2
SOLID
 70
1
 71
0
 91
1
 92
3
 72
0
 73
1
 93
4
 10
979.2857142857142
 20
2252.142857142857
 10
987.8571428571428
 20
2252.142857142857
 10
987.8571428571428
 20
2194.285714285714
 10
979.2857142857142
 20
2194.285714285714
 97
0
 75
1
 76
1
 98
0
  0
LWPOLYLINE
  5
E7
330
17
100
AcDbEntity
  8
WALL
100
AcDbPolyline
 90
4
 70
1
 10
1707.857142857143
 20
2243.5714285714284
 10
1712.142857142857
 20
2243.5714285714284
 10
1712.142857142857
 20
2200.714285714286
 10
1707.857142857143
 20
2200.714285714286
  0
HATCH
  5
E8
330
17
100
AcDbEntity
  8
WALL
100
AcDbHatch
 10
0.0
 20
0.0
 30
0.0
210
0.0
220
0.0
230
1.0
  2
SOLID
 70
1
 71
0
 91
1
 92
3
 72
0
 73
1
 93
4
 10
1707.857142857143
 20
2243.5714285714284
 10
1712.142857142857
 20
2243.5714285714284
 10
1712.142857142857
 20
2200.714285714286
 10
1707.857142857143
 20
2200.714285714286
 97
0
 75
1
 76
1
 98
0
  0
LWPOLYLINE
  5
E9
330
17
100
AcDbEntity
  8
WALL
100
AcDbPolyline
 90
4
 70
1
 10
207.85714285714286
 20
2226.4285714285716
 10
216.42857142857142
 20
2226.4285714285716
 10
216.42857142857142
 20
2177.142857142857
 10
207.85714285714286
 20
2177.142857142857
  0
HATCH
  5
EA
330
17
100
AcDbEntity
  8
WALL
100
AcDbHatch
 10
0.0
 20
0.0
 30
0.0
210
0.0
220
0.0
230
1.0
  2
SOLID
 70
1
 71
0
 91
1
 92
3
 72
0
 73
1
 93
4
 10
207.85714285714286
 20
2226.4285714285716
 10
216.42857142857142
 20
2226.4285714285716
 10
216.42857142857142
 20
2177.142857142857
 10
207.85714285714286
 20
2177.142857142857
 97
0
 75
1
 76
1
 98
0
  0
LWPOLYLINE
  5
EB
330
17
100
AcDbEntity
  8
WALL
100
AcDbPolyline
 90
4
 70
1
 10
1703.5714285714284
 20
2106.4285714285716
 10
1712.142857142857
 20
2106.4285714285716
 10
1712.142857142857
 20
2050.714285714286
 10
1703.5714285714284
 20
2050.714285714286
  0
HATCH
  5
EC
330
17
100
AcDbEntity
  8
WALL
100
AcDbHatch
 10
0.0
 20
0.0
 30
0.0
210
0.0
220
0.0
230
1.0
  2
SOLID
 70
1
 71
0
 91
1
 92
3
 72
0
 73
1
 93
4
 10
1703.5714285714284
 20
2106.4285714285716
 10
1712.142857142857
 20
2106.4285714285716
 10
1712.142857142857
 20
2050.714285714286
 10
1703.5714285714284
 20
2050.714285714286
 97
0
 75
1
 76
1
 98
0
  0
LWPOLYLINE
  5
ED
330
17
100
AcDbEntity
  8
WALL
100
AcDbPolyline
 90
4
 70
1
 10
910.7142857142857
 20
2104.285714285714
 10
919.2857142857142
 20
2104.285714285714
 10
919.2857142857142
 20
2035.7142857142856
 10
910.7142857142857
 20
2035.7142857142856
  0
HATCH
  5
EE
330
17
100
AcDbEntity
  8
WALL
100
AcDbHatch
 10
0.0
 20
0.0
 30
0.0
210
0.0
220
0.0
230
1.0
  2
SOLID
 70
1
 71
0
 91
1
 92
3
 72
0
 73
1
 93
4
 10
910.7142857142857
 20
2104.285714285714
 10
919.2857142857142
 20
2104.285714285714
 10
919.2857142857142
 20
2035.7142857142856
 10
910.7142857142857
 20
2035.7142857142856
 97
0
 75
1
 76
1
 98
0
  0
LWPOLYLINE
  5
EF
330
17
100
AcDbEntity
  8
WALL
100
AcDbPolyline
 90
4
 70
1
 10
60.0
 20
2031.4285714285713
 10
62.14285714285714
 20
2031.4285714285713
 10
62.14285714285714
 20
1992.857142857143
 10
60.0
 20
1992.857142857143
  0
HATCH
  5
F0
330
17
100
AcDbEntity
  8
WALL
100
AcDbHatch
 10
0.0
 20
0.0
 30
0.0
210
0.0
220
0.0
230
1.0
  2
SOLID
 70
1
 71
0
 91
1
 92
3
 72
0
 73
1
 93
4
 10
60.0
 20
2031.4285714285713
 10
62.14285714285714
 20
2031.4285714285713
 10
62.14285714285714
 20
1992.857142857143
 10
60.0
 20
1992.857142857143
 97
0
 75
1
 76
1
 98
0
  0
LWPOLYLINE
  5
F1
330
17
100
AcDbEntity
  8
WALL
100
AcDbPolyline
 90
4
 70
1
 10
1699.2857142857142
 20
2031.4285714285713
 10
1703.5714285714284
 20
2031.4285714285713
 10
1703.5714285714284
 20
1992.857142857143
 10
1699.2857142857142
 20
1992.857142857143
  0
HATCH
  5
F2
330
17
100
AcDbEntity
  8
WALL
100
AcDbHatch
 10
0.0
 20
0.0
 30
0.0
210
0.0
220
0.0
230
1.0
  2
SOLID
 70
1
 71
0
 91
1
 92
3
 72
0
 73
1
 93
4
 10
1699.2857142857142
 20
2031.4285714285713
 10
1703.5714285714284
 20
2031.4285714285713
 10
1703.5714285714284
 20
1992.857142857143
 10
1699.2857142857142
 20
1992.857142857143
 97
0
 75
1
 76
1
 98
0
  0
LWPOLYLINE
  5
F3
330
17
100
AcDbEntity
  8
WALL
100
AcDbPolyline
 90
4
 70
1
 10
863.5714285714286
 20
1898.5714285714284
 10
885.0
 20
1898.5714285714284
 10
885.0
 20
1650.0
 10
863.5714285714286
 20
1650.0
  0
HATCH
  5
F4
330
17
100
AcDbEntity
  8
WALL
100
AcDbHatch
 10
0.0
 20
0.0
 30
0.0
210
0.0
220
0.0
230
1.0
  2
SOLID
 70
1
 71
0
 91
1
 92
3
 72
0
 73
1
 93
4
 10
863.5714285714286
 20
1898.5714285714284
 10
885.0
 20
1898.5714285714284
 10
885.0
 20
1650.0
 10
863.5714285714286
 20
1650.0
 97
0
 75
1
 76
1
 98
0
  0
LWPOLYLINE
  5
F5
330
17
100
AcDbEntity
  8
WALL
100
AcDbPolyline
 90
4
 70
1
 10
889.2857142857142
 20
1890.0
 10
919.2857142857142
 20
1890.0
 10
919.2857142857142
 20
1650.0
 10
889.2857142857142
 20
1650.0
  0
HATCH
  5
F6
330
17
100
AcDbEntity
  8
WALL
100
AcDbHatch
 10
0.0
 20
0.0
 30
0.0
210
0.0
220
0.0
230
1.0
  2
SOLID
 70
1
 71
0
 91
1
 92
3
 72
0
 73
1
 93
4
 10
889.2857142857142
 20
1890.0
 10
919.2857142857142
 20
1890.0
 10
919.2857142857142
 20
1650.0
 10
889.2857142857142
 20
1650.0
 97
0
 75
1
 76
1
 98
0
  0
LWPOLYLINE
  5
F7
330
17
100
AcDbEntity
  8
WALL
100
AcDbPolyline
 90
4
 70
1
 10
640.7142857142857
 20
1819.2857142857142
 10
670.7142857142857
 20
1819.2857142857142
 10
670.7142857142857
 20
1568.5714285714284
 10
640.7142857142857
 20
1568.5714285714284
  0
HATCH
  5
F8
330
17
100
AcDbEntity
  8
WALL
100
AcDbHatch
 10
0.0
 20
0.0
 30
0.0
210
0.0
220
0.0
230
1.0
  2
SOLID
 70
1
 71
0
 91
1
 92
3
 72
0
 73
1
 93
4
 10
640.7142857142857
 20
1819.2857142857142
 10
670.7142857142857
 20
1819.2857142857142
 10
670.7142857142857
 20
1568.5714285714284
 10
640.7142857142857
 20
1568.5714285714284
 97
0
 75
1
 76
1
 98
0
  0
LWPOLYLINE
  5
F9
330
17
100
AcDbEntity
  8
WALL
100
AcDbPolyline
 90
4
 70
1
 10
1253.5714285714284
 20
1684.2857142857142
 10
1275.0
 20
1684.2857142857142
 10
1275.0
 20
1519.2857142857142
 10
1253.5714285714284
 20
1519.2857142857142
  0
HATCH
  5
FA
330
17
100
AcDbEntity
  8
WALL
100
AcDbHatch
 10
0.0
 20
0.0
 30
0.0
210
0.0
220
0.0
230
1.0
  2
SOLID
 70
1
 71
0
 91
1
 92
3
 72
0
 73
1
 93
4
 10
1253.5714285714284
 20
1684.2857142857142
 10
1275.0
 20
1684.2857142857142
 10
1275.0
 20
1519.2857142857142
 10
1253.5714285714284
 20
1519.2857142857142
 97
0
 75
1
 76
1
 98
0
  0
LWPOLYLINE
  5
FB
330
17
100
AcDbEntity
  8
WALL
100
AcDbPolyline
 90
4
 70
1
 10
1617.857142857143
 20
1658.5714285714284
 10
1626.4285714285713
 20
1658.5714285714284
 10
1626.4285714285713
 20
1305.0
 10
1617.857142857143
 20
1305.0
  0
HATCH
  5
FC
330
17
100
AcDbEntity
  8
WALL
100
AcDbHatch
 10
0.0
 20
0.0
 30
0.0
210
0.0
220
0.0
230
1.0
  2
SOLID
 70
1
 71
0
 91
1
 92
3
 72
0
 73
1
 93
4
 10
1617.857142857143
 20
1658.5714285714284
 10
1626.4285714285713
 20
1658.5714285714284
 10
1626.4285714285713
 20
1305.0
 10
1617.857142857143
 20
1305.0
 97
0
 75
1
 76
1
 98
0
  0
LWPOLYLINE
  5
FD
330
17
100
AcDbEntity
  8
WALL
100
AcDbPolyline
 90
4
 70
1
 10
1832.142857142857
 20
1598.5714285714284
 10
1840.7142857142856
 20
1598.5714285714284
 10
1840.7142857142856
 20
1538.5714285714284
 10
1832.142857142857
 20
1538.5714285714284
  0
HATCH
  5
FE
330
17
100
AcDbEntity
  8
WALL
100
AcDbHatch
 10
0.0
 20
0.0
 30
0.0
210
0.0
220
0.0
230
1.0
  2
SOLID
 70
1
 71
0
 91
1
 92
3
 72
0
 73
1
 93
4
 10
1832.142857142857
 20
1598.5714285714284
 10
1840.7142857142856
 20
1598.5714285714284
 10
1840.7142857142856
 20
1538.5714285714284
 10
1832.142857142857
 20
1538.5714285714284
 97
0
 75
1
 76
1
 98
0
  0
LWPOLYLINE
  5
FF
330
17
100
AcDbEntity
  8
WALL
100
AcDbPolyline
 90
4
 70
1
 10
1849.2857142857142
 20
1570.7142857142858
 10
1857.857142857143
 20
1570.7142857142858
 10
1857.857142857143
 20
1508.5714285714284
 10
1849.2857142857142
 20
1508.5714285714284
  0
HATCH
  5
100
330
17
100
AcDbEntity
  8
WALL
100
AcDbHatch
 10
0.0
 20
0.0
 30
0.0
210
0.0
220
0.0
230
1.0
  2
SOLID
 70
1
 71
0
 91
1
 92
3
 72
0
 73
1
 93
4
 10
1849.2857142857142
 20
1570.7142857142858
 10
1857.857142857143
 20
1570.7142857142858
 10
1857.857142857143
 20
1508.5714285714284
 10
1849.2857142857142
 20
1508.5714285714284
 97
0
 75
1
 76
1
 98
0
  0
LWPOLYLINE
  5
101
330
17
100
AcDbEntity
  8
WALL
100
AcDbPolyline
 90
4
 70
1
 10
242.14285714285714
 20
1560.0
 10
259.2857142857143
 20
1560.0
 10
259.2857142857143
 20
1512.857142857143
 10
242.14285714285714
 20
1512.857142857143
  0
HATCH
  5
102
330
17
100
AcDbEntity
  8
WALL
100
AcDbHatch
 10
0.0
 20
0.0
 30
0.0
210
0.0
220
0.0
230
1.0
  2
SOLID
 70
1
 71
0
 91
1
 92
3
 72
0
 73
1
 93
4
 10
242.14285714285714
 20
1560.0
 10
259.2857142857143
 20
1560.0
 10
259.2857142857143
 20
1512.857142857143
 10
242.14285714285714
 20
1512.857142857143
 97
0
 75
1
 76
1
 98
0
  0
LWPOLYLINE
  5
103
330
17
100
AcDbEntity
  8
WALL
100
AcDbPolyline
 90
4
 70
1
 10
627.8571428571429
 20
1542.857142857143
 10
636.4285714285714
 20
1542.857142857143
 10
636.4285714285714
 20
1452.857142857143
 10
627.8571428571429
 20
1452.857142857143
  0
HATCH
  5
104
330
17
100
AcDbEntity
  8
WALL
100
AcDbHatch
 10
0.0
 20
0.0
 30
0.0
210
0.0
220
0.0
230
1.0
  2
SOLID
 70
1
 71
0
 91
1
 92
3
 72
0
 73
1
 93
4
 10
627.8571428571429
 20
1542.857142857143
 10
636.4285714285714
 20
1542.857142857143
 10
636.4285714285714
 20
1452.857142857143
 10
627.8571428571429
 20
1452.857142857143
 97
0
 75
1
 76
1
 98
0
  0
LWPOLYLINE
  5
105
330
17
100
AcDbEntity
  8
WALL
100
AcDbPolyline
 90
4
 70
1
 10
242.14285714285714
 20
1510.7142857142858
 10
250.7142857142857
 20
1510.7142857142858
 10
250.7142857142857
 20
1324.2857142857142
 10
242.14285714285714
 20
1324.2857142857142
  0
HATCH
  5
106
330
17
100
AcDbEntity
  8
WALL
100
AcDbHatch
 10
0.0
 20
0.0
 30
0.0
210
0.0
220
0.0
230
1.0
  2
SOLID
 70
1
 71
0
 91
1
 92
3
 72
0
 73
1
 93
4
 10
242.14285714285714
 20
1510.7142857142858
 10
250.7142857142857
 20
1510.7142857142858
 10
250.7142857142857
 20
1324.2857142857142
 10
242.14285714285714
 20
1324.2857142857142
 97
0
 75
1
 76
1
 98
0
  0
LWPOLYLINE
  5
107
330
17
100
AcDbEntity
  8
WALL
100
AcDbPolyline
 90
4
 70
1
 10
169.28571428571428
 20
1502.142857142857
 10
177.85714285714286
 20
1502.142857142857
 10
177.85714285714286
 20
1431.4285714285713
 10
169.28571428571428
 20
1431.4285714285713
  0
HATCH
  5
108
330
17
100
AcDbEntity
  8
WALL
100
AcDbHatch
 10
0.0
 20
0.0
 30
0.0
210
0.0
220
0.0
230
1.0
  2
SOLID
 70
1
 71
0
 91
1
 92
3
 72
0
 73
1
 93
4
 10
169.28571428571428
 20
1502.142857142857
 10
177.85714285714286
 20
1502.142857142857
 10
177.85714285714286
 20
1431.4285714285713
 10
169.28571428571428
 20
1431.4285714285713
 97
0
 75
1
 76
1
 98
0
  0
LWPOLYLINE
  5
109
330
17
100
AcDbEntity
  8
WALL
100
AcDbPolyline
 90
4
 70
1
 10
1853.5714285714284
 20
1493.5714285714284
 10
1862.142857142857
 20
1493.5714285714284
 10
1862.142857142857
 20
1448.5714285714284
 10
1853.5714285714284
 20
1448.5714285714284
  0
HATCH
  5
10A
330
17
100
AcDbEntity
  8
WALL
100
AcDbHatch
 10
0.0
 20
0.0
 30
0.0
210
0.0
220
0.0
230
1.0
  2
SOLID
 70
1
 71
0
 91
1
 92
3
 72
0
 73
1
 93
4
 10
1853.5714285714284
 20
1493.5714285714284
 10
1862.142857142857
 20
1493.5714285714284
 10
1862.142857142857
 20
1448.5714285714284
 10
1853.5714285714284
 20
1448.5714285714284
 97
0
 75
1
 76
1
 98
0
  0
LWPOLYLINE
  5
10B
330
17
100
AcDbEntity
  8
WALL
100
AcDbPolyline
 90
4
 70
1
 10
664.2857142857142
 20
1470.0
 10
666.4285714285714
 20
1470.0
 10
666.4285714285714
 20
1431.4285714285713
 10
664.2857142857142
 20
1431.4285714285713
  0
HATCH
  5
10C
330
17
100
AcDbEntity
  8
WALL
100
AcDbHatch
 10
0.0
 20
0.0
 30
0.0
210
0.0
220
0.0
230
1.0
  2
SOLID
 70
1
 71
0
 91
1
 92
3
 72
0
 73
1
 93
4
 10
664.2857142857142
 20
1470.0
 10
666.4285714285714
 20
1470.0
 10
666.4285714285714
 20
1431.4285714285713
 10
664.2857142857142
 20
1431.4285714285713
 97
0
 75
1
 76
1
 98
0
  0
LWPOLYLINE
  5
10D
330
17
100
AcDbEntity
  8
WALL
100
AcDbPolyline
 90
4
 70
1
 10
863.5714285714286
 20
1470.0
 10
885.0
 20
1470.0
 10
885.0
 20
1212.857142857143
 10
863.5714285714286
 20
1212.857142857143
  0
HATCH
  5
10E
330
17
100
AcDbEntity
  8
WALL
100
AcDbHatch
 10
0.0
 20
0.0
 30
0.0
210
0.0
220
0.0
230
1.0
  2
SOLID
 70
1
 71
0
 91
1
 92
3
 72
0
 73
1
 93
4
 10
863.5714285714286
 20
1470.0
 10
885.0
 20
1470.0
 10
885.0
 20
1212.857142857143
 10
863.5714285714286
 20
1212.857142857143
 97
0
 75
1
 76
1
 98
0
  0
LWPOLYLINE
  5
10F
330
17
100
AcDbEntity
  8
WALL
100
AcDbPolyline
 90
4
 70
1
 10
1562.142857142857
 20
1455.0
 10
1575.0
 20
1455.0
 10
1575.0
 20
1354.2857142857142
 10
1562.142857142857
 20
1354.2857142857142
  0
HATCH
  5
110
330
17
100
AcDbEntity
  8
WALL
100
AcDbHatch
 10
0.0
 20
0.0
 30
0.0
210
0.0
220
0.0
230
1.0
  2
SOLID
 70
1
 71
0
 91
1
 92
3
 72
0
 73
1
 93
4
 10
1562.142857142857
 20
1455.0
 10
1575.0
 20
1455.0
 10
1575.0
 20
1354.2857142857142
 10
1562.142857142857
 20
1354.2857142857142
 97
0
 75
1
 76
1
 98
0
  0
LWPOLYLINE
  5
111
330
17
100
AcDbEntity
  8
WALL
100
AcDbPolyline
 90
4
 70
1
 10
1832.142857142857
 20
1446.4285714285713
 10
1840.7142857142856
 20
1446.4285714285713
 10
1840.7142857142856
 20
1326.4285714285713
 10
1832.142857142857
 20
1326.4285714285713
  0
HATCH
  5
112
330
17
100
AcDbEntity
  8
WALL
100
AcDbHatch
 10
0.0
 20
0.0
 30
0.0
210
0.0
220
0.0
230
1.0
  2
SOLID
 70
1
 71
0
 91
1
 92
3
 72
0
 73
1
 93
4
 10
1832.142857142857
 20
1446.4285714285713
 10
1840.7142857142856
 20
1446.4285714285713
 10
1840.7142857142856
 20
1326.4285714285713
 10
1832.142857142857
 20
1326.4285714285713
 97
0
 75
1
 76
1
 98
0
  0
LWPOLYLINE
  5
113
330
17
100
AcDbEntity
  8
WALL
100
AcDbPolyline
 90
4
 70
1
 10
96.42857142857143
 20
1444.2857142857142
 10
105.0
 20
1444.2857142857142
 10
105.0
 20
1358.5714285714284
 10
96.42857142857143
 20
1358.5714285714284
  0
HATCH
  5
114
330
17
100
AcDbEntity
  8
WALL
100
AcDbHatch
 10
0.0
 20
0.0
 30
0.0
210
0.0
220
0.0
230
1.0
  2
SOLID
 70
1
 71
0
 91
1
 92
3
 72
0
 73
1
 93
4
 10
96.42857142857143
 20
1444.2857142857142
 10
105.0
 20
1444.2857142857142
 10
105.0
 20
1358.5714285714284
 10
96.42857142857143
 20
1358.5714285714284
 97
0
 75
1
 76
1
 98
0
  0
LWPOLYLINE
  5
115
330
17
100
AcDbEntity
  8
WALL
100
AcDbPolyline
 90
4
 70
1
 10
169.28571428571428
 20
1427.142857142857
 10
177.85714285714286
 20
1427.142857142857
 10
177.85714285714286
 20
1380.0
 10
169.28571428571428
 20
1380.0
  0
HATCH
  5
116
330
17
100
AcDbEntity
  8
WALL
100
AcDbHatch
 10
0.0
 20
0.0
 30
0.0
210
0.0
220
0.0
230
1.0
  2
SOLID
 70
1
 71
0
 91
1
 92
3
 72
0
 73
1
 93
4
 10
169.28571428571428
 20
1427.142857142857
 10
177.85714285714286
 20
1427.142857142857
 10
177.85714285714286
 20
1380.0
 10
169.28571428571428
 20
1380.0
 97
0
 75
1
 76
1
 98
0
  0
LWPOLYLINE
  5
117
330
17
100
AcDbEntity
  8
WALL
100
AcDbPolyline
 90
4
 70
1
 10
1232.142857142857
 20
1416.4285714285713
 10
1257.857142857143
 20
1416.4285714285713
 10
1257.857142857143
 20
1277.142857142857
 10
1232.142857142857
 20
1277.142857142857
  0
HATCH
  5
118
330
17
100
AcDbEntity
  8
WALL
100
AcDbHatch
 10
0.0
 20
0.0
 30
0.0
210
0.0
220
0.0
230
1.0
  2
SOLID
 70
1
 71
0
 91
1
 92
3
 72
0
 73
1
 93
4
 10
1232.142857142857
 20
1416.4285714285713
 10
1257.857142857143
 20
1416.4285714285713
 10
1257.857142857143
 20
1277.142857142857
 10
1232.142857142857
 20
1277.142857142857
 97
0
 75
1
 76
1
 98
0
  0
LWPOLYLINE
  5
119
330
17
100
AcDbEntity
  8
WALL
100
AcDbPolyline
 90
4
 70
1
 10
1416.4285714285713
 20
1418.5714285714284
 10
1429.2857142857142
 20
1418.5714285714284
 10
1429.2857142857142
 20
1307.142857142857
 10
1416.4285714285713
 20
1307.142857142857
  0
HATCH
  5
11A
330
17
100
AcDbEntity
  8
WALL
100
AcDbHatch
 10
0.0
 20
0.0
 30
0.0
210
0.0
220
0.0
230
1.0
  2
SOLID
 70
1
 71
0
 91
1
 92
3
 72
0
 73
1
 93
4
 10
1416.4285714285713
 20
1418.5714285714284
 10
1429.2857142857142
 20
1418.5714285714284
 10
1429.2857142857142
 20
1307.142857142857
 10
1416.4285714285713
 20
1307.142857142857
 97
0
 75
1
 76
1
 98
0
  0
LWPOLYLINE
  5
11B
330
17
100
AcDbEntity
  8
WALL
100
AcDbPolyline
 90
4
 70
1
 10
1275.0
 20
1392.857142857143
 10
1283.5714285714284
 20
1392.857142857143
 10
1283.5714285714284
 20
1307.142857142857
 10
1275.0
 20
1307.142857142857
  0
HATCH
  5
11C
330
17
100
AcDbEntity
  8
WALL
100
AcDbHatch
 10
0.0
 20
0.0
 30
0.0
210
0.0
220
0.0
230
1.0
  2
SOLID
 70
1
 71
0
 91
1
 92
3
 72
0
 73
1
 93
4
 10
1275.0
 20
1392.857142857143
 10
1283.5714285714284
 20
1392.857142857143
 10
1283.5714285714284
 20
1307.142857142857
 10
1275.0
 20
1307.142857142857
 97
0
 75
1
 76
1
 98
0
  0
LWPOLYLINE
  5
11D
330
17
100
AcDbEntity
  8
WALL
100
AcDbPolyline
 90
4
 70
1
 10
1583.5714285714284
 20
1392.857142857143
 10
1592.142857142857
 20
1392.857142857143
 10
1592.142857142857
 20
1302.857142857143
 10
1583.5714285714284
 20
1302.857142857143
  0
HATCH
  5
11E
330
17
100
AcDbEntity
  8
WALL
100
AcDbHatch
 10
0.0
 20
0.0
 30
0.0
210
0.0
220
0.0
230
1.0
  2
SOLID
 70
1
 71
0
 91
1
 92
3
 72
0
 73
1
 93
4
 10
1583.5714285714284
 20
1392.857142857143
 10
1592.142857142857
 20
1392.857142857143
 10
1592.142857142857
 20
1302.857142857143
 10
1583.5714285714284
 20
1302.857142857143
 97
0
 75
1
 76
1
 98
0
  0
LWPOLYLINE
  5
11F
330
17
100
AcDbEntity
  8
WALL
100
AcDbPolyline
 90
4
 70
1
 10
57.857142857142854
 20
1354.2857142857142
 10
66.42857142857143
 20
1354.2857142857142
 10
66.42857142857143
 20
1307.142857142857
 10
57.857142857142854
 20
1307.142857142857
  0
HATCH
  5
120
330
17
100
AcDbEntity
  8
WALL
100
AcDbHatch
 10
0.0
 20
0.0
 30
0.0
210
0.0
220
0.0
230
1.0
  2
SOLID
 70
1
 71
0
 91
1
 92
3
 72
0
 73
1
 93
4
 10
57.857142857142854
 20
1354.2857142857142
 10
66.42857142857143
 20
1354.2857142857142
 10
66.42857142857143
 20
1307.142857142857
 10
57.857142857142854
 20
1307.142857142857
 97
0
 75
1
 76
1
 98
0
  0
LWPOLYLINE
  5
121
330
17
100
AcDbEntity
  8
WALL
100
AcDbPolyline
 90
4
 70
1
 10
171.42857142857142
 20
1311.4285714285713
 10
173.57142857142856
 20
1311.4285714285713
 10
173.57142857142856
 20
1272.857142857143
 10
171.42857142857142
 20
1272.857142857143
  0
HATCH
  5
122
330
17
100
AcDbEntity
  8
WALL
100
AcDbHatch
 10
0.0
 20
0.0
 30
0.0
210
0.0
220
0.0
230
1.0
  2
SOLID
 70
1
 71
0
 91
1
 92
3
 72
0
 73
1
 93
4
 10
171.42857142857142
 20
1311.4285714285713
 10
173.57142857142856
 20
1311.4285714285713
 10
173.57142857142856
 20
1272.857142857143
 10
171.42857142857142
 20
1272.857142857143
 97
0
 75
1
 76
1
 98
0
  0
LWPOLYLINE
  5
123
330
17
100
AcDbEntity
  8
WALL
100
AcDbPolyline
 90
4
 70
1
 10
1609.2857142857142
 20
1272.857142857143
 10
1613.5714285714284
 20
1272.857142857143
 10
1613.5714285714284
 20
1227.857142857143
 10
1609.2857142857142
 20
1227.857142857143
  0
HATCH
  5
124
330
17
100
AcDbEntity
  8
WALL
100
AcDbHatch
 10
0.0
 20
0.0
 30
0.0
210
0.0
220
0.0
230
1.0
  2
SOLID
 70
1
 71
0
 91
1
 92
3
 72
0
 73
1
 93
4
 10
1609.2857142857142
 20
1272.857142857143
 10
1613.5714285714284
 20
1272.857142857143
 10
1613.5714285714284
 20
1227.857142857143
 10
1609.2857142857142
 20
1227.857142857143
 97
0
 75
1
 76
1
 98
0
  0
LWPOLYLINE
  5
125
330
17
100
AcDbEntity
  8
WALL
100
AcDbPolyline
 90
4
 70
1
 10
57.857142857142854
 20
1266.4285714285713
 10
70.71428571428571
 20
1266.4285714285713
 10
70.71428571428571
 20
1178.5714285714284
 10
57.857142857142854
 20
1178.5714285714284
  0
HATCH
  5
126
330
17
100
AcDbEntity
  8
WALL
100
AcDbHatch
 10
0.0
 20
0.0
 30
0.0
210
0.0
220
0.0
230
1.0
  2
SOLID
 70
1
 71
0
 91
1
 92
3
 72
0
 73
1
 93
4
 10
57.857142857142854
 20
1266.4285714285713
 10
70.71428571428571
 20
1266.4285714285713
 10
70.71428571428571
 20
1178.5714285714284
 10
57.857142857142854
 20
1178.5714285714284
 97
0
 75
1
 76
1
 98
0
  0
LWPOLYLINE
  5
127
330
17
100
AcDbEntity
  8
WALL
100
AcDbPolyline
 90
4
 70
1
 10
1605.0
 20
1221.4285714285713
 10
1613.5714285714284
 20
1221.4285714285713
 10
1613.5714285714284
 20
1174.2857142857142
 10
1605.0
 20
1174.2857142857142
  0
HATCH
  5
128
330
17
100
AcDbEntity
  8
WALL
100
AcDbHatch
 10
0.0
 20
0.0
 30
0.0
210
0.0
220
0.0
230
1.0
  2
SOLID
 70
1
 71
0
 91
1
 92
3
 72
0
 73
1
 93
4
 10
1605.0
 20
1221.4285714285713
 10
1613.5714285714284
 20
1221.4285714285713
 10
1613.5714285714284
 20
1174.2857142857142
 10
1605.0
 20
1174.2857142857142
 97
0
 75
1
 76
1
 98
0
  0
LWPOLYLINE
  5
129
330
17
100
AcDbEntity
  8
WALL
100
AcDbPolyline
 90
4
 70
1
 10
57.857142857142854
 20
1174.2857142857142
 10
66.42857142857143
 20
1174.2857142857142
 10
66.42857142857143
 20
895.7142857142857
 10
57.857142857142854
 20
895.7142857142857
  0
HATCH
  5
12A
330
17
100
AcDbEntity
  8
WALL
100
AcDbHatch
 10
0.0
 20
0.0
 30
0.0
210
0.0
220
0.0
230
1.0
  2
SOLID
 70
1
 71
0
 91
1
 92
3
 72
0
 73
1
 93
4
 10
57.857142857142854
 20
1174.2857142857142
 10
66.42857142857143
 20
1174.2857142857142
 10
66.42857142857143
 20
895.7142857142857
 10
57.857142857142854
 20
895.7142857142857
 97
0
 75
1
 76
1
 98
0
  0
LWPOLYLINE
  5
12B
330
17
100
AcDbEntity
  8
WALL
100
AcDbPolyline
 90
4
 70
1
 10
473.57142857142856
 20
1148.5714285714284
 10
482.1428571428571
 20
1148.5714285714284
 10
482.1428571428571
 20
902.1428571428571
 10
473.57142857142856
 20
902.1428571428571
  0
HATCH
  5
12C
330
17
100
AcDbEntity
  8
WALL
100
AcDbHatch
 10
0.0
 20
0.0
 30
0.0
210
0.0
220
0.0
230
1.0
  2
SOLID
 70
1
 71
0
 91
1
 92
3
 72
0
 73
1
 93
4
 10
473.57142857142856
 20
1148.5714285714284
 10
482.1428571428571
 20
1148.5714285714284
 10
482.1428571428571
 20
902.1428571428571
 10
473.57142857142856
 20
902.1428571428571
 97
0
 75
1
 76
1
 98
0
  0
LWPOLYLINE
  5
12D
330
17
100
AcDbEntity
  8
WALL
100
AcDbPolyline
 90
4
 70
1
 10
1767.857142857143
 20
936.4285714285714
 10
1776.4285714285713
 20
936.4285714285714
 10
1776.4285714285713
 20
895.7142857142857
 10
1767.857142857143
 20
895.7142857142857
  0
HATCH
  5
12E
330
17
100
AcDbEntity
  8
WALL
100
AcDbHatch
 10
0.0
 20
0.0
 30
0.0
210
0.0
220
0.0
230
1.0
  2
SOLID
 70
1
 71
0
 91
1
 92
3
 72
0
 73
1
 93
4
 10
1767.857142857143
 20
936.4285714285714
 10
1776.4285714285713
 20
936.4285714285714
 10
1776.4285714285713
 20
895.7142857142857
 10
1767.857142857143
 20
895.7142857142857
 97
0
 75
1
 76
1
 98
0
  0
LWPOLYLINE
  5
12F
330
17
100
AcDbEntity
  8
WALL
100
AcDbPolyline
 90
4
 70
1
 10
1245.0
 20
906.4285714285714
 10
1257.857142857143
 20
906.4285714285714
 10
1257.857142857143
 20
852.8571428571428
 10
1245.0
 20
852.8571428571428
  0
HATCH
  5
130
330
17
100
AcDbEntity
  8
WALL
100
AcDbHatch
 10
0.0
 20
0.0
 30
0.0
210
0.0
220
0.0
230
1.0
  2
SOLID
 70
1
 71
0
 91
1
 92
3
 72
0
 73
1
 93
4
 10
1245.0
 20
906.4285714285714
 10
1257.857142857143
 20
906.4285714285714
 10
1257.857142857143
 20
852.8571428571428
 10
1245.0
 20
852.8571428571428
 97
0
 75
1
 76
1
 98
0
  0
LWPOLYLINE
  5
131
330
17
100
AcDbEntity
  8
WALL
100
AcDbPolyline
 90
4
 70
1
 10
1802.142857142857
 20
900.0
 10
1815.0
 20
900.0
 10
1815.0
 20
857.1428571428571
 10
1802.142857142857
 20
857.1428571428571
  0
HATCH
  5
132
330
17
100
AcDbEntity
  8
WALL
100
AcDbHatch
 10
0.0
 20
0.0
 30
0.0
210
0.0
220
0.0
230
1.0
  2
SOLID
 70
1
 71
0
 91
1
 92
3
 72
0
 73
1
 93
4
 10
1802.142857142857
 20
900.0
 10
1815.0
 20
900.0
 10
1815.0
 20
857.1428571428571
 10
1802.142857142857
 20
857.1428571428571
 97
0
 75
1
 76
1
 98
0
  0
LWPOLYLINE
  5
133
330
17
100
AcDbEntity
  8
WALL
100
AcDbPolyline
 90
4
 70
1
 10
1268.5714285714284
 20
891.4285714285714
 10
1275.0
 20
891.4285714285714
 10
1275.0
 20
852.8571428571428
 10
1268.5714285714284
 20
852.8571428571428
  0
HATCH
  5
134
330
17
100
AcDbEntity
  8
WALL
100
AcDbHatch
 10
0.0
 20
0.0
 30
0.0
210
0.0
220
0.0
230
1.0
  2
SOLID
 70
1
 71
0
 91
1
 92
3
 72
0
 73
1
 93
4
 10
1268.5714285714284
 20
891.4285714285714
 10
1275.0
 20
891.4285714285714
 10
1275.0
 20
852.8571428571428
 10
1268.5714285714284
 20
852.8571428571428
 97
0
 75
1
 76
1
 98
0
  0
LWPOLYLINE
  5
135
330
17
100
AcDbEntity
  8
WALL
100
AcDbPolyline
 90
4
 70
1
 10
1285.7142857142858
 20
891.4285714285714
 10
1287.857142857143
 20
891.4285714285714
 10
1287.857142857143
 20
852.8571428571428
 10
1285.7142857142858
 20
852.8571428571428
  0
HATCH
  5
136
330
17
100
AcDbEntity
  8
WALL
100
AcDbHatch
 10
0.0
 20
0.0
 30
0.0
210
0.0
220
0.0
230
1.0
  2
SOLID
 70
1
 71
0
 91
1
 92
3
 72
0
 73
1
 93
4
 10
1285.7142857142858
 20
891.4285714285714
 10
1287.857142857143
 20
891.4285714285714
 10
1287.857142857143
 20
852.8571428571428
 10
1285.7142857142858
 20
852.8571428571428
 97
0
 75
1
 76
1
 98
0
  0
LWPOLYLINE
  5
137
330
17
100
AcDbEntity
  8
WALL
100
AcDbPolyline
 90
4
 70
1
 10
319.2857142857143
 20
814.2857142857142
 10
340.7142857142857
 20
814.2857142857142
 10
340.7142857142857
 20
259.2857142857143
 10
319.2857142857143
 20
259.2857142857143
  0
HATCH
  5
138
330
17
100
AcDbEntity
  8
WALL
100
AcDbHatch
 10
0.0
 20
0.0
 30
0.0
210
0.0
220
0.0
230
1.0
  2
SOLID
 70
1
 71
0
 91
1
 92
3
 72
0
 73
1
 93
4
 10
319.2857142857143
 20
814.2857142857142
 10
340.7142857142857
 20
814.2857142857142
 10
340.7142857142857
 20
259.2857142857143
 10
319.2857142857143
 20
259.2857142857143
 97
0
 75
1
 76
1
 98
0
  0
LWPOLYLINE
  5
139
330
17
100
AcDbEntity
  8
WALL
100
AcDbPolyline
 90
4
 70
1
 10
1832.142857142857
 20
767.1428571428571
 10
1840.7142857142856
 20
767.1428571428571
 10
1840.7142857142856
 20
707.1428571428571
 10
1832.142857142857
 20
707.1428571428571
  0
HATCH
  5
13A
330
17
100
AcDbEntity
  8
WALL
100
AcDbHatch
 10
0.0
 20
0.0
 30
0.0
210
0.0
220
0.0
230
1.0
  2
SOLID
 70
1
 71
0
 91
1
 92
3
 72
0
 73
1
 93
4
 10
1832.142857142857
 20
767.1428571428571
 10
1840.7142857142856
 20
767.1428571428571
 10
1840.7142857142856
 20
707.1428571428571
 10
1832.142857142857
 20
707.1428571428571
 97
0
 75
1
 76
1
 98
0
  0
LWPOLYLINE
  5
13B
330
17
100
AcDbEntity
  8
WALL
100
AcDbPolyline
 90
4
 70
1
 10
400.7142857142857
 20
700.7142857142857
 10
430.7142857142857
 20
700.7142857142857
 10
430.7142857142857
 20
372.85714285714283
 10
400.7142857142857
 20
372.85714285714283
  0
HATCH
  5
13C
330
17
100
AcDbEntity
  8
WALL
100
AcDbHatch
 10
0.0
 20
0.0
 30
0.0
210
0.0
220
0.0
230
1.0
  2
SOLID
 70
1
 71
0
 91
1
 92
3
 72
0
 73
1
 93
4
 10
400.7142857142857
 20
700.7142857142857
 10
430.7142857142857
 20
700.7142857142857
 10
430.7142857142857
 20
372.85714285714283
 10
400.7142857142857
 20
372.85714285714283
 97
0
 75
1
 76
1
 98
0
  0
LWPOLYLINE
  5
13D
330
17
100
AcDbEntity
  8
WALL
100
AcDbPolyline
 90
4
 70
1
 10
1819.2857142857142
 20
657.8571428571429
 10
1849.2857142857142
 20
657.8571428571429
 10
1849.2857142857142
 20
499.2857142857143
 10
1819.2857142857142
 20
499.2857142857143
  0
HATCH
  5
13E
330
17
100
AcDbEntity
  8
WALL
100
AcDbHatch
 10
0.0
 20
0.0
 30
0.0
210
0.0
220
0.0
230
1.0
  2
SOLID
 70
1
 71
0
 91
1
 92
3
 72
0
 73
1
 93
4
 10
1819.2857142857142
 20
657.8571428571429
 10
1849.2857142857142
 20
657.8571428571429
 10
1849.2857142857142
 20
499.2857142857143
 10
1819.2857142857142
 20
499.2857142857143
 97
0
 75
1
 76
1
 98
0
  0
LWPOLYLINE
  5
13F
330
17
100
AcDbEntity
  8
WALL
100
AcDbPolyline
 90
4
 70
1
 10
1420.7142857142858
 20
617.1428571428571
 10
1429.2857142857142
 20
617.1428571428571
 10
1429.2857142857142
 20
512.1428571428571
 10
1420.7142857142858
 20
512.1428571428571
  0
HATCH
  5
140
330
17
100
AcDbEntity
  8
WALL
100
AcDbHatch
 10
0.0
 20
0.0
 30
0.0
210
0.0
220
0.0
230
1.0
  2
SOLID
 70
1
 71
0
 91
1
 92
3
 72
0
 73
1
 93
4
 10
1420.7142857142858
 20
617.1428571428571
 10
1429.2857142857142
 20
617.1428571428571
 10
1429.2857142857142
 20
512.1428571428571
 10
1420.7142857142858
 20
512.1428571428571
 97
0
 75
1
 76
1
 98
0
  0
LWPOLYLINE
  5
141
330
17
100
AcDbEntity
  8
WALL
100
AcDbPolyline
 90
4
 70
1
 10
1802.142857142857
 20
604.2857142857142
 10
1810.7142857142856
 20
604.2857142857142
 10
1810.7142857142856
 20
525.0
 10
1802.142857142857
 20
525.0
  0
HATCH
  5
142
330
17
100
AcDbEntity
  8
WALL
100
AcDbHatch
 10
0.0
 20
0.0
 30
0.0
210
0.0
220
0.0
230
1.0
  2
SOLID
 70
1
 71
0
 91
1
 92
3
 72
0
 73
1
 93
4
 10
1802.142857142857
 20
604.2857142857142
 10
1810.7142857142856
 20
604.2857142857142
 10
1810.7142857142856
 20
525.0
 10
1802.142857142857
 20
525.0
 97
0
 75
1
 76
1
 98
0
  0
LWPOLYLINE
  5
143
330
17
100
AcDbEntity
  8
WALL
100
AcDbPolyline
 90
4
 70
1
 10
559.2857142857142
 20
589.2857142857142
 10
563.5714285714286
 20
589.2857142857142
 10
563.5714285714286
 20
548.5714285714286
 10
559.2857142857142
 20
548.5714285714286
  0
HATCH
  5
144
330
17
100
AcDbEntity
  8
WALL
100
AcDbHatch
 10
0.0
 20
0.0
 30
0.0
210
0.0
220
0.0
230
1.0
  2
SOLID
 70
1
 71
0
 91
1
 92
3
 72
0
 73
1
 93
4
 10
559.2857142857142
 20
589.2857142857142
 10
563.5714285714286
 20
589.2857142857142
 10
563.5714285714286
 20
548.5714285714286
 10
559.2857142857142
 20
548.5714285714286
 97
0
 75
1
 76
1
 98
0
  0
LWPOLYLINE
  5
145
330
17
100
AcDbEntity
  8
WALL
100
AcDbPolyline
 90
4
 70
1
 10
1853.5714285714284
 20
550.7142857142857
 10
1862.142857142857
 20
550.7142857142857
 10
1862.142857142857
 20
488.57142857142856
 10
1853.5714285714284
 20
488.57142857142856
  0
HATCH
  5
146
330
17
100
AcDbEntity
  8
WALL
100
AcDbHatch
 10
0.0
 20
0.0
 30
0.0
210
0.0
220
0.0
230
1.0
  2
SOLID
 70
1
 71
0
 91
1
 92
3
 72
0
 73
1
 93
4
 10
1853.5714285714284
 20
550.7142857142857
 10
1862.142857142857
 20
550.7142857142857
 10
1862.142857142857
 20
488.57142857142856
 10
1853.5714285714284
 20
488.57142857142856
 97
0
 75
1
 76
1
 98
0
  0
LWPOLYLINE
  5
147
330
17
100
AcDbEntity
  8
WALL
100
AcDbPolyline
 90
4
 70
1
 10
1617.857142857143
 20
428.57142857142856
 10
1626.4285714285713
 20
428.57142857142856
 10
1626.4285714285713
 20
385.7142857142857
 10
1617.857142857143
 20
385.7142857142857
  0
HATCH
  5
148
330
17
100
AcDbEntity
  8
WALL
100
AcDbHatch
 10
0.0
 20
0.0
 30
0.0
210
0.0
220
0.0
230
1.0
  2
SOLID
 70
1
 71
0
 91
1
 92
3
 72
0
 73
1
 93
4
 10
1617.857142857143
 20
428.57142857142856
 10
1626.4285714285713
 20
428.57142857142856
 10
1626.4285714285713
 20
385.7142857142857
 10
1617.857142857143
 20
385.7142857142857
 97
0
 75
1
 76
1
 98
0
  0
LWPOLYLINE
  5
149
330
17
100
AcDbEntity
  8
WALL
100
AcDbPolyline
 90
4
 70
1
 10
1617.857142857143
 20
381.42857142857144
 10
1626.4285714285713
 20
381.42857142857144
 10
1626.4285714285713
 20
330.0
 10
1617.857142857143
 20
330.0
  0
HATCH
  5
14A
330
17
100
AcDbEntity
  8
WALL
100
AcDbHatch
 10
0.0
 20
0.0
 30
0.0
210
0.0
220
0.0
230
1.0
  2
SOLID
 70
1
 71
0
 91
1
 92
3
 72
0
 73
1
 93
4
 10
1617.857142857143
 20
381.42857142857144
 10
1626.4285714285713
 20
381.42857142857144
 10
1626.4285714285713
 20
330.0
 10
1617.857142857143
 20
330.0
 97
0
 75
1
 76
1
 98
0
  0
LWPOLYLINE
  5
14B
330
17
100
AcDbEntity
  8
WALL
100
AcDbPolyline
 90
4
 70
1
 10
57.857142857142854
 20
364.2857142857143
 10
75.0
 20
364.2857142857143
 10
75.0
 20
270.0
 10
57.857142857142854
 20
270.0
  0
HATCH
  5
14C
330
17
100
AcDbEntity
  8
WALL
100
AcDbHatch
 10
0.0
 20
0.0
 30
0.0
210
0.0
220
0.0
230
1.0
  2
SOLID
 70
1
 71
0
 91
1
 92
3
 72
0
 73
1
 93
4
 10
57.857142857142854
 20
364.2857142857143
 10
75.0
 20
364.2857142857143
 10
75.0
 20
270.0
 10
57.857142857142854
 20
270.0
 97
0
 75
1
 76
1
 98
0
  0
LWPOLYLINE
  5
14D
330
17
100
AcDbEntity
  8
WALL
100
AcDbPolyline
 90
4
 70
1
 10
1819.2857142857142
 20
338.57142857142856
 10
1836.4285714285713
 20
338.57142857142856
 10
1836.4285714285713
 20
240.0
 10
1819.2857142857142
 20
240.0
  0
HATCH
  5
14E
330
17
100
AcDbEntity
  8
WALL
100
AcDbHatch
 10
0.0
 20
0.0
 30
0.0
210
0.0
220
0.0
230
1.0
  2
SOLID
 70
1
 71
0
 91
1
 92
3
 72
0
 73
1
 93
4
 10
1819.2857142857142
 20
338.57142857142856
 10
1836.4285714285713
 20
338.57142857142856
 10
1836.4285714285713
 20
240.0
 10
1819.2857142857142
 20
240.0
 97
0
 75
1
 76
1
 98
0
  0
LWPOLYLINE
  5
14F
330
17
100
AcDbEntity
  8
WALL
100
AcDbPolyline
 90
4
 70
1
 10
1210.7142857142858
 20
334.2857142857143
 10
1227.857142857143
 20
334.2857142857143
 10
1227.857142857143
 20
132.85714285714286
 10
1210.7142857142858
 20
132.85714285714286
  0
HATCH
  5
150
330
17
100
AcDbEntity
  8
WALL
100
AcDbHatch
 10
0.0
 20
0.0
 30
0.0
210
0.0
220
0.0
230
1.0
  2
SOLID
 70
1
 71
0
 91
1
 92
3
 72
0
 73
1
 93
4
 10
1210.7142857142858
 20
334.2857142857143
 10
1227.857142857143
 20
334.2857142857143
 10
1227.857142857143
 20
132.85714285714286
 10
1210.7142857142858
 20
132.85714285714286
 97
0
 75
1
 76
1
 98
0
  0
LWPOLYLINE
  5
151
330
17
100
AcDbEntity
  8
WALL
100
AcDbPolyline
 90
4
 70
1
 10
1853.5714285714284
 20
332.1428571428571
 10
1862.142857142857
 20
332.1428571428571
 10
1862.142857142857
 20
244.28571428571428
 10
1853.5714285714284
 20
244.28571428571428
  0
HATCH
  5
152
330
17
100
AcDbEntity
  8
WALL
100
AcDbHatch
 10
0.0
 20
0.0
 30
0.0
210
0.0
220
0.0
230
1.0
  2
SOLID
 70
1
 71
0
 91
1
 92
3
 72
0
 73
1
 93
4
 10
1853.5714285714284
 20
332.1428571428571
 10
1862.142857142857
 20
332.1428571428571
 10
1862.142857142857
 20
244.28571428571428
 10
1853.5714285714284
 20
244.28571428571428
 97
0
 75
1
 76
1
 98
0
  0
LWPOLYLINE
  5
153
330
17
100
AcDbEntity
  8
WALL
100
AcDbPolyline
 90
4
 70
1
 10
1617.857142857143
 20
310.7142857142857
 10
1626.4285714285713
 20
310.7142857142857
 10
1626.4285714285713
 20
235.7142857142857
 10
1617.857142857143
 20
235.7142857142857
  0
HATCH
  5
154
330
17
100
AcDbEntity
  8
WALL
100
AcDbHatch
 10
0.0
 20
0.0
 30
0.0
210
0.0
220
0.0
230
1.0
  2
SOLID
 70
1
 71
0
 91
1
 92
3
 72
0
 73
1
 93
4
 10
1617.857142857143
 20
310.7142857142857
 10
1626.4285714285713
 20
310.7142857142857
 10
1626.4285714285713
 20
235.7142857142857
 10
1617.857142857143
 20
235.7142857142857
 97
0
 75
1
 76
1
 98
0
  0
LWPOLYLINE
  5
155
330
17
100
AcDbEntity
  8
WALL
100
AcDbPolyline
 90
4
 70
1
 10
1815.0
 20
220.7142857142857
 10
1819.2857142857142
 20
220.7142857142857
 10
1819.2857142857142
 20
165.0
 10
1815.0
 20
165.0
  0
HATCH
  5
156
330
17
100
AcDbEntity
  8
WALL
100
AcDbHatch
 10
0.0
 20
0.0
 30
0.0
210
0.0
220
0.0
230
1.0
  2
SOLID
 70
1
 71
0
 91
1
 92
3
 72
0
 73
1
 93
4
 10
1815.0
 20
220.7142857142857
 10
1819.2857142857142
 20
220.7142857142857
 10
1819.2857142857142
 20
165.0
 10
1815.0
 20
165.0
 97
0
 75
1
 76
1
 98
0
  0
LWPOLYLINE
  5
157
330
17
100
AcDbEntity
  8
WALL
100
AcDbPolyline
 90
4
 70
1
 10
285.0
 20
195.0
 10
289.2857142857143
 20
195.0
 10
289.2857142857143
 20
152.14285714285714
 10
285.0
 20
152.14285714285714
  0
HATCH
  5
158
330
17
100
AcDbEntity
  8
WALL
100
AcDbHatch
 10
0.0
 20
0.0
 30
0.0
210
0.0
220
0.0
230
1.0
  2
SOLID
 70
1
 71
0
 91
1
 92
3
 72
0
 73
1
 93
4
 10
285.0
 20
195.0
 10
289.2857142857143
 20
195.0
 10
289.2857142857143
 20
152.14285714285714
 10
285.0
 20
152.14285714285714
 97
0
 75
1
 76
1
 98
0
  0
LWPOLYLINE
  5
159
330
17
100
AcDbEntity
  8
WALL
100
AcDbPolyline
 90
4
 70
1
 10
1562.142857142857
 20
190.71428571428572
 10
1592.142857142857
 20
190.71428571428572
 10
1592.142857142857
 20
68.57142857142857
 10
1562.142857142857
 20
68.57142857142857
  0
HATCH
  5
15A
330
17
100
AcDbEntity
  8
WALL
100
AcDbHatch
 10
0.0
 20
0.0
 30
0.0
210
0.0
220
0.0
230
1.0
  2
SOLID
 70
1
 71
0
 91
1
 92
3
 72
0
 73
1
 93
4
 10
1562.142857142857
 20
190.71428571428572
 10
1592.142857142857
 20
190.71428571428572
 10
1592.142857142857
 20
68.57142857142857
 10
1562.142857142857
 20
68.57142857142857
 97
0
 75
1
 76
1
 98
0
  0
LWPOLYLINE
  5
15B
330
17
100
AcDbEntity
  8
WALL
100
AcDbPolyline
 90
4
 70
1
 10
1399.2857142857142
 20
180.0
 10
1407.857142857143
 20
180.0
 10
1407.857142857143
 20
94.28571428571428
 10
1399.2857142857142
 20
94.28571428571428
  0
HATCH
  5
15C
330
17
100
AcDbEntity
  8
WALL
100
AcDbHatch
 10
0.0
 20
0.0
 30
0.0
210
0.0
220
0.0
230
1.0
  2
SOLID
 70
1
 71
0
 91
1
 92
3
 72
0
 73
1
 93
4
 10
1399.2857142857142
 20
180.0
 10
1407.857142857143
 20
180.0
 10
1407.857142857143
 20
94.28571428571428
 10
1399.2857142857142
 20
94.28571428571428
 97
0
 75
1
 76
1
 98
0
  0
LWPOLYLINE
  5
15D
330
17
100
AcDbEntity
  8
WALL
100
AcDbPolyline
 90
4
 70
1
 10
1677.857142857143
 20
180.0
 10
1720.7142857142856
 20
180.0
 10
1720.7142857142856
 20
60.0
 10
1677.857142857143
 20
60.0
  0
HATCH
  5
15E
330
17
100
AcDbEntity
  8
WALL
100
AcDbHatch
 10
0.0
 20
0.0
 30
0.0
210
0.0
220
0.0
230
1.0
  2
SOLID
 70
1
 71
0
 91
1
 92
3
 72
0
 73
1
 93
4
 10
1677.857142857143
 20
180.0
 10
1720.7142857142856
 20
180.0
 10
1720.7142857142856
 20
60.0
 10
1677.857142857143
 20
60.0
 97
0
 75
1
 76
1
 98
0
  0
LWPOLYLINE
  5
15F
330
17
100
AcDbEntity
  8
WALL
100
AcDbPolyline
 90
4
 70
1
 10
1326.4285714285713
 20
115.71428571428571
 10
1339.2857142857142
 20
115.71428571428571
 10
1339.2857142857142
 20
72.85714285714286
 10
1326.4285714285713
 20
72.85714285714286
  0
HATCH
  5
160
330
17
100
AcDbEntity
  8
WALL
100
AcDbHatch
 10
0.0
 20
0.0
 30
0.0
210
0.0
220
0.0
230
1.0
  2
SOLID
 70
1
 71
0
 91
1
 92
3
 72
0
 73
1
 93
4
 10
1326.4285714285713
 20
115.71428571428571
 10
1339.2857142857142
 20
115.71428571428571
 10
1339.2857142857142
 20
72.85714285714286
 10
1326.4285714285713
 20
72.85714285714286
 97
0
 75
1
 76
1
 98
0
  0
LWPOLYLINE
  5
161
330
17
100
AcDbEntity
  8
WALL
100
AcDbPolyline
 90
4
 70
1
 10
955.7142857142857
 20
75.0
 10
962.1428571428571
 20
75.0
 10
962.1428571428571
 20
34.285714285714285
 10
955.7142857142857
 20
34.285714285714285
  0
HATCH
  5
162
330
17
100
AcDbEntity
  8
WALL
100
AcDbHatch
 10
0.0
 20
0.0
 30
0.0
210
0.0
220
0.0
230
1.0
  2
SOLID
 70
1
 71
0
 91
1
 92
3
 72
0
 73
1
 93
4
 10
955.7142857142857
 20
75.0
 10
962.1428571428571
 20
75.0
 10
962.1428571428571
 20
34.285714285714285
 10
955.7142857142857
 20
34.285714285714285
 97
0
 75
1
 76
1
 98
0
  0
LWPOLYLINE
  5
163
330
17
100
AcDbEntity
  8
WALL
100
AcDbPolyline
 90
4
 70
1
 10
1221.4285714285713
 20
72.85714285714286
 10
1223.5714285714284
 20
72.85714285714286
 10
1223.5714285714284
 20
34.285714285714285
 10
1221.4285714285713
 20
34.285714285714285
  0
HATCH
  5
164
330
17
100
AcDbEntity
  8
WALL
100
AcDbHatch
 10
0.0
 20
0.0
 30
0.0
210
0.0
220
0.0
230
1.0
  2
SOLID
 70
1
 71
0
 91
1
 92
3
 72
0
 73
1
 93
4
 10
1221.4285714285713
 20
72.85714285714286
 10
1223.5714285714284
 20
72.85714285714286
 10
1223.5714285714284
 20
34.285714285714285
 10
1221.4285714285713
 20
34.285714285714285
 97
0
 75
1
 76
1
 98
0
  0
LINE
  5
165
330
17
100
AcDbEntity
  8
WINDOW
100
AcDbLine
 10
1110.0
 20
2496.4285714285716
 30
0.0
 11
1414.2857142857142
 21
2496.4285714285716
 31
0.0
  0
LINE
  5
166
330
17
100
AcDbEntity
  8
WINDOW
100
AcDbLine
 10
1110.0
 20
2487.8571428571427
 30
0.0
 11
1414.2857142857142
 21
2487.8571428571427
 31
0.0
  0
LINE
  5
167
330
17
100
AcDbEntity
  8
WINDOW
100
AcDbLine
 10
1110.0
 20
2479.285714285714
 30
0.0
 11
1414.2857142857142
 21
2479.285714285714
 31
0.0
  0
LINE
  5
168
330
17
100
AcDbEntity
  8
WINDOW
100
AcDbLine
 10
1110.0
 20
2470.714285714286
 30
0.0
 11
1414.2857142857142
 21
2470.714285714286
 31
0.0
  0
LINE
  5
169
330
17
100
AcDbEntity
  8
WINDOW
100
AcDbLine
 10
1110.0
 20
2496.4285714285716
 30
0.0
 11
1110.0
 21
2470.714285714286
 31
0.0
  0
LINE
  5
16A
330
17
100
AcDbEntity
  8
WINDOW
100
AcDbLine
 10
1414.2857142857142
 20
2496.4285714285716
 30
0.0
 11
1414.2857142857142
 21
2470.714285714286
 31
0.0
  0
LINE
  5
16B
330
17
100
AcDbEntity
  8
WINDOW
100
AcDbLine
 10
694.2857142857142
 20
2462.142857142857
 30
0.0
 11
741.4285714285714
 21
2462.142857142857
 31
0.0
  0
LINE
  5
16C
330
17
100
AcDbEntity
  8
WINDOW
100
AcDbLine
 10
694.2857142857142
 20
2457.8571428571427
 30
0.0
 11
741.4285714285714
 21
2457.8571428571427
 31
0.0
  0
LINE
  5
16D
330
17
100
AcDbEntity
  8
WINDOW
100
AcDbLine
 10
694.2857142857142
 20
2453.5714285714284
 30
0.0
 11
741.4285714285714
 21
2453.5714285714284
 31
0.0
  0
LINE
  5
16E
330
17
100
AcDbEntity
  8
WINDOW
100
AcDbLine
 10
694.2857142857142
 20
2449.285714285714
 30
0.0
 11
741.4285714285714
 21
2449.285714285714
 31
0.0
  0
LINE
  5
16F
330
17
100
AcDbEntity
  8
WINDOW
100
AcDbLine
 10
694.2857142857142
 20
2462.142857142857
 30
0.0
 11
694.2857142857142
 21
2449.285714285714
 31
0.0
  0
LINE
  5
170
330
17
100
AcDbEntity
  8
WINDOW
100
AcDbLine
 10
741.4285714285714
 20
2462.142857142857
 30
0.0
 11
741.4285714285714
 21
2449.285714285714
 31
0.0
  0
LINE
  5
171
330
17
100
AcDbEntity
  8
WINDOW
100
AcDbLine
 10
1414.2857142857142
 20
2462.142857142857
 30
0.0
 11
1452.857142857143
 21
2462.142857142857
 31
0.0
  0
LINE
  5
172
330
17
100
AcDbEntity
  8
WINDOW
100
AcDbLine
 10
1414.2857142857142
 20
2459.285714285714
 30
0.0
 11
1452.857142857143
 21
2459.285714285714
 31
0.0
  0
LINE
  5
173
330
17
100
AcDbEntity
  8
WINDOW
100
AcDbLine
 10
1414.2857142857142
 20
2456.428571428571
 30
0.0
 11
1452.857142857143
 21
2456.428571428571
 31
0.0
  0
LINE
  5
174
330
17
100
AcDbEntity
  8
WINDOW
100
AcDbLine
 10
1414.2857142857142
 20
2453.5714285714284
 30
0.0
 11
1452.857142857143
 21
2453.5714285714284
 31
0.0
  0
LINE
  5
175
330
17
100
AcDbEntity
  8
WINDOW
100
AcDbLine
 10
1414.2857142857142
 20
2462.142857142857
 30
0.0
 11
1414.2857142857142
 21
2453.5714285714284
 31
0.0
  0
LINE
  5
176
330
17
100
AcDbEntity
  8
WINDOW
100
AcDbLine
 10
1452.857142857143
 20
2462.142857142857
 30
0.0
 11
1452.857142857143
 21
2453.5714285714284
 31
0.0
  0
LINE
  5
177
330
17
100
AcDbEntity
  8
WINDOW
100
AcDbLine
 10
1015.7142857142857
 20
2025.0
 30
0.0
 11
1032.857142857143
 21
2025.0
 31
0.0
  0
LINE
  5
178
330
17
100
AcDbEntity
  8
WINDOW
100
AcDbLine
 10
1015.7142857142857
 20
2022.1428571428573
 30
0.0
 11
1032.857142857143
 21
2022.1428571428573
 31
0.0
  0
LINE
  5
179
330
17
100
AcDbEntity
  8
WINDOW
100
AcDbLine
 10
1015.7142857142857
 20
2019.285714285714
 30
0.0
 11
1032.857142857143
 21
2019.285714285714
 31
0.0
  0
LINE
  5
17A
330
17
100
AcDbEntity
  8
WINDOW
100
AcDbLine
 10
1015.7142857142857
 20
2016.4285714285713
 30
0.0
 11
1032.857142857143
 21
2016.4285714285713
 31
0.0
  0
LINE
  5
17B
330
17
100
AcDbEntity
  8
WINDOW
100
AcDbLine
 10
1015.7142857142857
 20
2025.0
 30
0.0
 11
1015.7142857142857
 21
2016.4285714285713
 31
0.0
  0
LINE
  5
17C
330
17
100
AcDbEntity
  8
WINDOW
100
AcDbLine
 10
1032.857142857143
 20
2025.0
 30
0.0
 11
1032.857142857143
 21
2016.4285714285713
 31
0.0
  0
LINE
  5
17D
330
17
100
AcDbEntity
  8
WINDOW
100
AcDbLine
 10
355.7142857142857
 20
1836.4285714285713
 30
0.0
 11
582.8571428571429
 21
1836.4285714285713
 31
0.0
  0
LINE
  5
17E
330
17
100
AcDbEntity
  8
WINDOW
100
AcDbLine
 10
355.7142857142857
 20
1830.7142857142856
 30
0.0
 11
582.8571428571429
 21
1830.7142857142856
 31
0.0
  0
LINE
  5
17F
330
17
100
AcDbEntity
  8
WINDOW
100
AcDbLine
 10
355.7142857142857
 20
1824.9999999999998
 30
0.0
 11
582.8571428571429
 21
1824.9999999999998
 31
0.0
  0
LINE
  5
180
330
17
100
AcDbEntity
  8
WINDOW
100
AcDbLine
 10
355.7142857142857
 20
1819.2857142857142
 30
0.0
 11
582.8571428571429
 21
1819.2857142857142
 31
0.0
  0
LINE
  5
181
330
17
100
AcDbEntity
  8
WINDOW
100
AcDbLine
 10
355.7142857142857
 20
1836.4285714285713
 30
0.0
 11
355.7142857142857
 21
1819.2857142857142
 31
0.0
  0
LINE
  5
182
330
17
100
AcDbEntity
  8
WINDOW
100
AcDbLine
 10
582.8571428571429
 20
1836.4285714285713
 30
0.0
 11
582.8571428571429
 21
1819.2857142857142
 31
0.0
  0
LINE
  5
183
330
17
100
AcDbEntity
  8
WINDOW
100
AcDbLine
 10
1354.2857142857142
 20
1313.5714285714284
 30
0.0
 11
1461.4285714285713
 21
1313.5714285714284
 31
0.0
  0
LINE
  5
184
330
17
100
AcDbEntity
  8
WINDOW
100
AcDbLine
 10
1354.2857142857142
 20
1307.857142857143
 30
0.0
 11
1461.4285714285713
 21
1307.857142857143
 31
0.0
  0
LINE
  5
185
330
17
100
AcDbEntity
  8
WINDOW
100
AcDbLine
 10
1354.2857142857142
 20
1302.142857142857
 30
0.0
 11
1461.4285714285713
 21
1302.142857142857
 31
0.0
  0
LINE
  5
186
330
17
100
AcDbEntity
  8
WINDOW
100
AcDbLine
 10
1354.2857142857142
 20
1296.4285714285713
 30
0.0
 11
1461.4285714285713
 21
1296.4285714285713
 31
0.0
  0
LINE
  5
187
330
17
100
AcDbEntity
  8
WINDOW
100
AcDbLine
 10
1354.2857142857142
 20
1313.5714285714284
 30
0.0
 11
1354.2857142857142
 21
1296.4285714285713
 31
0.0
  0
LINE
  5
188
330
17
100
AcDbEntity
  8
WINDOW
100
AcDbLine
 10
1461.4285714285713
 20
1313.5714285714284
 30
0.0
 11
1461.4285714285713
 21
1296.4285714285713
 31
0.0
  0
LINE
  5
189
330
17
100
AcDbEntity
  8
WINDOW
100
AcDbLine
 10
1431.4285714285713
 20
1275.0
 30
0.0
 11
1538.5714285714284
 21
1275.0
 31
0.0
  0
LINE
  5
18A
330
17
100
AcDbEntity
  8
WINDOW
100
AcDbLine
 10
1431.4285714285713
 20
1272.142857142857
 30
0.0
 11
1538.5714285714284
 21
1272.142857142857
 31
0.0
  0
LINE
  5
18B
330
17
100
AcDbEntity
  8
WINDOW
100
AcDbLine
 10
1431.4285714285713
 20
1269.2857142857142
 30
0.0
 11
1538.5714285714284
 21
1269.2857142857142
 31
0.0
  0
LINE
  5
18C
330
17
100
AcDbEntity
  8
WINDOW
100
AcDbLine
 10
1431.4285714285713
 20
1266.4285714285713
 30
0.0
 11
1538.5714285714284
 21
1266.4285714285713
 31
0.0
  0
LINE
  5
18D
330
17
100
AcDbEntity
  8
WINDOW
100
AcDbLine
 10
1431.4285714285713
 20
1275.0
 30
0.0
 11
1431.4285714285713
 21
1266.4285714285713
 31
0.0
  0
LINE
  5
18E
330
17
100
AcDbEntity
  8
WINDOW
100
AcDbLine
 10
1538.5714285714284
 20
1275.0
 30
0.0
 11
1538.5714285714284
 21
1266.4285714285713
 31
0.0
  0
LINE
  5
18F
330
17
100
AcDbEntity
  8
WINDOW
100
AcDbLine
 10
308.57142857142856
 20
1193.5714285714284
 30
0.0
 11
377.1428571428571
 21
1193.5714285714284
 31
0.0
  0
LINE
  5
190
330
17
100
AcDbEntity
  8
WINDOW
100
AcDbLine
 10
308.57142857142856
 20
1190.7142857142856
 30
0.0
 11
377.1428571428571
 21
1190.7142857142856
 31
0.0
  0
LINE
  5
191
330
17
100
AcDbEntity
  8
WINDOW
100
AcDbLine
 10
308.57142857142856
 20
1187.857142857143
 30
0.0
 11
377.1428571428571
 21
1187.857142857143
 31
0.0
  0
LINE
  5
192
330
17
100
AcDbEntity
  8
WINDOW
100
AcDbLine
 10
308.57142857142856
 20
1185.0
 30
0.0
 11
377.1428571428571
 21
1185.0
 31
0.0
  0
LINE
  5
193
330
17
100
AcDbEntity
  8
WINDOW
100
AcDbLine
 10
308.57142857142856
 20
1193.5714285714284
 30
0.0
 11
308.57142857142856
 21
1185.0
 31
0.0
  0
LINE
  5
194
330
17
100
AcDbEntity
  8
WINDOW
100
AcDbLine
 10
377.1428571428571
 20
1193.5714285714284
 30
0.0
 11
377.1428571428571
 21
1185.0
 31
0.0
  0
LINE
  5
195
330
17
100
AcDbEntity
  8
WINDOW
100
AcDbLine
 10
115.71428571428571
 20
1159.2857142857142
 30
0.0
 11
501.4285714285714
 21
1159.2857142857142
 31
0.0
  0
LINE
  5
196
330
17
100
AcDbEntity
  8
WINDOW
100
AcDbLine
 10
115.71428571428571
 20
1153.5714285714287
 30
0.0
 11
501.4285714285714
 21
1153.5714285714287
 31
0.0
  0
LINE
  5
197
330
17
100
AcDbEntity
  8
WINDOW
100
AcDbLine
 10
115.71428571428571
 20
1147.8571428571427
 30
0.0
 11
501.4285714285714
 21
1147.8571428571427
 31
0.0
  0
LINE
  5
198
330
17
100
AcDbEntity
  8
WINDOW
100
AcDbLine
 10
115.71428571428571
 20
1142.142857142857
 30
0.0
 11
501.4285714285714
 21
1142.142857142857
 31
0.0
  0
LINE
  5
199
330
17
100
AcDbEntity
  8
WINDOW
100
AcDbLine
 10
115.71428571428571
 20
1159.2857142857142
 30
0.0
 11
115.71428571428571
 21
1142.142857142857
 31
0.0
  0
LINE
  5
19A
330
17
100
AcDbEntity
  8
WINDOW
100
AcDbLine
 10
501.4285714285714
 20
1159.2857142857142
 30
0.0
 11
501.4285714285714
 21
1142.142857142857
 31
0.0
  0
LINE
  5
19B
330
17
100
AcDbEntity
  8
WINDOW
100
AcDbLine
 10
1335.0
 20
893.5714285714286
 30
0.0
 11
1632.857142857143
 21
893.5714285714286
 31
0.0
  0
LINE
  5
19C
330
17
100
AcDbEntity
  8
WINDOW
100
AcDbLine
 10
1335.0
 20
883.5714285714287
 30
0.0
 11
1632.857142857143
 21
883.5714285714287
 31
0.0
  0
LINE
  5
19D
330
17
100
AcDbEntity
  8
WINDOW
100
AcDbLine
 10
1335.0
 20
873.5714285714284
 30
0.0
 11
1632.857142857143
 21
873.5714285714284
 31
0.0
  0
LINE
  5
19E
330
17
100
AcDbEntity
  8
WINDOW
100
AcDbLine
 10
1335.0
 20
863.5714285714286
 30
0.0
 11
1632.857142857143
 21
863.5714285714286
 31
0.0
  0
LINE
  5
19F
330
17
100
AcDbEntity
  8
WINDOW
100
AcDbLine
 10
1335.0
 20
893.5714285714286
 30
0.0
 11
1335.0
 21
863.5714285714286
 31
0.0
  0
LINE
  5
1A0
330
17
100
AcDbEntity
  8
WINDOW
100
AcDbLine
 10
1632.857142857143
 20
893.5714285714286
 30
0.0
 11
1632.857142857143
 21
863.5714285714286
 31
0.0
  0
LINE
  5
1A1
330
17
100
AcDbEntity
  8
WINDOW
100
AcDbLine
 10
1414.2857142857142
 20
79.28571428571428
 30
0.0
 11
1448.5714285714284
 21
79.28571428571428
 31
0.0
  0
LINE
  5
1A2
330
17
100
AcDbEntity
  8
WINDOW
100
AcDbLine
 10
1414.2857142857142
 20
67.85714285714302
 30
0.0
 11
1448.5714285714284
 21
67.85714285714302
 31
0.0
  0
LINE
  5
1A3
330
17
100
AcDbEntity
  8
WINDOW
100
AcDbLine
 10
1414.2857142857142
 20
56.42857142857127
 30
0.0
 11
1448.5714285714284
 21
56.42857142857127
 31
0.0
  0
LINE
  5
1A4
330
17
100
AcDbEntity
  8
WINDOW
100
AcDbLine
 10
1414.2857142857142
 20
45.0
 30
0.0
 11
1448.5714285714284
 21
45.0
 31
0.0
  0
LINE
  5
1A5
330
17
100
AcDbEntity
  8
WINDOW
100
AcDbLine
 10
1414.2857142857142
 20
79.28571428571428
 30
0.0
 11
1414.2857142857142
 21
45.0
 31
0.0
  0
LINE
  5
1A6
330
17
100
AcDbEntity
  8
WINDOW
100
AcDbLine
 10
1448.5714285714284
 20
79.28571428571428
 30
0.0
 11
1448.5714285714284
 21
45.0
 31
0.0
  0
LINE
  5
1A7
330
17
100
AcDbEntity
  8
WINDOW
100
AcDbLine
 10
488.57142857142856
 20
53.57142857142857
 30
0.0
 11
861.4285714285714
 21
53.57142857142857
 31
0.0
  0
LINE
  5
1A8
330
17
100
AcDbEntity
  8
WINDOW
100
AcDbLine
 10
488.57142857142856
 20
47.85714285714269
 30
0.0
 11
861.4285714285714
 21
47.85714285714269
 31
0.0
  0
LINE
  5
1A9
330
17
100
AcDbEntity
  8
WINDOW
100
AcDbLine
 10
488.57142857142856
 20
42.1428571428573
 30
0.0
 11
861.4285714285714
 21
42.1428571428573
 31
0.0
  0
LINE
  5
1AA
330
17
100
AcDbEntity
  8
WINDOW
100
AcDbLine
 10
488.57142857142856
 20
36.42857142857143
 30
0.0
 11
861.4285714285714
 21
36.42857142857143
 31
0.0
  0
LINE
  5
1AB
330
17
100
AcDbEntity
  8
WINDOW
100
AcDbLine
 10
488.57142857142856
 20
53.57142857142857
 30
0.0
 11
488.57142857142856
 21
36.42857142857143
 31
0.0
  0
LINE
  5
1AC
330
17
100
AcDbEntity
  8
WINDOW
100
AcDbLine
 10
861.4285714285714
 20
53.57142857142857
 30
0.0
 11
861.4285714285714
 21
36.42857142857143
 31
0.0
  0
LINE
  5
1AD
330
17
100
AcDbEntity
  8
WINDOW
100
AcDbLine
 10
169.28571428571428
 20
1380.0
 30
0.0
 11
169.28571428571428
 21
1311.4285714285713
 31
0.0
  0
LINE
  5
1AE
330
17
100
AcDbEntity
  8
WINDOW
100
AcDbLine
 10
172.14285714285714
 20
1380.0
 30
0.0
 11
172.14285714285714
 21
1311.4285714285713
 31
0.0
  0
LINE
  5
1AF
330
17
100
AcDbEntity
  8
WINDOW
100
AcDbLine
 10
175.0
 20
1380.0
 30
0.0
 11
175.0
 21
1311.4285714285713
 31
0.0
  0
LINE
  5
1B0
330
17
100
AcDbEntity
  8
WINDOW
100
AcDbLine
 10
177.85714285714286
 20
1380.0
 30
0.0
 11
177.85714285714286
 21
1311.4285714285713
 31
0.0
  0
LINE
  5
1B1
330
17
100
AcDbEntity
  8
WINDOW
100
AcDbLine
 10
169.28571428571428
 20
1380.0
 30
0.0
 11
177.85714285714286
 21
1380.0
 31
0.0
  0
LINE
  5
1B2
330
17
100
AcDbEntity
  8
WINDOW
100
AcDbLine
 10
169.28571428571428
 20
1311.4285714285713
 30
0.0
 11
177.85714285714286
 21
1311.4285714285713
 31
0.0
  0
LINE
  5
1B3
330
17
100
AcDbEntity
  8
WINDOW
100
AcDbLine
 10
640.7142857142857
 20
1568.5714285714284
 30
0.0
 11
640.7142857142857
 21
1470.0
 31
0.0
  0
LINE
  5
1B4
330
17
100
AcDbEntity
  8
WINDOW
100
AcDbLine
 10
650.7142857142858
 20
1568.5714285714284
 30
0.0
 11
650.7142857142858
 21
1470.0
 31
0.0
  0
LINE
  5
1B5
330
17
100
AcDbEntity
  8
WINDOW
100
AcDbLine
 10
660.7142857142857
 20
1568.5714285714284
 30
0.0
 11
660.7142857142857
 21
1470.0
 31
0.0
  0
LINE
  5
1B6
330
17
100
AcDbEntity
  8
WINDOW
100
AcDbLine
 10
670.7142857142857
 20
1568.5714285714284
 30
0.0
 11
670.7142857142857
 21
1470.0
 31
0.0
  0
LINE
  5
1B7
330
17
100
AcDbEntity
  8
WINDOW
100
AcDbLine
 10
640.7142857142857
 20
1568.5714285714284
 30
0.0
 11
670.7142857142857
 21
1568.5714285714284
 31
0.0
  0
LINE
  5
1B8
330
17
100
AcDbEntity
  8
WINDOW
100
AcDbLine
 10
640.7142857142857
 20
1470.0
 30
0.0
 11
670.7142857142857
 21
1470.0
 31
0.0
  0
LINE
  5
1B9
330
17
100
AcDbEntity
  8
WINDOW
100
AcDbLine
 10
889.2857142857142
 20
2035.7142857142856
 30
0.0
 11
889.2857142857142
 21
1890.0
 31
0.0
  0
LINE
  5
1BA
330
17
100
AcDbEntity
  8
WINDOW
100
AcDbLine
 10
899.2857142857143
 20
2035.7142857142856
 30
0.0
 11
899.2857142857143
 21
1890.0
 31
0.0
  0
LINE
  5
1BB
330
17
100
AcDbEntity
  8
WINDOW
100
AcDbLine
 10
909.2857142857142
 20
2035.7142857142856
 30
0.0
 11
909.2857142857142
 21
1890.0
 31
0.0
  0
LINE
  5
1BC
330
17
100
AcDbEntity
  8
WINDOW
100
AcDbLine
 10
919.2857142857142
 20
2035.7142857142856
 30
0.0
 11
919.2857142857142
 21
1890.0
 31
0.0
  0
LINE
  5
1BD
330
17
100
AcDbEntity
  8
WINDOW
100
AcDbLine
 10
889.2857142857142
 20
2035.7142857142856
 30
0.0
 11
919.2857142857142
 21
2035.7142857142856
 31
0.0
  0
LINE
  5
1BE
330
17
100
AcDbEntity
  8
WINDOW
100
AcDbLine
 10
889.2857142857142
 20
1890.0
 30
0.0
 11
919.2857142857142
 21
1890.0
 31
0.0
  0
LINE
  5
1BF
330
17
100
AcDbEntity
  8
WINDOW
100
AcDbLine
 10
1232.142857142857
 20
1277.142857142857
 30
0.0
 11
1232.142857142857
 21
906.4285714285714
 31
0.0
  0
LINE
  5
1C0
330
17
100
AcDbEntity
  8
WINDOW
100
AcDbLine
 10
1240.7142857142858
 20
1277.142857142857
 30
0.0
 11
1240.7142857142858
 21
906.4285714285714
 31
0.0
  0
LINE
  5
1C1
330
17
100
AcDbEntity
  8
WINDOW
100
AcDbLine
 10
1249.2857142857142
 20
1277.142857142857
 30
0.0
 11
1249.2857142857142
 21
906.4285714285714
 31
0.0
  0
LINE
  5
1C2
330
17
100
AcDbEntity
  8
WINDOW
100
AcDbLine
 10
1257.857142857143
 20
1277.142857142857
 30
0.0
 11
1257.857142857143
 21
906.4285714285714
 31
0.0
  0
LINE
  5
1C3
330
17
100
AcDbEntity
  8
WINDOW
100
AcDbLine
 10
1232.142857142857
 20
1277.142857142857
 30
0.0
 11
1257.857142857143
 21
1277.142857142857
 31
0.0
  0
LINE
  5
1C4
330
17
100
AcDbEntity
  8
WINDOW
100
AcDbLine
 10
1232.142857142857
 20
906.4285714285714
 30
0.0
 11
1257.857142857143
 21
906.4285714285714
 31
0.0
  0
LINE
  5
1C5
330
17
100
AcDbEntity
  8
WINDOW
100
AcDbLine
 10
1268.5714285714284
 20
1307.142857142857
 30
0.0
 11
1268.5714285714284
 21
891.4285714285714
 31
0.0
  0
LINE
  5
1C6
330
17
100
AcDbEntity
  8
WINDOW
100
AcDbLine
 10
1273.5714285714287
 20
1307.142857142857
 30
0.0
 11
1273.5714285714287
 21
891.4285714285714
 31
0.0
  0
LINE
  5
1C7
330
17
100
AcDbEntity
  8
WINDOW
100
AcDbLine
 10
1278.5714285714284
 20
1307.142857142857
 30
0.0
 11
1278.5714285714284
 21
891.4285714285714
 31
0.0
  0
LINE
  5
1C8
330
17
100
AcDbEntity
  8
WINDOW
100
AcDbLine
 10
1283.5714285714284
 20
1307.142857142857
 30
0.0
 11
1283.5714285714284
 21
891.4285714285714
 31
0.0
  0
LINE
  5
1C9
330
17
100
AcDbEntity
  8
WINDOW
100
AcDbLine
 10
1268.5714285714284
 20
1307.142857142857
 30
0.0
 11
1283.5714285714284
 21
1307.142857142857
 31
0.0
  0
LINE
  5
1CA
330
17
100
AcDbEntity
  8
WINDOW
100
AcDbLine
 10
1268.5714285714284
 20
891.4285714285714
 30
0.0
 11
1283.5714285714284
 21
891.4285714285714
 31
0.0
  0
LINE
  5
1CB
330
17
100
AcDbEntity
  8
WINDOW
100
AcDbLine
 10
1609.2857142857142
 20
1305.0
 30
0.0
 11
1609.2857142857142
 21
1272.857142857143
 31
0.0
  0
LINE
  5
1CC
330
17
100
AcDbEntity
  8
WINDOW
100
AcDbLine
 10
1614.9999999999998
 20
1305.0
 30
0.0
 11
1614.9999999999998
 21
1272.857142857143
 31
0.0
  0
LINE
  5
1CD
330
17
100
AcDbEntity
  8
WINDOW
100
AcDbLine
 10
1620.7142857142858
 20
1305.0
 30
0.0
 11
1620.7142857142858
 21
1272.857142857143
 31
0.0
  0
LINE
  5
1CE
330
17
100
AcDbEntity
  8
WINDOW
100
AcDbLine
 10
1626.4285714285713
 20
1305.0
 30
0.0
 11
1626.4285714285713
 21
1272.857142857143
 31
0.0
  0
LINE
  5
1CF
330
17
100
AcDbEntity
  8
WINDOW
100
AcDbLine
 10
1609.2857142857142
 20
1305.0
 30
0.0
 11
1626.4285714285713
 21
1305.0
 31
0.0
  0
LINE
  5
1D0
330
17
100
AcDbEntity
  8
WINDOW
100
AcDbLine
 10
1609.2857142857142
 20
1272.857142857143
 30
0.0
 11
1626.4285714285713
 21
1272.857142857143
 31
0.0
  0
LINE
  5
1D1
330
17
100
AcDbEntity
  8
WINDOW
100
AcDbLine
 10
1617.857142857143
 20
330.0
 30
0.0
 11
1617.857142857143
 21
310.7142857142857
 31
0.0
  0
LINE
  5
1D2
330
17
100
AcDbEntity
  8
WINDOW
100
AcDbLine
 10
1620.7142857142858
 20
330.0
 30
0.0
 11
1620.7142857142858
 21
310.7142857142857
 31
0.0
  0
LINE
  5
1D3
330
17
100
AcDbEntity
  8
WINDOW
100
AcDbLine
 10
1623.5714285714284
 20
330.0
 30
0.0
 11
1623.5714285714284
 21
310.7142857142857
 31
0.0
  0
LINE
  5
1D4
330
17
100
AcDbEntity
  8
WINDOW
100
AcDbLine
 10
1626.4285714285713
 20
330.0
 30
0.0
 11
1626.4285714285713
 21
310.7142857142857
 31
0.0
  0
LINE
  5
1D5
330
17
100
AcDbEntity
  8
WINDOW
100
AcDbLine
 10
1617.857142857143
 20
330.0
 30
0.0
 11
1626.4285714285713
 21
330.0
 31
0.0
  0
LINE
  5
1D6
330
17
100
AcDbEntity
  8
WINDOW
100
AcDbLine
 10
1617.857142857143
 20
310.7142857142857
 30
0.0
 11
1626.4285714285713
 21
310.7142857142857
 31
0.0
  0
LINE
  5
1D7
330
17
100
AcDbEntity
  8
WINDOW
100
AcDbLine
 10
1699.2857142857142
 20
2050.714285714286
 30
0.0
 11
1699.2857142857142
 21
2031.4285714285713
 31
0.0
  0
LINE
  5
1D8
330
17
100
AcDbEntity
  8
WINDOW
100
AcDbLine
 10
1703.5714285714284
 20
2050.714285714286
 30
0.0
 11
1703.5714285714284
 21
2031.4285714285713
 31
0.0
  0
LINE
  5
1D9
330
17
100
AcDbEntity
  8
WINDOW
100
AcDbLine
 10
1707.857142857143
 20
2050.714285714286
 30
0.0
 11
1707.857142857143
 21
2031.4285714285713
 31
0.0
  0
LINE
  5
1DA
330
17
100
AcDbEntity
  8
WINDOW
100
AcDbLine
 10
1712.142857142857
 20
2050.714285714286
 30
0.0
 11
1712.142857142857
 21
2031.4285714285713
 31
0.0
  0
LINE
  5
1DB
330
17
100
AcDbEntity
  8
WINDOW
100
AcDbLine
 10
1699.2857142857142
 20
2050.714285714286
 30
0.0
 11
1712.142857142857
 21
2050.714285714286
 31
0.0
  0
LINE
  5
1DC
330
17
100
AcDbEntity
  8
WINDOW
100
AcDbLine
 10
1699.2857142857142
 20
2031.4285714285713
 30
0.0
 11
1712.142857142857
 21
2031.4285714285713
 31
0.0
  0
LINE
  5
1DD
330
17
100
AcDbEntity
  8
WINDOW
100
AcDbLine
 10
1849.2857142857142
 20
1508.5714285714284
 30
0.0
 11
1849.2857142857142
 21
1493.5714285714284
 31
0.0
  0
LINE
  5
1DE
330
17
100
AcDbEntity
  8
WINDOW
100
AcDbLine
 10
1853.5714285714284
 20
1508.5714285714284
 30
0.0
 11
1853.5714285714284
 21
1493.5714285714284
 31
0.0
  0
LINE
  5
1DF
330
17
100
AcDbEntity
  8
WINDOW
100
AcDbLine
 10
1857.857142857143
 20
1508.5714285714284
 30
0.0
 11
1857.857142857143
 21
1493.5714285714284
 31
0.0
  0
LINE
  5
1E0
330
17
100
AcDbEntity
  8
WINDOW
100
AcDbLine
 10
1862.142857142857
 20
1508.5714285714284
 30
0.0
 11
1862.142857142857
 21
1493.5714285714284
 31
0.0
  0
LINE
  5
1E1
330
17
100
AcDbEntity
  8
WINDOW
100
AcDbLine
 10
1849.2857142857142
 20
1508.5714285714284
 30
0.0
 11
1862.142857142857
 21
1508.5714285714284
 31
0.0
  0
LINE
  5
1E2
330
17
100
AcDbEntity
  8
WINDOW
100
AcDbLine
 10
1849.2857142857142
 20
1493.5714285714284
 30
0.0
 11
1862.142857142857
 21
1493.5714285714284
 31
0.0
  0
LINE
  5
1E3
330
17
100
AcDbEntity
  8
WINDOW
100
AcDbLine
 10
1853.5714285714284
 20
488.57142857142856
 30
0.0
 11
1853.5714285714284
 21
332.1428571428571
 31
0.0
  0
LINE
  5
1E4
330
17
100
AcDbEntity
  8
WINDOW
100
AcDbLine
 10
1856.4285714285716
 20
488.57142857142856
 30
0.0
 11
1856.4285714285716
 21
332.1428571428571
 31
0.0
  0
LINE
  5
1E5
330
17
100
AcDbEntity
  8
WINDOW
100
AcDbLine
 10
1859.2857142857142
 20
488.57142857142856
 30
0.0
 11
1859.2857142857142
 21
332.1428571428571
 31
0.0
  0
LINE
  5
1E6
330
17
100
AcDbEntity
  8
WINDOW
100
AcDbLine
 10
1862.142857142857
 20
488.57142857142856
 30
0.0
 11
1862.142857142857
 21
332.1428571428571
 31
0.0
  0
LINE
  5
1E7
330
17
100
AcDbEntity
  8
WINDOW
100
AcDbLine
 10
1853.5714285714284
 20
488.57142857142856
 30
0.0
 11
1862.142857142857
 21
488.57142857142856
 31
0.0
  0
LINE
  5
1E8
330
17
100
AcDbEntity
  8
WINDOW
100
AcDbLine
 10
1853.5714285714284
 20
332.1428571428571
 30
0.0
 11
1862.142857142857
 21
332.1428571428571
 31
0.0
  0
LINE
  5
1E9
330
17
100
AcDbEntity
  8
WINDOW
100
AcDbLine
 10
477.85714285714283
 20
2498.5714285714284
 30
0.0
 11
623.5714285714286
 21
2498.5714285714284
 31
0.0
  0
LINE
  5
1EA
330
17
100
AcDbEntity
  8
WINDOW
100
AcDbLine
 10
477.85714285714283
 20
2490.0
 30
0.0
 11
623.5714285714286
 21
2490.0
 31
0.0
  0
LINE
  5
1EB
330
17
100
AcDbEntity
  8
WINDOW
100
AcDbLine
 10
477.85714285714283
 20
2481.4285714285716
 30
0.0
 11
623.5714285714286
 21
2481.4285714285716
 31
0.0
  0
LINE
  5
1EC
330
17
100
AcDbEntity
  8
WINDOW
100
AcDbLine
 10
477.85714285714283
 20
2472.8571428571427
 30
0.0
 11
623.5714285714286
 21
2472.8571428571427
 31
0.0
  0
LINE
  5
1ED
330
17
100
AcDbEntity
  8
WINDOW
100
AcDbLine
 10
477.85714285714283
 20
2498.5714285714284
 30
0.0
 11
477.85714285714283
 21
2472.8571428571427
 31
0.0
  0
LINE
  5
1EE
330
17
100
AcDbEntity
  8
WINDOW
100
AcDbLine
 10
623.5714285714286
 20
2498.5714285714284
 30
0.0
 11
623.5714285714286
 21
2472.8571428571427
 31
0.0
  0
LINE
  5
1EF
330
17
100
AcDbEntity
  8
WINDOW
100
AcDbLine
 10
632.1428571428571
 20
2498.5714285714284
 30
0.0
 11
707.1428571428571
 21
2498.5714285714284
 31
0.0
  0
LINE
  5
1F0
330
17
100
AcDbEntity
  8
WINDOW
100
AcDbLine
 10
632.1428571428571
 20
2490.0
 30
0.0
 11
707.1428571428571
 21
2490.0
 31
0.0
  0
LINE
  5
1F1
330
17
100
AcDbEntity
  8
WINDOW
100
AcDbLine
 10
632.1428571428571
 20
2481.4285714285716
 30
0.0
 11
707.1428571428571
 21
2481.4285714285716
 31
0.0
  0
LINE
  5
1F2
330
17
100
AcDbEntity
  8
WINDOW
100
AcDbLine
 10
632.1428571428571
 20
2472.8571428571427
 30
0.0
 11
707.1428571428571
 21
2472.8571428571427
 31
0.0
  0
LINE
  5
1F3
330
17
100
AcDbEntity
  8
WINDOW
100
AcDbLine
 10
632.1428571428571
 20
2498.5714285714284
 30
0.0
 11
632.1428571428571
 21
2472.8571428571427
 31
0.0
  0
LINE
  5
1F4
330
17
100
AcDbEntity
  8
WINDOW
100
AcDbLine
 10
707.1428571428571
 20
2498.5714285714284
 30
0.0
 11
707.1428571428571
 21
2472.8571428571427
 31
0.0
  0
LWPOLYLINE
  5
1F6
330
17
100
AcDbEntity
  8
DOORZONE
100
AcDbPolyline
 90
4
 70
1
 10
1000.7142857142857
 20
2543.5714285714284
 10
1060.7142857142858
 20
2543.5714285714284
 10
1060.7142857142858
 20
2423.5714285714284
 10
1000.7142857142857
 20
2423.5714285714284
  0
LWPOLYLINE
  5
1F7
330
17
100
AcDbEntity
  8
DOORZONE
100
AcDbPolyline
 90
4
 70
1
 10
1062.857142857143
 20
2500.714285714286
 10
1105.7142857142858
 20
2500.714285714286
 10
1105.7142857142858
 20
2415.0
 10
1062.857142857143
 20
2415.0
  0
LWPOLYLINE
  5
1F8
330
17
100
AcDbEntity
  8
DOORZONE
100
AcDbPolyline
 90
4
 70
1
 10
1650.0
 20
2051.785714285714
 10
1699.2857142857142
 20
2051.785714285714
 10
1699.2857142857142
 20
1953.2142857142856
 10
1650.0
 20
1953.2142857142856
  0
LWPOLYLINE
  5
1F9
330
17
100
AcDbEntity
  8
DOORZONE
100
AcDbPolyline
 90
4
 70
1
 10
1542.857142857143
 20
1555.7142857142858
 10
1617.857142857143
 20
1555.7142857142858
 10
1617.857142857143
 20
1405.7142857142858
 10
1542.857142857143
 20
1405.7142857142858
  0
LWPOLYLINE
  5
1FA
330
17
100
AcDbEntity
  8
DOORZONE
100
AcDbPolyline
 90
4
 70
1
 10
1429.2857142857142
 20
1452.857142857143
 10
1517.142857142857
 20
1452.857142857143
 10
1517.142857142857
 20
1277.142857142857
 10
1429.2857142857142
 20
1277.142857142857
  0
LWPOLYLINE
  5
1FB
330
17
100
AcDbEntity
  8
DOORZONE
100
AcDbPolyline
 90
4
 70
1
 10
1294.2857142857142
 20
1347.857142857143
 10
1354.2857142857142
 20
1347.857142857143
 10
1354.2857142857142
 20
1227.857142857143
 10
1294.2857142857142
 20
1227.857142857143
  0
LWPOLYLINE
  5
1FC
330
17
100
AcDbEntity
  8
DOORZONE
100
AcDbPolyline
 90
4
 70
1
 10
1431.4285714285713
 20
1380.0
 10
1538.5714285714284
 20
1380.0
 10
1538.5714285714284
 20
1165.7142857142858
 10
1431.4285714285713
 20
1165.7142857142858
  0
LWPOLYLINE
  5
1FD
330
17
100
AcDbEntity
  8
DOORZONE
100
AcDbPolyline
 90
4
 70
1
 10
340.7142857142857
 20
848.5714285714286
 10
443.57142857142856
 20
848.5714285714286
 10
443.57142857142856
 20
642.8571428571429
 10
340.7142857142857
 20
642.8571428571429
  0
LWPOLYLINE
  5
1FE
330
17
100
AcDbEntity
  8
DOORZONE
100
AcDbPolyline
 90
4
 70
1
 10
1722.857142857143
 20
682.5
 10
1802.142857142857
 20
682.5
 10
1802.142857142857
 20
523.9285714285714
 10
1722.857142857143
 20
523.9285714285714
  0
LWPOLYLINE
  5
1FF
330
17
100
AcDbEntity
  8
DOORZONE
100
AcDbPolyline
 90
4
 70
1
 10
1568.5714285714284
 20
295.7142857142857
 10
1617.857142857143
 20
295.7142857142857
 10
1617.857142857143
 20
197.14285714285714
 10
1568.5714285714284
 20
197.14285714285714
  0
LWPOLYLINE
  5
200
330
17
100
AcDbEntity
  8
DOORZONE
100
AcDbPolyline
 90
4
 70
1
 10
1324.2857142857142
 20
252.85714285714286
 10
1399.2857142857142
 20
252.85714285714286
 10
1399.2857142857142
 20
102.85714285714286
 10
1324.2857142857142
 20
102.85714285714286
  0
LWPOLYLINE
  5
201
330
17
100
AcDbEntity
  8
DOORZONE
100
AcDbPolyline
 90
4
 70
1
 10
1592.142857142857
 20
216.42857142857142
 10
1667.142857142857
 20
216.42857142857142
 10
1667.142857142857
 20
66.42857142857143
 10
1592.142857142857
 20
66.42857142857143
  0
LWPOLYLINE
  5
202
330
17
100
AcDbEntity
  8
DOORZONE
100
AcDbPolyline
 90
4
 70
1
 10
1407.857142857143
 20
198.21428571428572
 10
1478.5714285714284
 20
198.21428571428572
 10
1478.5714285714284
 20
56.785714285714285
 10
1407.857142857143
 20
56.785714285714285
  0
LWPOLYLINE
  5
203
330
17
100
AcDbEntity
  8
DOORZONE
100
AcDbPolyline
 90
4
 70
1
 10
1615.7142857142858
 20
137.14285714285714
 10
1677.857142857143
 20
137.14285714285714
 10
1677.857142857143
 20
12.857142857142858
 10
1615.7142857142858
 20
12.857142857142858
  0
LWPOLYLINE
  5
204
330
17
100
AcDbEntity
  8
DOORZONE
100
AcDbPolyline
 90
4
 70
1
 10
1223.5714285714284
 20
98.57142857142857
 10
1264.2857142857142
 20
98.57142857142857
 10
1264.2857142857142
 20
17.142857142857142
 10
1223.5714285714284
 20
17.142857142857142
  0
LWPOLYLINE
  5
205
330
17
100
AcDbEntity
  8
DOORZONE
100
AcDbPolyline
 90
4
 70
1
 10
304.2857142857143
 20
130.71428571428572
 10
394.2857142857143
 20
130.71428571428572
 10
394.2857142857143
 20
-49.285714285714285
 10
304.2857142857143
 20
-49.285714285714285
  0
LWPOLYLINE
  5
206
330
17
100
AcDbEntity
  8
DOORZONE
100
AcDbPolyline
 90
4
 70
1
 10
1360.7142857142858
 20
2702.142857142857
 10
1360.7142857142858
 20
2612.142857142857
 10
1540.7142857142858
 20
2612.142857142857
 10
1540.7142857142858
 20
2702.142857142857
  0
LWPOLYLINE
  5
207
330
17
100
AcDbEntity
  8
DOORZONE
100
AcDbPolyline
 90
4
 70
1
 10
567.8571428571429
 20
2725.714285714286
 10
567.8571428571429
 20
2665.714285714286
 10
687.8571428571429
 20
2665.714285714286
 10
687.8571428571429
 20
2725.714285714286
  0
LWPOLYLINE
  5
208
330
17
100
AcDbEntity
  8
DOORZONE
100
AcDbPolyline
 90
4
 70
1
 10
612.8571428571429
 20
2614.285714285714
 10
612.8571428571429
 20
2496.4285714285716
 10
848.5714285714286
 20
2496.4285714285716
 10
848.5714285714286
 20
2614.285714285714
  0
LWPOLYLINE
  5
209
330
17
100
AcDbEntity
  8
DOORZONE
100
AcDbPolyline
 90
4
 70
1
 10
115.71428571428571
 20
2318.5714285714284
 10
115.71428571428571
 20
2226.4285714285716
 10
300.0
 20
2226.4285714285716
 10
300.0
 20
2318.5714285714284
  0
LWPOLYLINE
  5
20A
330
17
100
AcDbEntity
  8
DOORZONE
100
AcDbPolyline
 90
4
 70
1
 10
141.42857142857142
 20
2449.285714285714
 10
141.42857142857142
 20
2382.8571428571427
 10
274.2857142857143
 20
2382.8571428571427
 10
274.2857142857143
 20
2449.285714285714
  0
LWPOLYLINE
  5
20B
330
17
100
AcDbEntity
  8
DOORZONE
100
AcDbPolyline
 90
4
 70
1
 10
1671.4285714285713
 20
2470.714285714286
 10
1671.4285714285713
 20
2327.142857142857
 10
1958.5714285714284
 20
2327.142857142857
 10
1958.5714285714284
 20
2470.714285714286
  0
LWPOLYLINE
  5
20C
330
17
100
AcDbEntity
  8
DOORZONE
100
AcDbPolyline
 90
4
 70
1
 10
782.1428571428571
 20
2237.142857142857
 10
782.1428571428571
 20
2104.285714285714
 10
1047.857142857143
 20
2104.285714285714
 10
1047.857142857143
 20
2237.142857142857
  0
LWPOLYLINE
  5
20D
330
17
100
AcDbEntity
  8
DOORZONE
100
AcDbPolyline
 90
4
 70
1
 10
1615.7142857142858
 20
2200.714285714286
 10
1615.7142857142858
 20
2106.4285714285716
 10
1804.2857142857142
 20
2106.4285714285716
 10
1804.2857142857142
 20
2200.714285714286
  0
LWPOLYLINE
  5
20E
330
17
100
AcDbEntity
  8
DOORZONE
100
AcDbPolyline
 90
4
 70
1
 10
1744.2857142857142
 20
1538.5714285714284
 10
1744.2857142857142
 20
1446.4285714285713
 10
1928.5714285714284
 20
1446.4285714285713
 10
1928.5714285714284
 20
1538.5714285714284
  0
LWPOLYLINE
  5
20F
330
17
100
AcDbEntity
  8
DOORZONE
100
AcDbPolyline
 90
4
 70
1
 10
115.71428571428571
 20
1324.2857142857142
 10
115.71428571428571
 20
1193.5714285714284
 10
377.1428571428571
 20
1193.5714285714284
 10
377.1428571428571
 20
1324.2857142857142
  0
LWPOLYLINE
  5
210
330
17
100
AcDbEntity
  8
DOORZONE
100
AcDbPolyline
 90
4
 70
1
 10
812.1428571428571
 20
1212.857142857143
 10
812.1428571428571
 20
1150.7142857142858
 10
936.4285714285714
 20
1150.7142857142858
 10
936.4285714285714
 20
1212.857142857143
  0
LWPOLYLINE
  5
211
330
17
100
AcDbEntity
  8
DOORZONE
100
AcDbPolyline
 90
4
 70
1
 10
1527.857142857143
 20
1354.2857142857142
 10
1527.857142857143
 20
1313.5714285714284
 10
1609.2857142857142
 20
1313.5714285714284
 10
1609.2857142857142
 20
1354.2857142857142
  0
LWPOLYLINE
  5
212
330
17
100
AcDbEntity
  8
DOORZONE
100
AcDbPolyline
 90
4
 70
1
 10
21.428571428571427
 20
1307.142857142857
 10
21.428571428571427
 20
1266.4285714285713
 10
102.85714285714286
 20
1266.4285714285713
 10
102.85714285714286
 20
1307.142857142857
  0
LWPOLYLINE
  5
213
330
17
100
AcDbEntity
  8
DOORZONE
100
AcDbPolyline
 90
4
 70
1
 10
332.1428571428571
 20
902.1428571428571
 10
332.1428571428571
 20
756.4285714285714
 10
623.5714285714286
 20
756.4285714285714
 10
623.5714285714286
 20
902.1428571428571
  0
LWPOLYLINE
  5
214
330
17
100
AcDbEntity
  8
DOORZONE
100
AcDbPolyline
 90
4
 70
1
 10
257.1428571428571
 20
259.2857142857143
 10
257.1428571428571
 20
186.42857142857142
 10
402.85714285714283
 20
186.42857142857142
 10
402.85714285714283
 20
259.2857142857143
  0
LWPOLYLINE
  5
215
330
17
100
AcDbEntity
  8
DOORZONE
100
AcDbPolyline
 90
4
 70
1
 10
1787.142857142857
 20
707.1428571428571
 10
1787.142857142857
 20
657.8571428571429
 10
1885.7142857142856
 20
657.8571428571429
 10
1885.7142857142856
 20
707.1428571428571
  0
LWPOLYLINE
  5
216
330
17
100
AcDbEntity
  8
DOORZONE
100
AcDbPolyline
 90
4
 70
1
 10
1740.0
 20
863.5714285714286
 10
1740.0
 20
767.1428571428571
 10
1932.857142857143
 20
767.1428571428571
 10
1932.857142857143
 20
863.5714285714286
  0
LWPOLYLINE
  5
217
330
17
100
AcDbEntity
  8
DOORZONE
100
AcDbPolyline
 90
4
 70
1
 10
1369.2857142857142
 20
512.1428571428571
 10
1369.2857142857142
 20
456.4285714285714
 10
1480.7142857142858
 20
456.4285714285714
 10
1480.7142857142858
 20
512.1428571428571
  0
LWPOLYLINE
  5
218
330
17
100
AcDbEntity
  8
DOORZONE
100
AcDbPolyline
 90
4
 70
1
 10
415.7142857142857
 20
735.0
 10
415.7142857142857
 20
589.2857142857142
 10
707.1428571428571
 20
589.2857142857142
 10
707.1428571428571
 20
735.0
  0
LWPOLYLINE
  5
219
330
17
100
AcDbEntity
  8
DOORZONE
100
AcDbPolyline
 90
4
 70
1
 10
180.0
 20
152.14285714285714
 10
180.0
 20
45.0
 10
394.2857142857143
 20
45.0
 10
394.2857142857143
 20
152.14285714285714
  0
LWPOLYLINE
  5
21A
330
17
100
AcDbEntity
  8
DOORZONE
100
AcDbPolyline
 90
4
 70
1
 10
1650.0
 20
229.28571428571428
 10
1650.0
 20
180.0
 10
1748.5714285714284
 20
180.0
 10
1748.5714285714284
 20
229.28571428571428
  0
LWPOLYLINE
  5
21B
330
17
100
AcDbEntity
  8
DOORZONE
100
AcDbPolyline
 90
4
 70
1
 10
1162.5
 20
132.85714285714286
 10
1162.5
 20
72.85714285714286
 10
1282.5
 20
72.85714285714286
 10
1282.5
 20
132.85714285714286
  0
ENDSEC
  0
SECTION
  2
OBJECTS
  0
DICTIONARY
  5
A
330
0
100
AcDbDictionary
281
1
  3
ACAD_COLOR
350
B
  3
ACAD_GROUP
350
C
  3
ACAD_LAYOUT
350
D
  3
ACAD_MATERIAL
350
E
  3
ACAD_MLEADERSTYLE
350
F
  3
ACAD_MLINESTYLE
350
10
  3
ACAD_PLOTSETTINGS
350
11
  3
ACAD_PLOTSTYLENAME
350
12
  3
ACAD_SCALELIST
350
14
  3
ACAD_TABLESTYLE
350
15
  3
ACAD_VISUALSTYLE
350
16
  3
EZDXF_META
350
2D
  0
DICTIONARY
  5
B
330
A
100
AcDbDictionary
281
1
  0
DICTIONARY
  5
C
330
A
100
AcDbDictionary
281
1
  0
DICTIONARY
  5
D
330
A
100
AcDbDictionary
281
1
  3
Model
350
1A
  3
Layout1
350
1E
  0
DICTIONARY
  5
E
330
A
100
AcDbDictionary
281
1
  3
ByBlock
350
1F
  3
ByLayer
350
20
  3
Global
350
21
  0
DICTIONARY
  5
F
330
A
100
AcDbDictionary
281
1
  3
Standard
350
2C
  0
DICTIONARY
  5
10
330
A
100
AcDbDictionary
281
1
  3
Standard
350
22
  0
DICTIONARY
  5
11
330
A
100
AcDbDictionary
281
1
  0
ACDBDICTIONARYWDFLT
  5
12
330
A
100
AcDbDictionary
281
1
  3
Normal
350
13
100
AcDbDictionaryWithDefault
340
13
  0
ACDBPLACEHOLDER
  5
13
330
12
  0
DICTIONARY
  5
14
330
A
100
AcDbDictionary
281
1
  0
DICTIONARY
  5
15
330
A
100
AcDbDictionary
281
1
  0
DICTIONARY
  5
16
330
A
100
AcDbDictionary
281
1
  0
LAYOUT
  5
1A
330
D
100
AcDbPlotSettings
  1

  4
A3
  6

 40
7.5
 41
20.0
 42
7.5
 43
20.0
 44
420.0
 45
297.0
 46
0.0
 47
0.0
 48
0.0
 49
0.0
140
0.0
141
0.0
142
1.0
143
1.0
 70
1024
 72
1
 73
0
 74
5
  7

 75
16
 76
0
 77
2
 78
300
147
1.0
148
0.0
149
0.0
100
AcDbLayout
  1
Model
 70
1
 71
0
 10
0.0
 20
0.0
 11
420.0
 21
297.0
 12
0.0
 22
0.0
 32
0.0
 14
1e+20
 24
1e+20
 34
1e+20
 15
-1e+20
 25
-1e+20
 35
-1e+20
146
0.0
 13
0.0
 23
0.0
 33
0.0
 16
1.0
 26
0.0
 36
0.0
 17
0.0
 27
1.0
 37
0.0
 76
1
330
17
  0
LAYOUT
  5
1E
330
D
100
AcDbPlotSettings
  1

  4
A3
  6

 40
7.5
 41
20.0
 42
7.5
 43
20.0
 44
420.0
 45
297.0
 46
0.0
 47
0.0
 48
0.0
 49
0.0
140
0.0
141
0.0
142
1.0
143
1.0
 70
0
 72
1
 73
0
 74
5
  7

 75
16
 76
0
 77
2
 78
300
147
1.0
148
0.0
149
0.0
100
AcDbLayout
  1
Layout1
 70
1
 71
1
 10
0.0
 20
0.0
 11
420.0
 21
297.0
 12
0.0
 22
0.0
 32
0.0
 14
1e+20
 24
1e+20
 34
1e+20
 15
-1e+20
 25
-1e+20
 35
-1e+20
146
0.0
 13
0.0
 23
0.0
 33
0.0
 16
1.0
 26
0.0
 36
0.0
 17
0.0
 27
1.0
 37
0.0
 76
1
330
1B
  0
MATERIAL
  5
1F
102
{ACAD_REACTORS
330
E
102
}
330
E
100
AcDbMaterial
  1
ByBlock
  2

 70
0
 40
1.0
 71
1
 41
1.0
 91
-1023410177
 42
1.0
 72
1
  3

 73
1
 74
1
 75
1
 44
0.5
 73
0
 45
1.0
 46
1.0
 77
1
  4

 78
1
 79
1
170
1
 48
1.0
171
1
  6

172
1
173
1
174
1
140
1.0
141
1.0
175
1
  7

176
1
177
1
178
1
143
1.0
179
1
  8

270
1
271
1
272
1
145
1.0
146
1.0
273
1
  9

274
1
275
1
276
1
 42
1.0
 72
1
  3

 73
1
 74
1
 75
1
 94
63
  0
MATERIAL
  5
20
102
{ACAD_REACTORS
330
E
102
}
330
E
100
AcDbMaterial
  1
ByLayer
  2

 70
0
 40
1.0
 71
1
 41
1.0
 91
-1023410177
 42
1.0
 72
1
  3

 73
1
 74
1
 75
1
 44
0.5
 73
0
 45
1.0
 46
1.0
 77
1
  4

 78
1
 79
1
170
1
 48
1.0
171
1
  6

172
1
173
1
174
1
140
1.0
141
1.0
175
1
  7

176
1
177
1
178
1
143
1.0
179
1
  8

270
1
271
1
272
1
145
1.0
146
1.0
273
1
  9

274
1
275
1
276
1
 42
1.0
 72
1
  3

 73
1
 74
1
 75
1
 94
63
  0
MATERIAL
  5
21
102
{ACAD_REACTORS
330
E
102
}
330
E
100
AcDbMaterial
  1
Global
  2

 70
0
 40
1.0
 71
1
 41
1.0
 91
-1023410177
 42
1.0
 72
1
  3

 73
1
 74
1
 75
1
 44
0.5
 73
0
 45
1.0
 46
1.0
 77
1
  4

 78
1
 79
1
170
1
 48
1.0
171
1
  6

172
1
173
1
174
1
140
1.0
141
1.0
175
1
  7

176
1
177
1
178
1
143
1.0
179
1
  8

270
1
271
1
272
1
145
1.0
146
1.0
273
1
  9

274
1
275
1
276
1
 42
1.0
 72
1
  3

 73
1
 74
1
 75
1
 94
63
  0
MLINESTYLE
  5
22
102
{ACAD_REACTORS
330
10
102
}
330
10
100
AcDbMlineStyle
  2
Standard
 70
0
  3

 62
256
 51
90.0
 52
90.0
 71
2
 49
0.5
 62
256
  6
BYLAYER
 49
-0.5
 62
256
  6
BYLAYER
  0
MLEADERSTYLE
  5
2C
102
{ACAD_REACTORS
330
F
102
}
330
F
100
AcDbMLeaderStyle
179
2
170
2
171
1
172
0
 90
2
 40
0.0
 41
0.0
173
1
 91
-1056964608
 92
-2
290
1
 42
2.0
291
1
 43
8.0
  3
Standard
 44
4.0
300

342
29
174
1
175
1
176
0
178
1
 93
-1056964608
 45
4.0
292
0
297
0
 46
4.0
 94
-1056964608
 47
1.0
 49
1.0
140
1.0
294
1
141
0.0
177
0
142
1.0
295
0
296
0
143
3.75
271
0
272
9
273
9
  0
DICTIONARY
  5
2D
330
A
100
AcDbDictionary
280
1
281
1
  3
CREATED_BY_EZDXF
350
2E
  3
WRITTEN_BY_EZDXF
350
21E
  0
DICTIONARYVAR
  5
2E
330
2D
100
DictionaryVariables
280
0
  1
1.4.4 @ 2026-07-12T08:53:34.046829+00:00
  0
DICTIONARYVAR
  5
21E
330
2D
100
DictionaryVariables
280
0
  1
1.4.4 @ 2026-07-12T08:53:34.055310+00:00
  0
ENDSEC
  0
EOF
