  0
SECTION
  2
HEADER
  9
$ACADVER
  1
AC1024
  9
$ACADMAINTVER
 70
6
  9
$DWGCODEPAGE
  3
ANSI_1252
  9
$LASTSAVEDBY
  1
ezdxf
  9
$INSBASE
 10
0.0
 20
0.0
 30
0.0
  9
$EXTMIN
 10
1e+20
 20
1e+20
 30
1e+20
  9
$EXTMAX
 10
-1e+20
 20
-1e+20
 30
-1e+20
  9
$LIMMIN
 10
0.0
 20
0.0
  9
$LIMMAX
 10
420.0
 20
297.0
  9
$ORTHOMODE
 70
0
  9
$REGENMODE
 70
1
  9
$FILLMODE
 70
1
  9
$QTEXTMODE
 70
0
  9
$MIRRTEXT
 70
1
  9
$LTSCALE
 40
1.0
  9
$ATTMODE
 70
1
  9
$TEXTSIZE
 40
2.5
  9
$TRACEWID
 40
1.0
  9
$TEXTSTYLE
  7
Standard
  9
$CLAYER
  8
0
  9
$CELTYPE
  6
ByLayer
  9
$CECOLOR
 62
256
  9
$CELTSCALE
 40
1.0
  9
$DISPSILH
 70
0
  9
$DIMSCALE
 40
1.0
  9
$DIMASZ
 40
2.5
  9
$DIMEXO
 40
0.625
  9
$DIMDLI
 40
3.75
  9
$DIMRND
 40
0.0
  9
$DIMDLE
 40
0.0
  9
$DIMEXE
 40
1.25
  9
$DIMTP
 40
0.0
  9
$DIMTM
 40
0.0
  9
$DIMTXT
 40
2.5
  9
$DIMCEN
 40
2.5
  9
$DIMTSZ
 40
0.0
  9
$DIMTOL
 70
0
  9
$DIMLIM
 70
0
  9
$DIMTIH
 70
0
  9
$DIMTOH
 70
0
  9
$DIMSE1
 70
0
  9
$DIMSE2
 70
0
  9
$DIMTAD
 70
1
  9
$DIMZIN
 70
8
  9
$DIMBLK
  1

  9
$DIMASO
 70
1
  9
$DIMSHO
 70
1
  9
$DIMPOST
  1

  9
$DIMAPOST
  1

  9
$DIMALT
 70
0
  9
$DIMALTD
 70
3
  9
$DIMALTF
 40
0.03937007874
  9
$DIMLFAC
 40
1.0
  9
$DIMTOFL
 70
1
  9
$DIMTVP
 40
0.0
  9
$DIMTIX
 70
0
  9
$DIMSOXD
 70
0
  9
$DIMSAH
 70
0
  9
$DIMBLK1
  1

  9
$DIMBLK2
  1

  9
$DIMSTYLE
  2
ISO-25
  9
$DIMCLRD
 70
0
  9
$DIMCLRE
 70
0
  9
$DIMCLRT
 70
0
  9
$DIMTFAC
 40
1.0
  9
$DIMGAP
 40
0.625
  9
$DIMJUST
 70
0
  9
$DIMSD1
 70
0
  9
$DIMSD2
 70
0
  9
$DIMTOLJ
 70
0
  9
$DIMTZIN
 70
8
  9
$DIMALTZ
 70
0
  9
$DIMALTTZ
 70
0
  9
$DIMUPT
 70
0
  9
$DIMDEC
 70
2
  9
$DIMTDEC
 70
2
  9
$DIMALTU
 70
2
  9
$DIMALTTD
 70
3
  9
$DIMTXSTY
  7
Standard
  9
$DIMAUNIT
 70
0
  9
$DIMADEC
 70
0
  9
$DIMALTRND
 40
0.0
  9
$DIMAZIN
 70
0
  9
$DIMDSEP
 70
44
  9
$DIMATFIT
 70
3
  9
$DIMFRAC
 70
0
  9
$DIMLDRBLK
  1

  9
$DIMLUNIT
 70
2
  9
$DIMLWD
 70
-2
  9
$DIMLWE
 70
-2
  9
$DIMTMOVE
 70
0
  9
$DIMFXL
 40
1.0
  9
$DIMFXLON
 70
0
  9
$DIMJOGANG
 40
0.785398163397
  9
$DIMTFILL
 70
0
  9
$DIMTFILLCLR
 70
0
  9
$DIMARCSYM
 70
0
  9
$DIMLTYPE
  6

  9
$DIMLTEX1
  6

  9
$DIMLTEX2
  6

  9
$DIMTXTDIRECTION
 70
0
  9
$LUNITS
 70
2
  9
$LUPREC
 70
4
  9
$SKETCHINC
 40
1.0
  9
$FILLETRAD
 40
10.0
  9
$AUNITS
 70
0
  9
$AUPREC
 70
2
  9
$MENU
  1
.
  9
$ELEVATION
 40
0.0
  9
$PELEVATION
 40
0.0
  9
$THICKNESS
 40
0.0
  9
$LIMCHECK
 70
0
  9
$CHAMFERA
 40
0.0
  9
$CHAMFERB
 40
0.0
  9
$CHAMFERC
 40
0.0
  9
$CHAMFERD
 40
0.0
  9
$SKPOLY
 70
0
  9
$TDCREATE
 40
2461234.703761574
  9
$TDUCREATE
 40
2458532.153996898
  9
$TDUPDATE
 40
2461234.703761574
  9
$TDUUPDATE
 40
2458532.1544311
  9
$TDINDWG
 40
0.0
  9
$TDUSRTIMER
 40
0.0
  9
$USRTIMER
 70
1
  9
$ANGBASE
 50
0.0
  9
$ANGDIR
 70
0
  9
$PDMODE
 70
0
  9
$PDSIZE
 40
0.0
  9
$PLINEWID
 40
0.0
  9
$SPLFRAME
 70
0
  9
$SPLINETYPE
 70
6
  9
$SPLINESEGS
 70
8
  9
$HANDSEED
  5
313
  9
$SURFTAB1
 70
6
  9
$SURFTAB2
 70
6
  9
$SURFTYPE
 70
6
  9
$SURFU
 70
6
  9
$SURFV
 70
6
  9
$UCSBASE
  2

  9
$UCSNAME
  2

  9
$UCSORG
 10
0.0
 20
0.0
 30
0.0
  9
$UCSXDIR
 10
1.0
 20
0.0
 30
0.0
  9
$UCSYDIR
 10
0.0
 20
1.0
 30
0.0
  9
$UCSORTHOREF
  2

  9
$UCSORTHOVIEW
 70
0
  9
$UCSORGTOP
 10
0.0
 20
0.0
 30
0.0
  9
$UCSORGBOTTOM
 10
0.0
 20
0.0
 30
0.0
  9
$UCSORGLEFT
 10
0.0
 20
0.0
 30
0.0
  9
$UCSORGRIGHT
 10
0.0
 20
0.0
 30
0.0
  9
$UCSORGFRONT
 10
0.0
 20
0.0
 30
0.0
  9
$UCSORGBACK
 10
0.0
 20
0.0
 30
0.0
  9
$PUCSBASE
  2

  9
$PUCSNAME
  2

  9
$PUCSORG
 10
0.0
 20
0.0
 30
0.0
  9
$PUCSXDIR
 10
1.0
 20
0.0
 30
0.0
  9
$PUCSYDIR
 10
0.0
 20
1.0
 30
0.0
  9
$PUCSORTHOREF
  2

  9
$PUCSORTHOVIEW
 70
0
  9
$PUCSORGTOP
 10
0.0
 20
0.0
 30
0.0
  9
$PUCSORGBOTTOM
 10
0.0
 20
0.0
 30
0.0
  9
$PUCSORGLEFT
 10
0.0
 20
0.0
 30
0.0
  9
$PUCSORGRIGHT
 10
0.0
 20
0.0
 30
0.0
  9
$PUCSORGFRONT
 10
0.0
 20
0.0
 30
0.0
  9
$PUCSORGBACK
 10
0.0
 20
0.0
 30
0.0
  9
$USERI1
 70
0
  9
$USERI2
 70
0
  9
$USERI3
 70
0
  9
$USERI4
 70
0
  9
$USERI5
 70
0
  9
$USERR1
 40
0.0
  9
$USERR2
 40
0.0
  9
$USERR3
 40
0.0
  9
$USERR4
 40
0.0
  9
$USERR5
 40
0.0
  9
$WORLDVIEW
 70
1
  9
$SHADEDGE
 70
3
  9
$SHADEDIF
 70
70
  9
$TILEMODE
 70
1
  9
$MAXACTVP
 70
64
  9
$PINSBASE
 10
0.0
 20
0.0
 30
0.0
  9
$PLIMCHECK
 70
0
  9
$PEXTMIN
 10
1e+20
 20
1e+20
 30
1e+20
  9
$PEXTMAX
 10
-1e+20
 20
-1e+20
 30
-1e+20
  9
$PLIMMIN
 10
0.0
 20
0.0
  9
$PLIMMAX
 10
420.0
 20
297.0
  9
$UNITMODE
 70
0
  9
$VISRETAIN
 70
1
  9
$PLINEGEN
 70
0
  9
$PSLTSCALE
 70
1
  9
$TREEDEPTH
 70
3020
  9
$CMLSTYLE
  2
Standard
  9
$CMLJUST
 70
0
  9
$CMLSCALE
 40
20.0
  9
$PROXYGRAPHICS
 70
1
  9
$MEASUREMENT
 70
1
  9
$CELWEIGHT
370
-1
  9
$ENDCAPS
280
0
  9
$JOINSTYLE
280
0
  9
$LWDISPLAY
290
0
  9
$INSUNITS
 70
5
  9
$HYPERLINKBASE
  1

  9
$STYLESHEET
  1

  9
$XEDIT
290
1
  9
$CEPSNTYPE
380
0
  9
$PSTYLEMODE
290
1
  9
$FINGERPRINTGUID
  2
{3EFDC2F2-8C63-4900-AB91-7BE92F04428A}
  9
$VERSIONGUID
  2
{E92508AE-ED0B-4877-B8B4-9D96FA12BFCE}
  9
$EXTNAMES
290
1
  9
$PSVPSCALE
 40
0.0
  9
$OLESTARTUP
290
0
  9
$SORTENTS
280
127
  9
$INDEXCTL
280
0
  9
$HIDETEXT
280
1
  9
$XCLIPFRAME
280
1
  9
$HALOGAP
280
0
  9
$OBSCOLOR
 70
257
  9
$OBSLTYPE
280
0
  9
$INTERSECTIONDISPLAY
280
0
  9
$INTERSECTIONCOLOR
 70
257
  9
$DIMASSOC
280
2
  9
$PROJECTNAME
  1

  9
$CAMERADISPLAY
290
0
  9
$LENSLENGTH
 40
50.0
  9
$CAMERAHEIGHT
 40
0.0
  9
$STEPSPERSEC
 40
24.0
  9
$STEPSIZE
 40
100.0
  9
$3DDWFPREC
 40
2.0
  9
$PSOLWIDTH
 40
0.005
  9
$PSOLHEIGHT
 40
0.08
  9
$LOFTANG1
 40
1.570796326795
  9
$LOFTANG2
 40
1.570796326795
  9
$LOFTMAG1
 40
0.0
  9
$LOFTMAG2
 40
0.0
  9
$LOFTPARAM
 70
7
  9
$LOFTNORMALS
280
1
  9
$LATITUDE
 40
37.795
  9
$LONGITUDE
 40
-122.394
  9
$NORTHDIRECTION
 40
0.0
  9
$TIMEZONE
 70
-8000
  9
$LIGHTGLYPHDISPLAY
280
1
  9
$TILEMODELIGHTSYNCH
280
1
  9
$CMATERIAL
347
20
  9
$SOLIDHIST
280
0
  9
$SHOWHIST
280
1
  9
$DWFFRAME
280
2
  9
$DGNFRAME
280
2
  9
$REALWORLDSCALE
290
1
  9
$INTERFERECOLOR
 62
256
  9
$CSHADOW
280
0
  9
$SHADOWPLANELOCATION
 40
0.0
  0
ENDSEC
  0
SECTION
  2
CLASSES
  0
CLASS
  1
ACDBDICTIONARYWDFLT
  2
AcDbDictionaryWithDefault
  3
ObjectDBX Classes
 90
0
 91
0
280
0
281
0
  0
CLASS
  1
SUN
  2
AcDbSun
  3
SCENEOE
 90
1153
 91
0
280
0
281
0
  0
CLASS
  1
VISUALSTYLE
  2
AcDbVisualStyle
  3
ObjectDBX Classes
 90
4095
 91
0
280
0
281
0
  0
CLASS
  1
MATERIAL
  2
AcDbMaterial
  3
ObjectDBX Classes
 90
1153
 91
0
280
0
281
0
  0
CLASS
  1
SCALE
  2
AcDbScale
  3
ObjectDBX Classes
 90
1153
 91
0
280
0
281
0
  0
CLASS
  1
TABLESTYLE
  2
AcDbTableStyle
  3
ObjectDBX Classes
 90
4095
 91
0
280
0
281
0
  0
CLASS
  1
MLEADERSTYLE
  2
AcDbMLeaderStyle
  3
ACDB_MLEADERSTYLE_CLASS
 90
4095
 91
0
280
0
281
0
  0
CLASS
  1
DICTIONARYVAR
  2
AcDbDictionaryVar
  3
ObjectDBX Classes
 90
0
 91
0
280
0
281
0
  0
CLASS
  1
CELLSTYLEMAP
  2
AcDbCellStyleMap
  3
ObjectDBX Classes
 90
1152
 91
0
280
0
281
0
  0
CLASS
  1
MENTALRAYRENDERSETTINGS
  2
AcDbMentalRayRenderSettings
  3
SCENEOE
 90
1024
 91
0
280
0
281
0
  0
CLASS
  1
ACDBDETAILVIEWSTYLE
  2
AcDbDetailViewStyle
  3
ObjectDBX Classes
 90
1025
 91
0
280
0
281
0
  0
CLASS
  1
ACDBSECTIONVIEWSTYLE
  2
AcDbSectionViewStyle
  3
ObjectDBX Classes
 90
1025
 91
0
280
0
281
0
  0
CLASS
  1
RASTERVARIABLES
  2
AcDbRasterVariables
  3
ISM
 90
0
 91
0
280
0
281
0
  0
CLASS
  1
ACDBPLACEHOLDER
  2
AcDbPlaceHolder
  3
ObjectDBX Classes
 90
0
 91
0
280
0
281
0
  0
CLASS
  1
LAYOUT
  2
AcDbLayout
  3
ObjectDBX Classes
 90
0
 91
0
280
0
281
0
  0
ENDSEC
  0
SECTION
  2
TABLES
  0
TABLE
  2
VPORT
  5
8
330
0
100
AcDbSymbolTable
 70
1
  0
VPORT
  5
23
330
8
100
AcDbSymbolTableRecord
100
AcDbViewportTableRecord
  2
*Active
 70
0
 10
0.0
 20
0.0
 11
1.0
 21
1.0
 12
0.0
 22
0.0
 13
0.0
 23
0.0
 14
0.5
 24
0.5
 15
0.5
 25
0.5
 16
0.0
 26
0.0
 36
1.0
 17
0.0
 27
0.0
 37
0.0
 40
1000.0
 41
1.34
 42
50.0
 43
0.0
 44
0.0
 50
0.0
 51
0.0
 71
0
 72
1000
 73
1
 74
3
 75
0
 76
0
 77
0
 78
0
281
0
 65
0
146
0.0
  0
ENDTAB
  0
TABLE
  2
LTYPE
  5
2
330
0
100
AcDbSymbolTable
 70
3
  0
LTYPE
  5
24
330
2
100
AcDbSymbolTableRecord
100
AcDbLinetypeTableRecord
  2
ByBlock
 70
0
  3

 72
65
 73
0
 40
0.0
  0
LTYPE
  5
25
330
2
100
AcDbSymbolTableRecord
100
AcDbLinetypeTableRecord
  2
ByLayer
 70
0
  3

 72
65
 73
0
 40
0.0
  0
LTYPE
  5
26
330
2
100
AcDbSymbolTableRecord
100
AcDbLinetypeTableRecord
  2
Continuous
 70
0
  3

 72
65
 73
0
 40
0.0
  0
ENDTAB
  0
TABLE
  2
LAYER
  5
1
330
0
100
AcDbSymbolTable
 70
5
  0
LAYER
  5
27
330
1
100
AcDbSymbolTableRecord
100
AcDbLayerTableRecord
  2
0
 70
0
 62
7
  6
Continuous
370
-3
390
13
347
21
  0
LAYER
  5
28
330
1
100
AcDbSymbolTableRecord
100
AcDbLayerTableRecord
  2
Defpoints
 70
0
 62
7
  6
Continuous
290
0
370
-3
390
13
347
21
  0
LAYER
  5
2F
330
1
100
AcDbSymbolTableRecord
100
AcDbLayerTableRecord
  2
WALL
 70
0
 62
7
  6
Continuous
370
-3
390
13
347
21
  0
LAYER
  5
30
330
1
100
AcDbSymbolTableRecord
100
AcDbLayerTableRecord
  2
WINDOW
 70
0
 62
5
  6
Continuous
370
-3
390
13
347
21
  0
LAYER
  5
2DF
330
1
100
AcDbSymbolTableRecord
100
AcDbLayerTableRecord
  2
DOORZONE
 70
0
 62
2
  6
Continuous
370
-3
390
13
347
21
  0
ENDTAB
  0
TABLE
  2
STYLE
  5
5
330
0
100
AcDbSymbolTable
 70
1
  0
STYLE
  5
29
330
5
100
AcDbSymbolTableRecord
100
AcDbTextStyleTableRecord
  2
Standard
 70
0
 40
0.0
 41
1.0
 50
0.0
 71
0
 42
2.5
  3
txt
  4

  0
ENDTAB
  0
TABLE
  2
VIEW
  5
7
330
0
100
AcDbSymbolTable
 70
0
  0
ENDTAB
  0
TABLE
  2
UCS
  5
6
330
0
100
AcDbSymbolTable
 70
0
  0
ENDTAB
  0
TABLE
  2
APPID
  5
3
330
0
100
AcDbSymbolTable
 70
3
  0
APPID
  5
2A
330
3
100
AcDbSymbolTableRecord
100
AcDbRegAppTableRecord
  2
ACAD
 70
0
  0
APPID
  5
310
330
3
100
AcDbSymbolTableRecord
100
AcDbRegAppTableRecord
  2
HATCHBACKGROUNDCOLOR
 70
0
  0
APPID
  5
311
330
3
100
AcDbSymbolTableRecord
100
AcDbRegAppTableRecord
  2
EZDXF
 70
0
  0
ENDTAB
  0
TABLE
  2
DIMSTYLE
  5
4
330
0
100
AcDbSymbolTable
 70
1
100
AcDbDimStyleTable
  0
DIMSTYLE
105
2B
330
4
100
AcDbSymbolTableRecord
100
AcDbDimStyleTableRecord
  2
Standard
 70
0
 40
1.0
 41
2.5
 42
0.625
 43
3.75
 44
1.25
 45
0.0
 46
0.0
 47
0.0
 48
0.0
 49
2.5
140
2.5
141
2.5
142
0.0
143
0.03937007874
144
1.0
145
0.0
146
1.0
147
0.625
148
0.0
 69
0
 70
0
 71
0
 72
0
 73
0
 74
0
 75
0
 76
0
 77
1
 78
8
 79
3
170
0
171
3
172
1
173
0
174
0
175
0
176
0
177
0
178
0
179
2
271
2
272
2
273
2
274
3
275
0
276
0
277
2
278
44
279
0
280
0
281
0
282
0
283
0
284
8
285
0
286
0
288
0
289
3
290
0
371
-2
372
-2
  0
ENDTAB
  0
TABLE
  2
BLOCK_RECORD
  5
9
330
0
100
AcDbSymbolTable
 70
2
  0
BLOCK_RECORD
  5
17
330
9
100
AcDbSymbolTableRecord
100
AcDbBlockTableRecord
  2
*Model_Space
340
1A
 70
0
280
1
281
0
  0
BLOCK_RECORD
  5
1B
330
9
100
AcDbSymbolTableRecord
100
AcDbBlockTableRecord
  2
*Paper_Space
340
1E
 70
0
280
1
281
0
  0
ENDTAB
  0
ENDSEC
  0
SECTION
  2
BLOCKS
  0
BLOCK
  5
18
330
17
100
AcDbEntity
  8
0
100
AcDbBlockBegin
  2
*Model_Space
 70
0
 10
0.0
 20
0.0
 30
0.0
  3
*Model_Space
  1

  0
ENDBLK
  5
19
330
17
100
AcDbEntity
  8
0
100
AcDbBlockEnd
  0
BLOCK
  5
1C
330
1B
100
AcDbEntity
  8
0
100
AcDbBlockBegin
  2
*Paper_Space
 70
0
 10
0.0
 20
0.0
 30
0.0
  3
*Paper_Space
  1

  0
ENDBLK
  5
1D
330
1B
100
AcDbEntity
  8
0
100
AcDbBlockEnd
  0
ENDSEC
  0
SECTION
  2
ENTITIES
  0
LWPOLYLINE
  5
31
330
17
100
AcDbEntity
  8
WALL
100
AcDbPolyline
 90
4
 70
1
 10
52.5
 20
2037.5
 10
115.0
 20
2037.5
 10
115.0
 20
2015.0
 10
52.5
 20
2015.0
  0
HATCH
  5
32
330
17
100
AcDbEntity
  8
WALL
100
AcDbHatch
 10
0.0
 20
0.0
 30
0.0
210
0.0
220
0.0
230
1.0
  2
SOLID
 70
1
 71
0
 91
1
 92
3
 72
0
 73
1
 93
4
 10
52.5
 20
2037.5
 10
115.0
 20
2037.5
 10
115.0
 20
2015.0
 10
52.5
 20
2015.0
 97
0
 75
1
 76
1
 98
0
  0
LWPOLYLINE
  5
33
330
17
100
AcDbEntity
  8
WALL
100
AcDbPolyline
 90
4
 70
1
 10
122.5
 20
2030.0
 10
360.0
 20
2030.0
 10
360.0
 20
2005.0
 10
122.5
 20
2005.0
  0
HATCH
  5
34
330
17
100
AcDbEntity
  8
WALL
100
AcDbHatch
 10
0.0
 20
0.0
 30
0.0
210
0.0
220
0.0
230
1.0
  2
SOLID
 70
1
 71
0
 91
1
 92
3
 72
0
 73
1
 93
4
 10
122.5
 20
2030.0
 10
360.0
 20
2030.0
 10
360.0
 20
2005.0
 10
122.5
 20
2005.0
 97
0
 75
1
 76
1
 98
0
  0
LWPOLYLINE
  5
35
330
17
100
AcDbEntity
  8
WALL
100
AcDbPolyline
 90
4
 70
1
 10
465.0
 20
2030.0
 10
515.0
 20
2030.0
 10
515.0
 20
2015.0
 10
465.0
 20
2015.0
  0
HATCH
  5
36
330
17
100
AcDbEntity
  8
WALL
100
AcDbHatch
 10
0.0
 20
0.0
 30
0.0
210
0.0
220
0.0
230
1.0
  2
SOLID
 70
1
 71
0
 91
1
 92
3
 72
0
 73
1
 93
4
 10
465.0
 20
2030.0
 10
515.0
 20
2030.0
 10
515.0
 20
2015.0
 10
465.0
 20
2015.0
 97
0
 75
1
 76
1
 98
0
  0
LWPOLYLINE
  5
37
330
17
100
AcDbEntity
  8
WALL
100
AcDbPolyline
 90
4
 70
1
 10
842.5
 20
2002.5
 10
892.5
 20
2002.5
 10
892.5
 20
1985.0
 10
842.5
 20
1985.0
  0
HATCH
  5
38
330
17
100
AcDbEntity
  8
WALL
100
AcDbHatch
 10
0.0
 20
0.0
 30
0.0
210
0.0
220
0.0
230
1.0
  2
SOLID
 70
1
 71
0
 91
1
 92
3
 72
0
 73
1
 93
4
 10
842.5
 20
2002.5
 10
892.5
 20
2002.5
 10
892.5
 20
1985.0
 10
842.5
 20
1985.0
 97
0
 75
1
 76
1
 98
0
  0
LWPOLYLINE
  5
39
330
17
100
AcDbEntity
  8
WALL
100
AcDbPolyline
 90
4
 70
1
 10
1342.5
 20
2002.5
 10
1372.5
 20
2002.5
 10
1372.5
 20
1997.5
 10
1342.5
 20
1997.5
  0
HATCH
  5
3A
330
17
100
AcDbEntity
  8
WALL
100
AcDbHatch
 10
0.0
 20
0.0
 30
0.0
210
0.0
220
0.0
230
1.0
  2
SOLID
 70
1
 71
0
 91
1
 92
3
 72
0
 73
1
 93
4
 10
1342.5
 20
2002.5
 10
1372.5
 20
2002.5
 10
1372.5
 20
1997.5
 10
1342.5
 20
1997.5
 97
0
 75
1
 76
1
 98
0
  0
LWPOLYLINE
  5
3B
330
17
100
AcDbEntity
  8
WALL
100
AcDbPolyline
 90
4
 70
1
 10
1060.0
 20
1997.5
 10
1365.0
 20
1997.5
 10
1365.0
 20
1975.0
 10
1060.0
 20
1975.0
  0
HATCH
  5
3C
330
17
100
AcDbEntity
  8
WALL
100
AcDbHatch
 10
0.0
 20
0.0
 30
0.0
210
0.0
220
0.0
230
1.0
  2
SOLID
 70
1
 71
0
 91
1
 92
3
 72
0
 73
1
 93
4
 10
1060.0
 20
1997.5
 10
1365.0
 20
1997.5
 10
1365.0
 20
1975.0
 10
1060.0
 20
1975.0
 97
0
 75
1
 76
1
 98
0
  0
LWPOLYLINE
  5
3D
330
17
100
AcDbEntity
  8
WALL
100
AcDbPolyline
 90
4
 70
1
 10
1370.0
 20
1995.0
 10
1617.5
 20
1995.0
 10
1617.5
 20
1975.0
 10
1370.0
 20
1975.0
  0
HATCH
  5
3E
330
17
100
AcDbEntity
  8
WALL
100
AcDbHatch
 10
0.0
 20
0.0
 30
0.0
210
0.0
220
0.0
230
1.0
  2
SOLID
 70
1
 71
0
 91
1
 92
3
 72
0
 73
1
 93
4
 10
1370.0
 20
1995.0
 10
1617.5
 20
1995.0
 10
1617.5
 20
1975.0
 10
1370.0
 20
1975.0
 97
0
 75
1
 76
1
 98
0
  0
LWPOLYLINE
  5
3F
330
17
100
AcDbEntity
  8
WALL
100
AcDbPolyline
 90
4
 70
1
 10
1817.5
 20
1995.0
 10
2025.0
 20
1995.0
 10
2025.0
 20
1975.0
 10
1817.5
 20
1975.0
  0
HATCH
  5
40
330
17
100
AcDbEntity
  8
WALL
100
AcDbHatch
 10
0.0
 20
0.0
 30
0.0
210
0.0
220
0.0
230
1.0
  2
SOLID
 70
1
 71
0
 91
1
 92
3
 72
0
 73
1
 93
4
 10
1817.5
 20
1995.0
 10
2025.0
 20
1995.0
 10
2025.0
 20
1975.0
 10
1817.5
 20
1975.0
 97
0
 75
1
 76
1
 98
0
  0
LWPOLYLINE
  5
41
330
17
100
AcDbEntity
  8
WALL
100
AcDbPolyline
 90
4
 70
1
 10
2090.0
 20
1995.0
 10
2395.0
 20
1995.0
 10
2395.0
 20
1975.0
 10
2090.0
 20
1975.0
  0
HATCH
  5
42
330
17
100
AcDbEntity
  8
WALL
100
AcDbHatch
 10
0.0
 20
0.0
 30
0.0
210
0.0
220
0.0
230
1.0
  2
SOLID
 70
1
 71
0
 91
1
 92
3
 72
0
 73
1
 93
4
 10
2090.0
 20
1995.0
 10
2395.0
 20
1995.0
 10
2395.0
 20
1975.0
 10
2090.0
 20
1975.0
 97
0
 75
1
 76
1
 98
0
  0
LWPOLYLINE
  5
43
330
17
100
AcDbEntity
  8
WALL
100
AcDbPolyline
 90
4
 70
1
 10
2410.0
 20
1995.0
 10
2480.0
 20
1995.0
 10
2480.0
 20
1975.0
 10
2410.0
 20
1975.0
  0
HATCH
  5
44
330
17
100
AcDbEntity
  8
WALL
100
AcDbHatch
 10
0.0
 20
0.0
 30
0.0
210
0.0
220
0.0
230
1.0
  2
SOLID
 70
1
 71
0
 91
1
 92
3
 72
0
 73
1
 93
4
 10
2410.0
 20
1995.0
 10
2480.0
 20
1995.0
 10
2480.0
 20
1975.0
 10
2410.0
 20
1975.0
 97
0
 75
1
 76
1
 98
0
  0
LWPOLYLINE
  5
45
330
17
100
AcDbEntity
  8
WALL
100
AcDbPolyline
 90
4
 70
1
 10
890.0
 20
1985.0
 10
1012.5
 20
1985.0
 10
1012.5
 20
1975.0
 10
890.0
 20
1975.0
  0
HATCH
  5
46
330
17
100
AcDbEntity
  8
WALL
100
AcDbHatch
 10
0.0
 20
0.0
 30
0.0
210
0.0
220
0.0
230
1.0
  2
SOLID
 70
1
 71
0
 91
1
 92
3
 72
0
 73
1
 93
4
 10
890.0
 20
1985.0
 10
1012.5
 20
1985.0
 10
1012.5
 20
1975.0
 10
890.0
 20
1975.0
 97
0
 75
1
 76
1
 98
0
  0
LWPOLYLINE
  5
47
330
17
100
AcDbEntity
  8
WALL
100
AcDbPolyline
 90
4
 70
1
 10
60.0
 20
1977.5
 10
135.0
 20
1977.5
 10
135.0
 20
1955.0
 10
60.0
 20
1955.0
  0
HATCH
  5
48
330
17
100
AcDbEntity
  8
WALL
100
AcDbHatch
 10
0.0
 20
0.0
 30
0.0
210
0.0
220
0.0
230
1.0
  2
SOLID
 70
1
 71
0
 91
1
 92
3
 72
0
 73
1
 93
4
 10
60.0
 20
1977.5
 10
135.0
 20
1977.5
 10
135.0
 20
1955.0
 10
60.0
 20
1955.0
 97
0
 75
1
 76
1
 98
0
  0
LWPOLYLINE
  5
49
330
17
100
AcDbEntity
  8
WALL
100
AcDbPolyline
 90
4
 70
1
 10
2010.0
 20
1980.0
 10
2045.0
 20
1980.0
 10
2045.0
 20
1977.5
 10
2010.0
 20
1977.5
  0
HATCH
  5
4A
330
17
100
AcDbEntity
  8
WALL
100
AcDbHatch
 10
0.0
 20
0.0
 30
0.0
210
0.0
220
0.0
230
1.0
  2
SOLID
 70
1
 71
0
 91
1
 92
3
 72
0
 73
1
 93
4
 10
2010.0
 20
1980.0
 10
2045.0
 20
1980.0
 10
2045.0
 20
1977.5
 10
2010.0
 20
1977.5
 97
0
 75
1
 76
1
 98
0
  0
LWPOLYLINE
  5
4B
330
17
100
AcDbEntity
  8
WALL
100
AcDbPolyline
 90
4
 70
1
 10
540.0
 20
1972.5
 10
572.5
 20
1972.5
 10
572.5
 20
1967.5
 10
540.0
 20
1967.5
  0
HATCH
  5
4C
330
17
100
AcDbEntity
  8
WALL
100
AcDbHatch
 10
0.0
 20
0.0
 30
0.0
210
0.0
220
0.0
230
1.0
  2
SOLID
 70
1
 71
0
 91
1
 92
3
 72
0
 73
1
 93
4
 10
540.0
 20
1972.5
 10
572.5
 20
1972.5
 10
572.5
 20
1967.5
 10
540.0
 20
1967.5
 97
0
 75
1
 76
1
 98
0
  0
LWPOLYLINE
  5
4D
330
17
100
AcDbEntity
  8
WALL
100
AcDbPolyline
 90
4
 70
1
 10
620.0
 20
1972.5
 10
662.5
 20
1972.5
 10
662.5
 20
1967.5
 10
620.0
 20
1967.5
  0
HATCH
  5
4E
330
17
100
AcDbEntity
  8
WALL
100
AcDbHatch
 10
0.0
 20
0.0
 30
0.0
210
0.0
220
0.0
230
1.0
  2
SOLID
 70
1
 71
0
 91
1
 92
3
 72
0
 73
1
 93
4
 10
620.0
 20
1972.5
 10
662.5
 20
1972.5
 10
662.5
 20
1967.5
 10
620.0
 20
1967.5
 97
0
 75
1
 76
1
 98
0
  0
LWPOLYLINE
  5
4F
330
17
100
AcDbEntity
  8
WALL
100
AcDbPolyline
 90
4
 70
1
 10
735.0
 20
1975.0
 10
842.5
 20
1975.0
 10
842.5
 20
1965.0
 10
735.0
 20
1965.0
  0
HATCH
  5
50
330
17
100
AcDbEntity
  8
WALL
100
AcDbHatch
 10
0.0
 20
0.0
 30
0.0
210
0.0
220
0.0
230
1.0
  2
SOLID
 70
1
 71
0
 91
1
 92
3
 72
0
 73
1
 93
4
 10
735.0
 20
1975.0
 10
842.5
 20
1975.0
 10
842.5
 20
1965.0
 10
735.0
 20
1965.0
 97
0
 75
1
 76
1
 98
0
  0
LWPOLYLINE
  5
51
330
17
100
AcDbEntity
  8
WALL
100
AcDbPolyline
 90
4
 70
1
 10
185.0
 20
1970.0
 10
445.0
 20
1970.0
 10
445.0
 20
1955.0
 10
185.0
 20
1955.0
  0
HATCH
  5
52
330
17
100
AcDbEntity
  8
WALL
100
AcDbHatch
 10
0.0
 20
0.0
 30
0.0
210
0.0
220
0.0
230
1.0
  2
SOLID
 70
1
 71
0
 91
1
 92
3
 72
0
 73
1
 93
4
 10
185.0
 20
1970.0
 10
445.0
 20
1970.0
 10
445.0
 20
1955.0
 10
185.0
 20
1955.0
 97
0
 75
1
 76
1
 98
0
  0
LWPOLYLINE
  5
53
330
17
100
AcDbEntity
  8
WALL
100
AcDbPolyline
 90
4
 70
1
 10
752.5
 20
1960.0
 10
795.0
 20
1960.0
 10
795.0
 20
1947.5
 10
752.5
 20
1947.5
  0
HATCH
  5
54
330
17
100
AcDbEntity
  8
WALL
100
AcDbHatch
 10
0.0
 20
0.0
 30
0.0
210
0.0
220
0.0
230
1.0
  2
SOLID
 70
1
 71
0
 91
1
 92
3
 72
0
 73
1
 93
4
 10
752.5
 20
1960.0
 10
795.0
 20
1960.0
 10
795.0
 20
1947.5
 10
752.5
 20
1947.5
 97
0
 75
1
 76
1
 98
0
  0
LWPOLYLINE
  5
55
330
17
100
AcDbEntity
  8
WALL
100
AcDbPolyline
 90
4
 70
1
 10
2407.5
 20
1940.0
 10
2462.5
 20
1940.0
 10
2462.5
 20
1930.0
 10
2407.5
 20
1930.0
  0
HATCH
  5
56
330
17
100
AcDbEntity
  8
WALL
100
AcDbHatch
 10
0.0
 20
0.0
 30
0.0
210
0.0
220
0.0
230
1.0
  2
SOLID
 70
1
 71
0
 91
1
 92
3
 72
0
 73
1
 93
4
 10
2407.5
 20
1940.0
 10
2462.5
 20
1940.0
 10
2462.5
 20
1930.0
 10
2407.5
 20
1930.0
 97
0
 75
1
 76
1
 98
0
  0
LWPOLYLINE
  5
57
330
17
100
AcDbEntity
  8
WALL
100
AcDbPolyline
 90
4
 70
1
 10
1730.0
 20
1935.0
 10
1797.5
 20
1935.0
 10
1797.5
 20
1915.0
 10
1730.0
 20
1915.0
  0
HATCH
  5
58
330
17
100
AcDbEntity
  8
WALL
100
AcDbHatch
 10
0.0
 20
0.0
 30
0.0
210
0.0
220
0.0
230
1.0
  2
SOLID
 70
1
 71
0
 91
1
 92
3
 72
0
 73
1
 93
4
 10
1730.0
 20
1935.0
 10
1797.5
 20
1935.0
 10
1797.5
 20
1915.0
 10
1730.0
 20
1915.0
 97
0
 75
1
 76
1
 98
0
  0
LWPOLYLINE
  5
59
330
17
100
AcDbEntity
  8
WALL
100
AcDbPolyline
 90
4
 70
1
 10
2432.5
 20
1925.0
 10
2462.5
 20
1925.0
 10
2462.5
 20
1922.5
 10
2432.5
 20
1922.5
  0
HATCH
  5
5A
330
17
100
AcDbEntity
  8
WALL
100
AcDbHatch
 10
0.0
 20
0.0
 30
0.0
210
0.0
220
0.0
230
1.0
  2
SOLID
 70
1
 71
0
 91
1
 92
3
 72
0
 73
1
 93
4
 10
2432.5
 20
1925.0
 10
2462.5
 20
1925.0
 10
2462.5
 20
1922.5
 10
2432.5
 20
1922.5
 97
0
 75
1
 76
1
 98
0
  0
LWPOLYLINE
  5
5B
330
17
100
AcDbEntity
  8
WALL
100
AcDbPolyline
 90
4
 70
1
 10
2407.5
 20
1915.0
 10
2452.5
 20
1915.0
 10
2452.5
 20
1905.0
 10
2407.5
 20
1905.0
  0
HATCH
  5
5C
330
17
100
AcDbEntity
  8
WALL
100
AcDbHatch
 10
0.0
 20
0.0
 30
0.0
210
0.0
220
0.0
230
1.0
  2
SOLID
 70
1
 71
0
 91
1
 92
3
 72
0
 73
1
 93
4
 10
2407.5
 20
1915.0
 10
2452.5
 20
1915.0
 10
2452.5
 20
1905.0
 10
2407.5
 20
1905.0
 97
0
 75
1
 76
1
 98
0
  0
LWPOLYLINE
  5
5D
330
17
100
AcDbEntity
  8
WALL
100
AcDbPolyline
 90
4
 70
1
 10
1692.5
 20
1905.0
 10
1747.5
 20
1905.0
 10
1747.5
 20
1890.0
 10
1692.5
 20
1890.0
  0
HATCH
  5
5E
330
17
100
AcDbEntity
  8
WALL
100
AcDbHatch
 10
0.0
 20
0.0
 30
0.0
210
0.0
220
0.0
230
1.0
  2
SOLID
 70
1
 71
0
 91
1
 92
3
 72
0
 73
1
 93
4
 10
1692.5
 20
1905.0
 10
1747.5
 20
1905.0
 10
1747.5
 20
1890.0
 10
1692.5
 20
1890.0
 97
0
 75
1
 76
1
 98
0
  0
LWPOLYLINE
  5
5F
330
17
100
AcDbEntity
  8
WALL
100
AcDbPolyline
 90
4
 70
1
 10
1592.5
 20
1885.0
 10
1622.5
 20
1885.0
 10
1622.5
 20
1882.5
 10
1592.5
 20
1882.5
  0
HATCH
  5
60
330
17
100
AcDbEntity
  8
WALL
100
AcDbHatch
 10
0.0
 20
0.0
 30
0.0
210
0.0
220
0.0
230
1.0
  2
SOLID
 70
1
 71
0
 91
1
 92
3
 72
0
 73
1
 93
4
 10
1592.5
 20
1885.0
 10
1622.5
 20
1885.0
 10
1622.5
 20
1882.5
 10
1592.5
 20
1882.5
 97
0
 75
1
 76
1
 98
0
  0
LWPOLYLINE
  5
61
330
17
100
AcDbEntity
  8
WALL
100
AcDbPolyline
 90
4
 70
1
 10
2407.5
 20
1877.5
 10
2462.5
 20
1877.5
 10
2462.5
 20
1865.0
 10
2407.5
 20
1865.0
  0
HATCH
  5
62
330
17
100
AcDbEntity
  8
WALL
100
AcDbHatch
 10
0.0
 20
0.0
 30
0.0
210
0.0
220
0.0
230
1.0
  2
SOLID
 70
1
 71
0
 91
1
 92
3
 72
0
 73
1
 93
4
 10
2407.5
 20
1877.5
 10
2462.5
 20
1877.5
 10
2462.5
 20
1865.0
 10
2407.5
 20
1865.0
 97
0
 75
1
 76
1
 98
0
  0
LWPOLYLINE
  5
63
330
17
100
AcDbEntity
  8
WALL
100
AcDbPolyline
 90
4
 70
1
 10
2407.5
 20
1852.5
 10
2462.5
 20
1852.5
 10
2462.5
 20
1835.0
 10
2407.5
 20
1835.0
  0
HATCH
  5
64
330
17
100
AcDbEntity
  8
WALL
100
AcDbHatch
 10
0.0
 20
0.0
 30
0.0
210
0.0
220
0.0
230
1.0
  2
SOLID
 70
1
 71
0
 91
1
 92
3
 72
0
 73
1
 93
4
 10
2407.5
 20
1852.5
 10
2462.5
 20
1852.5
 10
2462.5
 20
1835.0
 10
2407.5
 20
1835.0
 97
0
 75
1
 76
1
 98
0
  0
LWPOLYLINE
  5
65
330
17
100
AcDbEntity
  8
WALL
100
AcDbPolyline
 90
4
 70
1
 10
1055.0
 20
1842.5
 10
1580.0
 20
1842.5
 10
1580.0
 20
1830.0
 10
1055.0
 20
1830.0
  0
HATCH
  5
66
330
17
100
AcDbEntity
  8
WALL
100
AcDbHatch
 10
0.0
 20
0.0
 30
0.0
210
0.0
220
0.0
230
1.0
  2
SOLID
 70
1
 71
0
 91
1
 92
3
 72
0
 73
1
 93
4
 10
1055.0
 20
1842.5
 10
1580.0
 20
1842.5
 10
1580.0
 20
1830.0
 10
1055.0
 20
1830.0
 97
0
 75
1
 76
1
 98
0
  0
LWPOLYLINE
  5
67
330
17
100
AcDbEntity
  8
WALL
100
AcDbPolyline
 90
4
 70
1
 10
1007.5
 20
1840.0
 10
1045.0
 20
1840.0
 10
1045.0
 20
1830.0
 10
1007.5
 20
1830.0
  0
HATCH
  5
68
330
17
100
AcDbEntity
  8
WALL
100
AcDbHatch
 10
0.0
 20
0.0
 30
0.0
210
0.0
220
0.0
230
1.0
  2
SOLID
 70
1
 71
0
 91
1
 92
3
 72
0
 73
1
 93
4
 10
1007.5
 20
1840.0
 10
1045.0
 20
1840.0
 10
1045.0
 20
1830.0
 10
1007.5
 20
1830.0
 97
0
 75
1
 76
1
 98
0
  0
LWPOLYLINE
  5
69
330
17
100
AcDbEntity
  8
WALL
100
AcDbPolyline
 90
4
 70
1
 10
607.5
 20
1835.0
 10
745.0
 20
1835.0
 10
745.0
 20
1825.0
 10
607.5
 20
1825.0
  0
HATCH
  5
6A
330
17
100
AcDbEntity
  8
WALL
100
AcDbHatch
 10
0.0
 20
0.0
 30
0.0
210
0.0
220
0.0
230
1.0
  2
SOLID
 70
1
 71
0
 91
1
 92
3
 72
0
 73
1
 93
4
 10
607.5
 20
1835.0
 10
745.0
 20
1835.0
 10
745.0
 20
1825.0
 10
607.5
 20
1825.0
 97
0
 75
1
 76
1
 98
0
  0
LWPOLYLINE
  5
6B
330
17
100
AcDbEntity
  8
WALL
100
AcDbPolyline
 90
4
 70
1
 10
750.0
 20
1835.0
 10
800.0
 20
1835.0
 10
800.0
 20
1825.0
 10
750.0
 20
1825.0
  0
HATCH
  5
6C
330
17
100
AcDbEntity
  8
WALL
100
AcDbHatch
 10
0.0
 20
0.0
 30
0.0
210
0.0
220
0.0
230
1.0
  2
SOLID
 70
1
 71
0
 91
1
 92
3
 72
0
 73
1
 93
4
 10
750.0
 20
1835.0
 10
800.0
 20
1835.0
 10
800.0
 20
1825.0
 10
750.0
 20
1825.0
 97
0
 75
1
 76
1
 98
0
  0
LWPOLYLINE
  5
6D
330
17
100
AcDbEntity
  8
WALL
100
AcDbPolyline
 90
4
 70
1
 10
810.0
 20
1835.0
 10
847.5
 20
1835.0
 10
847.5
 20
1825.0
 10
810.0
 20
1825.0
  0
HATCH
  5
6E
330
17
100
AcDbEntity
  8
WALL
100
AcDbHatch
 10
0.0
 20
0.0
 30
0.0
210
0.0
220
0.0
230
1.0
  2
SOLID
 70
1
 71
0
 91
1
 92
3
 72
0
 73
1
 93
4
 10
810.0
 20
1835.0
 10
847.5
 20
1835.0
 10
847.5
 20
1825.0
 10
810.0
 20
1825.0
 97
0
 75
1
 76
1
 98
0
  0
LWPOLYLINE
  5
6F
330
17
100
AcDbEntity
  8
WALL
100
AcDbPolyline
 90
4
 70
1
 10
2347.5
 20
1817.5
 10
2392.5
 20
1817.5
 10
2392.5
 20
1815.0
 10
2347.5
 20
1815.0
  0
HATCH
  5
70
330
17
100
AcDbEntity
  8
WALL
100
AcDbHatch
 10
0.0
 20
0.0
 30
0.0
210
0.0
220
0.0
230
1.0
  2
SOLID
 70
1
 71
0
 91
1
 92
3
 72
0
 73
1
 93
4
 10
2347.5
 20
1817.5
 10
2392.5
 20
1817.5
 10
2392.5
 20
1815.0
 10
2347.5
 20
1815.0
 97
0
 75
1
 76
1
 98
0
  0
LWPOLYLINE
  5
71
330
17
100
AcDbEntity
  8
WALL
100
AcDbPolyline
 90
4
 70
1
 10
862.5
 20
1812.5
 10
975.0
 20
1812.5
 10
975.0
 20
1805.0
 10
862.5
 20
1805.0
  0
HATCH
  5
72
330
17
100
AcDbEntity
  8
WALL
100
AcDbHatch
 10
0.0
 20
0.0
 30
0.0
210
0.0
220
0.0
230
1.0
  2
SOLID
 70
1
 71
0
 91
1
 92
3
 72
0
 73
1
 93
4
 10
862.5
 20
1812.5
 10
975.0
 20
1812.5
 10
975.0
 20
1805.0
 10
862.5
 20
1805.0
 97
0
 75
1
 76
1
 98
0
  0
LWPOLYLINE
  5
73
330
17
100
AcDbEntity
  8
WALL
100
AcDbPolyline
 90
4
 70
1
 10
980.0
 20
1810.0
 10
1012.5
 20
1810.0
 10
1012.5
 20
1805.0
 10
980.0
 20
1805.0
  0
HATCH
  5
74
330
17
100
AcDbEntity
  8
WALL
100
AcDbHatch
 10
0.0
 20
0.0
 30
0.0
210
0.0
220
0.0
230
1.0
  2
SOLID
 70
1
 71
0
 91
1
 92
3
 72
0
 73
1
 93
4
 10
980.0
 20
1810.0
 10
1012.5
 20
1810.0
 10
1012.5
 20
1805.0
 10
980.0
 20
1805.0
 97
0
 75
1
 76
1
 98
0
  0
LWPOLYLINE
  5
75
330
17
100
AcDbEntity
  8
WALL
100
AcDbPolyline
 90
4
 70
1
 10
2402.5
 20
1810.0
 10
2462.5
 20
1810.0
 10
2462.5
 20
1800.0
 10
2402.5
 20
1800.0
  0
HATCH
  5
76
330
17
100
AcDbEntity
  8
WALL
100
AcDbHatch
 10
0.0
 20
0.0
 30
0.0
210
0.0
220
0.0
230
1.0
  2
SOLID
 70
1
 71
0
 91
1
 92
3
 72
0
 73
1
 93
4
 10
2402.5
 20
1810.0
 10
2462.5
 20
1810.0
 10
2462.5
 20
1800.0
 10
2402.5
 20
1800.0
 97
0
 75
1
 76
1
 98
0
  0
LWPOLYLINE
  5
77
330
17
100
AcDbEntity
  8
WALL
100
AcDbPolyline
 90
4
 70
1
 10
2117.5
 20
1805.0
 10
2292.5
 20
1805.0
 10
2292.5
 20
1795.0
 10
2117.5
 20
1795.0
  0
HATCH
  5
78
330
17
100
AcDbEntity
  8
WALL
100
AcDbHatch
 10
0.0
 20
0.0
 30
0.0
210
0.0
220
0.0
230
1.0
  2
SOLID
 70
1
 71
0
 91
1
 92
3
 72
0
 73
1
 93
4
 10
2117.5
 20
1805.0
 10
2292.5
 20
1805.0
 10
2292.5
 20
1795.0
 10
2117.5
 20
1795.0
 97
0
 75
1
 76
1
 98
0
  0
LWPOLYLINE
  5
79
330
17
100
AcDbEntity
  8
WALL
100
AcDbPolyline
 90
4
 70
1
 10
842.5
 20
1795.0
 10
872.5
 20
1795.0
 10
872.5
 20
1792.5
 10
842.5
 20
1792.5
  0
HATCH
  5
7A
330
17
100
AcDbEntity
  8
WALL
100
AcDbHatch
 10
0.0
 20
0.0
 30
0.0
210
0.0
220
0.0
230
1.0
  2
SOLID
 70
1
 71
0
 91
1
 92
3
 72
0
 73
1
 93
4
 10
842.5
 20
1795.0
 10
872.5
 20
1795.0
 10
872.5
 20
1792.5
 10
842.5
 20
1792.5
 97
0
 75
1
 76
1
 98
0
  0
LWPOLYLINE
  5
7B
330
17
100
AcDbEntity
  8
WALL
100
AcDbPolyline
 90
4
 70
1
 10
2352.5
 20
1785.0
 10
2392.5
 20
1785.0
 10
2392.5
 20
1780.0
 10
2352.5
 20
1780.0
  0
HATCH
  5
7C
330
17
100
AcDbEntity
  8
WALL
100
AcDbHatch
 10
0.0
 20
0.0
 30
0.0
210
0.0
220
0.0
230
1.0
  2
SOLID
 70
1
 71
0
 91
1
 92
3
 72
0
 73
1
 93
4
 10
2352.5
 20
1785.0
 10
2392.5
 20
1785.0
 10
2392.5
 20
1780.0
 10
2352.5
 20
1780.0
 97
0
 75
1
 76
1
 98
0
  0
LWPOLYLINE
  5
7D
330
17
100
AcDbEntity
  8
WALL
100
AcDbPolyline
 90
4
 70
1
 10
2407.5
 20
1680.0
 10
2462.5
 20
1680.0
 10
2462.5
 20
1675.0
 10
2407.5
 20
1675.0
  0
HATCH
  5
7E
330
17
100
AcDbEntity
  8
WALL
100
AcDbHatch
 10
0.0
 20
0.0
 30
0.0
210
0.0
220
0.0
230
1.0
  2
SOLID
 70
1
 71
0
 91
1
 92
3
 72
0
 73
1
 93
4
 10
2407.5
 20
1680.0
 10
2462.5
 20
1680.0
 10
2462.5
 20
1675.0
 10
2407.5
 20
1675.0
 97
0
 75
1
 76
1
 98
0
  0
LWPOLYLINE
  5
7F
330
17
100
AcDbEntity
  8
WALL
100
AcDbPolyline
 90
4
 70
1
 10
2417.5
 20
1670.0
 10
2462.5
 20
1670.0
 10
2462.5
 20
1665.0
 10
2417.5
 20
1665.0
  0
HATCH
  5
80
330
17
100
AcDbEntity
  8
WALL
100
AcDbHatch
 10
0.0
 20
0.0
 30
0.0
210
0.0
220
0.0
230
1.0
  2
SOLID
 70
1
 71
0
 91
1
 92
3
 72
0
 73
1
 93
4
 10
2417.5
 20
1670.0
 10
2462.5
 20
1670.0
 10
2462.5
 20
1665.0
 10
2417.5
 20
1665.0
 97
0
 75
1
 76
1
 98
0
  0
LWPOLYLINE
  5
81
330
17
100
AcDbEntity
  8
WALL
100
AcDbPolyline
 90
4
 70
1
 10
2432.5
 20
1647.5
 10
2462.5
 20
1647.5
 10
2462.5
 20
1642.5
 10
2432.5
 20
1642.5
  0
HATCH
  5
82
330
17
100
AcDbEntity
  8
WALL
100
AcDbHatch
 10
0.0
 20
0.0
 30
0.0
210
0.0
220
0.0
230
1.0
  2
SOLID
 70
1
 71
0
 91
1
 92
3
 72
0
 73
1
 93
4
 10
2432.5
 20
1647.5
 10
2462.5
 20
1647.5
 10
2462.5
 20
1642.5
 10
2432.5
 20
1642.5
 97
0
 75
1
 76
1
 98
0
  0
LWPOLYLINE
  5
83
330
17
100
AcDbEntity
  8
WALL
100
AcDbPolyline
 90
4
 70
1
 10
525.0
 20
1637.5
 10
590.0
 20
1637.5
 10
590.0
 20
1625.0
 10
525.0
 20
1625.0
  0
HATCH
  5
84
330
17
100
AcDbEntity
  8
WALL
100
AcDbHatch
 10
0.0
 20
0.0
 30
0.0
210
0.0
220
0.0
230
1.0
  2
SOLID
 70
1
 71
0
 91
1
 92
3
 72
0
 73
1
 93
4
 10
525.0
 20
1637.5
 10
590.0
 20
1637.5
 10
590.0
 20
1625.0
 10
525.0
 20
1625.0
 97
0
 75
1
 76
1
 98
0
  0
LWPOLYLINE
  5
85
330
17
100
AcDbEntity
  8
WALL
100
AcDbPolyline
 90
4
 70
1
 10
90.0
 20
1615.0
 10
125.0
 20
1615.0
 10
125.0
 20
1607.5
 10
90.0
 20
1607.5
  0
HATCH
  5
86
330
17
100
AcDbEntity
  8
WALL
100
AcDbHatch
 10
0.0
 20
0.0
 30
0.0
210
0.0
220
0.0
230
1.0
  2
SOLID
 70
1
 71
0
 91
1
 92
3
 72
0
 73
1
 93
4
 10
90.0
 20
1615.0
 10
125.0
 20
1615.0
 10
125.0
 20
1607.5
 10
90.0
 20
1607.5
 97
0
 75
1
 76
1
 98
0
  0
LWPOLYLINE
  5
87
330
17
100
AcDbEntity
  8
WALL
100
AcDbPolyline
 90
4
 70
1
 10
2352.5
 20
1602.5
 10
2390.0
 20
1602.5
 10
2390.0
 20
1600.0
 10
2352.5
 20
1600.0
  0
HATCH
  5
88
330
17
100
AcDbEntity
  8
WALL
100
AcDbHatch
 10
0.0
 20
0.0
 30
0.0
210
0.0
220
0.0
230
1.0
  2
SOLID
 70
1
 71
0
 91
1
 92
3
 72
0
 73
1
 93
4
 10
2352.5
 20
1602.5
 10
2390.0
 20
1602.5
 10
2390.0
 20
1600.0
 10
2352.5
 20
1600.0
 97
0
 75
1
 76
1
 98
0
  0
LWPOLYLINE
  5
89
330
17
100
AcDbEntity
  8
WALL
100
AcDbPolyline
 90
4
 70
1
 10
2470.0
 20
1602.5
 10
2500.0
 20
1602.5
 10
2500.0
 20
1600.0
 10
2470.0
 20
1600.0
  0
HATCH
  5
8A
330
17
100
AcDbEntity
  8
WALL
100
AcDbHatch
 10
0.0
 20
0.0
 30
0.0
210
0.0
220
0.0
230
1.0
  2
SOLID
 70
1
 71
0
 91
1
 92
3
 72
0
 73
1
 93
4
 10
2470.0
 20
1602.5
 10
2500.0
 20
1602.5
 10
2500.0
 20
1600.0
 10
2470.0
 20
1600.0
 97
0
 75
1
 76
1
 98
0
  0
LWPOLYLINE
  5
8B
330
17
100
AcDbEntity
  8
WALL
100
AcDbPolyline
 90
4
 70
1
 10
1982.5
 20
1582.5
 10
2012.5
 20
1582.5
 10
2012.5
 20
1580.0
 10
1982.5
 20
1580.0
  0
HATCH
  5
8C
330
17
100
AcDbEntity
  8
WALL
100
AcDbHatch
 10
0.0
 20
0.0
 30
0.0
210
0.0
220
0.0
230
1.0
  2
SOLID
 70
1
 71
0
 91
1
 92
3
 72
0
 73
1
 93
4
 10
1982.5
 20
1582.5
 10
2012.5
 20
1582.5
 10
2012.5
 20
1580.0
 10
1982.5
 20
1580.0
 97
0
 75
1
 76
1
 98
0
  0
LWPOLYLINE
  5
8D
330
17
100
AcDbEntity
  8
WALL
100
AcDbPolyline
 90
4
 70
1
 10
2205.0
 20
1580.0
 10
2275.0
 20
1580.0
 10
2275.0
 20
1565.0
 10
2205.0
 20
1565.0
  0
HATCH
  5
8E
330
17
100
AcDbEntity
  8
WALL
100
AcDbHatch
 10
0.0
 20
0.0
 30
0.0
210
0.0
220
0.0
230
1.0
  2
SOLID
 70
1
 71
0
 91
1
 92
3
 72
0
 73
1
 93
4
 10
2205.0
 20
1580.0
 10
2275.0
 20
1580.0
 10
2275.0
 20
1565.0
 10
2205.0
 20
1565.0
 97
0
 75
1
 76
1
 98
0
  0
LWPOLYLINE
  5
8F
330
17
100
AcDbEntity
  8
WALL
100
AcDbPolyline
 90
4
 70
1
 10
1490.0
 20
1567.5
 10
1520.0
 20
1567.5
 10
1520.0
 20
1565.0
 10
1490.0
 20
1565.0
  0
HATCH
  5
90
330
17
100
AcDbEntity
  8
WALL
100
AcDbHatch
 10
0.0
 20
0.0
 30
0.0
210
0.0
220
0.0
230
1.0
  2
SOLID
 70
1
 71
0
 91
1
 92
3
 72
0
 73
1
 93
4
 10
1490.0
 20
1567.5
 10
1520.0
 20
1567.5
 10
1520.0
 20
1565.0
 10
1490.0
 20
1565.0
 97
0
 75
1
 76
1
 98
0
  0
LWPOLYLINE
  5
91
330
17
100
AcDbEntity
  8
WALL
100
AcDbPolyline
 90
4
 70
1
 10
1775.0
 20
1567.5
 10
1822.5
 20
1567.5
 10
1822.5
 20
1557.5
 10
1775.0
 20
1557.5
  0
HATCH
  5
92
330
17
100
AcDbEntity
  8
WALL
100
AcDbHatch
 10
0.0
 20
0.0
 30
0.0
210
0.0
220
0.0
230
1.0
  2
SOLID
 70
1
 71
0
 91
1
 92
3
 72
0
 73
1
 93
4
 10
1775.0
 20
1567.5
 10
1822.5
 20
1567.5
 10
1822.5
 20
1557.5
 10
1775.0
 20
1557.5
 97
0
 75
1
 76
1
 98
0
  0
LWPOLYLINE
  5
93
330
17
100
AcDbEntity
  8
WALL
100
AcDbPolyline
 90
4
 70
1
 10
1872.5
 20
1570.0
 10
1912.5
 20
1570.0
 10
1912.5
 20
1555.0
 10
1872.5
 20
1555.0
  0
HATCH
  5
94
330
17
100
AcDbEntity
  8
WALL
100
AcDbHatch
 10
0.0
 20
0.0
 30
0.0
210
0.0
220
0.0
230
1.0
  2
SOLID
 70
1
 71
0
 91
1
 92
3
 72
0
 73
1
 93
4
 10
1872.5
 20
1570.0
 10
1912.5
 20
1570.0
 10
1912.5
 20
1555.0
 10
1872.5
 20
1555.0
 97
0
 75
1
 76
1
 98
0
  0
LWPOLYLINE
  5
95
330
17
100
AcDbEntity
  8
WALL
100
AcDbPolyline
 90
4
 70
1
 10
1197.5
 20
1552.5
 10
1232.5
 20
1552.5
 10
1232.5
 20
1550.0
 10
1197.5
 20
1550.0
  0
HATCH
  5
96
330
17
100
AcDbEntity
  8
WALL
100
AcDbHatch
 10
0.0
 20
0.0
 30
0.0
210
0.0
220
0.0
230
1.0
  2
SOLID
 70
1
 71
0
 91
1
 92
3
 72
0
 73
1
 93
4
 10
1197.5
 20
1552.5
 10
1232.5
 20
1552.5
 10
1232.5
 20
1550.0
 10
1197.5
 20
1550.0
 97
0
 75
1
 76
1
 98
0
  0
LWPOLYLINE
  5
97
330
17
100
AcDbEntity
  8
WALL
100
AcDbPolyline
 90
4
 70
1
 10
1777.5
 20
1550.0
 10
1822.5
 20
1550.0
 10
1822.5
 20
1540.0
 10
1777.5
 20
1540.0
  0
HATCH
  5
98
330
17
100
AcDbEntity
  8
WALL
100
AcDbHatch
 10
0.0
 20
0.0
 30
0.0
210
0.0
220
0.0
230
1.0
  2
SOLID
 70
1
 71
0
 91
1
 92
3
 72
0
 73
1
 93
4
 10
1777.5
 20
1550.0
 10
1822.5
 20
1550.0
 10
1822.5
 20
1540.0
 10
1777.5
 20
1540.0
 97
0
 75
1
 76
1
 98
0
  0
LWPOLYLINE
  5
99
330
17
100
AcDbEntity
  8
WALL
100
AcDbPolyline
 90
4
 70
1
 10
1195.0
 20
1545.0
 10
1235.0
 20
1545.0
 10
1235.0
 20
1542.5
 10
1195.0
 20
1542.5
  0
HATCH
  5
9A
330
17
100
AcDbEntity
  8
WALL
100
AcDbHatch
 10
0.0
 20
0.0
 30
0.0
210
0.0
220
0.0
230
1.0
  2
SOLID
 70
1
 71
0
 91
1
 92
3
 72
0
 73
1
 93
4
 10
1195.0
 20
1545.0
 10
1235.0
 20
1545.0
 10
1235.0
 20
1542.5
 10
1195.0
 20
1542.5
 97
0
 75
1
 76
1
 98
0
  0
LWPOLYLINE
  5
9B
330
17
100
AcDbEntity
  8
WALL
100
AcDbPolyline
 90
4
 70
1
 10
1320.0
 20
1545.0
 10
1395.0
 20
1545.0
 10
1395.0
 20
1542.5
 10
1320.0
 20
1542.5
  0
HATCH
  5
9C
330
17
100
AcDbEntity
  8
WALL
100
AcDbHatch
 10
0.0
 20
0.0
 30
0.0
210
0.0
220
0.0
230
1.0
  2
SOLID
 70
1
 71
0
 91
1
 92
3
 72
0
 73
1
 93
4
 10
1320.0
 20
1545.0
 10
1395.0
 20
1545.0
 10
1395.0
 20
1542.5
 10
1320.0
 20
1542.5
 97
0
 75
1
 76
1
 98
0
  0
LWPOLYLINE
  5
9D
330
17
100
AcDbEntity
  8
WALL
100
AcDbPolyline
 90
4
 70
1
 10
1235.0
 20
1530.0
 10
1277.5
 20
1530.0
 10
1277.5
 20
1525.0
 10
1235.0
 20
1525.0
  0
HATCH
  5
9E
330
17
100
AcDbEntity
  8
WALL
100
AcDbHatch
 10
0.0
 20
0.0
 30
0.0
210
0.0
220
0.0
230
1.0
  2
SOLID
 70
1
 71
0
 91
1
 92
3
 72
0
 73
1
 93
4
 10
1235.0
 20
1530.0
 10
1277.5
 20
1530.0
 10
1277.5
 20
1525.0
 10
1235.0
 20
1525.0
 97
0
 75
1
 76
1
 98
0
  0
LWPOLYLINE
  5
9F
330
17
100
AcDbEntity
  8
WALL
100
AcDbPolyline
 90
4
 70
1
 10
2252.5
 20
1530.0
 10
2302.5
 20
1530.0
 10
2302.5
 20
1520.0
 10
2252.5
 20
1520.0
  0
HATCH
  5
A0
330
17
100
AcDbEntity
  8
WALL
100
AcDbHatch
 10
0.0
 20
0.0
 30
0.0
210
0.0
220
0.0
230
1.0
  2
SOLID
 70
1
 71
0
 91
1
 92
3
 72
0
 73
1
 93
4
 10
2252.5
 20
1530.0
 10
2302.5
 20
1530.0
 10
2302.5
 20
1520.0
 10
2252.5
 20
1520.0
 97
0
 75
1
 76
1
 98
0
  0
LWPOLYLINE
  5
A1
330
17
100
AcDbEntity
  8
WALL
100
AcDbPolyline
 90
4
 70
1
 10
1372.5
 20
1425.0
 10
1547.5
 20
1425.0
 10
1547.5
 20
1415.0
 10
1372.5
 20
1415.0
  0
HATCH
  5
A2
330
17
100
AcDbEntity
  8
WALL
100
AcDbHatch
 10
0.0
 20
0.0
 30
0.0
210
0.0
220
0.0
230
1.0
  2
SOLID
 70
1
 71
0
 91
1
 92
3
 72
0
 73
1
 93
4
 10
1372.5
 20
1425.0
 10
1547.5
 20
1425.0
 10
1547.5
 20
1415.0
 10
1372.5
 20
1415.0
 97
0
 75
1
 76
1
 98
0
  0
LWPOLYLINE
  5
A3
330
17
100
AcDbEntity
  8
WALL
100
AcDbPolyline
 90
4
 70
1
 10
1777.5
 20
1425.0
 10
1900.0
 20
1425.0
 10
1900.0
 20
1415.0
 10
1777.5
 20
1415.0
  0
HATCH
  5
A4
330
17
100
AcDbEntity
  8
WALL
100
AcDbHatch
 10
0.0
 20
0.0
 30
0.0
210
0.0
220
0.0
230
1.0
  2
SOLID
 70
1
 71
0
 91
1
 92
3
 72
0
 73
1
 93
4
 10
1777.5
 20
1425.0
 10
1900.0
 20
1425.0
 10
1900.0
 20
1415.0
 10
1777.5
 20
1415.0
 97
0
 75
1
 76
1
 98
0
  0
LWPOLYLINE
  5
A5
330
17
100
AcDbEntity
  8
WALL
100
AcDbPolyline
 90
4
 70
1
 10
1905.0
 20
1422.5
 10
1950.0
 20
1422.5
 10
1950.0
 20
1420.0
 10
1905.0
 20
1420.0
  0
HATCH
  5
A6
330
17
100
AcDbEntity
  8
WALL
100
AcDbHatch
 10
0.0
 20
0.0
 30
0.0
210
0.0
220
0.0
230
1.0
  2
SOLID
 70
1
 71
0
 91
1
 92
3
 72
0
 73
1
 93
4
 10
1905.0
 20
1422.5
 10
1950.0
 20
1422.5
 10
1950.0
 20
1420.0
 10
1905.0
 20
1420.0
 97
0
 75
1
 76
1
 98
0
  0
LWPOLYLINE
  5
A7
330
17
100
AcDbEntity
  8
WALL
100
AcDbPolyline
 90
4
 70
1
 10
1152.5
 20
1405.0
 10
1182.5
 20
1405.0
 10
1182.5
 20
1402.5
 10
1152.5
 20
1402.5
  0
HATCH
  5
A8
330
17
100
AcDbEntity
  8
WALL
100
AcDbHatch
 10
0.0
 20
0.0
 30
0.0
210
0.0
220
0.0
230
1.0
  2
SOLID
 70
1
 71
0
 91
1
 92
3
 72
0
 73
1
 93
4
 10
1152.5
 20
1405.0
 10
1182.5
 20
1405.0
 10
1182.5
 20
1402.5
 10
1152.5
 20
1402.5
 97
0
 75
1
 76
1
 98
0
  0
LWPOLYLINE
  5
A9
330
17
100
AcDbEntity
  8
WALL
100
AcDbPolyline
 90
4
 70
1
 10
2367.5
 20
1405.0
 10
2412.5
 20
1405.0
 10
2412.5
 20
1390.0
 10
2367.5
 20
1390.0
  0
HATCH
  5
AA
330
17
100
AcDbEntity
  8
WALL
100
AcDbHatch
 10
0.0
 20
0.0
 30
0.0
210
0.0
220
0.0
230
1.0
  2
SOLID
 70
1
 71
0
 91
1
 92
3
 72
0
 73
1
 93
4
 10
2367.5
 20
1405.0
 10
2412.5
 20
1405.0
 10
2412.5
 20
1390.0
 10
2367.5
 20
1390.0
 97
0
 75
1
 76
1
 98
0
  0
LWPOLYLINE
  5
AB
330
17
100
AcDbEntity
  8
WALL
100
AcDbPolyline
 90
4
 70
1
 10
2510.0
 20
1405.0
 10
2582.5
 20
1405.0
 10
2582.5
 20
1390.0
 10
2510.0
 20
1390.0
  0
HATCH
  5
AC
330
17
100
AcDbEntity
  8
WALL
100
AcDbHatch
 10
0.0
 20
0.0
 30
0.0
210
0.0
220
0.0
230
1.0
  2
SOLID
 70
1
 71
0
 91
1
 92
3
 72
0
 73
1
 93
4
 10
2510.0
 20
1405.0
 10
2582.5
 20
1405.0
 10
2582.5
 20
1390.0
 10
2510.0
 20
1390.0
 97
0
 75
1
 76
1
 98
0
  0
LWPOLYLINE
  5
AD
330
17
100
AcDbEntity
  8
WALL
100
AcDbPolyline
 90
4
 70
1
 10
1632.5
 20
1400.0
 10
1687.5
 20
1400.0
 10
1687.5
 20
1385.0
 10
1632.5
 20
1385.0
  0
HATCH
  5
AE
330
17
100
AcDbEntity
  8
WALL
100
AcDbHatch
 10
0.0
 20
0.0
 30
0.0
210
0.0
220
0.0
230
1.0
  2
SOLID
 70
1
 71
0
 91
1
 92
3
 72
0
 73
1
 93
4
 10
1632.5
 20
1400.0
 10
1687.5
 20
1400.0
 10
1687.5
 20
1385.0
 10
1632.5
 20
1385.0
 97
0
 75
1
 76
1
 98
0
  0
LWPOLYLINE
  5
AF
330
17
100
AcDbEntity
  8
WALL
100
AcDbPolyline
 90
4
 70
1
 10
2037.5
 20
1375.0
 10
2085.0
 20
1375.0
 10
2085.0
 20
1370.0
 10
2037.5
 20
1370.0
  0
HATCH
  5
B0
330
17
100
AcDbEntity
  8
WALL
100
AcDbHatch
 10
0.0
 20
0.0
 30
0.0
210
0.0
220
0.0
230
1.0
  2
SOLID
 70
1
 71
0
 91
1
 92
3
 72
0
 73
1
 93
4
 10
2037.5
 20
1375.0
 10
2085.0
 20
1375.0
 10
2085.0
 20
1370.0
 10
2037.5
 20
1370.0
 97
0
 75
1
 76
1
 98
0
  0
LWPOLYLINE
  5
B1
330
17
100
AcDbEntity
  8
WALL
100
AcDbPolyline
 90
4
 70
1
 10
2552.5
 20
1312.5
 10
2582.5
 20
1312.5
 10
2582.5
 20
1295.0
 10
2552.5
 20
1295.0
  0
HATCH
  5
B2
330
17
100
AcDbEntity
  8
WALL
100
AcDbHatch
 10
0.0
 20
0.0
 30
0.0
210
0.0
220
0.0
230
1.0
  2
SOLID
 70
1
 71
0
 91
1
 92
3
 72
0
 73
1
 93
4
 10
2552.5
 20
1312.5
 10
2582.5
 20
1312.5
 10
2582.5
 20
1295.0
 10
2552.5
 20
1295.0
 97
0
 75
1
 76
1
 98
0
  0
LWPOLYLINE
  5
B3
330
17
100
AcDbEntity
  8
WALL
100
AcDbPolyline
 90
4
 70
1
 10
727.5
 20
1270.0
 10
762.5
 20
1270.0
 10
762.5
 20
1265.0
 10
727.5
 20
1265.0
  0
HATCH
  5
B4
330
17
100
AcDbEntity
  8
WALL
100
AcDbHatch
 10
0.0
 20
0.0
 30
0.0
210
0.0
220
0.0
230
1.0
  2
SOLID
 70
1
 71
0
 91
1
 92
3
 72
0
 73
1
 93
4
 10
727.5
 20
1270.0
 10
762.5
 20
1270.0
 10
762.5
 20
1265.0
 10
727.5
 20
1265.0
 97
0
 75
1
 76
1
 98
0
  0
LWPOLYLINE
  5
B5
330
17
100
AcDbEntity
  8
WALL
100
AcDbPolyline
 90
4
 70
1
 10
2552.5
 20
1255.0
 10
2582.5
 20
1255.0
 10
2582.5
 20
1235.0
 10
2552.5
 20
1235.0
  0
HATCH
  5
B6
330
17
100
AcDbEntity
  8
WALL
100
AcDbHatch
 10
0.0
 20
0.0
 30
0.0
210
0.0
220
0.0
230
1.0
  2
SOLID
 70
1
 71
0
 91
1
 92
3
 72
0
 73
1
 93
4
 10
2552.5
 20
1255.0
 10
2582.5
 20
1255.0
 10
2582.5
 20
1235.0
 10
2552.5
 20
1235.0
 97
0
 75
1
 76
1
 98
0
  0
LWPOLYLINE
  5
B7
330
17
100
AcDbEntity
  8
WALL
100
AcDbPolyline
 90
4
 70
1
 10
1062.5
 20
1200.0
 10
1097.5
 20
1200.0
 10
1097.5
 20
1195.0
 10
1062.5
 20
1195.0
  0
HATCH
  5
B8
330
17
100
AcDbEntity
  8
WALL
100
AcDbHatch
 10
0.0
 20
0.0
 30
0.0
210
0.0
220
0.0
230
1.0
  2
SOLID
 70
1
 71
0
 91
1
 92
3
 72
0
 73
1
 93
4
 10
1062.5
 20
1200.0
 10
1097.5
 20
1200.0
 10
1097.5
 20
1195.0
 10
1062.5
 20
1195.0
 97
0
 75
1
 76
1
 98
0
  0
LWPOLYLINE
  5
B9
330
17
100
AcDbEntity
  8
WALL
100
AcDbPolyline
 90
4
 70
1
 10
2290.0
 20
1192.5
 10
2322.5
 20
1192.5
 10
2322.5
 20
1190.0
 10
2290.0
 20
1190.0
  0
HATCH
  5
BA
330
17
100
AcDbEntity
  8
WALL
100
AcDbHatch
 10
0.0
 20
0.0
 30
0.0
210
0.0
220
0.0
230
1.0
  2
SOLID
 70
1
 71
0
 91
1
 92
3
 72
0
 73
1
 93
4
 10
2290.0
 20
1192.5
 10
2322.5
 20
1192.5
 10
2322.5
 20
1190.0
 10
2290.0
 20
1190.0
 97
0
 75
1
 76
1
 98
0
  0
LWPOLYLINE
  5
BB
330
17
100
AcDbEntity
  8
WALL
100
AcDbPolyline
 90
4
 70
1
 10
1210.0
 20
1185.0
 10
1275.0
 20
1185.0
 10
1275.0
 20
1175.0
 10
1210.0
 20
1175.0
  0
HATCH
  5
BC
330
17
100
AcDbEntity
  8
WALL
100
AcDbHatch
 10
0.0
 20
0.0
 30
0.0
210
0.0
220
0.0
230
1.0
  2
SOLID
 70
1
 71
0
 91
1
 92
3
 72
0
 73
1
 93
4
 10
1210.0
 20
1185.0
 10
1275.0
 20
1185.0
 10
1275.0
 20
1175.0
 10
1210.0
 20
1175.0
 97
0
 75
1
 76
1
 98
0
  0
LWPOLYLINE
  5
BD
330
17
100
AcDbEntity
  8
WALL
100
AcDbPolyline
 90
4
 70
1
 10
1595.0
 20
1182.5
 10
1655.0
 20
1182.5
 10
1655.0
 20
1175.0
 10
1595.0
 20
1175.0
  0
HATCH
  5
BE
330
17
100
AcDbEntity
  8
WALL
100
AcDbHatch
 10
0.0
 20
0.0
 30
0.0
210
0.0
220
0.0
230
1.0
  2
SOLID
 70
1
 71
0
 91
1
 92
3
 72
0
 73
1
 93
4
 10
1595.0
 20
1182.5
 10
1655.0
 20
1182.5
 10
1655.0
 20
1175.0
 10
1595.0
 20
1175.0
 97
0
 75
1
 76
1
 98
0
  0
LWPOLYLINE
  5
BF
330
17
100
AcDbEntity
  8
WALL
100
AcDbPolyline
 90
4
 70
1
 10
2055.0
 20
1180.0
 10
2552.5
 20
1180.0
 10
2552.5
 20
1165.0
 10
2055.0
 20
1165.0
  0
HATCH
  5
C0
330
17
100
AcDbEntity
  8
WALL
100
AcDbHatch
 10
0.0
 20
0.0
 30
0.0
210
0.0
220
0.0
230
1.0
  2
SOLID
 70
1
 71
0
 91
1
 92
3
 72
0
 73
1
 93
4
 10
2055.0
 20
1180.0
 10
2552.5
 20
1180.0
 10
2552.5
 20
1165.0
 10
2055.0
 20
1165.0
 97
0
 75
1
 76
1
 98
0
  0
LWPOLYLINE
  5
C1
330
17
100
AcDbEntity
  8
WALL
100
AcDbPolyline
 90
4
 70
1
 10
2440.0
 20
1165.0
 10
2525.0
 20
1165.0
 10
2525.0
 20
1140.0
 10
2440.0
 20
1140.0
  0
HATCH
  5
C2
330
17
100
AcDbEntity
  8
WALL
100
AcDbHatch
 10
0.0
 20
0.0
 30
0.0
210
0.0
220
0.0
230
1.0
  2
SOLID
 70
1
 71
0
 91
1
 92
3
 72
0
 73
1
 93
4
 10
2440.0
 20
1165.0
 10
2525.0
 20
1165.0
 10
2525.0
 20
1140.0
 10
2440.0
 20
1140.0
 97
0
 75
1
 76
1
 98
0
  0
LWPOLYLINE
  5
C3
330
17
100
AcDbEntity
  8
WALL
100
AcDbPolyline
 90
4
 70
1
 10
52.5
 20
1060.0
 10
82.5
 20
1060.0
 10
82.5
 20
1050.0
 10
52.5
 20
1050.0
  0
HATCH
  5
C4
330
17
100
AcDbEntity
  8
WALL
100
AcDbHatch
 10
0.0
 20
0.0
 30
0.0
210
0.0
220
0.0
230
1.0
  2
SOLID
 70
1
 71
0
 91
1
 92
3
 72
0
 73
1
 93
4
 10
52.5
 20
1060.0
 10
82.5
 20
1060.0
 10
82.5
 20
1050.0
 10
52.5
 20
1050.0
 97
0
 75
1
 76
1
 98
0
  0
LWPOLYLINE
  5
C5
330
17
100
AcDbEntity
  8
WALL
100
AcDbPolyline
 90
4
 70
1
 10
502.5
 20
1027.5
 10
562.5
 20
1027.5
 10
562.5
 20
1015.0
 10
502.5
 20
1015.0
  0
HATCH
  5
C6
330
17
100
AcDbEntity
  8
WALL
100
AcDbHatch
 10
0.0
 20
0.0
 30
0.0
210
0.0
220
0.0
230
1.0
  2
SOLID
 70
1
 71
0
 91
1
 92
3
 72
0
 73
1
 93
4
 10
502.5
 20
1027.5
 10
562.5
 20
1027.5
 10
562.5
 20
1015.0
 10
502.5
 20
1015.0
 97
0
 75
1
 76
1
 98
0
  0
LWPOLYLINE
  5
C7
330
17
100
AcDbEntity
  8
WALL
100
AcDbPolyline
 90
4
 70
1
 10
52.5
 20
1020.0
 10
120.0
 20
1020.0
 10
120.0
 20
1005.0
 10
52.5
 20
1005.0
  0
HATCH
  5
C8
330
17
100
AcDbEntity
  8
WALL
100
AcDbHatch
 10
0.0
 20
0.0
 30
0.0
210
0.0
220
0.0
230
1.0
  2
SOLID
 70
1
 71
0
 91
1
 92
3
 72
0
 73
1
 93
4
 10
52.5
 20
1020.0
 10
120.0
 20
1020.0
 10
120.0
 20
1005.0
 10
52.5
 20
1005.0
 97
0
 75
1
 76
1
 98
0
  0
LWPOLYLINE
  5
C9
330
17
100
AcDbEntity
  8
WALL
100
AcDbPolyline
 90
4
 70
1
 10
2382.5
 20
995.0
 10
2447.5
 20
995.0
 10
2447.5
 20
985.0
 10
2382.5
 20
985.0
  0
HATCH
  5
CA
330
17
100
AcDbEntity
  8
WALL
100
AcDbHatch
 10
0.0
 20
0.0
 30
0.0
210
0.0
220
0.0
230
1.0
  2
SOLID
 70
1
 71
0
 91
1
 92
3
 72
0
 73
1
 93
4
 10
2382.5
 20
995.0
 10
2447.5
 20
995.0
 10
2447.5
 20
985.0
 10
2382.5
 20
985.0
 97
0
 75
1
 76
1
 98
0
  0
LWPOLYLINE
  5
CB
330
17
100
AcDbEntity
  8
WALL
100
AcDbPolyline
 90
4
 70
1
 10
52.5
 20
970.0
 10
82.5
 20
970.0
 10
82.5
 20
967.5
 10
52.5
 20
967.5
  0
HATCH
  5
CC
330
17
100
AcDbEntity
  8
WALL
100
AcDbHatch
 10
0.0
 20
0.0
 30
0.0
210
0.0
220
0.0
230
1.0
  2
SOLID
 70
1
 71
0
 91
1
 92
3
 72
0
 73
1
 93
4
 10
52.5
 20
970.0
 10
82.5
 20
970.0
 10
82.5
 20
967.5
 10
52.5
 20
967.5
 97
0
 75
1
 76
1
 98
0
  0
LWPOLYLINE
  5
CD
330
17
100
AcDbEntity
  8
WALL
100
AcDbPolyline
 90
4
 70
1
 10
602.5
 20
965.0
 10
717.5
 20
965.0
 10
717.5
 20
950.0
 10
602.5
 20
950.0
  0
HATCH
  5
CE
330
17
100
AcDbEntity
  8
WALL
100
AcDbHatch
 10
0.0
 20
0.0
 30
0.0
210
0.0
220
0.0
230
1.0
  2
SOLID
 70
1
 71
0
 91
1
 92
3
 72
0
 73
1
 93
4
 10
602.5
 20
965.0
 10
717.5
 20
965.0
 10
717.5
 20
950.0
 10
602.5
 20
950.0
 97
0
 75
1
 76
1
 98
0
  0
LWPOLYLINE
  5
CF
330
17
100
AcDbEntity
  8
WALL
100
AcDbPolyline
 90
4
 70
1
 10
1720.0
 20
952.5
 10
1750.0
 20
952.5
 10
1750.0
 20
950.0
 10
1720.0
 20
950.0
  0
HATCH
  5
D0
330
17
100
AcDbEntity
  8
WALL
100
AcDbHatch
 10
0.0
 20
0.0
 30
0.0
210
0.0
220
0.0
230
1.0
  2
SOLID
 70
1
 71
0
 91
1
 92
3
 72
0
 73
1
 93
4
 10
1720.0
 20
952.5
 10
1750.0
 20
952.5
 10
1750.0
 20
950.0
 10
1720.0
 20
950.0
 97
0
 75
1
 76
1
 98
0
  0
LWPOLYLINE
  5
D1
330
17
100
AcDbEntity
  8
WALL
100
AcDbPolyline
 90
4
 70
1
 10
955.0
 20
945.0
 10
995.0
 20
945.0
 10
995.0
 20
935.0
 10
955.0
 20
935.0
  0
HATCH
  5
D2
330
17
100
AcDbEntity
  8
WALL
100
AcDbHatch
 10
0.0
 20
0.0
 30
0.0
210
0.0
220
0.0
230
1.0
  2
SOLID
 70
1
 71
0
 91
1
 92
3
 72
0
 73
1
 93
4
 10
955.0
 20
945.0
 10
995.0
 20
945.0
 10
995.0
 20
935.0
 10
955.0
 20
935.0
 97
0
 75
1
 76
1
 98
0
  0
LWPOLYLINE
  5
D3
330
17
100
AcDbEntity
  8
WALL
100
AcDbPolyline
 90
4
 70
1
 10
1740.0
 20
942.5
 10
1792.5
 20
942.5
 10
1792.5
 20
940.0
 10
1740.0
 20
940.0
  0
HATCH
  5
D4
330
17
100
AcDbEntity
  8
WALL
100
AcDbHatch
 10
0.0
 20
0.0
 30
0.0
210
0.0
220
0.0
230
1.0
  2
SOLID
 70
1
 71
0
 91
1
 92
3
 72
0
 73
1
 93
4
 10
1740.0
 20
942.5
 10
1792.5
 20
942.5
 10
1792.5
 20
940.0
 10
1740.0
 20
940.0
 97
0
 75
1
 76
1
 98
0
  0
LWPOLYLINE
  5
D5
330
17
100
AcDbEntity
  8
WALL
100
AcDbPolyline
 90
4
 70
1
 10
745.0
 20
930.0
 10
1030.0
 20
930.0
 10
1030.0
 20
915.0
 10
745.0
 20
915.0
  0
HATCH
  5
D6
330
17
100
AcDbEntity
  8
WALL
100
AcDbHatch
 10
0.0
 20
0.0
 30
0.0
210
0.0
220
0.0
230
1.0
  2
SOLID
 70
1
 71
0
 91
1
 92
3
 72
0
 73
1
 93
4
 10
745.0
 20
930.0
 10
1030.0
 20
930.0
 10
1030.0
 20
915.0
 10
745.0
 20
915.0
 97
0
 75
1
 76
1
 98
0
  0
LWPOLYLINE
  5
D7
330
17
100
AcDbEntity
  8
WALL
100
AcDbPolyline
 90
4
 70
1
 10
1495.0
 20
930.0
 10
1827.5
 20
930.0
 10
1827.5
 20
915.0
 10
1495.0
 20
915.0
  0
HATCH
  5
D8
330
17
100
AcDbEntity
  8
WALL
100
AcDbHatch
 10
0.0
 20
0.0
 30
0.0
210
0.0
220
0.0
230
1.0
  2
SOLID
 70
1
 71
0
 91
1
 92
3
 72
0
 73
1
 93
4
 10
1495.0
 20
930.0
 10
1827.5
 20
930.0
 10
1827.5
 20
915.0
 10
1495.0
 20
915.0
 97
0
 75
1
 76
1
 98
0
  0
LWPOLYLINE
  5
D9
330
17
100
AcDbEntity
  8
WALL
100
AcDbPolyline
 90
4
 70
1
 10
52.5
 20
925.0
 10
87.5
 20
925.0
 10
87.5
 20
920.0
 10
52.5
 20
920.0
  0
HATCH
  5
DA
330
17
100
AcDbEntity
  8
WALL
100
AcDbHatch
 10
0.0
 20
0.0
 30
0.0
210
0.0
220
0.0
230
1.0
  2
SOLID
 70
1
 71
0
 91
1
 92
3
 72
0
 73
1
 93
4
 10
52.5
 20
925.0
 10
87.5
 20
925.0
 10
87.5
 20
920.0
 10
52.5
 20
920.0
 97
0
 75
1
 76
1
 98
0
  0
LWPOLYLINE
  5
DB
330
17
100
AcDbEntity
  8
WALL
100
AcDbPolyline
 90
4
 70
1
 10
595.0
 20
917.5
 10
625.0
 20
917.5
 10
625.0
 20
915.0
 10
595.0
 20
915.0
  0
HATCH
  5
DC
330
17
100
AcDbEntity
  8
WALL
100
AcDbHatch
 10
0.0
 20
0.0
 30
0.0
210
0.0
220
0.0
230
1.0
  2
SOLID
 70
1
 71
0
 91
1
 92
3
 72
0
 73
1
 93
4
 10
595.0
 20
917.5
 10
625.0
 20
917.5
 10
625.0
 20
915.0
 10
595.0
 20
915.0
 97
0
 75
1
 76
1
 98
0
  0
LWPOLYLINE
  5
DD
330
17
100
AcDbEntity
  8
WALL
100
AcDbPolyline
 90
4
 70
1
 10
652.5
 20
920.0
 10
692.5
 20
920.0
 10
692.5
 20
910.0
 10
652.5
 20
910.0
  0
HATCH
  5
DE
330
17
100
AcDbEntity
  8
WALL
100
AcDbHatch
 10
0.0
 20
0.0
 30
0.0
210
0.0
220
0.0
230
1.0
  2
SOLID
 70
1
 71
0
 91
1
 92
3
 72
0
 73
1
 93
4
 10
652.5
 20
920.0
 10
692.5
 20
920.0
 10
692.5
 20
910.0
 10
652.5
 20
910.0
 97
0
 75
1
 76
1
 98
0
  0
LWPOLYLINE
  5
DF
330
17
100
AcDbEntity
  8
WALL
100
AcDbPolyline
 90
4
 70
1
 10
1002.5
 20
907.5
 10
1032.5
 20
907.5
 10
1032.5
 20
902.5
 10
1002.5
 20
902.5
  0
HATCH
  5
E0
330
17
100
AcDbEntity
  8
WALL
100
AcDbHatch
 10
0.0
 20
0.0
 30
0.0
210
0.0
220
0.0
230
1.0
  2
SOLID
 70
1
 71
0
 91
1
 92
3
 72
0
 73
1
 93
4
 10
1002.5
 20
907.5
 10
1032.5
 20
907.5
 10
1032.5
 20
902.5
 10
1002.5
 20
902.5
 97
0
 75
1
 76
1
 98
0
  0
LWPOLYLINE
  5
E1
330
17
100
AcDbEntity
  8
WALL
100
AcDbPolyline
 90
4
 70
1
 10
2477.5
 20
905.0
 10
2510.0
 20
905.0
 10
2510.0
 20
900.0
 10
2477.5
 20
900.0
  0
HATCH
  5
E2
330
17
100
AcDbEntity
  8
WALL
100
AcDbHatch
 10
0.0
 20
0.0
 30
0.0
210
0.0
220
0.0
230
1.0
  2
SOLID
 70
1
 71
0
 91
1
 92
3
 72
0
 73
1
 93
4
 10
2477.5
 20
905.0
 10
2510.0
 20
905.0
 10
2510.0
 20
900.0
 10
2477.5
 20
900.0
 97
0
 75
1
 76
1
 98
0
  0
LWPOLYLINE
  5
E3
330
17
100
AcDbEntity
  8
WALL
100
AcDbPolyline
 90
4
 70
1
 10
1247.5
 20
895.0
 10
1277.5
 20
895.0
 10
1277.5
 20
880.0
 10
1247.5
 20
880.0
  0
HATCH
  5
E4
330
17
100
AcDbEntity
  8
WALL
100
AcDbHatch
 10
0.0
 20
0.0
 30
0.0
210
0.0
220
0.0
230
1.0
  2
SOLID
 70
1
 71
0
 91
1
 92
3
 72
0
 73
1
 93
4
 10
1247.5
 20
895.0
 10
1277.5
 20
895.0
 10
1277.5
 20
880.0
 10
1247.5
 20
880.0
 97
0
 75
1
 76
1
 98
0
  0
LWPOLYLINE
  5
E5
330
17
100
AcDbEntity
  8
WALL
100
AcDbPolyline
 90
4
 70
1
 10
2205.0
 20
845.0
 10
2420.0
 20
845.0
 10
2420.0
 20
830.0
 10
2205.0
 20
830.0
  0
HATCH
  5
E6
330
17
100
AcDbEntity
  8
WALL
100
AcDbHatch
 10
0.0
 20
0.0
 30
0.0
210
0.0
220
0.0
230
1.0
  2
SOLID
 70
1
 71
0
 91
1
 92
3
 72
0
 73
1
 93
4
 10
2205.0
 20
845.0
 10
2420.0
 20
845.0
 10
2420.0
 20
830.0
 10
2205.0
 20
830.0
 97
0
 75
1
 76
1
 98
0
  0
LWPOLYLINE
  5
E7
330
17
100
AcDbEntity
  8
WALL
100
AcDbPolyline
 90
4
 70
1
 10
327.5
 20
795.0
 10
382.5
 20
795.0
 10
382.5
 20
790.0
 10
327.5
 20
790.0
  0
HATCH
  5
E8
330
17
100
AcDbEntity
  8
WALL
100
AcDbHatch
 10
0.0
 20
0.0
 30
0.0
210
0.0
220
0.0
230
1.0
  2
SOLID
 70
1
 71
0
 91
1
 92
3
 72
0
 73
1
 93
4
 10
327.5
 20
795.0
 10
382.5
 20
795.0
 10
382.5
 20
790.0
 10
327.5
 20
790.0
 97
0
 75
1
 76
1
 98
0
  0
LWPOLYLINE
  5
E9
330
17
100
AcDbEntity
  8
WALL
100
AcDbPolyline
 90
4
 70
1
 10
760.0
 20
790.0
 10
795.0
 20
790.0
 10
795.0
 20
782.5
 10
760.0
 20
782.5
  0
HATCH
  5
EA
330
17
100
AcDbEntity
  8
WALL
100
AcDbHatch
 10
0.0
 20
0.0
 30
0.0
210
0.0
220
0.0
230
1.0
  2
SOLID
 70
1
 71
0
 91
1
 92
3
 72
0
 73
1
 93
4
 10
760.0
 20
790.0
 10
795.0
 20
790.0
 10
795.0
 20
782.5
 10
760.0
 20
782.5
 97
0
 75
1
 76
1
 98
0
  0
LWPOLYLINE
  5
EB
330
17
100
AcDbEntity
  8
WALL
100
AcDbPolyline
 90
4
 70
1
 10
1710.0
 20
790.0
 10
1827.5
 20
790.0
 10
1827.5
 20
780.0
 10
1710.0
 20
780.0
  0
HATCH
  5
EC
330
17
100
AcDbEntity
  8
WALL
100
AcDbHatch
 10
0.0
 20
0.0
 30
0.0
210
0.0
220
0.0
230
1.0
  2
SOLID
 70
1
 71
0
 91
1
 92
3
 72
0
 73
1
 93
4
 10
1710.0
 20
790.0
 10
1827.5
 20
790.0
 10
1827.5
 20
780.0
 10
1710.0
 20
780.0
 97
0
 75
1
 76
1
 98
0
  0
LWPOLYLINE
  5
ED
330
17
100
AcDbEntity
  8
WALL
100
AcDbPolyline
 90
4
 70
1
 10
1657.5
 20
770.0
 10
1722.5
 20
770.0
 10
1722.5
 20
755.0
 10
1657.5
 20
755.0
  0
HATCH
  5
EE
330
17
100
AcDbEntity
  8
WALL
100
AcDbHatch
 10
0.0
 20
0.0
 30
0.0
210
0.0
220
0.0
230
1.0
  2
SOLID
 70
1
 71
0
 91
1
 92
3
 72
0
 73
1
 93
4
 10
1657.5
 20
770.0
 10
1722.5
 20
770.0
 10
1722.5
 20
755.0
 10
1657.5
 20
755.0
 97
0
 75
1
 76
1
 98
0
  0
LWPOLYLINE
  5
EF
330
17
100
AcDbEntity
  8
WALL
100
AcDbPolyline
 90
4
 70
1
 10
722.5
 20
735.0
 10
752.5
 20
735.0
 10
752.5
 20
730.0
 10
722.5
 20
730.0
  0
HATCH
  5
F0
330
17
100
AcDbEntity
  8
WALL
100
AcDbHatch
 10
0.0
 20
0.0
 30
0.0
210
0.0
220
0.0
230
1.0
  2
SOLID
 70
1
 71
0
 91
1
 92
3
 72
0
 73
1
 93
4
 10
722.5
 20
735.0
 10
752.5
 20
735.0
 10
752.5
 20
730.0
 10
722.5
 20
730.0
 97
0
 75
1
 76
1
 98
0
  0
LWPOLYLINE
  5
F1
330
17
100
AcDbEntity
  8
WALL
100
AcDbPolyline
 90
4
 70
1
 10
722.5
 20
725.0
 10
752.5
 20
725.0
 10
752.5
 20
720.0
 10
722.5
 20
720.0
  0
HATCH
  5
F2
330
17
100
AcDbEntity
  8
WALL
100
AcDbHatch
 10
0.0
 20
0.0
 30
0.0
210
0.0
220
0.0
230
1.0
  2
SOLID
 70
1
 71
0
 91
1
 92
3
 72
0
 73
1
 93
4
 10
722.5
 20
725.0
 10
752.5
 20
725.0
 10
752.5
 20
720.0
 10
722.5
 20
720.0
 97
0
 75
1
 76
1
 98
0
  0
LWPOLYLINE
  5
F3
330
17
100
AcDbEntity
  8
WALL
100
AcDbPolyline
 90
4
 70
1
 10
1667.5
 20
650.0
 10
1722.5
 20
650.0
 10
1722.5
 20
640.0
 10
1667.5
 20
640.0
  0
HATCH
  5
F4
330
17
100
AcDbEntity
  8
WALL
100
AcDbHatch
 10
0.0
 20
0.0
 30
0.0
210
0.0
220
0.0
230
1.0
  2
SOLID
 70
1
 71
0
 91
1
 92
3
 72
0
 73
1
 93
4
 10
1667.5
 20
650.0
 10
1722.5
 20
650.0
 10
1722.5
 20
640.0
 10
1667.5
 20
640.0
 97
0
 75
1
 76
1
 98
0
  0
LWPOLYLINE
  5
F5
330
17
100
AcDbEntity
  8
WALL
100
AcDbPolyline
 90
4
 70
1
 10
1272.5
 20
645.0
 10
1662.5
 20
645.0
 10
1662.5
 20
625.0
 10
1272.5
 20
625.0
  0
HATCH
  5
F6
330
17
100
AcDbEntity
  8
WALL
100
AcDbHatch
 10
0.0
 20
0.0
 30
0.0
210
0.0
220
0.0
230
1.0
  2
SOLID
 70
1
 71
0
 91
1
 92
3
 72
0
 73
1
 93
4
 10
1272.5
 20
645.0
 10
1662.5
 20
645.0
 10
1662.5
 20
625.0
 10
1272.5
 20
625.0
 97
0
 75
1
 76
1
 98
0
  0
LWPOLYLINE
  5
F7
330
17
100
AcDbEntity
  8
WALL
100
AcDbPolyline
 90
4
 70
1
 10
1022.5
 20
637.5
 10
1252.5
 20
637.5
 10
1252.5
 20
625.0
 10
1022.5
 20
625.0
  0
HATCH
  5
F8
330
17
100
AcDbEntity
  8
WALL
100
AcDbHatch
 10
0.0
 20
0.0
 30
0.0
210
0.0
220
0.0
230
1.0
  2
SOLID
 70
1
 71
0
 91
1
 92
3
 72
0
 73
1
 93
4
 10
1022.5
 20
637.5
 10
1252.5
 20
637.5
 10
1252.5
 20
625.0
 10
1022.5
 20
625.0
 97
0
 75
1
 76
1
 98
0
  0
LWPOLYLINE
  5
F9
330
17
100
AcDbEntity
  8
WALL
100
AcDbPolyline
 90
4
 70
1
 10
855.0
 20
635.0
 10
932.5
 20
635.0
 10
932.5
 20
625.0
 10
855.0
 20
625.0
  0
HATCH
  5
FA
330
17
100
AcDbEntity
  8
WALL
100
AcDbHatch
 10
0.0
 20
0.0
 30
0.0
210
0.0
220
0.0
230
1.0
  2
SOLID
 70
1
 71
0
 91
1
 92
3
 72
0
 73
1
 93
4
 10
855.0
 20
635.0
 10
932.5
 20
635.0
 10
932.5
 20
625.0
 10
855.0
 20
625.0
 97
0
 75
1
 76
1
 98
0
  0
LWPOLYLINE
  5
FB
330
17
100
AcDbEntity
  8
WALL
100
AcDbPolyline
 90
4
 70
1
 10
802.5
 20
630.0
 10
845.0
 20
630.0
 10
845.0
 20
620.0
 10
802.5
 20
620.0
  0
HATCH
  5
FC
330
17
100
AcDbEntity
  8
WALL
100
AcDbHatch
 10
0.0
 20
0.0
 30
0.0
210
0.0
220
0.0
230
1.0
  2
SOLID
 70
1
 71
0
 91
1
 92
3
 72
0
 73
1
 93
4
 10
802.5
 20
630.0
 10
845.0
 20
630.0
 10
845.0
 20
620.0
 10
802.5
 20
620.0
 97
0
 75
1
 76
1
 98
0
  0
LWPOLYLINE
  5
FD
330
17
100
AcDbEntity
  8
WALL
100
AcDbPolyline
 90
4
 70
1
 10
2552.5
 20
492.5
 10
2582.5
 20
492.5
 10
2582.5
 20
487.5
 10
2552.5
 20
487.5
  0
HATCH
  5
FE
330
17
100
AcDbEntity
  8
WALL
100
AcDbHatch
 10
0.0
 20
0.0
 30
0.0
210
0.0
220
0.0
230
1.0
  2
SOLID
 70
1
 71
0
 91
1
 92
3
 72
0
 73
1
 93
4
 10
2552.5
 20
492.5
 10
2582.5
 20
492.5
 10
2582.5
 20
487.5
 10
2552.5
 20
487.5
 97
0
 75
1
 76
1
 98
0
  0
LWPOLYLINE
  5
FF
330
17
100
AcDbEntity
  8
WALL
100
AcDbPolyline
 90
4
 70
1
 10
2425.0
 20
475.0
 10
2552.5
 20
475.0
 10
2552.5
 20
465.0
 10
2425.0
 20
465.0
  0
HATCH
  5
100
330
17
100
AcDbEntity
  8
WALL
100
AcDbHatch
 10
0.0
 20
0.0
 30
0.0
210
0.0
220
0.0
230
1.0
  2
SOLID
 70
1
 71
0
 91
1
 92
3
 72
0
 73
1
 93
4
 10
2425.0
 20
475.0
 10
2552.5
 20
475.0
 10
2552.5
 20
465.0
 10
2425.0
 20
465.0
 97
0
 75
1
 76
1
 98
0
  0
LWPOLYLINE
  5
101
330
17
100
AcDbEntity
  8
WALL
100
AcDbPolyline
 90
4
 70
1
 10
2207.5
 20
470.0
 10
2237.5
 20
470.0
 10
2237.5
 20
467.5
 10
2207.5
 20
467.5
  0
HATCH
  5
102
330
17
100
AcDbEntity
  8
WALL
100
AcDbHatch
 10
0.0
 20
0.0
 30
0.0
210
0.0
220
0.0
230
1.0
  2
SOLID
 70
1
 71
0
 91
1
 92
3
 72
0
 73
1
 93
4
 10
2207.5
 20
470.0
 10
2237.5
 20
470.0
 10
2237.5
 20
467.5
 10
2207.5
 20
467.5
 97
0
 75
1
 76
1
 98
0
  0
LWPOLYLINE
  5
103
330
17
100
AcDbEntity
  8
WALL
100
AcDbPolyline
 90
4
 70
1
 10
2477.5
 20
445.0
 10
2510.0
 20
445.0
 10
2510.0
 20
440.0
 10
2477.5
 20
440.0
  0
HATCH
  5
104
330
17
100
AcDbEntity
  8
WALL
100
AcDbHatch
 10
0.0
 20
0.0
 30
0.0
210
0.0
220
0.0
230
1.0
  2
SOLID
 70
1
 71
0
 91
1
 92
3
 72
0
 73
1
 93
4
 10
2477.5
 20
445.0
 10
2510.0
 20
445.0
 10
2510.0
 20
440.0
 10
2477.5
 20
440.0
 97
0
 75
1
 76
1
 98
0
  0
LWPOLYLINE
  5
105
330
17
100
AcDbEntity
  8
WALL
100
AcDbPolyline
 90
4
 70
1
 10
1287.5
 20
440.0
 10
1332.5
 20
440.0
 10
1332.5
 20
425.0
 10
1287.5
 20
425.0
  0
HATCH
  5
106
330
17
100
AcDbEntity
  8
WALL
100
AcDbHatch
 10
0.0
 20
0.0
 30
0.0
210
0.0
220
0.0
230
1.0
  2
SOLID
 70
1
 71
0
 91
1
 92
3
 72
0
 73
1
 93
4
 10
1287.5
 20
440.0
 10
1332.5
 20
440.0
 10
1332.5
 20
425.0
 10
1287.5
 20
425.0
 97
0
 75
1
 76
1
 98
0
  0
LWPOLYLINE
  5
107
330
17
100
AcDbEntity
  8
WALL
100
AcDbPolyline
 90
4
 70
1
 10
57.5
 20
415.0
 10
87.5
 20
415.0
 10
87.5
 20
407.5
 10
57.5
 20
407.5
  0
HATCH
  5
108
330
17
100
AcDbEntity
  8
WALL
100
AcDbHatch
 10
0.0
 20
0.0
 30
0.0
210
0.0
220
0.0
230
1.0
  2
SOLID
 70
1
 71
0
 91
1
 92
3
 72
0
 73
1
 93
4
 10
57.5
 20
415.0
 10
87.5
 20
415.0
 10
87.5
 20
407.5
 10
57.5
 20
407.5
 97
0
 75
1
 76
1
 98
0
  0
LWPOLYLINE
  5
109
330
17
100
AcDbEntity
  8
WALL
100
AcDbPolyline
 90
4
 70
1
 10
642.5
 20
390.0
 10
700.0
 20
390.0
 10
700.0
 20
375.0
 10
642.5
 20
375.0
  0
HATCH
  5
10A
330
17
100
AcDbEntity
  8
WALL
100
AcDbHatch
 10
0.0
 20
0.0
 30
0.0
210
0.0
220
0.0
230
1.0
  2
SOLID
 70
1
 71
0
 91
1
 92
3
 72
0
 73
1
 93
4
 10
642.5
 20
390.0
 10
700.0
 20
390.0
 10
700.0
 20
375.0
 10
642.5
 20
375.0
 97
0
 75
1
 76
1
 98
0
  0
LWPOLYLINE
  5
10B
330
17
100
AcDbEntity
  8
WALL
100
AcDbPolyline
 90
4
 70
1
 10
122.5
 20
380.0
 10
175.0
 20
380.0
 10
175.0
 20
370.0
 10
122.5
 20
370.0
  0
HATCH
  5
10C
330
17
100
AcDbEntity
  8
WALL
100
AcDbHatch
 10
0.0
 20
0.0
 30
0.0
210
0.0
220
0.0
230
1.0
  2
SOLID
 70
1
 71
0
 91
1
 92
3
 72
0
 73
1
 93
4
 10
122.5
 20
380.0
 10
175.0
 20
380.0
 10
175.0
 20
370.0
 10
122.5
 20
370.0
 97
0
 75
1
 76
1
 98
0
  0
LWPOLYLINE
  5
10D
330
17
100
AcDbEntity
  8
WALL
100
AcDbPolyline
 90
4
 70
1
 10
1287.5
 20
380.0
 10
1332.5
 20
380.0
 10
1332.5
 20
370.0
 10
1287.5
 20
370.0
  0
HATCH
  5
10E
330
17
100
AcDbEntity
  8
WALL
100
AcDbHatch
 10
0.0
 20
0.0
 30
0.0
210
0.0
220
0.0
230
1.0
  2
SOLID
 70
1
 71
0
 91
1
 92
3
 72
0
 73
1
 93
4
 10
1287.5
 20
380.0
 10
1332.5
 20
380.0
 10
1332.5
 20
370.0
 10
1287.5
 20
370.0
 97
0
 75
1
 76
1
 98
0
  0
LWPOLYLINE
  5
10F
330
17
100
AcDbEntity
  8
WALL
100
AcDbPolyline
 90
4
 70
1
 10
1282.5
 20
325.0
 10
1337.5
 20
325.0
 10
1337.5
 20
310.0
 10
1282.5
 20
310.0
  0
HATCH
  5
110
330
17
100
AcDbEntity
  8
WALL
100
AcDbHatch
 10
0.0
 20
0.0
 30
0.0
210
0.0
220
0.0
230
1.0
  2
SOLID
 70
1
 71
0
 91
1
 92
3
 72
0
 73
1
 93
4
 10
1282.5
 20
325.0
 10
1337.5
 20
325.0
 10
1337.5
 20
310.0
 10
1282.5
 20
310.0
 97
0
 75
1
 76
1
 98
0
  0
LWPOLYLINE
  5
111
330
17
100
AcDbEntity
  8
WALL
100
AcDbPolyline
 90
4
 70
1
 10
1812.5
 20
260.0
 10
1895.0
 20
260.0
 10
1895.0
 20
235.0
 10
1812.5
 20
235.0
  0
HATCH
  5
112
330
17
100
AcDbEntity
  8
WALL
100
AcDbHatch
 10
0.0
 20
0.0
 30
0.0
210
0.0
220
0.0
230
1.0
  2
SOLID
 70
1
 71
0
 91
1
 92
3
 72
0
 73
1
 93
4
 10
1812.5
 20
260.0
 10
1895.0
 20
260.0
 10
1895.0
 20
235.0
 10
1812.5
 20
235.0
 97
0
 75
1
 76
1
 98
0
  0
LWPOLYLINE
  5
113
330
17
100
AcDbEntity
  8
WALL
100
AcDbPolyline
 90
4
 70
1
 10
1067.5
 20
202.5
 10
1097.5
 20
202.5
 10
1097.5
 20
200.0
 10
1067.5
 20
200.0
  0
HATCH
  5
114
330
17
100
AcDbEntity
  8
WALL
100
AcDbHatch
 10
0.0
 20
0.0
 30
0.0
210
0.0
220
0.0
230
1.0
  2
SOLID
 70
1
 71
0
 91
1
 92
3
 72
0
 73
1
 93
4
 10
1067.5
 20
202.5
 10
1097.5
 20
202.5
 10
1097.5
 20
200.0
 10
1067.5
 20
200.0
 97
0
 75
1
 76
1
 98
0
  0
LWPOLYLINE
  5
115
330
17
100
AcDbEntity
  8
WALL
100
AcDbPolyline
 90
4
 70
1
 10
1137.5
 20
205.0
 10
1172.5
 20
205.0
 10
1172.5
 20
200.0
 10
1137.5
 20
200.0
  0
HATCH
  5
116
330
17
100
AcDbEntity
  8
WALL
100
AcDbHatch
 10
0.0
 20
0.0
 30
0.0
210
0.0
220
0.0
230
1.0
  2
SOLID
 70
1
 71
0
 91
1
 92
3
 72
0
 73
1
 93
4
 10
1137.5
 20
205.0
 10
1172.5
 20
205.0
 10
1172.5
 20
200.0
 10
1137.5
 20
200.0
 97
0
 75
1
 76
1
 98
0
  0
LWPOLYLINE
  5
117
330
17
100
AcDbEntity
  8
WALL
100
AcDbPolyline
 90
4
 70
1
 10
1137.5
 20
195.0
 10
1172.5
 20
195.0
 10
1172.5
 20
190.0
 10
1137.5
 20
190.0
  0
HATCH
  5
118
330
17
100
AcDbEntity
  8
WALL
100
AcDbHatch
 10
0.0
 20
0.0
 30
0.0
210
0.0
220
0.0
230
1.0
  2
SOLID
 70
1
 71
0
 91
1
 92
3
 72
0
 73
1
 93
4
 10
1137.5
 20
195.0
 10
1172.5
 20
195.0
 10
1172.5
 20
190.0
 10
1137.5
 20
190.0
 97
0
 75
1
 76
1
 98
0
  0
LWPOLYLINE
  5
119
330
17
100
AcDbEntity
  8
WALL
100
AcDbPolyline
 90
4
 70
1
 10
932.5
 20
190.0
 10
987.5
 20
190.0
 10
987.5
 20
160.0
 10
932.5
 20
160.0
  0
HATCH
  5
11A
330
17
100
AcDbEntity
  8
WALL
100
AcDbHatch
 10
0.0
 20
0.0
 30
0.0
210
0.0
220
0.0
230
1.0
  2
SOLID
 70
1
 71
0
 91
1
 92
3
 72
0
 73
1
 93
4
 10
932.5
 20
190.0
 10
987.5
 20
190.0
 10
987.5
 20
160.0
 10
932.5
 20
160.0
 97
0
 75
1
 76
1
 98
0
  0
LWPOLYLINE
  5
11B
330
17
100
AcDbEntity
  8
WALL
100
AcDbPolyline
 90
4
 70
1
 10
1127.5
 20
187.5
 10
1172.5
 20
187.5
 10
1172.5
 20
180.0
 10
1127.5
 20
180.0
  0
HATCH
  5
11C
330
17
100
AcDbEntity
  8
WALL
100
AcDbHatch
 10
0.0
 20
0.0
 30
0.0
210
0.0
220
0.0
230
1.0
  2
SOLID
 70
1
 71
0
 91
1
 92
3
 72
0
 73
1
 93
4
 10
1127.5
 20
187.5
 10
1172.5
 20
187.5
 10
1172.5
 20
180.0
 10
1127.5
 20
180.0
 97
0
 75
1
 76
1
 98
0
  0
LWPOLYLINE
  5
11D
330
17
100
AcDbEntity
  8
WALL
100
AcDbPolyline
 90
4
 70
1
 10
660.0
 20
180.0
 10
712.5
 20
180.0
 10
712.5
 20
165.0
 10
660.0
 20
165.0
  0
HATCH
  5
11E
330
17
100
AcDbEntity
  8
WALL
100
AcDbHatch
 10
0.0
 20
0.0
 30
0.0
210
0.0
220
0.0
230
1.0
  2
SOLID
 70
1
 71
0
 91
1
 92
3
 72
0
 73
1
 93
4
 10
660.0
 20
180.0
 10
712.5
 20
180.0
 10
712.5
 20
165.0
 10
660.0
 20
165.0
 97
0
 75
1
 76
1
 98
0
  0
LWPOLYLINE
  5
11F
330
17
100
AcDbEntity
  8
WALL
100
AcDbPolyline
 90
4
 70
1
 10
872.5
 20
180.0
 10
922.5
 20
180.0
 10
922.5
 20
170.0
 10
872.5
 20
170.0
  0
HATCH
  5
120
330
17
100
AcDbEntity
  8
WALL
100
AcDbHatch
 10
0.0
 20
0.0
 30
0.0
210
0.0
220
0.0
230
1.0
  2
SOLID
 70
1
 71
0
 91
1
 92
3
 72
0
 73
1
 93
4
 10
872.5
 20
180.0
 10
922.5
 20
180.0
 10
922.5
 20
170.0
 10
872.5
 20
170.0
 97
0
 75
1
 76
1
 98
0
  0
LWPOLYLINE
  5
121
330
17
100
AcDbEntity
  8
WALL
100
AcDbPolyline
 90
4
 70
1
 10
997.5
 20
175.0
 10
1047.5
 20
175.0
 10
1047.5
 20
165.0
 10
997.5
 20
165.0
  0
HATCH
  5
122
330
17
100
AcDbEntity
  8
WALL
100
AcDbHatch
 10
0.0
 20
0.0
 30
0.0
210
0.0
220
0.0
230
1.0
  2
SOLID
 70
1
 71
0
 91
1
 92
3
 72
0
 73
1
 93
4
 10
997.5
 20
175.0
 10
1047.5
 20
175.0
 10
1047.5
 20
165.0
 10
997.5
 20
165.0
 97
0
 75
1
 76
1
 98
0
  0
LWPOLYLINE
  5
123
330
17
100
AcDbEntity
  8
WALL
100
AcDbPolyline
 90
4
 70
1
 10
875.0
 20
162.5
 10
922.5
 20
162.5
 10
922.5
 20
160.0
 10
875.0
 20
160.0
  0
HATCH
  5
124
330
17
100
AcDbEntity
  8
WALL
100
AcDbHatch
 10
0.0
 20
0.0
 30
0.0
210
0.0
220
0.0
230
1.0
  2
SOLID
 70
1
 71
0
 91
1
 92
3
 72
0
 73
1
 93
4
 10
875.0
 20
162.5
 10
922.5
 20
162.5
 10
922.5
 20
160.0
 10
875.0
 20
160.0
 97
0
 75
1
 76
1
 98
0
  0
LWPOLYLINE
  5
125
330
17
100
AcDbEntity
  8
WALL
100
AcDbPolyline
 90
4
 70
1
 10
1015.0
 20
160.0
 10
1050.0
 20
160.0
 10
1050.0
 20
157.5
 10
1015.0
 20
157.5
  0
HATCH
  5
126
330
17
100
AcDbEntity
  8
WALL
100
AcDbHatch
 10
0.0
 20
0.0
 30
0.0
210
0.0
220
0.0
230
1.0
  2
SOLID
 70
1
 71
0
 91
1
 92
3
 72
0
 73
1
 93
4
 10
1015.0
 20
160.0
 10
1050.0
 20
160.0
 10
1050.0
 20
157.5
 10
1015.0
 20
157.5
 97
0
 75
1
 76
1
 98
0
  0
LWPOLYLINE
  5
127
330
17
100
AcDbEntity
  8
WALL
100
AcDbPolyline
 90
4
 70
1
 10
272.5
 20
140.0
 10
310.0
 20
140.0
 10
310.0
 20
130.0
 10
272.5
 20
130.0
  0
HATCH
  5
128
330
17
100
AcDbEntity
  8
WALL
100
AcDbHatch
 10
0.0
 20
0.0
 30
0.0
210
0.0
220
0.0
230
1.0
  2
SOLID
 70
1
 71
0
 91
1
 92
3
 72
0
 73
1
 93
4
 10
272.5
 20
140.0
 10
310.0
 20
140.0
 10
310.0
 20
130.0
 10
272.5
 20
130.0
 97
0
 75
1
 76
1
 98
0
  0
LWPOLYLINE
  5
129
330
17
100
AcDbEntity
  8
WALL
100
AcDbPolyline
 90
4
 70
1
 10
942.5
 20
135.0
 10
982.5
 20
135.0
 10
982.5
 20
125.0
 10
942.5
 20
125.0
  0
HATCH
  5
12A
330
17
100
AcDbEntity
  8
WALL
100
AcDbHatch
 10
0.0
 20
0.0
 30
0.0
210
0.0
220
0.0
230
1.0
  2
SOLID
 70
1
 71
0
 91
1
 92
3
 72
0
 73
1
 93
4
 10
942.5
 20
135.0
 10
982.5
 20
135.0
 10
982.5
 20
125.0
 10
942.5
 20
125.0
 97
0
 75
1
 76
1
 98
0
  0
LWPOLYLINE
  5
12B
330
17
100
AcDbEntity
  8
WALL
100
AcDbPolyline
 90
4
 70
1
 10
1062.5
 20
135.0
 10
1092.5
 20
135.0
 10
1092.5
 20
130.0
 10
1062.5
 20
130.0
  0
HATCH
  5
12C
330
17
100
AcDbEntity
  8
WALL
100
AcDbHatch
 10
0.0
 20
0.0
 30
0.0
210
0.0
220
0.0
230
1.0
  2
SOLID
 70
1
 71
0
 91
1
 92
3
 72
0
 73
1
 93
4
 10
1062.5
 20
135.0
 10
1092.5
 20
135.0
 10
1092.5
 20
130.0
 10
1062.5
 20
130.0
 97
0
 75
1
 76
1
 98
0
  0
LWPOLYLINE
  5
12D
330
17
100
AcDbEntity
  8
WALL
100
AcDbPolyline
 90
4
 70
1
 10
1082.5
 20
127.5
 10
1112.5
 20
127.5
 10
1112.5
 20
125.0
 10
1082.5
 20
125.0
  0
HATCH
  5
12E
330
17
100
AcDbEntity
  8
WALL
100
AcDbHatch
 10
0.0
 20
0.0
 30
0.0
210
0.0
220
0.0
230
1.0
  2
SOLID
 70
1
 71
0
 91
1
 92
3
 72
0
 73
1
 93
4
 10
1082.5
 20
127.5
 10
1112.5
 20
127.5
 10
1112.5
 20
125.0
 10
1082.5
 20
125.0
 97
0
 75
1
 76
1
 98
0
  0
LWPOLYLINE
  5
12F
330
17
100
AcDbEntity
  8
WALL
100
AcDbPolyline
 90
4
 70
1
 10
517.5
 20
122.5
 10
547.5
 20
122.5
 10
547.5
 20
120.0
 10
517.5
 20
120.0
  0
HATCH
  5
130
330
17
100
AcDbEntity
  8
WALL
100
AcDbHatch
 10
0.0
 20
0.0
 30
0.0
210
0.0
220
0.0
230
1.0
  2
SOLID
 70
1
 71
0
 91
1
 92
3
 72
0
 73
1
 93
4
 10
517.5
 20
122.5
 10
547.5
 20
122.5
 10
547.5
 20
120.0
 10
517.5
 20
120.0
 97
0
 75
1
 76
1
 98
0
  0
LWPOLYLINE
  5
131
330
17
100
AcDbEntity
  8
WALL
100
AcDbPolyline
 90
4
 70
1
 10
932.5
 20
115.0
 10
987.5
 20
115.0
 10
987.5
 20
100.0
 10
932.5
 20
100.0
  0
HATCH
  5
132
330
17
100
AcDbEntity
  8
WALL
100
AcDbHatch
 10
0.0
 20
0.0
 30
0.0
210
0.0
220
0.0
230
1.0
  2
SOLID
 70
1
 71
0
 91
1
 92
3
 72
0
 73
1
 93
4
 10
932.5
 20
115.0
 10
987.5
 20
115.0
 10
987.5
 20
100.0
 10
932.5
 20
100.0
 97
0
 75
1
 76
1
 98
0
  0
LWPOLYLINE
  5
133
330
17
100
AcDbEntity
  8
WALL
100
AcDbPolyline
 90
4
 70
1
 10
275.0
 20
110.0
 10
312.5
 20
110.0
 10
312.5
 20
105.0
 10
275.0
 20
105.0
  0
HATCH
  5
134
330
17
100
AcDbEntity
  8
WALL
100
AcDbHatch
 10
0.0
 20
0.0
 30
0.0
210
0.0
220
0.0
230
1.0
  2
SOLID
 70
1
 71
0
 91
1
 92
3
 72
0
 73
1
 93
4
 10
275.0
 20
110.0
 10
312.5
 20
110.0
 10
312.5
 20
105.0
 10
275.0
 20
105.0
 97
0
 75
1
 76
1
 98
0
  0
LWPOLYLINE
  5
135
330
17
100
AcDbEntity
  8
WALL
100
AcDbPolyline
 90
4
 70
1
 10
267.5
 20
102.5
 10
342.5
 20
102.5
 10
342.5
 20
90.0
 10
267.5
 20
90.0
  0
HATCH
  5
136
330
17
100
AcDbEntity
  8
WALL
100
AcDbHatch
 10
0.0
 20
0.0
 30
0.0
210
0.0
220
0.0
230
1.0
  2
SOLID
 70
1
 71
0
 91
1
 92
3
 72
0
 73
1
 93
4
 10
267.5
 20
102.5
 10
342.5
 20
102.5
 10
342.5
 20
90.0
 10
267.5
 20
90.0
 97
0
 75
1
 76
1
 98
0
  0
LWPOLYLINE
  5
137
330
17
100
AcDbEntity
  8
WALL
100
AcDbPolyline
 90
4
 70
1
 10
502.5
 20
100.0
 10
550.0
 20
100.0
 10
550.0
 20
92.5
 10
502.5
 20
92.5
  0
HATCH
  5
138
330
17
100
AcDbEntity
  8
WALL
100
AcDbHatch
 10
0.0
 20
0.0
 30
0.0
210
0.0
220
0.0
230
1.0
  2
SOLID
 70
1
 71
0
 91
1
 92
3
 72
0
 73
1
 93
4
 10
502.5
 20
100.0
 10
550.0
 20
100.0
 10
550.0
 20
92.5
 10
502.5
 20
92.5
 97
0
 75
1
 76
1
 98
0
  0
LWPOLYLINE
  5
139
330
17
100
AcDbEntity
  8
WALL
100
AcDbPolyline
 90
4
 70
1
 10
665.0
 20
95.0
 10
697.5
 20
95.0
 10
697.5
 20
92.5
 10
665.0
 20
92.5
  0
HATCH
  5
13A
330
17
100
AcDbEntity
  8
WALL
100
AcDbHatch
 10
0.0
 20
0.0
 30
0.0
210
0.0
220
0.0
230
1.0
  2
SOLID
 70
1
 71
0
 91
1
 92
3
 72
0
 73
1
 93
4
 10
665.0
 20
95.0
 10
697.5
 20
95.0
 10
697.5
 20
92.5
 10
665.0
 20
92.5
 97
0
 75
1
 76
1
 98
0
  0
LWPOLYLINE
  5
13B
330
17
100
AcDbEntity
  8
WALL
100
AcDbPolyline
 90
4
 70
1
 10
132.5
 20
65.0
 10
177.5
 20
65.0
 10
177.5
 20
55.0
 10
132.5
 20
55.0
  0
HATCH
  5
13C
330
17
100
AcDbEntity
  8
WALL
100
AcDbHatch
 10
0.0
 20
0.0
 30
0.0
210
0.0
220
0.0
230
1.0
  2
SOLID
 70
1
 71
0
 91
1
 92
3
 72
0
 73
1
 93
4
 10
132.5
 20
65.0
 10
177.5
 20
65.0
 10
177.5
 20
55.0
 10
132.5
 20
55.0
 97
0
 75
1
 76
1
 98
0
  0
LWPOLYLINE
  5
13D
330
17
100
AcDbEntity
  8
WALL
100
AcDbPolyline
 90
4
 70
1
 10
2432.5
 20
65.0
 10
2495.0
 20
65.0
 10
2495.0
 20
55.0
 10
2432.5
 20
55.0
  0
HATCH
  5
13E
330
17
100
AcDbEntity
  8
WALL
100
AcDbHatch
 10
0.0
 20
0.0
 30
0.0
210
0.0
220
0.0
230
1.0
  2
SOLID
 70
1
 71
0
 91
1
 92
3
 72
0
 73
1
 93
4
 10
2432.5
 20
65.0
 10
2495.0
 20
65.0
 10
2495.0
 20
55.0
 10
2432.5
 20
55.0
 97
0
 75
1
 76
1
 98
0
  0
LWPOLYLINE
  5
13F
330
17
100
AcDbEntity
  8
WALL
100
AcDbPolyline
 90
4
 70
1
 10
65.0
 20
45.0
 10
150.0
 20
45.0
 10
150.0
 20
30.0
 10
65.0
 20
30.0
  0
HATCH
  5
140
330
17
100
AcDbEntity
  8
WALL
100
AcDbHatch
 10
0.0
 20
0.0
 30
0.0
210
0.0
220
0.0
230
1.0
  2
SOLID
 70
1
 71
0
 91
1
 92
3
 72
0
 73
1
 93
4
 10
65.0
 20
45.0
 10
150.0
 20
45.0
 10
150.0
 20
30.0
 10
65.0
 20
30.0
 97
0
 75
1
 76
1
 98
0
  0
LWPOLYLINE
  5
141
330
17
100
AcDbEntity
  8
WALL
100
AcDbPolyline
 90
4
 70
1
 10
2435.0
 20
45.0
 10
2510.0
 20
45.0
 10
2510.0
 20
30.0
 10
2435.0
 20
30.0
  0
HATCH
  5
142
330
17
100
AcDbEntity
  8
WALL
100
AcDbHatch
 10
0.0
 20
0.0
 30
0.0
210
0.0
220
0.0
230
1.0
  2
SOLID
 70
1
 71
0
 91
1
 92
3
 72
0
 73
1
 93
4
 10
2435.0
 20
45.0
 10
2510.0
 20
45.0
 10
2510.0
 20
30.0
 10
2435.0
 20
30.0
 97
0
 75
1
 76
1
 98
0
  0
LWPOLYLINE
  5
143
330
17
100
AcDbEntity
  8
WALL
100
AcDbPolyline
 90
4
 70
1
 10
60.0
 20
2032.5
 10
70.0
 20
2032.5
 10
70.0
 20
1995.0
 10
60.0
 20
1995.0
  0
HATCH
  5
144
330
17
100
AcDbEntity
  8
WALL
100
AcDbHatch
 10
0.0
 20
0.0
 30
0.0
210
0.0
220
0.0
230
1.0
  2
SOLID
 70
1
 71
0
 91
1
 92
3
 72
0
 73
1
 93
4
 10
60.0
 20
2032.5
 10
70.0
 20
2032.5
 10
70.0
 20
1995.0
 10
60.0
 20
1995.0
 97
0
 75
1
 76
1
 98
0
  0
LWPOLYLINE
  5
145
330
17
100
AcDbEntity
  8
WALL
100
AcDbPolyline
 90
4
 70
1
 10
930.0
 20
2007.5
 10
940.0
 20
2007.5
 10
940.0
 20
1972.5
 10
930.0
 20
1972.5
  0
HATCH
  5
146
330
17
100
AcDbEntity
  8
WALL
100
AcDbHatch
 10
0.0
 20
0.0
 30
0.0
210
0.0
220
0.0
230
1.0
  2
SOLID
 70
1
 71
0
 91
1
 92
3
 72
0
 73
1
 93
4
 10
930.0
 20
2007.5
 10
940.0
 20
2007.5
 10
940.0
 20
1972.5
 10
930.0
 20
1972.5
 97
0
 75
1
 76
1
 98
0
  0
LWPOLYLINE
  5
147
330
17
100
AcDbEntity
  8
WALL
100
AcDbPolyline
 90
4
 70
1
 10
950.0
 20
2002.5
 10
962.5
 20
2002.5
 10
962.5
 20
1972.5
 10
950.0
 20
1972.5
  0
HATCH
  5
148
330
17
100
AcDbEntity
  8
WALL
100
AcDbHatch
 10
0.0
 20
0.0
 30
0.0
210
0.0
220
0.0
230
1.0
  2
SOLID
 70
1
 71
0
 91
1
 92
3
 72
0
 73
1
 93
4
 10
950.0
 20
2002.5
 10
962.5
 20
2002.5
 10
962.5
 20
1972.5
 10
950.0
 20
1972.5
 97
0
 75
1
 76
1
 98
0
  0
LWPOLYLINE
  5
149
330
17
100
AcDbEntity
  8
WALL
100
AcDbPolyline
 90
4
 70
1
 10
1110.0
 20
2002.5
 10
1122.5
 20
2002.5
 10
1122.5
 20
1972.5
 10
1110.0
 20
1972.5
  0
HATCH
  5
14A
330
17
100
AcDbEntity
  8
WALL
100
AcDbHatch
 10
0.0
 20
0.0
 30
0.0
210
0.0
220
0.0
230
1.0
  2
SOLID
 70
1
 71
0
 91
1
 92
3
 72
0
 73
1
 93
4
 10
1110.0
 20
2002.5
 10
1122.5
 20
2002.5
 10
1122.5
 20
1972.5
 10
1110.0
 20
1972.5
 97
0
 75
1
 76
1
 98
0
  0
LWPOLYLINE
  5
14B
330
17
100
AcDbEntity
  8
WALL
100
AcDbPolyline
 90
4
 70
1
 10
1182.5
 20
2002.5
 10
1187.5
 20
2002.5
 10
1187.5
 20
1972.5
 10
1182.5
 20
1972.5
  0
HATCH
  5
14C
330
17
100
AcDbEntity
  8
WALL
100
AcDbHatch
 10
0.0
 20
0.0
 30
0.0
210
0.0
220
0.0
230
1.0
  2
SOLID
 70
1
 71
0
 91
1
 92
3
 72
0
 73
1
 93
4
 10
1182.5
 20
2002.5
 10
1187.5
 20
2002.5
 10
1187.5
 20
1972.5
 10
1182.5
 20
1972.5
 97
0
 75
1
 76
1
 98
0
  0
LWPOLYLINE
  5
14D
330
17
100
AcDbEntity
  8
WALL
100
AcDbPolyline
 90
4
 70
1
 10
1270.0
 20
2002.5
 10
1282.5
 20
2002.5
 10
1282.5
 20
1972.5
 10
1270.0
 20
1972.5
  0
HATCH
  5
14E
330
17
100
AcDbEntity
  8
WALL
100
AcDbHatch
 10
0.0
 20
0.0
 30
0.0
210
0.0
220
0.0
230
1.0
  2
SOLID
 70
1
 71
0
 91
1
 92
3
 72
0
 73
1
 93
4
 10
1270.0
 20
2002.5
 10
1282.5
 20
2002.5
 10
1282.5
 20
1972.5
 10
1270.0
 20
1972.5
 97
0
 75
1
 76
1
 98
0
  0
LWPOLYLINE
  5
14F
330
17
100
AcDbEntity
  8
WALL
100
AcDbPolyline
 90
4
 70
1
 10
1342.5
 20
2002.5
 10
1350.0
 20
2002.5
 10
1350.0
 20
1972.5
 10
1342.5
 20
1972.5
  0
HATCH
  5
150
330
17
100
AcDbEntity
  8
WALL
100
AcDbHatch
 10
0.0
 20
0.0
 30
0.0
210
0.0
220
0.0
230
1.0
  2
SOLID
 70
1
 71
0
 91
1
 92
3
 72
0
 73
1
 93
4
 10
1342.5
 20
2002.5
 10
1350.0
 20
2002.5
 10
1350.0
 20
1972.5
 10
1342.5
 20
1972.5
 97
0
 75
1
 76
1
 98
0
  0
LWPOLYLINE
  5
151
330
17
100
AcDbEntity
  8
WALL
100
AcDbPolyline
 90
4
 70
1
 10
1982.5
 20
2002.5
 10
1987.5
 20
2002.5
 10
1987.5
 20
1972.5
 10
1982.5
 20
1972.5
  0
HATCH
  5
152
330
17
100
AcDbEntity
  8
WALL
100
AcDbHatch
 10
0.0
 20
0.0
 30
0.0
210
0.0
220
0.0
230
1.0
  2
SOLID
 70
1
 71
0
 91
1
 92
3
 72
0
 73
1
 93
4
 10
1982.5
 20
2002.5
 10
1987.5
 20
2002.5
 10
1987.5
 20
1972.5
 10
1982.5
 20
1972.5
 97
0
 75
1
 76
1
 98
0
  0
LWPOLYLINE
  5
153
330
17
100
AcDbEntity
  8
WALL
100
AcDbPolyline
 90
4
 70
1
 10
85.0
 20
1982.5
 10
90.0
 20
1982.5
 10
90.0
 20
1947.5
 10
85.0
 20
1947.5
  0
HATCH
  5
154
330
17
100
AcDbEntity
  8
WALL
100
AcDbHatch
 10
0.0
 20
0.0
 30
0.0
210
0.0
220
0.0
230
1.0
  2
SOLID
 70
1
 71
0
 91
1
 92
3
 72
0
 73
1
 93
4
 10
85.0
 20
1982.5
 10
90.0
 20
1982.5
 10
90.0
 20
1947.5
 10
85.0
 20
1947.5
 97
0
 75
1
 76
1
 98
0
  0
LWPOLYLINE
  5
155
330
17
100
AcDbEntity
  8
WALL
100
AcDbPolyline
 90
4
 70
1
 10
825.0
 20
1982.5
 10
840.0
 20
1982.5
 10
840.0
 20
1890.0
 10
825.0
 20
1890.0
  0
HATCH
  5
156
330
17
100
AcDbEntity
  8
WALL
100
AcDbHatch
 10
0.0
 20
0.0
 30
0.0
210
0.0
220
0.0
230
1.0
  2
SOLID
 70
1
 71
0
 91
1
 92
3
 72
0
 73
1
 93
4
 10
825.0
 20
1982.5
 10
840.0
 20
1982.5
 10
840.0
 20
1890.0
 10
825.0
 20
1890.0
 97
0
 75
1
 76
1
 98
0
  0
LWPOLYLINE
  5
157
330
17
100
AcDbEntity
  8
WALL
100
AcDbPolyline
 90
4
 70
1
 10
715.0
 20
1977.5
 10
725.0
 20
1977.5
 10
725.0
 20
1940.0
 10
715.0
 20
1940.0
  0
HATCH
  5
158
330
17
100
AcDbEntity
  8
WALL
100
AcDbHatch
 10
0.0
 20
0.0
 30
0.0
210
0.0
220
0.0
230
1.0
  2
SOLID
 70
1
 71
0
 91
1
 92
3
 72
0
 73
1
 93
4
 10
715.0
 20
1977.5
 10
725.0
 20
1977.5
 10
725.0
 20
1940.0
 10
715.0
 20
1940.0
 97
0
 75
1
 76
1
 98
0
  0
LWPOLYLINE
  5
159
330
17
100
AcDbEntity
  8
WALL
100
AcDbPolyline
 90
4
 70
1
 10
1005.0
 20
1970.0
 10
1015.0
 20
1970.0
 10
1015.0
 20
1802.5
 10
1005.0
 20
1802.5
  0
HATCH
  5
15A
330
17
100
AcDbEntity
  8
WALL
100
AcDbHatch
 10
0.0
 20
0.0
 30
0.0
210
0.0
220
0.0
230
1.0
  2
SOLID
 70
1
 71
0
 91
1
 92
3
 72
0
 73
1
 93
4
 10
1005.0
 20
1970.0
 10
1015.0
 20
1970.0
 10
1015.0
 20
1802.5
 10
1005.0
 20
1802.5
 97
0
 75
1
 76
1
 98
0
  0
LWPOLYLINE
  5
15B
330
17
100
AcDbEntity
  8
WALL
100
AcDbPolyline
 90
4
 70
1
 10
1115.0
 20
1967.5
 10
1125.0
 20
1967.5
 10
1125.0
 20
1912.5
 10
1115.0
 20
1912.5
  0
HATCH
  5
15C
330
17
100
AcDbEntity
  8
WALL
100
AcDbHatch
 10
0.0
 20
0.0
 30
0.0
210
0.0
220
0.0
230
1.0
  2
SOLID
 70
1
 71
0
 91
1
 92
3
 72
0
 73
1
 93
4
 10
1115.0
 20
1967.5
 10
1125.0
 20
1967.5
 10
1125.0
 20
1912.5
 10
1115.0
 20
1912.5
 97
0
 75
1
 76
1
 98
0
  0
LWPOLYLINE
  5
15D
330
17
100
AcDbEntity
  8
WALL
100
AcDbPolyline
 90
4
 70
1
 10
2105.0
 20
1967.5
 10
2120.0
 20
1967.5
 10
2120.0
 20
1797.5
 10
2105.0
 20
1797.5
  0
HATCH
  5
15E
330
17
100
AcDbEntity
  8
WALL
100
AcDbHatch
 10
0.0
 20
0.0
 30
0.0
210
0.0
220
0.0
230
1.0
  2
SOLID
 70
1
 71
0
 91
1
 92
3
 72
0
 73
1
 93
4
 10
2105.0
 20
1967.5
 10
2120.0
 20
1967.5
 10
2120.0
 20
1797.5
 10
2105.0
 20
1797.5
 97
0
 75
1
 76
1
 98
0
  0
LWPOLYLINE
  5
15F
330
17
100
AcDbEntity
  8
WALL
100
AcDbPolyline
 90
4
 70
1
 10
1755.0
 20
1952.5
 10
1770.0
 20
1952.5
 10
1770.0
 20
1912.5
 10
1755.0
 20
1912.5
  0
HATCH
  5
160
330
17
100
AcDbEntity
  8
WALL
100
AcDbHatch
 10
0.0
 20
0.0
 30
0.0
210
0.0
220
0.0
230
1.0
  2
SOLID
 70
1
 71
0
 91
1
 92
3
 72
0
 73
1
 93
4
 10
1755.0
 20
1952.5
 10
1770.0
 20
1952.5
 10
1770.0
 20
1912.5
 10
1755.0
 20
1912.5
 97
0
 75
1
 76
1
 98
0
  0
LWPOLYLINE
  5
161
330
17
100
AcDbEntity
  8
WALL
100
AcDbPolyline
 90
4
 70
1
 10
1787.5
 20
1952.5
 10
1790.0
 20
1952.5
 10
1790.0
 20
1920.0
 10
1787.5
 20
1920.0
  0
HATCH
  5
162
330
17
100
AcDbEntity
  8
WALL
100
AcDbHatch
 10
0.0
 20
0.0
 30
0.0
210
0.0
220
0.0
230
1.0
  2
SOLID
 70
1
 71
0
 91
1
 92
3
 72
0
 73
1
 93
4
 10
1787.5
 20
1952.5
 10
1790.0
 20
1952.5
 10
1790.0
 20
1920.0
 10
1787.5
 20
1920.0
 97
0
 75
1
 76
1
 98
0
  0
LWPOLYLINE
  5
163
330
17
100
AcDbEntity
  8
WALL
100
AcDbPolyline
 90
4
 70
1
 10
2435.0
 20
1937.5
 10
2440.0
 20
1937.5
 10
2440.0
 20
1902.5
 10
2435.0
 20
1902.5
  0
HATCH
  5
164
330
17
100
AcDbEntity
  8
WALL
100
AcDbHatch
 10
0.0
 20
0.0
 30
0.0
210
0.0
220
0.0
230
1.0
  2
SOLID
 70
1
 71
0
 91
1
 92
3
 72
0
 73
1
 93
4
 10
2435.0
 20
1937.5
 10
2440.0
 20
1937.5
 10
2440.0
 20
1902.5
 10
2435.0
 20
1902.5
 97
0
 75
1
 76
1
 98
0
  0
LWPOLYLINE
  5
165
330
17
100
AcDbEntity
  8
WALL
100
AcDbPolyline
 90
4
 70
1
 10
1740.0
 20
1932.5
 10
1747.5
 20
1932.5
 10
1747.5
 20
1897.5
 10
1740.0
 20
1897.5
  0
HATCH
  5
166
330
17
100
AcDbEntity
  8
WALL
100
AcDbHatch
 10
0.0
 20
0.0
 30
0.0
210
0.0
220
0.0
230
1.0
  2
SOLID
 70
1
 71
0
 91
1
 92
3
 72
0
 73
1
 93
4
 10
1740.0
 20
1932.5
 10
1747.5
 20
1932.5
 10
1747.5
 20
1897.5
 10
1740.0
 20
1897.5
 97
0
 75
1
 76
1
 98
0
  0
LWPOLYLINE
  5
167
330
17
100
AcDbEntity
  8
WALL
100
AcDbPolyline
 90
4
 70
1
 10
2145.0
 20
1927.5
 10
2155.0
 20
1927.5
 10
2155.0
 20
1862.5
 10
2145.0
 20
1862.5
  0
HATCH
  5
168
330
17
100
AcDbEntity
  8
WALL
100
AcDbHatch
 10
0.0
 20
0.0
 30
0.0
210
0.0
220
0.0
230
1.0
  2
SOLID
 70
1
 71
0
 91
1
 92
3
 72
0
 73
1
 93
4
 10
2145.0
 20
1927.5
 10
2155.0
 20
1927.5
 10
2155.0
 20
1862.5
 10
2145.0
 20
1862.5
 97
0
 75
1
 76
1
 98
0
  0
LWPOLYLINE
  5
169
330
17
100
AcDbEntity
  8
WALL
100
AcDbPolyline
 90
4
 70
1
 10
2250.0
 20
1927.5
 10
2265.0
 20
1927.5
 10
2265.0
 20
1857.5
 10
2250.0
 20
1857.5
  0
HATCH
  5
16A
330
17
100
AcDbEntity
  8
WALL
100
AcDbHatch
 10
0.0
 20
0.0
 30
0.0
210
0.0
220
0.0
230
1.0
  2
SOLID
 70
1
 71
0
 91
1
 92
3
 72
0
 73
1
 93
4
 10
2250.0
 20
1927.5
 10
2265.0
 20
1927.5
 10
2265.0
 20
1857.5
 10
2250.0
 20
1857.5
 97
0
 75
1
 76
1
 98
0
  0
LWPOLYLINE
  5
16B
330
17
100
AcDbEntity
  8
WALL
100
AcDbPolyline
 90
4
 70
1
 10
1590.0
 20
1912.5
 10
1612.5
 20
1912.5
 10
1612.5
 20
1850.0
 10
1590.0
 20
1850.0
  0
HATCH
  5
16C
330
17
100
AcDbEntity
  8
WALL
100
AcDbHatch
 10
0.0
 20
0.0
 30
0.0
210
0.0
220
0.0
230
1.0
  2
SOLID
 70
1
 71
0
 91
1
 92
3
 72
0
 73
1
 93
4
 10
1590.0
 20
1912.5
 10
1612.5
 20
1912.5
 10
1612.5
 20
1850.0
 10
1590.0
 20
1850.0
 97
0
 75
1
 76
1
 98
0
  0
LWPOLYLINE
  5
16D
330
17
100
AcDbEntity
  8
WALL
100
AcDbPolyline
 90
4
 70
1
 10
2425.0
 20
1877.5
 10
2430.0
 20
1877.5
 10
2430.0
 20
1822.5
 10
2425.0
 20
1822.5
  0
HATCH
  5
16E
330
17
100
AcDbEntity
  8
WALL
100
AcDbHatch
 10
0.0
 20
0.0
 30
0.0
210
0.0
220
0.0
230
1.0
  2
SOLID
 70
1
 71
0
 91
1
 92
3
 72
0
 73
1
 93
4
 10
2425.0
 20
1877.5
 10
2430.0
 20
1877.5
 10
2430.0
 20
1822.5
 10
2425.0
 20
1822.5
 97
0
 75
1
 76
1
 98
0
  0
LWPOLYLINE
  5
16F
330
17
100
AcDbEntity
  8
WALL
100
AcDbPolyline
 90
4
 70
1
 10
2440.0
 20
1877.5
 10
2445.0
 20
1877.5
 10
2445.0
 20
1842.5
 10
2440.0
 20
1842.5
  0
HATCH
  5
170
330
17
100
AcDbEntity
  8
WALL
100
AcDbHatch
 10
0.0
 20
0.0
 30
0.0
210
0.0
220
0.0
230
1.0
  2
SOLID
 70
1
 71
0
 91
1
 92
3
 72
0
 73
1
 93
4
 10
2440.0
 20
1877.5
 10
2445.0
 20
1877.5
 10
2445.0
 20
1842.5
 10
2440.0
 20
1842.5
 97
0
 75
1
 76
1
 98
0
  0
LWPOLYLINE
  5
171
330
17
100
AcDbEntity
  8
WALL
100
AcDbPolyline
 90
4
 70
1
 10
2405.0
 20
1875.0
 10
2420.0
 20
1875.0
 10
2420.0
 20
1822.5
 10
2405.0
 20
1822.5
  0
HATCH
  5
172
330
17
100
AcDbEntity
  8
WALL
100
AcDbHatch
 10
0.0
 20
0.0
 30
0.0
210
0.0
220
0.0
230
1.0
  2
SOLID
 70
1
 71
0
 91
1
 92
3
 72
0
 73
1
 93
4
 10
2405.0
 20
1875.0
 10
2420.0
 20
1875.0
 10
2420.0
 20
1822.5
 10
2405.0
 20
1822.5
 97
0
 75
1
 76
1
 98
0
  0
LWPOLYLINE
  5
173
330
17
100
AcDbEntity
  8
WALL
100
AcDbPolyline
 90
4
 70
1
 10
835.0
 20
1840.0
 10
840.0
 20
1840.0
 10
840.0
 20
1802.5
 10
835.0
 20
1802.5
  0
HATCH
  5
174
330
17
100
AcDbEntity
  8
WALL
100
AcDbHatch
 10
0.0
 20
0.0
 30
0.0
210
0.0
220
0.0
230
1.0
  2
SOLID
 70
1
 71
0
 91
1
 92
3
 72
0
 73
1
 93
4
 10
835.0
 20
1840.0
 10
840.0
 20
1840.0
 10
840.0
 20
1802.5
 10
835.0
 20
1802.5
 97
0
 75
1
 76
1
 98
0
  0
LWPOLYLINE
  5
175
330
17
100
AcDbEntity
  8
WALL
100
AcDbPolyline
 90
4
 70
1
 10
2385.0
 20
1817.5
 10
2390.0
 20
1817.5
 10
2390.0
 20
1770.0
 10
2385.0
 20
1770.0
  0
HATCH
  5
176
330
17
100
AcDbEntity
  8
WALL
100
AcDbHatch
 10
0.0
 20
0.0
 30
0.0
210
0.0
220
0.0
230
1.0
  2
SOLID
 70
1
 71
0
 91
1
 92
3
 72
0
 73
1
 93
4
 10
2385.0
 20
1817.5
 10
2390.0
 20
1817.5
 10
2390.0
 20
1770.0
 10
2385.0
 20
1770.0
 97
0
 75
1
 76
1
 98
0
  0
LWPOLYLINE
  5
177
330
17
100
AcDbEntity
  8
WALL
100
AcDbPolyline
 90
4
 70
1
 10
2415.0
 20
1812.5
 10
2417.5
 20
1812.5
 10
2417.5
 20
1782.5
 10
2415.0
 20
1782.5
  0
HATCH
  5
178
330
17
100
AcDbEntity
  8
WALL
100
AcDbHatch
 10
0.0
 20
0.0
 30
0.0
210
0.0
220
0.0
230
1.0
  2
SOLID
 70
1
 71
0
 91
1
 92
3
 72
0
 73
1
 93
4
 10
2415.0
 20
1812.5
 10
2417.5
 20
1812.5
 10
2417.5
 20
1782.5
 10
2415.0
 20
1782.5
 97
0
 75
1
 76
1
 98
0
  0
LWPOLYLINE
  5
179
330
17
100
AcDbEntity
  8
WALL
100
AcDbPolyline
 90
4
 70
1
 10
2437.5
 20
1812.5
 10
2440.0
 20
1812.5
 10
2440.0
 20
1782.5
 10
2437.5
 20
1782.5
  0
HATCH
  5
17A
330
17
100
AcDbEntity
  8
WALL
100
AcDbHatch
 10
0.0
 20
0.0
 30
0.0
210
0.0
220
0.0
230
1.0
  2
SOLID
 70
1
 71
0
 91
1
 92
3
 72
0
 73
1
 93
4
 10
2437.5
 20
1812.5
 10
2440.0
 20
1812.5
 10
2440.0
 20
1782.5
 10
2437.5
 20
1782.5
 97
0
 75
1
 76
1
 98
0
  0
LWPOLYLINE
  5
17B
330
17
100
AcDbEntity
  8
WALL
100
AcDbPolyline
 90
4
 70
1
 10
2445.0
 20
1812.5
 10
2447.5
 20
1812.5
 10
2447.5
 20
1782.5
 10
2445.0
 20
1782.5
  0
HATCH
  5
17C
330
17
100
AcDbEntity
  8
WALL
100
AcDbHatch
 10
0.0
 20
0.0
 30
0.0
210
0.0
220
0.0
230
1.0
  2
SOLID
 70
1
 71
0
 91
1
 92
3
 72
0
 73
1
 93
4
 10
2445.0
 20
1812.5
 10
2447.5
 20
1812.5
 10
2447.5
 20
1782.5
 10
2445.0
 20
1782.5
 97
0
 75
1
 76
1
 98
0
  0
LWPOLYLINE
  5
17D
330
17
100
AcDbEntity
  8
WALL
100
AcDbPolyline
 90
4
 70
1
 10
2342.5
 20
1752.5
 10
2345.0
 20
1752.5
 10
2345.0
 20
1700.0
 10
2342.5
 20
1700.0
  0
HATCH
  5
17E
330
17
100
AcDbEntity
  8
WALL
100
AcDbHatch
 10
0.0
 20
0.0
 30
0.0
210
0.0
220
0.0
230
1.0
  2
SOLID
 70
1
 71
0
 91
1
 92
3
 72
0
 73
1
 93
4
 10
2342.5
 20
1752.5
 10
2345.0
 20
1752.5
 10
2345.0
 20
1700.0
 10
2342.5
 20
1700.0
 97
0
 75
1
 76
1
 98
0
  0
LWPOLYLINE
  5
17F
330
17
100
AcDbEntity
  8
WALL
100
AcDbPolyline
 90
4
 70
1
 10
2365.0
 20
1752.5
 10
2370.0
 20
1752.5
 10
2370.0
 20
1697.5
 10
2365.0
 20
1697.5
  0
HATCH
  5
180
330
17
100
AcDbEntity
  8
WALL
100
AcDbHatch
 10
0.0
 20
0.0
 30
0.0
210
0.0
220
0.0
230
1.0
  2
SOLID
 70
1
 71
0
 91
1
 92
3
 72
0
 73
1
 93
4
 10
2365.0
 20
1752.5
 10
2370.0
 20
1752.5
 10
2370.0
 20
1697.5
 10
2365.0
 20
1697.5
 97
0
 75
1
 76
1
 98
0
  0
LWPOLYLINE
  5
181
330
17
100
AcDbEntity
  8
WALL
100
AcDbPolyline
 90
4
 70
1
 10
2435.0
 20
1752.5
 10
2442.5
 20
1752.5
 10
2442.5
 20
1697.5
 10
2435.0
 20
1697.5
  0
HATCH
  5
182
330
17
100
AcDbEntity
  8
WALL
100
AcDbHatch
 10
0.0
 20
0.0
 30
0.0
210
0.0
220
0.0
230
1.0
  2
SOLID
 70
1
 71
0
 91
1
 92
3
 72
0
 73
1
 93
4
 10
2435.0
 20
1752.5
 10
2442.5
 20
1752.5
 10
2442.5
 20
1697.5
 10
2435.0
 20
1697.5
 97
0
 75
1
 76
1
 98
0
  0
LWPOLYLINE
  5
183
330
17
100
AcDbEntity
  8
WALL
100
AcDbPolyline
 90
4
 70
1
 10
485.0
 20
1730.0
 10
500.0
 20
1730.0
 10
500.0
 20
1647.5
 10
485.0
 20
1647.5
  0
HATCH
  5
184
330
17
100
AcDbEntity
  8
WALL
100
AcDbHatch
 10
0.0
 20
0.0
 30
0.0
210
0.0
220
0.0
230
1.0
  2
SOLID
 70
1
 71
0
 91
1
 92
3
 72
0
 73
1
 93
4
 10
485.0
 20
1730.0
 10
500.0
 20
1730.0
 10
500.0
 20
1647.5
 10
485.0
 20
1647.5
 97
0
 75
1
 76
1
 98
0
  0
LWPOLYLINE
  5
185
330
17
100
AcDbEntity
  8
WALL
100
AcDbPolyline
 90
4
 70
1
 10
2440.0
 20
1687.5
 10
2445.0
 20
1687.5
 10
2445.0
 20
1637.5
 10
2440.0
 20
1637.5
  0
HATCH
  5
186
330
17
100
AcDbEntity
  8
WALL
100
AcDbHatch
 10
0.0
 20
0.0
 30
0.0
210
0.0
220
0.0
230
1.0
  2
SOLID
 70
1
 71
0
 91
1
 92
3
 72
0
 73
1
 93
4
 10
2440.0
 20
1687.5
 10
2445.0
 20
1687.5
 10
2445.0
 20
1637.5
 10
2440.0
 20
1637.5
 97
0
 75
1
 76
1
 98
0
  0
LWPOLYLINE
  5
187
330
17
100
AcDbEntity
  8
WALL
100
AcDbPolyline
 90
4
 70
1
 10
2412.5
 20
1662.5
 10
2415.0
 20
1662.5
 10
2415.0
 20
1632.5
 10
2412.5
 20
1632.5
  0
HATCH
  5
188
330
17
100
AcDbEntity
  8
WALL
100
AcDbHatch
 10
0.0
 20
0.0
 30
0.0
210
0.0
220
0.0
230
1.0
  2
SOLID
 70
1
 71
0
 91
1
 92
3
 72
0
 73
1
 93
4
 10
2412.5
 20
1662.5
 10
2415.0
 20
1662.5
 10
2415.0
 20
1632.5
 10
2412.5
 20
1632.5
 97
0
 75
1
 76
1
 98
0
  0
LWPOLYLINE
  5
189
330
17
100
AcDbEntity
  8
WALL
100
AcDbPolyline
 90
4
 70
1
 10
1612.5
 20
1622.5
 10
1617.5
 20
1622.5
 10
1617.5
 20
1582.5
 10
1612.5
 20
1582.5
  0
HATCH
  5
18A
330
17
100
AcDbEntity
  8
WALL
100
AcDbHatch
 10
0.0
 20
0.0
 30
0.0
210
0.0
220
0.0
230
1.0
  2
SOLID
 70
1
 71
0
 91
1
 92
3
 72
0
 73
1
 93
4
 10
1612.5
 20
1622.5
 10
1617.5
 20
1622.5
 10
1617.5
 20
1582.5
 10
1612.5
 20
1582.5
 97
0
 75
1
 76
1
 98
0
  0
LWPOLYLINE
  5
18B
330
17
100
AcDbEntity
  8
WALL
100
AcDbPolyline
 90
4
 70
1
 10
2352.5
 20
1602.5
 10
2355.0
 20
1602.5
 10
2355.0
 20
1572.5
 10
2352.5
 20
1572.5
  0
HATCH
  5
18C
330
17
100
AcDbEntity
  8
WALL
100
AcDbHatch
 10
0.0
 20
0.0
 30
0.0
210
0.0
220
0.0
230
1.0
  2
SOLID
 70
1
 71
0
 91
1
 92
3
 72
0
 73
1
 93
4
 10
2352.5
 20
1602.5
 10
2355.0
 20
1602.5
 10
2355.0
 20
1572.5
 10
2352.5
 20
1572.5
 97
0
 75
1
 76
1
 98
0
  0
LWPOLYLINE
  5
18D
330
17
100
AcDbEntity
  8
WALL
100
AcDbPolyline
 90
4
 70
1
 10
1775.0
 20
1577.5
 10
1785.0
 20
1577.5
 10
1785.0
 20
1535.0
 10
1775.0
 20
1535.0
  0
HATCH
  5
18E
330
17
100
AcDbEntity
  8
WALL
100
AcDbHatch
 10
0.0
 20
0.0
 30
0.0
210
0.0
220
0.0
230
1.0
  2
SOLID
 70
1
 71
0
 91
1
 92
3
 72
0
 73
1
 93
4
 10
1775.0
 20
1577.5
 10
1785.0
 20
1577.5
 10
1785.0
 20
1535.0
 10
1775.0
 20
1535.0
 97
0
 75
1
 76
1
 98
0
  0
LWPOLYLINE
  5
18F
330
17
100
AcDbEntity
  8
WALL
100
AcDbPolyline
 90
4
 70
1
 10
1200.0
 20
1567.5
 10
1202.5
 20
1567.5
 10
1202.5
 20
1537.5
 10
1200.0
 20
1537.5
  0
HATCH
  5
190
330
17
100
AcDbEntity
  8
WALL
100
AcDbHatch
 10
0.0
 20
0.0
 30
0.0
210
0.0
220
0.0
230
1.0
  2
SOLID
 70
1
 71
0
 91
1
 92
3
 72
0
 73
1
 93
4
 10
1200.0
 20
1567.5
 10
1202.5
 20
1567.5
 10
1202.5
 20
1537.5
 10
1200.0
 20
1537.5
 97
0
 75
1
 76
1
 98
0
  0
LWPOLYLINE
  5
191
330
17
100
AcDbEntity
  8
WALL
100
AcDbPolyline
 90
4
 70
1
 10
1795.0
 20
1567.5
 10
1815.0
 20
1567.5
 10
1815.0
 20
1537.5
 10
1795.0
 20
1537.5
  0
HATCH
  5
192
330
17
100
AcDbEntity
  8
WALL
100
AcDbHatch
 10
0.0
 20
0.0
 30
0.0
210
0.0
220
0.0
230
1.0
  2
SOLID
 70
1
 71
0
 91
1
 92
3
 72
0
 73
1
 93
4
 10
1795.0
 20
1567.5
 10
1815.0
 20
1567.5
 10
1815.0
 20
1537.5
 10
1795.0
 20
1537.5
 97
0
 75
1
 76
1
 98
0
  0
LWPOLYLINE
  5
193
330
17
100
AcDbEntity
  8
WALL
100
AcDbPolyline
 90
4
 70
1
 10
1890.0
 20
1567.5
 10
1892.5
 20
1567.5
 10
1892.5
 20
1537.5
 10
1890.0
 20
1537.5
  0
HATCH
  5
194
330
17
100
AcDbEntity
  8
WALL
100
AcDbHatch
 10
0.0
 20
0.0
 30
0.0
210
0.0
220
0.0
230
1.0
  2
SOLID
 70
1
 71
0
 91
1
 92
3
 72
0
 73
1
 93
4
 10
1890.0
 20
1567.5
 10
1892.5
 20
1567.5
 10
1892.5
 20
1537.5
 10
1890.0
 20
1537.5
 97
0
 75
1
 76
1
 98
0
  0
LWPOLYLINE
  5
195
330
17
100
AcDbEntity
  8
WALL
100
AcDbPolyline
 90
4
 70
1
 10
1285.0
 20
1552.5
 10
1287.5
 20
1552.5
 10
1287.5
 20
1517.5
 10
1285.0
 20
1517.5
  0
HATCH
  5
196
330
17
100
AcDbEntity
  8
WALL
100
AcDbHatch
 10
0.0
 20
0.0
 30
0.0
210
0.0
220
0.0
230
1.0
  2
SOLID
 70
1
 71
0
 91
1
 92
3
 72
0
 73
1
 93
4
 10
1285.0
 20
1552.5
 10
1287.5
 20
1552.5
 10
1287.5
 20
1517.5
 10
1285.0
 20
1517.5
 97
0
 75
1
 76
1
 98
0
  0
LWPOLYLINE
  5
197
330
17
100
AcDbEntity
  8
WALL
100
AcDbPolyline
 90
4
 70
1
 10
1960.0
 20
1542.5
 10
1970.0
 20
1542.5
 10
1970.0
 20
1417.5
 10
1960.0
 20
1417.5
  0
HATCH
  5
198
330
17
100
AcDbEntity
  8
WALL
100
AcDbHatch
 10
0.0
 20
0.0
 30
0.0
210
0.0
220
0.0
230
1.0
  2
SOLID
 70
1
 71
0
 91
1
 92
3
 72
0
 73
1
 93
4
 10
1960.0
 20
1542.5
 10
1970.0
 20
1542.5
 10
1970.0
 20
1417.5
 10
1960.0
 20
1417.5
 97
0
 75
1
 76
1
 98
0
  0
LWPOLYLINE
  5
199
330
17
100
AcDbEntity
  8
WALL
100
AcDbPolyline
 90
4
 70
1
 10
2010.0
 20
1537.5
 10
2025.0
 20
1537.5
 10
2025.0
 20
1392.5
 10
2010.0
 20
1392.5
  0
HATCH
  5
19A
330
17
100
AcDbEntity
  8
WALL
100
AcDbHatch
 10
0.0
 20
0.0
 30
0.0
210
0.0
220
0.0
230
1.0
  2
SOLID
 70
1
 71
0
 91
1
 92
3
 72
0
 73
1
 93
4
 10
2010.0
 20
1537.5
 10
2025.0
 20
1537.5
 10
2025.0
 20
1392.5
 10
2010.0
 20
1392.5
 97
0
 75
1
 76
1
 98
0
  0
LWPOLYLINE
  5
19B
330
17
100
AcDbEntity
  8
WALL
100
AcDbPolyline
 90
4
 70
1
 10
2110.0
 20
1535.0
 10
2120.0
 20
1535.0
 10
2120.0
 20
1392.5
 10
2110.0
 20
1392.5
  0
HATCH
  5
19C
330
17
100
AcDbEntity
  8
WALL
100
AcDbHatch
 10
0.0
 20
0.0
 30
0.0
210
0.0
220
0.0
230
1.0
  2
SOLID
 70
1
 71
0
 91
1
 92
3
 72
0
 73
1
 93
4
 10
2110.0
 20
1535.0
 10
2120.0
 20
1535.0
 10
2120.0
 20
1392.5
 10
2110.0
 20
1392.5
 97
0
 75
1
 76
1
 98
0
  0
LWPOLYLINE
  5
19D
330
17
100
AcDbEntity
  8
WALL
100
AcDbPolyline
 90
4
 70
1
 10
2580.0
 20
1535.0
 10
2590.0
 20
1535.0
 10
2590.0
 20
1495.0
 10
2580.0
 20
1495.0
  0
HATCH
  5
19E
330
17
100
AcDbEntity
  8
WALL
100
AcDbHatch
 10
0.0
 20
0.0
 30
0.0
210
0.0
220
0.0
230
1.0
  2
SOLID
 70
1
 71
0
 91
1
 92
3
 72
0
 73
1
 93
4
 10
2580.0
 20
1535.0
 10
2590.0
 20
1535.0
 10
2590.0
 20
1495.0
 10
2580.0
 20
1495.0
 97
0
 75
1
 76
1
 98
0
  0
LWPOLYLINE
  5
19F
330
17
100
AcDbEntity
  8
WALL
100
AcDbPolyline
 90
4
 70
1
 10
1257.5
 20
1527.5
 10
1270.0
 20
1527.5
 10
1270.0
 20
1492.5
 10
1257.5
 20
1492.5
  0
HATCH
  5
1A0
330
17
100
AcDbEntity
  8
WALL
100
AcDbHatch
 10
0.0
 20
0.0
 30
0.0
210
0.0
220
0.0
230
1.0
  2
SOLID
 70
1
 71
0
 91
1
 92
3
 72
0
 73
1
 93
4
 10
1257.5
 20
1527.5
 10
1270.0
 20
1527.5
 10
1270.0
 20
1492.5
 10
1257.5
 20
1492.5
 97
0
 75
1
 76
1
 98
0
  0
LWPOLYLINE
  5
1A1
330
17
100
AcDbEntity
  8
WALL
100
AcDbPolyline
 90
4
 70
1
 10
1615.0
 20
1530.0
 10
1625.0
 20
1530.0
 10
1625.0
 20
1397.5
 10
1615.0
 20
1397.5
  0
HATCH
  5
1A2
330
17
100
AcDbEntity
  8
WALL
100
AcDbHatch
 10
0.0
 20
0.0
 30
0.0
210
0.0
220
0.0
230
1.0
  2
SOLID
 70
1
 71
0
 91
1
 92
3
 72
0
 73
1
 93
4
 10
1615.0
 20
1530.0
 10
1625.0
 20
1530.0
 10
1625.0
 20
1397.5
 10
1615.0
 20
1397.5
 97
0
 75
1
 76
1
 98
0
  0
LWPOLYLINE
  5
1A3
330
17
100
AcDbEntity
  8
WALL
100
AcDbPolyline
 90
4
 70
1
 10
1775.0
 20
1530.0
 10
1785.0
 20
1530.0
 10
1785.0
 20
1470.0
 10
1775.0
 20
1470.0
  0
HATCH
  5
1A4
330
17
100
AcDbEntity
  8
WALL
100
AcDbHatch
 10
0.0
 20
0.0
 30
0.0
210
0.0
220
0.0
230
1.0
  2
SOLID
 70
1
 71
0
 91
1
 92
3
 72
0
 73
1
 93
4
 10
1775.0
 20
1530.0
 10
1785.0
 20
1530.0
 10
1785.0
 20
1470.0
 10
1775.0
 20
1470.0
 97
0
 75
1
 76
1
 98
0
  0
LWPOLYLINE
  5
1A5
330
17
100
AcDbEntity
  8
WALL
100
AcDbPolyline
 90
4
 70
1
 10
2260.0
 20
1527.5
 10
2267.5
 20
1527.5
 10
2267.5
 20
1492.5
 10
2260.0
 20
1492.5
  0
HATCH
  5
1A6
330
17
100
AcDbEntity
  8
WALL
100
AcDbHatch
 10
0.0
 20
0.0
 30
0.0
210
0.0
220
0.0
230
1.0
  2
SOLID
 70
1
 71
0
 91
1
 92
3
 72
0
 73
1
 93
4
 10
2260.0
 20
1527.5
 10
2267.5
 20
1527.5
 10
2267.5
 20
1492.5
 10
2260.0
 20
1492.5
 97
0
 75
1
 76
1
 98
0
  0
LWPOLYLINE
  5
1A7
330
17
100
AcDbEntity
  8
WALL
100
AcDbPolyline
 90
4
 70
1
 10
1350.0
 20
1525.0
 10
1360.0
 20
1525.0
 10
1360.0
 20
1415.0
 10
1350.0
 20
1415.0
  0
HATCH
  5
1A8
330
17
100
AcDbEntity
  8
WALL
100
AcDbHatch
 10
0.0
 20
0.0
 30
0.0
210
0.0
220
0.0
230
1.0
  2
SOLID
 70
1
 71
0
 91
1
 92
3
 72
0
 73
1
 93
4
 10
1350.0
 20
1525.0
 10
1360.0
 20
1525.0
 10
1360.0
 20
1415.0
 10
1350.0
 20
1415.0
 97
0
 75
1
 76
1
 98
0
  0
LWPOLYLINE
  5
1A9
330
17
100
AcDbEntity
  8
WALL
100
AcDbPolyline
 90
4
 70
1
 10
885.0
 20
1512.5
 10
895.0
 20
1512.5
 10
895.0
 20
1467.5
 10
885.0
 20
1467.5
  0
HATCH
  5
1AA
330
17
100
AcDbEntity
  8
WALL
100
AcDbHatch
 10
0.0
 20
0.0
 30
0.0
210
0.0
220
0.0
230
1.0
  2
SOLID
 70
1
 71
0
 91
1
 92
3
 72
0
 73
1
 93
4
 10
885.0
 20
1512.5
 10
895.0
 20
1512.5
 10
895.0
 20
1467.5
 10
885.0
 20
1467.5
 97
0
 75
1
 76
1
 98
0
  0
LWPOLYLINE
  5
1AB
330
17
100
AcDbEntity
  8
WALL
100
AcDbPolyline
 90
4
 70
1
 10
1030.0
 20
1512.5
 10
1040.0
 20
1512.5
 10
1040.0
 20
1467.5
 10
1030.0
 20
1467.5
  0
HATCH
  5
1AC
330
17
100
AcDbEntity
  8
WALL
100
AcDbHatch
 10
0.0
 20
0.0
 30
0.0
210
0.0
220
0.0
230
1.0
  2
SOLID
 70
1
 71
0
 91
1
 92
3
 72
0
 73
1
 93
4
 10
1030.0
 20
1512.5
 10
1040.0
 20
1512.5
 10
1040.0
 20
1467.5
 10
1030.0
 20
1467.5
 97
0
 75
1
 76
1
 98
0
  0
LWPOLYLINE
  5
1AD
330
17
100
AcDbEntity
  8
WALL
100
AcDbPolyline
 90
4
 70
1
 10
747.5
 20
1502.5
 10
755.0
 20
1502.5
 10
755.0
 20
1467.5
 10
747.5
 20
1467.5
  0
HATCH
  5
1AE
330
17
100
AcDbEntity
  8
WALL
100
AcDbHatch
 10
0.0
 20
0.0
 30
0.0
210
0.0
220
0.0
230
1.0
  2
SOLID
 70
1
 71
0
 91
1
 92
3
 72
0
 73
1
 93
4
 10
747.5
 20
1502.5
 10
755.0
 20
1502.5
 10
755.0
 20
1467.5
 10
747.5
 20
1467.5
 97
0
 75
1
 76
1
 98
0
  0
LWPOLYLINE
  5
1AF
330
17
100
AcDbEntity
  8
WALL
100
AcDbPolyline
 90
4
 70
1
 10
2350.0
 20
1480.0
 10
2360.0
 20
1480.0
 10
2360.0
 20
1405.0
 10
2350.0
 20
1405.0
  0
HATCH
  5
1B0
330
17
100
AcDbEntity
  8
WALL
100
AcDbHatch
 10
0.0
 20
0.0
 30
0.0
210
0.0
220
0.0
230
1.0
  2
SOLID
 70
1
 71
0
 91
1
 92
3
 72
0
 73
1
 93
4
 10
2350.0
 20
1480.0
 10
2360.0
 20
1480.0
 10
2360.0
 20
1405.0
 10
2350.0
 20
1405.0
 97
0
 75
1
 76
1
 98
0
  0
LWPOLYLINE
  5
1B1
330
17
100
AcDbEntity
  8
WALL
100
AcDbPolyline
 90
4
 70
1
 10
1150.0
 20
1470.0
 10
1157.5
 20
1470.0
 10
1157.5
 20
1390.0
 10
1150.0
 20
1390.0
  0
HATCH
  5
1B2
330
17
100
AcDbEntity
  8
WALL
100
AcDbHatch
 10
0.0
 20
0.0
 30
0.0
210
0.0
220
0.0
230
1.0
  2
SOLID
 70
1
 71
0
 91
1
 92
3
 72
0
 73
1
 93
4
 10
1150.0
 20
1470.0
 10
1157.5
 20
1470.0
 10
1157.5
 20
1390.0
 10
1150.0
 20
1390.0
 97
0
 75
1
 76
1
 98
0
  0
LWPOLYLINE
  5
1B3
330
17
100
AcDbEntity
  8
WALL
100
AcDbPolyline
 90
4
 70
1
 10
720.0
 20
1460.0
 10
730.0
 20
1460.0
 10
730.0
 20
1262.5
 10
720.0
 20
1262.5
  0
HATCH
  5
1B4
330
17
100
AcDbEntity
  8
WALL
100
AcDbHatch
 10
0.0
 20
0.0
 30
0.0
210
0.0
220
0.0
230
1.0
  2
SOLID
 70
1
 71
0
 91
1
 92
3
 72
0
 73
1
 93
4
 10
720.0
 20
1460.0
 10
730.0
 20
1460.0
 10
730.0
 20
1262.5
 10
720.0
 20
1262.5
 97
0
 75
1
 76
1
 98
0
  0
LWPOLYLINE
  5
1B5
330
17
100
AcDbEntity
  8
WALL
100
AcDbPolyline
 90
4
 70
1
 10
1780.0
 20
1460.0
 10
1782.5
 20
1460.0
 10
1782.5
 20
1407.5
 10
1780.0
 20
1407.5
  0
HATCH
  5
1B6
330
17
100
AcDbEntity
  8
WALL
100
AcDbHatch
 10
0.0
 20
0.0
 30
0.0
210
0.0
220
0.0
230
1.0
  2
SOLID
 70
1
 71
0
 91
1
 92
3
 72
0
 73
1
 93
4
 10
1780.0
 20
1460.0
 10
1782.5
 20
1460.0
 10
1782.5
 20
1407.5
 10
1780.0
 20
1407.5
 97
0
 75
1
 76
1
 98
0
  0
LWPOLYLINE
  5
1B7
330
17
100
AcDbEntity
  8
WALL
100
AcDbPolyline
 90
4
 70
1
 10
80.0
 20
1452.5
 10
90.0
 20
1452.5
 10
90.0
 20
1412.5
 10
80.0
 20
1412.5
  0
HATCH
  5
1B8
330
17
100
AcDbEntity
  8
WALL
100
AcDbHatch
 10
0.0
 20
0.0
 30
0.0
210
0.0
220
0.0
230
1.0
  2
SOLID
 70
1
 71
0
 91
1
 92
3
 72
0
 73
1
 93
4
 10
80.0
 20
1452.5
 10
90.0
 20
1452.5
 10
90.0
 20
1412.5
 10
80.0
 20
1412.5
 97
0
 75
1
 76
1
 98
0
  0
LWPOLYLINE
  5
1B9
330
17
100
AcDbEntity
  8
WALL
100
AcDbPolyline
 90
4
 70
1
 10
1780.0
 20
1402.5
 10
1782.5
 20
1402.5
 10
1782.5
 20
1370.0
 10
1780.0
 20
1370.0
  0
HATCH
  5
1BA
330
17
100
AcDbEntity
  8
WALL
100
AcDbHatch
 10
0.0
 20
0.0
 30
0.0
210
0.0
220
0.0
230
1.0
  2
SOLID
 70
1
 71
0
 91
1
 92
3
 72
0
 73
1
 93
4
 10
1780.0
 20
1402.5
 10
1782.5
 20
1402.5
 10
1782.5
 20
1370.0
 10
1780.0
 20
1370.0
 97
0
 75
1
 76
1
 98
0
  0
LWPOLYLINE
  5
1BB
330
17
100
AcDbEntity
  8
WALL
100
AcDbPolyline
 90
4
 70
1
 10
2360.0
 20
1402.5
 10
2375.0
 20
1402.5
 10
2375.0
 20
1275.0
 10
2360.0
 20
1275.0
  0
HATCH
  5
1BC
330
17
100
AcDbEntity
  8
WALL
100
AcDbHatch
 10
0.0
 20
0.0
 30
0.0
210
0.0
220
0.0
230
1.0
  2
SOLID
 70
1
 71
0
 91
1
 92
3
 72
0
 73
1
 93
4
 10
2360.0
 20
1402.5
 10
2375.0
 20
1402.5
 10
2375.0
 20
1275.0
 10
2360.0
 20
1275.0
 97
0
 75
1
 76
1
 98
0
  0
LWPOLYLINE
  5
1BD
330
17
100
AcDbEntity
  8
WALL
100
AcDbPolyline
 90
4
 70
1
 10
970.0
 20
1397.5
 10
975.0
 20
1397.5
 10
975.0
 20
1362.5
 10
970.0
 20
1362.5
  0
HATCH
  5
1BE
330
17
100
AcDbEntity
  8
WALL
100
AcDbHatch
 10
0.0
 20
0.0
 30
0.0
210
0.0
220
0.0
230
1.0
  2
SOLID
 70
1
 71
0
 91
1
 92
3
 72
0
 73
1
 93
4
 10
970.0
 20
1397.5
 10
975.0
 20
1397.5
 10
975.0
 20
1362.5
 10
970.0
 20
1362.5
 97
0
 75
1
 76
1
 98
0
  0
LWPOLYLINE
  5
1BF
330
17
100
AcDbEntity
  8
WALL
100
AcDbPolyline
 90
4
 70
1
 10
80.0
 20
1372.5
 10
90.0
 20
1372.5
 10
90.0
 20
1332.5
 10
80.0
 20
1332.5
  0
HATCH
  5
1C0
330
17
100
AcDbEntity
  8
WALL
100
AcDbHatch
 10
0.0
 20
0.0
 30
0.0
210
0.0
220
0.0
230
1.0
  2
SOLID
 70
1
 71
0
 91
1
 92
3
 72
0
 73
1
 93
4
 10
80.0
 20
1372.5
 10
90.0
 20
1372.5
 10
90.0
 20
1332.5
 10
80.0
 20
1332.5
 97
0
 75
1
 76
1
 98
0
  0
LWPOLYLINE
  5
1C1
330
17
100
AcDbEntity
  8
WALL
100
AcDbPolyline
 90
4
 70
1
 10
1150.0
 20
1375.0
 10
1157.5
 20
1375.0
 10
1157.5
 20
1310.0
 10
1150.0
 20
1310.0
  0
HATCH
  5
1C2
330
17
100
AcDbEntity
  8
WALL
100
AcDbHatch
 10
0.0
 20
0.0
 30
0.0
210
0.0
220
0.0
230
1.0
  2
SOLID
 70
1
 71
0
 91
1
 92
3
 72
0
 73
1
 93
4
 10
1150.0
 20
1375.0
 10
1157.5
 20
1375.0
 10
1157.5
 20
1310.0
 10
1150.0
 20
1310.0
 97
0
 75
1
 76
1
 98
0
  0
LWPOLYLINE
  5
1C3
330
17
100
AcDbEntity
  8
WALL
100
AcDbPolyline
 90
4
 70
1
 10
2445.0
 20
1367.5
 10
2470.0
 20
1367.5
 10
2470.0
 20
1200.0
 10
2445.0
 20
1200.0
  0
HATCH
  5
1C4
330
17
100
AcDbEntity
  8
WALL
100
AcDbHatch
 10
0.0
 20
0.0
 30
0.0
210
0.0
220
0.0
230
1.0
  2
SOLID
 70
1
 71
0
 91
1
 92
3
 72
0
 73
1
 93
4
 10
2445.0
 20
1367.5
 10
2470.0
 20
1367.5
 10
2470.0
 20
1200.0
 10
2445.0
 20
1200.0
 97
0
 75
1
 76
1
 98
0
  0
LWPOLYLINE
  5
1C5
330
17
100
AcDbEntity
  8
WALL
100
AcDbPolyline
 90
4
 70
1
 10
1760.0
 20
1365.0
 10
1775.0
 20
1365.0
 10
1775.0
 20
1240.0
 10
1760.0
 20
1240.0
  0
HATCH
  5
1C6
330
17
100
AcDbEntity
  8
WALL
100
AcDbHatch
 10
0.0
 20
0.0
 30
0.0
210
0.0
220
0.0
230
1.0
  2
SOLID
 70
1
 71
0
 91
1
 92
3
 72
0
 73
1
 93
4
 10
1760.0
 20
1365.0
 10
1775.0
 20
1365.0
 10
1775.0
 20
1240.0
 10
1760.0
 20
1240.0
 97
0
 75
1
 76
1
 98
0
  0
LWPOLYLINE
  5
1C7
330
17
100
AcDbEntity
  8
WALL
100
AcDbPolyline
 90
4
 70
1
 10
1780.0
 20
1365.0
 10
1782.5
 20
1365.0
 10
1782.5
 20
1335.0
 10
1780.0
 20
1335.0
  0
HATCH
  5
1C8
330
17
100
AcDbEntity
  8
WALL
100
AcDbHatch
 10
0.0
 20
0.0
 30
0.0
210
0.0
220
0.0
230
1.0
  2
SOLID
 70
1
 71
0
 91
1
 92
3
 72
0
 73
1
 93
4
 10
1780.0
 20
1365.0
 10
1782.5
 20
1365.0
 10
1782.5
 20
1335.0
 10
1780.0
 20
1335.0
 97
0
 75
1
 76
1
 98
0
  0
LWPOLYLINE
  5
1C9
330
17
100
AcDbEntity
  8
WALL
100
AcDbPolyline
 90
4
 70
1
 10
2550.0
 20
1312.5
 10
2580.0
 20
1312.5
 10
2580.0
 20
1205.0
 10
2550.0
 20
1205.0
  0
HATCH
  5
1CA
330
17
100
AcDbEntity
  8
WALL
100
AcDbHatch
 10
0.0
 20
0.0
 30
0.0
210
0.0
220
0.0
230
1.0
  2
SOLID
 70
1
 71
0
 91
1
 92
3
 72
0
 73
1
 93
4
 10
2550.0
 20
1312.5
 10
2580.0
 20
1312.5
 10
2580.0
 20
1205.0
 10
2550.0
 20
1205.0
 97
0
 75
1
 76
1
 98
0
  0
LWPOLYLINE
  5
1CB
330
17
100
AcDbEntity
  8
WALL
100
AcDbPolyline
 90
4
 70
1
 10
745.0
 20
1267.5
 10
755.0
 20
1267.5
 10
755.0
 20
1217.5
 10
745.0
 20
1217.5
  0
HATCH
  5
1CC
330
17
100
AcDbEntity
  8
WALL
100
AcDbHatch
 10
0.0
 20
0.0
 30
0.0
210
0.0
220
0.0
230
1.0
  2
SOLID
 70
1
 71
0
 91
1
 92
3
 72
0
 73
1
 93
4
 10
745.0
 20
1267.5
 10
755.0
 20
1267.5
 10
755.0
 20
1217.5
 10
745.0
 20
1217.5
 97
0
 75
1
 76
1
 98
0
  0
LWPOLYLINE
  5
1CD
330
17
100
AcDbEntity
  8
WALL
100
AcDbPolyline
 90
4
 70
1
 10
885.0
 20
1267.5
 10
897.5
 20
1267.5
 10
897.5
 20
1212.5
 10
885.0
 20
1212.5
  0
HATCH
  5
1CE
330
17
100
AcDbEntity
  8
WALL
100
AcDbHatch
 10
0.0
 20
0.0
 30
0.0
210
0.0
220
0.0
230
1.0
  2
SOLID
 70
1
 71
0
 91
1
 92
3
 72
0
 73
1
 93
4
 10
885.0
 20
1267.5
 10
897.5
 20
1267.5
 10
897.5
 20
1212.5
 10
885.0
 20
1212.5
 97
0
 75
1
 76
1
 98
0
  0
LWPOLYLINE
  5
1CF
330
17
100
AcDbEntity
  8
WALL
100
AcDbPolyline
 90
4
 70
1
 10
1025.0
 20
1267.5
 10
1040.0
 20
1267.5
 10
1040.0
 20
1212.5
 10
1025.0
 20
1212.5
  0
HATCH
  5
1D0
330
17
100
AcDbEntity
  8
WALL
100
AcDbHatch
 10
0.0
 20
0.0
 30
0.0
210
0.0
220
0.0
230
1.0
  2
SOLID
 70
1
 71
0
 91
1
 92
3
 72
0
 73
1
 93
4
 10
1025.0
 20
1267.5
 10
1040.0
 20
1267.5
 10
1040.0
 20
1212.5
 10
1025.0
 20
1212.5
 97
0
 75
1
 76
1
 98
0
  0
LWPOLYLINE
  5
1D1
330
17
100
AcDbEntity
  8
WALL
100
AcDbPolyline
 90
4
 70
1
 10
1780.0
 20
1265.0
 10
1782.5
 20
1265.0
 10
1782.5
 20
1235.0
 10
1780.0
 20
1235.0
  0
HATCH
  5
1D2
330
17
100
AcDbEntity
  8
WALL
100
AcDbHatch
 10
0.0
 20
0.0
 30
0.0
210
0.0
220
0.0
230
1.0
  2
SOLID
 70
1
 71
0
 91
1
 92
3
 72
0
 73
1
 93
4
 10
1780.0
 20
1265.0
 10
1782.5
 20
1265.0
 10
1782.5
 20
1235.0
 10
1780.0
 20
1235.0
 97
0
 75
1
 76
1
 98
0
  0
LWPOLYLINE
  5
1D3
330
17
100
AcDbEntity
  8
WALL
100
AcDbPolyline
 90
4
 70
1
 10
200.0
 20
1257.5
 10
210.0
 20
1257.5
 10
210.0
 20
705.0
 10
200.0
 20
705.0
  0
HATCH
  5
1D4
330
17
100
AcDbEntity
  8
WALL
100
AcDbHatch
 10
0.0
 20
0.0
 30
0.0
210
0.0
220
0.0
230
1.0
  2
SOLID
 70
1
 71
0
 91
1
 92
3
 72
0
 73
1
 93
4
 10
200.0
 20
1257.5
 10
210.0
 20
1257.5
 10
210.0
 20
705.0
 10
200.0
 20
705.0
 97
0
 75
1
 76
1
 98
0
  0
LWPOLYLINE
  5
1D5
330
17
100
AcDbEntity
  8
WALL
100
AcDbPolyline
 90
4
 70
1
 10
2362.5
 20
1260.0
 10
2365.0
 20
1260.0
 10
2365.0
 20
1215.0
 10
2362.5
 20
1215.0
  0
HATCH
  5
1D6
330
17
100
AcDbEntity
  8
WALL
100
AcDbHatch
 10
0.0
 20
0.0
 30
0.0
210
0.0
220
0.0
230
1.0
  2
SOLID
 70
1
 71
0
 91
1
 92
3
 72
0
 73
1
 93
4
 10
2362.5
 20
1260.0
 10
2365.0
 20
1260.0
 10
2365.0
 20
1215.0
 10
2362.5
 20
1215.0
 97
0
 75
1
 76
1
 98
0
  0
LWPOLYLINE
  5
1D7
330
17
100
AcDbEntity
  8
WALL
100
AcDbPolyline
 90
4
 70
1
 10
2370.0
 20
1260.0
 10
2372.5
 20
1260.0
 10
2372.5
 20
1200.0
 10
2370.0
 20
1200.0
  0
HATCH
  5
1D8
330
17
100
AcDbEntity
  8
WALL
100
AcDbHatch
 10
0.0
 20
0.0
 30
0.0
210
0.0
220
0.0
230
1.0
  2
SOLID
 70
1
 71
0
 91
1
 92
3
 72
0
 73
1
 93
4
 10
2370.0
 20
1260.0
 10
2372.5
 20
1260.0
 10
2372.5
 20
1200.0
 10
2370.0
 20
1200.0
 97
0
 75
1
 76
1
 98
0
  0
LWPOLYLINE
  5
1D9
330
17
100
AcDbEntity
  8
WALL
100
AcDbPolyline
 90
4
 70
1
 10
2412.5
 20
1177.5
 10
2415.0
 20
1177.5
 10
2415.0
 20
1137.5
 10
2412.5
 20
1137.5
  0
HATCH
  5
1DA
330
17
100
AcDbEntity
  8
WALL
100
AcDbHatch
 10
0.0
 20
0.0
 30
0.0
210
0.0
220
0.0
230
1.0
  2
SOLID
 70
1
 71
0
 91
1
 92
3
 72
0
 73
1
 93
4
 10
2412.5
 20
1177.5
 10
2415.0
 20
1177.5
 10
2415.0
 20
1137.5
 10
2412.5
 20
1137.5
 97
0
 75
1
 76
1
 98
0
  0
LWPOLYLINE
  5
1DB
330
17
100
AcDbEntity
  8
WALL
100
AcDbPolyline
 90
4
 70
1
 10
2540.0
 20
1180.0
 10
2550.0
 20
1180.0
 10
2550.0
 20
1130.0
 10
2540.0
 20
1130.0
  0
HATCH
  5
1DC
330
17
100
AcDbEntity
  8
WALL
100
AcDbHatch
 10
0.0
 20
0.0
 30
0.0
210
0.0
220
0.0
230
1.0
  2
SOLID
 70
1
 71
0
 91
1
 92
3
 72
0
 73
1
 93
4
 10
2540.0
 20
1180.0
 10
2550.0
 20
1180.0
 10
2550.0
 20
1130.0
 10
2540.0
 20
1130.0
 97
0
 75
1
 76
1
 98
0
  0
LWPOLYLINE
  5
1DD
330
17
100
AcDbEntity
  8
WALL
100
AcDbPolyline
 90
4
 70
1
 10
2492.5
 20
1162.5
 10
2500.0
 20
1162.5
 10
2500.0
 20
1132.5
 10
2492.5
 20
1132.5
  0
HATCH
  5
1DE
330
17
100
AcDbEntity
  8
WALL
100
AcDbHatch
 10
0.0
 20
0.0
 30
0.0
210
0.0
220
0.0
230
1.0
  2
SOLID
 70
1
 71
0
 91
1
 92
3
 72
0
 73
1
 93
4
 10
2492.5
 20
1162.5
 10
2500.0
 20
1162.5
 10
2500.0
 20
1132.5
 10
2492.5
 20
1132.5
 97
0
 75
1
 76
1
 98
0
  0
LWPOLYLINE
  5
1DF
330
17
100
AcDbEntity
  8
WALL
100
AcDbPolyline
 90
4
 70
1
 10
2062.5
 20
1150.0
 10
2067.5
 20
1150.0
 10
2067.5
 20
1115.0
 10
2062.5
 20
1115.0
  0
HATCH
  5
1E0
330
17
100
AcDbEntity
  8
WALL
100
AcDbHatch
 10
0.0
 20
0.0
 30
0.0
210
0.0
220
0.0
230
1.0
  2
SOLID
 70
1
 71
0
 91
1
 92
3
 72
0
 73
1
 93
4
 10
2062.5
 20
1150.0
 10
2067.5
 20
1150.0
 10
2067.5
 20
1115.0
 10
2062.5
 20
1115.0
 97
0
 75
1
 76
1
 98
0
  0
LWPOLYLINE
  5
1E1
330
17
100
AcDbEntity
  8
WALL
100
AcDbPolyline
 90
4
 70
1
 10
2225.0
 20
1150.0
 10
2227.5
 20
1150.0
 10
2227.5
 20
1112.5
 10
2225.0
 20
1112.5
  0
HATCH
  5
1E2
330
17
100
AcDbEntity
  8
WALL
100
AcDbHatch
 10
0.0
 20
0.0
 30
0.0
210
0.0
220
0.0
230
1.0
  2
SOLID
 70
1
 71
0
 91
1
 92
3
 72
0
 73
1
 93
4
 10
2225.0
 20
1150.0
 10
2227.5
 20
1150.0
 10
2227.5
 20
1112.5
 10
2225.0
 20
1112.5
 97
0
 75
1
 76
1
 98
0
  0
LWPOLYLINE
  5
1E3
330
17
100
AcDbEntity
  8
WALL
100
AcDbPolyline
 90
4
 70
1
 10
2562.5
 20
1135.0
 10
2565.0
 20
1135.0
 10
2565.0
 20
1105.0
 10
2562.5
 20
1105.0
  0
HATCH
  5
1E4
330
17
100
AcDbEntity
  8
WALL
100
AcDbHatch
 10
0.0
 20
0.0
 30
0.0
210
0.0
220
0.0
230
1.0
  2
SOLID
 70
1
 71
0
 91
1
 92
3
 72
0
 73
1
 93
4
 10
2562.5
 20
1135.0
 10
2565.0
 20
1135.0
 10
2565.0
 20
1105.0
 10
2562.5
 20
1105.0
 97
0
 75
1
 76
1
 98
0
  0
LWPOLYLINE
  5
1E5
330
17
100
AcDbEntity
  8
WALL
100
AcDbPolyline
 90
4
 70
1
 10
2570.0
 20
1107.5
 10
2575.0
 20
1107.5
 10
2575.0
 20
1075.0
 10
2570.0
 20
1075.0
  0
HATCH
  5
1E6
330
17
100
AcDbEntity
  8
WALL
100
AcDbHatch
 10
0.0
 20
0.0
 30
0.0
210
0.0
220
0.0
230
1.0
  2
SOLID
 70
1
 71
0
 91
1
 92
3
 72
0
 73
1
 93
4
 10
2570.0
 20
1107.5
 10
2575.0
 20
1107.5
 10
2575.0
 20
1075.0
 10
2570.0
 20
1075.0
 97
0
 75
1
 76
1
 98
0
  0
LWPOLYLINE
  5
1E7
330
17
100
AcDbEntity
  8
WALL
100
AcDbPolyline
 90
4
 70
1
 10
2020.0
 20
1082.5
 10
2030.0
 20
1082.5
 10
2030.0
 20
1042.5
 10
2020.0
 20
1042.5
  0
HATCH
  5
1E8
330
17
100
AcDbEntity
  8
WALL
100
AcDbHatch
 10
0.0
 20
0.0
 30
0.0
210
0.0
220
0.0
230
1.0
  2
SOLID
 70
1
 71
0
 91
1
 92
3
 72
0
 73
1
 93
4
 10
2020.0
 20
1082.5
 10
2030.0
 20
1082.5
 10
2030.0
 20
1042.5
 10
2020.0
 20
1042.5
 97
0
 75
1
 76
1
 98
0
  0
LWPOLYLINE
  5
1E9
330
17
100
AcDbEntity
  8
WALL
100
AcDbPolyline
 90
4
 70
1
 10
2430.0
 20
1032.5
 10
2445.0
 20
1032.5
 10
2445.0
 20
827.5
 10
2430.0
 20
827.5
  0
HATCH
  5
1EA
330
17
100
AcDbEntity
  8
WALL
100
AcDbHatch
 10
0.0
 20
0.0
 30
0.0
210
0.0
220
0.0
230
1.0
  2
SOLID
 70
1
 71
0
 91
1
 92
3
 72
0
 73
1
 93
4
 10
2430.0
 20
1032.5
 10
2445.0
 20
1032.5
 10
2445.0
 20
827.5
 10
2430.0
 20
827.5
 97
0
 75
1
 76
1
 98
0
  0
LWPOLYLINE
  5
1EB
330
17
100
AcDbEntity
  8
WALL
100
AcDbPolyline
 90
4
 70
1
 10
55.0
 20
987.5
 10
70.0
 20
987.5
 10
70.0
 20
952.5
 10
55.0
 20
952.5
  0
HATCH
  5
1EC
330
17
100
AcDbEntity
  8
WALL
100
AcDbHatch
 10
0.0
 20
0.0
 30
0.0
210
0.0
220
0.0
230
1.0
  2
SOLID
 70
1
 71
0
 91
1
 92
3
 72
0
 73
1
 93
4
 10
55.0
 20
987.5
 10
70.0
 20
987.5
 10
70.0
 20
952.5
 10
55.0
 20
952.5
 97
0
 75
1
 76
1
 98
0
  0
LWPOLYLINE
  5
1ED
330
17
100
AcDbEntity
  8
WALL
100
AcDbPolyline
 90
4
 70
1
 10
462.5
 20
987.5
 10
465.0
 20
987.5
 10
465.0
 20
947.5
 10
462.5
 20
947.5
  0
HATCH
  5
1EE
330
17
100
AcDbEntity
  8
WALL
100
AcDbHatch
 10
0.0
 20
0.0
 30
0.0
210
0.0
220
0.0
230
1.0
  2
SOLID
 70
1
 71
0
 91
1
 92
3
 72
0
 73
1
 93
4
 10
462.5
 20
987.5
 10
465.0
 20
987.5
 10
465.0
 20
947.5
 10
462.5
 20
947.5
 97
0
 75
1
 76
1
 98
0
  0
LWPOLYLINE
  5
1EF
330
17
100
AcDbEntity
  8
WALL
100
AcDbPolyline
 90
4
 70
1
 10
2370.0
 20
982.5
 10
2380.0
 20
982.5
 10
2380.0
 20
890.0
 10
2370.0
 20
890.0
  0
HATCH
  5
1F0
330
17
100
AcDbEntity
  8
WALL
100
AcDbHatch
 10
0.0
 20
0.0
 30
0.0
210
0.0
220
0.0
230
1.0
  2
SOLID
 70
1
 71
0
 91
1
 92
3
 72
0
 73
1
 93
4
 10
2370.0
 20
982.5
 10
2380.0
 20
982.5
 10
2380.0
 20
890.0
 10
2370.0
 20
890.0
 97
0
 75
1
 76
1
 98
0
  0
LWPOLYLINE
  5
1F1
330
17
100
AcDbEntity
  8
WALL
100
AcDbPolyline
 90
4
 70
1
 10
1495.0
 20
942.5
 10
1520.0
 20
942.5
 10
1520.0
 20
835.0
 10
1495.0
 20
835.0
  0
HATCH
  5
1F2
330
17
100
AcDbEntity
  8
WALL
100
AcDbHatch
 10
0.0
 20
0.0
 30
0.0
210
0.0
220
0.0
230
1.0
  2
SOLID
 70
1
 71
0
 91
1
 92
3
 72
0
 73
1
 93
4
 10
1495.0
 20
942.5
 10
1520.0
 20
942.5
 10
1520.0
 20
835.0
 10
1495.0
 20
835.0
 97
0
 75
1
 76
1
 98
0
  0
LWPOLYLINE
  5
1F3
330
17
100
AcDbEntity
  8
WALL
100
AcDbPolyline
 90
4
 70
1
 10
1005.0
 20
927.5
 10
1025.0
 20
927.5
 10
1025.0
 20
792.5
 10
1005.0
 20
792.5
  0
HATCH
  5
1F4
330
17
100
AcDbEntity
  8
WALL
100
AcDbHatch
 10
0.0
 20
0.0
 30
0.0
210
0.0
220
0.0
230
1.0
  2
SOLID
 70
1
 71
0
 91
1
 92
3
 72
0
 73
1
 93
4
 10
1005.0
 20
927.5
 10
1025.0
 20
927.5
 10
1025.0
 20
792.5
 10
1005.0
 20
792.5
 97
0
 75
1
 76
1
 98
0
  0
LWPOLYLINE
  5
1F5
330
17
100
AcDbEntity
  8
WALL
100
AcDbPolyline
 90
4
 70
1
 10
1815.0
 20
930.0
 10
1825.0
 20
930.0
 10
1825.0
 20
870.0
 10
1815.0
 20
870.0
  0
HATCH
  5
1F6
330
17
100
AcDbEntity
  8
WALL
100
AcDbHatch
 10
0.0
 20
0.0
 30
0.0
210
0.0
220
0.0
230
1.0
  2
SOLID
 70
1
 71
0
 91
1
 92
3
 72
0
 73
1
 93
4
 10
1815.0
 20
930.0
 10
1825.0
 20
930.0
 10
1825.0
 20
870.0
 10
1815.0
 20
870.0
 97
0
 75
1
 76
1
 98
0
  0
LWPOLYLINE
  5
1F7
330
17
100
AcDbEntity
  8
WALL
100
AcDbPolyline
 90
4
 70
1
 10
60.0
 20
922.5
 10
85.0
 20
922.5
 10
85.0
 20
877.5
 10
60.0
 20
877.5
  0
HATCH
  5
1F8
330
17
100
AcDbEntity
  8
WALL
100
AcDbHatch
 10
0.0
 20
0.0
 30
0.0
210
0.0
220
0.0
230
1.0
  2
SOLID
 70
1
 71
0
 91
1
 92
3
 72
0
 73
1
 93
4
 10
60.0
 20
922.5
 10
85.0
 20
922.5
 10
85.0
 20
877.5
 10
60.0
 20
877.5
 97
0
 75
1
 76
1
 98
0
  0
LWPOLYLINE
  5
1F9
330
17
100
AcDbEntity
  8
WALL
100
AcDbPolyline
 90
4
 70
1
 10
2577.5
 20
920.0
 10
2580.0
 20
920.0
 10
2580.0
 20
890.0
 10
2577.5
 20
890.0
  0
HATCH
  5
1FA
330
17
100
AcDbEntity
  8
WALL
100
AcDbHatch
 10
0.0
 20
0.0
 30
0.0
210
0.0
220
0.0
230
1.0
  2
SOLID
 70
1
 71
0
 91
1
 92
3
 72
0
 73
1
 93
4
 10
2577.5
 20
920.0
 10
2580.0
 20
920.0
 10
2580.0
 20
890.0
 10
2577.5
 20
890.0
 97
0
 75
1
 76
1
 98
0
  0
LWPOLYLINE
  5
1FB
330
17
100
AcDbEntity
  8
WALL
100
AcDbPolyline
 90
4
 70
1
 10
2585.0
 20
920.0
 10
2587.5
 20
920.0
 10
2587.5
 20
890.0
 10
2585.0
 20
890.0
  0
HATCH
  5
1FC
330
17
100
AcDbEntity
  8
WALL
100
AcDbHatch
 10
0.0
 20
0.0
 30
0.0
210
0.0
220
0.0
230
1.0
  2
SOLID
 70
1
 71
0
 91
1
 92
3
 72
0
 73
1
 93
4
 10
2585.0
 20
920.0
 10
2587.5
 20
920.0
 10
2587.5
 20
890.0
 10
2585.0
 20
890.0
 97
0
 75
1
 76
1
 98
0
  0
LWPOLYLINE
  5
1FD
330
17
100
AcDbEntity
  8
WALL
100
AcDbPolyline
 90
4
 70
1
 10
92.5
 20
910.0
 10
102.5
 20
910.0
 10
102.5
 20
867.5
 10
92.5
 20
867.5
  0
HATCH
  5
1FE
330
17
100
AcDbEntity
  8
WALL
100
AcDbHatch
 10
0.0
 20
0.0
 30
0.0
210
0.0
220
0.0
230
1.0
  2
SOLID
 70
1
 71
0
 91
1
 92
3
 72
0
 73
1
 93
4
 10
92.5
 20
910.0
 10
102.5
 20
910.0
 10
102.5
 20
867.5
 10
92.5
 20
867.5
 97
0
 75
1
 76
1
 98
0
  0
LWPOLYLINE
  5
1FF
330
17
100
AcDbEntity
  8
WALL
100
AcDbPolyline
 90
4
 70
1
 10
1635.0
 20
897.5
 10
1645.0
 20
897.5
 10
1645.0
 20
860.0
 10
1635.0
 20
860.0
  0
HATCH
  5
200
330
17
100
AcDbEntity
  8
WALL
100
AcDbHatch
 10
0.0
 20
0.0
 30
0.0
210
0.0
220
0.0
230
1.0
  2
SOLID
 70
1
 71
0
 91
1
 92
3
 72
0
 73
1
 93
4
 10
1635.0
 20
897.5
 10
1645.0
 20
897.5
 10
1645.0
 20
860.0
 10
1635.0
 20
860.0
 97
0
 75
1
 76
1
 98
0
  0
LWPOLYLINE
  5
201
330
17
100
AcDbEntity
  8
WALL
100
AcDbPolyline
 90
4
 70
1
 10
2472.5
 20
897.5
 10
2475.0
 20
897.5
 10
2475.0
 20
862.5
 10
2472.5
 20
862.5
  0
HATCH
  5
202
330
17
100
AcDbEntity
  8
WALL
100
AcDbHatch
 10
0.0
 20
0.0
 30
0.0
210
0.0
220
0.0
230
1.0
  2
SOLID
 70
1
 71
0
 91
1
 92
3
 72
0
 73
1
 93
4
 10
2472.5
 20
897.5
 10
2475.0
 20
897.5
 10
2475.0
 20
862.5
 10
2472.5
 20
862.5
 97
0
 75
1
 76
1
 98
0
  0
LWPOLYLINE
  5
203
330
17
100
AcDbEntity
  8
WALL
100
AcDbPolyline
 90
4
 70
1
 10
500.0
 20
895.0
 10
510.0
 20
895.0
 10
510.0
 20
410.0
 10
500.0
 20
410.0
  0
HATCH
  5
204
330
17
100
AcDbEntity
  8
WALL
100
AcDbHatch
 10
0.0
 20
0.0
 30
0.0
210
0.0
220
0.0
230
1.0
  2
SOLID
 70
1
 71
0
 91
1
 92
3
 72
0
 73
1
 93
4
 10
500.0
 20
895.0
 10
510.0
 20
895.0
 10
510.0
 20
410.0
 10
500.0
 20
410.0
 97
0
 75
1
 76
1
 98
0
  0
LWPOLYLINE
  5
205
330
17
100
AcDbEntity
  8
WALL
100
AcDbPolyline
 90
4
 70
1
 10
2100.0
 20
817.5
 10
2110.0
 20
817.5
 10
2110.0
 20
750.0
 10
2100.0
 20
750.0
  0
HATCH
  5
206
330
17
100
AcDbEntity
  8
WALL
100
AcDbHatch
 10
0.0
 20
0.0
 30
0.0
210
0.0
220
0.0
230
1.0
  2
SOLID
 70
1
 71
0
 91
1
 92
3
 72
0
 73
1
 93
4
 10
2100.0
 20
817.5
 10
2110.0
 20
817.5
 10
2110.0
 20
750.0
 10
2100.0
 20
750.0
 97
0
 75
1
 76
1
 98
0
  0
LWPOLYLINE
  5
207
330
17
100
AcDbEntity
  8
WALL
100
AcDbPolyline
 90
4
 70
1
 10
2550.0
 20
815.0
 10
2560.0
 20
815.0
 10
2560.0
 20
742.5
 10
2550.0
 20
742.5
  0
HATCH
  5
208
330
17
100
AcDbEntity
  8
WALL
100
AcDbHatch
 10
0.0
 20
0.0
 30
0.0
210
0.0
220
0.0
230
1.0
  2
SOLID
 70
1
 71
0
 91
1
 92
3
 72
0
 73
1
 93
4
 10
2550.0
 20
815.0
 10
2560.0
 20
815.0
 10
2560.0
 20
742.5
 10
2550.0
 20
742.5
 97
0
 75
1
 76
1
 98
0
  0
LWPOLYLINE
  5
209
330
17
100
AcDbEntity
  8
WALL
100
AcDbPolyline
 90
4
 70
1
 10
2575.0
 20
815.0
 10
2580.0
 20
815.0
 10
2580.0
 20
780.0
 10
2575.0
 20
780.0
  0
HATCH
  5
20A
330
17
100
AcDbEntity
  8
WALL
100
AcDbHatch
 10
0.0
 20
0.0
 30
0.0
210
0.0
220
0.0
230
1.0
  2
SOLID
 70
1
 71
0
 91
1
 92
3
 72
0
 73
1
 93
4
 10
2575.0
 20
815.0
 10
2580.0
 20
815.0
 10
2580.0
 20
780.0
 10
2575.0
 20
780.0
 97
0
 75
1
 76
1
 98
0
  0
LWPOLYLINE
  5
20B
330
17
100
AcDbEntity
  8
WALL
100
AcDbPolyline
 90
4
 70
1
 10
1710.0
 20
787.5
 10
1720.0
 20
787.5
 10
1720.0
 20
730.0
 10
1710.0
 20
730.0
  0
HATCH
  5
20C
330
17
100
AcDbEntity
  8
WALL
100
AcDbHatch
 10
0.0
 20
0.0
 30
0.0
210
0.0
220
0.0
230
1.0
  2
SOLID
 70
1
 71
0
 91
1
 92
3
 72
0
 73
1
 93
4
 10
1710.0
 20
787.5
 10
1720.0
 20
787.5
 10
1720.0
 20
730.0
 10
1710.0
 20
730.0
 97
0
 75
1
 76
1
 98
0
  0
LWPOLYLINE
  5
20D
330
17
100
AcDbEntity
  8
WALL
100
AcDbPolyline
 90
4
 70
1
 10
915.0
 20
762.5
 10
925.0
 20
762.5
 10
925.0
 20
660.0
 10
915.0
 20
660.0
  0
HATCH
  5
20E
330
17
100
AcDbEntity
  8
WALL
100
AcDbHatch
 10
0.0
 20
0.0
 30
0.0
210
0.0
220
0.0
230
1.0
  2
SOLID
 70
1
 71
0
 91
1
 92
3
 72
0
 73
1
 93
4
 10
915.0
 20
762.5
 10
925.0
 20
762.5
 10
925.0
 20
660.0
 10
915.0
 20
660.0
 97
0
 75
1
 76
1
 98
0
  0
LWPOLYLINE
  5
20F
330
17
100
AcDbEntity
  8
WALL
100
AcDbPolyline
 90
4
 70
1
 10
850.0
 20
757.5
 10
867.5
 20
757.5
 10
867.5
 20
622.5
 10
850.0
 20
622.5
  0
HATCH
  5
210
330
17
100
AcDbEntity
  8
WALL
100
AcDbHatch
 10
0.0
 20
0.0
 30
0.0
210
0.0
220
0.0
230
1.0
  2
SOLID
 70
1
 71
0
 91
1
 92
3
 72
0
 73
1
 93
4
 10
850.0
 20
757.5
 10
867.5
 20
757.5
 10
867.5
 20
622.5
 10
850.0
 20
622.5
 97
0
 75
1
 76
1
 98
0
  0
LWPOLYLINE
  5
211
330
17
100
AcDbEntity
  8
WALL
100
AcDbPolyline
 90
4
 70
1
 10
730.0
 20
755.0
 10
740.0
 20
755.0
 10
740.0
 20
717.5
 10
730.0
 20
717.5
  0
HATCH
  5
212
330
17
100
AcDbEntity
  8
WALL
100
AcDbHatch
 10
0.0
 20
0.0
 30
0.0
210
0.0
220
0.0
230
1.0
  2
SOLID
 70
1
 71
0
 91
1
 92
3
 72
0
 73
1
 93
4
 10
730.0
 20
755.0
 10
740.0
 20
755.0
 10
740.0
 20
717.5
 10
730.0
 20
717.5
 97
0
 75
1
 76
1
 98
0
  0
LWPOLYLINE
  5
213
330
17
100
AcDbEntity
  8
WALL
100
AcDbPolyline
 90
4
 70
1
 10
745.0
 20
755.0
 10
747.5
 20
755.0
 10
747.5
 20
700.0
 10
745.0
 20
700.0
  0
HATCH
  5
214
330
17
100
AcDbEntity
  8
WALL
100
AcDbHatch
 10
0.0
 20
0.0
 30
0.0
210
0.0
220
0.0
230
1.0
  2
SOLID
 70
1
 71
0
 91
1
 92
3
 72
0
 73
1
 93
4
 10
745.0
 20
755.0
 10
747.5
 20
755.0
 10
747.5
 20
700.0
 10
745.0
 20
700.0
 97
0
 75
1
 76
1
 98
0
  0
LWPOLYLINE
  5
215
330
17
100
AcDbEntity
  8
WALL
100
AcDbPolyline
 90
4
 70
1
 10
62.5
 20
742.5
 10
85.0
 20
742.5
 10
85.0
 20
702.5
 10
62.5
 20
702.5
  0
HATCH
  5
216
330
17
100
AcDbEntity
  8
WALL
100
AcDbHatch
 10
0.0
 20
0.0
 30
0.0
210
0.0
220
0.0
230
1.0
  2
SOLID
 70
1
 71
0
 91
1
 92
3
 72
0
 73
1
 93
4
 10
62.5
 20
742.5
 10
85.0
 20
742.5
 10
85.0
 20
702.5
 10
62.5
 20
702.5
 97
0
 75
1
 76
1
 98
0
  0
LWPOLYLINE
  5
217
330
17
100
AcDbEntity
  8
WALL
100
AcDbPolyline
 90
4
 70
1
 10
722.5
 20
740.0
 10
725.0
 20
740.0
 10
725.0
 20
690.0
 10
722.5
 20
690.0
  0
HATCH
  5
218
330
17
100
AcDbEntity
  8
WALL
100
AcDbHatch
 10
0.0
 20
0.0
 30
0.0
210
0.0
220
0.0
230
1.0
  2
SOLID
 70
1
 71
0
 91
1
 92
3
 72
0
 73
1
 93
4
 10
722.5
 20
740.0
 10
725.0
 20
740.0
 10
725.0
 20
690.0
 10
722.5
 20
690.0
 97
0
 75
1
 76
1
 98
0
  0
LWPOLYLINE
  5
219
330
17
100
AcDbEntity
  8
WALL
100
AcDbPolyline
 90
4
 70
1
 10
102.5
 20
715.0
 10
107.5
 20
715.0
 10
107.5
 20
682.5
 10
102.5
 20
682.5
  0
HATCH
  5
21A
330
17
100
AcDbEntity
  8
WALL
100
AcDbHatch
 10
0.0
 20
0.0
 30
0.0
210
0.0
220
0.0
230
1.0
  2
SOLID
 70
1
 71
0
 91
1
 92
3
 72
0
 73
1
 93
4
 10
102.5
 20
715.0
 10
107.5
 20
715.0
 10
107.5
 20
682.5
 10
102.5
 20
682.5
 97
0
 75
1
 76
1
 98
0
  0
LWPOLYLINE
  5
21B
330
17
100
AcDbEntity
  8
WALL
100
AcDbPolyline
 90
4
 70
1
 10
732.5
 20
702.5
 10
735.0
 20
702.5
 10
735.0
 20
672.5
 10
732.5
 20
672.5
  0
HATCH
  5
21C
330
17
100
AcDbEntity
  8
WALL
100
AcDbHatch
 10
0.0
 20
0.0
 30
0.0
210
0.0
220
0.0
230
1.0
  2
SOLID
 70
1
 71
0
 91
1
 92
3
 72
0
 73
1
 93
4
 10
732.5
 20
702.5
 10
735.0
 20
702.5
 10
735.0
 20
672.5
 10
732.5
 20
672.5
 97
0
 75
1
 76
1
 98
0
  0
LWPOLYLINE
  5
21D
330
17
100
AcDbEntity
  8
WALL
100
AcDbPolyline
 90
4
 70
1
 10
745.0
 20
685.0
 10
747.5
 20
685.0
 10
747.5
 20
635.0
 10
745.0
 20
635.0
  0
HATCH
  5
21E
330
17
100
AcDbEntity
  8
WALL
100
AcDbHatch
 10
0.0
 20
0.0
 30
0.0
210
0.0
220
0.0
230
1.0
  2
SOLID
 70
1
 71
0
 91
1
 92
3
 72
0
 73
1
 93
4
 10
745.0
 20
685.0
 10
747.5
 20
685.0
 10
747.5
 20
635.0
 10
745.0
 20
635.0
 97
0
 75
1
 76
1
 98
0
  0
LWPOLYLINE
  5
21F
330
17
100
AcDbEntity
  8
WALL
100
AcDbPolyline
 90
4
 70
1
 10
1745.0
 20
682.5
 10
1750.0
 20
682.5
 10
1750.0
 20
650.0
 10
1745.0
 20
650.0
  0
HATCH
  5
220
330
17
100
AcDbEntity
  8
WALL
100
AcDbHatch
 10
0.0
 20
0.0
 30
0.0
210
0.0
220
0.0
230
1.0
  2
SOLID
 70
1
 71
0
 91
1
 92
3
 72
0
 73
1
 93
4
 10
1745.0
 20
682.5
 10
1750.0
 20
682.5
 10
1750.0
 20
650.0
 10
1745.0
 20
650.0
 97
0
 75
1
 76
1
 98
0
  0
LWPOLYLINE
  5
221
330
17
100
AcDbEntity
  8
WALL
100
AcDbPolyline
 90
4
 70
1
 10
2550.0
 20
682.5
 10
2570.0
 20
682.5
 10
2570.0
 20
632.5
 10
2550.0
 20
632.5
  0
HATCH
  5
222
330
17
100
AcDbEntity
  8
WALL
100
AcDbHatch
 10
0.0
 20
0.0
 30
0.0
210
0.0
220
0.0
230
1.0
  2
SOLID
 70
1
 71
0
 91
1
 92
3
 72
0
 73
1
 93
4
 10
2550.0
 20
682.5
 10
2570.0
 20
682.5
 10
2570.0
 20
632.5
 10
2550.0
 20
632.5
 97
0
 75
1
 76
1
 98
0
  0
LWPOLYLINE
  5
223
330
17
100
AcDbEntity
  8
WALL
100
AcDbPolyline
 90
4
 70
1
 10
200.0
 20
670.0
 10
210.0
 20
670.0
 10
210.0
 20
397.5
 10
200.0
 20
397.5
  0
HATCH
  5
224
330
17
100
AcDbEntity
  8
WALL
100
AcDbHatch
 10
0.0
 20
0.0
 30
0.0
210
0.0
220
0.0
230
1.0
  2
SOLID
 70
1
 71
0
 91
1
 92
3
 72
0
 73
1
 93
4
 10
200.0
 20
670.0
 10
210.0
 20
670.0
 10
210.0
 20
397.5
 10
200.0
 20
397.5
 97
0
 75
1
 76
1
 98
0
  0
LWPOLYLINE
  5
225
330
17
100
AcDbEntity
  8
WALL
100
AcDbPolyline
 90
4
 70
1
 10
302.5
 20
660.0
 10
305.0
 20
660.0
 10
305.0
 20
605.0
 10
302.5
 20
605.0
  0
HATCH
  5
226
330
17
100
AcDbEntity
  8
WALL
100
AcDbHatch
 10
0.0
 20
0.0
 30
0.0
210
0.0
220
0.0
230
1.0
  2
SOLID
 70
1
 71
0
 91
1
 92
3
 72
0
 73
1
 93
4
 10
302.5
 20
660.0
 10
305.0
 20
660.0
 10
305.0
 20
605.0
 10
302.5
 20
605.0
 97
0
 75
1
 76
1
 98
0
  0
LWPOLYLINE
  5
227
330
17
100
AcDbEntity
  8
WALL
100
AcDbPolyline
 90
4
 70
1
 10
1715.0
 20
655.0
 10
1717.5
 20
655.0
 10
1717.5
 20
625.0
 10
1715.0
 20
625.0
  0
HATCH
  5
228
330
17
100
AcDbEntity
  8
WALL
100
AcDbHatch
 10
0.0
 20
0.0
 30
0.0
210
0.0
220
0.0
230
1.0
  2
SOLID
 70
1
 71
0
 91
1
 92
3
 72
0
 73
1
 93
4
 10
1715.0
 20
655.0
 10
1717.5
 20
655.0
 10
1717.5
 20
625.0
 10
1715.0
 20
625.0
 97
0
 75
1
 76
1
 98
0
  0
LWPOLYLINE
  5
229
330
17
100
AcDbEntity
  8
WALL
100
AcDbPolyline
 90
4
 70
1
 10
1825.0
 20
620.0
 10
1845.0
 20
620.0
 10
1845.0
 20
575.0
 10
1825.0
 20
575.0
  0
HATCH
  5
22A
330
17
100
AcDbEntity
  8
WALL
100
AcDbHatch
 10
0.0
 20
0.0
 30
0.0
210
0.0
220
0.0
230
1.0
  2
SOLID
 70
1
 71
0
 91
1
 92
3
 72
0
 73
1
 93
4
 10
1825.0
 20
620.0
 10
1845.0
 20
620.0
 10
1845.0
 20
575.0
 10
1825.0
 20
575.0
 97
0
 75
1
 76
1
 98
0
  0
LWPOLYLINE
  5
22B
330
17
100
AcDbEntity
  8
WALL
100
AcDbPolyline
 90
4
 70
1
 10
1827.5
 20
560.0
 10
1830.0
 20
560.0
 10
1830.0
 20
520.0
 10
1827.5
 20
520.0
  0
HATCH
  5
22C
330
17
100
AcDbEntity
  8
WALL
100
AcDbHatch
 10
0.0
 20
0.0
 30
0.0
210
0.0
220
0.0
230
1.0
  2
SOLID
 70
1
 71
0
 91
1
 92
3
 72
0
 73
1
 93
4
 10
1827.5
 20
560.0
 10
1830.0
 20
560.0
 10
1830.0
 20
520.0
 10
1827.5
 20
520.0
 97
0
 75
1
 76
1
 98
0
  0
LWPOLYLINE
  5
22D
330
17
100
AcDbEntity
  8
WALL
100
AcDbPolyline
 90
4
 70
1
 10
1825.0
 20
510.0
 10
1847.5
 20
510.0
 10
1847.5
 20
415.0
 10
1825.0
 20
415.0
  0
HATCH
  5
22E
330
17
100
AcDbEntity
  8
WALL
100
AcDbHatch
 10
0.0
 20
0.0
 30
0.0
210
0.0
220
0.0
230
1.0
  2
SOLID
 70
1
 71
0
 91
1
 92
3
 72
0
 73
1
 93
4
 10
1825.0
 20
510.0
 10
1847.5
 20
510.0
 10
1847.5
 20
415.0
 10
1825.0
 20
415.0
 97
0
 75
1
 76
1
 98
0
  0
LWPOLYLINE
  5
22F
330
17
100
AcDbEntity
  8
WALL
100
AcDbPolyline
 90
4
 70
1
 10
2435.0
 20
472.5
 10
2445.0
 20
472.5
 10
2445.0
 20
275.0
 10
2435.0
 20
275.0
  0
HATCH
  5
230
330
17
100
AcDbEntity
  8
WALL
100
AcDbHatch
 10
0.0
 20
0.0
 30
0.0
210
0.0
220
0.0
230
1.0
  2
SOLID
 70
1
 71
0
 91
1
 92
3
 72
0
 73
1
 93
4
 10
2435.0
 20
472.5
 10
2445.0
 20
472.5
 10
2445.0
 20
275.0
 10
2435.0
 20
275.0
 97
0
 75
1
 76
1
 98
0
  0
LWPOLYLINE
  5
231
330
17
100
AcDbEntity
  8
WALL
100
AcDbPolyline
 90
4
 70
1
 10
2472.5
 20
437.5
 10
2475.0
 20
437.5
 10
2475.0
 20
402.5
 10
2472.5
 20
402.5
  0
HATCH
  5
232
330
17
100
AcDbEntity
  8
WALL
100
AcDbHatch
 10
0.0
 20
0.0
 30
0.0
210
0.0
220
0.0
230
1.0
  2
SOLID
 70
1
 71
0
 91
1
 92
3
 72
0
 73
1
 93
4
 10
2472.5
 20
437.5
 10
2475.0
 20
437.5
 10
2475.0
 20
402.5
 10
2472.5
 20
402.5
 97
0
 75
1
 76
1
 98
0
  0
LWPOLYLINE
  5
233
330
17
100
AcDbEntity
  8
WALL
100
AcDbPolyline
 90
4
 70
1
 10
55.0
 20
432.5
 10
75.0
 20
432.5
 10
75.0
 20
392.5
 10
55.0
 20
392.5
  0
HATCH
  5
234
330
17
100
AcDbEntity
  8
WALL
100
AcDbHatch
 10
0.0
 20
0.0
 30
0.0
210
0.0
220
0.0
230
1.0
  2
SOLID
 70
1
 71
0
 91
1
 92
3
 72
0
 73
1
 93
4
 10
55.0
 20
432.5
 10
75.0
 20
432.5
 10
75.0
 20
392.5
 10
55.0
 20
392.5
 97
0
 75
1
 76
1
 98
0
  0
LWPOLYLINE
  5
235
330
17
100
AcDbEntity
  8
WALL
100
AcDbPolyline
 90
4
 70
1
 10
1825.0
 20
415.0
 10
1845.0
 20
415.0
 10
1845.0
 20
335.0
 10
1825.0
 20
335.0
  0
HATCH
  5
236
330
17
100
AcDbEntity
  8
WALL
100
AcDbHatch
 10
0.0
 20
0.0
 30
0.0
210
0.0
220
0.0
230
1.0
  2
SOLID
 70
1
 71
0
 91
1
 92
3
 72
0
 73
1
 93
4
 10
1825.0
 20
415.0
 10
1845.0
 20
415.0
 10
1845.0
 20
335.0
 10
1825.0
 20
335.0
 97
0
 75
1
 76
1
 98
0
  0
LWPOLYLINE
  5
237
330
17
100
AcDbEntity
  8
WALL
100
AcDbPolyline
 90
4
 70
1
 10
2575.0
 20
415.0
 10
2580.0
 20
415.0
 10
2580.0
 20
380.0
 10
2575.0
 20
380.0
  0
HATCH
  5
238
330
17
100
AcDbEntity
  8
WALL
100
AcDbHatch
 10
0.0
 20
0.0
 30
0.0
210
0.0
220
0.0
230
1.0
  2
SOLID
 70
1
 71
0
 91
1
 92
3
 72
0
 73
1
 93
4
 10
2575.0
 20
415.0
 10
2580.0
 20
415.0
 10
2580.0
 20
380.0
 10
2575.0
 20
380.0
 97
0
 75
1
 76
1
 98
0
  0
LWPOLYLINE
  5
239
330
17
100
AcDbEntity
  8
WALL
100
AcDbPolyline
 90
4
 70
1
 10
50.0
 20
350.0
 10
70.0
 20
350.0
 10
70.0
 20
260.0
 10
50.0
 20
260.0
  0
HATCH
  5
23A
330
17
100
AcDbEntity
  8
WALL
100
AcDbHatch
 10
0.0
 20
0.0
 30
0.0
210
0.0
220
0.0
230
1.0
  2
SOLID
 70
1
 71
0
 91
1
 92
3
 72
0
 73
1
 93
4
 10
50.0
 20
350.0
 10
70.0
 20
350.0
 10
70.0
 20
260.0
 10
50.0
 20
260.0
 97
0
 75
1
 76
1
 98
0
  0
LWPOLYLINE
  5
23B
330
17
100
AcDbEntity
  8
WALL
100
AcDbPolyline
 90
4
 70
1
 10
712.5
 20
330.0
 10
715.0
 20
330.0
 10
715.0
 20
300.0
 10
712.5
 20
300.0
  0
HATCH
  5
23C
330
17
100
AcDbEntity
  8
WALL
100
AcDbHatch
 10
0.0
 20
0.0
 30
0.0
210
0.0
220
0.0
230
1.0
  2
SOLID
 70
1
 71
0
 91
1
 92
3
 72
0
 73
1
 93
4
 10
712.5
 20
330.0
 10
715.0
 20
330.0
 10
715.0
 20
300.0
 10
712.5
 20
300.0
 97
0
 75
1
 76
1
 98
0
  0
LWPOLYLINE
  5
23D
330
17
100
AcDbEntity
  8
WALL
100
AcDbPolyline
 90
4
 70
1
 10
1835.0
 20
320.0
 10
1845.0
 20
320.0
 10
1845.0
 20
280.0
 10
1835.0
 20
280.0
  0
HATCH
  5
23E
330
17
100
AcDbEntity
  8
WALL
100
AcDbHatch
 10
0.0
 20
0.0
 30
0.0
210
0.0
220
0.0
230
1.0
  2
SOLID
 70
1
 71
0
 91
1
 92
3
 72
0
 73
1
 93
4
 10
1835.0
 20
320.0
 10
1845.0
 20
320.0
 10
1845.0
 20
280.0
 10
1835.0
 20
280.0
 97
0
 75
1
 76
1
 98
0
  0
LWPOLYLINE
  5
23F
330
17
100
AcDbEntity
  8
WALL
100
AcDbPolyline
 90
4
 70
1
 10
710.0
 20
295.0
 10
720.0
 20
295.0
 10
720.0
 20
255.0
 10
710.0
 20
255.0
  0
HATCH
  5
240
330
17
100
AcDbEntity
  8
WALL
100
AcDbHatch
 10
0.0
 20
0.0
 30
0.0
210
0.0
220
0.0
230
1.0
  2
SOLID
 70
1
 71
0
 91
1
 92
3
 72
0
 73
1
 93
4
 10
710.0
 20
295.0
 10
720.0
 20
295.0
 10
720.0
 20
255.0
 10
710.0
 20
255.0
 97
0
 75
1
 76
1
 98
0
  0
LWPOLYLINE
  5
241
330
17
100
AcDbEntity
  8
WALL
100
AcDbPolyline
 90
4
 70
1
 10
727.5
 20
285.0
 10
730.0
 20
285.0
 10
730.0
 20
255.0
 10
727.5
 20
255.0
  0
HATCH
  5
242
330
17
100
AcDbEntity
  8
WALL
100
AcDbHatch
 10
0.0
 20
0.0
 30
0.0
210
0.0
220
0.0
230
1.0
  2
SOLID
 70
1
 71
0
 91
1
 92
3
 72
0
 73
1
 93
4
 10
727.5
 20
285.0
 10
730.0
 20
285.0
 10
730.0
 20
255.0
 10
727.5
 20
255.0
 97
0
 75
1
 76
1
 98
0
  0
LWPOLYLINE
  5
243
330
17
100
AcDbEntity
  8
WALL
100
AcDbPolyline
 90
4
 70
1
 10
1210.0
 20
267.5
 10
1222.5
 20
267.5
 10
1222.5
 20
227.5
 10
1210.0
 20
227.5
  0
HATCH
  5
244
330
17
100
AcDbEntity
  8
WALL
100
AcDbHatch
 10
0.0
 20
0.0
 30
0.0
210
0.0
220
0.0
230
1.0
  2
SOLID
 70
1
 71
0
 91
1
 92
3
 72
0
 73
1
 93
4
 10
1210.0
 20
267.5
 10
1222.5
 20
267.5
 10
1222.5
 20
227.5
 10
1210.0
 20
227.5
 97
0
 75
1
 76
1
 98
0
  0
LWPOLYLINE
  5
245
330
17
100
AcDbEntity
  8
WALL
100
AcDbPolyline
 90
4
 70
1
 10
2570.0
 20
270.0
 10
2580.0
 20
270.0
 10
2580.0
 20
190.0
 10
2570.0
 20
190.0
  0
HATCH
  5
246
330
17
100
AcDbEntity
  8
WALL
100
AcDbHatch
 10
0.0
 20
0.0
 30
0.0
210
0.0
220
0.0
230
1.0
  2
SOLID
 70
1
 71
0
 91
1
 92
3
 72
0
 73
1
 93
4
 10
2570.0
 20
270.0
 10
2580.0
 20
270.0
 10
2580.0
 20
190.0
 10
2570.0
 20
190.0
 97
0
 75
1
 76
1
 98
0
  0
LWPOLYLINE
  5
247
330
17
100
AcDbEntity
  8
WALL
100
AcDbPolyline
 90
4
 70
1
 10
172.5
 20
252.5
 10
182.5
 20
252.5
 10
182.5
 20
222.5
 10
172.5
 20
222.5
  0
HATCH
  5
248
330
17
100
AcDbEntity
  8
WALL
100
AcDbHatch
 10
0.0
 20
0.0
 30
0.0
210
0.0
220
0.0
230
1.0
  2
SOLID
 70
1
 71
0
 91
1
 92
3
 72
0
 73
1
 93
4
 10
172.5
 20
252.5
 10
182.5
 20
252.5
 10
182.5
 20
222.5
 10
172.5
 20
222.5
 97
0
 75
1
 76
1
 98
0
  0
LWPOLYLINE
  5
249
330
17
100
AcDbEntity
  8
WALL
100
AcDbPolyline
 90
4
 70
1
 10
935.0
 20
207.5
 10
940.0
 20
207.5
 10
940.0
 20
167.5
 10
935.0
 20
167.5
  0
HATCH
  5
24A
330
17
100
AcDbEntity
  8
WALL
100
AcDbHatch
 10
0.0
 20
0.0
 30
0.0
210
0.0
220
0.0
230
1.0
  2
SOLID
 70
1
 71
0
 91
1
 92
3
 72
0
 73
1
 93
4
 10
935.0
 20
207.5
 10
940.0
 20
207.5
 10
940.0
 20
167.5
 10
935.0
 20
167.5
 97
0
 75
1
 76
1
 98
0
  0
LWPOLYLINE
  5
24B
330
17
100
AcDbEntity
  8
WALL
100
AcDbPolyline
 90
4
 70
1
 10
950.0
 20
205.0
 10
965.0
 20
205.0
 10
965.0
 20
152.5
 10
950.0
 20
152.5
  0
HATCH
  5
24C
330
17
100
AcDbEntity
  8
WALL
100
AcDbHatch
 10
0.0
 20
0.0
 30
0.0
210
0.0
220
0.0
230
1.0
  2
SOLID
 70
1
 71
0
 91
1
 92
3
 72
0
 73
1
 93
4
 10
950.0
 20
205.0
 10
965.0
 20
205.0
 10
965.0
 20
152.5
 10
950.0
 20
152.5
 97
0
 75
1
 76
1
 98
0
  0
LWPOLYLINE
  5
24D
330
17
100
AcDbEntity
  8
WALL
100
AcDbPolyline
 90
4
 70
1
 10
967.5
 20
202.5
 10
980.0
 20
202.5
 10
980.0
 20
152.5
 10
967.5
 20
152.5
  0
HATCH
  5
24E
330
17
100
AcDbEntity
  8
WALL
100
AcDbHatch
 10
0.0
 20
0.0
 30
0.0
210
0.0
220
0.0
230
1.0
  2
SOLID
 70
1
 71
0
 91
1
 92
3
 72
0
 73
1
 93
4
 10
967.5
 20
202.5
 10
980.0
 20
202.5
 10
980.0
 20
152.5
 10
967.5
 20
152.5
 97
0
 75
1
 76
1
 98
0
  0
LWPOLYLINE
  5
24F
330
17
100
AcDbEntity
  8
WALL
100
AcDbPolyline
 90
4
 70
1
 10
1155.0
 20
202.5
 10
1160.0
 20
202.5
 10
1160.0
 20
167.5
 10
1155.0
 20
167.5
  0
HATCH
  5
250
330
17
100
AcDbEntity
  8
WALL
100
AcDbHatch
 10
0.0
 20
0.0
 30
0.0
210
0.0
220
0.0
230
1.0
  2
SOLID
 70
1
 71
0
 91
1
 92
3
 72
0
 73
1
 93
4
 10
1155.0
 20
202.5
 10
1160.0
 20
202.5
 10
1160.0
 20
167.5
 10
1155.0
 20
167.5
 97
0
 75
1
 76
1
 98
0
  0
LWPOLYLINE
  5
251
330
17
100
AcDbEntity
  8
WALL
100
AcDbPolyline
 90
4
 70
1
 10
685.0
 20
182.5
 10
702.5
 20
182.5
 10
702.5
 20
132.5
 10
685.0
 20
132.5
  0
HATCH
  5
252
330
17
100
AcDbEntity
  8
WALL
100
AcDbHatch
 10
0.0
 20
0.0
 30
0.0
210
0.0
220
0.0
230
1.0
  2
SOLID
 70
1
 71
0
 91
1
 92
3
 72
0
 73
1
 93
4
 10
685.0
 20
182.5
 10
702.5
 20
182.5
 10
702.5
 20
132.5
 10
685.0
 20
132.5
 97
0
 75
1
 76
1
 98
0
  0
LWPOLYLINE
  5
253
330
17
100
AcDbEntity
  8
WALL
100
AcDbPolyline
 90
4
 70
1
 10
1022.5
 20
182.5
 10
1025.0
 20
182.5
 10
1025.0
 20
152.5
 10
1022.5
 20
152.5
  0
HATCH
  5
254
330
17
100
AcDbEntity
  8
WALL
100
AcDbHatch
 10
0.0
 20
0.0
 30
0.0
210
0.0
220
0.0
230
1.0
  2
SOLID
 70
1
 71
0
 91
1
 92
3
 72
0
 73
1
 93
4
 10
1022.5
 20
182.5
 10
1025.0
 20
182.5
 10
1025.0
 20
152.5
 10
1022.5
 20
152.5
 97
0
 75
1
 76
1
 98
0
  0
LWPOLYLINE
  5
255
330
17
100
AcDbEntity
  8
WALL
100
AcDbPolyline
 90
4
 70
1
 10
50.0
 20
165.0
 10
60.0
 20
165.0
 10
60.0
 20
90.0
 10
50.0
 20
90.0
  0
HATCH
  5
256
330
17
100
AcDbEntity
  8
WALL
100
AcDbHatch
 10
0.0
 20
0.0
 30
0.0
210
0.0
220
0.0
230
1.0
  2
SOLID
 70
1
 71
0
 91
1
 92
3
 72
0
 73
1
 93
4
 10
50.0
 20
165.0
 10
60.0
 20
165.0
 10
60.0
 20
90.0
 10
50.0
 20
90.0
 97
0
 75
1
 76
1
 98
0
  0
LWPOLYLINE
  5
257
330
17
100
AcDbEntity
  8
WALL
100
AcDbPolyline
 90
4
 70
1
 10
272.5
 20
157.5
 10
280.0
 20
157.5
 10
280.0
 20
122.5
 10
272.5
 20
122.5
  0
HATCH
  5
258
330
17
100
AcDbEntity
  8
WALL
100
AcDbHatch
 10
0.0
 20
0.0
 30
0.0
210
0.0
220
0.0
230
1.0
  2
SOLID
 70
1
 71
0
 91
1
 92
3
 72
0
 73
1
 93
4
 10
272.5
 20
157.5
 10
280.0
 20
157.5
 10
280.0
 20
122.5
 10
272.5
 20
122.5
 97
0
 75
1
 76
1
 98
0
  0
LWPOLYLINE
  5
259
330
17
100
AcDbEntity
  8
WALL
100
AcDbPolyline
 90
4
 70
1
 10
285.0
 20
142.5
 10
292.5
 20
142.5
 10
292.5
 20
87.5
 10
285.0
 20
87.5
  0
HATCH
  5
25A
330
17
100
AcDbEntity
  8
WALL
100
AcDbHatch
 10
0.0
 20
0.0
 30
0.0
210
0.0
220
0.0
230
1.0
  2
SOLID
 70
1
 71
0
 91
1
 92
3
 72
0
 73
1
 93
4
 10
285.0
 20
142.5
 10
292.5
 20
142.5
 10
292.5
 20
87.5
 10
285.0
 20
87.5
 97
0
 75
1
 76
1
 98
0
  0
LWPOLYLINE
  5
25B
330
17
100
AcDbEntity
  8
WALL
100
AcDbPolyline
 90
4
 70
1
 10
940.0
 20
142.5
 10
955.0
 20
142.5
 10
955.0
 20
90.0
 10
940.0
 20
90.0
  0
HATCH
  5
25C
330
17
100
AcDbEntity
  8
WALL
100
AcDbHatch
 10
0.0
 20
0.0
 30
0.0
210
0.0
220
0.0
230
1.0
  2
SOLID
 70
1
 71
0
 91
1
 92
3
 72
0
 73
1
 93
4
 10
940.0
 20
142.5
 10
955.0
 20
142.5
 10
955.0
 20
90.0
 10
940.0
 20
90.0
 97
0
 75
1
 76
1
 98
0
  0
LWPOLYLINE
  5
25D
330
17
100
AcDbEntity
  8
WALL
100
AcDbPolyline
 90
4
 70
1
 10
1040.0
 20
142.5
 10
1042.5
 20
142.5
 10
1042.5
 20
105.0
 10
1040.0
 20
105.0
  0
HATCH
  5
25E
330
17
100
AcDbEntity
  8
WALL
100
AcDbHatch
 10
0.0
 20
0.0
 30
0.0
210
0.0
220
0.0
230
1.0
  2
SOLID
 70
1
 71
0
 91
1
 92
3
 72
0
 73
1
 93
4
 10
1040.0
 20
142.5
 10
1042.5
 20
142.5
 10
1042.5
 20
105.0
 10
1040.0
 20
105.0
 97
0
 75
1
 76
1
 98
0
  0
LWPOLYLINE
  5
25F
330
17
100
AcDbEntity
  8
WALL
100
AcDbPolyline
 90
4
 70
1
 10
1060.0
 20
142.5
 10
1070.0
 20
142.5
 10
1070.0
 20
107.5
 10
1060.0
 20
107.5
  0
HATCH
  5
260
330
17
100
AcDbEntity
  8
WALL
100
AcDbHatch
 10
0.0
 20
0.0
 30
0.0
210
0.0
220
0.0
230
1.0
  2
SOLID
 70
1
 71
0
 91
1
 92
3
 72
0
 73
1
 93
4
 10
1060.0
 20
142.5
 10
1070.0
 20
142.5
 10
1070.0
 20
107.5
 10
1060.0
 20
107.5
 97
0
 75
1
 76
1
 98
0
  0
LWPOLYLINE
  5
261
330
17
100
AcDbEntity
  8
WALL
100
AcDbPolyline
 90
4
 70
1
 10
1082.5
 20
140.0
 10
1085.0
 20
140.0
 10
1085.0
 20
92.5
 10
1082.5
 20
92.5
  0
HATCH
  5
262
330
17
100
AcDbEntity
  8
WALL
100
AcDbHatch
 10
0.0
 20
0.0
 30
0.0
210
0.0
220
0.0
230
1.0
  2
SOLID
 70
1
 71
0
 91
1
 92
3
 72
0
 73
1
 93
4
 10
1082.5
 20
140.0
 10
1085.0
 20
140.0
 10
1085.0
 20
92.5
 10
1082.5
 20
92.5
 97
0
 75
1
 76
1
 98
0
  0
LWPOLYLINE
  5
263
330
17
100
AcDbEntity
  8
WALL
100
AcDbPolyline
 90
4
 70
1
 10
2585.0
 20
140.0
 10
2587.5
 20
140.0
 10
2587.5
 20
110.0
 10
2585.0
 20
110.0
  0
HATCH
  5
264
330
17
100
AcDbEntity
  8
WALL
100
AcDbHatch
 10
0.0
 20
0.0
 30
0.0
210
0.0
220
0.0
230
1.0
  2
SOLID
 70
1
 71
0
 91
1
 92
3
 72
0
 73
1
 93
4
 10
2585.0
 20
140.0
 10
2587.5
 20
140.0
 10
2587.5
 20
110.0
 10
2585.0
 20
110.0
 97
0
 75
1
 76
1
 98
0
  0
LWPOLYLINE
  5
265
330
17
100
AcDbEntity
  8
WALL
100
AcDbPolyline
 90
4
 70
1
 10
500.0
 20
135.0
 10
510.0
 20
135.0
 10
510.0
 20
92.5
 10
500.0
 20
92.5
  0
HATCH
  5
266
330
17
100
AcDbEntity
  8
WALL
100
AcDbHatch
 10
0.0
 20
0.0
 30
0.0
210
0.0
220
0.0
230
1.0
  2
SOLID
 70
1
 71
0
 91
1
 92
3
 72
0
 73
1
 93
4
 10
500.0
 20
135.0
 10
510.0
 20
135.0
 10
510.0
 20
92.5
 10
500.0
 20
92.5
 97
0
 75
1
 76
1
 98
0
  0
LWPOLYLINE
  5
267
330
17
100
AcDbEntity
  8
WALL
100
AcDbPolyline
 90
4
 70
1
 10
962.5
 20
132.5
 10
967.5
 20
132.5
 10
967.5
 20
87.5
 10
962.5
 20
87.5
  0
HATCH
  5
268
330
17
100
AcDbEntity
  8
WALL
100
AcDbHatch
 10
0.0
 20
0.0
 30
0.0
210
0.0
220
0.0
230
1.0
  2
SOLID
 70
1
 71
0
 91
1
 92
3
 72
0
 73
1
 93
4
 10
962.5
 20
132.5
 10
967.5
 20
132.5
 10
967.5
 20
87.5
 10
962.5
 20
87.5
 97
0
 75
1
 76
1
 98
0
  0
LWPOLYLINE
  5
269
330
17
100
AcDbEntity
  8
WALL
100
AcDbPolyline
 90
4
 70
1
 10
695.0
 20
127.5
 10
702.5
 20
127.5
 10
702.5
 20
92.5
 10
695.0
 20
92.5
  0
HATCH
  5
26A
330
17
100
AcDbEntity
  8
WALL
100
AcDbHatch
 10
0.0
 20
0.0
 30
0.0
210
0.0
220
0.0
230
1.0
  2
SOLID
 70
1
 71
0
 91
1
 92
3
 72
0
 73
1
 93
4
 10
695.0
 20
127.5
 10
702.5
 20
127.5
 10
702.5
 20
92.5
 10
695.0
 20
92.5
 97
0
 75
1
 76
1
 98
0
  0
LWPOLYLINE
  5
26B
330
17
100
AcDbEntity
  8
WALL
100
AcDbPolyline
 90
4
 70
1
 10
1100.0
 20
127.5
 10
1102.5
 20
127.5
 10
1102.5
 20
92.5
 10
1100.0
 20
92.5
  0
HATCH
  5
26C
330
17
100
AcDbEntity
  8
WALL
100
AcDbHatch
 10
0.0
 20
0.0
 30
0.0
210
0.0
220
0.0
230
1.0
  2
SOLID
 70
1
 71
0
 91
1
 92
3
 72
0
 73
1
 93
4
 10
1100.0
 20
127.5
 10
1102.5
 20
127.5
 10
1102.5
 20
92.5
 10
1100.0
 20
92.5
 97
0
 75
1
 76
1
 98
0
  0
LWPOLYLINE
  5
26D
330
17
100
AcDbEntity
  8
WALL
100
AcDbPolyline
 90
4
 70
1
 10
320.0
 20
125.0
 10
330.0
 20
125.0
 10
330.0
 20
87.5
 10
320.0
 20
87.5
  0
HATCH
  5
26E
330
17
100
AcDbEntity
  8
WALL
100
AcDbHatch
 10
0.0
 20
0.0
 30
0.0
210
0.0
220
0.0
230
1.0
  2
SOLID
 70
1
 71
0
 91
1
 92
3
 72
0
 73
1
 93
4
 10
320.0
 20
125.0
 10
330.0
 20
125.0
 10
330.0
 20
87.5
 10
320.0
 20
87.5
 97
0
 75
1
 76
1
 98
0
  0
LWPOLYLINE
  5
26F
330
17
100
AcDbEntity
  8
WALL
100
AcDbPolyline
 90
4
 70
1
 10
535.0
 20
125.0
 10
545.0
 20
125.0
 10
545.0
 20
87.5
 10
535.0
 20
87.5
  0
HATCH
  5
270
330
17
100
AcDbEntity
  8
WALL
100
AcDbHatch
 10
0.0
 20
0.0
 30
0.0
210
0.0
220
0.0
230
1.0
  2
SOLID
 70
1
 71
0
 91
1
 92
3
 72
0
 73
1
 93
4
 10
535.0
 20
125.0
 10
545.0
 20
125.0
 10
545.0
 20
87.5
 10
535.0
 20
87.5
 97
0
 75
1
 76
1
 98
0
  0
LWPOLYLINE
  5
271
330
17
100
AcDbEntity
  8
WALL
100
AcDbPolyline
 90
4
 70
1
 10
690.0
 20
117.5
 10
692.5
 20
117.5
 10
692.5
 20
87.5
 10
690.0
 20
87.5
  0
HATCH
  5
272
330
17
100
AcDbEntity
  8
WALL
100
AcDbHatch
 10
0.0
 20
0.0
 30
0.0
210
0.0
220
0.0
230
1.0
  2
SOLID
 70
1
 71
0
 91
1
 92
3
 72
0
 73
1
 93
4
 10
690.0
 20
117.5
 10
692.5
 20
117.5
 10
692.5
 20
87.5
 10
690.0
 20
87.5
 97
0
 75
1
 76
1
 98
0
  0
LINE
  5
273
330
17
100
AcDbEntity
  8
WINDOW
100
AcDbLine
 10
360.0
 20
2030.0
 30
0.0
 11
465.0
 21
2030.0
 31
0.0
  0
LINE
  5
274
330
17
100
AcDbEntity
  8
WINDOW
100
AcDbLine
 10
360.0
 20
2021.6666666666665
 30
0.0
 11
465.0
 21
2021.6666666666665
 31
0.0
  0
LINE
  5
275
330
17
100
AcDbEntity
  8
WINDOW
100
AcDbLine
 10
360.0
 20
2013.3333333333335
 30
0.0
 11
465.0
 21
2013.3333333333335
 31
0.0
  0
LINE
  5
276
330
17
100
AcDbEntity
  8
WINDOW
100
AcDbLine
 10
360.0
 20
2005.0
 30
0.0
 11
465.0
 21
2005.0
 31
0.0
  0
LINE
  5
277
330
17
100
AcDbEntity
  8
WINDOW
100
AcDbLine
 10
360.0
 20
2030.0
 30
0.0
 11
360.0
 21
2005.0
 31
0.0
  0
LINE
  5
278
330
17
100
AcDbEntity
  8
WINDOW
100
AcDbLine
 10
465.0
 20
2030.0
 30
0.0
 11
465.0
 21
2005.0
 31
0.0
  0
LINE
  5
279
330
17
100
AcDbEntity
  8
WINDOW
100
AcDbLine
 10
1012.5
 20
1995.0
 30
0.0
 11
1370.0
 21
1995.0
 31
0.0
  0
LINE
  5
27A
330
17
100
AcDbEntity
  8
WINDOW
100
AcDbLine
 10
1012.5
 20
1988.3333333333335
 30
0.0
 11
1370.0
 21
1988.3333333333335
 31
0.0
  0
LINE
  5
27B
330
17
100
AcDbEntity
  8
WINDOW
100
AcDbLine
 10
1012.5
 20
1981.6666666666665
 30
0.0
 11
1370.0
 21
1981.6666666666665
 31
0.0
  0
LINE
  5
27C
330
17
100
AcDbEntity
  8
WINDOW
100
AcDbLine
 10
1012.5
 20
1975.0
 30
0.0
 11
1370.0
 21
1975.0
 31
0.0
  0
LINE
  5
27D
330
17
100
AcDbEntity
  8
WINDOW
100
AcDbLine
 10
1012.5
 20
1995.0
 30
0.0
 11
1012.5
 21
1975.0
 31
0.0
  0
LINE
  5
27E
330
17
100
AcDbEntity
  8
WINDOW
100
AcDbLine
 10
1370.0
 20
1995.0
 30
0.0
 11
1370.0
 21
1975.0
 31
0.0
  0
LINE
  5
27F
330
17
100
AcDbEntity
  8
WINDOW
100
AcDbLine
 10
2045.0
 20
1995.0
 30
0.0
 11
2090.0
 21
1995.0
 31
0.0
  0
LINE
  5
280
330
17
100
AcDbEntity
  8
WINDOW
100
AcDbLine
 10
2045.0
 20
1988.3333333333335
 30
0.0
 11
2090.0
 21
1988.3333333333335
 31
0.0
  0
LINE
  5
281
330
17
100
AcDbEntity
  8
WINDOW
100
AcDbLine
 10
2045.0
 20
1981.6666666666665
 30
0.0
 11
2090.0
 21
1981.6666666666665
 31
0.0
  0
LINE
  5
282
330
17
100
AcDbEntity
  8
WINDOW
100
AcDbLine
 10
2045.0
 20
1975.0
 30
0.0
 11
2090.0
 21
1975.0
 31
0.0
  0
LINE
  5
283
330
17
100
AcDbEntity
  8
WINDOW
100
AcDbLine
 10
2045.0
 20
1995.0
 30
0.0
 11
2045.0
 21
1975.0
 31
0.0
  0
LINE
  5
284
330
17
100
AcDbEntity
  8
WINDOW
100
AcDbLine
 10
2090.0
 20
1995.0
 30
0.0
 11
2090.0
 21
1975.0
 31
0.0
  0
LINE
  5
285
330
17
100
AcDbEntity
  8
WINDOW
100
AcDbLine
 10
2395.0
 20
1995.0
 30
0.0
 11
2410.0
 21
1995.0
 31
0.0
  0
LINE
  5
286
330
17
100
AcDbEntity
  8
WINDOW
100
AcDbLine
 10
2395.0
 20
1988.3333333333335
 30
0.0
 11
2410.0
 21
1988.3333333333335
 31
0.0
  0
LINE
  5
287
330
17
100
AcDbEntity
  8
WINDOW
100
AcDbLine
 10
2395.0
 20
1981.6666666666665
 30
0.0
 11
2410.0
 21
1981.6666666666665
 31
0.0
  0
LINE
  5
288
330
17
100
AcDbEntity
  8
WINDOW
100
AcDbLine
 10
2395.0
 20
1975.0
 30
0.0
 11
2410.0
 21
1975.0
 31
0.0
  0
LINE
  5
289
330
17
100
AcDbEntity
  8
WINDOW
100
AcDbLine
 10
2395.0
 20
1995.0
 30
0.0
 11
2395.0
 21
1975.0
 31
0.0
  0
LINE
  5
28A
330
17
100
AcDbEntity
  8
WINDOW
100
AcDbLine
 10
2410.0
 20
1995.0
 30
0.0
 11
2410.0
 21
1975.0
 31
0.0
  0
LINE
  5
28B
330
17
100
AcDbEntity
  8
WINDOW
100
AcDbLine
 10
135.0
 20
1977.5
 30
0.0
 11
185.0
 21
1977.5
 31
0.0
  0
LINE
  5
28C
330
17
100
AcDbEntity
  8
WINDOW
100
AcDbLine
 10
135.0
 20
1970.0
 30
0.0
 11
185.0
 21
1970.0
 31
0.0
  0
LINE
  5
28D
330
17
100
AcDbEntity
  8
WINDOW
100
AcDbLine
 10
135.0
 20
1962.5
 30
0.0
 11
185.0
 21
1962.5
 31
0.0
  0
LINE
  5
28E
330
17
100
AcDbEntity
  8
WINDOW
100
AcDbLine
 10
135.0
 20
1955.0
 30
0.0
 11
185.0
 21
1955.0
 31
0.0
  0
LINE
  5
28F
330
17
100
AcDbEntity
  8
WINDOW
100
AcDbLine
 10
135.0
 20
1977.5
 30
0.0
 11
135.0
 21
1955.0
 31
0.0
  0
LINE
  5
290
330
17
100
AcDbEntity
  8
WINDOW
100
AcDbLine
 10
185.0
 20
1977.5
 30
0.0
 11
185.0
 21
1955.0
 31
0.0
  0
LINE
  5
291
330
17
100
AcDbEntity
  8
WINDOW
100
AcDbLine
 10
445.0
 20
1972.5
 30
0.0
 11
540.0
 21
1972.5
 31
0.0
  0
LINE
  5
292
330
17
100
AcDbEntity
  8
WINDOW
100
AcDbLine
 10
445.0
 20
1966.6666666666665
 30
0.0
 11
540.0
 21
1966.6666666666665
 31
0.0
  0
LINE
  5
293
330
17
100
AcDbEntity
  8
WINDOW
100
AcDbLine
 10
445.0
 20
1960.8333333333335
 30
0.0
 11
540.0
 21
1960.8333333333335
 31
0.0
  0
LINE
  5
294
330
17
100
AcDbEntity
  8
WINDOW
100
AcDbLine
 10
445.0
 20
1955.0
 30
0.0
 11
540.0
 21
1955.0
 31
0.0
  0
LINE
  5
295
330
17
100
AcDbEntity
  8
WINDOW
100
AcDbLine
 10
445.0
 20
1972.5
 30
0.0
 11
445.0
 21
1955.0
 31
0.0
  0
LINE
  5
296
330
17
100
AcDbEntity
  8
WINDOW
100
AcDbLine
 10
540.0
 20
1972.5
 30
0.0
 11
540.0
 21
1955.0
 31
0.0
  0
LINE
  5
297
330
17
100
AcDbEntity
  8
WINDOW
100
AcDbLine
 10
1232.5
 20
1552.5
 30
0.0
 11
1320.0
 21
1552.5
 31
0.0
  0
LINE
  5
298
330
17
100
AcDbEntity
  8
WINDOW
100
AcDbLine
 10
1232.5
 20
1549.1666666666665
 30
0.0
 11
1320.0
 21
1549.1666666666665
 31
0.0
  0
LINE
  5
299
330
17
100
AcDbEntity
  8
WINDOW
100
AcDbLine
 10
1232.5
 20
1545.8333333333335
 30
0.0
 11
1320.0
 21
1545.8333333333335
 31
0.0
  0
LINE
  5
29A
330
17
100
AcDbEntity
  8
WINDOW
100
AcDbLine
 10
1232.5
 20
1542.5
 30
0.0
 11
1320.0
 21
1542.5
 31
0.0
  0
LINE
  5
29B
330
17
100
AcDbEntity
  8
WINDOW
100
AcDbLine
 10
1232.5
 20
1552.5
 30
0.0
 11
1232.5
 21
1542.5
 31
0.0
  0
LINE
  5
29C
330
17
100
AcDbEntity
  8
WINDOW
100
AcDbLine
 10
1320.0
 20
1552.5
 30
0.0
 11
1320.0
 21
1542.5
 31
0.0
  0
LINE
  5
29D
330
17
100
AcDbEntity
  8
WINDOW
100
AcDbLine
 10
1395.0
 20
1550.0
 30
0.0
 11
1777.5
 21
1550.0
 31
0.0
  0
LINE
  5
29E
330
17
100
AcDbEntity
  8
WINDOW
100
AcDbLine
 10
1395.0
 20
1546.6666666666665
 30
0.0
 11
1777.5
 21
1546.6666666666665
 31
0.0
  0
LINE
  5
29F
330
17
100
AcDbEntity
  8
WINDOW
100
AcDbLine
 10
1395.0
 20
1543.3333333333335
 30
0.0
 11
1777.5
 21
1543.3333333333335
 31
0.0
  0
LINE
  5
2A0
330
17
100
AcDbEntity
  8
WINDOW
100
AcDbLine
 10
1395.0
 20
1540.0
 30
0.0
 11
1777.5
 21
1540.0
 31
0.0
  0
LINE
  5
2A1
330
17
100
AcDbEntity
  8
WINDOW
100
AcDbLine
 10
1395.0
 20
1550.0
 30
0.0
 11
1395.0
 21
1540.0
 31
0.0
  0
LINE
  5
2A2
330
17
100
AcDbEntity
  8
WINDOW
100
AcDbLine
 10
1777.5
 20
1550.0
 30
0.0
 11
1777.5
 21
1540.0
 31
0.0
  0
LINE
  5
2A3
330
17
100
AcDbEntity
  8
WINDOW
100
AcDbLine
 10
1655.0
 20
1182.5
 30
0.0
 11
1785.0
 21
1182.5
 31
0.0
  0
LINE
  5
2A4
330
17
100
AcDbEntity
  8
WINDOW
100
AcDbLine
 10
1655.0
 20
1176.6666666666667
 30
0.0
 11
1785.0
 21
1176.6666666666667
 31
0.0
  0
LINE
  5
2A5
330
17
100
AcDbEntity
  8
WINDOW
100
AcDbLine
 10
1655.0
 20
1170.8333333333333
 30
0.0
 11
1785.0
 21
1170.8333333333333
 31
0.0
  0
LINE
  5
2A6
330
17
100
AcDbEntity
  8
WINDOW
100
AcDbLine
 10
1655.0
 20
1165.0
 30
0.0
 11
1785.0
 21
1165.0
 31
0.0
  0
LINE
  5
2A7
330
17
100
AcDbEntity
  8
WINDOW
100
AcDbLine
 10
1655.0
 20
1182.5
 30
0.0
 11
1655.0
 21
1165.0
 31
0.0
  0
LINE
  5
2A8
330
17
100
AcDbEntity
  8
WINDOW
100
AcDbLine
 10
1785.0
 20
1182.5
 30
0.0
 11
1785.0
 21
1165.0
 31
0.0
  0
LINE
  5
2A9
330
17
100
AcDbEntity
  8
WINDOW
100
AcDbLine
 10
200.0
 20
705.0
 30
0.0
 11
200.0
 21
670.0
 31
0.0
  0
LINE
  5
2AA
330
17
100
AcDbEntity
  8
WINDOW
100
AcDbLine
 10
203.33333333333331
 20
705.0
 30
0.0
 11
203.33333333333331
 21
670.0
 31
0.0
  0
LINE
  5
2AB
330
17
100
AcDbEntity
  8
WINDOW
100
AcDbLine
 10
206.66666666666669
 20
705.0
 30
0.0
 11
206.66666666666669
 21
670.0
 31
0.0
  0
LINE
  5
2AC
330
17
100
AcDbEntity
  8
WINDOW
100
AcDbLine
 10
210.0
 20
705.0
 30
0.0
 11
210.0
 21
670.0
 31
0.0
  0
LINE
  5
2AD
330
17
100
AcDbEntity
  8
WINDOW
100
AcDbLine
 10
200.0
 20
705.0
 30
0.0
 11
210.0
 21
705.0
 31
0.0
  0
LINE
  5
2AE
330
17
100
AcDbEntity
  8
WINDOW
100
AcDbLine
 10
200.0
 20
670.0
 30
0.0
 11
210.0
 21
670.0
 31
0.0
  0
LINE
  5
2AF
330
17
100
AcDbEntity
  8
WINDOW
100
AcDbLine
 10
730.0
 20
717.5
 30
0.0
 11
730.0
 21
702.5
 31
0.0
  0
LINE
  5
2B0
330
17
100
AcDbEntity
  8
WINDOW
100
AcDbLine
 10
733.3333333333333
 20
717.5
 30
0.0
 11
733.3333333333333
 21
702.5
 31
0.0
  0
LINE
  5
2B1
330
17
100
AcDbEntity
  8
WINDOW
100
AcDbLine
 10
736.6666666666667
 20
717.5
 30
0.0
 11
736.6666666666667
 21
702.5
 31
0.0
  0
LINE
  5
2B2
330
17
100
AcDbEntity
  8
WINDOW
100
AcDbLine
 10
740.0
 20
717.5
 30
0.0
 11
740.0
 21
702.5
 31
0.0
  0
LINE
  5
2B3
330
17
100
AcDbEntity
  8
WINDOW
100
AcDbLine
 10
730.0
 20
717.5
 30
0.0
 11
740.0
 21
717.5
 31
0.0
  0
LINE
  5
2B4
330
17
100
AcDbEntity
  8
WINDOW
100
AcDbLine
 10
730.0
 20
702.5
 30
0.0
 11
740.0
 21
702.5
 31
0.0
  0
LINE
  5
2B5
330
17
100
AcDbEntity
  8
WINDOW
100
AcDbLine
 10
1825.0
 20
575.0
 30
0.0
 11
1825.0
 21
510.0
 31
0.0
  0
LINE
  5
2B6
330
17
100
AcDbEntity
  8
WINDOW
100
AcDbLine
 10
1832.5
 20
575.0
 30
0.0
 11
1832.5
 21
510.0
 31
0.0
  0
LINE
  5
2B7
330
17
100
AcDbEntity
  8
WINDOW
100
AcDbLine
 10
1840.0
 20
575.0
 30
0.0
 11
1840.0
 21
510.0
 31
0.0
  0
LINE
  5
2B8
330
17
100
AcDbEntity
  8
WINDOW
100
AcDbLine
 10
1847.5
 20
575.0
 30
0.0
 11
1847.5
 21
510.0
 31
0.0
  0
LINE
  5
2B9
330
17
100
AcDbEntity
  8
WINDOW
100
AcDbLine
 10
1825.0
 20
575.0
 30
0.0
 11
1847.5
 21
575.0
 31
0.0
  0
LINE
  5
2BA
330
17
100
AcDbEntity
  8
WINDOW
100
AcDbLine
 10
1825.0
 20
510.0
 30
0.0
 11
1847.5
 21
510.0
 31
0.0
  0
LINE
  5
2BB
330
17
100
AcDbEntity
  8
WINDOW
100
AcDbLine
 10
1825.0
 20
335.0
 30
0.0
 11
1825.0
 21
320.0
 31
0.0
  0
LINE
  5
2BC
330
17
100
AcDbEntity
  8
WINDOW
100
AcDbLine
 10
1831.6666666666665
 20
335.0
 30
0.0
 11
1831.6666666666665
 21
320.0
 31
0.0
  0
LINE
  5
2BD
330
17
100
AcDbEntity
  8
WINDOW
100
AcDbLine
 10
1838.3333333333335
 20
335.0
 30
0.0
 11
1838.3333333333335
 21
320.0
 31
0.0
  0
LINE
  5
2BE
330
17
100
AcDbEntity
  8
WINDOW
100
AcDbLine
 10
1845.0
 20
335.0
 30
0.0
 11
1845.0
 21
320.0
 31
0.0
  0
LINE
  5
2BF
330
17
100
AcDbEntity
  8
WINDOW
100
AcDbLine
 10
1825.0
 20
335.0
 30
0.0
 11
1845.0
 21
335.0
 31
0.0
  0
LINE
  5
2C0
330
17
100
AcDbEntity
  8
WINDOW
100
AcDbLine
 10
1825.0
 20
320.0
 30
0.0
 11
1845.0
 21
320.0
 31
0.0
  0
LINE
  5
2C1
330
17
100
AcDbEntity
  8
WINDOW
100
AcDbLine
 10
2360.0
 20
1275.0
 30
0.0
 11
2360.0
 21
1260.0
 31
0.0
  0
LINE
  5
2C2
330
17
100
AcDbEntity
  8
WINDOW
100
AcDbLine
 10
2365.0
 20
1275.0
 30
0.0
 11
2365.0
 21
1260.0
 31
0.0
  0
LINE
  5
2C3
330
17
100
AcDbEntity
  8
WINDOW
100
AcDbLine
 10
2370.0
 20
1275.0
 30
0.0
 11
2370.0
 21
1260.0
 31
0.0
  0
LINE
  5
2C4
330
17
100
AcDbEntity
  8
WINDOW
100
AcDbLine
 10
2375.0
 20
1275.0
 30
0.0
 11
2375.0
 21
1260.0
 31
0.0
  0
LINE
  5
2C5
330
17
100
AcDbEntity
  8
WINDOW
100
AcDbLine
 10
2360.0
 20
1275.0
 30
0.0
 11
2375.0
 21
1275.0
 31
0.0
  0
LINE
  5
2C6
330
17
100
AcDbEntity
  8
WINDOW
100
AcDbLine
 10
2360.0
 20
1260.0
 30
0.0
 11
2375.0
 21
1260.0
 31
0.0
  0
LINE
  5
2C7
330
17
100
AcDbEntity
  8
WINDOW
100
AcDbLine
 10
2550.0
 20
1205.0
 30
0.0
 11
2550.0
 21
1135.0
 31
0.0
  0
LINE
  5
2C8
330
17
100
AcDbEntity
  8
WINDOW
100
AcDbLine
 10
2560.0
 20
1205.0
 30
0.0
 11
2560.0
 21
1135.0
 31
0.0
  0
LINE
  5
2C9
330
17
100
AcDbEntity
  8
WINDOW
100
AcDbLine
 10
2570.0
 20
1205.0
 30
0.0
 11
2570.0
 21
1135.0
 31
0.0
  0
LINE
  5
2CA
330
17
100
AcDbEntity
  8
WINDOW
100
AcDbLine
 10
2580.0
 20
1205.0
 30
0.0
 11
2580.0
 21
1135.0
 31
0.0
  0
LINE
  5
2CB
330
17
100
AcDbEntity
  8
WINDOW
100
AcDbLine
 10
2550.0
 20
1205.0
 30
0.0
 11
2580.0
 21
1205.0
 31
0.0
  0
LINE
  5
2CC
330
17
100
AcDbEntity
  8
WINDOW
100
AcDbLine
 10
2550.0
 20
1135.0
 30
0.0
 11
2580.0
 21
1135.0
 31
0.0
  0
LINE
  5
2CD
330
17
100
AcDbEntity
  8
WINDOW
100
AcDbLine
 10
2575.0
 20
890.0
 30
0.0
 11
2575.0
 21
815.0
 31
0.0
  0
LINE
  5
2CE
330
17
100
AcDbEntity
  8
WINDOW
100
AcDbLine
 10
2579.166666666667
 20
890.0
 30
0.0
 11
2579.166666666667
 21
815.0
 31
0.0
  0
LINE
  5
2CF
330
17
100
AcDbEntity
  8
WINDOW
100
AcDbLine
 10
2583.333333333333
 20
890.0
 30
0.0
 11
2583.333333333333
 21
815.0
 31
0.0
  0
LINE
  5
2D0
330
17
100
AcDbEntity
  8
WINDOW
100
AcDbLine
 10
2587.5
 20
890.0
 30
0.0
 11
2587.5
 21
815.0
 31
0.0
  0
LINE
  5
2D1
330
17
100
AcDbEntity
  8
WINDOW
100
AcDbLine
 10
2575.0
 20
890.0
 30
0.0
 11
2587.5
 21
890.0
 31
0.0
  0
LINE
  5
2D2
330
17
100
AcDbEntity
  8
WINDOW
100
AcDbLine
 10
2575.0
 20
815.0
 30
0.0
 11
2587.5
 21
815.0
 31
0.0
  0
LINE
  5
2D3
330
17
100
AcDbEntity
  8
WINDOW
100
AcDbLine
 10
2570.0
 20
190.0
 30
0.0
 11
2570.0
 21
140.0
 31
0.0
  0
LINE
  5
2D4
330
17
100
AcDbEntity
  8
WINDOW
100
AcDbLine
 10
2575.833333333333
 20
190.0
 30
0.0
 11
2575.833333333333
 21
140.0
 31
0.0
  0
LINE
  5
2D5
330
17
100
AcDbEntity
  8
WINDOW
100
AcDbLine
 10
2581.666666666667
 20
190.0
 30
0.0
 11
2581.666666666667
 21
140.0
 31
0.0
  0
LINE
  5
2D6
330
17
100
AcDbEntity
  8
WINDOW
100
AcDbLine
 10
2587.5
 20
190.0
 30
0.0
 11
2587.5
 21
140.0
 31
0.0
  0
LINE
  5
2D7
330
17
100
AcDbEntity
  8
WINDOW
100
AcDbLine
 10
2570.0
 20
190.0
 30
0.0
 11
2587.5
 21
190.0
 31
0.0
  0
LINE
  5
2D8
330
17
100
AcDbEntity
  8
WINDOW
100
AcDbLine
 10
2570.0
 20
140.0
 30
0.0
 11
2587.5
 21
140.0
 31
0.0
  0
LINE
  5
2D9
330
17
100
AcDbEntity
  8
WINDOW
100
AcDbLine
 10
725.0
 20
1992.5
 30
0.0
 11
825.0
 21
1992.5
 31
0.0
  0
LINE
  5
2DA
330
17
100
AcDbEntity
  8
WINDOW
100
AcDbLine
 10
725.0
 20
1985.8333333333335
 30
0.0
 11
825.0
 21
1985.8333333333335
 31
0.0
  0
LINE
  5
2DB
330
17
100
AcDbEntity
  8
WINDOW
100
AcDbLine
 10
725.0
 20
1979.1666666666665
 30
0.0
 11
825.0
 21
1979.1666666666665
 31
0.0
  0
LINE
  5
2DC
330
17
100
AcDbEntity
  8
WINDOW
100
AcDbLine
 10
725.0
 20
1972.5
 30
0.0
 11
825.0
 21
1972.5
 31
0.0
  0
LINE
  5
2DD
330
17
100
AcDbEntity
  8
WINDOW
100
AcDbLine
 10
725.0
 20
1992.5
 30
0.0
 11
725.0
 21
1972.5
 31
0.0
  0
LINE
  5
2DE
330
17
100
AcDbEntity
  8
WINDOW
100
AcDbLine
 10
825.0
 20
1992.5
 30
0.0
 11
825.0
 21
1972.5
 31
0.0
  0
LWPOLYLINE
  5
2E0
330
17
100
AcDbEntity
  8
DOORZONE
100
AcDbPolyline
 90
4
 70
1
 10
1282.5
 20
2060.0
 10
1342.5
 20
2060.0
 10
1342.5
 20
1940.0
 10
1282.5
 20
1940.0
  0
LWPOLYLINE
  5
2E1
330
17
100
AcDbEntity
  8
DOORZONE
100
AcDbPolyline
 90
4
 70
1
 10
840.0
 20
2030.0
 10
890.0
 20
2030.0
 10
890.0
 20
1930.0
 10
840.0
 20
1930.0
  0
LWPOLYLINE
  5
2E2
330
17
100
AcDbEntity
  8
DOORZONE
100
AcDbPolyline
 90
4
 70
1
 10
2045.0
 20
2023.75
 10
2090.0
 20
2023.75
 10
2090.0
 20
1933.75
 10
2045.0
 20
1933.75
  0
LWPOLYLINE
  5
2E3
330
17
100
AcDbEntity
  8
DOORZONE
100
AcDbPolyline
 90
4
 70
1
 10
572.5
 20
2017.5
 10
620.0
 20
2017.5
 10
620.0
 20
1922.5
 10
572.5
 20
1922.5
  0
LWPOLYLINE
  5
2E4
330
17
100
AcDbEntity
  8
DOORZONE
100
AcDbPolyline
 90
4
 70
1
 10
662.5
 20
2022.5
 10
715.0
 20
2022.5
 10
715.0
 20
1917.5
 10
662.5
 20
1917.5
  0
LWPOLYLINE
  5
2E5
330
17
100
AcDbEntity
  8
DOORZONE
100
AcDbPolyline
 90
4
 70
1
 10
2265.0
 20
2052.5
 10
2407.5
 20
2052.5
 10
2407.5
 20
1767.5
 10
2265.0
 20
1767.5
  0
LWPOLYLINE
  5
2E6
330
17
100
AcDbEntity
  8
DOORZONE
100
AcDbPolyline
 90
4
 70
1
 10
1612.5
 20
1977.5
 10
1692.5
 20
1977.5
 10
1692.5
 20
1817.5
 10
1612.5
 20
1817.5
  0
LWPOLYLINE
  5
2E7
330
17
100
AcDbEntity
  8
DOORZONE
100
AcDbPolyline
 90
4
 70
1
 10
2390.0
 20
1681.25
 10
2470.0
 20
1681.25
 10
2470.0
 20
1521.25
 10
2390.0
 20
1521.25
  0
LWPOLYLINE
  5
2E8
330
17
100
AcDbEntity
  8
DOORZONE
100
AcDbPolyline
 90
4
 70
1
 10
2275.0
 20
1650.0
 10
2352.5
 20
1650.0
 10
2352.5
 20
1495.0
 10
2275.0
 20
1495.0
  0
LWPOLYLINE
  5
2E9
330
17
100
AcDbEntity
  8
DOORZONE
100
AcDbPolyline
 90
4
 70
1
 10
1822.5
 20
1612.5
 10
1872.5
 20
1612.5
 10
1872.5
 20
1512.5
 10
1822.5
 20
1512.5
  0
LWPOLYLINE
  5
2EA
330
17
100
AcDbEntity
  8
DOORZONE
100
AcDbPolyline
 90
4
 70
1
 10
1232.5
 20
1603.75
 10
1285.0
 20
1603.75
 10
1285.0
 20
1498.75
 10
1232.5
 20
1498.75
  0
LWPOLYLINE
  5
2EB
330
17
100
AcDbEntity
  8
DOORZONE
100
AcDbPolyline
 90
4
 70
1
 10
1547.5
 20
1487.5
 10
1615.0
 20
1487.5
 10
1615.0
 20
1352.5
 10
1547.5
 20
1352.5
  0
LWPOLYLINE
  5
2EC
330
17
100
AcDbEntity
  8
DOORZONE
100
AcDbPolyline
 90
4
 70
1
 10
1900.0
 20
1480.0
 10
1960.0
 20
1480.0
 10
1960.0
 20
1360.0
 10
1900.0
 20
1360.0
  0
LWPOLYLINE
  5
2ED
330
17
100
AcDbEntity
  8
DOORZONE
100
AcDbPolyline
 90
4
 70
1
 10
2412.5
 20
1495.0
 10
2510.0
 20
1495.0
 10
2510.0
 20
1300.0
 10
2412.5
 20
1300.0
  0
LWPOLYLINE
  5
2EE
330
17
100
AcDbEntity
  8
DOORZONE
100
AcDbPolyline
 90
4
 70
1
 10
1687.5
 20
1485.0
 10
1780.0
 20
1485.0
 10
1780.0
 20
1300.0
 10
1687.5
 20
1300.0
  0
LWPOLYLINE
  5
2EF
330
17
100
AcDbEntity
  8
DOORZONE
100
AcDbPolyline
 90
4
 70
1
 10
2470.0
 20
1386.25
 10
2552.5
 20
1386.25
 10
2552.5
 20
1221.25
 10
2470.0
 20
1221.25
  0
LWPOLYLINE
  5
2F0
330
17
100
AcDbEntity
  8
DOORZONE
100
AcDbPolyline
 90
4
 70
1
 10
762.5
 20
1390.0
 10
885.0
 20
1390.0
 10
885.0
 20
1145.0
 10
762.5
 20
1145.0
  0
LWPOLYLINE
  5
2F1
330
17
100
AcDbEntity
  8
DOORZONE
100
AcDbPolyline
 90
4
 70
1
 10
82.5
 20
1172.5
 10
200.0
 20
1172.5
 10
200.0
 20
937.5
 10
82.5
 20
937.5
  0
LWPOLYLINE
  5
2F2
330
17
100
AcDbEntity
  8
DOORZONE
100
AcDbPolyline
 90
4
 70
1
 10
465.0
 20
1095.0
 10
602.5
 20
1095.0
 10
602.5
 20
820.0
 10
465.0
 20
820.0
  0
LWPOLYLINE
  5
2F3
330
17
100
AcDbEntity
  8
DOORZONE
100
AcDbPolyline
 90
4
 70
1
 10
87.5
 20
1035.0
 10
200.0
 20
1035.0
 10
200.0
 20
810.0
 10
87.5
 20
810.0
  0
LWPOLYLINE
  5
2F4
330
17
100
AcDbEntity
  8
DOORZONE
100
AcDbPolyline
 90
4
 70
1
 10
692.5
 20
967.5
 10
745.0
 20
967.5
 10
745.0
 20
862.5
 10
692.5
 20
862.5
  0
LWPOLYLINE
  5
2F5
330
17
100
AcDbEntity
  8
DOORZONE
100
AcDbPolyline
 90
4
 70
1
 10
2510.0
 20
970.0
 10
2577.5
 20
970.0
 10
2577.5
 20
835.0
 10
2510.0
 20
835.0
  0
LWPOLYLINE
  5
2F6
330
17
100
AcDbEntity
  8
DOORZONE
100
AcDbPolyline
 90
4
 70
1
 10
382.5
 20
910.0
 10
500.0
 20
910.0
 10
500.0
 20
675.0
 10
382.5
 20
675.0
  0
LWPOLYLINE
  5
2F7
330
17
100
AcDbEntity
  8
DOORZONE
100
AcDbPolyline
 90
4
 70
1
 10
752.5
 20
830.0
 10
850.0
 20
830.0
 10
850.0
 20
635.0
 10
752.5
 20
635.0
  0
LWPOLYLINE
  5
2F8
330
17
100
AcDbEntity
  8
DOORZONE
100
AcDbPolyline
 90
4
 70
1
 10
1662.5
 20
687.5
 10
1715.0
 20
687.5
 10
1715.0
 20
582.5
 10
1662.5
 20
582.5
  0
LWPOLYLINE
  5
2F9
330
17
100
AcDbEntity
  8
DOORZONE
100
AcDbPolyline
 90
4
 70
1
 10
932.5
 20
721.25
 10
1022.5
 20
721.25
 10
1022.5
 20
541.25
 10
932.5
 20
541.25
  0
LWPOLYLINE
  5
2FA
330
17
100
AcDbEntity
  8
DOORZONE
100
AcDbPolyline
 90
4
 70
1
 10
87.5
 20
523.75
 10
200.0
 20
523.75
 10
200.0
 20
298.75
 10
87.5
 20
298.75
  0
LWPOLYLINE
  5
2FB
330
17
100
AcDbEntity
  8
DOORZONE
100
AcDbPolyline
 90
4
 70
1
 10
1097.5
 20
241.25
 10
1137.5
 20
241.25
 10
1137.5
 20
161.25
 10
1097.5
 20
161.25
  0
LWPOLYLINE
  5
2FC
330
17
100
AcDbEntity
  8
DOORZONE
100
AcDbPolyline
 90
4
 70
1
 10
982.5
 20
187.5
 10
1040.0
 20
187.5
 10
1040.0
 20
72.5
 10
982.5
 20
72.5
  0
LWPOLYLINE
  5
2FD
330
17
100
AcDbEntity
  8
DOORZONE
100
AcDbPolyline
 90
4
 70
1
 10
547.5
 20
268.75
 10
695.0
 20
268.75
 10
695.0
 20
-26.25
 10
547.5
 20
-26.25
  0
LWPOLYLINE
  5
2FE
330
17
100
AcDbEntity
  8
DOORZONE
100
AcDbPolyline
 90
4
 70
1
 10
1216.25
 20
1972.5
 10
1216.25
 20
1842.5
 10
1476.25
 20
1842.5
 10
1476.25
 20
1972.5
  0
LWPOLYLINE
  5
2FF
330
17
100
AcDbEntity
  8
DOORZONE
100
AcDbPolyline
 90
4
 70
1
 10
777.5
 20
1890.0
 10
777.5
 20
1835.0
 10
887.5
 20
1835.0
 10
887.5
 20
1890.0
  0
LWPOLYLINE
  5
300
330
17
100
AcDbEntity
  8
DOORZONE
100
AcDbPolyline
 90
4
 70
1
 10
1050.0
 20
1912.5
 10
1050.0
 20
1842.5
 10
1190.0
 20
1842.5
 10
1190.0
 20
1912.5
  0
LWPOLYLINE
  5
301
330
17
100
AcDbEntity
  8
DOORZONE
100
AcDbPolyline
 90
4
 70
1
 10
1538.75
 20
1975.0
 10
1538.75
 20
1912.5
 10
1663.75
 20
1912.5
 10
1663.75
 20
1975.0
  0
LWPOLYLINE
  5
302
330
17
100
AcDbEntity
  8
DOORZONE
100
AcDbPolyline
 90
4
 70
1
 10
2313.75
 20
1782.5
 10
2313.75
 20
1680.0
 10
2518.75
 20
1680.0
 10
2518.75
 20
1782.5
  0
LWPOLYLINE
  5
303
330
17
100
AcDbEntity
  8
DOORZONE
100
AcDbPolyline
 90
4
 70
1
 10
1778.75
 20
1537.5
 10
1778.75
 20
1425.0
 10
2003.75
 20
1425.0
 10
2003.75
 20
1537.5
  0
LWPOLYLINE
  5
304
330
17
100
AcDbEntity
  8
DOORZONE
100
AcDbPolyline
 90
4
 70
1
 10
45.0
 20
1412.5
 10
45.0
 20
1372.5
 10
125.0
 20
1372.5
 10
125.0
 20
1412.5
  0
LWPOLYLINE
  5
305
330
17
100
AcDbEntity
  8
DOORZONE
100
AcDbPolyline
 90
4
 70
1
 10
1711.25
 20
1335.0
 10
1711.25
 20
1265.0
 10
1851.25
 20
1265.0
 10
1851.25
 20
1335.0
  0
LWPOLYLINE
  5
306
330
17
100
AcDbEntity
  8
DOORZONE
100
AcDbPolyline
 90
4
 70
1
 10
2487.5
 20
1390.0
 10
2487.5
 20
1312.5
 10
2642.5
 20
1312.5
 10
2642.5
 20
1390.0
  0
LWPOLYLINE
  5
307
330
17
100
AcDbEntity
  8
DOORZONE
100
AcDbPolyline
 90
4
 70
1
 10
2271.25
 20
1137.5
 10
2271.25
 20
995.0
 10
2556.25
 20
995.0
 10
2556.25
 20
1137.5
  0
LWPOLYLINE
  5
308
330
17
100
AcDbEntity
  8
DOORZONE
100
AcDbPolyline
 90
4
 70
1
 10
2330.0
 20
890.0
 10
2330.0
 20
845.0
 10
2420.0
 20
845.0
 10
2420.0
 20
890.0
  0
LWPOLYLINE
  5
309
330
17
100
AcDbEntity
  8
DOORZONE
100
AcDbPolyline
 90
4
 70
1
 10
1740.0
 20
870.0
 10
1740.0
 20
790.0
 10
1900.0
 20
790.0
 10
1900.0
 20
870.0
  0
LWPOLYLINE
  5
30A
330
17
100
AcDbEntity
  8
DOORZONE
100
AcDbPolyline
 90
4
 70
1
 10
2503.75
 20
890.0
 10
2503.75
 20
815.0
 10
2653.75
 20
815.0
 10
2653.75
 20
890.0
  0
LWPOLYLINE
  5
30B
330
17
100
AcDbEntity
  8
DOORZONE
100
AcDbPolyline
 90
4
 70
1
 10
2495.0
 20
742.5
 10
2495.0
 20
682.5
 10
2615.0
 20
682.5
 10
2615.0
 20
742.5
  0
LWPOLYLINE
  5
30C
330
17
100
AcDbEntity
  8
DOORZONE
100
AcDbPolyline
 90
4
 70
1
 10
1635.0
 20
730.0
 10
1635.0
 20
650.0
 10
1795.0
 20
650.0
 10
1795.0
 20
730.0
  0
LWPOLYLINE
  5
30D
330
17
100
AcDbEntity
  8
DOORZONE
100
AcDbPolyline
 90
4
 70
1
 10
2467.5
 20
380.0
 10
2467.5
 20
270.0
 10
2687.5
 20
270.0
 10
2687.5
 20
380.0
  0
LWPOLYLINE
  5
30E
330
17
100
AcDbEntity
  8
DOORZONE
100
AcDbPolyline
 90
4
 70
1
 10
2505.0
 20
487.5
 10
2505.0
 20
415.0
 10
2650.0
 20
415.0
 10
2650.0
 20
487.5
  0
LWPOLYLINE
  5
30F
330
17
100
AcDbEntity
  8
DOORZONE
100
AcDbPolyline
 90
4
 70
1
 10
-35.0
 20
260.0
 10
-35.0
 20
165.0
 10
155.0
 20
165.0
 10
155.0
 20
260.0
  0
ENDSEC
  0
SECTION
  2
OBJECTS
  0
DICTIONARY
  5
A
330
0
100
AcDbDictionary
281
1
  3
ACAD_COLOR
350
B
  3
ACAD_GROUP
350
C
  3
ACAD_LAYOUT
350
D
  3
ACAD_MATERIAL
350
E
  3
ACAD_MLEADERSTYLE
350
F
  3
ACAD_MLINESTYLE
350
10
  3
ACAD_PLOTSETTINGS
350
11
  3
ACAD_PLOTSTYLENAME
350
12
  3
ACAD_SCALELIST
350
14
  3
ACAD_TABLESTYLE
350
15
  3
ACAD_VISUALSTYLE
350
16
  3
EZDXF_META
350
2D
  0
DICTIONARY
  5
B
330
A
100
AcDbDictionary
281
1
  0
DICTIONARY
  5
C
330
A
100
AcDbDictionary
281
1
  0
DICTIONARY
  5
D
330
A
100
AcDbDictionary
281
1
  3
Model
350
1A
  3
Layout1
350
1E
  0
DICTIONARY
  5
E
330
A
100
AcDbDictionary
281
1
  3
ByBlock
350
1F
  3
ByLayer
350
20
  3
Global
350
21
  0
DICTIONARY
  5
F
330
A
100
AcDbDictionary
281
1
  3
Standard
350
2C
  0
DICTIONARY
  5
10
330
A
100
AcDbDictionary
281
1
  3
Standard
350
22
  0
DICTIONARY
  5
11
330
A
100
AcDbDictionary
281
1
  0
ACDBDICTIONARYWDFLT
  5
12
330
A
100
AcDbDictionary
281
1
  3
Normal
350
13
100
AcDbDictionaryWithDefault
340
13
  0
ACDBPLACEHOLDER
  5
13
330
12
  0
DICTIONARY
  5
14
330
A
100
AcDbDictionary
281
1
  0
DICTIONARY
  5
15
330
A
100
AcDbDictionary
281
1
  0
DICTIONARY
  5
16
330
A
100
AcDbDictionary
281
1
  0
LAYOUT
  5
1A
330
D
100
AcDbPlotSettings
  1

  4
A3
  6

 40
7.5
 41
20.0
 42
7.5
 43
20.0
 44
420.0
 45
297.0
 46
0.0
 47
0.0
 48
0.0
 49
0.0
140
0.0
141
0.0
142
1.0
143
1.0
 70
1024
 72
1
 73
0
 74
5
  7

 75
16
 76
0
 77
2
 78
300
147
1.0
148
0.0
149
0.0
100
AcDbLayout
  1
Model
 70
1
 71
0
 10
0.0
 20
0.0
 11
420.0
 21
297.0
 12
0.0
 22
0.0
 32
0.0
 14
1e+20
 24
1e+20
 34
1e+20
 15
-1e+20
 25
-1e+20
 35
-1e+20
146
0.0
 13
0.0
 23
0.0
 33
0.0
 16
1.0
 26
0.0
 36
0.0
 17
0.0
 27
1.0
 37
0.0
 76
1
330
17
  0
LAYOUT
  5
1E
330
D
100
AcDbPlotSettings
  1

  4
A3
  6

 40
7.5
 41
20.0
 42
7.5
 43
20.0
 44
420.0
 45
297.0
 46
0.0
 47
0.0
 48
0.0
 49
0.0
140
0.0
141
0.0
142
1.0
143
1.0
 70
0
 72
1
 73
0
 74
5
  7

 75
16
 76
0
 77
2
 78
300
147
1.0
148
0.0
149
0.0
100
AcDbLayout
  1
Layout1
 70
1
 71
1
 10
0.0
 20
0.0
 11
420.0
 21
297.0
 12
0.0
 22
0.0
 32
0.0
 14
1e+20
 24
1e+20
 34
1e+20
 15
-1e+20
 25
-1e+20
 35
-1e+20
146
0.0
 13
0.0
 23
0.0
 33
0.0
 16
1.0
 26
0.0
 36
0.0
 17
0.0
 27
1.0
 37
0.0
 76
1
330
1B
  0
MATERIAL
  5
1F
102
{ACAD_REACTORS
330
E
102
}
330
E
100
AcDbMaterial
  1
ByBlock
  2

 70
0
 40
1.0
 71
1
 41
1.0
 91
-1023410177
 42
1.0
 72
1
  3

 73
1
 74
1
 75
1
 44
0.5
 73
0
 45
1.0
 46
1.0
 77
1
  4

 78
1
 79
1
170
1
 48
1.0
171
1
  6

172
1
173
1
174
1
140
1.0
141
1.0
175
1
  7

176
1
177
1
178
1
143
1.0
179
1
  8

270
1
271
1
272
1
145
1.0
146
1.0
273
1
  9

274
1
275
1
276
1
 42
1.0
 72
1
  3

 73
1
 74
1
 75
1
 94
63
  0
MATERIAL
  5
20
102
{ACAD_REACTORS
330
E
102
}
330
E
100
AcDbMaterial
  1
ByLayer
  2

 70
0
 40
1.0
 71
1
 41
1.0
 91
-1023410177
 42
1.0
 72
1
  3

 73
1
 74
1
 75
1
 44
0.5
 73
0
 45
1.0
 46
1.0
 77
1
  4

 78
1
 79
1
170
1
 48
1.0
171
1
  6

172
1
173
1
174
1
140
1.0
141
1.0
175
1
  7

176
1
177
1
178
1
143
1.0
179
1
  8

270
1
271
1
272
1
145
1.0
146
1.0
273
1
  9

274
1
275
1
276
1
 42
1.0
 72
1
  3

 73
1
 74
1
 75
1
 94
63
  0
MATERIAL
  5
21
102
{ACAD_REACTORS
330
E
102
}
330
E
100
AcDbMaterial
  1
Global
  2

 70
0
 40
1.0
 71
1
 41
1.0
 91
-1023410177
 42
1.0
 72
1
  3

 73
1
 74
1
 75
1
 44
0.5
 73
0
 45
1.0
 46
1.0
 77
1
  4

 78
1
 79
1
170
1
 48
1.0
171
1
  6

172
1
173
1
174
1
140
1.0
141
1.0
175
1
  7

176
1
177
1
178
1
143
1.0
179
1
  8

270
1
271
1
272
1
145
1.0
146
1.0
273
1
  9

274
1
275
1
276
1
 42
1.0
 72
1
  3

 73
1
 74
1
 75
1
 94
63
  0
MLINESTYLE
  5
22
102
{ACAD_REACTORS
330
10
102
}
330
10
100
AcDbMlineStyle
  2
Standard
 70
0
  3

 62
256
 51
90.0
 52
90.0
 71
2
 49
0.5
 62
256
  6
BYLAYER
 49
-0.5
 62
256
  6
BYLAYER
  0
MLEADERSTYLE
  5
2C
102
{ACAD_REACTORS
330
F
102
}
330
F
100
AcDbMLeaderStyle
179
2
170
2
171
1
172
0
 90
2
 40
0.0
 41
0.0
173
1
 91
-1056964608
 92
-2
290
1
 42
2.0
291
1
 43
8.0
  3
Standard
 44
4.0
300

342
29
174
1
175
1
176
0
178
1
 93
-1056964608
 45
4.0
292
0
297
0
 46
4.0
 94
-1056964608
 47
1.0
 49
1.0
140
1.0
294
1
141
0.0
177
0
142
1.0
295
0
296
0
143
3.75
271
0
272
9
273
9
  0
DICTIONARY
  5
2D
330
A
100
AcDbDictionary
280
1
281
1
  3
CREATED_BY_EZDXF
350
2E
  3
WRITTEN_BY_EZDXF
350
312
  0
DICTIONARYVAR
  5
2E
330
2D
100
DictionaryVariables
280
0
  1
1.4.4 @ 2026-07-12T08:53:25.059591+00:00
  0
DICTIONARYVAR
  5
312
330
2D
100
DictionaryVariables
280
0
  1
1.4.4 @ 2026-07-12T08:53:25.072879+00:00
  0
ENDSEC
  0
EOF
