  0
SECTION
  2
HEADER
  9
$ACADVER
  1
AC1024
  9
$ACADMAINTVER
 70
6
  9
$DWGCODEPAGE
  3
ANSI_1252
  9
$LASTSAVEDBY
  1
ezdxf
  9
$INSBASE
 10
0.0
 20
0.0
 30
0.0
  9
$EXTMIN
 10
1e+20
 20
1e+20
 30
1e+20
  9
$EXTMAX
 10
-1e+20
 20
-1e+20
 30
-1e+20
  9
$LIMMIN
 10
0.0
 20
0.0
  9
$LIMMAX
 10
420.0
 20
297.0
  9
$ORTHOMODE
 70
0
  9
$REGENMODE
 70
1
  9
$FILLMODE
 70
1
  9
$QTEXTMODE
 70
0
  9
$MIRRTEXT
 70
1
  9
$LTSCALE
 40
1.0
  9
$ATTMODE
 70
1
  9
$TEXTSIZE
 40
2.5
  9
$TRACEWID
 40
1.0
  9
$TEXTSTYLE
  7
Standard
  9
$CLAYER
  8
0
  9
$CELTYPE
  6
ByLayer
  9
$CECOLOR
 62
256
  9
$CELTSCALE
 40
1.0
  9
$DISPSILH
 70
0
  9
$DIMSCALE
 40
1.0
  9
$DIMASZ
 40
2.5
  9
$DIMEXO
 40
0.625
  9
$DIMDLI
 40
3.75
  9
$DIMRND
 40
0.0
  9
$DIMDLE
 40
0.0
  9
$DIMEXE
 40
1.25
  9
$DIMTP
 40
0.0
  9
$DIMTM
 40
0.0
  9
$DIMTXT
 40
2.5
  9
$DIMCEN
 40
2.5
  9
$DIMTSZ
 40
0.0
  9
$DIMTOL
 70
0
  9
$DIMLIM
 70
0
  9
$DIMTIH
 70
0
  9
$DIMTOH
 70
0
  9
$DIMSE1
 70
0
  9
$DIMSE2
 70
0
  9
$DIMTAD
 70
1
  9
$DIMZIN
 70
8
  9
$DIMBLK
  1

  9
$DIMASO
 70
1
  9
$DIMSHO
 70
1
  9
$DIMPOST
  1

  9
$DIMAPOST
  1

  9
$DIMALT
 70
0
  9
$DIMALTD
 70
3
  9
$DIMALTF
 40
0.03937007874
  9
$DIMLFAC
 40
1.0
  9
$DIMTOFL
 70
1
  9
$DIMTVP
 40
0.0
  9
$DIMTIX
 70
0
  9
$DIMSOXD
 70
0
  9
$DIMSAH
 70
0
  9
$DIMBLK1
  1

  9
$DIMBLK2
  1

  9
$DIMSTYLE
  2
ISO-25
  9
$DIMCLRD
 70
0
  9
$DIMCLRE
 70
0
  9
$DIMCLRT
 70
0
  9
$DIMTFAC
 40
1.0
  9
$DIMGAP
 40
0.625
  9
$DIMJUST
 70
0
  9
$DIMSD1
 70
0
  9
$DIMSD2
 70
0
  9
$DIMTOLJ
 70
0
  9
$DIMTZIN
 70
8
  9
$DIMALTZ
 70
0
  9
$DIMALTTZ
 70
0
  9
$DIMUPT
 70
0
  9
$DIMDEC
 70
2
  9
$DIMTDEC
 70
2
  9
$DIMALTU
 70
2
  9
$DIMALTTD
 70
3
  9
$DIMTXSTY
  7
Standard
  9
$DIMAUNIT
 70
0
  9
$DIMADEC
 70
0
  9
$DIMALTRND
 40
0.0
  9
$DIMAZIN
 70
0
  9
$DIMDSEP
 70
44
  9
$DIMATFIT
 70
3
  9
$DIMFRAC
 70
0
  9
$DIMLDRBLK
  1

  9
$DIMLUNIT
 70
2
  9
$DIMLWD
 70
-2
  9
$DIMLWE
 70
-2
  9
$DIMTMOVE
 70
0
  9
$DIMFXL
 40
1.0
  9
$DIMFXLON
 70
0
  9
$DIMJOGANG
 40
0.785398163397
  9
$DIMTFILL
 70
0
  9
$DIMTFILLCLR
 70
0
  9
$DIMARCSYM
 70
0
  9
$DIMLTYPE
  6

  9
$DIMLTEX1
  6

  9
$DIMLTEX2
  6

  9
$DIMTXTDIRECTION
 70
0
  9
$LUNITS
 70
2
  9
$LUPREC
 70
4
  9
$SKETCHINC
 40
1.0
  9
$FILLETRAD
 40
10.0
  9
$AUNITS
 70
0
  9
$AUPREC
 70
2
  9
$MENU
  1
.
  9
$ELEVATION
 40
0.0
  9
$PELEVATION
 40
0.0
  9
$THICKNESS
 40
0.0
  9
$LIMCHECK
 70
0
  9
$CHAMFERA
 40
0.0
  9
$CHAMFERB
 40
0.0
  9
$CHAMFERC
 40
0.0
  9
$CHAMFERD
 40
0.0
  9
$SKPOLY
 70
0
  9
$TDCREATE
 40
2461234.7037847224
  9
$TDUCREATE
 40
2458532.153996898
  9
$TDUPDATE
 40
2461234.7037847224
  9
$TDUUPDATE
 40
2458532.1544311
  9
$TDINDWG
 40
0.0
  9
$TDUSRTIMER
 40
0.0
  9
$USRTIMER
 70
1
  9
$ANGBASE
 50
0.0
  9
$ANGDIR
 70
0
  9
$PDMODE
 70
0
  9
$PDSIZE
 40
0.0
  9
$PLINEWID
 40
0.0
  9
$SPLFRAME
 70
0
  9
$SPLINETYPE
 70
6
  9
$SPLINESEGS
 70
8
  9
$HANDSEED
  5
141
  9
$SURFTAB1
 70
6
  9
$SURFTAB2
 70
6
  9
$SURFTYPE
 70
6
  9
$SURFU
 70
6
  9
$SURFV
 70
6
  9
$UCSBASE
  2

  9
$UCSNAME
  2

  9
$UCSORG
 10
0.0
 20
0.0
 30
0.0
  9
$UCSXDIR
 10
1.0
 20
0.0
 30
0.0
  9
$UCSYDIR
 10
0.0
 20
1.0
 30
0.0
  9
$UCSORTHOREF
  2

  9
$UCSORTHOVIEW
 70
0
  9
$UCSORGTOP
 10
0.0
 20
0.0
 30
0.0
  9
$UCSORGBOTTOM
 10
0.0
 20
0.0
 30
0.0
  9
$UCSORGLEFT
 10
0.0
 20
0.0
 30
0.0
  9
$UCSORGRIGHT
 10
0.0
 20
0.0
 30
0.0
  9
$UCSORGFRONT
 10
0.0
 20
0.0
 30
0.0
  9
$UCSORGBACK
 10
0.0
 20
0.0
 30
0.0
  9
$PUCSBASE
  2

  9
$PUCSNAME
  2

  9
$PUCSORG
 10
0.0
 20
0.0
 30
0.0
  9
$PUCSXDIR
 10
1.0
 20
0.0
 30
0.0
  9
$PUCSYDIR
 10
0.0
 20
1.0
 30
0.0
  9
$PUCSORTHOREF
  2

  9
$PUCSORTHOVIEW
 70
0
  9
$PUCSORGTOP
 10
0.0
 20
0.0
 30
0.0
  9
$PUCSORGBOTTOM
 10
0.0
 20
0.0
 30
0.0
  9
$PUCSORGLEFT
 10
0.0
 20
0.0
 30
0.0
  9
$PUCSORGRIGHT
 10
0.0
 20
0.0
 30
0.0
  9
$PUCSORGFRONT
 10
0.0
 20
0.0
 30
0.0
  9
$PUCSORGBACK
 10
0.0
 20
0.0
 30
0.0
  9
$USERI1
 70
0
  9
$USERI2
 70
0
  9
$USERI3
 70
0
  9
$USERI4
 70
0
  9
$USERI5
 70
0
  9
$USERR1
 40
0.0
  9
$USERR2
 40
0.0
  9
$USERR3
 40
0.0
  9
$USERR4
 40
0.0
  9
$USERR5
 40
0.0
  9
$WORLDVIEW
 70
1
  9
$SHADEDGE
 70
3
  9
$SHADEDIF
 70
70
  9
$TILEMODE
 70
1
  9
$MAXACTVP
 70
64
  9
$PINSBASE
 10
0.0
 20
0.0
 30
0.0
  9
$PLIMCHECK
 70
0
  9
$PEXTMIN
 10
1e+20
 20
1e+20
 30
1e+20
  9
$PEXTMAX
 10
-1e+20
 20
-1e+20
 30
-1e+20
  9
$PLIMMIN
 10
0.0
 20
0.0
  9
$PLIMMAX
 10
420.0
 20
297.0
  9
$UNITMODE
 70
0
  9
$VISRETAIN
 70
1
  9
$PLINEGEN
 70
0
  9
$PSLTSCALE
 70
1
  9
$TREEDEPTH
 70
3020
  9
$CMLSTYLE
  2
Standard
  9
$CMLJUST
 70
0
  9
$CMLSCALE
 40
20.0
  9
$PROXYGRAPHICS
 70
1
  9
$MEASUREMENT
 70
1
  9
$CELWEIGHT
370
-1
  9
$ENDCAPS
280
0
  9
$JOINSTYLE
280
0
  9
$LWDISPLAY
290
0
  9
$INSUNITS
 70
5
  9
$HYPERLINKBASE
  1

  9
$STYLESHEET
  1

  9
$XEDIT
290
1
  9
$CEPSNTYPE
380
0
  9
$PSTYLEMODE
290
1
  9
$FINGERPRINTGUID
  2
{A3AC3890-DD13-415D-B546-46D7759C8EFE}
  9
$VERSIONGUID
  2
{53B64553-0A63-486E-8DED-ECF87017D62D}
  9
$EXTNAMES
290
1
  9
$PSVPSCALE
 40
0.0
  9
$OLESTARTUP
290
0
  9
$SORTENTS
280
127
  9
$INDEXCTL
280
0
  9
$HIDETEXT
280
1
  9
$XCLIPFRAME
280
1
  9
$HALOGAP
280
0
  9
$OBSCOLOR
 70
257
  9
$OBSLTYPE
280
0
  9
$INTERSECTIONDISPLAY
280
0
  9
$INTERSECTIONCOLOR
 70
257
  9
$DIMASSOC
280
2
  9
$PROJECTNAME
  1

  9
$CAMERADISPLAY
290
0
  9
$LENSLENGTH
 40
50.0
  9
$CAMERAHEIGHT
 40
0.0
  9
$STEPSPERSEC
 40
24.0
  9
$STEPSIZE
 40
100.0
  9
$3DDWFPREC
 40
2.0
  9
$PSOLWIDTH
 40
0.005
  9
$PSOLHEIGHT
 40
0.08
  9
$LOFTANG1
 40
1.570796326795
  9
$LOFTANG2
 40
1.570796326795
  9
$LOFTMAG1
 40
0.0
  9
$LOFTMAG2
 40
0.0
  9
$LOFTPARAM
 70
7
  9
$LOFTNORMALS
280
1
  9
$LATITUDE
 40
37.795
  9
$LONGITUDE
 40
-122.394
  9
$NORTHDIRECTION
 40
0.0
  9
$TIMEZONE
 70
-8000
  9
$LIGHTGLYPHDISPLAY
280
1
  9
$TILEMODELIGHTSYNCH
280
1
  9
$CMATERIAL
347
20
  9
$SOLIDHIST
280
0
  9
$SHOWHIST
280
1
  9
$DWFFRAME
280
2
  9
$DGNFRAME
280
2
  9
$REALWORLDSCALE
290
1
  9
$INTERFERECOLOR
 62
256
  9
$CSHADOW
280
0
  9
$SHADOWPLANELOCATION
 40
0.0
  0
ENDSEC
  0
SECTION
  2
CLASSES
  0
CLASS
  1
ACDBDICTIONARYWDFLT
  2
AcDbDictionaryWithDefault
  3
ObjectDBX Classes
 90
0
 91
0
280
0
281
0
  0
CLASS
  1
SUN
  2
AcDbSun
  3
SCENEOE
 90
1153
 91
0
280
0
281
0
  0
CLASS
  1
VISUALSTYLE
  2
AcDbVisualStyle
  3
ObjectDBX Classes
 90
4095
 91
0
280
0
281
0
  0
CLASS
  1
MATERIAL
  2
AcDbMaterial
  3
ObjectDBX Classes
 90
1153
 91
0
280
0
281
0
  0
CLASS
  1
SCALE
  2
AcDbScale
  3
ObjectDBX Classes
 90
1153
 91
0
280
0
281
0
  0
CLASS
  1
TABLESTYLE
  2
AcDbTableStyle
  3
ObjectDBX Classes
 90
4095
 91
0
280
0
281
0
  0
CLASS
  1
MLEADERSTYLE
  2
AcDbMLeaderStyle
  3
ACDB_MLEADERSTYLE_CLASS
 90
4095
 91
0
280
0
281
0
  0
CLASS
  1
DICTIONARYVAR
  2
AcDbDictionaryVar
  3
ObjectDBX Classes
 90
0
 91
0
280
0
281
0
  0
CLASS
  1
CELLSTYLEMAP
  2
AcDbCellStyleMap
  3
ObjectDBX Classes
 90
1152
 91
0
280
0
281
0
  0
CLASS
  1
MENTALRAYRENDERSETTINGS
  2
AcDbMentalRayRenderSettings
  3
SCENEOE
 90
1024
 91
0
280
0
281
0
  0
CLASS
  1
ACDBDETAILVIEWSTYLE
  2
AcDbDetailViewStyle
  3
ObjectDBX Classes
 90
1025
 91
0
280
0
281
0
  0
CLASS
  1
ACDBSECTIONVIEWSTYLE
  2
AcDbSectionViewStyle
  3
ObjectDBX Classes
 90
1025
 91
0
280
0
281
0
  0
CLASS
  1
RASTERVARIABLES
  2
AcDbRasterVariables
  3
ISM
 90
0
 91
0
280
0
281
0
  0
CLASS
  1
LAYOUT
  2
AcDbLayout
  3
ObjectDBX Classes
 90
0
 91
0
280
0
281
0
  0
CLASS
  1
ACDBPLACEHOLDER
  2
AcDbPlaceHolder
  3
ObjectDBX Classes
 90
0
 91
0
280
0
281
0
  0
ENDSEC
  0
SECTION
  2
TABLES
  0
TABLE
  2
VPORT
  5
8
330
0
100
AcDbSymbolTable
 70
1
  0
VPORT
  5
23
330
8
100
AcDbSymbolTableRecord
100
AcDbViewportTableRecord
  2
*Active
 70
0
 10
0.0
 20
0.0
 11
1.0
 21
1.0
 12
0.0
 22
0.0
 13
0.0
 23
0.0
 14
0.5
 24
0.5
 15
0.5
 25
0.5
 16
0.0
 26
0.0
 36
1.0
 17
0.0
 27
0.0
 37
0.0
 40
1000.0
 41
1.34
 42
50.0
 43
0.0
 44
0.0
 50
0.0
 51
0.0
 71
0
 72
1000
 73
1
 74
3
 75
0
 76
0
 77
0
 78
0
281
0
 65
0
146
0.0
  0
ENDTAB
  0
TABLE
  2
LTYPE
  5
2
330
0
100
AcDbSymbolTable
 70
3
  0
LTYPE
  5
24
330
2
100
AcDbSymbolTableRecord
100
AcDbLinetypeTableRecord
  2
ByBlock
 70
0
  3

 72
65
 73
0
 40
0.0
  0
LTYPE
  5
25
330
2
100
AcDbSymbolTableRecord
100
AcDbLinetypeTableRecord
  2
ByLayer
 70
0
  3

 72
65
 73
0
 40
0.0
  0
LTYPE
  5
26
330
2
100
AcDbSymbolTableRecord
100
AcDbLinetypeTableRecord
  2
Continuous
 70
0
  3

 72
65
 73
0
 40
0.0
  0
ENDTAB
  0
TABLE
  2
LAYER
  5
1
330
0
100
AcDbSymbolTable
 70
5
  0
LAYER
  5
27
330
1
100
AcDbSymbolTableRecord
100
AcDbLayerTableRecord
  2
0
 70
0
 62
7
  6
Continuous
370
-3
390
13
347
21
  0
LAYER
  5
28
330
1
100
AcDbSymbolTableRecord
100
AcDbLayerTableRecord
  2
Defpoints
 70
0
 62
7
  6
Continuous
290
0
370
-3
390
13
347
21
  0
LAYER
  5
2F
330
1
100
AcDbSymbolTableRecord
100
AcDbLayerTableRecord
  2
WALL
 70
0
 62
7
  6
Continuous
370
-3
390
13
347
21
  0
LAYER
  5
30
330
1
100
AcDbSymbolTableRecord
100
AcDbLayerTableRecord
  2
WINDOW
 70
0
 62
5
  6
Continuous
370
-3
390
13
347
21
  0
LAYER
  5
123
330
1
100
AcDbSymbolTableRecord
100
AcDbLayerTableRecord
  2
DOORZONE
 70
0
 62
2
  6
Continuous
370
-3
390
13
347
21
  0
ENDTAB
  0
TABLE
  2
STYLE
  5
5
330
0
100
AcDbSymbolTable
 70
1
  0
STYLE
  5
29
330
5
100
AcDbSymbolTableRecord
100
AcDbTextStyleTableRecord
  2
Standard
 70
0
 40
0.0
 41
1.0
 50
0.0
 71
0
 42
2.5
  3
txt
  4

  0
ENDTAB
  0
TABLE
  2
VIEW
  5
7
330
0
100
AcDbSymbolTable
 70
0
  0
ENDTAB
  0
TABLE
  2
UCS
  5
6
330
0
100
AcDbSymbolTable
 70
0
  0
ENDTAB
  0
TABLE
  2
APPID
  5
3
330
0
100
AcDbSymbolTable
 70
3
  0
APPID
  5
2A
330
3
100
AcDbSymbolTableRecord
100
AcDbRegAppTableRecord
  2
ACAD
 70
0
  0
APPID
  5
13E
330
3
100
AcDbSymbolTableRecord
100
AcDbRegAppTableRecord
  2
HATCHBACKGROUNDCOLOR
 70
0
  0
APPID
  5
13F
330
3
100
AcDbSymbolTableRecord
100
AcDbRegAppTableRecord
  2
EZDXF
 70
0
  0
ENDTAB
  0
TABLE
  2
DIMSTYLE
  5
4
330
0
100
AcDbSymbolTable
 70
1
100
AcDbDimStyleTable
  0
DIMSTYLE
105
2B
330
4
100
AcDbSymbolTableRecord
100
AcDbDimStyleTableRecord
  2
Standard
 70
0
 40
1.0
 41
2.5
 42
0.625
 43
3.75
 44
1.25
 45
0.0
 46
0.0
 47
0.0
 48
0.0
 49
2.5
140
2.5
141
2.5
142
0.0
143
0.03937007874
144
1.0
145
0.0
146
1.0
147
0.625
148
0.0
 69
0
 70
0
 71
0
 72
0
 73
0
 74
0
 75
0
 76
0
 77
1
 78
8
 79
3
170
0
171
3
172
1
173
0
174
0
175
0
176
0
177
0
178
0
179
2
271
2
272
2
273
2
274
3
275
0
276
0
277
2
278
44
279
0
280
0
281
0
282
0
283
0
284
8
285
0
286
0
288
0
289
3
290
0
371
-2
372
-2
  0
ENDTAB
  0
TABLE
  2
BLOCK_RECORD
  5
9
330
0
100
AcDbSymbolTable
 70
2
  0
BLOCK_RECORD
  5
17
330
9
100
AcDbSymbolTableRecord
100
AcDbBlockTableRecord
  2
*Model_Space
340
1A
 70
0
280
1
281
0
  0
BLOCK_RECORD
  5
1B
330
9
100
AcDbSymbolTableRecord
100
AcDbBlockTableRecord
  2
*Paper_Space
340
1E
 70
0
280
1
281
0
  0
ENDTAB
  0
ENDSEC
  0
SECTION
  2
BLOCKS
  0
BLOCK
  5
18
330
17
100
AcDbEntity
  8
0
100
AcDbBlockBegin
  2
*Model_Space
 70
0
 10
0.0
 20
0.0
 30
0.0
  3
*Model_Space
  1

  0
ENDBLK
  5
19
330
17
100
AcDbEntity
  8
0
100
AcDbBlockEnd
  0
BLOCK
  5
1C
330
1B
100
AcDbEntity
  8
0
100
AcDbBlockBegin
  2
*Paper_Space
 70
0
 10
0.0
 20
0.0
 30
0.0
  3
*Paper_Space
  1

  0
ENDBLK
  5
1D
330
1B
100
AcDbEntity
  8
0
100
AcDbBlockEnd
  0
ENDSEC
  0
SECTION
  2
ENTITIES
  0
LWPOLYLINE
  5
31
330
17
100
AcDbEntity
  8
WALL
100
AcDbPolyline
 90
4
 70
1
 10
668.8235294117648
 20
1075.5882352941178
 10
726.1764705882354
 20
1075.5882352941178
 10
726.1764705882354
 20
1059.7058823529412
 10
668.8235294117648
 20
1059.7058823529412
  0
HATCH
  5
32
330
17
100
AcDbEntity
  8
WALL
100
AcDbHatch
 10
0.0
 20
0.0
 30
0.0
210
0.0
220
0.0
230
1.0
  2
SOLID
 70
1
 71
0
 91
1
 92
3
 72
0
 73
1
 93
4
 10
668.8235294117648
 20
1075.5882352941178
 10
726.1764705882354
 20
1075.5882352941178
 10
726.1764705882354
 20
1059.7058823529412
 10
668.8235294117648
 20
1059.7058823529412
 97
0
 75
1
 76
1
 98
0
  0
LWPOLYLINE
  5
33
330
17
100
AcDbEntity
  8
WALL
100
AcDbPolyline
 90
4
 70
1
 10
704.1176470588236
 20
1032.3529411764707
 10
863.8235294117648
 20
1032.3529411764707
 10
863.8235294117648
 20
1024.4117647058824
 10
704.1176470588236
 20
1024.4117647058824
  0
HATCH
  5
34
330
17
100
AcDbEntity
  8
WALL
100
AcDbHatch
 10
0.0
 20
0.0
 30
0.0
210
0.0
220
0.0
230
1.0
  2
SOLID
 70
1
 71
0
 91
1
 92
3
 72
0
 73
1
 93
4
 10
704.1176470588236
 20
1032.3529411764707
 10
863.8235294117648
 20
1032.3529411764707
 10
863.8235294117648
 20
1024.4117647058824
 10
704.1176470588236
 20
1024.4117647058824
 97
0
 75
1
 76
1
 98
0
  0
LWPOLYLINE
  5
35
330
17
100
AcDbEntity
  8
WALL
100
AcDbPolyline
 90
4
 70
1
 10
853.2352941176472
 20
997.9411764705883
 10
888.529411764706
 20
997.9411764705883
 10
888.529411764706
 20
989.1176470588236
 10
853.2352941176472
 20
989.1176470588236
  0
HATCH
  5
36
330
17
100
AcDbEntity
  8
WALL
100
AcDbHatch
 10
0.0
 20
0.0
 30
0.0
210
0.0
220
0.0
230
1.0
  2
SOLID
 70
1
 71
0
 91
1
 92
3
 72
0
 73
1
 93
4
 10
853.2352941176472
 20
997.9411764705883
 10
888.529411764706
 20
997.9411764705883
 10
888.529411764706
 20
989.1176470588236
 10
853.2352941176472
 20
989.1176470588236
 97
0
 75
1
 76
1
 98
0
  0
LWPOLYLINE
  5
37
330
17
100
AcDbEntity
  8
WALL
100
AcDbPolyline
 90
4
 70
1
 10
849.7058823529412
 20
988.2352941176472
 10
874.4117647058824
 20
988.2352941176472
 10
874.4117647058824
 20
986.4705882352943
 10
849.7058823529412
 20
986.4705882352943
  0
HATCH
  5
38
330
17
100
AcDbEntity
  8
WALL
100
AcDbHatch
 10
0.0
 20
0.0
 30
0.0
210
0.0
220
0.0
230
1.0
  2
SOLID
 70
1
 71
0
 91
1
 92
3
 72
0
 73
1
 93
4
 10
849.7058823529412
 20
988.2352941176472
 10
874.4117647058824
 20
988.2352941176472
 10
874.4117647058824
 20
986.4705882352943
 10
849.7058823529412
 20
986.4705882352943
 97
0
 75
1
 76
1
 98
0
  0
LWPOLYLINE
  5
39
330
17
100
AcDbEntity
  8
WALL
100
AcDbPolyline
 90
4
 70
1
 10
847.9411764705883
 20
982.0588235294118
 10
874.4117647058824
 20
982.0588235294118
 10
874.4117647058824
 20
976.764705882353
 10
847.9411764705883
 20
976.764705882353
  0
HATCH
  5
3A
330
17
100
AcDbEntity
  8
WALL
100
AcDbHatch
 10
0.0
 20
0.0
 30
0.0
210
0.0
220
0.0
230
1.0
  2
SOLID
 70
1
 71
0
 91
1
 92
3
 72
0
 73
1
 93
4
 10
847.9411764705883
 20
982.0588235294118
 10
874.4117647058824
 20
982.0588235294118
 10
874.4117647058824
 20
976.764705882353
 10
847.9411764705883
 20
976.764705882353
 97
0
 75
1
 76
1
 98
0
  0
LWPOLYLINE
  5
3B
330
17
100
AcDbEntity
  8
WALL
100
AcDbPolyline
 90
4
 70
1
 10
442.0588235294118
 20
941.4705882352943
 10
487.9411764705883
 20
941.4705882352943
 10
487.9411764705883
 20
934.4117647058824
 10
442.0588235294118
 20
934.4117647058824
  0
HATCH
  5
3C
330
17
100
AcDbEntity
  8
WALL
100
AcDbHatch
 10
0.0
 20
0.0
 30
0.0
210
0.0
220
0.0
230
1.0
  2
SOLID
 70
1
 71
0
 91
1
 92
3
 72
0
 73
1
 93
4
 10
442.0588235294118
 20
941.4705882352943
 10
487.9411764705883
 20
941.4705882352943
 10
487.9411764705883
 20
934.4117647058824
 10
442.0588235294118
 20
934.4117647058824
 97
0
 75
1
 76
1
 98
0
  0
LWPOLYLINE
  5
3D
330
17
100
AcDbEntity
  8
WALL
100
AcDbPolyline
 90
4
 70
1
 10
493.23529411764713
 20
941.4705882352943
 10
537.3529411764706
 20
941.4705882352943
 10
537.3529411764706
 20
936.1764705882354
 10
493.23529411764713
 20
936.1764705882354
  0
HATCH
  5
3E
330
17
100
AcDbEntity
  8
WALL
100
AcDbHatch
 10
0.0
 20
0.0
 30
0.0
210
0.0
220
0.0
230
1.0
  2
SOLID
 70
1
 71
0
 91
1
 92
3
 72
0
 73
1
 93
4
 10
493.23529411764713
 20
941.4705882352943
 10
537.3529411764706
 20
941.4705882352943
 10
537.3529411764706
 20
936.1764705882354
 10
493.23529411764713
 20
936.1764705882354
 97
0
 75
1
 76
1
 98
0
  0
LWPOLYLINE
  5
3F
330
17
100
AcDbEntity
  8
WALL
100
AcDbPolyline
 90
4
 70
1
 10
895.5882352941177
 20
911.4705882352943
 10
1065.0
 20
911.4705882352943
 10
1065.0
 20
895.5882352941177
 10
895.5882352941177
 20
895.5882352941177
  0
HATCH
  5
40
330
17
100
AcDbEntity
  8
WALL
100
AcDbHatch
 10
0.0
 20
0.0
 30
0.0
210
0.0
220
0.0
230
1.0
  2
SOLID
 70
1
 71
0
 91
1
 92
3
 72
0
 73
1
 93
4
 10
895.5882352941177
 20
911.4705882352943
 10
1065.0
 20
911.4705882352943
 10
1065.0
 20
895.5882352941177
 10
895.5882352941177
 20
895.5882352941177
 97
0
 75
1
 76
1
 98
0
  0
LWPOLYLINE
  5
41
330
17
100
AcDbEntity
  8
WALL
100
AcDbPolyline
 90
4
 70
1
 10
1041.1764705882354
 20
869.1176470588236
 10
1065.0
 20
869.1176470588236
 10
1065.0
 20
864.7058823529412
 10
1041.1764705882354
 20
864.7058823529412
  0
HATCH
  5
42
330
17
100
AcDbEntity
  8
WALL
100
AcDbHatch
 10
0.0
 20
0.0
 30
0.0
210
0.0
220
0.0
230
1.0
  2
SOLID
 70
1
 71
0
 91
1
 92
3
 72
0
 73
1
 93
4
 10
1041.1764705882354
 20
869.1176470588236
 10
1065.0
 20
869.1176470588236
 10
1065.0
 20
864.7058823529412
 10
1041.1764705882354
 20
864.7058823529412
 97
0
 75
1
 76
1
 98
0
  0
LWPOLYLINE
  5
43
330
17
100
AcDbEntity
  8
WALL
100
AcDbPolyline
 90
4
 70
1
 10
419.1176470588236
 20
863.8235294117648
 10
442.9411764705883
 20
863.8235294117648
 10
442.9411764705883
 20
862.9411764705883
 10
419.1176470588236
 20
862.9411764705883
  0
HATCH
  5
44
330
17
100
AcDbEntity
  8
WALL
100
AcDbHatch
 10
0.0
 20
0.0
 30
0.0
210
0.0
220
0.0
230
1.0
  2
SOLID
 70
1
 71
0
 91
1
 92
3
 72
0
 73
1
 93
4
 10
419.1176470588236
 20
863.8235294117648
 10
442.9411764705883
 20
863.8235294117648
 10
442.9411764705883
 20
862.9411764705883
 10
419.1176470588236
 20
862.9411764705883
 97
0
 75
1
 76
1
 98
0
  0
LWPOLYLINE
  5
45
330
17
100
AcDbEntity
  8
WALL
100
AcDbPolyline
 90
4
 70
1
 10
720.8823529411766
 20
854.1176470588236
 10
904.4117647058824
 20
854.1176470588236
 10
904.4117647058824
 20
844.4117647058824
 10
720.8823529411766
 20
844.4117647058824
  0
HATCH
  5
46
330
17
100
AcDbEntity
  8
WALL
100
AcDbHatch
 10
0.0
 20
0.0
 30
0.0
210
0.0
220
0.0
230
1.0
  2
SOLID
 70
1
 71
0
 91
1
 92
3
 72
0
 73
1
 93
4
 10
720.8823529411766
 20
854.1176470588236
 10
904.4117647058824
 20
854.1176470588236
 10
904.4117647058824
 20
844.4117647058824
 10
720.8823529411766
 20
844.4117647058824
 97
0
 75
1
 76
1
 98
0
  0
LWPOLYLINE
  5
47
330
17
100
AcDbEntity
  8
WALL
100
AcDbPolyline
 90
4
 70
1
 10
433.2352941176471
 20
840.8823529411766
 10
544.4117647058824
 20
840.8823529411766
 10
544.4117647058824
 20
832.0588235294118
 10
433.2352941176471
 20
832.0588235294118
  0
HATCH
  5
48
330
17
100
AcDbEntity
  8
WALL
100
AcDbHatch
 10
0.0
 20
0.0
 30
0.0
210
0.0
220
0.0
230
1.0
  2
SOLID
 70
1
 71
0
 91
1
 92
3
 72
0
 73
1
 93
4
 10
433.2352941176471
 20
840.8823529411766
 10
544.4117647058824
 20
840.8823529411766
 10
544.4117647058824
 20
832.0588235294118
 10
433.2352941176471
 20
832.0588235294118
 97
0
 75
1
 76
1
 98
0
  0
LWPOLYLINE
  5
49
330
17
100
AcDbEntity
  8
WALL
100
AcDbPolyline
 90
4
 70
1
 10
853.2352941176472
 20
830.2941176470589
 10
877.0588235294118
 20
830.2941176470589
 10
877.0588235294118
 20
829.4117647058824
 10
853.2352941176472
 20
829.4117647058824
  0
HATCH
  5
4A
330
17
100
AcDbEntity
  8
WALL
100
AcDbHatch
 10
0.0
 20
0.0
 30
0.0
210
0.0
220
0.0
230
1.0
  2
SOLID
 70
1
 71
0
 91
1
 92
3
 72
0
 73
1
 93
4
 10
853.2352941176472
 20
830.2941176470589
 10
877.0588235294118
 20
830.2941176470589
 10
877.0588235294118
 20
829.4117647058824
 10
853.2352941176472
 20
829.4117647058824
 97
0
 75
1
 76
1
 98
0
  0
LWPOLYLINE
  5
4B
330
17
100
AcDbEntity
  8
WALL
100
AcDbPolyline
 90
4
 70
1
 10
890.2941176470589
 20
830.2941176470589
 10
962.6470588235295
 20
830.2941176470589
 10
962.6470588235295
 20
825.0000000000001
 10
890.2941176470589
 20
825.0000000000001
  0
HATCH
  5
4C
330
17
100
AcDbEntity
  8
WALL
100
AcDbHatch
 10
0.0
 20
0.0
 30
0.0
210
0.0
220
0.0
230
1.0
  2
SOLID
 70
1
 71
0
 91
1
 92
3
 72
0
 73
1
 93
4
 10
890.2941176470589
 20
830.2941176470589
 10
962.6470588235295
 20
830.2941176470589
 10
962.6470588235295
 20
825.0000000000001
 10
890.2941176470589
 20
825.0000000000001
 97
0
 75
1
 76
1
 98
0
  0
LWPOLYLINE
  5
4D
330
17
100
AcDbEntity
  8
WALL
100
AcDbPolyline
 90
4
 70
1
 10
1010.2941176470589
 20
830.2941176470589
 10
1065.0
 20
830.2941176470589
 10
1065.0
 20
825.0000000000001
 10
1010.2941176470589
 20
825.0000000000001
  0
HATCH
  5
4E
330
17
100
AcDbEntity
  8
WALL
100
AcDbHatch
 10
0.0
 20
0.0
 30
0.0
210
0.0
220
0.0
230
1.0
  2
SOLID
 70
1
 71
0
 91
1
 92
3
 72
0
 73
1
 93
4
 10
1010.2941176470589
 20
830.2941176470589
 10
1065.0
 20
830.2941176470589
 10
1065.0
 20
825.0000000000001
 10
1010.2941176470589
 20
825.0000000000001
 97
0
 75
1
 76
1
 98
0
  0
LWPOLYLINE
  5
4F
330
17
100
AcDbEntity
  8
WALL
100
AcDbPolyline
 90
4
 70
1
 10
375.00000000000006
 20
821.4705882352941
 10
399.7058823529412
 20
821.4705882352941
 10
399.7058823529412
 20
817.0588235294118
 10
375.00000000000006
 20
817.0588235294118
  0
HATCH
  5
50
330
17
100
AcDbEntity
  8
WALL
100
AcDbHatch
 10
0.0
 20
0.0
 30
0.0
210
0.0
220
0.0
230
1.0
  2
SOLID
 70
1
 71
0
 91
1
 92
3
 72
0
 73
1
 93
4
 10
375.00000000000006
 20
821.4705882352941
 10
399.7058823529412
 20
821.4705882352941
 10
399.7058823529412
 20
817.0588235294118
 10
375.00000000000006
 20
817.0588235294118
 97
0
 75
1
 76
1
 98
0
  0
LWPOLYLINE
  5
51
330
17
100
AcDbEntity
  8
WALL
100
AcDbPolyline
 90
4
 70
1
 10
616.764705882353
 20
821.4705882352941
 10
657.3529411764706
 20
821.4705882352941
 10
657.3529411764706
 20
816.1764705882354
 10
616.764705882353
 20
816.1764705882354
  0
HATCH
  5
52
330
17
100
AcDbEntity
  8
WALL
100
AcDbHatch
 10
0.0
 20
0.0
 30
0.0
210
0.0
220
0.0
230
1.0
  2
SOLID
 70
1
 71
0
 91
1
 92
3
 72
0
 73
1
 93
4
 10
616.764705882353
 20
821.4705882352941
 10
657.3529411764706
 20
821.4705882352941
 10
657.3529411764706
 20
816.1764705882354
 10
616.764705882353
 20
816.1764705882354
 97
0
 75
1
 76
1
 98
0
  0
LWPOLYLINE
  5
53
330
17
100
AcDbEntity
  8
WALL
100
AcDbPolyline
 90
4
 70
1
 10
997.9411764705883
 20
745.5882352941177
 10
1040.294117647059
 20
745.5882352941177
 10
1040.294117647059
 20
740.2941176470589
 10
997.9411764705883
 20
740.2941176470589
  0
HATCH
  5
54
330
17
100
AcDbEntity
  8
WALL
100
AcDbHatch
 10
0.0
 20
0.0
 30
0.0
210
0.0
220
0.0
230
1.0
  2
SOLID
 70
1
 71
0
 91
1
 92
3
 72
0
 73
1
 93
4
 10
997.9411764705883
 20
745.5882352941177
 10
1040.294117647059
 20
745.5882352941177
 10
1040.294117647059
 20
740.2941176470589
 10
997.9411764705883
 20
740.2941176470589
 97
0
 75
1
 76
1
 98
0
  0
LWPOLYLINE
  5
55
330
17
100
AcDbEntity
  8
WALL
100
AcDbPolyline
 90
4
 70
1
 10
467.64705882352945
 20
697.9411764705883
 10
544.4117647058824
 20
697.9411764705883
 10
544.4117647058824
 20
690.8823529411766
 10
467.64705882352945
 20
690.8823529411766
  0
HATCH
  5
56
330
17
100
AcDbEntity
  8
WALL
100
AcDbHatch
 10
0.0
 20
0.0
 30
0.0
210
0.0
220
0.0
230
1.0
  2
SOLID
 70
1
 71
0
 91
1
 92
3
 72
0
 73
1
 93
4
 10
467.64705882352945
 20
697.9411764705883
 10
544.4117647058824
 20
697.9411764705883
 10
544.4117647058824
 20
690.8823529411766
 10
467.64705882352945
 20
690.8823529411766
 97
0
 75
1
 76
1
 98
0
  0
LWPOLYLINE
  5
57
330
17
100
AcDbEntity
  8
WALL
100
AcDbPolyline
 90
4
 70
1
 10
987.3529411764707
 20
690.8823529411766
 10
1050.8823529411766
 20
690.8823529411766
 10
1050.8823529411766
 20
682.0588235294118
 10
987.3529411764707
 20
682.0588235294118
  0
HATCH
  5
58
330
17
100
AcDbEntity
  8
WALL
100
AcDbHatch
 10
0.0
 20
0.0
 30
0.0
210
0.0
220
0.0
230
1.0
  2
SOLID
 70
1
 71
0
 91
1
 92
3
 72
0
 73
1
 93
4
 10
987.3529411764707
 20
690.8823529411766
 10
1050.8823529411766
 20
690.8823529411766
 10
1050.8823529411766
 20
682.0588235294118
 10
987.3529411764707
 20
682.0588235294118
 97
0
 75
1
 76
1
 98
0
  0
LWPOLYLINE
  5
59
330
17
100
AcDbEntity
  8
WALL
100
AcDbPolyline
 90
4
 70
1
 10
645.0000000000001
 20
675.0000000000001
 10
722.6470588235295
 20
675.0000000000001
 10
722.6470588235295
 20
662.6470588235295
 10
645.0000000000001
 20
662.6470588235295
  0
HATCH
  5
5A
330
17
100
AcDbEntity
  8
WALL
100
AcDbHatch
 10
0.0
 20
0.0
 30
0.0
210
0.0
220
0.0
230
1.0
  2
SOLID
 70
1
 71
0
 91
1
 92
3
 72
0
 73
1
 93
4
 10
645.0000000000001
 20
675.0000000000001
 10
722.6470588235295
 20
675.0000000000001
 10
722.6470588235295
 20
662.6470588235295
 10
645.0000000000001
 20
662.6470588235295
 97
0
 75
1
 76
1
 98
0
  0
LWPOLYLINE
  5
5B
330
17
100
AcDbEntity
  8
WALL
100
AcDbPolyline
 90
4
 70
1
 10
725.2941176470589
 20
674.1176470588236
 10
752.6470588235295
 20
674.1176470588236
 10
752.6470588235295
 20
667.9411764705883
 10
725.2941176470589
 20
667.9411764705883
  0
HATCH
  5
5C
330
17
100
AcDbEntity
  8
WALL
100
AcDbHatch
 10
0.0
 20
0.0
 30
0.0
210
0.0
220
0.0
230
1.0
  2
SOLID
 70
1
 71
0
 91
1
 92
3
 72
0
 73
1
 93
4
 10
725.2941176470589
 20
674.1176470588236
 10
752.6470588235295
 20
674.1176470588236
 10
752.6470588235295
 20
667.9411764705883
 10
725.2941176470589
 20
667.9411764705883
 97
0
 75
1
 76
1
 98
0
  0
LWPOLYLINE
  5
5D
330
17
100
AcDbEntity
  8
WALL
100
AcDbPolyline
 90
4
 70
1
 10
757.0588235294118
 20
674.1176470588236
 10
1066.7647058823532
 20
674.1176470588236
 10
1066.7647058823532
 20
657.3529411764706
 10
757.0588235294118
 20
657.3529411764706
  0
HATCH
  5
5E
330
17
100
AcDbEntity
  8
WALL
100
AcDbHatch
 10
0.0
 20
0.0
 30
0.0
210
0.0
220
0.0
230
1.0
  2
SOLID
 70
1
 71
0
 91
1
 92
3
 72
0
 73
1
 93
4
 10
757.0588235294118
 20
674.1176470588236
 10
1066.7647058823532
 20
674.1176470588236
 10
1066.7647058823532
 20
657.3529411764706
 10
757.0588235294118
 20
657.3529411764706
 97
0
 75
1
 76
1
 98
0
  0
LWPOLYLINE
  5
5F
330
17
100
AcDbEntity
  8
WALL
100
AcDbPolyline
 90
4
 70
1
 10
493.23529411764713
 20
664.4117647058824
 10
528.529411764706
 20
664.4117647058824
 10
528.529411764706
 20
657.3529411764706
 10
493.23529411764713
 20
657.3529411764706
  0
HATCH
  5
60
330
17
100
AcDbEntity
  8
WALL
100
AcDbHatch
 10
0.0
 20
0.0
 30
0.0
210
0.0
220
0.0
230
1.0
  2
SOLID
 70
1
 71
0
 91
1
 92
3
 72
0
 73
1
 93
4
 10
493.23529411764713
 20
664.4117647058824
 10
528.529411764706
 20
664.4117647058824
 10
528.529411764706
 20
657.3529411764706
 10
493.23529411764713
 20
657.3529411764706
 97
0
 75
1
 76
1
 98
0
  0
LWPOLYLINE
  5
61
330
17
100
AcDbEntity
  8
WALL
100
AcDbPolyline
 90
4
 70
1
 10
895.5882352941177
 20
636.1764705882354
 10
937.9411764705883
 20
636.1764705882354
 10
937.9411764705883
 20
620.2941176470589
 10
895.5882352941177
 20
620.2941176470589
  0
HATCH
  5
62
330
17
100
AcDbEntity
  8
WALL
100
AcDbHatch
 10
0.0
 20
0.0
 30
0.0
210
0.0
220
0.0
230
1.0
  2
SOLID
 70
1
 71
0
 91
1
 92
3
 72
0
 73
1
 93
4
 10
895.5882352941177
 20
636.1764705882354
 10
937.9411764705883
 20
636.1764705882354
 10
937.9411764705883
 20
620.2941176470589
 10
895.5882352941177
 20
620.2941176470589
 97
0
 75
1
 76
1
 98
0
  0
LWPOLYLINE
  5
63
330
17
100
AcDbEntity
  8
WALL
100
AcDbPolyline
 90
4
 70
1
 10
893.8235294117648
 20
615.8823529411766
 10
930.8823529411766
 20
615.8823529411766
 10
930.8823529411766
 20
606.1764705882354
 10
893.8235294117648
 20
606.1764705882354
  0
HATCH
  5
64
330
17
100
AcDbEntity
  8
WALL
100
AcDbHatch
 10
0.0
 20
0.0
 30
0.0
210
0.0
220
0.0
230
1.0
  2
SOLID
 70
1
 71
0
 91
1
 92
3
 72
0
 73
1
 93
4
 10
893.8235294117648
 20
615.8823529411766
 10
930.8823529411766
 20
615.8823529411766
 10
930.8823529411766
 20
606.1764705882354
 10
893.8235294117648
 20
606.1764705882354
 97
0
 75
1
 76
1
 98
0
  0
LWPOLYLINE
  5
65
330
17
100
AcDbEntity
  8
WALL
100
AcDbPolyline
 90
4
 70
1
 10
895.5882352941177
 20
601.764705882353
 10
919.4117647058824
 20
601.764705882353
 10
919.4117647058824
 20
600.8823529411766
 10
895.5882352941177
 20
600.8823529411766
  0
HATCH
  5
66
330
17
100
AcDbEntity
  8
WALL
100
AcDbHatch
 10
0.0
 20
0.0
 30
0.0
210
0.0
220
0.0
230
1.0
  2
SOLID
 70
1
 71
0
 91
1
 92
3
 72
0
 73
1
 93
4
 10
895.5882352941177
 20
601.764705882353
 10
919.4117647058824
 20
601.764705882353
 10
919.4117647058824
 20
600.8823529411766
 10
895.5882352941177
 20
600.8823529411766
 97
0
 75
1
 76
1
 98
0
  0
LWPOLYLINE
  5
67
330
17
100
AcDbEntity
  8
WALL
100
AcDbPolyline
 90
4
 70
1
 10
894.7058823529412
 20
598.2352941176471
 10
923.8235294117648
 20
598.2352941176471
 10
923.8235294117648
 20
593.8235294117648
 10
894.7058823529412
 20
593.8235294117648
  0
HATCH
  5
68
330
17
100
AcDbEntity
  8
WALL
100
AcDbHatch
 10
0.0
 20
0.0
 30
0.0
210
0.0
220
0.0
230
1.0
  2
SOLID
 70
1
 71
0
 91
1
 92
3
 72
0
 73
1
 93
4
 10
894.7058823529412
 20
598.2352941176471
 10
923.8235294117648
 20
598.2352941176471
 10
923.8235294117648
 20
593.8235294117648
 10
894.7058823529412
 20
593.8235294117648
 97
0
 75
1
 76
1
 98
0
  0
LWPOLYLINE
  5
69
330
17
100
AcDbEntity
  8
WALL
100
AcDbPolyline
 90
4
 70
1
 10
934.4117647058824
 20
570.0
 10
960.8823529411766
 20
570.0
 10
960.8823529411766
 20
567.3529411764706
 10
934.4117647058824
 20
567.3529411764706
  0
HATCH
  5
6A
330
17
100
AcDbEntity
  8
WALL
100
AcDbHatch
 10
0.0
 20
0.0
 30
0.0
210
0.0
220
0.0
230
1.0
  2
SOLID
 70
1
 71
0
 91
1
 92
3
 72
0
 73
1
 93
4
 10
934.4117647058824
 20
570.0
 10
960.8823529411766
 20
570.0
 10
960.8823529411766
 20
567.3529411764706
 10
934.4117647058824
 20
567.3529411764706
 97
0
 75
1
 76
1
 98
0
  0
LWPOLYLINE
  5
6B
330
17
100
AcDbEntity
  8
WALL
100
AcDbPolyline
 90
4
 70
1
 10
646.764705882353
 20
538.2352941176471
 10
673.2352941176471
 20
538.2352941176471
 10
673.2352941176471
 20
532.0588235294118
 10
646.764705882353
 20
532.0588235294118
  0
HATCH
  5
6C
330
17
100
AcDbEntity
  8
WALL
100
AcDbHatch
 10
0.0
 20
0.0
 30
0.0
210
0.0
220
0.0
230
1.0
  2
SOLID
 70
1
 71
0
 91
1
 92
3
 72
0
 73
1
 93
4
 10
646.764705882353
 20
538.2352941176471
 10
673.2352941176471
 20
538.2352941176471
 10
673.2352941176471
 20
532.0588235294118
 10
646.764705882353
 20
532.0588235294118
 97
0
 75
1
 76
1
 98
0
  0
LWPOLYLINE
  5
6D
330
17
100
AcDbEntity
  8
WALL
100
AcDbPolyline
 90
4
 70
1
 10
375.00000000000006
 20
535.5882352941177
 10
454.4117647058824
 20
535.5882352941177
 10
454.4117647058824
 20
528.529411764706
 10
375.00000000000006
 20
528.529411764706
  0
HATCH
  5
6E
330
17
100
AcDbEntity
  8
WALL
100
AcDbHatch
 10
0.0
 20
0.0
 30
0.0
210
0.0
220
0.0
230
1.0
  2
SOLID
 70
1
 71
0
 91
1
 92
3
 72
0
 73
1
 93
4
 10
375.00000000000006
 20
535.5882352941177
 10
454.4117647058824
 20
535.5882352941177
 10
454.4117647058824
 20
528.529411764706
 10
375.00000000000006
 20
528.529411764706
 97
0
 75
1
 76
1
 98
0
  0
LWPOLYLINE
  5
6F
330
17
100
AcDbEntity
  8
WALL
100
AcDbPolyline
 90
4
 70
1
 10
507.35294117647067
 20
521.4705882352941
 10
538.2352941176471
 20
521.4705882352941
 10
538.2352941176471
 20
517.9411764705883
 10
507.35294117647067
 20
517.9411764705883
  0
HATCH
  5
70
330
17
100
AcDbEntity
  8
WALL
100
AcDbHatch
 10
0.0
 20
0.0
 30
0.0
210
0.0
220
0.0
230
1.0
  2
SOLID
 70
1
 71
0
 91
1
 92
3
 72
0
 73
1
 93
4
 10
507.35294117647067
 20
521.4705882352941
 10
538.2352941176471
 20
521.4705882352941
 10
538.2352941176471
 20
517.9411764705883
 10
507.35294117647067
 20
517.9411764705883
 97
0
 75
1
 76
1
 98
0
  0
LWPOLYLINE
  5
71
330
17
100
AcDbEntity
  8
WALL
100
AcDbPolyline
 90
4
 70
1
 10
756.1764705882354
 20
493.23529411764713
 10
890.2941176470589
 20
493.23529411764713
 10
890.2941176470589
 20
487.9411764705883
 10
756.1764705882354
 20
487.9411764705883
  0
HATCH
  5
72
330
17
100
AcDbEntity
  8
WALL
100
AcDbHatch
 10
0.0
 20
0.0
 30
0.0
210
0.0
220
0.0
230
1.0
  2
SOLID
 70
1
 71
0
 91
1
 92
3
 72
0
 73
1
 93
4
 10
756.1764705882354
 20
493.23529411764713
 10
890.2941176470589
 20
493.23529411764713
 10
890.2941176470589
 20
487.9411764705883
 10
756.1764705882354
 20
487.9411764705883
 97
0
 75
1
 76
1
 98
0
  0
LWPOLYLINE
  5
73
330
17
100
AcDbEntity
  8
WALL
100
AcDbPolyline
 90
4
 70
1
 10
398.82352941176475
 20
486.17647058823536
 10
482.64705882352945
 20
486.17647058823536
 10
482.64705882352945
 20
480.8823529411765
 10
398.82352941176475
 20
480.8823529411765
  0
HATCH
  5
74
330
17
100
AcDbEntity
  8
WALL
100
AcDbHatch
 10
0.0
 20
0.0
 30
0.0
210
0.0
220
0.0
230
1.0
  2
SOLID
 70
1
 71
0
 91
1
 92
3
 72
0
 73
1
 93
4
 10
398.82352941176475
 20
486.17647058823536
 10
482.64705882352945
 20
486.17647058823536
 10
482.64705882352945
 20
480.8823529411765
 10
398.82352941176475
 20
480.8823529411765
 97
0
 75
1
 76
1
 98
0
  0
LWPOLYLINE
  5
75
330
17
100
AcDbEntity
  8
WALL
100
AcDbPolyline
 90
4
 70
1
 10
665.2941176470589
 20
459.7058823529412
 10
726.1764705882354
 20
459.7058823529412
 10
726.1764705882354
 20
454.4117647058824
 10
665.2941176470589
 20
454.4117647058824
  0
HATCH
  5
76
330
17
100
AcDbEntity
  8
WALL
100
AcDbHatch
 10
0.0
 20
0.0
 30
0.0
210
0.0
220
0.0
230
1.0
  2
SOLID
 70
1
 71
0
 91
1
 92
3
 72
0
 73
1
 93
4
 10
665.2941176470589
 20
459.7058823529412
 10
726.1764705882354
 20
459.7058823529412
 10
726.1764705882354
 20
454.4117647058824
 10
665.2941176470589
 20
454.4117647058824
 97
0
 75
1
 76
1
 98
0
  0
LWPOLYLINE
  5
77
330
17
100
AcDbEntity
  8
WALL
100
AcDbPolyline
 90
4
 70
1
 10
646.764705882353
 20
449.1176470588236
 10
724.4117647058824
 20
449.1176470588236
 10
724.4117647058824
 20
438.5294117647059
 10
646.764705882353
 20
438.5294117647059
  0
HATCH
  5
78
330
17
100
AcDbEntity
  8
WALL
100
AcDbHatch
 10
0.0
 20
0.0
 30
0.0
210
0.0
220
0.0
230
1.0
  2
SOLID
 70
1
 71
0
 91
1
 92
3
 72
0
 73
1
 93
4
 10
646.764705882353
 20
449.1176470588236
 10
724.4117647058824
 20
449.1176470588236
 10
724.4117647058824
 20
438.5294117647059
 10
646.764705882353
 20
438.5294117647059
 97
0
 75
1
 76
1
 98
0
  0
LWPOLYLINE
  5
79
330
17
100
AcDbEntity
  8
WALL
100
AcDbPolyline
 90
4
 70
1
 10
731.4705882352941
 20
449.1176470588236
 10
795.0000000000001
 20
449.1176470588236
 10
795.0000000000001
 20
443.82352941176475
 10
731.4705882352941
 20
443.82352941176475
  0
HATCH
  5
7A
330
17
100
AcDbEntity
  8
WALL
100
AcDbHatch
 10
0.0
 20
0.0
 30
0.0
210
0.0
220
0.0
230
1.0
  2
SOLID
 70
1
 71
0
 91
1
 92
3
 72
0
 73
1
 93
4
 10
731.4705882352941
 20
449.1176470588236
 10
795.0000000000001
 20
449.1176470588236
 10
795.0000000000001
 20
443.82352941176475
 10
731.4705882352941
 20
443.82352941176475
 97
0
 75
1
 76
1
 98
0
  0
LWPOLYLINE
  5
7B
330
17
100
AcDbEntity
  8
WALL
100
AcDbPolyline
 90
4
 70
1
 10
797.6470588235295
 20
449.1176470588236
 10
879.7058823529412
 20
449.1176470588236
 10
879.7058823529412
 20
443.82352941176475
 10
797.6470588235295
 20
443.82352941176475
  0
HATCH
  5
7C
330
17
100
AcDbEntity
  8
WALL
100
AcDbHatch
 10
0.0
 20
0.0
 30
0.0
210
0.0
220
0.0
230
1.0
  2
SOLID
 70
1
 71
0
 91
1
 92
3
 72
0
 73
1
 93
4
 10
797.6470588235295
 20
449.1176470588236
 10
879.7058823529412
 20
449.1176470588236
 10
879.7058823529412
 20
443.82352941176475
 10
797.6470588235295
 20
443.82352941176475
 97
0
 75
1
 76
1
 98
0
  0
LWPOLYLINE
  5
7D
330
17
100
AcDbEntity
  8
WALL
100
AcDbPolyline
 90
4
 70
1
 10
375.00000000000006
 20
394.4117647058824
 10
401.47058823529414
 20
394.4117647058824
 10
401.47058823529414
 20
389.1176470588236
 10
375.00000000000006
 20
389.1176470588236
  0
HATCH
  5
7E
330
17
100
AcDbEntity
  8
WALL
100
AcDbHatch
 10
0.0
 20
0.0
 30
0.0
210
0.0
220
0.0
230
1.0
  2
SOLID
 70
1
 71
0
 91
1
 92
3
 72
0
 73
1
 93
4
 10
375.00000000000006
 20
394.4117647058824
 10
401.47058823529414
 20
394.4117647058824
 10
401.47058823529414
 20
389.1176470588236
 10
375.00000000000006
 20
389.1176470588236
 97
0
 75
1
 76
1
 98
0
  0
LWPOLYLINE
  5
7F
330
17
100
AcDbEntity
  8
WALL
100
AcDbPolyline
 90
4
 70
1
 10
171.1764705882353
 20
383.82352941176475
 10
389.1176470588236
 20
383.82352941176475
 10
389.1176470588236
 20
366.1764705882353
 10
171.1764705882353
 20
366.1764705882353
  0
HATCH
  5
80
330
17
100
AcDbEntity
  8
WALL
100
AcDbHatch
 10
0.0
 20
0.0
 30
0.0
210
0.0
220
0.0
230
1.0
  2
SOLID
 70
1
 71
0
 91
1
 92
3
 72
0
 73
1
 93
4
 10
171.1764705882353
 20
383.82352941176475
 10
389.1176470588236
 20
383.82352941176475
 10
389.1176470588236
 20
366.1764705882353
 10
171.1764705882353
 20
366.1764705882353
 97
0
 75
1
 76
1
 98
0
  0
LWPOLYLINE
  5
81
330
17
100
AcDbEntity
  8
WALL
100
AcDbPolyline
 90
4
 70
1
 10
394.4117647058824
 20
369.7058823529412
 10
431.47058823529414
 20
369.7058823529412
 10
431.47058823529414
 20
364.4117647058824
 10
394.4117647058824
 20
364.4117647058824
  0
HATCH
  5
82
330
17
100
AcDbEntity
  8
WALL
100
AcDbHatch
 10
0.0
 20
0.0
 30
0.0
210
0.0
220
0.0
230
1.0
  2
SOLID
 70
1
 71
0
 91
1
 92
3
 72
0
 73
1
 93
4
 10
394.4117647058824
 20
369.7058823529412
 10
431.47058823529414
 20
369.7058823529412
 10
431.47058823529414
 20
364.4117647058824
 10
394.4117647058824
 20
364.4117647058824
 97
0
 75
1
 76
1
 98
0
  0
LWPOLYLINE
  5
83
330
17
100
AcDbEntity
  8
WALL
100
AcDbPolyline
 90
4
 70
1
 10
445.5882352941177
 20
369.7058823529412
 10
484.4117647058824
 20
369.7058823529412
 10
484.4117647058824
 20
364.4117647058824
 10
445.5882352941177
 20
364.4117647058824
  0
HATCH
  5
84
330
17
100
AcDbEntity
  8
WALL
100
AcDbHatch
 10
0.0
 20
0.0
 30
0.0
210
0.0
220
0.0
230
1.0
  2
SOLID
 70
1
 71
0
 91
1
 92
3
 72
0
 73
1
 93
4
 10
445.5882352941177
 20
369.7058823529412
 10
484.4117647058824
 20
369.7058823529412
 10
484.4117647058824
 20
364.4117647058824
 10
445.5882352941177
 20
364.4117647058824
 97
0
 75
1
 76
1
 98
0
  0
LWPOLYLINE
  5
85
330
17
100
AcDbEntity
  8
WALL
100
AcDbPolyline
 90
4
 70
1
 10
731.4705882352941
 20
367.9411764705883
 10
772.0588235294118
 20
367.9411764705883
 10
772.0588235294118
 20
362.64705882352945
 10
731.4705882352941
 20
362.64705882352945
  0
HATCH
  5
86
330
17
100
AcDbEntity
  8
WALL
100
AcDbHatch
 10
0.0
 20
0.0
 30
0.0
210
0.0
220
0.0
230
1.0
  2
SOLID
 70
1
 71
0
 91
1
 92
3
 72
0
 73
1
 93
4
 10
731.4705882352941
 20
367.9411764705883
 10
772.0588235294118
 20
367.9411764705883
 10
772.0588235294118
 20
362.64705882352945
 10
731.4705882352941
 20
362.64705882352945
 97
0
 75
1
 76
1
 98
0
  0
LWPOLYLINE
  5
87
330
17
100
AcDbEntity
  8
WALL
100
AcDbPolyline
 90
4
 70
1
 10
646.764705882353
 20
353.82352941176475
 10
673.2352941176471
 20
353.82352941176475
 10
673.2352941176471
 20
350.29411764705884
 10
646.764705882353
 20
350.29411764705884
  0
HATCH
  5
88
330
17
100
AcDbEntity
  8
WALL
100
AcDbHatch
 10
0.0
 20
0.0
 30
0.0
210
0.0
220
0.0
230
1.0
  2
SOLID
 70
1
 71
0
 91
1
 92
3
 72
0
 73
1
 93
4
 10
646.764705882353
 20
353.82352941176475
 10
673.2352941176471
 20
353.82352941176475
 10
673.2352941176471
 20
350.29411764705884
 10
646.764705882353
 20
350.29411764705884
 97
0
 75
1
 76
1
 98
0
  0
LWPOLYLINE
  5
89
330
17
100
AcDbEntity
  8
WALL
100
AcDbPolyline
 90
4
 70
1
 10
646.764705882353
 20
349.4117647058824
 10
670.5882352941177
 20
349.4117647058824
 10
670.5882352941177
 20
348.5294117647059
 10
646.764705882353
 20
348.5294117647059
  0
HATCH
  5
8A
330
17
100
AcDbEntity
  8
WALL
100
AcDbHatch
 10
0.0
 20
0.0
 30
0.0
210
0.0
220
0.0
230
1.0
  2
SOLID
 70
1
 71
0
 91
1
 92
3
 72
0
 73
1
 93
4
 10
646.764705882353
 20
349.4117647058824
 10
670.5882352941177
 20
349.4117647058824
 10
670.5882352941177
 20
348.5294117647059
 10
646.764705882353
 20
348.5294117647059
 97
0
 75
1
 76
1
 98
0
  0
LWPOLYLINE
  5
8B
330
17
100
AcDbEntity
  8
WALL
100
AcDbPolyline
 90
4
 70
1
 10
1002.3529411764707
 20
338.82352941176475
 10
1035.0
 20
338.82352941176475
 10
1035.0
 20
335.29411764705884
 10
1002.3529411764707
 20
335.29411764705884
  0
HATCH
  5
8C
330
17
100
AcDbEntity
  8
WALL
100
AcDbHatch
 10
0.0
 20
0.0
 30
0.0
210
0.0
220
0.0
230
1.0
  2
SOLID
 70
1
 71
0
 91
1
 92
3
 72
0
 73
1
 93
4
 10
1002.3529411764707
 20
338.82352941176475
 10
1035.0
 20
338.82352941176475
 10
1035.0
 20
335.29411764705884
 10
1002.3529411764707
 20
335.29411764705884
 97
0
 75
1
 76
1
 98
0
  0
LWPOLYLINE
  5
8D
330
17
100
AcDbEntity
  8
WALL
100
AcDbPolyline
 90
4
 70
1
 10
18.529411764705884
 20
306.1764705882353
 10
135.0
 20
306.1764705882353
 10
135.0
 20
290.29411764705884
 10
18.529411764705884
 20
290.29411764705884
  0
HATCH
  5
8E
330
17
100
AcDbEntity
  8
WALL
100
AcDbHatch
 10
0.0
 20
0.0
 30
0.0
210
0.0
220
0.0
230
1.0
  2
SOLID
 70
1
 71
0
 91
1
 92
3
 72
0
 73
1
 93
4
 10
18.529411764705884
 20
306.1764705882353
 10
135.0
 20
306.1764705882353
 10
135.0
 20
290.29411764705884
 10
18.529411764705884
 20
290.29411764705884
 97
0
 75
1
 76
1
 98
0
  0
LWPOLYLINE
  5
8F
330
17
100
AcDbEntity
  8
WALL
100
AcDbPolyline
 90
4
 70
1
 10
646.764705882353
 20
270.8823529411765
 10
682.0588235294118
 20
270.8823529411765
 10
682.0588235294118
 20
265.5882352941177
 10
646.764705882353
 20
265.5882352941177
  0
HATCH
  5
90
330
17
100
AcDbEntity
  8
WALL
100
AcDbHatch
 10
0.0
 20
0.0
 30
0.0
210
0.0
220
0.0
230
1.0
  2
SOLID
 70
1
 71
0
 91
1
 92
3
 72
0
 73
1
 93
4
 10
646.764705882353
 20
270.8823529411765
 10
682.0588235294118
 20
270.8823529411765
 10
682.0588235294118
 20
265.5882352941177
 10
646.764705882353
 20
265.5882352941177
 97
0
 75
1
 76
1
 98
0
  0
LWPOLYLINE
  5
91
330
17
100
AcDbEntity
  8
WALL
100
AcDbPolyline
 90
4
 70
1
 10
683.8235294117648
 20
270.8823529411765
 10
724.4117647058824
 20
270.8823529411765
 10
724.4117647058824
 20
265.5882352941177
 10
683.8235294117648
 20
265.5882352941177
  0
HATCH
  5
92
330
17
100
AcDbEntity
  8
WALL
100
AcDbHatch
 10
0.0
 20
0.0
 30
0.0
210
0.0
220
0.0
230
1.0
  2
SOLID
 70
1
 71
0
 91
1
 92
3
 72
0
 73
1
 93
4
 10
683.8235294117648
 20
270.8823529411765
 10
724.4117647058824
 20
270.8823529411765
 10
724.4117647058824
 20
265.5882352941177
 10
683.8235294117648
 20
265.5882352941177
 97
0
 75
1
 76
1
 98
0
  0
LWPOLYLINE
  5
93
330
17
100
AcDbEntity
  8
WALL
100
AcDbPolyline
 90
4
 70
1
 10
306.1764705882353
 20
262.05882352941177
 10
413.82352941176475
 20
262.05882352941177
 10
413.82352941176475
 20
251.47058823529414
 10
306.1764705882353
 20
251.47058823529414
  0
HATCH
  5
94
330
17
100
AcDbEntity
  8
WALL
100
AcDbHatch
 10
0.0
 20
0.0
 30
0.0
210
0.0
220
0.0
230
1.0
  2
SOLID
 70
1
 71
0
 91
1
 92
3
 72
0
 73
1
 93
4
 10
306.1764705882353
 20
262.05882352941177
 10
413.82352941176475
 20
262.05882352941177
 10
413.82352941176475
 20
251.47058823529414
 10
306.1764705882353
 20
251.47058823529414
 97
0
 75
1
 76
1
 98
0
  0
LWPOLYLINE
  5
95
330
17
100
AcDbEntity
  8
WALL
100
AcDbPolyline
 90
4
 70
1
 10
476.47058823529414
 20
262.05882352941177
 10
563.8235294117648
 20
262.05882352941177
 10
563.8235294117648
 20
251.47058823529414
 10
476.47058823529414
 20
251.47058823529414
  0
HATCH
  5
96
330
17
100
AcDbEntity
  8
WALL
100
AcDbHatch
 10
0.0
 20
0.0
 30
0.0
210
0.0
220
0.0
230
1.0
  2
SOLID
 70
1
 71
0
 91
1
 92
3
 72
0
 73
1
 93
4
 10
476.47058823529414
 20
262.05882352941177
 10
563.8235294117648
 20
262.05882352941177
 10
563.8235294117648
 20
251.47058823529414
 10
476.47058823529414
 20
251.47058823529414
 97
0
 75
1
 76
1
 98
0
  0
LWPOLYLINE
  5
97
330
17
100
AcDbEntity
  8
WALL
100
AcDbPolyline
 90
4
 70
1
 10
637.9411764705883
 20
262.05882352941177
 10
911.4705882352943
 20
262.05882352941177
 10
911.4705882352943
 20
249.7058823529412
 10
637.9411764705883
 20
249.7058823529412
  0
HATCH
  5
98
330
17
100
AcDbEntity
  8
WALL
100
AcDbHatch
 10
0.0
 20
0.0
 30
0.0
210
0.0
220
0.0
230
1.0
  2
SOLID
 70
1
 71
0
 91
1
 92
3
 72
0
 73
1
 93
4
 10
637.9411764705883
 20
262.05882352941177
 10
911.4705882352943
 20
262.05882352941177
 10
911.4705882352943
 20
249.7058823529412
 10
637.9411764705883
 20
249.7058823529412
 97
0
 75
1
 76
1
 98
0
  0
LWPOLYLINE
  5
99
330
17
100
AcDbEntity
  8
WALL
100
AcDbPolyline
 90
4
 70
1
 10
997.9411764705883
 20
255.00000000000003
 10
1032.3529411764707
 20
255.00000000000003
 10
1032.3529411764707
 20
252.3529411764706
 10
997.9411764705883
 20
252.3529411764706
  0
HATCH
  5
9A
330
17
100
AcDbEntity
  8
WALL
100
AcDbHatch
 10
0.0
 20
0.0
 30
0.0
210
0.0
220
0.0
230
1.0
  2
SOLID
 70
1
 71
0
 91
1
 92
3
 72
0
 73
1
 93
4
 10
997.9411764705883
 20
255.00000000000003
 10
1032.3529411764707
 20
255.00000000000003
 10
1032.3529411764707
 20
252.3529411764706
 10
997.9411764705883
 20
252.3529411764706
 97
0
 75
1
 76
1
 98
0
  0
LWPOLYLINE
  5
9B
330
17
100
AcDbEntity
  8
WALL
100
AcDbPolyline
 90
4
 70
1
 10
273.5294117647059
 20
174.7058823529412
 10
311.47058823529414
 20
174.7058823529412
 10
311.47058823529414
 20
168.5294117647059
 10
273.5294117647059
 20
168.5294117647059
  0
HATCH
  5
9C
330
17
100
AcDbEntity
  8
WALL
100
AcDbHatch
 10
0.0
 20
0.0
 30
0.0
210
0.0
220
0.0
230
1.0
  2
SOLID
 70
1
 71
0
 91
1
 92
3
 72
0
 73
1
 93
4
 10
273.5294117647059
 20
174.7058823529412
 10
311.47058823529414
 20
174.7058823529412
 10
311.47058823529414
 20
168.5294117647059
 10
273.5294117647059
 20
168.5294117647059
 97
0
 75
1
 76
1
 98
0
  0
LWPOLYLINE
  5
9D
330
17
100
AcDbEntity
  8
WALL
100
AcDbPolyline
 90
4
 70
1
 10
895.5882352941177
 20
173.82352941176472
 10
985.5882352941178
 20
173.82352941176472
 10
985.5882352941178
 20
168.5294117647059
 10
895.5882352941177
 20
168.5294117647059
  0
HATCH
  5
9E
330
17
100
AcDbEntity
  8
WALL
100
AcDbHatch
 10
0.0
 20
0.0
 30
0.0
210
0.0
220
0.0
230
1.0
  2
SOLID
 70
1
 71
0
 91
1
 92
3
 72
0
 73
1
 93
4
 10
895.5882352941177
 20
173.82352941176472
 10
985.5882352941178
 20
173.82352941176472
 10
985.5882352941178
 20
168.5294117647059
 10
895.5882352941177
 20
168.5294117647059
 97
0
 75
1
 76
1
 98
0
  0
LWPOLYLINE
  5
9F
330
17
100
AcDbEntity
  8
WALL
100
AcDbPolyline
 90
4
 70
1
 10
893.8235294117648
 20
166.76470588235296
 10
990.0000000000001
 20
166.76470588235296
 10
990.0000000000001
 20
149.11764705882354
 10
893.8235294117648
 20
149.11764705882354
  0
HATCH
  5
A0
330
17
100
AcDbEntity
  8
WALL
100
AcDbHatch
 10
0.0
 20
0.0
 30
0.0
210
0.0
220
0.0
230
1.0
  2
SOLID
 70
1
 71
0
 91
1
 92
3
 72
0
 73
1
 93
4
 10
893.8235294117648
 20
166.76470588235296
 10
990.0000000000001
 20
166.76470588235296
 10
990.0000000000001
 20
149.11764705882354
 10
893.8235294117648
 20
149.11764705882354
 97
0
 75
1
 76
1
 98
0
  0
LWPOLYLINE
  5
A1
330
17
100
AcDbEntity
  8
WALL
100
AcDbPolyline
 90
4
 70
1
 10
299.11764705882354
 20
147.3529411764706
 10
406.764705882353
 20
147.3529411764706
 10
406.764705882353
 20
136.76470588235296
 10
299.11764705882354
 20
136.76470588235296
  0
HATCH
  5
A2
330
17
100
AcDbEntity
  8
WALL
100
AcDbHatch
 10
0.0
 20
0.0
 30
0.0
210
0.0
220
0.0
230
1.0
  2
SOLID
 70
1
 71
0
 91
1
 92
3
 72
0
 73
1
 93
4
 10
299.11764705882354
 20
147.3529411764706
 10
406.764705882353
 20
147.3529411764706
 10
406.764705882353
 20
136.76470588235296
 10
299.11764705882354
 20
136.76470588235296
 97
0
 75
1
 76
1
 98
0
  0
LWPOLYLINE
  5
A3
330
17
100
AcDbEntity
  8
WALL
100
AcDbPolyline
 90
4
 70
1
 10
18.529411764705884
 20
113.82352941176471
 10
175.58823529411765
 20
113.82352941176471
 10
175.58823529411765
 20
97.94117647058825
 10
18.529411764705884
 20
97.94117647058825
  0
HATCH
  5
A4
330
17
100
AcDbEntity
  8
WALL
100
AcDbHatch
 10
0.0
 20
0.0
 30
0.0
210
0.0
220
0.0
230
1.0
  2
SOLID
 70
1
 71
0
 91
1
 92
3
 72
0
 73
1
 93
4
 10
18.529411764705884
 20
113.82352941176471
 10
175.58823529411765
 20
113.82352941176471
 10
175.58823529411765
 20
97.94117647058825
 10
18.529411764705884
 20
97.94117647058825
 97
0
 75
1
 76
1
 98
0
  0
LWPOLYLINE
  5
A5
330
17
100
AcDbEntity
  8
WALL
100
AcDbPolyline
 90
4
 70
1
 10
303.5294117647059
 20
112.05882352941178
 10
338.82352941176475
 20
112.05882352941178
 10
338.82352941176475
 20
97.94117647058825
 10
303.5294117647059
 20
97.94117647058825
  0
HATCH
  5
A6
330
17
100
AcDbEntity
  8
WALL
100
AcDbHatch
 10
0.0
 20
0.0
 30
0.0
210
0.0
220
0.0
230
1.0
  2
SOLID
 70
1
 71
0
 91
1
 92
3
 72
0
 73
1
 93
4
 10
303.5294117647059
 20
112.05882352941178
 10
338.82352941176475
 20
112.05882352941178
 10
338.82352941176475
 20
97.94117647058825
 10
303.5294117647059
 20
97.94117647058825
 97
0
 75
1
 76
1
 98
0
  0
LWPOLYLINE
  5
A7
330
17
100
AcDbEntity
  8
WALL
100
AcDbPolyline
 90
4
 70
1
 10
546.1764705882354
 20
110.29411764705884
 10
648.529411764706
 20
110.29411764705884
 10
648.529411764706
 20
96.1764705882353
 10
546.1764705882354
 20
96.1764705882353
  0
HATCH
  5
A8
330
17
100
AcDbEntity
  8
WALL
100
AcDbHatch
 10
0.0
 20
0.0
 30
0.0
210
0.0
220
0.0
230
1.0
  2
SOLID
 70
1
 71
0
 91
1
 92
3
 72
0
 73
1
 93
4
 10
546.1764705882354
 20
110.29411764705884
 10
648.529411764706
 20
110.29411764705884
 10
648.529411764706
 20
96.1764705882353
 10
546.1764705882354
 20
96.1764705882353
 97
0
 75
1
 76
1
 98
0
  0
LWPOLYLINE
  5
A9
330
17
100
AcDbEntity
  8
WALL
100
AcDbPolyline
 90
4
 70
1
 10
812.6470588235295
 20
110.29411764705884
 10
886.764705882353
 20
110.29411764705884
 10
886.764705882353
 20
94.41176470588236
 10
812.6470588235295
 20
94.41176470588236
  0
HATCH
  5
AA
330
17
100
AcDbEntity
  8
WALL
100
AcDbHatch
 10
0.0
 20
0.0
 30
0.0
210
0.0
220
0.0
230
1.0
  2
SOLID
 70
1
 71
0
 91
1
 92
3
 72
0
 73
1
 93
4
 10
812.6470588235295
 20
110.29411764705884
 10
886.764705882353
 20
110.29411764705884
 10
886.764705882353
 20
94.41176470588236
 10
812.6470588235295
 20
94.41176470588236
 97
0
 75
1
 76
1
 98
0
  0
LWPOLYLINE
  5
AB
330
17
100
AcDbEntity
  8
WALL
100
AcDbPolyline
 90
4
 70
1
 10
856.764705882353
 20
1059.7058823529412
 10
865.5882352941177
 20
1059.7058823529412
 10
865.5882352941177
 20
1022.6470588235295
 10
856.764705882353
 20
1022.6470588235295
  0
HATCH
  5
AC
330
17
100
AcDbEntity
  8
WALL
100
AcDbHatch
 10
0.0
 20
0.0
 30
0.0
210
0.0
220
0.0
230
1.0
  2
SOLID
 70
1
 71
0
 91
1
 92
3
 72
0
 73
1
 93
4
 10
856.764705882353
 20
1059.7058823529412
 10
865.5882352941177
 20
1059.7058823529412
 10
865.5882352941177
 20
1022.6470588235295
 10
856.764705882353
 20
1022.6470588235295
 97
0
 75
1
 76
1
 98
0
  0
LWPOLYLINE
  5
AD
330
17
100
AcDbEntity
  8
WALL
100
AcDbPolyline
 90
4
 70
1
 10
860.2941176470589
 20
1012.0588235294118
 10
865.5882352941177
 20
1012.0588235294118
 10
865.5882352941177
 20
985.5882352941178
 10
860.2941176470589
 20
985.5882352941178
  0
HATCH
  5
AE
330
17
100
AcDbEntity
  8
WALL
100
AcDbHatch
 10
0.0
 20
0.0
 30
0.0
210
0.0
220
0.0
230
1.0
  2
SOLID
 70
1
 71
0
 91
1
 92
3
 72
0
 73
1
 93
4
 10
860.2941176470589
 20
1012.0588235294118
 10
865.5882352941177
 20
1012.0588235294118
 10
865.5882352941177
 20
985.5882352941178
 10
860.2941176470589
 20
985.5882352941178
 97
0
 75
1
 76
1
 98
0
  0
LWPOLYLINE
  5
AF
330
17
100
AcDbEntity
  8
WALL
100
AcDbPolyline
 90
4
 70
1
 10
866.4705882352941
 20
1012.0588235294118
 10
870.0000000000001
 20
1012.0588235294118
 10
870.0000000000001
 20
985.5882352941178
 10
866.4705882352941
 20
985.5882352941178
  0
HATCH
  5
B0
330
17
100
AcDbEntity
  8
WALL
100
AcDbHatch
 10
0.0
 20
0.0
 30
0.0
210
0.0
220
0.0
230
1.0
  2
SOLID
 70
1
 71
0
 91
1
 92
3
 72
0
 73
1
 93
4
 10
866.4705882352941
 20
1012.0588235294118
 10
870.0000000000001
 20
1012.0588235294118
 10
870.0000000000001
 20
985.5882352941178
 10
866.4705882352941
 20
985.5882352941178
 97
0
 75
1
 76
1
 98
0
  0
LWPOLYLINE
  5
B1
330
17
100
AcDbEntity
  8
WALL
100
AcDbPolyline
 90
4
 70
1
 10
853.2352941176472
 20
1003.2352941176472
 10
858.529411764706
 20
1003.2352941176472
 10
858.529411764706
 20
975.0000000000001
 10
853.2352941176472
 20
975.0000000000001
  0
HATCH
  5
B2
330
17
100
AcDbEntity
  8
WALL
100
AcDbHatch
 10
0.0
 20
0.0
 30
0.0
210
0.0
220
0.0
230
1.0
  2
SOLID
 70
1
 71
0
 91
1
 92
3
 72
0
 73
1
 93
4
 10
853.2352941176472
 20
1003.2352941176472
 10
858.529411764706
 20
1003.2352941176472
 10
858.529411764706
 20
975.0000000000001
 10
853.2352941176472
 20
975.0000000000001
 97
0
 75
1
 76
1
 98
0
  0
LWPOLYLINE
  5
B3
330
17
100
AcDbEntity
  8
WALL
100
AcDbPolyline
 90
4
 70
1
 10
720.8823529411766
 20
984.7058823529412
 10
726.1764705882354
 20
984.7058823529412
 10
726.1764705882354
 20
846.1764705882354
 10
720.8823529411766
 20
846.1764705882354
  0
HATCH
  5
B4
330
17
100
AcDbEntity
  8
WALL
100
AcDbHatch
 10
0.0
 20
0.0
 30
0.0
210
0.0
220
0.0
230
1.0
  2
SOLID
 70
1
 71
0
 91
1
 92
3
 72
0
 73
1
 93
4
 10
720.8823529411766
 20
984.7058823529412
 10
726.1764705882354
 20
984.7058823529412
 10
726.1764705882354
 20
846.1764705882354
 10
720.8823529411766
 20
846.1764705882354
 97
0
 75
1
 76
1
 98
0
  0
LWPOLYLINE
  5
B5
330
17
100
AcDbEntity
  8
WALL
100
AcDbPolyline
 90
4
 70
1
 10
375.00000000000006
 20
965.2941176470589
 10
394.4117647058824
 20
965.2941176470589
 10
394.4117647058824
 20
367.9411764705883
 10
375.00000000000006
 20
367.9411764705883
  0
HATCH
  5
B6
330
17
100
AcDbEntity
  8
WALL
100
AcDbHatch
 10
0.0
 20
0.0
 30
0.0
210
0.0
220
0.0
230
1.0
  2
SOLID
 70
1
 71
0
 91
1
 92
3
 72
0
 73
1
 93
4
 10
375.00000000000006
 20
965.2941176470589
 10
394.4117647058824
 20
965.2941176470589
 10
394.4117647058824
 20
367.9411764705883
 10
375.00000000000006
 20
367.9411764705883
 97
0
 75
1
 76
1
 98
0
  0
LWPOLYLINE
  5
B7
330
17
100
AcDbEntity
  8
WALL
100
AcDbPolyline
 90
4
 70
1
 10
645.0000000000001
 20
962.6470588235295
 10
657.3529411764706
 20
962.6470588235295
 10
657.3529411764706
 20
805.5882352941177
 10
645.0000000000001
 20
805.5882352941177
  0
HATCH
  5
B8
330
17
100
AcDbEntity
  8
WALL
100
AcDbHatch
 10
0.0
 20
0.0
 30
0.0
210
0.0
220
0.0
230
1.0
  2
SOLID
 70
1
 71
0
 91
1
 92
3
 72
0
 73
1
 93
4
 10
645.0000000000001
 20
962.6470588235295
 10
657.3529411764706
 20
962.6470588235295
 10
657.3529411764706
 20
805.5882352941177
 10
645.0000000000001
 20
805.5882352941177
 97
0
 75
1
 76
1
 98
0
  0
LWPOLYLINE
  5
B9
330
17
100
AcDbEntity
  8
WALL
100
AcDbPolyline
 90
4
 70
1
 10
892.0588235294118
 20
960.0000000000001
 10
911.4705882352943
 20
960.0000000000001
 10
911.4705882352943
 20
807.3529411764707
 10
892.0588235294118
 20
807.3529411764707
  0
HATCH
  5
BA
330
17
100
AcDbEntity
  8
WALL
100
AcDbHatch
 10
0.0
 20
0.0
 30
0.0
210
0.0
220
0.0
230
1.0
  2
SOLID
 70
1
 71
0
 91
1
 92
3
 72
0
 73
1
 93
4
 10
892.0588235294118
 20
960.0000000000001
 10
911.4705882352943
 20
960.0000000000001
 10
911.4705882352943
 20
807.3529411764707
 10
892.0588235294118
 20
807.3529411764707
 97
0
 75
1
 76
1
 98
0
  0
LWPOLYLINE
  5
BB
330
17
100
AcDbEntity
  8
WALL
100
AcDbPolyline
 90
4
 70
1
 10
883.2352941176472
 20
952.9411764705883
 10
886.764705882353
 20
952.9411764705883
 10
886.764705882353
 20
923.8235294117648
 10
883.2352941176472
 20
923.8235294117648
  0
HATCH
  5
BC
330
17
100
AcDbEntity
  8
WALL
100
AcDbHatch
 10
0.0
 20
0.0
 30
0.0
210
0.0
220
0.0
230
1.0
  2
SOLID
 70
1
 71
0
 91
1
 92
3
 72
0
 73
1
 93
4
 10
883.2352941176472
 20
952.9411764705883
 10
886.764705882353
 20
952.9411764705883
 10
886.764705882353
 20
923.8235294117648
 10
883.2352941176472
 20
923.8235294117648
 97
0
 75
1
 76
1
 98
0
  0
LWPOLYLINE
  5
BD
330
17
100
AcDbEntity
  8
WALL
100
AcDbPolyline
 90
4
 70
1
 10
615.0000000000001
 20
949.4117647058824
 10
622.0588235294118
 20
949.4117647058824
 10
622.0588235294118
 20
816.1764705882354
 10
615.0000000000001
 20
816.1764705882354
  0
HATCH
  5
BE
330
17
100
AcDbEntity
  8
WALL
100
AcDbHatch
 10
0.0
 20
0.0
 30
0.0
210
0.0
220
0.0
230
1.0
  2
SOLID
 70
1
 71
0
 91
1
 92
3
 72
0
 73
1
 93
4
 10
615.0000000000001
 20
949.4117647058824
 10
622.0588235294118
 20
949.4117647058824
 10
622.0588235294118
 20
816.1764705882354
 10
615.0000000000001
 20
816.1764705882354
 97
0
 75
1
 76
1
 98
0
  0
LWPOLYLINE
  5
BF
330
17
100
AcDbEntity
  8
WALL
100
AcDbPolyline
 90
4
 70
1
 10
442.0588235294118
 20
945.0000000000001
 10
449.1176470588236
 20
945.0000000000001
 10
449.1176470588236
 20
915.0000000000001
 10
442.0588235294118
 20
915.0000000000001
  0
HATCH
  5
C0
330
17
100
AcDbEntity
  8
WALL
100
AcDbHatch
 10
0.0
 20
0.0
 30
0.0
210
0.0
220
0.0
230
1.0
  2
SOLID
 70
1
 71
0
 91
1
 92
3
 72
0
 73
1
 93
4
 10
442.0588235294118
 20
945.0000000000001
 10
449.1176470588236
 20
945.0000000000001
 10
449.1176470588236
 20
915.0000000000001
 10
442.0588235294118
 20
915.0000000000001
 97
0
 75
1
 76
1
 98
0
  0
LWPOLYLINE
  5
C1
330
17
100
AcDbEntity
  8
WALL
100
AcDbPolyline
 90
4
 70
1
 10
493.23529411764713
 20
943.2352941176472
 10
498.5294117647059
 20
943.2352941176472
 10
498.5294117647059
 20
915.0000000000001
 10
493.23529411764713
 20
915.0000000000001
  0
HATCH
  5
C2
330
17
100
AcDbEntity
  8
WALL
100
AcDbHatch
 10
0.0
 20
0.0
 30
0.0
210
0.0
220
0.0
230
1.0
  2
SOLID
 70
1
 71
0
 91
1
 92
3
 72
0
 73
1
 93
4
 10
493.23529411764713
 20
943.2352941176472
 10
498.5294117647059
 20
943.2352941176472
 10
498.5294117647059
 20
915.0000000000001
 10
493.23529411764713
 20
915.0000000000001
 97
0
 75
1
 76
1
 98
0
  0
LWPOLYLINE
  5
C3
330
17
100
AcDbEntity
  8
WALL
100
AcDbPolyline
 90
4
 70
1
 10
387.3529411764706
 20
928.2352941176472
 10
392.64705882352945
 20
928.2352941176472
 10
392.64705882352945
 20
892.0588235294118
 10
387.3529411764706
 20
892.0588235294118
  0
HATCH
  5
C4
330
17
100
AcDbEntity
  8
WALL
100
AcDbHatch
 10
0.0
 20
0.0
 30
0.0
210
0.0
220
0.0
230
1.0
  2
SOLID
 70
1
 71
0
 91
1
 92
3
 72
0
 73
1
 93
4
 10
387.3529411764706
 20
928.2352941176472
 10
392.64705882352945
 20
928.2352941176472
 10
392.64705882352945
 20
892.0588235294118
 10
387.3529411764706
 20
892.0588235294118
 97
0
 75
1
 76
1
 98
0
  0
LWPOLYLINE
  5
C5
330
17
100
AcDbEntity
  8
WALL
100
AcDbPolyline
 90
4
 70
1
 10
832.0588235294118
 20
922.0588235294118
 10
837.3529411764707
 20
922.0588235294118
 10
837.3529411764707
 20
889.4117647058824
 10
832.0588235294118
 20
889.4117647058824
  0
HATCH
  5
C6
330
17
100
AcDbEntity
  8
WALL
100
AcDbHatch
 10
0.0
 20
0.0
 30
0.0
210
0.0
220
0.0
230
1.0
  2
SOLID
 70
1
 71
0
 91
1
 92
3
 72
0
 73
1
 93
4
 10
832.0588235294118
 20
922.0588235294118
 10
837.3529411764707
 20
922.0588235294118
 10
837.3529411764707
 20
889.4117647058824
 10
832.0588235294118
 20
889.4117647058824
 97
0
 75
1
 76
1
 98
0
  0
LWPOLYLINE
  5
C7
330
17
100
AcDbEntity
  8
WALL
100
AcDbPolyline
 90
4
 70
1
 10
1049.1176470588236
 20
909.7058823529412
 10
1065.0
 20
909.7058823529412
 10
1065.0
 20
741.1764705882354
 10
1049.1176470588236
 20
741.1764705882354
  0
HATCH
  5
C8
330
17
100
AcDbEntity
  8
WALL
100
AcDbHatch
 10
0.0
 20
0.0
 30
0.0
210
0.0
220
0.0
230
1.0
  2
SOLID
 70
1
 71
0
 91
1
 92
3
 72
0
 73
1
 93
4
 10
1049.1176470588236
 20
909.7058823529412
 10
1065.0
 20
909.7058823529412
 10
1065.0
 20
741.1764705882354
 10
1049.1176470588236
 20
741.1764705882354
 97
0
 75
1
 76
1
 98
0
  0
LWPOLYLINE
  5
C9
330
17
100
AcDbEntity
  8
WALL
100
AcDbPolyline
 90
4
 70
1
 10
874.4117647058824
 20
882.3529411764707
 10
884.1176470588236
 20
882.3529411764707
 10
884.1176470588236
 20
856.764705882353
 10
874.4117647058824
 20
856.764705882353
  0
HATCH
  5
CA
330
17
100
AcDbEntity
  8
WALL
100
AcDbHatch
 10
0.0
 20
0.0
 30
0.0
210
0.0
220
0.0
230
1.0
  2
SOLID
 70
1
 71
0
 91
1
 92
3
 72
0
 73
1
 93
4
 10
874.4117647058824
 20
882.3529411764707
 10
884.1176470588236
 20
882.3529411764707
 10
884.1176470588236
 20
856.764705882353
 10
874.4117647058824
 20
856.764705882353
 97
0
 75
1
 76
1
 98
0
  0
LWPOLYLINE
  5
CB
330
17
100
AcDbEntity
  8
WALL
100
AcDbPolyline
 90
4
 70
1
 10
433.2352941176471
 20
863.8235294117648
 10
442.0588235294118
 20
863.8235294117648
 10
442.0588235294118
 20
832.0588235294118
 10
433.2352941176471
 20
832.0588235294118
  0
HATCH
  5
CC
330
17
100
AcDbEntity
  8
WALL
100
AcDbHatch
 10
0.0
 20
0.0
 30
0.0
210
0.0
220
0.0
230
1.0
  2
SOLID
 70
1
 71
0
 91
1
 92
3
 72
0
 73
1
 93
4
 10
433.2352941176471
 20
863.8235294117648
 10
442.0588235294118
 20
863.8235294117648
 10
442.0588235294118
 20
832.0588235294118
 10
433.2352941176471
 20
832.0588235294118
 97
0
 75
1
 76
1
 98
0
  0
LWPOLYLINE
  5
CD
330
17
100
AcDbEntity
  8
WALL
100
AcDbPolyline
 90
4
 70
1
 10
854.1176470588236
 20
853.2352941176472
 10
870.8823529411766
 20
853.2352941176472
 10
870.8823529411766
 20
825.0000000000001
 10
854.1176470588236
 20
825.0000000000001
  0
HATCH
  5
CE
330
17
100
AcDbEntity
  8
WALL
100
AcDbHatch
 10
0.0
 20
0.0
 30
0.0
210
0.0
220
0.0
230
1.0
  2
SOLID
 70
1
 71
0
 91
1
 92
3
 72
0
 73
1
 93
4
 10
854.1176470588236
 20
853.2352941176472
 10
870.8823529411766
 20
853.2352941176472
 10
870.8823529411766
 20
825.0000000000001
 10
854.1176470588236
 20
825.0000000000001
 97
0
 75
1
 76
1
 98
0
  0
LWPOLYLINE
  5
CF
330
17
100
AcDbEntity
  8
WALL
100
AcDbPolyline
 90
4
 70
1
 10
405.00000000000006
 20
750.8823529411766
 10
410.29411764705884
 20
750.8823529411766
 10
410.29411764705884
 20
706.764705882353
 10
405.00000000000006
 20
706.764705882353
  0
HATCH
  5
D0
330
17
100
AcDbEntity
  8
WALL
100
AcDbHatch
 10
0.0
 20
0.0
 30
0.0
210
0.0
220
0.0
230
1.0
  2
SOLID
 70
1
 71
0
 91
1
 92
3
 72
0
 73
1
 93
4
 10
405.00000000000006
 20
750.8823529411766
 10
410.29411764705884
 20
750.8823529411766
 10
410.29411764705884
 20
706.764705882353
 10
405.00000000000006
 20
706.764705882353
 97
0
 75
1
 76
1
 98
0
  0
LWPOLYLINE
  5
D1
330
17
100
AcDbEntity
  8
WALL
100
AcDbPolyline
 90
4
 70
1
 10
893.8235294117648
 20
742.9411764705883
 10
909.7058823529412
 20
742.9411764705883
 10
909.7058823529412
 20
592.0588235294118
 10
893.8235294117648
 20
592.0588235294118
  0
HATCH
  5
D2
330
17
100
AcDbEntity
  8
WALL
100
AcDbHatch
 10
0.0
 20
0.0
 30
0.0
210
0.0
220
0.0
230
1.0
  2
SOLID
 70
1
 71
0
 91
1
 92
3
 72
0
 73
1
 93
4
 10
893.8235294117648
 20
742.9411764705883
 10
909.7058823529412
 20
742.9411764705883
 10
909.7058823529412
 20
592.0588235294118
 10
893.8235294117648
 20
592.0588235294118
 97
0
 75
1
 76
1
 98
0
  0
LWPOLYLINE
  5
D3
330
17
100
AcDbEntity
  8
WALL
100
AcDbPolyline
 90
4
 70
1
 10
646.764705882353
 20
736.764705882353
 10
657.3529411764706
 20
736.764705882353
 10
657.3529411764706
 20
528.529411764706
 10
646.764705882353
 20
528.529411764706
  0
HATCH
  5
D4
330
17
100
AcDbEntity
  8
WALL
100
AcDbHatch
 10
0.0
 20
0.0
 30
0.0
210
0.0
220
0.0
230
1.0
  2
SOLID
 70
1
 71
0
 91
1
 92
3
 72
0
 73
1
 93
4
 10
646.764705882353
 20
736.764705882353
 10
657.3529411764706
 20
736.764705882353
 10
657.3529411764706
 20
528.529411764706
 10
646.764705882353
 20
528.529411764706
 97
0
 75
1
 76
1
 98
0
  0
LWPOLYLINE
  5
D5
330
17
100
AcDbEntity
  8
WALL
100
AcDbPolyline
 90
4
 70
1
 10
1050.8823529411766
 20
675.8823529411766
 10
1065.0
 20
675.8823529411766
 10
1065.0
 20
620.2941176470589
 10
1050.8823529411766
 20
620.2941176470589
  0
HATCH
  5
D6
330
17
100
AcDbEntity
  8
WALL
100
AcDbHatch
 10
0.0
 20
0.0
 30
0.0
210
0.0
220
0.0
230
1.0
  2
SOLID
 70
1
 71
0
 91
1
 92
3
 72
0
 73
1
 93
4
 10
1050.8823529411766
 20
675.8823529411766
 10
1065.0
 20
675.8823529411766
 10
1065.0
 20
620.2941176470589
 10
1050.8823529411766
 20
620.2941176470589
 97
0
 75
1
 76
1
 98
0
  0
LWPOLYLINE
  5
D7
330
17
100
AcDbEntity
  8
WALL
100
AcDbPolyline
 90
4
 70
1
 10
493.23529411764713
 20
664.4117647058824
 10
503.82352941176475
 20
664.4117647058824
 10
503.82352941176475
 20
577.9411764705883
 10
493.23529411764713
 20
577.9411764705883
  0
HATCH
  5
D8
330
17
100
AcDbEntity
  8
WALL
100
AcDbHatch
 10
0.0
 20
0.0
 30
0.0
210
0.0
220
0.0
230
1.0
  2
SOLID
 70
1
 71
0
 91
1
 92
3
 72
0
 73
1
 93
4
 10
493.23529411764713
 20
664.4117647058824
 10
503.82352941176475
 20
664.4117647058824
 10
503.82352941176475
 20
577.9411764705883
 10
493.23529411764713
 20
577.9411764705883
 97
0
 75
1
 76
1
 98
0
  0
LWPOLYLINE
  5
D9
330
17
100
AcDbEntity
  8
WALL
100
AcDbPolyline
 90
4
 70
1
 10
913.2352941176472
 20
636.1764705882354
 10
929.1176470588236
 20
636.1764705882354
 10
929.1176470588236
 20
585.0
 10
913.2352941176472
 20
585.0
  0
HATCH
  5
DA
330
17
100
AcDbEntity
  8
WALL
100
AcDbHatch
 10
0.0
 20
0.0
 30
0.0
210
0.0
220
0.0
230
1.0
  2
SOLID
 70
1
 71
0
 91
1
 92
3
 72
0
 73
1
 93
4
 10
913.2352941176472
 20
636.1764705882354
 10
929.1176470588236
 20
636.1764705882354
 10
929.1176470588236
 20
585.0
 10
913.2352941176472
 20
585.0
 97
0
 75
1
 76
1
 98
0
  0
LWPOLYLINE
  5
DB
330
17
100
AcDbEntity
  8
WALL
100
AcDbPolyline
 90
4
 70
1
 10
754.4117647058824
 20
621.1764705882354
 10
761.4705882352941
 20
621.1764705882354
 10
761.4705882352941
 20
489.7058823529412
 10
754.4117647058824
 20
489.7058823529412
  0
HATCH
  5
DC
330
17
100
AcDbEntity
  8
WALL
100
AcDbHatch
 10
0.0
 20
0.0
 30
0.0
210
0.0
220
0.0
230
1.0
  2
SOLID
 70
1
 71
0
 91
1
 92
3
 72
0
 73
1
 93
4
 10
754.4117647058824
 20
621.1764705882354
 10
761.4705882352941
 20
621.1764705882354
 10
761.4705882352941
 20
489.7058823529412
 10
754.4117647058824
 20
489.7058823529412
 97
0
 75
1
 76
1
 98
0
  0
LWPOLYLINE
  5
DD
330
17
100
AcDbEntity
  8
WALL
100
AcDbPolyline
 90
4
 70
1
 10
405.00000000000006
 20
596.4705882352941
 10
410.29411764705884
 20
596.4705882352941
 10
410.29411764705884
 20
543.529411764706
 10
405.00000000000006
 20
543.529411764706
  0
HATCH
  5
DE
330
17
100
AcDbEntity
  8
WALL
100
AcDbHatch
 10
0.0
 20
0.0
 30
0.0
210
0.0
220
0.0
230
1.0
  2
SOLID
 70
1
 71
0
 91
1
 92
3
 72
0
 73
1
 93
4
 10
405.00000000000006
 20
596.4705882352941
 10
410.29411764705884
 20
596.4705882352941
 10
410.29411764705884
 20
543.529411764706
 10
405.00000000000006
 20
543.529411764706
 97
0
 75
1
 76
1
 98
0
  0
LWPOLYLINE
  5
DF
330
17
100
AcDbEntity
  8
WALL
100
AcDbPolyline
 90
4
 70
1
 10
925.5882352941177
 20
585.8823529411766
 10
926.4705882352943
 20
585.8823529411766
 10
926.4705882352943
 20
562.0588235294118
 10
925.5882352941177
 20
562.0588235294118
  0
HATCH
  5
E0
330
17
100
AcDbEntity
  8
WALL
100
AcDbHatch
 10
0.0
 20
0.0
 30
0.0
210
0.0
220
0.0
230
1.0
  2
SOLID
 70
1
 71
0
 91
1
 92
3
 72
0
 73
1
 93
4
 10
925.5882352941177
 20
585.8823529411766
 10
926.4705882352943
 20
585.8823529411766
 10
926.4705882352943
 20
562.0588235294118
 10
925.5882352941177
 20
562.0588235294118
 97
0
 75
1
 76
1
 98
0
  0
LWPOLYLINE
  5
E1
330
17
100
AcDbEntity
  8
WALL
100
AcDbPolyline
 90
4
 70
1
 10
499.4117647058824
 20
552.3529411764706
 10
503.82352941176475
 20
552.3529411764706
 10
503.82352941176475
 20
523.2352941176471
 10
499.4117647058824
 20
523.2352941176471
  0
HATCH
  5
E2
330
17
100
AcDbEntity
  8
WALL
100
AcDbHatch
 10
0.0
 20
0.0
 30
0.0
210
0.0
220
0.0
230
1.0
  2
SOLID
 70
1
 71
0
 91
1
 92
3
 72
0
 73
1
 93
4
 10
499.4117647058824
 20
552.3529411764706
 10
503.82352941176475
 20
552.3529411764706
 10
503.82352941176475
 20
523.2352941176471
 10
499.4117647058824
 20
523.2352941176471
 97
0
 75
1
 76
1
 98
0
  0
LWPOLYLINE
  5
E3
330
17
100
AcDbEntity
  8
WALL
100
AcDbPolyline
 90
4
 70
1
 10
493.23529411764713
 20
487.9411764705883
 10
497.64705882352945
 20
487.9411764705883
 10
497.64705882352945
 20
463.23529411764713
 10
493.23529411764713
 20
463.23529411764713
  0
HATCH
  5
E4
330
17
100
AcDbEntity
  8
WALL
100
AcDbHatch
 10
0.0
 20
0.0
 30
0.0
210
0.0
220
0.0
230
1.0
  2
SOLID
 70
1
 71
0
 91
1
 92
3
 72
0
 73
1
 93
4
 10
493.23529411764713
 20
487.9411764705883
 10
497.64705882352945
 20
487.9411764705883
 10
497.64705882352945
 20
463.23529411764713
 10
493.23529411764713
 20
463.23529411764713
 97
0
 75
1
 76
1
 98
0
  0
LWPOLYLINE
  5
E5
330
17
100
AcDbEntity
  8
WALL
100
AcDbPolyline
 90
4
 70
1
 10
442.0588235294118
 20
487.0588235294118
 10
446.47058823529414
 20
487.0588235294118
 10
446.47058823529414
 20
463.23529411764713
 10
442.0588235294118
 20
463.23529411764713
  0
HATCH
  5
E6
330
17
100
AcDbEntity
  8
WALL
100
AcDbHatch
 10
0.0
 20
0.0
 30
0.0
210
0.0
220
0.0
230
1.0
  2
SOLID
 70
1
 71
0
 91
1
 92
3
 72
0
 73
1
 93
4
 10
442.0588235294118
 20
487.0588235294118
 10
446.47058823529414
 20
487.0588235294118
 10
446.47058823529414
 20
463.23529411764713
 10
442.0588235294118
 20
463.23529411764713
 97
0
 75
1
 76
1
 98
0
  0
LWPOLYLINE
  5
E7
330
17
100
AcDbEntity
  8
WALL
100
AcDbPolyline
 90
4
 70
1
 10
646.764705882353
 20
459.7058823529412
 10
657.3529411764706
 20
459.7058823529412
 10
657.3529411764706
 20
339.7058823529412
 10
646.764705882353
 20
339.7058823529412
  0
HATCH
  5
E8
330
17
100
AcDbEntity
  8
WALL
100
AcDbHatch
 10
0.0
 20
0.0
 30
0.0
210
0.0
220
0.0
230
1.0
  2
SOLID
 70
1
 71
0
 91
1
 92
3
 72
0
 73
1
 93
4
 10
646.764705882353
 20
459.7058823529412
 10
657.3529411764706
 20
459.7058823529412
 10
657.3529411764706
 20
339.7058823529412
 10
646.764705882353
 20
339.7058823529412
 97
0
 75
1
 76
1
 98
0
  0
LWPOLYLINE
  5
E9
330
17
100
AcDbEntity
  8
WALL
100
AcDbPolyline
 90
4
 70
1
 10
894.7058823529412
 20
454.4117647058824
 10
909.7058823529412
 20
454.4117647058824
 10
909.7058823529412
 20
424.4117647058824
 10
894.7058823529412
 20
424.4117647058824
  0
HATCH
  5
EA
330
17
100
AcDbEntity
  8
WALL
100
AcDbHatch
 10
0.0
 20
0.0
 30
0.0
210
0.0
220
0.0
230
1.0
  2
SOLID
 70
1
 71
0
 91
1
 92
3
 72
0
 73
1
 93
4
 10
894.7058823529412
 20
454.4117647058824
 10
909.7058823529412
 20
454.4117647058824
 10
909.7058823529412
 20
424.4117647058824
 10
894.7058823529412
 20
424.4117647058824
 97
0
 75
1
 76
1
 98
0
  0
LWPOLYLINE
  5
EB
330
17
100
AcDbEntity
  8
WALL
100
AcDbPolyline
 90
4
 70
1
 10
1049.1176470588236
 20
435.00000000000006
 10
1065.0
 20
435.00000000000006
 10
1065.0
 20
394.4117647058824
 10
1049.1176470588236
 20
394.4117647058824
  0
HATCH
  5
EC
330
17
100
AcDbEntity
  8
WALL
100
AcDbHatch
 10
0.0
 20
0.0
 30
0.0
210
0.0
220
0.0
230
1.0
  2
SOLID
 70
1
 71
0
 91
1
 92
3
 72
0
 73
1
 93
4
 10
1049.1176470588236
 20
435.00000000000006
 10
1065.0
 20
435.00000000000006
 10
1065.0
 20
394.4117647058824
 10
1049.1176470588236
 20
394.4117647058824
 97
0
 75
1
 76
1
 98
0
  0
LWPOLYLINE
  5
ED
330
17
100
AcDbEntity
  8
WALL
100
AcDbPolyline
 90
4
 70
1
 10
731.4705882352941
 20
387.3529411764706
 10
735.0000000000001
 20
387.3529411764706
 10
735.0000000000001
 20
362.64705882352945
 10
731.4705882352941
 20
362.64705882352945
  0
HATCH
  5
EE
330
17
100
AcDbEntity
  8
WALL
100
AcDbHatch
 10
0.0
 20
0.0
 30
0.0
210
0.0
220
0.0
230
1.0
  2
SOLID
 70
1
 71
0
 91
1
 92
3
 72
0
 73
1
 93
4
 10
731.4705882352941
 20
387.3529411764706
 10
735.0000000000001
 20
387.3529411764706
 10
735.0000000000001
 20
362.64705882352945
 10
731.4705882352941
 20
362.64705882352945
 97
0
 75
1
 76
1
 98
0
  0
LWPOLYLINE
  5
EF
330
17
100
AcDbEntity
  8
WALL
100
AcDbPolyline
 90
4
 70
1
 10
793.2352941176472
 20
386.47058823529414
 10
802.0588235294118
 20
386.47058823529414
 10
802.0588235294118
 20
249.7058823529412
 10
793.2352941176472
 20
249.7058823529412
  0
HATCH
  5
F0
330
17
100
AcDbEntity
  8
WALL
100
AcDbHatch
 10
0.0
 20
0.0
 30
0.0
210
0.0
220
0.0
230
1.0
  2
SOLID
 70
1
 71
0
 91
1
 92
3
 72
0
 73
1
 93
4
 10
793.2352941176472
 20
386.47058823529414
 10
802.0588235294118
 20
386.47058823529414
 10
802.0588235294118
 20
249.7058823529412
 10
793.2352941176472
 20
249.7058823529412
 97
0
 75
1
 76
1
 98
0
  0
LWPOLYLINE
  5
F1
330
17
100
AcDbEntity
  8
WALL
100
AcDbPolyline
 90
4
 70
1
 10
990.8823529411766
 20
365.29411764705884
 10
999.7058823529412
 20
365.29411764705884
 10
999.7058823529412
 20
336.1764705882353
 10
990.8823529411766
 20
336.1764705882353
  0
HATCH
  5
F2
330
17
100
AcDbEntity
  8
WALL
100
AcDbHatch
 10
0.0
 20
0.0
 30
0.0
210
0.0
220
0.0
230
1.0
  2
SOLID
 70
1
 71
0
 91
1
 92
3
 72
0
 73
1
 93
4
 10
990.8823529411766
 20
365.29411764705884
 10
999.7058823529412
 20
365.29411764705884
 10
999.7058823529412
 20
336.1764705882353
 10
990.8823529411766
 20
336.1764705882353
 97
0
 75
1
 76
1
 98
0
  0
LWPOLYLINE
  5
F3
330
17
100
AcDbEntity
  8
WALL
100
AcDbPolyline
 90
4
 70
1
 10
18.529411764705884
 20
306.1764705882353
 10
27.35294117647059
 20
306.1764705882353
 10
27.35294117647059
 20
272.64705882352945
 10
18.529411764705884
 20
272.64705882352945
  0
HATCH
  5
F4
330
17
100
AcDbEntity
  8
WALL
100
AcDbHatch
 10
0.0
 20
0.0
 30
0.0
210
0.0
220
0.0
230
1.0
  2
SOLID
 70
1
 71
0
 91
1
 92
3
 72
0
 73
1
 93
4
 10
18.529411764705884
 20
306.1764705882353
 10
27.35294117647059
 20
306.1764705882353
 10
27.35294117647059
 20
272.64705882352945
 10
18.529411764705884
 20
272.64705882352945
 97
0
 75
1
 76
1
 98
0
  0
LWPOLYLINE
  5
F5
330
17
100
AcDbEntity
  8
WALL
100
AcDbPolyline
 90
4
 70
1
 10
991.764705882353
 20
297.3529411764706
 10
999.7058823529412
 20
297.3529411764706
 10
999.7058823529412
 20
262.05882352941177
 10
991.764705882353
 20
262.05882352941177
  0
HATCH
  5
F6
330
17
100
AcDbEntity
  8
WALL
100
AcDbHatch
 10
0.0
 20
0.0
 30
0.0
210
0.0
220
0.0
230
1.0
  2
SOLID
 70
1
 71
0
 91
1
 92
3
 72
0
 73
1
 93
4
 10
991.764705882353
 20
297.3529411764706
 10
999.7058823529412
 20
297.3529411764706
 10
999.7058823529412
 20
262.05882352941177
 10
991.764705882353
 20
262.05882352941177
 97
0
 75
1
 76
1
 98
0
  0
LWPOLYLINE
  5
F7
330
17
100
AcDbEntity
  8
WALL
100
AcDbPolyline
 90
4
 70
1
 10
893.8235294117648
 20
283.2352941176471
 10
909.7058823529412
 20
283.2352941176471
 10
909.7058823529412
 20
244.41176470588238
 10
893.8235294117648
 20
244.41176470588238
  0
HATCH
  5
F8
330
17
100
AcDbEntity
  8
WALL
100
AcDbHatch
 10
0.0
 20
0.0
 30
0.0
210
0.0
220
0.0
230
1.0
  2
SOLID
 70
1
 71
0
 91
1
 92
3
 72
0
 73
1
 93
4
 10
893.8235294117648
 20
283.2352941176471
 10
909.7058823529412
 20
283.2352941176471
 10
909.7058823529412
 20
244.41176470588238
 10
893.8235294117648
 20
244.41176470588238
 97
0
 75
1
 76
1
 98
0
  0
LWPOLYLINE
  5
F9
330
17
100
AcDbEntity
  8
WALL
100
AcDbPolyline
 90
4
 70
1
 10
304.4117647058824
 20
262.05882352941177
 10
311.47058823529414
 20
262.05882352941177
 10
311.47058823529414
 20
209.11764705882354
 10
304.4117647058824
 20
209.11764705882354
  0
HATCH
  5
FA
330
17
100
AcDbEntity
  8
WALL
100
AcDbHatch
 10
0.0
 20
0.0
 30
0.0
210
0.0
220
0.0
230
1.0
  2
SOLID
 70
1
 71
0
 91
1
 92
3
 72
0
 73
1
 93
4
 10
304.4117647058824
 20
262.05882352941177
 10
311.47058823529414
 20
262.05882352941177
 10
311.47058823529414
 20
209.11764705882354
 10
304.4117647058824
 20
209.11764705882354
 97
0
 75
1
 76
1
 98
0
  0
LWPOLYLINE
  5
FB
330
17
100
AcDbEntity
  8
WALL
100
AcDbPolyline
 90
4
 70
1
 10
547.9411764705883
 20
260.29411764705884
 10
558.529411764706
 20
260.29411764705884
 10
558.529411764706
 20
96.1764705882353
 10
547.9411764705883
 20
96.1764705882353
  0
HATCH
  5
FC
330
17
100
AcDbEntity
  8
WALL
100
AcDbHatch
 10
0.0
 20
0.0
 30
0.0
210
0.0
220
0.0
230
1.0
  2
SOLID
 70
1
 71
0
 91
1
 92
3
 72
0
 73
1
 93
4
 10
547.9411764705883
 20
260.29411764705884
 10
558.529411764706
 20
260.29411764705884
 10
558.529411764706
 20
96.1764705882353
 10
547.9411764705883
 20
96.1764705882353
 97
0
 75
1
 76
1
 98
0
  0
LWPOLYLINE
  5
FD
330
17
100
AcDbEntity
  8
WALL
100
AcDbPolyline
 90
4
 70
1
 10
562.0588235294118
 20
243.5294117647059
 10
567.3529411764706
 20
243.5294117647059
 10
567.3529411764706
 20
175.58823529411765
 10
562.0588235294118
 20
175.58823529411765
  0
HATCH
  5
FE
330
17
100
AcDbEntity
  8
WALL
100
AcDbHatch
 10
0.0
 20
0.0
 30
0.0
210
0.0
220
0.0
230
1.0
  2
SOLID
 70
1
 71
0
 91
1
 92
3
 72
0
 73
1
 93
4
 10
562.0588235294118
 20
243.5294117647059
 10
567.3529411764706
 20
243.5294117647059
 10
567.3529411764706
 20
175.58823529411765
 10
562.0588235294118
 20
175.58823529411765
 97
0
 75
1
 76
1
 98
0
  0
LWPOLYLINE
  5
FF
330
17
100
AcDbEntity
  8
WALL
100
AcDbPolyline
 90
4
 70
1
 10
18.529411764705884
 20
180.8823529411765
 10
27.35294117647059
 20
180.8823529411765
 10
27.35294117647059
 20
97.94117647058825
 10
18.529411764705884
 20
97.94117647058825
  0
HATCH
  5
100
330
17
100
AcDbEntity
  8
WALL
100
AcDbHatch
 10
0.0
 20
0.0
 30
0.0
210
0.0
220
0.0
230
1.0
  2
SOLID
 70
1
 71
0
 91
1
 92
3
 72
0
 73
1
 93
4
 10
18.529411764705884
 20
180.8823529411765
 10
27.35294117647059
 20
180.8823529411765
 10
27.35294117647059
 20
97.94117647058825
 10
18.529411764705884
 20
97.94117647058825
 97
0
 75
1
 76
1
 98
0
  0
LWPOLYLINE
  5
101
330
17
100
AcDbEntity
  8
WALL
100
AcDbPolyline
 90
4
 70
1
 10
299.11764705882354
 20
181.76470588235296
 10
309.7058823529412
 20
181.76470588235296
 10
309.7058823529412
 20
97.94117647058825
 10
299.11764705882354
 20
97.94117647058825
  0
HATCH
  5
102
330
17
100
AcDbEntity
  8
WALL
100
AcDbHatch
 10
0.0
 20
0.0
 30
0.0
210
0.0
220
0.0
230
1.0
  2
SOLID
 70
1
 71
0
 91
1
 92
3
 72
0
 73
1
 93
4
 10
299.11764705882354
 20
181.76470588235296
 10
309.7058823529412
 20
181.76470588235296
 10
309.7058823529412
 20
97.94117647058825
 10
299.11764705882354
 20
97.94117647058825
 97
0
 75
1
 76
1
 98
0
  0
LWPOLYLINE
  5
103
330
17
100
AcDbEntity
  8
WALL
100
AcDbPolyline
 90
4
 70
1
 10
895.5882352941177
 20
173.82352941176472
 10
909.7058823529412
 20
173.82352941176472
 10
909.7058823529412
 20
120.00000000000001
 10
895.5882352941177
 20
120.00000000000001
  0
HATCH
  5
104
330
17
100
AcDbEntity
  8
WALL
100
AcDbHatch
 10
0.0
 20
0.0
 30
0.0
210
0.0
220
0.0
230
1.0
  2
SOLID
 70
1
 71
0
 91
1
 92
3
 72
0
 73
1
 93
4
 10
895.5882352941177
 20
173.82352941176472
 10
909.7058823529412
 20
173.82352941176472
 10
909.7058823529412
 20
120.00000000000001
 10
895.5882352941177
 20
120.00000000000001
 97
0
 75
1
 76
1
 98
0
  0
LWPOLYLINE
  5
105
330
17
100
AcDbEntity
  8
WALL
100
AcDbPolyline
 90
4
 70
1
 10
567.3529411764706
 20
164.11764705882354
 10
572.6470588235295
 20
164.11764705882354
 10
572.6470588235295
 20
96.1764705882353
 10
567.3529411764706
 20
96.1764705882353
  0
HATCH
  5
106
330
17
100
AcDbEntity
  8
WALL
100
AcDbHatch
 10
0.0
 20
0.0
 30
0.0
210
0.0
220
0.0
230
1.0
  2
SOLID
 70
1
 71
0
 91
1
 92
3
 72
0
 73
1
 93
4
 10
567.3529411764706
 20
164.11764705882354
 10
572.6470588235295
 20
164.11764705882354
 10
572.6470588235295
 20
96.1764705882353
 10
567.3529411764706
 20
96.1764705882353
 97
0
 75
1
 76
1
 98
0
  0
LWPOLYLINE
  5
107
330
17
100
AcDbEntity
  8
WALL
100
AcDbPolyline
 90
4
 70
1
 10
267.3529411764706
 20
160.58823529411765
 10
274.4117647058824
 20
160.58823529411765
 10
274.4117647058824
 20
127.05882352941178
 10
267.3529411764706
 20
127.05882352941178
  0
HATCH
  5
108
330
17
100
AcDbEntity
  8
WALL
100
AcDbHatch
 10
0.0
 20
0.0
 30
0.0
210
0.0
220
0.0
230
1.0
  2
SOLID
 70
1
 71
0
 91
1
 92
3
 72
0
 73
1
 93
4
 10
267.3529411764706
 20
160.58823529411765
 10
274.4117647058824
 20
160.58823529411765
 10
274.4117647058824
 20
127.05882352941178
 10
267.3529411764706
 20
127.05882352941178
 97
0
 75
1
 76
1
 98
0
  0
LWPOLYLINE
  5
109
330
17
100
AcDbEntity
  8
WALL
100
AcDbPolyline
 90
4
 70
1
 10
214.41176470588238
 20
157.94117647058826
 10
223.23529411764707
 20
157.94117647058826
 10
223.23529411764707
 20
97.94117647058825
 10
214.41176470588238
 20
97.94117647058825
  0
HATCH
  5
10A
330
17
100
AcDbEntity
  8
WALL
100
AcDbHatch
 10
0.0
 20
0.0
 30
0.0
210
0.0
220
0.0
230
1.0
  2
SOLID
 70
1
 71
0
 91
1
 92
3
 72
0
 73
1
 93
4
 10
214.41176470588238
 20
157.94117647058826
 10
223.23529411764707
 20
157.94117647058826
 10
223.23529411764707
 20
97.94117647058825
 10
214.41176470588238
 20
97.94117647058825
 97
0
 75
1
 76
1
 98
0
  0
LWPOLYLINE
  5
10B
330
17
100
AcDbEntity
  8
WALL
100
AcDbPolyline
 90
4
 70
1
 10
488.82352941176475
 20
157.05882352941177
 10
495.00000000000006
 20
157.05882352941177
 10
495.00000000000006
 20
110.29411764705884
 10
488.82352941176475
 20
110.29411764705884
  0
HATCH
  5
10C
330
17
100
AcDbEntity
  8
WALL
100
AcDbHatch
 10
0.0
 20
0.0
 30
0.0
210
0.0
220
0.0
230
1.0
  2
SOLID
 70
1
 71
0
 91
1
 92
3
 72
0
 73
1
 93
4
 10
488.82352941176475
 20
157.05882352941177
 10
495.00000000000006
 20
157.05882352941177
 10
495.00000000000006
 20
110.29411764705884
 10
488.82352941176475
 20
110.29411764705884
 97
0
 75
1
 76
1
 98
0
  0
LWPOLYLINE
  5
10D
330
17
100
AcDbEntity
  8
WALL
100
AcDbPolyline
 90
4
 70
1
 10
643.2352941176471
 20
153.52941176470588
 10
648.529411764706
 20
153.52941176470588
 10
648.529411764706
 20
96.1764705882353
 10
643.2352941176471
 20
96.1764705882353
  0
HATCH
  5
10E
330
17
100
AcDbEntity
  8
WALL
100
AcDbHatch
 10
0.0
 20
0.0
 30
0.0
210
0.0
220
0.0
230
1.0
  2
SOLID
 70
1
 71
0
 91
1
 92
3
 72
0
 73
1
 93
4
 10
643.2352941176471
 20
153.52941176470588
 10
648.529411764706
 20
153.52941176470588
 10
648.529411764706
 20
96.1764705882353
 10
643.2352941176471
 20
96.1764705882353
 97
0
 75
1
 76
1
 98
0
  0
LWPOLYLINE
  5
10F
330
17
100
AcDbEntity
  8
WALL
100
AcDbPolyline
 90
4
 70
1
 10
396.1764705882353
 20
148.23529411764707
 10
406.764705882353
 20
148.23529411764707
 10
406.764705882353
 20
120.00000000000001
 10
396.1764705882353
 20
120.00000000000001
  0
HATCH
  5
110
330
17
100
AcDbEntity
  8
WALL
100
AcDbHatch
 10
0.0
 20
0.0
 30
0.0
210
0.0
220
0.0
230
1.0
  2
SOLID
 70
1
 71
0
 91
1
 92
3
 72
0
 73
1
 93
4
 10
396.1764705882353
 20
148.23529411764707
 10
406.764705882353
 20
148.23529411764707
 10
406.764705882353
 20
120.00000000000001
 10
396.1764705882353
 20
120.00000000000001
 97
0
 75
1
 76
1
 98
0
  0
LINE
  5
111
330
17
100
AcDbEntity
  8
WINDOW
100
AcDbLine
 10
299.11764705882354
 20
209.11764705882354
 30
0.0
 11
299.11764705882354
 21
181.76470588235296
 31
0.0
  0
LINE
  5
112
330
17
100
AcDbEntity
  8
WINDOW
100
AcDbLine
 10
303.23529411764713
 20
209.11764705882354
 30
0.0
 11
303.23529411764713
 21
181.76470588235296
 31
0.0
  0
LINE
  5
113
330
17
100
AcDbEntity
  8
WINDOW
100
AcDbLine
 10
307.3529411764706
 20
209.11764705882354
 30
0.0
 11
307.3529411764706
 21
181.76470588235296
 31
0.0
  0
LINE
  5
114
330
17
100
AcDbEntity
  8
WINDOW
100
AcDbLine
 10
311.47058823529414
 20
209.11764705882354
 30
0.0
 11
311.47058823529414
 21
181.76470588235296
 31
0.0
  0
LINE
  5
115
330
17
100
AcDbEntity
  8
WINDOW
100
AcDbLine
 10
299.11764705882354
 20
209.11764705882354
 30
0.0
 11
311.47058823529414
 21
209.11764705882354
 31
0.0
  0
LINE
  5
116
330
17
100
AcDbEntity
  8
WINDOW
100
AcDbLine
 10
299.11764705882354
 20
181.76470588235296
 30
0.0
 11
311.47058823529414
 21
181.76470588235296
 31
0.0
  0
LINE
  5
117
330
17
100
AcDbEntity
  8
WINDOW
100
AcDbLine
 10
856.764705882353
 20
1022.6470588235295
 30
0.0
 11
856.764705882353
 21
1012.0588235294118
 31
0.0
  0
LINE
  5
118
330
17
100
AcDbEntity
  8
WINDOW
100
AcDbLine
 10
859.7058823529413
 20
1022.6470588235295
 30
0.0
 11
859.7058823529413
 21
1012.0588235294118
 31
0.0
  0
LINE
  5
119
330
17
100
AcDbEntity
  8
WINDOW
100
AcDbLine
 10
862.6470588235295
 20
1022.6470588235295
 30
0.0
 11
862.6470588235295
 21
1012.0588235294118
 31
0.0
  0
LINE
  5
11A
330
17
100
AcDbEntity
  8
WINDOW
100
AcDbLine
 10
865.5882352941177
 20
1022.6470588235295
 30
0.0
 11
865.5882352941177
 21
1012.0588235294118
 31
0.0
  0
LINE
  5
11B
330
17
100
AcDbEntity
  8
WINDOW
100
AcDbLine
 10
856.764705882353
 20
1022.6470588235295
 30
0.0
 11
865.5882352941177
 21
1022.6470588235295
 31
0.0
  0
LINE
  5
11C
330
17
100
AcDbEntity
  8
WINDOW
100
AcDbLine
 10
856.764705882353
 20
1012.0588235294118
 30
0.0
 11
865.5882352941177
 21
1012.0588235294118
 31
0.0
  0
LINE
  5
11D
330
17
100
AcDbEntity
  8
WINDOW
100
AcDbLine
 10
866.4705882352941
 20
985.5882352941178
 30
0.0
 11
866.4705882352941
 21
882.3529411764707
 31
0.0
  0
LINE
  5
11E
330
17
100
AcDbEntity
  8
WINDOW
100
AcDbLine
 10
872.3529411764706
 20
985.5882352941178
 30
0.0
 11
872.3529411764706
 21
882.3529411764707
 31
0.0
  0
LINE
  5
11F
330
17
100
AcDbEntity
  8
WINDOW
100
AcDbLine
 10
878.2352941176472
 20
985.5882352941178
 30
0.0
 11
878.2352941176472
 21
882.3529411764707
 31
0.0
  0
LINE
  5
120
330
17
100
AcDbEntity
  8
WINDOW
100
AcDbLine
 10
884.1176470588236
 20
985.5882352941178
 30
0.0
 11
884.1176470588236
 21
882.3529411764707
 31
0.0
  0
LINE
  5
121
330
17
100
AcDbEntity
  8
WINDOW
100
AcDbLine
 10
866.4705882352941
 20
985.5882352941178
 30
0.0
 11
884.1176470588236
 21
985.5882352941178
 31
0.0
  0
LINE
  5
122
330
17
100
AcDbEntity
  8
WINDOW
100
AcDbLine
 10
866.4705882352941
 20
882.3529411764707
 30
0.0
 11
884.1176470588236
 21
882.3529411764707
 31
0.0
  0
LWPOLYLINE
  5
124
330
17
100
AcDbEntity
  8
DOORZONE
100
AcDbPolyline
 90
4
 70
1
 10
726.1764705882354
 20
1101.1764705882354
 10
847.9411764705883
 20
1101.1764705882354
 10
847.9411764705883
 20
857.6470588235295
 10
726.1764705882354
 20
857.6470588235295
  0
LWPOLYLINE
  5
125
330
17
100
AcDbEntity
  8
DOORZONE
100
AcDbPolyline
 90
4
 70
1
 10
394.4117647058824
 20
985.5882352941178
 10
442.0588235294118
 20
985.5882352941178
 10
442.0588235294118
 20
890.2941176470589
 10
394.4117647058824
 20
890.2941176470589
  0
LWPOLYLINE
  5
126
330
17
100
AcDbEntity
  8
DOORZONE
100
AcDbPolyline
 90
4
 70
1
 10
537.3529411764706
 20
1016.4705882352943
 10
615.0000000000001
 20
1016.4705882352943
 10
615.0000000000001
 20
861.1764705882354
 10
537.3529411764706
 20
861.1764705882354
  0
LWPOLYLINE
  5
127
330
17
100
AcDbEntity
  8
DOORZONE
100
AcDbPolyline
 90
4
 70
1
 10
911.4705882352943
 20
996.6176470588236
 10
1041.1764705882354
 20
996.6176470588236
 10
1041.1764705882354
 20
737.2058823529412
 10
911.4705882352943
 20
737.2058823529412
  0
LWPOLYLINE
  5
128
330
17
100
AcDbEntity
  8
DOORZONE
100
AcDbPolyline
 90
4
 70
1
 10
657.3529411764706
 20
912.7941176470589
 10
720.8823529411766
 20
912.7941176470589
 10
720.8823529411766
 20
785.7352941176472
 10
657.3529411764706
 20
785.7352941176472
  0
LWPOLYLINE
  5
129
330
17
100
AcDbEntity
  8
DOORZONE
100
AcDbPolyline
 90
4
 70
1
 10
544.4117647058824
 20
907.0588235294118
 10
615.0000000000001
 20
907.0588235294118
 10
615.0000000000001
 20
765.8823529411766
 10
544.4117647058824
 20
765.8823529411766
  0
LWPOLYLINE
  5
12A
330
17
100
AcDbEntity
  8
DOORZONE
100
AcDbPolyline
 90
4
 70
1
 10
909.7058823529412
 20
831.1764705882354
 10
997.9411764705883
 20
831.1764705882354
 10
997.9411764705883
 20
654.7058823529412
 10
909.7058823529412
 20
654.7058823529412
  0
LWPOLYLINE
  5
12B
330
17
100
AcDbEntity
  8
DOORZONE
100
AcDbPolyline
 90
4
 70
1
 10
544.4117647058824
 20
796.764705882353
 10
646.764705882353
 20
796.764705882353
 10
646.764705882353
 20
592.0588235294118
 10
544.4117647058824
 20
592.0588235294118
  0
LWPOLYLINE
  5
12C
330
17
100
AcDbEntity
  8
DOORZONE
100
AcDbPolyline
 90
4
 70
1
 10
394.4117647058824
 20
767.6470588235295
 10
467.64705882352945
 20
767.6470588235295
 10
467.64705882352945
 20
621.1764705882354
 10
394.4117647058824
 20
621.1764705882354
  0
LWPOLYLINE
  5
12D
330
17
100
AcDbEntity
  8
DOORZONE
100
AcDbPolyline
 90
4
 70
1
 10
937.9411764705883
 20
741.1764705882354
 10
1050.8823529411766
 20
741.1764705882354
 10
1050.8823529411766
 20
515.2941176470589
 10
937.9411764705883
 20
515.2941176470589
  0
LWPOLYLINE
  5
12E
330
17
100
AcDbEntity
  8
DOORZONE
100
AcDbPolyline
 90
4
 70
1
 10
673.2352941176471
 20
616.3235294117648
 10
754.4117647058824
 20
616.3235294117648
 10
754.4117647058824
 20
453.97058823529414
 10
673.2352941176471
 20
453.97058823529414
  0
LWPOLYLINE
  5
12F
330
17
100
AcDbEntity
  8
DOORZONE
100
AcDbPolyline
 90
4
 70
1
 10
454.4117647058824
 20
577.0588235294118
 10
499.4117647058824
 20
577.0588235294118
 10
499.4117647058824
 20
487.0588235294118
 10
454.4117647058824
 20
487.0588235294118
  0
LWPOLYLINE
  5
130
330
17
100
AcDbEntity
  8
DOORZONE
100
AcDbPolyline
 90
4
 70
1
 10
657.3529411764706
 20
439.4117647058824
 10
731.4705882352941
 20
439.4117647058824
 10
731.4705882352941
 20
291.1764705882353
 10
657.3529411764706
 20
291.1764705882353
  0
LWPOLYLINE
  5
131
330
17
100
AcDbEntity
  8
DOORZONE
100
AcDbPolyline
 90
4
 70
1
 10
724.4117647058824
 20
337.0588235294118
 10
793.2352941176472
 20
337.0588235294118
 10
793.2352941176472
 20
199.41176470588238
 10
724.4117647058824
 20
199.41176470588238
  0
LWPOLYLINE
  5
132
330
17
100
AcDbEntity
  8
DOORZONE
100
AcDbPolyline
 90
4
 70
1
 10
413.82352941176475
 20
319.4117647058824
 10
476.47058823529414
 20
319.4117647058824
 10
476.47058823529414
 20
194.11764705882354
 10
413.82352941176475
 20
194.11764705882354
  0
LWPOLYLINE
  5
133
330
17
100
AcDbEntity
  8
DOORZONE
100
AcDbPolyline
 90
4
 70
1
 10
563.8235294117648
 20
330.8823529411765
 10
637.9411764705883
 20
330.8823529411765
 10
637.9411764705883
 20
182.64705882352942
 10
563.8235294117648
 20
182.64705882352942
  0
LWPOLYLINE
  5
134
330
17
100
AcDbEntity
  8
DOORZONE
100
AcDbPolyline
 90
4
 70
1
 10
911.4705882352943
 20
340.14705882352945
 10
997.9411764705883
 20
340.14705882352945
 10
997.9411764705883
 20
167.2058823529412
 10
911.4705882352943
 20
167.2058823529412
  0
LWPOLYLINE
  5
135
330
17
100
AcDbEntity
  8
DOORZONE
100
AcDbPolyline
 90
4
 70
1
 10
406.764705882353
 20
224.11764705882356
 10
488.82352941176475
 20
224.11764705882356
 10
488.82352941176475
 20
60.00000000000001
 10
406.764705882353
 20
60.00000000000001
  0
LWPOLYLINE
  5
136
330
17
100
AcDbEntity
  8
DOORZONE
100
AcDbPolyline
 90
4
 70
1
 10
278.82352941176475
 20
367.9411764705883
 10
278.82352941176475
 20
262.05882352941177
 10
490.5882352941177
 20
262.05882352941177
 10
490.5882352941177
 20
367.9411764705883
  0
LWPOLYLINE
  5
137
330
17
100
AcDbEntity
  8
DOORZONE
100
AcDbPolyline
 90
4
 70
1
 10
732.3529411764706
 20
1024.4117647058824
 10
732.3529411764706
 20
922.0588235294118
 10
937.0588235294118
 20
922.0588235294118
 10
937.0588235294118
 20
1024.4117647058824
  0
LWPOLYLINE
  5
138
330
17
100
AcDbEntity
  8
DOORZONE
100
AcDbPolyline
 90
4
 70
1
 10
991.764705882353
 20
741.1764705882354
 10
991.764705882353
 20
675.8823529411766
 10
1122.3529411764707
 20
675.8823529411766
 10
1122.3529411764707
 20
741.1764705882354
  0
LWPOLYLINE
  5
139
330
17
100
AcDbEntity
  8
DOORZONE
100
AcDbPolyline
 90
4
 70
1
 10
717.3529411764706
 20
489.7058823529412
 10
717.3529411764706
 20
449.1176470588236
 10
798.529411764706
 20
449.1176470588236
 10
798.529411764706
 20
489.7058823529412
  0
LWPOLYLINE
  5
13A
330
17
100
AcDbEntity
  8
DOORZONE
100
AcDbPolyline
 90
4
 70
1
 10
405.4411764705883
 20
577.9411764705883
 10
405.4411764705883
 20
487.9411764705883
 10
585.4411764705883
 20
487.9411764705883
 10
585.4411764705883
 20
577.9411764705883
  0
LWPOLYLINE
  5
13B
330
17
100
AcDbEntity
  8
DOORZONE
100
AcDbPolyline
 90
4
 70
1
 10
761.029411764706
 20
424.4117647058824
 10
761.029411764706
 20
283.2352941176471
 10
1043.3823529411766
 20
283.2352941176471
 10
1043.3823529411766
 20
424.4117647058824
  0
LWPOLYLINE
  5
13C
330
17
100
AcDbEntity
  8
DOORZONE
100
AcDbPolyline
 90
4
 70
1
 10
-68.82352941176471
 20
272.64705882352945
 10
-68.82352941176471
 20
180.8823529411765
 10
114.70588235294119
 20
180.8823529411765
 10
114.70588235294119
 20
272.64705882352945
  0
LWPOLYLINE
  5
13D
330
17
100
AcDbEntity
  8
DOORZONE
100
AcDbPolyline
 90
4
 70
1
 10
499.4117647058824
 20
175.58823529411765
 10
499.4117647058824
 20
110.29411764705884
 10
630.0000000000001
 20
110.29411764705884
 10
630.0000000000001
 20
175.58823529411765
  0
ENDSEC
  0
SECTION
  2
OBJECTS
  0
DICTIONARY
  5
A
330
0
100
AcDbDictionary
281
1
  3
ACAD_COLOR
350
B
  3
ACAD_GROUP
350
C
  3
ACAD_LAYOUT
350
D
  3
ACAD_MATERIAL
350
E
  3
ACAD_MLEADERSTYLE
350
F
  3
ACAD_MLINESTYLE
350
10
  3
ACAD_PLOTSETTINGS
350
11
  3
ACAD_PLOTSTYLENAME
350
12
  3
ACAD_SCALELIST
350
14
  3
ACAD_TABLESTYLE
350
15
  3
ACAD_VISUALSTYLE
350
16
  3
EZDXF_META
350
2D
  0
DICTIONARY
  5
B
330
A
100
AcDbDictionary
281
1
  0
DICTIONARY
  5
C
330
A
100
AcDbDictionary
281
1
  0
DICTIONARY
  5
D
330
A
100
AcDbDictionary
281
1
  3
Model
350
1A
  3
Layout1
350
1E
  0
DICTIONARY
  5
E
330
A
100
AcDbDictionary
281
1
  3
ByBlock
350
1F
  3
ByLayer
350
20
  3
Global
350
21
  0
DICTIONARY
  5
F
330
A
100
AcDbDictionary
281
1
  3
Standard
350
2C
  0
DICTIONARY
  5
10
330
A
100
AcDbDictionary
281
1
  3
Standard
350
22
  0
DICTIONARY
  5
11
330
A
100
AcDbDictionary
281
1
  0
ACDBDICTIONARYWDFLT
  5
12
330
A
100
AcDbDictionary
281
1
  3
Normal
350
13
100
AcDbDictionaryWithDefault
340
13
  0
ACDBPLACEHOLDER
  5
13
330
12
  0
DICTIONARY
  5
14
330
A
100
AcDbDictionary
281
1
  0
DICTIONARY
  5
15
330
A
100
AcDbDictionary
281
1
  0
DICTIONARY
  5
16
330
A
100
AcDbDictionary
281
1
  0
LAYOUT
  5
1A
330
D
100
AcDbPlotSettings
  1

  4
A3
  6

 40
7.5
 41
20.0
 42
7.5
 43
20.0
 44
420.0
 45
297.0
 46
0.0
 47
0.0
 48
0.0
 49
0.0
140
0.0
141
0.0
142
1.0
143
1.0
 70
1024
 72
1
 73
0
 74
5
  7

 75
16
 76
0
 77
2
 78
300
147
1.0
148
0.0
149
0.0
100
AcDbLayout
  1
Model
 70
1
 71
0
 10
0.0
 20
0.0
 11
420.0
 21
297.0
 12
0.0
 22
0.0
 32
0.0
 14
1e+20
 24
1e+20
 34
1e+20
 15
-1e+20
 25
-1e+20
 35
-1e+20
146
0.0
 13
0.0
 23
0.0
 33
0.0
 16
1.0
 26
0.0
 36
0.0
 17
0.0
 27
1.0
 37
0.0
 76
1
330
17
  0
LAYOUT
  5
1E
330
D
100
AcDbPlotSettings
  1

  4
A3
  6

 40
7.5
 41
20.0
 42
7.5
 43
20.0
 44
420.0
 45
297.0
 46
0.0
 47
0.0
 48
0.0
 49
0.0
140
0.0
141
0.0
142
1.0
143
1.0
 70
0
 72
1
 73
0
 74
5
  7

 75
16
 76
0
 77
2
 78
300
147
1.0
148
0.0
149
0.0
100
AcDbLayout
  1
Layout1
 70
1
 71
1
 10
0.0
 20
0.0
 11
420.0
 21
297.0
 12
0.0
 22
0.0
 32
0.0
 14
1e+20
 24
1e+20
 34
1e+20
 15
-1e+20
 25
-1e+20
 35
-1e+20
146
0.0
 13
0.0
 23
0.0
 33
0.0
 16
1.0
 26
0.0
 36
0.0
 17
0.0
 27
1.0
 37
0.0
 76
1
330
1B
  0
MATERIAL
  5
1F
102
{ACAD_REACTORS
330
E
102
}
330
E
100
AcDbMaterial
  1
ByBlock
  2

 70
0
 40
1.0
 71
1
 41
1.0
 91
-1023410177
 42
1.0
 72
1
  3

 73
1
 74
1
 75
1
 44
0.5
 73
0
 45
1.0
 46
1.0
 77
1
  4

 78
1
 79
1
170
1
 48
1.0
171
1
  6

172
1
173
1
174
1
140
1.0
141
1.0
175
1
  7

176
1
177
1
178
1
143
1.0
179
1
  8

270
1
271
1
272
1
145
1.0
146
1.0
273
1
  9

274
1
275
1
276
1
 42
1.0
 72
1
  3

 73
1
 74
1
 75
1
 94
63
  0
MATERIAL
  5
20
102
{ACAD_REACTORS
330
E
102
}
330
E
100
AcDbMaterial
  1
ByLayer
  2

 70
0
 40
1.0
 71
1
 41
1.0
 91
-1023410177
 42
1.0
 72
1
  3

 73
1
 74
1
 75
1
 44
0.5
 73
0
 45
1.0
 46
1.0
 77
1
  4

 78
1
 79
1
170
1
 48
1.0
171
1
  6

172
1
173
1
174
1
140
1.0
141
1.0
175
1
  7

176
1
177
1
178
1
143
1.0
179
1
  8

270
1
271
1
272
1
145
1.0
146
1.0
273
1
  9

274
1
275
1
276
1
 42
1.0
 72
1
  3

 73
1
 74
1
 75
1
 94
63
  0
MATERIAL
  5
21
102
{ACAD_REACTORS
330
E
102
}
330
E
100
AcDbMaterial
  1
Global
  2

 70
0
 40
1.0
 71
1
 41
1.0
 91
-1023410177
 42
1.0
 72
1
  3

 73
1
 74
1
 75
1
 44
0.5
 73
0
 45
1.0
 46
1.0
 77
1
  4

 78
1
 79
1
170
1
 48
1.0
171
1
  6

172
1
173
1
174
1
140
1.0
141
1.0
175
1
  7

176
1
177
1
178
1
143
1.0
179
1
  8

270
1
271
1
272
1
145
1.0
146
1.0
273
1
  9

274
1
275
1
276
1
 42
1.0
 72
1
  3

 73
1
 74
1
 75
1
 94
63
  0
MLINESTYLE
  5
22
102
{ACAD_REACTORS
330
10
102
}
330
10
100
AcDbMlineStyle
  2
Standard
 70
0
  3

 62
256
 51
90.0
 52
90.0
 71
2
 49
0.5
 62
256
  6
BYLAYER
 49
-0.5
 62
256
  6
BYLAYER
  0
MLEADERSTYLE
  5
2C
102
{ACAD_REACTORS
330
F
102
}
330
F
100
AcDbMLeaderStyle
179
2
170
2
171
1
172
0
 90
2
 40
0.0
 41
0.0
173
1
 91
-1056964608
 92
-2
290
1
 42
2.0
291
1
 43
8.0
  3
Standard
 44
4.0
300

342
29
174
1
175
1
176
0
178
1
 93
-1056964608
 45
4.0
292
0
297
0
 46
4.0
 94
-1056964608
 47
1.0
 49
1.0
140
1.0
294
1
141
0.0
177
0
142
1.0
295
0
296
0
143
3.75
271
0
272
9
273
9
  0
DICTIONARY
  5
2D
330
A
100
AcDbDictionary
280
1
281
1
  3
CREATED_BY_EZDXF
350
2E
  3
WRITTEN_BY_EZDXF
350
140
  0
DICTIONARYVAR
  5
2E
330
2D
100
DictionaryVariables
280
0
  1
1.4.4 @ 2026-07-12T08:53:27.738261+00:00
  0
DICTIONARYVAR
  5
140
330
2D
100
DictionaryVariables
280
0
  1
1.4.4 @ 2026-07-12T08:53:27.744438+00:00
  0
ENDSEC
  0
EOF
