<?xml version="1.0" encoding="UTF-8" standalone="no"?>
<svg
   width="2732"
   height="1908"
   viewBox="0 0 2732 1908"
   version="1.1"
   id="svg64"
   sodipodi:docname="model.svg"
   inkscape:version="1.4.4 (dcaf3e7, 2026-05-05)"
   xmlns:inkscape="http://www.inkscape.org/namespaces/inkscape"
   xmlns:sodipodi="http://sodipodi.sourceforge.net/DTD/sodipodi-0.dtd"
   xmlns:xlink="http://www.w3.org/1999/xlink"
   xmlns="http://www.w3.org/2000/svg"
   xmlns:svg="http://www.w3.org/2000/svg">
  <defs
     id="defs64" />
  <sodipodi:namedview
     id="namedview64"
     pagecolor="#ffffff"
     bordercolor="#000000"
     borderopacity="0.25"
     inkscape:showpageshadow="2"
     inkscape:pageopacity="0.0"
     inkscape:pagecheckerboard="0"
     inkscape:deskcolor="#d1d1d1"
     inkscape:zoom="0.42714885"
     inkscape:cx="1479.5779"
     inkscape:cy="750.32392"
     inkscape:window-width="1920"
     inkscape:window-height="1017"
     inkscape:window-x="-8"
     inkscape:window-y="-8"
     inkscape:window-maximized="1"
     inkscape:current-layer="Model"
     showgrid="false" />
  <image
     xlink:href="F1_scaled.png"
     x="0"
     y="0"
     width="2732"
     height="1908"
     id="image1" />
  <g
     id="Model"
     class="Model">
    <g
       id="g32">
      <text
         x="1128"
         y="345"
         font-size="22px"
         text-anchor="middle"
         fill="#000000"
         id="text44">Bath</text>
      <path
         id="rect2"
         style="display:inline;fill:#3dbdbd;fill-opacity:0.35;stroke:#3dbdbd;stroke-width:1.92253"
         d="m 1058.1405,75.21772 h 168.637 V 527.1283 h -168.637 z" />
    </g>
    <g
       id="Wall"
       class="Wall">
      <polygon
         points="218.0,44.0 779.0,44.0 779.0,70.0 218.0,70.0 "
         fill="#cc2222"
         fill-opacity="0.45"
         stroke="#cc2222"
         stroke-width="2"
         id="polygon1" />
    </g>
    <g
       id="g2"
       class="Wall">
      <polygon
         points="958.0,44.0 1371.0,44.0 1371.0,72.0 958.0,72.0 "
         fill="#cc2222"
         fill-opacity="0.45"
         stroke="#cc2222"
         stroke-width="2"
         id="polygon2" />
    </g>
    <g
       id="g3"
       class="Wall">
      <polygon
         points="1606.0,44.0 1739.0,44.0 1739.0,70.0 1606.0,70.0 "
         fill="#cc2222"
         fill-opacity="0.45"
         stroke="#cc2222"
         stroke-width="2"
         id="polygon3" />
    </g>
    <g
       id="g4"
       class="Wall">
      <polygon
         points="582.0,282.0 703.0,282.0 703.0,301.0 582.0,301.0 "
         fill="#cc2222"
         fill-opacity="0.45"
         stroke="#cc2222"
         stroke-width="2"
         id="polygon4" />
    </g>
    <g
       id="g5"
       class="Wall">
      <polygon
         points="218.0,528.0 473.0,528.0 473.0,547.0 218.0,547.0 "
         fill="#cc2222"
         fill-opacity="0.45"
         stroke="#cc2222"
         stroke-width="2"
         id="polygon5" />
    </g>
    <g
       id="g6"
       class="Wall">
      <polygon
         points="563.0,528.0 913.0,528.0 913.0,547.0 563.0,547.0 "
         fill="#cc2222"
         fill-opacity="0.45"
         stroke="#cc2222"
         stroke-width="2"
         id="polygon6" />
    </g>
    <g
       id="g7"
       class="Wall">
      <polygon
         points="1003.0,528.0 1140.0,528.0 1140.0,547.0 1003.0,547.0 "
         fill="#cc2222"
         fill-opacity="0.45"
         stroke="#cc2222"
         stroke-width="2"
         id="polygon7" />
    </g>
    <g
       id="g8"
       class="Wall">
      <polygon
         points="1366.0,528.0 1573.0,528.0 1573.0,547.0 1366.0,547.0 "
         fill="#cc2222"
         fill-opacity="0.45"
         stroke="#cc2222"
         stroke-width="2"
         id="polygon8" />
    </g>
    <g
       id="g9"
       class="Wall">
      <polygon
         points="1642.0,528.0 1739.0,528.0 1739.0,547.0 1642.0,547.0 "
         fill="#cc2222"
         fill-opacity="0.45"
         stroke="#cc2222"
         stroke-width="2"
         id="polygon9" />
    </g>
    <g
       id="g10"
       class="Wall">
      <polygon
         points="1479.0,801.0 1739.0,801.0 1739.0,819.0 1479.0,819.0 "
         fill="#cc2222"
         fill-opacity="0.45"
         stroke="#cc2222"
         stroke-width="2"
         id="polygon10" />
    </g>
    <g
       id="g11"
       class="Wall">
      <polygon
         points="1479.0,1068.0 1541.0,1068.0 1541.0,1087.0 1479.0,1087.0 "
         fill="#cc2222"
         fill-opacity="0.45"
         stroke="#cc2222"
         stroke-width="2"
         id="polygon11" />
    </g>
    <g
       id="g12"
       class="Wall">
      <polygon
         points="1687.0,1068.0 1739.0,1068.0 1739.0,1087.0 1687.0,1087.0 "
         fill="#cc2222"
         fill-opacity="0.45"
         stroke="#cc2222"
         stroke-width="2"
         id="polygon12" />
    </g>
    <g
       id="g13"
       class="Wall">
      <polygon
         points="218.0,1156.0 433.0,1156.0 433.0,1182.0 218.0,1182.0 "
         fill="#cc2222"
         fill-opacity="0.45"
         stroke="#cc2222"
         stroke-width="2"
         id="polygon13" />
    </g>
    <g
       id="g14"
       class="Wall">
      <polygon
         points="573.0,1156.0 716.0,1156.0 716.0,1182.0 573.0,1182.0 "
         fill="#cc2222"
         fill-opacity="0.45"
         stroke="#cc2222"
         stroke-width="2"
         id="polygon14" />
    </g>
    <g
       id="g15"
       class="Wall">
      <polygon
         points="825.0,1156.0 908.0,1156.0 908.0,1182.0 825.0,1182.0 "
         fill="#cc2222"
         fill-opacity="0.45"
         stroke="#cc2222"
         stroke-width="2"
         id="polygon15" />
    </g>
    <g
       id="g16"
       class="Wall">
      <polygon
         points="1048.0,1156.0 1270.0,1156.0 1270.0,1182.0 1048.0,1182.0 "
         fill="#cc2222"
         fill-opacity="0.45"
         stroke="#cc2222"
         stroke-width="2"
         id="polygon16" />
    </g>
    <g
       id="g17"
       class="Wall">
      <polygon
         points="1391.0,1156.0 1739.0,1156.0 1739.0,1182.0 1391.0,1182.0 "
         fill="#cc2222"
         fill-opacity="0.45"
         stroke="#cc2222"
         stroke-width="2"
         id="polygon17" />
    </g>
    <g
       id="g18"
       class="Wall">
      <polygon
         points="218.0,44.0 243.0,44.0 243.0,112.0 218.0,112.0 "
         fill="#cc2222"
         fill-opacity="0.45"
         stroke="#cc2222"
         stroke-width="2"
         id="polygon18" />
    </g>
    <g
       id="g19"
       class="Wall">
      <polygon
         points="582.0,44.0 601.0,44.0 601.0,114.0 582.0,114.0 "
         fill="#cc2222"
         fill-opacity="0.45"
         stroke="#cc2222"
         stroke-width="2"
         id="polygon19" />
    </g>
    <g
       id="g20"
       class="Wall">
      <polygon
         points="684.0,44.0 703.0,44.0 703.0,348.0 684.0,348.0 "
         fill="#cc2222"
         fill-opacity="0.45"
         stroke="#cc2222"
         stroke-width="2"
         id="polygon20" />
    </g>
    <g
       id="g21"
       class="Wall">
      <polygon
         points="1036.0,44.0 1055.0,44.0 1055.0,547.0 1036.0,547.0 "
         fill="#cc2222"
         fill-opacity="0.45"
         stroke="#cc2222"
         stroke-width="2"
         id="polygon21" />
    </g>
    <g
       id="g22"
       class="Wall">
      <polygon
         points="1230.0,44.0 1249.0,44.0 1249.0,547.0 1230.0,547.0 "
         fill="#cc2222"
         fill-opacity="0.45"
         stroke="#cc2222"
         stroke-width="2"
         id="polygon22" />
    </g>
    <g
       id="g23"
       class="Wall">
      <polygon
         points="1714.0,44.0 1739.0,44.0 1739.0,109.0 1714.0,109.0 "
         fill="#cc2222"
         fill-opacity="0.45"
         stroke="#cc2222"
         stroke-width="2"
         id="polygon23" />
    </g>
    <g
       id="g24"
       class="Wall">
      <polygon
         points="582.0,252.0 601.0,252.0 601.0,547.0 582.0,547.0 "
         fill="#cc2222"
         fill-opacity="0.45"
         stroke="#cc2222"
         stroke-width="2"
         id="polygon24" />
    </g>
    <g
       id="g25"
       class="Wall">
      <polygon
         points="1714.0,467.0 1739.0,467.0 1739.0,933.0 1714.0,933.0 "
         fill="#cc2222"
         fill-opacity="0.45"
         stroke="#cc2222"
         stroke-width="2"
         id="polygon25" />
    </g>
    <g
       id="g26"
       class="Wall">
      <polygon
         points="218.0,470.0 243.0,470.0 243.0,682.0 218.0,682.0 "
         fill="#cc2222"
         fill-opacity="0.45"
         stroke="#cc2222"
         stroke-width="2"
         id="polygon26" />
    </g>
    <g
       id="g27"
       class="Wall">
      <polygon
         points="684.0,487.0 703.0,487.0 703.0,547.0 684.0,547.0 "
         fill="#cc2222"
         fill-opacity="0.45"
         stroke="#cc2222"
         stroke-width="2"
         id="polygon27" />
    </g>
    <g
       id="g28"
       class="Wall">
      <polygon
         points="1479.0,528.0 1498.0,528.0 1498.0,954.0 1479.0,954.0 "
         fill="#cc2222"
         fill-opacity="0.45"
         stroke="#cc2222"
         stroke-width="2"
         id="polygon28" />
    </g>
    <g
       id="g29"
       class="Wall">
      <polygon
         points="1714.0,1036.0 1739.0,1036.0 1739.0,1182.0 1714.0,1182.0 "
         fill="#cc2222"
         fill-opacity="0.45"
         stroke="#cc2222"
         stroke-width="2"
         id="polygon29" />
    </g>
    <g
       id="g30"
       class="Wall">
      <polygon
         points="218.0,1039.0 243.0,1039.0 243.0,1182.0 218.0,1182.0 "
         fill="#cc2222"
         fill-opacity="0.45"
         stroke="#cc2222"
         stroke-width="2"
         id="polygon30" />
    </g>
    <g
       id="g31"
       class="Wall">
      <polygon
         points="1479.0,1045.0 1498.0,1045.0 1498.0,1182.0 1479.0,1182.0 "
         fill="#cc2222"
         fill-opacity="0.45"
         stroke="#cc2222"
         stroke-width="2"
         id="polygon31" />
    </g>
    <g
       id="Window"
       class="Window">
      <polygon
         points="779.0,44.0 958.0,44.0 958.0,72.0 779.0,72.0 "
         fill="#22aa22"
         fill-opacity="0.6"
         stroke="#22aa22"
         stroke-width="2"
         id="polygon32" />
    </g>
    <g
       id="g33"
       class="Window">
      <polygon
         points="1371.0,44.0 1606.0,44.0 1606.0,72.0 1371.0,72.0 "
         fill="#22aa22"
         fill-opacity="0.6"
         stroke="#22aa22"
         stroke-width="2"
         id="polygon33" />
    </g>
    <g
       id="g34"
       class="Window">
      <polygon
         points="433.0,1156.0 573.0,1156.0 573.0,1182.0 433.0,1182.0 "
         fill="#22aa22"
         fill-opacity="0.6"
         stroke="#22aa22"
         stroke-width="2"
         id="polygon34" />
    </g>
    <g
       id="g35"
       class="Window">
      <polygon
         points="908.0,1156.0 1048.0,1156.0 1048.0,1182.0 908.0,1182.0 "
         fill="#22aa22"
         fill-opacity="0.6"
         stroke="#22aa22"
         stroke-width="2"
         id="polygon35" />
    </g>
    <g
       id="g36"
       class="Window">
      <polygon
         points="1270.0,1156.0 1391.0,1156.0 1391.0,1182.0 1270.0,1182.0 "
         fill="#22aa22"
         fill-opacity="0.6"
         stroke="#22aa22"
         stroke-width="2"
         id="polygon36" />
    </g>
    <g
       id="g37"
       class="Window">
      <polygon
         points="218.0,112.0 243.0,112.0 243.0,470.0 218.0,470.0 "
         fill="#22aa22"
         fill-opacity="0.6"
         stroke="#22aa22"
         stroke-width="2"
         id="polygon37" />
    </g>
    <g
       id="g38"
       class="Window">
      <polygon
         points="218.0,682.0 243.0,682.0 243.0,1039.0 218.0,1039.0 "
         fill="#22aa22"
         fill-opacity="0.6"
         stroke="#22aa22"
         stroke-width="2"
         id="polygon38" />
    </g>
    <g
       id="g39"
       class="Window">
      <polygon
         points="1714.0,109.0 1739.0,109.0 1739.0,467.0 1714.0,467.0 "
         fill="#22aa22"
         fill-opacity="0.6"
         stroke="#22aa22"
         stroke-width="2"
         id="polygon39" />
    </g>
    <g
       id="Door"
       class="Door"
       transform="translate(2,-10)">
      <polygon
         points="825,1278 716,1278 716,1060 825,1060 "
         fill="#ddaa00"
         fill-opacity="0.6"
         stroke="#ddaa00"
         stroke-width="2"
         id="polygon40" />
    </g>
    <g
       id="Door-6"
       class="Door"
       transform="translate(538.42209,-632.95215)"
       inkscape:label="Door-5">
      <polygon
         points="716,1278 716,1060 825,1060 825,1278 "
         fill="#ddaa00"
         fill-opacity="0.6"
         stroke="#ddaa00"
         stroke-width="2"
         id="polygon40-1"
         inkscape:label="polygon40-5" />
    </g>
    <g
       id="Door-5"
       class="Door"
       transform="matrix(0.80953074,0,0,0.88328735,557.38723,-488.56905)"
       inkscape:label="Door-4">
      <polygon
         points="716,1060 825,1060 825,1278 716,1278 "
         fill="#ddaa00"
         fill-opacity="0.6"
         stroke="#ddaa00"
         stroke-width="2"
         id="polygon40-2"
         inkscape:label="polygon40-4" />
    </g>
    <g
       id="Door-9"
       class="Door"
       transform="matrix(0.9157404,0,0,0.90417515,-188.37491,-520.00161)"
       inkscape:label="Door-3">
      <polygon
         points="716,1060 825,1060 825,1278 716,1278 "
         fill="#ddaa00"
         fill-opacity="0.6"
         stroke="#ddaa00"
         stroke-width="2"
         id="polygon40-4"
         inkscape:label="polygon40-3" />
    </g>
    <g
       id="Door-9-8"
       class="Door"
       transform="matrix(0.91613641,0,0,0.86141464,251.73312,-475.62769)"
       inkscape:label="Door-2">
      <polygon
         points="825,1060 825,1278 716,1278 716,1060 "
         fill="#ddaa00"
         fill-opacity="0.6"
         stroke="#ddaa00"
         stroke-width="2"
         id="polygon40-4-2"
         inkscape:label="polygon40-2" />
    </g>
    <g
       id="g41"
       class="Door">
      <polygon
         points="1623.5,933.0 1623.5,1036.0 1829.5,1036.0 1829.5,933.0 "
         fill="#ddaa00"
         fill-opacity="0.6"
         stroke="#ddaa00"
         stroke-width="2"
         id="polygon41" />
    </g>
    <g
       class="Space Bedroom"
       id="g42">
      <polygon
         points="244.0,71.0 244.0,527.0 581.0,527.0 581.0,71.0 "
         fill="#4a90d9"
         fill-opacity="0.35"
         stroke="#4a90d9"
         stroke-width="2"
         id="polygon42" />
      <text
         x="412"
         y="299"
         font-size="22"
         text-anchor="middle"
         fill="#000000"
         id="text42">Bedroom</text>
    </g>
    <g
       class="Space Bedroom"
       id="g43">
      <polygon
         points="704.0,73.0 704.0,527.0 1035.0,527.0 1035.0,73.0 "
         fill="#4a90d9"
         fill-opacity="0.35"
         stroke="#4a90d9"
         stroke-width="2"
         id="polygon43" />
      <text
         x="870"
         y="300"
         font-size="22"
         text-anchor="middle"
         fill="#000000"
         id="text43">Bedroom</text>
    </g>
    <g
       class="Space Storage"
       id="g47">
      <polygon
         points="1499.0,548.0 1499.0,800.0 1713.0,800.0 1713.0,548.0 "
         fill="#b8a06a"
         fill-opacity="0.35"
         stroke="#b8a06a"
         stroke-width="2"
         id="polygon47" />
      <text
         x="1606"
         y="674"
         font-size="22"
         text-anchor="middle"
         fill="#000000"
         id="text47">Storage</text>
    </g>
    <g
       class="Space Kitchen"
       id="g48">
      <polygon
         points="1499.0,820.0 1499.0,1067.0 1713.0,1067.0 1713.0,820.0 "
         fill="#e8843c"
         fill-opacity="0.35"
         stroke="#e8843c"
         stroke-width="2"
         id="polygon48" />
      <text
         x="1606"
         y="944"
         font-size="22"
         text-anchor="middle"
         fill="#000000"
         id="text48"
         style="-inkscape-font-specification:'sans-serif, Normal';font-family:sans-serif;font-weight:normal;font-style:normal;font-stretch:normal;font-variant:normal;font-size:22px;font-variant-ligatures:normal;font-variant-caps:normal;font-variant-numeric:normal;font-variant-east-asian:normal;text-anchor:middle;fill:#000000"><tspan
           sodipodi:role="line"
           id="tspan64">WashRoom</tspan></text>
    </g>
    <g
       id="Door-2"
       class="Door"
       transform="matrix(0.68318571,0,0,0.73452894,1081.1116,-321.49255)"
       inkscape:label="Door-6">
      <polygon
         points="825,1278 716,1278 716,1060 825,1060 "
         fill="#ddaa00"
         fill-opacity="0.6"
         stroke="#ddaa00"
         stroke-width="2"
         id="polygon40-3"
         inkscape:label="polygon40-6" />
    </g>
    <g
       id="g40">
      <text
         x="1476.9767"
         y="299.37302"
         font-size="22px"
         text-anchor="middle"
         fill="#000000"
         id="text45"
         inkscape:label="text40">Bedroom</text>
      <path
         id="rect1"
         style="fill:#4a90d9;fill-opacity:0.35;stroke:#4a90d9;stroke-width:1.9698"
         d="m 1250.1346,74.900215 h 458.8867 V 524.42243 h -458.8867 z"
         inkscape:label="rect40" />
    </g>
    <g
       id="g44"
       transform="matrix(0.66104521,0,0,1.000613,-621.43955,-682.96882)"
       inkscape:label="g46">
      <path
         id="rect40"
         style="fill:#7dc37d;fill-opacity:0.35;stroke:#7dc37d;stroke-width:2"
         d="m 1314.3961,1228.3147 h 1228.3147 v 609.1912 H 1314.3961 Z"
         inkscape:label="rect46" />
      <text
         x="1758.2952"
         y="1728.297"
         font-size="38.3944px"
         text-anchor="middle"
         fill="#000000"
         id="text46"
         transform="scale(1.1140033,0.89766342)"
         style="stroke-width:1.74519">LivingRoom</text>
    </g>
    <g
       id="g44-9"
       transform="matrix(0.33547792,0,0,1.0013801,623.98253,-681.42164)"
       inkscape:label="g44">
      <path
         id="rect40-4"
         style="fill:#e8823b;fill-opacity:0.34999999;stroke:#e8823b;stroke-width:2;stroke-opacity:1"
         d="m 1314.3961,1228.3147 h 1228.3147 v 609.1912 H 1314.3961 Z"
         inkscape:label="rect44" />
      <text
         x="1191.0012"
         y="2393.7607"
         font-size="53.4044px"
         text-anchor="middle"
         fill="#000000"
         id="text46-8"
         transform="scale(1.5499443,0.64518446)"
         style="stroke-width:2.42747;-inkscape-font-specification:'sans-serif, Normal';font-family:sans-serif;font-weight:normal;font-style:normal;font-stretch:normal;font-variant:normal;font-size:53.4044px;font-variant-ligatures:normal;font-variant-caps:normal;font-variant-numeric:normal;font-variant-east-asian:normal;text-anchor:middle;fill:#000000"
         inkscape:label="text44"><tspan
           sodipodi:role="line"
           id="tspan1">Kitchen</tspan></text>
    </g>
  </g>
</svg>
