  0
SECTION
  2
HEADER
  9
$ACADVER
  1
AC1024
  9
$ACADMAINTVER
 70
6
  9
$DWGCODEPAGE
  3
ANSI_1252
  9
$LASTSAVEDBY
  1
ezdxf
  9
$INSBASE
 10
0.0
 20
0.0
 30
0.0
  9
$EXTMIN
 10
1e+20
 20
1e+20
 30
1e+20
  9
$EXTMAX
 10
-1e+20
 20
-1e+20
 30
-1e+20
  9
$LIMMIN
 10
0.0
 20
0.0
  9
$LIMMAX
 10
420.0
 20
297.0
  9
$ORTHOMODE
 70
0
  9
$REGENMODE
 70
1
  9
$FILLMODE
 70
1
  9
$QTEXTMODE
 70
0
  9
$MIRRTEXT
 70
1
  9
$LTSCALE
 40
1.0
  9
$ATTMODE
 70
1
  9
$TEXTSIZE
 40
2.5
  9
$TRACEWID
 40
1.0
  9
$TEXTSTYLE
  7
Standard
  9
$CLAYER
  8
0
  9
$CELTYPE
  6
ByLayer
  9
$CECOLOR
 62
256
  9
$CELTSCALE
 40
1.0
  9
$DISPSILH
 70
0
  9
$DIMSCALE
 40
1.0
  9
$DIMASZ
 40
2.5
  9
$DIMEXO
 40
0.625
  9
$DIMDLI
 40
3.75
  9
$DIMRND
 40
0.0
  9
$DIMDLE
 40
0.0
  9
$DIMEXE
 40
1.25
  9
$DIMTP
 40
0.0
  9
$DIMTM
 40
0.0
  9
$DIMTXT
 40
2.5
  9
$DIMCEN
 40
2.5
  9
$DIMTSZ
 40
0.0
  9
$DIMTOL
 70
0
  9
$DIMLIM
 70
0
  9
$DIMTIH
 70
0
  9
$DIMTOH
 70
0
  9
$DIMSE1
 70
0
  9
$DIMSE2
 70
0
  9
$DIMTAD
 70
1
  9
$DIMZIN
 70
8
  9
$DIMBLK
  1

  9
$DIMASO
 70
1
  9
$DIMSHO
 70
1
  9
$DIMPOST
  1

  9
$DIMAPOST
  1

  9
$DIMALT
 70
0
  9
$DIMALTD
 70
3
  9
$DIMALTF
 40
0.03937007874
  9
$DIMLFAC
 40
1.0
  9
$DIMTOFL
 70
1
  9
$DIMTVP
 40
0.0
  9
$DIMTIX
 70
0
  9
$DIMSOXD
 70
0
  9
$DIMSAH
 70
0
  9
$DIMBLK1
  1

  9
$DIMBLK2
  1

  9
$DIMSTYLE
  2
ISO-25
  9
$DIMCLRD
 70
0
  9
$DIMCLRE
 70
0
  9
$DIMCLRT
 70
0
  9
$DIMTFAC
 40
1.0
  9
$DIMGAP
 40
0.625
  9
$DIMJUST
 70
0
  9
$DIMSD1
 70
0
  9
$DIMSD2
 70
0
  9
$DIMTOLJ
 70
0
  9
$DIMTZIN
 70
8
  9
$DIMALTZ
 70
0
  9
$DIMALTTZ
 70
0
  9
$DIMUPT
 70
0
  9
$DIMDEC
 70
2
  9
$DIMTDEC
 70
2
  9
$DIMALTU
 70
2
  9
$DIMALTTD
 70
3
  9
$DIMTXSTY
  7
Standard
  9
$DIMAUNIT
 70
0
  9
$DIMADEC
 70
0
  9
$DIMALTRND
 40
0.0
  9
$DIMAZIN
 70
0
  9
$DIMDSEP
 70
44
  9
$DIMATFIT
 70
3
  9
$DIMFRAC
 70
0
  9
$DIMLDRBLK
  1

  9
$DIMLUNIT
 70
2
  9
$DIMLWD
 70
-2
  9
$DIMLWE
 70
-2
  9
$DIMTMOVE
 70
0
  9
$DIMFXL
 40
1.0
  9
$DIMFXLON
 70
0
  9
$DIMJOGANG
 40
0.785398163397
  9
$DIMTFILL
 70
0
  9
$DIMTFILLCLR
 70
0
  9
$DIMARCSYM
 70
0
  9
$DIMLTYPE
  6

  9
$DIMLTEX1
  6

  9
$DIMLTEX2
  6

  9
$DIMTXTDIRECTION
 70
0
  9
$LUNITS
 70
2
  9
$LUPREC
 70
4
  9
$SKETCHINC
 40
1.0
  9
$FILLETRAD
 40
10.0
  9
$AUNITS
 70
0
  9
$AUPREC
 70
2
  9
$MENU
  1
.
  9
$ELEVATION
 40
0.0
  9
$PELEVATION
 40
0.0
  9
$THICKNESS
 40
0.0
  9
$LIMCHECK
 70
0
  9
$CHAMFERA
 40
0.0
  9
$CHAMFERB
 40
0.0
  9
$CHAMFERC
 40
0.0
  9
$CHAMFERD
 40
0.0
  9
$SKPOLY
 70
0
  9
$TDCREATE
 40
2461235.735324074
  9
$TDUCREATE
 40
2458532.153996898
  9
$TDUPDATE
 40
2461235.735324074
  9
$TDUUPDATE
 40
2458532.1544311
  9
$TDINDWG
 40
0.0
  9
$TDUSRTIMER
 40
0.0
  9
$USRTIMER
 70
1
  9
$ANGBASE
 50
0.0
  9
$ANGDIR
 70
0
  9
$PDMODE
 70
0
  9
$PDSIZE
 40
0.0
  9
$PLINEWID
 40
0.0
  9
$SPLFRAME
 70
0
  9
$SPLINETYPE
 70
6
  9
$SPLINESEGS
 70
8
  9
$HANDSEED
  5
27F
  9
$SURFTAB1
 70
6
  9
$SURFTAB2
 70
6
  9
$SURFTYPE
 70
6
  9
$SURFU
 70
6
  9
$SURFV
 70
6
  9
$UCSBASE
  2

  9
$UCSNAME
  2

  9
$UCSORG
 10
0.0
 20
0.0
 30
0.0
  9
$UCSXDIR
 10
1.0
 20
0.0
 30
0.0
  9
$UCSYDIR
 10
0.0
 20
1.0
 30
0.0
  9
$UCSORTHOREF
  2

  9
$UCSORTHOVIEW
 70
0
  9
$UCSORGTOP
 10
0.0
 20
0.0
 30
0.0
  9
$UCSORGBOTTOM
 10
0.0
 20
0.0
 30
0.0
  9
$UCSORGLEFT
 10
0.0
 20
0.0
 30
0.0
  9
$UCSORGRIGHT
 10
0.0
 20
0.0
 30
0.0
  9
$UCSORGFRONT
 10
0.0
 20
0.0
 30
0.0
  9
$UCSORGBACK
 10
0.0
 20
0.0
 30
0.0
  9
$PUCSBASE
  2

  9
$PUCSNAME
  2

  9
$PUCSORG
 10
0.0
 20
0.0
 30
0.0
  9
$PUCSXDIR
 10
1.0
 20
0.0
 30
0.0
  9
$PUCSYDIR
 10
0.0
 20
1.0
 30
0.0
  9
$PUCSORTHOREF
  2

  9
$PUCSORTHOVIEW
 70
0
  9
$PUCSORGTOP
 10
0.0
 20
0.0
 30
0.0
  9
$PUCSORGBOTTOM
 10
0.0
 20
0.0
 30
0.0
  9
$PUCSORGLEFT
 10
0.0
 20
0.0
 30
0.0
  9
$PUCSORGRIGHT
 10
0.0
 20
0.0
 30
0.0
  9
$PUCSORGFRONT
 10
0.0
 20
0.0
 30
0.0
  9
$PUCSORGBACK
 10
0.0
 20
0.0
 30
0.0
  9
$USERI1
 70
0
  9
$USERI2
 70
0
  9
$USERI3
 70
0
  9
$USERI4
 70
0
  9
$USERI5
 70
0
  9
$USERR1
 40
0.0
  9
$USERR2
 40
0.0
  9
$USERR3
 40
0.0
  9
$USERR4
 40
0.0
  9
$USERR5
 40
0.0
  9
$WORLDVIEW
 70
1
  9
$SHADEDGE
 70
3
  9
$SHADEDIF
 70
70
  9
$TILEMODE
 70
1
  9
$MAXACTVP
 70
64
  9
$PINSBASE
 10
0.0
 20
0.0
 30
0.0
  9
$PLIMCHECK
 70
0
  9
$PEXTMIN
 10
1e+20
 20
1e+20
 30
1e+20
  9
$PEXTMAX
 10
-1e+20
 20
-1e+20
 30
-1e+20
  9
$PLIMMIN
 10
0.0
 20
0.0
  9
$PLIMMAX
 10
420.0
 20
297.0
  9
$UNITMODE
 70
0
  9
$VISRETAIN
 70
1
  9
$PLINEGEN
 70
0
  9
$PSLTSCALE
 70
1
  9
$TREEDEPTH
 70
3020
  9
$CMLSTYLE
  2
Standard
  9
$CMLJUST
 70
0
  9
$CMLSCALE
 40
20.0
  9
$PROXYGRAPHICS
 70
1
  9
$MEASUREMENT
 70
1
  9
$CELWEIGHT
370
-1
  9
$ENDCAPS
280
0
  9
$JOINSTYLE
280
0
  9
$LWDISPLAY
290
0
  9
$INSUNITS
 70
5
  9
$HYPERLINKBASE
  1

  9
$STYLESHEET
  1

  9
$XEDIT
290
1
  9
$CEPSNTYPE
380
0
  9
$PSTYLEMODE
290
1
  9
$FINGERPRINTGUID
  2
{B110704D-333D-4C90-890B-498BCB83F812}
  9
$VERSIONGUID
  2
{27A97CED-425B-4EE3-8366-800BCBA0793F}
  9
$EXTNAMES
290
1
  9
$PSVPSCALE
 40
0.0
  9
$OLESTARTUP
290
0
  9
$SORTENTS
280
127
  9
$INDEXCTL
280
0
  9
$HIDETEXT
280
1
  9
$XCLIPFRAME
280
1
  9
$HALOGAP
280
0
  9
$OBSCOLOR
 70
257
  9
$OBSLTYPE
280
0
  9
$INTERSECTIONDISPLAY
280
0
  9
$INTERSECTIONCOLOR
 70
257
  9
$DIMASSOC
280
2
  9
$PROJECTNAME
  1

  9
$CAMERADISPLAY
290
0
  9
$LENSLENGTH
 40
50.0
  9
$CAMERAHEIGHT
 40
0.0
  9
$STEPSPERSEC
 40
24.0
  9
$STEPSIZE
 40
100.0
  9
$3DDWFPREC
 40
2.0
  9
$PSOLWIDTH
 40
0.005
  9
$PSOLHEIGHT
 40
0.08
  9
$LOFTANG1
 40
1.570796326795
  9
$LOFTANG2
 40
1.570796326795
  9
$LOFTMAG1
 40
0.0
  9
$LOFTMAG2
 40
0.0
  9
$LOFTPARAM
 70
7
  9
$LOFTNORMALS
280
1
  9
$LATITUDE
 40
37.795
  9
$LONGITUDE
 40
-122.394
  9
$NORTHDIRECTION
 40
0.0
  9
$TIMEZONE
 70
-8000
  9
$LIGHTGLYPHDISPLAY
280
1
  9
$TILEMODELIGHTSYNCH
280
1
  9
$CMATERIAL
347
20
  9
$SOLIDHIST
280
0
  9
$SHOWHIST
280
1
  9
$DWFFRAME
280
2
  9
$DGNFRAME
280
2
  9
$REALWORLDSCALE
290
1
  9
$INTERFERECOLOR
 62
256
  9
$CSHADOW
280
0
  9
$SHADOWPLANELOCATION
 40
0.0
  0
ENDSEC
  0
SECTION
  2
CLASSES
  0
CLASS
  1
ACDBDICTIONARYWDFLT
  2
AcDbDictionaryWithDefault
  3
ObjectDBX Classes
 90
0
 91
0
280
0
281
0
  0
CLASS
  1
SUN
  2
AcDbSun
  3
SCENEOE
 90
1153
 91
0
280
0
281
0
  0
CLASS
  1
VISUALSTYLE
  2
AcDbVisualStyle
  3
ObjectDBX Classes
 90
4095
 91
0
280
0
281
0
  0
CLASS
  1
MATERIAL
  2
AcDbMaterial
  3
ObjectDBX Classes
 90
1153
 91
0
280
0
281
0
  0
CLASS
  1
SCALE
  2
AcDbScale
  3
ObjectDBX Classes
 90
1153
 91
0
280
0
281
0
  0
CLASS
  1
TABLESTYLE
  2
AcDbTableStyle
  3
ObjectDBX Classes
 90
4095
 91
0
280
0
281
0
  0
CLASS
  1
MLEADERSTYLE
  2
AcDbMLeaderStyle
  3
ACDB_MLEADERSTYLE_CLASS
 90
4095
 91
0
280
0
281
0
  0
CLASS
  1
DICTIONARYVAR
  2
AcDbDictionaryVar
  3
ObjectDBX Classes
 90
0
 91
0
280
0
281
0
  0
CLASS
  1
CELLSTYLEMAP
  2
AcDbCellStyleMap
  3
ObjectDBX Classes
 90
1152
 91
0
280
0
281
0
  0
CLASS
  1
MENTALRAYRENDERSETTINGS
  2
AcDbMentalRayRenderSettings
  3
SCENEOE
 90
1024
 91
0
280
0
281
0
  0
CLASS
  1
ACDBDETAILVIEWSTYLE
  2
AcDbDetailViewStyle
  3
ObjectDBX Classes
 90
1025
 91
0
280
0
281
0
  0
CLASS
  1
ACDBSECTIONVIEWSTYLE
  2
AcDbSectionViewStyle
  3
ObjectDBX Classes
 90
1025
 91
0
280
0
281
0
  0
CLASS
  1
RASTERVARIABLES
  2
AcDbRasterVariables
  3
ISM
 90
0
 91
0
280
0
281
0
  0
CLASS
  1
LAYOUT
  2
AcDbLayout
  3
ObjectDBX Classes
 90
0
 91
0
280
0
281
0
  0
CLASS
  1
ACDBPLACEHOLDER
  2
AcDbPlaceHolder
  3
ObjectDBX Classes
 90
0
 91
0
280
0
281
0
  0
ENDSEC
  0
SECTION
  2
TABLES
  0
TABLE
  2
VPORT
  5
8
330
0
100
AcDbSymbolTable
 70
1
  0
VPORT
  5
23
330
8
100
AcDbSymbolTableRecord
100
AcDbViewportTableRecord
  2
*Active
 70
0
 10
0.0
 20
0.0
 11
1.0
 21
1.0
 12
0.0
 22
0.0
 13
0.0
 23
0.0
 14
0.5
 24
0.5
 15
0.5
 25
0.5
 16
0.0
 26
0.0
 36
1.0
 17
0.0
 27
0.0
 37
0.0
 40
1000.0
 41
1.34
 42
50.0
 43
0.0
 44
0.0
 50
0.0
 51
0.0
 71
0
 72
1000
 73
1
 74
3
 75
0
 76
0
 77
0
 78
0
281
0
 65
0
146
0.0
  0
ENDTAB
  0
TABLE
  2
LTYPE
  5
2
330
0
100
AcDbSymbolTable
 70
3
  0
LTYPE
  5
24
330
2
100
AcDbSymbolTableRecord
100
AcDbLinetypeTableRecord
  2
ByBlock
 70
0
  3

 72
65
 73
0
 40
0.0
  0
LTYPE
  5
25
330
2
100
AcDbSymbolTableRecord
100
AcDbLinetypeTableRecord
  2
ByLayer
 70
0
  3

 72
65
 73
0
 40
0.0
  0
LTYPE
  5
26
330
2
100
AcDbSymbolTableRecord
100
AcDbLinetypeTableRecord
  2
Continuous
 70
0
  3

 72
65
 73
0
 40
0.0
  0
ENDTAB
  0
TABLE
  2
LAYER
  5
1
330
0
100
AcDbSymbolTable
 70
5
  0
LAYER
  5
27
330
1
100
AcDbSymbolTableRecord
100
AcDbLayerTableRecord
  2
0
 70
0
 62
7
  6
Continuous
370
-3
390
13
347
21
  0
LAYER
  5
28
330
1
100
AcDbSymbolTableRecord
100
AcDbLayerTableRecord
  2
Defpoints
 70
0
 62
7
  6
Continuous
290
0
370
-3
390
13
347
21
  0
LAYER
  5
2F
330
1
100
AcDbSymbolTableRecord
100
AcDbLayerTableRecord
  2
WALL
 70
0
 62
7
  6
Continuous
370
-3
390
13
347
21
  0
LAYER
  5
30
330
1
100
AcDbSymbolTableRecord
100
AcDbLayerTableRecord
  2
WINDOW
 70
0
 62
5
  6
Continuous
370
-3
390
13
347
21
  0
LAYER
  5
275
330
1
100
AcDbSymbolTableRecord
100
AcDbLayerTableRecord
  2
DOORZONE
 70
0
 62
2
  6
Continuous
370
-3
390
13
347
21
  0
ENDTAB
  0
TABLE
  2
STYLE
  5
5
330
0
100
AcDbSymbolTable
 70
1
  0
STYLE
  5
29
330
5
100
AcDbSymbolTableRecord
100
AcDbTextStyleTableRecord
  2
Standard
 70
0
 40
0.0
 41
1.0
 50
0.0
 71
0
 42
2.5
  3
txt
  4

  0
ENDTAB
  0
TABLE
  2
VIEW
  5
7
330
0
100
AcDbSymbolTable
 70
0
  0
ENDTAB
  0
TABLE
  2
UCS
  5
6
330
0
100
AcDbSymbolTable
 70
0
  0
ENDTAB
  0
TABLE
  2
APPID
  5
3
330
0
100
AcDbSymbolTable
 70
3
  0
APPID
  5
2A
330
3
100
AcDbSymbolTableRecord
100
AcDbRegAppTableRecord
  2
ACAD
 70
0
  0
APPID
  5
27C
330
3
100
AcDbSymbolTableRecord
100
AcDbRegAppTableRecord
  2
HATCHBACKGROUNDCOLOR
 70
0
  0
APPID
  5
27D
330
3
100
AcDbSymbolTableRecord
100
AcDbRegAppTableRecord
  2
EZDXF
 70
0
  0
ENDTAB
  0
TABLE
  2
DIMSTYLE
  5
4
330
0
100
AcDbSymbolTable
 70
1
100
AcDbDimStyleTable
  0
DIMSTYLE
105
2B
330
4
100
AcDbSymbolTableRecord
100
AcDbDimStyleTableRecord
  2
Standard
 70
0
 40
1.0
 41
2.5
 42
0.625
 43
3.75
 44
1.25
 45
0.0
 46
0.0
 47
0.0
 48
0.0
 49
2.5
140
2.5
141
2.5
142
0.0
143
0.03937007874
144
1.0
145
0.0
146
1.0
147
0.625
148
0.0
 69
0
 70
0
 71
0
 72
0
 73
0
 74
0
 75
0
 76
0
 77
1
 78
8
 79
3
170
0
171
3
172
1
173
0
174
0
175
0
176
0
177
0
178
0
179
2
271
2
272
2
273
2
274
3
275
0
276
0
277
2
278
44
279
0
280
0
281
0
282
0
283
0
284
8
285
0
286
0
288
0
289
3
290
0
371
-2
372
-2
  0
ENDTAB
  0
TABLE
  2
BLOCK_RECORD
  5
9
330
0
100
AcDbSymbolTable
 70
2
  0
BLOCK_RECORD
  5
17
330
9
100
AcDbSymbolTableRecord
100
AcDbBlockTableRecord
  2
*Model_Space
340
1A
 70
0
280
1
281
0
  0
BLOCK_RECORD
  5
1B
330
9
100
AcDbSymbolTableRecord
100
AcDbBlockTableRecord
  2
*Paper_Space
340
1E
 70
0
280
1
281
0
  0
ENDTAB
  0
ENDSEC
  0
SECTION
  2
BLOCKS
  0
BLOCK
  5
18
330
17
100
AcDbEntity
  8
0
100
AcDbBlockBegin
  2
*Model_Space
 70
0
 10
0.0
 20
0.0
 30
0.0
  3
*Model_Space
  1

  0
ENDBLK
  5
19
330
17
100
AcDbEntity
  8
0
100
AcDbBlockEnd
  0
BLOCK
  5
1C
330
1B
100
AcDbEntity
  8
0
100
AcDbBlockBegin
  2
*Paper_Space
 70
0
 10
0.0
 20
0.0
 30
0.0
  3
*Paper_Space
  1

  0
ENDBLK
  5
1D
330
1B
100
AcDbEntity
  8
0
100
AcDbBlockEnd
  0
ENDSEC
  0
SECTION
  2
ENTITIES
  0
LWPOLYLINE
  5
31
330
17
100
AcDbEntity
  8
WALL
100
AcDbPolyline
 90
4
 70
1
 10
160.71428571428572
 20
1021.0714285714286
 10
401.7857142857143
 20
1021.0714285714286
 10
401.7857142857143
 20
1006.0714285714286
 10
160.71428571428572
 20
1006.0714285714286
  0
HATCH
  5
32
330
17
100
AcDbEntity
  8
WALL
100
AcDbHatch
 10
0.0
 20
0.0
 30
0.0
210
0.0
220
0.0
230
1.0
  2
SOLID
 70
1
 71
0
 91
1
 92
3
 72
0
 73
1
 93
4
 10
160.71428571428572
 20
1021.0714285714286
 10
401.7857142857143
 20
1021.0714285714286
 10
401.7857142857143
 20
1006.0714285714286
 10
160.71428571428572
 20
1006.0714285714286
 97
0
 75
1
 76
1
 98
0
  0
LWPOLYLINE
  5
33
330
17
100
AcDbEntity
  8
WALL
100
AcDbPolyline
 90
4
 70
1
 10
474.6428571428571
 20
1021.0714285714286
 10
846.4285714285714
 20
1021.0714285714286
 10
846.4285714285714
 20
1006.0714285714286
 10
474.6428571428571
 20
1006.0714285714286
  0
HATCH
  5
34
330
17
100
AcDbEntity
  8
WALL
100
AcDbHatch
 10
0.0
 20
0.0
 30
0.0
210
0.0
220
0.0
230
1.0
  2
SOLID
 70
1
 71
0
 91
1
 92
3
 72
0
 73
1
 93
4
 10
474.6428571428571
 20
1021.0714285714286
 10
846.4285714285714
 20
1021.0714285714286
 10
846.4285714285714
 20
1006.0714285714286
 10
474.6428571428571
 20
1006.0714285714286
 97
0
 75
1
 76
1
 98
0
  0
LWPOLYLINE
  5
35
330
17
100
AcDbEntity
  8
WALL
100
AcDbPolyline
 90
4
 70
1
 10
855.0
 20
1018.9285714285714
 10
876.4285714285714
 20
1018.9285714285714
 10
876.4285714285714
 20
1008.2142857142857
 10
855.0
 20
1008.2142857142857
  0
HATCH
  5
36
330
17
100
AcDbEntity
  8
WALL
100
AcDbHatch
 10
0.0
 20
0.0
 30
0.0
210
0.0
220
0.0
230
1.0
  2
SOLID
 70
1
 71
0
 91
1
 92
3
 72
0
 73
1
 93
4
 10
855.0
 20
1018.9285714285714
 10
876.4285714285714
 20
1018.9285714285714
 10
876.4285714285714
 20
1008.2142857142857
 10
855.0
 20
1008.2142857142857
 97
0
 75
1
 76
1
 98
0
  0
LWPOLYLINE
  5
37
330
17
100
AcDbEntity
  8
WALL
100
AcDbPolyline
 90
4
 70
1
 10
1146.4285714285713
 20
1016.7857142857142
 10
1166.7857142857142
 20
1016.7857142857142
 10
1166.7857142857142
 20
1002.8571428571428
 10
1146.4285714285713
 20
1002.8571428571428
  0
HATCH
  5
38
330
17
100
AcDbEntity
  8
WALL
100
AcDbHatch
 10
0.0
 20
0.0
 30
0.0
210
0.0
220
0.0
230
1.0
  2
SOLID
 70
1
 71
0
 91
1
 92
3
 72
0
 73
1
 93
4
 10
1146.4285714285713
 20
1016.7857142857142
 10
1166.7857142857142
 20
1016.7857142857142
 10
1166.7857142857142
 20
1002.8571428571428
 10
1146.4285714285713
 20
1002.8571428571428
 97
0
 75
1
 76
1
 98
0
  0
LWPOLYLINE
  5
39
330
17
100
AcDbEntity
  8
WALL
100
AcDbPolyline
 90
4
 70
1
 10
1035.0
 20
999.6428571428571
 10
1055.357142857143
 20
999.6428571428571
 10
1055.357142857143
 20
996.4285714285714
 10
1035.0
 20
996.4285714285714
  0
HATCH
  5
3A
330
17
100
AcDbEntity
  8
WALL
100
AcDbHatch
 10
0.0
 20
0.0
 30
0.0
210
0.0
220
0.0
230
1.0
  2
SOLID
 70
1
 71
0
 91
1
 92
3
 72
0
 73
1
 93
4
 10
1035.0
 20
999.6428571428571
 10
1055.357142857143
 20
999.6428571428571
 10
1055.357142857143
 20
996.4285714285714
 10
1035.0
 20
996.4285714285714
 97
0
 75
1
 76
1
 98
0
  0
LWPOLYLINE
  5
3B
330
17
100
AcDbEntity
  8
WALL
100
AcDbPolyline
 90
4
 70
1
 10
1066.0714285714284
 20
999.6428571428571
 10
1087.5
 20
999.6428571428571
 10
1087.5
 20
996.4285714285714
 10
1066.0714285714284
 20
996.4285714285714
  0
HATCH
  5
3C
330
17
100
AcDbEntity
  8
WALL
100
AcDbHatch
 10
0.0
 20
0.0
 30
0.0
210
0.0
220
0.0
230
1.0
  2
SOLID
 70
1
 71
0
 91
1
 92
3
 72
0
 73
1
 93
4
 10
1066.0714285714284
 20
999.6428571428571
 10
1087.5
 20
999.6428571428571
 10
1087.5
 20
996.4285714285714
 10
1066.0714285714284
 20
996.4285714285714
 97
0
 75
1
 76
1
 98
0
  0
LWPOLYLINE
  5
3D
330
17
100
AcDbEntity
  8
WALL
100
AcDbPolyline
 90
4
 70
1
 10
540.0
 20
988.9285714285714
 10
634.2857142857142
 20
988.9285714285714
 10
634.2857142857142
 20
982.5
 10
540.0
 20
982.5
  0
HATCH
  5
3E
330
17
100
AcDbEntity
  8
WALL
100
AcDbHatch
 10
0.0
 20
0.0
 30
0.0
210
0.0
220
0.0
230
1.0
  2
SOLID
 70
1
 71
0
 91
1
 92
3
 72
0
 73
1
 93
4
 10
540.0
 20
988.9285714285714
 10
634.2857142857142
 20
988.9285714285714
 10
634.2857142857142
 20
982.5
 10
540.0
 20
982.5
 97
0
 75
1
 76
1
 98
0
  0
LWPOLYLINE
  5
3F
330
17
100
AcDbEntity
  8
WALL
100
AcDbPolyline
 90
4
 70
1
 10
771.4285714285714
 20
988.9285714285714
 10
790.7142857142857
 20
988.9285714285714
 10
790.7142857142857
 20
987.8571428571428
 10
771.4285714285714
 20
987.8571428571428
  0
HATCH
  5
40
330
17
100
AcDbEntity
  8
WALL
100
AcDbHatch
 10
0.0
 20
0.0
 30
0.0
210
0.0
220
0.0
230
1.0
  2
SOLID
 70
1
 71
0
 91
1
 92
3
 72
0
 73
1
 93
4
 10
771.4285714285714
 20
988.9285714285714
 10
790.7142857142857
 20
988.9285714285714
 10
790.7142857142857
 20
987.8571428571428
 10
771.4285714285714
 20
987.8571428571428
 97
0
 75
1
 76
1
 98
0
  0
LWPOLYLINE
  5
41
330
17
100
AcDbEntity
  8
WALL
100
AcDbPolyline
 90
4
 70
1
 10
679.2857142857142
 20
982.5
 10
705.0
 20
982.5
 10
705.0
 20
981.4285714285714
 10
679.2857142857142
 20
981.4285714285714
  0
HATCH
  5
42
330
17
100
AcDbEntity
  8
WALL
100
AcDbHatch
 10
0.0
 20
0.0
 30
0.0
210
0.0
220
0.0
230
1.0
  2
SOLID
 70
1
 71
0
 91
1
 92
3
 72
0
 73
1
 93
4
 10
679.2857142857142
 20
982.5
 10
705.0
 20
982.5
 10
705.0
 20
981.4285714285714
 10
679.2857142857142
 20
981.4285714285714
 97
0
 75
1
 76
1
 98
0
  0
LWPOLYLINE
  5
43
330
17
100
AcDbEntity
  8
WALL
100
AcDbPolyline
 90
4
 70
1
 10
1112.142857142857
 20
971.7857142857142
 10
1133.5714285714284
 20
971.7857142857142
 10
1133.5714285714284
 20
962.1428571428571
 10
1112.142857142857
 20
962.1428571428571
  0
HATCH
  5
44
330
17
100
AcDbEntity
  8
WALL
100
AcDbHatch
 10
0.0
 20
0.0
 30
0.0
210
0.0
220
0.0
230
1.0
  2
SOLID
 70
1
 71
0
 91
1
 92
3
 72
0
 73
1
 93
4
 10
1112.142857142857
 20
971.7857142857142
 10
1133.5714285714284
 20
971.7857142857142
 10
1133.5714285714284
 20
962.1428571428571
 10
1112.142857142857
 20
962.1428571428571
 97
0
 75
1
 76
1
 98
0
  0
LWPOLYLINE
  5
45
330
17
100
AcDbEntity
  8
WALL
100
AcDbPolyline
 90
4
 70
1
 10
484.2857142857143
 20
967.5
 10
503.57142857142856
 20
967.5
 10
503.57142857142856
 20
964.2857142857142
 10
484.2857142857143
 20
964.2857142857142
  0
HATCH
  5
46
330
17
100
AcDbEntity
  8
WALL
100
AcDbHatch
 10
0.0
 20
0.0
 30
0.0
210
0.0
220
0.0
230
1.0
  2
SOLID
 70
1
 71
0
 91
1
 92
3
 72
0
 73
1
 93
4
 10
484.2857142857143
 20
967.5
 10
503.57142857142856
 20
967.5
 10
503.57142857142856
 20
964.2857142857142
 10
484.2857142857143
 20
964.2857142857142
 97
0
 75
1
 76
1
 98
0
  0
LWPOLYLINE
  5
47
330
17
100
AcDbEntity
  8
WALL
100
AcDbPolyline
 90
4
 70
1
 10
1110.0
 20
950.3571428571428
 10
1135.7142857142858
 20
950.3571428571428
 10
1135.7142857142858
 20
942.8571428571428
 10
1110.0
 20
942.8571428571428
  0
HATCH
  5
48
330
17
100
AcDbEntity
  8
WALL
100
AcDbHatch
 10
0.0
 20
0.0
 30
0.0
210
0.0
220
0.0
230
1.0
  2
SOLID
 70
1
 71
0
 91
1
 92
3
 72
0
 73
1
 93
4
 10
1110.0
 20
950.3571428571428
 10
1135.7142857142858
 20
950.3571428571428
 10
1135.7142857142858
 20
942.8571428571428
 10
1110.0
 20
942.8571428571428
 97
0
 75
1
 76
1
 98
0
  0
LWPOLYLINE
  5
49
330
17
100
AcDbEntity
  8
WALL
100
AcDbPolyline
 90
4
 70
1
 10
1140.0
 20
893.5714285714286
 10
1191.4285714285713
 20
893.5714285714286
 10
1191.4285714285713
 20
886.0714285714286
 10
1140.0
 20
886.0714285714286
  0
HATCH
  5
4A
330
17
100
AcDbEntity
  8
WALL
100
AcDbHatch
 10
0.0
 20
0.0
 30
0.0
210
0.0
220
0.0
230
1.0
  2
SOLID
 70
1
 71
0
 91
1
 92
3
 72
0
 73
1
 93
4
 10
1140.0
 20
893.5714285714286
 10
1191.4285714285713
 20
893.5714285714286
 10
1191.4285714285713
 20
886.0714285714286
 10
1140.0
 20
886.0714285714286
 97
0
 75
1
 76
1
 98
0
  0
LWPOLYLINE
  5
4B
330
17
100
AcDbEntity
  8
WALL
100
AcDbPolyline
 90
4
 70
1
 10
160.71428571428572
 20
883.9285714285714
 10
197.14285714285714
 20
883.9285714285714
 10
197.14285714285714
 20
877.5
 10
160.71428571428572
 20
877.5
  0
HATCH
  5
4C
330
17
100
AcDbEntity
  8
WALL
100
AcDbHatch
 10
0.0
 20
0.0
 30
0.0
210
0.0
220
0.0
230
1.0
  2
SOLID
 70
1
 71
0
 91
1
 92
3
 72
0
 73
1
 93
4
 10
160.71428571428572
 20
883.9285714285714
 10
197.14285714285714
 20
883.9285714285714
 10
197.14285714285714
 20
877.5
 10
160.71428571428572
 20
877.5
 97
0
 75
1
 76
1
 98
0
  0
LWPOLYLINE
  5
4D
330
17
100
AcDbEntity
  8
WALL
100
AcDbPolyline
 90
4
 70
1
 10
349.2857142857143
 20
883.9285714285714
 10
390.0
 20
883.9285714285714
 10
390.0
 20
877.5
 10
349.2857142857143
 20
877.5
  0
HATCH
  5
4E
330
17
100
AcDbEntity
  8
WALL
100
AcDbHatch
 10
0.0
 20
0.0
 30
0.0
210
0.0
220
0.0
230
1.0
  2
SOLID
 70
1
 71
0
 91
1
 92
3
 72
0
 73
1
 93
4
 10
349.2857142857143
 20
883.9285714285714
 10
390.0
 20
883.9285714285714
 10
390.0
 20
877.5
 10
349.2857142857143
 20
877.5
 97
0
 75
1
 76
1
 98
0
  0
LWPOLYLINE
  5
4F
330
17
100
AcDbEntity
  8
WALL
100
AcDbPolyline
 90
4
 70
1
 10
475.7142857142857
 20
883.9285714285714
 10
762.8571428571429
 20
883.9285714285714
 10
762.8571428571429
 20
873.2142857142857
 10
475.7142857142857
 20
873.2142857142857
  0
HATCH
  5
50
330
17
100
AcDbEntity
  8
WALL
100
AcDbHatch
 10
0.0
 20
0.0
 30
0.0
210
0.0
220
0.0
230
1.0
  2
SOLID
 70
1
 71
0
 91
1
 92
3
 72
0
 73
1
 93
4
 10
475.7142857142857
 20
883.9285714285714
 10
762.8571428571429
 20
883.9285714285714
 10
762.8571428571429
 20
873.2142857142857
 10
475.7142857142857
 20
873.2142857142857
 97
0
 75
1
 76
1
 98
0
  0
LWPOLYLINE
  5
51
330
17
100
AcDbEntity
  8
WALL
100
AcDbPolyline
 90
4
 70
1
 10
1127.142857142857
 20
885.0
 10
1195.7142857142858
 20
885.0
 10
1195.7142857142858
 20
871.0714285714286
 10
1127.142857142857
 20
871.0714285714286
  0
HATCH
  5
52
330
17
100
AcDbEntity
  8
WALL
100
AcDbHatch
 10
0.0
 20
0.0
 30
0.0
210
0.0
220
0.0
230
1.0
  2
SOLID
 70
1
 71
0
 91
1
 92
3
 72
0
 73
1
 93
4
 10
1127.142857142857
 20
885.0
 10
1195.7142857142858
 20
885.0
 10
1195.7142857142858
 20
871.0714285714286
 10
1127.142857142857
 20
871.0714285714286
 97
0
 75
1
 76
1
 98
0
  0
LWPOLYLINE
  5
53
330
17
100
AcDbEntity
  8
WALL
100
AcDbPolyline
 90
4
 70
1
 10
394.2857142857143
 20
881.7857142857142
 10
415.7142857142857
 20
881.7857142857142
 10
415.7142857142857
 20
875.3571428571428
 10
394.2857142857143
 20
875.3571428571428
  0
HATCH
  5
54
330
17
100
AcDbEntity
  8
WALL
100
AcDbHatch
 10
0.0
 20
0.0
 30
0.0
210
0.0
220
0.0
230
1.0
  2
SOLID
 70
1
 71
0
 91
1
 92
3
 72
0
 73
1
 93
4
 10
394.2857142857143
 20
881.7857142857142
 10
415.7142857142857
 20
881.7857142857142
 10
415.7142857142857
 20
875.3571428571428
 10
394.2857142857143
 20
875.3571428571428
 97
0
 75
1
 76
1
 98
0
  0
LWPOLYLINE
  5
55
330
17
100
AcDbEntity
  8
WALL
100
AcDbPolyline
 90
4
 70
1
 10
1174.2857142857142
 20
870.0
 10
1195.7142857142858
 20
870.0
 10
1195.7142857142858
 20
864.6428571428571
 10
1174.2857142857142
 20
864.6428571428571
  0
HATCH
  5
56
330
17
100
AcDbEntity
  8
WALL
100
AcDbHatch
 10
0.0
 20
0.0
 30
0.0
210
0.0
220
0.0
230
1.0
  2
SOLID
 70
1
 71
0
 91
1
 92
3
 72
0
 73
1
 93
4
 10
1174.2857142857142
 20
870.0
 10
1195.7142857142858
 20
870.0
 10
1195.7142857142858
 20
864.6428571428571
 10
1174.2857142857142
 20
864.6428571428571
 97
0
 75
1
 76
1
 98
0
  0
LWPOLYLINE
  5
57
330
17
100
AcDbEntity
  8
WALL
100
AcDbPolyline
 90
4
 70
1
 10
1170.0
 20
863.5714285714286
 10
1195.7142857142858
 20
863.5714285714286
 10
1195.7142857142858
 20
851.7857142857142
 10
1170.0
 20
851.7857142857142
  0
HATCH
  5
58
330
17
100
AcDbEntity
  8
WALL
100
AcDbHatch
 10
0.0
 20
0.0
 30
0.0
210
0.0
220
0.0
230
1.0
  2
SOLID
 70
1
 71
0
 91
1
 92
3
 72
0
 73
1
 93
4
 10
1170.0
 20
863.5714285714286
 10
1195.7142857142858
 20
863.5714285714286
 10
1195.7142857142858
 20
851.7857142857142
 10
1170.0
 20
851.7857142857142
 97
0
 75
1
 76
1
 98
0
  0
LWPOLYLINE
  5
59
330
17
100
AcDbEntity
  8
WALL
100
AcDbPolyline
 90
4
 70
1
 10
653.5714285714286
 20
828.2142857142857
 10
682.5
 20
828.2142857142857
 10
682.5
 20
819.6428571428571
 10
653.5714285714286
 20
819.6428571428571
  0
HATCH
  5
5A
330
17
100
AcDbEntity
  8
WALL
100
AcDbHatch
 10
0.0
 20
0.0
 30
0.0
210
0.0
220
0.0
230
1.0
  2
SOLID
 70
1
 71
0
 91
1
 92
3
 72
0
 73
1
 93
4
 10
653.5714285714286
 20
828.2142857142857
 10
682.5
 20
828.2142857142857
 10
682.5
 20
819.6428571428571
 10
653.5714285714286
 20
819.6428571428571
 97
0
 75
1
 76
1
 98
0
  0
LWPOLYLINE
  5
5B
330
17
100
AcDbEntity
  8
WALL
100
AcDbPolyline
 90
4
 70
1
 10
1099.2857142857142
 20
806.7857142857142
 10
1176.4285714285713
 20
806.7857142857142
 10
1176.4285714285713
 20
796.0714285714286
 10
1099.2857142857142
 20
796.0714285714286
  0
HATCH
  5
5C
330
17
100
AcDbEntity
  8
WALL
100
AcDbHatch
 10
0.0
 20
0.0
 30
0.0
210
0.0
220
0.0
230
1.0
  2
SOLID
 70
1
 71
0
 91
1
 92
3
 72
0
 73
1
 93
4
 10
1099.2857142857142
 20
806.7857142857142
 10
1176.4285714285713
 20
806.7857142857142
 10
1176.4285714285713
 20
796.0714285714286
 10
1099.2857142857142
 20
796.0714285714286
 97
0
 75
1
 76
1
 98
0
  0
LWPOLYLINE
  5
5D
330
17
100
AcDbEntity
  8
WALL
100
AcDbPolyline
 90
4
 70
1
 10
608.5714285714286
 20
805.7142857142857
 10
627.8571428571429
 20
805.7142857142857
 10
627.8571428571429
 20
804.6428571428571
 10
608.5714285714286
 20
804.6428571428571
  0
HATCH
  5
5E
330
17
100
AcDbEntity
  8
WALL
100
AcDbHatch
 10
0.0
 20
0.0
 30
0.0
210
0.0
220
0.0
230
1.0
  2
SOLID
 70
1
 71
0
 91
1
 92
3
 72
0
 73
1
 93
4
 10
608.5714285714286
 20
805.7142857142857
 10
627.8571428571429
 20
805.7142857142857
 10
627.8571428571429
 20
804.6428571428571
 10
608.5714285714286
 20
804.6428571428571
 97
0
 75
1
 76
1
 98
0
  0
LWPOLYLINE
  5
5F
330
17
100
AcDbEntity
  8
WALL
100
AcDbPolyline
 90
4
 70
1
 10
587.1428571428571
 20
796.0714285714286
 10
608.5714285714286
 20
796.0714285714286
 10
608.5714285714286
 20
795.0
 10
587.1428571428571
 20
795.0
  0
HATCH
  5
60
330
17
100
AcDbEntity
  8
WALL
100
AcDbHatch
 10
0.0
 20
0.0
 30
0.0
210
0.0
220
0.0
230
1.0
  2
SOLID
 70
1
 71
0
 91
1
 92
3
 72
0
 73
1
 93
4
 10
587.1428571428571
 20
796.0714285714286
 10
608.5714285714286
 20
796.0714285714286
 10
608.5714285714286
 20
795.0
 10
587.1428571428571
 20
795.0
 97
0
 75
1
 76
1
 98
0
  0
LWPOLYLINE
  5
61
330
17
100
AcDbEntity
  8
WALL
100
AcDbPolyline
 90
4
 70
1
 10
627.8571428571429
 20
789.6428571428571
 10
647.1428571428571
 20
789.6428571428571
 10
647.1428571428571
 20
786.4285714285714
 10
627.8571428571429
 20
786.4285714285714
  0
HATCH
  5
62
330
17
100
AcDbEntity
  8
WALL
100
AcDbHatch
 10
0.0
 20
0.0
 30
0.0
210
0.0
220
0.0
230
1.0
  2
SOLID
 70
1
 71
0
 91
1
 92
3
 72
0
 73
1
 93
4
 10
627.8571428571429
 20
789.6428571428571
 10
647.1428571428571
 20
789.6428571428571
 10
647.1428571428571
 20
786.4285714285714
 10
627.8571428571429
 20
786.4285714285714
 97
0
 75
1
 76
1
 98
0
  0
LWPOLYLINE
  5
63
330
17
100
AcDbEntity
  8
WALL
100
AcDbPolyline
 90
4
 70
1
 10
595.7142857142857
 20
787.5
 10
621.4285714285714
 20
787.5
 10
621.4285714285714
 20
786.4285714285714
 10
595.7142857142857
 20
786.4285714285714
  0
HATCH
  5
64
330
17
100
AcDbEntity
  8
WALL
100
AcDbHatch
 10
0.0
 20
0.0
 30
0.0
210
0.0
220
0.0
230
1.0
  2
SOLID
 70
1
 71
0
 91
1
 92
3
 72
0
 73
1
 93
4
 10
595.7142857142857
 20
787.5
 10
621.4285714285714
 20
787.5
 10
621.4285714285714
 20
786.4285714285714
 10
595.7142857142857
 20
786.4285714285714
 97
0
 75
1
 76
1
 98
0
  0
LWPOLYLINE
  5
65
330
17
100
AcDbEntity
  8
WALL
100
AcDbPolyline
 90
4
 70
1
 10
1174.2857142857142
 20
786.4285714285714
 10
1195.7142857142858
 20
786.4285714285714
 10
1195.7142857142858
 20
784.2857142857142
 10
1174.2857142857142
 20
784.2857142857142
  0
HATCH
  5
66
330
17
100
AcDbEntity
  8
WALL
100
AcDbHatch
 10
0.0
 20
0.0
 30
0.0
210
0.0
220
0.0
230
1.0
  2
SOLID
 70
1
 71
0
 91
1
 92
3
 72
0
 73
1
 93
4
 10
1174.2857142857142
 20
786.4285714285714
 10
1195.7142857142858
 20
786.4285714285714
 10
1195.7142857142858
 20
784.2857142857142
 10
1174.2857142857142
 20
784.2857142857142
 97
0
 75
1
 76
1
 98
0
  0
LWPOLYLINE
  5
67
330
17
100
AcDbEntity
  8
WALL
100
AcDbPolyline
 90
4
 70
1
 10
647.1428571428571
 20
776.7857142857142
 10
670.7142857142857
 20
776.7857142857142
 10
670.7142857142857
 20
773.5714285714286
 10
647.1428571428571
 20
773.5714285714286
  0
HATCH
  5
68
330
17
100
AcDbEntity
  8
WALL
100
AcDbHatch
 10
0.0
 20
0.0
 30
0.0
210
0.0
220
0.0
230
1.0
  2
SOLID
 70
1
 71
0
 91
1
 92
3
 72
0
 73
1
 93
4
 10
647.1428571428571
 20
776.7857142857142
 10
670.7142857142857
 20
776.7857142857142
 10
670.7142857142857
 20
773.5714285714286
 10
647.1428571428571
 20
773.5714285714286
 97
0
 75
1
 76
1
 98
0
  0
LWPOLYLINE
  5
69
330
17
100
AcDbEntity
  8
WALL
100
AcDbPolyline
 90
4
 70
1
 10
1174.2857142857142
 20
777.8571428571429
 10
1195.7142857142858
 20
777.8571428571429
 10
1195.7142857142858
 20
774.6428571428571
 10
1174.2857142857142
 20
774.6428571428571
  0
HATCH
  5
6A
330
17
100
AcDbEntity
  8
WALL
100
AcDbHatch
 10
0.0
 20
0.0
 30
0.0
210
0.0
220
0.0
230
1.0
  2
SOLID
 70
1
 71
0
 91
1
 92
3
 72
0
 73
1
 93
4
 10
1174.2857142857142
 20
777.8571428571429
 10
1195.7142857142858
 20
777.8571428571429
 10
1195.7142857142858
 20
774.6428571428571
 10
1174.2857142857142
 20
774.6428571428571
 97
0
 75
1
 76
1
 98
0
  0
LWPOLYLINE
  5
6B
330
17
100
AcDbEntity
  8
WALL
100
AcDbPolyline
 90
4
 70
1
 10
580.7142857142857
 20
767.1428571428571
 10
683.5714285714286
 20
767.1428571428571
 10
683.5714285714286
 20
748.9285714285714
 10
580.7142857142857
 20
748.9285714285714
  0
HATCH
  5
6C
330
17
100
AcDbEntity
  8
WALL
100
AcDbHatch
 10
0.0
 20
0.0
 30
0.0
210
0.0
220
0.0
230
1.0
  2
SOLID
 70
1
 71
0
 91
1
 92
3
 72
0
 73
1
 93
4
 10
580.7142857142857
 20
767.1428571428571
 10
683.5714285714286
 20
767.1428571428571
 10
683.5714285714286
 20
748.9285714285714
 10
580.7142857142857
 20
748.9285714285714
 97
0
 75
1
 76
1
 98
0
  0
LWPOLYLINE
  5
6D
330
17
100
AcDbEntity
  8
WALL
100
AcDbPolyline
 90
4
 70
1
 10
106.07142857142857
 20
742.5
 10
145.71428571428572
 20
742.5
 10
145.71428571428572
 20
735.0
 10
106.07142857142857
 20
735.0
  0
HATCH
  5
6E
330
17
100
AcDbEntity
  8
WALL
100
AcDbHatch
 10
0.0
 20
0.0
 30
0.0
210
0.0
220
0.0
230
1.0
  2
SOLID
 70
1
 71
0
 91
1
 92
3
 72
0
 73
1
 93
4
 10
106.07142857142857
 20
742.5
 10
145.71428571428572
 20
742.5
 10
145.71428571428572
 20
735.0
 10
106.07142857142857
 20
735.0
 97
0
 75
1
 76
1
 98
0
  0
LWPOLYLINE
  5
6F
330
17
100
AcDbEntity
  8
WALL
100
AcDbPolyline
 90
4
 70
1
 10
1129.2857142857142
 20
740.3571428571429
 10
1158.2142857142858
 20
740.3571428571429
 10
1158.2142857142858
 20
738.2142857142857
 10
1129.2857142857142
 20
738.2142857142857
  0
HATCH
  5
70
330
17
100
AcDbEntity
  8
WALL
100
AcDbHatch
 10
0.0
 20
0.0
 30
0.0
210
0.0
220
0.0
230
1.0
  2
SOLID
 70
1
 71
0
 91
1
 92
3
 72
0
 73
1
 93
4
 10
1129.2857142857142
 20
740.3571428571429
 10
1158.2142857142858
 20
740.3571428571429
 10
1158.2142857142858
 20
738.2142857142857
 10
1129.2857142857142
 20
738.2142857142857
 97
0
 75
1
 76
1
 98
0
  0
LWPOLYLINE
  5
71
330
17
100
AcDbEntity
  8
WALL
100
AcDbPolyline
 90
4
 70
1
 10
767.1428571428571
 20
733.9285714285714
 10
791.7857142857142
 20
733.9285714285714
 10
791.7857142857142
 20
729.6428571428571
 10
767.1428571428571
 20
729.6428571428571
  0
HATCH
  5
72
330
17
100
AcDbEntity
  8
WALL
100
AcDbHatch
 10
0.0
 20
0.0
 30
0.0
210
0.0
220
0.0
230
1.0
  2
SOLID
 70
1
 71
0
 91
1
 92
3
 72
0
 73
1
 93
4
 10
767.1428571428571
 20
733.9285714285714
 10
791.7857142857142
 20
733.9285714285714
 10
791.7857142857142
 20
729.6428571428571
 10
767.1428571428571
 20
729.6428571428571
 97
0
 75
1
 76
1
 98
0
  0
LWPOLYLINE
  5
73
330
17
100
AcDbEntity
  8
WALL
100
AcDbPolyline
 90
4
 70
1
 10
887.1428571428571
 20
733.9285714285714
 10
932.1428571428571
 20
733.9285714285714
 10
932.1428571428571
 20
725.3571428571429
 10
887.1428571428571
 20
725.3571428571429
  0
HATCH
  5
74
330
17
100
AcDbEntity
  8
WALL
100
AcDbHatch
 10
0.0
 20
0.0
 30
0.0
210
0.0
220
0.0
230
1.0
  2
SOLID
 70
1
 71
0
 91
1
 92
3
 72
0
 73
1
 93
4
 10
887.1428571428571
 20
733.9285714285714
 10
932.1428571428571
 20
733.9285714285714
 10
932.1428571428571
 20
725.3571428571429
 10
887.1428571428571
 20
725.3571428571429
 97
0
 75
1
 76
1
 98
0
  0
LWPOLYLINE
  5
75
330
17
100
AcDbEntity
  8
WALL
100
AcDbPolyline
 90
4
 70
1
 10
368.57142857142856
 20
727.5
 10
387.85714285714283
 20
727.5
 10
387.85714285714283
 20
724.2857142857142
 10
368.57142857142856
 20
724.2857142857142
  0
HATCH
  5
76
330
17
100
AcDbEntity
  8
WALL
100
AcDbHatch
 10
0.0
 20
0.0
 30
0.0
210
0.0
220
0.0
230
1.0
  2
SOLID
 70
1
 71
0
 91
1
 92
3
 72
0
 73
1
 93
4
 10
368.57142857142856
 20
727.5
 10
387.85714285714283
 20
727.5
 10
387.85714285714283
 20
724.2857142857142
 10
368.57142857142856
 20
724.2857142857142
 97
0
 75
1
 76
1
 98
0
  0
LWPOLYLINE
  5
77
330
17
100
AcDbEntity
  8
WALL
100
AcDbPolyline
 90
4
 70
1
 10
295.7142857142857
 20
725.3571428571429
 10
323.57142857142856
 20
725.3571428571429
 10
323.57142857142856
 20
721.0714285714286
 10
295.7142857142857
 20
721.0714285714286
  0
HATCH
  5
78
330
17
100
AcDbEntity
  8
WALL
100
AcDbHatch
 10
0.0
 20
0.0
 30
0.0
210
0.0
220
0.0
230
1.0
  2
SOLID
 70
1
 71
0
 91
1
 92
3
 72
0
 73
1
 93
4
 10
295.7142857142857
 20
725.3571428571429
 10
323.57142857142856
 20
725.3571428571429
 10
323.57142857142856
 20
721.0714285714286
 10
295.7142857142857
 20
721.0714285714286
 97
0
 75
1
 76
1
 98
0
  0
LWPOLYLINE
  5
79
330
17
100
AcDbEntity
  8
WALL
100
AcDbPolyline
 90
4
 70
1
 10
1174.2857142857142
 20
705.0
 10
1195.7142857142858
 20
705.0
 10
1195.7142857142858
 20
695.3571428571429
 10
1174.2857142857142
 20
695.3571428571429
  0
HATCH
  5
7A
330
17
100
AcDbEntity
  8
WALL
100
AcDbHatch
 10
0.0
 20
0.0
 30
0.0
210
0.0
220
0.0
230
1.0
  2
SOLID
 70
1
 71
0
 91
1
 92
3
 72
0
 73
1
 93
4
 10
1174.2857142857142
 20
705.0
 10
1195.7142857142858
 20
705.0
 10
1195.7142857142858
 20
695.3571428571429
 10
1174.2857142857142
 20
695.3571428571429
 97
0
 75
1
 76
1
 98
0
  0
LWPOLYLINE
  5
7B
330
17
100
AcDbEntity
  8
WALL
100
AcDbPolyline
 90
4
 70
1
 10
242.14285714285714
 20
676.0714285714286
 10
265.7142857142857
 20
676.0714285714286
 10
265.7142857142857
 20
673.9285714285714
 10
242.14285714285714
 20
673.9285714285714
  0
HATCH
  5
7C
330
17
100
AcDbEntity
  8
WALL
100
AcDbHatch
 10
0.0
 20
0.0
 30
0.0
210
0.0
220
0.0
230
1.0
  2
SOLID
 70
1
 71
0
 91
1
 92
3
 72
0
 73
1
 93
4
 10
242.14285714285714
 20
676.0714285714286
 10
265.7142857142857
 20
676.0714285714286
 10
265.7142857142857
 20
673.9285714285714
 10
242.14285714285714
 20
673.9285714285714
 97
0
 75
1
 76
1
 98
0
  0
LWPOLYLINE
  5
7D
330
17
100
AcDbEntity
  8
WALL
100
AcDbPolyline
 90
4
 70
1
 10
141.42857142857142
 20
671.7857142857142
 10
379.2857142857143
 20
671.7857142857142
 10
379.2857142857143
 20
661.0714285714286
 10
141.42857142857142
 20
661.0714285714286
  0
HATCH
  5
7E
330
17
100
AcDbEntity
  8
WALL
100
AcDbHatch
 10
0.0
 20
0.0
 30
0.0
210
0.0
220
0.0
230
1.0
  2
SOLID
 70
1
 71
0
 91
1
 92
3
 72
0
 73
1
 93
4
 10
141.42857142857142
 20
671.7857142857142
 10
379.2857142857143
 20
671.7857142857142
 10
379.2857142857143
 20
661.0714285714286
 10
141.42857142857142
 20
661.0714285714286
 97
0
 75
1
 76
1
 98
0
  0
LWPOLYLINE
  5
7F
330
17
100
AcDbEntity
  8
WALL
100
AcDbPolyline
 90
4
 70
1
 10
383.57142857142856
 20
667.5
 10
413.57142857142856
 20
667.5
 10
413.57142857142856
 20
661.0714285714286
 10
383.57142857142856
 20
661.0714285714286
  0
HATCH
  5
80
330
17
100
AcDbEntity
  8
WALL
100
AcDbHatch
 10
0.0
 20
0.0
 30
0.0
210
0.0
220
0.0
230
1.0
  2
SOLID
 70
1
 71
0
 91
1
 92
3
 72
0
 73
1
 93
4
 10
383.57142857142856
 20
667.5
 10
413.57142857142856
 20
667.5
 10
413.57142857142856
 20
661.0714285714286
 10
383.57142857142856
 20
661.0714285714286
 97
0
 75
1
 76
1
 98
0
  0
LWPOLYLINE
  5
81
330
17
100
AcDbEntity
  8
WALL
100
AcDbPolyline
 90
4
 70
1
 10
520.7142857142857
 20
667.5
 10
694.2857142857142
 20
667.5
 10
694.2857142857142
 20
661.0714285714286
 10
520.7142857142857
 20
661.0714285714286
  0
HATCH
  5
82
330
17
100
AcDbEntity
  8
WALL
100
AcDbHatch
 10
0.0
 20
0.0
 30
0.0
210
0.0
220
0.0
230
1.0
  2
SOLID
 70
1
 71
0
 91
1
 92
3
 72
0
 73
1
 93
4
 10
520.7142857142857
 20
667.5
 10
694.2857142857142
 20
667.5
 10
694.2857142857142
 20
661.0714285714286
 10
520.7142857142857
 20
661.0714285714286
 97
0
 75
1
 76
1
 98
0
  0
LWPOLYLINE
  5
83
330
17
100
AcDbEntity
  8
WALL
100
AcDbPolyline
 90
4
 70
1
 10
480.0
 20
665.3571428571429
 10
499.2857142857143
 20
665.3571428571429
 10
499.2857142857143
 20
662.1428571428571
 10
480.0
 20
662.1428571428571
  0
HATCH
  5
84
330
17
100
AcDbEntity
  8
WALL
100
AcDbHatch
 10
0.0
 20
0.0
 30
0.0
210
0.0
220
0.0
230
1.0
  2
SOLID
 70
1
 71
0
 91
1
 92
3
 72
0
 73
1
 93
4
 10
480.0
 20
665.3571428571429
 10
499.2857142857143
 20
665.3571428571429
 10
499.2857142857143
 20
662.1428571428571
 10
480.0
 20
662.1428571428571
 97
0
 75
1
 76
1
 98
0
  0
LWPOLYLINE
  5
85
330
17
100
AcDbEntity
  8
WALL
100
AcDbPolyline
 90
4
 70
1
 10
1009.2857142857142
 20
665.3571428571429
 10
1176.4285714285713
 20
665.3571428571429
 10
1176.4285714285713
 20
658.9285714285714
 10
1009.2857142857142
 20
658.9285714285714
  0
HATCH
  5
86
330
17
100
AcDbEntity
  8
WALL
100
AcDbHatch
 10
0.0
 20
0.0
 30
0.0
210
0.0
220
0.0
230
1.0
  2
SOLID
 70
1
 71
0
 91
1
 92
3
 72
0
 73
1
 93
4
 10
1009.2857142857142
 20
665.3571428571429
 10
1176.4285714285713
 20
665.3571428571429
 10
1176.4285714285713
 20
658.9285714285714
 10
1009.2857142857142
 20
658.9285714285714
 97
0
 75
1
 76
1
 98
0
  0
LWPOLYLINE
  5
87
330
17
100
AcDbEntity
  8
WALL
100
AcDbPolyline
 90
4
 70
1
 10
787.5
 20
664.2857142857142
 10
810.0
 20
664.2857142857142
 10
810.0
 20
660.0
 10
787.5
 20
660.0
  0
HATCH
  5
88
330
17
100
AcDbEntity
  8
WALL
100
AcDbHatch
 10
0.0
 20
0.0
 30
0.0
210
0.0
220
0.0
230
1.0
  2
SOLID
 70
1
 71
0
 91
1
 92
3
 72
0
 73
1
 93
4
 10
787.5
 20
664.2857142857142
 10
810.0
 20
664.2857142857142
 10
810.0
 20
660.0
 10
787.5
 20
660.0
 97
0
 75
1
 76
1
 98
0
  0
LWPOLYLINE
  5
89
330
17
100
AcDbEntity
  8
WALL
100
AcDbPolyline
 90
4
 70
1
 10
848.5714285714286
 20
664.2857142857142
 10
882.8571428571428
 20
664.2857142857142
 10
882.8571428571428
 20
658.9285714285714
 10
848.5714285714286
 20
658.9285714285714
  0
HATCH
  5
8A
330
17
100
AcDbEntity
  8
WALL
100
AcDbHatch
 10
0.0
 20
0.0
 30
0.0
210
0.0
220
0.0
230
1.0
  2
SOLID
 70
1
 71
0
 91
1
 92
3
 72
0
 73
1
 93
4
 10
848.5714285714286
 20
664.2857142857142
 10
882.8571428571428
 20
664.2857142857142
 10
882.8571428571428
 20
658.9285714285714
 10
848.5714285714286
 20
658.9285714285714
 97
0
 75
1
 76
1
 98
0
  0
LWPOLYLINE
  5
8B
330
17
100
AcDbEntity
  8
WALL
100
AcDbPolyline
 90
4
 70
1
 10
983.5714285714286
 20
663.2142857142857
 10
1002.8571428571428
 20
663.2142857142857
 10
1002.8571428571428
 20
660.0
 10
983.5714285714286
 20
660.0
  0
HATCH
  5
8C
330
17
100
AcDbEntity
  8
WALL
100
AcDbHatch
 10
0.0
 20
0.0
 30
0.0
210
0.0
220
0.0
230
1.0
  2
SOLID
 70
1
 71
0
 91
1
 92
3
 72
0
 73
1
 93
4
 10
983.5714285714286
 20
663.2142857142857
 10
1002.8571428571428
 20
663.2142857142857
 10
1002.8571428571428
 20
660.0
 10
983.5714285714286
 20
660.0
 97
0
 75
1
 76
1
 98
0
  0
LWPOLYLINE
  5
8D
330
17
100
AcDbEntity
  8
WALL
100
AcDbPolyline
 90
4
 70
1
 10
141.42857142857142
 20
660.0
 10
432.85714285714283
 20
660.0
 10
432.85714285714283
 20
650.3571428571429
 10
141.42857142857142
 20
650.3571428571429
  0
HATCH
  5
8E
330
17
100
AcDbEntity
  8
WALL
100
AcDbHatch
 10
0.0
 20
0.0
 30
0.0
210
0.0
220
0.0
230
1.0
  2
SOLID
 70
1
 71
0
 91
1
 92
3
 72
0
 73
1
 93
4
 10
141.42857142857142
 20
660.0
 10
432.85714285714283
 20
660.0
 10
432.85714285714283
 20
650.3571428571429
 10
141.42857142857142
 20
650.3571428571429
 97
0
 75
1
 76
1
 98
0
  0
LWPOLYLINE
  5
8F
330
17
100
AcDbEntity
  8
WALL
100
AcDbPolyline
 90
4
 70
1
 10
520.7142857142857
 20
658.9285714285714
 10
600.0
 20
658.9285714285714
 10
600.0
 20
650.3571428571429
 10
520.7142857142857
 20
650.3571428571429
  0
HATCH
  5
90
330
17
100
AcDbEntity
  8
WALL
100
AcDbHatch
 10
0.0
 20
0.0
 30
0.0
210
0.0
220
0.0
230
1.0
  2
SOLID
 70
1
 71
0
 91
1
 92
3
 72
0
 73
1
 93
4
 10
520.7142857142857
 20
658.9285714285714
 10
600.0
 20
658.9285714285714
 10
600.0
 20
650.3571428571429
 10
520.7142857142857
 20
650.3571428571429
 97
0
 75
1
 76
1
 98
0
  0
LWPOLYLINE
  5
91
330
17
100
AcDbEntity
  8
WALL
100
AcDbPolyline
 90
4
 70
1
 10
604.2857142857142
 20
656.7857142857142
 10
692.1428571428571
 20
656.7857142857142
 10
692.1428571428571
 20
649.2857142857142
 10
604.2857142857142
 20
649.2857142857142
  0
HATCH
  5
92
330
17
100
AcDbEntity
  8
WALL
100
AcDbHatch
 10
0.0
 20
0.0
 30
0.0
210
0.0
220
0.0
230
1.0
  2
SOLID
 70
1
 71
0
 91
1
 92
3
 72
0
 73
1
 93
4
 10
604.2857142857142
 20
656.7857142857142
 10
692.1428571428571
 20
656.7857142857142
 10
692.1428571428571
 20
649.2857142857142
 10
604.2857142857142
 20
649.2857142857142
 97
0
 75
1
 76
1
 98
0
  0
LWPOLYLINE
  5
93
330
17
100
AcDbEntity
  8
WALL
100
AcDbPolyline
 90
4
 70
1
 10
803.5714285714286
 20
656.7857142857142
 10
893.5714285714286
 20
656.7857142857142
 10
893.5714285714286
 20
648.2142857142857
 10
803.5714285714286
 20
648.2142857142857
  0
HATCH
  5
94
330
17
100
AcDbEntity
  8
WALL
100
AcDbHatch
 10
0.0
 20
0.0
 30
0.0
210
0.0
220
0.0
230
1.0
  2
SOLID
 70
1
 71
0
 91
1
 92
3
 72
0
 73
1
 93
4
 10
803.5714285714286
 20
656.7857142857142
 10
893.5714285714286
 20
656.7857142857142
 10
893.5714285714286
 20
648.2142857142857
 10
803.5714285714286
 20
648.2142857142857
 97
0
 75
1
 76
1
 98
0
  0
LWPOLYLINE
  5
95
330
17
100
AcDbEntity
  8
WALL
100
AcDbPolyline
 90
4
 70
1
 10
983.5714285714286
 20
654.6428571428571
 10
1174.2857142857142
 20
654.6428571428571
 10
1174.2857142857142
 20
650.3571428571429
 10
983.5714285714286
 20
650.3571428571429
  0
HATCH
  5
96
330
17
100
AcDbEntity
  8
WALL
100
AcDbHatch
 10
0.0
 20
0.0
 30
0.0
210
0.0
220
0.0
230
1.0
  2
SOLID
 70
1
 71
0
 91
1
 92
3
 72
0
 73
1
 93
4
 10
983.5714285714286
 20
654.6428571428571
 10
1174.2857142857142
 20
654.6428571428571
 10
1174.2857142857142
 20
650.3571428571429
 10
983.5714285714286
 20
650.3571428571429
 97
0
 75
1
 76
1
 98
0
  0
LWPOLYLINE
  5
97
330
17
100
AcDbEntity
  8
WALL
100
AcDbPolyline
 90
4
 70
1
 10
82.5
 20
639.6428571428571
 10
109.28571428571428
 20
639.6428571428571
 10
109.28571428571428
 20
628.9285714285714
 10
82.5
 20
628.9285714285714
  0
HATCH
  5
98
330
17
100
AcDbEntity
  8
WALL
100
AcDbHatch
 10
0.0
 20
0.0
 30
0.0
210
0.0
220
0.0
230
1.0
  2
SOLID
 70
1
 71
0
 91
1
 92
3
 72
0
 73
1
 93
4
 10
82.5
 20
639.6428571428571
 10
109.28571428571428
 20
639.6428571428571
 10
109.28571428571428
 20
628.9285714285714
 10
82.5
 20
628.9285714285714
 97
0
 75
1
 76
1
 98
0
  0
LWPOLYLINE
  5
99
330
17
100
AcDbEntity
  8
WALL
100
AcDbPolyline
 90
4
 70
1
 10
628.9285714285714
 20
635.3571428571429
 10
664.2857142857142
 20
635.3571428571429
 10
664.2857142857142
 20
628.9285714285714
 10
628.9285714285714
 20
628.9285714285714
  0
HATCH
  5
9A
330
17
100
AcDbEntity
  8
WALL
100
AcDbHatch
 10
0.0
 20
0.0
 30
0.0
210
0.0
220
0.0
230
1.0
  2
SOLID
 70
1
 71
0
 91
1
 92
3
 72
0
 73
1
 93
4
 10
628.9285714285714
 20
635.3571428571429
 10
664.2857142857142
 20
635.3571428571429
 10
664.2857142857142
 20
628.9285714285714
 10
628.9285714285714
 20
628.9285714285714
 97
0
 75
1
 76
1
 98
0
  0
LWPOLYLINE
  5
9B
330
17
100
AcDbEntity
  8
WALL
100
AcDbPolyline
 90
4
 70
1
 10
555.0
 20
632.1428571428571
 10
574.2857142857142
 20
632.1428571428571
 10
574.2857142857142
 20
630.0
 10
555.0
 20
630.0
  0
HATCH
  5
9C
330
17
100
AcDbEntity
  8
WALL
100
AcDbHatch
 10
0.0
 20
0.0
 30
0.0
210
0.0
220
0.0
230
1.0
  2
SOLID
 70
1
 71
0
 91
1
 92
3
 72
0
 73
1
 93
4
 10
555.0
 20
632.1428571428571
 10
574.2857142857142
 20
632.1428571428571
 10
574.2857142857142
 20
630.0
 10
555.0
 20
630.0
 97
0
 75
1
 76
1
 98
0
  0
LWPOLYLINE
  5
9D
330
17
100
AcDbEntity
  8
WALL
100
AcDbPolyline
 90
4
 70
1
 10
816.4285714285714
 20
631.0714285714286
 10
863.5714285714286
 20
631.0714285714286
 10
863.5714285714286
 20
624.6428571428571
 10
816.4285714285714
 20
624.6428571428571
  0
HATCH
  5
9E
330
17
100
AcDbEntity
  8
WALL
100
AcDbHatch
 10
0.0
 20
0.0
 30
0.0
210
0.0
220
0.0
230
1.0
  2
SOLID
 70
1
 71
0
 91
1
 92
3
 72
0
 73
1
 93
4
 10
816.4285714285714
 20
631.0714285714286
 10
863.5714285714286
 20
631.0714285714286
 10
863.5714285714286
 20
624.6428571428571
 10
816.4285714285714
 20
624.6428571428571
 97
0
 75
1
 76
1
 98
0
  0
LWPOLYLINE
  5
9F
330
17
100
AcDbEntity
  8
WALL
100
AcDbPolyline
 90
4
 70
1
 10
537.8571428571429
 20
611.7857142857142
 10
563.5714285714286
 20
611.7857142857142
 10
563.5714285714286
 20
607.5
 10
537.8571428571429
 20
607.5
  0
HATCH
  5
A0
330
17
100
AcDbEntity
  8
WALL
100
AcDbHatch
 10
0.0
 20
0.0
 30
0.0
210
0.0
220
0.0
230
1.0
  2
SOLID
 70
1
 71
0
 91
1
 92
3
 72
0
 73
1
 93
4
 10
537.8571428571429
 20
611.7857142857142
 10
563.5714285714286
 20
611.7857142857142
 10
563.5714285714286
 20
607.5
 10
537.8571428571429
 20
607.5
 97
0
 75
1
 76
1
 98
0
  0
LWPOLYLINE
  5
A1
330
17
100
AcDbEntity
  8
WALL
100
AcDbPolyline
 90
4
 70
1
 10
147.85714285714286
 20
605.3571428571429
 10
177.85714285714286
 20
605.3571428571429
 10
177.85714285714286
 20
601.0714285714286
 10
147.85714285714286
 20
601.0714285714286
  0
HATCH
  5
A2
330
17
100
AcDbEntity
  8
WALL
100
AcDbHatch
 10
0.0
 20
0.0
 30
0.0
210
0.0
220
0.0
230
1.0
  2
SOLID
 70
1
 71
0
 91
1
 92
3
 72
0
 73
1
 93
4
 10
147.85714285714286
 20
605.3571428571429
 10
177.85714285714286
 20
605.3571428571429
 10
177.85714285714286
 20
601.0714285714286
 10
147.85714285714286
 20
601.0714285714286
 97
0
 75
1
 76
1
 98
0
  0
LWPOLYLINE
  5
A3
330
17
100
AcDbEntity
  8
WALL
100
AcDbPolyline
 90
4
 70
1
 10
398.57142857142856
 20
605.3571428571429
 10
422.1428571428571
 20
605.3571428571429
 10
422.1428571428571
 20
601.0714285714286
 10
398.57142857142856
 20
601.0714285714286
  0
HATCH
  5
A4
330
17
100
AcDbEntity
  8
WALL
100
AcDbHatch
 10
0.0
 20
0.0
 30
0.0
210
0.0
220
0.0
230
1.0
  2
SOLID
 70
1
 71
0
 91
1
 92
3
 72
0
 73
1
 93
4
 10
398.57142857142856
 20
605.3571428571429
 10
422.1428571428571
 20
605.3571428571429
 10
422.1428571428571
 20
601.0714285714286
 10
398.57142857142856
 20
601.0714285714286
 97
0
 75
1
 76
1
 98
0
  0
LWPOLYLINE
  5
A5
330
17
100
AcDbEntity
  8
WALL
100
AcDbPolyline
 90
4
 70
1
 10
1043.5714285714284
 20
601.0714285714286
 10
1065.0
 20
601.0714285714286
 10
1065.0
 20
595.7142857142857
 10
1043.5714285714284
 20
595.7142857142857
  0
HATCH
  5
A6
330
17
100
AcDbEntity
  8
WALL
100
AcDbHatch
 10
0.0
 20
0.0
 30
0.0
210
0.0
220
0.0
230
1.0
  2
SOLID
 70
1
 71
0
 91
1
 92
3
 72
0
 73
1
 93
4
 10
1043.5714285714284
 20
601.0714285714286
 10
1065.0
 20
601.0714285714286
 10
1065.0
 20
595.7142857142857
 10
1043.5714285714284
 20
595.7142857142857
 97
0
 75
1
 76
1
 98
0
  0
LWPOLYLINE
  5
A7
330
17
100
AcDbEntity
  8
WALL
100
AcDbPolyline
 90
4
 70
1
 10
139.28571428571428
 20
590.3571428571429
 10
167.14285714285714
 20
590.3571428571429
 10
167.14285714285714
 20
583.9285714285714
 10
139.28571428571428
 20
583.9285714285714
  0
HATCH
  5
A8
330
17
100
AcDbEntity
  8
WALL
100
AcDbHatch
 10
0.0
 20
0.0
 30
0.0
210
0.0
220
0.0
230
1.0
  2
SOLID
 70
1
 71
0
 91
1
 92
3
 72
0
 73
1
 93
4
 10
139.28571428571428
 20
590.3571428571429
 10
167.14285714285714
 20
590.3571428571429
 10
167.14285714285714
 20
583.9285714285714
 10
139.28571428571428
 20
583.9285714285714
 97
0
 75
1
 76
1
 98
0
  0
LWPOLYLINE
  5
A9
330
17
100
AcDbEntity
  8
WALL
100
AcDbPolyline
 90
4
 70
1
 10
402.85714285714283
 20
590.3571428571429
 10
424.2857142857143
 20
590.3571428571429
 10
424.2857142857143
 20
587.1428571428571
 10
402.85714285714283
 20
587.1428571428571
  0
HATCH
  5
AA
330
17
100
AcDbEntity
  8
WALL
100
AcDbHatch
 10
0.0
 20
0.0
 30
0.0
210
0.0
220
0.0
230
1.0
  2
SOLID
 70
1
 71
0
 91
1
 92
3
 72
0
 73
1
 93
4
 10
402.85714285714283
 20
590.3571428571429
 10
424.2857142857143
 20
590.3571428571429
 10
424.2857142857143
 20
587.1428571428571
 10
402.85714285714283
 20
587.1428571428571
 97
0
 75
1
 76
1
 98
0
  0
LWPOLYLINE
  5
AB
330
17
100
AcDbEntity
  8
WALL
100
AcDbPolyline
 90
4
 70
1
 10
1037.142857142857
 20
553.9285714285714
 10
1062.857142857143
 20
553.9285714285714
 10
1062.857142857143
 20
549.6428571428571
 10
1037.142857142857
 20
549.6428571428571
  0
HATCH
  5
AC
330
17
100
AcDbEntity
  8
WALL
100
AcDbHatch
 10
0.0
 20
0.0
 30
0.0
210
0.0
220
0.0
230
1.0
  2
SOLID
 70
1
 71
0
 91
1
 92
3
 72
0
 73
1
 93
4
 10
1037.142857142857
 20
553.9285714285714
 10
1062.857142857143
 20
553.9285714285714
 10
1062.857142857143
 20
549.6428571428571
 10
1037.142857142857
 20
549.6428571428571
 97
0
 75
1
 76
1
 98
0
  0
LWPOLYLINE
  5
AD
330
17
100
AcDbEntity
  8
WALL
100
AcDbPolyline
 90
4
 70
1
 10
207.85714285714286
 20
551.7857142857142
 10
278.57142857142856
 20
551.7857142857142
 10
278.57142857142856
 20
544.2857142857142
 10
207.85714285714286
 20
544.2857142857142
  0
HATCH
  5
AE
330
17
100
AcDbEntity
  8
WALL
100
AcDbHatch
 10
0.0
 20
0.0
 30
0.0
210
0.0
220
0.0
230
1.0
  2
SOLID
 70
1
 71
0
 91
1
 92
3
 72
0
 73
1
 93
4
 10
207.85714285714286
 20
551.7857142857142
 10
278.57142857142856
 20
551.7857142857142
 10
278.57142857142856
 20
544.2857142857142
 10
207.85714285714286
 20
544.2857142857142
 97
0
 75
1
 76
1
 98
0
  0
LWPOLYLINE
  5
AF
330
17
100
AcDbEntity
  8
WALL
100
AcDbPolyline
 90
4
 70
1
 10
1032.857142857143
 20
538.9285714285714
 10
1072.5
 20
538.9285714285714
 10
1072.5
 20
530.3571428571429
 10
1032.857142857143
 20
530.3571428571429
  0
HATCH
  5
B0
330
17
100
AcDbEntity
  8
WALL
100
AcDbHatch
 10
0.0
 20
0.0
 30
0.0
210
0.0
220
0.0
230
1.0
  2
SOLID
 70
1
 71
0
 91
1
 92
3
 72
0
 73
1
 93
4
 10
1032.857142857143
 20
538.9285714285714
 10
1072.5
 20
538.9285714285714
 10
1072.5
 20
530.3571428571429
 10
1032.857142857143
 20
530.3571428571429
 97
0
 75
1
 76
1
 98
0
  0
LWPOLYLINE
  5
B1
330
17
100
AcDbEntity
  8
WALL
100
AcDbPolyline
 90
4
 70
1
 10
837.8571428571428
 20
530.3571428571429
 10
857.1428571428571
 20
530.3571428571429
 10
857.1428571428571
 20
529.2857142857142
 10
837.8571428571428
 20
529.2857142857142
  0
HATCH
  5
B2
330
17
100
AcDbEntity
  8
WALL
100
AcDbHatch
 10
0.0
 20
0.0
 30
0.0
210
0.0
220
0.0
230
1.0
  2
SOLID
 70
1
 71
0
 91
1
 92
3
 72
0
 73
1
 93
4
 10
837.8571428571428
 20
530.3571428571429
 10
857.1428571428571
 20
530.3571428571429
 10
857.1428571428571
 20
529.2857142857142
 10
837.8571428571428
 20
529.2857142857142
 97
0
 75
1
 76
1
 98
0
  0
LWPOLYLINE
  5
B3
330
17
100
AcDbEntity
  8
WALL
100
AcDbPolyline
 90
4
 70
1
 10
835.7142857142857
 20
521.7857142857142
 10
855.0
 20
521.7857142857142
 10
855.0
 20
520.7142857142857
 10
835.7142857142857
 20
520.7142857142857
  0
HATCH
  5
B4
330
17
100
AcDbEntity
  8
WALL
100
AcDbHatch
 10
0.0
 20
0.0
 30
0.0
210
0.0
220
0.0
230
1.0
  2
SOLID
 70
1
 71
0
 91
1
 92
3
 72
0
 73
1
 93
4
 10
835.7142857142857
 20
521.7857142857142
 10
855.0
 20
521.7857142857142
 10
855.0
 20
520.7142857142857
 10
835.7142857142857
 20
520.7142857142857
 97
0
 75
1
 76
1
 98
0
  0
LWPOLYLINE
  5
B5
330
17
100
AcDbEntity
  8
WALL
100
AcDbPolyline
 90
4
 70
1
 10
835.7142857142857
 20
511.07142857142856
 10
861.4285714285714
 20
511.07142857142856
 10
861.4285714285714
 20
506.7857142857143
 10
835.7142857142857
 20
506.7857142857143
  0
HATCH
  5
B6
330
17
100
AcDbEntity
  8
WALL
100
AcDbHatch
 10
0.0
 20
0.0
 30
0.0
210
0.0
220
0.0
230
1.0
  2
SOLID
 70
1
 71
0
 91
1
 92
3
 72
0
 73
1
 93
4
 10
835.7142857142857
 20
511.07142857142856
 10
861.4285714285714
 20
511.07142857142856
 10
861.4285714285714
 20
506.7857142857143
 10
835.7142857142857
 20
506.7857142857143
 97
0
 75
1
 76
1
 98
0
  0
LWPOLYLINE
  5
B7
330
17
100
AcDbEntity
  8
WALL
100
AcDbPolyline
 90
4
 70
1
 10
366.42857142857144
 20
493.9285714285714
 10
385.7142857142857
 20
493.9285714285714
 10
385.7142857142857
 20
492.85714285714283
 10
366.42857142857144
 20
492.85714285714283
  0
HATCH
  5
B8
330
17
100
AcDbEntity
  8
WALL
100
AcDbHatch
 10
0.0
 20
0.0
 30
0.0
210
0.0
220
0.0
230
1.0
  2
SOLID
 70
1
 71
0
 91
1
 92
3
 72
0
 73
1
 93
4
 10
366.42857142857144
 20
493.9285714285714
 10
385.7142857142857
 20
493.9285714285714
 10
385.7142857142857
 20
492.85714285714283
 10
366.42857142857144
 20
492.85714285714283
 97
0
 75
1
 76
1
 98
0
  0
LWPOLYLINE
  5
B9
330
17
100
AcDbEntity
  8
WALL
100
AcDbPolyline
 90
4
 70
1
 10
816.4285714285714
 20
493.9285714285714
 10
865.7142857142857
 20
493.9285714285714
 10
865.7142857142857
 20
489.6428571428571
 10
816.4285714285714
 20
489.6428571428571
  0
HATCH
  5
BA
330
17
100
AcDbEntity
  8
WALL
100
AcDbHatch
 10
0.0
 20
0.0
 30
0.0
210
0.0
220
0.0
230
1.0
  2
SOLID
 70
1
 71
0
 91
1
 92
3
 72
0
 73
1
 93
4
 10
816.4285714285714
 20
493.9285714285714
 10
865.7142857142857
 20
493.9285714285714
 10
865.7142857142857
 20
489.6428571428571
 10
816.4285714285714
 20
489.6428571428571
 97
0
 75
1
 76
1
 98
0
  0
LWPOLYLINE
  5
BB
330
17
100
AcDbEntity
  8
WALL
100
AcDbPolyline
 90
4
 70
1
 10
801.4285714285714
 20
476.7857142857143
 10
887.1428571428571
 20
476.7857142857143
 10
887.1428571428571
 20
468.2142857142857
 10
801.4285714285714
 20
468.2142857142857
  0
HATCH
  5
BC
330
17
100
AcDbEntity
  8
WALL
100
AcDbHatch
 10
0.0
 20
0.0
 30
0.0
210
0.0
220
0.0
230
1.0
  2
SOLID
 70
1
 71
0
 91
1
 92
3
 72
0
 73
1
 93
4
 10
801.4285714285714
 20
476.7857142857143
 10
887.1428571428571
 20
476.7857142857143
 10
887.1428571428571
 20
468.2142857142857
 10
801.4285714285714
 20
468.2142857142857
 97
0
 75
1
 76
1
 98
0
  0
LWPOLYLINE
  5
BD
330
17
100
AcDbEntity
  8
WALL
100
AcDbPolyline
 90
4
 70
1
 10
641.7857142857142
 20
473.57142857142856
 10
670.7142857142857
 20
473.57142857142856
 10
670.7142857142857
 20
468.2142857142857
 10
641.7857142857142
 20
468.2142857142857
  0
HATCH
  5
BE
330
17
100
AcDbEntity
  8
WALL
100
AcDbHatch
 10
0.0
 20
0.0
 30
0.0
210
0.0
220
0.0
230
1.0
  2
SOLID
 70
1
 71
0
 91
1
 92
3
 72
0
 73
1
 93
4
 10
641.7857142857142
 20
473.57142857142856
 10
670.7142857142857
 20
473.57142857142856
 10
670.7142857142857
 20
468.2142857142857
 10
641.7857142857142
 20
468.2142857142857
 97
0
 75
1
 76
1
 98
0
  0
LWPOLYLINE
  5
BF
330
17
100
AcDbEntity
  8
WALL
100
AcDbPolyline
 90
4
 70
1
 10
786.4285714285714
 20
463.9285714285714
 10
866.7857142857142
 20
463.9285714285714
 10
866.7857142857142
 20
448.9285714285714
 10
786.4285714285714
 20
448.9285714285714
  0
HATCH
  5
C0
330
17
100
AcDbEntity
  8
WALL
100
AcDbHatch
 10
0.0
 20
0.0
 30
0.0
210
0.0
220
0.0
230
1.0
  2
SOLID
 70
1
 71
0
 91
1
 92
3
 72
0
 73
1
 93
4
 10
786.4285714285714
 20
463.9285714285714
 10
866.7857142857142
 20
463.9285714285714
 10
866.7857142857142
 20
448.9285714285714
 10
786.4285714285714
 20
448.9285714285714
 97
0
 75
1
 76
1
 98
0
  0
LWPOLYLINE
  5
C1
330
17
100
AcDbEntity
  8
WALL
100
AcDbPolyline
 90
4
 70
1
 10
870.0
 20
463.9285714285714
 10
889.2857142857142
 20
463.9285714285714
 10
889.2857142857142
 20
460.7142857142857
 10
870.0
 20
460.7142857142857
  0
HATCH
  5
C2
330
17
100
AcDbEntity
  8
WALL
100
AcDbHatch
 10
0.0
 20
0.0
 30
0.0
210
0.0
220
0.0
230
1.0
  2
SOLID
 70
1
 71
0
 91
1
 92
3
 72
0
 73
1
 93
4
 10
870.0
 20
463.9285714285714
 10
889.2857142857142
 20
463.9285714285714
 10
889.2857142857142
 20
460.7142857142857
 10
870.0
 20
460.7142857142857
 97
0
 75
1
 76
1
 98
0
  0
LWPOLYLINE
  5
C3
330
17
100
AcDbEntity
  8
WALL
100
AcDbPolyline
 90
4
 70
1
 10
627.8571428571429
 20
461.7857142857143
 10
647.1428571428571
 20
461.7857142857143
 10
647.1428571428571
 20
460.7142857142857
 10
627.8571428571429
 20
460.7142857142857
  0
HATCH
  5
C4
330
17
100
AcDbEntity
  8
WALL
100
AcDbHatch
 10
0.0
 20
0.0
 30
0.0
210
0.0
220
0.0
230
1.0
  2
SOLID
 70
1
 71
0
 91
1
 92
3
 72
0
 73
1
 93
4
 10
627.8571428571429
 20
461.7857142857143
 10
647.1428571428571
 20
461.7857142857143
 10
647.1428571428571
 20
460.7142857142857
 10
627.8571428571429
 20
460.7142857142857
 97
0
 75
1
 76
1
 98
0
  0
LWPOLYLINE
  5
C5
330
17
100
AcDbEntity
  8
WALL
100
AcDbPolyline
 90
4
 70
1
 10
632.1428571428571
 20
446.7857142857143
 10
653.5714285714286
 20
446.7857142857143
 10
653.5714285714286
 20
445.7142857142857
 10
632.1428571428571
 20
445.7142857142857
  0
HATCH
  5
C6
330
17
100
AcDbEntity
  8
WALL
100
AcDbHatch
 10
0.0
 20
0.0
 30
0.0
210
0.0
220
0.0
230
1.0
  2
SOLID
 70
1
 71
0
 91
1
 92
3
 72
0
 73
1
 93
4
 10
632.1428571428571
 20
446.7857142857143
 10
653.5714285714286
 20
446.7857142857143
 10
653.5714285714286
 20
445.7142857142857
 10
632.1428571428571
 20
445.7142857142857
 97
0
 75
1
 76
1
 98
0
  0
LWPOLYLINE
  5
C7
330
17
100
AcDbEntity
  8
WALL
100
AcDbPolyline
 90
4
 70
1
 10
627.8571428571429
 20
440.35714285714283
 10
649.2857142857142
 20
440.35714285714283
 10
649.2857142857142
 20
439.2857142857143
 10
627.8571428571429
 20
439.2857142857143
  0
HATCH
  5
C8
330
17
100
AcDbEntity
  8
WALL
100
AcDbHatch
 10
0.0
 20
0.0
 30
0.0
210
0.0
220
0.0
230
1.0
  2
SOLID
 70
1
 71
0
 91
1
 92
3
 72
0
 73
1
 93
4
 10
627.8571428571429
 20
440.35714285714283
 10
649.2857142857142
 20
440.35714285714283
 10
649.2857142857142
 20
439.2857142857143
 10
627.8571428571429
 20
439.2857142857143
 97
0
 75
1
 76
1
 98
0
  0
LWPOLYLINE
  5
C9
330
17
100
AcDbEntity
  8
WALL
100
AcDbPolyline
 90
4
 70
1
 10
199.28571428571428
 20
436.07142857142856
 10
270.0
 20
436.07142857142856
 10
270.0
 20
429.6428571428571
 10
199.28571428571428
 20
429.6428571428571
  0
HATCH
  5
CA
330
17
100
AcDbEntity
  8
WALL
100
AcDbHatch
 10
0.0
 20
0.0
 30
0.0
210
0.0
220
0.0
230
1.0
  2
SOLID
 70
1
 71
0
 91
1
 92
3
 72
0
 73
1
 93
4
 10
199.28571428571428
 20
436.07142857142856
 10
270.0
 20
436.07142857142856
 10
270.0
 20
429.6428571428571
 10
199.28571428571428
 20
429.6428571428571
 97
0
 75
1
 76
1
 98
0
  0
LWPOLYLINE
  5
CB
330
17
100
AcDbEntity
  8
WALL
100
AcDbPolyline
 90
4
 70
1
 10
302.1428571428571
 20
436.07142857142856
 10
367.5
 20
436.07142857142856
 10
367.5
 20
429.6428571428571
 10
302.1428571428571
 20
429.6428571428571
  0
HATCH
  5
CC
330
17
100
AcDbEntity
  8
WALL
100
AcDbHatch
 10
0.0
 20
0.0
 30
0.0
210
0.0
220
0.0
230
1.0
  2
SOLID
 70
1
 71
0
 91
1
 92
3
 72
0
 73
1
 93
4
 10
302.1428571428571
 20
436.07142857142856
 10
367.5
 20
436.07142857142856
 10
367.5
 20
429.6428571428571
 10
302.1428571428571
 20
429.6428571428571
 97
0
 75
1
 76
1
 98
0
  0
LWPOLYLINE
  5
CD
330
17
100
AcDbEntity
  8
WALL
100
AcDbPolyline
 90
4
 70
1
 10
257.1428571428571
 20
418.9285714285714
 10
300.0
 20
418.9285714285714
 10
300.0
 20
414.6428571428571
 10
257.1428571428571
 20
414.6428571428571
  0
HATCH
  5
CE
330
17
100
AcDbEntity
  8
WALL
100
AcDbHatch
 10
0.0
 20
0.0
 30
0.0
210
0.0
220
0.0
230
1.0
  2
SOLID
 70
1
 71
0
 91
1
 92
3
 72
0
 73
1
 93
4
 10
257.1428571428571
 20
418.9285714285714
 10
300.0
 20
418.9285714285714
 10
300.0
 20
414.6428571428571
 10
257.1428571428571
 20
414.6428571428571
 97
0
 75
1
 76
1
 98
0
  0
LWPOLYLINE
  5
CF
330
17
100
AcDbEntity
  8
WALL
100
AcDbPolyline
 90
4
 70
1
 10
300.0
 20
416.7857142857143
 10
370.7142857142857
 20
416.7857142857143
 10
370.7142857142857
 20
408.2142857142857
 10
300.0
 20
408.2142857142857
  0
HATCH
  5
D0
330
17
100
AcDbEntity
  8
WALL
100
AcDbHatch
 10
0.0
 20
0.0
 30
0.0
210
0.0
220
0.0
230
1.0
  2
SOLID
 70
1
 71
0
 91
1
 92
3
 72
0
 73
1
 93
4
 10
300.0
 20
416.7857142857143
 10
370.7142857142857
 20
416.7857142857143
 10
370.7142857142857
 20
408.2142857142857
 10
300.0
 20
408.2142857142857
 97
0
 75
1
 76
1
 98
0
  0
LWPOLYLINE
  5
D1
330
17
100
AcDbEntity
  8
WALL
100
AcDbPolyline
 90
4
 70
1
 10
552.8571428571429
 20
416.7857142857143
 10
572.1428571428571
 20
416.7857142857143
 10
572.1428571428571
 20
415.7142857142857
 10
552.8571428571429
 20
415.7142857142857
  0
HATCH
  5
D2
330
17
100
AcDbEntity
  8
WALL
100
AcDbHatch
 10
0.0
 20
0.0
 30
0.0
210
0.0
220
0.0
230
1.0
  2
SOLID
 70
1
 71
0
 91
1
 92
3
 72
0
 73
1
 93
4
 10
552.8571428571429
 20
416.7857142857143
 10
572.1428571428571
 20
416.7857142857143
 10
572.1428571428571
 20
415.7142857142857
 10
552.8571428571429
 20
415.7142857142857
 97
0
 75
1
 76
1
 98
0
  0
LWPOLYLINE
  5
D3
330
17
100
AcDbEntity
  8
WALL
100
AcDbPolyline
 90
4
 70
1
 10
625.7142857142857
 20
416.7857142857143
 10
649.2857142857142
 20
416.7857142857143
 10
649.2857142857142
 20
414.6428571428571
 10
625.7142857142857
 20
414.6428571428571
  0
HATCH
  5
D4
330
17
100
AcDbEntity
  8
WALL
100
AcDbHatch
 10
0.0
 20
0.0
 30
0.0
210
0.0
220
0.0
230
1.0
  2
SOLID
 70
1
 71
0
 91
1
 92
3
 72
0
 73
1
 93
4
 10
625.7142857142857
 20
416.7857142857143
 10
649.2857142857142
 20
416.7857142857143
 10
649.2857142857142
 20
414.6428571428571
 10
625.7142857142857
 20
414.6428571428571
 97
0
 75
1
 76
1
 98
0
  0
LWPOLYLINE
  5
D5
330
17
100
AcDbEntity
  8
WALL
100
AcDbPolyline
 90
4
 70
1
 10
1080.0
 20
410.35714285714283
 10
1120.7142857142858
 20
410.35714285714283
 10
1120.7142857142858
 20
403.92857142857144
 10
1080.0
 20
403.92857142857144
  0
HATCH
  5
D6
330
17
100
AcDbEntity
  8
WALL
100
AcDbHatch
 10
0.0
 20
0.0
 30
0.0
210
0.0
220
0.0
230
1.0
  2
SOLID
 70
1
 71
0
 91
1
 92
3
 72
0
 73
1
 93
4
 10
1080.0
 20
410.35714285714283
 10
1120.7142857142858
 20
410.35714285714283
 10
1120.7142857142858
 20
403.92857142857144
 10
1080.0
 20
403.92857142857144
 97
0
 75
1
 76
1
 98
0
  0
LWPOLYLINE
  5
D7
330
17
100
AcDbEntity
  8
WALL
100
AcDbPolyline
 90
4
 70
1
 10
945.0
 20
403.92857142857144
 10
1077.857142857143
 20
403.92857142857144
 10
1077.857142857143
 20
391.07142857142856
 10
945.0
 20
391.07142857142856
  0
HATCH
  5
D8
330
17
100
AcDbEntity
  8
WALL
100
AcDbHatch
 10
0.0
 20
0.0
 30
0.0
210
0.0
220
0.0
230
1.0
  2
SOLID
 70
1
 71
0
 91
1
 92
3
 72
0
 73
1
 93
4
 10
945.0
 20
403.92857142857144
 10
1077.857142857143
 20
403.92857142857144
 10
1077.857142857143
 20
391.07142857142856
 10
945.0
 20
391.07142857142856
 97
0
 75
1
 76
1
 98
0
  0
LWPOLYLINE
  5
D9
330
17
100
AcDbEntity
  8
WALL
100
AcDbPolyline
 90
4
 70
1
 10
1122.857142857143
 20
401.7857142857143
 10
1146.4285714285713
 20
401.7857142857143
 10
1146.4285714285713
 20
395.35714285714283
 10
1122.857142857143
 20
395.35714285714283
  0
HATCH
  5
DA
330
17
100
AcDbEntity
  8
WALL
100
AcDbHatch
 10
0.0
 20
0.0
 30
0.0
210
0.0
220
0.0
230
1.0
  2
SOLID
 70
1
 71
0
 91
1
 92
3
 72
0
 73
1
 93
4
 10
1122.857142857143
 20
401.7857142857143
 10
1146.4285714285713
 20
401.7857142857143
 10
1146.4285714285713
 20
395.35714285714283
 10
1122.857142857143
 20
395.35714285714283
 97
0
 75
1
 76
1
 98
0
  0
LWPOLYLINE
  5
DB
330
17
100
AcDbEntity
  8
WALL
100
AcDbPolyline
 90
4
 70
1
 10
625.7142857142857
 20
397.5
 10
649.2857142857142
 20
397.5
 10
649.2857142857142
 20
394.2857142857143
 10
625.7142857142857
 20
394.2857142857143
  0
HATCH
  5
DC
330
17
100
AcDbEntity
  8
WALL
100
AcDbHatch
 10
0.0
 20
0.0
 30
0.0
210
0.0
220
0.0
230
1.0
  2
SOLID
 70
1
 71
0
 91
1
 92
3
 72
0
 73
1
 93
4
 10
625.7142857142857
 20
397.5
 10
649.2857142857142
 20
397.5
 10
649.2857142857142
 20
394.2857142857143
 10
625.7142857142857
 20
394.2857142857143
 97
0
 75
1
 76
1
 98
0
  0
LWPOLYLINE
  5
DD
330
17
100
AcDbEntity
  8
WALL
100
AcDbPolyline
 90
4
 70
1
 10
912.8571428571428
 20
397.5
 10
940.7142857142857
 20
397.5
 10
940.7142857142857
 20
393.2142857142857
 10
912.8571428571428
 20
393.2142857142857
  0
HATCH
  5
DE
330
17
100
AcDbEntity
  8
WALL
100
AcDbHatch
 10
0.0
 20
0.0
 30
0.0
210
0.0
220
0.0
230
1.0
  2
SOLID
 70
1
 71
0
 91
1
 92
3
 72
0
 73
1
 93
4
 10
912.8571428571428
 20
397.5
 10
940.7142857142857
 20
397.5
 10
940.7142857142857
 20
393.2142857142857
 10
912.8571428571428
 20
393.2142857142857
 97
0
 75
1
 76
1
 98
0
  0
LWPOLYLINE
  5
DF
330
17
100
AcDbEntity
  8
WALL
100
AcDbPolyline
 90
4
 70
1
 10
604.2857142857142
 20
386.7857142857143
 10
668.5714285714286
 20
386.7857142857143
 10
668.5714285714286
 20
380.35714285714283
 10
604.2857142857142
 20
380.35714285714283
  0
HATCH
  5
E0
330
17
100
AcDbEntity
  8
WALL
100
AcDbHatch
 10
0.0
 20
0.0
 30
0.0
210
0.0
220
0.0
230
1.0
  2
SOLID
 70
1
 71
0
 91
1
 92
3
 72
0
 73
1
 93
4
 10
604.2857142857142
 20
386.7857142857143
 10
668.5714285714286
 20
386.7857142857143
 10
668.5714285714286
 20
380.35714285714283
 10
604.2857142857142
 20
380.35714285714283
 97
0
 75
1
 76
1
 98
0
  0
LWPOLYLINE
  5
E1
330
17
100
AcDbEntity
  8
WALL
100
AcDbPolyline
 90
4
 70
1
 10
1122.857142857143
 20
387.85714285714283
 10
1146.4285714285713
 20
387.85714285714283
 10
1146.4285714285713
 20
385.7142857142857
 10
1122.857142857143
 20
385.7142857142857
  0
HATCH
  5
E2
330
17
100
AcDbEntity
  8
WALL
100
AcDbHatch
 10
0.0
 20
0.0
 30
0.0
210
0.0
220
0.0
230
1.0
  2
SOLID
 70
1
 71
0
 91
1
 92
3
 72
0
 73
1
 93
4
 10
1122.857142857143
 20
387.85714285714283
 10
1146.4285714285713
 20
387.85714285714283
 10
1146.4285714285713
 20
385.7142857142857
 10
1122.857142857143
 20
385.7142857142857
 97
0
 75
1
 76
1
 98
0
  0
LWPOLYLINE
  5
E3
330
17
100
AcDbEntity
  8
WALL
100
AcDbPolyline
 90
4
 70
1
 10
919.2857142857142
 20
384.6428571428571
 10
1058.5714285714284
 20
384.6428571428571
 10
1058.5714285714284
 20
378.2142857142857
 10
919.2857142857142
 20
378.2142857142857
  0
HATCH
  5
E4
330
17
100
AcDbEntity
  8
WALL
100
AcDbHatch
 10
0.0
 20
0.0
 30
0.0
210
0.0
220
0.0
230
1.0
  2
SOLID
 70
1
 71
0
 91
1
 92
3
 72
0
 73
1
 93
4
 10
919.2857142857142
 20
384.6428571428571
 10
1058.5714285714284
 20
384.6428571428571
 10
1058.5714285714284
 20
378.2142857142857
 10
919.2857142857142
 20
378.2142857142857
 97
0
 75
1
 76
1
 98
0
  0
LWPOLYLINE
  5
E5
330
17
100
AcDbEntity
  8
WALL
100
AcDbPolyline
 90
4
 70
1
 10
1101.4285714285713
 20
384.6428571428571
 10
1120.7142857142858
 20
384.6428571428571
 10
1120.7142857142858
 20
383.57142857142856
 10
1101.4285714285713
 20
383.57142857142856
  0
HATCH
  5
E6
330
17
100
AcDbEntity
  8
WALL
100
AcDbHatch
 10
0.0
 20
0.0
 30
0.0
210
0.0
220
0.0
230
1.0
  2
SOLID
 70
1
 71
0
 91
1
 92
3
 72
0
 73
1
 93
4
 10
1101.4285714285713
 20
384.6428571428571
 10
1120.7142857142858
 20
384.6428571428571
 10
1120.7142857142858
 20
383.57142857142856
 10
1101.4285714285713
 20
383.57142857142856
 97
0
 75
1
 76
1
 98
0
  0
LWPOLYLINE
  5
E7
330
17
100
AcDbEntity
  8
WALL
100
AcDbPolyline
 90
4
 70
1
 10
593.5714285714286
 20
376.07142857142856
 10
634.2857142857142
 20
376.07142857142856
 10
634.2857142857142
 20
367.5
 10
593.5714285714286
 20
367.5
  0
HATCH
  5
E8
330
17
100
AcDbEntity
  8
WALL
100
AcDbHatch
 10
0.0
 20
0.0
 30
0.0
210
0.0
220
0.0
230
1.0
  2
SOLID
 70
1
 71
0
 91
1
 92
3
 72
0
 73
1
 93
4
 10
593.5714285714286
 20
376.07142857142856
 10
634.2857142857142
 20
376.07142857142856
 10
634.2857142857142
 20
367.5
 10
593.5714285714286
 20
367.5
 97
0
 75
1
 76
1
 98
0
  0
LWPOLYLINE
  5
E9
330
17
100
AcDbEntity
  8
WALL
100
AcDbPolyline
 90
4
 70
1
 10
808.9285714285714
 20
376.07142857142856
 10
891.4285714285714
 20
376.07142857142856
 10
891.4285714285714
 20
363.2142857142857
 10
808.9285714285714
 20
363.2142857142857
  0
HATCH
  5
EA
330
17
100
AcDbEntity
  8
WALL
100
AcDbHatch
 10
0.0
 20
0.0
 30
0.0
210
0.0
220
0.0
230
1.0
  2
SOLID
 70
1
 71
0
 91
1
 92
3
 72
0
 73
1
 93
4
 10
808.9285714285714
 20
376.07142857142856
 10
891.4285714285714
 20
376.07142857142856
 10
891.4285714285714
 20
363.2142857142857
 10
808.9285714285714
 20
363.2142857142857
 97
0
 75
1
 76
1
 98
0
  0
LWPOLYLINE
  5
EB
330
17
100
AcDbEntity
  8
WALL
100
AcDbPolyline
 90
4
 70
1
 10
1062.857142857143
 20
376.07142857142856
 10
1129.2857142857142
 20
376.07142857142856
 10
1129.2857142857142
 20
365.35714285714283
 10
1062.857142857143
 20
365.35714285714283
  0
HATCH
  5
EC
330
17
100
AcDbEntity
  8
WALL
100
AcDbHatch
 10
0.0
 20
0.0
 30
0.0
210
0.0
220
0.0
230
1.0
  2
SOLID
 70
1
 71
0
 91
1
 92
3
 72
0
 73
1
 93
4
 10
1062.857142857143
 20
376.07142857142856
 10
1129.2857142857142
 20
376.07142857142856
 10
1129.2857142857142
 20
365.35714285714283
 10
1062.857142857143
 20
365.35714285714283
 97
0
 75
1
 76
1
 98
0
  0
LWPOLYLINE
  5
ED
330
17
100
AcDbEntity
  8
WALL
100
AcDbPolyline
 90
4
 70
1
 10
235.7142857142857
 20
369.6428571428571
 10
427.5
 20
369.6428571428571
 10
427.5
 20
363.2142857142857
 10
235.7142857142857
 20
363.2142857142857
  0
HATCH
  5
EE
330
17
100
AcDbEntity
  8
WALL
100
AcDbHatch
 10
0.0
 20
0.0
 30
0.0
210
0.0
220
0.0
230
1.0
  2
SOLID
 70
1
 71
0
 91
1
 92
3
 72
0
 73
1
 93
4
 10
235.7142857142857
 20
369.6428571428571
 10
427.5
 20
369.6428571428571
 10
427.5
 20
363.2142857142857
 10
235.7142857142857
 20
363.2142857142857
 97
0
 75
1
 76
1
 98
0
  0
LWPOLYLINE
  5
EF
330
17
100
AcDbEntity
  8
WALL
100
AcDbPolyline
 90
4
 70
1
 10
544.2857142857142
 20
369.6428571428571
 10
580.7142857142857
 20
369.6428571428571
 10
580.7142857142857
 20
365.35714285714283
 10
544.2857142857142
 20
365.35714285714283
  0
HATCH
  5
F0
330
17
100
AcDbEntity
  8
WALL
100
AcDbHatch
 10
0.0
 20
0.0
 30
0.0
210
0.0
220
0.0
230
1.0
  2
SOLID
 70
1
 71
0
 91
1
 92
3
 72
0
 73
1
 93
4
 10
544.2857142857142
 20
369.6428571428571
 10
580.7142857142857
 20
369.6428571428571
 10
580.7142857142857
 20
365.35714285714283
 10
544.2857142857142
 20
365.35714285714283
 97
0
 75
1
 76
1
 98
0
  0
LWPOLYLINE
  5
F1
330
17
100
AcDbEntity
  8
WALL
100
AcDbPolyline
 90
4
 70
1
 10
453.2142857142857
 20
363.2142857142857
 10
580.7142857142857
 20
363.2142857142857
 10
580.7142857142857
 20
348.2142857142857
 10
453.2142857142857
 20
348.2142857142857
  0
HATCH
  5
F2
330
17
100
AcDbEntity
  8
WALL
100
AcDbHatch
 10
0.0
 20
0.0
 30
0.0
210
0.0
220
0.0
230
1.0
  2
SOLID
 70
1
 71
0
 91
1
 92
3
 72
0
 73
1
 93
4
 10
453.2142857142857
 20
363.2142857142857
 10
580.7142857142857
 20
363.2142857142857
 10
580.7142857142857
 20
348.2142857142857
 10
453.2142857142857
 20
348.2142857142857
 97
0
 75
1
 76
1
 98
0
  0
LWPOLYLINE
  5
F3
330
17
100
AcDbEntity
  8
WALL
100
AcDbPolyline
 90
4
 70
1
 10
120.0
 20
361.07142857142856
 10
147.85714285714286
 20
361.07142857142856
 10
147.85714285714286
 20
360.0
 10
120.0
 20
360.0
  0
HATCH
  5
F4
330
17
100
AcDbEntity
  8
WALL
100
AcDbHatch
 10
0.0
 20
0.0
 30
0.0
210
0.0
220
0.0
230
1.0
  2
SOLID
 70
1
 71
0
 91
1
 92
3
 72
0
 73
1
 93
4
 10
120.0
 20
361.07142857142856
 10
147.85714285714286
 20
361.07142857142856
 10
147.85714285714286
 20
360.0
 10
120.0
 20
360.0
 97
0
 75
1
 76
1
 98
0
  0
LWPOLYLINE
  5
F5
330
17
100
AcDbEntity
  8
WALL
100
AcDbPolyline
 90
4
 70
1
 10
235.7142857142857
 20
361.07142857142856
 10
425.35714285714283
 20
361.07142857142856
 10
425.35714285714283
 20
354.6428571428571
 10
235.7142857142857
 20
354.6428571428571
  0
HATCH
  5
F6
330
17
100
AcDbEntity
  8
WALL
100
AcDbHatch
 10
0.0
 20
0.0
 30
0.0
210
0.0
220
0.0
230
1.0
  2
SOLID
 70
1
 71
0
 91
1
 92
3
 72
0
 73
1
 93
4
 10
235.7142857142857
 20
361.07142857142856
 10
425.35714285714283
 20
361.07142857142856
 10
425.35714285714283
 20
354.6428571428571
 10
235.7142857142857
 20
354.6428571428571
 97
0
 75
1
 76
1
 98
0
  0
LWPOLYLINE
  5
F7
330
17
100
AcDbEntity
  8
WALL
100
AcDbPolyline
 90
4
 70
1
 10
607.5
 20
362.1428571428571
 10
631.0714285714286
 20
362.1428571428571
 10
631.0714285714286
 20
354.6428571428571
 10
607.5
 20
354.6428571428571
  0
HATCH
  5
F8
330
17
100
AcDbEntity
  8
WALL
100
AcDbHatch
 10
0.0
 20
0.0
 30
0.0
210
0.0
220
0.0
230
1.0
  2
SOLID
 70
1
 71
0
 91
1
 92
3
 72
0
 73
1
 93
4
 10
607.5
 20
362.1428571428571
 10
631.0714285714286
 20
362.1428571428571
 10
631.0714285714286
 20
354.6428571428571
 10
607.5
 20
354.6428571428571
 97
0
 75
1
 76
1
 98
0
  0
LWPOLYLINE
  5
F9
330
17
100
AcDbEntity
  8
WALL
100
AcDbPolyline
 90
4
 70
1
 10
817.5
 20
361.07142857142856
 10
891.4285714285714
 20
361.07142857142856
 10
891.4285714285714
 20
346.07142857142856
 10
817.5
 20
346.07142857142856
  0
HATCH
  5
FA
330
17
100
AcDbEntity
  8
WALL
100
AcDbHatch
 10
0.0
 20
0.0
 30
0.0
210
0.0
220
0.0
230
1.0
  2
SOLID
 70
1
 71
0
 91
1
 92
3
 72
0
 73
1
 93
4
 10
817.5
 20
361.07142857142856
 10
891.4285714285714
 20
361.07142857142856
 10
891.4285714285714
 20
346.07142857142856
 10
817.5
 20
346.07142857142856
 97
0
 75
1
 76
1
 98
0
  0
LWPOLYLINE
  5
FB
330
17
100
AcDbEntity
  8
WALL
100
AcDbPolyline
 90
4
 70
1
 10
120.0
 20
355.7142857142857
 10
141.42857142857142
 20
355.7142857142857
 10
141.42857142857142
 20
353.57142857142856
 10
120.0
 20
353.57142857142856
  0
HATCH
  5
FC
330
17
100
AcDbEntity
  8
WALL
100
AcDbHatch
 10
0.0
 20
0.0
 30
0.0
210
0.0
220
0.0
230
1.0
  2
SOLID
 70
1
 71
0
 91
1
 92
3
 72
0
 73
1
 93
4
 10
120.0
 20
355.7142857142857
 10
141.42857142857142
 20
355.7142857142857
 10
141.42857142857142
 20
353.57142857142856
 10
120.0
 20
353.57142857142856
 97
0
 75
1
 76
1
 98
0
  0
LWPOLYLINE
  5
FD
330
17
100
AcDbEntity
  8
WALL
100
AcDbPolyline
 90
4
 70
1
 10
120.0
 20
351.42857142857144
 10
141.42857142857142
 20
351.42857142857144
 10
141.42857142857142
 20
349.2857142857143
 10
120.0
 20
349.2857142857143
  0
HATCH
  5
FE
330
17
100
AcDbEntity
  8
WALL
100
AcDbHatch
 10
0.0
 20
0.0
 30
0.0
210
0.0
220
0.0
230
1.0
  2
SOLID
 70
1
 71
0
 91
1
 92
3
 72
0
 73
1
 93
4
 10
120.0
 20
351.42857142857144
 10
141.42857142857142
 20
351.42857142857144
 10
141.42857142857142
 20
349.2857142857143
 10
120.0
 20
349.2857142857143
 97
0
 75
1
 76
1
 98
0
  0
LWPOLYLINE
  5
FF
330
17
100
AcDbEntity
  8
WALL
100
AcDbPolyline
 90
4
 70
1
 10
120.0
 20
262.5
 10
141.42857142857142
 20
262.5
 10
141.42857142857142
 20
261.42857142857144
 10
120.0
 20
261.42857142857144
  0
HATCH
  5
100
330
17
100
AcDbEntity
  8
WALL
100
AcDbHatch
 10
0.0
 20
0.0
 30
0.0
210
0.0
220
0.0
230
1.0
  2
SOLID
 70
1
 71
0
 91
1
 92
3
 72
0
 73
1
 93
4
 10
120.0
 20
262.5
 10
141.42857142857142
 20
262.5
 10
141.42857142857142
 20
261.42857142857144
 10
120.0
 20
261.42857142857144
 97
0
 75
1
 76
1
 98
0
  0
LWPOLYLINE
  5
101
330
17
100
AcDbEntity
  8
WALL
100
AcDbPolyline
 90
4
 70
1
 10
120.0
 20
257.1428571428571
 10
141.42857142857142
 20
257.1428571428571
 10
141.42857142857142
 20
245.35714285714286
 10
120.0
 20
245.35714285714286
  0
HATCH
  5
102
330
17
100
AcDbEntity
  8
WALL
100
AcDbHatch
 10
0.0
 20
0.0
 30
0.0
210
0.0
220
0.0
230
1.0
  2
SOLID
 70
1
 71
0
 91
1
 92
3
 72
0
 73
1
 93
4
 10
120.0
 20
257.1428571428571
 10
141.42857142857142
 20
257.1428571428571
 10
141.42857142857142
 20
245.35714285714286
 10
120.0
 20
245.35714285714286
 97
0
 75
1
 76
1
 98
0
  0
LWPOLYLINE
  5
103
330
17
100
AcDbEntity
  8
WALL
100
AcDbPolyline
 90
4
 70
1
 10
120.0
 20
235.7142857142857
 10
141.42857142857142
 20
235.7142857142857
 10
141.42857142857142
 20
230.35714285714286
 10
120.0
 20
230.35714285714286
  0
HATCH
  5
104
330
17
100
AcDbEntity
  8
WALL
100
AcDbHatch
 10
0.0
 20
0.0
 30
0.0
210
0.0
220
0.0
230
1.0
  2
SOLID
 70
1
 71
0
 91
1
 92
3
 72
0
 73
1
 93
4
 10
120.0
 20
235.7142857142857
 10
141.42857142857142
 20
235.7142857142857
 10
141.42857142857142
 20
230.35714285714286
 10
120.0
 20
230.35714285714286
 97
0
 75
1
 76
1
 98
0
  0
LWPOLYLINE
  5
105
330
17
100
AcDbEntity
  8
WALL
100
AcDbPolyline
 90
4
 70
1
 10
165.0
 20
232.5
 10
203.57142857142856
 20
232.5
 10
203.57142857142856
 20
228.2142857142857
 10
165.0
 20
228.2142857142857
  0
HATCH
  5
106
330
17
100
AcDbEntity
  8
WALL
100
AcDbHatch
 10
0.0
 20
0.0
 30
0.0
210
0.0
220
0.0
230
1.0
  2
SOLID
 70
1
 71
0
 91
1
 92
3
 72
0
 73
1
 93
4
 10
165.0
 20
232.5
 10
203.57142857142856
 20
232.5
 10
203.57142857142856
 20
228.2142857142857
 10
165.0
 20
228.2142857142857
 97
0
 75
1
 76
1
 98
0
  0
LWPOLYLINE
  5
107
330
17
100
AcDbEntity
  8
WALL
100
AcDbPolyline
 90
4
 70
1
 10
45.0
 20
187.5
 10
64.28571428571428
 20
187.5
 10
64.28571428571428
 20
184.28571428571428
 10
45.0
 20
184.28571428571428
  0
HATCH
  5
108
330
17
100
AcDbEntity
  8
WALL
100
AcDbHatch
 10
0.0
 20
0.0
 30
0.0
210
0.0
220
0.0
230
1.0
  2
SOLID
 70
1
 71
0
 91
1
 92
3
 72
0
 73
1
 93
4
 10
45.0
 20
187.5
 10
64.28571428571428
 20
187.5
 10
64.28571428571428
 20
184.28571428571428
 10
45.0
 20
184.28571428571428
 97
0
 75
1
 76
1
 98
0
  0
LWPOLYLINE
  5
109
330
17
100
AcDbEntity
  8
WALL
100
AcDbPolyline
 90
4
 70
1
 10
531.4285714285714
 20
187.5
 10
559.2857142857142
 20
187.5
 10
559.2857142857142
 20
183.21428571428572
 10
531.4285714285714
 20
183.21428571428572
  0
HATCH
  5
10A
330
17
100
AcDbEntity
  8
WALL
100
AcDbHatch
 10
0.0
 20
0.0
 30
0.0
210
0.0
220
0.0
230
1.0
  2
SOLID
 70
1
 71
0
 91
1
 92
3
 72
0
 73
1
 93
4
 10
531.4285714285714
 20
187.5
 10
559.2857142857142
 20
187.5
 10
559.2857142857142
 20
183.21428571428572
 10
531.4285714285714
 20
183.21428571428572
 97
0
 75
1
 76
1
 98
0
  0
LWPOLYLINE
  5
10B
330
17
100
AcDbEntity
  8
WALL
100
AcDbPolyline
 90
4
 70
1
 10
45.0
 20
181.07142857142856
 10
69.64285714285714
 20
181.07142857142856
 10
69.64285714285714
 20
170.35714285714286
 10
45.0
 20
170.35714285714286
  0
HATCH
  5
10C
330
17
100
AcDbEntity
  8
WALL
100
AcDbHatch
 10
0.0
 20
0.0
 30
0.0
210
0.0
220
0.0
230
1.0
  2
SOLID
 70
1
 71
0
 91
1
 92
3
 72
0
 73
1
 93
4
 10
45.0
 20
181.07142857142856
 10
69.64285714285714
 20
181.07142857142856
 10
69.64285714285714
 20
170.35714285714286
 10
45.0
 20
170.35714285714286
 97
0
 75
1
 76
1
 98
0
  0
LWPOLYLINE
  5
10D
330
17
100
AcDbEntity
  8
WALL
100
AcDbPolyline
 90
4
 70
1
 10
231.42857142857142
 20
181.07142857142856
 10
255.0
 20
181.07142857142856
 10
255.0
 20
176.78571428571428
 10
231.42857142857142
 20
176.78571428571428
  0
HATCH
  5
10E
330
17
100
AcDbEntity
  8
WALL
100
AcDbHatch
 10
0.0
 20
0.0
 30
0.0
210
0.0
220
0.0
230
1.0
  2
SOLID
 70
1
 71
0
 91
1
 92
3
 72
0
 73
1
 93
4
 10
231.42857142857142
 20
181.07142857142856
 10
255.0
 20
181.07142857142856
 10
255.0
 20
176.78571428571428
 10
231.42857142857142
 20
176.78571428571428
 97
0
 75
1
 76
1
 98
0
  0
LWPOLYLINE
  5
10F
330
17
100
AcDbEntity
  8
WALL
100
AcDbPolyline
 90
4
 70
1
 10
565.7142857142857
 20
181.07142857142856
 10
585.0
 20
181.07142857142856
 10
585.0
 20
180.0
 10
565.7142857142857
 20
180.0
  0
HATCH
  5
110
330
17
100
AcDbEntity
  8
WALL
100
AcDbHatch
 10
0.0
 20
0.0
 30
0.0
210
0.0
220
0.0
230
1.0
  2
SOLID
 70
1
 71
0
 91
1
 92
3
 72
0
 73
1
 93
4
 10
565.7142857142857
 20
181.07142857142856
 10
585.0
 20
181.07142857142856
 10
585.0
 20
180.0
 10
565.7142857142857
 20
180.0
 97
0
 75
1
 76
1
 98
0
  0
LWPOLYLINE
  5
111
330
17
100
AcDbEntity
  8
WALL
100
AcDbPolyline
 90
4
 70
1
 10
355.7142857142857
 20
178.92857142857142
 10
390.0
 20
178.92857142857142
 10
390.0
 20
175.71428571428572
 10
355.7142857142857
 20
175.71428571428572
  0
HATCH
  5
112
330
17
100
AcDbEntity
  8
WALL
100
AcDbHatch
 10
0.0
 20
0.0
 30
0.0
210
0.0
220
0.0
230
1.0
  2
SOLID
 70
1
 71
0
 91
1
 92
3
 72
0
 73
1
 93
4
 10
355.7142857142857
 20
178.92857142857142
 10
390.0
 20
178.92857142857142
 10
390.0
 20
175.71428571428572
 10
355.7142857142857
 20
175.71428571428572
 97
0
 75
1
 76
1
 98
0
  0
LWPOLYLINE
  5
113
330
17
100
AcDbEntity
  8
WALL
100
AcDbPolyline
 90
4
 70
1
 10
484.2857142857143
 20
176.78571428571428
 10
503.57142857142856
 20
176.78571428571428
 10
503.57142857142856
 20
173.57142857142856
 10
484.2857142857143
 20
173.57142857142856
  0
HATCH
  5
114
330
17
100
AcDbEntity
  8
WALL
100
AcDbHatch
 10
0.0
 20
0.0
 30
0.0
210
0.0
220
0.0
230
1.0
  2
SOLID
 70
1
 71
0
 91
1
 92
3
 72
0
 73
1
 93
4
 10
484.2857142857143
 20
176.78571428571428
 10
503.57142857142856
 20
176.78571428571428
 10
503.57142857142856
 20
173.57142857142856
 10
484.2857142857143
 20
173.57142857142856
 97
0
 75
1
 76
1
 98
0
  0
LWPOLYLINE
  5
115
330
17
100
AcDbEntity
  8
WALL
100
AcDbPolyline
 90
4
 70
1
 10
137.14285714285714
 20
174.64285714285714
 10
167.14285714285714
 20
174.64285714285714
 10
167.14285714285714
 20
170.35714285714286
 10
137.14285714285714
 20
170.35714285714286
  0
HATCH
  5
116
330
17
100
AcDbEntity
  8
WALL
100
AcDbHatch
 10
0.0
 20
0.0
 30
0.0
210
0.0
220
0.0
230
1.0
  2
SOLID
 70
1
 71
0
 91
1
 92
3
 72
0
 73
1
 93
4
 10
137.14285714285714
 20
174.64285714285714
 10
167.14285714285714
 20
174.64285714285714
 10
167.14285714285714
 20
170.35714285714286
 10
137.14285714285714
 20
170.35714285714286
 97
0
 75
1
 76
1
 98
0
  0
LWPOLYLINE
  5
117
330
17
100
AcDbEntity
  8
WALL
100
AcDbPolyline
 90
4
 70
1
 10
205.71428571428572
 20
174.64285714285714
 10
226.07142857142856
 20
174.64285714285714
 10
226.07142857142856
 20
171.42857142857142
 10
205.71428571428572
 20
171.42857142857142
  0
HATCH
  5
118
330
17
100
AcDbEntity
  8
WALL
100
AcDbHatch
 10
0.0
 20
0.0
 30
0.0
210
0.0
220
0.0
230
1.0
  2
SOLID
 70
1
 71
0
 91
1
 92
3
 72
0
 73
1
 93
4
 10
205.71428571428572
 20
174.64285714285714
 10
226.07142857142856
 20
174.64285714285714
 10
226.07142857142856
 20
171.42857142857142
 10
205.71428571428572
 20
171.42857142857142
 97
0
 75
1
 76
1
 98
0
  0
LWPOLYLINE
  5
119
330
17
100
AcDbEntity
  8
WALL
100
AcDbPolyline
 90
4
 70
1
 10
337.5
 20
174.64285714285714
 10
368.57142857142856
 20
174.64285714285714
 10
368.57142857142856
 20
173.57142857142856
 10
337.5
 20
173.57142857142856
  0
HATCH
  5
11A
330
17
100
AcDbEntity
  8
WALL
100
AcDbHatch
 10
0.0
 20
0.0
 30
0.0
210
0.0
220
0.0
230
1.0
  2
SOLID
 70
1
 71
0
 91
1
 92
3
 72
0
 73
1
 93
4
 10
337.5
 20
174.64285714285714
 10
368.57142857142856
 20
174.64285714285714
 10
368.57142857142856
 20
173.57142857142856
 10
337.5
 20
173.57142857142856
 97
0
 75
1
 76
1
 98
0
  0
LWPOLYLINE
  5
11B
330
17
100
AcDbEntity
  8
WALL
100
AcDbPolyline
 90
4
 70
1
 10
394.2857142857143
 20
175.71428571428572
 10
482.1428571428571
 20
175.71428571428572
 10
482.1428571428571
 20
170.35714285714286
 10
394.2857142857143
 20
170.35714285714286
  0
HATCH
  5
11C
330
17
100
AcDbEntity
  8
WALL
100
AcDbHatch
 10
0.0
 20
0.0
 30
0.0
210
0.0
220
0.0
230
1.0
  2
SOLID
 70
1
 71
0
 91
1
 92
3
 72
0
 73
1
 93
4
 10
394.2857142857143
 20
175.71428571428572
 10
482.1428571428571
 20
175.71428571428572
 10
482.1428571428571
 20
170.35714285714286
 10
394.2857142857143
 20
170.35714285714286
 97
0
 75
1
 76
1
 98
0
  0
LWPOLYLINE
  5
11D
330
17
100
AcDbEntity
  8
WALL
100
AcDbPolyline
 90
4
 70
1
 10
139.28571428571428
 20
168.21428571428572
 10
226.07142857142856
 20
168.21428571428572
 10
226.07142857142856
 20
157.5
 10
139.28571428571428
 20
157.5
  0
HATCH
  5
11E
330
17
100
AcDbEntity
  8
WALL
100
AcDbHatch
 10
0.0
 20
0.0
 30
0.0
210
0.0
220
0.0
230
1.0
  2
SOLID
 70
1
 71
0
 91
1
 92
3
 72
0
 73
1
 93
4
 10
139.28571428571428
 20
168.21428571428572
 10
226.07142857142856
 20
168.21428571428572
 10
226.07142857142856
 20
157.5
 10
139.28571428571428
 20
157.5
 97
0
 75
1
 76
1
 98
0
  0
LWPOLYLINE
  5
11F
330
17
100
AcDbEntity
  8
WALL
100
AcDbPolyline
 90
4
 70
1
 10
253.92857142857142
 20
168.21428571428572
 10
326.7857142857143
 20
168.21428571428572
 10
326.7857142857143
 20
157.5
 10
253.92857142857142
 20
157.5
  0
HATCH
  5
120
330
17
100
AcDbEntity
  8
WALL
100
AcDbHatch
 10
0.0
 20
0.0
 30
0.0
210
0.0
220
0.0
230
1.0
  2
SOLID
 70
1
 71
0
 91
1
 92
3
 72
0
 73
1
 93
4
 10
253.92857142857142
 20
168.21428571428572
 10
326.7857142857143
 20
168.21428571428572
 10
326.7857142857143
 20
157.5
 10
253.92857142857142
 20
157.5
 97
0
 75
1
 76
1
 98
0
  0
LWPOLYLINE
  5
121
330
17
100
AcDbEntity
  8
WALL
100
AcDbPolyline
 90
4
 70
1
 10
367.5
 20
168.21428571428572
 10
486.4285714285714
 20
168.21428571428572
 10
486.4285714285714
 20
157.5
 10
367.5
 20
157.5
  0
HATCH
  5
122
330
17
100
AcDbEntity
  8
WALL
100
AcDbHatch
 10
0.0
 20
0.0
 30
0.0
210
0.0
220
0.0
230
1.0
  2
SOLID
 70
1
 71
0
 91
1
 92
3
 72
0
 73
1
 93
4
 10
367.5
 20
168.21428571428572
 10
486.4285714285714
 20
168.21428571428572
 10
486.4285714285714
 20
157.5
 10
367.5
 20
157.5
 97
0
 75
1
 76
1
 98
0
  0
LWPOLYLINE
  5
123
330
17
100
AcDbEntity
  8
WALL
100
AcDbPolyline
 90
4
 70
1
 10
367.5
 20
155.35714285714286
 10
510.0
 20
155.35714285714286
 10
510.0
 20
151.07142857142856
 10
367.5
 20
151.07142857142856
  0
HATCH
  5
124
330
17
100
AcDbEntity
  8
WALL
100
AcDbHatch
 10
0.0
 20
0.0
 30
0.0
210
0.0
220
0.0
230
1.0
  2
SOLID
 70
1
 71
0
 91
1
 92
3
 72
0
 73
1
 93
4
 10
367.5
 20
155.35714285714286
 10
510.0
 20
155.35714285714286
 10
510.0
 20
151.07142857142856
 10
367.5
 20
151.07142857142856
 97
0
 75
1
 76
1
 98
0
  0
LWPOLYLINE
  5
125
330
17
100
AcDbEntity
  8
WALL
100
AcDbPolyline
 90
4
 70
1
 10
495.0
 20
145.71428571428572
 10
514.2857142857142
 20
145.71428571428572
 10
514.2857142857142
 20
143.57142857142856
 10
495.0
 20
143.57142857142856
  0
HATCH
  5
126
330
17
100
AcDbEntity
  8
WALL
100
AcDbHatch
 10
0.0
 20
0.0
 30
0.0
210
0.0
220
0.0
230
1.0
  2
SOLID
 70
1
 71
0
 91
1
 92
3
 72
0
 73
1
 93
4
 10
495.0
 20
145.71428571428572
 10
514.2857142857142
 20
145.71428571428572
 10
514.2857142857142
 20
143.57142857142856
 10
495.0
 20
143.57142857142856
 97
0
 75
1
 76
1
 98
0
  0
LWPOLYLINE
  5
127
330
17
100
AcDbEntity
  8
WALL
100
AcDbPolyline
 90
4
 70
1
 10
394.2857142857143
 20
101.78571428571428
 10
415.7142857142857
 20
101.78571428571428
 10
415.7142857142857
 20
97.5
 10
394.2857142857143
 20
97.5
  0
HATCH
  5
128
330
17
100
AcDbEntity
  8
WALL
100
AcDbHatch
 10
0.0
 20
0.0
 30
0.0
210
0.0
220
0.0
230
1.0
  2
SOLID
 70
1
 71
0
 91
1
 92
3
 72
0
 73
1
 93
4
 10
394.2857142857143
 20
101.78571428571428
 10
415.7142857142857
 20
101.78571428571428
 10
415.7142857142857
 20
97.5
 10
394.2857142857143
 20
97.5
 97
0
 75
1
 76
1
 98
0
  0
LWPOLYLINE
  5
129
330
17
100
AcDbEntity
  8
WALL
100
AcDbPolyline
 90
4
 70
1
 10
394.2857142857143
 20
96.42857142857143
 10
415.7142857142857
 20
96.42857142857143
 10
415.7142857142857
 20
91.07142857142857
 10
394.2857142857143
 20
91.07142857142857
  0
HATCH
  5
12A
330
17
100
AcDbEntity
  8
WALL
100
AcDbHatch
 10
0.0
 20
0.0
 30
0.0
210
0.0
220
0.0
230
1.0
  2
SOLID
 70
1
 71
0
 91
1
 92
3
 72
0
 73
1
 93
4
 10
394.2857142857143
 20
96.42857142857143
 10
415.7142857142857
 20
96.42857142857143
 10
415.7142857142857
 20
91.07142857142857
 10
394.2857142857143
 20
91.07142857142857
 97
0
 75
1
 76
1
 98
0
  0
LWPOLYLINE
  5
12B
330
17
100
AcDbEntity
  8
WALL
100
AcDbPolyline
 90
4
 70
1
 10
394.2857142857143
 20
72.85714285714286
 10
415.7142857142857
 20
72.85714285714286
 10
415.7142857142857
 20
69.64285714285714
 10
394.2857142857143
 20
69.64285714285714
  0
HATCH
  5
12C
330
17
100
AcDbEntity
  8
WALL
100
AcDbHatch
 10
0.0
 20
0.0
 30
0.0
210
0.0
220
0.0
230
1.0
  2
SOLID
 70
1
 71
0
 91
1
 92
3
 72
0
 73
1
 93
4
 10
394.2857142857143
 20
72.85714285714286
 10
415.7142857142857
 20
72.85714285714286
 10
415.7142857142857
 20
69.64285714285714
 10
394.2857142857143
 20
69.64285714285714
 97
0
 75
1
 76
1
 98
0
  0
LWPOLYLINE
  5
12D
330
17
100
AcDbEntity
  8
WALL
100
AcDbPolyline
 90
4
 70
1
 10
46.07142857142857
 20
37.5
 10
93.21428571428571
 20
37.5
 10
93.21428571428571
 20
26.785714285714285
 10
46.07142857142857
 20
26.785714285714285
  0
HATCH
  5
12E
330
17
100
AcDbEntity
  8
WALL
100
AcDbHatch
 10
0.0
 20
0.0
 30
0.0
210
0.0
220
0.0
230
1.0
  2
SOLID
 70
1
 71
0
 91
1
 92
3
 72
0
 73
1
 93
4
 10
46.07142857142857
 20
37.5
 10
93.21428571428571
 20
37.5
 10
93.21428571428571
 20
26.785714285714285
 10
46.07142857142857
 20
26.785714285714285
 97
0
 75
1
 76
1
 98
0
  0
LWPOLYLINE
  5
12F
330
17
100
AcDbEntity
  8
WALL
100
AcDbPolyline
 90
4
 70
1
 10
51.42857142857143
 20
22.5
 10
94.28571428571428
 20
22.5
 10
94.28571428571428
 20
18.214285714285715
 10
51.42857142857143
 20
18.214285714285715
  0
HATCH
  5
130
330
17
100
AcDbEntity
  8
WALL
100
AcDbHatch
 10
0.0
 20
0.0
 30
0.0
210
0.0
220
0.0
230
1.0
  2
SOLID
 70
1
 71
0
 91
1
 92
3
 72
0
 73
1
 93
4
 10
51.42857142857143
 20
22.5
 10
94.28571428571428
 20
22.5
 10
94.28571428571428
 20
18.214285714285715
 10
51.42857142857143
 20
18.214285714285715
 97
0
 75
1
 76
1
 98
0
  0
LWPOLYLINE
  5
131
330
17
100
AcDbEntity
  8
WALL
100
AcDbPolyline
 90
4
 70
1
 10
155.35714285714286
 20
991.0714285714286
 10
159.64285714285714
 20
991.0714285714286
 10
159.64285714285714
 20
890.3571428571428
 10
155.35714285714286
 20
890.3571428571428
  0
HATCH
  5
132
330
17
100
AcDbEntity
  8
WALL
100
AcDbHatch
 10
0.0
 20
0.0
 30
0.0
210
0.0
220
0.0
230
1.0
  2
SOLID
 70
1
 71
0
 91
1
 92
3
 72
0
 73
1
 93
4
 10
155.35714285714286
 20
991.0714285714286
 10
159.64285714285714
 20
991.0714285714286
 10
159.64285714285714
 20
890.3571428571428
 10
155.35714285714286
 20
890.3571428571428
 97
0
 75
1
 76
1
 98
0
  0
LWPOLYLINE
  5
133
330
17
100
AcDbEntity
  8
WALL
100
AcDbPolyline
 90
4
 70
1
 10
1121.7857142857142
 20
991.0714285714286
 10
1132.5
 20
991.0714285714286
 10
1132.5
 20
876.4285714285714
 10
1121.7857142857142
 20
876.4285714285714
  0
HATCH
  5
134
330
17
100
AcDbEntity
  8
WALL
100
AcDbHatch
 10
0.0
 20
0.0
 30
0.0
210
0.0
220
0.0
230
1.0
  2
SOLID
 70
1
 71
0
 91
1
 92
3
 72
0
 73
1
 93
4
 10
1121.7857142857142
 20
991.0714285714286
 10
1132.5
 20
991.0714285714286
 10
1132.5
 20
876.4285714285714
 10
1121.7857142857142
 20
876.4285714285714
 97
0
 75
1
 76
1
 98
0
  0
LWPOLYLINE
  5
135
330
17
100
AcDbEntity
  8
WALL
100
AcDbPolyline
 90
4
 70
1
 10
1136.7857142857142
 20
991.0714285714286
 10
1143.2142857142858
 20
991.0714285714286
 10
1143.2142857142858
 20
887.1428571428571
 10
1136.7857142857142
 20
887.1428571428571
  0
HATCH
  5
136
330
17
100
AcDbEntity
  8
WALL
100
AcDbHatch
 10
0.0
 20
0.0
 30
0.0
210
0.0
220
0.0
230
1.0
  2
SOLID
 70
1
 71
0
 91
1
 92
3
 72
0
 73
1
 93
4
 10
1136.7857142857142
 20
991.0714285714286
 10
1143.2142857142858
 20
991.0714285714286
 10
1143.2142857142858
 20
887.1428571428571
 10
1136.7857142857142
 20
887.1428571428571
 97
0
 75
1
 76
1
 98
0
  0
LWPOLYLINE
  5
137
330
17
100
AcDbEntity
  8
WALL
100
AcDbPolyline
 90
4
 70
1
 10
997.5
 20
988.9285714285714
 10
1003.9285714285714
 20
988.9285714285714
 10
1003.9285714285714
 20
758.5714285714286
 10
997.5
 20
758.5714285714286
  0
HATCH
  5
138
330
17
100
AcDbEntity
  8
WALL
100
AcDbHatch
 10
0.0
 20
0.0
 30
0.0
210
0.0
220
0.0
230
1.0
  2
SOLID
 70
1
 71
0
 91
1
 92
3
 72
0
 73
1
 93
4
 10
997.5
 20
988.9285714285714
 10
1003.9285714285714
 20
988.9285714285714
 10
1003.9285714285714
 20
758.5714285714286
 10
997.5
 20
758.5714285714286
 97
0
 75
1
 76
1
 98
0
  0
LWPOLYLINE
  5
139
330
17
100
AcDbEntity
  8
WALL
100
AcDbPolyline
 90
4
 70
1
 10
1008.2142857142857
 20
988.9285714285714
 10
1014.6428571428571
 20
988.9285714285714
 10
1014.6428571428571
 20
758.5714285714286
 10
1008.2142857142857
 20
758.5714285714286
  0
HATCH
  5
13A
330
17
100
AcDbEntity
  8
WALL
100
AcDbHatch
 10
0.0
 20
0.0
 30
0.0
210
0.0
220
0.0
230
1.0
  2
SOLID
 70
1
 71
0
 91
1
 92
3
 72
0
 73
1
 93
4
 10
1008.2142857142857
 20
988.9285714285714
 10
1014.6428571428571
 20
988.9285714285714
 10
1014.6428571428571
 20
758.5714285714286
 10
1008.2142857142857
 20
758.5714285714286
 97
0
 75
1
 76
1
 98
0
  0
LWPOLYLINE
  5
13B
330
17
100
AcDbEntity
  8
WALL
100
AcDbPolyline
 90
4
 70
1
 10
483.2142857142857
 20
987.8571428571428
 10
489.6428571428571
 20
987.8571428571428
 10
489.6428571428571
 20
938.5714285714286
 10
483.2142857142857
 20
938.5714285714286
  0
HATCH
  5
13C
330
17
100
AcDbEntity
  8
WALL
100
AcDbHatch
 10
0.0
 20
0.0
 30
0.0
210
0.0
220
0.0
230
1.0
  2
SOLID
 70
1
 71
0
 91
1
 92
3
 72
0
 73
1
 93
4
 10
483.2142857142857
 20
987.8571428571428
 10
489.6428571428571
 20
987.8571428571428
 10
489.6428571428571
 20
938.5714285714286
 10
483.2142857142857
 20
938.5714285714286
 97
0
 75
1
 76
1
 98
0
  0
LWPOLYLINE
  5
13D
330
17
100
AcDbEntity
  8
WALL
100
AcDbPolyline
 90
4
 70
1
 10
407.1428571428571
 20
979.2857142857142
 10
408.2142857142857
 20
979.2857142857142
 10
408.2142857142857
 20
960.0
 10
407.1428571428571
 20
960.0
  0
HATCH
  5
13E
330
17
100
AcDbEntity
  8
WALL
100
AcDbHatch
 10
0.0
 20
0.0
 30
0.0
210
0.0
220
0.0
230
1.0
  2
SOLID
 70
1
 71
0
 91
1
 92
3
 72
0
 73
1
 93
4
 10
407.1428571428571
 20
979.2857142857142
 10
408.2142857142857
 20
979.2857142857142
 10
408.2142857142857
 20
960.0
 10
407.1428571428571
 20
960.0
 97
0
 75
1
 76
1
 98
0
  0
LWPOLYLINE
  5
13F
330
17
100
AcDbEntity
  8
WALL
100
AcDbPolyline
 90
4
 70
1
 10
731.7857142857142
 20
970.7142857142857
 10
736.0714285714286
 20
970.7142857142857
 10
736.0714285714286
 20
949.2857142857142
 10
731.7857142857142
 20
949.2857142857142
  0
HATCH
  5
140
330
17
100
AcDbEntity
  8
WALL
100
AcDbHatch
 10
0.0
 20
0.0
 30
0.0
210
0.0
220
0.0
230
1.0
  2
SOLID
 70
1
 71
0
 91
1
 92
3
 72
0
 73
1
 93
4
 10
731.7857142857142
 20
970.7142857142857
 10
736.0714285714286
 20
970.7142857142857
 10
736.0714285714286
 20
949.2857142857142
 10
731.7857142857142
 20
949.2857142857142
 97
0
 75
1
 76
1
 98
0
  0
LWPOLYLINE
  5
141
330
17
100
AcDbEntity
  8
WALL
100
AcDbPolyline
 90
4
 70
1
 10
757.5
 20
932.1428571428571
 10
763.9285714285714
 20
932.1428571428571
 10
763.9285714285714
 20
881.7857142857142
 10
757.5
 20
881.7857142857142
  0
HATCH
  5
142
330
17
100
AcDbEntity
  8
WALL
100
AcDbHatch
 10
0.0
 20
0.0
 30
0.0
210
0.0
220
0.0
230
1.0
  2
SOLID
 70
1
 71
0
 91
1
 92
3
 72
0
 73
1
 93
4
 10
757.5
 20
932.1428571428571
 10
763.9285714285714
 20
932.1428571428571
 10
763.9285714285714
 20
881.7857142857142
 10
757.5
 20
881.7857142857142
 97
0
 75
1
 76
1
 98
0
  0
LWPOLYLINE
  5
143
330
17
100
AcDbEntity
  8
WALL
100
AcDbPolyline
 90
4
 70
1
 10
733.9285714285714
 20
925.7142857142857
 10
738.2142857142857
 20
925.7142857142857
 10
738.2142857142857
 20
904.2857142857142
 10
733.9285714285714
 20
904.2857142857142
  0
HATCH
  5
144
330
17
100
AcDbEntity
  8
WALL
100
AcDbHatch
 10
0.0
 20
0.0
 30
0.0
210
0.0
220
0.0
230
1.0
  2
SOLID
 70
1
 71
0
 91
1
 92
3
 72
0
 73
1
 93
4
 10
733.9285714285714
 20
925.7142857142857
 10
738.2142857142857
 20
925.7142857142857
 10
738.2142857142857
 20
904.2857142857142
 10
733.9285714285714
 20
904.2857142857142
 97
0
 75
1
 76
1
 98
0
  0
LWPOLYLINE
  5
145
330
17
100
AcDbEntity
  8
WALL
100
AcDbPolyline
 90
4
 70
1
 10
1173.2142857142858
 20
907.5
 10
1194.642857142857
 20
907.5
 10
1194.642857142857
 20
673.9285714285714
 10
1173.2142857142858
 20
673.9285714285714
  0
HATCH
  5
146
330
17
100
AcDbEntity
  8
WALL
100
AcDbHatch
 10
0.0
 20
0.0
 30
0.0
210
0.0
220
0.0
230
1.0
  2
SOLID
 70
1
 71
0
 91
1
 92
3
 72
0
 73
1
 93
4
 10
1173.2142857142858
 20
907.5
 10
1194.642857142857
 20
907.5
 10
1194.642857142857
 20
673.9285714285714
 10
1173.2142857142858
 20
673.9285714285714
 97
0
 75
1
 76
1
 98
0
  0
LWPOLYLINE
  5
147
330
17
100
AcDbEntity
  8
WALL
100
AcDbPolyline
 90
4
 70
1
 10
466.07142857142856
 20
906.4285714285714
 10
470.35714285714283
 20
906.4285714285714
 10
470.35714285714283
 20
870.0
 10
466.07142857142856
 20
870.0
  0
HATCH
  5
148
330
17
100
AcDbEntity
  8
WALL
100
AcDbHatch
 10
0.0
 20
0.0
 30
0.0
210
0.0
220
0.0
230
1.0
  2
SOLID
 70
1
 71
0
 91
1
 92
3
 72
0
 73
1
 93
4
 10
466.07142857142856
 20
906.4285714285714
 10
470.35714285714283
 20
906.4285714285714
 10
470.35714285714283
 20
870.0
 10
466.07142857142856
 20
870.0
 97
0
 75
1
 76
1
 98
0
  0
LWPOLYLINE
  5
149
330
17
100
AcDbEntity
  8
WALL
100
AcDbPolyline
 90
4
 70
1
 10
408.2142857142857
 20
895.7142857142857
 10
410.35714285714283
 20
895.7142857142857
 10
410.35714285714283
 20
872.1428571428571
 10
408.2142857142857
 20
872.1428571428571
  0
HATCH
  5
14A
330
17
100
AcDbEntity
  8
WALL
100
AcDbHatch
 10
0.0
 20
0.0
 30
0.0
210
0.0
220
0.0
230
1.0
  2
SOLID
 70
1
 71
0
 91
1
 92
3
 72
0
 73
1
 93
4
 10
408.2142857142857
 20
895.7142857142857
 10
410.35714285714283
 20
895.7142857142857
 10
410.35714285714283
 20
872.1428571428571
 10
408.2142857142857
 20
872.1428571428571
 97
0
 75
1
 76
1
 98
0
  0
LWPOLYLINE
  5
14B
330
17
100
AcDbEntity
  8
WALL
100
AcDbPolyline
 90
4
 70
1
 10
1173.2142857142858
 20
895.7142857142857
 10
1177.5
 20
895.7142857142857
 10
1177.5
 20
849.6428571428571
 10
1173.2142857142858
 20
849.6428571428571
  0
HATCH
  5
14C
330
17
100
AcDbEntity
  8
WALL
100
AcDbHatch
 10
0.0
 20
0.0
 30
0.0
210
0.0
220
0.0
230
1.0
  2
SOLID
 70
1
 71
0
 91
1
 92
3
 72
0
 73
1
 93
4
 10
1173.2142857142858
 20
895.7142857142857
 10
1177.5
 20
895.7142857142857
 10
1177.5
 20
849.6428571428571
 10
1173.2142857142858
 20
849.6428571428571
 97
0
 75
1
 76
1
 98
0
  0
LWPOLYLINE
  5
14D
330
17
100
AcDbEntity
  8
WALL
100
AcDbPolyline
 90
4
 70
1
 10
871.0714285714286
 20
846.4285714285714
 10
875.3571428571428
 20
846.4285714285714
 10
875.3571428571428
 20
820.7142857142857
 10
871.0714285714286
 20
820.7142857142857
  0
HATCH
  5
14E
330
17
100
AcDbEntity
  8
WALL
100
AcDbHatch
 10
0.0
 20
0.0
 30
0.0
210
0.0
220
0.0
230
1.0
  2
SOLID
 70
1
 71
0
 91
1
 92
3
 72
0
 73
1
 93
4
 10
871.0714285714286
 20
846.4285714285714
 10
875.3571428571428
 20
846.4285714285714
 10
875.3571428571428
 20
820.7142857142857
 10
871.0714285714286
 20
820.7142857142857
 97
0
 75
1
 76
1
 98
0
  0
LWPOLYLINE
  5
14F
330
17
100
AcDbEntity
  8
WALL
100
AcDbPolyline
 90
4
 70
1
 10
1171.0714285714284
 20
830.3571428571428
 10
1175.357142857143
 20
830.3571428571428
 10
1175.357142857143
 20
807.8571428571429
 10
1171.0714285714284
 20
807.8571428571429
  0
HATCH
  5
150
330
17
100
AcDbEntity
  8
WALL
100
AcDbHatch
 10
0.0
 20
0.0
 30
0.0
210
0.0
220
0.0
230
1.0
  2
SOLID
 70
1
 71
0
 91
1
 92
3
 72
0
 73
1
 93
4
 10
1171.0714285714284
 20
830.3571428571428
 10
1175.357142857143
 20
830.3571428571428
 10
1175.357142857143
 20
807.8571428571429
 10
1171.0714285714284
 20
807.8571428571429
 97
0
 75
1
 76
1
 98
0
  0
LWPOLYLINE
  5
151
330
17
100
AcDbEntity
  8
WALL
100
AcDbPolyline
 90
4
 70
1
 10
553.9285714285714
 20
823.9285714285714
 10
558.2142857142857
 20
823.9285714285714
 10
558.2142857142857
 20
773.5714285714286
 10
553.9285714285714
 20
773.5714285714286
  0
HATCH
  5
152
330
17
100
AcDbEntity
  8
WALL
100
AcDbHatch
 10
0.0
 20
0.0
 30
0.0
210
0.0
220
0.0
230
1.0
  2
SOLID
 70
1
 71
0
 91
1
 92
3
 72
0
 73
1
 93
4
 10
553.9285714285714
 20
823.9285714285714
 10
558.2142857142857
 20
823.9285714285714
 10
558.2142857142857
 20
773.5714285714286
 10
553.9285714285714
 20
773.5714285714286
 97
0
 75
1
 76
1
 98
0
  0
LWPOLYLINE
  5
153
330
17
100
AcDbEntity
  8
WALL
100
AcDbPolyline
 90
4
 70
1
 10
888.2142857142857
 20
814.2857142857142
 10
894.6428571428571
 20
814.2857142857142
 10
894.6428571428571
 20
789.6428571428571
 10
888.2142857142857
 20
789.6428571428571
  0
HATCH
  5
154
330
17
100
AcDbEntity
  8
WALL
100
AcDbHatch
 10
0.0
 20
0.0
 30
0.0
210
0.0
220
0.0
230
1.0
  2
SOLID
 70
1
 71
0
 91
1
 92
3
 72
0
 73
1
 93
4
 10
888.2142857142857
 20
814.2857142857142
 10
894.6428571428571
 20
814.2857142857142
 10
894.6428571428571
 20
789.6428571428571
 10
888.2142857142857
 20
789.6428571428571
 97
0
 75
1
 76
1
 98
0
  0
LWPOLYLINE
  5
155
330
17
100
AcDbEntity
  8
WALL
100
AcDbPolyline
 90
4
 70
1
 10
609.6428571428571
 20
808.9285714285714
 10
613.9285714285714
 20
808.9285714285714
 10
613.9285714285714
 20
784.2857142857142
 10
609.6428571428571
 20
784.2857142857142
  0
HATCH
  5
156
330
17
100
AcDbEntity
  8
WALL
100
AcDbHatch
 10
0.0
 20
0.0
 30
0.0
210
0.0
220
0.0
230
1.0
  2
SOLID
 70
1
 71
0
 91
1
 92
3
 72
0
 73
1
 93
4
 10
609.6428571428571
 20
808.9285714285714
 10
613.9285714285714
 20
808.9285714285714
 10
613.9285714285714
 20
784.2857142857142
 10
609.6428571428571
 20
784.2857142857142
 97
0
 75
1
 76
1
 98
0
  0
LWPOLYLINE
  5
157
330
17
100
AcDbEntity
  8
WALL
100
AcDbPolyline
 90
4
 70
1
 10
684.6428571428571
 20
810.0
 10
688.9285714285714
 20
810.0
 10
688.9285714285714
 20
783.2142857142857
 10
684.6428571428571
 20
783.2142857142857
  0
HATCH
  5
158
330
17
100
AcDbEntity
  8
WALL
100
AcDbHatch
 10
0.0
 20
0.0
 30
0.0
210
0.0
220
0.0
230
1.0
  2
SOLID
 70
1
 71
0
 91
1
 92
3
 72
0
 73
1
 93
4
 10
684.6428571428571
 20
810.0
 10
688.9285714285714
 20
810.0
 10
688.9285714285714
 20
783.2142857142857
 10
684.6428571428571
 20
783.2142857142857
 97
0
 75
1
 76
1
 98
0
  0
LWPOLYLINE
  5
159
330
17
100
AcDbEntity
  8
WALL
100
AcDbPolyline
 90
4
 70
1
 10
1173.2142857142858
 20
806.7857142857142
 10
1175.357142857143
 20
806.7857142857142
 10
1175.357142857143
 20
782.1428571428571
 10
1173.2142857142858
 20
782.1428571428571
  0
HATCH
  5
15A
330
17
100
AcDbEntity
  8
WALL
100
AcDbHatch
 10
0.0
 20
0.0
 30
0.0
210
0.0
220
0.0
230
1.0
  2
SOLID
 70
1
 71
0
 91
1
 92
3
 72
0
 73
1
 93
4
 10
1173.2142857142858
 20
806.7857142857142
 10
1175.357142857143
 20
806.7857142857142
 10
1175.357142857143
 20
782.1428571428571
 10
1173.2142857142858
 20
782.1428571428571
 97
0
 75
1
 76
1
 98
0
  0
LWPOLYLINE
  5
15B
330
17
100
AcDbEntity
  8
WALL
100
AcDbPolyline
 90
4
 70
1
 10
695.3571428571429
 20
805.7142857142857
 10
699.6428571428571
 20
805.7142857142857
 10
699.6428571428571
 20
776.7857142857142
 10
695.3571428571429
 20
776.7857142857142
  0
HATCH
  5
15C
330
17
100
AcDbEntity
  8
WALL
100
AcDbHatch
 10
0.0
 20
0.0
 30
0.0
210
0.0
220
0.0
230
1.0
  2
SOLID
 70
1
 71
0
 91
1
 92
3
 72
0
 73
1
 93
4
 10
695.3571428571429
 20
805.7142857142857
 10
699.6428571428571
 20
805.7142857142857
 10
699.6428571428571
 20
776.7857142857142
 10
695.3571428571429
 20
776.7857142857142
 97
0
 75
1
 76
1
 98
0
  0
LWPOLYLINE
  5
15D
330
17
100
AcDbEntity
  8
WALL
100
AcDbPolyline
 90
4
 70
1
 10
753.2142857142857
 20
791.7857142857142
 10
757.5
 20
791.7857142857142
 10
757.5
 20
769.2857142857142
 10
753.2142857142857
 20
769.2857142857142
  0
HATCH
  5
15E
330
17
100
AcDbEntity
  8
WALL
100
AcDbHatch
 10
0.0
 20
0.0
 30
0.0
210
0.0
220
0.0
230
1.0
  2
SOLID
 70
1
 71
0
 91
1
 92
3
 72
0
 73
1
 93
4
 10
753.2142857142857
 20
791.7857142857142
 10
757.5
 20
791.7857142857142
 10
757.5
 20
769.2857142857142
 10
753.2142857142857
 20
769.2857142857142
 97
0
 75
1
 76
1
 98
0
  0
LWPOLYLINE
  5
15F
330
17
100
AcDbEntity
  8
WALL
100
AcDbPolyline
 90
4
 70
1
 10
920.3571428571428
 20
790.7142857142857
 10
926.7857142857142
 20
790.7142857142857
 10
926.7857142857142
 20
724.2857142857142
 10
920.3571428571428
 20
724.2857142857142
  0
HATCH
  5
160
330
17
100
AcDbEntity
  8
WALL
100
AcDbHatch
 10
0.0
 20
0.0
 30
0.0
210
0.0
220
0.0
230
1.0
  2
SOLID
 70
1
 71
0
 91
1
 92
3
 72
0
 73
1
 93
4
 10
920.3571428571428
 20
790.7142857142857
 10
926.7857142857142
 20
790.7142857142857
 10
926.7857142857142
 20
724.2857142857142
 10
920.3571428571428
 20
724.2857142857142
 97
0
 75
1
 76
1
 98
0
  0
LWPOLYLINE
  5
161
330
17
100
AcDbEntity
  8
WALL
100
AcDbPolyline
 90
4
 70
1
 10
339.6428571428571
 20
770.3571428571429
 10
343.92857142857144
 20
770.3571428571429
 10
343.92857142857144
 20
737.1428571428571
 10
339.6428571428571
 20
737.1428571428571
  0
HATCH
  5
162
330
17
100
AcDbEntity
  8
WALL
100
AcDbHatch
 10
0.0
 20
0.0
 30
0.0
210
0.0
220
0.0
230
1.0
  2
SOLID
 70
1
 71
0
 91
1
 92
3
 72
0
 73
1
 93
4
 10
339.6428571428571
 20
770.3571428571429
 10
343.92857142857144
 20
770.3571428571429
 10
343.92857142857144
 20
737.1428571428571
 10
339.6428571428571
 20
737.1428571428571
 97
0
 75
1
 76
1
 98
0
  0
LWPOLYLINE
  5
163
330
17
100
AcDbEntity
  8
WALL
100
AcDbPolyline
 90
4
 70
1
 10
354.6428571428571
 20
769.2857142857142
 10
361.07142857142856
 20
769.2857142857142
 10
361.07142857142856
 20
722.1428571428571
 10
354.6428571428571
 20
722.1428571428571
  0
HATCH
  5
164
330
17
100
AcDbEntity
  8
WALL
100
AcDbHatch
 10
0.0
 20
0.0
 30
0.0
210
0.0
220
0.0
230
1.0
  2
SOLID
 70
1
 71
0
 91
1
 92
3
 72
0
 73
1
 93
4
 10
354.6428571428571
 20
769.2857142857142
 10
361.07142857142856
 20
769.2857142857142
 10
361.07142857142856
 20
722.1428571428571
 10
354.6428571428571
 20
722.1428571428571
 97
0
 75
1
 76
1
 98
0
  0
LWPOLYLINE
  5
165
330
17
100
AcDbEntity
  8
WALL
100
AcDbPolyline
 90
4
 70
1
 10
1106.7857142857142
 20
748.9285714285714
 10
1111.0714285714284
 20
748.9285714285714
 10
1111.0714285714284
 20
728.5714285714286
 10
1106.7857142857142
 20
728.5714285714286
  0
HATCH
  5
166
330
17
100
AcDbEntity
  8
WALL
100
AcDbHatch
 10
0.0
 20
0.0
 30
0.0
210
0.0
220
0.0
230
1.0
  2
SOLID
 70
1
 71
0
 91
1
 92
3
 72
0
 73
1
 93
4
 10
1106.7857142857142
 20
748.9285714285714
 10
1111.0714285714284
 20
748.9285714285714
 10
1111.0714285714284
 20
728.5714285714286
 10
1106.7857142857142
 20
728.5714285714286
 97
0
 75
1
 76
1
 98
0
  0
LWPOLYLINE
  5
167
330
17
100
AcDbEntity
  8
WALL
100
AcDbPolyline
 90
4
 70
1
 10
1121.7857142857142
 20
736.0714285714286
 10
1126.0714285714284
 20
736.0714285714286
 10
1126.0714285714284
 20
708.2142857142857
 10
1121.7857142857142
 20
708.2142857142857
  0
HATCH
  5
168
330
17
100
AcDbEntity
  8
WALL
100
AcDbHatch
 10
0.0
 20
0.0
 30
0.0
210
0.0
220
0.0
230
1.0
  2
SOLID
 70
1
 71
0
 91
1
 92
3
 72
0
 73
1
 93
4
 10
1121.7857142857142
 20
736.0714285714286
 10
1126.0714285714284
 20
736.0714285714286
 10
1126.0714285714284
 20
708.2142857142857
 10
1121.7857142857142
 20
708.2142857142857
 97
0
 75
1
 76
1
 98
0
  0
LWPOLYLINE
  5
169
330
17
100
AcDbEntity
  8
WALL
100
AcDbPolyline
 90
4
 70
1
 10
788.5714285714286
 20
732.8571428571429
 10
789.6428571428571
 20
732.8571428571429
 10
789.6428571428571
 20
713.5714285714286
 10
788.5714285714286
 20
713.5714285714286
  0
HATCH
  5
16A
330
17
100
AcDbEntity
  8
WALL
100
AcDbHatch
 10
0.0
 20
0.0
 30
0.0
210
0.0
220
0.0
230
1.0
  2
SOLID
 70
1
 71
0
 91
1
 92
3
 72
0
 73
1
 93
4
 10
788.5714285714286
 20
732.8571428571429
 10
789.6428571428571
 20
732.8571428571429
 10
789.6428571428571
 20
713.5714285714286
 10
788.5714285714286
 20
713.5714285714286
 97
0
 75
1
 76
1
 98
0
  0
LWPOLYLINE
  5
16B
330
17
100
AcDbEntity
  8
WALL
100
AcDbPolyline
 90
4
 70
1
 10
886.0714285714286
 20
730.7142857142857
 10
896.7857142857142
 20
730.7142857142857
 10
896.7857142857142
 20
643.9285714285714
 10
886.0714285714286
 20
643.9285714285714
  0
HATCH
  5
16C
330
17
100
AcDbEntity
  8
WALL
100
AcDbHatch
 10
0.0
 20
0.0
 30
0.0
210
0.0
220
0.0
230
1.0
  2
SOLID
 70
1
 71
0
 91
1
 92
3
 72
0
 73
1
 93
4
 10
886.0714285714286
 20
730.7142857142857
 10
896.7857142857142
 20
730.7142857142857
 10
896.7857142857142
 20
643.9285714285714
 10
886.0714285714286
 20
643.9285714285714
 97
0
 75
1
 76
1
 98
0
  0
LWPOLYLINE
  5
16D
330
17
100
AcDbEntity
  8
WALL
100
AcDbPolyline
 90
4
 70
1
 10
148.92857142857142
 20
714.6428571428571
 10
157.5
 20
714.6428571428571
 10
157.5
 20
651.4285714285714
 10
148.92857142857142
 20
651.4285714285714
  0
HATCH
  5
16E
330
17
100
AcDbEntity
  8
WALL
100
AcDbHatch
 10
0.0
 20
0.0
 30
0.0
210
0.0
220
0.0
230
1.0
  2
SOLID
 70
1
 71
0
 91
1
 92
3
 72
0
 73
1
 93
4
 10
148.92857142857142
 20
714.6428571428571
 10
157.5
 20
714.6428571428571
 10
157.5
 20
651.4285714285714
 10
148.92857142857142
 20
651.4285714285714
 97
0
 75
1
 76
1
 98
0
  0
LWPOLYLINE
  5
16F
330
17
100
AcDbEntity
  8
WALL
100
AcDbPolyline
 90
4
 70
1
 10
414.6428571428571
 20
715.7142857142857
 10
421.07142857142856
 20
715.7142857142857
 10
421.07142857142856
 20
668.5714285714286
 10
414.6428571428571
 20
668.5714285714286
  0
HATCH
  5
170
330
17
100
AcDbEntity
  8
WALL
100
AcDbHatch
 10
0.0
 20
0.0
 30
0.0
210
0.0
220
0.0
230
1.0
  2
SOLID
 70
1
 71
0
 91
1
 92
3
 72
0
 73
1
 93
4
 10
414.6428571428571
 20
715.7142857142857
 10
421.07142857142856
 20
715.7142857142857
 10
421.07142857142856
 20
668.5714285714286
 10
414.6428571428571
 20
668.5714285714286
 97
0
 75
1
 76
1
 98
0
  0
LWPOLYLINE
  5
171
330
17
100
AcDbEntity
  8
WALL
100
AcDbPolyline
 90
4
 70
1
 10
138.21428571428572
 20
708.2142857142857
 10
142.5
 20
708.2142857142857
 10
142.5
 20
669.6428571428571
 10
138.21428571428572
 20
669.6428571428571
  0
HATCH
  5
172
330
17
100
AcDbEntity
  8
WALL
100
AcDbHatch
 10
0.0
 20
0.0
 30
0.0
210
0.0
220
0.0
230
1.0
  2
SOLID
 70
1
 71
0
 91
1
 92
3
 72
0
 73
1
 93
4
 10
138.21428571428572
 20
708.2142857142857
 10
142.5
 20
708.2142857142857
 10
142.5
 20
669.6428571428571
 10
138.21428571428572
 20
669.6428571428571
 97
0
 75
1
 76
1
 98
0
  0
LWPOLYLINE
  5
173
330
17
100
AcDbEntity
  8
WALL
100
AcDbPolyline
 90
4
 70
1
 10
875.3571428571428
 20
699.6428571428571
 10
879.6428571428571
 20
699.6428571428571
 10
879.6428571428571
 20
679.2857142857142
 10
875.3571428571428
 20
679.2857142857142
  0
HATCH
  5
174
330
17
100
AcDbEntity
  8
WALL
100
AcDbHatch
 10
0.0
 20
0.0
 30
0.0
210
0.0
220
0.0
230
1.0
  2
SOLID
 70
1
 71
0
 91
1
 92
3
 72
0
 73
1
 93
4
 10
875.3571428571428
 20
699.6428571428571
 10
879.6428571428571
 20
699.6428571428571
 10
879.6428571428571
 20
679.2857142857142
 10
875.3571428571428
 20
679.2857142857142
 97
0
 75
1
 76
1
 98
0
  0
LWPOLYLINE
  5
175
330
17
100
AcDbEntity
  8
WALL
100
AcDbPolyline
 90
4
 70
1
 10
121.07142857142857
 20
695.3571428571429
 10
133.92857142857142
 20
695.3571428571429
 10
133.92857142857142
 20
632.1428571428571
 10
121.07142857142857
 20
632.1428571428571
  0
HATCH
  5
176
330
17
100
AcDbEntity
  8
WALL
100
AcDbHatch
 10
0.0
 20
0.0
 30
0.0
210
0.0
220
0.0
230
1.0
  2
SOLID
 70
1
 71
0
 91
1
 92
3
 72
0
 73
1
 93
4
 10
121.07142857142857
 20
695.3571428571429
 10
133.92857142857142
 20
695.3571428571429
 10
133.92857142857142
 20
632.1428571428571
 10
121.07142857142857
 20
632.1428571428571
 97
0
 75
1
 76
1
 98
0
  0
LWPOLYLINE
  5
177
330
17
100
AcDbEntity
  8
WALL
100
AcDbPolyline
 90
4
 70
1
 10
240.0
 20
694.2857142857142
 10
241.07142857142856
 20
694.2857142857142
 10
241.07142857142856
 20
675.0
 10
240.0
 20
675.0
  0
HATCH
  5
178
330
17
100
AcDbEntity
  8
WALL
100
AcDbHatch
 10
0.0
 20
0.0
 30
0.0
210
0.0
220
0.0
230
1.0
  2
SOLID
 70
1
 71
0
 91
1
 92
3
 72
0
 73
1
 93
4
 10
240.0
 20
694.2857142857142
 10
241.07142857142856
 20
694.2857142857142
 10
241.07142857142856
 20
675.0
 10
240.0
 20
675.0
 97
0
 75
1
 76
1
 98
0
  0
LWPOLYLINE
  5
179
330
17
100
AcDbEntity
  8
WALL
100
AcDbPolyline
 90
4
 70
1
 10
232.5
 20
682.5
 10
234.64285714285714
 20
682.5
 10
234.64285714285714
 20
660.0
 10
232.5
 20
660.0
  0
HATCH
  5
17A
330
17
100
AcDbEntity
  8
WALL
100
AcDbHatch
 10
0.0
 20
0.0
 30
0.0
210
0.0
220
0.0
230
1.0
  2
SOLID
 70
1
 71
0
 91
1
 92
3
 72
0
 73
1
 93
4
 10
232.5
 20
682.5
 10
234.64285714285714
 20
682.5
 10
234.64285714285714
 20
660.0
 10
232.5
 20
660.0
 97
0
 75
1
 76
1
 98
0
  0
LWPOLYLINE
  5
17B
330
17
100
AcDbEntity
  8
WALL
100
AcDbPolyline
 90
4
 70
1
 10
789.6428571428571
 20
673.9285714285714
 10
798.2142857142857
 20
673.9285714285714
 10
798.2142857142857
 20
456.4285714285714
 10
789.6428571428571
 20
456.4285714285714
  0
HATCH
  5
17C
330
17
100
AcDbEntity
  8
WALL
100
AcDbHatch
 10
0.0
 20
0.0
 30
0.0
210
0.0
220
0.0
230
1.0
  2
SOLID
 70
1
 71
0
 91
1
 92
3
 72
0
 73
1
 93
4
 10
789.6428571428571
 20
673.9285714285714
 10
798.2142857142857
 20
673.9285714285714
 10
798.2142857142857
 20
456.4285714285714
 10
789.6428571428571
 20
456.4285714285714
 97
0
 75
1
 76
1
 98
0
  0
LWPOLYLINE
  5
17D
330
17
100
AcDbEntity
  8
WALL
100
AcDbPolyline
 90
4
 70
1
 10
159.64285714285714
 20
672.8571428571429
 10
161.78571428571428
 20
672.8571428571429
 10
161.78571428571428
 20
651.4285714285714
 10
159.64285714285714
 20
651.4285714285714
  0
HATCH
  5
17E
330
17
100
AcDbEntity
  8
WALL
100
AcDbHatch
 10
0.0
 20
0.0
 30
0.0
210
0.0
220
0.0
230
1.0
  2
SOLID
 70
1
 71
0
 91
1
 92
3
 72
0
 73
1
 93
4
 10
159.64285714285714
 20
672.8571428571429
 10
161.78571428571428
 20
672.8571428571429
 10
161.78571428571428
 20
651.4285714285714
 10
159.64285714285714
 20
651.4285714285714
 97
0
 75
1
 76
1
 98
0
  0
LWPOLYLINE
  5
17F
330
17
100
AcDbEntity
  8
WALL
100
AcDbPolyline
 90
4
 70
1
 10
141.42857142857142
 20
668.5714285714286
 10
142.5
 20
668.5714285714286
 10
142.5
 20
649.2857142857142
 10
141.42857142857142
 20
649.2857142857142
  0
HATCH
  5
180
330
17
100
AcDbEntity
  8
WALL
100
AcDbHatch
 10
0.0
 20
0.0
 30
0.0
210
0.0
220
0.0
230
1.0
  2
SOLID
 70
1
 71
0
 91
1
 92
3
 72
0
 73
1
 93
4
 10
141.42857142857142
 20
668.5714285714286
 10
142.5
 20
668.5714285714286
 10
142.5
 20
649.2857142857142
 10
141.42857142857142
 20
649.2857142857142
 97
0
 75
1
 76
1
 98
0
  0
LWPOLYLINE
  5
181
330
17
100
AcDbEntity
  8
WALL
100
AcDbPolyline
 90
4
 70
1
 10
877.5
 20
668.5714285714286
 10
881.7857142857142
 20
668.5714285714286
 10
881.7857142857142
 20
645.0
 10
877.5
 20
645.0
  0
HATCH
  5
182
330
17
100
AcDbEntity
  8
WALL
100
AcDbHatch
 10
0.0
 20
0.0
 30
0.0
210
0.0
220
0.0
230
1.0
  2
SOLID
 70
1
 71
0
 91
1
 92
3
 72
0
 73
1
 93
4
 10
877.5
 20
668.5714285714286
 10
881.7857142857142
 20
668.5714285714286
 10
881.7857142857142
 20
645.0
 10
877.5
 20
645.0
 97
0
 75
1
 76
1
 98
0
  0
LWPOLYLINE
  5
183
330
17
100
AcDbEntity
  8
WALL
100
AcDbPolyline
 90
4
 70
1
 10
523.9285714285714
 20
666.4285714285714
 10
528.2142857142857
 20
666.4285714285714
 10
528.2142857142857
 20
645.0
 10
523.9285714285714
 20
645.0
  0
HATCH
  5
184
330
17
100
AcDbEntity
  8
WALL
100
AcDbHatch
 10
0.0
 20
0.0
 30
0.0
210
0.0
220
0.0
230
1.0
  2
SOLID
 70
1
 71
0
 91
1
 92
3
 72
0
 73
1
 93
4
 10
523.9285714285714
 20
666.4285714285714
 10
528.2142857142857
 20
666.4285714285714
 10
528.2142857142857
 20
645.0
 10
523.9285714285714
 20
645.0
 97
0
 75
1
 76
1
 98
0
  0
LWPOLYLINE
  5
185
330
17
100
AcDbEntity
  8
WALL
100
AcDbPolyline
 90
4
 70
1
 10
684.6428571428571
 20
666.4285714285714
 10
686.7857142857142
 20
666.4285714285714
 10
686.7857142857142
 20
646.0714285714286
 10
684.6428571428571
 20
646.0714285714286
  0
HATCH
  5
186
330
17
100
AcDbEntity
  8
WALL
100
AcDbHatch
 10
0.0
 20
0.0
 30
0.0
210
0.0
220
0.0
230
1.0
  2
SOLID
 70
1
 71
0
 91
1
 92
3
 72
0
 73
1
 93
4
 10
684.6428571428571
 20
666.4285714285714
 10
686.7857142857142
 20
666.4285714285714
 10
686.7857142857142
 20
646.0714285714286
 10
684.6428571428571
 20
646.0714285714286
 97
0
 75
1
 76
1
 98
0
  0
LWPOLYLINE
  5
187
330
17
100
AcDbEntity
  8
WALL
100
AcDbPolyline
 90
4
 70
1
 10
592.5
 20
655.7142857142857
 10
598.9285714285714
 20
655.7142857142857
 10
598.9285714285714
 20
368.57142857142856
 10
592.5
 20
368.57142857142856
  0
HATCH
  5
188
330
17
100
AcDbEntity
  8
WALL
100
AcDbHatch
 10
0.0
 20
0.0
 30
0.0
210
0.0
220
0.0
230
1.0
  2
SOLID
 70
1
 71
0
 91
1
 92
3
 72
0
 73
1
 93
4
 10
592.5
 20
655.7142857142857
 10
598.9285714285714
 20
655.7142857142857
 10
598.9285714285714
 20
368.57142857142856
 10
592.5
 20
368.57142857142856
 97
0
 75
1
 76
1
 98
0
  0
LWPOLYLINE
  5
189
330
17
100
AcDbEntity
  8
WALL
100
AcDbPolyline
 90
4
 70
1
 10
800.3571428571429
 20
655.7142857142857
 10
808.9285714285714
 20
655.7142857142857
 10
808.9285714285714
 20
467.1428571428571
 10
800.3571428571429
 20
467.1428571428571
  0
HATCH
  5
18A
330
17
100
AcDbEntity
  8
WALL
100
AcDbHatch
 10
0.0
 20
0.0
 30
0.0
210
0.0
220
0.0
230
1.0
  2
SOLID
 70
1
 71
0
 91
1
 92
3
 72
0
 73
1
 93
4
 10
800.3571428571429
 20
655.7142857142857
 10
808.9285714285714
 20
655.7142857142857
 10
808.9285714285714
 20
467.1428571428571
 10
800.3571428571429
 20
467.1428571428571
 97
0
 75
1
 76
1
 98
0
  0
LWPOLYLINE
  5
18B
330
17
100
AcDbEntity
  8
WALL
100
AcDbPolyline
 90
4
 70
1
 10
97.5
 20
646.0714285714286
 10
106.07142857142857
 20
646.0714285714286
 10
106.07142857142857
 20
615.0
 10
97.5
 20
615.0
  0
HATCH
  5
18C
330
17
100
AcDbEntity
  8
WALL
100
AcDbHatch
 10
0.0
 20
0.0
 30
0.0
210
0.0
220
0.0
230
1.0
  2
SOLID
 70
1
 71
0
 91
1
 92
3
 72
0
 73
1
 93
4
 10
97.5
 20
646.0714285714286
 10
106.07142857142857
 20
646.0714285714286
 10
106.07142857142857
 20
615.0
 10
97.5
 20
615.0
 97
0
 75
1
 76
1
 98
0
  0
LWPOLYLINE
  5
18D
330
17
100
AcDbEntity
  8
WALL
100
AcDbPolyline
 90
4
 70
1
 10
682.5
 20
645.0
 10
691.0714285714286
 20
645.0
 10
691.0714285714286
 20
364.2857142857143
 10
682.5
 20
364.2857142857143
  0
HATCH
  5
18E
330
17
100
AcDbEntity
  8
WALL
100
AcDbHatch
 10
0.0
 20
0.0
 30
0.0
210
0.0
220
0.0
230
1.0
  2
SOLID
 70
1
 71
0
 91
1
 92
3
 72
0
 73
1
 93
4
 10
682.5
 20
645.0
 10
691.0714285714286
 20
645.0
 10
691.0714285714286
 20
364.2857142857143
 10
682.5
 20
364.2857142857143
 97
0
 75
1
 76
1
 98
0
  0
LWPOLYLINE
  5
18F
330
17
100
AcDbEntity
  8
WALL
100
AcDbPolyline
 90
4
 70
1
 10
1190.357142857143
 20
643.9285714285714
 10
1194.642857142857
 20
643.9285714285714
 10
1194.642857142857
 20
618.2142857142857
 10
1190.357142857143
 20
618.2142857142857
  0
HATCH
  5
190
330
17
100
AcDbEntity
  8
WALL
100
AcDbHatch
 10
0.0
 20
0.0
 30
0.0
210
0.0
220
0.0
230
1.0
  2
SOLID
 70
1
 71
0
 91
1
 92
3
 72
0
 73
1
 93
4
 10
1190.357142857143
 20
643.9285714285714
 10
1194.642857142857
 20
643.9285714285714
 10
1194.642857142857
 20
618.2142857142857
 10
1190.357142857143
 20
618.2142857142857
 97
0
 75
1
 76
1
 98
0
  0
LWPOLYLINE
  5
191
330
17
100
AcDbEntity
  8
WALL
100
AcDbPolyline
 90
4
 70
1
 10
669.6428571428571
 20
637.5
 10
678.2142857142857
 20
637.5
 10
678.2142857142857
 20
568.9285714285714
 10
669.6428571428571
 20
568.9285714285714
  0
HATCH
  5
192
330
17
100
AcDbEntity
  8
WALL
100
AcDbHatch
 10
0.0
 20
0.0
 30
0.0
210
0.0
220
0.0
230
1.0
  2
SOLID
 70
1
 71
0
 91
1
 92
3
 72
0
 73
1
 93
4
 10
669.6428571428571
 20
637.5
 10
678.2142857142857
 20
637.5
 10
678.2142857142857
 20
568.9285714285714
 10
669.6428571428571
 20
568.9285714285714
 97
0
 75
1
 76
1
 98
0
  0
LWPOLYLINE
  5
193
330
17
100
AcDbEntity
  8
WALL
100
AcDbPolyline
 90
4
 70
1
 10
603.2142857142857
 20
620.3571428571429
 10
610.7142857142857
 20
620.3571428571429
 10
610.7142857142857
 20
493.9285714285714
 10
603.2142857142857
 20
493.9285714285714
  0
HATCH
  5
194
330
17
100
AcDbEntity
  8
WALL
100
AcDbHatch
 10
0.0
 20
0.0
 30
0.0
210
0.0
220
0.0
230
1.0
  2
SOLID
 70
1
 71
0
 91
1
 92
3
 72
0
 73
1
 93
4
 10
603.2142857142857
 20
620.3571428571429
 10
610.7142857142857
 20
620.3571428571429
 10
610.7142857142857
 20
493.9285714285714
 10
603.2142857142857
 20
493.9285714285714
 97
0
 75
1
 76
1
 98
0
  0
LWPOLYLINE
  5
195
330
17
100
AcDbEntity
  8
WALL
100
AcDbPolyline
 90
4
 70
1
 10
613.9285714285714
 20
620.3571428571429
 10
620.3571428571429
 20
620.3571428571429
 10
620.3571428571429
 20
555.0
 10
613.9285714285714
 20
555.0
  0
HATCH
  5
196
330
17
100
AcDbEntity
  8
WALL
100
AcDbHatch
 10
0.0
 20
0.0
 30
0.0
210
0.0
220
0.0
230
1.0
  2
SOLID
 70
1
 71
0
 91
1
 92
3
 72
0
 73
1
 93
4
 10
613.9285714285714
 20
620.3571428571429
 10
620.3571428571429
 20
620.3571428571429
 10
620.3571428571429
 20
555.0
 10
613.9285714285714
 20
555.0
 97
0
 75
1
 76
1
 98
0
  0
LWPOLYLINE
  5
197
330
17
100
AcDbEntity
  8
WALL
100
AcDbPolyline
 90
4
 70
1
 10
1020.0
 20
600.0
 10
1021.0714285714286
 20
600.0
 10
1021.0714285714286
 20
580.7142857142857
 10
1020.0
 20
580.7142857142857
  0
HATCH
  5
198
330
17
100
AcDbEntity
  8
WALL
100
AcDbHatch
 10
0.0
 20
0.0
 30
0.0
210
0.0
220
0.0
230
1.0
  2
SOLID
 70
1
 71
0
 91
1
 92
3
 72
0
 73
1
 93
4
 10
1020.0
 20
600.0
 10
1021.0714285714286
 20
600.0
 10
1021.0714285714286
 20
580.7142857142857
 10
1020.0
 20
580.7142857142857
 97
0
 75
1
 76
1
 98
0
  0
LWPOLYLINE
  5
199
330
17
100
AcDbEntity
  8
WALL
100
AcDbPolyline
 90
4
 70
1
 10
883.9285714285714
 20
597.8571428571429
 10
890.3571428571428
 20
597.8571428571429
 10
890.3571428571428
 20
557.1428571428571
 10
883.9285714285714
 20
557.1428571428571
  0
HATCH
  5
19A
330
17
100
AcDbEntity
  8
WALL
100
AcDbHatch
 10
0.0
 20
0.0
 30
0.0
210
0.0
220
0.0
230
1.0
  2
SOLID
 70
1
 71
0
 91
1
 92
3
 72
0
 73
1
 93
4
 10
883.9285714285714
 20
597.8571428571429
 10
890.3571428571428
 20
597.8571428571429
 10
890.3571428571428
 20
557.1428571428571
 10
883.9285714285714
 20
557.1428571428571
 97
0
 75
1
 76
1
 98
0
  0
LWPOLYLINE
  5
19B
330
17
100
AcDbEntity
  8
WALL
100
AcDbPolyline
 90
4
 70
1
 10
369.6428571428571
 20
594.6428571428571
 10
371.7857142857143
 20
594.6428571428571
 10
371.7857142857143
 20
571.0714285714286
 10
369.6428571428571
 20
571.0714285714286
  0
HATCH
  5
19C
330
17
100
AcDbEntity
  8
WALL
100
AcDbHatch
 10
0.0
 20
0.0
 30
0.0
210
0.0
220
0.0
230
1.0
  2
SOLID
 70
1
 71
0
 91
1
 92
3
 72
0
 73
1
 93
4
 10
369.6428571428571
 20
594.6428571428571
 10
371.7857142857143
 20
594.6428571428571
 10
371.7857142857143
 20
571.0714285714286
 10
369.6428571428571
 20
571.0714285714286
 97
0
 75
1
 76
1
 98
0
  0
LWPOLYLINE
  5
19D
330
17
100
AcDbEntity
  8
WALL
100
AcDbPolyline
 90
4
 70
1
 10
382.5
 20
591.4285714285714
 10
386.7857142857143
 20
591.4285714285714
 10
386.7857142857143
 20
559.2857142857142
 10
382.5
 20
559.2857142857142
  0
HATCH
  5
19E
330
17
100
AcDbEntity
  8
WALL
100
AcDbHatch
 10
0.0
 20
0.0
 30
0.0
210
0.0
220
0.0
230
1.0
  2
SOLID
 70
1
 71
0
 91
1
 92
3
 72
0
 73
1
 93
4
 10
382.5
 20
591.4285714285714
 10
386.7857142857143
 20
591.4285714285714
 10
386.7857142857143
 20
559.2857142857142
 10
382.5
 20
559.2857142857142
 97
0
 75
1
 76
1
 98
0
  0
LWPOLYLINE
  5
19F
330
17
100
AcDbEntity
  8
WALL
100
AcDbPolyline
 90
4
 70
1
 10
1132.5
 20
553.9285714285714
 10
1147.5
 20
553.9285714285714
 10
1147.5
 20
521.7857142857142
 10
1132.5
 20
521.7857142857142
  0
HATCH
  5
1A0
330
17
100
AcDbEntity
  8
WALL
100
AcDbHatch
 10
0.0
 20
0.0
 30
0.0
210
0.0
220
0.0
230
1.0
  2
SOLID
 70
1
 71
0
 91
1
 92
3
 72
0
 73
1
 93
4
 10
1132.5
 20
553.9285714285714
 10
1147.5
 20
553.9285714285714
 10
1147.5
 20
521.7857142857142
 10
1132.5
 20
521.7857142857142
 97
0
 75
1
 76
1
 98
0
  0
LWPOLYLINE
  5
1A1
330
17
100
AcDbEntity
  8
WALL
100
AcDbPolyline
 90
4
 70
1
 10
881.7857142857142
 20
552.8571428571429
 10
886.0714285714286
 20
552.8571428571429
 10
886.0714285714286
 20
486.4285714285714
 10
881.7857142857142
 20
486.4285714285714
  0
HATCH
  5
1A2
330
17
100
AcDbEntity
  8
WALL
100
AcDbHatch
 10
0.0
 20
0.0
 30
0.0
210
0.0
220
0.0
230
1.0
  2
SOLID
 70
1
 71
0
 91
1
 92
3
 72
0
 73
1
 93
4
 10
881.7857142857142
 20
552.8571428571429
 10
886.0714285714286
 20
552.8571428571429
 10
886.0714285714286
 20
486.4285714285714
 10
881.7857142857142
 20
486.4285714285714
 97
0
 75
1
 76
1
 98
0
  0
LWPOLYLINE
  5
1A3
330
17
100
AcDbEntity
  8
WALL
100
AcDbPolyline
 90
4
 70
1
 10
1068.2142857142858
 20
536.7857142857142
 10
1070.357142857143
 20
536.7857142857142
 10
1070.357142857143
 20
514.2857142857142
 10
1068.2142857142858
 20
514.2857142857142
  0
HATCH
  5
1A4
330
17
100
AcDbEntity
  8
WALL
100
AcDbHatch
 10
0.0
 20
0.0
 30
0.0
210
0.0
220
0.0
230
1.0
  2
SOLID
 70
1
 71
0
 91
1
 92
3
 72
0
 73
1
 93
4
 10
1068.2142857142858
 20
536.7857142857142
 10
1070.357142857143
 20
536.7857142857142
 10
1070.357142857143
 20
514.2857142857142
 10
1068.2142857142858
 20
514.2857142857142
 97
0
 75
1
 76
1
 98
0
  0
LWPOLYLINE
  5
1A5
330
17
100
AcDbEntity
  8
WALL
100
AcDbPolyline
 90
4
 70
1
 10
521.7857142857142
 20
528.2142857142857
 10
526.0714285714286
 20
528.2142857142857
 10
526.0714285714286
 20
501.4285714285714
 10
521.7857142857142
 20
501.4285714285714
  0
HATCH
  5
1A6
330
17
100
AcDbEntity
  8
WALL
100
AcDbHatch
 10
0.0
 20
0.0
 30
0.0
210
0.0
220
0.0
230
1.0
  2
SOLID
 70
1
 71
0
 91
1
 92
3
 72
0
 73
1
 93
4
 10
521.7857142857142
 20
528.2142857142857
 10
526.0714285714286
 20
528.2142857142857
 10
526.0714285714286
 20
501.4285714285714
 10
521.7857142857142
 20
501.4285714285714
 97
0
 75
1
 76
1
 98
0
  0
LWPOLYLINE
  5
1A7
330
17
100
AcDbEntity
  8
WALL
100
AcDbPolyline
 90
4
 70
1
 10
673.9285714285714
 20
529.2857142857142
 10
678.2142857142857
 20
529.2857142857142
 10
678.2142857142857
 20
503.57142857142856
 10
673.9285714285714
 20
503.57142857142856
  0
HATCH
  5
1A8
330
17
100
AcDbEntity
  8
WALL
100
AcDbHatch
 10
0.0
 20
0.0
 30
0.0
210
0.0
220
0.0
230
1.0
  2
SOLID
 70
1
 71
0
 91
1
 92
3
 72
0
 73
1
 93
4
 10
673.9285714285714
 20
529.2857142857142
 10
678.2142857142857
 20
529.2857142857142
 10
678.2142857142857
 20
503.57142857142856
 10
673.9285714285714
 20
503.57142857142856
 97
0
 75
1
 76
1
 98
0
  0
LWPOLYLINE
  5
1A9
330
17
100
AcDbEntity
  8
WALL
100
AcDbPolyline
 90
4
 70
1
 10
1076.7857142857142
 20
520.7142857142857
 10
1081.0714285714284
 20
520.7142857142857
 10
1081.0714285714284
 20
499.2857142857143
 10
1076.7857142857142
 20
499.2857142857143
  0
HATCH
  5
1AA
330
17
100
AcDbEntity
  8
WALL
100
AcDbHatch
 10
0.0
 20
0.0
 30
0.0
210
0.0
220
0.0
230
1.0
  2
SOLID
 70
1
 71
0
 91
1
 92
3
 72
0
 73
1
 93
4
 10
1076.7857142857142
 20
520.7142857142857
 10
1081.0714285714284
 20
520.7142857142857
 10
1081.0714285714284
 20
499.2857142857143
 10
1076.7857142857142
 20
499.2857142857143
 97
0
 75
1
 76
1
 98
0
  0
LWPOLYLINE
  5
1AB
330
17
100
AcDbEntity
  8
WALL
100
AcDbPolyline
 90
4
 70
1
 10
871.0714285714286
 20
503.57142857142856
 10
875.3571428571428
 20
503.57142857142856
 10
875.3571428571428
 20
477.85714285714283
 10
871.0714285714286
 20
477.85714285714283
  0
HATCH
  5
1AC
330
17
100
AcDbEntity
  8
WALL
100
AcDbHatch
 10
0.0
 20
0.0
 30
0.0
210
0.0
220
0.0
230
1.0
  2
SOLID
 70
1
 71
0
 91
1
 92
3
 72
0
 73
1
 93
4
 10
871.0714285714286
 20
503.57142857142856
 10
875.3571428571428
 20
503.57142857142856
 10
875.3571428571428
 20
477.85714285714283
 10
871.0714285714286
 20
477.85714285714283
 97
0
 75
1
 76
1
 98
0
  0
LWPOLYLINE
  5
1AD
330
17
100
AcDbEntity
  8
WALL
100
AcDbPolyline
 90
4
 70
1
 10
911.7857142857142
 20
501.4285714285714
 10
916.0714285714286
 20
501.4285714285714
 10
916.0714285714286
 20
477.85714285714283
 10
911.7857142857142
 20
477.85714285714283
  0
HATCH
  5
1AE
330
17
100
AcDbEntity
  8
WALL
100
AcDbHatch
 10
0.0
 20
0.0
 30
0.0
210
0.0
220
0.0
230
1.0
  2
SOLID
 70
1
 71
0
 91
1
 92
3
 72
0
 73
1
 93
4
 10
911.7857142857142
 20
501.4285714285714
 10
916.0714285714286
 20
501.4285714285714
 10
916.0714285714286
 20
477.85714285714283
 10
911.7857142857142
 20
477.85714285714283
 97
0
 75
1
 76
1
 98
0
  0
LWPOLYLINE
  5
1AF
330
17
100
AcDbEntity
  8
WALL
100
AcDbPolyline
 90
4
 70
1
 10
1074.642857142857
 20
497.1428571428571
 10
1078.9285714285713
 20
497.1428571428571
 10
1078.9285714285713
 20
452.1428571428571
 10
1074.642857142857
 20
452.1428571428571
  0
HATCH
  5
1B0
330
17
100
AcDbEntity
  8
WALL
100
AcDbHatch
 10
0.0
 20
0.0
 30
0.0
210
0.0
220
0.0
230
1.0
  2
SOLID
 70
1
 71
0
 91
1
 92
3
 72
0
 73
1
 93
4
 10
1074.642857142857
 20
497.1428571428571
 10
1078.9285714285713
 20
497.1428571428571
 10
1078.9285714285713
 20
452.1428571428571
 10
1074.642857142857
 20
452.1428571428571
 97
0
 75
1
 76
1
 98
0
  0
LWPOLYLINE
  5
1B1
330
17
100
AcDbEntity
  8
WALL
100
AcDbPolyline
 90
4
 70
1
 10
378.2142857142857
 20
492.85714285714283
 10
382.5
 20
492.85714285714283
 10
382.5
 20
463.9285714285714
 10
378.2142857142857
 20
463.9285714285714
  0
HATCH
  5
1B2
330
17
100
AcDbEntity
  8
WALL
100
AcDbHatch
 10
0.0
 20
0.0
 30
0.0
210
0.0
220
0.0
230
1.0
  2
SOLID
 70
1
 71
0
 91
1
 92
3
 72
0
 73
1
 93
4
 10
378.2142857142857
 20
492.85714285714283
 10
382.5
 20
492.85714285714283
 10
382.5
 20
463.9285714285714
 10
378.2142857142857
 20
463.9285714285714
 97
0
 75
1
 76
1
 98
0
  0
LWPOLYLINE
  5
1B3
330
17
100
AcDbEntity
  8
WALL
100
AcDbPolyline
 90
4
 70
1
 10
673.9285714285714
 20
483.2142857142857
 10
678.2142857142857
 20
483.2142857142857
 10
678.2142857142857
 20
460.7142857142857
 10
673.9285714285714
 20
460.7142857142857
  0
HATCH
  5
1B4
330
17
100
AcDbEntity
  8
WALL
100
AcDbHatch
 10
0.0
 20
0.0
 30
0.0
210
0.0
220
0.0
230
1.0
  2
SOLID
 70
1
 71
0
 91
1
 92
3
 72
0
 73
1
 93
4
 10
673.9285714285714
 20
483.2142857142857
 10
678.2142857142857
 20
483.2142857142857
 10
678.2142857142857
 20
460.7142857142857
 10
673.9285714285714
 20
460.7142857142857
 97
0
 75
1
 76
1
 98
0
  0
LWPOLYLINE
  5
1B5
330
17
100
AcDbEntity
  8
WALL
100
AcDbPolyline
 90
4
 70
1
 10
136.07142857142856
 20
482.1428571428571
 10
142.5
 20
482.1428571428571
 10
142.5
 20
348.2142857142857
 10
136.07142857142856
 20
348.2142857142857
  0
HATCH
  5
1B6
330
17
100
AcDbEntity
  8
WALL
100
AcDbHatch
 10
0.0
 20
0.0
 30
0.0
210
0.0
220
0.0
230
1.0
  2
SOLID
 70
1
 71
0
 91
1
 92
3
 72
0
 73
1
 93
4
 10
136.07142857142856
 20
482.1428571428571
 10
142.5
 20
482.1428571428571
 10
142.5
 20
348.2142857142857
 10
136.07142857142856
 20
348.2142857142857
 97
0
 75
1
 76
1
 98
0
  0
LWPOLYLINE
  5
1B7
330
17
100
AcDbEntity
  8
WALL
100
AcDbPolyline
 90
4
 70
1
 10
868.9285714285714
 20
476.7857142857143
 10
875.3571428571428
 20
476.7857142857143
 10
875.3571428571428
 20
362.1428571428571
 10
868.9285714285714
 20
362.1428571428571
  0
HATCH
  5
1B8
330
17
100
AcDbEntity
  8
WALL
100
AcDbHatch
 10
0.0
 20
0.0
 30
0.0
210
0.0
220
0.0
230
1.0
  2
SOLID
 70
1
 71
0
 91
1
 92
3
 72
0
 73
1
 93
4
 10
868.9285714285714
 20
476.7857142857143
 10
875.3571428571428
 20
476.7857142857143
 10
875.3571428571428
 20
362.1428571428571
 10
868.9285714285714
 20
362.1428571428571
 97
0
 75
1
 76
1
 98
0
  0
LWPOLYLINE
  5
1B9
330
17
100
AcDbEntity
  8
WALL
100
AcDbPolyline
 90
4
 70
1
 10
661.0714285714286
 20
473.57142857142856
 10
669.6428571428571
 20
473.57142857142856
 10
669.6428571428571
 20
409.2857142857143
 10
661.0714285714286
 20
409.2857142857143
  0
HATCH
  5
1BA
330
17
100
AcDbEntity
  8
WALL
100
AcDbHatch
 10
0.0
 20
0.0
 30
0.0
210
0.0
220
0.0
230
1.0
  2
SOLID
 70
1
 71
0
 91
1
 92
3
 72
0
 73
1
 93
4
 10
661.0714285714286
 20
473.57142857142856
 10
669.6428571428571
 20
473.57142857142856
 10
669.6428571428571
 20
409.2857142857143
 10
661.0714285714286
 20
409.2857142857143
 97
0
 75
1
 76
1
 98
0
  0
LWPOLYLINE
  5
1BB
330
17
100
AcDbEntity
  8
WALL
100
AcDbPolyline
 90
4
 70
1
 10
1108.9285714285713
 20
469.2857142857143
 10
1121.7857142857142
 20
469.2857142857143
 10
1121.7857142857142
 20
405.0
 10
1108.9285714285713
 20
405.0
  0
HATCH
  5
1BC
330
17
100
AcDbEntity
  8
WALL
100
AcDbHatch
 10
0.0
 20
0.0
 30
0.0
210
0.0
220
0.0
230
1.0
  2
SOLID
 70
1
 71
0
 91
1
 92
3
 72
0
 73
1
 93
4
 10
1108.9285714285713
 20
469.2857142857143
 10
1121.7857142857142
 20
469.2857142857143
 10
1121.7857142857142
 20
405.0
 10
1108.9285714285713
 20
405.0
 97
0
 75
1
 76
1
 98
0
  0
LWPOLYLINE
  5
1BD
330
17
100
AcDbEntity
  8
WALL
100
AcDbPolyline
 90
4
 70
1
 10
853.9285714285714
 20
462.85714285714283
 10
864.6428571428571
 20
462.85714285714283
 10
864.6428571428571
 20
345.0
 10
853.9285714285714
 20
345.0
  0
HATCH
  5
1BE
330
17
100
AcDbEntity
  8
WALL
100
AcDbHatch
 10
0.0
 20
0.0
 30
0.0
210
0.0
220
0.0
230
1.0
  2
SOLID
 70
1
 71
0
 91
1
 92
3
 72
0
 73
1
 93
4
 10
853.9285714285714
 20
462.85714285714283
 10
864.6428571428571
 20
462.85714285714283
 10
864.6428571428571
 20
345.0
 10
853.9285714285714
 20
345.0
 97
0
 75
1
 76
1
 98
0
  0
LWPOLYLINE
  5
1BF
330
17
100
AcDbEntity
  8
WALL
100
AcDbPolyline
 90
4
 70
1
 10
626.7857142857142
 20
460.7142857142857
 10
628.9285714285714
 20
460.7142857142857
 10
628.9285714285714
 20
437.1428571428571
 10
626.7857142857142
 20
437.1428571428571
  0
HATCH
  5
1C0
330
17
100
AcDbEntity
  8
WALL
100
AcDbHatch
 10
0.0
 20
0.0
 30
0.0
210
0.0
220
0.0
230
1.0
  2
SOLID
 70
1
 71
0
 91
1
 92
3
 72
0
 73
1
 93
4
 10
626.7857142857142
 20
460.7142857142857
 10
628.9285714285714
 20
460.7142857142857
 10
628.9285714285714
 20
437.1428571428571
 10
626.7857142857142
 20
437.1428571428571
 97
0
 75
1
 76
1
 98
0
  0
LWPOLYLINE
  5
1C1
330
17
100
AcDbEntity
  8
WALL
100
AcDbPolyline
 90
4
 70
1
 10
673.9285714285714
 20
457.5
 10
680.3571428571429
 20
457.5
 10
680.3571428571429
 20
390.0
 10
673.9285714285714
 20
390.0
  0
HATCH
  5
1C2
330
17
100
AcDbEntity
  8
WALL
100
AcDbHatch
 10
0.0
 20
0.0
 30
0.0
210
0.0
220
0.0
230
1.0
  2
SOLID
 70
1
 71
0
 91
1
 92
3
 72
0
 73
1
 93
4
 10
673.9285714285714
 20
457.5
 10
680.3571428571429
 20
457.5
 10
680.3571428571429
 20
390.0
 10
673.9285714285714
 20
390.0
 97
0
 75
1
 76
1
 98
0
  0
LWPOLYLINE
  5
1C3
330
17
100
AcDbEntity
  8
WALL
100
AcDbPolyline
 90
4
 70
1
 10
603.2142857142857
 20
455.35714285714283
 10
618.2142857142857
 20
455.35714285714283
 10
618.2142857142857
 20
351.42857142857144
 10
603.2142857142857
 20
351.42857142857144
  0
HATCH
  5
1C4
330
17
100
AcDbEntity
  8
WALL
100
AcDbHatch
 10
0.0
 20
0.0
 30
0.0
210
0.0
220
0.0
230
1.0
  2
SOLID
 70
1
 71
0
 91
1
 92
3
 72
0
 73
1
 93
4
 10
603.2142857142857
 20
455.35714285714283
 10
618.2142857142857
 20
455.35714285714283
 10
618.2142857142857
 20
351.42857142857144
 10
603.2142857142857
 20
351.42857142857144
 97
0
 75
1
 76
1
 98
0
  0
LWPOLYLINE
  5
1C5
330
17
100
AcDbEntity
  8
WALL
100
AcDbPolyline
 90
4
 70
1
 10
613.9285714285714
 20
455.35714285714283
 10
618.2142857142857
 20
455.35714285714283
 10
618.2142857142857
 20
398.57142857142856
 10
613.9285714285714
 20
398.57142857142856
  0
HATCH
  5
1C6
330
17
100
AcDbEntity
  8
WALL
100
AcDbHatch
 10
0.0
 20
0.0
 30
0.0
210
0.0
220
0.0
230
1.0
  2
SOLID
 70
1
 71
0
 91
1
 92
3
 72
0
 73
1
 93
4
 10
613.9285714285714
 20
455.35714285714283
 10
618.2142857142857
 20
455.35714285714283
 10
618.2142857142857
 20
398.57142857142856
 10
613.9285714285714
 20
398.57142857142856
 97
0
 75
1
 76
1
 98
0
  0
LWPOLYLINE
  5
1C7
330
17
100
AcDbEntity
  8
WALL
100
AcDbPolyline
 90
4
 70
1
 10
792.8571428571429
 20
439.2857142857143
 10
796.0714285714286
 20
439.2857142857143
 10
796.0714285714286
 20
420.0
 10
792.8571428571429
 20
420.0
  0
HATCH
  5
1C8
330
17
100
AcDbEntity
  8
WALL
100
AcDbHatch
 10
0.0
 20
0.0
 30
0.0
210
0.0
220
0.0
230
1.0
  2
SOLID
 70
1
 71
0
 91
1
 92
3
 72
0
 73
1
 93
4
 10
792.8571428571429
 20
439.2857142857143
 10
796.0714285714286
 20
439.2857142857143
 10
796.0714285714286
 20
420.0
 10
792.8571428571429
 20
420.0
 97
0
 75
1
 76
1
 98
0
  0
LWPOLYLINE
  5
1C9
330
17
100
AcDbEntity
  8
WALL
100
AcDbPolyline
 90
4
 70
1
 10
641.7857142857142
 20
417.85714285714283
 10
648.2142857142857
 20
417.85714285714283
 10
648.2142857142857
 20
392.1428571428571
 10
641.7857142857142
 20
392.1428571428571
  0
HATCH
  5
1CA
330
17
100
AcDbEntity
  8
WALL
100
AcDbHatch
 10
0.0
 20
0.0
 30
0.0
210
0.0
220
0.0
230
1.0
  2
SOLID
 70
1
 71
0
 91
1
 92
3
 72
0
 73
1
 93
4
 10
641.7857142857142
 20
417.85714285714283
 10
648.2142857142857
 20
417.85714285714283
 10
648.2142857142857
 20
392.1428571428571
 10
641.7857142857142
 20
392.1428571428571
 97
0
 75
1
 76
1
 98
0
  0
LWPOLYLINE
  5
1CB
330
17
100
AcDbEntity
  8
WALL
100
AcDbPolyline
 90
4
 70
1
 10
1070.357142857143
 20
416.7857142857143
 10
1074.642857142857
 20
416.7857142857143
 10
1074.642857142857
 20
390.0
 10
1070.357142857143
 20
390.0
  0
HATCH
  5
1CC
330
17
100
AcDbEntity
  8
WALL
100
AcDbHatch
 10
0.0
 20
0.0
 30
0.0
210
0.0
220
0.0
230
1.0
  2
SOLID
 70
1
 71
0
 91
1
 92
3
 72
0
 73
1
 93
4
 10
1070.357142857143
 20
416.7857142857143
 10
1074.642857142857
 20
416.7857142857143
 10
1074.642857142857
 20
390.0
 10
1070.357142857143
 20
390.0
 97
0
 75
1
 76
1
 98
0
  0
LWPOLYLINE
  5
1CD
330
17
100
AcDbEntity
  8
WALL
100
AcDbPolyline
 90
4
 70
1
 10
793.9285714285714
 20
409.2857142857143
 10
800.3571428571429
 20
409.2857142857143
 10
800.3571428571429
 20
371.7857142857143
 10
793.9285714285714
 20
371.7857142857143
  0
HATCH
  5
1CE
330
17
100
AcDbEntity
  8
WALL
100
AcDbHatch
 10
0.0
 20
0.0
 30
0.0
210
0.0
220
0.0
230
1.0
  2
SOLID
 70
1
 71
0
 91
1
 92
3
 72
0
 73
1
 93
4
 10
793.9285714285714
 20
409.2857142857143
 10
800.3571428571429
 20
409.2857142857143
 10
800.3571428571429
 20
371.7857142857143
 10
793.9285714285714
 20
371.7857142857143
 97
0
 75
1
 76
1
 98
0
  0
LWPOLYLINE
  5
1CF
330
17
100
AcDbEntity
  8
WALL
100
AcDbPolyline
 90
4
 70
1
 10
1130.357142857143
 20
408.2142857142857
 10
1145.357142857143
 20
408.2142857142857
 10
1145.357142857143
 20
371.7857142857143
 10
1130.357142857143
 20
371.7857142857143
  0
HATCH
  5
1D0
330
17
100
AcDbEntity
  8
WALL
100
AcDbHatch
 10
0.0
 20
0.0
 30
0.0
210
0.0
220
0.0
230
1.0
  2
SOLID
 70
1
 71
0
 91
1
 92
3
 72
0
 73
1
 93
4
 10
1130.357142857143
 20
408.2142857142857
 10
1145.357142857143
 20
408.2142857142857
 10
1145.357142857143
 20
371.7857142857143
 10
1130.357142857143
 20
371.7857142857143
 97
0
 75
1
 76
1
 98
0
  0
LWPOLYLINE
  5
1D1
330
17
100
AcDbEntity
  8
WALL
100
AcDbPolyline
 90
4
 70
1
 10
663.2142857142857
 20
405.0
 10
667.5
 20
405.0
 10
667.5
 20
381.42857142857144
 10
663.2142857142857
 20
381.42857142857144
  0
HATCH
  5
1D2
330
17
100
AcDbEntity
  8
WALL
100
AcDbHatch
 10
0.0
 20
0.0
 30
0.0
210
0.0
220
0.0
230
1.0
  2
SOLID
 70
1
 71
0
 91
1
 92
3
 72
0
 73
1
 93
4
 10
663.2142857142857
 20
405.0
 10
667.5
 20
405.0
 10
667.5
 20
381.42857142857144
 10
663.2142857142857
 20
381.42857142857144
 97
0
 75
1
 76
1
 98
0
  0
LWPOLYLINE
  5
1D3
330
17
100
AcDbEntity
  8
WALL
100
AcDbPolyline
 90
4
 70
1
 10
118.92857142857143
 20
384.6428571428571
 10
123.21428571428571
 20
384.6428571428571
 10
123.21428571428571
 20
345.0
 10
118.92857142857143
 20
345.0
  0
HATCH
  5
1D4
330
17
100
AcDbEntity
  8
WALL
100
AcDbHatch
 10
0.0
 20
0.0
 30
0.0
210
0.0
220
0.0
230
1.0
  2
SOLID
 70
1
 71
0
 91
1
 92
3
 72
0
 73
1
 93
4
 10
118.92857142857143
 20
384.6428571428571
 10
123.21428571428571
 20
384.6428571428571
 10
123.21428571428571
 20
345.0
 10
118.92857142857143
 20
345.0
 97
0
 75
1
 76
1
 98
0
  0
LWPOLYLINE
  5
1D5
330
17
100
AcDbEntity
  8
WALL
100
AcDbPolyline
 90
4
 70
1
 10
125.35714285714285
 20
383.57142857142856
 10
133.92857142857142
 20
383.57142857142856
 10
133.92857142857142
 20
346.07142857142856
 10
125.35714285714285
 20
346.07142857142856
  0
HATCH
  5
1D6
330
17
100
AcDbEntity
  8
WALL
100
AcDbHatch
 10
0.0
 20
0.0
 30
0.0
210
0.0
220
0.0
230
1.0
  2
SOLID
 70
1
 71
0
 91
1
 92
3
 72
0
 73
1
 93
4
 10
125.35714285714285
 20
383.57142857142856
 10
133.92857142857142
 20
383.57142857142856
 10
133.92857142857142
 20
346.07142857142856
 10
125.35714285714285
 20
346.07142857142856
 97
0
 75
1
 76
1
 98
0
  0
LWPOLYLINE
  5
1D7
330
17
100
AcDbEntity
  8
WALL
100
AcDbPolyline
 90
4
 70
1
 10
676.0714285714286
 20
372.85714285714283
 10
680.3571428571429
 20
372.85714285714283
 10
680.3571428571429
 20
346.07142857142856
 10
676.0714285714286
 20
346.07142857142856
  0
HATCH
  5
1D8
330
17
100
AcDbEntity
  8
WALL
100
AcDbHatch
 10
0.0
 20
0.0
 30
0.0
210
0.0
220
0.0
230
1.0
  2
SOLID
 70
1
 71
0
 91
1
 92
3
 72
0
 73
1
 93
4
 10
676.0714285714286
 20
372.85714285714283
 10
680.3571428571429
 20
372.85714285714283
 10
680.3571428571429
 20
346.07142857142856
 10
676.0714285714286
 20
346.07142857142856
 97
0
 75
1
 76
1
 98
0
  0
LWPOLYLINE
  5
1D9
330
17
100
AcDbEntity
  8
WALL
100
AcDbPolyline
 90
4
 70
1
 10
819.6428571428571
 20
372.85714285714283
 10
823.9285714285714
 20
372.85714285714283
 10
823.9285714285714
 20
345.0
 10
819.6428571428571
 20
345.0
  0
HATCH
  5
1DA
330
17
100
AcDbEntity
  8
WALL
100
AcDbHatch
 10
0.0
 20
0.0
 30
0.0
210
0.0
220
0.0
230
1.0
  2
SOLID
 70
1
 71
0
 91
1
 92
3
 72
0
 73
1
 93
4
 10
819.6428571428571
 20
372.85714285714283
 10
823.9285714285714
 20
372.85714285714283
 10
823.9285714285714
 20
345.0
 10
819.6428571428571
 20
345.0
 97
0
 75
1
 76
1
 98
0
  0
LWPOLYLINE
  5
1DB
330
17
100
AcDbEntity
  8
WALL
100
AcDbPolyline
 90
4
 70
1
 10
560.3571428571429
 20
369.6428571428571
 10
564.6428571428571
 20
369.6428571428571
 10
564.6428571428571
 20
347.1428571428571
 10
560.3571428571429
 20
347.1428571428571
  0
HATCH
  5
1DC
330
17
100
AcDbEntity
  8
WALL
100
AcDbHatch
 10
0.0
 20
0.0
 30
0.0
210
0.0
220
0.0
230
1.0
  2
SOLID
 70
1
 71
0
 91
1
 92
3
 72
0
 73
1
 93
4
 10
560.3571428571429
 20
369.6428571428571
 10
564.6428571428571
 20
369.6428571428571
 10
564.6428571428571
 20
347.1428571428571
 10
560.3571428571429
 20
347.1428571428571
 97
0
 75
1
 76
1
 98
0
  0
LWPOLYLINE
  5
1DD
330
17
100
AcDbEntity
  8
WALL
100
AcDbPolyline
 90
4
 70
1
 10
667.5
 20
368.57142857142856
 10
671.7857142857142
 20
368.57142857142856
 10
671.7857142857142
 20
346.07142857142856
 10
667.5
 20
346.07142857142856
  0
HATCH
  5
1DE
330
17
100
AcDbEntity
  8
WALL
100
AcDbHatch
 10
0.0
 20
0.0
 30
0.0
210
0.0
220
0.0
230
1.0
  2
SOLID
 70
1
 71
0
 91
1
 92
3
 72
0
 73
1
 93
4
 10
667.5
 20
368.57142857142856
 10
671.7857142857142
 20
368.57142857142856
 10
671.7857142857142
 20
346.07142857142856
 10
667.5
 20
346.07142857142856
 97
0
 75
1
 76
1
 98
0
  0
LWPOLYLINE
  5
1DF
330
17
100
AcDbEntity
  8
WALL
100
AcDbPolyline
 90
4
 70
1
 10
886.0714285714286
 20
366.42857142857144
 10
890.3571428571428
 20
366.42857142857144
 10
890.3571428571428
 20
345.0
 10
886.0714285714286
 20
345.0
  0
HATCH
  5
1E0
330
17
100
AcDbEntity
  8
WALL
100
AcDbHatch
 10
0.0
 20
0.0
 30
0.0
210
0.0
220
0.0
230
1.0
  2
SOLID
 70
1
 71
0
 91
1
 92
3
 72
0
 73
1
 93
4
 10
886.0714285714286
 20
366.42857142857144
 10
890.3571428571428
 20
366.42857142857144
 10
890.3571428571428
 20
345.0
 10
886.0714285714286
 20
345.0
 97
0
 75
1
 76
1
 98
0
  0
LWPOLYLINE
  5
1E1
330
17
100
AcDbEntity
  8
WALL
100
AcDbPolyline
 90
4
 70
1
 10
433.9285714285714
 20
286.07142857142856
 10
446.7857142857143
 20
286.07142857142856
 10
446.7857142857143
 20
150.0
 10
433.9285714285714
 20
150.0
  0
HATCH
  5
1E2
330
17
100
AcDbEntity
  8
WALL
100
AcDbHatch
 10
0.0
 20
0.0
 30
0.0
210
0.0
220
0.0
230
1.0
  2
SOLID
 70
1
 71
0
 91
1
 92
3
 72
0
 73
1
 93
4
 10
433.9285714285714
 20
286.07142857142856
 10
446.7857142857143
 20
286.07142857142856
 10
446.7857142857143
 20
150.0
 10
433.9285714285714
 20
150.0
 97
0
 75
1
 76
1
 98
0
  0
LWPOLYLINE
  5
1E3
330
17
100
AcDbEntity
  8
WALL
100
AcDbPolyline
 90
4
 70
1
 10
118.92857142857143
 20
263.57142857142856
 10
123.21428571428571
 20
263.57142857142856
 10
123.21428571428571
 20
212.14285714285714
 10
118.92857142857143
 20
212.14285714285714
  0
HATCH
  5
1E4
330
17
100
AcDbEntity
  8
WALL
100
AcDbHatch
 10
0.0
 20
0.0
 30
0.0
210
0.0
220
0.0
230
1.0
  2
SOLID
 70
1
 71
0
 91
1
 92
3
 72
0
 73
1
 93
4
 10
118.92857142857143
 20
263.57142857142856
 10
123.21428571428571
 20
263.57142857142856
 10
123.21428571428571
 20
212.14285714285714
 10
118.92857142857143
 20
212.14285714285714
 97
0
 75
1
 76
1
 98
0
  0
LWPOLYLINE
  5
1E5
330
17
100
AcDbEntity
  8
WALL
100
AcDbPolyline
 90
4
 70
1
 10
121.07142857142857
 20
263.57142857142856
 10
133.92857142857142
 20
263.57142857142856
 10
133.92857142857142
 20
158.57142857142856
 10
121.07142857142857
 20
158.57142857142856
  0
HATCH
  5
1E6
330
17
100
AcDbEntity
  8
WALL
100
AcDbHatch
 10
0.0
 20
0.0
 30
0.0
210
0.0
220
0.0
230
1.0
  2
SOLID
 70
1
 71
0
 91
1
 92
3
 72
0
 73
1
 93
4
 10
121.07142857142857
 20
263.57142857142856
 10
133.92857142857142
 20
263.57142857142856
 10
133.92857142857142
 20
158.57142857142856
 10
121.07142857142857
 20
158.57142857142856
 97
0
 75
1
 76
1
 98
0
  0
LWPOLYLINE
  5
1E7
330
17
100
AcDbEntity
  8
WALL
100
AcDbPolyline
 90
4
 70
1
 10
136.07142857142856
 20
263.57142857142856
 10
138.21428571428572
 20
263.57142857142856
 10
138.21428571428572
 20
244.28571428571428
 10
136.07142857142856
 20
244.28571428571428
  0
HATCH
  5
1E8
330
17
100
AcDbEntity
  8
WALL
100
AcDbHatch
 10
0.0
 20
0.0
 30
0.0
210
0.0
220
0.0
230
1.0
  2
SOLID
 70
1
 71
0
 91
1
 92
3
 72
0
 73
1
 93
4
 10
136.07142857142856
 20
263.57142857142856
 10
138.21428571428572
 20
263.57142857142856
 10
138.21428571428572
 20
244.28571428571428
 10
136.07142857142856
 20
244.28571428571428
 97
0
 75
1
 76
1
 98
0
  0
LWPOLYLINE
  5
1E9
330
17
100
AcDbEntity
  8
WALL
100
AcDbPolyline
 90
4
 70
1
 10
427.5
 20
249.64285714285714
 10
431.7857142857143
 20
249.64285714285714
 10
431.7857142857143
 20
192.85714285714286
 10
427.5
 20
192.85714285714286
  0
HATCH
  5
1EA
330
17
100
AcDbEntity
  8
WALL
100
AcDbHatch
 10
0.0
 20
0.0
 30
0.0
210
0.0
220
0.0
230
1.0
  2
SOLID
 70
1
 71
0
 91
1
 92
3
 72
0
 73
1
 93
4
 10
427.5
 20
249.64285714285714
 10
431.7857142857143
 20
249.64285714285714
 10
431.7857142857143
 20
192.85714285714286
 10
427.5
 20
192.85714285714286
 97
0
 75
1
 76
1
 98
0
  0
LWPOLYLINE
  5
1EB
330
17
100
AcDbEntity
  8
WALL
100
AcDbPolyline
 90
4
 70
1
 10
238.92857142857142
 20
235.7142857142857
 10
249.64285714285714
 20
235.7142857142857
 10
249.64285714285714
 20
174.64285714285714
 10
238.92857142857142
 20
174.64285714285714
  0
HATCH
  5
1EC
330
17
100
AcDbEntity
  8
WALL
100
AcDbHatch
 10
0.0
 20
0.0
 30
0.0
210
0.0
220
0.0
230
1.0
  2
SOLID
 70
1
 71
0
 91
1
 92
3
 72
0
 73
1
 93
4
 10
238.92857142857142
 20
235.7142857142857
 10
249.64285714285714
 20
235.7142857142857
 10
249.64285714285714
 20
174.64285714285714
 10
238.92857142857142
 20
174.64285714285714
 97
0
 75
1
 76
1
 98
0
  0
LWPOLYLINE
  5
1ED
330
17
100
AcDbEntity
  8
WALL
100
AcDbPolyline
 90
4
 70
1
 10
661.0714285714286
 20
189.64285714285714
 10
665.3571428571429
 20
189.64285714285714
 10
665.3571428571429
 20
165.0
 10
661.0714285714286
 20
165.0
  0
HATCH
  5
1EE
330
17
100
AcDbEntity
  8
WALL
100
AcDbHatch
 10
0.0
 20
0.0
 30
0.0
210
0.0
220
0.0
230
1.0
  2
SOLID
 70
1
 71
0
 91
1
 92
3
 72
0
 73
1
 93
4
 10
661.0714285714286
 20
189.64285714285714
 10
665.3571428571429
 20
189.64285714285714
 10
665.3571428571429
 20
165.0
 10
661.0714285714286
 20
165.0
 97
0
 75
1
 76
1
 98
0
  0
LWPOLYLINE
  5
1EF
330
17
100
AcDbEntity
  8
WALL
100
AcDbPolyline
 90
4
 70
1
 10
142.5
 20
173.57142857142856
 10
148.92857142857142
 20
173.57142857142856
 10
148.92857142857142
 20
152.14285714285714
 10
142.5
 20
152.14285714285714
  0
HATCH
  5
1F0
330
17
100
AcDbEntity
  8
WALL
100
AcDbHatch
 10
0.0
 20
0.0
 30
0.0
210
0.0
220
0.0
230
1.0
  2
SOLID
 70
1
 71
0
 91
1
 92
3
 72
0
 73
1
 93
4
 10
142.5
 20
173.57142857142856
 10
148.92857142857142
 20
173.57142857142856
 10
148.92857142857142
 20
152.14285714285714
 10
142.5
 20
152.14285714285714
 97
0
 75
1
 76
1
 98
0
  0
LWPOLYLINE
  5
1F1
330
17
100
AcDbEntity
  8
WALL
100
AcDbPolyline
 90
4
 70
1
 10
157.5
 20
173.57142857142856
 10
161.78571428571428
 20
173.57142857142856
 10
161.78571428571428
 20
152.14285714285714
 10
157.5
 20
152.14285714285714
  0
HATCH
  5
1F2
330
17
100
AcDbEntity
  8
WALL
100
AcDbHatch
 10
0.0
 20
0.0
 30
0.0
210
0.0
220
0.0
230
1.0
  2
SOLID
 70
1
 71
0
 91
1
 92
3
 72
0
 73
1
 93
4
 10
157.5
 20
173.57142857142856
 10
161.78571428571428
 20
173.57142857142856
 10
161.78571428571428
 20
152.14285714285714
 10
157.5
 20
152.14285714285714
 97
0
 75
1
 76
1
 98
0
  0
LWPOLYLINE
  5
1F3
330
17
100
AcDbEntity
  8
WALL
100
AcDbPolyline
 90
4
 70
1
 10
172.5
 20
173.57142857142856
 10
178.92857142857142
 20
173.57142857142856
 10
178.92857142857142
 20
152.14285714285714
 10
172.5
 20
152.14285714285714
  0
HATCH
  5
1F4
330
17
100
AcDbEntity
  8
WALL
100
AcDbHatch
 10
0.0
 20
0.0
 30
0.0
210
0.0
220
0.0
230
1.0
  2
SOLID
 70
1
 71
0
 91
1
 92
3
 72
0
 73
1
 93
4
 10
172.5
 20
173.57142857142856
 10
178.92857142857142
 20
173.57142857142856
 10
178.92857142857142
 20
152.14285714285714
 10
172.5
 20
152.14285714285714
 97
0
 75
1
 76
1
 98
0
  0
LWPOLYLINE
  5
1F5
330
17
100
AcDbEntity
  8
WALL
100
AcDbPolyline
 90
4
 70
1
 10
217.5
 20
173.57142857142856
 10
219.64285714285714
 20
173.57142857142856
 10
219.64285714285714
 20
152.14285714285714
 10
217.5
 20
152.14285714285714
  0
HATCH
  5
1F6
330
17
100
AcDbEntity
  8
WALL
100
AcDbHatch
 10
0.0
 20
0.0
 30
0.0
210
0.0
220
0.0
230
1.0
  2
SOLID
 70
1
 71
0
 91
1
 92
3
 72
0
 73
1
 93
4
 10
217.5
 20
173.57142857142856
 10
219.64285714285714
 20
173.57142857142856
 10
219.64285714285714
 20
152.14285714285714
 10
217.5
 20
152.14285714285714
 97
0
 75
1
 76
1
 98
0
  0
LWPOLYLINE
  5
1F7
330
17
100
AcDbEntity
  8
WALL
100
AcDbPolyline
 90
4
 70
1
 10
513.2142857142857
 20
171.42857142857142
 10
515.3571428571429
 20
171.42857142857142
 10
515.3571428571429
 20
148.92857142857142
 10
513.2142857142857
 20
148.92857142857142
  0
HATCH
  5
1F8
330
17
100
AcDbEntity
  8
WALL
100
AcDbHatch
 10
0.0
 20
0.0
 30
0.0
210
0.0
220
0.0
230
1.0
  2
SOLID
 70
1
 71
0
 91
1
 92
3
 72
0
 73
1
 93
4
 10
513.2142857142857
 20
171.42857142857142
 10
515.3571428571429
 20
171.42857142857142
 10
515.3571428571429
 20
148.92857142857142
 10
513.2142857142857
 20
148.92857142857142
 97
0
 75
1
 76
1
 98
0
  0
LWPOLYLINE
  5
1F9
330
17
100
AcDbEntity
  8
WALL
100
AcDbPolyline
 90
4
 70
1
 10
597.8571428571429
 20
163.92857142857142
 10
601.0714285714286
 20
163.92857142857142
 10
601.0714285714286
 20
143.57142857142856
 10
597.8571428571429
 20
143.57142857142856
  0
HATCH
  5
1FA
330
17
100
AcDbEntity
  8
WALL
100
AcDbHatch
 10
0.0
 20
0.0
 30
0.0
210
0.0
220
0.0
230
1.0
  2
SOLID
 70
1
 71
0
 91
1
 92
3
 72
0
 73
1
 93
4
 10
597.8571428571429
 20
163.92857142857142
 10
601.0714285714286
 20
163.92857142857142
 10
601.0714285714286
 20
143.57142857142856
 10
597.8571428571429
 20
143.57142857142856
 97
0
 75
1
 76
1
 98
0
  0
LWPOLYLINE
  5
1FB
330
17
100
AcDbEntity
  8
WALL
100
AcDbPolyline
 90
4
 70
1
 10
502.5
 20
154.28571428571428
 10
508.9285714285714
 20
154.28571428571428
 10
508.9285714285714
 20
132.85714285714286
 10
502.5
 20
132.85714285714286
  0
HATCH
  5
1FC
330
17
100
AcDbEntity
  8
WALL
100
AcDbHatch
 10
0.0
 20
0.0
 30
0.0
210
0.0
220
0.0
230
1.0
  2
SOLID
 70
1
 71
0
 91
1
 92
3
 72
0
 73
1
 93
4
 10
502.5
 20
154.28571428571428
 10
508.9285714285714
 20
154.28571428571428
 10
508.9285714285714
 20
132.85714285714286
 10
502.5
 20
132.85714285714286
 97
0
 75
1
 76
1
 98
0
  0
LWPOLYLINE
  5
1FD
330
17
100
AcDbEntity
  8
WALL
100
AcDbPolyline
 90
4
 70
1
 10
76.07142857142857
 20
124.28571428571428
 10
80.35714285714286
 20
124.28571428571428
 10
80.35714285714286
 20
102.85714285714286
 10
76.07142857142857
 20
102.85714285714286
  0
HATCH
  5
1FE
330
17
100
AcDbEntity
  8
WALL
100
AcDbHatch
 10
0.0
 20
0.0
 30
0.0
210
0.0
220
0.0
230
1.0
  2
SOLID
 70
1
 71
0
 91
1
 92
3
 72
0
 73
1
 93
4
 10
76.07142857142857
 20
124.28571428571428
 10
80.35714285714286
 20
124.28571428571428
 10
80.35714285714286
 20
102.85714285714286
 10
76.07142857142857
 20
102.85714285714286
 97
0
 75
1
 76
1
 98
0
  0
LWPOLYLINE
  5
1FF
330
17
100
AcDbEntity
  8
WALL
100
AcDbPolyline
 90
4
 70
1
 10
393.2142857142857
 20
101.78571428571428
 10
397.5
 20
101.78571428571428
 10
397.5
 20
67.5
 10
393.2142857142857
 20
67.5
  0
HATCH
  5
200
330
17
100
AcDbEntity
  8
WALL
100
AcDbHatch
 10
0.0
 20
0.0
 30
0.0
210
0.0
220
0.0
230
1.0
  2
SOLID
 70
1
 71
0
 91
1
 92
3
 72
0
 73
1
 93
4
 10
393.2142857142857
 20
101.78571428571428
 10
397.5
 20
101.78571428571428
 10
397.5
 20
67.5
 10
393.2142857142857
 20
67.5
 97
0
 75
1
 76
1
 98
0
  0
LWPOLYLINE
  5
201
330
17
100
AcDbEntity
  8
WALL
100
AcDbPolyline
 90
4
 70
1
 10
399.6428571428571
 20
102.85714285714286
 10
408.2142857142857
 20
102.85714285714286
 10
408.2142857142857
 20
67.5
 10
399.6428571428571
 20
67.5
  0
HATCH
  5
202
330
17
100
AcDbEntity
  8
WALL
100
AcDbHatch
 10
0.0
 20
0.0
 30
0.0
210
0.0
220
0.0
230
1.0
  2
SOLID
 70
1
 71
0
 91
1
 92
3
 72
0
 73
1
 93
4
 10
399.6428571428571
 20
102.85714285714286
 10
408.2142857142857
 20
102.85714285714286
 10
408.2142857142857
 20
67.5
 10
399.6428571428571
 20
67.5
 97
0
 75
1
 76
1
 98
0
  0
LWPOLYLINE
  5
203
330
17
100
AcDbEntity
  8
WALL
100
AcDbPolyline
 90
4
 70
1
 10
410.35714285714283
 20
102.85714285714286
 10
414.6428571428571
 20
102.85714285714286
 10
414.6428571428571
 20
64.28571428571428
 10
410.35714285714283
 20
64.28571428571428
  0
HATCH
  5
204
330
17
100
AcDbEntity
  8
WALL
100
AcDbHatch
 10
0.0
 20
0.0
 30
0.0
210
0.0
220
0.0
230
1.0
  2
SOLID
 70
1
 71
0
 91
1
 92
3
 72
0
 73
1
 93
4
 10
410.35714285714283
 20
102.85714285714286
 10
414.6428571428571
 20
102.85714285714286
 10
414.6428571428571
 20
64.28571428571428
 10
410.35714285714283
 20
64.28571428571428
 97
0
 75
1
 76
1
 98
0
  0
LWPOLYLINE
  5
205
330
17
100
AcDbEntity
  8
WALL
100
AcDbPolyline
 90
4
 70
1
 10
498.2142857142857
 20
67.5
 10
508.9285714285714
 20
67.5
 10
508.9285714285714
 20
41.785714285714285
 10
498.2142857142857
 20
41.785714285714285
  0
HATCH
  5
206
330
17
100
AcDbEntity
  8
WALL
100
AcDbHatch
 10
0.0
 20
0.0
 30
0.0
210
0.0
220
0.0
230
1.0
  2
SOLID
 70
1
 71
0
 91
1
 92
3
 72
0
 73
1
 93
4
 10
498.2142857142857
 20
67.5
 10
508.9285714285714
 20
67.5
 10
508.9285714285714
 20
41.785714285714285
 10
498.2142857142857
 20
41.785714285714285
 97
0
 75
1
 76
1
 98
0
  0
LWPOLYLINE
  5
207
330
17
100
AcDbEntity
  8
WALL
100
AcDbPolyline
 90
4
 70
1
 10
78.21428571428571
 20
40.714285714285715
 10
82.5
 20
40.714285714285715
 10
82.5
 20
17.142857142857142
 10
78.21428571428571
 20
17.142857142857142
  0
HATCH
  5
208
330
17
100
AcDbEntity
  8
WALL
100
AcDbHatch
 10
0.0
 20
0.0
 30
0.0
210
0.0
220
0.0
230
1.0
  2
SOLID
 70
1
 71
0
 91
1
 92
3
 72
0
 73
1
 93
4
 10
78.21428571428571
 20
40.714285714285715
 10
82.5
 20
40.714285714285715
 10
82.5
 20
17.142857142857142
 10
78.21428571428571
 20
17.142857142857142
 97
0
 75
1
 76
1
 98
0
  0
LINE
  5
209
330
17
100
AcDbEntity
  8
WINDOW
100
AcDbLine
 10
846.4285714285714
 20
1021.0714285714286
 30
0.0
 11
855.0
 21
1021.0714285714286
 31
0.0
  0
LINE
  5
20A
330
17
100
AcDbEntity
  8
WINDOW
100
AcDbLine
 10
846.4285714285714
 20
1016.0714285714286
 30
0.0
 11
855.0
 21
1016.0714285714286
 31
0.0
  0
LINE
  5
20B
330
17
100
AcDbEntity
  8
WINDOW
100
AcDbLine
 10
846.4285714285714
 20
1011.0714285714286
 30
0.0
 11
855.0
 21
1011.0714285714286
 31
0.0
  0
LINE
  5
20C
330
17
100
AcDbEntity
  8
WINDOW
100
AcDbLine
 10
846.4285714285714
 20
1006.0714285714286
 30
0.0
 11
855.0
 21
1006.0714285714286
 31
0.0
  0
LINE
  5
20D
330
17
100
AcDbEntity
  8
WINDOW
100
AcDbLine
 10
846.4285714285714
 20
1021.0714285714286
 30
0.0
 11
846.4285714285714
 21
1006.0714285714286
 31
0.0
  0
LINE
  5
20E
330
17
100
AcDbEntity
  8
WINDOW
100
AcDbLine
 10
855.0
 20
1021.0714285714286
 30
0.0
 11
855.0
 21
1006.0714285714286
 31
0.0
  0
LINE
  5
20F
330
17
100
AcDbEntity
  8
WINDOW
100
AcDbLine
 10
323.57142857142856
 20
727.5
 30
0.0
 11
368.57142857142856
 21
727.5
 31
0.0
  0
LINE
  5
210
330
17
100
AcDbEntity
  8
WINDOW
100
AcDbLine
 10
323.57142857142856
 20
725.3571428571429
 30
0.0
 11
368.57142857142856
 21
725.3571428571429
 31
0.0
  0
LINE
  5
211
330
17
100
AcDbEntity
  8
WINDOW
100
AcDbLine
 10
323.57142857142856
 20
723.2142857142857
 30
0.0
 11
368.57142857142856
 21
723.2142857142857
 31
0.0
  0
LINE
  5
212
330
17
100
AcDbEntity
  8
WINDOW
100
AcDbLine
 10
323.57142857142856
 20
721.0714285714286
 30
0.0
 11
368.57142857142856
 21
721.0714285714286
 31
0.0
  0
LINE
  5
213
330
17
100
AcDbEntity
  8
WINDOW
100
AcDbLine
 10
323.57142857142856
 20
727.5
 30
0.0
 11
323.57142857142856
 21
721.0714285714286
 31
0.0
  0
LINE
  5
214
330
17
100
AcDbEntity
  8
WINDOW
100
AcDbLine
 10
368.57142857142856
 20
727.5
 30
0.0
 11
368.57142857142856
 21
721.0714285714286
 31
0.0
  0
LINE
  5
215
330
17
100
AcDbEntity
  8
WINDOW
100
AcDbLine
 10
499.2857142857143
 20
667.5
 30
0.0
 11
520.7142857142857
 21
667.5
 31
0.0
  0
LINE
  5
216
330
17
100
AcDbEntity
  8
WINDOW
100
AcDbLine
 10
499.2857142857143
 20
665.3571428571429
 30
0.0
 11
520.7142857142857
 21
665.3571428571429
 31
0.0
  0
LINE
  5
217
330
17
100
AcDbEntity
  8
WINDOW
100
AcDbLine
 10
499.2857142857143
 20
663.2142857142857
 30
0.0
 11
520.7142857142857
 21
663.2142857142857
 31
0.0
  0
LINE
  5
218
330
17
100
AcDbEntity
  8
WINDOW
100
AcDbLine
 10
499.2857142857143
 20
661.0714285714286
 30
0.0
 11
520.7142857142857
 21
661.0714285714286
 31
0.0
  0
LINE
  5
219
330
17
100
AcDbEntity
  8
WINDOW
100
AcDbLine
 10
499.2857142857143
 20
667.5
 30
0.0
 11
499.2857142857143
 21
661.0714285714286
 31
0.0
  0
LINE
  5
21A
330
17
100
AcDbEntity
  8
WINDOW
100
AcDbLine
 10
520.7142857142857
 20
667.5
 30
0.0
 11
520.7142857142857
 21
661.0714285714286
 31
0.0
  0
LINE
  5
21B
330
17
100
AcDbEntity
  8
WINDOW
100
AcDbLine
 10
810.0
 20
664.2857142857142
 30
0.0
 11
848.5714285714286
 21
664.2857142857142
 31
0.0
  0
LINE
  5
21C
330
17
100
AcDbEntity
  8
WINDOW
100
AcDbLine
 10
810.0
 20
662.4999999999999
 30
0.0
 11
848.5714285714286
 21
662.4999999999999
 31
0.0
  0
LINE
  5
21D
330
17
100
AcDbEntity
  8
WINDOW
100
AcDbLine
 10
810.0
 20
660.7142857142858
 30
0.0
 11
848.5714285714286
 21
660.7142857142858
 31
0.0
  0
LINE
  5
21E
330
17
100
AcDbEntity
  8
WINDOW
100
AcDbLine
 10
810.0
 20
658.9285714285714
 30
0.0
 11
848.5714285714286
 21
658.9285714285714
 31
0.0
  0
LINE
  5
21F
330
17
100
AcDbEntity
  8
WINDOW
100
AcDbLine
 10
810.0
 20
664.2857142857142
 30
0.0
 11
810.0
 21
658.9285714285714
 31
0.0
  0
LINE
  5
220
330
17
100
AcDbEntity
  8
WINDOW
100
AcDbLine
 10
848.5714285714286
 20
664.2857142857142
 30
0.0
 11
848.5714285714286
 21
658.9285714285714
 31
0.0
  0
LINE
  5
221
330
17
100
AcDbEntity
  8
WINDOW
100
AcDbLine
 10
1002.8571428571428
 20
665.3571428571429
 30
0.0
 11
1009.2857142857142
 21
665.3571428571429
 31
0.0
  0
LINE
  5
222
330
17
100
AcDbEntity
  8
WINDOW
100
AcDbLine
 10
1002.8571428571428
 20
663.2142857142857
 30
0.0
 11
1009.2857142857142
 21
663.2142857142857
 31
0.0
  0
LINE
  5
223
330
17
100
AcDbEntity
  8
WINDOW
100
AcDbLine
 10
1002.8571428571428
 20
661.0714285714286
 30
0.0
 11
1009.2857142857142
 21
661.0714285714286
 31
0.0
  0
LINE
  5
224
330
17
100
AcDbEntity
  8
WINDOW
100
AcDbLine
 10
1002.8571428571428
 20
658.9285714285714
 30
0.0
 11
1009.2857142857142
 21
658.9285714285714
 31
0.0
  0
LINE
  5
225
330
17
100
AcDbEntity
  8
WINDOW
100
AcDbLine
 10
1002.8571428571428
 20
665.3571428571429
 30
0.0
 11
1002.8571428571428
 21
658.9285714285714
 31
0.0
  0
LINE
  5
226
330
17
100
AcDbEntity
  8
WINDOW
100
AcDbLine
 10
1009.2857142857142
 20
665.3571428571429
 30
0.0
 11
1009.2857142857142
 21
658.9285714285714
 31
0.0
  0
LINE
  5
227
330
17
100
AcDbEntity
  8
WINDOW
100
AcDbLine
 10
270.0
 20
436.07142857142856
 30
0.0
 11
302.1428571428571
 21
436.07142857142856
 31
0.0
  0
LINE
  5
228
330
17
100
AcDbEntity
  8
WINDOW
100
AcDbLine
 10
270.0
 20
433.9285714285714
 30
0.0
 11
302.1428571428571
 21
433.9285714285714
 31
0.0
  0
LINE
  5
229
330
17
100
AcDbEntity
  8
WINDOW
100
AcDbLine
 10
270.0
 20
431.7857142857143
 30
0.0
 11
302.1428571428571
 21
431.7857142857143
 31
0.0
  0
LINE
  5
22A
330
17
100
AcDbEntity
  8
WINDOW
100
AcDbLine
 10
270.0
 20
429.6428571428571
 30
0.0
 11
302.1428571428571
 21
429.6428571428571
 31
0.0
  0
LINE
  5
22B
330
17
100
AcDbEntity
  8
WINDOW
100
AcDbLine
 10
270.0
 20
436.07142857142856
 30
0.0
 11
270.0
 21
429.6428571428571
 31
0.0
  0
LINE
  5
22C
330
17
100
AcDbEntity
  8
WINDOW
100
AcDbLine
 10
302.1428571428571
 20
436.07142857142856
 30
0.0
 11
302.1428571428571
 21
429.6428571428571
 31
0.0
  0
LINE
  5
22D
330
17
100
AcDbEntity
  8
WINDOW
100
AcDbLine
 10
1058.5714285714284
 20
384.6428571428571
 30
0.0
 11
1101.4285714285713
 21
384.6428571428571
 31
0.0
  0
LINE
  5
22E
330
17
100
AcDbEntity
  8
WINDOW
100
AcDbLine
 10
1058.5714285714284
 20
382.5
 30
0.0
 11
1101.4285714285713
 21
382.5
 31
0.0
  0
LINE
  5
22F
330
17
100
AcDbEntity
  8
WINDOW
100
AcDbLine
 10
1058.5714285714284
 20
380.35714285714283
 30
0.0
 11
1101.4285714285713
 21
380.35714285714283
 31
0.0
  0
LINE
  5
230
330
17
100
AcDbEntity
  8
WINDOW
100
AcDbLine
 10
1058.5714285714284
 20
378.2142857142857
 30
0.0
 11
1101.4285714285713
 21
378.2142857142857
 31
0.0
  0
LINE
  5
231
330
17
100
AcDbEntity
  8
WINDOW
100
AcDbLine
 10
1058.5714285714284
 20
384.6428571428571
 30
0.0
 11
1058.5714285714284
 21
378.2142857142857
 31
0.0
  0
LINE
  5
232
330
17
100
AcDbEntity
  8
WINDOW
100
AcDbLine
 10
1101.4285714285713
 20
384.6428571428571
 30
0.0
 11
1101.4285714285713
 21
378.2142857142857
 31
0.0
  0
LINE
  5
233
330
17
100
AcDbEntity
  8
WINDOW
100
AcDbLine
 10
427.5
 20
369.6428571428571
 30
0.0
 11
544.2857142857142
 21
369.6428571428571
 31
0.0
  0
LINE
  5
234
330
17
100
AcDbEntity
  8
WINDOW
100
AcDbLine
 10
427.5
 20
367.5
 30
0.0
 11
544.2857142857142
 21
367.5
 31
0.0
  0
LINE
  5
235
330
17
100
AcDbEntity
  8
WINDOW
100
AcDbLine
 10
427.5
 20
365.35714285714283
 30
0.0
 11
544.2857142857142
 21
365.35714285714283
 31
0.0
  0
LINE
  5
236
330
17
100
AcDbEntity
  8
WINDOW
100
AcDbLine
 10
427.5
 20
363.2142857142857
 30
0.0
 11
544.2857142857142
 21
363.2142857142857
 31
0.0
  0
LINE
  5
237
330
17
100
AcDbEntity
  8
WINDOW
100
AcDbLine
 10
427.5
 20
369.6428571428571
 30
0.0
 11
427.5
 21
363.2142857142857
 31
0.0
  0
LINE
  5
238
330
17
100
AcDbEntity
  8
WINDOW
100
AcDbLine
 10
544.2857142857142
 20
369.6428571428571
 30
0.0
 11
544.2857142857142
 21
363.2142857142857
 31
0.0
  0
LINE
  5
239
330
17
100
AcDbEntity
  8
WINDOW
100
AcDbLine
 10
368.57142857142856
 20
175.71428571428572
 30
0.0
 11
394.2857142857143
 21
175.71428571428572
 31
0.0
  0
LINE
  5
23A
330
17
100
AcDbEntity
  8
WINDOW
100
AcDbLine
 10
368.57142857142856
 20
173.92857142857147
 30
0.0
 11
394.2857142857143
 21
173.92857142857147
 31
0.0
  0
LINE
  5
23B
330
17
100
AcDbEntity
  8
WINDOW
100
AcDbLine
 10
368.57142857142856
 20
172.1428571428571
 30
0.0
 11
394.2857142857143
 21
172.1428571428571
 31
0.0
  0
LINE
  5
23C
330
17
100
AcDbEntity
  8
WINDOW
100
AcDbLine
 10
368.57142857142856
 20
170.35714285714286
 30
0.0
 11
394.2857142857143
 21
170.35714285714286
 31
0.0
  0
LINE
  5
23D
330
17
100
AcDbEntity
  8
WINDOW
100
AcDbLine
 10
368.57142857142856
 20
175.71428571428572
 30
0.0
 11
368.57142857142856
 21
170.35714285714286
 31
0.0
  0
LINE
  5
23E
330
17
100
AcDbEntity
  8
WINDOW
100
AcDbLine
 10
394.2857142857143
 20
175.71428571428572
 30
0.0
 11
394.2857142857143
 21
170.35714285714286
 31
0.0
  0
LINE
  5
23F
330
17
100
AcDbEntity
  8
WINDOW
100
AcDbLine
 10
136.07142857142856
 20
244.28571428571428
 30
0.0
 11
136.07142857142856
 21
173.57142857142856
 31
0.0
  0
LINE
  5
240
330
17
100
AcDbEntity
  8
WINDOW
100
AcDbLine
 10
140.35714285714286
 20
244.28571428571428
 30
0.0
 11
140.35714285714286
 21
173.57142857142856
 31
0.0
  0
LINE
  5
241
330
17
100
AcDbEntity
  8
WINDOW
100
AcDbLine
 10
144.64285714285714
 20
244.28571428571428
 30
0.0
 11
144.64285714285714
 21
173.57142857142856
 31
0.0
  0
LINE
  5
242
330
17
100
AcDbEntity
  8
WINDOW
100
AcDbLine
 10
148.92857142857142
 20
244.28571428571428
 30
0.0
 11
148.92857142857142
 21
173.57142857142856
 31
0.0
  0
LINE
  5
243
330
17
100
AcDbEntity
  8
WINDOW
100
AcDbLine
 10
136.07142857142856
 20
244.28571428571428
 30
0.0
 11
148.92857142857142
 21
244.28571428571428
 31
0.0
  0
LINE
  5
244
330
17
100
AcDbEntity
  8
WINDOW
100
AcDbLine
 10
136.07142857142856
 20
173.57142857142856
 30
0.0
 11
148.92857142857142
 21
173.57142857142856
 31
0.0
  0
LINE
  5
245
330
17
100
AcDbEntity
  8
WINDOW
100
AcDbLine
 10
673.9285714285714
 20
390.0
 30
0.0
 11
673.9285714285714
 21
372.85714285714283
 31
0.0
  0
LINE
  5
246
330
17
100
AcDbEntity
  8
WINDOW
100
AcDbLine
 10
676.0714285714286
 20
390.0
 30
0.0
 11
676.0714285714286
 21
372.85714285714283
 31
0.0
  0
LINE
  5
247
330
17
100
AcDbEntity
  8
WINDOW
100
AcDbLine
 10
678.2142857142857
 20
390.0
 30
0.0
 11
678.2142857142857
 21
372.85714285714283
 31
0.0
  0
LINE
  5
248
330
17
100
AcDbEntity
  8
WINDOW
100
AcDbLine
 10
680.3571428571429
 20
390.0
 30
0.0
 11
680.3571428571429
 21
372.85714285714283
 31
0.0
  0
LINE
  5
249
330
17
100
AcDbEntity
  8
WINDOW
100
AcDbLine
 10
673.9285714285714
 20
390.0
 30
0.0
 11
680.3571428571429
 21
390.0
 31
0.0
  0
LINE
  5
24A
330
17
100
AcDbEntity
  8
WINDOW
100
AcDbLine
 10
673.9285714285714
 20
372.85714285714283
 30
0.0
 11
680.3571428571429
 21
372.85714285714283
 31
0.0
  0
LINE
  5
24B
330
17
100
AcDbEntity
  8
WINDOW
100
AcDbLine
 10
731.7857142857142
 20
949.2857142857142
 30
0.0
 11
731.7857142857142
 21
925.7142857142857
 31
0.0
  0
LINE
  5
24C
330
17
100
AcDbEntity
  8
WINDOW
100
AcDbLine
 10
733.9285714285714
 20
949.2857142857142
 30
0.0
 11
733.9285714285714
 21
925.7142857142857
 31
0.0
  0
LINE
  5
24D
330
17
100
AcDbEntity
  8
WINDOW
100
AcDbLine
 10
736.0714285714286
 20
949.2857142857142
 30
0.0
 11
736.0714285714286
 21
925.7142857142857
 31
0.0
  0
LINE
  5
24E
330
17
100
AcDbEntity
  8
WINDOW
100
AcDbLine
 10
738.2142857142857
 20
949.2857142857142
 30
0.0
 11
738.2142857142857
 21
925.7142857142857
 31
0.0
  0
LINE
  5
24F
330
17
100
AcDbEntity
  8
WINDOW
100
AcDbLine
 10
731.7857142857142
 20
949.2857142857142
 30
0.0
 11
738.2142857142857
 21
949.2857142857142
 31
0.0
  0
LINE
  5
250
330
17
100
AcDbEntity
  8
WINDOW
100
AcDbLine
 10
731.7857142857142
 20
925.7142857142857
 30
0.0
 11
738.2142857142857
 21
925.7142857142857
 31
0.0
  0
LINE
  5
251
330
17
100
AcDbEntity
  8
WINDOW
100
AcDbLine
 10
788.5714285714286
 20
713.5714285714286
 30
0.0
 11
788.5714285714286
 21
673.9285714285714
 31
0.0
  0
LINE
  5
252
330
17
100
AcDbEntity
  8
WINDOW
100
AcDbLine
 10
791.7857142857142
 20
713.5714285714286
 30
0.0
 11
791.7857142857142
 21
673.9285714285714
 31
0.0
  0
LINE
  5
253
330
17
100
AcDbEntity
  8
WINDOW
100
AcDbLine
 10
795.0
 20
713.5714285714286
 30
0.0
 11
795.0
 21
673.9285714285714
 31
0.0
  0
LINE
  5
254
330
17
100
AcDbEntity
  8
WINDOW
100
AcDbLine
 10
798.2142857142857
 20
713.5714285714286
 30
0.0
 11
798.2142857142857
 21
673.9285714285714
 31
0.0
  0
LINE
  5
255
330
17
100
AcDbEntity
  8
WINDOW
100
AcDbLine
 10
788.5714285714286
 20
713.5714285714286
 30
0.0
 11
798.2142857142857
 21
713.5714285714286
 31
0.0
  0
LINE
  5
256
330
17
100
AcDbEntity
  8
WINDOW
100
AcDbLine
 10
788.5714285714286
 20
673.9285714285714
 30
0.0
 11
798.2142857142857
 21
673.9285714285714
 31
0.0
  0
LINE
  5
257
330
17
100
AcDbEntity
  8
WINDOW
100
AcDbLine
 10
789.6428571428571
 20
456.4285714285714
 30
0.0
 11
789.6428571428571
 21
439.2857142857143
 31
0.0
  0
LINE
  5
258
330
17
100
AcDbEntity
  8
WINDOW
100
AcDbLine
 10
792.4999999999999
 20
456.4285714285714
 30
0.0
 11
792.4999999999999
 21
439.2857142857143
 31
0.0
  0
LINE
  5
259
330
17
100
AcDbEntity
  8
WINDOW
100
AcDbLine
 10
795.3571428571429
 20
456.4285714285714
 30
0.0
 11
795.3571428571429
 21
439.2857142857143
 31
0.0
  0
LINE
  5
25A
330
17
100
AcDbEntity
  8
WINDOW
100
AcDbLine
 10
798.2142857142857
 20
456.4285714285714
 30
0.0
 11
798.2142857142857
 21
439.2857142857143
 31
0.0
  0
LINE
  5
25B
330
17
100
AcDbEntity
  8
WINDOW
100
AcDbLine
 10
789.6428571428571
 20
456.4285714285714
 30
0.0
 11
798.2142857142857
 21
456.4285714285714
 31
0.0
  0
LINE
  5
25C
330
17
100
AcDbEntity
  8
WINDOW
100
AcDbLine
 10
789.6428571428571
 20
439.2857142857143
 30
0.0
 11
798.2142857142857
 21
439.2857142857143
 31
0.0
  0
LINE
  5
25D
330
17
100
AcDbEntity
  8
WINDOW
100
AcDbLine
 10
792.8571428571429
 20
420.0
 30
0.0
 11
792.8571428571429
 21
409.2857142857143
 31
0.0
  0
LINE
  5
25E
330
17
100
AcDbEntity
  8
WINDOW
100
AcDbLine
 10
795.3571428571429
 20
420.0
 30
0.0
 11
795.3571428571429
 21
409.2857142857143
 31
0.0
  0
LINE
  5
25F
330
17
100
AcDbEntity
  8
WINDOW
100
AcDbLine
 10
797.8571428571428
 20
420.0
 30
0.0
 11
797.8571428571428
 21
409.2857142857143
 31
0.0
  0
LINE
  5
260
330
17
100
AcDbEntity
  8
WINDOW
100
AcDbLine
 10
800.3571428571429
 20
420.0
 30
0.0
 11
800.3571428571429
 21
409.2857142857143
 31
0.0
  0
LINE
  5
261
330
17
100
AcDbEntity
  8
WINDOW
100
AcDbLine
 10
792.8571428571429
 20
420.0
 30
0.0
 11
800.3571428571429
 21
420.0
 31
0.0
  0
LINE
  5
262
330
17
100
AcDbEntity
  8
WINDOW
100
AcDbLine
 10
792.8571428571429
 20
409.2857142857143
 30
0.0
 11
800.3571428571429
 21
409.2857142857143
 31
0.0
  0
LINE
  5
263
330
17
100
AcDbEntity
  8
WINDOW
100
AcDbLine
 10
871.0714285714286
 20
645.0
 30
0.0
 11
871.0714285714286
 21
503.57142857142856
 31
0.0
  0
LINE
  5
264
330
17
100
AcDbEntity
  8
WINDOW
100
AcDbLine
 10
874.6428571428571
 20
645.0
 30
0.0
 11
874.6428571428571
 21
503.57142857142856
 31
0.0
  0
LINE
  5
265
330
17
100
AcDbEntity
  8
WINDOW
100
AcDbLine
 10
878.2142857142857
 20
645.0
 30
0.0
 11
878.2142857142857
 21
503.57142857142856
 31
0.0
  0
LINE
  5
266
330
17
100
AcDbEntity
  8
WINDOW
100
AcDbLine
 10
881.7857142857142
 20
645.0
 30
0.0
 11
881.7857142857142
 21
503.57142857142856
 31
0.0
  0
LINE
  5
267
330
17
100
AcDbEntity
  8
WINDOW
100
AcDbLine
 10
871.0714285714286
 20
645.0
 30
0.0
 11
881.7857142857142
 21
645.0
 31
0.0
  0
LINE
  5
268
330
17
100
AcDbEntity
  8
WINDOW
100
AcDbLine
 10
871.0714285714286
 20
503.57142857142856
 30
0.0
 11
881.7857142857142
 21
503.57142857142856
 31
0.0
  0
LINE
  5
269
330
17
100
AcDbEntity
  8
WINDOW
100
AcDbLine
 10
1068.2142857142858
 20
514.2857142857142
 30
0.0
 11
1068.2142857142858
 21
497.1428571428571
 31
0.0
  0
LINE
  5
26A
330
17
100
AcDbEntity
  8
WINDOW
100
AcDbLine
 10
1071.7857142857142
 20
514.2857142857142
 30
0.0
 11
1071.7857142857142
 21
497.1428571428571
 31
0.0
  0
LINE
  5
26B
330
17
100
AcDbEntity
  8
WINDOW
100
AcDbLine
 10
1075.357142857143
 20
514.2857142857142
 30
0.0
 11
1075.357142857143
 21
497.1428571428571
 31
0.0
  0
LINE
  5
26C
330
17
100
AcDbEntity
  8
WINDOW
100
AcDbLine
 10
1078.9285714285713
 20
514.2857142857142
 30
0.0
 11
1078.9285714285713
 21
497.1428571428571
 31
0.0
  0
LINE
  5
26D
330
17
100
AcDbEntity
  8
WINDOW
100
AcDbLine
 10
1068.2142857142858
 20
514.2857142857142
 30
0.0
 11
1078.9285714285713
 21
514.2857142857142
 31
0.0
  0
LINE
  5
26E
330
17
100
AcDbEntity
  8
WINDOW
100
AcDbLine
 10
1068.2142857142858
 20
497.1428571428571
 30
0.0
 11
1078.9285714285713
 21
497.1428571428571
 31
0.0
  0
LINE
  5
26F
330
17
100
AcDbEntity
  8
WINDOW
100
AcDbLine
 10
1171.0714285714284
 20
849.6428571428571
 30
0.0
 11
1171.0714285714284
 21
830.3571428571428
 31
0.0
  0
LINE
  5
270
330
17
100
AcDbEntity
  8
WINDOW
100
AcDbLine
 10
1173.2142857142858
 20
849.6428571428571
 30
0.0
 11
1173.2142857142858
 21
830.3571428571428
 31
0.0
  0
LINE
  5
271
330
17
100
AcDbEntity
  8
WINDOW
100
AcDbLine
 10
1175.357142857143
 20
849.6428571428571
 30
0.0
 11
1175.357142857143
 21
830.3571428571428
 31
0.0
  0
LINE
  5
272
330
17
100
AcDbEntity
  8
WINDOW
100
AcDbLine
 10
1177.5
 20
849.6428571428571
 30
0.0
 11
1177.5
 21
830.3571428571428
 31
0.0
  0
LINE
  5
273
330
17
100
AcDbEntity
  8
WINDOW
100
AcDbLine
 10
1171.0714285714284
 20
849.6428571428571
 30
0.0
 11
1177.5
 21
849.6428571428571
 31
0.0
  0
LINE
  5
274
330
17
100
AcDbEntity
  8
WINDOW
100
AcDbLine
 10
1171.0714285714284
 20
830.3571428571428
 30
0.0
 11
1177.5
 21
830.3571428571428
 31
0.0
  0
LWPOLYLINE
  5
276
330
17
100
AcDbEntity
  8
DOORZONE
100
AcDbPolyline
 90
4
 70
1
 10
415.7142857142857
 20
928.9285714285714
 10
466.07142857142856
 20
928.9285714285714
 10
466.07142857142856
 20
828.2142857142857
 10
415.7142857142857
 20
828.2142857142857
  0
LWPOLYLINE
  5
277
330
17
100
AcDbEntity
  8
DOORZONE
100
AcDbPolyline
 90
4
 70
1
 10
791.7857142857142
 20
827.1428571428571
 10
887.1428571428571
 20
827.1428571428571
 10
887.1428571428571
 20
636.4285714285714
 10
791.7857142857142
 20
636.4285714285714
  0
LWPOLYLINE
  5
278
330
17
100
AcDbEntity
  8
DOORZONE
100
AcDbPolyline
 90
4
 70
1
 10
413.57142857142856
 20
730.7142857142857
 10
480.0
 20
730.7142857142857
 10
480.0
 20
597.8571428571429
 10
413.57142857142856
 20
597.8571428571429
  0
LWPOLYLINE
  5
279
330
17
100
AcDbEntity
  8
DOORZONE
100
AcDbPolyline
 90
4
 70
1
 10
673.9285714285714
 20
873.2142857142857
 10
673.9285714285714
 20
791.7857142857142
 10
836.7857142857142
 20
791.7857142857142
 10
836.7857142857142
 20
873.2142857142857
  0
LWPOLYLINE
  5
27A
330
17
100
AcDbEntity
  8
DOORZONE
100
AcDbPolyline
 90
4
 70
1
 10
293.57142857142856
 20
571.0714285714286
 10
293.57142857142856
 20
493.9285714285714
 10
447.85714285714283
 20
493.9285714285714
 10
447.85714285714283
 20
571.0714285714286
  0
LWPOLYLINE
  5
27B
330
17
100
AcDbEntity
  8
DOORZONE
100
AcDbPolyline
 90
4
 70
1
 10
401.7857142857143
 20
1086.4285714285713
 10
474.6428571428571
 20
1086.4285714285713
 10
474.6428571428571
 20
940.7142857142857
 10
401.7857142857143
 20
940.7142857142857
  0
ENDSEC
  0
SECTION
  2
OBJECTS
  0
DICTIONARY
  5
A
330
0
100
AcDbDictionary
281
1
  3
ACAD_COLOR
350
B
  3
ACAD_GROUP
350
C
  3
ACAD_LAYOUT
350
D
  3
ACAD_MATERIAL
350
E
  3
ACAD_MLEADERSTYLE
350
F
  3
ACAD_MLINESTYLE
350
10
  3
ACAD_PLOTSETTINGS
350
11
  3
ACAD_PLOTSTYLENAME
350
12
  3
ACAD_SCALELIST
350
14
  3
ACAD_TABLESTYLE
350
15
  3
ACAD_VISUALSTYLE
350
16
  3
EZDXF_META
350
2D
  0
DICTIONARY
  5
B
330
A
100
AcDbDictionary
281
1
  0
DICTIONARY
  5
C
330
A
100
AcDbDictionary
281
1
  0
DICTIONARY
  5
D
330
A
100
AcDbDictionary
281
1
  3
Model
350
1A
  3
Layout1
350
1E
  0
DICTIONARY
  5
E
330
A
100
AcDbDictionary
281
1
  3
ByBlock
350
1F
  3
ByLayer
350
20
  3
Global
350
21
  0
DICTIONARY
  5
F
330
A
100
AcDbDictionary
281
1
  3
Standard
350
2C
  0
DICTIONARY
  5
10
330
A
100
AcDbDictionary
281
1
  3
Standard
350
22
  0
DICTIONARY
  5
11
330
A
100
AcDbDictionary
281
1
  0
ACDBDICTIONARYWDFLT
  5
12
330
A
100
AcDbDictionary
281
1
  3
Normal
350
13
100
AcDbDictionaryWithDefault
340
13
  0
ACDBPLACEHOLDER
  5
13
330
12
  0
DICTIONARY
  5
14
330
A
100
AcDbDictionary
281
1
  0
DICTIONARY
  5
15
330
A
100
AcDbDictionary
281
1
  0
DICTIONARY
  5
16
330
A
100
AcDbDictionary
281
1
  0
LAYOUT
  5
1A
330
D
100
AcDbPlotSettings
  1

  4
A3
  6

 40
7.5
 41
20.0
 42
7.5
 43
20.0
 44
420.0
 45
297.0
 46
0.0
 47
0.0
 48
0.0
 49
0.0
140
0.0
141
0.0
142
1.0
143
1.0
 70
1024
 72
1
 73
0
 74
5
  7

 75
16
 76
0
 77
2
 78
300
147
1.0
148
0.0
149
0.0
100
AcDbLayout
  1
Model
 70
1
 71
0
 10
0.0
 20
0.0
 11
420.0
 21
297.0
 12
0.0
 22
0.0
 32
0.0
 14
1e+20
 24
1e+20
 34
1e+20
 15
-1e+20
 25
-1e+20
 35
-1e+20
146
0.0
 13
0.0
 23
0.0
 33
0.0
 16
1.0
 26
0.0
 36
0.0
 17
0.0
 27
1.0
 37
0.0
 76
1
330
17
  0
LAYOUT
  5
1E
330
D
100
AcDbPlotSettings
  1

  4
A3
  6

 40
7.5
 41
20.0
 42
7.5
 43
20.0
 44
420.0
 45
297.0
 46
0.0
 47
0.0
 48
0.0
 49
0.0
140
0.0
141
0.0
142
1.0
143
1.0
 70
0
 72
1
 73
0
 74
5
  7

 75
16
 76
0
 77
2
 78
300
147
1.0
148
0.0
149
0.0
100
AcDbLayout
  1
Layout1
 70
1
 71
1
 10
0.0
 20
0.0
 11
420.0
 21
297.0
 12
0.0
 22
0.0
 32
0.0
 14
1e+20
 24
1e+20
 34
1e+20
 15
-1e+20
 25
-1e+20
 35
-1e+20
146
0.0
 13
0.0
 23
0.0
 33
0.0
 16
1.0
 26
0.0
 36
0.0
 17
0.0
 27
1.0
 37
0.0
 76
1
330
1B
  0
MATERIAL
  5
1F
102
{ACAD_REACTORS
330
E
102
}
330
E
100
AcDbMaterial
  1
ByBlock
  2

 70
0
 40
1.0
 71
1
 41
1.0
 91
-1023410177
 42
1.0
 72
1
  3

 73
1
 74
1
 75
1
 44
0.5
 73
0
 45
1.0
 46
1.0
 77
1
  4

 78
1
 79
1
170
1
 48
1.0
171
1
  6

172
1
173
1
174
1
140
1.0
141
1.0
175
1
  7

176
1
177
1
178
1
143
1.0
179
1
  8

270
1
271
1
272
1
145
1.0
146
1.0
273
1
  9

274
1
275
1
276
1
 42
1.0
 72
1
  3

 73
1
 74
1
 75
1
 94
63
  0
MATERIAL
  5
20
102
{ACAD_REACTORS
330
E
102
}
330
E
100
AcDbMaterial
  1
ByLayer
  2

 70
0
 40
1.0
 71
1
 41
1.0
 91
-1023410177
 42
1.0
 72
1
  3

 73
1
 74
1
 75
1
 44
0.5
 73
0
 45
1.0
 46
1.0
 77
1
  4

 78
1
 79
1
170
1
 48
1.0
171
1
  6

172
1
173
1
174
1
140
1.0
141
1.0
175
1
  7

176
1
177
1
178
1
143
1.0
179
1
  8

270
1
271
1
272
1
145
1.0
146
1.0
273
1
  9

274
1
275
1
276
1
 42
1.0
 72
1
  3

 73
1
 74
1
 75
1
 94
63
  0
MATERIAL
  5
21
102
{ACAD_REACTORS
330
E
102
}
330
E
100
AcDbMaterial
  1
Global
  2

 70
0
 40
1.0
 71
1
 41
1.0
 91
-1023410177
 42
1.0
 72
1
  3

 73
1
 74
1
 75
1
 44
0.5
 73
0
 45
1.0
 46
1.0
 77
1
  4

 78
1
 79
1
170
1
 48
1.0
171
1
  6

172
1
173
1
174
1
140
1.0
141
1.0
175
1
  7

176
1
177
1
178
1
143
1.0
179
1
  8

270
1
271
1
272
1
145
1.0
146
1.0
273
1
  9

274
1
275
1
276
1
 42
1.0
 72
1
  3

 73
1
 74
1
 75
1
 94
63
  0
MLINESTYLE
  5
22
102
{ACAD_REACTORS
330
10
102
}
330
10
100
AcDbMlineStyle
  2
Standard
 70
0
  3

 62
256
 51
90.0
 52
90.0
 71
2
 49
0.5
 62
256
  6
BYLAYER
 49
-0.5
 62
256
  6
BYLAYER
  0
MLEADERSTYLE
  5
2C
102
{ACAD_REACTORS
330
F
102
}
330
F
100
AcDbMLeaderStyle
179
2
170
2
171
1
172
0
 90
2
 40
0.0
 41
0.0
173
1
 91
-1056964608
 92
-2
290
1
 42
2.0
291
1
 43
8.0
  3
Standard
 44
4.0
300

342
29
174
1
175
1
176
0
178
1
 93
-1056964608
 45
4.0
292
0
297
0
 46
4.0
 94
-1056964608
 47
1.0
 49
1.0
140
1.0
294
1
141
0.0
177
0
142
1.0
295
0
296
0
143
3.75
271
0
272
9
273
9
  0
DICTIONARY
  5
2D
330
A
100
AcDbDictionary
280
1
281
1
  3
CREATED_BY_EZDXF
350
2E
  3
WRITTEN_BY_EZDXF
350
27E
  0
DICTIONARYVAR
  5
2E
330
2D
100
DictionaryVariables
280
0
  1
1.4.4 @ 2026-07-13T09:38:52.537675+00:00
  0
DICTIONARYVAR
  5
27E
330
2D
100
DictionaryVariables
280
0
  1
1.4.4 @ 2026-07-13T09:38:52.581970+00:00
  0
ENDSEC
  0
EOF
