  0
SECTION
  2
HEADER
  9
$ACADVER
  1
AC1024
  9
$ACADMAINTVER
 70
6
  9
$DWGCODEPAGE
  3
ANSI_1252
  9
$LASTSAVEDBY
  1
ezdxf
  9
$INSBASE
 10
0.0
 20
0.0
 30
0.0
  9
$EXTMIN
 10
1e+20
 20
1e+20
 30
1e+20
  9
$EXTMAX
 10
-1e+20
 20
-1e+20
 30
-1e+20
  9
$LIMMIN
 10
0.0
 20
0.0
  9
$LIMMAX
 10
420.0
 20
297.0
  9
$ORTHOMODE
 70
0
  9
$REGENMODE
 70
1
  9
$FILLMODE
 70
1
  9
$QTEXTMODE
 70
0
  9
$MIRRTEXT
 70
1
  9
$LTSCALE
 40
1.0
  9
$ATTMODE
 70
1
  9
$TEXTSIZE
 40
2.5
  9
$TRACEWID
 40
1.0
  9
$TEXTSTYLE
  7
Standard
  9
$CLAYER
  8
0
  9
$CELTYPE
  6
ByLayer
  9
$CECOLOR
 62
256
  9
$CELTSCALE
 40
1.0
  9
$DISPSILH
 70
0
  9
$DIMSCALE
 40
1.0
  9
$DIMASZ
 40
2.5
  9
$DIMEXO
 40
0.625
  9
$DIMDLI
 40
3.75
  9
$DIMRND
 40
0.0
  9
$DIMDLE
 40
0.0
  9
$DIMEXE
 40
1.25
  9
$DIMTP
 40
0.0
  9
$DIMTM
 40
0.0
  9
$DIMTXT
 40
2.5
  9
$DIMCEN
 40
2.5
  9
$DIMTSZ
 40
0.0
  9
$DIMTOL
 70
0
  9
$DIMLIM
 70
0
  9
$DIMTIH
 70
0
  9
$DIMTOH
 70
0
  9
$DIMSE1
 70
0
  9
$DIMSE2
 70
0
  9
$DIMTAD
 70
1
  9
$DIMZIN
 70
8
  9
$DIMBLK
  1

  9
$DIMASO
 70
1
  9
$DIMSHO
 70
1
  9
$DIMPOST
  1

  9
$DIMAPOST
  1

  9
$DIMALT
 70
0
  9
$DIMALTD
 70
3
  9
$DIMALTF
 40
0.03937007874
  9
$DIMLFAC
 40
1.0
  9
$DIMTOFL
 70
1
  9
$DIMTVP
 40
0.0
  9
$DIMTIX
 70
0
  9
$DIMSOXD
 70
0
  9
$DIMSAH
 70
0
  9
$DIMBLK1
  1

  9
$DIMBLK2
  1

  9
$DIMSTYLE
  2
ISO-25
  9
$DIMCLRD
 70
0
  9
$DIMCLRE
 70
0
  9
$DIMCLRT
 70
0
  9
$DIMTFAC
 40
1.0
  9
$DIMGAP
 40
0.625
  9
$DIMJUST
 70
0
  9
$DIMSD1
 70
0
  9
$DIMSD2
 70
0
  9
$DIMTOLJ
 70
0
  9
$DIMTZIN
 70
8
  9
$DIMALTZ
 70
0
  9
$DIMALTTZ
 70
0
  9
$DIMUPT
 70
0
  9
$DIMDEC
 70
2
  9
$DIMTDEC
 70
2
  9
$DIMALTU
 70
2
  9
$DIMALTTD
 70
3
  9
$DIMTXSTY
  7
Standard
  9
$DIMAUNIT
 70
0
  9
$DIMADEC
 70
0
  9
$DIMALTRND
 40
0.0
  9
$DIMAZIN
 70
0
  9
$DIMDSEP
 70
44
  9
$DIMATFIT
 70
3
  9
$DIMFRAC
 70
0
  9
$DIMLDRBLK
  1

  9
$DIMLUNIT
 70
2
  9
$DIMLWD
 70
-2
  9
$DIMLWE
 70
-2
  9
$DIMTMOVE
 70
0
  9
$DIMFXL
 40
1.0
  9
$DIMFXLON
 70
0
  9
$DIMJOGANG
 40
0.785398163397
  9
$DIMTFILL
 70
0
  9
$DIMTFILLCLR
 70
0
  9
$DIMARCSYM
 70
0
  9
$DIMLTYPE
  6

  9
$DIMLTEX1
  6

  9
$DIMLTEX2
  6

  9
$DIMTXTDIRECTION
 70
0
  9
$LUNITS
 70
2
  9
$LUPREC
 70
4
  9
$SKETCHINC
 40
1.0
  9
$FILLETRAD
 40
10.0
  9
$AUNITS
 70
0
  9
$AUPREC
 70
2
  9
$MENU
  1
.
  9
$ELEVATION
 40
0.0
  9
$PELEVATION
 40
0.0
  9
$THICKNESS
 40
0.0
  9
$LIMCHECK
 70
0
  9
$CHAMFERA
 40
0.0
  9
$CHAMFERB
 40
0.0
  9
$CHAMFERC
 40
0.0
  9
$CHAMFERD
 40
0.0
  9
$SKPOLY
 70
0
  9
$TDCREATE
 40
2461236.6652662037
  9
$TDUCREATE
 40
2458532.153996898
  9
$TDUPDATE
 40
2461236.6652662037
  9
$TDUUPDATE
 40
2458532.1544311
  9
$TDINDWG
 40
0.0
  9
$TDUSRTIMER
 40
0.0
  9
$USRTIMER
 70
1
  9
$ANGBASE
 50
0.0
  9
$ANGDIR
 70
0
  9
$PDMODE
 70
0
  9
$PDSIZE
 40
0.0
  9
$PLINEWID
 40
0.0
  9
$SPLFRAME
 70
0
  9
$SPLINETYPE
 70
6
  9
$SPLINESEGS
 70
8
  9
$HANDSEED
  5
F5
  9
$SURFTAB1
 70
6
  9
$SURFTAB2
 70
6
  9
$SURFTYPE
 70
6
  9
$SURFU
 70
6
  9
$SURFV
 70
6
  9
$UCSBASE
  2

  9
$UCSNAME
  2

  9
$UCSORG
 10
0.0
 20
0.0
 30
0.0
  9
$UCSXDIR
 10
1.0
 20
0.0
 30
0.0
  9
$UCSYDIR
 10
0.0
 20
1.0
 30
0.0
  9
$UCSORTHOREF
  2

  9
$UCSORTHOVIEW
 70
0
  9
$UCSORGTOP
 10
0.0
 20
0.0
 30
0.0
  9
$UCSORGBOTTOM
 10
0.0
 20
0.0
 30
0.0
  9
$UCSORGLEFT
 10
0.0
 20
0.0
 30
0.0
  9
$UCSORGRIGHT
 10
0.0
 20
0.0
 30
0.0
  9
$UCSORGFRONT
 10
0.0
 20
0.0
 30
0.0
  9
$UCSORGBACK
 10
0.0
 20
0.0
 30
0.0
  9
$PUCSBASE
  2

  9
$PUCSNAME
  2

  9
$PUCSORG
 10
0.0
 20
0.0
 30
0.0
  9
$PUCSXDIR
 10
1.0
 20
0.0
 30
0.0
  9
$PUCSYDIR
 10
0.0
 20
1.0
 30
0.0
  9
$PUCSORTHOREF
  2

  9
$PUCSORTHOVIEW
 70
0
  9
$PUCSORGTOP
 10
0.0
 20
0.0
 30
0.0
  9
$PUCSORGBOTTOM
 10
0.0
 20
0.0
 30
0.0
  9
$PUCSORGLEFT
 10
0.0
 20
0.0
 30
0.0
  9
$PUCSORGRIGHT
 10
0.0
 20
0.0
 30
0.0
  9
$PUCSORGFRONT
 10
0.0
 20
0.0
 30
0.0
  9
$PUCSORGBACK
 10
0.0
 20
0.0
 30
0.0
  9
$USERI1
 70
0
  9
$USERI2
 70
0
  9
$USERI3
 70
0
  9
$USERI4
 70
0
  9
$USERI5
 70
0
  9
$USERR1
 40
0.0
  9
$USERR2
 40
0.0
  9
$USERR3
 40
0.0
  9
$USERR4
 40
0.0
  9
$USERR5
 40
0.0
  9
$WORLDVIEW
 70
1
  9
$SHADEDGE
 70
3
  9
$SHADEDIF
 70
70
  9
$TILEMODE
 70
1
  9
$MAXACTVP
 70
64
  9
$PINSBASE
 10
0.0
 20
0.0
 30
0.0
  9
$PLIMCHECK
 70
0
  9
$PEXTMIN
 10
1e+20
 20
1e+20
 30
1e+20
  9
$PEXTMAX
 10
-1e+20
 20
-1e+20
 30
-1e+20
  9
$PLIMMIN
 10
0.0
 20
0.0
  9
$PLIMMAX
 10
420.0
 20
297.0
  9
$UNITMODE
 70
0
  9
$VISRETAIN
 70
1
  9
$PLINEGEN
 70
0
  9
$PSLTSCALE
 70
1
  9
$TREEDEPTH
 70
3020
  9
$CMLSTYLE
  2
Standard
  9
$CMLJUST
 70
0
  9
$CMLSCALE
 40
20.0
  9
$PROXYGRAPHICS
 70
1
  9
$MEASUREMENT
 70
1
  9
$CELWEIGHT
370
-1
  9
$ENDCAPS
280
0
  9
$JOINSTYLE
280
0
  9
$LWDISPLAY
290
0
  9
$INSUNITS
 70
5
  9
$HYPERLINKBASE
  1

  9
$STYLESHEET
  1

  9
$XEDIT
290
1
  9
$CEPSNTYPE
380
0
  9
$PSTYLEMODE
290
1
  9
$FINGERPRINTGUID
  2
{8FD434E1-832D-40EE-8148-72F127192864}
  9
$VERSIONGUID
  2
{43F0F1D0-F302-41F5-B32A-A6FD198040B4}
  9
$EXTNAMES
290
1
  9
$PSVPSCALE
 40
0.0
  9
$OLESTARTUP
290
0
  9
$SORTENTS
280
127
  9
$INDEXCTL
280
0
  9
$HIDETEXT
280
1
  9
$XCLIPFRAME
280
1
  9
$HALOGAP
280
0
  9
$OBSCOLOR
 70
257
  9
$OBSLTYPE
280
0
  9
$INTERSECTIONDISPLAY
280
0
  9
$INTERSECTIONCOLOR
 70
257
  9
$DIMASSOC
280
2
  9
$PROJECTNAME
  1

  9
$CAMERADISPLAY
290
0
  9
$LENSLENGTH
 40
50.0
  9
$CAMERAHEIGHT
 40
0.0
  9
$STEPSPERSEC
 40
24.0
  9
$STEPSIZE
 40
100.0
  9
$3DDWFPREC
 40
2.0
  9
$PSOLWIDTH
 40
0.005
  9
$PSOLHEIGHT
 40
0.08
  9
$LOFTANG1
 40
1.570796326795
  9
$LOFTANG2
 40
1.570796326795
  9
$LOFTMAG1
 40
0.0
  9
$LOFTMAG2
 40
0.0
  9
$LOFTPARAM
 70
7
  9
$LOFTNORMALS
280
1
  9
$LATITUDE
 40
37.795
  9
$LONGITUDE
 40
-122.394
  9
$NORTHDIRECTION
 40
0.0
  9
$TIMEZONE
 70
-8000
  9
$LIGHTGLYPHDISPLAY
280
1
  9
$TILEMODELIGHTSYNCH
280
1
  9
$CMATERIAL
347
20
  9
$SOLIDHIST
280
0
  9
$SHOWHIST
280
1
  9
$DWFFRAME
280
2
  9
$DGNFRAME
280
2
  9
$REALWORLDSCALE
290
1
  9
$INTERFERECOLOR
 62
256
  9
$CSHADOW
280
0
  9
$SHADOWPLANELOCATION
 40
0.0
  0
ENDSEC
  0
SECTION
  2
CLASSES
  0
CLASS
  1
ACDBDICTIONARYWDFLT
  2
AcDbDictionaryWithDefault
  3
ObjectDBX Classes
 90
0
 91
0
280
0
281
0
  0
CLASS
  1
SUN
  2
AcDbSun
  3
SCENEOE
 90
1153
 91
0
280
0
281
0
  0
CLASS
  1
VISUALSTYLE
  2
AcDbVisualStyle
  3
ObjectDBX Classes
 90
4095
 91
0
280
0
281
0
  0
CLASS
  1
MATERIAL
  2
AcDbMaterial
  3
ObjectDBX Classes
 90
1153
 91
0
280
0
281
0
  0
CLASS
  1
SCALE
  2
AcDbScale
  3
ObjectDBX Classes
 90
1153
 91
0
280
0
281
0
  0
CLASS
  1
TABLESTYLE
  2
AcDbTableStyle
  3
ObjectDBX Classes
 90
4095
 91
0
280
0
281
0
  0
CLASS
  1
MLEADERSTYLE
  2
AcDbMLeaderStyle
  3
ACDB_MLEADERSTYLE_CLASS
 90
4095
 91
0
280
0
281
0
  0
CLASS
  1
DICTIONARYVAR
  2
AcDbDictionaryVar
  3
ObjectDBX Classes
 90
0
 91
0
280
0
281
0
  0
CLASS
  1
CELLSTYLEMAP
  2
AcDbCellStyleMap
  3
ObjectDBX Classes
 90
1152
 91
0
280
0
281
0
  0
CLASS
  1
MENTALRAYRENDERSETTINGS
  2
AcDbMentalRayRenderSettings
  3
SCENEOE
 90
1024
 91
0
280
0
281
0
  0
CLASS
  1
ACDBDETAILVIEWSTYLE
  2
AcDbDetailViewStyle
  3
ObjectDBX Classes
 90
1025
 91
0
280
0
281
0
  0
CLASS
  1
ACDBSECTIONVIEWSTYLE
  2
AcDbSectionViewStyle
  3
ObjectDBX Classes
 90
1025
 91
0
280
0
281
0
  0
CLASS
  1
RASTERVARIABLES
  2
AcDbRasterVariables
  3
ISM
 90
0
 91
0
280
0
281
0
  0
CLASS
  1
LAYOUT
  2
AcDbLayout
  3
ObjectDBX Classes
 90
0
 91
0
280
0
281
0
  0
CLASS
  1
ACDBPLACEHOLDER
  2
AcDbPlaceHolder
  3
ObjectDBX Classes
 90
0
 91
0
280
0
281
0
  0
ENDSEC
  0
SECTION
  2
TABLES
  0
TABLE
  2
VPORT
  5
8
330
0
100
AcDbSymbolTable
 70
1
  0
VPORT
  5
23
330
8
100
AcDbSymbolTableRecord
100
AcDbViewportTableRecord
  2
*Active
 70
0
 10
0.0
 20
0.0
 11
1.0
 21
1.0
 12
0.0
 22
0.0
 13
0.0
 23
0.0
 14
0.5
 24
0.5
 15
0.5
 25
0.5
 16
0.0
 26
0.0
 36
1.0
 17
0.0
 27
0.0
 37
0.0
 40
1000.0
 41
1.34
 42
50.0
 43
0.0
 44
0.0
 50
0.0
 51
0.0
 71
0
 72
1000
 73
1
 74
3
 75
0
 76
0
 77
0
 78
0
281
0
 65
0
146
0.0
  0
ENDTAB
  0
TABLE
  2
LTYPE
  5
2
330
0
100
AcDbSymbolTable
 70
3
  0
LTYPE
  5
24
330
2
100
AcDbSymbolTableRecord
100
AcDbLinetypeTableRecord
  2
ByBlock
 70
0
  3

 72
65
 73
0
 40
0.0
  0
LTYPE
  5
25
330
2
100
AcDbSymbolTableRecord
100
AcDbLinetypeTableRecord
  2
ByLayer
 70
0
  3

 72
65
 73
0
 40
0.0
  0
LTYPE
  5
26
330
2
100
AcDbSymbolTableRecord
100
AcDbLinetypeTableRecord
  2
Continuous
 70
0
  3

 72
65
 73
0
 40
0.0
  0
ENDTAB
  0
TABLE
  2
LAYER
  5
1
330
0
100
AcDbSymbolTable
 70
3
  0
LAYER
  5
27
330
1
100
AcDbSymbolTableRecord
100
AcDbLayerTableRecord
  2
0
 70
0
 62
7
  6
Continuous
370
-3
390
13
347
21
  0
LAYER
  5
28
330
1
100
AcDbSymbolTableRecord
100
AcDbLayerTableRecord
  2
Defpoints
 70
0
 62
7
  6
Continuous
290
0
370
-3
390
13
347
21
  0
LAYER
  5
2F
330
1
100
AcDbSymbolTableRecord
100
AcDbLayerTableRecord
  2
WALL
 70
0
 62
7
  6
Continuous
370
-3
390
13
347
21
  0
ENDTAB
  0
TABLE
  2
STYLE
  5
5
330
0
100
AcDbSymbolTable
 70
1
  0
STYLE
  5
29
330
5
100
AcDbSymbolTableRecord
100
AcDbTextStyleTableRecord
  2
Standard
 70
0
 40
0.0
 41
1.0
 50
0.0
 71
0
 42
2.5
  3
txt
  4

  0
ENDTAB
  0
TABLE
  2
VIEW
  5
7
330
0
100
AcDbSymbolTable
 70
0
  0
ENDTAB
  0
TABLE
  2
UCS
  5
6
330
0
100
AcDbSymbolTable
 70
0
  0
ENDTAB
  0
TABLE
  2
APPID
  5
3
330
0
100
AcDbSymbolTable
 70
3
  0
APPID
  5
2A
330
3
100
AcDbSymbolTableRecord
100
AcDbRegAppTableRecord
  2
ACAD
 70
0
  0
APPID
  5
F2
330
3
100
AcDbSymbolTableRecord
100
AcDbRegAppTableRecord
  2
HATCHBACKGROUNDCOLOR
 70
0
  0
APPID
  5
F3
330
3
100
AcDbSymbolTableRecord
100
AcDbRegAppTableRecord
  2
EZDXF
 70
0
  0
ENDTAB
  0
TABLE
  2
DIMSTYLE
  5
4
330
0
100
AcDbSymbolTable
 70
1
100
AcDbDimStyleTable
  0
DIMSTYLE
105
2B
330
4
100
AcDbSymbolTableRecord
100
AcDbDimStyleTableRecord
  2
Standard
 70
0
 40
1.0
 41
2.5
 42
0.625
 43
3.75
 44
1.25
 45
0.0
 46
0.0
 47
0.0
 48
0.0
 49
2.5
140
2.5
141
2.5
142
0.0
143
0.03937007874
144
1.0
145
0.0
146
1.0
147
0.625
148
0.0
 69
0
 70
0
 71
0
 72
0
 73
0
 74
0
 75
0
 76
0
 77
1
 78
8
 79
3
170
0
171
3
172
1
173
0
174
0
175
0
176
0
177
0
178
0
179
2
271
2
272
2
273
2
274
3
275
0
276
0
277
2
278
44
279
0
280
0
281
0
282
0
283
0
284
8
285
0
286
0
288
0
289
3
290
0
371
-2
372
-2
  0
ENDTAB
  0
TABLE
  2
BLOCK_RECORD
  5
9
330
0
100
AcDbSymbolTable
 70
2
  0
BLOCK_RECORD
  5
17
330
9
100
AcDbSymbolTableRecord
100
AcDbBlockTableRecord
  2
*Model_Space
340
1A
 70
0
280
1
281
0
  0
BLOCK_RECORD
  5
1B
330
9
100
AcDbSymbolTableRecord
100
AcDbBlockTableRecord
  2
*Paper_Space
340
1E
 70
0
280
1
281
0
  0
ENDTAB
  0
ENDSEC
  0
SECTION
  2
BLOCKS
  0
BLOCK
  5
18
330
17
100
AcDbEntity
  8
0
100
AcDbBlockBegin
  2
*Model_Space
 70
0
 10
0.0
 20
0.0
 30
0.0
  3
*Model_Space
  1

  0
ENDBLK
  5
19
330
17
100
AcDbEntity
  8
0
100
AcDbBlockEnd
  0
BLOCK
  5
1C
330
1B
100
AcDbEntity
  8
0
100
AcDbBlockBegin
  2
*Paper_Space
 70
0
 10
0.0
 20
0.0
 30
0.0
  3
*Paper_Space
  1

  0
ENDBLK
  5
1D
330
1B
100
AcDbEntity
  8
0
100
AcDbBlockEnd
  0
ENDSEC
  0
SECTION
  2
ENTITIES
  0
LWPOLYLINE
  5
30
330
17
100
AcDbEntity
  8
WALL
100
AcDbPolyline
 90
4
 70
1
 10
693.44
 20
1233.7600000000002
 10
725.1200000000001
 20
1233.7600000000002
 10
725.1200000000001
 20
1229.3600000000001
 10
693.44
 20
1229.3600000000001
  0
HATCH
  5
31
330
17
100
AcDbEntity
  8
WALL
100
AcDbHatch
 10
0.0
 20
0.0
 30
0.0
210
0.0
220
0.0
230
1.0
  2
SOLID
 70
1
 71
0
 91
1
 92
3
 72
0
 73
1
 93
4
 10
693.44
 20
1233.7600000000002
 10
725.1200000000001
 20
1233.7600000000002
 10
725.1200000000001
 20
1229.3600000000001
 10
693.44
 20
1229.3600000000001
 97
0
 75
1
 76
1
 98
0
  0
LWPOLYLINE
  5
32
330
17
100
AcDbEntity
  8
WALL
100
AcDbPolyline
 90
4
 70
1
 10
291.28000000000003
 20
1188.88
 10
509.52000000000004
 20
1188.88
 10
509.52000000000004
 20
1167.7600000000002
 10
291.28000000000003
 20
1167.7600000000002
  0
HATCH
  5
33
330
17
100
AcDbEntity
  8
WALL
100
AcDbHatch
 10
0.0
 20
0.0
 30
0.0
210
0.0
220
0.0
230
1.0
  2
SOLID
 70
1
 71
0
 91
1
 92
3
 72
0
 73
1
 93
4
 10
291.28000000000003
 20
1188.88
 10
509.52000000000004
 20
1188.88
 10
509.52000000000004
 20
1167.7600000000002
 10
291.28000000000003
 20
1167.7600000000002
 97
0
 75
1
 76
1
 98
0
  0
LWPOLYLINE
  5
34
330
17
100
AcDbEntity
  8
WALL
100
AcDbPolyline
 90
4
 70
1
 10
623.0400000000001
 20
1186.2400000000002
 10
684.6400000000001
 20
1186.2400000000002
 10
684.6400000000001
 20
1171.2800000000002
 10
623.0400000000001
 20
1171.2800000000002
  0
HATCH
  5
35
330
17
100
AcDbEntity
  8
WALL
100
AcDbHatch
 10
0.0
 20
0.0
 30
0.0
210
0.0
220
0.0
230
1.0
  2
SOLID
 70
1
 71
0
 91
1
 92
3
 72
0
 73
1
 93
4
 10
623.0400000000001
 20
1186.2400000000002
 10
684.6400000000001
 20
1186.2400000000002
 10
684.6400000000001
 20
1171.2800000000002
 10
623.0400000000001
 20
1171.2800000000002
 97
0
 75
1
 76
1
 98
0
  0
LWPOLYLINE
  5
36
330
17
100
AcDbEntity
  8
WALL
100
AcDbPolyline
 90
4
 70
1
 10
523.6
 20
1173.0400000000002
 10
557.9200000000001
 20
1173.0400000000002
 10
557.9200000000001
 20
1171.2800000000002
 10
523.6
 20
1171.2800000000002
  0
HATCH
  5
37
330
17
100
AcDbEntity
  8
WALL
100
AcDbHatch
 10
0.0
 20
0.0
 30
0.0
210
0.0
220
0.0
230
1.0
  2
SOLID
 70
1
 71
0
 91
1
 92
3
 72
0
 73
1
 93
4
 10
523.6
 20
1173.0400000000002
 10
557.9200000000001
 20
1173.0400000000002
 10
557.9200000000001
 20
1171.2800000000002
 10
523.6
 20
1171.2800000000002
 97
0
 75
1
 76
1
 98
0
  0
LWPOLYLINE
  5
38
330
17
100
AcDbEntity
  8
WALL
100
AcDbPolyline
 90
4
 70
1
 10
623.0400000000001
 20
1130.8000000000002
 10
660.0000000000001
 20
1130.8000000000002
 10
660.0000000000001
 20
1121.1200000000001
 10
623.0400000000001
 20
1121.1200000000001
  0
HATCH
  5
39
330
17
100
AcDbEntity
  8
WALL
100
AcDbHatch
 10
0.0
 20
0.0
 30
0.0
210
0.0
220
0.0
230
1.0
  2
SOLID
 70
1
 71
0
 91
1
 92
3
 72
0
 73
1
 93
4
 10
623.0400000000001
 20
1130.8000000000002
 10
660.0000000000001
 20
1130.8000000000002
 10
660.0000000000001
 20
1121.1200000000001
 10
623.0400000000001
 20
1121.1200000000001
 97
0
 75
1
 76
1
 98
0
  0
LWPOLYLINE
  5
3A
330
17
100
AcDbEntity
  8
WALL
100
AcDbPolyline
 90
4
 70
1
 10
571.1200000000001
 20
1047.2
 10
614.2400000000001
 20
1047.2
 10
614.2400000000001
 20
1037.5200000000002
 10
571.1200000000001
 20
1037.5200000000002
  0
HATCH
  5
3B
330
17
100
AcDbEntity
  8
WALL
100
AcDbHatch
 10
0.0
 20
0.0
 30
0.0
210
0.0
220
0.0
230
1.0
  2
SOLID
 70
1
 71
0
 91
1
 92
3
 72
0
 73
1
 93
4
 10
571.1200000000001
 20
1047.2
 10
614.2400000000001
 20
1047.2
 10
614.2400000000001
 20
1037.5200000000002
 10
571.1200000000001
 20
1037.5200000000002
 97
0
 75
1
 76
1
 98
0
  0
LWPOLYLINE
  5
3C
330
17
100
AcDbEntity
  8
WALL
100
AcDbPolyline
 90
4
 70
1
 10
734.8000000000001
 20
1037.5200000000002
 10
840.4000000000001
 20
1037.5200000000002
 10
840.4000000000001
 20
1018.1600000000001
 10
734.8000000000001
 20
1018.1600000000001
  0
HATCH
  5
3D
330
17
100
AcDbEntity
  8
WALL
100
AcDbHatch
 10
0.0
 20
0.0
 30
0.0
210
0.0
220
0.0
230
1.0
  2
SOLID
 70
1
 71
0
 91
1
 92
3
 72
0
 73
1
 93
4
 10
734.8000000000001
 20
1037.5200000000002
 10
840.4000000000001
 20
1037.5200000000002
 10
840.4000000000001
 20
1018.1600000000001
 10
734.8000000000001
 20
1018.1600000000001
 97
0
 75
1
 76
1
 98
0
  0
LWPOLYLINE
  5
3E
330
17
100
AcDbEntity
  8
WALL
100
AcDbPolyline
 90
4
 70
1
 10
991.7600000000001
 20
1037.5200000000002
 10
1045.44
 20
1037.5200000000002
 10
1045.44
 20
1019.9200000000002
 10
991.7600000000001
 20
1019.9200000000002
  0
HATCH
  5
3F
330
17
100
AcDbEntity
  8
WALL
100
AcDbHatch
 10
0.0
 20
0.0
 30
0.0
210
0.0
220
0.0
230
1.0
  2
SOLID
 70
1
 71
0
 91
1
 92
3
 72
0
 73
1
 93
4
 10
991.7600000000001
 20
1037.5200000000002
 10
1045.44
 20
1037.5200000000002
 10
1045.44
 20
1019.9200000000002
 10
991.7600000000001
 20
1019.9200000000002
 97
0
 75
1
 76
1
 98
0
  0
LWPOLYLINE
  5
40
330
17
100
AcDbEntity
  8
WALL
100
AcDbPolyline
 90
4
 70
1
 10
227.92000000000002
 20
901.1200000000001
 10
308.88000000000005
 20
901.1200000000001
 10
308.88000000000005
 20
886.1600000000001
 10
227.92000000000002
 20
886.1600000000001
  0
HATCH
  5
41
330
17
100
AcDbEntity
  8
WALL
100
AcDbHatch
 10
0.0
 20
0.0
 30
0.0
210
0.0
220
0.0
230
1.0
  2
SOLID
 70
1
 71
0
 91
1
 92
3
 72
0
 73
1
 93
4
 10
227.92000000000002
 20
901.1200000000001
 10
308.88000000000005
 20
901.1200000000001
 10
308.88000000000005
 20
886.1600000000001
 10
227.92000000000002
 20
886.1600000000001
 97
0
 75
1
 76
1
 98
0
  0
LWPOLYLINE
  5
42
330
17
100
AcDbEntity
  8
WALL
100
AcDbPolyline
 90
4
 70
1
 10
864.1600000000001
 20
862.4000000000001
 10
917.8400000000001
 20
862.4000000000001
 10
917.8400000000001
 20
847.44
 10
864.1600000000001
 20
847.44
  0
HATCH
  5
43
330
17
100
AcDbEntity
  8
WALL
100
AcDbHatch
 10
0.0
 20
0.0
 30
0.0
210
0.0
220
0.0
230
1.0
  2
SOLID
 70
1
 71
0
 91
1
 92
3
 72
0
 73
1
 93
4
 10
864.1600000000001
 20
862.4000000000001
 10
917.8400000000001
 20
862.4000000000001
 10
917.8400000000001
 20
847.44
 10
864.1600000000001
 20
847.44
 97
0
 75
1
 76
1
 98
0
  0
LWPOLYLINE
  5
44
330
17
100
AcDbEntity
  8
WALL
100
AcDbPolyline
 90
4
 70
1
 10
556.1600000000001
 20
860.6400000000001
 10
588.72
 20
860.6400000000001
 10
588.72
 20
852.7200000000001
 10
556.1600000000001
 20
852.7200000000001
  0
HATCH
  5
45
330
17
100
AcDbEntity
  8
WALL
100
AcDbHatch
 10
0.0
 20
0.0
 30
0.0
210
0.0
220
0.0
230
1.0
  2
SOLID
 70
1
 71
0
 91
1
 92
3
 72
0
 73
1
 93
4
 10
556.1600000000001
 20
860.6400000000001
 10
588.72
 20
860.6400000000001
 10
588.72
 20
852.7200000000001
 10
556.1600000000001
 20
852.7200000000001
 97
0
 75
1
 76
1
 98
0
  0
LWPOLYLINE
  5
46
330
17
100
AcDbEntity
  8
WALL
100
AcDbPolyline
 90
4
 70
1
 10
206.80000000000004
 20
834.2400000000001
 10
381.0400000000001
 20
834.2400000000001
 10
381.0400000000001
 20
821.0400000000001
 10
206.80000000000004
 20
821.0400000000001
  0
HATCH
  5
47
330
17
100
AcDbEntity
  8
WALL
100
AcDbHatch
 10
0.0
 20
0.0
 30
0.0
210
0.0
220
0.0
230
1.0
  2
SOLID
 70
1
 71
0
 91
1
 92
3
 72
0
 73
1
 93
4
 10
206.80000000000004
 20
834.2400000000001
 10
381.0400000000001
 20
834.2400000000001
 10
381.0400000000001
 20
821.0400000000001
 10
206.80000000000004
 20
821.0400000000001
 97
0
 75
1
 76
1
 98
0
  0
LWPOLYLINE
  5
48
330
17
100
AcDbEntity
  8
WALL
100
AcDbPolyline
 90
4
 70
1
 10
734.8000000000001
 20
820.1600000000001
 10
766.4800000000001
 20
820.1600000000001
 10
766.4800000000001
 20
811.3600000000001
 10
734.8000000000001
 20
811.3600000000001
  0
HATCH
  5
49
330
17
100
AcDbEntity
  8
WALL
100
AcDbHatch
 10
0.0
 20
0.0
 30
0.0
210
0.0
220
0.0
230
1.0
  2
SOLID
 70
1
 71
0
 91
1
 92
3
 72
0
 73
1
 93
4
 10
734.8000000000001
 20
820.1600000000001
 10
766.4800000000001
 20
820.1600000000001
 10
766.4800000000001
 20
811.3600000000001
 10
734.8000000000001
 20
811.3600000000001
 97
0
 75
1
 76
1
 98
0
  0
LWPOLYLINE
  5
4A
330
17
100
AcDbEntity
  8
WALL
100
AcDbPolyline
 90
4
 70
1
 10
843.9200000000001
 20
736.5600000000001
 10
1048.0800000000002
 20
736.5600000000001
 10
1048.0800000000002
 20
717.2
 10
843.9200000000001
 20
717.2
  0
HATCH
  5
4B
330
17
100
AcDbEntity
  8
WALL
100
AcDbHatch
 10
0.0
 20
0.0
 30
0.0
210
0.0
220
0.0
230
1.0
  2
SOLID
 70
1
 71
0
 91
1
 92
3
 72
0
 73
1
 93
4
 10
843.9200000000001
 20
736.5600000000001
 10
1048.0800000000002
 20
736.5600000000001
 10
1048.0800000000002
 20
717.2
 10
843.9200000000001
 20
717.2
 97
0
 75
1
 76
1
 98
0
  0
LWPOLYLINE
  5
4C
330
17
100
AcDbEntity
  8
WALL
100
AcDbPolyline
 90
4
 70
1
 10
352.00000000000006
 20
674.96
 10
407.44000000000005
 20
674.96
 10
407.44000000000005
 20
667.9200000000001
 10
352.00000000000006
 20
667.9200000000001
  0
HATCH
  5
4D
330
17
100
AcDbEntity
  8
WALL
100
AcDbHatch
 10
0.0
 20
0.0
 30
0.0
210
0.0
220
0.0
230
1.0
  2
SOLID
 70
1
 71
0
 91
1
 92
3
 72
0
 73
1
 93
4
 10
352.00000000000006
 20
674.96
 10
407.44000000000005
 20
674.96
 10
407.44000000000005
 20
667.9200000000001
 10
352.00000000000006
 20
667.9200000000001
 97
0
 75
1
 76
1
 98
0
  0
LWPOLYLINE
  5
4E
330
17
100
AcDbEntity
  8
WALL
100
AcDbPolyline
 90
4
 70
1
 10
230.56000000000003
 20
638.8800000000001
 10
308.00000000000006
 20
638.8800000000001
 10
308.00000000000006
 20
627.44
 10
230.56000000000003
 20
627.44
  0
HATCH
  5
4F
330
17
100
AcDbEntity
  8
WALL
100
AcDbHatch
 10
0.0
 20
0.0
 30
0.0
210
0.0
220
0.0
230
1.0
  2
SOLID
 70
1
 71
0
 91
1
 92
3
 72
0
 73
1
 93
4
 10
230.56000000000003
 20
638.8800000000001
 10
308.00000000000006
 20
638.8800000000001
 10
308.00000000000006
 20
627.44
 10
230.56000000000003
 20
627.44
 97
0
 75
1
 76
1
 98
0
  0
LWPOLYLINE
  5
50
330
17
100
AcDbEntity
  8
WALL
100
AcDbPolyline
 90
4
 70
1
 10
304.48
 20
583.44
 10
335.28000000000003
 20
583.44
 10
335.28000000000003
 20
581.6800000000001
 10
304.48
 20
581.6800000000001
  0
HATCH
  5
51
330
17
100
AcDbEntity
  8
WALL
100
AcDbHatch
 10
0.0
 20
0.0
 30
0.0
210
0.0
220
0.0
230
1.0
  2
SOLID
 70
1
 71
0
 91
1
 92
3
 72
0
 73
1
 93
4
 10
304.48
 20
583.44
 10
335.28000000000003
 20
583.44
 10
335.28000000000003
 20
581.6800000000001
 10
304.48
 20
581.6800000000001
 97
0
 75
1
 76
1
 98
0
  0
LWPOLYLINE
  5
52
330
17
100
AcDbEntity
  8
WALL
100
AcDbPolyline
 90
4
 70
1
 10
843.9200000000001
 20
557.0400000000001
 10
942.4800000000001
 20
557.0400000000001
 10
942.4800000000001
 20
546.48
 10
843.9200000000001
 20
546.48
  0
HATCH
  5
53
330
17
100
AcDbEntity
  8
WALL
100
AcDbHatch
 10
0.0
 20
0.0
 30
0.0
210
0.0
220
0.0
230
1.0
  2
SOLID
 70
1
 71
0
 91
1
 92
3
 72
0
 73
1
 93
4
 10
843.9200000000001
 20
557.0400000000001
 10
942.4800000000001
 20
557.0400000000001
 10
942.4800000000001
 20
546.48
 10
843.9200000000001
 20
546.48
 97
0
 75
1
 76
1
 98
0
  0
LWPOLYLINE
  5
54
330
17
100
AcDbEntity
  8
WALL
100
AcDbPolyline
 90
4
 70
1
 10
843.9200000000001
 20
519.2
 10
913.4400000000002
 20
519.2
 10
913.4400000000002
 20
498.9600000000001
 10
843.9200000000001
 20
498.9600000000001
  0
HATCH
  5
55
330
17
100
AcDbEntity
  8
WALL
100
AcDbHatch
 10
0.0
 20
0.0
 30
0.0
210
0.0
220
0.0
230
1.0
  2
SOLID
 70
1
 71
0
 91
1
 92
3
 72
0
 73
1
 93
4
 10
843.9200000000001
 20
519.2
 10
913.4400000000002
 20
519.2
 10
913.4400000000002
 20
498.9600000000001
 10
843.9200000000001
 20
498.9600000000001
 97
0
 75
1
 76
1
 98
0
  0
LWPOLYLINE
  5
56
330
17
100
AcDbEntity
  8
WALL
100
AcDbPolyline
 90
4
 70
1
 10
954.8000000000002
 20
518.32
 10
1049.8400000000001
 20
518.32
 10
1049.8400000000001
 20
498.9600000000001
 10
954.8000000000002
 20
498.9600000000001
  0
HATCH
  5
57
330
17
100
AcDbEntity
  8
WALL
100
AcDbHatch
 10
0.0
 20
0.0
 30
0.0
210
0.0
220
0.0
230
1.0
  2
SOLID
 70
1
 71
0
 91
1
 92
3
 72
0
 73
1
 93
4
 10
954.8000000000002
 20
518.32
 10
1049.8400000000001
 20
518.32
 10
1049.8400000000001
 20
498.9600000000001
 10
954.8000000000002
 20
498.9600000000001
 97
0
 75
1
 76
1
 98
0
  0
LWPOLYLINE
  5
58
330
17
100
AcDbEntity
  8
WALL
100
AcDbPolyline
 90
4
 70
1
 10
491.0400000000001
 20
425.0400000000001
 10
534.1600000000001
 20
425.0400000000001
 10
534.1600000000001
 20
416.24000000000007
 10
491.0400000000001
 20
416.24000000000007
  0
HATCH
  5
59
330
17
100
AcDbEntity
  8
WALL
100
AcDbHatch
 10
0.0
 20
0.0
 30
0.0
210
0.0
220
0.0
230
1.0
  2
SOLID
 70
1
 71
0
 91
1
 92
3
 72
0
 73
1
 93
4
 10
491.0400000000001
 20
425.0400000000001
 10
534.1600000000001
 20
425.0400000000001
 10
534.1600000000001
 20
416.24000000000007
 10
491.0400000000001
 20
416.24000000000007
 97
0
 75
1
 76
1
 98
0
  0
LWPOLYLINE
  5
5A
330
17
100
AcDbEntity
  8
WALL
100
AcDbPolyline
 90
4
 70
1
 10
559.6800000000001
 20
425.0400000000001
 10
653.84
 20
425.0400000000001
 10
653.84
 20
418.00000000000006
 10
559.6800000000001
 20
418.00000000000006
  0
HATCH
  5
5B
330
17
100
AcDbEntity
  8
WALL
100
AcDbHatch
 10
0.0
 20
0.0
 30
0.0
210
0.0
220
0.0
230
1.0
  2
SOLID
 70
1
 71
0
 91
1
 92
3
 72
0
 73
1
 93
4
 10
559.6800000000001
 20
425.0400000000001
 10
653.84
 20
425.0400000000001
 10
653.84
 20
418.00000000000006
 10
559.6800000000001
 20
418.00000000000006
 97
0
 75
1
 76
1
 98
0
  0
LWPOLYLINE
  5
5C
330
17
100
AcDbEntity
  8
WALL
100
AcDbPolyline
 90
4
 70
1
 10
525.36
 20
393.36000000000007
 10
576.4000000000001
 20
393.36000000000007
 10
576.4000000000001
 20
386.32000000000005
 10
525.36
 20
386.32000000000005
  0
HATCH
  5
5D
330
17
100
AcDbEntity
  8
WALL
100
AcDbHatch
 10
0.0
 20
0.0
 30
0.0
210
0.0
220
0.0
230
1.0
  2
SOLID
 70
1
 71
0
 91
1
 92
3
 72
0
 73
1
 93
4
 10
525.36
 20
393.36000000000007
 10
576.4000000000001
 20
393.36000000000007
 10
576.4000000000001
 20
386.32000000000005
 10
525.36
 20
386.32000000000005
 97
0
 75
1
 76
1
 98
0
  0
LWPOLYLINE
  5
5E
330
17
100
AcDbEntity
  8
WALL
100
AcDbPolyline
 90
4
 70
1
 10
581.6800000000001
 20
393.36000000000007
 10
611.6000000000001
 20
393.36000000000007
 10
611.6000000000001
 20
387.20000000000005
 10
581.6800000000001
 20
387.20000000000005
  0
HATCH
  5
5F
330
17
100
AcDbEntity
  8
WALL
100
AcDbHatch
 10
0.0
 20
0.0
 30
0.0
210
0.0
220
0.0
230
1.0
  2
SOLID
 70
1
 71
0
 91
1
 92
3
 72
0
 73
1
 93
4
 10
581.6800000000001
 20
393.36000000000007
 10
611.6000000000001
 20
393.36000000000007
 10
611.6000000000001
 20
387.20000000000005
 10
581.6800000000001
 20
387.20000000000005
 97
0
 75
1
 76
1
 98
0
  0
LWPOLYLINE
  5
60
330
17
100
AcDbEntity
  8
WALL
100
AcDbPolyline
 90
4
 70
1
 10
20.240000000000002
 20
347.6
 10
82.72000000000001
 20
347.6
 10
82.72000000000001
 20
330.00000000000006
 10
20.240000000000002
 20
330.00000000000006
  0
HATCH
  5
61
330
17
100
AcDbEntity
  8
WALL
100
AcDbHatch
 10
0.0
 20
0.0
 30
0.0
210
0.0
220
0.0
230
1.0
  2
SOLID
 70
1
 71
0
 91
1
 92
3
 72
0
 73
1
 93
4
 10
20.240000000000002
 20
347.6
 10
82.72000000000001
 20
347.6
 10
82.72000000000001
 20
330.00000000000006
 10
20.240000000000002
 20
330.00000000000006
 97
0
 75
1
 76
1
 98
0
  0
LWPOLYLINE
  5
62
330
17
100
AcDbEntity
  8
WALL
100
AcDbPolyline
 90
4
 70
1
 10
711.9200000000001
 20
337.04
 10
1043.68
 20
337.04
 10
1043.68
 20
312.40000000000003
 10
711.9200000000001
 20
312.40000000000003
  0
HATCH
  5
63
330
17
100
AcDbEntity
  8
WALL
100
AcDbHatch
 10
0.0
 20
0.0
 30
0.0
210
0.0
220
0.0
230
1.0
  2
SOLID
 70
1
 71
0
 91
1
 92
3
 72
0
 73
1
 93
4
 10
711.9200000000001
 20
337.04
 10
1043.68
 20
337.04
 10
1043.68
 20
312.40000000000003
 10
711.9200000000001
 20
312.40000000000003
 97
0
 75
1
 76
1
 98
0
  0
LWPOLYLINE
  5
64
330
17
100
AcDbEntity
  8
WALL
100
AcDbPolyline
 90
4
 70
1
 10
424.1600000000001
 20
333.52000000000004
 10
530.6400000000001
 20
333.52000000000004
 10
530.6400000000001
 20
310.64000000000004
 10
424.1600000000001
 20
310.64000000000004
  0
HATCH
  5
65
330
17
100
AcDbEntity
  8
WALL
100
AcDbHatch
 10
0.0
 20
0.0
 30
0.0
210
0.0
220
0.0
230
1.0
  2
SOLID
 70
1
 71
0
 91
1
 92
3
 72
0
 73
1
 93
4
 10
424.1600000000001
 20
333.52000000000004
 10
530.6400000000001
 20
333.52000000000004
 10
530.6400000000001
 20
310.64000000000004
 10
424.1600000000001
 20
310.64000000000004
 97
0
 75
1
 76
1
 98
0
  0
LWPOLYLINE
  5
66
330
17
100
AcDbEntity
  8
WALL
100
AcDbPolyline
 90
4
 70
1
 10
128.48000000000002
 20
298.32000000000005
 10
192.72000000000003
 20
298.32000000000005
 10
192.72000000000003
 20
289.52000000000004
 10
128.48000000000002
 20
289.52000000000004
  0
HATCH
  5
67
330
17
100
AcDbEntity
  8
WALL
100
AcDbHatch
 10
0.0
 20
0.0
 30
0.0
210
0.0
220
0.0
230
1.0
  2
SOLID
 70
1
 71
0
 91
1
 92
3
 72
0
 73
1
 93
4
 10
128.48000000000002
 20
298.32000000000005
 10
192.72000000000003
 20
298.32000000000005
 10
192.72000000000003
 20
289.52000000000004
 10
128.48000000000002
 20
289.52000000000004
 97
0
 75
1
 76
1
 98
0
  0
LWPOLYLINE
  5
68
330
17
100
AcDbEntity
  8
WALL
100
AcDbPolyline
 90
4
 70
1
 10
22.000000000000004
 20
291.28000000000003
 10
106.48000000000002
 20
291.28000000000003
 10
106.48000000000002
 20
282.48
 10
22.000000000000004
 20
282.48
  0
HATCH
  5
69
330
17
100
AcDbEntity
  8
WALL
100
AcDbHatch
 10
0.0
 20
0.0
 30
0.0
210
0.0
220
0.0
230
1.0
  2
SOLID
 70
1
 71
0
 91
1
 92
3
 72
0
 73
1
 93
4
 10
22.000000000000004
 20
291.28000000000003
 10
106.48000000000002
 20
291.28000000000003
 10
106.48000000000002
 20
282.48
 10
22.000000000000004
 20
282.48
 97
0
 75
1
 76
1
 98
0
  0
LWPOLYLINE
  5
6A
330
17
100
AcDbEntity
  8
WALL
100
AcDbPolyline
 90
4
 70
1
 10
1122.88
 20
280.72
 10
1229.3600000000001
 20
280.72
 10
1229.3600000000001
 20
264.88000000000005
 10
1122.88
 20
264.88000000000005
  0
HATCH
  5
6B
330
17
100
AcDbEntity
  8
WALL
100
AcDbHatch
 10
0.0
 20
0.0
 30
0.0
210
0.0
220
0.0
230
1.0
  2
SOLID
 70
1
 71
0
 91
1
 92
3
 72
0
 73
1
 93
4
 10
1122.88
 20
280.72
 10
1229.3600000000001
 20
280.72
 10
1229.3600000000001
 20
264.88000000000005
 10
1122.88
 20
264.88000000000005
 97
0
 75
1
 76
1
 98
0
  0
LWPOLYLINE
  5
6C
330
17
100
AcDbEntity
  8
WALL
100
AcDbPolyline
 90
4
 70
1
 10
924.8800000000001
 20
262.24
 10
1007.6000000000001
 20
262.24
 10
1007.6000000000001
 20
250.80000000000004
 10
924.8800000000001
 20
250.80000000000004
  0
HATCH
  5
6D
330
17
100
AcDbEntity
  8
WALL
100
AcDbHatch
 10
0.0
 20
0.0
 30
0.0
210
0.0
220
0.0
230
1.0
  2
SOLID
 70
1
 71
0
 91
1
 92
3
 72
0
 73
1
 93
4
 10
924.8800000000001
 20
262.24
 10
1007.6000000000001
 20
262.24
 10
1007.6000000000001
 20
250.80000000000004
 10
924.8800000000001
 20
250.80000000000004
 97
0
 75
1
 76
1
 98
0
  0
LWPOLYLINE
  5
6E
330
17
100
AcDbEntity
  8
WALL
100
AcDbPolyline
 90
4
 70
1
 10
410.96000000000004
 20
252.56000000000003
 10
463.76000000000005
 20
252.56000000000003
 10
463.76000000000005
 20
243.76000000000002
 10
410.96000000000004
 20
243.76000000000002
  0
HATCH
  5
6F
330
17
100
AcDbEntity
  8
WALL
100
AcDbHatch
 10
0.0
 20
0.0
 30
0.0
210
0.0
220
0.0
230
1.0
  2
SOLID
 70
1
 71
0
 91
1
 92
3
 72
0
 73
1
 93
4
 10
410.96000000000004
 20
252.56000000000003
 10
463.76000000000005
 20
252.56000000000003
 10
463.76000000000005
 20
243.76000000000002
 10
410.96000000000004
 20
243.76000000000002
 97
0
 75
1
 76
1
 98
0
  0
LWPOLYLINE
  5
70
330
17
100
AcDbEntity
  8
WALL
100
AcDbPolyline
 90
4
 70
1
 10
936.3200000000002
 20
236.72000000000003
 10
1014.6400000000001
 20
236.72000000000003
 10
1014.6400000000001
 20
222.64000000000004
 10
936.3200000000002
 20
222.64000000000004
  0
HATCH
  5
71
330
17
100
AcDbEntity
  8
WALL
100
AcDbHatch
 10
0.0
 20
0.0
 30
0.0
210
0.0
220
0.0
230
1.0
  2
SOLID
 70
1
 71
0
 91
1
 92
3
 72
0
 73
1
 93
4
 10
936.3200000000002
 20
236.72000000000003
 10
1014.6400000000001
 20
236.72000000000003
 10
1014.6400000000001
 20
222.64000000000004
 10
936.3200000000002
 20
222.64000000000004
 97
0
 75
1
 76
1
 98
0
  0
LWPOLYLINE
  5
72
330
17
100
AcDbEntity
  8
WALL
100
AcDbPolyline
 90
4
 70
1
 10
1025.2
 20
234.96000000000004
 10
1058.64
 20
234.96000000000004
 10
1058.64
 20
227.92000000000002
 10
1025.2
 20
227.92000000000002
  0
HATCH
  5
73
330
17
100
AcDbEntity
  8
WALL
100
AcDbHatch
 10
0.0
 20
0.0
 30
0.0
210
0.0
220
0.0
230
1.0
  2
SOLID
 70
1
 71
0
 91
1
 92
3
 72
0
 73
1
 93
4
 10
1025.2
 20
234.96000000000004
 10
1058.64
 20
234.96000000000004
 10
1058.64
 20
227.92000000000002
 10
1025.2
 20
227.92000000000002
 97
0
 75
1
 76
1
 98
0
  0
LWPOLYLINE
  5
74
330
17
100
AcDbEntity
  8
WALL
100
AcDbPolyline
 90
4
 70
1
 10
1029.6000000000001
 20
209.44000000000003
 10
1058.64
 20
209.44000000000003
 10
1058.64
 20
204.16000000000003
 10
1029.6000000000001
 20
204.16000000000003
  0
HATCH
  5
75
330
17
100
AcDbEntity
  8
WALL
100
AcDbHatch
 10
0.0
 20
0.0
 30
0.0
210
0.0
220
0.0
230
1.0
  2
SOLID
 70
1
 71
0
 91
1
 92
3
 72
0
 73
1
 93
4
 10
1029.6000000000001
 20
209.44000000000003
 10
1058.64
 20
209.44000000000003
 10
1058.64
 20
204.16000000000003
 10
1029.6000000000001
 20
204.16000000000003
 97
0
 75
1
 76
1
 98
0
  0
LWPOLYLINE
  5
76
330
17
100
AcDbEntity
  8
WALL
100
AcDbPolyline
 90
4
 70
1
 10
506.00000000000006
 20
144.32000000000002
 10
618.6400000000001
 20
144.32000000000002
 10
618.6400000000001
 20
132.88000000000002
 10
506.00000000000006
 20
132.88000000000002
  0
HATCH
  5
77
330
17
100
AcDbEntity
  8
WALL
100
AcDbHatch
 10
0.0
 20
0.0
 30
0.0
210
0.0
220
0.0
230
1.0
  2
SOLID
 70
1
 71
0
 91
1
 92
3
 72
0
 73
1
 93
4
 10
506.00000000000006
 20
144.32000000000002
 10
618.6400000000001
 20
144.32000000000002
 10
618.6400000000001
 20
132.88000000000002
 10
506.00000000000006
 20
132.88000000000002
 97
0
 75
1
 76
1
 98
0
  0
LWPOLYLINE
  5
78
330
17
100
AcDbEntity
  8
WALL
100
AcDbPolyline
 90
4
 70
1
 10
305.36
 20
110.00000000000001
 10
1043.68
 20
110.00000000000001
 10
1043.68
 20
87.12
 10
305.36
 20
87.12
  0
HATCH
  5
79
330
17
100
AcDbEntity
  8
WALL
100
AcDbHatch
 10
0.0
 20
0.0
 30
0.0
210
0.0
220
0.0
230
1.0
  2
SOLID
 70
1
 71
0
 91
1
 92
3
 72
0
 73
1
 93
4
 10
305.36
 20
110.00000000000001
 10
1043.68
 20
110.00000000000001
 10
1043.68
 20
87.12
 10
305.36
 20
87.12
 97
0
 75
1
 76
1
 98
0
  0
LWPOLYLINE
  5
7A
330
17
100
AcDbEntity
  8
WALL
100
AcDbPolyline
 90
4
 70
1
 10
115.28000000000002
 20
106.48000000000002
 10
177.76000000000002
 20
106.48000000000002
 10
177.76000000000002
 20
88.88000000000001
 10
115.28000000000002
 20
88.88000000000001
  0
HATCH
  5
7B
330
17
100
AcDbEntity
  8
WALL
100
AcDbHatch
 10
0.0
 20
0.0
 30
0.0
210
0.0
220
0.0
230
1.0
  2
SOLID
 70
1
 71
0
 91
1
 92
3
 72
0
 73
1
 93
4
 10
115.28000000000002
 20
106.48000000000002
 10
177.76000000000002
 20
106.48000000000002
 10
177.76000000000002
 20
88.88000000000001
 10
115.28000000000002
 20
88.88000000000001
 97
0
 75
1
 76
1
 98
0
  0
LWPOLYLINE
  5
7C
330
17
100
AcDbEntity
  8
WALL
100
AcDbPolyline
 90
4
 70
1
 10
706.6400000000001
 20
1235.5200000000002
 10
724.2400000000001
 20
1235.5200000000002
 10
724.2400000000001
 20
1167.7600000000002
 10
706.6400000000001
 20
1167.7600000000002
  0
HATCH
  5
7D
330
17
100
AcDbEntity
  8
WALL
100
AcDbHatch
 10
0.0
 20
0.0
 30
0.0
210
0.0
220
0.0
230
1.0
  2
SOLID
 70
1
 71
0
 91
1
 92
3
 72
0
 73
1
 93
4
 10
706.6400000000001
 20
1235.5200000000002
 10
724.2400000000001
 20
1235.5200000000002
 10
724.2400000000001
 20
1167.7600000000002
 10
706.6400000000001
 20
1167.7600000000002
 97
0
 75
1
 76
1
 98
0
  0
LWPOLYLINE
  5
7E
330
17
100
AcDbEntity
  8
WALL
100
AcDbPolyline
 90
4
 70
1
 10
671.44
 20
1218.8000000000002
 10
682.8800000000001
 20
1218.8000000000002
 10
682.8800000000001
 20
1173.0400000000002
 10
671.44
 20
1173.0400000000002
  0
HATCH
  5
7F
330
17
100
AcDbEntity
  8
WALL
100
AcDbHatch
 10
0.0
 20
0.0
 30
0.0
210
0.0
220
0.0
230
1.0
  2
SOLID
 70
1
 71
0
 91
1
 92
3
 72
0
 73
1
 93
4
 10
671.44
 20
1218.8000000000002
 10
682.8800000000001
 20
1218.8000000000002
 10
682.8800000000001
 20
1173.0400000000002
 10
671.44
 20
1173.0400000000002
 97
0
 75
1
 76
1
 98
0
  0
LWPOLYLINE
  5
80
330
17
100
AcDbEntity
  8
WALL
100
AcDbPolyline
 90
4
 70
1
 10
715.44
 20
1127.2800000000002
 10
722.4800000000001
 20
1127.2800000000002
 10
722.4800000000001
 20
1093.8400000000001
 10
715.44
 20
1093.8400000000001
  0
HATCH
  5
81
330
17
100
AcDbEntity
  8
WALL
100
AcDbHatch
 10
0.0
 20
0.0
 30
0.0
210
0.0
220
0.0
230
1.0
  2
SOLID
 70
1
 71
0
 91
1
 92
3
 72
0
 73
1
 93
4
 10
715.44
 20
1127.2800000000002
 10
722.4800000000001
 20
1127.2800000000002
 10
722.4800000000001
 20
1093.8400000000001
 10
715.44
 20
1093.8400000000001
 97
0
 75
1
 76
1
 98
0
  0
LWPOLYLINE
  5
82
330
17
100
AcDbEntity
  8
WALL
100
AcDbPolyline
 90
4
 70
1
 10
731.2800000000001
 20
1039.2800000000002
 10
755.9200000000001
 20
1039.2800000000002
 10
755.9200000000001
 20
601.0400000000001
 10
731.2800000000001
 20
601.0400000000001
  0
HATCH
  5
83
330
17
100
AcDbEntity
  8
WALL
100
AcDbHatch
 10
0.0
 20
0.0
 30
0.0
210
0.0
220
0.0
230
1.0
  2
SOLID
 70
1
 71
0
 91
1
 92
3
 72
0
 73
1
 93
4
 10
731.2800000000001
 20
1039.2800000000002
 10
755.9200000000001
 20
1039.2800000000002
 10
755.9200000000001
 20
601.0400000000001
 10
731.2800000000001
 20
601.0400000000001
 97
0
 75
1
 76
1
 98
0
  0
LWPOLYLINE
  5
84
330
17
100
AcDbEntity
  8
WALL
100
AcDbPolyline
 90
4
 70
1
 10
808.7200000000001
 20
1037.5200000000002
 10
814.8800000000001
 20
1037.5200000000002
 10
814.8800000000001
 20
1007.6000000000001
 10
808.7200000000001
 20
1007.6000000000001
  0
HATCH
  5
85
330
17
100
AcDbEntity
  8
WALL
100
AcDbHatch
 10
0.0
 20
0.0
 30
0.0
210
0.0
220
0.0
230
1.0
  2
SOLID
 70
1
 71
0
 91
1
 92
3
 72
0
 73
1
 93
4
 10
808.7200000000001
 20
1037.5200000000002
 10
814.8800000000001
 20
1037.5200000000002
 10
814.8800000000001
 20
1007.6000000000001
 10
808.7200000000001
 20
1007.6000000000001
 97
0
 75
1
 76
1
 98
0
  0
LWPOLYLINE
  5
86
330
17
100
AcDbEntity
  8
WALL
100
AcDbPolyline
 90
4
 70
1
 10
513.0400000000001
 20
1008.4800000000001
 10
530.6400000000001
 20
1008.4800000000001
 10
530.6400000000001
 20
905.5200000000001
 10
513.0400000000001
 20
905.5200000000001
  0
HATCH
  5
87
330
17
100
AcDbEntity
  8
WALL
100
AcDbHatch
 10
0.0
 20
0.0
 30
0.0
210
0.0
220
0.0
230
1.0
  2
SOLID
 70
1
 71
0
 91
1
 92
3
 72
0
 73
1
 93
4
 10
513.0400000000001
 20
1008.4800000000001
 10
530.6400000000001
 20
1008.4800000000001
 10
530.6400000000001
 20
905.5200000000001
 10
513.0400000000001
 20
905.5200000000001
 97
0
 75
1
 76
1
 98
0
  0
LWPOLYLINE
  5
88
330
17
100
AcDbEntity
  8
WALL
100
AcDbPolyline
 90
4
 70
1
 10
909.0400000000001
 20
964.4800000000001
 10
911.6800000000001
 20
964.4800000000001
 10
911.6800000000001
 20
914.3200000000002
 10
909.0400000000001
 20
914.3200000000002
  0
HATCH
  5
89
330
17
100
AcDbEntity
  8
WALL
100
AcDbHatch
 10
0.0
 20
0.0
 30
0.0
210
0.0
220
0.0
230
1.0
  2
SOLID
 70
1
 71
0
 91
1
 92
3
 72
0
 73
1
 93
4
 10
909.0400000000001
 20
964.4800000000001
 10
911.6800000000001
 20
964.4800000000001
 10
911.6800000000001
 20
914.3200000000002
 10
909.0400000000001
 20
914.3200000000002
 97
0
 75
1
 76
1
 98
0
  0
LWPOLYLINE
  5
8A
330
17
100
AcDbEntity
  8
WALL
100
AcDbPolyline
 90
4
 70
1
 10
365.20000000000005
 20
913.4400000000002
 10
375.76000000000005
 20
913.4400000000002
 10
375.76000000000005
 20
819.2800000000001
 10
365.20000000000005
 20
819.2800000000001
  0
HATCH
  5
8B
330
17
100
AcDbEntity
  8
WALL
100
AcDbHatch
 10
0.0
 20
0.0
 30
0.0
210
0.0
220
0.0
230
1.0
  2
SOLID
 70
1
 71
0
 91
1
 92
3
 72
0
 73
1
 93
4
 10
365.20000000000005
 20
913.4400000000002
 10
375.76000000000005
 20
913.4400000000002
 10
375.76000000000005
 20
819.2800000000001
 10
365.20000000000005
 20
819.2800000000001
 97
0
 75
1
 76
1
 98
0
  0
LWPOLYLINE
  5
8C
330
17
100
AcDbEntity
  8
WALL
100
AcDbPolyline
 90
4
 70
1
 10
183.92000000000002
 20
902.0000000000001
 10
205.04000000000002
 20
902.0000000000001
 10
205.04000000000002
 20
359.9200000000001
 10
183.92000000000002
 20
359.9200000000001
  0
HATCH
  5
8D
330
17
100
AcDbEntity
  8
WALL
100
AcDbHatch
 10
0.0
 20
0.0
 30
0.0
210
0.0
220
0.0
230
1.0
  2
SOLID
 70
1
 71
0
 91
1
 92
3
 72
0
 73
1
 93
4
 10
183.92000000000002
 20
902.0000000000001
 10
205.04000000000002
 20
902.0000000000001
 10
205.04000000000002
 20
359.9200000000001
 10
183.92000000000002
 20
359.9200000000001
 97
0
 75
1
 76
1
 98
0
  0
LWPOLYLINE
  5
8E
330
17
100
AcDbEntity
  8
WALL
100
AcDbPolyline
 90
4
 70
1
 10
228.80000000000004
 20
900.2400000000001
 10
243.76000000000002
 20
900.2400000000001
 10
243.76000000000002
 20
628.32
 10
228.80000000000004
 20
628.32
  0
HATCH
  5
8F
330
17
100
AcDbEntity
  8
WALL
100
AcDbHatch
 10
0.0
 20
0.0
 30
0.0
210
0.0
220
0.0
230
1.0
  2
SOLID
 70
1
 71
0
 91
1
 92
3
 72
0
 73
1
 93
4
 10
228.80000000000004
 20
900.2400000000001
 10
243.76000000000002
 20
900.2400000000001
 10
243.76000000000002
 20
628.32
 10
228.80000000000004
 20
628.32
 97
0
 75
1
 76
1
 98
0
  0
LWPOLYLINE
  5
90
330
17
100
AcDbEntity
  8
WALL
100
AcDbPolyline
 90
4
 70
1
 10
1076.2400000000002
 20
855.3600000000001
 10
1083.2800000000002
 20
855.3600000000001
 10
1083.2800000000002
 20
764.7200000000001
 10
1076.2400000000002
 20
764.7200000000001
  0
HATCH
  5
91
330
17
100
AcDbEntity
  8
WALL
100
AcDbHatch
 10
0.0
 20
0.0
 30
0.0
210
0.0
220
0.0
230
1.0
  2
SOLID
 70
1
 71
0
 91
1
 92
3
 72
0
 73
1
 93
4
 10
1076.2400000000002
 20
855.3600000000001
 10
1083.2800000000002
 20
855.3600000000001
 10
1083.2800000000002
 20
764.7200000000001
 10
1076.2400000000002
 20
764.7200000000001
 97
0
 75
1
 76
1
 98
0
  0
LWPOLYLINE
  5
92
330
17
100
AcDbEntity
  8
WALL
100
AcDbPolyline
 90
4
 70
1
 10
298.32000000000005
 20
831.6000000000001
 10
308.88000000000005
 20
831.6000000000001
 10
308.88000000000005
 20
787.6000000000001
 10
298.32000000000005
 20
787.6000000000001
  0
HATCH
  5
93
330
17
100
AcDbEntity
  8
WALL
100
AcDbHatch
 10
0.0
 20
0.0
 30
0.0
210
0.0
220
0.0
230
1.0
  2
SOLID
 70
1
 71
0
 91
1
 92
3
 72
0
 73
1
 93
4
 10
298.32000000000005
 20
831.6000000000001
 10
308.88000000000005
 20
831.6000000000001
 10
308.88000000000005
 20
787.6000000000001
 10
298.32000000000005
 20
787.6000000000001
 97
0
 75
1
 76
1
 98
0
  0
LWPOLYLINE
  5
94
330
17
100
AcDbEntity
  8
WALL
100
AcDbPolyline
 90
4
 70
1
 10
643.2800000000001
 20
813.1200000000001
 10
650.32
 20
813.1200000000001
 10
650.32
 20
773.5200000000001
 10
643.2800000000001
 20
773.5200000000001
  0
HATCH
  5
95
330
17
100
AcDbEntity
  8
WALL
100
AcDbHatch
 10
0.0
 20
0.0
 30
0.0
210
0.0
220
0.0
230
1.0
  2
SOLID
 70
1
 71
0
 91
1
 92
3
 72
0
 73
1
 93
4
 10
643.2800000000001
 20
813.1200000000001
 10
650.32
 20
813.1200000000001
 10
650.32
 20
773.5200000000001
 10
643.2800000000001
 20
773.5200000000001
 97
0
 75
1
 76
1
 98
0
  0
LWPOLYLINE
  5
96
330
17
100
AcDbEntity
  8
WALL
100
AcDbPolyline
 90
4
 70
1
 10
528.0000000000001
 20
789.3600000000001
 10
535.9200000000001
 20
789.3600000000001
 10
535.9200000000001
 20
692.5600000000001
 10
528.0000000000001
 20
692.5600000000001
  0
HATCH
  5
97
330
17
100
AcDbEntity
  8
WALL
100
AcDbHatch
 10
0.0
 20
0.0
 30
0.0
210
0.0
220
0.0
230
1.0
  2
SOLID
 70
1
 71
0
 91
1
 92
3
 72
0
 73
1
 93
4
 10
528.0000000000001
 20
789.3600000000001
 10
535.9200000000001
 20
789.3600000000001
 10
535.9200000000001
 20
692.5600000000001
 10
528.0000000000001
 20
692.5600000000001
 97
0
 75
1
 76
1
 98
0
  0
LWPOLYLINE
  5
98
330
17
100
AcDbEntity
  8
WALL
100
AcDbPolyline
 90
4
 70
1
 10
296.56000000000006
 20
786.7200000000001
 10
310.64000000000004
 20
786.7200000000001
 10
310.64000000000004
 20
617.7600000000001
 10
296.56000000000006
 20
617.7600000000001
  0
HATCH
  5
99
330
17
100
AcDbEntity
  8
WALL
100
AcDbHatch
 10
0.0
 20
0.0
 30
0.0
210
0.0
220
0.0
230
1.0
  2
SOLID
 70
1
 71
0
 91
1
 92
3
 72
0
 73
1
 93
4
 10
296.56000000000006
 20
786.7200000000001
 10
310.64000000000004
 20
786.7200000000001
 10
310.64000000000004
 20
617.7600000000001
 10
296.56000000000006
 20
617.7600000000001
 97
0
 75
1
 76
1
 98
0
  0
LWPOLYLINE
  5
9A
330
17
100
AcDbEntity
  8
WALL
100
AcDbPolyline
 90
4
 70
1
 10
517.44
 20
733.9200000000001
 10
518.32
 20
733.9200000000001
 10
518.32
 20
704.8800000000001
 10
517.44
 20
704.8800000000001
  0
HATCH
  5
9B
330
17
100
AcDbEntity
  8
WALL
100
AcDbHatch
 10
0.0
 20
0.0
 30
0.0
210
0.0
220
0.0
230
1.0
  2
SOLID
 70
1
 71
0
 91
1
 92
3
 72
0
 73
1
 93
4
 10
517.44
 20
733.9200000000001
 10
518.32
 20
733.9200000000001
 10
518.32
 20
704.8800000000001
 10
517.44
 20
704.8800000000001
 97
0
 75
1
 76
1
 98
0
  0
LWPOLYLINE
  5
9C
330
17
100
AcDbEntity
  8
WALL
100
AcDbPolyline
 90
4
 70
1
 10
395.12000000000006
 20
726.8800000000001
 10
403.9200000000001
 20
726.8800000000001
 10
403.9200000000001
 20
683.7600000000001
 10
395.12000000000006
 20
683.7600000000001
  0
HATCH
  5
9D
330
17
100
AcDbEntity
  8
WALL
100
AcDbHatch
 10
0.0
 20
0.0
 30
0.0
210
0.0
220
0.0
230
1.0
  2
SOLID
 70
1
 71
0
 91
1
 92
3
 72
0
 73
1
 93
4
 10
395.12000000000006
 20
726.8800000000001
 10
403.9200000000001
 20
726.8800000000001
 10
403.9200000000001
 20
683.7600000000001
 10
395.12000000000006
 20
683.7600000000001
 97
0
 75
1
 76
1
 98
0
  0
LWPOLYLINE
  5
9E
330
17
100
AcDbEntity
  8
WALL
100
AcDbPolyline
 90
4
 70
1
 10
1074.4800000000002
 20
716.32
 10
1081.5200000000002
 20
716.32
 10
1081.5200000000002
 20
645.0400000000001
 10
1074.4800000000002
 20
645.0400000000001
  0
HATCH
  5
9F
330
17
100
AcDbEntity
  8
WALL
100
AcDbHatch
 10
0.0
 20
0.0
 30
0.0
210
0.0
220
0.0
230
1.0
  2
SOLID
 70
1
 71
0
 91
1
 92
3
 72
0
 73
1
 93
4
 10
1074.4800000000002
 20
716.32
 10
1081.5200000000002
 20
716.32
 10
1081.5200000000002
 20
645.0400000000001
 10
1074.4800000000002
 20
645.0400000000001
 97
0
 75
1
 76
1
 98
0
  0
LWPOLYLINE
  5
A0
330
17
100
AcDbEntity
  8
WALL
100
AcDbPolyline
 90
4
 70
1
 10
528.8800000000001
 20
688.1600000000001
 10
535.9200000000001
 20
688.1600000000001
 10
535.9200000000001
 20
602.8000000000001
 10
528.8800000000001
 20
602.8000000000001
  0
HATCH
  5
A1
330
17
100
AcDbEntity
  8
WALL
100
AcDbHatch
 10
0.0
 20
0.0
 30
0.0
210
0.0
220
0.0
230
1.0
  2
SOLID
 70
1
 71
0
 91
1
 92
3
 72
0
 73
1
 93
4
 10
528.8800000000001
 20
688.1600000000001
 10
535.9200000000001
 20
688.1600000000001
 10
535.9200000000001
 20
602.8000000000001
 10
528.8800000000001
 20
602.8000000000001
 97
0
 75
1
 76
1
 98
0
  0
LWPOLYLINE
  5
A2
330
17
100
AcDbEntity
  8
WALL
100
AcDbPolyline
 90
4
 70
1
 10
843.9200000000001
 20
644.1600000000001
 10
856.2400000000001
 20
644.1600000000001
 10
856.2400000000001
 20
498.08000000000004
 10
843.9200000000001
 20
498.08000000000004
  0
HATCH
  5
A3
330
17
100
AcDbEntity
  8
WALL
100
AcDbHatch
 10
0.0
 20
0.0
 30
0.0
210
0.0
220
0.0
230
1.0
  2
SOLID
 70
1
 71
0
 91
1
 92
3
 72
0
 73
1
 93
4
 10
843.9200000000001
 20
644.1600000000001
 10
856.2400000000001
 20
644.1600000000001
 10
856.2400000000001
 20
498.08000000000004
 10
843.9200000000001
 20
498.08000000000004
 97
0
 75
1
 76
1
 98
0
  0
LWPOLYLINE
  5
A4
330
17
100
AcDbEntity
  8
WALL
100
AcDbPolyline
 90
4
 70
1
 10
1212.64
 20
613.3600000000001
 10
1229.3600000000001
 20
613.3600000000001
 10
1229.3600000000001
 20
539.44
 10
1212.64
 20
539.44
  0
HATCH
  5
A5
330
17
100
AcDbEntity
  8
WALL
100
AcDbHatch
 10
0.0
 20
0.0
 30
0.0
210
0.0
220
0.0
230
1.0
  2
SOLID
 70
1
 71
0
 91
1
 92
3
 72
0
 73
1
 93
4
 10
1212.64
 20
613.3600000000001
 10
1229.3600000000001
 20
613.3600000000001
 10
1229.3600000000001
 20
539.44
 10
1212.64
 20
539.44
 97
0
 75
1
 76
1
 98
0
  0
LWPOLYLINE
  5
A6
330
17
100
AcDbEntity
  8
WALL
100
AcDbPolyline
 90
4
 70
1
 10
327.36000000000007
 20
608.96
 10
333.52000000000004
 20
608.96
 10
333.52000000000004
 20
568.48
 10
327.36000000000007
 20
568.48
  0
HATCH
  5
A7
330
17
100
AcDbEntity
  8
WALL
100
AcDbHatch
 10
0.0
 20
0.0
 30
0.0
210
0.0
220
0.0
230
1.0
  2
SOLID
 70
1
 71
0
 91
1
 92
3
 72
0
 73
1
 93
4
 10
327.36000000000007
 20
608.96
 10
333.52000000000004
 20
608.96
 10
333.52000000000004
 20
568.48
 10
327.36000000000007
 20
568.48
 97
0
 75
1
 76
1
 98
0
  0
LWPOLYLINE
  5
A8
330
17
100
AcDbEntity
  8
WALL
100
AcDbPolyline
 90
4
 70
1
 10
1099.1200000000001
 20
563.2
 10
1106.16
 20
563.2
 10
1106.16
 20
521.84
 10
1099.1200000000001
 20
521.84
  0
HATCH
  5
A9
330
17
100
AcDbEntity
  8
WALL
100
AcDbHatch
 10
0.0
 20
0.0
 30
0.0
210
0.0
220
0.0
230
1.0
  2
SOLID
 70
1
 71
0
 91
1
 92
3
 72
0
 73
1
 93
4
 10
1099.1200000000001
 20
563.2
 10
1106.16
 20
563.2
 10
1106.16
 20
521.84
 10
1099.1200000000001
 20
521.84
 97
0
 75
1
 76
1
 98
0
  0
LWPOLYLINE
  5
AA
330
17
100
AcDbEntity
  8
WALL
100
AcDbPolyline
 90
4
 70
1
 10
563.2
 20
540.32
 10
570.2400000000001
 20
540.32
 10
570.2400000000001
 20
509.52000000000004
 10
563.2
 20
509.52000000000004
  0
HATCH
  5
AB
330
17
100
AcDbEntity
  8
WALL
100
AcDbHatch
 10
0.0
 20
0.0
 30
0.0
210
0.0
220
0.0
230
1.0
  2
SOLID
 70
1
 71
0
 91
1
 92
3
 72
0
 73
1
 93
4
 10
563.2
 20
540.32
 10
570.2400000000001
 20
540.32
 10
570.2400000000001
 20
509.52000000000004
 10
563.2
 20
509.52000000000004
 97
0
 75
1
 76
1
 98
0
  0
LWPOLYLINE
  5
AC
330
17
100
AcDbEntity
  8
WALL
100
AcDbPolyline
 90
4
 70
1
 10
507.76000000000005
 20
425.0400000000001
 10
513.0400000000001
 20
425.0400000000001
 10
513.0400000000001
 20
384.56000000000006
 10
507.76000000000005
 20
384.56000000000006
  0
HATCH
  5
AD
330
17
100
AcDbEntity
  8
WALL
100
AcDbHatch
 10
0.0
 20
0.0
 30
0.0
210
0.0
220
0.0
230
1.0
  2
SOLID
 70
1
 71
0
 91
1
 92
3
 72
0
 73
1
 93
4
 10
507.76000000000005
 20
425.0400000000001
 10
513.0400000000001
 20
425.0400000000001
 10
513.0400000000001
 20
384.56000000000006
 10
507.76000000000005
 20
384.56000000000006
 97
0
 75
1
 76
1
 98
0
  0
LWPOLYLINE
  5
AE
330
17
100
AcDbEntity
  8
WALL
100
AcDbPolyline
 90
4
 70
1
 10
566.72
 20
425.0400000000001
 10
574.6400000000001
 20
425.0400000000001
 10
574.6400000000001
 20
386.32000000000005
 10
566.72
 20
386.32000000000005
  0
HATCH
  5
AF
330
17
100
AcDbEntity
  8
WALL
100
AcDbHatch
 10
0.0
 20
0.0
 30
0.0
210
0.0
220
0.0
230
1.0
  2
SOLID
 70
1
 71
0
 91
1
 92
3
 72
0
 73
1
 93
4
 10
566.72
 20
425.0400000000001
 10
574.6400000000001
 20
425.0400000000001
 10
574.6400000000001
 20
386.32000000000005
 10
566.72
 20
386.32000000000005
 97
0
 75
1
 76
1
 98
0
  0
LWPOLYLINE
  5
B0
330
17
100
AcDbEntity
  8
WALL
100
AcDbPolyline
 90
4
 70
1
 10
621.2800000000001
 20
425.0400000000001
 10
632.72
 20
425.0400000000001
 10
632.72
 20
384.56000000000006
 10
621.2800000000001
 20
384.56000000000006
  0
HATCH
  5
B1
330
17
100
AcDbEntity
  8
WALL
100
AcDbHatch
 10
0.0
 20
0.0
 30
0.0
210
0.0
220
0.0
230
1.0
  2
SOLID
 70
1
 71
0
 91
1
 92
3
 72
0
 73
1
 93
4
 10
621.2800000000001
 20
425.0400000000001
 10
632.72
 20
425.0400000000001
 10
632.72
 20
384.56000000000006
 10
621.2800000000001
 20
384.56000000000006
 97
0
 75
1
 76
1
 98
0
  0
LWPOLYLINE
  5
B2
330
17
100
AcDbEntity
  8
WALL
100
AcDbPolyline
 90
4
 70
1
 10
822.8000000000001
 20
373.12000000000006
 10
829.8400000000001
 20
373.12000000000006
 10
829.8400000000001
 20
315.92
 10
822.8000000000001
 20
315.92
  0
HATCH
  5
B3
330
17
100
AcDbEntity
  8
WALL
100
AcDbHatch
 10
0.0
 20
0.0
 30
0.0
210
0.0
220
0.0
230
1.0
  2
SOLID
 70
1
 71
0
 91
1
 92
3
 72
0
 73
1
 93
4
 10
822.8000000000001
 20
373.12000000000006
 10
829.8400000000001
 20
373.12000000000006
 10
829.8400000000001
 20
315.92
 10
822.8000000000001
 20
315.92
 97
0
 75
1
 76
1
 98
0
  0
LWPOLYLINE
  5
B4
330
17
100
AcDbEntity
  8
WALL
100
AcDbPolyline
 90
4
 70
1
 10
21.120000000000005
 20
347.6
 10
38.720000000000006
 20
347.6
 10
38.720000000000006
 20
277.20000000000005
 10
21.120000000000005
 20
277.20000000000005
  0
HATCH
  5
B5
330
17
100
AcDbEntity
  8
WALL
100
AcDbHatch
 10
0.0
 20
0.0
 30
0.0
210
0.0
220
0.0
230
1.0
  2
SOLID
 70
1
 71
0
 91
1
 92
3
 72
0
 73
1
 93
4
 10
21.120000000000005
 20
347.6
 10
38.720000000000006
 20
347.6
 10
38.720000000000006
 20
277.20000000000005
 10
21.120000000000005
 20
277.20000000000005
 97
0
 75
1
 76
1
 98
0
  0
LWPOLYLINE
  5
B6
330
17
100
AcDbEntity
  8
WALL
100
AcDbPolyline
 90
4
 70
1
 10
602.8000000000001
 20
335.28000000000003
 10
618.6400000000001
 20
335.28000000000003
 10
618.6400000000001
 20
88.88000000000001
 10
602.8000000000001
 20
88.88000000000001
  0
HATCH
  5
B7
330
17
100
AcDbEntity
  8
WALL
100
AcDbHatch
 10
0.0
 20
0.0
 30
0.0
210
0.0
220
0.0
230
1.0
  2
SOLID
 70
1
 71
0
 91
1
 92
3
 72
0
 73
1
 93
4
 10
602.8000000000001
 20
335.28000000000003
 10
618.6400000000001
 20
335.28000000000003
 10
618.6400000000001
 20
88.88000000000001
 10
602.8000000000001
 20
88.88000000000001
 97
0
 75
1
 76
1
 98
0
  0
LWPOLYLINE
  5
B8
330
17
100
AcDbEntity
  8
WALL
100
AcDbPolyline
 90
4
 70
1
 10
183.92000000000002
 20
318.56000000000006
 10
190.96000000000004
 20
318.56000000000006
 10
190.96000000000004
 20
286.00000000000006
 10
183.92000000000002
 20
286.00000000000006
  0
HATCH
  5
B9
330
17
100
AcDbEntity
  8
WALL
100
AcDbHatch
 10
0.0
 20
0.0
 30
0.0
210
0.0
220
0.0
230
1.0
  2
SOLID
 70
1
 71
0
 91
1
 92
3
 72
0
 73
1
 93
4
 10
183.92000000000002
 20
318.56000000000006
 10
190.96000000000004
 20
318.56000000000006
 10
190.96000000000004
 20
286.00000000000006
 10
183.92000000000002
 20
286.00000000000006
 97
0
 75
1
 76
1
 98
0
  0
LWPOLYLINE
  5
BA
330
17
100
AcDbEntity
  8
WALL
100
AcDbPolyline
 90
4
 70
1
 10
1213.5200000000002
 20
308.88000000000005
 10
1227.6000000000001
 20
308.88000000000005
 10
1227.6000000000001
 20
245.52000000000004
 10
1213.5200000000002
 20
245.52000000000004
  0
HATCH
  5
BB
330
17
100
AcDbEntity
  8
WALL
100
AcDbHatch
 10
0.0
 20
0.0
 30
0.0
210
0.0
220
0.0
230
1.0
  2
SOLID
 70
1
 71
0
 91
1
 92
3
 72
0
 73
1
 93
4
 10
1213.5200000000002
 20
308.88000000000005
 10
1227.6000000000001
 20
308.88000000000005
 10
1227.6000000000001
 20
245.52000000000004
 10
1213.5200000000002
 20
245.52000000000004
 97
0
 75
1
 76
1
 98
0
  0
LWPOLYLINE
  5
BC
330
17
100
AcDbEntity
  8
WALL
100
AcDbPolyline
 90
4
 70
1
 10
384.56000000000006
 20
297.44000000000005
 10
400.40000000000003
 20
297.44000000000005
 10
400.40000000000003
 20
249.04000000000002
 10
384.56000000000006
 20
249.04000000000002
  0
HATCH
  5
BD
330
17
100
AcDbEntity
  8
WALL
100
AcDbHatch
 10
0.0
 20
0.0
 30
0.0
210
0.0
220
0.0
230
1.0
  2
SOLID
 70
1
 71
0
 91
1
 92
3
 72
0
 73
1
 93
4
 10
384.56000000000006
 20
297.44000000000005
 10
400.40000000000003
 20
297.44000000000005
 10
400.40000000000003
 20
249.04000000000002
 10
384.56000000000006
 20
249.04000000000002
 97
0
 75
1
 76
1
 98
0
  0
LWPOLYLINE
  5
BE
330
17
100
AcDbEntity
  8
WALL
100
AcDbPolyline
 90
4
 70
1
 10
1076.2400000000002
 20
239.36000000000004
 10
1083.2800000000002
 20
239.36000000000004
 10
1083.2800000000002
 20
201.52000000000004
 10
1076.2400000000002
 20
201.52000000000004
  0
HATCH
  5
BF
330
17
100
AcDbEntity
  8
WALL
100
AcDbHatch
 10
0.0
 20
0.0
 30
0.0
210
0.0
220
0.0
230
1.0
  2
SOLID
 70
1
 71
0
 91
1
 92
3
 72
0
 73
1
 93
4
 10
1076.2400000000002
 20
239.36000000000004
 10
1083.2800000000002
 20
239.36000000000004
 10
1083.2800000000002
 20
201.52000000000004
 10
1076.2400000000002
 20
201.52000000000004
 97
0
 75
1
 76
1
 98
0
  0
LWPOLYLINE
  5
C0
330
17
100
AcDbEntity
  8
WALL
100
AcDbPolyline
 90
4
 70
1
 10
1043.68
 20
237.60000000000002
 10
1058.64
 20
237.60000000000002
 10
1058.64
 20
190.96000000000004
 10
1043.68
 20
190.96000000000004
  0
HATCH
  5
C1
330
17
100
AcDbEntity
  8
WALL
100
AcDbHatch
 10
0.0
 20
0.0
 30
0.0
210
0.0
220
0.0
230
1.0
  2
SOLID
 70
1
 71
0
 91
1
 92
3
 72
0
 73
1
 93
4
 10
1043.68
 20
237.60000000000002
 10
1058.64
 20
237.60000000000002
 10
1058.64
 20
190.96000000000004
 10
1043.68
 20
190.96000000000004
 97
0
 75
1
 76
1
 98
0
  0
LWPOLYLINE
  5
C2
330
17
100
AcDbEntity
  8
WALL
100
AcDbPolyline
 90
4
 70
1
 10
850.9600000000002
 20
211.20000000000002
 10
858.0000000000001
 20
211.20000000000002
 10
858.0000000000001
 20
161.04000000000002
 10
850.9600000000002
 20
161.04000000000002
  0
HATCH
  5
C3
330
17
100
AcDbEntity
  8
WALL
100
AcDbHatch
 10
0.0
 20
0.0
 30
0.0
210
0.0
220
0.0
230
1.0
  2
SOLID
 70
1
 71
0
 91
1
 92
3
 72
0
 73
1
 93
4
 10
850.9600000000002
 20
211.20000000000002
 10
858.0000000000001
 20
211.20000000000002
 10
858.0000000000001
 20
161.04000000000002
 10
850.9600000000002
 20
161.04000000000002
 97
0
 75
1
 76
1
 98
0
  0
LWPOLYLINE
  5
C4
330
17
100
AcDbEntity
  8
WALL
100
AcDbPolyline
 90
4
 70
1
 10
382.80000000000007
 20
207.68000000000004
 10
403.9200000000001
 20
207.68000000000004
 10
403.9200000000001
 20
87.12
 10
382.80000000000007
 20
87.12
  0
HATCH
  5
C5
330
17
100
AcDbEntity
  8
WALL
100
AcDbHatch
 10
0.0
 20
0.0
 30
0.0
210
0.0
220
0.0
230
1.0
  2
SOLID
 70
1
 71
0
 91
1
 92
3
 72
0
 73
1
 93
4
 10
382.80000000000007
 20
207.68000000000004
 10
403.9200000000001
 20
207.68000000000004
 10
403.9200000000001
 20
87.12
 10
382.80000000000007
 20
87.12
 97
0
 75
1
 76
1
 98
0
  0
LWPOLYLINE
  5
C6
330
17
100
AcDbEntity
  8
WALL
100
AcDbPolyline
 90
4
 70
1
 10
806.0800000000002
 20
205.92000000000002
 10
810.4800000000001
 20
205.92000000000002
 10
810.4800000000001
 20
169.84000000000003
 10
806.0800000000002
 20
169.84000000000003
  0
HATCH
  5
C7
330
17
100
AcDbEntity
  8
WALL
100
AcDbHatch
 10
0.0
 20
0.0
 30
0.0
210
0.0
220
0.0
230
1.0
  2
SOLID
 70
1
 71
0
 91
1
 92
3
 72
0
 73
1
 93
4
 10
806.0800000000002
 20
205.92000000000002
 10
810.4800000000001
 20
205.92000000000002
 10
810.4800000000001
 20
169.84000000000003
 10
806.0800000000002
 20
169.84000000000003
 97
0
 75
1
 76
1
 98
0
  0
LWPOLYLINE
  5
C8
330
17
100
AcDbEntity
  8
WALL
100
AcDbPolyline
 90
4
 70
1
 10
1076.2400000000002
 20
195.36
 10
1080.64
 20
195.36
 10
1080.64
 20
154.00000000000003
 10
1076.2400000000002
 20
154.00000000000003
  0
HATCH
  5
C9
330
17
100
AcDbEntity
  8
WALL
100
AcDbHatch
 10
0.0
 20
0.0
 30
0.0
210
0.0
220
0.0
230
1.0
  2
SOLID
 70
1
 71
0
 91
1
 92
3
 72
0
 73
1
 93
4
 10
1076.2400000000002
 20
195.36
 10
1080.64
 20
195.36
 10
1080.64
 20
154.00000000000003
 10
1076.2400000000002
 20
154.00000000000003
 97
0
 75
1
 76
1
 98
0
  0
LWPOLYLINE
  5
CA
330
17
100
AcDbEntity
  8
WALL
100
AcDbPolyline
 90
4
 70
1
 10
25.520000000000003
 20
160.16000000000003
 10
41.36000000000001
 20
160.16000000000003
 10
41.36000000000001
 20
125.84000000000002
 10
25.520000000000003
 20
125.84000000000002
  0
HATCH
  5
CB
330
17
100
AcDbEntity
  8
WALL
100
AcDbHatch
 10
0.0
 20
0.0
 30
0.0
210
0.0
220
0.0
230
1.0
  2
SOLID
 70
1
 71
0
 91
1
 92
3
 72
0
 73
1
 93
4
 10
25.520000000000003
 20
160.16000000000003
 10
41.36000000000001
 20
160.16000000000003
 10
41.36000000000001
 20
125.84000000000002
 10
25.520000000000003
 20
125.84000000000002
 97
0
 75
1
 76
1
 98
0
  0
LWPOLYLINE
  5
CC
330
17
100
AcDbEntity
  8
WALL
100
AcDbPolyline
 90
4
 70
1
 10
506.00000000000006
 20
143.44000000000003
 10
516.5600000000001
 20
143.44000000000003
 10
516.5600000000001
 20
88.88000000000001
 10
506.00000000000006
 20
88.88000000000001
  0
HATCH
  5
CD
330
17
100
AcDbEntity
  8
WALL
100
AcDbHatch
 10
0.0
 20
0.0
 30
0.0
210
0.0
220
0.0
230
1.0
  2
SOLID
 70
1
 71
0
 91
1
 92
3
 72
0
 73
1
 93
4
 10
506.00000000000006
 20
143.44000000000003
 10
516.5600000000001
 20
143.44000000000003
 10
516.5600000000001
 20
88.88000000000001
 10
506.00000000000006
 20
88.88000000000001
 97
0
 75
1
 76
1
 98
0
  0
LWPOLYLINE
  5
CE
330
17
100
AcDbEntity
  8
WALL
100
AcDbPolyline
 90
4
 70
1
 10
690.8000000000001
 20
1168.64
 10
731.2800000000001
 20
1168.64
 10
731.2800000000001
 20
1128.16
 10
690.8000000000001
 20
1128.16
  0
HATCH
  5
CF
330
17
100
AcDbEntity
  8
WALL
100
AcDbHatch
 10
0.0
 20
0.0
 30
0.0
210
0.0
220
0.0
230
1.0
  2
SOLID
 70
1
 71
0
 91
1
 92
3
 72
0
 73
1
 93
4
 10
690.8000000000001
 20
1168.64
 10
731.2800000000001
 20
1168.64
 10
731.2800000000001
 20
1128.16
 10
690.8000000000001
 20
1128.16
 97
0
 75
1
 76
1
 98
0
  0
LWPOLYLINE
  5
D0
330
17
100
AcDbEntity
  8
WALL
100
AcDbPolyline
 90
4
 70
1
 10
613.3600000000001
 20
1099.1200000000001
 10
733.9200000000001
 20
1099.1200000000001
 10
733.9200000000001
 20
1015.5200000000001
 10
613.3600000000001
 20
1015.5200000000001
  0
HATCH
  5
D1
330
17
100
AcDbEntity
  8
WALL
100
AcDbHatch
 10
0.0
 20
0.0
 30
0.0
210
0.0
220
0.0
230
1.0
  2
SOLID
 70
1
 71
0
 91
1
 92
3
 72
0
 73
1
 93
4
 10
613.3600000000001
 20
1099.1200000000001
 10
733.9200000000001
 20
1099.1200000000001
 10
733.9200000000001
 20
1015.5200000000001
 10
613.3600000000001
 20
1015.5200000000001
 97
0
 75
1
 76
1
 98
0
  0
LWPOLYLINE
  5
D2
330
17
100
AcDbEntity
  8
WALL
100
AcDbPolyline
 90
4
 70
1
 10
500.7200000000001
 20
1063.0400000000002
 10
568.48
 20
1063.0400000000002
 10
568.48
 20
1009.3600000000001
 10
500.7200000000001
 20
1009.3600000000001
  0
HATCH
  5
D3
330
17
100
AcDbEntity
  8
WALL
100
AcDbHatch
 10
0.0
 20
0.0
 30
0.0
210
0.0
220
0.0
230
1.0
  2
SOLID
 70
1
 71
0
 91
1
 92
3
 72
0
 73
1
 93
4
 10
500.7200000000001
 20
1063.0400000000002
 10
568.48
 20
1063.0400000000002
 10
568.48
 20
1009.3600000000001
 10
500.7200000000001
 20
1009.3600000000001
 97
0
 75
1
 76
1
 98
0
  0
LWPOLYLINE
  5
D4
330
17
100
AcDbEntity
  8
WALL
100
AcDbPolyline
 90
4
 70
1
 10
183.04000000000002
 20
1048.0800000000002
 10
381.9200000000001
 20
1048.0800000000002
 10
381.9200000000001
 20
902.8800000000001
 10
183.04000000000002
 20
902.8800000000001
  0
HATCH
  5
D5
330
17
100
AcDbEntity
  8
WALL
100
AcDbHatch
 10
0.0
 20
0.0
 30
0.0
210
0.0
220
0.0
230
1.0
  2
SOLID
 70
1
 71
0
 91
1
 92
3
 72
0
 73
1
 93
4
 10
183.04000000000002
 20
1048.0800000000002
 10
381.9200000000001
 20
1048.0800000000002
 10
381.9200000000001
 20
902.8800000000001
 10
183.04000000000002
 20
902.8800000000001
 97
0
 75
1
 76
1
 98
0
  0
LWPOLYLINE
  5
D6
330
17
100
AcDbEntity
  8
WALL
100
AcDbPolyline
 90
4
 70
1
 10
1044.5600000000002
 20
1043.68
 10
1173.92
 20
1043.68
 10
1173.92
 20
856.2400000000001
 10
1044.5600000000002
 20
856.2400000000001
  0
HATCH
  5
D7
330
17
100
AcDbEntity
  8
WALL
100
AcDbHatch
 10
0.0
 20
0.0
 30
0.0
210
0.0
220
0.0
230
1.0
  2
SOLID
 70
1
 71
0
 91
1
 92
3
 72
0
 73
1
 93
4
 10
1044.5600000000002
 20
1043.68
 10
1173.92
 20
1043.68
 10
1173.92
 20
856.2400000000001
 10
1044.5600000000002
 20
856.2400000000001
 97
0
 75
1
 76
1
 98
0
  0
LWPOLYLINE
  5
D8
330
17
100
AcDbEntity
  8
WALL
100
AcDbPolyline
 90
4
 70
1
 10
1047.2
 20
762.0800000000002
 10
1092.0800000000002
 20
762.0800000000002
 10
1092.0800000000002
 20
718.08
 10
1047.2
 20
718.08
  0
HATCH
  5
D9
330
17
100
AcDbEntity
  8
WALL
100
AcDbHatch
 10
0.0
 20
0.0
 30
0.0
210
0.0
220
0.0
230
1.0
  2
SOLID
 70
1
 71
0
 91
1
 92
3
 72
0
 73
1
 93
4
 10
1047.2
 20
762.0800000000002
 10
1092.0800000000002
 20
762.0800000000002
 10
1092.0800000000002
 20
718.08
 10
1047.2
 20
718.08
 97
0
 75
1
 76
1
 98
0
  0
LWPOLYLINE
  5
DA
330
17
100
AcDbEntity
  8
WALL
100
AcDbPolyline
 90
4
 70
1
 10
1048.0800000000002
 20
645.9200000000001
 10
1089.44
 20
645.9200000000001
 10
1089.44
 20
591.3600000000001
 10
1048.0800000000002
 20
591.3600000000001
  0
HATCH
  5
DB
330
17
100
AcDbEntity
  8
WALL
100
AcDbHatch
 10
0.0
 20
0.0
 30
0.0
210
0.0
220
0.0
230
1.0
  2
SOLID
 70
1
 71
0
 91
1
 92
3
 72
0
 73
1
 93
4
 10
1048.0800000000002
 20
645.9200000000001
 10
1089.44
 20
645.9200000000001
 10
1089.44
 20
591.3600000000001
 10
1048.0800000000002
 20
591.3600000000001
 97
0
 75
1
 76
1
 98
0
  0
LWPOLYLINE
  5
DC
330
17
100
AcDbEntity
  8
WALL
100
AcDbPolyline
 90
4
 70
1
 10
1046.3200000000002
 20
589.6
 10
1100.0000000000002
 20
589.6
 10
1100.0000000000002
 20
500.7200000000001
 10
1046.3200000000002
 20
500.7200000000001
  0
HATCH
  5
DD
330
17
100
AcDbEntity
  8
WALL
100
AcDbHatch
 10
0.0
 20
0.0
 30
0.0
210
0.0
220
0.0
230
1.0
  2
SOLID
 70
1
 71
0
 91
1
 92
3
 72
0
 73
1
 93
4
 10
1046.3200000000002
 20
589.6
 10
1100.0000000000002
 20
589.6
 10
1100.0000000000002
 20
500.7200000000001
 10
1046.3200000000002
 20
500.7200000000001
 97
0
 75
1
 76
1
 98
0
  0
LWPOLYLINE
  5
DE
330
17
100
AcDbEntity
  8
WALL
100
AcDbPolyline
 90
4
 70
1
 10
1121.1200000000001
 20
580.8000000000001
 10
1203.8400000000001
 20
580.8000000000001
 10
1203.8400000000001
 20
540.32
 10
1121.1200000000001
 20
540.32
  0
HATCH
  5
DF
330
17
100
AcDbEntity
  8
WALL
100
AcDbHatch
 10
0.0
 20
0.0
 30
0.0
210
0.0
220
0.0
230
1.0
  2
SOLID
 70
1
 71
0
 91
1
 92
3
 72
0
 73
1
 93
4
 10
1121.1200000000001
 20
580.8000000000001
 10
1203.8400000000001
 20
580.8000000000001
 10
1203.8400000000001
 20
540.32
 10
1121.1200000000001
 20
540.32
 97
0
 75
1
 76
1
 98
0
  0
LWPOLYLINE
  5
E0
330
17
100
AcDbEntity
  8
WALL
100
AcDbPolyline
 90
4
 70
1
 10
912.5600000000002
 20
531.5200000000001
 10
953.9200000000001
 20
531.5200000000001
 10
953.9200000000001
 20
496.32000000000005
 10
912.5600000000002
 20
496.32000000000005
  0
HATCH
  5
E1
330
17
100
AcDbEntity
  8
WALL
100
AcDbHatch
 10
0.0
 20
0.0
 30
0.0
210
0.0
220
0.0
230
1.0
  2
SOLID
 70
1
 71
0
 91
1
 92
3
 72
0
 73
1
 93
4
 10
912.5600000000002
 20
531.5200000000001
 10
953.9200000000001
 20
531.5200000000001
 10
953.9200000000001
 20
496.32000000000005
 10
912.5600000000002
 20
496.32000000000005
 97
0
 75
1
 76
1
 98
0
  0
LWPOLYLINE
  5
E2
330
17
100
AcDbEntity
  8
WALL
100
AcDbPolyline
 90
4
 70
1
 10
1026.96
 20
411.84000000000003
 10
1122.0000000000002
 20
411.84000000000003
 10
1122.0000000000002
 20
238.48000000000002
 10
1026.96
 20
238.48000000000002
  0
HATCH
  5
E3
330
17
100
AcDbEntity
  8
WALL
100
AcDbHatch
 10
0.0
 20
0.0
 30
0.0
210
0.0
220
0.0
230
1.0
  2
SOLID
 70
1
 71
0
 91
1
 92
3
 72
0
 73
1
 93
4
 10
1026.96
 20
411.84000000000003
 10
1122.0000000000002
 20
411.84000000000003
 10
1122.0000000000002
 20
238.48000000000002
 10
1026.96
 20
238.48000000000002
 97
0
 75
1
 76
1
 98
0
  0
LWPOLYLINE
  5
E4
330
17
100
AcDbEntity
  8
WALL
100
AcDbPolyline
 90
4
 70
1
 10
168.08
 20
360.80000000000007
 10
210.32000000000002
 20
360.80000000000007
 10
210.32000000000002
 20
319.44000000000005
 10
168.08
 20
319.44000000000005
  0
HATCH
  5
E5
330
17
100
AcDbEntity
  8
WALL
100
AcDbHatch
 10
0.0
 20
0.0
 30
0.0
210
0.0
220
0.0
230
1.0
  2
SOLID
 70
1
 71
0
 91
1
 92
3
 72
0
 73
1
 93
4
 10
168.08
 20
360.80000000000007
 10
210.32000000000002
 20
360.80000000000007
 10
210.32000000000002
 20
319.44000000000005
 10
168.08
 20
319.44000000000005
 97
0
 75
1
 76
1
 98
0
  0
LWPOLYLINE
  5
E6
330
17
100
AcDbEntity
  8
WALL
100
AcDbPolyline
 90
4
 70
1
 10
81.84000000000002
 20
348.48
 10
165.44000000000003
 20
348.48
 10
165.44000000000003
 20
310.64000000000004
 10
81.84000000000002
 20
310.64000000000004
  0
HATCH
  5
E7
330
17
100
AcDbEntity
  8
WALL
100
AcDbHatch
 10
0.0
 20
0.0
 30
0.0
210
0.0
220
0.0
230
1.0
  2
SOLID
 70
1
 71
0
 91
1
 92
3
 72
0
 73
1
 93
4
 10
81.84000000000002
 20
348.48
 10
165.44000000000003
 20
348.48
 10
165.44000000000003
 20
310.64000000000004
 10
81.84000000000002
 20
310.64000000000004
 97
0
 75
1
 76
1
 98
0
  0
LWPOLYLINE
  5
E8
330
17
100
AcDbEntity
  8
WALL
100
AcDbPolyline
 90
4
 70
1
 10
378.40000000000003
 20
334.40000000000003
 10
423.28000000000003
 20
334.40000000000003
 10
423.28000000000003
 20
298.32000000000005
 10
378.40000000000003
 20
298.32000000000005
  0
HATCH
  5
E9
330
17
100
AcDbEntity
  8
WALL
100
AcDbHatch
 10
0.0
 20
0.0
 30
0.0
210
0.0
220
0.0
230
1.0
  2
SOLID
 70
1
 71
0
 91
1
 92
3
 72
0
 73
1
 93
4
 10
378.40000000000003
 20
334.40000000000003
 10
423.28000000000003
 20
334.40000000000003
 10
423.28000000000003
 20
298.32000000000005
 10
378.40000000000003
 20
298.32000000000005
 97
0
 75
1
 76
1
 98
0
  0
LWPOLYLINE
  5
EA
330
17
100
AcDbEntity
  8
WALL
100
AcDbPolyline
 90
4
 70
1
 10
369.6
 20
249.92000000000004
 10
410.08000000000004
 20
249.92000000000004
 10
410.08000000000004
 20
208.56000000000003
 10
369.6
 20
208.56000000000003
  0
HATCH
  5
EB
330
17
100
AcDbEntity
  8
WALL
100
AcDbHatch
 10
0.0
 20
0.0
 30
0.0
210
0.0
220
0.0
230
1.0
  2
SOLID
 70
1
 71
0
 91
1
 92
3
 72
0
 73
1
 93
4
 10
369.6
 20
249.92000000000004
 10
410.08000000000004
 20
249.92000000000004
 10
410.08000000000004
 20
208.56000000000003
 10
369.6
 20
208.56000000000003
 97
0
 75
1
 76
1
 98
0
  0
LWPOLYLINE
  5
EC
330
17
100
AcDbEntity
  8
WALL
100
AcDbPolyline
 90
4
 70
1
 10
1042.8000000000002
 20
139.04000000000002
 10
1163.3600000000001
 20
139.04000000000002
 10
1163.3600000000001
 20
24.640000000000004
 10
1042.8000000000002
 20
24.640000000000004
  0
HATCH
  5
ED
330
17
100
AcDbEntity
  8
WALL
100
AcDbHatch
 10
0.0
 20
0.0
 30
0.0
210
0.0
220
0.0
230
1.0
  2
SOLID
 70
1
 71
0
 91
1
 92
3
 72
0
 73
1
 93
4
 10
1042.8000000000002
 20
139.04000000000002
 10
1163.3600000000001
 20
139.04000000000002
 10
1163.3600000000001
 20
24.640000000000004
 10
1042.8000000000002
 20
24.640000000000004
 97
0
 75
1
 76
1
 98
0
  0
LWPOLYLINE
  5
EE
330
17
100
AcDbEntity
  8
WALL
100
AcDbPolyline
 90
4
 70
1
 10
24.640000000000004
 20
126.72000000000001
 10
114.40000000000002
 20
126.72000000000001
 10
114.40000000000002
 20
89.76
 10
24.640000000000004
 20
89.76
  0
HATCH
  5
EF
330
17
100
AcDbEntity
  8
WALL
100
AcDbHatch
 10
0.0
 20
0.0
 30
0.0
210
0.0
220
0.0
230
1.0
  2
SOLID
 70
1
 71
0
 91
1
 92
3
 72
0
 73
1
 93
4
 10
24.640000000000004
 20
126.72000000000001
 10
114.40000000000002
 20
126.72000000000001
 10
114.40000000000002
 20
89.76
 10
24.640000000000004
 20
89.76
 97
0
 75
1
 76
1
 98
0
  0
LWPOLYLINE
  5
F0
330
17
100
AcDbEntity
  8
WALL
100
AcDbPolyline
 90
4
 70
1
 10
176.88000000000002
 20
112.64000000000001
 10
304.48
 20
112.64000000000001
 10
304.48
 20
17.6
 10
176.88000000000002
 20
17.6
  0
HATCH
  5
F1
330
17
100
AcDbEntity
  8
WALL
100
AcDbHatch
 10
0.0
 20
0.0
 30
0.0
210
0.0
220
0.0
230
1.0
  2
SOLID
 70
1
 71
0
 91
1
 92
3
 72
0
 73
1
 93
4
 10
176.88000000000002
 20
112.64000000000001
 10
304.48
 20
112.64000000000001
 10
304.48
 20
17.6
 10
176.88000000000002
 20
17.6
 97
0
 75
1
 76
1
 98
0
  0
ENDSEC
  0
SECTION
  2
OBJECTS
  0
DICTIONARY
  5
A
330
0
100
AcDbDictionary
281
1
  3
ACAD_COLOR
350
B
  3
ACAD_GROUP
350
C
  3
ACAD_LAYOUT
350
D
  3
ACAD_MATERIAL
350
E
  3
ACAD_MLEADERSTYLE
350
F
  3
ACAD_MLINESTYLE
350
10
  3
ACAD_PLOTSETTINGS
350
11
  3
ACAD_PLOTSTYLENAME
350
12
  3
ACAD_SCALELIST
350
14
  3
ACAD_TABLESTYLE
350
15
  3
ACAD_VISUALSTYLE
350
16
  3
EZDXF_META
350
2D
  0
DICTIONARY
  5
B
330
A
100
AcDbDictionary
281
1
  0
DICTIONARY
  5
C
330
A
100
AcDbDictionary
281
1
  0
DICTIONARY
  5
D
330
A
100
AcDbDictionary
281
1
  3
Model
350
1A
  3
Layout1
350
1E
  0
DICTIONARY
  5
E
330
A
100
AcDbDictionary
281
1
  3
ByBlock
350
1F
  3
ByLayer
350
20
  3
Global
350
21
  0
DICTIONARY
  5
F
330
A
100
AcDbDictionary
281
1
  3
Standard
350
2C
  0
DICTIONARY
  5
10
330
A
100
AcDbDictionary
281
1
  3
Standard
350
22
  0
DICTIONARY
  5
11
330
A
100
AcDbDictionary
281
1
  0
ACDBDICTIONARYWDFLT
  5
12
330
A
100
AcDbDictionary
281
1
  3
Normal
350
13
100
AcDbDictionaryWithDefault
340
13
  0
ACDBPLACEHOLDER
  5
13
330
12
  0
DICTIONARY
  5
14
330
A
100
AcDbDictionary
281
1
  0
DICTIONARY
  5
15
330
A
100
AcDbDictionary
281
1
  0
DICTIONARY
  5
16
330
A
100
AcDbDictionary
281
1
  0
LAYOUT
  5
1A
330
D
100
AcDbPlotSettings
  1

  4
A3
  6

 40
7.5
 41
20.0
 42
7.5
 43
20.0
 44
420.0
 45
297.0
 46
0.0
 47
0.0
 48
0.0
 49
0.0
140
0.0
141
0.0
142
1.0
143
1.0
 70
1024
 72
1
 73
0
 74
5
  7

 75
16
 76
0
 77
2
 78
300
147
1.0
148
0.0
149
0.0
100
AcDbLayout
  1
Model
 70
1
 71
0
 10
0.0
 20
0.0
 11
420.0
 21
297.0
 12
0.0
 22
0.0
 32
0.0
 14
1e+20
 24
1e+20
 34
1e+20
 15
-1e+20
 25
-1e+20
 35
-1e+20
146
0.0
 13
0.0
 23
0.0
 33
0.0
 16
1.0
 26
0.0
 36
0.0
 17
0.0
 27
1.0
 37
0.0
 76
1
330
17
  0
LAYOUT
  5
1E
330
D
100
AcDbPlotSettings
  1

  4
A3
  6

 40
7.5
 41
20.0
 42
7.5
 43
20.0
 44
420.0
 45
297.0
 46
0.0
 47
0.0
 48
0.0
 49
0.0
140
0.0
141
0.0
142
1.0
143
1.0
 70
0
 72
1
 73
0
 74
5
  7

 75
16
 76
0
 77
2
 78
300
147
1.0
148
0.0
149
0.0
100
AcDbLayout
  1
Layout1
 70
1
 71
1
 10
0.0
 20
0.0
 11
420.0
 21
297.0
 12
0.0
 22
0.0
 32
0.0
 14
1e+20
 24
1e+20
 34
1e+20
 15
-1e+20
 25
-1e+20
 35
-1e+20
146
0.0
 13
0.0
 23
0.0
 33
0.0
 16
1.0
 26
0.0
 36
0.0
 17
0.0
 27
1.0
 37
0.0
 76
1
330
1B
  0
MATERIAL
  5
1F
102
{ACAD_REACTORS
330
E
102
}
330
E
100
AcDbMaterial
  1
ByBlock
  2

 70
0
 40
1.0
 71
1
 41
1.0
 91
-1023410177
 42
1.0
 72
1
  3

 73
1
 74
1
 75
1
 44
0.5
 73
0
 45
1.0
 46
1.0
 77
1
  4

 78
1
 79
1
170
1
 48
1.0
171
1
  6

172
1
173
1
174
1
140
1.0
141
1.0
175
1
  7

176
1
177
1
178
1
143
1.0
179
1
  8

270
1
271
1
272
1
145
1.0
146
1.0
273
1
  9

274
1
275
1
276
1
 42
1.0
 72
1
  3

 73
1
 74
1
 75
1
 94
63
  0
MATERIAL
  5
20
102
{ACAD_REACTORS
330
E
102
}
330
E
100
AcDbMaterial
  1
ByLayer
  2

 70
0
 40
1.0
 71
1
 41
1.0
 91
-1023410177
 42
1.0
 72
1
  3

 73
1
 74
1
 75
1
 44
0.5
 73
0
 45
1.0
 46
1.0
 77
1
  4

 78
1
 79
1
170
1
 48
1.0
171
1
  6

172
1
173
1
174
1
140
1.0
141
1.0
175
1
  7

176
1
177
1
178
1
143
1.0
179
1
  8

270
1
271
1
272
1
145
1.0
146
1.0
273
1
  9

274
1
275
1
276
1
 42
1.0
 72
1
  3

 73
1
 74
1
 75
1
 94
63
  0
MATERIAL
  5
21
102
{ACAD_REACTORS
330
E
102
}
330
E
100
AcDbMaterial
  1
Global
  2

 70
0
 40
1.0
 71
1
 41
1.0
 91
-1023410177
 42
1.0
 72
1
  3

 73
1
 74
1
 75
1
 44
0.5
 73
0
 45
1.0
 46
1.0
 77
1
  4

 78
1
 79
1
170
1
 48
1.0
171
1
  6

172
1
173
1
174
1
140
1.0
141
1.0
175
1
  7

176
1
177
1
178
1
143
1.0
179
1
  8

270
1
271
1
272
1
145
1.0
146
1.0
273
1
  9

274
1
275
1
276
1
 42
1.0
 72
1
  3

 73
1
 74
1
 75
1
 94
63
  0
MLINESTYLE
  5
22
102
{ACAD_REACTORS
330
10
102
}
330
10
100
AcDbMlineStyle
  2
Standard
 70
0
  3

 62
256
 51
90.0
 52
90.0
 71
2
 49
0.5
 62
256
  6
BYLAYER
 49
-0.5
 62
256
  6
BYLAYER
  0
MLEADERSTYLE
  5
2C
102
{ACAD_REACTORS
330
F
102
}
330
F
100
AcDbMLeaderStyle
179
2
170
2
171
1
172
0
 90
2
 40
0.0
 41
0.0
173
1
 91
-1056964608
 92
-2
290
1
 42
2.0
291
1
 43
8.0
  3
Standard
 44
4.0
300

342
29
174
1
175
1
176
0
178
1
 93
-1056964608
 45
4.0
292
0
297
0
 46
4.0
 94
-1056964608
 47
1.0
 49
1.0
140
1.0
294
1
141
0.0
177
0
142
1.0
295
0
296
0
143
3.75
271
0
272
9
273
9
  0
DICTIONARY
  5
2D
330
A
100
AcDbDictionary
280
1
281
1
  3
CREATED_BY_EZDXF
350
2E
  3
WRITTEN_BY_EZDXF
350
F4
  0
DICTIONARYVAR
  5
2E
330
2D
100
DictionaryVariables
280
0
  1
1.4.4 @ 2026-07-14T07:57:59.196298+00:00
  0
DICTIONARYVAR
  5
F4
330
2D
100
DictionaryVariables
280
0
  1
1.4.4 @ 2026-07-14T07:57:59.207648+00:00
  0
ENDSEC
  0
EOF
