  0
SECTION
  2
HEADER
  9
$ACADVER
  1
AC1024
  9
$ACADMAINTVER
 70
6
  9
$DWGCODEPAGE
  3
ANSI_1252
  9
$LASTSAVEDBY
  1
ezdxf
  9
$INSBASE
 10
0.0
 20
0.0
 30
0.0
  9
$EXTMIN
 10
1e+20
 20
1e+20
 30
1e+20
  9
$EXTMAX
 10
-1e+20
 20
-1e+20
 30
-1e+20
  9
$LIMMIN
 10
0.0
 20
0.0
  9
$LIMMAX
 10
420.0
 20
297.0
  9
$ORTHOMODE
 70
0
  9
$REGENMODE
 70
1
  9
$FILLMODE
 70
1
  9
$QTEXTMODE
 70
0
  9
$MIRRTEXT
 70
1
  9
$LTSCALE
 40
1.0
  9
$ATTMODE
 70
1
  9
$TEXTSIZE
 40
2.5
  9
$TRACEWID
 40
1.0
  9
$TEXTSTYLE
  7
Standard
  9
$CLAYER
  8
0
  9
$CELTYPE
  6
ByLayer
  9
$CECOLOR
 62
256
  9
$CELTSCALE
 40
1.0
  9
$DISPSILH
 70
0
  9
$DIMSCALE
 40
1.0
  9
$DIMASZ
 40
2.5
  9
$DIMEXO
 40
0.625
  9
$DIMDLI
 40
3.75
  9
$DIMRND
 40
0.0
  9
$DIMDLE
 40
0.0
  9
$DIMEXE
 40
1.25
  9
$DIMTP
 40
0.0
  9
$DIMTM
 40
0.0
  9
$DIMTXT
 40
2.5
  9
$DIMCEN
 40
2.5
  9
$DIMTSZ
 40
0.0
  9
$DIMTOL
 70
0
  9
$DIMLIM
 70
0
  9
$DIMTIH
 70
0
  9
$DIMTOH
 70
0
  9
$DIMSE1
 70
0
  9
$DIMSE2
 70
0
  9
$DIMTAD
 70
1
  9
$DIMZIN
 70
8
  9
$DIMBLK
  1

  9
$DIMASO
 70
1
  9
$DIMSHO
 70
1
  9
$DIMPOST
  1

  9
$DIMAPOST
  1

  9
$DIMALT
 70
0
  9
$DIMALTD
 70
3
  9
$DIMALTF
 40
0.03937007874
  9
$DIMLFAC
 40
1.0
  9
$DIMTOFL
 70
1
  9
$DIMTVP
 40
0.0
  9
$DIMTIX
 70
0
  9
$DIMSOXD
 70
0
  9
$DIMSAH
 70
0
  9
$DIMBLK1
  1

  9
$DIMBLK2
  1

  9
$DIMSTYLE
  2
ISO-25
  9
$DIMCLRD
 70
0
  9
$DIMCLRE
 70
0
  9
$DIMCLRT
 70
0
  9
$DIMTFAC
 40
1.0
  9
$DIMGAP
 40
0.625
  9
$DIMJUST
 70
0
  9
$DIMSD1
 70
0
  9
$DIMSD2
 70
0
  9
$DIMTOLJ
 70
0
  9
$DIMTZIN
 70
8
  9
$DIMALTZ
 70
0
  9
$DIMALTTZ
 70
0
  9
$DIMUPT
 70
0
  9
$DIMDEC
 70
2
  9
$DIMTDEC
 70
2
  9
$DIMALTU
 70
2
  9
$DIMALTTD
 70
3
  9
$DIMTXSTY
  7
Standard
  9
$DIMAUNIT
 70
0
  9
$DIMADEC
 70
0
  9
$DIMALTRND
 40
0.0
  9
$DIMAZIN
 70
0
  9
$DIMDSEP
 70
44
  9
$DIMATFIT
 70
3
  9
$DIMFRAC
 70
0
  9
$DIMLDRBLK
  1

  9
$DIMLUNIT
 70
2
  9
$DIMLWD
 70
-2
  9
$DIMLWE
 70
-2
  9
$DIMTMOVE
 70
0
  9
$DIMFXL
 40
1.0
  9
$DIMFXLON
 70
0
  9
$DIMJOGANG
 40
0.785398163397
  9
$DIMTFILL
 70
0
  9
$DIMTFILLCLR
 70
0
  9
$DIMARCSYM
 70
0
  9
$DIMLTYPE
  6

  9
$DIMLTEX1
  6

  9
$DIMLTEX2
  6

  9
$DIMTXTDIRECTION
 70
0
  9
$LUNITS
 70
2
  9
$LUPREC
 70
4
  9
$SKETCHINC
 40
1.0
  9
$FILLETRAD
 40
10.0
  9
$AUNITS
 70
0
  9
$AUPREC
 70
2
  9
$MENU
  1
.
  9
$ELEVATION
 40
0.0
  9
$PELEVATION
 40
0.0
  9
$THICKNESS
 40
0.0
  9
$LIMCHECK
 70
0
  9
$CHAMFERA
 40
0.0
  9
$CHAMFERB
 40
0.0
  9
$CHAMFERC
 40
0.0
  9
$CHAMFERD
 40
0.0
  9
$SKPOLY
 70
0
  9
$TDCREATE
 40
2461235.7352546295
  9
$TDUCREATE
 40
2458532.153996898
  9
$TDUPDATE
 40
2461235.7352546295
  9
$TDUUPDATE
 40
2458532.1544311
  9
$TDINDWG
 40
0.0
  9
$TDUSRTIMER
 40
0.0
  9
$USRTIMER
 70
1
  9
$ANGBASE
 50
0.0
  9
$ANGDIR
 70
0
  9
$PDMODE
 70
0
  9
$PDSIZE
 40
0.0
  9
$PLINEWID
 40
0.0
  9
$SPLFRAME
 70
0
  9
$SPLINETYPE
 70
6
  9
$SPLINESEGS
 70
8
  9
$HANDSEED
  5
181
  9
$SURFTAB1
 70
6
  9
$SURFTAB2
 70
6
  9
$SURFTYPE
 70
6
  9
$SURFU
 70
6
  9
$SURFV
 70
6
  9
$UCSBASE
  2

  9
$UCSNAME
  2

  9
$UCSORG
 10
0.0
 20
0.0
 30
0.0
  9
$UCSXDIR
 10
1.0
 20
0.0
 30
0.0
  9
$UCSYDIR
 10
0.0
 20
1.0
 30
0.0
  9
$UCSORTHOREF
  2

  9
$UCSORTHOVIEW
 70
0
  9
$UCSORGTOP
 10
0.0
 20
0.0
 30
0.0
  9
$UCSORGBOTTOM
 10
0.0
 20
0.0
 30
0.0
  9
$UCSORGLEFT
 10
0.0
 20
0.0
 30
0.0
  9
$UCSORGRIGHT
 10
0.0
 20
0.0
 30
0.0
  9
$UCSORGFRONT
 10
0.0
 20
0.0
 30
0.0
  9
$UCSORGBACK
 10
0.0
 20
0.0
 30
0.0
  9
$PUCSBASE
  2

  9
$PUCSNAME
  2

  9
$PUCSORG
 10
0.0
 20
0.0
 30
0.0
  9
$PUCSXDIR
 10
1.0
 20
0.0
 30
0.0
  9
$PUCSYDIR
 10
0.0
 20
1.0
 30
0.0
  9
$PUCSORTHOREF
  2

  9
$PUCSORTHOVIEW
 70
0
  9
$PUCSORGTOP
 10
0.0
 20
0.0
 30
0.0
  9
$PUCSORGBOTTOM
 10
0.0
 20
0.0
 30
0.0
  9
$PUCSORGLEFT
 10
0.0
 20
0.0
 30
0.0
  9
$PUCSORGRIGHT
 10
0.0
 20
0.0
 30
0.0
  9
$PUCSORGFRONT
 10
0.0
 20
0.0
 30
0.0
  9
$PUCSORGBACK
 10
0.0
 20
0.0
 30
0.0
  9
$USERI1
 70
0
  9
$USERI2
 70
0
  9
$USERI3
 70
0
  9
$USERI4
 70
0
  9
$USERI5
 70
0
  9
$USERR1
 40
0.0
  9
$USERR2
 40
0.0
  9
$USERR3
 40
0.0
  9
$USERR4
 40
0.0
  9
$USERR5
 40
0.0
  9
$WORLDVIEW
 70
1
  9
$SHADEDGE
 70
3
  9
$SHADEDIF
 70
70
  9
$TILEMODE
 70
1
  9
$MAXACTVP
 70
64
  9
$PINSBASE
 10
0.0
 20
0.0
 30
0.0
  9
$PLIMCHECK
 70
0
  9
$PEXTMIN
 10
1e+20
 20
1e+20
 30
1e+20
  9
$PEXTMAX
 10
-1e+20
 20
-1e+20
 30
-1e+20
  9
$PLIMMIN
 10
0.0
 20
0.0
  9
$PLIMMAX
 10
420.0
 20
297.0
  9
$UNITMODE
 70
0
  9
$VISRETAIN
 70
1
  9
$PLINEGEN
 70
0
  9
$PSLTSCALE
 70
1
  9
$TREEDEPTH
 70
3020
  9
$CMLSTYLE
  2
Standard
  9
$CMLJUST
 70
0
  9
$CMLSCALE
 40
20.0
  9
$PROXYGRAPHICS
 70
1
  9
$MEASUREMENT
 70
1
  9
$CELWEIGHT
370
-1
  9
$ENDCAPS
280
0
  9
$JOINSTYLE
280
0
  9
$LWDISPLAY
290
0
  9
$INSUNITS
 70
5
  9
$HYPERLINKBASE
  1

  9
$STYLESHEET
  1

  9
$XEDIT
290
1
  9
$CEPSNTYPE
380
0
  9
$PSTYLEMODE
290
1
  9
$FINGERPRINTGUID
  2
{D2BBF8CE-6644-42A8-A81E-DB6CEFE8128A}
  9
$VERSIONGUID
  2
{04E64E8E-0CB4-4A14-83BC-190084009146}
  9
$EXTNAMES
290
1
  9
$PSVPSCALE
 40
0.0
  9
$OLESTARTUP
290
0
  9
$SORTENTS
280
127
  9
$INDEXCTL
280
0
  9
$HIDETEXT
280
1
  9
$XCLIPFRAME
280
1
  9
$HALOGAP
280
0
  9
$OBSCOLOR
 70
257
  9
$OBSLTYPE
280
0
  9
$INTERSECTIONDISPLAY
280
0
  9
$INTERSECTIONCOLOR
 70
257
  9
$DIMASSOC
280
2
  9
$PROJECTNAME
  1

  9
$CAMERADISPLAY
290
0
  9
$LENSLENGTH
 40
50.0
  9
$CAMERAHEIGHT
 40
0.0
  9
$STEPSPERSEC
 40
24.0
  9
$STEPSIZE
 40
100.0
  9
$3DDWFPREC
 40
2.0
  9
$PSOLWIDTH
 40
0.005
  9
$PSOLHEIGHT
 40
0.08
  9
$LOFTANG1
 40
1.570796326795
  9
$LOFTANG2
 40
1.570796326795
  9
$LOFTMAG1
 40
0.0
  9
$LOFTMAG2
 40
0.0
  9
$LOFTPARAM
 70
7
  9
$LOFTNORMALS
280
1
  9
$LATITUDE
 40
37.795
  9
$LONGITUDE
 40
-122.394
  9
$NORTHDIRECTION
 40
0.0
  9
$TIMEZONE
 70
-8000
  9
$LIGHTGLYPHDISPLAY
280
1
  9
$TILEMODELIGHTSYNCH
280
1
  9
$CMATERIAL
347
20
  9
$SOLIDHIST
280
0
  9
$SHOWHIST
280
1
  9
$DWFFRAME
280
2
  9
$DGNFRAME
280
2
  9
$REALWORLDSCALE
290
1
  9
$INTERFERECOLOR
 62
256
  9
$CSHADOW
280
0
  9
$SHADOWPLANELOCATION
 40
0.0
  0
ENDSEC
  0
SECTION
  2
CLASSES
  0
CLASS
  1
ACDBDICTIONARYWDFLT
  2
AcDbDictionaryWithDefault
  3
ObjectDBX Classes
 90
0
 91
0
280
0
281
0
  0
CLASS
  1
SUN
  2
AcDbSun
  3
SCENEOE
 90
1153
 91
0
280
0
281
0
  0
CLASS
  1
VISUALSTYLE
  2
AcDbVisualStyle
  3
ObjectDBX Classes
 90
4095
 91
0
280
0
281
0
  0
CLASS
  1
MATERIAL
  2
AcDbMaterial
  3
ObjectDBX Classes
 90
1153
 91
0
280
0
281
0
  0
CLASS
  1
SCALE
  2
AcDbScale
  3
ObjectDBX Classes
 90
1153
 91
0
280
0
281
0
  0
CLASS
  1
TABLESTYLE
  2
AcDbTableStyle
  3
ObjectDBX Classes
 90
4095
 91
0
280
0
281
0
  0
CLASS
  1
MLEADERSTYLE
  2
AcDbMLeaderStyle
  3
ACDB_MLEADERSTYLE_CLASS
 90
4095
 91
0
280
0
281
0
  0
CLASS
  1
DICTIONARYVAR
  2
AcDbDictionaryVar
  3
ObjectDBX Classes
 90
0
 91
0
280
0
281
0
  0
CLASS
  1
CELLSTYLEMAP
  2
AcDbCellStyleMap
  3
ObjectDBX Classes
 90
1152
 91
0
280
0
281
0
  0
CLASS
  1
MENTALRAYRENDERSETTINGS
  2
AcDbMentalRayRenderSettings
  3
SCENEOE
 90
1024
 91
0
280
0
281
0
  0
CLASS
  1
ACDBDETAILVIEWSTYLE
  2
AcDbDetailViewStyle
  3
ObjectDBX Classes
 90
1025
 91
0
280
0
281
0
  0
CLASS
  1
ACDBSECTIONVIEWSTYLE
  2
AcDbSectionViewStyle
  3
ObjectDBX Classes
 90
1025
 91
0
280
0
281
0
  0
CLASS
  1
RASTERVARIABLES
  2
AcDbRasterVariables
  3
ISM
 90
0
 91
0
280
0
281
0
  0
CLASS
  1
LAYOUT
  2
AcDbLayout
  3
ObjectDBX Classes
 90
0
 91
0
280
0
281
0
  0
CLASS
  1
ACDBPLACEHOLDER
  2
AcDbPlaceHolder
  3
ObjectDBX Classes
 90
0
 91
0
280
0
281
0
  0
ENDSEC
  0
SECTION
  2
TABLES
  0
TABLE
  2
VPORT
  5
8
330
0
100
AcDbSymbolTable
 70
1
  0
VPORT
  5
23
330
8
100
AcDbSymbolTableRecord
100
AcDbViewportTableRecord
  2
*Active
 70
0
 10
0.0
 20
0.0
 11
1.0
 21
1.0
 12
0.0
 22
0.0
 13
0.0
 23
0.0
 14
0.5
 24
0.5
 15
0.5
 25
0.5
 16
0.0
 26
0.0
 36
1.0
 17
0.0
 27
0.0
 37
0.0
 40
1000.0
 41
1.34
 42
50.0
 43
0.0
 44
0.0
 50
0.0
 51
0.0
 71
0
 72
1000
 73
1
 74
3
 75
0
 76
0
 77
0
 78
0
281
0
 65
0
146
0.0
  0
ENDTAB
  0
TABLE
  2
LTYPE
  5
2
330
0
100
AcDbSymbolTable
 70
3
  0
LTYPE
  5
24
330
2
100
AcDbSymbolTableRecord
100
AcDbLinetypeTableRecord
  2
ByBlock
 70
0
  3

 72
65
 73
0
 40
0.0
  0
LTYPE
  5
25
330
2
100
AcDbSymbolTableRecord
100
AcDbLinetypeTableRecord
  2
ByLayer
 70
0
  3

 72
65
 73
0
 40
0.0
  0
LTYPE
  5
26
330
2
100
AcDbSymbolTableRecord
100
AcDbLinetypeTableRecord
  2
Continuous
 70
0
  3

 72
65
 73
0
 40
0.0
  0
ENDTAB
  0
TABLE
  2
LAYER
  5
1
330
0
100
AcDbSymbolTable
 70
5
  0
LAYER
  5
27
330
1
100
AcDbSymbolTableRecord
100
AcDbLayerTableRecord
  2
0
 70
0
 62
7
  6
Continuous
370
-3
390
13
347
21
  0
LAYER
  5
28
330
1
100
AcDbSymbolTableRecord
100
AcDbLayerTableRecord
  2
Defpoints
 70
0
 62
7
  6
Continuous
290
0
370
-3
390
13
347
21
  0
LAYER
  5
2F
330
1
100
AcDbSymbolTableRecord
100
AcDbLayerTableRecord
  2
WALL
 70
0
 62
7
  6
Continuous
370
-3
390
13
347
21
  0
LAYER
  5
30
330
1
100
AcDbSymbolTableRecord
100
AcDbLayerTableRecord
  2
WINDOW
 70
0
 62
5
  6
Continuous
370
-3
390
13
347
21
  0
LAYER
  5
17B
330
1
100
AcDbSymbolTableRecord
100
AcDbLayerTableRecord
  2
DOORZONE
 70
0
 62
2
  6
Continuous
370
-3
390
13
347
21
  0
ENDTAB
  0
TABLE
  2
STYLE
  5
5
330
0
100
AcDbSymbolTable
 70
1
  0
STYLE
  5
29
330
5
100
AcDbSymbolTableRecord
100
AcDbTextStyleTableRecord
  2
Standard
 70
0
 40
0.0
 41
1.0
 50
0.0
 71
0
 42
2.5
  3
txt
  4

  0
ENDTAB
  0
TABLE
  2
VIEW
  5
7
330
0
100
AcDbSymbolTable
 70
0
  0
ENDTAB
  0
TABLE
  2
UCS
  5
6
330
0
100
AcDbSymbolTable
 70
0
  0
ENDTAB
  0
TABLE
  2
APPID
  5
3
330
0
100
AcDbSymbolTable
 70
3
  0
APPID
  5
2A
330
3
100
AcDbSymbolTableRecord
100
AcDbRegAppTableRecord
  2
ACAD
 70
0
  0
APPID
  5
17E
330
3
100
AcDbSymbolTableRecord
100
AcDbRegAppTableRecord
  2
HATCHBACKGROUNDCOLOR
 70
0
  0
APPID
  5
17F
330
3
100
AcDbSymbolTableRecord
100
AcDbRegAppTableRecord
  2
EZDXF
 70
0
  0
ENDTAB
  0
TABLE
  2
DIMSTYLE
  5
4
330
0
100
AcDbSymbolTable
 70
1
100
AcDbDimStyleTable
  0
DIMSTYLE
105
2B
330
4
100
AcDbSymbolTableRecord
100
AcDbDimStyleTableRecord
  2
Standard
 70
0
 40
1.0
 41
2.5
 42
0.625
 43
3.75
 44
1.25
 45
0.0
 46
0.0
 47
0.0
 48
0.0
 49
2.5
140
2.5
141
2.5
142
0.0
143
0.03937007874
144
1.0
145
0.0
146
1.0
147
0.625
148
0.0
 69
0
 70
0
 71
0
 72
0
 73
0
 74
0
 75
0
 76
0
 77
1
 78
8
 79
3
170
0
171
3
172
1
173
0
174
0
175
0
176
0
177
0
178
0
179
2
271
2
272
2
273
2
274
3
275
0
276
0
277
2
278
44
279
0
280
0
281
0
282
0
283
0
284
8
285
0
286
0
288
0
289
3
290
0
371
-2
372
-2
  0
ENDTAB
  0
TABLE
  2
BLOCK_RECORD
  5
9
330
0
100
AcDbSymbolTable
 70
2
  0
BLOCK_RECORD
  5
17
330
9
100
AcDbSymbolTableRecord
100
AcDbBlockTableRecord
  2
*Model_Space
340
1A
 70
0
280
1
281
0
  0
BLOCK_RECORD
  5
1B
330
9
100
AcDbSymbolTableRecord
100
AcDbBlockTableRecord
  2
*Paper_Space
340
1E
 70
0
280
1
281
0
  0
ENDTAB
  0
ENDSEC
  0
SECTION
  2
BLOCKS
  0
BLOCK
  5
18
330
17
100
AcDbEntity
  8
0
100
AcDbBlockBegin
  2
*Model_Space
 70
0
 10
0.0
 20
0.0
 30
0.0
  3
*Model_Space
  1

  0
ENDBLK
  5
19
330
17
100
AcDbEntity
  8
0
100
AcDbBlockEnd
  0
BLOCK
  5
1C
330
1B
100
AcDbEntity
  8
0
100
AcDbBlockBegin
  2
*Paper_Space
 70
0
 10
0.0
 20
0.0
 30
0.0
  3
*Paper_Space
  1

  0
ENDBLK
  5
1D
330
1B
100
AcDbEntity
  8
0
100
AcDbBlockEnd
  0
ENDSEC
  0
SECTION
  2
ENTITIES
  0
LWPOLYLINE
  5
31
330
17
100
AcDbEntity
  8
WALL
100
AcDbPolyline
 90
4
 70
1
 10
491.81818181818187
 20
969.0909090909091
 10
518.1818181818182
 20
969.0909090909091
 10
518.1818181818182
 20
960.909090909091
 10
491.81818181818187
 20
960.909090909091
  0
HATCH
  5
32
330
17
100
AcDbEntity
  8
WALL
100
AcDbHatch
 10
0.0
 20
0.0
 30
0.0
210
0.0
220
0.0
230
1.0
  2
SOLID
 70
1
 71
0
 91
1
 92
3
 72
0
 73
1
 93
4
 10
491.81818181818187
 20
969.0909090909091
 10
518.1818181818182
 20
969.0909090909091
 10
518.1818181818182
 20
960.909090909091
 10
491.81818181818187
 20
960.909090909091
 97
0
 75
1
 76
1
 98
0
  0
LWPOLYLINE
  5
33
330
17
100
AcDbEntity
  8
WALL
100
AcDbPolyline
 90
4
 70
1
 10
493.6363636363637
 20
960.0000000000001
 10
518.1818181818182
 20
960.0000000000001
 10
518.1818181818182
 20
959.0909090909091
 10
493.6363636363637
 20
959.0909090909091
  0
HATCH
  5
34
330
17
100
AcDbEntity
  8
WALL
100
AcDbHatch
 10
0.0
 20
0.0
 30
0.0
210
0.0
220
0.0
230
1.0
  2
SOLID
 70
1
 71
0
 91
1
 92
3
 72
0
 73
1
 93
4
 10
493.6363636363637
 20
960.0000000000001
 10
518.1818181818182
 20
960.0000000000001
 10
518.1818181818182
 20
959.0909090909091
 10
493.6363636363637
 20
959.0909090909091
 97
0
 75
1
 76
1
 98
0
  0
LWPOLYLINE
  5
35
330
17
100
AcDbEntity
  8
WALL
100
AcDbPolyline
 90
4
 70
1
 10
1033.6363636363637
 20
933.6363636363637
 10
1055.4545454545455
 20
933.6363636363637
 10
1055.4545454545455
 20
932.7272727272729
 10
1033.6363636363637
 20
932.7272727272729
  0
HATCH
  5
36
330
17
100
AcDbEntity
  8
WALL
100
AcDbHatch
 10
0.0
 20
0.0
 30
0.0
210
0.0
220
0.0
230
1.0
  2
SOLID
 70
1
 71
0
 91
1
 92
3
 72
0
 73
1
 93
4
 10
1033.6363636363637
 20
933.6363636363637
 10
1055.4545454545455
 20
933.6363636363637
 10
1055.4545454545455
 20
932.7272727272729
 10
1033.6363636363637
 20
932.7272727272729
 97
0
 75
1
 76
1
 98
0
  0
LWPOLYLINE
  5
37
330
17
100
AcDbEntity
  8
WALL
100
AcDbPolyline
 90
4
 70
1
 10
1026.3636363636365
 20
928.1818181818182
 10
1048.1818181818182
 20
928.1818181818182
 10
1048.1818181818182
 20
927.2727272727274
 10
1026.3636363636365
 20
927.2727272727274
  0
HATCH
  5
38
330
17
100
AcDbEntity
  8
WALL
100
AcDbHatch
 10
0.0
 20
0.0
 30
0.0
210
0.0
220
0.0
230
1.0
  2
SOLID
 70
1
 71
0
 91
1
 92
3
 72
0
 73
1
 93
4
 10
1026.3636363636365
 20
928.1818181818182
 10
1048.1818181818182
 20
928.1818181818182
 10
1048.1818181818182
 20
927.2727272727274
 10
1026.3636363636365
 20
927.2727272727274
 97
0
 75
1
 76
1
 98
0
  0
LWPOLYLINE
  5
39
330
17
100
AcDbEntity
  8
WALL
100
AcDbPolyline
 90
4
 70
1
 10
293.6363636363637
 20
911.8181818181819
 10
495.4545454545455
 20
911.8181818181819
 10
495.4545454545455
 20
893.6363636363637
 10
293.6363636363637
 20
893.6363636363637
  0
HATCH
  5
3A
330
17
100
AcDbEntity
  8
WALL
100
AcDbHatch
 10
0.0
 20
0.0
 30
0.0
210
0.0
220
0.0
230
1.0
  2
SOLID
 70
1
 71
0
 91
1
 92
3
 72
0
 73
1
 93
4
 10
293.6363636363637
 20
911.8181818181819
 10
495.4545454545455
 20
911.8181818181819
 10
495.4545454545455
 20
893.6363636363637
 10
293.6363636363637
 20
893.6363636363637
 97
0
 75
1
 76
1
 98
0
  0
LWPOLYLINE
  5
3B
330
17
100
AcDbEntity
  8
WALL
100
AcDbPolyline
 90
4
 70
1
 10
563.6363636363637
 20
911.8181818181819
 10
610.0
 20
911.8181818181819
 10
610.0
 20
893.6363636363637
 10
563.6363636363637
 20
893.6363636363637
  0
HATCH
  5
3C
330
17
100
AcDbEntity
  8
WALL
100
AcDbHatch
 10
0.0
 20
0.0
 30
0.0
210
0.0
220
0.0
230
1.0
  2
SOLID
 70
1
 71
0
 91
1
 92
3
 72
0
 73
1
 93
4
 10
563.6363636363637
 20
911.8181818181819
 10
610.0
 20
911.8181818181819
 10
610.0
 20
893.6363636363637
 10
563.6363636363637
 20
893.6363636363637
 97
0
 75
1
 76
1
 98
0
  0
LWPOLYLINE
  5
3D
330
17
100
AcDbEntity
  8
WALL
100
AcDbPolyline
 90
4
 70
1
 10
733.6363636363637
 20
911.8181818181819
 10
887.2727272727274
 20
911.8181818181819
 10
887.2727272727274
 20
893.6363636363637
 10
733.6363636363637
 20
893.6363636363637
  0
HATCH
  5
3E
330
17
100
AcDbEntity
  8
WALL
100
AcDbHatch
 10
0.0
 20
0.0
 30
0.0
210
0.0
220
0.0
230
1.0
  2
SOLID
 70
1
 71
0
 91
1
 92
3
 72
0
 73
1
 93
4
 10
733.6363636363637
 20
911.8181818181819
 10
887.2727272727274
 20
911.8181818181819
 10
887.2727272727274
 20
893.6363636363637
 10
733.6363636363637
 20
893.6363636363637
 97
0
 75
1
 76
1
 98
0
  0
LWPOLYLINE
  5
3F
330
17
100
AcDbEntity
  8
WALL
100
AcDbPolyline
 90
4
 70
1
 10
629.0909090909091
 20
891.8181818181819
 10
704.5454545454546
 20
891.8181818181819
 10
704.5454545454546
 20
886.3636363636365
 10
629.0909090909091
 20
886.3636363636365
  0
HATCH
  5
40
330
17
100
AcDbEntity
  8
WALL
100
AcDbHatch
 10
0.0
 20
0.0
 30
0.0
210
0.0
220
0.0
230
1.0
  2
SOLID
 70
1
 71
0
 91
1
 92
3
 72
0
 73
1
 93
4
 10
629.0909090909091
 20
891.8181818181819
 10
704.5454545454546
 20
891.8181818181819
 10
704.5454545454546
 20
886.3636363636365
 10
629.0909090909091
 20
886.3636363636365
 97
0
 75
1
 76
1
 98
0
  0
LWPOLYLINE
  5
41
330
17
100
AcDbEntity
  8
WALL
100
AcDbPolyline
 90
4
 70
1
 10
456.36363636363643
 20
886.3636363636365
 10
510.90909090909093
 20
886.3636363636365
 10
510.90909090909093
 20
880.909090909091
 10
456.36363636363643
 20
880.909090909091
  0
HATCH
  5
42
330
17
100
AcDbEntity
  8
WALL
100
AcDbHatch
 10
0.0
 20
0.0
 30
0.0
210
0.0
220
0.0
230
1.0
  2
SOLID
 70
1
 71
0
 91
1
 92
3
 72
0
 73
1
 93
4
 10
456.36363636363643
 20
886.3636363636365
 10
510.90909090909093
 20
886.3636363636365
 10
510.90909090909093
 20
880.909090909091
 10
456.36363636363643
 20
880.909090909091
 97
0
 75
1
 76
1
 98
0
  0
LWPOLYLINE
  5
43
330
17
100
AcDbEntity
  8
WALL
100
AcDbPolyline
 90
4
 70
1
 10
676.3636363636364
 20
873.6363636363637
 10
720.0000000000001
 20
873.6363636363637
 10
720.0000000000001
 20
866.3636363636365
 10
676.3636363636364
 20
866.3636363636365
  0
HATCH
  5
44
330
17
100
AcDbEntity
  8
WALL
100
AcDbHatch
 10
0.0
 20
0.0
 30
0.0
210
0.0
220
0.0
230
1.0
  2
SOLID
 70
1
 71
0
 91
1
 92
3
 72
0
 73
1
 93
4
 10
676.3636363636364
 20
873.6363636363637
 10
720.0000000000001
 20
873.6363636363637
 10
720.0000000000001
 20
866.3636363636365
 10
676.3636363636364
 20
866.3636363636365
 97
0
 75
1
 76
1
 98
0
  0
LWPOLYLINE
  5
45
330
17
100
AcDbEntity
  8
WALL
100
AcDbPolyline
 90
4
 70
1
 10
201.81818181818184
 20
844.5454545454546
 10
258.1818181818182
 20
844.5454545454546
 10
258.1818181818182
 20
834.5454545454546
 10
201.81818181818184
 20
834.5454545454546
  0
HATCH
  5
46
330
17
100
AcDbEntity
  8
WALL
100
AcDbHatch
 10
0.0
 20
0.0
 30
0.0
210
0.0
220
0.0
230
1.0
  2
SOLID
 70
1
 71
0
 91
1
 92
3
 72
0
 73
1
 93
4
 10
201.81818181818184
 20
844.5454545454546
 10
258.1818181818182
 20
844.5454545454546
 10
258.1818181818182
 20
834.5454545454546
 10
201.81818181818184
 20
834.5454545454546
 97
0
 75
1
 76
1
 98
0
  0
LWPOLYLINE
  5
47
330
17
100
AcDbEntity
  8
WALL
100
AcDbPolyline
 90
4
 70
1
 10
506.36363636363643
 20
839.0909090909091
 10
545.4545454545455
 20
839.0909090909091
 10
545.4545454545455
 20
828.1818181818182
 10
506.36363636363643
 20
828.1818181818182
  0
HATCH
  5
48
330
17
100
AcDbEntity
  8
WALL
100
AcDbHatch
 10
0.0
 20
0.0
 30
0.0
210
0.0
220
0.0
230
1.0
  2
SOLID
 70
1
 71
0
 91
1
 92
3
 72
0
 73
1
 93
4
 10
506.36363636363643
 20
839.0909090909091
 10
545.4545454545455
 20
839.0909090909091
 10
545.4545454545455
 20
828.1818181818182
 10
506.36363636363643
 20
828.1818181818182
 97
0
 75
1
 76
1
 98
0
  0
LWPOLYLINE
  5
49
330
17
100
AcDbEntity
  8
WALL
100
AcDbPolyline
 90
4
 70
1
 10
621.8181818181819
 20
839.0909090909091
 10
658.1818181818182
 20
839.0909090909091
 10
658.1818181818182
 20
830.0000000000001
 10
621.8181818181819
 20
830.0000000000001
  0
HATCH
  5
4A
330
17
100
AcDbEntity
  8
WALL
100
AcDbHatch
 10
0.0
 20
0.0
 30
0.0
210
0.0
220
0.0
230
1.0
  2
SOLID
 70
1
 71
0
 91
1
 92
3
 72
0
 73
1
 93
4
 10
621.8181818181819
 20
839.0909090909091
 10
658.1818181818182
 20
839.0909090909091
 10
658.1818181818182
 20
830.0000000000001
 10
621.8181818181819
 20
830.0000000000001
 97
0
 75
1
 76
1
 98
0
  0
LWPOLYLINE
  5
4B
330
17
100
AcDbEntity
  8
WALL
100
AcDbPolyline
 90
4
 70
1
 10
430.90909090909093
 20
837.2727272727274
 10
485.4545454545455
 20
837.2727272727274
 10
485.4545454545455
 20
824.5454545454546
 10
430.90909090909093
 20
824.5454545454546
  0
HATCH
  5
4C
330
17
100
AcDbEntity
  8
WALL
100
AcDbHatch
 10
0.0
 20
0.0
 30
0.0
210
0.0
220
0.0
230
1.0
  2
SOLID
 70
1
 71
0
 91
1
 92
3
 72
0
 73
1
 93
4
 10
430.90909090909093
 20
837.2727272727274
 10
485.4545454545455
 20
837.2727272727274
 10
485.4545454545455
 20
824.5454545454546
 10
430.90909090909093
 20
824.5454545454546
 97
0
 75
1
 76
1
 98
0
  0
LWPOLYLINE
  5
4D
330
17
100
AcDbEntity
  8
WALL
100
AcDbPolyline
 90
4
 70
1
 10
425.4545454545455
 20
810.909090909091
 10
454.54545454545456
 20
810.909090909091
 10
454.54545454545456
 20
802.7272727272727
 10
425.4545454545455
 20
802.7272727272727
  0
HATCH
  5
4E
330
17
100
AcDbEntity
  8
WALL
100
AcDbHatch
 10
0.0
 20
0.0
 30
0.0
210
0.0
220
0.0
230
1.0
  2
SOLID
 70
1
 71
0
 91
1
 92
3
 72
0
 73
1
 93
4
 10
425.4545454545455
 20
810.909090909091
 10
454.54545454545456
 20
810.909090909091
 10
454.54545454545456
 20
802.7272727272727
 10
425.4545454545455
 20
802.7272727272727
 97
0
 75
1
 76
1
 98
0
  0
LWPOLYLINE
  5
4F
330
17
100
AcDbEntity
  8
WALL
100
AcDbPolyline
 90
4
 70
1
 10
457.2727272727273
 20
795.4545454545455
 10
518.1818181818182
 20
795.4545454545455
 10
518.1818181818182
 20
782.7272727272727
 10
457.2727272727273
 20
782.7272727272727
  0
HATCH
  5
50
330
17
100
AcDbEntity
  8
WALL
100
AcDbHatch
 10
0.0
 20
0.0
 30
0.0
210
0.0
220
0.0
230
1.0
  2
SOLID
 70
1
 71
0
 91
1
 92
3
 72
0
 73
1
 93
4
 10
457.2727272727273
 20
795.4545454545455
 10
518.1818181818182
 20
795.4545454545455
 10
518.1818181818182
 20
782.7272727272727
 10
457.2727272727273
 20
782.7272727272727
 97
0
 75
1
 76
1
 98
0
  0
LWPOLYLINE
  5
51
330
17
100
AcDbEntity
  8
WALL
100
AcDbPolyline
 90
4
 70
1
 10
427.2727272727273
 20
790.0000000000001
 10
450.90909090909093
 20
790.0000000000001
 10
450.90909090909093
 20
786.3636363636365
 10
427.2727272727273
 20
786.3636363636365
  0
HATCH
  5
52
330
17
100
AcDbEntity
  8
WALL
100
AcDbHatch
 10
0.0
 20
0.0
 30
0.0
210
0.0
220
0.0
230
1.0
  2
SOLID
 70
1
 71
0
 91
1
 92
3
 72
0
 73
1
 93
4
 10
427.2727272727273
 20
790.0000000000001
 10
450.90909090909093
 20
790.0000000000001
 10
450.90909090909093
 20
786.3636363636365
 10
427.2727272727273
 20
786.3636363636365
 97
0
 75
1
 76
1
 98
0
  0
LWPOLYLINE
  5
53
330
17
100
AcDbEntity
  8
WALL
100
AcDbPolyline
 90
4
 70
1
 10
640.909090909091
 20
790.909090909091
 10
676.3636363636364
 20
790.909090909091
 10
676.3636363636364
 20
786.3636363636365
 10
640.909090909091
 20
786.3636363636365
  0
HATCH
  5
54
330
17
100
AcDbEntity
  8
WALL
100
AcDbHatch
 10
0.0
 20
0.0
 30
0.0
210
0.0
220
0.0
230
1.0
  2
SOLID
 70
1
 71
0
 91
1
 92
3
 72
0
 73
1
 93
4
 10
640.909090909091
 20
790.909090909091
 10
676.3636363636364
 20
790.909090909091
 10
676.3636363636364
 20
786.3636363636365
 10
640.909090909091
 20
786.3636363636365
 97
0
 75
1
 76
1
 98
0
  0
LWPOLYLINE
  5
55
330
17
100
AcDbEntity
  8
WALL
100
AcDbPolyline
 90
4
 70
1
 10
793.6363636363637
 20
691.8181818181819
 10
861.8181818181819
 20
691.8181818181819
 10
861.8181818181819
 20
685.4545454545455
 10
793.6363636363637
 20
685.4545454545455
  0
HATCH
  5
56
330
17
100
AcDbEntity
  8
WALL
100
AcDbHatch
 10
0.0
 20
0.0
 30
0.0
210
0.0
220
0.0
230
1.0
  2
SOLID
 70
1
 71
0
 91
1
 92
3
 72
0
 73
1
 93
4
 10
793.6363636363637
 20
691.8181818181819
 10
861.8181818181819
 20
691.8181818181819
 10
861.8181818181819
 20
685.4545454545455
 10
793.6363636363637
 20
685.4545454545455
 97
0
 75
1
 76
1
 98
0
  0
LWPOLYLINE
  5
57
330
17
100
AcDbEntity
  8
WALL
100
AcDbPolyline
 90
4
 70
1
 10
877.2727272727274
 20
602.7272727272727
 10
920.0000000000001
 20
602.7272727272727
 10
920.0000000000001
 20
597.2727272727274
 10
877.2727272727274
 20
597.2727272727274
  0
HATCH
  5
58
330
17
100
AcDbEntity
  8
WALL
100
AcDbHatch
 10
0.0
 20
0.0
 30
0.0
210
0.0
220
0.0
230
1.0
  2
SOLID
 70
1
 71
0
 91
1
 92
3
 72
0
 73
1
 93
4
 10
877.2727272727274
 20
602.7272727272727
 10
920.0000000000001
 20
602.7272727272727
 10
920.0000000000001
 20
597.2727272727274
 10
877.2727272727274
 20
597.2727272727274
 97
0
 75
1
 76
1
 98
0
  0
LWPOLYLINE
  5
59
330
17
100
AcDbEntity
  8
WALL
100
AcDbPolyline
 90
4
 70
1
 10
922.7272727272729
 20
602.7272727272727
 10
947.2727272727274
 20
602.7272727272727
 10
947.2727272727274
 20
597.2727272727274
 10
922.7272727272729
 20
597.2727272727274
  0
HATCH
  5
5A
330
17
100
AcDbEntity
  8
WALL
100
AcDbHatch
 10
0.0
 20
0.0
 30
0.0
210
0.0
220
0.0
230
1.0
  2
SOLID
 70
1
 71
0
 91
1
 92
3
 72
0
 73
1
 93
4
 10
922.7272727272729
 20
602.7272727272727
 10
947.2727272727274
 20
602.7272727272727
 10
947.2727272727274
 20
597.2727272727274
 10
922.7272727272729
 20
597.2727272727274
 97
0
 75
1
 76
1
 98
0
  0
LWPOLYLINE
  5
5B
330
17
100
AcDbEntity
  8
WALL
100
AcDbPolyline
 90
4
 70
1
 10
697.2727272727274
 20
580.909090909091
 10
729.0909090909091
 20
580.909090909091
 10
729.0909090909091
 20
575.4545454545455
 10
697.2727272727274
 20
575.4545454545455
  0
HATCH
  5
5C
330
17
100
AcDbEntity
  8
WALL
100
AcDbHatch
 10
0.0
 20
0.0
 30
0.0
210
0.0
220
0.0
230
1.0
  2
SOLID
 70
1
 71
0
 91
1
 92
3
 72
0
 73
1
 93
4
 10
697.2727272727274
 20
580.909090909091
 10
729.0909090909091
 20
580.909090909091
 10
729.0909090909091
 20
575.4545454545455
 10
697.2727272727274
 20
575.4545454545455
 97
0
 75
1
 76
1
 98
0
  0
LWPOLYLINE
  5
5D
330
17
100
AcDbEntity
  8
WALL
100
AcDbPolyline
 90
4
 70
1
 10
742.7272727272727
 20
570.0
 10
787.2727272727274
 20
570.0
 10
787.2727272727274
 20
562.7272727272727
 10
742.7272727272727
 20
562.7272727272727
  0
HATCH
  5
5E
330
17
100
AcDbEntity
  8
WALL
100
AcDbHatch
 10
0.0
 20
0.0
 30
0.0
210
0.0
220
0.0
230
1.0
  2
SOLID
 70
1
 71
0
 91
1
 92
3
 72
0
 73
1
 93
4
 10
742.7272727272727
 20
570.0
 10
787.2727272727274
 20
570.0
 10
787.2727272727274
 20
562.7272727272727
 10
742.7272727272727
 20
562.7272727272727
 97
0
 75
1
 76
1
 98
0
  0
LWPOLYLINE
  5
5F
330
17
100
AcDbEntity
  8
WALL
100
AcDbPolyline
 90
4
 70
1
 10
34.54545454545455
 20
568.1818181818182
 10
100.00000000000001
 20
568.1818181818182
 10
100.00000000000001
 20
553.6363636363637
 10
34.54545454545455
 20
553.6363636363637
  0
HATCH
  5
60
330
17
100
AcDbEntity
  8
WALL
100
AcDbHatch
 10
0.0
 20
0.0
 30
0.0
210
0.0
220
0.0
230
1.0
  2
SOLID
 70
1
 71
0
 91
1
 92
3
 72
0
 73
1
 93
4
 10
34.54545454545455
 20
568.1818181818182
 10
100.00000000000001
 20
568.1818181818182
 10
100.00000000000001
 20
553.6363636363637
 10
34.54545454545455
 20
553.6363636363637
 97
0
 75
1
 76
1
 98
0
  0
LWPOLYLINE
  5
61
330
17
100
AcDbEntity
  8
WALL
100
AcDbPolyline
 90
4
 70
1
 10
305.4545454545455
 20
562.7272727272727
 10
403.6363636363637
 20
562.7272727272727
 10
403.6363636363637
 20
553.6363636363637
 10
305.4545454545455
 20
553.6363636363637
  0
HATCH
  5
62
330
17
100
AcDbEntity
  8
WALL
100
AcDbHatch
 10
0.0
 20
0.0
 30
0.0
210
0.0
220
0.0
230
1.0
  2
SOLID
 70
1
 71
0
 91
1
 92
3
 72
0
 73
1
 93
4
 10
305.4545454545455
 20
562.7272727272727
 10
403.6363636363637
 20
562.7272727272727
 10
403.6363636363637
 20
553.6363636363637
 10
305.4545454545455
 20
553.6363636363637
 97
0
 75
1
 76
1
 98
0
  0
LWPOLYLINE
  5
63
330
17
100
AcDbEntity
  8
WALL
100
AcDbPolyline
 90
4
 70
1
 10
216.36363636363637
 20
560.0
 10
270.90909090909093
 20
560.0
 10
270.90909090909093
 20
553.6363636363637
 10
216.36363636363637
 20
553.6363636363637
  0
HATCH
  5
64
330
17
100
AcDbEntity
  8
WALL
100
AcDbHatch
 10
0.0
 20
0.0
 30
0.0
210
0.0
220
0.0
230
1.0
  2
SOLID
 70
1
 71
0
 91
1
 92
3
 72
0
 73
1
 93
4
 10
216.36363636363637
 20
560.0
 10
270.90909090909093
 20
560.0
 10
270.90909090909093
 20
553.6363636363637
 10
216.36363636363637
 20
553.6363636363637
 97
0
 75
1
 76
1
 98
0
  0
LWPOLYLINE
  5
65
330
17
100
AcDbEntity
  8
WALL
100
AcDbPolyline
 90
4
 70
1
 10
274.54545454545456
 20
559.0909090909091
 10
298.1818181818182
 20
559.0909090909091
 10
298.1818181818182
 20
554.5454545454546
 10
274.54545454545456
 20
554.5454545454546
  0
HATCH
  5
66
330
17
100
AcDbEntity
  8
WALL
100
AcDbHatch
 10
0.0
 20
0.0
 30
0.0
210
0.0
220
0.0
230
1.0
  2
SOLID
 70
1
 71
0
 91
1
 92
3
 72
0
 73
1
 93
4
 10
274.54545454545456
 20
559.0909090909091
 10
298.1818181818182
 20
559.0909090909091
 10
298.1818181818182
 20
554.5454545454546
 10
274.54545454545456
 20
554.5454545454546
 97
0
 75
1
 76
1
 98
0
  0
LWPOLYLINE
  5
67
330
17
100
AcDbEntity
  8
WALL
100
AcDbPolyline
 90
4
 70
1
 10
678.1818181818182
 20
559.0909090909091
 10
718.1818181818182
 20
559.0909090909091
 10
718.1818181818182
 20
553.6363636363637
 10
678.1818181818182
 20
553.6363636363637
  0
HATCH
  5
68
330
17
100
AcDbEntity
  8
WALL
100
AcDbHatch
 10
0.0
 20
0.0
 30
0.0
210
0.0
220
0.0
230
1.0
  2
SOLID
 70
1
 71
0
 91
1
 92
3
 72
0
 73
1
 93
4
 10
678.1818181818182
 20
559.0909090909091
 10
718.1818181818182
 20
559.0909090909091
 10
718.1818181818182
 20
553.6363636363637
 10
678.1818181818182
 20
553.6363636363637
 97
0
 75
1
 76
1
 98
0
  0
LWPOLYLINE
  5
69
330
17
100
AcDbEntity
  8
WALL
100
AcDbPolyline
 90
4
 70
1
 10
720.0000000000001
 20
559.0909090909091
 10
743.6363636363637
 20
559.0909090909091
 10
743.6363636363637
 20
554.5454545454546
 10
720.0000000000001
 20
554.5454545454546
  0
HATCH
  5
6A
330
17
100
AcDbEntity
  8
WALL
100
AcDbHatch
 10
0.0
 20
0.0
 30
0.0
210
0.0
220
0.0
230
1.0
  2
SOLID
 70
1
 71
0
 91
1
 92
3
 72
0
 73
1
 93
4
 10
720.0000000000001
 20
559.0909090909091
 10
743.6363636363637
 20
559.0909090909091
 10
743.6363636363637
 20
554.5454545454546
 10
720.0000000000001
 20
554.5454545454546
 97
0
 75
1
 76
1
 98
0
  0
LWPOLYLINE
  5
6B
330
17
100
AcDbEntity
  8
WALL
100
AcDbPolyline
 90
4
 70
1
 10
744.5454545454546
 20
560.0
 10
967.2727272727274
 20
560.0
 10
967.2727272727274
 20
550.0
 10
744.5454545454546
 20
550.0
  0
HATCH
  5
6C
330
17
100
AcDbEntity
  8
WALL
100
AcDbHatch
 10
0.0
 20
0.0
 30
0.0
210
0.0
220
0.0
230
1.0
  2
SOLID
 70
1
 71
0
 91
1
 92
3
 72
0
 73
1
 93
4
 10
744.5454545454546
 20
560.0
 10
967.2727272727274
 20
560.0
 10
967.2727272727274
 20
550.0
 10
744.5454545454546
 20
550.0
 97
0
 75
1
 76
1
 98
0
  0
LWPOLYLINE
  5
6D
330
17
100
AcDbEntity
  8
WALL
100
AcDbPolyline
 90
4
 70
1
 10
190.90909090909093
 20
485.4545454545455
 10
232.72727272727275
 20
485.4545454545455
 10
232.72727272727275
 20
479.0909090909091
 10
190.90909090909093
 20
479.0909090909091
  0
HATCH
  5
6E
330
17
100
AcDbEntity
  8
WALL
100
AcDbHatch
 10
0.0
 20
0.0
 30
0.0
210
0.0
220
0.0
230
1.0
  2
SOLID
 70
1
 71
0
 91
1
 92
3
 72
0
 73
1
 93
4
 10
190.90909090909093
 20
485.4545454545455
 10
232.72727272727275
 20
485.4545454545455
 10
232.72727272727275
 20
479.0909090909091
 10
190.90909090909093
 20
479.0909090909091
 97
0
 75
1
 76
1
 98
0
  0
LWPOLYLINE
  5
6F
330
17
100
AcDbEntity
  8
WALL
100
AcDbPolyline
 90
4
 70
1
 10
258.1818181818182
 20
484.54545454545456
 10
314.54545454545456
 20
484.54545454545456
 10
314.54545454545456
 20
479.0909090909091
 10
258.1818181818182
 20
479.0909090909091
  0
HATCH
  5
70
330
17
100
AcDbEntity
  8
WALL
100
AcDbHatch
 10
0.0
 20
0.0
 30
0.0
210
0.0
220
0.0
230
1.0
  2
SOLID
 70
1
 71
0
 91
1
 92
3
 72
0
 73
1
 93
4
 10
258.1818181818182
 20
484.54545454545456
 10
314.54545454545456
 20
484.54545454545456
 10
314.54545454545456
 20
479.0909090909091
 10
258.1818181818182
 20
479.0909090909091
 97
0
 75
1
 76
1
 98
0
  0
LWPOLYLINE
  5
71
330
17
100
AcDbEntity
  8
WALL
100
AcDbPolyline
 90
4
 70
1
 10
329.0909090909091
 20
484.54545454545456
 10
409.0909090909091
 20
484.54545454545456
 10
409.0909090909091
 20
479.0909090909091
 10
329.0909090909091
 20
479.0909090909091
  0
HATCH
  5
72
330
17
100
AcDbEntity
  8
WALL
100
AcDbHatch
 10
0.0
 20
0.0
 30
0.0
210
0.0
220
0.0
230
1.0
  2
SOLID
 70
1
 71
0
 91
1
 92
3
 72
0
 73
1
 93
4
 10
329.0909090909091
 20
484.54545454545456
 10
409.0909090909091
 20
484.54545454545456
 10
409.0909090909091
 20
479.0909090909091
 10
329.0909090909091
 20
479.0909090909091
 97
0
 75
1
 76
1
 98
0
  0
LWPOLYLINE
  5
73
330
17
100
AcDbEntity
  8
WALL
100
AcDbPolyline
 90
4
 70
1
 10
410.90909090909093
 20
484.54545454545456
 10
450.90909090909093
 20
484.54545454545456
 10
450.90909090909093
 20
479.0909090909091
 10
410.90909090909093
 20
479.0909090909091
  0
HATCH
  5
74
330
17
100
AcDbEntity
  8
WALL
100
AcDbHatch
 10
0.0
 20
0.0
 30
0.0
210
0.0
220
0.0
230
1.0
  2
SOLID
 70
1
 71
0
 91
1
 92
3
 72
0
 73
1
 93
4
 10
410.90909090909093
 20
484.54545454545456
 10
450.90909090909093
 20
484.54545454545456
 10
450.90909090909093
 20
479.0909090909091
 10
410.90909090909093
 20
479.0909090909091
 97
0
 75
1
 76
1
 98
0
  0
LWPOLYLINE
  5
75
330
17
100
AcDbEntity
  8
WALL
100
AcDbPolyline
 90
4
 70
1
 10
234.54545454545456
 20
483.6363636363637
 10
256.3636363636364
 20
483.6363636363637
 10
256.3636363636364
 20
480.90909090909093
 10
234.54545454545456
 20
480.90909090909093
  0
HATCH
  5
76
330
17
100
AcDbEntity
  8
WALL
100
AcDbHatch
 10
0.0
 20
0.0
 30
0.0
210
0.0
220
0.0
230
1.0
  2
SOLID
 70
1
 71
0
 91
1
 92
3
 72
0
 73
1
 93
4
 10
234.54545454545456
 20
483.6363636363637
 10
256.3636363636364
 20
483.6363636363637
 10
256.3636363636364
 20
480.90909090909093
 10
234.54545454545456
 20
480.90909090909093
 97
0
 75
1
 76
1
 98
0
  0
LWPOLYLINE
  5
77
330
17
100
AcDbEntity
  8
WALL
100
AcDbPolyline
 90
4
 70
1
 10
583.6363636363637
 20
429.0909090909091
 10
672.7272727272727
 20
429.0909090909091
 10
672.7272727272727
 20
422.72727272727275
 10
583.6363636363637
 20
422.72727272727275
  0
HATCH
  5
78
330
17
100
AcDbEntity
  8
WALL
100
AcDbHatch
 10
0.0
 20
0.0
 30
0.0
210
0.0
220
0.0
230
1.0
  2
SOLID
 70
1
 71
0
 91
1
 92
3
 72
0
 73
1
 93
4
 10
583.6363636363637
 20
429.0909090909091
 10
672.7272727272727
 20
429.0909090909091
 10
672.7272727272727
 20
422.72727272727275
 10
583.6363636363637
 20
422.72727272727275
 97
0
 75
1
 76
1
 98
0
  0
LWPOLYLINE
  5
79
330
17
100
AcDbEntity
  8
WALL
100
AcDbPolyline
 90
4
 70
1
 10
849.0909090909091
 20
424.54545454545456
 10
967.2727272727274
 20
424.54545454545456
 10
967.2727272727274
 20
410.00000000000006
 10
849.0909090909091
 20
410.00000000000006
  0
HATCH
  5
7A
330
17
100
AcDbEntity
  8
WALL
100
AcDbHatch
 10
0.0
 20
0.0
 30
0.0
210
0.0
220
0.0
230
1.0
  2
SOLID
 70
1
 71
0
 91
1
 92
3
 72
0
 73
1
 93
4
 10
849.0909090909091
 20
424.54545454545456
 10
967.2727272727274
 20
424.54545454545456
 10
967.2727272727274
 20
410.00000000000006
 10
849.0909090909091
 20
410.00000000000006
 97
0
 75
1
 76
1
 98
0
  0
LWPOLYLINE
  5
7B
330
17
100
AcDbEntity
  8
WALL
100
AcDbPolyline
 90
4
 70
1
 10
889.0909090909091
 20
397.2727272727273
 10
1007.2727272727274
 20
397.2727272727273
 10
1007.2727272727274
 20
380.90909090909093
 10
889.0909090909091
 20
380.90909090909093
  0
HATCH
  5
7C
330
17
100
AcDbEntity
  8
WALL
100
AcDbHatch
 10
0.0
 20
0.0
 30
0.0
210
0.0
220
0.0
230
1.0
  2
SOLID
 70
1
 71
0
 91
1
 92
3
 72
0
 73
1
 93
4
 10
889.0909090909091
 20
397.2727272727273
 10
1007.2727272727274
 20
397.2727272727273
 10
1007.2727272727274
 20
380.90909090909093
 10
889.0909090909091
 20
380.90909090909093
 97
0
 75
1
 76
1
 98
0
  0
LWPOLYLINE
  5
7D
330
17
100
AcDbEntity
  8
WALL
100
AcDbPolyline
 90
4
 70
1
 10
749.0909090909091
 20
391.81818181818187
 10
887.2727272727274
 20
391.81818181818187
 10
887.2727272727274
 20
380.90909090909093
 10
749.0909090909091
 20
380.90909090909093
  0
HATCH
  5
7E
330
17
100
AcDbEntity
  8
WALL
100
AcDbHatch
 10
0.0
 20
0.0
 30
0.0
210
0.0
220
0.0
230
1.0
  2
SOLID
 70
1
 71
0
 91
1
 92
3
 72
0
 73
1
 93
4
 10
749.0909090909091
 20
391.81818181818187
 10
887.2727272727274
 20
391.81818181818187
 10
887.2727272727274
 20
380.90909090909093
 10
749.0909090909091
 20
380.90909090909093
 97
0
 75
1
 76
1
 98
0
  0
LWPOLYLINE
  5
7F
330
17
100
AcDbEntity
  8
WALL
100
AcDbPolyline
 90
4
 70
1
 10
687.2727272727274
 20
388.18181818181824
 10
745.4545454545455
 20
388.18181818181824
 10
745.4545454545455
 20
380.90909090909093
 10
687.2727272727274
 20
380.90909090909093
  0
HATCH
  5
80
330
17
100
AcDbEntity
  8
WALL
100
AcDbHatch
 10
0.0
 20
0.0
 30
0.0
210
0.0
220
0.0
230
1.0
  2
SOLID
 70
1
 71
0
 91
1
 92
3
 72
0
 73
1
 93
4
 10
687.2727272727274
 20
388.18181818181824
 10
745.4545454545455
 20
388.18181818181824
 10
745.4545454545455
 20
380.90909090909093
 10
687.2727272727274
 20
380.90909090909093
 97
0
 75
1
 76
1
 98
0
  0
LWPOLYLINE
  5
81
330
17
100
AcDbEntity
  8
WALL
100
AcDbPolyline
 90
4
 70
1
 10
985.4545454545455
 20
383.6363636363637
 10
1007.2727272727274
 20
383.6363636363637
 10
1007.2727272727274
 20
378.18181818181824
 10
985.4545454545455
 20
378.18181818181824
  0
HATCH
  5
82
330
17
100
AcDbEntity
  8
WALL
100
AcDbHatch
 10
0.0
 20
0.0
 30
0.0
210
0.0
220
0.0
230
1.0
  2
SOLID
 70
1
 71
0
 91
1
 92
3
 72
0
 73
1
 93
4
 10
985.4545454545455
 20
383.6363636363637
 10
1007.2727272727274
 20
383.6363636363637
 10
1007.2727272727274
 20
378.18181818181824
 10
985.4545454545455
 20
378.18181818181824
 97
0
 75
1
 76
1
 98
0
  0
LWPOLYLINE
  5
83
330
17
100
AcDbEntity
  8
WALL
100
AcDbPolyline
 90
4
 70
1
 10
983.6363636363637
 20
358.1818181818182
 10
1007.2727272727274
 20
358.1818181818182
 10
1007.2727272727274
 20
352.72727272727275
 10
983.6363636363637
 20
352.72727272727275
  0
HATCH
  5
84
330
17
100
AcDbEntity
  8
WALL
100
AcDbHatch
 10
0.0
 20
0.0
 30
0.0
210
0.0
220
0.0
230
1.0
  2
SOLID
 70
1
 71
0
 91
1
 92
3
 72
0
 73
1
 93
4
 10
983.6363636363637
 20
358.1818181818182
 10
1007.2727272727274
 20
358.1818181818182
 10
1007.2727272727274
 20
352.72727272727275
 10
983.6363636363637
 20
352.72727272727275
 97
0
 75
1
 76
1
 98
0
  0
LWPOLYLINE
  5
85
330
17
100
AcDbEntity
  8
WALL
100
AcDbPolyline
 90
4
 70
1
 10
242.72727272727275
 20
350.00000000000006
 10
449.0909090909091
 20
350.00000000000006
 10
449.0909090909091
 20
335.4545454545455
 10
242.72727272727275
 20
335.4545454545455
  0
HATCH
  5
86
330
17
100
AcDbEntity
  8
WALL
100
AcDbHatch
 10
0.0
 20
0.0
 30
0.0
210
0.0
220
0.0
230
1.0
  2
SOLID
 70
1
 71
0
 91
1
 92
3
 72
0
 73
1
 93
4
 10
242.72727272727275
 20
350.00000000000006
 10
449.0909090909091
 20
350.00000000000006
 10
449.0909090909091
 20
335.4545454545455
 10
242.72727272727275
 20
335.4545454545455
 97
0
 75
1
 76
1
 98
0
  0
LWPOLYLINE
  5
87
330
17
100
AcDbEntity
  8
WALL
100
AcDbPolyline
 90
4
 70
1
 10
983.6363636363637
 20
346.3636363636364
 10
1007.2727272727274
 20
346.3636363636364
 10
1007.2727272727274
 20
344.54545454545456
 10
983.6363636363637
 20
344.54545454545456
  0
HATCH
  5
88
330
17
100
AcDbEntity
  8
WALL
100
AcDbHatch
 10
0.0
 20
0.0
 30
0.0
210
0.0
220
0.0
230
1.0
  2
SOLID
 70
1
 71
0
 91
1
 92
3
 72
0
 73
1
 93
4
 10
983.6363636363637
 20
346.3636363636364
 10
1007.2727272727274
 20
346.3636363636364
 10
1007.2727272727274
 20
344.54545454545456
 10
983.6363636363637
 20
344.54545454545456
 97
0
 75
1
 76
1
 98
0
  0
LWPOLYLINE
  5
89
330
17
100
AcDbEntity
  8
WALL
100
AcDbPolyline
 90
4
 70
1
 10
903.6363636363637
 20
338.1818181818182
 10
953.6363636363637
 20
338.1818181818182
 10
953.6363636363637
 20
330.00000000000006
 10
903.6363636363637
 20
330.00000000000006
  0
HATCH
  5
8A
330
17
100
AcDbEntity
  8
WALL
100
AcDbHatch
 10
0.0
 20
0.0
 30
0.0
210
0.0
220
0.0
230
1.0
  2
SOLID
 70
1
 71
0
 91
1
 92
3
 72
0
 73
1
 93
4
 10
903.6363636363637
 20
338.1818181818182
 10
953.6363636363637
 20
338.1818181818182
 10
953.6363636363637
 20
330.00000000000006
 10
903.6363636363637
 20
330.00000000000006
 97
0
 75
1
 76
1
 98
0
  0
LWPOLYLINE
  5
8B
330
17
100
AcDbEntity
  8
WALL
100
AcDbPolyline
 90
4
 70
1
 10
271.81818181818187
 20
336.3636363636364
 10
316.3636363636364
 20
336.3636363636364
 10
316.3636363636364
 20
330.00000000000006
 10
271.81818181818187
 20
330.00000000000006
  0
HATCH
  5
8C
330
17
100
AcDbEntity
  8
WALL
100
AcDbHatch
 10
0.0
 20
0.0
 30
0.0
210
0.0
220
0.0
230
1.0
  2
SOLID
 70
1
 71
0
 91
1
 92
3
 72
0
 73
1
 93
4
 10
271.81818181818187
 20
336.3636363636364
 10
316.3636363636364
 20
336.3636363636364
 10
316.3636363636364
 20
330.00000000000006
 10
271.81818181818187
 20
330.00000000000006
 97
0
 75
1
 76
1
 98
0
  0
LWPOLYLINE
  5
8D
330
17
100
AcDbEntity
  8
WALL
100
AcDbPolyline
 90
4
 70
1
 10
983.6363636363637
 20
334.54545454545456
 10
1007.2727272727274
 20
334.54545454545456
 10
1007.2727272727274
 20
328.1818181818182
 10
983.6363636363637
 20
328.1818181818182
  0
HATCH
  5
8E
330
17
100
AcDbEntity
  8
WALL
100
AcDbHatch
 10
0.0
 20
0.0
 30
0.0
210
0.0
220
0.0
230
1.0
  2
SOLID
 70
1
 71
0
 91
1
 92
3
 72
0
 73
1
 93
4
 10
983.6363636363637
 20
334.54545454545456
 10
1007.2727272727274
 20
334.54545454545456
 10
1007.2727272727274
 20
328.1818181818182
 10
983.6363636363637
 20
328.1818181818182
 97
0
 75
1
 76
1
 98
0
  0
LWPOLYLINE
  5
8F
330
17
100
AcDbEntity
  8
WALL
100
AcDbPolyline
 90
4
 70
1
 10
937.2727272727274
 20
330.90909090909093
 10
963.6363636363637
 20
330.90909090909093
 10
963.6363636363637
 20
327.2727272727273
 10
937.2727272727274
 20
327.2727272727273
  0
HATCH
  5
90
330
17
100
AcDbEntity
  8
WALL
100
AcDbHatch
 10
0.0
 20
0.0
 30
0.0
210
0.0
220
0.0
230
1.0
  2
SOLID
 70
1
 71
0
 91
1
 92
3
 72
0
 73
1
 93
4
 10
937.2727272727274
 20
330.90909090909093
 10
963.6363636363637
 20
330.90909090909093
 10
963.6363636363637
 20
327.2727272727273
 10
937.2727272727274
 20
327.2727272727273
 97
0
 75
1
 76
1
 98
0
  0
LWPOLYLINE
  5
91
330
17
100
AcDbEntity
  8
WALL
100
AcDbPolyline
 90
4
 70
1
 10
983.6363636363637
 20
320.0
 10
1007.2727272727274
 20
320.0
 10
1007.2727272727274
 20
312.72727272727275
 10
983.6363636363637
 20
312.72727272727275
  0
HATCH
  5
92
330
17
100
AcDbEntity
  8
WALL
100
AcDbHatch
 10
0.0
 20
0.0
 30
0.0
210
0.0
220
0.0
230
1.0
  2
SOLID
 70
1
 71
0
 91
1
 92
3
 72
0
 73
1
 93
4
 10
983.6363636363637
 20
320.0
 10
1007.2727272727274
 20
320.0
 10
1007.2727272727274
 20
312.72727272727275
 10
983.6363636363637
 20
312.72727272727275
 97
0
 75
1
 76
1
 98
0
  0
LWPOLYLINE
  5
93
330
17
100
AcDbEntity
  8
WALL
100
AcDbPolyline
 90
4
 70
1
 10
614.5454545454546
 20
306.3636363636364
 10
658.1818181818182
 20
306.3636363636364
 10
658.1818181818182
 20
299.0909090909091
 10
614.5454545454546
 20
299.0909090909091
  0
HATCH
  5
94
330
17
100
AcDbEntity
  8
WALL
100
AcDbHatch
 10
0.0
 20
0.0
 30
0.0
210
0.0
220
0.0
230
1.0
  2
SOLID
 70
1
 71
0
 91
1
 92
3
 72
0
 73
1
 93
4
 10
614.5454545454546
 20
306.3636363636364
 10
658.1818181818182
 20
306.3636363636364
 10
658.1818181818182
 20
299.0909090909091
 10
614.5454545454546
 20
299.0909090909091
 97
0
 75
1
 76
1
 98
0
  0
LWPOLYLINE
  5
95
330
17
100
AcDbEntity
  8
WALL
100
AcDbPolyline
 90
4
 70
1
 10
40.0
 20
295.4545454545455
 10
109.0909090909091
 20
295.4545454545455
 10
109.0909090909091
 20
286.3636363636364
 10
40.0
 20
286.3636363636364
  0
HATCH
  5
96
330
17
100
AcDbEntity
  8
WALL
100
AcDbHatch
 10
0.0
 20
0.0
 30
0.0
210
0.0
220
0.0
230
1.0
  2
SOLID
 70
1
 71
0
 91
1
 92
3
 72
0
 73
1
 93
4
 10
40.0
 20
295.4545454545455
 10
109.0909090909091
 20
295.4545454545455
 10
109.0909090909091
 20
286.3636363636364
 10
40.0
 20
286.3636363636364
 97
0
 75
1
 76
1
 98
0
  0
LWPOLYLINE
  5
97
330
17
100
AcDbEntity
  8
WALL
100
AcDbPolyline
 90
4
 70
1
 10
672.7272727272727
 20
291.81818181818187
 10
710.909090909091
 20
291.81818181818187
 10
710.909090909091
 20
286.3636363636364
 10
672.7272727272727
 20
286.3636363636364
  0
HATCH
  5
98
330
17
100
AcDbEntity
  8
WALL
100
AcDbHatch
 10
0.0
 20
0.0
 30
0.0
210
0.0
220
0.0
230
1.0
  2
SOLID
 70
1
 71
0
 91
1
 92
3
 72
0
 73
1
 93
4
 10
672.7272727272727
 20
291.81818181818187
 10
710.909090909091
 20
291.81818181818187
 10
710.909090909091
 20
286.3636363636364
 10
672.7272727272727
 20
286.3636363636364
 97
0
 75
1
 76
1
 98
0
  0
LWPOLYLINE
  5
99
330
17
100
AcDbEntity
  8
WALL
100
AcDbPolyline
 90
4
 70
1
 10
734.5454545454546
 20
291.81818181818187
 10
765.4545454545455
 20
291.81818181818187
 10
765.4545454545455
 20
281.81818181818187
 10
734.5454545454546
 20
281.81818181818187
  0
HATCH
  5
9A
330
17
100
AcDbEntity
  8
WALL
100
AcDbHatch
 10
0.0
 20
0.0
 30
0.0
210
0.0
220
0.0
230
1.0
  2
SOLID
 70
1
 71
0
 91
1
 92
3
 72
0
 73
1
 93
4
 10
734.5454545454546
 20
291.81818181818187
 10
765.4545454545455
 20
291.81818181818187
 10
765.4545454545455
 20
281.81818181818187
 10
734.5454545454546
 20
281.81818181818187
 97
0
 75
1
 76
1
 98
0
  0
LWPOLYLINE
  5
9B
330
17
100
AcDbEntity
  8
WALL
100
AcDbPolyline
 90
4
 70
1
 10
823.6363636363637
 20
291.81818181818187
 10
849.0909090909091
 20
291.81818181818187
 10
849.0909090909091
 20
285.4545454545455
 10
823.6363636363637
 20
285.4545454545455
  0
HATCH
  5
9C
330
17
100
AcDbEntity
  8
WALL
100
AcDbHatch
 10
0.0
 20
0.0
 30
0.0
210
0.0
220
0.0
230
1.0
  2
SOLID
 70
1
 71
0
 91
1
 92
3
 72
0
 73
1
 93
4
 10
823.6363636363637
 20
291.81818181818187
 10
849.0909090909091
 20
291.81818181818187
 10
849.0909090909091
 20
285.4545454545455
 10
823.6363636363637
 20
285.4545454545455
 97
0
 75
1
 76
1
 98
0
  0
LWPOLYLINE
  5
9D
330
17
100
AcDbEntity
  8
WALL
100
AcDbPolyline
 90
4
 70
1
 10
351.81818181818187
 20
242.72727272727275
 10
379.0909090909091
 20
242.72727272727275
 10
379.0909090909091
 20
238.18181818181822
 10
351.81818181818187
 20
238.18181818181822
  0
HATCH
  5
9E
330
17
100
AcDbEntity
  8
WALL
100
AcDbHatch
 10
0.0
 20
0.0
 30
0.0
210
0.0
220
0.0
230
1.0
  2
SOLID
 70
1
 71
0
 91
1
 92
3
 72
0
 73
1
 93
4
 10
351.81818181818187
 20
242.72727272727275
 10
379.0909090909091
 20
242.72727272727275
 10
379.0909090909091
 20
238.18181818181822
 10
351.81818181818187
 20
238.18181818181822
 97
0
 75
1
 76
1
 98
0
  0
LWPOLYLINE
  5
9F
330
17
100
AcDbEntity
  8
WALL
100
AcDbPolyline
 90
4
 70
1
 10
729.0909090909091
 20
242.72727272727275
 10
816.3636363636365
 20
242.72727272727275
 10
816.3636363636365
 20
230.00000000000003
 10
729.0909090909091
 20
230.00000000000003
  0
HATCH
  5
A0
330
17
100
AcDbEntity
  8
WALL
100
AcDbHatch
 10
0.0
 20
0.0
 30
0.0
210
0.0
220
0.0
230
1.0
  2
SOLID
 70
1
 71
0
 91
1
 92
3
 72
0
 73
1
 93
4
 10
729.0909090909091
 20
242.72727272727275
 10
816.3636363636365
 20
242.72727272727275
 10
816.3636363636365
 20
230.00000000000003
 10
729.0909090909091
 20
230.00000000000003
 97
0
 75
1
 76
1
 98
0
  0
LWPOLYLINE
  5
A1
330
17
100
AcDbEntity
  8
WALL
100
AcDbPolyline
 90
4
 70
1
 10
729.0909090909091
 20
229.09090909090912
 10
752.7272727272727
 20
229.09090909090912
 10
752.7272727272727
 20
224.54545454545456
 10
729.0909090909091
 20
224.54545454545456
  0
HATCH
  5
A2
330
17
100
AcDbEntity
  8
WALL
100
AcDbHatch
 10
0.0
 20
0.0
 30
0.0
210
0.0
220
0.0
230
1.0
  2
SOLID
 70
1
 71
0
 91
1
 92
3
 72
0
 73
1
 93
4
 10
729.0909090909091
 20
229.09090909090912
 10
752.7272727272727
 20
229.09090909090912
 10
752.7272727272727
 20
224.54545454545456
 10
729.0909090909091
 20
224.54545454545456
 97
0
 75
1
 76
1
 98
0
  0
LWPOLYLINE
  5
A3
330
17
100
AcDbEntity
  8
WALL
100
AcDbPolyline
 90
4
 70
1
 10
721.8181818181819
 20
220.00000000000003
 10
749.0909090909091
 20
220.00000000000003
 10
749.0909090909091
 20
211.81818181818184
 10
721.8181818181819
 20
211.81818181818184
  0
HATCH
  5
A4
330
17
100
AcDbEntity
  8
WALL
100
AcDbHatch
 10
0.0
 20
0.0
 30
0.0
210
0.0
220
0.0
230
1.0
  2
SOLID
 70
1
 71
0
 91
1
 92
3
 72
0
 73
1
 93
4
 10
721.8181818181819
 20
220.00000000000003
 10
749.0909090909091
 20
220.00000000000003
 10
749.0909090909091
 20
211.81818181818184
 10
721.8181818181819
 20
211.81818181818184
 97
0
 75
1
 76
1
 98
0
  0
LWPOLYLINE
  5
A5
330
17
100
AcDbEntity
  8
WALL
100
AcDbPolyline
 90
4
 70
1
 10
898.1818181818182
 20
217.27272727272728
 10
938.1818181818182
 20
217.27272727272728
 10
938.1818181818182
 20
208.1818181818182
 10
898.1818181818182
 20
208.1818181818182
  0
HATCH
  5
A6
330
17
100
AcDbEntity
  8
WALL
100
AcDbHatch
 10
0.0
 20
0.0
 30
0.0
210
0.0
220
0.0
230
1.0
  2
SOLID
 70
1
 71
0
 91
1
 92
3
 72
0
 73
1
 93
4
 10
898.1818181818182
 20
217.27272727272728
 10
938.1818181818182
 20
217.27272727272728
 10
938.1818181818182
 20
208.1818181818182
 10
898.1818181818182
 20
208.1818181818182
 97
0
 75
1
 76
1
 98
0
  0
LWPOLYLINE
  5
A7
330
17
100
AcDbEntity
  8
WALL
100
AcDbPolyline
 90
4
 70
1
 10
900.0000000000001
 20
190.90909090909093
 10
925.4545454545455
 20
190.90909090909093
 10
925.4545454545455
 20
188.1818181818182
 10
900.0000000000001
 20
188.1818181818182
  0
HATCH
  5
A8
330
17
100
AcDbEntity
  8
WALL
100
AcDbHatch
 10
0.0
 20
0.0
 30
0.0
210
0.0
220
0.0
230
1.0
  2
SOLID
 70
1
 71
0
 91
1
 92
3
 72
0
 73
1
 93
4
 10
900.0000000000001
 20
190.90909090909093
 10
925.4545454545455
 20
190.90909090909093
 10
925.4545454545455
 20
188.1818181818182
 10
900.0000000000001
 20
188.1818181818182
 97
0
 75
1
 76
1
 98
0
  0
LWPOLYLINE
  5
A9
330
17
100
AcDbEntity
  8
WALL
100
AcDbPolyline
 90
4
 70
1
 10
278.1818181818182
 20
186.36363636363637
 10
313.6363636363637
 20
186.36363636363637
 10
313.6363636363637
 20
180.90909090909093
 10
278.1818181818182
 20
180.90909090909093
  0
HATCH
  5
AA
330
17
100
AcDbEntity
  8
WALL
100
AcDbHatch
 10
0.0
 20
0.0
 30
0.0
210
0.0
220
0.0
230
1.0
  2
SOLID
 70
1
 71
0
 91
1
 92
3
 72
0
 73
1
 93
4
 10
278.1818181818182
 20
186.36363636363637
 10
313.6363636363637
 20
186.36363636363637
 10
313.6363636363637
 20
180.90909090909093
 10
278.1818181818182
 20
180.90909090909093
 97
0
 75
1
 76
1
 98
0
  0
LWPOLYLINE
  5
AB
330
17
100
AcDbEntity
  8
WALL
100
AcDbPolyline
 90
4
 70
1
 10
325.4545454545455
 20
176.36363636363637
 10
412.72727272727275
 20
176.36363636363637
 10
412.72727272727275
 20
170.00000000000003
 10
325.4545454545455
 20
170.00000000000003
  0
HATCH
  5
AC
330
17
100
AcDbEntity
  8
WALL
100
AcDbHatch
 10
0.0
 20
0.0
 30
0.0
210
0.0
220
0.0
230
1.0
  2
SOLID
 70
1
 71
0
 91
1
 92
3
 72
0
 73
1
 93
4
 10
325.4545454545455
 20
176.36363636363637
 10
412.72727272727275
 20
176.36363636363637
 10
412.72727272727275
 20
170.00000000000003
 10
325.4545454545455
 20
170.00000000000003
 97
0
 75
1
 76
1
 98
0
  0
LWPOLYLINE
  5
AD
330
17
100
AcDbEntity
  8
WALL
100
AcDbPolyline
 90
4
 70
1
 10
685.4545454545455
 20
132.72727272727275
 10
714.5454545454546
 20
132.72727272727275
 10
714.5454545454546
 20
128.1818181818182
 10
685.4545454545455
 20
128.1818181818182
  0
HATCH
  5
AE
330
17
100
AcDbEntity
  8
WALL
100
AcDbHatch
 10
0.0
 20
0.0
 30
0.0
210
0.0
220
0.0
230
1.0
  2
SOLID
 70
1
 71
0
 91
1
 92
3
 72
0
 73
1
 93
4
 10
685.4545454545455
 20
132.72727272727275
 10
714.5454545454546
 20
132.72727272727275
 10
714.5454545454546
 20
128.1818181818182
 10
685.4545454545455
 20
128.1818181818182
 97
0
 75
1
 76
1
 98
0
  0
LWPOLYLINE
  5
AF
330
17
100
AcDbEntity
  8
WALL
100
AcDbPolyline
 90
4
 70
1
 10
844.5454545454546
 20
132.72727272727275
 10
880.0000000000001
 20
132.72727272727275
 10
880.0000000000001
 20
123.63636363636365
 10
844.5454545454546
 20
123.63636363636365
  0
HATCH
  5
B0
330
17
100
AcDbEntity
  8
WALL
100
AcDbHatch
 10
0.0
 20
0.0
 30
0.0
210
0.0
220
0.0
230
1.0
  2
SOLID
 70
1
 71
0
 91
1
 92
3
 72
0
 73
1
 93
4
 10
844.5454545454546
 20
132.72727272727275
 10
880.0000000000001
 20
132.72727272727275
 10
880.0000000000001
 20
123.63636363636365
 10
844.5454545454546
 20
123.63636363636365
 97
0
 75
1
 76
1
 98
0
  0
LWPOLYLINE
  5
B1
330
17
100
AcDbEntity
  8
WALL
100
AcDbPolyline
 90
4
 70
1
 10
475.4545454545455
 20
86.36363636363637
 10
498.18181818181824
 20
86.36363636363637
 10
498.18181818181824
 20
81.81818181818183
 10
475.4545454545455
 20
81.81818181818183
  0
HATCH
  5
B2
330
17
100
AcDbEntity
  8
WALL
100
AcDbHatch
 10
0.0
 20
0.0
 30
0.0
210
0.0
220
0.0
230
1.0
  2
SOLID
 70
1
 71
0
 91
1
 92
3
 72
0
 73
1
 93
4
 10
475.4545454545455
 20
86.36363636363637
 10
498.18181818181824
 20
86.36363636363637
 10
498.18181818181824
 20
81.81818181818183
 10
475.4545454545455
 20
81.81818181818183
 97
0
 75
1
 76
1
 98
0
  0
LWPOLYLINE
  5
B3
330
17
100
AcDbEntity
  8
WALL
100
AcDbPolyline
 90
4
 70
1
 10
499.0909090909091
 20
86.36363636363637
 10
521.8181818181819
 20
86.36363636363637
 10
521.8181818181819
 20
81.81818181818183
 10
499.0909090909091
 20
81.81818181818183
  0
HATCH
  5
B4
330
17
100
AcDbEntity
  8
WALL
100
AcDbHatch
 10
0.0
 20
0.0
 30
0.0
210
0.0
220
0.0
230
1.0
  2
SOLID
 70
1
 71
0
 91
1
 92
3
 72
0
 73
1
 93
4
 10
499.0909090909091
 20
86.36363636363637
 10
521.8181818181819
 20
86.36363636363637
 10
521.8181818181819
 20
81.81818181818183
 10
499.0909090909091
 20
81.81818181818183
 97
0
 75
1
 76
1
 98
0
  0
LWPOLYLINE
  5
B5
330
17
100
AcDbEntity
  8
WALL
100
AcDbPolyline
 90
4
 70
1
 10
678.1818181818182
 20
83.63636363636364
 10
712.7272727272727
 20
83.63636363636364
 10
712.7272727272727
 20
77.27272727272728
 10
678.1818181818182
 20
77.27272727272728
  0
HATCH
  5
B6
330
17
100
AcDbEntity
  8
WALL
100
AcDbHatch
 10
0.0
 20
0.0
 30
0.0
210
0.0
220
0.0
230
1.0
  2
SOLID
 70
1
 71
0
 91
1
 92
3
 72
0
 73
1
 93
4
 10
678.1818181818182
 20
83.63636363636364
 10
712.7272727272727
 20
83.63636363636364
 10
712.7272727272727
 20
77.27272727272728
 10
678.1818181818182
 20
77.27272727272728
 97
0
 75
1
 76
1
 98
0
  0
LWPOLYLINE
  5
B7
330
17
100
AcDbEntity
  8
WALL
100
AcDbPolyline
 90
4
 70
1
 10
888.1818181818182
 20
82.72727272727273
 10
910.909090909091
 20
82.72727272727273
 10
910.909090909091
 20
78.18181818181819
 10
888.1818181818182
 20
78.18181818181819
  0
HATCH
  5
B8
330
17
100
AcDbEntity
  8
WALL
100
AcDbHatch
 10
0.0
 20
0.0
 30
0.0
210
0.0
220
0.0
230
1.0
  2
SOLID
 70
1
 71
0
 91
1
 92
3
 72
0
 73
1
 93
4
 10
888.1818181818182
 20
82.72727272727273
 10
910.909090909091
 20
82.72727272727273
 10
910.909090909091
 20
78.18181818181819
 10
888.1818181818182
 20
78.18181818181819
 97
0
 75
1
 76
1
 98
0
  0
LWPOLYLINE
  5
B9
330
17
100
AcDbEntity
  8
WALL
100
AcDbPolyline
 90
4
 70
1
 10
841.8181818181819
 20
55.45454545454546
 10
883.6363636363637
 20
55.45454545454546
 10
883.6363636363637
 20
50.00000000000001
 10
841.8181818181819
 20
50.00000000000001
  0
HATCH
  5
BA
330
17
100
AcDbEntity
  8
WALL
100
AcDbHatch
 10
0.0
 20
0.0
 30
0.0
210
0.0
220
0.0
230
1.0
  2
SOLID
 70
1
 71
0
 91
1
 92
3
 72
0
 73
1
 93
4
 10
841.8181818181819
 20
55.45454545454546
 10
883.6363636363637
 20
55.45454545454546
 10
883.6363636363637
 20
50.00000000000001
 10
841.8181818181819
 20
50.00000000000001
 97
0
 75
1
 76
1
 98
0
  0
LWPOLYLINE
  5
BB
330
17
100
AcDbEntity
  8
WALL
100
AcDbPolyline
 90
4
 70
1
 10
292.72727272727275
 20
33.63636363636364
 10
558.1818181818182
 20
33.63636363636364
 10
558.1818181818182
 20
20.90909090909091
 10
292.72727272727275
 20
20.90909090909091
  0
HATCH
  5
BC
330
17
100
AcDbEntity
  8
WALL
100
AcDbHatch
 10
0.0
 20
0.0
 30
0.0
210
0.0
220
0.0
230
1.0
  2
SOLID
 70
1
 71
0
 91
1
 92
3
 72
0
 73
1
 93
4
 10
292.72727272727275
 20
33.63636363636364
 10
558.1818181818182
 20
33.63636363636364
 10
558.1818181818182
 20
20.90909090909091
 10
292.72727272727275
 20
20.90909090909091
 97
0
 75
1
 76
1
 98
0
  0
LWPOLYLINE
  5
BD
330
17
100
AcDbEntity
  8
WALL
100
AcDbPolyline
 90
4
 70
1
 10
683.6363636363637
 20
33.63636363636364
 10
903.6363636363637
 20
33.63636363636364
 10
903.6363636363637
 20
20.90909090909091
 10
683.6363636363637
 20
20.90909090909091
  0
HATCH
  5
BE
330
17
100
AcDbEntity
  8
WALL
100
AcDbHatch
 10
0.0
 20
0.0
 30
0.0
210
0.0
220
0.0
230
1.0
  2
SOLID
 70
1
 71
0
 91
1
 92
3
 72
0
 73
1
 93
4
 10
683.6363636363637
 20
33.63636363636364
 10
903.6363636363637
 20
33.63636363636364
 10
903.6363636363637
 20
20.90909090909091
 10
683.6363636363637
 20
20.90909090909091
 97
0
 75
1
 76
1
 98
0
  0
LWPOLYLINE
  5
BF
330
17
100
AcDbEntity
  8
WALL
100
AcDbPolyline
 90
4
 70
1
 10
29.090909090909093
 20
22.72727272727273
 10
90.90909090909092
 20
22.72727272727273
 10
90.90909090909092
 20
6.363636363636364
 10
29.090909090909093
 20
6.363636363636364
  0
HATCH
  5
C0
330
17
100
AcDbEntity
  8
WALL
100
AcDbHatch
 10
0.0
 20
0.0
 30
0.0
210
0.0
220
0.0
230
1.0
  2
SOLID
 70
1
 71
0
 91
1
 92
3
 72
0
 73
1
 93
4
 10
29.090909090909093
 20
22.72727272727273
 10
90.90909090909092
 20
22.72727272727273
 10
90.90909090909092
 20
6.363636363636364
 10
29.090909090909093
 20
6.363636363636364
 97
0
 75
1
 76
1
 98
0
  0
LWPOLYLINE
  5
C1
330
17
100
AcDbEntity
  8
WALL
100
AcDbPolyline
 90
4
 70
1
 10
121.81818181818183
 20
23.63636363636364
 10
180.00000000000003
 20
23.63636363636364
 10
180.00000000000003
 20
10.0
 10
121.81818181818183
 20
10.0
  0
HATCH
  5
C2
330
17
100
AcDbEntity
  8
WALL
100
AcDbHatch
 10
0.0
 20
0.0
 30
0.0
210
0.0
220
0.0
230
1.0
  2
SOLID
 70
1
 71
0
 91
1
 92
3
 72
0
 73
1
 93
4
 10
121.81818181818183
 20
23.63636363636364
 10
180.00000000000003
 20
23.63636363636364
 10
180.00000000000003
 20
10.0
 10
121.81818181818183
 20
10.0
 97
0
 75
1
 76
1
 98
0
  0
LWPOLYLINE
  5
C3
330
17
100
AcDbEntity
  8
WALL
100
AcDbPolyline
 90
4
 70
1
 10
500.00000000000006
 20
969.0909090909091
 10
508.18181818181824
 20
969.0909090909091
 10
508.18181818181824
 20
945.4545454545455
 10
500.00000000000006
 20
945.4545454545455
  0
HATCH
  5
C4
330
17
100
AcDbEntity
  8
WALL
100
AcDbHatch
 10
0.0
 20
0.0
 30
0.0
210
0.0
220
0.0
230
1.0
  2
SOLID
 70
1
 71
0
 91
1
 92
3
 72
0
 73
1
 93
4
 10
500.00000000000006
 20
969.0909090909091
 10
508.18181818181824
 20
969.0909090909091
 10
508.18181818181824
 20
945.4545454545455
 10
500.00000000000006
 20
945.4545454545455
 97
0
 75
1
 76
1
 98
0
  0
LWPOLYLINE
  5
C5
330
17
100
AcDbEntity
  8
WALL
100
AcDbPolyline
 90
4
 70
1
 10
509.0909090909091
 20
969.0909090909091
 10
517.2727272727274
 20
969.0909090909091
 10
517.2727272727274
 20
943.6363636363637
 10
509.0909090909091
 20
943.6363636363637
  0
HATCH
  5
C6
330
17
100
AcDbEntity
  8
WALL
100
AcDbHatch
 10
0.0
 20
0.0
 30
0.0
210
0.0
220
0.0
230
1.0
  2
SOLID
 70
1
 71
0
 91
1
 92
3
 72
0
 73
1
 93
4
 10
509.0909090909091
 20
969.0909090909091
 10
517.2727272727274
 20
969.0909090909091
 10
517.2727272727274
 20
943.6363636363637
 10
509.0909090909091
 20
943.6363636363637
 97
0
 75
1
 76
1
 98
0
  0
LWPOLYLINE
  5
C7
330
17
100
AcDbEntity
  8
WALL
100
AcDbPolyline
 90
4
 70
1
 10
655.4545454545455
 20
950.0000000000001
 10
668.1818181818182
 20
950.0000000000001
 10
668.1818181818182
 20
919.0909090909091
 10
655.4545454545455
 20
919.0909090909091
  0
HATCH
  5
C8
330
17
100
AcDbEntity
  8
WALL
100
AcDbHatch
 10
0.0
 20
0.0
 30
0.0
210
0.0
220
0.0
230
1.0
  2
SOLID
 70
1
 71
0
 91
1
 92
3
 72
0
 73
1
 93
4
 10
655.4545454545455
 20
950.0000000000001
 10
668.1818181818182
 20
950.0000000000001
 10
668.1818181818182
 20
919.0909090909091
 10
655.4545454545455
 20
919.0909090909091
 97
0
 75
1
 76
1
 98
0
  0
LWPOLYLINE
  5
C9
330
17
100
AcDbEntity
  8
WALL
100
AcDbPolyline
 90
4
 70
1
 10
460.90909090909093
 20
949.0909090909091
 10
473.6363636363637
 20
949.0909090909091
 10
473.6363636363637
 20
896.3636363636365
 10
460.90909090909093
 20
896.3636363636365
  0
HATCH
  5
CA
330
17
100
AcDbEntity
  8
WALL
100
AcDbHatch
 10
0.0
 20
0.0
 30
0.0
210
0.0
220
0.0
230
1.0
  2
SOLID
 70
1
 71
0
 91
1
 92
3
 72
0
 73
1
 93
4
 10
460.90909090909093
 20
949.0909090909091
 10
473.6363636363637
 20
949.0909090909091
 10
473.6363636363637
 20
896.3636363636365
 10
460.90909090909093
 20
896.3636363636365
 97
0
 75
1
 76
1
 98
0
  0
LWPOLYLINE
  5
CB
330
17
100
AcDbEntity
  8
WALL
100
AcDbPolyline
 90
4
 70
1
 10
699.0909090909091
 20
946.3636363636365
 10
711.8181818181819
 20
946.3636363636365
 10
711.8181818181819
 20
918.1818181818182
 10
699.0909090909091
 20
918.1818181818182
  0
HATCH
  5
CC
330
17
100
AcDbEntity
  8
WALL
100
AcDbHatch
 10
0.0
 20
0.0
 30
0.0
210
0.0
220
0.0
230
1.0
  2
SOLID
 70
1
 71
0
 91
1
 92
3
 72
0
 73
1
 93
4
 10
699.0909090909091
 20
946.3636363636365
 10
711.8181818181819
 20
946.3636363636365
 10
711.8181818181819
 20
918.1818181818182
 10
699.0909090909091
 20
918.1818181818182
 97
0
 75
1
 76
1
 98
0
  0
LWPOLYLINE
  5
CD
330
17
100
AcDbEntity
  8
WALL
100
AcDbPolyline
 90
4
 70
1
 10
508.18181818181824
 20
942.7272727272729
 10
514.5454545454546
 20
942.7272727272729
 10
514.5454545454546
 20
920.0000000000001
 10
508.18181818181824
 20
920.0000000000001
  0
HATCH
  5
CE
330
17
100
AcDbEntity
  8
WALL
100
AcDbHatch
 10
0.0
 20
0.0
 30
0.0
210
0.0
220
0.0
230
1.0
  2
SOLID
 70
1
 71
0
 91
1
 92
3
 72
0
 73
1
 93
4
 10
508.18181818181824
 20
942.7272727272729
 10
514.5454545454546
 20
942.7272727272729
 10
514.5454545454546
 20
920.0000000000001
 10
508.18181818181824
 20
920.0000000000001
 97
0
 75
1
 76
1
 98
0
  0
LWPOLYLINE
  5
CF
330
17
100
AcDbEntity
  8
WALL
100
AcDbPolyline
 90
4
 70
1
 10
248.18181818181822
 20
887.2727272727274
 10
257.2727272727273
 20
887.2727272727274
 10
257.2727272727273
 20
831.8181818181819
 10
248.18181818181822
 20
831.8181818181819
  0
HATCH
  5
D0
330
17
100
AcDbEntity
  8
WALL
100
AcDbHatch
 10
0.0
 20
0.0
 30
0.0
210
0.0
220
0.0
230
1.0
  2
SOLID
 70
1
 71
0
 91
1
 92
3
 72
0
 73
1
 93
4
 10
248.18181818181822
 20
887.2727272727274
 10
257.2727272727273
 20
887.2727272727274
 10
257.2727272727273
 20
831.8181818181819
 10
248.18181818181822
 20
831.8181818181819
 97
0
 75
1
 76
1
 98
0
  0
LWPOLYLINE
  5
D1
330
17
100
AcDbEntity
  8
WALL
100
AcDbPolyline
 90
4
 70
1
 10
950.909090909091
 20
884.5454545454546
 10
966.3636363636365
 20
884.5454545454546
 10
966.3636363636365
 20
838.1818181818182
 10
950.909090909091
 20
838.1818181818182
  0
HATCH
  5
D2
330
17
100
AcDbEntity
  8
WALL
100
AcDbHatch
 10
0.0
 20
0.0
 30
0.0
210
0.0
220
0.0
230
1.0
  2
SOLID
 70
1
 71
0
 91
1
 92
3
 72
0
 73
1
 93
4
 10
950.909090909091
 20
884.5454545454546
 10
966.3636363636365
 20
884.5454545454546
 10
966.3636363636365
 20
838.1818181818182
 10
950.909090909091
 20
838.1818181818182
 97
0
 75
1
 76
1
 98
0
  0
LWPOLYLINE
  5
D3
330
17
100
AcDbEntity
  8
WALL
100
AcDbPolyline
 90
4
 70
1
 10
882.7272727272729
 20
883.6363636363637
 10
888.1818181818182
 20
883.6363636363637
 10
888.1818181818182
 20
850.909090909091
 10
882.7272727272729
 20
850.909090909091
  0
HATCH
  5
D4
330
17
100
AcDbEntity
  8
WALL
100
AcDbHatch
 10
0.0
 20
0.0
 30
0.0
210
0.0
220
0.0
230
1.0
  2
SOLID
 70
1
 71
0
 91
1
 92
3
 72
0
 73
1
 93
4
 10
882.7272727272729
 20
883.6363636363637
 10
888.1818181818182
 20
883.6363636363637
 10
888.1818181818182
 20
850.909090909091
 10
882.7272727272729
 20
850.909090909091
 97
0
 75
1
 76
1
 98
0
  0
LWPOLYLINE
  5
D5
330
17
100
AcDbEntity
  8
WALL
100
AcDbPolyline
 90
4
 70
1
 10
895.4545454545455
 20
882.7272727272729
 10
900.909090909091
 20
882.7272727272729
 10
900.909090909091
 20
847.2727272727274
 10
895.4545454545455
 20
847.2727272727274
  0
HATCH
  5
D6
330
17
100
AcDbEntity
  8
WALL
100
AcDbHatch
 10
0.0
 20
0.0
 30
0.0
210
0.0
220
0.0
230
1.0
  2
SOLID
 70
1
 71
0
 91
1
 92
3
 72
0
 73
1
 93
4
 10
895.4545454545455
 20
882.7272727272729
 10
900.909090909091
 20
882.7272727272729
 10
900.909090909091
 20
847.2727272727274
 10
895.4545454545455
 20
847.2727272727274
 97
0
 75
1
 76
1
 98
0
  0
LWPOLYLINE
  5
D7
330
17
100
AcDbEntity
  8
WALL
100
AcDbPolyline
 90
4
 70
1
 10
204.54545454545456
 20
875.4545454545455
 10
207.27272727272728
 20
875.4545454545455
 10
207.27272727272728
 20
852.7272727272727
 10
204.54545454545456
 20
852.7272727272727
  0
HATCH
  5
D8
330
17
100
AcDbEntity
  8
WALL
100
AcDbHatch
 10
0.0
 20
0.0
 30
0.0
210
0.0
220
0.0
230
1.0
  2
SOLID
 70
1
 71
0
 91
1
 92
3
 72
0
 73
1
 93
4
 10
204.54545454545456
 20
875.4545454545455
 10
207.27272727272728
 20
875.4545454545455
 10
207.27272727272728
 20
852.7272727272727
 10
204.54545454545456
 20
852.7272727272727
 97
0
 75
1
 76
1
 98
0
  0
LWPOLYLINE
  5
D9
330
17
100
AcDbEntity
  8
WALL
100
AcDbPolyline
 90
4
 70
1
 10
548.1818181818182
 20
859.0909090909091
 10
552.7272727272727
 20
859.0909090909091
 10
552.7272727272727
 20
834.5454545454546
 10
548.1818181818182
 20
834.5454545454546
  0
HATCH
  5
DA
330
17
100
AcDbEntity
  8
WALL
100
AcDbHatch
 10
0.0
 20
0.0
 30
0.0
210
0.0
220
0.0
230
1.0
  2
SOLID
 70
1
 71
0
 91
1
 92
3
 72
0
 73
1
 93
4
 10
548.1818181818182
 20
859.0909090909091
 10
552.7272727272727
 20
859.0909090909091
 10
552.7272727272727
 20
834.5454545454546
 10
548.1818181818182
 20
834.5454545454546
 97
0
 75
1
 76
1
 98
0
  0
LWPOLYLINE
  5
DB
330
17
100
AcDbEntity
  8
WALL
100
AcDbPolyline
 90
4
 70
1
 10
630.909090909091
 20
838.1818181818182
 10
640.909090909091
 20
838.1818181818182
 10
640.909090909091
 20
792.7272727272727
 10
630.909090909091
 20
792.7272727272727
  0
HATCH
  5
DC
330
17
100
AcDbEntity
  8
WALL
100
AcDbHatch
 10
0.0
 20
0.0
 30
0.0
210
0.0
220
0.0
230
1.0
  2
SOLID
 70
1
 71
0
 91
1
 92
3
 72
0
 73
1
 93
4
 10
630.909090909091
 20
838.1818181818182
 10
640.909090909091
 20
838.1818181818182
 10
640.909090909091
 20
792.7272727272727
 10
630.909090909091
 20
792.7272727272727
 97
0
 75
1
 76
1
 98
0
  0
LWPOLYLINE
  5
DD
330
17
100
AcDbEntity
  8
WALL
100
AcDbPolyline
 90
4
 70
1
 10
708.1818181818182
 20
837.2727272727274
 10
719.0909090909091
 20
837.2727272727274
 10
719.0909090909091
 20
763.6363636363637
 10
708.1818181818182
 20
763.6363636363637
  0
HATCH
  5
DE
330
17
100
AcDbEntity
  8
WALL
100
AcDbHatch
 10
0.0
 20
0.0
 30
0.0
210
0.0
220
0.0
230
1.0
  2
SOLID
 70
1
 71
0
 91
1
 92
3
 72
0
 73
1
 93
4
 10
708.1818181818182
 20
837.2727272727274
 10
719.0909090909091
 20
837.2727272727274
 10
719.0909090909091
 20
763.6363636363637
 10
708.1818181818182
 20
763.6363636363637
 97
0
 75
1
 76
1
 98
0
  0
LWPOLYLINE
  5
DF
330
17
100
AcDbEntity
  8
WALL
100
AcDbPolyline
 90
4
 70
1
 10
426.3636363636364
 20
836.3636363636365
 10
440.90909090909093
 20
836.3636363636365
 10
440.90909090909093
 20
780.0000000000001
 10
426.3636363636364
 20
780.0000000000001
  0
HATCH
  5
E0
330
17
100
AcDbEntity
  8
WALL
100
AcDbHatch
 10
0.0
 20
0.0
 30
0.0
210
0.0
220
0.0
230
1.0
  2
SOLID
 70
1
 71
0
 91
1
 92
3
 72
0
 73
1
 93
4
 10
426.3636363636364
 20
836.3636363636365
 10
440.90909090909093
 20
836.3636363636365
 10
440.90909090909093
 20
780.0000000000001
 10
426.3636363636364
 20
780.0000000000001
 97
0
 75
1
 76
1
 98
0
  0
LWPOLYLINE
  5
E1
330
17
100
AcDbEntity
  8
WALL
100
AcDbPolyline
 90
4
 70
1
 10
442.72727272727275
 20
820.909090909091
 10
443.6363636363637
 20
820.909090909091
 10
443.6363636363637
 20
799.0909090909091
 10
442.72727272727275
 20
799.0909090909091
  0
HATCH
  5
E2
330
17
100
AcDbEntity
  8
WALL
100
AcDbHatch
 10
0.0
 20
0.0
 30
0.0
210
0.0
220
0.0
230
1.0
  2
SOLID
 70
1
 71
0
 91
1
 92
3
 72
0
 73
1
 93
4
 10
442.72727272727275
 20
820.909090909091
 10
443.6363636363637
 20
820.909090909091
 10
443.6363636363637
 20
799.0909090909091
 10
442.72727272727275
 20
799.0909090909091
 97
0
 75
1
 76
1
 98
0
  0
LWPOLYLINE
  5
E3
330
17
100
AcDbEntity
  8
WALL
100
AcDbPolyline
 90
4
 70
1
 10
641.8181818181819
 20
814.5454545454546
 10
642.7272727272727
 20
814.5454545454546
 10
642.7272727272727
 20
787.2727272727274
 10
641.8181818181819
 20
787.2727272727274
  0
HATCH
  5
E4
330
17
100
AcDbEntity
  8
WALL
100
AcDbHatch
 10
0.0
 20
0.0
 30
0.0
210
0.0
220
0.0
230
1.0
  2
SOLID
 70
1
 71
0
 91
1
 92
3
 72
0
 73
1
 93
4
 10
641.8181818181819
 20
814.5454545454546
 10
642.7272727272727
 20
814.5454545454546
 10
642.7272727272727
 20
787.2727272727274
 10
641.8181818181819
 20
787.2727272727274
 97
0
 75
1
 76
1
 98
0
  0
LWPOLYLINE
  5
E5
330
17
100
AcDbEntity
  8
WALL
100
AcDbPolyline
 90
4
 70
1
 10
548.1818181818182
 20
794.5454545454546
 10
553.6363636363637
 20
794.5454545454546
 10
553.6363636363637
 20
769.0909090909091
 10
548.1818181818182
 20
769.0909090909091
  0
HATCH
  5
E6
330
17
100
AcDbEntity
  8
WALL
100
AcDbHatch
 10
0.0
 20
0.0
 30
0.0
210
0.0
220
0.0
230
1.0
  2
SOLID
 70
1
 71
0
 91
1
 92
3
 72
0
 73
1
 93
4
 10
548.1818181818182
 20
794.5454545454546
 10
553.6363636363637
 20
794.5454545454546
 10
553.6363636363637
 20
769.0909090909091
 10
548.1818181818182
 20
769.0909090909091
 97
0
 75
1
 76
1
 98
0
  0
LWPOLYLINE
  5
E7
330
17
100
AcDbEntity
  8
WALL
100
AcDbPolyline
 90
4
 70
1
 10
711.8181818181819
 20
764.5454545454546
 10
718.1818181818182
 20
764.5454545454546
 10
718.1818181818182
 20
740.0000000000001
 10
711.8181818181819
 20
740.0000000000001
  0
HATCH
  5
E8
330
17
100
AcDbEntity
  8
WALL
100
AcDbHatch
 10
0.0
 20
0.0
 30
0.0
210
0.0
220
0.0
230
1.0
  2
SOLID
 70
1
 71
0
 91
1
 92
3
 72
0
 73
1
 93
4
 10
711.8181818181819
 20
764.5454545454546
 10
718.1818181818182
 20
764.5454545454546
 10
718.1818181818182
 20
740.0000000000001
 10
711.8181818181819
 20
740.0000000000001
 97
0
 75
1
 76
1
 98
0
  0
LWPOLYLINE
  5
E9
330
17
100
AcDbEntity
  8
WALL
100
AcDbPolyline
 90
4
 70
1
 10
424.54545454545456
 20
750.0000000000001
 10
435.4545454545455
 20
750.0000000000001
 10
435.4545454545455
 20
678.1818181818182
 10
424.54545454545456
 20
678.1818181818182
  0
HATCH
  5
EA
330
17
100
AcDbEntity
  8
WALL
100
AcDbHatch
 10
0.0
 20
0.0
 30
0.0
210
0.0
220
0.0
230
1.0
  2
SOLID
 70
1
 71
0
 91
1
 92
3
 72
0
 73
1
 93
4
 10
424.54545454545456
 20
750.0000000000001
 10
435.4545454545455
 20
750.0000000000001
 10
435.4545454545455
 20
678.1818181818182
 10
424.54545454545456
 20
678.1818181818182
 97
0
 75
1
 76
1
 98
0
  0
LWPOLYLINE
  5
EB
330
17
100
AcDbEntity
  8
WALL
100
AcDbPolyline
 90
4
 70
1
 10
437.2727272727273
 20
732.7272727272727
 10
439.0909090909091
 20
732.7272727272727
 10
439.0909090909091
 20
710.0000000000001
 10
437.2727272727273
 20
710.0000000000001
  0
HATCH
  5
EC
330
17
100
AcDbEntity
  8
WALL
100
AcDbHatch
 10
0.0
 20
0.0
 30
0.0
210
0.0
220
0.0
230
1.0
  2
SOLID
 70
1
 71
0
 91
1
 92
3
 72
0
 73
1
 93
4
 10
437.2727272727273
 20
732.7272727272727
 10
439.0909090909091
 20
732.7272727272727
 10
439.0909090909091
 20
710.0000000000001
 10
437.2727272727273
 20
710.0000000000001
 97
0
 75
1
 76
1
 98
0
  0
LWPOLYLINE
  5
ED
330
17
100
AcDbEntity
  8
WALL
100
AcDbPolyline
 90
4
 70
1
 10
440.90909090909093
 20
606.3636363636364
 10
453.6363636363637
 20
606.3636363636364
 10
453.6363636363637
 20
556.3636363636364
 10
440.90909090909093
 20
556.3636363636364
  0
HATCH
  5
EE
330
17
100
AcDbEntity
  8
WALL
100
AcDbHatch
 10
0.0
 20
0.0
 30
0.0
210
0.0
220
0.0
230
1.0
  2
SOLID
 70
1
 71
0
 91
1
 92
3
 72
0
 73
1
 93
4
 10
440.90909090909093
 20
606.3636363636364
 10
453.6363636363637
 20
606.3636363636364
 10
453.6363636363637
 20
556.3636363636364
 10
440.90909090909093
 20
556.3636363636364
 97
0
 75
1
 76
1
 98
0
  0
LWPOLYLINE
  5
EF
330
17
100
AcDbEntity
  8
WALL
100
AcDbPolyline
 90
4
 70
1
 10
952.7272727272729
 20
607.2727272727274
 10
966.3636363636365
 20
607.2727272727274
 10
966.3636363636365
 20
549.0909090909091
 10
952.7272727272729
 20
549.0909090909091
  0
HATCH
  5
F0
330
17
100
AcDbEntity
  8
WALL
100
AcDbHatch
 10
0.0
 20
0.0
 30
0.0
210
0.0
220
0.0
230
1.0
  2
SOLID
 70
1
 71
0
 91
1
 92
3
 72
0
 73
1
 93
4
 10
952.7272727272729
 20
607.2727272727274
 10
966.3636363636365
 20
607.2727272727274
 10
966.3636363636365
 20
549.0909090909091
 10
952.7272727272729
 20
549.0909090909091
 97
0
 75
1
 76
1
 98
0
  0
LWPOLYLINE
  5
F1
330
17
100
AcDbEntity
  8
WALL
100
AcDbPolyline
 90
4
 70
1
 10
190.90909090909093
 20
603.6363636363637
 10
197.27272727272728
 20
603.6363636363637
 10
197.27272727272728
 20
572.7272727272727
 10
190.90909090909093
 20
572.7272727272727
  0
HATCH
  5
F2
330
17
100
AcDbEntity
  8
WALL
100
AcDbHatch
 10
0.0
 20
0.0
 30
0.0
210
0.0
220
0.0
230
1.0
  2
SOLID
 70
1
 71
0
 91
1
 92
3
 72
0
 73
1
 93
4
 10
190.90909090909093
 20
603.6363636363637
 10
197.27272727272728
 20
603.6363636363637
 10
197.27272727272728
 20
572.7272727272727
 10
190.90909090909093
 20
572.7272727272727
 97
0
 75
1
 76
1
 98
0
  0
LWPOLYLINE
  5
F3
330
17
100
AcDbEntity
  8
WALL
100
AcDbPolyline
 90
4
 70
1
 10
186.36363636363637
 20
582.7272727272727
 10
190.00000000000003
 20
582.7272727272727
 10
190.00000000000003
 20
552.7272727272727
 10
186.36363636363637
 20
552.7272727272727
  0
HATCH
  5
F4
330
17
100
AcDbEntity
  8
WALL
100
AcDbHatch
 10
0.0
 20
0.0
 30
0.0
210
0.0
220
0.0
230
1.0
  2
SOLID
 70
1
 71
0
 91
1
 92
3
 72
0
 73
1
 93
4
 10
186.36363636363637
 20
582.7272727272727
 10
190.00000000000003
 20
582.7272727272727
 10
190.00000000000003
 20
552.7272727272727
 10
186.36363636363637
 20
552.7272727272727
 97
0
 75
1
 76
1
 98
0
  0
LWPOLYLINE
  5
F5
330
17
100
AcDbEntity
  8
WALL
100
AcDbPolyline
 90
4
 70
1
 10
560.0
 20
582.7272727272727
 10
563.6363636363637
 20
582.7272727272727
 10
563.6363636363637
 20
560.0
 10
560.0
 20
560.0
  0
HATCH
  5
F6
330
17
100
AcDbEntity
  8
WALL
100
AcDbHatch
 10
0.0
 20
0.0
 30
0.0
210
0.0
220
0.0
230
1.0
  2
SOLID
 70
1
 71
0
 91
1
 92
3
 72
0
 73
1
 93
4
 10
560.0
 20
582.7272727272727
 10
563.6363636363637
 20
582.7272727272727
 10
563.6363636363637
 20
560.0
 10
560.0
 20
560.0
 97
0
 75
1
 76
1
 98
0
  0
LWPOLYLINE
  5
F7
330
17
100
AcDbEntity
  8
WALL
100
AcDbPolyline
 90
4
 70
1
 10
89.0909090909091
 20
551.8181818181819
 10
97.27272727272728
 20
551.8181818181819
 10
97.27272727272728
 20
480.00000000000006
 10
89.0909090909091
 20
480.00000000000006
  0
HATCH
  5
F8
330
17
100
AcDbEntity
  8
WALL
100
AcDbHatch
 10
0.0
 20
0.0
 30
0.0
210
0.0
220
0.0
230
1.0
  2
SOLID
 70
1
 71
0
 91
1
 92
3
 72
0
 73
1
 93
4
 10
89.0909090909091
 20
551.8181818181819
 10
97.27272727272728
 20
551.8181818181819
 10
97.27272727272728
 20
480.00000000000006
 10
89.0909090909091
 20
480.00000000000006
 97
0
 75
1
 76
1
 98
0
  0
LWPOLYLINE
  5
F9
330
17
100
AcDbEntity
  8
WALL
100
AcDbPolyline
 90
4
 70
1
 10
444.54545454545456
 20
543.6363636363637
 10
450.00000000000006
 20
543.6363636363637
 10
450.00000000000006
 20
478.18181818181824
 10
444.54545454545456
 20
478.18181818181824
  0
HATCH
  5
FA
330
17
100
AcDbEntity
  8
WALL
100
AcDbHatch
 10
0.0
 20
0.0
 30
0.0
210
0.0
220
0.0
230
1.0
  2
SOLID
 70
1
 71
0
 91
1
 92
3
 72
0
 73
1
 93
4
 10
444.54545454545456
 20
543.6363636363637
 10
450.00000000000006
 20
543.6363636363637
 10
450.00000000000006
 20
478.18181818181824
 10
444.54545454545456
 20
478.18181818181824
 97
0
 75
1
 76
1
 98
0
  0
LWPOLYLINE
  5
FB
330
17
100
AcDbEntity
  8
WALL
100
AcDbPolyline
 90
4
 70
1
 10
8.181818181818183
 20
541.8181818181819
 10
24.545454545454547
 20
541.8181818181819
 10
24.545454545454547
 20
316.3636363636364
 10
8.181818181818183
 20
316.3636363636364
  0
HATCH
  5
FC
330
17
100
AcDbEntity
  8
WALL
100
AcDbHatch
 10
0.0
 20
0.0
 30
0.0
210
0.0
220
0.0
230
1.0
  2
SOLID
 70
1
 71
0
 91
1
 92
3
 72
0
 73
1
 93
4
 10
8.181818181818183
 20
541.8181818181819
 10
24.545454545454547
 20
541.8181818181819
 10
24.545454545454547
 20
316.3636363636364
 10
8.181818181818183
 20
316.3636363636364
 97
0
 75
1
 76
1
 98
0
  0
LWPOLYLINE
  5
FD
330
17
100
AcDbEntity
  8
WALL
100
AcDbPolyline
 90
4
 70
1
 10
35.45454545454546
 20
533.6363636363637
 10
40.909090909090914
 20
533.6363636363637
 10
40.909090909090914
 20
494.5454545454546
 10
35.45454545454546
 20
494.5454545454546
  0
HATCH
  5
FE
330
17
100
AcDbEntity
  8
WALL
100
AcDbHatch
 10
0.0
 20
0.0
 30
0.0
210
0.0
220
0.0
230
1.0
  2
SOLID
 70
1
 71
0
 91
1
 92
3
 72
0
 73
1
 93
4
 10
35.45454545454546
 20
533.6363636363637
 10
40.909090909090914
 20
533.6363636363637
 10
40.909090909090914
 20
494.5454545454546
 10
35.45454545454546
 20
494.5454545454546
 97
0
 75
1
 76
1
 98
0
  0
LWPOLYLINE
  5
FF
330
17
100
AcDbEntity
  8
WALL
100
AcDbPolyline
 90
4
 70
1
 10
948.1818181818182
 20
467.2727272727273
 10
966.3636363636365
 20
467.2727272727273
 10
966.3636363636365
 20
380.00000000000006
 10
948.1818181818182
 20
380.00000000000006
  0
HATCH
  5
100
330
17
100
AcDbEntity
  8
WALL
100
AcDbHatch
 10
0.0
 20
0.0
 30
0.0
210
0.0
220
0.0
230
1.0
  2
SOLID
 70
1
 71
0
 91
1
 92
3
 72
0
 73
1
 93
4
 10
948.1818181818182
 20
467.2727272727273
 10
966.3636363636365
 20
467.2727272727273
 10
966.3636363636365
 20
380.00000000000006
 10
948.1818181818182
 20
380.00000000000006
 97
0
 75
1
 76
1
 98
0
  0
LWPOLYLINE
  5
101
330
17
100
AcDbEntity
  8
WALL
100
AcDbPolyline
 90
4
 70
1
 10
790.0000000000001
 20
455.4545454545455
 10
799.0909090909091
 20
455.4545454545455
 10
799.0909090909091
 20
380.00000000000006
 10
790.0000000000001
 20
380.00000000000006
  0
HATCH
  5
102
330
17
100
AcDbEntity
  8
WALL
100
AcDbHatch
 10
0.0
 20
0.0
 30
0.0
210
0.0
220
0.0
230
1.0
  2
SOLID
 70
1
 71
0
 91
1
 92
3
 72
0
 73
1
 93
4
 10
790.0000000000001
 20
455.4545454545455
 10
799.0909090909091
 20
455.4545454545455
 10
799.0909090909091
 20
380.00000000000006
 10
790.0000000000001
 20
380.00000000000006
 97
0
 75
1
 76
1
 98
0
  0
LWPOLYLINE
  5
103
330
17
100
AcDbEntity
  8
WALL
100
AcDbPolyline
 90
4
 70
1
 10
100.90909090909092
 20
446.36363636363643
 10
105.45454545454547
 20
446.36363636363643
 10
105.45454545454547
 20
423.6363636363637
 10
100.90909090909092
 20
423.6363636363637
  0
HATCH
  5
104
330
17
100
AcDbEntity
  8
WALL
100
AcDbHatch
 10
0.0
 20
0.0
 30
0.0
210
0.0
220
0.0
230
1.0
  2
SOLID
 70
1
 71
0
 91
1
 92
3
 72
0
 73
1
 93
4
 10
100.90909090909092
 20
446.36363636363643
 10
105.45454545454547
 20
446.36363636363643
 10
105.45454545454547
 20
423.6363636363637
 10
100.90909090909092
 20
423.6363636363637
 97
0
 75
1
 76
1
 98
0
  0
LWPOLYLINE
  5
105
330
17
100
AcDbEntity
  8
WALL
100
AcDbPolyline
 90
4
 70
1
 10
833.6363636363637
 20
444.54545454545456
 10
839.0909090909091
 20
444.54545454545456
 10
839.0909090909091
 20
412.72727272727275
 10
833.6363636363637
 20
412.72727272727275
  0
HATCH
  5
106
330
17
100
AcDbEntity
  8
WALL
100
AcDbHatch
 10
0.0
 20
0.0
 30
0.0
210
0.0
220
0.0
230
1.0
  2
SOLID
 70
1
 71
0
 91
1
 92
3
 72
0
 73
1
 93
4
 10
833.6363636363637
 20
444.54545454545456
 10
839.0909090909091
 20
444.54545454545456
 10
839.0909090909091
 20
412.72727272727275
 10
833.6363636363637
 20
412.72727272727275
 97
0
 75
1
 76
1
 98
0
  0
LWPOLYLINE
  5
107
330
17
100
AcDbEntity
  8
WALL
100
AcDbPolyline
 90
4
 70
1
 10
848.1818181818182
 20
425.4545454545455
 10
860.909090909091
 20
425.4545454545455
 10
860.909090909091
 20
380.00000000000006
 10
848.1818181818182
 20
380.00000000000006
  0
HATCH
  5
108
330
17
100
AcDbEntity
  8
WALL
100
AcDbHatch
 10
0.0
 20
0.0
 30
0.0
210
0.0
220
0.0
230
1.0
  2
SOLID
 70
1
 71
0
 91
1
 92
3
 72
0
 73
1
 93
4
 10
848.1818181818182
 20
425.4545454545455
 10
860.909090909091
 20
425.4545454545455
 10
860.909090909091
 20
380.00000000000006
 10
848.1818181818182
 20
380.00000000000006
 97
0
 75
1
 76
1
 98
0
  0
LWPOLYLINE
  5
109
330
17
100
AcDbEntity
  8
WALL
100
AcDbPolyline
 90
4
 70
1
 10
38.18181818181819
 20
398.18181818181824
 10
44.54545454545455
 20
398.18181818181824
 10
44.54545454545455
 20
374.54545454545456
 10
38.18181818181819
 20
374.54545454545456
  0
HATCH
  5
10A
330
17
100
AcDbEntity
  8
WALL
100
AcDbHatch
 10
0.0
 20
0.0
 30
0.0
210
0.0
220
0.0
230
1.0
  2
SOLID
 70
1
 71
0
 91
1
 92
3
 72
0
 73
1
 93
4
 10
38.18181818181819
 20
398.18181818181824
 10
44.54545454545455
 20
398.18181818181824
 10
44.54545454545455
 20
374.54545454545456
 10
38.18181818181819
 20
374.54545454545456
 97
0
 75
1
 76
1
 98
0
  0
LWPOLYLINE
  5
10B
330
17
100
AcDbEntity
  8
WALL
100
AcDbPolyline
 90
4
 70
1
 10
989.0909090909092
 20
396.3636363636364
 10
1006.3636363636365
 20
396.3636363636364
 10
1006.3636363636365
 20
310.90909090909093
 10
989.0909090909092
 20
310.90909090909093
  0
HATCH
  5
10C
330
17
100
AcDbEntity
  8
WALL
100
AcDbHatch
 10
0.0
 20
0.0
 30
0.0
210
0.0
220
0.0
230
1.0
  2
SOLID
 70
1
 71
0
 91
1
 92
3
 72
0
 73
1
 93
4
 10
989.0909090909092
 20
396.3636363636364
 10
1006.3636363636365
 20
396.3636363636364
 10
1006.3636363636365
 20
310.90909090909093
 10
989.0909090909092
 20
310.90909090909093
 97
0
 75
1
 76
1
 98
0
  0
LWPOLYLINE
  5
10D
330
17
100
AcDbEntity
  8
WALL
100
AcDbPolyline
 90
4
 70
1
 10
220.90909090909093
 20
385.4545454545455
 10
237.27272727272728
 20
385.4545454545455
 10
237.27272727272728
 20
316.3636363636364
 10
220.90909090909093
 20
316.3636363636364
  0
HATCH
  5
10E
330
17
100
AcDbEntity
  8
WALL
100
AcDbHatch
 10
0.0
 20
0.0
 30
0.0
210
0.0
220
0.0
230
1.0
  2
SOLID
 70
1
 71
0
 91
1
 92
3
 72
0
 73
1
 93
4
 10
220.90909090909093
 20
385.4545454545455
 10
237.27272727272728
 20
385.4545454545455
 10
237.27272727272728
 20
316.3636363636364
 10
220.90909090909093
 20
316.3636363636364
 97
0
 75
1
 76
1
 98
0
  0
LWPOLYLINE
  5
10F
330
17
100
AcDbEntity
  8
WALL
100
AcDbPolyline
 90
4
 70
1
 10
242.72727272727275
 20
385.4545454545455
 10
248.18181818181822
 20
385.4545454545455
 10
248.18181818181822
 20
349.0909090909091
 10
242.72727272727275
 20
349.0909090909091
  0
HATCH
  5
110
330
17
100
AcDbEntity
  8
WALL
100
AcDbHatch
 10
0.0
 20
0.0
 30
0.0
210
0.0
220
0.0
230
1.0
  2
SOLID
 70
1
 71
0
 91
1
 92
3
 72
0
 73
1
 93
4
 10
242.72727272727275
 20
385.4545454545455
 10
248.18181818181822
 20
385.4545454545455
 10
248.18181818181822
 20
349.0909090909091
 10
242.72727272727275
 20
349.0909090909091
 97
0
 75
1
 76
1
 98
0
  0
LWPOLYLINE
  5
111
330
17
100
AcDbEntity
  8
WALL
100
AcDbPolyline
 90
4
 70
1
 10
670.909090909091
 20
360.90909090909093
 10
677.2727272727274
 20
360.90909090909093
 10
677.2727272727274
 20
330.90909090909093
 10
670.909090909091
 20
330.90909090909093
  0
HATCH
  5
112
330
17
100
AcDbEntity
  8
WALL
100
AcDbHatch
 10
0.0
 20
0.0
 30
0.0
210
0.0
220
0.0
230
1.0
  2
SOLID
 70
1
 71
0
 91
1
 92
3
 72
0
 73
1
 93
4
 10
670.909090909091
 20
360.90909090909093
 10
677.2727272727274
 20
360.90909090909093
 10
677.2727272727274
 20
330.90909090909093
 10
670.909090909091
 20
330.90909090909093
 97
0
 75
1
 76
1
 98
0
  0
LWPOLYLINE
  5
113
330
17
100
AcDbEntity
  8
WALL
100
AcDbPolyline
 90
4
 70
1
 10
985.4545454545455
 20
359.0909090909091
 10
988.1818181818182
 20
359.0909090909091
 10
988.1818181818182
 20
327.2727272727273
 10
985.4545454545455
 20
327.2727272727273
  0
HATCH
  5
114
330
17
100
AcDbEntity
  8
WALL
100
AcDbHatch
 10
0.0
 20
0.0
 30
0.0
210
0.0
220
0.0
230
1.0
  2
SOLID
 70
1
 71
0
 91
1
 92
3
 72
0
 73
1
 93
4
 10
985.4545454545455
 20
359.0909090909091
 10
988.1818181818182
 20
359.0909090909091
 10
988.1818181818182
 20
327.2727272727273
 10
985.4545454545455
 20
327.2727272727273
 97
0
 75
1
 76
1
 98
0
  0
LWPOLYLINE
  5
115
330
17
100
AcDbEntity
  8
WALL
100
AcDbPolyline
 90
4
 70
1
 10
902.7272727272729
 20
358.1818181818182
 10
906.3636363636365
 20
358.1818181818182
 10
906.3636363636365
 20
326.3636363636364
 10
902.7272727272729
 20
326.3636363636364
  0
HATCH
  5
116
330
17
100
AcDbEntity
  8
WALL
100
AcDbHatch
 10
0.0
 20
0.0
 30
0.0
210
0.0
220
0.0
230
1.0
  2
SOLID
 70
1
 71
0
 91
1
 92
3
 72
0
 73
1
 93
4
 10
902.7272727272729
 20
358.1818181818182
 10
906.3636363636365
 20
358.1818181818182
 10
906.3636363636365
 20
326.3636363636364
 10
902.7272727272729
 20
326.3636363636364
 97
0
 75
1
 76
1
 98
0
  0
LWPOLYLINE
  5
117
330
17
100
AcDbEntity
  8
WALL
100
AcDbPolyline
 90
4
 70
1
 10
936.3636363636365
 20
350.90909090909093
 10
937.2727272727274
 20
350.90909090909093
 10
937.2727272727274
 20
329.0909090909091
 10
936.3636363636365
 20
329.0909090909091
  0
HATCH
  5
118
330
17
100
AcDbEntity
  8
WALL
100
AcDbHatch
 10
0.0
 20
0.0
 30
0.0
210
0.0
220
0.0
230
1.0
  2
SOLID
 70
1
 71
0
 91
1
 92
3
 72
0
 73
1
 93
4
 10
936.3636363636365
 20
350.90909090909093
 10
937.2727272727274
 20
350.90909090909093
 10
937.2727272727274
 20
329.0909090909091
 10
936.3636363636365
 20
329.0909090909091
 97
0
 75
1
 76
1
 98
0
  0
LWPOLYLINE
  5
119
330
17
100
AcDbEntity
  8
WALL
100
AcDbPolyline
 90
4
 70
1
 10
666.3636363636364
 20
349.0909090909091
 10
670.0000000000001
 20
349.0909090909091
 10
670.0000000000001
 20
325.4545454545455
 10
666.3636363636364
 20
325.4545454545455
  0
HATCH
  5
11A
330
17
100
AcDbEntity
  8
WALL
100
AcDbHatch
 10
0.0
 20
0.0
 30
0.0
210
0.0
220
0.0
230
1.0
  2
SOLID
 70
1
 71
0
 91
1
 92
3
 72
0
 73
1
 93
4
 10
666.3636363636364
 20
349.0909090909091
 10
670.0000000000001
 20
349.0909090909091
 10
670.0000000000001
 20
325.4545454545455
 10
666.3636363636364
 20
325.4545454545455
 97
0
 75
1
 76
1
 98
0
  0
LWPOLYLINE
  5
11B
330
17
100
AcDbEntity
  8
WALL
100
AcDbPolyline
 90
4
 70
1
 10
300.90909090909093
 20
347.2727272727273
 10
315.4545454545455
 20
347.2727272727273
 10
315.4545454545455
 20
223.63636363636365
 10
300.90909090909093
 20
223.63636363636365
  0
HATCH
  5
11C
330
17
100
AcDbEntity
  8
WALL
100
AcDbHatch
 10
0.0
 20
0.0
 30
0.0
210
0.0
220
0.0
230
1.0
  2
SOLID
 70
1
 71
0
 91
1
 92
3
 72
0
 73
1
 93
4
 10
300.90909090909093
 20
347.2727272727273
 10
315.4545454545455
 20
347.2727272727273
 10
315.4545454545455
 20
223.63636363636365
 10
300.90909090909093
 20
223.63636363636365
 97
0
 75
1
 76
1
 98
0
  0
LWPOLYLINE
  5
11D
330
17
100
AcDbEntity
  8
WALL
100
AcDbPolyline
 90
4
 70
1
 10
608.1818181818182
 20
335.4545454545455
 10
613.6363636363637
 20
335.4545454545455
 10
613.6363636363637
 20
305.4545454545455
 10
608.1818181818182
 20
305.4545454545455
  0
HATCH
  5
11E
330
17
100
AcDbEntity
  8
WALL
100
AcDbHatch
 10
0.0
 20
0.0
 30
0.0
210
0.0
220
0.0
230
1.0
  2
SOLID
 70
1
 71
0
 91
1
 92
3
 72
0
 73
1
 93
4
 10
608.1818181818182
 20
335.4545454545455
 10
613.6363636363637
 20
335.4545454545455
 10
613.6363636363637
 20
305.4545454545455
 10
608.1818181818182
 20
305.4545454545455
 97
0
 75
1
 76
1
 98
0
  0
LWPOLYLINE
  5
11F
330
17
100
AcDbEntity
  8
WALL
100
AcDbPolyline
 90
4
 70
1
 10
444.54545454545456
 20
314.54545454545456
 10
451.81818181818187
 20
314.54545454545456
 10
451.81818181818187
 20
272.72727272727275
 10
444.54545454545456
 20
272.72727272727275
  0
HATCH
  5
120
330
17
100
AcDbEntity
  8
WALL
100
AcDbHatch
 10
0.0
 20
0.0
 30
0.0
210
0.0
220
0.0
230
1.0
  2
SOLID
 70
1
 71
0
 91
1
 92
3
 72
0
 73
1
 93
4
 10
444.54545454545456
 20
314.54545454545456
 10
451.81818181818187
 20
314.54545454545456
 10
451.81818181818187
 20
272.72727272727275
 10
444.54545454545456
 20
272.72727272727275
 97
0
 75
1
 76
1
 98
0
  0
LWPOLYLINE
  5
121
330
17
100
AcDbEntity
  8
WALL
100
AcDbPolyline
 90
4
 70
1
 10
896.3636363636365
 20
280.90909090909093
 10
900.909090909091
 20
280.90909090909093
 10
900.909090909091
 20
256.3636363636364
 10
896.3636363636365
 20
256.3636363636364
  0
HATCH
  5
122
330
17
100
AcDbEntity
  8
WALL
100
AcDbHatch
 10
0.0
 20
0.0
 30
0.0
210
0.0
220
0.0
230
1.0
  2
SOLID
 70
1
 71
0
 91
1
 92
3
 72
0
 73
1
 93
4
 10
896.3636363636365
 20
280.90909090909093
 10
900.909090909091
 20
280.90909090909093
 10
900.909090909091
 20
256.3636363636364
 10
896.3636363636365
 20
256.3636363636364
 97
0
 75
1
 76
1
 98
0
  0
LWPOLYLINE
  5
123
330
17
100
AcDbEntity
  8
WALL
100
AcDbPolyline
 90
4
 70
1
 10
404.54545454545456
 20
275.4545454545455
 10
410.00000000000006
 20
275.4545454545455
 10
410.00000000000006
 20
243.63636363636365
 10
404.54545454545456
 20
243.63636363636365
  0
HATCH
  5
124
330
17
100
AcDbEntity
  8
WALL
100
AcDbHatch
 10
0.0
 20
0.0
 30
0.0
210
0.0
220
0.0
230
1.0
  2
SOLID
 70
1
 71
0
 91
1
 92
3
 72
0
 73
1
 93
4
 10
404.54545454545456
 20
275.4545454545455
 10
410.00000000000006
 20
275.4545454545455
 10
410.00000000000006
 20
243.63636363636365
 10
404.54545454545456
 20
243.63636363636365
 97
0
 75
1
 76
1
 98
0
  0
LWPOLYLINE
  5
125
330
17
100
AcDbEntity
  8
WALL
100
AcDbPolyline
 90
4
 70
1
 10
824.5454545454546
 20
243.63636363636365
 10
830.0000000000001
 20
243.63636363636365
 10
830.0000000000001
 20
187.27272727272728
 10
824.5454545454546
 20
187.27272727272728
  0
HATCH
  5
126
330
17
100
AcDbEntity
  8
WALL
100
AcDbHatch
 10
0.0
 20
0.0
 30
0.0
210
0.0
220
0.0
230
1.0
  2
SOLID
 70
1
 71
0
 91
1
 92
3
 72
0
 73
1
 93
4
 10
824.5454545454546
 20
243.63636363636365
 10
830.0000000000001
 20
243.63636363636365
 10
830.0000000000001
 20
187.27272727272728
 10
824.5454545454546
 20
187.27272727272728
 97
0
 75
1
 76
1
 98
0
  0
LWPOLYLINE
  5
127
330
17
100
AcDbEntity
  8
WALL
100
AcDbPolyline
 90
4
 70
1
 10
444.54545454545456
 20
239.09090909090912
 10
451.81818181818187
 20
239.09090909090912
 10
451.81818181818187
 20
198.1818181818182
 10
444.54545454545456
 20
198.1818181818182
  0
HATCH
  5
128
330
17
100
AcDbEntity
  8
WALL
100
AcDbHatch
 10
0.0
 20
0.0
 30
0.0
210
0.0
220
0.0
230
1.0
  2
SOLID
 70
1
 71
0
 91
1
 92
3
 72
0
 73
1
 93
4
 10
444.54545454545456
 20
239.09090909090912
 10
451.81818181818187
 20
239.09090909090912
 10
451.81818181818187
 20
198.1818181818182
 10
444.54545454545456
 20
198.1818181818182
 97
0
 75
1
 76
1
 98
0
  0
LWPOLYLINE
  5
129
330
17
100
AcDbEntity
  8
WALL
100
AcDbPolyline
 90
4
 70
1
 10
744.5454545454546
 20
239.09090909090912
 10
748.1818181818182
 20
239.09090909090912
 10
748.1818181818182
 20
210.90909090909093
 10
744.5454545454546
 20
210.90909090909093
  0
HATCH
  5
12A
330
17
100
AcDbEntity
  8
WALL
100
AcDbHatch
 10
0.0
 20
0.0
 30
0.0
210
0.0
220
0.0
230
1.0
  2
SOLID
 70
1
 71
0
 91
1
 92
3
 72
0
 73
1
 93
4
 10
744.5454545454546
 20
239.09090909090912
 10
748.1818181818182
 20
239.09090909090912
 10
748.1818181818182
 20
210.90909090909093
 10
744.5454545454546
 20
210.90909090909093
 97
0
 75
1
 76
1
 98
0
  0
LWPOLYLINE
  5
12B
330
17
100
AcDbEntity
  8
WALL
100
AcDbPolyline
 90
4
 70
1
 10
830.909090909091
 20
231.81818181818184
 10
837.2727272727274
 20
231.81818181818184
 10
837.2727272727274
 20
186.36363636363637
 10
830.909090909091
 20
186.36363636363637
  0
HATCH
  5
12C
330
17
100
AcDbEntity
  8
WALL
100
AcDbHatch
 10
0.0
 20
0.0
 30
0.0
210
0.0
220
0.0
230
1.0
  2
SOLID
 70
1
 71
0
 91
1
 92
3
 72
0
 73
1
 93
4
 10
830.909090909091
 20
231.81818181818184
 10
837.2727272727274
 20
231.81818181818184
 10
837.2727272727274
 20
186.36363636363637
 10
830.909090909091
 20
186.36363636363637
 97
0
 75
1
 76
1
 98
0
  0
LWPOLYLINE
  5
12D
330
17
100
AcDbEntity
  8
WALL
100
AcDbPolyline
 90
4
 70
1
 10
302.72727272727275
 20
220.90909090909093
 10
311.81818181818187
 20
220.90909090909093
 10
311.81818181818187
 20
180.00000000000003
 10
302.72727272727275
 20
180.00000000000003
  0
HATCH
  5
12E
330
17
100
AcDbEntity
  8
WALL
100
AcDbHatch
 10
0.0
 20
0.0
 30
0.0
210
0.0
220
0.0
230
1.0
  2
SOLID
 70
1
 71
0
 91
1
 92
3
 72
0
 73
1
 93
4
 10
302.72727272727275
 20
220.90909090909093
 10
311.81818181818187
 20
220.90909090909093
 10
311.81818181818187
 20
180.00000000000003
 10
302.72727272727275
 20
180.00000000000003
 97
0
 75
1
 76
1
 98
0
  0
LWPOLYLINE
  5
12F
330
17
100
AcDbEntity
  8
WALL
100
AcDbPolyline
 90
4
 70
1
 10
406.3636363636364
 20
191.81818181818184
 10
407.2727272727273
 20
191.81818181818184
 10
407.2727272727273
 20
170.00000000000003
 10
406.3636363636364
 20
170.00000000000003
  0
HATCH
  5
130
330
17
100
AcDbEntity
  8
WALL
100
AcDbHatch
 10
0.0
 20
0.0
 30
0.0
210
0.0
220
0.0
230
1.0
  2
SOLID
 70
1
 71
0
 91
1
 92
3
 72
0
 73
1
 93
4
 10
406.3636363636364
 20
191.81818181818184
 10
407.2727272727273
 20
191.81818181818184
 10
407.2727272727273
 20
170.00000000000003
 10
406.3636363636364
 20
170.00000000000003
 97
0
 75
1
 76
1
 98
0
  0
LWPOLYLINE
  5
131
330
17
100
AcDbEntity
  8
WALL
100
AcDbPolyline
 90
4
 70
1
 10
16.363636363636367
 20
77.27272727272728
 10
21.81818181818182
 20
77.27272727272728
 10
21.81818181818182
 20
55.45454545454546
 10
16.363636363636367
 20
55.45454545454546
  0
HATCH
  5
132
330
17
100
AcDbEntity
  8
WALL
100
AcDbHatch
 10
0.0
 20
0.0
 30
0.0
210
0.0
220
0.0
230
1.0
  2
SOLID
 70
1
 71
0
 91
1
 92
3
 72
0
 73
1
 93
4
 10
16.363636363636367
 20
77.27272727272728
 10
21.81818181818182
 20
77.27272727272728
 10
21.81818181818182
 20
55.45454545454546
 10
16.363636363636367
 20
55.45454545454546
 97
0
 75
1
 76
1
 98
0
  0
LINE
  5
133
330
17
100
AcDbEntity
  8
WINDOW
100
AcDbLine
 10
485.4545454545455
 20
839.0909090909091
 30
0.0
 11
506.36363636363643
 21
839.0909090909091
 31
0.0
  0
LINE
  5
134
330
17
100
AcDbEntity
  8
WINDOW
100
AcDbLine
 10
485.4545454545455
 20
834.2424242424242
 30
0.0
 11
506.36363636363643
 21
834.2424242424242
 31
0.0
  0
LINE
  5
135
330
17
100
AcDbEntity
  8
WINDOW
100
AcDbLine
 10
485.4545454545455
 20
829.3939393939395
 30
0.0
 11
506.36363636363643
 21
829.3939393939395
 31
0.0
  0
LINE
  5
136
330
17
100
AcDbEntity
  8
WINDOW
100
AcDbLine
 10
485.4545454545455
 20
824.5454545454546
 30
0.0
 11
506.36363636363643
 21
824.5454545454546
 31
0.0
  0
LINE
  5
137
330
17
100
AcDbEntity
  8
WINDOW
100
AcDbLine
 10
485.4545454545455
 20
839.0909090909091
 30
0.0
 11
485.4545454545455
 21
824.5454545454546
 31
0.0
  0
LINE
  5
138
330
17
100
AcDbEntity
  8
WINDOW
100
AcDbLine
 10
506.36363636363643
 20
839.0909090909091
 30
0.0
 11
506.36363636363643
 21
824.5454545454546
 31
0.0
  0
LINE
  5
139
330
17
100
AcDbEntity
  8
WINDOW
100
AcDbLine
 10
450.90909090909093
 20
795.4545454545455
 30
0.0
 11
457.2727272727273
 21
795.4545454545455
 31
0.0
  0
LINE
  5
13A
330
17
100
AcDbEntity
  8
WINDOW
100
AcDbLine
 10
450.90909090909093
 20
791.2121212121214
 30
0.0
 11
457.2727272727273
 21
791.2121212121214
 31
0.0
  0
LINE
  5
13B
330
17
100
AcDbEntity
  8
WINDOW
100
AcDbLine
 10
450.90909090909093
 20
786.969696969697
 30
0.0
 11
457.2727272727273
 21
786.969696969697
 31
0.0
  0
LINE
  5
13C
330
17
100
AcDbEntity
  8
WINDOW
100
AcDbLine
 10
450.90909090909093
 20
782.7272727272727
 30
0.0
 11
457.2727272727273
 21
782.7272727272727
 31
0.0
  0
LINE
  5
13D
330
17
100
AcDbEntity
  8
WINDOW
100
AcDbLine
 10
450.90909090909093
 20
795.4545454545455
 30
0.0
 11
450.90909090909093
 21
782.7272727272727
 31
0.0
  0
LINE
  5
13E
330
17
100
AcDbEntity
  8
WINDOW
100
AcDbLine
 10
457.2727272727273
 20
795.4545454545455
 30
0.0
 11
457.2727272727273
 21
782.7272727272727
 31
0.0
  0
LINE
  5
13F
330
17
100
AcDbEntity
  8
WINDOW
100
AcDbLine
 10
100.00000000000001
 20
568.1818181818182
 30
0.0
 11
216.36363636363637
 21
568.1818181818182
 31
0.0
  0
LINE
  5
140
330
17
100
AcDbEntity
  8
WINDOW
100
AcDbLine
 10
100.00000000000001
 20
563.3333333333335
 30
0.0
 11
216.36363636363637
 21
563.3333333333335
 31
0.0
  0
LINE
  5
141
330
17
100
AcDbEntity
  8
WINDOW
100
AcDbLine
 10
100.00000000000001
 20
558.4848484848485
 30
0.0
 11
216.36363636363637
 21
558.4848484848485
 31
0.0
  0
LINE
  5
142
330
17
100
AcDbEntity
  8
WINDOW
100
AcDbLine
 10
100.00000000000001
 20
553.6363636363637
 30
0.0
 11
216.36363636363637
 21
553.6363636363637
 31
0.0
  0
LINE
  5
143
330
17
100
AcDbEntity
  8
WINDOW
100
AcDbLine
 10
100.00000000000001
 20
568.1818181818182
 30
0.0
 11
100.00000000000001
 21
553.6363636363637
 31
0.0
  0
LINE
  5
144
330
17
100
AcDbEntity
  8
WINDOW
100
AcDbLine
 10
216.36363636363637
 20
568.1818181818182
 30
0.0
 11
216.36363636363637
 21
553.6363636363637
 31
0.0
  0
LINE
  5
145
330
17
100
AcDbEntity
  8
WINDOW
100
AcDbLine
 10
298.1818181818182
 20
562.7272727272727
 30
0.0
 11
305.4545454545455
 21
562.7272727272727
 31
0.0
  0
LINE
  5
146
330
17
100
AcDbEntity
  8
WINDOW
100
AcDbLine
 10
298.1818181818182
 20
559.6969696969699
 30
0.0
 11
305.4545454545455
 21
559.6969696969699
 31
0.0
  0
LINE
  5
147
330
17
100
AcDbEntity
  8
WINDOW
100
AcDbLine
 10
298.1818181818182
 20
556.6666666666666
 30
0.0
 11
305.4545454545455
 21
556.6666666666666
 31
0.0
  0
LINE
  5
148
330
17
100
AcDbEntity
  8
WINDOW
100
AcDbLine
 10
298.1818181818182
 20
553.6363636363637
 30
0.0
 11
305.4545454545455
 21
553.6363636363637
 31
0.0
  0
LINE
  5
149
330
17
100
AcDbEntity
  8
WINDOW
100
AcDbLine
 10
298.1818181818182
 20
562.7272727272727
 30
0.0
 11
298.1818181818182
 21
553.6363636363637
 31
0.0
  0
LINE
  5
14A
330
17
100
AcDbEntity
  8
WINDOW
100
AcDbLine
 10
305.4545454545455
 20
562.7272727272727
 30
0.0
 11
305.4545454545455
 21
553.6363636363637
 31
0.0
  0
LINE
  5
14B
330
17
100
AcDbEntity
  8
WINDOW
100
AcDbLine
 10
710.909090909091
 20
291.81818181818187
 30
0.0
 11
734.5454545454546
 21
291.81818181818187
 31
0.0
  0
LINE
  5
14C
330
17
100
AcDbEntity
  8
WINDOW
100
AcDbLine
 10
710.909090909091
 20
288.48484848484856
 30
0.0
 11
734.5454545454546
 21
288.48484848484856
 31
0.0
  0
LINE
  5
14D
330
17
100
AcDbEntity
  8
WINDOW
100
AcDbLine
 10
710.909090909091
 20
285.1515151515151
 30
0.0
 11
734.5454545454546
 21
285.1515151515151
 31
0.0
  0
LINE
  5
14E
330
17
100
AcDbEntity
  8
WINDOW
100
AcDbLine
 10
710.909090909091
 20
281.81818181818187
 30
0.0
 11
734.5454545454546
 21
281.81818181818187
 31
0.0
  0
LINE
  5
14F
330
17
100
AcDbEntity
  8
WINDOW
100
AcDbLine
 10
710.909090909091
 20
291.81818181818187
 30
0.0
 11
710.909090909091
 21
281.81818181818187
 31
0.0
  0
LINE
  5
150
330
17
100
AcDbEntity
  8
WINDOW
100
AcDbLine
 10
734.5454545454546
 20
291.81818181818187
 30
0.0
 11
734.5454545454546
 21
281.81818181818187
 31
0.0
  0
LINE
  5
151
330
17
100
AcDbEntity
  8
WINDOW
100
AcDbLine
 10
765.4545454545455
 20
291.81818181818187
 30
0.0
 11
823.6363636363637
 21
291.81818181818187
 31
0.0
  0
LINE
  5
152
330
17
100
AcDbEntity
  8
WINDOW
100
AcDbLine
 10
765.4545454545455
 20
288.48484848484856
 30
0.0
 11
823.6363636363637
 21
288.48484848484856
 31
0.0
  0
LINE
  5
153
330
17
100
AcDbEntity
  8
WINDOW
100
AcDbLine
 10
765.4545454545455
 20
285.1515151515151
 30
0.0
 11
823.6363636363637
 21
285.1515151515151
 31
0.0
  0
LINE
  5
154
330
17
100
AcDbEntity
  8
WINDOW
100
AcDbLine
 10
765.4545454545455
 20
281.81818181818187
 30
0.0
 11
823.6363636363637
 21
281.81818181818187
 31
0.0
  0
LINE
  5
155
330
17
100
AcDbEntity
  8
WINDOW
100
AcDbLine
 10
765.4545454545455
 20
291.81818181818187
 30
0.0
 11
765.4545454545455
 21
281.81818181818187
 31
0.0
  0
LINE
  5
156
330
17
100
AcDbEntity
  8
WINDOW
100
AcDbLine
 10
823.6363636363637
 20
291.81818181818187
 30
0.0
 11
823.6363636363637
 21
281.81818181818187
 31
0.0
  0
LINE
  5
157
330
17
100
AcDbEntity
  8
WINDOW
100
AcDbLine
 10
714.5454545454546
 20
132.72727272727275
 30
0.0
 11
844.5454545454546
 21
132.72727272727275
 31
0.0
  0
LINE
  5
158
330
17
100
AcDbEntity
  8
WINDOW
100
AcDbLine
 10
714.5454545454546
 20
129.69696969696966
 30
0.0
 11
844.5454545454546
 21
129.69696969696966
 31
0.0
  0
LINE
  5
159
330
17
100
AcDbEntity
  8
WINDOW
100
AcDbLine
 10
714.5454545454546
 20
126.66666666666671
 30
0.0
 11
844.5454545454546
 21
126.66666666666671
 31
0.0
  0
LINE
  5
15A
330
17
100
AcDbEntity
  8
WINDOW
100
AcDbLine
 10
714.5454545454546
 20
123.63636363636365
 30
0.0
 11
844.5454545454546
 21
123.63636363636365
 31
0.0
  0
LINE
  5
15B
330
17
100
AcDbEntity
  8
WINDOW
100
AcDbLine
 10
714.5454545454546
 20
132.72727272727275
 30
0.0
 11
714.5454545454546
 21
123.63636363636365
 31
0.0
  0
LINE
  5
15C
330
17
100
AcDbEntity
  8
WINDOW
100
AcDbLine
 10
844.5454545454546
 20
132.72727272727275
 30
0.0
 11
844.5454545454546
 21
123.63636363636365
 31
0.0
  0
LINE
  5
15D
330
17
100
AcDbEntity
  8
WINDOW
100
AcDbLine
 10
558.1818181818182
 20
33.63636363636364
 30
0.0
 11
683.6363636363637
 21
33.63636363636364
 31
0.0
  0
LINE
  5
15E
330
17
100
AcDbEntity
  8
WINDOW
100
AcDbLine
 10
558.1818181818182
 20
29.393939393939327
 30
0.0
 11
683.6363636363637
 21
29.393939393939327
 31
0.0
  0
LINE
  5
15F
330
17
100
AcDbEntity
  8
WINDOW
100
AcDbLine
 10
558.1818181818182
 20
25.151515151515223
 30
0.0
 11
683.6363636363637
 21
25.151515151515223
 31
0.0
  0
LINE
  5
160
330
17
100
AcDbEntity
  8
WINDOW
100
AcDbLine
 10
558.1818181818182
 20
20.90909090909091
 30
0.0
 11
683.6363636363637
 21
20.90909090909091
 31
0.0
  0
LINE
  5
161
330
17
100
AcDbEntity
  8
WINDOW
100
AcDbLine
 10
558.1818181818182
 20
33.63636363636364
 30
0.0
 11
558.1818181818182
 21
20.90909090909091
 31
0.0
  0
LINE
  5
162
330
17
100
AcDbEntity
  8
WINDOW
100
AcDbLine
 10
683.6363636363637
 20
33.63636363636364
 30
0.0
 11
683.6363636363637
 21
20.90909090909091
 31
0.0
  0
LINE
  5
163
330
17
100
AcDbEntity
  8
WINDOW
100
AcDbLine
 10
440.90909090909093
 20
556.3636363636364
 30
0.0
 11
440.90909090909093
 21
543.6363636363637
 31
0.0
  0
LINE
  5
164
330
17
100
AcDbEntity
  8
WINDOW
100
AcDbLine
 10
445.1515151515152
 20
556.3636363636364
 30
0.0
 11
445.1515151515152
 21
543.6363636363637
 31
0.0
  0
LINE
  5
165
330
17
100
AcDbEntity
  8
WINDOW
100
AcDbLine
 10
449.39393939393943
 20
556.3636363636364
 30
0.0
 11
449.39393939393943
 21
543.6363636363637
 31
0.0
  0
LINE
  5
166
330
17
100
AcDbEntity
  8
WINDOW
100
AcDbLine
 10
453.6363636363637
 20
556.3636363636364
 30
0.0
 11
453.6363636363637
 21
543.6363636363637
 31
0.0
  0
LINE
  5
167
330
17
100
AcDbEntity
  8
WINDOW
100
AcDbLine
 10
440.90909090909093
 20
556.3636363636364
 30
0.0
 11
453.6363636363637
 21
556.3636363636364
 31
0.0
  0
LINE
  5
168
330
17
100
AcDbEntity
  8
WINDOW
100
AcDbLine
 10
440.90909090909093
 20
543.6363636363637
 30
0.0
 11
453.6363636363637
 21
543.6363636363637
 31
0.0
  0
LINE
  5
169
330
17
100
AcDbEntity
  8
WINDOW
100
AcDbLine
 10
896.3636363636365
 20
326.3636363636364
 30
0.0
 11
896.3636363636365
 21
280.90909090909093
 31
0.0
  0
LINE
  5
16A
330
17
100
AcDbEntity
  8
WINDOW
100
AcDbLine
 10
899.6969696969697
 20
326.3636363636364
 30
0.0
 11
899.6969696969697
 21
280.90909090909093
 31
0.0
  0
LINE
  5
16B
330
17
100
AcDbEntity
  8
WINDOW
100
AcDbLine
 10
903.0303030303031
 20
326.3636363636364
 30
0.0
 11
903.0303030303031
 21
280.90909090909093
 31
0.0
  0
LINE
  5
16C
330
17
100
AcDbEntity
  8
WINDOW
100
AcDbLine
 10
906.3636363636365
 20
326.3636363636364
 30
0.0
 11
906.3636363636365
 21
280.90909090909093
 31
0.0
  0
LINE
  5
16D
330
17
100
AcDbEntity
  8
WINDOW
100
AcDbLine
 10
896.3636363636365
 20
326.3636363636364
 30
0.0
 11
906.3636363636365
 21
326.3636363636364
 31
0.0
  0
LINE
  5
16E
330
17
100
AcDbEntity
  8
WINDOW
100
AcDbLine
 10
896.3636363636365
 20
280.90909090909093
 30
0.0
 11
906.3636363636365
 21
280.90909090909093
 31
0.0
  0
LINE
  5
16F
330
17
100
AcDbEntity
  8
WINDOW
100
AcDbLine
 10
950.909090909091
 20
838.1818181818182
 30
0.0
 11
950.909090909091
 21
607.2727272727274
 31
0.0
  0
LINE
  5
170
330
17
100
AcDbEntity
  8
WINDOW
100
AcDbLine
 10
956.0606060606062
 20
838.1818181818182
 30
0.0
 11
956.0606060606062
 21
607.2727272727274
 31
0.0
  0
LINE
  5
171
330
17
100
AcDbEntity
  8
WINDOW
100
AcDbLine
 10
961.2121212121212
 20
838.1818181818182
 30
0.0
 11
961.2121212121212
 21
607.2727272727274
 31
0.0
  0
LINE
  5
172
330
17
100
AcDbEntity
  8
WINDOW
100
AcDbLine
 10
966.3636363636365
 20
838.1818181818182
 30
0.0
 11
966.3636363636365
 21
607.2727272727274
 31
0.0
  0
LINE
  5
173
330
17
100
AcDbEntity
  8
WINDOW
100
AcDbLine
 10
950.909090909091
 20
838.1818181818182
 30
0.0
 11
966.3636363636365
 21
838.1818181818182
 31
0.0
  0
LINE
  5
174
330
17
100
AcDbEntity
  8
WINDOW
100
AcDbLine
 10
950.909090909091
 20
607.2727272727274
 30
0.0
 11
966.3636363636365
 21
607.2727272727274
 31
0.0
  0
LINE
  5
175
330
17
100
AcDbEntity
  8
WINDOW
100
AcDbLine
 10
948.1818181818182
 20
549.0909090909091
 30
0.0
 11
948.1818181818182
 21
467.2727272727273
 31
0.0
  0
LINE
  5
176
330
17
100
AcDbEntity
  8
WINDOW
100
AcDbLine
 10
954.2424242424244
 20
549.0909090909091
 30
0.0
 11
954.2424242424244
 21
467.2727272727273
 31
0.0
  0
LINE
  5
177
330
17
100
AcDbEntity
  8
WINDOW
100
AcDbLine
 10
960.3030303030304
 20
549.0909090909091
 30
0.0
 11
960.3030303030304
 21
467.2727272727273
 31
0.0
  0
LINE
  5
178
330
17
100
AcDbEntity
  8
WINDOW
100
AcDbLine
 10
966.3636363636365
 20
549.0909090909091
 30
0.0
 11
966.3636363636365
 21
467.2727272727273
 31
0.0
  0
LINE
  5
179
330
17
100
AcDbEntity
  8
WINDOW
100
AcDbLine
 10
948.1818181818182
 20
549.0909090909091
 30
0.0
 11
966.3636363636365
 21
549.0909090909091
 31
0.0
  0
LINE
  5
17A
330
17
100
AcDbEntity
  8
WINDOW
100
AcDbLine
 10
948.1818181818182
 20
467.2727272727273
 30
0.0
 11
966.3636363636365
 21
467.2727272727273
 31
0.0
  0
LWPOLYLINE
  5
17C
330
17
100
AcDbEntity
  8
DOORZONE
100
AcDbPolyline
 90
4
 70
1
 10
135.45454545454547
 20
479.0909090909091
 10
135.45454545454547
 20
385.4545454545455
 10
322.72727272727275
 20
385.4545454545455
 10
322.72727272727275
 20
479.0909090909091
  0
LWPOLYLINE
  5
17D
330
17
100
AcDbEntity
  8
DOORZONE
100
AcDbPolyline
 90
4
 70
1
 10
390.90909090909093
 20
780.0000000000001
 10
390.90909090909093
 20
732.7272727272727
 10
485.4545454545455
 20
732.7272727272727
 10
485.4545454545455
 20
780.0000000000001
  0
ENDSEC
  0
SECTION
  2
OBJECTS
  0
DICTIONARY
  5
A
330
0
100
AcDbDictionary
281
1
  3
ACAD_COLOR
350
B
  3
ACAD_GROUP
350
C
  3
ACAD_LAYOUT
350
D
  3
ACAD_MATERIAL
350
E
  3
ACAD_MLEADERSTYLE
350
F
  3
ACAD_MLINESTYLE
350
10
  3
ACAD_PLOTSETTINGS
350
11
  3
ACAD_PLOTSTYLENAME
350
12
  3
ACAD_SCALELIST
350
14
  3
ACAD_TABLESTYLE
350
15
  3
ACAD_VISUALSTYLE
350
16
  3
EZDXF_META
350
2D
  0
DICTIONARY
  5
B
330
A
100
AcDbDictionary
281
1
  0
DICTIONARY
  5
C
330
A
100
AcDbDictionary
281
1
  0
DICTIONARY
  5
D
330
A
100
AcDbDictionary
281
1
  3
Model
350
1A
  3
Layout1
350
1E
  0
DICTIONARY
  5
E
330
A
100
AcDbDictionary
281
1
  3
ByBlock
350
1F
  3
ByLayer
350
20
  3
Global
350
21
  0
DICTIONARY
  5
F
330
A
100
AcDbDictionary
281
1
  3
Standard
350
2C
  0
DICTIONARY
  5
10
330
A
100
AcDbDictionary
281
1
  3
Standard
350
22
  0
DICTIONARY
  5
11
330
A
100
AcDbDictionary
281
1
  0
ACDBDICTIONARYWDFLT
  5
12
330
A
100
AcDbDictionary
281
1
  3
Normal
350
13
100
AcDbDictionaryWithDefault
340
13
  0
ACDBPLACEHOLDER
  5
13
330
12
  0
DICTIONARY
  5
14
330
A
100
AcDbDictionary
281
1
  0
DICTIONARY
  5
15
330
A
100
AcDbDictionary
281
1
  0
DICTIONARY
  5
16
330
A
100
AcDbDictionary
281
1
  0
LAYOUT
  5
1A
330
D
100
AcDbPlotSettings
  1

  4
A3
  6

 40
7.5
 41
20.0
 42
7.5
 43
20.0
 44
420.0
 45
297.0
 46
0.0
 47
0.0
 48
0.0
 49
0.0
140
0.0
141
0.0
142
1.0
143
1.0
 70
1024
 72
1
 73
0
 74
5
  7

 75
16
 76
0
 77
2
 78
300
147
1.0
148
0.0
149
0.0
100
AcDbLayout
  1
Model
 70
1
 71
0
 10
0.0
 20
0.0
 11
420.0
 21
297.0
 12
0.0
 22
0.0
 32
0.0
 14
1e+20
 24
1e+20
 34
1e+20
 15
-1e+20
 25
-1e+20
 35
-1e+20
146
0.0
 13
0.0
 23
0.0
 33
0.0
 16
1.0
 26
0.0
 36
0.0
 17
0.0
 27
1.0
 37
0.0
 76
1
330
17
  0
LAYOUT
  5
1E
330
D
100
AcDbPlotSettings
  1

  4
A3
  6

 40
7.5
 41
20.0
 42
7.5
 43
20.0
 44
420.0
 45
297.0
 46
0.0
 47
0.0
 48
0.0
 49
0.0
140
0.0
141
0.0
142
1.0
143
1.0
 70
0
 72
1
 73
0
 74
5
  7

 75
16
 76
0
 77
2
 78
300
147
1.0
148
0.0
149
0.0
100
AcDbLayout
  1
Layout1
 70
1
 71
1
 10
0.0
 20
0.0
 11
420.0
 21
297.0
 12
0.0
 22
0.0
 32
0.0
 14
1e+20
 24
1e+20
 34
1e+20
 15
-1e+20
 25
-1e+20
 35
-1e+20
146
0.0
 13
0.0
 23
0.0
 33
0.0
 16
1.0
 26
0.0
 36
0.0
 17
0.0
 27
1.0
 37
0.0
 76
1
330
1B
  0
MATERIAL
  5
1F
102
{ACAD_REACTORS
330
E
102
}
330
E
100
AcDbMaterial
  1
ByBlock
  2

 70
0
 40
1.0
 71
1
 41
1.0
 91
-1023410177
 42
1.0
 72
1
  3

 73
1
 74
1
 75
1
 44
0.5
 73
0
 45
1.0
 46
1.0
 77
1
  4

 78
1
 79
1
170
1
 48
1.0
171
1
  6

172
1
173
1
174
1
140
1.0
141
1.0
175
1
  7

176
1
177
1
178
1
143
1.0
179
1
  8

270
1
271
1
272
1
145
1.0
146
1.0
273
1
  9

274
1
275
1
276
1
 42
1.0
 72
1
  3

 73
1
 74
1
 75
1
 94
63
  0
MATERIAL
  5
20
102
{ACAD_REACTORS
330
E
102
}
330
E
100
AcDbMaterial
  1
ByLayer
  2

 70
0
 40
1.0
 71
1
 41
1.0
 91
-1023410177
 42
1.0
 72
1
  3

 73
1
 74
1
 75
1
 44
0.5
 73
0
 45
1.0
 46
1.0
 77
1
  4

 78
1
 79
1
170
1
 48
1.0
171
1
  6

172
1
173
1
174
1
140
1.0
141
1.0
175
1
  7

176
1
177
1
178
1
143
1.0
179
1
  8

270
1
271
1
272
1
145
1.0
146
1.0
273
1
  9

274
1
275
1
276
1
 42
1.0
 72
1
  3

 73
1
 74
1
 75
1
 94
63
  0
MATERIAL
  5
21
102
{ACAD_REACTORS
330
E
102
}
330
E
100
AcDbMaterial
  1
Global
  2

 70
0
 40
1.0
 71
1
 41
1.0
 91
-1023410177
 42
1.0
 72
1
  3

 73
1
 74
1
 75
1
 44
0.5
 73
0
 45
1.0
 46
1.0
 77
1
  4

 78
1
 79
1
170
1
 48
1.0
171
1
  6

172
1
173
1
174
1
140
1.0
141
1.0
175
1
  7

176
1
177
1
178
1
143
1.0
179
1
  8

270
1
271
1
272
1
145
1.0
146
1.0
273
1
  9

274
1
275
1
276
1
 42
1.0
 72
1
  3

 73
1
 74
1
 75
1
 94
63
  0
MLINESTYLE
  5
22
102
{ACAD_REACTORS
330
10
102
}
330
10
100
AcDbMlineStyle
  2
Standard
 70
0
  3

 62
256
 51
90.0
 52
90.0
 71
2
 49
0.5
 62
256
  6
BYLAYER
 49
-0.5
 62
256
  6
BYLAYER
  0
MLEADERSTYLE
  5
2C
102
{ACAD_REACTORS
330
F
102
}
330
F
100
AcDbMLeaderStyle
179
2
170
2
171
1
172
0
 90
2
 40
0.0
 41
0.0
173
1
 91
-1056964608
 92
-2
290
1
 42
2.0
291
1
 43
8.0
  3
Standard
 44
4.0
300

342
29
174
1
175
1
176
0
178
1
 93
-1056964608
 45
4.0
292
0
297
0
 46
4.0
 94
-1056964608
 47
1.0
 49
1.0
140
1.0
294
1
141
0.0
177
0
142
1.0
295
0
296
0
143
3.75
271
0
272
9
273
9
  0
DICTIONARY
  5
2D
330
A
100
AcDbDictionary
280
1
281
1
  3
CREATED_BY_EZDXF
350
2E
  3
WRITTEN_BY_EZDXF
350
180
  0
DICTIONARYVAR
  5
2E
330
2D
100
DictionaryVariables
280
0
  1
1.4.4 @ 2026-07-13T09:38:46.813790+00:00
  0
DICTIONARYVAR
  5
180
330
2D
100
DictionaryVariables
280
0
  1
1.4.4 @ 2026-07-13T09:38:46.844190+00:00
  0
ENDSEC
  0
EOF
