  0
SECTION
  2
HEADER
  9
$ACADVER
  1
AC1024
  9
$ACADMAINTVER
 70
6
  9
$DWGCODEPAGE
  3
ANSI_1252
  9
$LASTSAVEDBY
  1
ezdxf
  9
$INSBASE
 10
0.0
 20
0.0
 30
0.0
  9
$EXTMIN
 10
1e+20
 20
1e+20
 30
1e+20
  9
$EXTMAX
 10
-1e+20
 20
-1e+20
 30
-1e+20
  9
$LIMMIN
 10
0.0
 20
0.0
  9
$LIMMAX
 10
420.0
 20
297.0
  9
$ORTHOMODE
 70
0
  9
$REGENMODE
 70
1
  9
$FILLMODE
 70
1
  9
$QTEXTMODE
 70
0
  9
$MIRRTEXT
 70
1
  9
$LTSCALE
 40
1.0
  9
$ATTMODE
 70
1
  9
$TEXTSIZE
 40
2.5
  9
$TRACEWID
 40
1.0
  9
$TEXTSTYLE
  7
Standard
  9
$CLAYER
  8
0
  9
$CELTYPE
  6
ByLayer
  9
$CECOLOR
 62
256
  9
$CELTSCALE
 40
1.0
  9
$DISPSILH
 70
0
  9
$DIMSCALE
 40
1.0
  9
$DIMASZ
 40
2.5
  9
$DIMEXO
 40
0.625
  9
$DIMDLI
 40
3.75
  9
$DIMRND
 40
0.0
  9
$DIMDLE
 40
0.0
  9
$DIMEXE
 40
1.25
  9
$DIMTP
 40
0.0
  9
$DIMTM
 40
0.0
  9
$DIMTXT
 40
2.5
  9
$DIMCEN
 40
2.5
  9
$DIMTSZ
 40
0.0
  9
$DIMTOL
 70
0
  9
$DIMLIM
 70
0
  9
$DIMTIH
 70
0
  9
$DIMTOH
 70
0
  9
$DIMSE1
 70
0
  9
$DIMSE2
 70
0
  9
$DIMTAD
 70
1
  9
$DIMZIN
 70
8
  9
$DIMBLK
  1

  9
$DIMASO
 70
1
  9
$DIMSHO
 70
1
  9
$DIMPOST
  1

  9
$DIMAPOST
  1

  9
$DIMALT
 70
0
  9
$DIMALTD
 70
3
  9
$DIMALTF
 40
0.03937007874
  9
$DIMLFAC
 40
1.0
  9
$DIMTOFL
 70
1
  9
$DIMTVP
 40
0.0
  9
$DIMTIX
 70
0
  9
$DIMSOXD
 70
0
  9
$DIMSAH
 70
0
  9
$DIMBLK1
  1

  9
$DIMBLK2
  1

  9
$DIMSTYLE
  2
ISO-25
  9
$DIMCLRD
 70
0
  9
$DIMCLRE
 70
0
  9
$DIMCLRT
 70
0
  9
$DIMTFAC
 40
1.0
  9
$DIMGAP
 40
0.625
  9
$DIMJUST
 70
0
  9
$DIMSD1
 70
0
  9
$DIMSD2
 70
0
  9
$DIMTOLJ
 70
0
  9
$DIMTZIN
 70
8
  9
$DIMALTZ
 70
0
  9
$DIMALTTZ
 70
0
  9
$DIMUPT
 70
0
  9
$DIMDEC
 70
2
  9
$DIMTDEC
 70
2
  9
$DIMALTU
 70
2
  9
$DIMALTTD
 70
3
  9
$DIMTXSTY
  7
Standard
  9
$DIMAUNIT
 70
0
  9
$DIMADEC
 70
0
  9
$DIMALTRND
 40
0.0
  9
$DIMAZIN
 70
0
  9
$DIMDSEP
 70
44
  9
$DIMATFIT
 70
3
  9
$DIMFRAC
 70
0
  9
$DIMLDRBLK
  1

  9
$DIMLUNIT
 70
2
  9
$DIMLWD
 70
-2
  9
$DIMLWE
 70
-2
  9
$DIMTMOVE
 70
0
  9
$DIMFXL
 40
1.0
  9
$DIMFXLON
 70
0
  9
$DIMJOGANG
 40
0.785398163397
  9
$DIMTFILL
 70
0
  9
$DIMTFILLCLR
 70
0
  9
$DIMARCSYM
 70
0
  9
$DIMLTYPE
  6

  9
$DIMLTEX1
  6

  9
$DIMLTEX2
  6

  9
$DIMTXTDIRECTION
 70
0
  9
$LUNITS
 70
2
  9
$LUPREC
 70
4
  9
$SKETCHINC
 40
1.0
  9
$FILLETRAD
 40
10.0
  9
$AUNITS
 70
0
  9
$AUPREC
 70
2
  9
$MENU
  1
.
  9
$ELEVATION
 40
0.0
  9
$PELEVATION
 40
0.0
  9
$THICKNESS
 40
0.0
  9
$LIMCHECK
 70
0
  9
$CHAMFERA
 40
0.0
  9
$CHAMFERB
 40
0.0
  9
$CHAMFERC
 40
0.0
  9
$CHAMFERD
 40
0.0
  9
$SKPOLY
 70
0
  9
$TDCREATE
 40
2461235.7353703706
  9
$TDUCREATE
 40
2458532.153996898
  9
$TDUPDATE
 40
2461235.7353703706
  9
$TDUUPDATE
 40
2458532.1544311
  9
$TDINDWG
 40
0.0
  9
$TDUSRTIMER
 40
0.0
  9
$USRTIMER
 70
1
  9
$ANGBASE
 50
0.0
  9
$ANGDIR
 70
0
  9
$PDMODE
 70
0
  9
$PDSIZE
 40
0.0
  9
$PLINEWID
 40
0.0
  9
$SPLFRAME
 70
0
  9
$SPLINETYPE
 70
6
  9
$SPLINESEGS
 70
8
  9
$HANDSEED
  5
248
  9
$SURFTAB1
 70
6
  9
$SURFTAB2
 70
6
  9
$SURFTYPE
 70
6
  9
$SURFU
 70
6
  9
$SURFV
 70
6
  9
$UCSBASE
  2

  9
$UCSNAME
  2

  9
$UCSORG
 10
0.0
 20
0.0
 30
0.0
  9
$UCSXDIR
 10
1.0
 20
0.0
 30
0.0
  9
$UCSYDIR
 10
0.0
 20
1.0
 30
0.0
  9
$UCSORTHOREF
  2

  9
$UCSORTHOVIEW
 70
0
  9
$UCSORGTOP
 10
0.0
 20
0.0
 30
0.0
  9
$UCSORGBOTTOM
 10
0.0
 20
0.0
 30
0.0
  9
$UCSORGLEFT
 10
0.0
 20
0.0
 30
0.0
  9
$UCSORGRIGHT
 10
0.0
 20
0.0
 30
0.0
  9
$UCSORGFRONT
 10
0.0
 20
0.0
 30
0.0
  9
$UCSORGBACK
 10
0.0
 20
0.0
 30
0.0
  9
$PUCSBASE
  2

  9
$PUCSNAME
  2

  9
$PUCSORG
 10
0.0
 20
0.0
 30
0.0
  9
$PUCSXDIR
 10
1.0
 20
0.0
 30
0.0
  9
$PUCSYDIR
 10
0.0
 20
1.0
 30
0.0
  9
$PUCSORTHOREF
  2

  9
$PUCSORTHOVIEW
 70
0
  9
$PUCSORGTOP
 10
0.0
 20
0.0
 30
0.0
  9
$PUCSORGBOTTOM
 10
0.0
 20
0.0
 30
0.0
  9
$PUCSORGLEFT
 10
0.0
 20
0.0
 30
0.0
  9
$PUCSORGRIGHT
 10
0.0
 20
0.0
 30
0.0
  9
$PUCSORGFRONT
 10
0.0
 20
0.0
 30
0.0
  9
$PUCSORGBACK
 10
0.0
 20
0.0
 30
0.0
  9
$USERI1
 70
0
  9
$USERI2
 70
0
  9
$USERI3
 70
0
  9
$USERI4
 70
0
  9
$USERI5
 70
0
  9
$USERR1
 40
0.0
  9
$USERR2
 40
0.0
  9
$USERR3
 40
0.0
  9
$USERR4
 40
0.0
  9
$USERR5
 40
0.0
  9
$WORLDVIEW
 70
1
  9
$SHADEDGE
 70
3
  9
$SHADEDIF
 70
70
  9
$TILEMODE
 70
1
  9
$MAXACTVP
 70
64
  9
$PINSBASE
 10
0.0
 20
0.0
 30
0.0
  9
$PLIMCHECK
 70
0
  9
$PEXTMIN
 10
1e+20
 20
1e+20
 30
1e+20
  9
$PEXTMAX
 10
-1e+20
 20
-1e+20
 30
-1e+20
  9
$PLIMMIN
 10
0.0
 20
0.0
  9
$PLIMMAX
 10
420.0
 20
297.0
  9
$UNITMODE
 70
0
  9
$VISRETAIN
 70
1
  9
$PLINEGEN
 70
0
  9
$PSLTSCALE
 70
1
  9
$TREEDEPTH
 70
3020
  9
$CMLSTYLE
  2
Standard
  9
$CMLJUST
 70
0
  9
$CMLSCALE
 40
20.0
  9
$PROXYGRAPHICS
 70
1
  9
$MEASUREMENT
 70
1
  9
$CELWEIGHT
370
-1
  9
$ENDCAPS
280
0
  9
$JOINSTYLE
280
0
  9
$LWDISPLAY
290
0
  9
$INSUNITS
 70
5
  9
$HYPERLINKBASE
  1

  9
$STYLESHEET
  1

  9
$XEDIT
290
1
  9
$CEPSNTYPE
380
0
  9
$PSTYLEMODE
290
1
  9
$FINGERPRINTGUID
  2
{2812737B-2372-47BB-A58A-4DA160610211}
  9
$VERSIONGUID
  2
{AF78805B-20E9-4691-AA3F-42D507699881}
  9
$EXTNAMES
290
1
  9
$PSVPSCALE
 40
0.0
  9
$OLESTARTUP
290
0
  9
$SORTENTS
280
127
  9
$INDEXCTL
280
0
  9
$HIDETEXT
280
1
  9
$XCLIPFRAME
280
1
  9
$HALOGAP
280
0
  9
$OBSCOLOR
 70
257
  9
$OBSLTYPE
280
0
  9
$INTERSECTIONDISPLAY
280
0
  9
$INTERSECTIONCOLOR
 70
257
  9
$DIMASSOC
280
2
  9
$PROJECTNAME
  1

  9
$CAMERADISPLAY
290
0
  9
$LENSLENGTH
 40
50.0
  9
$CAMERAHEIGHT
 40
0.0
  9
$STEPSPERSEC
 40
24.0
  9
$STEPSIZE
 40
100.0
  9
$3DDWFPREC
 40
2.0
  9
$PSOLWIDTH
 40
0.005
  9
$PSOLHEIGHT
 40
0.08
  9
$LOFTANG1
 40
1.570796326795
  9
$LOFTANG2
 40
1.570796326795
  9
$LOFTMAG1
 40
0.0
  9
$LOFTMAG2
 40
0.0
  9
$LOFTPARAM
 70
7
  9
$LOFTNORMALS
280
1
  9
$LATITUDE
 40
37.795
  9
$LONGITUDE
 40
-122.394
  9
$NORTHDIRECTION
 40
0.0
  9
$TIMEZONE
 70
-8000
  9
$LIGHTGLYPHDISPLAY
280
1
  9
$TILEMODELIGHTSYNCH
280
1
  9
$CMATERIAL
347
20
  9
$SOLIDHIST
280
0
  9
$SHOWHIST
280
1
  9
$DWFFRAME
280
2
  9
$DGNFRAME
280
2
  9
$REALWORLDSCALE
290
1
  9
$INTERFERECOLOR
 62
256
  9
$CSHADOW
280
0
  9
$SHADOWPLANELOCATION
 40
0.0
  0
ENDSEC
  0
SECTION
  2
CLASSES
  0
CLASS
  1
ACDBDICTIONARYWDFLT
  2
AcDbDictionaryWithDefault
  3
ObjectDBX Classes
 90
0
 91
0
280
0
281
0
  0
CLASS
  1
SUN
  2
AcDbSun
  3
SCENEOE
 90
1153
 91
0
280
0
281
0
  0
CLASS
  1
VISUALSTYLE
  2
AcDbVisualStyle
  3
ObjectDBX Classes
 90
4095
 91
0
280
0
281
0
  0
CLASS
  1
MATERIAL
  2
AcDbMaterial
  3
ObjectDBX Classes
 90
1153
 91
0
280
0
281
0
  0
CLASS
  1
SCALE
  2
AcDbScale
  3
ObjectDBX Classes
 90
1153
 91
0
280
0
281
0
  0
CLASS
  1
TABLESTYLE
  2
AcDbTableStyle
  3
ObjectDBX Classes
 90
4095
 91
0
280
0
281
0
  0
CLASS
  1
MLEADERSTYLE
  2
AcDbMLeaderStyle
  3
ACDB_MLEADERSTYLE_CLASS
 90
4095
 91
0
280
0
281
0
  0
CLASS
  1
DICTIONARYVAR
  2
AcDbDictionaryVar
  3
ObjectDBX Classes
 90
0
 91
0
280
0
281
0
  0
CLASS
  1
CELLSTYLEMAP
  2
AcDbCellStyleMap
  3
ObjectDBX Classes
 90
1152
 91
0
280
0
281
0
  0
CLASS
  1
MENTALRAYRENDERSETTINGS
  2
AcDbMentalRayRenderSettings
  3
SCENEOE
 90
1024
 91
0
280
0
281
0
  0
CLASS
  1
ACDBDETAILVIEWSTYLE
  2
AcDbDetailViewStyle
  3
ObjectDBX Classes
 90
1025
 91
0
280
0
281
0
  0
CLASS
  1
ACDBSECTIONVIEWSTYLE
  2
AcDbSectionViewStyle
  3
ObjectDBX Classes
 90
1025
 91
0
280
0
281
0
  0
CLASS
  1
RASTERVARIABLES
  2
AcDbRasterVariables
  3
ISM
 90
0
 91
0
280
0
281
0
  0
CLASS
  1
LAYOUT
  2
AcDbLayout
  3
ObjectDBX Classes
 90
0
 91
0
280
0
281
0
  0
CLASS
  1
ACDBPLACEHOLDER
  2
AcDbPlaceHolder
  3
ObjectDBX Classes
 90
0
 91
0
280
0
281
0
  0
ENDSEC
  0
SECTION
  2
TABLES
  0
TABLE
  2
VPORT
  5
8
330
0
100
AcDbSymbolTable
 70
1
  0
VPORT
  5
23
330
8
100
AcDbSymbolTableRecord
100
AcDbViewportTableRecord
  2
*Active
 70
0
 10
0.0
 20
0.0
 11
1.0
 21
1.0
 12
0.0
 22
0.0
 13
0.0
 23
0.0
 14
0.5
 24
0.5
 15
0.5
 25
0.5
 16
0.0
 26
0.0
 36
1.0
 17
0.0
 27
0.0
 37
0.0
 40
1000.0
 41
1.34
 42
50.0
 43
0.0
 44
0.0
 50
0.0
 51
0.0
 71
0
 72
1000
 73
1
 74
3
 75
0
 76
0
 77
0
 78
0
281
0
 65
0
146
0.0
  0
ENDTAB
  0
TABLE
  2
LTYPE
  5
2
330
0
100
AcDbSymbolTable
 70
3
  0
LTYPE
  5
24
330
2
100
AcDbSymbolTableRecord
100
AcDbLinetypeTableRecord
  2
ByBlock
 70
0
  3

 72
65
 73
0
 40
0.0
  0
LTYPE
  5
25
330
2
100
AcDbSymbolTableRecord
100
AcDbLinetypeTableRecord
  2
ByLayer
 70
0
  3

 72
65
 73
0
 40
0.0
  0
LTYPE
  5
26
330
2
100
AcDbSymbolTableRecord
100
AcDbLinetypeTableRecord
  2
Continuous
 70
0
  3

 72
65
 73
0
 40
0.0
  0
ENDTAB
  0
TABLE
  2
LAYER
  5
1
330
0
100
AcDbSymbolTable
 70
5
  0
LAYER
  5
27
330
1
100
AcDbSymbolTableRecord
100
AcDbLayerTableRecord
  2
0
 70
0
 62
7
  6
Continuous
370
-3
390
13
347
21
  0
LAYER
  5
28
330
1
100
AcDbSymbolTableRecord
100
AcDbLayerTableRecord
  2
Defpoints
 70
0
 62
7
  6
Continuous
290
0
370
-3
390
13
347
21
  0
LAYER
  5
2F
330
1
100
AcDbSymbolTableRecord
100
AcDbLayerTableRecord
  2
WALL
 70
0
 62
7
  6
Continuous
370
-3
390
13
347
21
  0
LAYER
  5
30
330
1
100
AcDbSymbolTableRecord
100
AcDbLayerTableRecord
  2
WINDOW
 70
0
 62
5
  6
Continuous
370
-3
390
13
347
21
  0
LAYER
  5
21B
330
1
100
AcDbSymbolTableRecord
100
AcDbLayerTableRecord
  2
DOORZONE
 70
0
 62
2
  6
Continuous
370
-3
390
13
347
21
  0
ENDTAB
  0
TABLE
  2
STYLE
  5
5
330
0
100
AcDbSymbolTable
 70
1
  0
STYLE
  5
29
330
5
100
AcDbSymbolTableRecord
100
AcDbTextStyleTableRecord
  2
Standard
 70
0
 40
0.0
 41
1.0
 50
0.0
 71
0
 42
2.5
  3
txt
  4

  0
ENDTAB
  0
TABLE
  2
VIEW
  5
7
330
0
100
AcDbSymbolTable
 70
0
  0
ENDTAB
  0
TABLE
  2
UCS
  5
6
330
0
100
AcDbSymbolTable
 70
0
  0
ENDTAB
  0
TABLE
  2
APPID
  5
3
330
0
100
AcDbSymbolTable
 70
3
  0
APPID
  5
2A
330
3
100
AcDbSymbolTableRecord
100
AcDbRegAppTableRecord
  2
ACAD
 70
0
  0
APPID
  5
245
330
3
100
AcDbSymbolTableRecord
100
AcDbRegAppTableRecord
  2
HATCHBACKGROUNDCOLOR
 70
0
  0
APPID
  5
246
330
3
100
AcDbSymbolTableRecord
100
AcDbRegAppTableRecord
  2
EZDXF
 70
0
  0
ENDTAB
  0
TABLE
  2
DIMSTYLE
  5
4
330
0
100
AcDbSymbolTable
 70
1
100
AcDbDimStyleTable
  0
DIMSTYLE
105
2B
330
4
100
AcDbSymbolTableRecord
100
AcDbDimStyleTableRecord
  2
Standard
 70
0
 40
1.0
 41
2.5
 42
0.625
 43
3.75
 44
1.25
 45
0.0
 46
0.0
 47
0.0
 48
0.0
 49
2.5
140
2.5
141
2.5
142
0.0
143
0.03937007874
144
1.0
145
0.0
146
1.0
147
0.625
148
0.0
 69
0
 70
0
 71
0
 72
0
 73
0
 74
0
 75
0
 76
0
 77
1
 78
8
 79
3
170
0
171
3
172
1
173
0
174
0
175
0
176
0
177
0
178
0
179
2
271
2
272
2
273
2
274
3
275
0
276
0
277
2
278
44
279
0
280
0
281
0
282
0
283
0
284
8
285
0
286
0
288
0
289
3
290
0
371
-2
372
-2
  0
ENDTAB
  0
TABLE
  2
BLOCK_RECORD
  5
9
330
0
100
AcDbSymbolTable
 70
2
  0
BLOCK_RECORD
  5
17
330
9
100
AcDbSymbolTableRecord
100
AcDbBlockTableRecord
  2
*Model_Space
340
1A
 70
0
280
1
281
0
  0
BLOCK_RECORD
  5
1B
330
9
100
AcDbSymbolTableRecord
100
AcDbBlockTableRecord
  2
*Paper_Space
340
1E
 70
0
280
1
281
0
  0
ENDTAB
  0
ENDSEC
  0
SECTION
  2
BLOCKS
  0
BLOCK
  5
18
330
17
100
AcDbEntity
  8
0
100
AcDbBlockBegin
  2
*Model_Space
 70
0
 10
0.0
 20
0.0
 30
0.0
  3
*Model_Space
  1

  0
ENDBLK
  5
19
330
17
100
AcDbEntity
  8
0
100
AcDbBlockEnd
  0
BLOCK
  5
1C
330
1B
100
AcDbEntity
  8
0
100
AcDbBlockBegin
  2
*Paper_Space
 70
0
 10
0.0
 20
0.0
 30
0.0
  3
*Paper_Space
  1

  0
ENDBLK
  5
1D
330
1B
100
AcDbEntity
  8
0
100
AcDbBlockEnd
  0
ENDSEC
  0
SECTION
  2
ENTITIES
  0
LWPOLYLINE
  5
31
330
17
100
AcDbEntity
  8
WALL
100
AcDbPolyline
 90
4
 70
1
 10
100.0
 20
2135.0
 10
277.5
 20
2135.0
 10
277.5
 20
2120.0
 10
100.0
 20
2120.0
  0
HATCH
  5
32
330
17
100
AcDbEntity
  8
WALL
100
AcDbHatch
 10
0.0
 20
0.0
 30
0.0
210
0.0
220
0.0
230
1.0
  2
SOLID
 70
1
 71
0
 91
1
 92
3
 72
0
 73
1
 93
4
 10
100.0
 20
2135.0
 10
277.5
 20
2135.0
 10
277.5
 20
2120.0
 10
100.0
 20
2120.0
 97
0
 75
1
 76
1
 98
0
  0
LWPOLYLINE
  5
33
330
17
100
AcDbEntity
  8
WALL
100
AcDbPolyline
 90
4
 70
1
 10
357.5
 20
2127.5
 10
427.5
 20
2127.5
 10
427.5
 20
2110.0
 10
357.5
 20
2110.0
  0
HATCH
  5
34
330
17
100
AcDbEntity
  8
WALL
100
AcDbHatch
 10
0.0
 20
0.0
 30
0.0
210
0.0
220
0.0
230
1.0
  2
SOLID
 70
1
 71
0
 91
1
 92
3
 72
0
 73
1
 93
4
 10
357.5
 20
2127.5
 10
427.5
 20
2127.5
 10
427.5
 20
2110.0
 10
357.5
 20
2110.0
 97
0
 75
1
 76
1
 98
0
  0
LWPOLYLINE
  5
35
330
17
100
AcDbEntity
  8
WALL
100
AcDbPolyline
 90
4
 70
1
 10
1430.0
 20
2125.0
 10
1470.0
 20
2125.0
 10
1470.0
 20
2110.0
 10
1430.0
 20
2110.0
  0
HATCH
  5
36
330
17
100
AcDbEntity
  8
WALL
100
AcDbHatch
 10
0.0
 20
0.0
 30
0.0
210
0.0
220
0.0
230
1.0
  2
SOLID
 70
1
 71
0
 91
1
 92
3
 72
0
 73
1
 93
4
 10
1430.0
 20
2125.0
 10
1470.0
 20
2125.0
 10
1470.0
 20
2110.0
 10
1430.0
 20
2110.0
 97
0
 75
1
 76
1
 98
0
  0
LWPOLYLINE
  5
37
330
17
100
AcDbEntity
  8
WALL
100
AcDbPolyline
 90
4
 70
1
 10
1982.5
 20
2120.0
 10
2017.5
 20
2120.0
 10
2017.5
 20
2115.0
 10
1982.5
 20
2115.0
  0
HATCH
  5
38
330
17
100
AcDbEntity
  8
WALL
100
AcDbHatch
 10
0.0
 20
0.0
 30
0.0
210
0.0
220
0.0
230
1.0
  2
SOLID
 70
1
 71
0
 91
1
 92
3
 72
0
 73
1
 93
4
 10
1982.5
 20
2120.0
 10
2017.5
 20
2120.0
 10
2017.5
 20
2115.0
 10
1982.5
 20
2115.0
 97
0
 75
1
 76
1
 98
0
  0
LWPOLYLINE
  5
39
330
17
100
AcDbEntity
  8
WALL
100
AcDbPolyline
 90
4
 70
1
 10
1682.5
 20
2075.0
 10
1720.0
 20
2075.0
 10
1720.0
 20
2070.0
 10
1682.5
 20
2070.0
  0
HATCH
  5
3A
330
17
100
AcDbEntity
  8
WALL
100
AcDbHatch
 10
0.0
 20
0.0
 30
0.0
210
0.0
220
0.0
230
1.0
  2
SOLID
 70
1
 71
0
 91
1
 92
3
 72
0
 73
1
 93
4
 10
1682.5
 20
2075.0
 10
1720.0
 20
2075.0
 10
1720.0
 20
2070.0
 10
1682.5
 20
2070.0
 97
0
 75
1
 76
1
 98
0
  0
LWPOLYLINE
  5
3B
330
17
100
AcDbEntity
  8
WALL
100
AcDbPolyline
 90
4
 70
1
 10
1965.0
 20
2065.0
 10
1997.5
 20
2065.0
 10
1997.5
 20
2060.0
 10
1965.0
 20
2060.0
  0
HATCH
  5
3C
330
17
100
AcDbEntity
  8
WALL
100
AcDbHatch
 10
0.0
 20
0.0
 30
0.0
210
0.0
220
0.0
230
1.0
  2
SOLID
 70
1
 71
0
 91
1
 92
3
 72
0
 73
1
 93
4
 10
1965.0
 20
2065.0
 10
1997.5
 20
2065.0
 10
1997.5
 20
2060.0
 10
1965.0
 20
2060.0
 97
0
 75
1
 76
1
 98
0
  0
LWPOLYLINE
  5
3D
330
17
100
AcDbEntity
  8
WALL
100
AcDbPolyline
 90
4
 70
1
 10
1572.5
 20
2037.5
 10
1635.0
 20
2037.5
 10
1635.0
 20
2030.0
 10
1572.5
 20
2030.0
  0
HATCH
  5
3E
330
17
100
AcDbEntity
  8
WALL
100
AcDbHatch
 10
0.0
 20
0.0
 30
0.0
210
0.0
220
0.0
230
1.0
  2
SOLID
 70
1
 71
0
 91
1
 92
3
 72
0
 73
1
 93
4
 10
1572.5
 20
2037.5
 10
1635.0
 20
2037.5
 10
1635.0
 20
2030.0
 10
1572.5
 20
2030.0
 97
0
 75
1
 76
1
 98
0
  0
LWPOLYLINE
  5
3F
330
17
100
AcDbEntity
  8
WALL
100
AcDbPolyline
 90
4
 70
1
 10
195.0
 20
1940.0
 10
277.5
 20
1940.0
 10
277.5
 20
1920.0
 10
195.0
 20
1920.0
  0
HATCH
  5
40
330
17
100
AcDbEntity
  8
WALL
100
AcDbHatch
 10
0.0
 20
0.0
 30
0.0
210
0.0
220
0.0
230
1.0
  2
SOLID
 70
1
 71
0
 91
1
 92
3
 72
0
 73
1
 93
4
 10
195.0
 20
1940.0
 10
277.5
 20
1940.0
 10
277.5
 20
1920.0
 10
195.0
 20
1920.0
 97
0
 75
1
 76
1
 98
0
  0
LWPOLYLINE
  5
41
330
17
100
AcDbEntity
  8
WALL
100
AcDbPolyline
 90
4
 70
1
 10
292.5
 20
1895.0
 10
405.0
 20
1895.0
 10
405.0
 20
1885.0
 10
292.5
 20
1885.0
  0
HATCH
  5
42
330
17
100
AcDbEntity
  8
WALL
100
AcDbHatch
 10
0.0
 20
0.0
 30
0.0
210
0.0
220
0.0
230
1.0
  2
SOLID
 70
1
 71
0
 91
1
 92
3
 72
0
 73
1
 93
4
 10
292.5
 20
1895.0
 10
405.0
 20
1895.0
 10
405.0
 20
1885.0
 10
292.5
 20
1885.0
 97
0
 75
1
 76
1
 98
0
  0
LWPOLYLINE
  5
43
330
17
100
AcDbEntity
  8
WALL
100
AcDbPolyline
 90
4
 70
1
 10
1970.0
 20
1865.0
 10
2000.0
 20
1865.0
 10
2000.0
 20
1862.5
 10
1970.0
 20
1862.5
  0
HATCH
  5
44
330
17
100
AcDbEntity
  8
WALL
100
AcDbHatch
 10
0.0
 20
0.0
 30
0.0
210
0.0
220
0.0
230
1.0
  2
SOLID
 70
1
 71
0
 91
1
 92
3
 72
0
 73
1
 93
4
 10
1970.0
 20
1865.0
 10
2000.0
 20
1865.0
 10
2000.0
 20
1862.5
 10
1970.0
 20
1862.5
 97
0
 75
1
 76
1
 98
0
  0
LWPOLYLINE
  5
45
330
17
100
AcDbEntity
  8
WALL
100
AcDbPolyline
 90
4
 70
1
 10
1132.5
 20
1740.0
 10
1492.5
 20
1740.0
 10
1492.5
 20
1715.0
 10
1132.5
 20
1715.0
  0
HATCH
  5
46
330
17
100
AcDbEntity
  8
WALL
100
AcDbHatch
 10
0.0
 20
0.0
 30
0.0
210
0.0
220
0.0
230
1.0
  2
SOLID
 70
1
 71
0
 91
1
 92
3
 72
0
 73
1
 93
4
 10
1132.5
 20
1740.0
 10
1492.5
 20
1740.0
 10
1492.5
 20
1715.0
 10
1132.5
 20
1715.0
 97
0
 75
1
 76
1
 98
0
  0
LWPOLYLINE
  5
47
330
17
100
AcDbEntity
  8
WALL
100
AcDbPolyline
 90
4
 70
1
 10
1047.5
 20
1735.0
 10
1107.5
 20
1735.0
 10
1107.5
 20
1725.0
 10
1047.5
 20
1725.0
  0
HATCH
  5
48
330
17
100
AcDbEntity
  8
WALL
100
AcDbHatch
 10
0.0
 20
0.0
 30
0.0
210
0.0
220
0.0
230
1.0
  2
SOLID
 70
1
 71
0
 91
1
 92
3
 72
0
 73
1
 93
4
 10
1047.5
 20
1735.0
 10
1107.5
 20
1735.0
 10
1107.5
 20
1725.0
 10
1047.5
 20
1725.0
 97
0
 75
1
 76
1
 98
0
  0
LWPOLYLINE
  5
49
330
17
100
AcDbEntity
  8
WALL
100
AcDbPolyline
 90
4
 70
1
 10
967.5
 20
1720.0
 10
1005.0
 20
1720.0
 10
1005.0
 20
1715.0
 10
967.5
 20
1715.0
  0
HATCH
  5
4A
330
17
100
AcDbEntity
  8
WALL
100
AcDbHatch
 10
0.0
 20
0.0
 30
0.0
210
0.0
220
0.0
230
1.0
  2
SOLID
 70
1
 71
0
 91
1
 92
3
 72
0
 73
1
 93
4
 10
967.5
 20
1720.0
 10
1005.0
 20
1720.0
 10
1005.0
 20
1715.0
 10
967.5
 20
1715.0
 97
0
 75
1
 76
1
 98
0
  0
LWPOLYLINE
  5
4B
330
17
100
AcDbEntity
  8
WALL
100
AcDbPolyline
 90
4
 70
1
 10
2112.5
 20
1625.0
 10
2152.5
 20
1625.0
 10
2152.5
 20
1607.5
 10
2112.5
 20
1607.5
  0
HATCH
  5
4C
330
17
100
AcDbEntity
  8
WALL
100
AcDbHatch
 10
0.0
 20
0.0
 30
0.0
210
0.0
220
0.0
230
1.0
  2
SOLID
 70
1
 71
0
 91
1
 92
3
 72
0
 73
1
 93
4
 10
2112.5
 20
1625.0
 10
2152.5
 20
1625.0
 10
2152.5
 20
1607.5
 10
2112.5
 20
1607.5
 97
0
 75
1
 76
1
 98
0
  0
LWPOLYLINE
  5
4D
330
17
100
AcDbEntity
  8
WALL
100
AcDbPolyline
 90
4
 70
1
 10
1047.5
 20
1585.0
 10
1117.5
 20
1585.0
 10
1117.5
 20
1575.0
 10
1047.5
 20
1575.0
  0
HATCH
  5
4E
330
17
100
AcDbEntity
  8
WALL
100
AcDbHatch
 10
0.0
 20
0.0
 30
0.0
210
0.0
220
0.0
230
1.0
  2
SOLID
 70
1
 71
0
 91
1
 92
3
 72
0
 73
1
 93
4
 10
1047.5
 20
1585.0
 10
1117.5
 20
1585.0
 10
1117.5
 20
1575.0
 10
1047.5
 20
1575.0
 97
0
 75
1
 76
1
 98
0
  0
LWPOLYLINE
  5
4F
330
17
100
AcDbEntity
  8
WALL
100
AcDbPolyline
 90
4
 70
1
 10
942.5
 20
1565.0
 10
1010.0
 20
1565.0
 10
1010.0
 20
1555.0
 10
942.5
 20
1555.0
  0
HATCH
  5
50
330
17
100
AcDbEntity
  8
WALL
100
AcDbHatch
 10
0.0
 20
0.0
 30
0.0
210
0.0
220
0.0
230
1.0
  2
SOLID
 70
1
 71
0
 91
1
 92
3
 72
0
 73
1
 93
4
 10
942.5
 20
1565.0
 10
1010.0
 20
1565.0
 10
1010.0
 20
1555.0
 10
942.5
 20
1555.0
 97
0
 75
1
 76
1
 98
0
  0
LWPOLYLINE
  5
51
330
17
100
AcDbEntity
  8
WALL
100
AcDbPolyline
 90
4
 70
1
 10
1025.0
 20
1565.0
 10
1067.5
 20
1565.0
 10
1067.5
 20
1560.0
 10
1025.0
 20
1560.0
  0
HATCH
  5
52
330
17
100
AcDbEntity
  8
WALL
100
AcDbHatch
 10
0.0
 20
0.0
 30
0.0
210
0.0
220
0.0
230
1.0
  2
SOLID
 70
1
 71
0
 91
1
 92
3
 72
0
 73
1
 93
4
 10
1025.0
 20
1565.0
 10
1067.5
 20
1565.0
 10
1067.5
 20
1560.0
 10
1025.0
 20
1560.0
 97
0
 75
1
 76
1
 98
0
  0
LWPOLYLINE
  5
53
330
17
100
AcDbEntity
  8
WALL
100
AcDbPolyline
 90
4
 70
1
 10
450.0
 20
1520.0
 10
585.0
 20
1520.0
 10
585.0
 20
1507.5
 10
450.0
 20
1507.5
  0
HATCH
  5
54
330
17
100
AcDbEntity
  8
WALL
100
AcDbHatch
 10
0.0
 20
0.0
 30
0.0
210
0.0
220
0.0
230
1.0
  2
SOLID
 70
1
 71
0
 91
1
 92
3
 72
0
 73
1
 93
4
 10
450.0
 20
1520.0
 10
585.0
 20
1520.0
 10
585.0
 20
1507.5
 10
450.0
 20
1507.5
 97
0
 75
1
 76
1
 98
0
  0
LWPOLYLINE
  5
55
330
17
100
AcDbEntity
  8
WALL
100
AcDbPolyline
 90
4
 70
1
 10
640.0
 20
1520.0
 10
747.5
 20
1520.0
 10
747.5
 20
1507.5
 10
640.0
 20
1507.5
  0
HATCH
  5
56
330
17
100
AcDbEntity
  8
WALL
100
AcDbHatch
 10
0.0
 20
0.0
 30
0.0
210
0.0
220
0.0
230
1.0
  2
SOLID
 70
1
 71
0
 91
1
 92
3
 72
0
 73
1
 93
4
 10
640.0
 20
1520.0
 10
747.5
 20
1520.0
 10
747.5
 20
1507.5
 10
640.0
 20
1507.5
 97
0
 75
1
 76
1
 98
0
  0
LWPOLYLINE
  5
57
330
17
100
AcDbEntity
  8
WALL
100
AcDbPolyline
 90
4
 70
1
 10
590.0
 20
1515.0
 10
635.0
 20
1515.0
 10
635.0
 20
1510.0
 10
590.0
 20
1510.0
  0
HATCH
  5
58
330
17
100
AcDbEntity
  8
WALL
100
AcDbHatch
 10
0.0
 20
0.0
 30
0.0
210
0.0
220
0.0
230
1.0
  2
SOLID
 70
1
 71
0
 91
1
 92
3
 72
0
 73
1
 93
4
 10
590.0
 20
1515.0
 10
635.0
 20
1515.0
 10
635.0
 20
1510.0
 10
590.0
 20
1510.0
 97
0
 75
1
 76
1
 98
0
  0
LWPOLYLINE
  5
59
330
17
100
AcDbEntity
  8
WALL
100
AcDbPolyline
 90
4
 70
1
 10
1712.5
 20
1500.0
 10
1797.5
 20
1500.0
 10
1797.5
 20
1485.0
 10
1712.5
 20
1485.0
  0
HATCH
  5
5A
330
17
100
AcDbEntity
  8
WALL
100
AcDbHatch
 10
0.0
 20
0.0
 30
0.0
210
0.0
220
0.0
230
1.0
  2
SOLID
 70
1
 71
0
 91
1
 92
3
 72
0
 73
1
 93
4
 10
1712.5
 20
1500.0
 10
1797.5
 20
1500.0
 10
1797.5
 20
1485.0
 10
1712.5
 20
1485.0
 97
0
 75
1
 76
1
 98
0
  0
LWPOLYLINE
  5
5B
330
17
100
AcDbEntity
  8
WALL
100
AcDbPolyline
 90
4
 70
1
 10
667.5
 20
1475.0
 10
872.5
 20
1475.0
 10
872.5
 20
1460.0
 10
667.5
 20
1460.0
  0
HATCH
  5
5C
330
17
100
AcDbEntity
  8
WALL
100
AcDbHatch
 10
0.0
 20
0.0
 30
0.0
210
0.0
220
0.0
230
1.0
  2
SOLID
 70
1
 71
0
 91
1
 92
3
 72
0
 73
1
 93
4
 10
667.5
 20
1475.0
 10
872.5
 20
1475.0
 10
872.5
 20
1460.0
 10
667.5
 20
1460.0
 97
0
 75
1
 76
1
 98
0
  0
LWPOLYLINE
  5
5D
330
17
100
AcDbEntity
  8
WALL
100
AcDbPolyline
 90
4
 70
1
 10
257.5
 20
1470.0
 10
287.5
 20
1470.0
 10
287.5
 20
1465.0
 10
257.5
 20
1465.0
  0
HATCH
  5
5E
330
17
100
AcDbEntity
  8
WALL
100
AcDbHatch
 10
0.0
 20
0.0
 30
0.0
210
0.0
220
0.0
230
1.0
  2
SOLID
 70
1
 71
0
 91
1
 92
3
 72
0
 73
1
 93
4
 10
257.5
 20
1470.0
 10
287.5
 20
1470.0
 10
287.5
 20
1465.0
 10
257.5
 20
1465.0
 97
0
 75
1
 76
1
 98
0
  0
LWPOLYLINE
  5
5F
330
17
100
AcDbEntity
  8
WALL
100
AcDbPolyline
 90
4
 70
1
 10
1512.5
 20
1445.0
 10
1570.0
 20
1445.0
 10
1570.0
 20
1425.0
 10
1512.5
 20
1425.0
  0
HATCH
  5
60
330
17
100
AcDbEntity
  8
WALL
100
AcDbHatch
 10
0.0
 20
0.0
 30
0.0
210
0.0
220
0.0
230
1.0
  2
SOLID
 70
1
 71
0
 91
1
 92
3
 72
0
 73
1
 93
4
 10
1512.5
 20
1445.0
 10
1570.0
 20
1445.0
 10
1570.0
 20
1425.0
 10
1512.5
 20
1425.0
 97
0
 75
1
 76
1
 98
0
  0
LWPOLYLINE
  5
61
330
17
100
AcDbEntity
  8
WALL
100
AcDbPolyline
 90
4
 70
1
 10
937.5
 20
1430.0
 10
1262.5
 20
1430.0
 10
1262.5
 20
1410.0
 10
937.5
 20
1410.0
  0
HATCH
  5
62
330
17
100
AcDbEntity
  8
WALL
100
AcDbHatch
 10
0.0
 20
0.0
 30
0.0
210
0.0
220
0.0
230
1.0
  2
SOLID
 70
1
 71
0
 91
1
 92
3
 72
0
 73
1
 93
4
 10
937.5
 20
1430.0
 10
1262.5
 20
1430.0
 10
1262.5
 20
1410.0
 10
937.5
 20
1410.0
 97
0
 75
1
 76
1
 98
0
  0
LWPOLYLINE
  5
63
330
17
100
AcDbEntity
  8
WALL
100
AcDbPolyline
 90
4
 70
1
 10
1997.5
 20
1380.0
 10
2075.0
 20
1380.0
 10
2075.0
 20
1362.5
 10
1997.5
 20
1362.5
  0
HATCH
  5
64
330
17
100
AcDbEntity
  8
WALL
100
AcDbHatch
 10
0.0
 20
0.0
 30
0.0
210
0.0
220
0.0
230
1.0
  2
SOLID
 70
1
 71
0
 91
1
 92
3
 72
0
 73
1
 93
4
 10
1997.5
 20
1380.0
 10
2075.0
 20
1380.0
 10
2075.0
 20
1362.5
 10
1997.5
 20
1362.5
 97
0
 75
1
 76
1
 98
0
  0
LWPOLYLINE
  5
65
330
17
100
AcDbEntity
  8
WALL
100
AcDbPolyline
 90
4
 70
1
 10
1917.5
 20
1370.0
 10
1960.0
 20
1370.0
 10
1960.0
 20
1360.0
 10
1917.5
 20
1360.0
  0
HATCH
  5
66
330
17
100
AcDbEntity
  8
WALL
100
AcDbHatch
 10
0.0
 20
0.0
 30
0.0
210
0.0
220
0.0
230
1.0
  2
SOLID
 70
1
 71
0
 91
1
 92
3
 72
0
 73
1
 93
4
 10
1917.5
 20
1370.0
 10
1960.0
 20
1370.0
 10
1960.0
 20
1360.0
 10
1917.5
 20
1360.0
 97
0
 75
1
 76
1
 98
0
  0
LWPOLYLINE
  5
67
330
17
100
AcDbEntity
  8
WALL
100
AcDbPolyline
 90
4
 70
1
 10
2032.5
 20
1350.0
 10
2122.5
 20
1350.0
 10
2122.5
 20
1330.0
 10
2032.5
 20
1330.0
  0
HATCH
  5
68
330
17
100
AcDbEntity
  8
WALL
100
AcDbHatch
 10
0.0
 20
0.0
 30
0.0
210
0.0
220
0.0
230
1.0
  2
SOLID
 70
1
 71
0
 91
1
 92
3
 72
0
 73
1
 93
4
 10
2032.5
 20
1350.0
 10
2122.5
 20
1350.0
 10
2122.5
 20
1330.0
 10
2032.5
 20
1330.0
 97
0
 75
1
 76
1
 98
0
  0
LWPOLYLINE
  5
69
330
17
100
AcDbEntity
  8
WALL
100
AcDbPolyline
 90
4
 70
1
 10
292.5
 20
1310.0
 10
682.5
 20
1310.0
 10
682.5
 20
1295.0
 10
292.5
 20
1295.0
  0
HATCH
  5
6A
330
17
100
AcDbEntity
  8
WALL
100
AcDbHatch
 10
0.0
 20
0.0
 30
0.0
210
0.0
220
0.0
230
1.0
  2
SOLID
 70
1
 71
0
 91
1
 92
3
 72
0
 73
1
 93
4
 10
292.5
 20
1310.0
 10
682.5
 20
1310.0
 10
682.5
 20
1295.0
 10
292.5
 20
1295.0
 97
0
 75
1
 76
1
 98
0
  0
LWPOLYLINE
  5
6B
330
17
100
AcDbEntity
  8
WALL
100
AcDbPolyline
 90
4
 70
1
 10
2057.5
 20
1262.5
 10
2090.0
 20
1262.5
 10
2090.0
 20
1260.0
 10
2057.5
 20
1260.0
  0
HATCH
  5
6C
330
17
100
AcDbEntity
  8
WALL
100
AcDbHatch
 10
0.0
 20
0.0
 30
0.0
210
0.0
220
0.0
230
1.0
  2
SOLID
 70
1
 71
0
 91
1
 92
3
 72
0
 73
1
 93
4
 10
2057.5
 20
1262.5
 10
2090.0
 20
1262.5
 10
2090.0
 20
1260.0
 10
2057.5
 20
1260.0
 97
0
 75
1
 76
1
 98
0
  0
LWPOLYLINE
  5
6D
330
17
100
AcDbEntity
  8
WALL
100
AcDbPolyline
 90
4
 70
1
 10
1975.0
 20
1250.0
 10
2077.5
 20
1250.0
 10
2077.5
 20
1222.5
 10
1975.0
 20
1222.5
  0
HATCH
  5
6E
330
17
100
AcDbEntity
  8
WALL
100
AcDbHatch
 10
0.0
 20
0.0
 30
0.0
210
0.0
220
0.0
230
1.0
  2
SOLID
 70
1
 71
0
 91
1
 92
3
 72
0
 73
1
 93
4
 10
1975.0
 20
1250.0
 10
2077.5
 20
1250.0
 10
2077.5
 20
1222.5
 10
1975.0
 20
1222.5
 97
0
 75
1
 76
1
 98
0
  0
LWPOLYLINE
  5
6F
330
17
100
AcDbEntity
  8
WALL
100
AcDbPolyline
 90
4
 70
1
 10
662.5
 20
1177.5
 10
692.5
 20
1177.5
 10
692.5
 20
1175.0
 10
662.5
 20
1175.0
  0
HATCH
  5
70
330
17
100
AcDbEntity
  8
WALL
100
AcDbHatch
 10
0.0
 20
0.0
 30
0.0
210
0.0
220
0.0
230
1.0
  2
SOLID
 70
1
 71
0
 91
1
 92
3
 72
0
 73
1
 93
4
 10
662.5
 20
1177.5
 10
692.5
 20
1177.5
 10
692.5
 20
1175.0
 10
662.5
 20
1175.0
 97
0
 75
1
 76
1
 98
0
  0
LWPOLYLINE
  5
71
330
17
100
AcDbEntity
  8
WALL
100
AcDbPolyline
 90
4
 70
1
 10
287.5
 20
1170.0
 10
670.0
 20
1170.0
 10
670.0
 20
1155.0
 10
287.5
 20
1155.0
  0
HATCH
  5
72
330
17
100
AcDbEntity
  8
WALL
100
AcDbHatch
 10
0.0
 20
0.0
 30
0.0
210
0.0
220
0.0
230
1.0
  2
SOLID
 70
1
 71
0
 91
1
 92
3
 72
0
 73
1
 93
4
 10
287.5
 20
1170.0
 10
670.0
 20
1170.0
 10
670.0
 20
1155.0
 10
287.5
 20
1155.0
 97
0
 75
1
 76
1
 98
0
  0
LWPOLYLINE
  5
73
330
17
100
AcDbEntity
  8
WALL
100
AcDbPolyline
 90
4
 70
1
 10
922.5
 20
1147.5
 10
990.0
 20
1147.5
 10
990.0
 20
1140.0
 10
922.5
 20
1140.0
  0
HATCH
  5
74
330
17
100
AcDbEntity
  8
WALL
100
AcDbHatch
 10
0.0
 20
0.0
 30
0.0
210
0.0
220
0.0
230
1.0
  2
SOLID
 70
1
 71
0
 91
1
 92
3
 72
0
 73
1
 93
4
 10
922.5
 20
1147.5
 10
990.0
 20
1147.5
 10
990.0
 20
1140.0
 10
922.5
 20
1140.0
 97
0
 75
1
 76
1
 98
0
  0
LWPOLYLINE
  5
75
330
17
100
AcDbEntity
  8
WALL
100
AcDbPolyline
 90
4
 70
1
 10
995.0
 20
1147.5
 10
1025.0
 20
1147.5
 10
1025.0
 20
1145.0
 10
995.0
 20
1145.0
  0
HATCH
  5
76
330
17
100
AcDbEntity
  8
WALL
100
AcDbHatch
 10
0.0
 20
0.0
 30
0.0
210
0.0
220
0.0
230
1.0
  2
SOLID
 70
1
 71
0
 91
1
 92
3
 72
0
 73
1
 93
4
 10
995.0
 20
1147.5
 10
1025.0
 20
1147.5
 10
1025.0
 20
1145.0
 10
995.0
 20
1145.0
 97
0
 75
1
 76
1
 98
0
  0
LWPOLYLINE
  5
77
330
17
100
AcDbEntity
  8
WALL
100
AcDbPolyline
 90
4
 70
1
 10
1310.0
 20
1135.0
 10
1340.0
 20
1135.0
 10
1340.0
 20
1132.5
 10
1310.0
 20
1132.5
  0
HATCH
  5
78
330
17
100
AcDbEntity
  8
WALL
100
AcDbHatch
 10
0.0
 20
0.0
 30
0.0
210
0.0
220
0.0
230
1.0
  2
SOLID
 70
1
 71
0
 91
1
 92
3
 72
0
 73
1
 93
4
 10
1310.0
 20
1135.0
 10
1340.0
 20
1135.0
 10
1340.0
 20
1132.5
 10
1310.0
 20
1132.5
 97
0
 75
1
 76
1
 98
0
  0
LWPOLYLINE
  5
79
330
17
100
AcDbEntity
  8
WALL
100
AcDbPolyline
 90
4
 70
1
 10
1380.0
 20
1135.0
 10
1430.0
 20
1135.0
 10
1430.0
 20
1132.5
 10
1380.0
 20
1132.5
  0
HATCH
  5
7A
330
17
100
AcDbEntity
  8
WALL
100
AcDbHatch
 10
0.0
 20
0.0
 30
0.0
210
0.0
220
0.0
230
1.0
  2
SOLID
 70
1
 71
0
 91
1
 92
3
 72
0
 73
1
 93
4
 10
1380.0
 20
1135.0
 10
1430.0
 20
1135.0
 10
1430.0
 20
1132.5
 10
1380.0
 20
1132.5
 97
0
 75
1
 76
1
 98
0
  0
LWPOLYLINE
  5
7B
330
17
100
AcDbEntity
  8
WALL
100
AcDbPolyline
 90
4
 70
1
 10
257.5
 20
1125.0
 10
302.5
 20
1125.0
 10
302.5
 20
1122.5
 10
257.5
 20
1122.5
  0
HATCH
  5
7C
330
17
100
AcDbEntity
  8
WALL
100
AcDbHatch
 10
0.0
 20
0.0
 30
0.0
210
0.0
220
0.0
230
1.0
  2
SOLID
 70
1
 71
0
 91
1
 92
3
 72
0
 73
1
 93
4
 10
257.5
 20
1125.0
 10
302.5
 20
1125.0
 10
302.5
 20
1122.5
 10
257.5
 20
1122.5
 97
0
 75
1
 76
1
 98
0
  0
LWPOLYLINE
  5
7D
330
17
100
AcDbEntity
  8
WALL
100
AcDbPolyline
 90
4
 70
1
 10
2122.5
 20
977.5
 10
2152.5
 20
977.5
 10
2152.5
 20
975.0
 10
2122.5
 20
975.0
  0
HATCH
  5
7E
330
17
100
AcDbEntity
  8
WALL
100
AcDbHatch
 10
0.0
 20
0.0
 30
0.0
210
0.0
220
0.0
230
1.0
  2
SOLID
 70
1
 71
0
 91
1
 92
3
 72
0
 73
1
 93
4
 10
2122.5
 20
977.5
 10
2152.5
 20
977.5
 10
2152.5
 20
975.0
 10
2122.5
 20
975.0
 97
0
 75
1
 76
1
 98
0
  0
LWPOLYLINE
  5
7F
330
17
100
AcDbEntity
  8
WALL
100
AcDbPolyline
 90
4
 70
1
 10
297.5
 20
940.0
 10
465.0
 20
940.0
 10
465.0
 20
925.0
 10
297.5
 20
925.0
  0
HATCH
  5
80
330
17
100
AcDbEntity
  8
WALL
100
AcDbHatch
 10
0.0
 20
0.0
 30
0.0
210
0.0
220
0.0
230
1.0
  2
SOLID
 70
1
 71
0
 91
1
 92
3
 72
0
 73
1
 93
4
 10
297.5
 20
940.0
 10
465.0
 20
940.0
 10
465.0
 20
925.0
 10
297.5
 20
925.0
 97
0
 75
1
 76
1
 98
0
  0
LWPOLYLINE
  5
81
330
17
100
AcDbEntity
  8
WALL
100
AcDbPolyline
 90
4
 70
1
 10
187.5
 20
920.0
 10
247.5
 20
920.0
 10
247.5
 20
910.0
 10
187.5
 20
910.0
  0
HATCH
  5
82
330
17
100
AcDbEntity
  8
WALL
100
AcDbHatch
 10
0.0
 20
0.0
 30
0.0
210
0.0
220
0.0
230
1.0
  2
SOLID
 70
1
 71
0
 91
1
 92
3
 72
0
 73
1
 93
4
 10
187.5
 20
920.0
 10
247.5
 20
920.0
 10
247.5
 20
910.0
 10
187.5
 20
910.0
 97
0
 75
1
 76
1
 98
0
  0
LWPOLYLINE
  5
83
330
17
100
AcDbEntity
  8
WALL
100
AcDbPolyline
 90
4
 70
1
 10
1052.5
 20
920.0
 10
1272.5
 20
920.0
 10
1272.5
 20
907.5
 10
1052.5
 20
907.5
  0
HATCH
  5
84
330
17
100
AcDbEntity
  8
WALL
100
AcDbHatch
 10
0.0
 20
0.0
 30
0.0
210
0.0
220
0.0
230
1.0
  2
SOLID
 70
1
 71
0
 91
1
 92
3
 72
0
 73
1
 93
4
 10
1052.5
 20
920.0
 10
1272.5
 20
920.0
 10
1272.5
 20
907.5
 10
1052.5
 20
907.5
 97
0
 75
1
 76
1
 98
0
  0
LWPOLYLINE
  5
85
330
17
100
AcDbEntity
  8
WALL
100
AcDbPolyline
 90
4
 70
1
 10
675.0
 20
905.0
 10
720.0
 20
905.0
 10
720.0
 20
890.0
 10
675.0
 20
890.0
  0
HATCH
  5
86
330
17
100
AcDbEntity
  8
WALL
100
AcDbHatch
 10
0.0
 20
0.0
 30
0.0
210
0.0
220
0.0
230
1.0
  2
SOLID
 70
1
 71
0
 91
1
 92
3
 72
0
 73
1
 93
4
 10
675.0
 20
905.0
 10
720.0
 20
905.0
 10
720.0
 20
890.0
 10
675.0
 20
890.0
 97
0
 75
1
 76
1
 98
0
  0
LWPOLYLINE
  5
87
330
17
100
AcDbEntity
  8
WALL
100
AcDbPolyline
 90
4
 70
1
 10
190.0
 20
897.5
 10
247.5
 20
897.5
 10
247.5
 20
890.0
 10
190.0
 20
890.0
  0
HATCH
  5
88
330
17
100
AcDbEntity
  8
WALL
100
AcDbHatch
 10
0.0
 20
0.0
 30
0.0
210
0.0
220
0.0
230
1.0
  2
SOLID
 70
1
 71
0
 91
1
 92
3
 72
0
 73
1
 93
4
 10
190.0
 20
897.5
 10
247.5
 20
897.5
 10
247.5
 20
890.0
 10
190.0
 20
890.0
 97
0
 75
1
 76
1
 98
0
  0
LWPOLYLINE
  5
89
330
17
100
AcDbEntity
  8
WALL
100
AcDbPolyline
 90
4
 70
1
 10
132.5
 20
890.0
 10
177.5
 20
890.0
 10
177.5
 20
885.0
 10
132.5
 20
885.0
  0
HATCH
  5
8A
330
17
100
AcDbEntity
  8
WALL
100
AcDbHatch
 10
0.0
 20
0.0
 30
0.0
210
0.0
220
0.0
230
1.0
  2
SOLID
 70
1
 71
0
 91
1
 92
3
 72
0
 73
1
 93
4
 10
132.5
 20
890.0
 10
177.5
 20
890.0
 10
177.5
 20
885.0
 10
132.5
 20
885.0
 97
0
 75
1
 76
1
 98
0
  0
LWPOLYLINE
  5
8B
330
17
100
AcDbEntity
  8
WALL
100
AcDbPolyline
 90
4
 70
1
 10
212.5
 20
880.0
 10
247.5
 20
880.0
 10
247.5
 20
875.0
 10
212.5
 20
875.0
  0
HATCH
  5
8C
330
17
100
AcDbEntity
  8
WALL
100
AcDbHatch
 10
0.0
 20
0.0
 30
0.0
210
0.0
220
0.0
230
1.0
  2
SOLID
 70
1
 71
0
 91
1
 92
3
 72
0
 73
1
 93
4
 10
212.5
 20
880.0
 10
247.5
 20
880.0
 10
247.5
 20
875.0
 10
212.5
 20
875.0
 97
0
 75
1
 76
1
 98
0
  0
LWPOLYLINE
  5
8D
330
17
100
AcDbEntity
  8
WALL
100
AcDbPolyline
 90
4
 70
1
 10
127.5
 20
870.0
 10
182.5
 20
870.0
 10
182.5
 20
855.0
 10
127.5
 20
855.0
  0
HATCH
  5
8E
330
17
100
AcDbEntity
  8
WALL
100
AcDbHatch
 10
0.0
 20
0.0
 30
0.0
210
0.0
220
0.0
230
1.0
  2
SOLID
 70
1
 71
0
 91
1
 92
3
 72
0
 73
1
 93
4
 10
127.5
 20
870.0
 10
182.5
 20
870.0
 10
182.5
 20
855.0
 10
127.5
 20
855.0
 97
0
 75
1
 76
1
 98
0
  0
LWPOLYLINE
  5
8F
330
17
100
AcDbEntity
  8
WALL
100
AcDbPolyline
 90
4
 70
1
 10
192.5
 20
870.0
 10
247.5
 20
870.0
 10
247.5
 20
860.0
 10
192.5
 20
860.0
  0
HATCH
  5
90
330
17
100
AcDbEntity
  8
WALL
100
AcDbHatch
 10
0.0
 20
0.0
 30
0.0
210
0.0
220
0.0
230
1.0
  2
SOLID
 70
1
 71
0
 91
1
 92
3
 72
0
 73
1
 93
4
 10
192.5
 20
870.0
 10
247.5
 20
870.0
 10
247.5
 20
860.0
 10
192.5
 20
860.0
 97
0
 75
1
 76
1
 98
0
  0
LWPOLYLINE
  5
91
330
17
100
AcDbEntity
  8
WALL
100
AcDbPolyline
 90
4
 70
1
 10
1747.5
 20
870.0
 10
1817.5
 20
870.0
 10
1817.5
 20
850.0
 10
1747.5
 20
850.0
  0
HATCH
  5
92
330
17
100
AcDbEntity
  8
WALL
100
AcDbHatch
 10
0.0
 20
0.0
 30
0.0
210
0.0
220
0.0
230
1.0
  2
SOLID
 70
1
 71
0
 91
1
 92
3
 72
0
 73
1
 93
4
 10
1747.5
 20
870.0
 10
1817.5
 20
870.0
 10
1817.5
 20
850.0
 10
1747.5
 20
850.0
 97
0
 75
1
 76
1
 98
0
  0
LWPOLYLINE
  5
93
330
17
100
AcDbEntity
  8
WALL
100
AcDbPolyline
 90
4
 70
1
 10
1905.0
 20
870.0
 10
1962.5
 20
870.0
 10
1962.5
 20
850.0
 10
1905.0
 20
850.0
  0
HATCH
  5
94
330
17
100
AcDbEntity
  8
WALL
100
AcDbHatch
 10
0.0
 20
0.0
 30
0.0
210
0.0
220
0.0
230
1.0
  2
SOLID
 70
1
 71
0
 91
1
 92
3
 72
0
 73
1
 93
4
 10
1905.0
 20
870.0
 10
1962.5
 20
870.0
 10
1962.5
 20
850.0
 10
1905.0
 20
850.0
 97
0
 75
1
 76
1
 98
0
  0
LWPOLYLINE
  5
95
330
17
100
AcDbEntity
  8
WALL
100
AcDbPolyline
 90
4
 70
1
 10
2055.0
 20
865.0
 10
2107.5
 20
865.0
 10
2107.5
 20
850.0
 10
2055.0
 20
850.0
  0
HATCH
  5
96
330
17
100
AcDbEntity
  8
WALL
100
AcDbHatch
 10
0.0
 20
0.0
 30
0.0
210
0.0
220
0.0
230
1.0
  2
SOLID
 70
1
 71
0
 91
1
 92
3
 72
0
 73
1
 93
4
 10
2055.0
 20
865.0
 10
2107.5
 20
865.0
 10
2107.5
 20
850.0
 10
2055.0
 20
850.0
 97
0
 75
1
 76
1
 98
0
  0
LWPOLYLINE
  5
97
330
17
100
AcDbEntity
  8
WALL
100
AcDbPolyline
 90
4
 70
1
 10
665.0
 20
860.0
 10
715.0
 20
860.0
 10
715.0
 20
857.5
 10
665.0
 20
857.5
  0
HATCH
  5
98
330
17
100
AcDbEntity
  8
WALL
100
AcDbHatch
 10
0.0
 20
0.0
 30
0.0
210
0.0
220
0.0
230
1.0
  2
SOLID
 70
1
 71
0
 91
1
 92
3
 72
0
 73
1
 93
4
 10
665.0
 20
860.0
 10
715.0
 20
860.0
 10
715.0
 20
857.5
 10
665.0
 20
857.5
 97
0
 75
1
 76
1
 98
0
  0
LWPOLYLINE
  5
99
330
17
100
AcDbEntity
  8
WALL
100
AcDbPolyline
 90
4
 70
1
 10
132.5
 20
837.5
 10
177.5
 20
837.5
 10
177.5
 20
835.0
 10
132.5
 20
835.0
  0
HATCH
  5
9A
330
17
100
AcDbEntity
  8
WALL
100
AcDbHatch
 10
0.0
 20
0.0
 30
0.0
210
0.0
220
0.0
230
1.0
  2
SOLID
 70
1
 71
0
 91
1
 92
3
 72
0
 73
1
 93
4
 10
132.5
 20
837.5
 10
177.5
 20
837.5
 10
177.5
 20
835.0
 10
132.5
 20
835.0
 97
0
 75
1
 76
1
 98
0
  0
LWPOLYLINE
  5
9B
330
17
100
AcDbEntity
  8
WALL
100
AcDbPolyline
 90
4
 70
1
 10
195.0
 20
835.0
 10
247.5
 20
835.0
 10
247.5
 20
822.5
 10
195.0
 20
822.5
  0
HATCH
  5
9C
330
17
100
AcDbEntity
  8
WALL
100
AcDbHatch
 10
0.0
 20
0.0
 30
0.0
210
0.0
220
0.0
230
1.0
  2
SOLID
 70
1
 71
0
 91
1
 92
3
 72
0
 73
1
 93
4
 10
195.0
 20
835.0
 10
247.5
 20
835.0
 10
247.5
 20
822.5
 10
195.0
 20
822.5
 97
0
 75
1
 76
1
 98
0
  0
LWPOLYLINE
  5
9D
330
17
100
AcDbEntity
  8
WALL
100
AcDbPolyline
 90
4
 70
1
 10
132.5
 20
810.0
 10
182.5
 20
810.0
 10
182.5
 20
805.0
 10
132.5
 20
805.0
  0
HATCH
  5
9E
330
17
100
AcDbEntity
  8
WALL
100
AcDbHatch
 10
0.0
 20
0.0
 30
0.0
210
0.0
220
0.0
230
1.0
  2
SOLID
 70
1
 71
0
 91
1
 92
3
 72
0
 73
1
 93
4
 10
132.5
 20
810.0
 10
182.5
 20
810.0
 10
182.5
 20
805.0
 10
132.5
 20
805.0
 97
0
 75
1
 76
1
 98
0
  0
LWPOLYLINE
  5
9F
330
17
100
AcDbEntity
  8
WALL
100
AcDbPolyline
 90
4
 70
1
 10
1027.5
 20
810.0
 10
1057.5
 20
810.0
 10
1057.5
 20
807.5
 10
1027.5
 20
807.5
  0
HATCH
  5
A0
330
17
100
AcDbEntity
  8
WALL
100
AcDbHatch
 10
0.0
 20
0.0
 30
0.0
210
0.0
220
0.0
230
1.0
  2
SOLID
 70
1
 71
0
 91
1
 92
3
 72
0
 73
1
 93
4
 10
1027.5
 20
810.0
 10
1057.5
 20
810.0
 10
1057.5
 20
807.5
 10
1027.5
 20
807.5
 97
0
 75
1
 76
1
 98
0
  0
LWPOLYLINE
  5
A1
330
17
100
AcDbEntity
  8
WALL
100
AcDbPolyline
 90
4
 70
1
 10
567.5
 20
800.0
 10
665.0
 20
800.0
 10
665.0
 20
780.0
 10
567.5
 20
780.0
  0
HATCH
  5
A2
330
17
100
AcDbEntity
  8
WALL
100
AcDbHatch
 10
0.0
 20
0.0
 30
0.0
210
0.0
220
0.0
230
1.0
  2
SOLID
 70
1
 71
0
 91
1
 92
3
 72
0
 73
1
 93
4
 10
567.5
 20
800.0
 10
665.0
 20
800.0
 10
665.0
 20
780.0
 10
567.5
 20
780.0
 97
0
 75
1
 76
1
 98
0
  0
LWPOLYLINE
  5
A3
330
17
100
AcDbEntity
  8
WALL
100
AcDbPolyline
 90
4
 70
1
 10
867.5
 20
797.5
 10
900.0
 20
797.5
 10
900.0
 20
795.0
 10
867.5
 20
795.0
  0
HATCH
  5
A4
330
17
100
AcDbEntity
  8
WALL
100
AcDbHatch
 10
0.0
 20
0.0
 30
0.0
210
0.0
220
0.0
230
1.0
  2
SOLID
 70
1
 71
0
 91
1
 92
3
 72
0
 73
1
 93
4
 10
867.5
 20
797.5
 10
900.0
 20
797.5
 10
900.0
 20
795.0
 10
867.5
 20
795.0
 97
0
 75
1
 76
1
 98
0
  0
LWPOLYLINE
  5
A5
330
17
100
AcDbEntity
  8
WALL
100
AcDbPolyline
 90
4
 70
1
 10
817.5
 20
790.0
 10
930.0
 20
790.0
 10
930.0
 20
780.0
 10
817.5
 20
780.0
  0
HATCH
  5
A6
330
17
100
AcDbEntity
  8
WALL
100
AcDbHatch
 10
0.0
 20
0.0
 30
0.0
210
0.0
220
0.0
230
1.0
  2
SOLID
 70
1
 71
0
 91
1
 92
3
 72
0
 73
1
 93
4
 10
817.5
 20
790.0
 10
930.0
 20
790.0
 10
930.0
 20
780.0
 10
817.5
 20
780.0
 97
0
 75
1
 76
1
 98
0
  0
LWPOLYLINE
  5
A7
330
17
100
AcDbEntity
  8
WALL
100
AcDbPolyline
 90
4
 70
1
 10
1262.5
 20
790.0
 10
1320.0
 20
790.0
 10
1320.0
 20
782.5
 10
1262.5
 20
782.5
  0
HATCH
  5
A8
330
17
100
AcDbEntity
  8
WALL
100
AcDbHatch
 10
0.0
 20
0.0
 30
0.0
210
0.0
220
0.0
230
1.0
  2
SOLID
 70
1
 71
0
 91
1
 92
3
 72
0
 73
1
 93
4
 10
1262.5
 20
790.0
 10
1320.0
 20
790.0
 10
1320.0
 20
782.5
 10
1262.5
 20
782.5
 97
0
 75
1
 76
1
 98
0
  0
LWPOLYLINE
  5
A9
330
17
100
AcDbEntity
  8
WALL
100
AcDbPolyline
 90
4
 70
1
 10
142.5
 20
772.5
 10
182.5
 20
772.5
 10
182.5
 20
765.0
 10
142.5
 20
765.0
  0
HATCH
  5
AA
330
17
100
AcDbEntity
  8
WALL
100
AcDbHatch
 10
0.0
 20
0.0
 30
0.0
210
0.0
220
0.0
230
1.0
  2
SOLID
 70
1
 71
0
 91
1
 92
3
 72
0
 73
1
 93
4
 10
142.5
 20
772.5
 10
182.5
 20
772.5
 10
182.5
 20
765.0
 10
142.5
 20
765.0
 97
0
 75
1
 76
1
 98
0
  0
LWPOLYLINE
  5
AB
330
17
100
AcDbEntity
  8
WALL
100
AcDbPolyline
 90
4
 70
1
 10
197.5
 20
770.0
 10
232.5
 20
770.0
 10
232.5
 20
760.0
 10
197.5
 20
760.0
  0
HATCH
  5
AC
330
17
100
AcDbEntity
  8
WALL
100
AcDbHatch
 10
0.0
 20
0.0
 30
0.0
210
0.0
220
0.0
230
1.0
  2
SOLID
 70
1
 71
0
 91
1
 92
3
 72
0
 73
1
 93
4
 10
197.5
 20
770.0
 10
232.5
 20
770.0
 10
232.5
 20
760.0
 10
197.5
 20
760.0
 97
0
 75
1
 76
1
 98
0
  0
LWPOLYLINE
  5
AD
330
17
100
AcDbEntity
  8
WALL
100
AcDbPolyline
 90
4
 70
1
 10
2122.5
 20
737.5
 10
2152.5
 20
737.5
 10
2152.5
 20
735.0
 10
2122.5
 20
735.0
  0
HATCH
  5
AE
330
17
100
AcDbEntity
  8
WALL
100
AcDbHatch
 10
0.0
 20
0.0
 30
0.0
210
0.0
220
0.0
230
1.0
  2
SOLID
 70
1
 71
0
 91
1
 92
3
 72
0
 73
1
 93
4
 10
2122.5
 20
737.5
 10
2152.5
 20
737.5
 10
2152.5
 20
735.0
 10
2122.5
 20
735.0
 97
0
 75
1
 76
1
 98
0
  0
LWPOLYLINE
  5
AF
330
17
100
AcDbEntity
  8
WALL
100
AcDbPolyline
 90
4
 70
1
 10
202.5
 20
705.0
 10
245.0
 20
705.0
 10
245.0
 20
700.0
 10
202.5
 20
700.0
  0
HATCH
  5
B0
330
17
100
AcDbEntity
  8
WALL
100
AcDbHatch
 10
0.0
 20
0.0
 30
0.0
210
0.0
220
0.0
230
1.0
  2
SOLID
 70
1
 71
0
 91
1
 92
3
 72
0
 73
1
 93
4
 10
202.5
 20
705.0
 10
245.0
 20
705.0
 10
245.0
 20
700.0
 10
202.5
 20
700.0
 97
0
 75
1
 76
1
 98
0
  0
LWPOLYLINE
  5
B1
330
17
100
AcDbEntity
  8
WALL
100
AcDbPolyline
 90
4
 70
1
 10
2035.0
 20
700.0
 10
2095.0
 20
700.0
 10
2095.0
 20
690.0
 10
2035.0
 20
690.0
  0
HATCH
  5
B2
330
17
100
AcDbEntity
  8
WALL
100
AcDbHatch
 10
0.0
 20
0.0
 30
0.0
210
0.0
220
0.0
230
1.0
  2
SOLID
 70
1
 71
0
 91
1
 92
3
 72
0
 73
1
 93
4
 10
2035.0
 20
700.0
 10
2095.0
 20
700.0
 10
2095.0
 20
690.0
 10
2035.0
 20
690.0
 97
0
 75
1
 76
1
 98
0
  0
LWPOLYLINE
  5
B3
330
17
100
AcDbEntity
  8
WALL
100
AcDbPolyline
 90
4
 70
1
 10
187.5
 20
690.0
 10
232.5
 20
690.0
 10
232.5
 20
675.0
 10
187.5
 20
675.0
  0
HATCH
  5
B4
330
17
100
AcDbEntity
  8
WALL
100
AcDbHatch
 10
0.0
 20
0.0
 30
0.0
210
0.0
220
0.0
230
1.0
  2
SOLID
 70
1
 71
0
 91
1
 92
3
 72
0
 73
1
 93
4
 10
187.5
 20
690.0
 10
232.5
 20
690.0
 10
232.5
 20
675.0
 10
187.5
 20
675.0
 97
0
 75
1
 76
1
 98
0
  0
LWPOLYLINE
  5
B5
330
17
100
AcDbEntity
  8
WALL
100
AcDbPolyline
 90
4
 70
1
 10
2122.5
 20
662.5
 10
2152.5
 20
662.5
 10
2152.5
 20
647.5
 10
2122.5
 20
647.5
  0
HATCH
  5
B6
330
17
100
AcDbEntity
  8
WALL
100
AcDbHatch
 10
0.0
 20
0.0
 30
0.0
210
0.0
220
0.0
230
1.0
  2
SOLID
 70
1
 71
0
 91
1
 92
3
 72
0
 73
1
 93
4
 10
2122.5
 20
662.5
 10
2152.5
 20
662.5
 10
2152.5
 20
647.5
 10
2122.5
 20
647.5
 97
0
 75
1
 76
1
 98
0
  0
LWPOLYLINE
  5
B7
330
17
100
AcDbEntity
  8
WALL
100
AcDbPolyline
 90
4
 70
1
 10
1187.5
 20
577.5
 10
1347.5
 20
577.5
 10
1347.5
 20
560.0
 10
1187.5
 20
560.0
  0
HATCH
  5
B8
330
17
100
AcDbEntity
  8
WALL
100
AcDbHatch
 10
0.0
 20
0.0
 30
0.0
210
0.0
220
0.0
230
1.0
  2
SOLID
 70
1
 71
0
 91
1
 92
3
 72
0
 73
1
 93
4
 10
1187.5
 20
577.5
 10
1347.5
 20
577.5
 10
1347.5
 20
560.0
 10
1187.5
 20
560.0
 97
0
 75
1
 76
1
 98
0
  0
LWPOLYLINE
  5
B9
330
17
100
AcDbEntity
  8
WALL
100
AcDbPolyline
 90
4
 70
1
 10
1367.5
 20
545.0
 10
1547.5
 20
545.0
 10
1547.5
 20
535.0
 10
1367.5
 20
535.0
  0
HATCH
  5
BA
330
17
100
AcDbEntity
  8
WALL
100
AcDbHatch
 10
0.0
 20
0.0
 30
0.0
210
0.0
220
0.0
230
1.0
  2
SOLID
 70
1
 71
0
 91
1
 92
3
 72
0
 73
1
 93
4
 10
1367.5
 20
545.0
 10
1547.5
 20
545.0
 10
1547.5
 20
535.0
 10
1367.5
 20
535.0
 97
0
 75
1
 76
1
 98
0
  0
LWPOLYLINE
  5
BB
330
17
100
AcDbEntity
  8
WALL
100
AcDbPolyline
 90
4
 70
1
 10
1560.0
 20
545.0
 10
1657.5
 20
545.0
 10
1657.5
 20
535.0
 10
1560.0
 20
535.0
  0
HATCH
  5
BC
330
17
100
AcDbEntity
  8
WALL
100
AcDbHatch
 10
0.0
 20
0.0
 30
0.0
210
0.0
220
0.0
230
1.0
  2
SOLID
 70
1
 71
0
 91
1
 92
3
 72
0
 73
1
 93
4
 10
1560.0
 20
545.0
 10
1657.5
 20
545.0
 10
1657.5
 20
535.0
 10
1560.0
 20
535.0
 97
0
 75
1
 76
1
 98
0
  0
LWPOLYLINE
  5
BD
330
17
100
AcDbEntity
  8
WALL
100
AcDbPolyline
 90
4
 70
1
 10
620.0
 20
540.0
 10
1202.5
 20
540.0
 10
1202.5
 20
530.0
 10
620.0
 20
530.0
  0
HATCH
  5
BE
330
17
100
AcDbEntity
  8
WALL
100
AcDbHatch
 10
0.0
 20
0.0
 30
0.0
210
0.0
220
0.0
230
1.0
  2
SOLID
 70
1
 71
0
 91
1
 92
3
 72
0
 73
1
 93
4
 10
620.0
 20
540.0
 10
1202.5
 20
540.0
 10
1202.5
 20
530.0
 10
620.0
 20
530.0
 97
0
 75
1
 76
1
 98
0
  0
LWPOLYLINE
  5
BF
330
17
100
AcDbEntity
  8
WALL
100
AcDbPolyline
 90
4
 70
1
 10
2122.5
 20
530.0
 10
2152.5
 20
530.0
 10
2152.5
 20
527.5
 10
2122.5
 20
527.5
  0
HATCH
  5
C0
330
17
100
AcDbEntity
  8
WALL
100
AcDbHatch
 10
0.0
 20
0.0
 30
0.0
210
0.0
220
0.0
230
1.0
  2
SOLID
 70
1
 71
0
 91
1
 92
3
 72
0
 73
1
 93
4
 10
2122.5
 20
530.0
 10
2152.5
 20
530.0
 10
2152.5
 20
527.5
 10
2122.5
 20
527.5
 97
0
 75
1
 76
1
 98
0
  0
LWPOLYLINE
  5
C1
330
17
100
AcDbEntity
  8
WALL
100
AcDbPolyline
 90
4
 70
1
 10
577.5
 20
492.5
 10
607.5
 20
492.5
 10
607.5
 20
487.5
 10
577.5
 20
487.5
  0
HATCH
  5
C2
330
17
100
AcDbEntity
  8
WALL
100
AcDbHatch
 10
0.0
 20
0.0
 30
0.0
210
0.0
220
0.0
230
1.0
  2
SOLID
 70
1
 71
0
 91
1
 92
3
 72
0
 73
1
 93
4
 10
577.5
 20
492.5
 10
607.5
 20
492.5
 10
607.5
 20
487.5
 10
577.5
 20
487.5
 97
0
 75
1
 76
1
 98
0
  0
LWPOLYLINE
  5
C3
330
17
100
AcDbEntity
  8
WALL
100
AcDbPolyline
 90
4
 70
1
 10
567.5
 20
475.0
 10
607.5
 20
475.0
 10
607.5
 20
465.0
 10
567.5
 20
465.0
  0
HATCH
  5
C4
330
17
100
AcDbEntity
  8
WALL
100
AcDbHatch
 10
0.0
 20
0.0
 30
0.0
210
0.0
220
0.0
230
1.0
  2
SOLID
 70
1
 71
0
 91
1
 92
3
 72
0
 73
1
 93
4
 10
567.5
 20
475.0
 10
607.5
 20
475.0
 10
607.5
 20
465.0
 10
567.5
 20
465.0
 97
0
 75
1
 76
1
 98
0
  0
LWPOLYLINE
  5
C5
330
17
100
AcDbEntity
  8
WALL
100
AcDbPolyline
 90
4
 70
1
 10
1367.5
 20
440.0
 10
1407.5
 20
440.0
 10
1407.5
 20
435.0
 10
1367.5
 20
435.0
  0
HATCH
  5
C6
330
17
100
AcDbEntity
  8
WALL
100
AcDbHatch
 10
0.0
 20
0.0
 30
0.0
210
0.0
220
0.0
230
1.0
  2
SOLID
 70
1
 71
0
 91
1
 92
3
 72
0
 73
1
 93
4
 10
1367.5
 20
440.0
 10
1407.5
 20
440.0
 10
1407.5
 20
435.0
 10
1367.5
 20
435.0
 97
0
 75
1
 76
1
 98
0
  0
LWPOLYLINE
  5
C7
330
17
100
AcDbEntity
  8
WALL
100
AcDbPolyline
 90
4
 70
1
 10
1430.0
 20
435.0
 10
1472.5
 20
435.0
 10
1472.5
 20
420.0
 10
1430.0
 20
420.0
  0
HATCH
  5
C8
330
17
100
AcDbEntity
  8
WALL
100
AcDbHatch
 10
0.0
 20
0.0
 30
0.0
210
0.0
220
0.0
230
1.0
  2
SOLID
 70
1
 71
0
 91
1
 92
3
 72
0
 73
1
 93
4
 10
1430.0
 20
435.0
 10
1472.5
 20
435.0
 10
1472.5
 20
420.0
 10
1430.0
 20
420.0
 97
0
 75
1
 76
1
 98
0
  0
LWPOLYLINE
  5
C9
330
17
100
AcDbEntity
  8
WALL
100
AcDbPolyline
 90
4
 70
1
 10
1505.0
 20
435.0
 10
1547.5
 20
435.0
 10
1547.5
 20
422.5
 10
1505.0
 20
422.5
  0
HATCH
  5
CA
330
17
100
AcDbEntity
  8
WALL
100
AcDbHatch
 10
0.0
 20
0.0
 30
0.0
210
0.0
220
0.0
230
1.0
  2
SOLID
 70
1
 71
0
 91
1
 92
3
 72
0
 73
1
 93
4
 10
1505.0
 20
435.0
 10
1547.5
 20
435.0
 10
1547.5
 20
422.5
 10
1505.0
 20
422.5
 97
0
 75
1
 76
1
 98
0
  0
LWPOLYLINE
  5
CB
330
17
100
AcDbEntity
  8
WALL
100
AcDbPolyline
 90
4
 70
1
 10
1477.5
 20
422.5
 10
1510.0
 20
422.5
 10
1510.0
 20
417.5
 10
1477.5
 20
417.5
  0
HATCH
  5
CC
330
17
100
AcDbEntity
  8
WALL
100
AcDbHatch
 10
0.0
 20
0.0
 30
0.0
210
0.0
220
0.0
230
1.0
  2
SOLID
 70
1
 71
0
 91
1
 92
3
 72
0
 73
1
 93
4
 10
1477.5
 20
422.5
 10
1510.0
 20
422.5
 10
1510.0
 20
417.5
 10
1477.5
 20
417.5
 97
0
 75
1
 76
1
 98
0
  0
LWPOLYLINE
  5
CD
330
17
100
AcDbEntity
  8
WALL
100
AcDbPolyline
 90
4
 70
1
 10
2122.5
 20
417.5
 10
2152.5
 20
417.5
 10
2152.5
 20
407.5
 10
2122.5
 20
407.5
  0
HATCH
  5
CE
330
17
100
AcDbEntity
  8
WALL
100
AcDbHatch
 10
0.0
 20
0.0
 30
0.0
210
0.0
220
0.0
230
1.0
  2
SOLID
 70
1
 71
0
 91
1
 92
3
 72
0
 73
1
 93
4
 10
2122.5
 20
417.5
 10
2152.5
 20
417.5
 10
2152.5
 20
407.5
 10
2122.5
 20
407.5
 97
0
 75
1
 76
1
 98
0
  0
LWPOLYLINE
  5
CF
330
17
100
AcDbEntity
  8
WALL
100
AcDbPolyline
 90
4
 70
1
 10
397.5
 20
407.5
 10
432.5
 20
407.5
 10
432.5
 20
390.0
 10
397.5
 20
390.0
  0
HATCH
  5
D0
330
17
100
AcDbEntity
  8
WALL
100
AcDbHatch
 10
0.0
 20
0.0
 30
0.0
210
0.0
220
0.0
230
1.0
  2
SOLID
 70
1
 71
0
 91
1
 92
3
 72
0
 73
1
 93
4
 10
397.5
 20
407.5
 10
432.5
 20
407.5
 10
432.5
 20
390.0
 10
397.5
 20
390.0
 97
0
 75
1
 76
1
 98
0
  0
LWPOLYLINE
  5
D1
330
17
100
AcDbEntity
  8
WALL
100
AcDbPolyline
 90
4
 70
1
 10
1407.5
 20
405.0
 10
1552.5
 20
405.0
 10
1552.5
 20
395.0
 10
1407.5
 20
395.0
  0
HATCH
  5
D2
330
17
100
AcDbEntity
  8
WALL
100
AcDbHatch
 10
0.0
 20
0.0
 30
0.0
210
0.0
220
0.0
230
1.0
  2
SOLID
 70
1
 71
0
 91
1
 92
3
 72
0
 73
1
 93
4
 10
1407.5
 20
405.0
 10
1552.5
 20
405.0
 10
1552.5
 20
395.0
 10
1407.5
 20
395.0
 97
0
 75
1
 76
1
 98
0
  0
LWPOLYLINE
  5
D3
330
17
100
AcDbEntity
  8
WALL
100
AcDbPolyline
 90
4
 70
1
 10
455.0
 20
395.0
 10
557.5
 20
395.0
 10
557.5
 20
370.0
 10
455.0
 20
370.0
  0
HATCH
  5
D4
330
17
100
AcDbEntity
  8
WALL
100
AcDbHatch
 10
0.0
 20
0.0
 30
0.0
210
0.0
220
0.0
230
1.0
  2
SOLID
 70
1
 71
0
 91
1
 92
3
 72
0
 73
1
 93
4
 10
455.0
 20
395.0
 10
557.5
 20
395.0
 10
557.5
 20
370.0
 10
455.0
 20
370.0
 97
0
 75
1
 76
1
 98
0
  0
LWPOLYLINE
  5
D5
330
17
100
AcDbEntity
  8
WALL
100
AcDbPolyline
 90
4
 70
1
 10
612.5
 20
395.0
 10
1247.5
 20
395.0
 10
1247.5
 20
370.0
 10
612.5
 20
370.0
  0
HATCH
  5
D6
330
17
100
AcDbEntity
  8
WALL
100
AcDbHatch
 10
0.0
 20
0.0
 30
0.0
210
0.0
220
0.0
230
1.0
  2
SOLID
 70
1
 71
0
 91
1
 92
3
 72
0
 73
1
 93
4
 10
612.5
 20
395.0
 10
1247.5
 20
395.0
 10
1247.5
 20
370.0
 10
612.5
 20
370.0
 97
0
 75
1
 76
1
 98
0
  0
LWPOLYLINE
  5
D7
330
17
100
AcDbEntity
  8
WALL
100
AcDbPolyline
 90
4
 70
1
 10
975.0
 20
365.0
 10
1015.0
 20
365.0
 10
1015.0
 20
355.0
 10
975.0
 20
355.0
  0
HATCH
  5
D8
330
17
100
AcDbEntity
  8
WALL
100
AcDbHatch
 10
0.0
 20
0.0
 30
0.0
210
0.0
220
0.0
230
1.0
  2
SOLID
 70
1
 71
0
 91
1
 92
3
 72
0
 73
1
 93
4
 10
975.0
 20
365.0
 10
1015.0
 20
365.0
 10
1015.0
 20
355.0
 10
975.0
 20
355.0
 97
0
 75
1
 76
1
 98
0
  0
LWPOLYLINE
  5
D9
330
17
100
AcDbEntity
  8
WALL
100
AcDbPolyline
 90
4
 70
1
 10
1030.0
 20
365.0
 10
1095.0
 20
365.0
 10
1095.0
 20
355.0
 10
1030.0
 20
355.0
  0
HATCH
  5
DA
330
17
100
AcDbEntity
  8
WALL
100
AcDbHatch
 10
0.0
 20
0.0
 30
0.0
210
0.0
220
0.0
230
1.0
  2
SOLID
 70
1
 71
0
 91
1
 92
3
 72
0
 73
1
 93
4
 10
1030.0
 20
365.0
 10
1095.0
 20
365.0
 10
1095.0
 20
355.0
 10
1030.0
 20
355.0
 97
0
 75
1
 76
1
 98
0
  0
LWPOLYLINE
  5
DB
330
17
100
AcDbEntity
  8
WALL
100
AcDbPolyline
 90
4
 70
1
 10
1925.0
 20
327.5
 10
1970.0
 20
327.5
 10
1970.0
 20
322.5
 10
1925.0
 20
322.5
  0
HATCH
  5
DC
330
17
100
AcDbEntity
  8
WALL
100
AcDbHatch
 10
0.0
 20
0.0
 30
0.0
210
0.0
220
0.0
230
1.0
  2
SOLID
 70
1
 71
0
 91
1
 92
3
 72
0
 73
1
 93
4
 10
1925.0
 20
327.5
 10
1970.0
 20
327.5
 10
1970.0
 20
322.5
 10
1925.0
 20
322.5
 97
0
 75
1
 76
1
 98
0
  0
LWPOLYLINE
  5
DD
330
17
100
AcDbEntity
  8
WALL
100
AcDbPolyline
 90
4
 70
1
 10
2087.5
 20
285.0
 10
2117.5
 20
285.0
 10
2117.5
 20
280.0
 10
2087.5
 20
280.0
  0
HATCH
  5
DE
330
17
100
AcDbEntity
  8
WALL
100
AcDbHatch
 10
0.0
 20
0.0
 30
0.0
210
0.0
220
0.0
230
1.0
  2
SOLID
 70
1
 71
0
 91
1
 92
3
 72
0
 73
1
 93
4
 10
2087.5
 20
285.0
 10
2117.5
 20
285.0
 10
2117.5
 20
280.0
 10
2087.5
 20
280.0
 97
0
 75
1
 76
1
 98
0
  0
LWPOLYLINE
  5
DF
330
17
100
AcDbEntity
  8
WALL
100
AcDbPolyline
 90
4
 70
1
 10
217.5
 20
272.5
 10
250.0
 20
272.5
 10
250.0
 20
267.5
 10
217.5
 20
267.5
  0
HATCH
  5
E0
330
17
100
AcDbEntity
  8
WALL
100
AcDbHatch
 10
0.0
 20
0.0
 30
0.0
210
0.0
220
0.0
230
1.0
  2
SOLID
 70
1
 71
0
 91
1
 92
3
 72
0
 73
1
 93
4
 10
217.5
 20
272.5
 10
250.0
 20
272.5
 10
250.0
 20
267.5
 10
217.5
 20
267.5
 97
0
 75
1
 76
1
 98
0
  0
LWPOLYLINE
  5
E1
330
17
100
AcDbEntity
  8
WALL
100
AcDbPolyline
 90
4
 70
1
 10
1672.5
 20
252.5
 10
1702.5
 20
252.5
 10
1702.5
 20
245.0
 10
1672.5
 20
245.0
  0
HATCH
  5
E2
330
17
100
AcDbEntity
  8
WALL
100
AcDbHatch
 10
0.0
 20
0.0
 30
0.0
210
0.0
220
0.0
230
1.0
  2
SOLID
 70
1
 71
0
 91
1
 92
3
 72
0
 73
1
 93
4
 10
1672.5
 20
252.5
 10
1702.5
 20
252.5
 10
1702.5
 20
245.0
 10
1672.5
 20
245.0
 97
0
 75
1
 76
1
 98
0
  0
LWPOLYLINE
  5
E3
330
17
100
AcDbEntity
  8
WALL
100
AcDbPolyline
 90
4
 70
1
 10
2122.5
 20
160.0
 10
2152.5
 20
160.0
 10
2152.5
 20
147.5
 10
2122.5
 20
147.5
  0
HATCH
  5
E4
330
17
100
AcDbEntity
  8
WALL
100
AcDbHatch
 10
0.0
 20
0.0
 30
0.0
210
0.0
220
0.0
230
1.0
  2
SOLID
 70
1
 71
0
 91
1
 92
3
 72
0
 73
1
 93
4
 10
2122.5
 20
160.0
 10
2152.5
 20
160.0
 10
2152.5
 20
147.5
 10
2122.5
 20
147.5
 97
0
 75
1
 76
1
 98
0
  0
LWPOLYLINE
  5
E5
330
17
100
AcDbEntity
  8
WALL
100
AcDbPolyline
 90
4
 70
1
 10
2087.5
 20
110.0
 10
2117.5
 20
110.0
 10
2117.5
 20
107.5
 10
2087.5
 20
107.5
  0
HATCH
  5
E6
330
17
100
AcDbEntity
  8
WALL
100
AcDbHatch
 10
0.0
 20
0.0
 30
0.0
210
0.0
220
0.0
230
1.0
  2
SOLID
 70
1
 71
0
 91
1
 92
3
 72
0
 73
1
 93
4
 10
2087.5
 20
110.0
 10
2117.5
 20
110.0
 10
2117.5
 20
107.5
 10
2087.5
 20
107.5
 97
0
 75
1
 76
1
 98
0
  0
LWPOLYLINE
  5
E7
330
17
100
AcDbEntity
  8
WALL
100
AcDbPolyline
 90
4
 70
1
 10
2070.0
 20
100.0
 10
2117.5
 20
100.0
 10
2117.5
 20
90.0
 10
2070.0
 20
90.0
  0
HATCH
  5
E8
330
17
100
AcDbEntity
  8
WALL
100
AcDbHatch
 10
0.0
 20
0.0
 30
0.0
210
0.0
220
0.0
230
1.0
  2
SOLID
 70
1
 71
0
 91
1
 92
3
 72
0
 73
1
 93
4
 10
2070.0
 20
100.0
 10
2117.5
 20
100.0
 10
2117.5
 20
90.0
 10
2070.0
 20
90.0
 97
0
 75
1
 76
1
 98
0
  0
LWPOLYLINE
  5
E9
330
17
100
AcDbEntity
  8
WALL
100
AcDbPolyline
 90
4
 70
1
 10
2077.5
 20
80.0
 10
2117.5
 20
80.0
 10
2117.5
 20
65.0
 10
2077.5
 20
65.0
  0
HATCH
  5
EA
330
17
100
AcDbEntity
  8
WALL
100
AcDbHatch
 10
0.0
 20
0.0
 30
0.0
210
0.0
220
0.0
230
1.0
  2
SOLID
 70
1
 71
0
 91
1
 92
3
 72
0
 73
1
 93
4
 10
2077.5
 20
80.0
 10
2117.5
 20
80.0
 10
2117.5
 20
65.0
 10
2077.5
 20
65.0
 97
0
 75
1
 76
1
 98
0
  0
LWPOLYLINE
  5
EB
330
17
100
AcDbEntity
  8
WALL
100
AcDbPolyline
 90
4
 70
1
 10
392.5
 20
2137.5
 10
402.5
 20
2137.5
 10
402.5
 20
2107.5
 10
392.5
 20
2107.5
  0
HATCH
  5
EC
330
17
100
AcDbEntity
  8
WALL
100
AcDbHatch
 10
0.0
 20
0.0
 30
0.0
210
0.0
220
0.0
230
1.0
  2
SOLID
 70
1
 71
0
 91
1
 92
3
 72
0
 73
1
 93
4
 10
392.5
 20
2137.5
 10
402.5
 20
2137.5
 10
402.5
 20
2107.5
 10
392.5
 20
2107.5
 97
0
 75
1
 76
1
 98
0
  0
LWPOLYLINE
  5
ED
330
17
100
AcDbEntity
  8
WALL
100
AcDbPolyline
 90
4
 70
1
 10
1500.0
 20
2117.5
 10
1505.0
 20
2117.5
 10
1505.0
 20
2080.0
 10
1500.0
 20
2080.0
  0
HATCH
  5
EE
330
17
100
AcDbEntity
  8
WALL
100
AcDbHatch
 10
0.0
 20
0.0
 30
0.0
210
0.0
220
0.0
230
1.0
  2
SOLID
 70
1
 71
0
 91
1
 92
3
 72
0
 73
1
 93
4
 10
1500.0
 20
2117.5
 10
1505.0
 20
2117.5
 10
1505.0
 20
2080.0
 10
1500.0
 20
2080.0
 97
0
 75
1
 76
1
 98
0
  0
LWPOLYLINE
  5
EF
330
17
100
AcDbEntity
  8
WALL
100
AcDbPolyline
 90
4
 70
1
 10
400.0
 20
2102.5
 10
415.0
 20
2102.5
 10
415.0
 20
1980.0
 10
400.0
 20
1980.0
  0
HATCH
  5
F0
330
17
100
AcDbEntity
  8
WALL
100
AcDbHatch
 10
0.0
 20
0.0
 30
0.0
210
0.0
220
0.0
230
1.0
  2
SOLID
 70
1
 71
0
 91
1
 92
3
 72
0
 73
1
 93
4
 10
400.0
 20
2102.5
 10
415.0
 20
2102.5
 10
415.0
 20
1980.0
 10
400.0
 20
1980.0
 97
0
 75
1
 76
1
 98
0
  0
LWPOLYLINE
  5
F1
330
17
100
AcDbEntity
  8
WALL
100
AcDbPolyline
 90
4
 70
1
 10
975.0
 20
2102.5
 10
985.0
 20
2102.5
 10
985.0
 20
1732.5
 10
975.0
 20
1732.5
  0
HATCH
  5
F2
330
17
100
AcDbEntity
  8
WALL
100
AcDbHatch
 10
0.0
 20
0.0
 30
0.0
210
0.0
220
0.0
230
1.0
  2
SOLID
 70
1
 71
0
 91
1
 92
3
 72
0
 73
1
 93
4
 10
975.0
 20
2102.5
 10
985.0
 20
2102.5
 10
985.0
 20
1732.5
 10
975.0
 20
1732.5
 97
0
 75
1
 76
1
 98
0
  0
LWPOLYLINE
  5
F3
330
17
100
AcDbEntity
  8
WALL
100
AcDbPolyline
 90
4
 70
1
 10
1965.0
 20
2102.5
 10
1980.0
 20
2102.5
 10
1980.0
 20
2032.5
 10
1965.0
 20
2032.5
  0
HATCH
  5
F4
330
17
100
AcDbEntity
  8
WALL
100
AcDbHatch
 10
0.0
 20
0.0
 30
0.0
210
0.0
220
0.0
230
1.0
  2
SOLID
 70
1
 71
0
 91
1
 92
3
 72
0
 73
1
 93
4
 10
1965.0
 20
2102.5
 10
1980.0
 20
2102.5
 10
1980.0
 20
2032.5
 10
1965.0
 20
2032.5
 97
0
 75
1
 76
1
 98
0
  0
LWPOLYLINE
  5
F5
330
17
100
AcDbEntity
  8
WALL
100
AcDbPolyline
 90
4
 70
1
 10
1682.5
 20
2100.0
 10
1690.0
 20
2100.0
 10
1690.0
 20
2065.0
 10
1682.5
 20
2065.0
  0
HATCH
  5
F6
330
17
100
AcDbEntity
  8
WALL
100
AcDbHatch
 10
0.0
 20
0.0
 30
0.0
210
0.0
220
0.0
230
1.0
  2
SOLID
 70
1
 71
0
 91
1
 92
3
 72
0
 73
1
 93
4
 10
1682.5
 20
2100.0
 10
1690.0
 20
2100.0
 10
1690.0
 20
2065.0
 10
1682.5
 20
2065.0
 97
0
 75
1
 76
1
 98
0
  0
LWPOLYLINE
  5
F7
330
17
100
AcDbEntity
  8
WALL
100
AcDbPolyline
 90
4
 70
1
 10
1875.0
 20
2097.5
 10
1882.5
 20
2097.5
 10
1882.5
 20
2060.0
 10
1875.0
 20
2060.0
  0
HATCH
  5
F8
330
17
100
AcDbEntity
  8
WALL
100
AcDbHatch
 10
0.0
 20
0.0
 30
0.0
210
0.0
220
0.0
230
1.0
  2
SOLID
 70
1
 71
0
 91
1
 92
3
 72
0
 73
1
 93
4
 10
1875.0
 20
2097.5
 10
1882.5
 20
2097.5
 10
1882.5
 20
2060.0
 10
1875.0
 20
2060.0
 97
0
 75
1
 76
1
 98
0
  0
LWPOLYLINE
  5
F9
330
17
100
AcDbEntity
  8
WALL
100
AcDbPolyline
 90
4
 70
1
 10
285.0
 20
2085.0
 10
295.0
 20
2085.0
 10
295.0
 20
1960.0
 10
285.0
 20
1960.0
  0
HATCH
  5
FA
330
17
100
AcDbEntity
  8
WALL
100
AcDbHatch
 10
0.0
 20
0.0
 30
0.0
210
0.0
220
0.0
230
1.0
  2
SOLID
 70
1
 71
0
 91
1
 92
3
 72
0
 73
1
 93
4
 10
285.0
 20
2085.0
 10
295.0
 20
2085.0
 10
295.0
 20
1960.0
 10
285.0
 20
1960.0
 97
0
 75
1
 76
1
 98
0
  0
LWPOLYLINE
  5
FB
330
17
100
AcDbEntity
  8
WALL
100
AcDbPolyline
 90
4
 70
1
 10
1505.0
 20
2077.5
 10
1525.0
 20
2077.5
 10
1525.0
 20
1945.0
 10
1505.0
 20
1945.0
  0
HATCH
  5
FC
330
17
100
AcDbEntity
  8
WALL
100
AcDbHatch
 10
0.0
 20
0.0
 30
0.0
210
0.0
220
0.0
230
1.0
  2
SOLID
 70
1
 71
0
 91
1
 92
3
 72
0
 73
1
 93
4
 10
1505.0
 20
2077.5
 10
1525.0
 20
2077.5
 10
1525.0
 20
1945.0
 10
1505.0
 20
1945.0
 97
0
 75
1
 76
1
 98
0
  0
LWPOLYLINE
  5
FD
330
17
100
AcDbEntity
  8
WALL
100
AcDbPolyline
 90
4
 70
1
 10
1425.0
 20
2050.0
 10
1435.0
 20
2050.0
 10
1435.0
 20
1740.0
 10
1425.0
 20
1740.0
  0
HATCH
  5
FE
330
17
100
AcDbEntity
  8
WALL
100
AcDbHatch
 10
0.0
 20
0.0
 30
0.0
210
0.0
220
0.0
230
1.0
  2
SOLID
 70
1
 71
0
 91
1
 92
3
 72
0
 73
1
 93
4
 10
1425.0
 20
2050.0
 10
1435.0
 20
2050.0
 10
1435.0
 20
1740.0
 10
1425.0
 20
1740.0
 97
0
 75
1
 76
1
 98
0
  0
LWPOLYLINE
  5
FF
330
17
100
AcDbEntity
  8
WALL
100
AcDbPolyline
 90
4
 70
1
 10
1980.0
 20
2010.0
 10
1990.0
 20
2010.0
 10
1990.0
 20
1950.0
 10
1980.0
 20
1950.0
  0
HATCH
  5
100
330
17
100
AcDbEntity
  8
WALL
100
AcDbHatch
 10
0.0
 20
0.0
 30
0.0
210
0.0
220
0.0
230
1.0
  2
SOLID
 70
1
 71
0
 91
1
 92
3
 72
0
 73
1
 93
4
 10
1980.0
 20
2010.0
 10
1990.0
 20
2010.0
 10
1990.0
 20
1950.0
 10
1980.0
 20
1950.0
 97
0
 75
1
 76
1
 98
0
  0
LWPOLYLINE
  5
101
330
17
100
AcDbEntity
  8
WALL
100
AcDbPolyline
 90
4
 70
1
 10
1485.0
 20
2005.0
 10
1492.5
 20
2005.0
 10
1492.5
 20
1970.0
 10
1485.0
 20
1970.0
  0
HATCH
  5
102
330
17
100
AcDbEntity
  8
WALL
100
AcDbHatch
 10
0.0
 20
0.0
 30
0.0
210
0.0
220
0.0
230
1.0
  2
SOLID
 70
1
 71
0
 91
1
 92
3
 72
0
 73
1
 93
4
 10
1485.0
 20
2005.0
 10
1492.5
 20
2005.0
 10
1492.5
 20
1970.0
 10
1485.0
 20
1970.0
 97
0
 75
1
 76
1
 98
0
  0
LWPOLYLINE
  5
103
330
17
100
AcDbEntity
  8
WALL
100
AcDbPolyline
 90
4
 70
1
 10
910.0
 20
1985.0
 10
920.0
 20
1985.0
 10
920.0
 20
1945.0
 10
910.0
 20
1945.0
  0
HATCH
  5
104
330
17
100
AcDbEntity
  8
WALL
100
AcDbHatch
 10
0.0
 20
0.0
 30
0.0
210
0.0
220
0.0
230
1.0
  2
SOLID
 70
1
 71
0
 91
1
 92
3
 72
0
 73
1
 93
4
 10
910.0
 20
1985.0
 10
920.0
 20
1985.0
 10
920.0
 20
1945.0
 10
910.0
 20
1945.0
 97
0
 75
1
 76
1
 98
0
  0
LWPOLYLINE
  5
105
330
17
100
AcDbEntity
  8
WALL
100
AcDbPolyline
 90
4
 70
1
 10
400.0
 20
1970.0
 10
415.0
 20
1970.0
 10
415.0
 20
1920.0
 10
400.0
 20
1920.0
  0
HATCH
  5
106
330
17
100
AcDbEntity
  8
WALL
100
AcDbHatch
 10
0.0
 20
0.0
 30
0.0
210
0.0
220
0.0
230
1.0
  2
SOLID
 70
1
 71
0
 91
1
 92
3
 72
0
 73
1
 93
4
 10
400.0
 20
1970.0
 10
415.0
 20
1970.0
 10
415.0
 20
1920.0
 10
400.0
 20
1920.0
 97
0
 75
1
 76
1
 98
0
  0
LWPOLYLINE
  5
107
330
17
100
AcDbEntity
  8
WALL
100
AcDbPolyline
 90
4
 70
1
 10
315.0
 20
1962.5
 10
325.0
 20
1962.5
 10
325.0
 20
1917.5
 10
315.0
 20
1917.5
  0
HATCH
  5
108
330
17
100
AcDbEntity
  8
WALL
100
AcDbHatch
 10
0.0
 20
0.0
 30
0.0
210
0.0
220
0.0
230
1.0
  2
SOLID
 70
1
 71
0
 91
1
 92
3
 72
0
 73
1
 93
4
 10
315.0
 20
1962.5
 10
325.0
 20
1962.5
 10
325.0
 20
1917.5
 10
315.0
 20
1917.5
 97
0
 75
1
 76
1
 98
0
  0
LWPOLYLINE
  5
109
330
17
100
AcDbEntity
  8
WALL
100
AcDbPolyline
 90
4
 70
1
 10
255.0
 20
1947.5
 10
272.5
 20
1947.5
 10
272.5
 20
1892.5
 10
255.0
 20
1892.5
  0
HATCH
  5
10A
330
17
100
AcDbEntity
  8
WALL
100
AcDbHatch
 10
0.0
 20
0.0
 30
0.0
210
0.0
220
0.0
230
1.0
  2
SOLID
 70
1
 71
0
 91
1
 92
3
 72
0
 73
1
 93
4
 10
255.0
 20
1947.5
 10
272.5
 20
1947.5
 10
272.5
 20
1892.5
 10
255.0
 20
1892.5
 97
0
 75
1
 76
1
 98
0
  0
LWPOLYLINE
  5
10B
330
17
100
AcDbEntity
  8
WALL
100
AcDbPolyline
 90
4
 70
1
 10
1505.0
 20
1942.5
 10
1515.0
 20
1942.5
 10
1515.0
 20
1882.5
 10
1505.0
 20
1882.5
  0
HATCH
  5
10C
330
17
100
AcDbEntity
  8
WALL
100
AcDbHatch
 10
0.0
 20
0.0
 30
0.0
210
0.0
220
0.0
230
1.0
  2
SOLID
 70
1
 71
0
 91
1
 92
3
 72
0
 73
1
 93
4
 10
1505.0
 20
1942.5
 10
1515.0
 20
1942.5
 10
1515.0
 20
1882.5
 10
1505.0
 20
1882.5
 97
0
 75
1
 76
1
 98
0
  0
LWPOLYLINE
  5
10D
330
17
100
AcDbEntity
  8
WALL
100
AcDbPolyline
 90
4
 70
1
 10
1980.0
 20
1945.0
 10
1990.0
 20
1945.0
 10
1990.0
 20
1895.0
 10
1980.0
 20
1895.0
  0
HATCH
  5
10E
330
17
100
AcDbEntity
  8
WALL
100
AcDbHatch
 10
0.0
 20
0.0
 30
0.0
210
0.0
220
0.0
230
1.0
  2
SOLID
 70
1
 71
0
 91
1
 92
3
 72
0
 73
1
 93
4
 10
1980.0
 20
1945.0
 10
1990.0
 20
1945.0
 10
1990.0
 20
1895.0
 10
1980.0
 20
1895.0
 97
0
 75
1
 76
1
 98
0
  0
LWPOLYLINE
  5
10F
330
17
100
AcDbEntity
  8
WALL
100
AcDbPolyline
 90
4
 70
1
 10
290.0
 20
1940.0
 10
292.5
 20
1940.0
 10
292.5
 20
1900.0
 10
290.0
 20
1900.0
  0
HATCH
  5
110
330
17
100
AcDbEntity
  8
WALL
100
AcDbHatch
 10
0.0
 20
0.0
 30
0.0
210
0.0
220
0.0
230
1.0
  2
SOLID
 70
1
 71
0
 91
1
 92
3
 72
0
 73
1
 93
4
 10
290.0
 20
1940.0
 10
292.5
 20
1940.0
 10
292.5
 20
1900.0
 10
290.0
 20
1900.0
 97
0
 75
1
 76
1
 98
0
  0
LWPOLYLINE
  5
111
330
17
100
AcDbEntity
  8
WALL
100
AcDbPolyline
 90
4
 70
1
 10
1520.0
 20
1925.0
 10
1522.5
 20
1925.0
 10
1522.5
 20
1885.0
 10
1520.0
 20
1885.0
  0
HATCH
  5
112
330
17
100
AcDbEntity
  8
WALL
100
AcDbHatch
 10
0.0
 20
0.0
 30
0.0
210
0.0
220
0.0
230
1.0
  2
SOLID
 70
1
 71
0
 91
1
 92
3
 72
0
 73
1
 93
4
 10
1520.0
 20
1925.0
 10
1522.5
 20
1925.0
 10
1522.5
 20
1885.0
 10
1520.0
 20
1885.0
 97
0
 75
1
 76
1
 98
0
  0
LWPOLYLINE
  5
113
330
17
100
AcDbEntity
  8
WALL
100
AcDbPolyline
 90
4
 70
1
 10
1970.0
 20
1897.5
 10
1975.0
 20
1897.5
 10
1975.0
 20
1857.5
 10
1970.0
 20
1857.5
  0
HATCH
  5
114
330
17
100
AcDbEntity
  8
WALL
100
AcDbHatch
 10
0.0
 20
0.0
 30
0.0
210
0.0
220
0.0
230
1.0
  2
SOLID
 70
1
 71
0
 91
1
 92
3
 72
0
 73
1
 93
4
 10
1970.0
 20
1897.5
 10
1975.0
 20
1897.5
 10
1975.0
 20
1857.5
 10
1970.0
 20
1857.5
 97
0
 75
1
 76
1
 98
0
  0
LWPOLYLINE
  5
115
330
17
100
AcDbEntity
  8
WALL
100
AcDbPolyline
 90
4
 70
1
 10
2120.0
 20
1817.5
 10
2130.0
 20
1817.5
 10
2130.0
 20
1782.5
 10
2120.0
 20
1782.5
  0
HATCH
  5
116
330
17
100
AcDbEntity
  8
WALL
100
AcDbHatch
 10
0.0
 20
0.0
 30
0.0
210
0.0
220
0.0
230
1.0
  2
SOLID
 70
1
 71
0
 91
1
 92
3
 72
0
 73
1
 93
4
 10
2120.0
 20
1817.5
 10
2130.0
 20
1817.5
 10
2130.0
 20
1782.5
 10
2120.0
 20
1782.5
 97
0
 75
1
 76
1
 98
0
  0
LWPOLYLINE
  5
117
330
17
100
AcDbEntity
  8
WALL
100
AcDbPolyline
 90
4
 70
1
 10
1910.0
 20
1805.0
 10
1920.0
 20
1805.0
 10
1920.0
 20
1362.5
 10
1910.0
 20
1362.5
  0
HATCH
  5
118
330
17
100
AcDbEntity
  8
WALL
100
AcDbHatch
 10
0.0
 20
0.0
 30
0.0
210
0.0
220
0.0
230
1.0
  2
SOLID
 70
1
 71
0
 91
1
 92
3
 72
0
 73
1
 93
4
 10
1910.0
 20
1805.0
 10
1920.0
 20
1805.0
 10
1920.0
 20
1362.5
 10
1910.0
 20
1362.5
 97
0
 75
1
 76
1
 98
0
  0
LWPOLYLINE
  5
119
330
17
100
AcDbEntity
  8
WALL
100
AcDbPolyline
 90
4
 70
1
 10
1510.0
 20
1785.0
 10
1525.0
 20
1785.0
 10
1525.0
 20
1677.5
 10
1510.0
 20
1677.5
  0
HATCH
  5
11A
330
17
100
AcDbEntity
  8
WALL
100
AcDbHatch
 10
0.0
 20
0.0
 30
0.0
210
0.0
220
0.0
230
1.0
  2
SOLID
 70
1
 71
0
 91
1
 92
3
 72
0
 73
1
 93
4
 10
1510.0
 20
1785.0
 10
1525.0
 20
1785.0
 10
1525.0
 20
1677.5
 10
1510.0
 20
1677.5
 97
0
 75
1
 76
1
 98
0
  0
LWPOLYLINE
  5
11B
330
17
100
AcDbEntity
  8
WALL
100
AcDbPolyline
 90
4
 70
1
 10
1045.0
 20
1732.5
 10
1065.0
 20
1732.5
 10
1065.0
 20
1552.5
 10
1045.0
 20
1552.5
  0
HATCH
  5
11C
330
17
100
AcDbEntity
  8
WALL
100
AcDbHatch
 10
0.0
 20
0.0
 30
0.0
210
0.0
220
0.0
230
1.0
  2
SOLID
 70
1
 71
0
 91
1
 92
3
 72
0
 73
1
 93
4
 10
1045.0
 20
1732.5
 10
1065.0
 20
1732.5
 10
1065.0
 20
1552.5
 10
1045.0
 20
1552.5
 97
0
 75
1
 76
1
 98
0
  0
LWPOLYLINE
  5
11D
330
17
100
AcDbEntity
  8
WALL
100
AcDbPolyline
 90
4
 70
1
 10
960.0
 20
1717.5
 10
970.0
 20
1717.5
 10
970.0
 20
1672.5
 10
960.0
 20
1672.5
  0
HATCH
  5
11E
330
17
100
AcDbEntity
  8
WALL
100
AcDbHatch
 10
0.0
 20
0.0
 30
0.0
210
0.0
220
0.0
230
1.0
  2
SOLID
 70
1
 71
0
 91
1
 92
3
 72
0
 73
1
 93
4
 10
960.0
 20
1717.5
 10
970.0
 20
1717.5
 10
970.0
 20
1672.5
 10
960.0
 20
1672.5
 97
0
 75
1
 76
1
 98
0
  0
LWPOLYLINE
  5
11F
330
17
100
AcDbEntity
  8
WALL
100
AcDbPolyline
 90
4
 70
1
 10
1110.0
 20
1687.5
 10
1125.0
 20
1687.5
 10
1125.0
 20
1572.5
 10
1110.0
 20
1572.5
  0
HATCH
  5
120
330
17
100
AcDbEntity
  8
WALL
100
AcDbHatch
 10
0.0
 20
0.0
 30
0.0
210
0.0
220
0.0
230
1.0
  2
SOLID
 70
1
 71
0
 91
1
 92
3
 72
0
 73
1
 93
4
 10
1110.0
 20
1687.5
 10
1125.0
 20
1687.5
 10
1125.0
 20
1572.5
 10
1110.0
 20
1572.5
 97
0
 75
1
 76
1
 98
0
  0
LWPOLYLINE
  5
121
330
17
100
AcDbEntity
  8
WALL
100
AcDbPolyline
 90
4
 70
1
 10
2122.5
 20
1622.5
 10
2137.5
 20
1622.5
 10
2137.5
 20
1592.5
 10
2122.5
 20
1592.5
  0
HATCH
  5
122
330
17
100
AcDbEntity
  8
WALL
100
AcDbHatch
 10
0.0
 20
0.0
 30
0.0
210
0.0
220
0.0
230
1.0
  2
SOLID
 70
1
 71
0
 91
1
 92
3
 72
0
 73
1
 93
4
 10
2122.5
 20
1622.5
 10
2137.5
 20
1622.5
 10
2137.5
 20
1592.5
 10
2122.5
 20
1592.5
 97
0
 75
1
 76
1
 98
0
  0
LWPOLYLINE
  5
123
330
17
100
AcDbEntity
  8
WALL
100
AcDbPolyline
 90
4
 70
1
 10
1500.0
 20
1620.0
 10
1502.5
 20
1620.0
 10
1502.5
 20
1582.5
 10
1500.0
 20
1582.5
  0
HATCH
  5
124
330
17
100
AcDbEntity
  8
WALL
100
AcDbHatch
 10
0.0
 20
0.0
 30
0.0
210
0.0
220
0.0
230
1.0
  2
SOLID
 70
1
 71
0
 91
1
 92
3
 72
0
 73
1
 93
4
 10
1500.0
 20
1620.0
 10
1502.5
 20
1620.0
 10
1502.5
 20
1582.5
 10
1500.0
 20
1582.5
 97
0
 75
1
 76
1
 98
0
  0
LWPOLYLINE
  5
125
330
17
100
AcDbEntity
  8
WALL
100
AcDbPolyline
 90
4
 70
1
 10
875.0
 20
1605.0
 10
885.0
 20
1605.0
 10
885.0
 20
1470.0
 10
875.0
 20
1470.0
  0
HATCH
  5
126
330
17
100
AcDbEntity
  8
WALL
100
AcDbHatch
 10
0.0
 20
0.0
 30
0.0
210
0.0
220
0.0
230
1.0
  2
SOLID
 70
1
 71
0
 91
1
 92
3
 72
0
 73
1
 93
4
 10
875.0
 20
1605.0
 10
885.0
 20
1605.0
 10
885.0
 20
1470.0
 10
875.0
 20
1470.0
 97
0
 75
1
 76
1
 98
0
  0
LWPOLYLINE
  5
127
330
17
100
AcDbEntity
  8
WALL
100
AcDbPolyline
 90
4
 70
1
 10
1487.5
 20
1590.0
 10
1490.0
 20
1590.0
 10
1490.0
 20
1490.0
 10
1487.5
 20
1490.0
  0
HATCH
  5
128
330
17
100
AcDbEntity
  8
WALL
100
AcDbHatch
 10
0.0
 20
0.0
 30
0.0
210
0.0
220
0.0
230
1.0
  2
SOLID
 70
1
 71
0
 91
1
 92
3
 72
0
 73
1
 93
4
 10
1487.5
 20
1590.0
 10
1490.0
 20
1590.0
 10
1490.0
 20
1490.0
 10
1487.5
 20
1490.0
 97
0
 75
1
 76
1
 98
0
  0
LWPOLYLINE
  5
129
330
17
100
AcDbEntity
  8
WALL
100
AcDbPolyline
 90
4
 70
1
 10
1510.0
 20
1562.5
 10
1525.0
 20
1562.5
 10
1525.0
 20
1490.0
 10
1510.0
 20
1490.0
  0
HATCH
  5
12A
330
17
100
AcDbEntity
  8
WALL
100
AcDbHatch
 10
0.0
 20
0.0
 30
0.0
210
0.0
220
0.0
230
1.0
  2
SOLID
 70
1
 71
0
 91
1
 92
3
 72
0
 73
1
 93
4
 10
1510.0
 20
1562.5
 10
1525.0
 20
1562.5
 10
1525.0
 20
1490.0
 10
1510.0
 20
1490.0
 97
0
 75
1
 76
1
 98
0
  0
LWPOLYLINE
  5
12B
330
17
100
AcDbEntity
  8
WALL
100
AcDbPolyline
 90
4
 70
1
 10
1235.0
 20
1552.5
 10
1260.0
 20
1552.5
 10
1260.0
 20
1407.5
 10
1235.0
 20
1407.5
  0
HATCH
  5
12C
330
17
100
AcDbEntity
  8
WALL
100
AcDbHatch
 10
0.0
 20
0.0
 30
0.0
210
0.0
220
0.0
230
1.0
  2
SOLID
 70
1
 71
0
 91
1
 92
3
 72
0
 73
1
 93
4
 10
1235.0
 20
1552.5
 10
1260.0
 20
1552.5
 10
1260.0
 20
1407.5
 10
1235.0
 20
1407.5
 97
0
 75
1
 76
1
 98
0
  0
LWPOLYLINE
  5
12D
330
17
100
AcDbEntity
  8
WALL
100
AcDbPolyline
 90
4
 70
1
 10
2135.0
 20
1552.5
 10
2140.0
 20
1552.5
 10
2140.0
 20
1520.0
 10
2135.0
 20
1520.0
  0
HATCH
  5
12E
330
17
100
AcDbEntity
  8
WALL
100
AcDbHatch
 10
0.0
 20
0.0
 30
0.0
210
0.0
220
0.0
230
1.0
  2
SOLID
 70
1
 71
0
 91
1
 92
3
 72
0
 73
1
 93
4
 10
2135.0
 20
1552.5
 10
2140.0
 20
1552.5
 10
2140.0
 20
1520.0
 10
2135.0
 20
1520.0
 97
0
 75
1
 76
1
 98
0
  0
LWPOLYLINE
  5
12F
330
17
100
AcDbEntity
  8
WALL
100
AcDbPolyline
 90
4
 70
1
 10
2092.5
 20
1540.0
 10
2100.0
 20
1540.0
 10
2100.0
 20
1505.0
 10
2092.5
 20
1505.0
  0
HATCH
  5
130
330
17
100
AcDbEntity
  8
WALL
100
AcDbHatch
 10
0.0
 20
0.0
 30
0.0
210
0.0
220
0.0
230
1.0
  2
SOLID
 70
1
 71
0
 91
1
 92
3
 72
0
 73
1
 93
4
 10
2092.5
 20
1540.0
 10
2100.0
 20
1540.0
 10
2100.0
 20
1505.0
 10
2092.5
 20
1505.0
 97
0
 75
1
 76
1
 98
0
  0
LWPOLYLINE
  5
131
330
17
100
AcDbEntity
  8
WALL
100
AcDbPolyline
 90
4
 70
1
 10
665.0
 20
1517.5
 10
675.0
 20
1517.5
 10
675.0
 20
1460.0
 10
665.0
 20
1460.0
  0
HATCH
  5
132
330
17
100
AcDbEntity
  8
WALL
100
AcDbHatch
 10
0.0
 20
0.0
 30
0.0
210
0.0
220
0.0
230
1.0
  2
SOLID
 70
1
 71
0
 91
1
 92
3
 72
0
 73
1
 93
4
 10
665.0
 20
1517.5
 10
675.0
 20
1517.5
 10
675.0
 20
1460.0
 10
665.0
 20
1460.0
 97
0
 75
1
 76
1
 98
0
  0
LWPOLYLINE
  5
133
330
17
100
AcDbEntity
  8
WALL
100
AcDbPolyline
 90
4
 70
1
 10
400.0
 20
1512.5
 10
420.0
 20
1512.5
 10
420.0
 20
1292.5
 10
400.0
 20
1292.5
  0
HATCH
  5
134
330
17
100
AcDbEntity
  8
WALL
100
AcDbHatch
 10
0.0
 20
0.0
 30
0.0
210
0.0
220
0.0
230
1.0
  2
SOLID
 70
1
 71
0
 91
1
 92
3
 72
0
 73
1
 93
4
 10
400.0
 20
1512.5
 10
420.0
 20
1512.5
 10
420.0
 20
1292.5
 10
400.0
 20
1292.5
 97
0
 75
1
 76
1
 98
0
  0
LWPOLYLINE
  5
135
330
17
100
AcDbEntity
  8
WALL
100
AcDbPolyline
 90
4
 70
1
 10
760.0
 20
1497.5
 10
770.0
 20
1497.5
 10
770.0
 20
1457.5
 10
760.0
 20
1457.5
  0
HATCH
  5
136
330
17
100
AcDbEntity
  8
WALL
100
AcDbHatch
 10
0.0
 20
0.0
 30
0.0
210
0.0
220
0.0
230
1.0
  2
SOLID
 70
1
 71
0
 91
1
 92
3
 72
0
 73
1
 93
4
 10
760.0
 20
1497.5
 10
770.0
 20
1497.5
 10
770.0
 20
1457.5
 10
760.0
 20
1457.5
 97
0
 75
1
 76
1
 98
0
  0
LWPOLYLINE
  5
137
330
17
100
AcDbEntity
  8
WALL
100
AcDbPolyline
 90
4
 70
1
 10
2120.0
 20
1497.5
 10
2130.0
 20
1497.5
 10
2130.0
 20
1442.5
 10
2120.0
 20
1442.5
  0
HATCH
  5
138
330
17
100
AcDbEntity
  8
WALL
100
AcDbHatch
 10
0.0
 20
0.0
 30
0.0
210
0.0
220
0.0
230
1.0
  2
SOLID
 70
1
 71
0
 91
1
 92
3
 72
0
 73
1
 93
4
 10
2120.0
 20
1497.5
 10
2130.0
 20
1497.5
 10
2130.0
 20
1442.5
 10
2120.0
 20
1442.5
 97
0
 75
1
 76
1
 98
0
  0
LWPOLYLINE
  5
139
330
17
100
AcDbEntity
  8
WALL
100
AcDbPolyline
 90
4
 70
1
 10
315.0
 20
1492.5
 10
325.0
 20
1492.5
 10
325.0
 20
1457.5
 10
315.0
 20
1457.5
  0
HATCH
  5
13A
330
17
100
AcDbEntity
  8
WALL
100
AcDbHatch
 10
0.0
 20
0.0
 30
0.0
210
0.0
220
0.0
230
1.0
  2
SOLID
 70
1
 71
0
 91
1
 92
3
 72
0
 73
1
 93
4
 10
315.0
 20
1492.5
 10
325.0
 20
1492.5
 10
325.0
 20
1457.5
 10
315.0
 20
1457.5
 97
0
 75
1
 76
1
 98
0
  0
LWPOLYLINE
  5
13B
330
17
100
AcDbEntity
  8
WALL
100
AcDbPolyline
 90
4
 70
1
 10
255.0
 20
1482.5
 10
280.0
 20
1482.5
 10
280.0
 20
1342.5
 10
255.0
 20
1342.5
  0
HATCH
  5
13C
330
17
100
AcDbEntity
  8
WALL
100
AcDbHatch
 10
0.0
 20
0.0
 30
0.0
210
0.0
220
0.0
230
1.0
  2
SOLID
 70
1
 71
0
 91
1
 92
3
 72
0
 73
1
 93
4
 10
255.0
 20
1482.5
 10
280.0
 20
1482.5
 10
280.0
 20
1342.5
 10
255.0
 20
1342.5
 97
0
 75
1
 76
1
 98
0
  0
LWPOLYLINE
  5
13D
330
17
100
AcDbEntity
  8
WALL
100
AcDbPolyline
 90
4
 70
1
 10
465.0
 20
1462.5
 10
480.0
 20
1462.5
 10
480.0
 20
1347.5
 10
465.0
 20
1347.5
  0
HATCH
  5
13E
330
17
100
AcDbEntity
  8
WALL
100
AcDbHatch
 10
0.0
 20
0.0
 30
0.0
210
0.0
220
0.0
230
1.0
  2
SOLID
 70
1
 71
0
 91
1
 92
3
 72
0
 73
1
 93
4
 10
465.0
 20
1462.5
 10
480.0
 20
1462.5
 10
480.0
 20
1347.5
 10
465.0
 20
1347.5
 97
0
 75
1
 76
1
 98
0
  0
LWPOLYLINE
  5
13F
330
17
100
AcDbEntity
  8
WALL
100
AcDbPolyline
 90
4
 70
1
 10
1235.0
 20
1435.0
 10
1237.5
 20
1435.0
 10
1237.5
 20
1405.0
 10
1235.0
 20
1405.0
  0
HATCH
  5
140
330
17
100
AcDbEntity
  8
WALL
100
AcDbHatch
 10
0.0
 20
0.0
 30
0.0
210
0.0
220
0.0
230
1.0
  2
SOLID
 70
1
 71
0
 91
1
 92
3
 72
0
 73
1
 93
4
 10
1235.0
 20
1435.0
 10
1237.5
 20
1435.0
 10
1237.5
 20
1405.0
 10
1235.0
 20
1405.0
 97
0
 75
1
 76
1
 98
0
  0
LWPOLYLINE
  5
141
330
17
100
AcDbEntity
  8
WALL
100
AcDbPolyline
 90
4
 70
1
 10
285.0
 20
1405.0
 10
295.0
 20
1405.0
 10
295.0
 20
1325.0
 10
285.0
 20
1325.0
  0
HATCH
  5
142
330
17
100
AcDbEntity
  8
WALL
100
AcDbHatch
 10
0.0
 20
0.0
 30
0.0
210
0.0
220
0.0
230
1.0
  2
SOLID
 70
1
 71
0
 91
1
 92
3
 72
0
 73
1
 93
4
 10
285.0
 20
1405.0
 10
295.0
 20
1405.0
 10
295.0
 20
1325.0
 10
285.0
 20
1325.0
 97
0
 75
1
 76
1
 98
0
  0
LWPOLYLINE
  5
143
330
17
100
AcDbEntity
  8
WALL
100
AcDbPolyline
 90
4
 70
1
 10
1735.0
 20
1365.0
 10
1745.0
 20
1365.0
 10
1745.0
 20
1325.0
 10
1735.0
 20
1325.0
  0
HATCH
  5
144
330
17
100
AcDbEntity
  8
WALL
100
AcDbHatch
 10
0.0
 20
0.0
 30
0.0
210
0.0
220
0.0
230
1.0
  2
SOLID
 70
1
 71
0
 91
1
 92
3
 72
0
 73
1
 93
4
 10
1735.0
 20
1365.0
 10
1745.0
 20
1365.0
 10
1745.0
 20
1325.0
 10
1735.0
 20
1325.0
 97
0
 75
1
 76
1
 98
0
  0
LWPOLYLINE
  5
145
330
17
100
AcDbEntity
  8
WALL
100
AcDbPolyline
 90
4
 70
1
 10
2112.5
 20
1365.0
 10
2120.0
 20
1365.0
 10
2120.0
 20
1330.0
 10
2112.5
 20
1330.0
  0
HATCH
  5
146
330
17
100
AcDbEntity
  8
WALL
100
AcDbHatch
 10
0.0
 20
0.0
 30
0.0
210
0.0
220
0.0
230
1.0
  2
SOLID
 70
1
 71
0
 91
1
 92
3
 72
0
 73
1
 93
4
 10
2112.5
 20
1365.0
 10
2120.0
 20
1365.0
 10
2120.0
 20
1330.0
 10
2112.5
 20
1330.0
 97
0
 75
1
 76
1
 98
0
  0
LWPOLYLINE
  5
147
330
17
100
AcDbEntity
  8
WALL
100
AcDbPolyline
 90
4
 70
1
 10
1722.5
 20
1355.0
 10
1730.0
 20
1355.0
 10
1730.0
 20
1322.5
 10
1722.5
 20
1322.5
  0
HATCH
  5
148
330
17
100
AcDbEntity
  8
WALL
100
AcDbHatch
 10
0.0
 20
0.0
 30
0.0
210
0.0
220
0.0
230
1.0
  2
SOLID
 70
1
 71
0
 91
1
 92
3
 72
0
 73
1
 93
4
 10
1722.5
 20
1355.0
 10
1730.0
 20
1355.0
 10
1730.0
 20
1322.5
 10
1722.5
 20
1322.5
 97
0
 75
1
 76
1
 98
0
  0
LWPOLYLINE
  5
149
330
17
100
AcDbEntity
  8
WALL
100
AcDbPolyline
 90
4
 70
1
 10
287.5
 20
1310.0
 10
295.0
 20
1310.0
 10
295.0
 20
1265.0
 10
287.5
 20
1265.0
  0
HATCH
  5
14A
330
17
100
AcDbEntity
  8
WALL
100
AcDbHatch
 10
0.0
 20
0.0
 30
0.0
210
0.0
220
0.0
230
1.0
  2
SOLID
 70
1
 71
0
 91
1
 92
3
 72
0
 73
1
 93
4
 10
287.5
 20
1310.0
 10
295.0
 20
1310.0
 10
295.0
 20
1265.0
 10
287.5
 20
1265.0
 97
0
 75
1
 76
1
 98
0
  0
LWPOLYLINE
  5
14B
330
17
100
AcDbEntity
  8
WALL
100
AcDbPolyline
 90
4
 70
1
 10
255.0
 20
1297.5
 10
275.0
 20
1297.5
 10
275.0
 20
1130.0
 10
255.0
 20
1130.0
  0
HATCH
  5
14C
330
17
100
AcDbEntity
  8
WALL
100
AcDbHatch
 10
0.0
 20
0.0
 30
0.0
210
0.0
220
0.0
230
1.0
  2
SOLID
 70
1
 71
0
 91
1
 92
3
 72
0
 73
1
 93
4
 10
255.0
 20
1297.5
 10
275.0
 20
1297.5
 10
275.0
 20
1130.0
 10
255.0
 20
1130.0
 97
0
 75
1
 76
1
 98
0
  0
LWPOLYLINE
  5
14D
330
17
100
AcDbEntity
  8
WALL
100
AcDbPolyline
 90
4
 70
1
 10
675.0
 20
1297.5
 10
690.0
 20
1297.5
 10
690.0
 20
1157.5
 10
675.0
 20
1157.5
  0
HATCH
  5
14E
330
17
100
AcDbEntity
  8
WALL
100
AcDbHatch
 10
0.0
 20
0.0
 30
0.0
210
0.0
220
0.0
230
1.0
  2
SOLID
 70
1
 71
0
 91
1
 92
3
 72
0
 73
1
 93
4
 10
675.0
 20
1297.5
 10
690.0
 20
1297.5
 10
690.0
 20
1157.5
 10
675.0
 20
1157.5
 97
0
 75
1
 76
1
 98
0
  0
LWPOLYLINE
  5
14F
330
17
100
AcDbEntity
  8
WALL
100
AcDbPolyline
 90
4
 70
1
 10
2120.0
 20
1222.5
 10
2135.0
 20
1222.5
 10
2135.0
 20
1142.5
 10
2120.0
 20
1142.5
  0
HATCH
  5
150
330
17
100
AcDbEntity
  8
WALL
100
AcDbHatch
 10
0.0
 20
0.0
 30
0.0
210
0.0
220
0.0
230
1.0
  2
SOLID
 70
1
 71
0
 91
1
 92
3
 72
0
 73
1
 93
4
 10
2120.0
 20
1222.5
 10
2135.0
 20
1222.5
 10
2135.0
 20
1142.5
 10
2120.0
 20
1142.5
 97
0
 75
1
 76
1
 98
0
  0
LWPOLYLINE
  5
151
330
17
100
AcDbEntity
  8
WALL
100
AcDbPolyline
 90
4
 70
1
 10
2140.0
 20
1205.0
 10
2150.0
 20
1205.0
 10
2150.0
 20
1162.5
 10
2140.0
 20
1162.5
  0
HATCH
  5
152
330
17
100
AcDbEntity
  8
WALL
100
AcDbHatch
 10
0.0
 20
0.0
 30
0.0
210
0.0
220
0.0
230
1.0
  2
SOLID
 70
1
 71
0
 91
1
 92
3
 72
0
 73
1
 93
4
 10
2140.0
 20
1205.0
 10
2150.0
 20
1205.0
 10
2150.0
 20
1162.5
 10
2140.0
 20
1162.5
 97
0
 75
1
 76
1
 98
0
  0
LWPOLYLINE
  5
153
330
17
100
AcDbEntity
  8
WALL
100
AcDbPolyline
 90
4
 70
1
 10
385.0
 20
1190.0
 10
395.0
 20
1190.0
 10
395.0
 20
1152.5
 10
385.0
 20
1152.5
  0
HATCH
  5
154
330
17
100
AcDbEntity
  8
WALL
100
AcDbHatch
 10
0.0
 20
0.0
 30
0.0
210
0.0
220
0.0
230
1.0
  2
SOLID
 70
1
 71
0
 91
1
 92
3
 72
0
 73
1
 93
4
 10
385.0
 20
1190.0
 10
395.0
 20
1190.0
 10
395.0
 20
1152.5
 10
385.0
 20
1152.5
 97
0
 75
1
 76
1
 98
0
  0
LWPOLYLINE
  5
155
330
17
100
AcDbEntity
  8
WALL
100
AcDbPolyline
 90
4
 70
1
 10
455.0
 20
1185.0
 10
462.5
 20
1185.0
 10
462.5
 20
1152.5
 10
455.0
 20
1152.5
  0
HATCH
  5
156
330
17
100
AcDbEntity
  8
WALL
100
AcDbHatch
 10
0.0
 20
0.0
 30
0.0
210
0.0
220
0.0
230
1.0
  2
SOLID
 70
1
 71
0
 91
1
 92
3
 72
0
 73
1
 93
4
 10
455.0
 20
1185.0
 10
462.5
 20
1185.0
 10
462.5
 20
1152.5
 10
455.0
 20
1152.5
 97
0
 75
1
 76
1
 98
0
  0
LWPOLYLINE
  5
157
330
17
100
AcDbEntity
  8
WALL
100
AcDbPolyline
 90
4
 70
1
 10
937.5
 20
1157.5
 10
940.0
 20
1157.5
 10
940.0
 20
1127.5
 10
937.5
 20
1127.5
  0
HATCH
  5
158
330
17
100
AcDbEntity
  8
WALL
100
AcDbHatch
 10
0.0
 20
0.0
 30
0.0
210
0.0
220
0.0
230
1.0
  2
SOLID
 70
1
 71
0
 91
1
 92
3
 72
0
 73
1
 93
4
 10
937.5
 20
1157.5
 10
940.0
 20
1157.5
 10
940.0
 20
1127.5
 10
937.5
 20
1127.5
 97
0
 75
1
 76
1
 98
0
  0
LWPOLYLINE
  5
159
330
17
100
AcDbEntity
  8
WALL
100
AcDbPolyline
 90
4
 70
1
 10
1950.0
 20
1112.5
 10
1960.0
 20
1112.5
 10
1960.0
 20
1062.5
 10
1950.0
 20
1062.5
  0
HATCH
  5
15A
330
17
100
AcDbEntity
  8
WALL
100
AcDbHatch
 10
0.0
 20
0.0
 30
0.0
210
0.0
220
0.0
230
1.0
  2
SOLID
 70
1
 71
0
 91
1
 92
3
 72
0
 73
1
 93
4
 10
1950.0
 20
1112.5
 10
1960.0
 20
1112.5
 10
1960.0
 20
1062.5
 10
1950.0
 20
1062.5
 97
0
 75
1
 76
1
 98
0
  0
LWPOLYLINE
  5
15B
330
17
100
AcDbEntity
  8
WALL
100
AcDbPolyline
 90
4
 70
1
 10
1805.0
 20
1107.5
 10
1815.0
 20
1107.5
 10
1815.0
 20
1062.5
 10
1805.0
 20
1062.5
  0
HATCH
  5
15C
330
17
100
AcDbEntity
  8
WALL
100
AcDbHatch
 10
0.0
 20
0.0
 30
0.0
210
0.0
220
0.0
230
1.0
  2
SOLID
 70
1
 71
0
 91
1
 92
3
 72
0
 73
1
 93
4
 10
1805.0
 20
1107.5
 10
1815.0
 20
1107.5
 10
1815.0
 20
1062.5
 10
1805.0
 20
1062.5
 97
0
 75
1
 76
1
 98
0
  0
LWPOLYLINE
  5
15D
330
17
100
AcDbEntity
  8
WALL
100
AcDbPolyline
 90
4
 70
1
 10
435.0
 20
1067.5
 10
445.0
 20
1067.5
 10
445.0
 20
1002.5
 10
435.0
 20
1002.5
  0
HATCH
  5
15E
330
17
100
AcDbEntity
  8
WALL
100
AcDbHatch
 10
0.0
 20
0.0
 30
0.0
210
0.0
220
0.0
230
1.0
  2
SOLID
 70
1
 71
0
 91
1
 92
3
 72
0
 73
1
 93
4
 10
435.0
 20
1067.5
 10
445.0
 20
1067.5
 10
445.0
 20
1002.5
 10
435.0
 20
1002.5
 97
0
 75
1
 76
1
 98
0
  0
LWPOLYLINE
  5
15F
330
17
100
AcDbEntity
  8
WALL
100
AcDbPolyline
 90
4
 70
1
 10
320.0
 20
1062.5
 10
335.0
 20
1062.5
 10
335.0
 20
992.5
 10
320.0
 20
992.5
  0
HATCH
  5
160
330
17
100
AcDbEntity
  8
WALL
100
AcDbHatch
 10
0.0
 20
0.0
 30
0.0
210
0.0
220
0.0
230
1.0
  2
SOLID
 70
1
 71
0
 91
1
 92
3
 72
0
 73
1
 93
4
 10
320.0
 20
1062.5
 10
335.0
 20
1062.5
 10
335.0
 20
992.5
 10
320.0
 20
992.5
 97
0
 75
1
 76
1
 98
0
  0
LWPOLYLINE
  5
161
330
17
100
AcDbEntity
  8
WALL
100
AcDbPolyline
 90
4
 70
1
 10
1740.0
 20
1050.0
 10
1755.0
 20
1050.0
 10
1755.0
 20
847.5
 10
1740.0
 20
847.5
  0
HATCH
  5
162
330
17
100
AcDbEntity
  8
WALL
100
AcDbHatch
 10
0.0
 20
0.0
 30
0.0
210
0.0
220
0.0
230
1.0
  2
SOLID
 70
1
 71
0
 91
1
 92
3
 72
0
 73
1
 93
4
 10
1740.0
 20
1050.0
 10
1755.0
 20
1050.0
 10
1755.0
 20
847.5
 10
1740.0
 20
847.5
 97
0
 75
1
 76
1
 98
0
  0
LWPOLYLINE
  5
163
330
17
100
AcDbEntity
  8
WALL
100
AcDbPolyline
 90
4
 70
1
 10
1485.0
 20
1020.0
 10
1495.0
 20
1020.0
 10
1495.0
 20
955.0
 10
1485.0
 20
955.0
  0
HATCH
  5
164
330
17
100
AcDbEntity
  8
WALL
100
AcDbHatch
 10
0.0
 20
0.0
 30
0.0
210
0.0
220
0.0
230
1.0
  2
SOLID
 70
1
 71
0
 91
1
 92
3
 72
0
 73
1
 93
4
 10
1485.0
 20
1020.0
 10
1495.0
 20
1020.0
 10
1495.0
 20
955.0
 10
1485.0
 20
955.0
 97
0
 75
1
 76
1
 98
0
  0
LWPOLYLINE
  5
165
330
17
100
AcDbEntity
  8
WALL
100
AcDbPolyline
 90
4
 70
1
 10
2137.5
 20
987.5
 10
2140.0
 20
987.5
 10
2140.0
 20
955.0
 10
2137.5
 20
955.0
  0
HATCH
  5
166
330
17
100
AcDbEntity
  8
WALL
100
AcDbHatch
 10
0.0
 20
0.0
 30
0.0
210
0.0
220
0.0
230
1.0
  2
SOLID
 70
1
 71
0
 91
1
 92
3
 72
0
 73
1
 93
4
 10
2137.5
 20
987.5
 10
2140.0
 20
987.5
 10
2140.0
 20
955.0
 10
2137.5
 20
955.0
 97
0
 75
1
 76
1
 98
0
  0
LWPOLYLINE
  5
167
330
17
100
AcDbEntity
  8
WALL
100
AcDbPolyline
 90
4
 70
1
 10
2120.0
 20
977.5
 10
2132.5
 20
977.5
 10
2132.5
 20
902.5
 10
2120.0
 20
902.5
  0
HATCH
  5
168
330
17
100
AcDbEntity
  8
WALL
100
AcDbHatch
 10
0.0
 20
0.0
 30
0.0
210
0.0
220
0.0
230
1.0
  2
SOLID
 70
1
 71
0
 91
1
 92
3
 72
0
 73
1
 93
4
 10
2120.0
 20
977.5
 10
2132.5
 20
977.5
 10
2132.5
 20
902.5
 10
2120.0
 20
902.5
 97
0
 75
1
 76
1
 98
0
  0
LWPOLYLINE
  5
169
330
17
100
AcDbEntity
  8
WALL
100
AcDbPolyline
 90
4
 70
1
 10
965.0
 20
942.5
 10
975.0
 20
942.5
 10
975.0
 20
790.0
 10
965.0
 20
790.0
  0
HATCH
  5
16A
330
17
100
AcDbEntity
  8
WALL
100
AcDbHatch
 10
0.0
 20
0.0
 30
0.0
210
0.0
220
0.0
230
1.0
  2
SOLID
 70
1
 71
0
 91
1
 92
3
 72
0
 73
1
 93
4
 10
965.0
 20
942.5
 10
975.0
 20
942.5
 10
975.0
 20
790.0
 10
965.0
 20
790.0
 97
0
 75
1
 76
1
 98
0
  0
LWPOLYLINE
  5
16B
330
17
100
AcDbEntity
  8
WALL
100
AcDbPolyline
 90
4
 70
1
 10
1425.0
 20
927.5
 10
1445.0
 20
927.5
 10
1445.0
 20
790.0
 10
1425.0
 20
790.0
  0
HATCH
  5
16C
330
17
100
AcDbEntity
  8
WALL
100
AcDbHatch
 10
0.0
 20
0.0
 30
0.0
210
0.0
220
0.0
230
1.0
  2
SOLID
 70
1
 71
0
 91
1
 92
3
 72
0
 73
1
 93
4
 10
1425.0
 20
927.5
 10
1445.0
 20
927.5
 10
1445.0
 20
790.0
 10
1425.0
 20
790.0
 97
0
 75
1
 76
1
 98
0
  0
LWPOLYLINE
  5
16D
330
17
100
AcDbEntity
  8
WALL
100
AcDbPolyline
 90
4
 70
1
 10
707.5
 20
920.0
 10
710.0
 20
920.0
 10
710.0
 20
887.5
 10
707.5
 20
887.5
  0
HATCH
  5
16E
330
17
100
AcDbEntity
  8
WALL
100
AcDbHatch
 10
0.0
 20
0.0
 30
0.0
210
0.0
220
0.0
230
1.0
  2
SOLID
 70
1
 71
0
 91
1
 92
3
 72
0
 73
1
 93
4
 10
707.5
 20
920.0
 10
710.0
 20
920.0
 10
710.0
 20
887.5
 10
707.5
 20
887.5
 97
0
 75
1
 76
1
 98
0
  0
LWPOLYLINE
  5
16F
330
17
100
AcDbEntity
  8
WALL
100
AcDbPolyline
 90
4
 70
1
 10
1245.0
 20
920.0
 10
1260.0
 20
920.0
 10
1260.0
 20
775.0
 10
1245.0
 20
775.0
  0
HATCH
  5
170
330
17
100
AcDbEntity
  8
WALL
100
AcDbHatch
 10
0.0
 20
0.0
 30
0.0
210
0.0
220
0.0
230
1.0
  2
SOLID
 70
1
 71
0
 91
1
 92
3
 72
0
 73
1
 93
4
 10
1245.0
 20
920.0
 10
1260.0
 20
920.0
 10
1260.0
 20
775.0
 10
1245.0
 20
775.0
 97
0
 75
1
 76
1
 98
0
  0
LWPOLYLINE
  5
171
330
17
100
AcDbEntity
  8
WALL
100
AcDbPolyline
 90
4
 70
1
 10
1487.5
 20
910.0
 10
1490.0
 20
910.0
 10
1490.0
 20
860.0
 10
1487.5
 20
860.0
  0
HATCH
  5
172
330
17
100
AcDbEntity
  8
WALL
100
AcDbHatch
 10
0.0
 20
0.0
 30
0.0
210
0.0
220
0.0
230
1.0
  2
SOLID
 70
1
 71
0
 91
1
 92
3
 72
0
 73
1
 93
4
 10
1487.5
 20
910.0
 10
1490.0
 20
910.0
 10
1490.0
 20
860.0
 10
1487.5
 20
860.0
 97
0
 75
1
 76
1
 98
0
  0
LWPOLYLINE
  5
173
330
17
100
AcDbEntity
  8
WALL
100
AcDbPolyline
 90
4
 70
1
 10
130.0
 20
902.5
 10
150.0
 20
902.5
 10
150.0
 20
842.5
 10
130.0
 20
842.5
  0
HATCH
  5
174
330
17
100
AcDbEntity
  8
WALL
100
AcDbHatch
 10
0.0
 20
0.0
 30
0.0
210
0.0
220
0.0
230
1.0
  2
SOLID
 70
1
 71
0
 91
1
 92
3
 72
0
 73
1
 93
4
 10
130.0
 20
902.5
 10
150.0
 20
902.5
 10
150.0
 20
842.5
 10
130.0
 20
842.5
 97
0
 75
1
 76
1
 98
0
  0
LWPOLYLINE
  5
175
330
17
100
AcDbEntity
  8
WALL
100
AcDbPolyline
 90
4
 70
1
 10
687.5
 20
902.5
 10
690.0
 20
902.5
 10
690.0
 20
872.5
 10
687.5
 20
872.5
  0
HATCH
  5
176
330
17
100
AcDbEntity
  8
WALL
100
AcDbHatch
 10
0.0
 20
0.0
 30
0.0
210
0.0
220
0.0
230
1.0
  2
SOLID
 70
1
 71
0
 91
1
 92
3
 72
0
 73
1
 93
4
 10
687.5
 20
902.5
 10
690.0
 20
902.5
 10
690.0
 20
872.5
 10
687.5
 20
872.5
 97
0
 75
1
 76
1
 98
0
  0
LWPOLYLINE
  5
177
330
17
100
AcDbEntity
  8
WALL
100
AcDbPolyline
 90
4
 70
1
 10
155.0
 20
897.5
 10
160.0
 20
897.5
 10
160.0
 20
852.5
 10
155.0
 20
852.5
  0
HATCH
  5
178
330
17
100
AcDbEntity
  8
WALL
100
AcDbHatch
 10
0.0
 20
0.0
 30
0.0
210
0.0
220
0.0
230
1.0
  2
SOLID
 70
1
 71
0
 91
1
 92
3
 72
0
 73
1
 93
4
 10
155.0
 20
897.5
 10
160.0
 20
897.5
 10
160.0
 20
852.5
 10
155.0
 20
852.5
 97
0
 75
1
 76
1
 98
0
  0
LWPOLYLINE
  5
179
330
17
100
AcDbEntity
  8
WALL
100
AcDbPolyline
 90
4
 70
1
 10
165.0
 20
897.5
 10
172.5
 20
897.5
 10
172.5
 20
842.5
 10
165.0
 20
842.5
  0
HATCH
  5
17A
330
17
100
AcDbEntity
  8
WALL
100
AcDbHatch
 10
0.0
 20
0.0
 30
0.0
210
0.0
220
0.0
230
1.0
  2
SOLID
 70
1
 71
0
 91
1
 92
3
 72
0
 73
1
 93
4
 10
165.0
 20
897.5
 10
172.5
 20
897.5
 10
172.5
 20
842.5
 10
165.0
 20
842.5
 97
0
 75
1
 76
1
 98
0
  0
LWPOLYLINE
  5
17B
330
17
100
AcDbEntity
  8
WALL
100
AcDbPolyline
 90
4
 70
1
 10
190.0
 20
900.0
 10
205.0
 20
900.0
 10
205.0
 20
845.0
 10
190.0
 20
845.0
  0
HATCH
  5
17C
330
17
100
AcDbEntity
  8
WALL
100
AcDbHatch
 10
0.0
 20
0.0
 30
0.0
210
0.0
220
0.0
230
1.0
  2
SOLID
 70
1
 71
0
 91
1
 92
3
 72
0
 73
1
 93
4
 10
190.0
 20
900.0
 10
205.0
 20
900.0
 10
205.0
 20
845.0
 10
190.0
 20
845.0
 97
0
 75
1
 76
1
 98
0
  0
LWPOLYLINE
  5
17D
330
17
100
AcDbEntity
  8
WALL
100
AcDbPolyline
 90
4
 70
1
 10
212.5
 20
897.5
 10
215.0
 20
897.5
 10
215.0
 20
845.0
 10
212.5
 20
845.0
  0
HATCH
  5
17E
330
17
100
AcDbEntity
  8
WALL
100
AcDbHatch
 10
0.0
 20
0.0
 30
0.0
210
0.0
220
0.0
230
1.0
  2
SOLID
 70
1
 71
0
 91
1
 92
3
 72
0
 73
1
 93
4
 10
212.5
 20
897.5
 10
215.0
 20
897.5
 10
215.0
 20
845.0
 10
212.5
 20
845.0
 97
0
 75
1
 76
1
 98
0
  0
LWPOLYLINE
  5
17F
330
17
100
AcDbEntity
  8
WALL
100
AcDbPolyline
 90
4
 70
1
 10
235.0
 20
897.5
 10
245.0
 20
897.5
 10
245.0
 20
842.5
 10
235.0
 20
842.5
  0
HATCH
  5
180
330
17
100
AcDbEntity
  8
WALL
100
AcDbHatch
 10
0.0
 20
0.0
 30
0.0
210
0.0
220
0.0
230
1.0
  2
SOLID
 70
1
 71
0
 91
1
 92
3
 72
0
 73
1
 93
4
 10
235.0
 20
897.5
 10
245.0
 20
897.5
 10
245.0
 20
842.5
 10
235.0
 20
842.5
 97
0
 75
1
 76
1
 98
0
  0
LWPOLYLINE
  5
181
330
17
100
AcDbEntity
  8
WALL
100
AcDbPolyline
 90
4
 70
1
 10
1040.0
 20
890.0
 10
1055.0
 20
890.0
 10
1055.0
 20
792.5
 10
1040.0
 20
792.5
  0
HATCH
  5
182
330
17
100
AcDbEntity
  8
WALL
100
AcDbHatch
 10
0.0
 20
0.0
 30
0.0
210
0.0
220
0.0
230
1.0
  2
SOLID
 70
1
 71
0
 91
1
 92
3
 72
0
 73
1
 93
4
 10
1040.0
 20
890.0
 10
1055.0
 20
890.0
 10
1055.0
 20
792.5
 10
1040.0
 20
792.5
 97
0
 75
1
 76
1
 98
0
  0
LWPOLYLINE
  5
183
330
17
100
AcDbEntity
  8
WALL
100
AcDbPolyline
 90
4
 70
1
 10
1945.0
 20
867.5
 10
1962.5
 20
867.5
 10
1962.5
 20
797.5
 10
1945.0
 20
797.5
  0
HATCH
  5
184
330
17
100
AcDbEntity
  8
WALL
100
AcDbHatch
 10
0.0
 20
0.0
 30
0.0
210
0.0
220
0.0
230
1.0
  2
SOLID
 70
1
 71
0
 91
1
 92
3
 72
0
 73
1
 93
4
 10
1945.0
 20
867.5
 10
1962.5
 20
867.5
 10
1962.5
 20
797.5
 10
1945.0
 20
797.5
 97
0
 75
1
 76
1
 98
0
  0
LWPOLYLINE
  5
185
330
17
100
AcDbEntity
  8
WALL
100
AcDbPolyline
 90
4
 70
1
 10
1805.0
 20
857.5
 10
1815.0
 20
857.5
 10
1815.0
 20
802.5
 10
1805.0
 20
802.5
  0
HATCH
  5
186
330
17
100
AcDbEntity
  8
WALL
100
AcDbHatch
 10
0.0
 20
0.0
 30
0.0
210
0.0
220
0.0
230
1.0
  2
SOLID
 70
1
 71
0
 91
1
 92
3
 72
0
 73
1
 93
4
 10
1805.0
 20
857.5
 10
1815.0
 20
857.5
 10
1815.0
 20
802.5
 10
1805.0
 20
802.5
 97
0
 75
1
 76
1
 98
0
  0
LWPOLYLINE
  5
187
330
17
100
AcDbEntity
  8
WALL
100
AcDbPolyline
 90
4
 70
1
 10
1145.0
 20
852.5
 10
1155.0
 20
852.5
 10
1155.0
 20
805.0
 10
1145.0
 20
805.0
  0
HATCH
  5
188
330
17
100
AcDbEntity
  8
WALL
100
AcDbHatch
 10
0.0
 20
0.0
 30
0.0
210
0.0
220
0.0
230
1.0
  2
SOLID
 70
1
 71
0
 91
1
 92
3
 72
0
 73
1
 93
4
 10
1145.0
 20
852.5
 10
1155.0
 20
852.5
 10
1155.0
 20
805.0
 10
1145.0
 20
805.0
 97
0
 75
1
 76
1
 98
0
  0
LWPOLYLINE
  5
189
330
17
100
AcDbEntity
  8
WALL
100
AcDbPolyline
 90
4
 70
1
 10
867.5
 20
850.0
 10
870.0
 20
850.0
 10
870.0
 20
815.0
 10
867.5
 20
815.0
  0
HATCH
  5
18A
330
17
100
AcDbEntity
  8
WALL
100
AcDbHatch
 10
0.0
 20
0.0
 30
0.0
210
0.0
220
0.0
230
1.0
  2
SOLID
 70
1
 71
0
 91
1
 92
3
 72
0
 73
1
 93
4
 10
867.5
 20
850.0
 10
870.0
 20
850.0
 10
870.0
 20
815.0
 10
867.5
 20
815.0
 97
0
 75
1
 76
1
 98
0
  0
LWPOLYLINE
  5
18B
330
17
100
AcDbEntity
  8
WALL
100
AcDbPolyline
 90
4
 70
1
 10
132.5
 20
837.5
 10
135.0
 20
837.5
 10
135.0
 20
787.5
 10
132.5
 20
787.5
  0
HATCH
  5
18C
330
17
100
AcDbEntity
  8
WALL
100
AcDbHatch
 10
0.0
 20
0.0
 30
0.0
210
0.0
220
0.0
230
1.0
  2
SOLID
 70
1
 71
0
 91
1
 92
3
 72
0
 73
1
 93
4
 10
132.5
 20
837.5
 10
135.0
 20
837.5
 10
135.0
 20
787.5
 10
132.5
 20
787.5
 97
0
 75
1
 76
1
 98
0
  0
LWPOLYLINE
  5
18D
330
17
100
AcDbEntity
  8
WALL
100
AcDbPolyline
 90
4
 70
1
 10
170.0
 20
837.5
 10
180.0
 20
837.5
 10
180.0
 20
777.5
 10
170.0
 20
777.5
  0
HATCH
  5
18E
330
17
100
AcDbEntity
  8
WALL
100
AcDbHatch
 10
0.0
 20
0.0
 30
0.0
210
0.0
220
0.0
230
1.0
  2
SOLID
 70
1
 71
0
 91
1
 92
3
 72
0
 73
1
 93
4
 10
170.0
 20
837.5
 10
180.0
 20
837.5
 10
180.0
 20
777.5
 10
170.0
 20
777.5
 97
0
 75
1
 76
1
 98
0
  0
LWPOLYLINE
  5
18F
330
17
100
AcDbEntity
  8
WALL
100
AcDbPolyline
 90
4
 70
1
 10
205.0
 20
832.5
 10
210.0
 20
832.5
 10
210.0
 20
802.5
 10
205.0
 20
802.5
  0
HATCH
  5
190
330
17
100
AcDbEntity
  8
WALL
100
AcDbHatch
 10
0.0
 20
0.0
 30
0.0
210
0.0
220
0.0
230
1.0
  2
SOLID
 70
1
 71
0
 91
1
 92
3
 72
0
 73
1
 93
4
 10
205.0
 20
832.5
 10
210.0
 20
832.5
 10
210.0
 20
802.5
 10
205.0
 20
802.5
 97
0
 75
1
 76
1
 98
0
  0
LWPOLYLINE
  5
191
330
17
100
AcDbEntity
  8
WALL
100
AcDbPolyline
 90
4
 70
1
 10
582.5
 20
807.5
 10
585.0
 20
807.5
 10
585.0
 20
777.5
 10
582.5
 20
777.5
  0
HATCH
  5
192
330
17
100
AcDbEntity
  8
WALL
100
AcDbHatch
 10
0.0
 20
0.0
 30
0.0
210
0.0
220
0.0
230
1.0
  2
SOLID
 70
1
 71
0
 91
1
 92
3
 72
0
 73
1
 93
4
 10
582.5
 20
807.5
 10
585.0
 20
807.5
 10
585.0
 20
777.5
 10
582.5
 20
777.5
 97
0
 75
1
 76
1
 98
0
  0
LWPOLYLINE
  5
193
330
17
100
AcDbEntity
  8
WALL
100
AcDbPolyline
 90
4
 70
1
 10
590.0
 20
807.5
 10
600.0
 20
807.5
 10
600.0
 20
772.5
 10
590.0
 20
772.5
  0
HATCH
  5
194
330
17
100
AcDbEntity
  8
WALL
100
AcDbHatch
 10
0.0
 20
0.0
 30
0.0
210
0.0
220
0.0
230
1.0
  2
SOLID
 70
1
 71
0
 91
1
 92
3
 72
0
 73
1
 93
4
 10
590.0
 20
807.5
 10
600.0
 20
807.5
 10
600.0
 20
772.5
 10
590.0
 20
772.5
 97
0
 75
1
 76
1
 98
0
  0
LWPOLYLINE
  5
195
330
17
100
AcDbEntity
  8
WALL
100
AcDbPolyline
 90
4
 70
1
 10
575.0
 20
802.5
 10
580.0
 20
802.5
 10
580.0
 20
762.5
 10
575.0
 20
762.5
  0
HATCH
  5
196
330
17
100
AcDbEntity
  8
WALL
100
AcDbHatch
 10
0.0
 20
0.0
 30
0.0
210
0.0
220
0.0
230
1.0
  2
SOLID
 70
1
 71
0
 91
1
 92
3
 72
0
 73
1
 93
4
 10
575.0
 20
802.5
 10
580.0
 20
802.5
 10
580.0
 20
762.5
 10
575.0
 20
762.5
 97
0
 75
1
 76
1
 98
0
  0
LWPOLYLINE
  5
197
330
17
100
AcDbEntity
  8
WALL
100
AcDbPolyline
 90
4
 70
1
 10
2120.0
 20
802.5
 10
2135.0
 20
802.5
 10
2135.0
 20
742.5
 10
2120.0
 20
742.5
  0
HATCH
  5
198
330
17
100
AcDbEntity
  8
WALL
100
AcDbHatch
 10
0.0
 20
0.0
 30
0.0
210
0.0
220
0.0
230
1.0
  2
SOLID
 70
1
 71
0
 91
1
 92
3
 72
0
 73
1
 93
4
 10
2120.0
 20
802.5
 10
2135.0
 20
802.5
 10
2135.0
 20
742.5
 10
2120.0
 20
742.5
 97
0
 75
1
 76
1
 98
0
  0
LWPOLYLINE
  5
199
330
17
100
AcDbEntity
  8
WALL
100
AcDbPolyline
 90
4
 70
1
 10
872.5
 20
800.0
 10
875.0
 20
800.0
 10
875.0
 20
767.5
 10
872.5
 20
767.5
  0
HATCH
  5
19A
330
17
100
AcDbEntity
  8
WALL
100
AcDbHatch
 10
0.0
 20
0.0
 30
0.0
210
0.0
220
0.0
230
1.0
  2
SOLID
 70
1
 71
0
 91
1
 92
3
 72
0
 73
1
 93
4
 10
872.5
 20
800.0
 10
875.0
 20
800.0
 10
875.0
 20
767.5
 10
872.5
 20
767.5
 97
0
 75
1
 76
1
 98
0
  0
LWPOLYLINE
  5
19B
330
17
100
AcDbEntity
  8
WALL
100
AcDbPolyline
 90
4
 70
1
 10
150.0
 20
772.5
 10
155.0
 20
772.5
 10
155.0
 20
717.5
 10
150.0
 20
717.5
  0
HATCH
  5
19C
330
17
100
AcDbEntity
  8
WALL
100
AcDbHatch
 10
0.0
 20
0.0
 30
0.0
210
0.0
220
0.0
230
1.0
  2
SOLID
 70
1
 71
0
 91
1
 92
3
 72
0
 73
1
 93
4
 10
150.0
 20
772.5
 10
155.0
 20
772.5
 10
155.0
 20
717.5
 10
150.0
 20
717.5
 97
0
 75
1
 76
1
 98
0
  0
LWPOLYLINE
  5
19D
330
17
100
AcDbEntity
  8
WALL
100
AcDbPolyline
 90
4
 70
1
 10
220.0
 20
772.5
 10
230.0
 20
772.5
 10
230.0
 20
715.0
 10
220.0
 20
715.0
  0
HATCH
  5
19E
330
17
100
AcDbEntity
  8
WALL
100
AcDbHatch
 10
0.0
 20
0.0
 30
0.0
210
0.0
220
0.0
230
1.0
  2
SOLID
 70
1
 71
0
 91
1
 92
3
 72
0
 73
1
 93
4
 10
220.0
 20
772.5
 10
230.0
 20
772.5
 10
230.0
 20
715.0
 10
220.0
 20
715.0
 97
0
 75
1
 76
1
 98
0
  0
LWPOLYLINE
  5
19F
330
17
100
AcDbEntity
  8
WALL
100
AcDbPolyline
 90
4
 70
1
 10
2120.0
 20
737.5
 10
2135.0
 20
737.5
 10
2135.0
 20
677.5
 10
2120.0
 20
677.5
  0
HATCH
  5
1A0
330
17
100
AcDbEntity
  8
WALL
100
AcDbHatch
 10
0.0
 20
0.0
 30
0.0
210
0.0
220
0.0
230
1.0
  2
SOLID
 70
1
 71
0
 91
1
 92
3
 72
0
 73
1
 93
4
 10
2120.0
 20
737.5
 10
2135.0
 20
737.5
 10
2135.0
 20
677.5
 10
2120.0
 20
677.5
 97
0
 75
1
 76
1
 98
0
  0
LWPOLYLINE
  5
1A1
330
17
100
AcDbEntity
  8
WALL
100
AcDbPolyline
 90
4
 70
1
 10
2140.0
 20
740.0
 10
2147.5
 20
740.0
 10
2147.5
 20
705.0
 10
2140.0
 20
705.0
  0
HATCH
  5
1A2
330
17
100
AcDbEntity
  8
WALL
100
AcDbHatch
 10
0.0
 20
0.0
 30
0.0
210
0.0
220
0.0
230
1.0
  2
SOLID
 70
1
 71
0
 91
1
 92
3
 72
0
 73
1
 93
4
 10
2140.0
 20
740.0
 10
2147.5
 20
740.0
 10
2147.5
 20
705.0
 10
2140.0
 20
705.0
 97
0
 75
1
 76
1
 98
0
  0
LWPOLYLINE
  5
1A3
330
17
100
AcDbEntity
  8
WALL
100
AcDbPolyline
 90
4
 70
1
 10
200.0
 20
707.5
 10
205.0
 20
707.5
 10
205.0
 20
672.5
 10
200.0
 20
672.5
  0
HATCH
  5
1A4
330
17
100
AcDbEntity
  8
WALL
100
AcDbHatch
 10
0.0
 20
0.0
 30
0.0
210
0.0
220
0.0
230
1.0
  2
SOLID
 70
1
 71
0
 91
1
 92
3
 72
0
 73
1
 93
4
 10
200.0
 20
707.5
 10
205.0
 20
707.5
 10
205.0
 20
672.5
 10
200.0
 20
672.5
 97
0
 75
1
 76
1
 98
0
  0
LWPOLYLINE
  5
1A5
330
17
100
AcDbEntity
  8
WALL
100
AcDbPolyline
 90
4
 70
1
 10
215.0
 20
702.5
 10
220.0
 20
702.5
 10
220.0
 20
662.5
 10
215.0
 20
662.5
  0
HATCH
  5
1A6
330
17
100
AcDbEntity
  8
WALL
100
AcDbHatch
 10
0.0
 20
0.0
 30
0.0
210
0.0
220
0.0
230
1.0
  2
SOLID
 70
1
 71
0
 91
1
 92
3
 72
0
 73
1
 93
4
 10
215.0
 20
702.5
 10
220.0
 20
702.5
 10
220.0
 20
662.5
 10
215.0
 20
662.5
 97
0
 75
1
 76
1
 98
0
  0
LWPOLYLINE
  5
1A7
330
17
100
AcDbEntity
  8
WALL
100
AcDbPolyline
 90
4
 70
1
 10
2085.0
 20
682.5
 10
2090.0
 20
682.5
 10
2090.0
 20
650.0
 10
2085.0
 20
650.0
  0
HATCH
  5
1A8
330
17
100
AcDbEntity
  8
WALL
100
AcDbHatch
 10
0.0
 20
0.0
 30
0.0
210
0.0
220
0.0
230
1.0
  2
SOLID
 70
1
 71
0
 91
1
 92
3
 72
0
 73
1
 93
4
 10
2085.0
 20
682.5
 10
2090.0
 20
682.5
 10
2090.0
 20
650.0
 10
2085.0
 20
650.0
 97
0
 75
1
 76
1
 98
0
  0
LWPOLYLINE
  5
1A9
330
17
100
AcDbEntity
  8
WALL
100
AcDbPolyline
 90
4
 70
1
 10
2110.0
 20
680.0
 10
2112.5
 20
680.0
 10
2112.5
 20
640.0
 10
2110.0
 20
640.0
  0
HATCH
  5
1AA
330
17
100
AcDbEntity
  8
WALL
100
AcDbHatch
 10
0.0
 20
0.0
 30
0.0
210
0.0
220
0.0
230
1.0
  2
SOLID
 70
1
 71
0
 91
1
 92
3
 72
0
 73
1
 93
4
 10
2110.0
 20
680.0
 10
2112.5
 20
680.0
 10
2112.5
 20
640.0
 10
2110.0
 20
640.0
 97
0
 75
1
 76
1
 98
0
  0
LWPOLYLINE
  5
1AB
330
17
100
AcDbEntity
  8
WALL
100
AcDbPolyline
 90
4
 70
1
 10
1985.0
 20
665.0
 10
1995.0
 20
665.0
 10
1995.0
 20
82.5
 10
1985.0
 20
82.5
  0
HATCH
  5
1AC
330
17
100
AcDbEntity
  8
WALL
100
AcDbHatch
 10
0.0
 20
0.0
 30
0.0
210
0.0
220
0.0
230
1.0
  2
SOLID
 70
1
 71
0
 91
1
 92
3
 72
0
 73
1
 93
4
 10
1985.0
 20
665.0
 10
1995.0
 20
665.0
 10
1995.0
 20
82.5
 10
1985.0
 20
82.5
 97
0
 75
1
 76
1
 98
0
  0
LWPOLYLINE
  5
1AD
330
17
100
AcDbEntity
  8
WALL
100
AcDbPolyline
 90
4
 70
1
 10
2120.0
 20
662.5
 10
2135.0
 20
662.5
 10
2135.0
 20
627.5
 10
2120.0
 20
627.5
  0
HATCH
  5
1AE
330
17
100
AcDbEntity
  8
WALL
100
AcDbHatch
 10
0.0
 20
0.0
 30
0.0
210
0.0
220
0.0
230
1.0
  2
SOLID
 70
1
 71
0
 91
1
 92
3
 72
0
 73
1
 93
4
 10
2120.0
 20
662.5
 10
2135.0
 20
662.5
 10
2135.0
 20
627.5
 10
2120.0
 20
627.5
 97
0
 75
1
 76
1
 98
0
  0
LWPOLYLINE
  5
1AF
330
17
100
AcDbEntity
  8
WALL
100
AcDbPolyline
 90
4
 70
1
 10
2085.0
 20
652.5
 10
2105.0
 20
652.5
 10
2105.0
 20
525.0
 10
2085.0
 20
525.0
  0
HATCH
  5
1B0
330
17
100
AcDbEntity
  8
WALL
100
AcDbHatch
 10
0.0
 20
0.0
 30
0.0
210
0.0
220
0.0
230
1.0
  2
SOLID
 70
1
 71
0
 91
1
 92
3
 72
0
 73
1
 93
4
 10
2085.0
 20
652.5
 10
2105.0
 20
652.5
 10
2105.0
 20
525.0
 10
2085.0
 20
525.0
 97
0
 75
1
 76
1
 98
0
  0
LWPOLYLINE
  5
1B1
330
17
100
AcDbEntity
  8
WALL
100
AcDbPolyline
 90
4
 70
1
 10
1190.0
 20
567.5
 10
1200.0
 20
567.5
 10
1200.0
 20
455.0
 10
1190.0
 20
455.0
  0
HATCH
  5
1B2
330
17
100
AcDbEntity
  8
WALL
100
AcDbHatch
 10
0.0
 20
0.0
 30
0.0
210
0.0
220
0.0
230
1.0
  2
SOLID
 70
1
 71
0
 91
1
 92
3
 72
0
 73
1
 93
4
 10
1190.0
 20
567.5
 10
1200.0
 20
567.5
 10
1200.0
 20
455.0
 10
1190.0
 20
455.0
 97
0
 75
1
 76
1
 98
0
  0
LWPOLYLINE
  5
1B3
330
17
100
AcDbEntity
  8
WALL
100
AcDbPolyline
 90
4
 70
1
 10
1365.0
 20
567.5
 10
1375.0
 20
567.5
 10
1375.0
 20
445.0
 10
1365.0
 20
445.0
  0
HATCH
  5
1B4
330
17
100
AcDbEntity
  8
WALL
100
AcDbHatch
 10
0.0
 20
0.0
 30
0.0
210
0.0
220
0.0
230
1.0
  2
SOLID
 70
1
 71
0
 91
1
 92
3
 72
0
 73
1
 93
4
 10
1365.0
 20
567.5
 10
1375.0
 20
567.5
 10
1375.0
 20
445.0
 10
1365.0
 20
445.0
 97
0
 75
1
 76
1
 98
0
  0
LWPOLYLINE
  5
1B5
330
17
100
AcDbEntity
  8
WALL
100
AcDbPolyline
 90
4
 70
1
 10
585.0
 20
505.0
 10
605.0
 20
505.0
 10
605.0
 20
452.5
 10
585.0
 20
452.5
  0
HATCH
  5
1B6
330
17
100
AcDbEntity
  8
WALL
100
AcDbHatch
 10
0.0
 20
0.0
 30
0.0
210
0.0
220
0.0
230
1.0
  2
SOLID
 70
1
 71
0
 91
1
 92
3
 72
0
 73
1
 93
4
 10
585.0
 20
505.0
 10
605.0
 20
505.0
 10
605.0
 20
452.5
 10
585.0
 20
452.5
 97
0
 75
1
 76
1
 98
0
  0
LWPOLYLINE
  5
1B7
330
17
100
AcDbEntity
  8
WALL
100
AcDbPolyline
 90
4
 70
1
 10
2095.0
 20
497.5
 10
2115.0
 20
497.5
 10
2115.0
 20
430.0
 10
2095.0
 20
430.0
  0
HATCH
  5
1B8
330
17
100
AcDbEntity
  8
WALL
100
AcDbHatch
 10
0.0
 20
0.0
 30
0.0
210
0.0
220
0.0
230
1.0
  2
SOLID
 70
1
 71
0
 91
1
 92
3
 72
0
 73
1
 93
4
 10
2095.0
 20
497.5
 10
2115.0
 20
497.5
 10
2115.0
 20
430.0
 10
2095.0
 20
430.0
 97
0
 75
1
 76
1
 98
0
  0
LWPOLYLINE
  5
1B9
330
17
100
AcDbEntity
  8
WALL
100
AcDbPolyline
 90
4
 70
1
 10
567.5
 20
482.5
 10
572.5
 20
482.5
 10
572.5
 20
450.0
 10
567.5
 20
450.0
  0
HATCH
  5
1BA
330
17
100
AcDbEntity
  8
WALL
100
AcDbHatch
 10
0.0
 20
0.0
 30
0.0
210
0.0
220
0.0
230
1.0
  2
SOLID
 70
1
 71
0
 91
1
 92
3
 72
0
 73
1
 93
4
 10
567.5
 20
482.5
 10
572.5
 20
482.5
 10
572.5
 20
450.0
 10
567.5
 20
450.0
 97
0
 75
1
 76
1
 98
0
  0
LWPOLYLINE
  5
1BB
330
17
100
AcDbEntity
  8
WALL
100
AcDbPolyline
 90
4
 70
1
 10
1700.0
 20
480.0
 10
1710.0
 20
480.0
 10
1710.0
 20
410.0
 10
1700.0
 20
410.0
  0
HATCH
  5
1BC
330
17
100
AcDbEntity
  8
WALL
100
AcDbHatch
 10
0.0
 20
0.0
 30
0.0
210
0.0
220
0.0
230
1.0
  2
SOLID
 70
1
 71
0
 91
1
 92
3
 72
0
 73
1
 93
4
 10
1700.0
 20
480.0
 10
1710.0
 20
480.0
 10
1710.0
 20
410.0
 10
1700.0
 20
410.0
 97
0
 75
1
 76
1
 98
0
  0
LWPOLYLINE
  5
1BD
330
17
100
AcDbEntity
  8
WALL
100
AcDbPolyline
 90
4
 70
1
 10
1075.0
 20
450.0
 10
1085.0
 20
450.0
 10
1085.0
 20
397.5
 10
1075.0
 20
397.5
  0
HATCH
  5
1BE
330
17
100
AcDbEntity
  8
WALL
100
AcDbHatch
 10
0.0
 20
0.0
 30
0.0
210
0.0
220
0.0
230
1.0
  2
SOLID
 70
1
 71
0
 91
1
 92
3
 72
0
 73
1
 93
4
 10
1075.0
 20
450.0
 10
1085.0
 20
450.0
 10
1085.0
 20
397.5
 10
1075.0
 20
397.5
 97
0
 75
1
 76
1
 98
0
  0
LWPOLYLINE
  5
1BF
330
17
100
AcDbEntity
  8
WALL
100
AcDbPolyline
 90
4
 70
1
 10
1535.0
 20
450.0
 10
1545.0
 20
450.0
 10
1545.0
 20
410.0
 10
1535.0
 20
410.0
  0
HATCH
  5
1C0
330
17
100
AcDbEntity
  8
WALL
100
AcDbHatch
 10
0.0
 20
0.0
 30
0.0
210
0.0
220
0.0
230
1.0
  2
SOLID
 70
1
 71
0
 91
1
 92
3
 72
0
 73
1
 93
4
 10
1535.0
 20
450.0
 10
1545.0
 20
450.0
 10
1545.0
 20
410.0
 10
1535.0
 20
410.0
 97
0
 75
1
 76
1
 98
0
  0
LWPOLYLINE
  5
1C1
330
17
100
AcDbEntity
  8
WALL
100
AcDbPolyline
 90
4
 70
1
 10
405.0
 20
442.5
 10
422.5
 20
442.5
 10
422.5
 20
387.5
 10
405.0
 20
387.5
  0
HATCH
  5
1C2
330
17
100
AcDbEntity
  8
WALL
100
AcDbHatch
 10
0.0
 20
0.0
 30
0.0
210
0.0
220
0.0
230
1.0
  2
SOLID
 70
1
 71
0
 91
1
 92
3
 72
0
 73
1
 93
4
 10
405.0
 20
442.5
 10
422.5
 20
442.5
 10
422.5
 20
387.5
 10
405.0
 20
387.5
 97
0
 75
1
 76
1
 98
0
  0
LWPOLYLINE
  5
1C3
330
17
100
AcDbEntity
  8
WALL
100
AcDbPolyline
 90
4
 70
1
 10
1190.0
 20
445.0
 10
1200.0
 20
445.0
 10
1200.0
 20
372.5
 10
1190.0
 20
372.5
  0
HATCH
  5
1C4
330
17
100
AcDbEntity
  8
WALL
100
AcDbHatch
 10
0.0
 20
0.0
 30
0.0
210
0.0
220
0.0
230
1.0
  2
SOLID
 70
1
 71
0
 91
1
 92
3
 72
0
 73
1
 93
4
 10
1190.0
 20
445.0
 10
1200.0
 20
445.0
 10
1200.0
 20
372.5
 10
1190.0
 20
372.5
 97
0
 75
1
 76
1
 98
0
  0
LWPOLYLINE
  5
1C5
330
17
100
AcDbEntity
  8
WALL
100
AcDbPolyline
 90
4
 70
1
 10
1435.0
 20
437.5
 10
1437.5
 20
437.5
 10
1437.5
 20
382.5
 10
1435.0
 20
382.5
  0
HATCH
  5
1C6
330
17
100
AcDbEntity
  8
WALL
100
AcDbHatch
 10
0.0
 20
0.0
 30
0.0
210
0.0
220
0.0
230
1.0
  2
SOLID
 70
1
 71
0
 91
1
 92
3
 72
0
 73
1
 93
4
 10
1435.0
 20
437.5
 10
1437.5
 20
437.5
 10
1437.5
 20
382.5
 10
1435.0
 20
382.5
 97
0
 75
1
 76
1
 98
0
  0
LWPOLYLINE
  5
1C7
330
17
100
AcDbEntity
  8
WALL
100
AcDbPolyline
 90
4
 70
1
 10
105.0
 20
422.5
 10
115.0
 20
422.5
 10
115.0
 20
382.5
 10
105.0
 20
382.5
  0
HATCH
  5
1C8
330
17
100
AcDbEntity
  8
WALL
100
AcDbHatch
 10
0.0
 20
0.0
 30
0.0
210
0.0
220
0.0
230
1.0
  2
SOLID
 70
1
 71
0
 91
1
 92
3
 72
0
 73
1
 93
4
 10
105.0
 20
422.5
 10
115.0
 20
422.5
 10
115.0
 20
382.5
 10
105.0
 20
382.5
 97
0
 75
1
 76
1
 98
0
  0
LWPOLYLINE
  5
1C9
330
17
100
AcDbEntity
  8
WALL
100
AcDbPolyline
 90
4
 70
1
 10
2135.0
 20
420.0
 10
2150.0
 20
420.0
 10
2150.0
 20
385.0
 10
2135.0
 20
385.0
  0
HATCH
  5
1CA
330
17
100
AcDbEntity
  8
WALL
100
AcDbHatch
 10
0.0
 20
0.0
 30
0.0
210
0.0
220
0.0
230
1.0
  2
SOLID
 70
1
 71
0
 91
1
 92
3
 72
0
 73
1
 93
4
 10
2135.0
 20
420.0
 10
2150.0
 20
420.0
 10
2150.0
 20
385.0
 10
2135.0
 20
385.0
 97
0
 75
1
 76
1
 98
0
  0
LWPOLYLINE
  5
1CB
330
17
100
AcDbEntity
  8
WALL
100
AcDbPolyline
 90
4
 70
1
 10
877.5
 20
392.5
 10
882.5
 20
392.5
 10
882.5
 20
362.5
 10
877.5
 20
362.5
  0
HATCH
  5
1CC
330
17
100
AcDbEntity
  8
WALL
100
AcDbHatch
 10
0.0
 20
0.0
 30
0.0
210
0.0
220
0.0
230
1.0
  2
SOLID
 70
1
 71
0
 91
1
 92
3
 72
0
 73
1
 93
4
 10
877.5
 20
392.5
 10
882.5
 20
392.5
 10
882.5
 20
362.5
 10
877.5
 20
362.5
 97
0
 75
1
 76
1
 98
0
  0
LWPOLYLINE
  5
1CD
330
17
100
AcDbEntity
  8
WALL
100
AcDbPolyline
 90
4
 70
1
 10
1347.5
 20
392.5
 10
1355.0
 20
392.5
 10
1355.0
 20
352.5
 10
1347.5
 20
352.5
  0
HATCH
  5
1CE
330
17
100
AcDbEntity
  8
WALL
100
AcDbHatch
 10
0.0
 20
0.0
 30
0.0
210
0.0
220
0.0
230
1.0
  2
SOLID
 70
1
 71
0
 91
1
 92
3
 72
0
 73
1
 93
4
 10
1347.5
 20
392.5
 10
1355.0
 20
392.5
 10
1355.0
 20
352.5
 10
1347.5
 20
352.5
 97
0
 75
1
 76
1
 98
0
  0
LWPOLYLINE
  5
1CF
330
17
100
AcDbEntity
  8
WALL
100
AcDbPolyline
 90
4
 70
1
 10
2085.0
 20
355.0
 10
2105.0
 20
355.0
 10
2105.0
 20
220.0
 10
2085.0
 20
220.0
  0
HATCH
  5
1D0
330
17
100
AcDbEntity
  8
WALL
100
AcDbHatch
 10
0.0
 20
0.0
 30
0.0
210
0.0
220
0.0
230
1.0
  2
SOLID
 70
1
 71
0
 91
1
 92
3
 72
0
 73
1
 93
4
 10
2085.0
 20
355.0
 10
2105.0
 20
355.0
 10
2105.0
 20
220.0
 10
2085.0
 20
220.0
 97
0
 75
1
 76
1
 98
0
  0
LWPOLYLINE
  5
1D1
330
17
100
AcDbEntity
  8
WALL
100
AcDbPolyline
 90
4
 70
1
 10
1677.5
 20
272.5
 10
1695.0
 20
272.5
 10
1695.0
 20
242.5
 10
1677.5
 20
242.5
  0
HATCH
  5
1D2
330
17
100
AcDbEntity
  8
WALL
100
AcDbHatch
 10
0.0
 20
0.0
 30
0.0
210
0.0
220
0.0
230
1.0
  2
SOLID
 70
1
 71
0
 91
1
 92
3
 72
0
 73
1
 93
4
 10
1677.5
 20
272.5
 10
1695.0
 20
272.5
 10
1695.0
 20
242.5
 10
1677.5
 20
242.5
 97
0
 75
1
 76
1
 98
0
  0
LWPOLYLINE
  5
1D3
330
17
100
AcDbEntity
  8
WALL
100
AcDbPolyline
 90
4
 70
1
 10
2105.0
 20
132.5
 10
2107.5
 20
132.5
 10
2107.5
 20
102.5
 10
2105.0
 20
102.5
  0
HATCH
  5
1D4
330
17
100
AcDbEntity
  8
WALL
100
AcDbHatch
 10
0.0
 20
0.0
 30
0.0
210
0.0
220
0.0
230
1.0
  2
SOLID
 70
1
 71
0
 91
1
 92
3
 72
0
 73
1
 93
4
 10
2105.0
 20
132.5
 10
2107.5
 20
132.5
 10
2107.5
 20
102.5
 10
2105.0
 20
102.5
 97
0
 75
1
 76
1
 98
0
  0
LWPOLYLINE
  5
1D5
330
17
100
AcDbEntity
  8
WALL
100
AcDbPolyline
 90
4
 70
1
 10
2110.0
 20
127.5
 10
2112.5
 20
127.5
 10
2112.5
 20
62.5
 10
2110.0
 20
62.5
  0
HATCH
  5
1D6
330
17
100
AcDbEntity
  8
WALL
100
AcDbHatch
 10
0.0
 20
0.0
 30
0.0
210
0.0
220
0.0
230
1.0
  2
SOLID
 70
1
 71
0
 91
1
 92
3
 72
0
 73
1
 93
4
 10
2110.0
 20
127.5
 10
2112.5
 20
127.5
 10
2112.5
 20
62.5
 10
2110.0
 20
62.5
 97
0
 75
1
 76
1
 98
0
  0
LWPOLYLINE
  5
1D7
330
17
100
AcDbEntity
  8
WALL
100
AcDbPolyline
 90
4
 70
1
 10
2090.0
 20
122.5
 10
2097.5
 20
122.5
 10
2097.5
 20
87.5
 10
2090.0
 20
87.5
  0
HATCH
  5
1D8
330
17
100
AcDbEntity
  8
WALL
100
AcDbHatch
 10
0.0
 20
0.0
 30
0.0
210
0.0
220
0.0
230
1.0
  2
SOLID
 70
1
 71
0
 91
1
 92
3
 72
0
 73
1
 93
4
 10
2090.0
 20
122.5
 10
2097.5
 20
122.5
 10
2097.5
 20
87.5
 10
2090.0
 20
87.5
 97
0
 75
1
 76
1
 98
0
  0
LINE
  5
1D9
330
17
100
AcDbEntity
  8
WINDOW
100
AcDbLine
 10
1005.0
 20
1735.0
 30
0.0
 11
1047.5
 21
1735.0
 31
0.0
  0
LINE
  5
1DA
330
17
100
AcDbEntity
  8
WINDOW
100
AcDbLine
 10
1005.0
 20
1728.3333333333335
 30
0.0
 11
1047.5
 21
1728.3333333333335
 31
0.0
  0
LINE
  5
1DB
330
17
100
AcDbEntity
  8
WINDOW
100
AcDbLine
 10
1005.0
 20
1721.6666666666665
 30
0.0
 11
1047.5
 21
1721.6666666666665
 31
0.0
  0
LINE
  5
1DC
330
17
100
AcDbEntity
  8
WINDOW
100
AcDbLine
 10
1005.0
 20
1715.0
 30
0.0
 11
1047.5
 21
1715.0
 31
0.0
  0
LINE
  5
1DD
330
17
100
AcDbEntity
  8
WINDOW
100
AcDbLine
 10
1005.0
 20
1735.0
 30
0.0
 11
1005.0
 21
1715.0
 31
0.0
  0
LINE
  5
1DE
330
17
100
AcDbEntity
  8
WINDOW
100
AcDbLine
 10
1047.5
 20
1735.0
 30
0.0
 11
1047.5
 21
1715.0
 31
0.0
  0
LINE
  5
1DF
330
17
100
AcDbEntity
  8
WINDOW
100
AcDbLine
 10
1547.5
 20
545.0
 30
0.0
 11
1560.0
 21
545.0
 31
0.0
  0
LINE
  5
1E0
330
17
100
AcDbEntity
  8
WINDOW
100
AcDbLine
 10
1547.5
 20
541.6666666666665
 30
0.0
 11
1560.0
 21
541.6666666666665
 31
0.0
  0
LINE
  5
1E1
330
17
100
AcDbEntity
  8
WINDOW
100
AcDbLine
 10
1547.5
 20
538.3333333333335
 30
0.0
 11
1560.0
 21
538.3333333333335
 31
0.0
  0
LINE
  5
1E2
330
17
100
AcDbEntity
  8
WINDOW
100
AcDbLine
 10
1547.5
 20
535.0
 30
0.0
 11
1560.0
 21
535.0
 31
0.0
  0
LINE
  5
1E3
330
17
100
AcDbEntity
  8
WINDOW
100
AcDbLine
 10
1547.5
 20
545.0
 30
0.0
 11
1547.5
 21
535.0
 31
0.0
  0
LINE
  5
1E4
330
17
100
AcDbEntity
  8
WINDOW
100
AcDbLine
 10
1560.0
 20
545.0
 30
0.0
 11
1560.0
 21
535.0
 31
0.0
  0
LINE
  5
1E5
330
17
100
AcDbEntity
  8
WINDOW
100
AcDbLine
 10
1472.5
 20
435.0
 30
0.0
 11
1505.0
 21
435.0
 31
0.0
  0
LINE
  5
1E6
330
17
100
AcDbEntity
  8
WINDOW
100
AcDbLine
 10
1472.5
 20
430.0
 30
0.0
 11
1505.0
 21
430.0
 31
0.0
  0
LINE
  5
1E7
330
17
100
AcDbEntity
  8
WINDOW
100
AcDbLine
 10
1472.5
 20
425.0
 30
0.0
 11
1505.0
 21
425.0
 31
0.0
  0
LINE
  5
1E8
330
17
100
AcDbEntity
  8
WINDOW
100
AcDbLine
 10
1472.5
 20
420.0
 30
0.0
 11
1505.0
 21
420.0
 31
0.0
  0
LINE
  5
1E9
330
17
100
AcDbEntity
  8
WINDOW
100
AcDbLine
 10
1472.5
 20
435.0
 30
0.0
 11
1472.5
 21
420.0
 31
0.0
  0
LINE
  5
1EA
330
17
100
AcDbEntity
  8
WINDOW
100
AcDbLine
 10
1505.0
 20
435.0
 30
0.0
 11
1505.0
 21
420.0
 31
0.0
  0
LINE
  5
1EB
330
17
100
AcDbEntity
  8
WINDOW
100
AcDbLine
 10
215.0
 20
715.0
 30
0.0
 11
215.0
 21
702.5
 31
0.0
  0
LINE
  5
1EC
330
17
100
AcDbEntity
  8
WINDOW
100
AcDbLine
 10
220.0
 20
715.0
 30
0.0
 11
220.0
 21
702.5
 31
0.0
  0
LINE
  5
1ED
330
17
100
AcDbEntity
  8
WINDOW
100
AcDbLine
 10
225.0
 20
715.0
 30
0.0
 11
225.0
 21
702.5
 31
0.0
  0
LINE
  5
1EE
330
17
100
AcDbEntity
  8
WINDOW
100
AcDbLine
 10
230.0
 20
715.0
 30
0.0
 11
230.0
 21
702.5
 31
0.0
  0
LINE
  5
1EF
330
17
100
AcDbEntity
  8
WINDOW
100
AcDbLine
 10
215.0
 20
715.0
 30
0.0
 11
230.0
 21
715.0
 31
0.0
  0
LINE
  5
1F0
330
17
100
AcDbEntity
  8
WINDOW
100
AcDbLine
 10
215.0
 20
702.5
 30
0.0
 11
230.0
 21
702.5
 31
0.0
  0
LINE
  5
1F1
330
17
100
AcDbEntity
  8
WINDOW
100
AcDbLine
 10
400.0
 20
1980.0
 30
0.0
 11
400.0
 21
1970.0
 31
0.0
  0
LINE
  5
1F2
330
17
100
AcDbEntity
  8
WINDOW
100
AcDbLine
 10
405.0
 20
1980.0
 30
0.0
 11
405.0
 21
1970.0
 31
0.0
  0
LINE
  5
1F3
330
17
100
AcDbEntity
  8
WINDOW
100
AcDbLine
 10
410.0
 20
1980.0
 30
0.0
 11
410.0
 21
1970.0
 31
0.0
  0
LINE
  5
1F4
330
17
100
AcDbEntity
  8
WINDOW
100
AcDbLine
 10
415.0
 20
1980.0
 30
0.0
 11
415.0
 21
1970.0
 31
0.0
  0
LINE
  5
1F5
330
17
100
AcDbEntity
  8
WINDOW
100
AcDbLine
 10
400.0
 20
1980.0
 30
0.0
 11
415.0
 21
1980.0
 31
0.0
  0
LINE
  5
1F6
330
17
100
AcDbEntity
  8
WINDOW
100
AcDbLine
 10
400.0
 20
1970.0
 30
0.0
 11
415.0
 21
1970.0
 31
0.0
  0
LINE
  5
1F7
330
17
100
AcDbEntity
  8
WINDOW
100
AcDbLine
 10
1485.0
 20
2080.0
 30
0.0
 11
1485.0
 21
2005.0
 31
0.0
  0
LINE
  5
1F8
330
17
100
AcDbEntity
  8
WINDOW
100
AcDbLine
 10
1491.6666666666665
 20
2080.0
 30
0.0
 11
1491.6666666666665
 21
2005.0
 31
0.0
  0
LINE
  5
1F9
330
17
100
AcDbEntity
  8
WINDOW
100
AcDbLine
 10
1498.3333333333335
 20
2080.0
 30
0.0
 11
1498.3333333333335
 21
2005.0
 31
0.0
  0
LINE
  5
1FA
330
17
100
AcDbEntity
  8
WINDOW
100
AcDbLine
 10
1505.0
 20
2080.0
 30
0.0
 11
1505.0
 21
2005.0
 31
0.0
  0
LINE
  5
1FB
330
17
100
AcDbEntity
  8
WINDOW
100
AcDbLine
 10
1485.0
 20
2080.0
 30
0.0
 11
1505.0
 21
2080.0
 31
0.0
  0
LINE
  5
1FC
330
17
100
AcDbEntity
  8
WINDOW
100
AcDbLine
 10
1485.0
 20
2005.0
 30
0.0
 11
1505.0
 21
2005.0
 31
0.0
  0
LINE
  5
1FD
330
17
100
AcDbEntity
  8
WINDOW
100
AcDbLine
 10
1485.0
 20
1970.0
 30
0.0
 11
1485.0
 21
1620.0
 31
0.0
  0
LINE
  5
1FE
330
17
100
AcDbEntity
  8
WINDOW
100
AcDbLine
 10
1490.8333333333335
 20
1970.0
 30
0.0
 11
1490.8333333333335
 21
1620.0
 31
0.0
  0
LINE
  5
1FF
330
17
100
AcDbEntity
  8
WINDOW
100
AcDbLine
 10
1496.6666666666665
 20
1970.0
 30
0.0
 11
1496.6666666666665
 21
1620.0
 31
0.0
  0
LINE
  5
200
330
17
100
AcDbEntity
  8
WINDOW
100
AcDbLine
 10
1502.5
 20
1970.0
 30
0.0
 11
1502.5
 21
1620.0
 31
0.0
  0
LINE
  5
201
330
17
100
AcDbEntity
  8
WINDOW
100
AcDbLine
 10
1485.0
 20
1970.0
 30
0.0
 11
1502.5
 21
1970.0
 31
0.0
  0
LINE
  5
202
330
17
100
AcDbEntity
  8
WINDOW
100
AcDbLine
 10
1485.0
 20
1620.0
 30
0.0
 11
1502.5
 21
1620.0
 31
0.0
  0
LINE
  5
203
330
17
100
AcDbEntity
  8
WINDOW
100
AcDbLine
 10
1485.0
 20
955.0
 30
0.0
 11
1485.0
 21
910.0
 31
0.0
  0
LINE
  5
204
330
17
100
AcDbEntity
  8
WINDOW
100
AcDbLine
 10
1488.3333333333335
 20
955.0
 30
0.0
 11
1488.3333333333335
 21
910.0
 31
0.0
  0
LINE
  5
205
330
17
100
AcDbEntity
  8
WINDOW
100
AcDbLine
 10
1491.6666666666665
 20
955.0
 30
0.0
 11
1491.6666666666665
 21
910.0
 31
0.0
  0
LINE
  5
206
330
17
100
AcDbEntity
  8
WINDOW
100
AcDbLine
 10
1495.0
 20
955.0
 30
0.0
 11
1495.0
 21
910.0
 31
0.0
  0
LINE
  5
207
330
17
100
AcDbEntity
  8
WINDOW
100
AcDbLine
 10
1485.0
 20
955.0
 30
0.0
 11
1495.0
 21
955.0
 31
0.0
  0
LINE
  5
208
330
17
100
AcDbEntity
  8
WINDOW
100
AcDbLine
 10
1485.0
 20
910.0
 30
0.0
 11
1495.0
 21
910.0
 31
0.0
  0
LINE
  5
209
330
17
100
AcDbEntity
  8
WINDOW
100
AcDbLine
 10
1965.0
 20
2032.5
 30
0.0
 11
1965.0
 21
2010.0
 31
0.0
  0
LINE
  5
20A
330
17
100
AcDbEntity
  8
WINDOW
100
AcDbLine
 10
1973.3333333333335
 20
2032.5
 30
0.0
 11
1973.3333333333335
 21
2010.0
 31
0.0
  0
LINE
  5
20B
330
17
100
AcDbEntity
  8
WINDOW
100
AcDbLine
 10
1981.6666666666665
 20
2032.5
 30
0.0
 11
1981.6666666666665
 21
2010.0
 31
0.0
  0
LINE
  5
20C
330
17
100
AcDbEntity
  8
WINDOW
100
AcDbLine
 10
1990.0
 20
2032.5
 30
0.0
 11
1990.0
 21
2010.0
 31
0.0
  0
LINE
  5
20D
330
17
100
AcDbEntity
  8
WINDOW
100
AcDbLine
 10
1965.0
 20
2032.5
 30
0.0
 11
1990.0
 21
2032.5
 31
0.0
  0
LINE
  5
20E
330
17
100
AcDbEntity
  8
WINDOW
100
AcDbLine
 10
1965.0
 20
2010.0
 30
0.0
 11
1990.0
 21
2010.0
 31
0.0
  0
LINE
  5
20F
330
17
100
AcDbEntity
  8
WINDOW
100
AcDbLine
 10
2095.0
 20
640.0
 30
0.0
 11
2095.0
 21
497.5
 31
0.0
  0
LINE
  5
210
330
17
100
AcDbEntity
  8
WINDOW
100
AcDbLine
 10
2101.6666666666665
 20
640.0
 30
0.0
 11
2101.6666666666665
 21
497.5
 31
0.0
  0
LINE
  5
211
330
17
100
AcDbEntity
  8
WINDOW
100
AcDbLine
 10
2108.3333333333335
 20
640.0
 30
0.0
 11
2108.3333333333335
 21
497.5
 31
0.0
  0
LINE
  5
212
330
17
100
AcDbEntity
  8
WINDOW
100
AcDbLine
 10
2115.0
 20
640.0
 30
0.0
 11
2115.0
 21
497.5
 31
0.0
  0
LINE
  5
213
330
17
100
AcDbEntity
  8
WINDOW
100
AcDbLine
 10
2095.0
 20
640.0
 30
0.0
 11
2115.0
 21
640.0
 31
0.0
  0
LINE
  5
214
330
17
100
AcDbEntity
  8
WINDOW
100
AcDbLine
 10
2095.0
 20
497.5
 30
0.0
 11
2115.0
 21
497.5
 31
0.0
  0
LINE
  5
215
330
17
100
AcDbEntity
  8
WINDOW
100
AcDbLine
 10
2120.0
 20
1520.0
 30
0.0
 11
2120.0
 21
1497.5
 31
0.0
  0
LINE
  5
216
330
17
100
AcDbEntity
  8
WINDOW
100
AcDbLine
 10
2126.6666666666665
 20
1520.0
 30
0.0
 11
2126.6666666666665
 21
1497.5
 31
0.0
  0
LINE
  5
217
330
17
100
AcDbEntity
  8
WINDOW
100
AcDbLine
 10
2133.3333333333335
 20
1520.0
 30
0.0
 11
2133.3333333333335
 21
1497.5
 31
0.0
  0
LINE
  5
218
330
17
100
AcDbEntity
  8
WINDOW
100
AcDbLine
 10
2140.0
 20
1520.0
 30
0.0
 11
2140.0
 21
1497.5
 31
0.0
  0
LINE
  5
219
330
17
100
AcDbEntity
  8
WINDOW
100
AcDbLine
 10
2120.0
 20
1520.0
 30
0.0
 11
2140.0
 21
1520.0
 31
0.0
  0
LINE
  5
21A
330
17
100
AcDbEntity
  8
WINDOW
100
AcDbLine
 10
2120.0
 20
1497.5
 30
0.0
 11
2140.0
 21
1497.5
 31
0.0
  0
LWPOLYLINE
  5
21C
330
17
100
AcDbEntity
  8
DOORZONE
100
AcDbPolyline
 90
4
 70
1
 10
277.5
 20
2207.5
 10
357.5
 20
2207.5
 10
357.5
 20
2047.5
 10
277.5
 20
2047.5
  0
LWPOLYLINE
  5
21D
330
17
100
AcDbEntity
  8
DOORZONE
100
AcDbPolyline
 90
4
 70
1
 10
1882.5
 20
2145.0
 10
1965.0
 20
2145.0
 10
1965.0
 20
1980.0
 10
1882.5
 20
1980.0
  0
LWPOLYLINE
  5
21E
330
17
100
AcDbEntity
  8
DOORZONE
100
AcDbPolyline
 90
4
 70
1
 10
1525.0
 20
2081.25
 10
1572.5
 20
2081.25
 10
1572.5
 20
1986.25
 10
1525.0
 20
1986.25
  0
LWPOLYLINE
  5
21F
330
17
100
AcDbEntity
  8
DOORZONE
100
AcDbPolyline
 90
4
 70
1
 10
1005.0
 20
1757.5
 10
1045.0
 20
1757.5
 10
1045.0
 20
1677.5
 10
1005.0
 20
1677.5
  0
LWPOLYLINE
  5
220
330
17
100
AcDbEntity
  8
DOORZONE
100
AcDbPolyline
 90
4
 70
1
 10
885.0
 20
1617.5
 10
942.5
 20
1617.5
 10
942.5
 20
1502.5
 10
885.0
 20
1502.5
  0
LWPOLYLINE
  5
221
330
17
100
AcDbEntity
  8
DOORZONE
100
AcDbPolyline
 90
4
 70
1
 10
1797.5
 20
1605.0
 10
1910.0
 20
1605.0
 10
1910.0
 20
1380.0
 10
1797.5
 20
1380.0
  0
LWPOLYLINE
  5
222
330
17
100
AcDbEntity
  8
DOORZONE
100
AcDbPolyline
 90
4
 70
1
 10
1340.0
 20
1173.75
 10
1380.0
 20
1173.75
 10
1380.0
 20
1093.75
 10
1340.0
 20
1093.75
  0
LWPOLYLINE
  5
223
330
17
100
AcDbEntity
  8
DOORZONE
100
AcDbPolyline
 90
4
 70
1
 10
975.0
 20
991.25
 10
1052.5
 20
991.25
 10
1052.5
 20
836.25
 10
975.0
 20
836.25
  0
LWPOLYLINE
  5
224
330
17
100
AcDbEntity
  8
DOORZONE
100
AcDbPolyline
 90
4
 70
1
 10
1817.5
 20
947.5
 10
1905.0
 20
947.5
 10
1905.0
 20
772.5
 10
1817.5
 20
772.5
  0
LWPOLYLINE
  5
225
330
17
100
AcDbEntity
  8
DOORZONE
100
AcDbPolyline
 90
4
 70
1
 10
1962.5
 20
952.5
 10
2055.0
 20
952.5
 10
2055.0
 20
767.5
 10
1962.5
 20
767.5
  0
LWPOLYLINE
  5
226
330
17
100
AcDbEntity
  8
DOORZONE
100
AcDbPolyline
 90
4
 70
1
 10
1057.5
 20
896.25
 10
1145.0
 20
896.25
 10
1145.0
 20
721.25
 10
1057.5
 20
721.25
  0
LWPOLYLINE
  5
227
330
17
100
AcDbEntity
  8
DOORZONE
100
AcDbPolyline
 90
4
 70
1
 10
900.0
 20
861.25
 10
965.0
 20
861.25
 10
965.0
 20
731.25
 10
900.0
 20
731.25
  0
LWPOLYLINE
  5
228
330
17
100
AcDbEntity
  8
DOORZONE
100
AcDbPolyline
 90
4
 70
1
 10
1995.0
 20
540.0
 10
2122.5
 20
540.0
 10
2122.5
 20
285.0
 10
1995.0
 20
285.0
  0
LWPOLYLINE
  5
229
330
17
100
AcDbEntity
  8
DOORZONE
100
AcDbPolyline
 90
4
 70
1
 10
557.5
 20
437.5
 10
612.5
 20
437.5
 10
612.5
 20
327.5
 10
557.5
 20
327.5
  0
LWPOLYLINE
  5
22A
330
17
100
AcDbEntity
  8
DOORZONE
100
AcDbPolyline
 90
4
 70
1
 10
1247.5
 20
482.5
 10
1347.5
 20
482.5
 10
1347.5
 20
282.5
 10
1247.5
 20
282.5
  0
LWPOLYLINE
  5
22B
330
17
100
AcDbEntity
  8
DOORZONE
100
AcDbPolyline
 90
4
 70
1
 10
1995.0
 20
375.0
 10
2087.5
 20
375.0
 10
2087.5
 20
190.0
 10
1995.0
 20
190.0
  0
LWPOLYLINE
  5
22C
330
17
100
AcDbEntity
  8
DOORZONE
100
AcDbPolyline
 90
4
 70
1
 10
1995.0
 20
281.25
 10
2122.5
 20
281.25
 10
2122.5
 20
26.25
 10
1995.0
 20
26.25
  0
LWPOLYLINE
  5
22D
330
17
100
AcDbEntity
  8
DOORZONE
100
AcDbPolyline
 90
4
 70
1
 10
1370.0
 20
2110.0
 10
1370.0
 20
2050.0
 10
1490.0
 20
2050.0
 10
1490.0
 20
2110.0
  0
LWPOLYLINE
  5
22E
330
17
100
AcDbEntity
  8
DOORZONE
100
AcDbPolyline
 90
4
 70
1
 10
1412.5
 20
1882.5
 10
1412.5
 20
1785.0
 10
1607.5
 20
1785.0
 10
1607.5
 20
1882.5
  0
LWPOLYLINE
  5
22F
330
17
100
AcDbEntity
  8
DOORZONE
100
AcDbPolyline
 90
4
 70
1
 10
1402.5
 20
1677.5
 10
1402.5
 20
1562.5
 10
1632.5
 20
1562.5
 10
1632.5
 20
1677.5
  0
LWPOLYLINE
  5
230
330
17
100
AcDbEntity
  8
DOORZONE
100
AcDbPolyline
 90
4
 70
1
 10
932.5
 20
1552.5
 10
932.5
 20
1430.0
 10
1177.5
 20
1430.0
 10
1177.5
 20
1552.5
  0
LWPOLYLINE
  5
231
330
17
100
AcDbEntity
  8
DOORZONE
100
AcDbPolyline
 90
4
 70
1
 10
1472.5
 20
1490.0
 10
1472.5
 20
1445.0
 10
1562.5
 20
1445.0
 10
1562.5
 20
1490.0
  0
LWPOLYLINE
  5
232
330
17
100
AcDbEntity
  8
DOORZONE
100
AcDbPolyline
 90
4
 70
1
 10
2097.5
 20
1592.5
 10
2097.5
 20
1552.5
 10
2177.5
 20
1552.5
 10
2177.5
 20
1592.5
  0
LWPOLYLINE
  5
233
330
17
100
AcDbEntity
  8
DOORZONE
100
AcDbPolyline
 90
4
 70
1
 10
520.0
 20
1460.0
 10
520.0
 20
1310.0
 10
820.0
 20
1310.0
 10
820.0
 20
1460.0
  0
LWPOLYLINE
  5
234
330
17
100
AcDbEntity
  8
DOORZONE
100
AcDbPolyline
 90
4
 70
1
 10
287.5
 20
1292.5
 10
287.5
 20
1170.0
 10
532.5
 20
1170.0
 10
532.5
 20
1292.5
  0
LWPOLYLINE
  5
235
330
17
100
AcDbEntity
  8
DOORZONE
100
AcDbPolyline
 90
4
 70
1
 10
172.5
 20
1457.5
 10
172.5
 20
1310.0
 10
467.5
 20
1310.0
 10
467.5
 20
1457.5
  0
LWPOLYLINE
  5
236
330
17
100
AcDbEntity
  8
DOORZONE
100
AcDbPolyline
 90
4
 70
1
 10
427.5
 20
1507.5
 10
427.5
 20
1462.5
 10
517.5
 20
1462.5
 10
517.5
 20
1507.5
  0
LWPOLYLINE
  5
237
330
17
100
AcDbEntity
  8
DOORZONE
100
AcDbPolyline
 90
4
 70
1
 10
377.5
 20
1002.5
 10
377.5
 20
940.0
 10
502.5
 20
940.0
 10
502.5
 20
1002.5
  0
LWPOLYLINE
  5
238
330
17
100
AcDbEntity
  8
DOORZONE
100
AcDbPolyline
 90
4
 70
1
 10
352.5
 20
1155.0
 10
352.5
 20
1067.5
 10
527.5
 20
1067.5
 10
527.5
 20
1155.0
  0
LWPOLYLINE
  5
239
330
17
100
AcDbEntity
  8
DOORZONE
100
AcDbPolyline
 90
4
 70
1
 10
275.0
 20
992.5
 10
275.0
 20
940.0
 10
380.0
 20
940.0
 10
380.0
 20
992.5
  0
LWPOLYLINE
  5
23A
330
17
100
AcDbEntity
  8
DOORZONE
100
AcDbPolyline
 90
4
 70
1
 10
2026.25
 20
902.5
 10
2026.25
 20
802.5
 10
2226.25
 20
802.5
 10
2226.25
 20
902.5
  0
LWPOLYLINE
  5
23B
330
17
100
AcDbEntity
  8
DOORZONE
100
AcDbPolyline
 90
4
 70
1
 10
1443.75
 20
955.0
 10
1443.75
 20
910.0
 10
1533.75
 20
910.0
 10
1533.75
 20
955.0
  0
LWPOLYLINE
  5
23C
330
17
100
AcDbEntity
  8
DOORZONE
100
AcDbPolyline
 90
4
 70
1
 10
1095.0
 20
907.5
 10
1095.0
 20
852.5
 10
1205.0
 20
852.5
 10
1205.0
 20
907.5
  0
LWPOLYLINE
  5
23D
330
17
100
AcDbEntity
  8
DOORZONE
100
AcDbPolyline
 90
4
 70
1
 10
175.0
 20
822.5
 10
175.0
 20
772.5
 10
275.0
 20
772.5
 10
275.0
 20
822.5
  0
LWPOLYLINE
  5
23E
330
17
100
AcDbEntity
  8
DOORZONE
100
AcDbPolyline
 90
4
 70
1
 10
2101.25
 20
705.0
 10
2101.25
 20
662.5
 10
2186.25
 20
662.5
 10
2186.25
 20
705.0
  0
LWPOLYLINE
  5
23F
330
17
100
AcDbEntity
  8
DOORZONE
100
AcDbPolyline
 90
4
 70
1
 10
150.0
 20
760.0
 10
150.0
 20
707.5
 10
255.0
 20
707.5
 10
255.0
 20
760.0
  0
LWPOLYLINE
  5
240
330
17
100
AcDbEntity
  8
DOORZONE
100
AcDbPolyline
 90
4
 70
1
 10
2030.0
 20
430.0
 10
2030.0
 20
355.0
 10
2180.0
 20
355.0
 10
2180.0
 20
430.0
  0
LWPOLYLINE
  5
241
330
17
100
AcDbEntity
  8
DOORZONE
100
AcDbPolyline
 90
4
 70
1
 10
1000.0
 20
530.0
 10
1000.0
 20
450.0
 10
1160.0
 20
450.0
 10
1160.0
 20
530.0
  0
LWPOLYLINE
  5
242
330
17
100
AcDbEntity
  8
DOORZONE
100
AcDbPolyline
 90
4
 70
1
 10
1455.0
 20
535.0
 10
1455.0
 20
450.0
 10
1625.0
 20
450.0
 10
1625.0
 20
535.0
  0
LWPOLYLINE
  5
243
330
17
100
AcDbEntity
  8
DOORZONE
100
AcDbPolyline
 90
4
 70
1
 10
2035.0
 20
527.5
 10
2035.0
 20
420.0
 10
2250.0
 20
420.0
 10
2250.0
 20
527.5
  0
LWPOLYLINE
  5
244
330
17
100
AcDbEntity
  8
DOORZONE
100
AcDbPolyline
 90
4
 70
1
 10
1958.75
 20
280.0
 10
1958.75
 20
132.5
 10
2253.75
 20
132.5
 10
2253.75
 20
280.0
  0
ENDSEC
  0
SECTION
  2
OBJECTS
  0
DICTIONARY
  5
A
330
0
100
AcDbDictionary
281
1
  3
ACAD_COLOR
350
B
  3
ACAD_GROUP
350
C
  3
ACAD_LAYOUT
350
D
  3
ACAD_MATERIAL
350
E
  3
ACAD_MLEADERSTYLE
350
F
  3
ACAD_MLINESTYLE
350
10
  3
ACAD_PLOTSETTINGS
350
11
  3
ACAD_PLOTSTYLENAME
350
12
  3
ACAD_SCALELIST
350
14
  3
ACAD_TABLESTYLE
350
15
  3
ACAD_VISUALSTYLE
350
16
  3
EZDXF_META
350
2D
  0
DICTIONARY
  5
B
330
A
100
AcDbDictionary
281
1
  0
DICTIONARY
  5
C
330
A
100
AcDbDictionary
281
1
  0
DICTIONARY
  5
D
330
A
100
AcDbDictionary
281
1
  3
Model
350
1A
  3
Layout1
350
1E
  0
DICTIONARY
  5
E
330
A
100
AcDbDictionary
281
1
  3
ByBlock
350
1F
  3
ByLayer
350
20
  3
Global
350
21
  0
DICTIONARY
  5
F
330
A
100
AcDbDictionary
281
1
  3
Standard
350
2C
  0
DICTIONARY
  5
10
330
A
100
AcDbDictionary
281
1
  3
Standard
350
22
  0
DICTIONARY
  5
11
330
A
100
AcDbDictionary
281
1
  0
ACDBDICTIONARYWDFLT
  5
12
330
A
100
AcDbDictionary
281
1
  3
Normal
350
13
100
AcDbDictionaryWithDefault
340
13
  0
ACDBPLACEHOLDER
  5
13
330
12
  0
DICTIONARY
  5
14
330
A
100
AcDbDictionary
281
1
  0
DICTIONARY
  5
15
330
A
100
AcDbDictionary
281
1
  0
DICTIONARY
  5
16
330
A
100
AcDbDictionary
281
1
  0
LAYOUT
  5
1A
330
D
100
AcDbPlotSettings
  1

  4
A3
  6

 40
7.5
 41
20.0
 42
7.5
 43
20.0
 44
420.0
 45
297.0
 46
0.0
 47
0.0
 48
0.0
 49
0.0
140
0.0
141
0.0
142
1.0
143
1.0
 70
1024
 72
1
 73
0
 74
5
  7

 75
16
 76
0
 77
2
 78
300
147
1.0
148
0.0
149
0.0
100
AcDbLayout
  1
Model
 70
1
 71
0
 10
0.0
 20
0.0
 11
420.0
 21
297.0
 12
0.0
 22
0.0
 32
0.0
 14
1e+20
 24
1e+20
 34
1e+20
 15
-1e+20
 25
-1e+20
 35
-1e+20
146
0.0
 13
0.0
 23
0.0
 33
0.0
 16
1.0
 26
0.0
 36
0.0
 17
0.0
 27
1.0
 37
0.0
 76
1
330
17
  0
LAYOUT
  5
1E
330
D
100
AcDbPlotSettings
  1

  4
A3
  6

 40
7.5
 41
20.0
 42
7.5
 43
20.0
 44
420.0
 45
297.0
 46
0.0
 47
0.0
 48
0.0
 49
0.0
140
0.0
141
0.0
142
1.0
143
1.0
 70
0
 72
1
 73
0
 74
5
  7

 75
16
 76
0
 77
2
 78
300
147
1.0
148
0.0
149
0.0
100
AcDbLayout
  1
Layout1
 70
1
 71
1
 10
0.0
 20
0.0
 11
420.0
 21
297.0
 12
0.0
 22
0.0
 32
0.0
 14
1e+20
 24
1e+20
 34
1e+20
 15
-1e+20
 25
-1e+20
 35
-1e+20
146
0.0
 13
0.0
 23
0.0
 33
0.0
 16
1.0
 26
0.0
 36
0.0
 17
0.0
 27
1.0
 37
0.0
 76
1
330
1B
  0
MATERIAL
  5
1F
102
{ACAD_REACTORS
330
E
102
}
330
E
100
AcDbMaterial
  1
ByBlock
  2

 70
0
 40
1.0
 71
1
 41
1.0
 91
-1023410177
 42
1.0
 72
1
  3

 73
1
 74
1
 75
1
 44
0.5
 73
0
 45
1.0
 46
1.0
 77
1
  4

 78
1
 79
1
170
1
 48
1.0
171
1
  6

172
1
173
1
174
1
140
1.0
141
1.0
175
1
  7

176
1
177
1
178
1
143
1.0
179
1
  8

270
1
271
1
272
1
145
1.0
146
1.0
273
1
  9

274
1
275
1
276
1
 42
1.0
 72
1
  3

 73
1
 74
1
 75
1
 94
63
  0
MATERIAL
  5
20
102
{ACAD_REACTORS
330
E
102
}
330
E
100
AcDbMaterial
  1
ByLayer
  2

 70
0
 40
1.0
 71
1
 41
1.0
 91
-1023410177
 42
1.0
 72
1
  3

 73
1
 74
1
 75
1
 44
0.5
 73
0
 45
1.0
 46
1.0
 77
1
  4

 78
1
 79
1
170
1
 48
1.0
171
1
  6

172
1
173
1
174
1
140
1.0
141
1.0
175
1
  7

176
1
177
1
178
1
143
1.0
179
1
  8

270
1
271
1
272
1
145
1.0
146
1.0
273
1
  9

274
1
275
1
276
1
 42
1.0
 72
1
  3

 73
1
 74
1
 75
1
 94
63
  0
MATERIAL
  5
21
102
{ACAD_REACTORS
330
E
102
}
330
E
100
AcDbMaterial
  1
Global
  2

 70
0
 40
1.0
 71
1
 41
1.0
 91
-1023410177
 42
1.0
 72
1
  3

 73
1
 74
1
 75
1
 44
0.5
 73
0
 45
1.0
 46
1.0
 77
1
  4

 78
1
 79
1
170
1
 48
1.0
171
1
  6

172
1
173
1
174
1
140
1.0
141
1.0
175
1
  7

176
1
177
1
178
1
143
1.0
179
1
  8

270
1
271
1
272
1
145
1.0
146
1.0
273
1
  9

274
1
275
1
276
1
 42
1.0
 72
1
  3

 73
1
 74
1
 75
1
 94
63
  0
MLINESTYLE
  5
22
102
{ACAD_REACTORS
330
10
102
}
330
10
100
AcDbMlineStyle
  2
Standard
 70
0
  3

 62
256
 51
90.0
 52
90.0
 71
2
 49
0.5
 62
256
  6
BYLAYER
 49
-0.5
 62
256
  6
BYLAYER
  0
MLEADERSTYLE
  5
2C
102
{ACAD_REACTORS
330
F
102
}
330
F
100
AcDbMLeaderStyle
179
2
170
2
171
1
172
0
 90
2
 40
0.0
 41
0.0
173
1
 91
-1056964608
 92
-2
290
1
 42
2.0
291
1
 43
8.0
  3
Standard
 44
4.0
300

342
29
174
1
175
1
176
0
178
1
 93
-1056964608
 45
4.0
292
0
297
0
 46
4.0
 94
-1056964608
 47
1.0
 49
1.0
140
1.0
294
1
141
0.0
177
0
142
1.0
295
0
296
0
143
3.75
271
0
272
9
273
9
  0
DICTIONARY
  5
2D
330
A
100
AcDbDictionary
280
1
281
1
  3
CREATED_BY_EZDXF
350
2E
  3
WRITTEN_BY_EZDXF
350
247
  0
DICTIONARYVAR
  5
2E
330
2D
100
DictionaryVariables
280
0
  1
1.4.4 @ 2026-07-13T09:38:56.389901+00:00
  0
DICTIONARYVAR
  5
247
330
2D
100
DictionaryVariables
280
0
  1
1.4.4 @ 2026-07-13T09:38:56.419963+00:00
  0
ENDSEC
  0
EOF
