  0
SECTION
  2
HEADER
  9
$ACADVER
  1
AC1024
  9
$ACADMAINTVER
 70
6
  9
$DWGCODEPAGE
  3
ANSI_1252
  9
$LASTSAVEDBY
  1
ezdxf
  9
$INSBASE
 10
0.0
 20
0.0
 30
0.0
  9
$EXTMIN
 10
1e+20
 20
1e+20
 30
1e+20
  9
$EXTMAX
 10
-1e+20
 20
-1e+20
 30
-1e+20
  9
$LIMMIN
 10
0.0
 20
0.0
  9
$LIMMAX
 10
420.0
 20
297.0
  9
$ORTHOMODE
 70
0
  9
$REGENMODE
 70
1
  9
$FILLMODE
 70
1
  9
$QTEXTMODE
 70
0
  9
$MIRRTEXT
 70
1
  9
$LTSCALE
 40
1.0
  9
$ATTMODE
 70
1
  9
$TEXTSIZE
 40
2.5
  9
$TRACEWID
 40
1.0
  9
$TEXTSTYLE
  7
Standard
  9
$CLAYER
  8
0
  9
$CELTYPE
  6
ByLayer
  9
$CECOLOR
 62
256
  9
$CELTSCALE
 40
1.0
  9
$DISPSILH
 70
0
  9
$DIMSCALE
 40
1.0
  9
$DIMASZ
 40
2.5
  9
$DIMEXO
 40
0.625
  9
$DIMDLI
 40
3.75
  9
$DIMRND
 40
0.0
  9
$DIMDLE
 40
0.0
  9
$DIMEXE
 40
1.25
  9
$DIMTP
 40
0.0
  9
$DIMTM
 40
0.0
  9
$DIMTXT
 40
2.5
  9
$DIMCEN
 40
2.5
  9
$DIMTSZ
 40
0.0
  9
$DIMTOL
 70
0
  9
$DIMLIM
 70
0
  9
$DIMTIH
 70
0
  9
$DIMTOH
 70
0
  9
$DIMSE1
 70
0
  9
$DIMSE2
 70
0
  9
$DIMTAD
 70
1
  9
$DIMZIN
 70
8
  9
$DIMBLK
  1

  9
$DIMASO
 70
1
  9
$DIMSHO
 70
1
  9
$DIMPOST
  1

  9
$DIMAPOST
  1

  9
$DIMALT
 70
0
  9
$DIMALTD
 70
3
  9
$DIMALTF
 40
0.03937007874
  9
$DIMLFAC
 40
1.0
  9
$DIMTOFL
 70
1
  9
$DIMTVP
 40
0.0
  9
$DIMTIX
 70
0
  9
$DIMSOXD
 70
0
  9
$DIMSAH
 70
0
  9
$DIMBLK1
  1

  9
$DIMBLK2
  1

  9
$DIMSTYLE
  2
ISO-25
  9
$DIMCLRD
 70
0
  9
$DIMCLRE
 70
0
  9
$DIMCLRT
 70
0
  9
$DIMTFAC
 40
1.0
  9
$DIMGAP
 40
0.625
  9
$DIMJUST
 70
0
  9
$DIMSD1
 70
0
  9
$DIMSD2
 70
0
  9
$DIMTOLJ
 70
0
  9
$DIMTZIN
 70
8
  9
$DIMALTZ
 70
0
  9
$DIMALTTZ
 70
0
  9
$DIMUPT
 70
0
  9
$DIMDEC
 70
2
  9
$DIMTDEC
 70
2
  9
$DIMALTU
 70
2
  9
$DIMALTTD
 70
3
  9
$DIMTXSTY
  7
Standard
  9
$DIMAUNIT
 70
0
  9
$DIMADEC
 70
0
  9
$DIMALTRND
 40
0.0
  9
$DIMAZIN
 70
0
  9
$DIMDSEP
 70
44
  9
$DIMATFIT
 70
3
  9
$DIMFRAC
 70
0
  9
$DIMLDRBLK
  1

  9
$DIMLUNIT
 70
2
  9
$DIMLWD
 70
-2
  9
$DIMLWE
 70
-2
  9
$DIMTMOVE
 70
0
  9
$DIMFXL
 40
1.0
  9
$DIMFXLON
 70
0
  9
$DIMJOGANG
 40
0.785398163397
  9
$DIMTFILL
 70
0
  9
$DIMTFILLCLR
 70
0
  9
$DIMARCSYM
 70
0
  9
$DIMLTYPE
  6

  9
$DIMLTEX1
  6

  9
$DIMLTEX2
  6

  9
$DIMTXTDIRECTION
 70
0
  9
$LUNITS
 70
2
  9
$LUPREC
 70
4
  9
$SKETCHINC
 40
1.0
  9
$FILLETRAD
 40
10.0
  9
$AUNITS
 70
0
  9
$AUPREC
 70
2
  9
$MENU
  1
.
  9
$ELEVATION
 40
0.0
  9
$PELEVATION
 40
0.0
  9
$THICKNESS
 40
0.0
  9
$LIMCHECK
 70
0
  9
$CHAMFERA
 40
0.0
  9
$CHAMFERB
 40
0.0
  9
$CHAMFERC
 40
0.0
  9
$CHAMFERD
 40
0.0
  9
$SKPOLY
 70
0
  9
$TDCREATE
 40
2461235.7353703706
  9
$TDUCREATE
 40
2458532.153996898
  9
$TDUPDATE
 40
2461235.7353703706
  9
$TDUUPDATE
 40
2458532.1544311
  9
$TDINDWG
 40
0.0
  9
$TDUSRTIMER
 40
0.0
  9
$USRTIMER
 70
1
  9
$ANGBASE
 50
0.0
  9
$ANGDIR
 70
0
  9
$PDMODE
 70
0
  9
$PDSIZE
 40
0.0
  9
$PLINEWID
 40
0.0
  9
$SPLFRAME
 70
0
  9
$SPLINETYPE
 70
6
  9
$SPLINESEGS
 70
8
  9
$HANDSEED
  5
21B
  9
$SURFTAB1
 70
6
  9
$SURFTAB2
 70
6
  9
$SURFTYPE
 70
6
  9
$SURFU
 70
6
  9
$SURFV
 70
6
  9
$UCSBASE
  2

  9
$UCSNAME
  2

  9
$UCSORG
 10
0.0
 20
0.0
 30
0.0
  9
$UCSXDIR
 10
1.0
 20
0.0
 30
0.0
  9
$UCSYDIR
 10
0.0
 20
1.0
 30
0.0
  9
$UCSORTHOREF
  2

  9
$UCSORTHOVIEW
 70
0
  9
$UCSORGTOP
 10
0.0
 20
0.0
 30
0.0
  9
$UCSORGBOTTOM
 10
0.0
 20
0.0
 30
0.0
  9
$UCSORGLEFT
 10
0.0
 20
0.0
 30
0.0
  9
$UCSORGRIGHT
 10
0.0
 20
0.0
 30
0.0
  9
$UCSORGFRONT
 10
0.0
 20
0.0
 30
0.0
  9
$UCSORGBACK
 10
0.0
 20
0.0
 30
0.0
  9
$PUCSBASE
  2

  9
$PUCSNAME
  2

  9
$PUCSORG
 10
0.0
 20
0.0
 30
0.0
  9
$PUCSXDIR
 10
1.0
 20
0.0
 30
0.0
  9
$PUCSYDIR
 10
0.0
 20
1.0
 30
0.0
  9
$PUCSORTHOREF
  2

  9
$PUCSORTHOVIEW
 70
0
  9
$PUCSORGTOP
 10
0.0
 20
0.0
 30
0.0
  9
$PUCSORGBOTTOM
 10
0.0
 20
0.0
 30
0.0
  9
$PUCSORGLEFT
 10
0.0
 20
0.0
 30
0.0
  9
$PUCSORGRIGHT
 10
0.0
 20
0.0
 30
0.0
  9
$PUCSORGFRONT
 10
0.0
 20
0.0
 30
0.0
  9
$PUCSORGBACK
 10
0.0
 20
0.0
 30
0.0
  9
$USERI1
 70
0
  9
$USERI2
 70
0
  9
$USERI3
 70
0
  9
$USERI4
 70
0
  9
$USERI5
 70
0
  9
$USERR1
 40
0.0
  9
$USERR2
 40
0.0
  9
$USERR3
 40
0.0
  9
$USERR4
 40
0.0
  9
$USERR5
 40
0.0
  9
$WORLDVIEW
 70
1
  9
$SHADEDGE
 70
3
  9
$SHADEDIF
 70
70
  9
$TILEMODE
 70
1
  9
$MAXACTVP
 70
64
  9
$PINSBASE
 10
0.0
 20
0.0
 30
0.0
  9
$PLIMCHECK
 70
0
  9
$PEXTMIN
 10
1e+20
 20
1e+20
 30
1e+20
  9
$PEXTMAX
 10
-1e+20
 20
-1e+20
 30
-1e+20
  9
$PLIMMIN
 10
0.0
 20
0.0
  9
$PLIMMAX
 10
420.0
 20
297.0
  9
$UNITMODE
 70
0
  9
$VISRETAIN
 70
1
  9
$PLINEGEN
 70
0
  9
$PSLTSCALE
 70
1
  9
$TREEDEPTH
 70
3020
  9
$CMLSTYLE
  2
Standard
  9
$CMLJUST
 70
0
  9
$CMLSCALE
 40
20.0
  9
$PROXYGRAPHICS
 70
1
  9
$MEASUREMENT
 70
1
  9
$CELWEIGHT
370
-1
  9
$ENDCAPS
280
0
  9
$JOINSTYLE
280
0
  9
$LWDISPLAY
290
0
  9
$INSUNITS
 70
5
  9
$HYPERLINKBASE
  1

  9
$STYLESHEET
  1

  9
$XEDIT
290
1
  9
$CEPSNTYPE
380
0
  9
$PSTYLEMODE
290
1
  9
$FINGERPRINTGUID
  2
{4D3FB184-E2B2-41CC-9515-5624FB3C7E28}
  9
$VERSIONGUID
  2
{FCA32EC6-BC9C-4D47-A06C-947E4DB85244}
  9
$EXTNAMES
290
1
  9
$PSVPSCALE
 40
0.0
  9
$OLESTARTUP
290
0
  9
$SORTENTS
280
127
  9
$INDEXCTL
280
0
  9
$HIDETEXT
280
1
  9
$XCLIPFRAME
280
1
  9
$HALOGAP
280
0
  9
$OBSCOLOR
 70
257
  9
$OBSLTYPE
280
0
  9
$INTERSECTIONDISPLAY
280
0
  9
$INTERSECTIONCOLOR
 70
257
  9
$DIMASSOC
280
2
  9
$PROJECTNAME
  1

  9
$CAMERADISPLAY
290
0
  9
$LENSLENGTH
 40
50.0
  9
$CAMERAHEIGHT
 40
0.0
  9
$STEPSPERSEC
 40
24.0
  9
$STEPSIZE
 40
100.0
  9
$3DDWFPREC
 40
2.0
  9
$PSOLWIDTH
 40
0.005
  9
$PSOLHEIGHT
 40
0.08
  9
$LOFTANG1
 40
1.570796326795
  9
$LOFTANG2
 40
1.570796326795
  9
$LOFTMAG1
 40
0.0
  9
$LOFTMAG2
 40
0.0
  9
$LOFTPARAM
 70
7
  9
$LOFTNORMALS
280
1
  9
$LATITUDE
 40
37.795
  9
$LONGITUDE
 40
-122.394
  9
$NORTHDIRECTION
 40
0.0
  9
$TIMEZONE
 70
-8000
  9
$LIGHTGLYPHDISPLAY
280
1
  9
$TILEMODELIGHTSYNCH
280
1
  9
$CMATERIAL
347
20
  9
$SOLIDHIST
280
0
  9
$SHOWHIST
280
1
  9
$DWFFRAME
280
2
  9
$DGNFRAME
280
2
  9
$REALWORLDSCALE
290
1
  9
$INTERFERECOLOR
 62
256
  9
$CSHADOW
280
0
  9
$SHADOWPLANELOCATION
 40
0.0
  0
ENDSEC
  0
SECTION
  2
CLASSES
  0
CLASS
  1
ACDBDICTIONARYWDFLT
  2
AcDbDictionaryWithDefault
  3
ObjectDBX Classes
 90
0
 91
0
280
0
281
0
  0
CLASS
  1
SUN
  2
AcDbSun
  3
SCENEOE
 90
1153
 91
0
280
0
281
0
  0
CLASS
  1
VISUALSTYLE
  2
AcDbVisualStyle
  3
ObjectDBX Classes
 90
4095
 91
0
280
0
281
0
  0
CLASS
  1
MATERIAL
  2
AcDbMaterial
  3
ObjectDBX Classes
 90
1153
 91
0
280
0
281
0
  0
CLASS
  1
SCALE
  2
AcDbScale
  3
ObjectDBX Classes
 90
1153
 91
0
280
0
281
0
  0
CLASS
  1
TABLESTYLE
  2
AcDbTableStyle
  3
ObjectDBX Classes
 90
4095
 91
0
280
0
281
0
  0
CLASS
  1
MLEADERSTYLE
  2
AcDbMLeaderStyle
  3
ACDB_MLEADERSTYLE_CLASS
 90
4095
 91
0
280
0
281
0
  0
CLASS
  1
DICTIONARYVAR
  2
AcDbDictionaryVar
  3
ObjectDBX Classes
 90
0
 91
0
280
0
281
0
  0
CLASS
  1
CELLSTYLEMAP
  2
AcDbCellStyleMap
  3
ObjectDBX Classes
 90
1152
 91
0
280
0
281
0
  0
CLASS
  1
MENTALRAYRENDERSETTINGS
  2
AcDbMentalRayRenderSettings
  3
SCENEOE
 90
1024
 91
0
280
0
281
0
  0
CLASS
  1
ACDBDETAILVIEWSTYLE
  2
AcDbDetailViewStyle
  3
ObjectDBX Classes
 90
1025
 91
0
280
0
281
0
  0
CLASS
  1
ACDBSECTIONVIEWSTYLE
  2
AcDbSectionViewStyle
  3
ObjectDBX Classes
 90
1025
 91
0
280
0
281
0
  0
CLASS
  1
RASTERVARIABLES
  2
AcDbRasterVariables
  3
ISM
 90
0
 91
0
280
0
281
0
  0
CLASS
  1
LAYOUT
  2
AcDbLayout
  3
ObjectDBX Classes
 90
0
 91
0
280
0
281
0
  0
CLASS
  1
ACDBPLACEHOLDER
  2
AcDbPlaceHolder
  3
ObjectDBX Classes
 90
0
 91
0
280
0
281
0
  0
ENDSEC
  0
SECTION
  2
TABLES
  0
TABLE
  2
VPORT
  5
8
330
0
100
AcDbSymbolTable
 70
1
  0
VPORT
  5
23
330
8
100
AcDbSymbolTableRecord
100
AcDbViewportTableRecord
  2
*Active
 70
0
 10
0.0
 20
0.0
 11
1.0
 21
1.0
 12
0.0
 22
0.0
 13
0.0
 23
0.0
 14
0.5
 24
0.5
 15
0.5
 25
0.5
 16
0.0
 26
0.0
 36
1.0
 17
0.0
 27
0.0
 37
0.0
 40
1000.0
 41
1.34
 42
50.0
 43
0.0
 44
0.0
 50
0.0
 51
0.0
 71
0
 72
1000
 73
1
 74
3
 75
0
 76
0
 77
0
 78
0
281
0
 65
0
146
0.0
  0
ENDTAB
  0
TABLE
  2
LTYPE
  5
2
330
0
100
AcDbSymbolTable
 70
3
  0
LTYPE
  5
24
330
2
100
AcDbSymbolTableRecord
100
AcDbLinetypeTableRecord
  2
ByBlock
 70
0
  3

 72
65
 73
0
 40
0.0
  0
LTYPE
  5
25
330
2
100
AcDbSymbolTableRecord
100
AcDbLinetypeTableRecord
  2
ByLayer
 70
0
  3

 72
65
 73
0
 40
0.0
  0
LTYPE
  5
26
330
2
100
AcDbSymbolTableRecord
100
AcDbLinetypeTableRecord
  2
Continuous
 70
0
  3

 72
65
 73
0
 40
0.0
  0
ENDTAB
  0
TABLE
  2
LAYER
  5
1
330
0
100
AcDbSymbolTable
 70
5
  0
LAYER
  5
27
330
1
100
AcDbSymbolTableRecord
100
AcDbLayerTableRecord
  2
0
 70
0
 62
7
  6
Continuous
370
-3
390
13
347
21
  0
LAYER
  5
28
330
1
100
AcDbSymbolTableRecord
100
AcDbLayerTableRecord
  2
Defpoints
 70
0
 62
7
  6
Continuous
290
0
370
-3
390
13
347
21
  0
LAYER
  5
2F
330
1
100
AcDbSymbolTableRecord
100
AcDbLayerTableRecord
  2
WALL
 70
0
 62
7
  6
Continuous
370
-3
390
13
347
21
  0
LAYER
  5
30
330
1
100
AcDbSymbolTableRecord
100
AcDbLayerTableRecord
  2
WINDOW
 70
0
 62
5
  6
Continuous
370
-3
390
13
347
21
  0
LAYER
  5
1ED
330
1
100
AcDbSymbolTableRecord
100
AcDbLayerTableRecord
  2
DOORZONE
 70
0
 62
2
  6
Continuous
370
-3
390
13
347
21
  0
ENDTAB
  0
TABLE
  2
STYLE
  5
5
330
0
100
AcDbSymbolTable
 70
1
  0
STYLE
  5
29
330
5
100
AcDbSymbolTableRecord
100
AcDbTextStyleTableRecord
  2
Standard
 70
0
 40
0.0
 41
1.0
 50
0.0
 71
0
 42
2.5
  3
txt
  4

  0
ENDTAB
  0
TABLE
  2
VIEW
  5
7
330
0
100
AcDbSymbolTable
 70
0
  0
ENDTAB
  0
TABLE
  2
UCS
  5
6
330
0
100
AcDbSymbolTable
 70
0
  0
ENDTAB
  0
TABLE
  2
APPID
  5
3
330
0
100
AcDbSymbolTable
 70
3
  0
APPID
  5
2A
330
3
100
AcDbSymbolTableRecord
100
AcDbRegAppTableRecord
  2
ACAD
 70
0
  0
APPID
  5
218
330
3
100
AcDbSymbolTableRecord
100
AcDbRegAppTableRecord
  2
HATCHBACKGROUNDCOLOR
 70
0
  0
APPID
  5
219
330
3
100
AcDbSymbolTableRecord
100
AcDbRegAppTableRecord
  2
EZDXF
 70
0
  0
ENDTAB
  0
TABLE
  2
DIMSTYLE
  5
4
330
0
100
AcDbSymbolTable
 70
1
100
AcDbDimStyleTable
  0
DIMSTYLE
105
2B
330
4
100
AcDbSymbolTableRecord
100
AcDbDimStyleTableRecord
  2
Standard
 70
0
 40
1.0
 41
2.5
 42
0.625
 43
3.75
 44
1.25
 45
0.0
 46
0.0
 47
0.0
 48
0.0
 49
2.5
140
2.5
141
2.5
142
0.0
143
0.03937007874
144
1.0
145
0.0
146
1.0
147
0.625
148
0.0
 69
0
 70
0
 71
0
 72
0
 73
0
 74
0
 75
0
 76
0
 77
1
 78
8
 79
3
170
0
171
3
172
1
173
0
174
0
175
0
176
0
177
0
178
0
179
2
271
2
272
2
273
2
274
3
275
0
276
0
277
2
278
44
279
0
280
0
281
0
282
0
283
0
284
8
285
0
286
0
288
0
289
3
290
0
371
-2
372
-2
  0
ENDTAB
  0
TABLE
  2
BLOCK_RECORD
  5
9
330
0
100
AcDbSymbolTable
 70
2
  0
BLOCK_RECORD
  5
17
330
9
100
AcDbSymbolTableRecord
100
AcDbBlockTableRecord
  2
*Model_Space
340
1A
 70
0
280
1
281
0
  0
BLOCK_RECORD
  5
1B
330
9
100
AcDbSymbolTableRecord
100
AcDbBlockTableRecord
  2
*Paper_Space
340
1E
 70
0
280
1
281
0
  0
ENDTAB
  0
ENDSEC
  0
SECTION
  2
BLOCKS
  0
BLOCK
  5
18
330
17
100
AcDbEntity
  8
0
100
AcDbBlockBegin
  2
*Model_Space
 70
0
 10
0.0
 20
0.0
 30
0.0
  3
*Model_Space
  1

  0
ENDBLK
  5
19
330
17
100
AcDbEntity
  8
0
100
AcDbBlockEnd
  0
BLOCK
  5
1C
330
1B
100
AcDbEntity
  8
0
100
AcDbBlockBegin
  2
*Paper_Space
 70
0
 10
0.0
 20
0.0
 30
0.0
  3
*Paper_Space
  1

  0
ENDBLK
  5
1D
330
1B
100
AcDbEntity
  8
0
100
AcDbBlockEnd
  0
ENDSEC
  0
SECTION
  2
ENTITIES
  0
LWPOLYLINE
  5
31
330
17
100
AcDbEntity
  8
WALL
100
AcDbPolyline
 90
4
 70
1
 10
1796.25
 20
2392.5
 10
1856.25
 20
2392.5
 10
1856.25
 20
2377.5
 10
1796.25
 20
2377.5
  0
HATCH
  5
32
330
17
100
AcDbEntity
  8
WALL
100
AcDbHatch
 10
0.0
 20
0.0
 30
0.0
210
0.0
220
0.0
230
1.0
  2
SOLID
 70
1
 71
0
 91
1
 92
3
 72
0
 73
1
 93
4
 10
1796.25
 20
2392.5
 10
1856.25
 20
2392.5
 10
1856.25
 20
2377.5
 10
1796.25
 20
2377.5
 97
0
 75
1
 76
1
 98
0
  0
LWPOLYLINE
  5
33
330
17
100
AcDbEntity
  8
WALL
100
AcDbPolyline
 90
4
 70
1
 10
712.5
 20
2385.0
 10
915.0
 20
2385.0
 10
915.0
 20
2355.0
 10
712.5
 20
2355.0
  0
HATCH
  5
34
330
17
100
AcDbEntity
  8
WALL
100
AcDbHatch
 10
0.0
 20
0.0
 30
0.0
210
0.0
220
0.0
230
1.0
  2
SOLID
 70
1
 71
0
 91
1
 92
3
 72
0
 73
1
 93
4
 10
712.5
 20
2385.0
 10
915.0
 20
2385.0
 10
915.0
 20
2355.0
 10
712.5
 20
2355.0
 97
0
 75
1
 76
1
 98
0
  0
LWPOLYLINE
  5
35
330
17
100
AcDbEntity
  8
WALL
100
AcDbPolyline
 90
4
 70
1
 10
930.0
 20
2377.5
 10
1057.5
 20
2377.5
 10
1057.5
 20
2340.0
 10
930.0
 20
2340.0
  0
HATCH
  5
36
330
17
100
AcDbEntity
  8
WALL
100
AcDbHatch
 10
0.0
 20
0.0
 30
0.0
210
0.0
220
0.0
230
1.0
  2
SOLID
 70
1
 71
0
 91
1
 92
3
 72
0
 73
1
 93
4
 10
930.0
 20
2377.5
 10
1057.5
 20
2377.5
 10
1057.5
 20
2340.0
 10
930.0
 20
2340.0
 97
0
 75
1
 76
1
 98
0
  0
LWPOLYLINE
  5
37
330
17
100
AcDbEntity
  8
WALL
100
AcDbPolyline
 90
4
 70
1
 10
2126.25
 20
2377.5
 10
2182.5
 20
2377.5
 10
2182.5
 20
2355.0
 10
2126.25
 20
2355.0
  0
HATCH
  5
38
330
17
100
AcDbEntity
  8
WALL
100
AcDbHatch
 10
0.0
 20
0.0
 30
0.0
210
0.0
220
0.0
230
1.0
  2
SOLID
 70
1
 71
0
 91
1
 92
3
 72
0
 73
1
 93
4
 10
2126.25
 20
2377.5
 10
2182.5
 20
2377.5
 10
2182.5
 20
2355.0
 10
2126.25
 20
2355.0
 97
0
 75
1
 76
1
 98
0
  0
LWPOLYLINE
  5
39
330
17
100
AcDbEntity
  8
WALL
100
AcDbPolyline
 90
4
 70
1
 10
2291.25
 20
2377.5
 10
2336.25
 20
2377.5
 10
2336.25
 20
2373.75
 10
2291.25
 20
2373.75
  0
HATCH
  5
3A
330
17
100
AcDbEntity
  8
WALL
100
AcDbHatch
 10
0.0
 20
0.0
 30
0.0
210
0.0
220
0.0
230
1.0
  2
SOLID
 70
1
 71
0
 91
1
 92
3
 72
0
 73
1
 93
4
 10
2291.25
 20
2377.5
 10
2336.25
 20
2377.5
 10
2336.25
 20
2373.75
 10
2291.25
 20
2373.75
 97
0
 75
1
 76
1
 98
0
  0
LWPOLYLINE
  5
3B
330
17
100
AcDbEntity
  8
WALL
100
AcDbPolyline
 90
4
 70
1
 10
2696.25
 20
2377.5
 10
2786.25
 20
2377.5
 10
2786.25
 20
2362.5
 10
2696.25
 20
2362.5
  0
HATCH
  5
3C
330
17
100
AcDbEntity
  8
WALL
100
AcDbHatch
 10
0.0
 20
0.0
 30
0.0
210
0.0
220
0.0
230
1.0
  2
SOLID
 70
1
 71
0
 91
1
 92
3
 72
0
 73
1
 93
4
 10
2696.25
 20
2377.5
 10
2786.25
 20
2377.5
 10
2786.25
 20
2362.5
 10
2696.25
 20
2362.5
 97
0
 75
1
 76
1
 98
0
  0
LWPOLYLINE
  5
3D
330
17
100
AcDbEntity
  8
WALL
100
AcDbPolyline
 90
4
 70
1
 10
2201.25
 20
2340.0
 10
2328.75
 20
2340.0
 10
2328.75
 20
2325.0
 10
2201.25
 20
2325.0
  0
HATCH
  5
3E
330
17
100
AcDbEntity
  8
WALL
100
AcDbHatch
 10
0.0
 20
0.0
 30
0.0
210
0.0
220
0.0
230
1.0
  2
SOLID
 70
1
 71
0
 91
1
 92
3
 72
0
 73
1
 93
4
 10
2201.25
 20
2340.0
 10
2328.75
 20
2340.0
 10
2328.75
 20
2325.0
 10
2201.25
 20
2325.0
 97
0
 75
1
 76
1
 98
0
  0
LWPOLYLINE
  5
3F
330
17
100
AcDbEntity
  8
WALL
100
AcDbPolyline
 90
4
 70
1
 10
1728.75
 20
2317.5
 10
1860.0
 20
2317.5
 10
1860.0
 20
2287.5
 10
1728.75
 20
2287.5
  0
HATCH
  5
40
330
17
100
AcDbEntity
  8
WALL
100
AcDbHatch
 10
0.0
 20
0.0
 30
0.0
210
0.0
220
0.0
230
1.0
  2
SOLID
 70
1
 71
0
 91
1
 92
3
 72
0
 73
1
 93
4
 10
1728.75
 20
2317.5
 10
1860.0
 20
2317.5
 10
1860.0
 20
2287.5
 10
1728.75
 20
2287.5
 97
0
 75
1
 76
1
 98
0
  0
LWPOLYLINE
  5
41
330
17
100
AcDbEntity
  8
WALL
100
AcDbPolyline
 90
4
 70
1
 10
1736.25
 20
2212.5
 10
1841.25
 20
2212.5
 10
1841.25
 20
2190.0
 10
1736.25
 20
2190.0
  0
HATCH
  5
42
330
17
100
AcDbEntity
  8
WALL
100
AcDbHatch
 10
0.0
 20
0.0
 30
0.0
210
0.0
220
0.0
230
1.0
  2
SOLID
 70
1
 71
0
 91
1
 92
3
 72
0
 73
1
 93
4
 10
1736.25
 20
2212.5
 10
1841.25
 20
2212.5
 10
1841.25
 20
2190.0
 10
1736.25
 20
2190.0
 97
0
 75
1
 76
1
 98
0
  0
LWPOLYLINE
  5
43
330
17
100
AcDbEntity
  8
WALL
100
AcDbPolyline
 90
4
 70
1
 10
2501.25
 20
2197.5
 10
2553.75
 20
2197.5
 10
2553.75
 20
2190.0
 10
2501.25
 20
2190.0
  0
HATCH
  5
44
330
17
100
AcDbEntity
  8
WALL
100
AcDbHatch
 10
0.0
 20
0.0
 30
0.0
210
0.0
220
0.0
230
1.0
  2
SOLID
 70
1
 71
0
 91
1
 92
3
 72
0
 73
1
 93
4
 10
2501.25
 20
2197.5
 10
2553.75
 20
2197.5
 10
2553.75
 20
2190.0
 10
2501.25
 20
2190.0
 97
0
 75
1
 76
1
 98
0
  0
LWPOLYLINE
  5
45
330
17
100
AcDbEntity
  8
WALL
100
AcDbPolyline
 90
4
 70
1
 10
330.0
 20
2190.0
 10
405.0
 20
2190.0
 10
405.0
 20
2175.0
 10
330.0
 20
2175.0
  0
HATCH
  5
46
330
17
100
AcDbEntity
  8
WALL
100
AcDbHatch
 10
0.0
 20
0.0
 30
0.0
210
0.0
220
0.0
230
1.0
  2
SOLID
 70
1
 71
0
 91
1
 92
3
 72
0
 73
1
 93
4
 10
330.0
 20
2190.0
 10
405.0
 20
2190.0
 10
405.0
 20
2175.0
 10
330.0
 20
2175.0
 97
0
 75
1
 76
1
 98
0
  0
LWPOLYLINE
  5
47
330
17
100
AcDbEntity
  8
WALL
100
AcDbPolyline
 90
4
 70
1
 10
588.75
 20
2182.5
 10
641.25
 20
2182.5
 10
641.25
 20
2175.0
 10
588.75
 20
2175.0
  0
HATCH
  5
48
330
17
100
AcDbEntity
  8
WALL
100
AcDbHatch
 10
0.0
 20
0.0
 30
0.0
210
0.0
220
0.0
230
1.0
  2
SOLID
 70
1
 71
0
 91
1
 92
3
 72
0
 73
1
 93
4
 10
588.75
 20
2182.5
 10
641.25
 20
2182.5
 10
641.25
 20
2175.0
 10
588.75
 20
2175.0
 97
0
 75
1
 76
1
 98
0
  0
LWPOLYLINE
  5
49
330
17
100
AcDbEntity
  8
WALL
100
AcDbPolyline
 90
4
 70
1
 10
2523.75
 20
2175.0
 10
2587.5
 20
2175.0
 10
2587.5
 20
2152.5
 10
2523.75
 20
2152.5
  0
HATCH
  5
4A
330
17
100
AcDbEntity
  8
WALL
100
AcDbHatch
 10
0.0
 20
0.0
 30
0.0
210
0.0
220
0.0
230
1.0
  2
SOLID
 70
1
 71
0
 91
1
 92
3
 72
0
 73
1
 93
4
 10
2523.75
 20
2175.0
 10
2587.5
 20
2175.0
 10
2587.5
 20
2152.5
 10
2523.75
 20
2152.5
 97
0
 75
1
 76
1
 98
0
  0
LWPOLYLINE
  5
4B
330
17
100
AcDbEntity
  8
WALL
100
AcDbPolyline
 90
4
 70
1
 10
765.0
 20
2167.5
 10
840.0
 20
2167.5
 10
840.0
 20
2137.5
 10
765.0
 20
2137.5
  0
HATCH
  5
4C
330
17
100
AcDbEntity
  8
WALL
100
AcDbHatch
 10
0.0
 20
0.0
 30
0.0
210
0.0
220
0.0
230
1.0
  2
SOLID
 70
1
 71
0
 91
1
 92
3
 72
0
 73
1
 93
4
 10
765.0
 20
2167.5
 10
840.0
 20
2167.5
 10
840.0
 20
2137.5
 10
765.0
 20
2137.5
 97
0
 75
1
 76
1
 98
0
  0
LWPOLYLINE
  5
4D
330
17
100
AcDbEntity
  8
WALL
100
AcDbPolyline
 90
4
 70
1
 10
847.5
 20
2167.5
 10
911.25
 20
2167.5
 10
911.25
 20
2137.5
 10
847.5
 20
2137.5
  0
HATCH
  5
4E
330
17
100
AcDbEntity
  8
WALL
100
AcDbHatch
 10
0.0
 20
0.0
 30
0.0
210
0.0
220
0.0
230
1.0
  2
SOLID
 70
1
 71
0
 91
1
 92
3
 72
0
 73
1
 93
4
 10
847.5
 20
2167.5
 10
911.25
 20
2167.5
 10
911.25
 20
2137.5
 10
847.5
 20
2137.5
 97
0
 75
1
 76
1
 98
0
  0
LWPOLYLINE
  5
4F
330
17
100
AcDbEntity
  8
WALL
100
AcDbPolyline
 90
4
 70
1
 10
1518.75
 20
2167.5
 10
2088.75
 20
2167.5
 10
2088.75
 20
2130.0
 10
1518.75
 20
2130.0
  0
HATCH
  5
50
330
17
100
AcDbEntity
  8
WALL
100
AcDbHatch
 10
0.0
 20
0.0
 30
0.0
210
0.0
220
0.0
230
1.0
  2
SOLID
 70
1
 71
0
 91
1
 92
3
 72
0
 73
1
 93
4
 10
1518.75
 20
2167.5
 10
2088.75
 20
2167.5
 10
2088.75
 20
2130.0
 10
1518.75
 20
2130.0
 97
0
 75
1
 76
1
 98
0
  0
LWPOLYLINE
  5
51
330
17
100
AcDbEntity
  8
WALL
100
AcDbPolyline
 90
4
 70
1
 10
645.0
 20
2160.0
 10
697.5
 20
2160.0
 10
697.5
 20
2152.5
 10
645.0
 20
2152.5
  0
HATCH
  5
52
330
17
100
AcDbEntity
  8
WALL
100
AcDbHatch
 10
0.0
 20
0.0
 30
0.0
210
0.0
220
0.0
230
1.0
  2
SOLID
 70
1
 71
0
 91
1
 92
3
 72
0
 73
1
 93
4
 10
645.0
 20
2160.0
 10
697.5
 20
2160.0
 10
697.5
 20
2152.5
 10
645.0
 20
2152.5
 97
0
 75
1
 76
1
 98
0
  0
LWPOLYLINE
  5
53
330
17
100
AcDbEntity
  8
WALL
100
AcDbPolyline
 90
4
 70
1
 10
461.25
 20
2107.5
 10
540.0
 20
2107.5
 10
540.0
 20
2100.0
 10
461.25
 20
2100.0
  0
HATCH
  5
54
330
17
100
AcDbEntity
  8
WALL
100
AcDbHatch
 10
0.0
 20
0.0
 30
0.0
210
0.0
220
0.0
230
1.0
  2
SOLID
 70
1
 71
0
 91
1
 92
3
 72
0
 73
1
 93
4
 10
461.25
 20
2107.5
 10
540.0
 20
2107.5
 10
540.0
 20
2100.0
 10
461.25
 20
2100.0
 97
0
 75
1
 76
1
 98
0
  0
LWPOLYLINE
  5
55
330
17
100
AcDbEntity
  8
WALL
100
AcDbPolyline
 90
4
 70
1
 10
468.75
 20
2066.25
 10
521.25
 20
2066.25
 10
521.25
 20
2062.5
 10
468.75
 20
2062.5
  0
HATCH
  5
56
330
17
100
AcDbEntity
  8
WALL
100
AcDbHatch
 10
0.0
 20
0.0
 30
0.0
210
0.0
220
0.0
230
1.0
  2
SOLID
 70
1
 71
0
 91
1
 92
3
 72
0
 73
1
 93
4
 10
468.75
 20
2066.25
 10
521.25
 20
2066.25
 10
521.25
 20
2062.5
 10
468.75
 20
2062.5
 97
0
 75
1
 76
1
 98
0
  0
LWPOLYLINE
  5
57
330
17
100
AcDbEntity
  8
WALL
100
AcDbPolyline
 90
4
 70
1
 10
1721.25
 20
2055.0
 10
1901.25
 20
2055.0
 10
1901.25
 20
2032.5
 10
1721.25
 20
2032.5
  0
HATCH
  5
58
330
17
100
AcDbEntity
  8
WALL
100
AcDbHatch
 10
0.0
 20
0.0
 30
0.0
210
0.0
220
0.0
230
1.0
  2
SOLID
 70
1
 71
0
 91
1
 92
3
 72
0
 73
1
 93
4
 10
1721.25
 20
2055.0
 10
1901.25
 20
2055.0
 10
1901.25
 20
2032.5
 10
1721.25
 20
2032.5
 97
0
 75
1
 76
1
 98
0
  0
LWPOLYLINE
  5
59
330
17
100
AcDbEntity
  8
WALL
100
AcDbPolyline
 90
4
 70
1
 10
461.25
 20
2036.25
 10
547.5
 20
2036.25
 10
547.5
 20
2032.5
 10
461.25
 20
2032.5
  0
HATCH
  5
5A
330
17
100
AcDbEntity
  8
WALL
100
AcDbHatch
 10
0.0
 20
0.0
 30
0.0
210
0.0
220
0.0
230
1.0
  2
SOLID
 70
1
 71
0
 91
1
 92
3
 72
0
 73
1
 93
4
 10
461.25
 20
2036.25
 10
547.5
 20
2036.25
 10
547.5
 20
2032.5
 10
461.25
 20
2032.5
 97
0
 75
1
 76
1
 98
0
  0
LWPOLYLINE
  5
5B
330
17
100
AcDbEntity
  8
WALL
100
AcDbPolyline
 90
4
 70
1
 10
468.75
 20
1987.5
 10
558.75
 20
1987.5
 10
558.75
 20
1980.0
 10
468.75
 20
1980.0
  0
HATCH
  5
5C
330
17
100
AcDbEntity
  8
WALL
100
AcDbHatch
 10
0.0
 20
0.0
 30
0.0
210
0.0
220
0.0
230
1.0
  2
SOLID
 70
1
 71
0
 91
1
 92
3
 72
0
 73
1
 93
4
 10
468.75
 20
1987.5
 10
558.75
 20
1987.5
 10
558.75
 20
1980.0
 10
468.75
 20
1980.0
 97
0
 75
1
 76
1
 98
0
  0
LWPOLYLINE
  5
5D
330
17
100
AcDbEntity
  8
WALL
100
AcDbPolyline
 90
4
 70
1
 10
461.25
 20
1957.5
 10
558.75
 20
1957.5
 10
558.75
 20
1923.75
 10
461.25
 20
1923.75
  0
HATCH
  5
5E
330
17
100
AcDbEntity
  8
WALL
100
AcDbHatch
 10
0.0
 20
0.0
 30
0.0
210
0.0
220
0.0
230
1.0
  2
SOLID
 70
1
 71
0
 91
1
 92
3
 72
0
 73
1
 93
4
 10
461.25
 20
1957.5
 10
558.75
 20
1957.5
 10
558.75
 20
1923.75
 10
461.25
 20
1923.75
 97
0
 75
1
 76
1
 98
0
  0
LWPOLYLINE
  5
5F
330
17
100
AcDbEntity
  8
WALL
100
AcDbPolyline
 90
4
 70
1
 10
2306.25
 20
1908.75
 10
2351.25
 20
1908.75
 10
2351.25
 20
1905.0
 10
2306.25
 20
1905.0
  0
HATCH
  5
60
330
17
100
AcDbEntity
  8
WALL
100
AcDbHatch
 10
0.0
 20
0.0
 30
0.0
210
0.0
220
0.0
230
1.0
  2
SOLID
 70
1
 71
0
 91
1
 92
3
 72
0
 73
1
 93
4
 10
2306.25
 20
1908.75
 10
2351.25
 20
1908.75
 10
2351.25
 20
1905.0
 10
2306.25
 20
1905.0
 97
0
 75
1
 76
1
 98
0
  0
LWPOLYLINE
  5
61
330
17
100
AcDbEntity
  8
WALL
100
AcDbPolyline
 90
4
 70
1
 10
2400.0
 20
1912.5
 10
2587.5
 20
1912.5
 10
2587.5
 20
1897.5
 10
2400.0
 20
1897.5
  0
HATCH
  5
62
330
17
100
AcDbEntity
  8
WALL
100
AcDbHatch
 10
0.0
 20
0.0
 30
0.0
210
0.0
220
0.0
230
1.0
  2
SOLID
 70
1
 71
0
 91
1
 92
3
 72
0
 73
1
 93
4
 10
2400.0
 20
1912.5
 10
2587.5
 20
1912.5
 10
2587.5
 20
1897.5
 10
2400.0
 20
1897.5
 97
0
 75
1
 76
1
 98
0
  0
LWPOLYLINE
  5
63
330
17
100
AcDbEntity
  8
WALL
100
AcDbPolyline
 90
4
 70
1
 10
363.75
 20
1901.25
 10
446.25
 20
1901.25
 10
446.25
 20
1897.5
 10
363.75
 20
1897.5
  0
HATCH
  5
64
330
17
100
AcDbEntity
  8
WALL
100
AcDbHatch
 10
0.0
 20
0.0
 30
0.0
210
0.0
220
0.0
230
1.0
  2
SOLID
 70
1
 71
0
 91
1
 92
3
 72
0
 73
1
 93
4
 10
363.75
 20
1901.25
 10
446.25
 20
1901.25
 10
446.25
 20
1897.5
 10
363.75
 20
1897.5
 97
0
 75
1
 76
1
 98
0
  0
LWPOLYLINE
  5
65
330
17
100
AcDbEntity
  8
WALL
100
AcDbPolyline
 90
4
 70
1
 10
461.25
 20
1897.5
 10
558.75
 20
1897.5
 10
558.75
 20
1875.0
 10
461.25
 20
1875.0
  0
HATCH
  5
66
330
17
100
AcDbEntity
  8
WALL
100
AcDbHatch
 10
0.0
 20
0.0
 30
0.0
210
0.0
220
0.0
230
1.0
  2
SOLID
 70
1
 71
0
 91
1
 92
3
 72
0
 73
1
 93
4
 10
461.25
 20
1897.5
 10
558.75
 20
1897.5
 10
558.75
 20
1875.0
 10
461.25
 20
1875.0
 97
0
 75
1
 76
1
 98
0
  0
LWPOLYLINE
  5
67
330
17
100
AcDbEntity
  8
WALL
100
AcDbPolyline
 90
4
 70
1
 10
2306.25
 20
1882.5
 10
2366.25
 20
1882.5
 10
2366.25
 20
1867.5
 10
2306.25
 20
1867.5
  0
HATCH
  5
68
330
17
100
AcDbEntity
  8
WALL
100
AcDbHatch
 10
0.0
 20
0.0
 30
0.0
210
0.0
220
0.0
230
1.0
  2
SOLID
 70
1
 71
0
 91
1
 92
3
 72
0
 73
1
 93
4
 10
2306.25
 20
1882.5
 10
2366.25
 20
1882.5
 10
2366.25
 20
1867.5
 10
2306.25
 20
1867.5
 97
0
 75
1
 76
1
 98
0
  0
LWPOLYLINE
  5
69
330
17
100
AcDbEntity
  8
WALL
100
AcDbPolyline
 90
4
 70
1
 10
468.75
 20
1841.25
 10
551.25
 20
1841.25
 10
551.25
 20
1837.5
 10
468.75
 20
1837.5
  0
HATCH
  5
6A
330
17
100
AcDbEntity
  8
WALL
100
AcDbHatch
 10
0.0
 20
0.0
 30
0.0
210
0.0
220
0.0
230
1.0
  2
SOLID
 70
1
 71
0
 91
1
 92
3
 72
0
 73
1
 93
4
 10
468.75
 20
1841.25
 10
551.25
 20
1841.25
 10
551.25
 20
1837.5
 10
468.75
 20
1837.5
 97
0
 75
1
 76
1
 98
0
  0
LWPOLYLINE
  5
6B
330
17
100
AcDbEntity
  8
WALL
100
AcDbPolyline
 90
4
 70
1
 10
461.25
 20
1822.5
 10
558.75
 20
1822.5
 10
558.75
 20
1807.5
 10
461.25
 20
1807.5
  0
HATCH
  5
6C
330
17
100
AcDbEntity
  8
WALL
100
AcDbHatch
 10
0.0
 20
0.0
 30
0.0
210
0.0
220
0.0
230
1.0
  2
SOLID
 70
1
 71
0
 91
1
 92
3
 72
0
 73
1
 93
4
 10
461.25
 20
1822.5
 10
558.75
 20
1822.5
 10
558.75
 20
1807.5
 10
461.25
 20
1807.5
 97
0
 75
1
 76
1
 98
0
  0
LWPOLYLINE
  5
6D
330
17
100
AcDbEntity
  8
WALL
100
AcDbPolyline
 90
4
 70
1
 10
401.25
 20
1796.25
 10
446.25
 20
1796.25
 10
446.25
 20
1788.75
 10
401.25
 20
1788.75
  0
HATCH
  5
6E
330
17
100
AcDbEntity
  8
WALL
100
AcDbHatch
 10
0.0
 20
0.0
 30
0.0
210
0.0
220
0.0
230
1.0
  2
SOLID
 70
1
 71
0
 91
1
 92
3
 72
0
 73
1
 93
4
 10
401.25
 20
1796.25
 10
446.25
 20
1796.25
 10
446.25
 20
1788.75
 10
401.25
 20
1788.75
 97
0
 75
1
 76
1
 98
0
  0
LWPOLYLINE
  5
6F
330
17
100
AcDbEntity
  8
WALL
100
AcDbPolyline
 90
4
 70
1
 10
401.25
 20
1766.25
 10
446.25
 20
1766.25
 10
446.25
 20
1762.5
 10
401.25
 20
1762.5
  0
HATCH
  5
70
330
17
100
AcDbEntity
  8
WALL
100
AcDbHatch
 10
0.0
 20
0.0
 30
0.0
210
0.0
220
0.0
230
1.0
  2
SOLID
 70
1
 71
0
 91
1
 92
3
 72
0
 73
1
 93
4
 10
401.25
 20
1766.25
 10
446.25
 20
1766.25
 10
446.25
 20
1762.5
 10
401.25
 20
1762.5
 97
0
 75
1
 76
1
 98
0
  0
LWPOLYLINE
  5
71
330
17
100
AcDbEntity
  8
WALL
100
AcDbPolyline
 90
4
 70
1
 10
2366.25
 20
1758.75
 10
2651.25
 20
1758.75
 10
2651.25
 20
1740.0
 10
2366.25
 20
1740.0
  0
HATCH
  5
72
330
17
100
AcDbEntity
  8
WALL
100
AcDbHatch
 10
0.0
 20
0.0
 30
0.0
210
0.0
220
0.0
230
1.0
  2
SOLID
 70
1
 71
0
 91
1
 92
3
 72
0
 73
1
 93
4
 10
2366.25
 20
1758.75
 10
2651.25
 20
1758.75
 10
2651.25
 20
1740.0
 10
2366.25
 20
1740.0
 97
0
 75
1
 76
1
 98
0
  0
LWPOLYLINE
  5
73
330
17
100
AcDbEntity
  8
WALL
100
AcDbPolyline
 90
4
 70
1
 10
378.75
 20
1717.5
 10
423.75
 20
1717.5
 10
423.75
 20
1713.75
 10
378.75
 20
1713.75
  0
HATCH
  5
74
330
17
100
AcDbEntity
  8
WALL
100
AcDbHatch
 10
0.0
 20
0.0
 30
0.0
210
0.0
220
0.0
230
1.0
  2
SOLID
 70
1
 71
0
 91
1
 92
3
 72
0
 73
1
 93
4
 10
378.75
 20
1717.5
 10
423.75
 20
1717.5
 10
423.75
 20
1713.75
 10
378.75
 20
1713.75
 97
0
 75
1
 76
1
 98
0
  0
LWPOLYLINE
  5
75
330
17
100
AcDbEntity
  8
WALL
100
AcDbPolyline
 90
4
 70
1
 10
2415.0
 20
1687.5
 10
2497.5
 20
1687.5
 10
2497.5
 20
1676.25
 10
2415.0
 20
1676.25
  0
HATCH
  5
76
330
17
100
AcDbEntity
  8
WALL
100
AcDbHatch
 10
0.0
 20
0.0
 30
0.0
210
0.0
220
0.0
230
1.0
  2
SOLID
 70
1
 71
0
 91
1
 92
3
 72
0
 73
1
 93
4
 10
2415.0
 20
1687.5
 10
2497.5
 20
1687.5
 10
2497.5
 20
1676.25
 10
2415.0
 20
1676.25
 97
0
 75
1
 76
1
 98
0
  0
LWPOLYLINE
  5
77
330
17
100
AcDbEntity
  8
WALL
100
AcDbPolyline
 90
4
 70
1
 10
483.75
 20
1680.0
 10
555.0
 20
1680.0
 10
555.0
 20
1672.5
 10
483.75
 20
1672.5
  0
HATCH
  5
78
330
17
100
AcDbEntity
  8
WALL
100
AcDbHatch
 10
0.0
 20
0.0
 30
0.0
210
0.0
220
0.0
230
1.0
  2
SOLID
 70
1
 71
0
 91
1
 92
3
 72
0
 73
1
 93
4
 10
483.75
 20
1680.0
 10
555.0
 20
1680.0
 10
555.0
 20
1672.5
 10
483.75
 20
1672.5
 97
0
 75
1
 76
1
 98
0
  0
LWPOLYLINE
  5
79
330
17
100
AcDbEntity
  8
WALL
100
AcDbPolyline
 90
4
 70
1
 10
2276.25
 20
1680.0
 10
2358.75
 20
1680.0
 10
2358.75
 20
1665.0
 10
2276.25
 20
1665.0
  0
HATCH
  5
7A
330
17
100
AcDbEntity
  8
WALL
100
AcDbHatch
 10
0.0
 20
0.0
 30
0.0
210
0.0
220
0.0
230
1.0
  2
SOLID
 70
1
 71
0
 91
1
 92
3
 72
0
 73
1
 93
4
 10
2276.25
 20
1680.0
 10
2358.75
 20
1680.0
 10
2358.75
 20
1665.0
 10
2276.25
 20
1665.0
 97
0
 75
1
 76
1
 98
0
  0
LWPOLYLINE
  5
7B
330
17
100
AcDbEntity
  8
WALL
100
AcDbPolyline
 90
4
 70
1
 10
2505.0
 20
1680.0
 10
2576.25
 20
1680.0
 10
2576.25
 20
1676.25
 10
2505.0
 20
1676.25
  0
HATCH
  5
7C
330
17
100
AcDbEntity
  8
WALL
100
AcDbHatch
 10
0.0
 20
0.0
 30
0.0
210
0.0
220
0.0
230
1.0
  2
SOLID
 70
1
 71
0
 91
1
 92
3
 72
0
 73
1
 93
4
 10
2505.0
 20
1680.0
 10
2576.25
 20
1680.0
 10
2576.25
 20
1676.25
 10
2505.0
 20
1676.25
 97
0
 75
1
 76
1
 98
0
  0
LWPOLYLINE
  5
7D
330
17
100
AcDbEntity
  8
WALL
100
AcDbPolyline
 90
4
 70
1
 10
498.75
 20
1665.0
 10
558.75
 20
1665.0
 10
558.75
 20
1657.5
 10
498.75
 20
1657.5
  0
HATCH
  5
7E
330
17
100
AcDbEntity
  8
WALL
100
AcDbHatch
 10
0.0
 20
0.0
 30
0.0
210
0.0
220
0.0
230
1.0
  2
SOLID
 70
1
 71
0
 91
1
 92
3
 72
0
 73
1
 93
4
 10
498.75
 20
1665.0
 10
558.75
 20
1665.0
 10
558.75
 20
1657.5
 10
498.75
 20
1657.5
 97
0
 75
1
 76
1
 98
0
  0
LWPOLYLINE
  5
7F
330
17
100
AcDbEntity
  8
WALL
100
AcDbPolyline
 90
4
 70
1
 10
2310.0
 20
1657.5
 10
2366.25
 20
1657.5
 10
2366.25
 20
1642.5
 10
2310.0
 20
1642.5
  0
HATCH
  5
80
330
17
100
AcDbEntity
  8
WALL
100
AcDbHatch
 10
0.0
 20
0.0
 30
0.0
210
0.0
220
0.0
230
1.0
  2
SOLID
 70
1
 71
0
 91
1
 92
3
 72
0
 73
1
 93
4
 10
2310.0
 20
1657.5
 10
2366.25
 20
1657.5
 10
2366.25
 20
1642.5
 10
2310.0
 20
1642.5
 97
0
 75
1
 76
1
 98
0
  0
LWPOLYLINE
  5
81
330
17
100
AcDbEntity
  8
WALL
100
AcDbPolyline
 90
4
 70
1
 10
461.25
 20
1650.0
 10
558.75
 20
1650.0
 10
558.75
 20
1635.0
 10
461.25
 20
1635.0
  0
HATCH
  5
82
330
17
100
AcDbEntity
  8
WALL
100
AcDbHatch
 10
0.0
 20
0.0
 30
0.0
210
0.0
220
0.0
230
1.0
  2
SOLID
 70
1
 71
0
 91
1
 92
3
 72
0
 73
1
 93
4
 10
461.25
 20
1650.0
 10
558.75
 20
1650.0
 10
558.75
 20
1635.0
 10
461.25
 20
1635.0
 97
0
 75
1
 76
1
 98
0
  0
LWPOLYLINE
  5
83
330
17
100
AcDbEntity
  8
WALL
100
AcDbPolyline
 90
4
 70
1
 10
2313.75
 20
1627.5
 10
2366.25
 20
1627.5
 10
2366.25
 20
1612.5
 10
2313.75
 20
1612.5
  0
HATCH
  5
84
330
17
100
AcDbEntity
  8
WALL
100
AcDbHatch
 10
0.0
 20
0.0
 30
0.0
210
0.0
220
0.0
230
1.0
  2
SOLID
 70
1
 71
0
 91
1
 92
3
 72
0
 73
1
 93
4
 10
2313.75
 20
1627.5
 10
2366.25
 20
1627.5
 10
2366.25
 20
1612.5
 10
2313.75
 20
1612.5
 97
0
 75
1
 76
1
 98
0
  0
LWPOLYLINE
  5
85
330
17
100
AcDbEntity
  8
WALL
100
AcDbPolyline
 90
4
 70
1
 10
513.75
 20
1612.5
 10
558.75
 20
1612.5
 10
558.75
 20
1608.75
 10
513.75
 20
1608.75
  0
HATCH
  5
86
330
17
100
AcDbEntity
  8
WALL
100
AcDbHatch
 10
0.0
 20
0.0
 30
0.0
210
0.0
220
0.0
230
1.0
  2
SOLID
 70
1
 71
0
 91
1
 92
3
 72
0
 73
1
 93
4
 10
513.75
 20
1612.5
 10
558.75
 20
1612.5
 10
558.75
 20
1608.75
 10
513.75
 20
1608.75
 97
0
 75
1
 76
1
 98
0
  0
LWPOLYLINE
  5
87
330
17
100
AcDbEntity
  8
WALL
100
AcDbPolyline
 90
4
 70
1
 10
2306.25
 20
1597.5
 10
2366.25
 20
1597.5
 10
2366.25
 20
1575.0
 10
2306.25
 20
1575.0
  0
HATCH
  5
88
330
17
100
AcDbEntity
  8
WALL
100
AcDbHatch
 10
0.0
 20
0.0
 30
0.0
210
0.0
220
0.0
230
1.0
  2
SOLID
 70
1
 71
0
 91
1
 92
3
 72
0
 73
1
 93
4
 10
2306.25
 20
1597.5
 10
2366.25
 20
1597.5
 10
2366.25
 20
1575.0
 10
2306.25
 20
1575.0
 97
0
 75
1
 76
1
 98
0
  0
LWPOLYLINE
  5
89
330
17
100
AcDbEntity
  8
WALL
100
AcDbPolyline
 90
4
 70
1
 10
918.75
 20
1582.5
 10
1012.5
 20
1582.5
 10
1012.5
 20
1567.5
 10
918.75
 20
1567.5
  0
HATCH
  5
8A
330
17
100
AcDbEntity
  8
WALL
100
AcDbHatch
 10
0.0
 20
0.0
 30
0.0
210
0.0
220
0.0
230
1.0
  2
SOLID
 70
1
 71
0
 91
1
 92
3
 72
0
 73
1
 93
4
 10
918.75
 20
1582.5
 10
1012.5
 20
1582.5
 10
1012.5
 20
1567.5
 10
918.75
 20
1567.5
 97
0
 75
1
 76
1
 98
0
  0
LWPOLYLINE
  5
8B
330
17
100
AcDbEntity
  8
WALL
100
AcDbPolyline
 90
4
 70
1
 10
1042.5
 20
1582.5
 10
1518.75
 20
1582.5
 10
1518.75
 20
1567.5
 10
1042.5
 20
1567.5
  0
HATCH
  5
8C
330
17
100
AcDbEntity
  8
WALL
100
AcDbHatch
 10
0.0
 20
0.0
 30
0.0
210
0.0
220
0.0
230
1.0
  2
SOLID
 70
1
 71
0
 91
1
 92
3
 72
0
 73
1
 93
4
 10
1042.5
 20
1582.5
 10
1518.75
 20
1582.5
 10
1518.75
 20
1567.5
 10
1042.5
 20
1567.5
 97
0
 75
1
 76
1
 98
0
  0
LWPOLYLINE
  5
8D
330
17
100
AcDbEntity
  8
WALL
100
AcDbPolyline
 90
4
 70
1
 10
573.75
 20
1556.25
 10
641.25
 20
1556.25
 10
641.25
 20
1552.5
 10
573.75
 20
1552.5
  0
HATCH
  5
8E
330
17
100
AcDbEntity
  8
WALL
100
AcDbHatch
 10
0.0
 20
0.0
 30
0.0
210
0.0
220
0.0
230
1.0
  2
SOLID
 70
1
 71
0
 91
1
 92
3
 72
0
 73
1
 93
4
 10
573.75
 20
1556.25
 10
641.25
 20
1556.25
 10
641.25
 20
1552.5
 10
573.75
 20
1552.5
 97
0
 75
1
 76
1
 98
0
  0
LWPOLYLINE
  5
8F
330
17
100
AcDbEntity
  8
WALL
100
AcDbPolyline
 90
4
 70
1
 10
2276.25
 20
1552.5
 10
2328.75
 20
1552.5
 10
2328.75
 20
1548.75
 10
2276.25
 20
1548.75
  0
HATCH
  5
90
330
17
100
AcDbEntity
  8
WALL
100
AcDbHatch
 10
0.0
 20
0.0
 30
0.0
210
0.0
220
0.0
230
1.0
  2
SOLID
 70
1
 71
0
 91
1
 92
3
 72
0
 73
1
 93
4
 10
2276.25
 20
1552.5
 10
2328.75
 20
1552.5
 10
2328.75
 20
1548.75
 10
2276.25
 20
1548.75
 97
0
 75
1
 76
1
 98
0
  0
LWPOLYLINE
  5
91
330
17
100
AcDbEntity
  8
WALL
100
AcDbPolyline
 90
4
 70
1
 10
2242.5
 20
1395.0
 10
2321.25
 20
1395.0
 10
2321.25
 20
1372.5
 10
2242.5
 20
1372.5
  0
HATCH
  5
92
330
17
100
AcDbEntity
  8
WALL
100
AcDbHatch
 10
0.0
 20
0.0
 30
0.0
210
0.0
220
0.0
230
1.0
  2
SOLID
 70
1
 71
0
 91
1
 92
3
 72
0
 73
1
 93
4
 10
2242.5
 20
1395.0
 10
2321.25
 20
1395.0
 10
2321.25
 20
1372.5
 10
2242.5
 20
1372.5
 97
0
 75
1
 76
1
 98
0
  0
LWPOLYLINE
  5
93
330
17
100
AcDbEntity
  8
WALL
100
AcDbPolyline
 90
4
 70
1
 10
2475.0
 20
1376.25
 10
2565.0
 20
1376.25
 10
2565.0
 20
1372.5
 10
2475.0
 20
1372.5
  0
HATCH
  5
94
330
17
100
AcDbEntity
  8
WALL
100
AcDbHatch
 10
0.0
 20
0.0
 30
0.0
210
0.0
220
0.0
230
1.0
  2
SOLID
 70
1
 71
0
 91
1
 92
3
 72
0
 73
1
 93
4
 10
2475.0
 20
1376.25
 10
2565.0
 20
1376.25
 10
2565.0
 20
1372.5
 10
2475.0
 20
1372.5
 97
0
 75
1
 76
1
 98
0
  0
LWPOLYLINE
  5
95
330
17
100
AcDbEntity
  8
WALL
100
AcDbPolyline
 90
4
 70
1
 10
2576.25
 20
1376.25
 10
2628.75
 20
1376.25
 10
2628.75
 20
1372.5
 10
2576.25
 20
1372.5
  0
HATCH
  5
96
330
17
100
AcDbEntity
  8
WALL
100
AcDbHatch
 10
0.0
 20
0.0
 30
0.0
210
0.0
220
0.0
230
1.0
  2
SOLID
 70
1
 71
0
 91
1
 92
3
 72
0
 73
1
 93
4
 10
2576.25
 20
1376.25
 10
2628.75
 20
1376.25
 10
2628.75
 20
1372.5
 10
2576.25
 20
1372.5
 97
0
 75
1
 76
1
 98
0
  0
LWPOLYLINE
  5
97
330
17
100
AcDbEntity
  8
WALL
100
AcDbPolyline
 90
4
 70
1
 10
101.25
 20
1372.5
 10
168.75
 20
1372.5
 10
168.75
 20
1350.0
 10
101.25
 20
1350.0
  0
HATCH
  5
98
330
17
100
AcDbEntity
  8
WALL
100
AcDbHatch
 10
0.0
 20
0.0
 30
0.0
210
0.0
220
0.0
230
1.0
  2
SOLID
 70
1
 71
0
 91
1
 92
3
 72
0
 73
1
 93
4
 10
101.25
 20
1372.5
 10
168.75
 20
1372.5
 10
168.75
 20
1350.0
 10
101.25
 20
1350.0
 97
0
 75
1
 76
1
 98
0
  0
LWPOLYLINE
  5
99
330
17
100
AcDbEntity
  8
WALL
100
AcDbPolyline
 90
4
 70
1
 10
2943.75
 20
1372.5
 10
2988.75
 20
1372.5
 10
2988.75
 20
1353.75
 10
2943.75
 20
1353.75
  0
HATCH
  5
9A
330
17
100
AcDbEntity
  8
WALL
100
AcDbHatch
 10
0.0
 20
0.0
 30
0.0
210
0.0
220
0.0
230
1.0
  2
SOLID
 70
1
 71
0
 91
1
 92
3
 72
0
 73
1
 93
4
 10
2943.75
 20
1372.5
 10
2988.75
 20
1372.5
 10
2988.75
 20
1353.75
 10
2943.75
 20
1353.75
 97
0
 75
1
 76
1
 98
0
  0
LWPOLYLINE
  5
9B
330
17
100
AcDbEntity
  8
WALL
100
AcDbPolyline
 90
4
 70
1
 10
1087.5
 20
1365.0
 10
1166.25
 20
1365.0
 10
1166.25
 20
1350.0
 10
1087.5
 20
1350.0
  0
HATCH
  5
9C
330
17
100
AcDbEntity
  8
WALL
100
AcDbHatch
 10
0.0
 20
0.0
 30
0.0
210
0.0
220
0.0
230
1.0
  2
SOLID
 70
1
 71
0
 91
1
 92
3
 72
0
 73
1
 93
4
 10
1087.5
 20
1365.0
 10
1166.25
 20
1365.0
 10
1166.25
 20
1350.0
 10
1087.5
 20
1350.0
 97
0
 75
1
 76
1
 98
0
  0
LWPOLYLINE
  5
9D
330
17
100
AcDbEntity
  8
WALL
100
AcDbPolyline
 90
4
 70
1
 10
1252.5
 20
1365.0
 10
1342.5
 20
1365.0
 10
1342.5
 20
1350.0
 10
1252.5
 20
1350.0
  0
HATCH
  5
9E
330
17
100
AcDbEntity
  8
WALL
100
AcDbHatch
 10
0.0
 20
0.0
 30
0.0
210
0.0
220
0.0
230
1.0
  2
SOLID
 70
1
 71
0
 91
1
 92
3
 72
0
 73
1
 93
4
 10
1252.5
 20
1365.0
 10
1342.5
 20
1365.0
 10
1342.5
 20
1350.0
 10
1252.5
 20
1350.0
 97
0
 75
1
 76
1
 98
0
  0
LWPOLYLINE
  5
9F
330
17
100
AcDbEntity
  8
WALL
100
AcDbPolyline
 90
4
 70
1
 10
1893.75
 20
1335.0
 10
2107.5
 20
1335.0
 10
2107.5
 20
1312.5
 10
1893.75
 20
1312.5
  0
HATCH
  5
A0
330
17
100
AcDbEntity
  8
WALL
100
AcDbHatch
 10
0.0
 20
0.0
 30
0.0
210
0.0
220
0.0
230
1.0
  2
SOLID
 70
1
 71
0
 91
1
 92
3
 72
0
 73
1
 93
4
 10
1893.75
 20
1335.0
 10
2107.5
 20
1335.0
 10
2107.5
 20
1312.5
 10
1893.75
 20
1312.5
 97
0
 75
1
 76
1
 98
0
  0
LWPOLYLINE
  5
A1
330
17
100
AcDbEntity
  8
WALL
100
AcDbPolyline
 90
4
 70
1
 10
2298.75
 20
1335.0
 10
2542.5
 20
1335.0
 10
2542.5
 20
1312.5
 10
2298.75
 20
1312.5
  0
HATCH
  5
A2
330
17
100
AcDbEntity
  8
WALL
100
AcDbHatch
 10
0.0
 20
0.0
 30
0.0
210
0.0
220
0.0
230
1.0
  2
SOLID
 70
1
 71
0
 91
1
 92
3
 72
0
 73
1
 93
4
 10
2298.75
 20
1335.0
 10
2542.5
 20
1335.0
 10
2542.5
 20
1312.5
 10
2298.75
 20
1312.5
 97
0
 75
1
 76
1
 98
0
  0
LWPOLYLINE
  5
A3
330
17
100
AcDbEntity
  8
WALL
100
AcDbPolyline
 90
4
 70
1
 10
1983.75
 20
1305.0
 10
2103.75
 20
1305.0
 10
2103.75
 20
1275.0
 10
1983.75
 20
1275.0
  0
HATCH
  5
A4
330
17
100
AcDbEntity
  8
WALL
100
AcDbHatch
 10
0.0
 20
0.0
 30
0.0
210
0.0
220
0.0
230
1.0
  2
SOLID
 70
1
 71
0
 91
1
 92
3
 72
0
 73
1
 93
4
 10
1983.75
 20
1305.0
 10
2103.75
 20
1305.0
 10
2103.75
 20
1275.0
 10
1983.75
 20
1275.0
 97
0
 75
1
 76
1
 98
0
  0
LWPOLYLINE
  5
A5
330
17
100
AcDbEntity
  8
WALL
100
AcDbPolyline
 90
4
 70
1
 10
2298.75
 20
1305.0
 10
2426.25
 20
1305.0
 10
2426.25
 20
1275.0
 10
2298.75
 20
1275.0
  0
HATCH
  5
A6
330
17
100
AcDbEntity
  8
WALL
100
AcDbHatch
 10
0.0
 20
0.0
 30
0.0
210
0.0
220
0.0
230
1.0
  2
SOLID
 70
1
 71
0
 91
1
 92
3
 72
0
 73
1
 93
4
 10
2298.75
 20
1305.0
 10
2426.25
 20
1305.0
 10
2426.25
 20
1275.0
 10
2298.75
 20
1275.0
 97
0
 75
1
 76
1
 98
0
  0
LWPOLYLINE
  5
A7
330
17
100
AcDbEntity
  8
WALL
100
AcDbPolyline
 90
4
 70
1
 10
648.75
 20
1297.5
 10
918.75
 20
1297.5
 10
918.75
 20
1275.0
 10
648.75
 20
1275.0
  0
HATCH
  5
A8
330
17
100
AcDbEntity
  8
WALL
100
AcDbHatch
 10
0.0
 20
0.0
 30
0.0
210
0.0
220
0.0
230
1.0
  2
SOLID
 70
1
 71
0
 91
1
 92
3
 72
0
 73
1
 93
4
 10
648.75
 20
1297.5
 10
918.75
 20
1297.5
 10
918.75
 20
1275.0
 10
648.75
 20
1275.0
 97
0
 75
1
 76
1
 98
0
  0
LWPOLYLINE
  5
A9
330
17
100
AcDbEntity
  8
WALL
100
AcDbPolyline
 90
4
 70
1
 10
1241.25
 20
1297.5
 10
1548.75
 20
1297.5
 10
1548.75
 20
1275.0
 10
1241.25
 20
1275.0
  0
HATCH
  5
AA
330
17
100
AcDbEntity
  8
WALL
100
AcDbHatch
 10
0.0
 20
0.0
 30
0.0
210
0.0
220
0.0
230
1.0
  2
SOLID
 70
1
 71
0
 91
1
 92
3
 72
0
 73
1
 93
4
 10
1241.25
 20
1297.5
 10
1548.75
 20
1297.5
 10
1548.75
 20
1275.0
 10
1241.25
 20
1275.0
 97
0
 75
1
 76
1
 98
0
  0
LWPOLYLINE
  5
AB
330
17
100
AcDbEntity
  8
WALL
100
AcDbPolyline
 90
4
 70
1
 10
161.25
 20
1177.5
 10
453.75
 20
1177.5
 10
453.75
 20
1147.5
 10
161.25
 20
1147.5
  0
HATCH
  5
AC
330
17
100
AcDbEntity
  8
WALL
100
AcDbHatch
 10
0.0
 20
0.0
 30
0.0
210
0.0
220
0.0
230
1.0
  2
SOLID
 70
1
 71
0
 91
1
 92
3
 72
0
 73
1
 93
4
 10
161.25
 20
1177.5
 10
453.75
 20
1177.5
 10
453.75
 20
1147.5
 10
161.25
 20
1147.5
 97
0
 75
1
 76
1
 98
0
  0
LWPOLYLINE
  5
AD
330
17
100
AcDbEntity
  8
WALL
100
AcDbPolyline
 90
4
 70
1
 10
806.25
 20
1095.0
 10
918.75
 20
1095.0
 10
918.75
 20
1072.5
 10
806.25
 20
1072.5
  0
HATCH
  5
AE
330
17
100
AcDbEntity
  8
WALL
100
AcDbHatch
 10
0.0
 20
0.0
 30
0.0
210
0.0
220
0.0
230
1.0
  2
SOLID
 70
1
 71
0
 91
1
 92
3
 72
0
 73
1
 93
4
 10
806.25
 20
1095.0
 10
918.75
 20
1095.0
 10
918.75
 20
1072.5
 10
806.25
 20
1072.5
 97
0
 75
1
 76
1
 98
0
  0
LWPOLYLINE
  5
AF
330
17
100
AcDbEntity
  8
WALL
100
AcDbPolyline
 90
4
 70
1
 10
1241.25
 20
1095.0
 10
1323.75
 20
1095.0
 10
1323.75
 20
1072.5
 10
1241.25
 20
1072.5
  0
HATCH
  5
B0
330
17
100
AcDbEntity
  8
WALL
100
AcDbHatch
 10
0.0
 20
0.0
 30
0.0
210
0.0
220
0.0
230
1.0
  2
SOLID
 70
1
 71
0
 91
1
 92
3
 72
0
 73
1
 93
4
 10
1241.25
 20
1095.0
 10
1323.75
 20
1095.0
 10
1323.75
 20
1072.5
 10
1241.25
 20
1072.5
 97
0
 75
1
 76
1
 98
0
  0
LWPOLYLINE
  5
B1
330
17
100
AcDbEntity
  8
WALL
100
AcDbPolyline
 90
4
 70
1
 10
2321.25
 20
1023.75
 10
2366.25
 20
1023.75
 10
2366.25
 20
1020.0
 10
2321.25
 20
1020.0
  0
HATCH
  5
B2
330
17
100
AcDbEntity
  8
WALL
100
AcDbHatch
 10
0.0
 20
0.0
 30
0.0
210
0.0
220
0.0
230
1.0
  2
SOLID
 70
1
 71
0
 91
1
 92
3
 72
0
 73
1
 93
4
 10
2321.25
 20
1023.75
 10
2366.25
 20
1023.75
 10
2366.25
 20
1020.0
 10
2321.25
 20
1020.0
 97
0
 75
1
 76
1
 98
0
  0
LWPOLYLINE
  5
B3
330
17
100
AcDbEntity
  8
WALL
100
AcDbPolyline
 90
4
 70
1
 10
2156.25
 20
937.5
 10
2223.75
 20
937.5
 10
2223.75
 20
933.75
 10
2156.25
 20
933.75
  0
HATCH
  5
B4
330
17
100
AcDbEntity
  8
WALL
100
AcDbHatch
 10
0.0
 20
0.0
 30
0.0
210
0.0
220
0.0
230
1.0
  2
SOLID
 70
1
 71
0
 91
1
 92
3
 72
0
 73
1
 93
4
 10
2156.25
 20
937.5
 10
2223.75
 20
937.5
 10
2223.75
 20
933.75
 10
2156.25
 20
933.75
 97
0
 75
1
 76
1
 98
0
  0
LWPOLYLINE
  5
B5
330
17
100
AcDbEntity
  8
WALL
100
AcDbPolyline
 90
4
 70
1
 10
2197.5
 20
922.5
 10
2280.0
 20
922.5
 10
2280.0
 20
915.0
 10
2197.5
 20
915.0
  0
HATCH
  5
B6
330
17
100
AcDbEntity
  8
WALL
100
AcDbHatch
 10
0.0
 20
0.0
 30
0.0
210
0.0
220
0.0
230
1.0
  2
SOLID
 70
1
 71
0
 91
1
 92
3
 72
0
 73
1
 93
4
 10
2197.5
 20
922.5
 10
2280.0
 20
922.5
 10
2280.0
 20
915.0
 10
2197.5
 20
915.0
 97
0
 75
1
 76
1
 98
0
  0
LWPOLYLINE
  5
B7
330
17
100
AcDbEntity
  8
WALL
100
AcDbPolyline
 90
4
 70
1
 10
2805.0
 20
907.5
 10
2928.75
 20
907.5
 10
2928.75
 20
892.5
 10
2805.0
 20
892.5
  0
HATCH
  5
B8
330
17
100
AcDbEntity
  8
WALL
100
AcDbHatch
 10
0.0
 20
0.0
 30
0.0
210
0.0
220
0.0
230
1.0
  2
SOLID
 70
1
 71
0
 91
1
 92
3
 72
0
 73
1
 93
4
 10
2805.0
 20
907.5
 10
2928.75
 20
907.5
 10
2928.75
 20
892.5
 10
2805.0
 20
892.5
 97
0
 75
1
 76
1
 98
0
  0
LWPOLYLINE
  5
B9
330
17
100
AcDbEntity
  8
WALL
100
AcDbPolyline
 90
4
 70
1
 10
2133.75
 20
862.5
 10
2186.25
 20
862.5
 10
2186.25
 20
855.0
 10
2133.75
 20
855.0
  0
HATCH
  5
BA
330
17
100
AcDbEntity
  8
WALL
100
AcDbHatch
 10
0.0
 20
0.0
 30
0.0
210
0.0
220
0.0
230
1.0
  2
SOLID
 70
1
 71
0
 91
1
 92
3
 72
0
 73
1
 93
4
 10
2133.75
 20
862.5
 10
2186.25
 20
862.5
 10
2186.25
 20
855.0
 10
2133.75
 20
855.0
 97
0
 75
1
 76
1
 98
0
  0
LWPOLYLINE
  5
BB
330
17
100
AcDbEntity
  8
WALL
100
AcDbPolyline
 90
4
 70
1
 10
806.25
 20
855.0
 10
918.75
 20
855.0
 10
918.75
 20
832.5
 10
806.25
 20
832.5
  0
HATCH
  5
BC
330
17
100
AcDbEntity
  8
WALL
100
AcDbHatch
 10
0.0
 20
0.0
 30
0.0
210
0.0
220
0.0
230
1.0
  2
SOLID
 70
1
 71
0
 91
1
 92
3
 72
0
 73
1
 93
4
 10
806.25
 20
855.0
 10
918.75
 20
855.0
 10
918.75
 20
832.5
 10
806.25
 20
832.5
 97
0
 75
1
 76
1
 98
0
  0
LWPOLYLINE
  5
BD
330
17
100
AcDbEntity
  8
WALL
100
AcDbPolyline
 90
4
 70
1
 10
1241.25
 20
847.5
 10
1323.75
 20
847.5
 10
1323.75
 20
825.0
 10
1241.25
 20
825.0
  0
HATCH
  5
BE
330
17
100
AcDbEntity
  8
WALL
100
AcDbHatch
 10
0.0
 20
0.0
 30
0.0
210
0.0
220
0.0
230
1.0
  2
SOLID
 70
1
 71
0
 91
1
 92
3
 72
0
 73
1
 93
4
 10
1241.25
 20
847.5
 10
1323.75
 20
847.5
 10
1323.75
 20
825.0
 10
1241.25
 20
825.0
 97
0
 75
1
 76
1
 98
0
  0
LWPOLYLINE
  5
BF
330
17
100
AcDbEntity
  8
WALL
100
AcDbPolyline
 90
4
 70
1
 10
911.25
 20
795.0
 10
1263.75
 20
795.0
 10
1263.75
 20
780.0
 10
911.25
 20
780.0
  0
HATCH
  5
C0
330
17
100
AcDbEntity
  8
WALL
100
AcDbHatch
 10
0.0
 20
0.0
 30
0.0
210
0.0
220
0.0
230
1.0
  2
SOLID
 70
1
 71
0
 91
1
 92
3
 72
0
 73
1
 93
4
 10
911.25
 20
795.0
 10
1263.75
 20
795.0
 10
1263.75
 20
780.0
 10
911.25
 20
780.0
 97
0
 75
1
 76
1
 98
0
  0
LWPOLYLINE
  5
C1
330
17
100
AcDbEntity
  8
WALL
100
AcDbPolyline
 90
4
 70
1
 10
161.25
 20
776.25
 10
206.25
 20
776.25
 10
206.25
 20
772.5
 10
161.25
 20
772.5
  0
HATCH
  5
C2
330
17
100
AcDbEntity
  8
WALL
100
AcDbHatch
 10
0.0
 20
0.0
 30
0.0
210
0.0
220
0.0
230
1.0
  2
SOLID
 70
1
 71
0
 91
1
 92
3
 72
0
 73
1
 93
4
 10
161.25
 20
776.25
 10
206.25
 20
776.25
 10
206.25
 20
772.5
 10
161.25
 20
772.5
 97
0
 75
1
 76
1
 98
0
  0
LWPOLYLINE
  5
C3
330
17
100
AcDbEntity
  8
WALL
100
AcDbPolyline
 90
4
 70
1
 10
198.75
 20
660.0
 10
243.75
 20
660.0
 10
243.75
 20
656.25
 10
198.75
 20
656.25
  0
HATCH
  5
C4
330
17
100
AcDbEntity
  8
WALL
100
AcDbHatch
 10
0.0
 20
0.0
 30
0.0
210
0.0
220
0.0
230
1.0
  2
SOLID
 70
1
 71
0
 91
1
 92
3
 72
0
 73
1
 93
4
 10
198.75
 20
660.0
 10
243.75
 20
660.0
 10
243.75
 20
656.25
 10
198.75
 20
656.25
 97
0
 75
1
 76
1
 98
0
  0
LWPOLYLINE
  5
C5
330
17
100
AcDbEntity
  8
WALL
100
AcDbPolyline
 90
4
 70
1
 10
1927.5
 20
652.5
 10
2703.75
 20
652.5
 10
2703.75
 20
630.0
 10
1927.5
 20
630.0
  0
HATCH
  5
C6
330
17
100
AcDbEntity
  8
WALL
100
AcDbHatch
 10
0.0
 20
0.0
 30
0.0
210
0.0
220
0.0
230
1.0
  2
SOLID
 70
1
 71
0
 91
1
 92
3
 72
0
 73
1
 93
4
 10
1927.5
 20
652.5
 10
2703.75
 20
652.5
 10
2703.75
 20
630.0
 10
1927.5
 20
630.0
 97
0
 75
1
 76
1
 98
0
  0
LWPOLYLINE
  5
C7
330
17
100
AcDbEntity
  8
WALL
100
AcDbPolyline
 90
4
 70
1
 10
1518.75
 20
615.0
 10
1773.75
 20
615.0
 10
1773.75
 20
592.5
 10
1518.75
 20
592.5
  0
HATCH
  5
C8
330
17
100
AcDbEntity
  8
WALL
100
AcDbHatch
 10
0.0
 20
0.0
 30
0.0
210
0.0
220
0.0
230
1.0
  2
SOLID
 70
1
 71
0
 91
1
 92
3
 72
0
 73
1
 93
4
 10
1518.75
 20
615.0
 10
1773.75
 20
615.0
 10
1773.75
 20
592.5
 10
1518.75
 20
592.5
 97
0
 75
1
 76
1
 98
0
  0
LWPOLYLINE
  5
C9
330
17
100
AcDbEntity
  8
WALL
100
AcDbPolyline
 90
4
 70
1
 10
2681.25
 20
596.25
 10
2741.25
 20
596.25
 10
2741.25
 20
577.5
 10
2681.25
 20
577.5
  0
HATCH
  5
CA
330
17
100
AcDbEntity
  8
WALL
100
AcDbHatch
 10
0.0
 20
0.0
 30
0.0
210
0.0
220
0.0
230
1.0
  2
SOLID
 70
1
 71
0
 91
1
 92
3
 72
0
 73
1
 93
4
 10
2681.25
 20
596.25
 10
2741.25
 20
596.25
 10
2741.25
 20
577.5
 10
2681.25
 20
577.5
 97
0
 75
1
 76
1
 98
0
  0
LWPOLYLINE
  5
CB
330
17
100
AcDbEntity
  8
WALL
100
AcDbPolyline
 90
4
 70
1
 10
1856.25
 20
592.5
 10
1901.25
 20
592.5
 10
1901.25
 20
577.5
 10
1856.25
 20
577.5
  0
HATCH
  5
CC
330
17
100
AcDbEntity
  8
WALL
100
AcDbHatch
 10
0.0
 20
0.0
 30
0.0
210
0.0
220
0.0
230
1.0
  2
SOLID
 70
1
 71
0
 91
1
 92
3
 72
0
 73
1
 93
4
 10
1856.25
 20
592.5
 10
1901.25
 20
592.5
 10
1901.25
 20
577.5
 10
1856.25
 20
577.5
 97
0
 75
1
 76
1
 98
0
  0
LWPOLYLINE
  5
CD
330
17
100
AcDbEntity
  8
WALL
100
AcDbPolyline
 90
4
 70
1
 10
603.75
 20
562.5
 10
1447.5
 20
562.5
 10
1447.5
 20
547.5
 10
603.75
 20
547.5
  0
HATCH
  5
CE
330
17
100
AcDbEntity
  8
WALL
100
AcDbHatch
 10
0.0
 20
0.0
 30
0.0
210
0.0
220
0.0
230
1.0
  2
SOLID
 70
1
 71
0
 91
1
 92
3
 72
0
 73
1
 93
4
 10
603.75
 20
562.5
 10
1447.5
 20
562.5
 10
1447.5
 20
547.5
 10
603.75
 20
547.5
 97
0
 75
1
 76
1
 98
0
  0
LWPOLYLINE
  5
CF
330
17
100
AcDbEntity
  8
WALL
100
AcDbPolyline
 90
4
 70
1
 10
1462.5
 20
562.5
 10
1533.75
 20
562.5
 10
1533.75
 20
555.0
 10
1462.5
 20
555.0
  0
HATCH
  5
D0
330
17
100
AcDbEntity
  8
WALL
100
AcDbHatch
 10
0.0
 20
0.0
 30
0.0
210
0.0
220
0.0
230
1.0
  2
SOLID
 70
1
 71
0
 91
1
 92
3
 72
0
 73
1
 93
4
 10
1462.5
 20
562.5
 10
1533.75
 20
562.5
 10
1533.75
 20
555.0
 10
1462.5
 20
555.0
 97
0
 75
1
 76
1
 98
0
  0
LWPOLYLINE
  5
D1
330
17
100
AcDbEntity
  8
WALL
100
AcDbPolyline
 90
4
 70
1
 10
2928.75
 20
502.5
 10
2973.75
 20
502.5
 10
2973.75
 20
487.5
 10
2928.75
 20
487.5
  0
HATCH
  5
D2
330
17
100
AcDbEntity
  8
WALL
100
AcDbHatch
 10
0.0
 20
0.0
 30
0.0
210
0.0
220
0.0
230
1.0
  2
SOLID
 70
1
 71
0
 91
1
 92
3
 72
0
 73
1
 93
4
 10
2928.75
 20
502.5
 10
2973.75
 20
502.5
 10
2973.75
 20
487.5
 10
2928.75
 20
487.5
 97
0
 75
1
 76
1
 98
0
  0
LWPOLYLINE
  5
D3
330
17
100
AcDbEntity
  8
WALL
100
AcDbPolyline
 90
4
 70
1
 10
450.0
 20
491.25
 10
502.5
 20
491.25
 10
502.5
 20
487.5
 10
450.0
 20
487.5
  0
HATCH
  5
D4
330
17
100
AcDbEntity
  8
WALL
100
AcDbHatch
 10
0.0
 20
0.0
 30
0.0
210
0.0
220
0.0
230
1.0
  2
SOLID
 70
1
 71
0
 91
1
 92
3
 72
0
 73
1
 93
4
 10
450.0
 20
491.25
 10
502.5
 20
491.25
 10
502.5
 20
487.5
 10
450.0
 20
487.5
 97
0
 75
1
 76
1
 98
0
  0
LWPOLYLINE
  5
D5
330
17
100
AcDbEntity
  8
WALL
100
AcDbPolyline
 90
4
 70
1
 10
390.0
 20
472.5
 10
480.0
 20
472.5
 10
480.0
 20
450.0
 10
390.0
 20
450.0
  0
HATCH
  5
D6
330
17
100
AcDbEntity
  8
WALL
100
AcDbHatch
 10
0.0
 20
0.0
 30
0.0
210
0.0
220
0.0
230
1.0
  2
SOLID
 70
1
 71
0
 91
1
 92
3
 72
0
 73
1
 93
4
 10
390.0
 20
472.5
 10
480.0
 20
472.5
 10
480.0
 20
450.0
 10
390.0
 20
450.0
 97
0
 75
1
 76
1
 98
0
  0
LWPOLYLINE
  5
D7
330
17
100
AcDbEntity
  8
WALL
100
AcDbPolyline
 90
4
 70
1
 10
543.75
 20
457.5
 10
596.25
 20
457.5
 10
596.25
 20
442.5
 10
543.75
 20
442.5
  0
HATCH
  5
D8
330
17
100
AcDbEntity
  8
WALL
100
AcDbHatch
 10
0.0
 20
0.0
 30
0.0
210
0.0
220
0.0
230
1.0
  2
SOLID
 70
1
 71
0
 91
1
 92
3
 72
0
 73
1
 93
4
 10
543.75
 20
457.5
 10
596.25
 20
457.5
 10
596.25
 20
442.5
 10
543.75
 20
442.5
 97
0
 75
1
 76
1
 98
0
  0
LWPOLYLINE
  5
D9
330
17
100
AcDbEntity
  8
WALL
100
AcDbPolyline
 90
4
 70
1
 10
2928.75
 20
363.75
 10
2973.75
 20
363.75
 10
2973.75
 20
341.25
 10
2928.75
 20
341.25
  0
HATCH
  5
DA
330
17
100
AcDbEntity
  8
WALL
100
AcDbHatch
 10
0.0
 20
0.0
 30
0.0
210
0.0
220
0.0
230
1.0
  2
SOLID
 70
1
 71
0
 91
1
 92
3
 72
0
 73
1
 93
4
 10
2928.75
 20
363.75
 10
2973.75
 20
363.75
 10
2973.75
 20
341.25
 10
2928.75
 20
341.25
 97
0
 75
1
 76
1
 98
0
  0
LWPOLYLINE
  5
DB
330
17
100
AcDbEntity
  8
WALL
100
AcDbPolyline
 90
4
 70
1
 10
1132.5
 20
315.0
 10
1230.0
 20
315.0
 10
1230.0
 20
277.5
 10
1132.5
 20
277.5
  0
HATCH
  5
DC
330
17
100
AcDbEntity
  8
WALL
100
AcDbHatch
 10
0.0
 20
0.0
 30
0.0
210
0.0
220
0.0
230
1.0
  2
SOLID
 70
1
 71
0
 91
1
 92
3
 72
0
 73
1
 93
4
 10
1132.5
 20
315.0
 10
1230.0
 20
315.0
 10
1230.0
 20
277.5
 10
1132.5
 20
277.5
 97
0
 75
1
 76
1
 98
0
  0
LWPOLYLINE
  5
DD
330
17
100
AcDbEntity
  8
WALL
100
AcDbPolyline
 90
4
 70
1
 10
1552.5
 20
315.0
 10
1650.0
 20
315.0
 10
1650.0
 20
292.5
 10
1552.5
 20
292.5
  0
HATCH
  5
DE
330
17
100
AcDbEntity
  8
WALL
100
AcDbHatch
 10
0.0
 20
0.0
 30
0.0
210
0.0
220
0.0
230
1.0
  2
SOLID
 70
1
 71
0
 91
1
 92
3
 72
0
 73
1
 93
4
 10
1552.5
 20
315.0
 10
1650.0
 20
315.0
 10
1650.0
 20
292.5
 10
1552.5
 20
292.5
 97
0
 75
1
 76
1
 98
0
  0
LWPOLYLINE
  5
DF
330
17
100
AcDbEntity
  8
WALL
100
AcDbPolyline
 90
4
 70
1
 10
2178.75
 20
303.75
 10
2246.25
 20
303.75
 10
2246.25
 20
292.5
 10
2178.75
 20
292.5
  0
HATCH
  5
E0
330
17
100
AcDbEntity
  8
WALL
100
AcDbHatch
 10
0.0
 20
0.0
 30
0.0
210
0.0
220
0.0
230
1.0
  2
SOLID
 70
1
 71
0
 91
1
 92
3
 72
0
 73
1
 93
4
 10
2178.75
 20
303.75
 10
2246.25
 20
303.75
 10
2246.25
 20
292.5
 10
2178.75
 20
292.5
 97
0
 75
1
 76
1
 98
0
  0
LWPOLYLINE
  5
E1
330
17
100
AcDbEntity
  8
WALL
100
AcDbPolyline
 90
4
 70
1
 10
2298.75
 20
296.25
 10
2343.75
 20
296.25
 10
2343.75
 20
292.5
 10
2298.75
 20
292.5
  0
HATCH
  5
E2
330
17
100
AcDbEntity
  8
WALL
100
AcDbHatch
 10
0.0
 20
0.0
 30
0.0
210
0.0
220
0.0
230
1.0
  2
SOLID
 70
1
 71
0
 91
1
 92
3
 72
0
 73
1
 93
4
 10
2298.75
 20
296.25
 10
2343.75
 20
296.25
 10
2343.75
 20
292.5
 10
2298.75
 20
292.5
 97
0
 75
1
 76
1
 98
0
  0
LWPOLYLINE
  5
E3
330
17
100
AcDbEntity
  8
WALL
100
AcDbPolyline
 90
4
 70
1
 10
2283.75
 20
285.0
 10
2381.25
 20
285.0
 10
2381.25
 20
266.25
 10
2283.75
 20
266.25
  0
HATCH
  5
E4
330
17
100
AcDbEntity
  8
WALL
100
AcDbHatch
 10
0.0
 20
0.0
 30
0.0
210
0.0
220
0.0
230
1.0
  2
SOLID
 70
1
 71
0
 91
1
 92
3
 72
0
 73
1
 93
4
 10
2283.75
 20
285.0
 10
2381.25
 20
285.0
 10
2381.25
 20
266.25
 10
2283.75
 20
266.25
 97
0
 75
1
 76
1
 98
0
  0
LWPOLYLINE
  5
E5
330
17
100
AcDbEntity
  8
WALL
100
AcDbPolyline
 90
4
 70
1
 10
2730.0
 20
277.5
 10
2805.0
 20
277.5
 10
2805.0
 20
262.5
 10
2730.0
 20
262.5
  0
HATCH
  5
E6
330
17
100
AcDbEntity
  8
WALL
100
AcDbHatch
 10
0.0
 20
0.0
 30
0.0
210
0.0
220
0.0
230
1.0
  2
SOLID
 70
1
 71
0
 91
1
 92
3
 72
0
 73
1
 93
4
 10
2730.0
 20
277.5
 10
2805.0
 20
277.5
 10
2805.0
 20
262.5
 10
2730.0
 20
262.5
 97
0
 75
1
 76
1
 98
0
  0
LWPOLYLINE
  5
E7
330
17
100
AcDbEntity
  8
WALL
100
AcDbPolyline
 90
4
 70
1
 10
2130.0
 20
270.0
 10
2250.0
 20
270.0
 10
2250.0
 20
247.5
 10
2130.0
 20
247.5
  0
HATCH
  5
E8
330
17
100
AcDbEntity
  8
WALL
100
AcDbHatch
 10
0.0
 20
0.0
 30
0.0
210
0.0
220
0.0
230
1.0
  2
SOLID
 70
1
 71
0
 91
1
 92
3
 72
0
 73
1
 93
4
 10
2130.0
 20
270.0
 10
2250.0
 20
270.0
 10
2250.0
 20
247.5
 10
2130.0
 20
247.5
 97
0
 75
1
 76
1
 98
0
  0
LWPOLYLINE
  5
E9
330
17
100
AcDbEntity
  8
WALL
100
AcDbPolyline
 90
4
 70
1
 10
1102.5
 20
262.5
 10
1252.5
 20
262.5
 10
1252.5
 20
247.5
 10
1102.5
 20
247.5
  0
HATCH
  5
EA
330
17
100
AcDbEntity
  8
WALL
100
AcDbHatch
 10
0.0
 20
0.0
 30
0.0
210
0.0
220
0.0
230
1.0
  2
SOLID
 70
1
 71
0
 91
1
 92
3
 72
0
 73
1
 93
4
 10
1102.5
 20
262.5
 10
1252.5
 20
262.5
 10
1252.5
 20
247.5
 10
1102.5
 20
247.5
 97
0
 75
1
 76
1
 98
0
  0
LWPOLYLINE
  5
EB
330
17
100
AcDbEntity
  8
WALL
100
AcDbPolyline
 90
4
 70
1
 10
1312.5
 20
262.5
 10
1500.0
 20
262.5
 10
1500.0
 20
247.5
 10
1312.5
 20
247.5
  0
HATCH
  5
EC
330
17
100
AcDbEntity
  8
WALL
100
AcDbHatch
 10
0.0
 20
0.0
 30
0.0
210
0.0
220
0.0
230
1.0
  2
SOLID
 70
1
 71
0
 91
1
 92
3
 72
0
 73
1
 93
4
 10
1312.5
 20
262.5
 10
1500.0
 20
262.5
 10
1500.0
 20
247.5
 10
1312.5
 20
247.5
 97
0
 75
1
 76
1
 98
0
  0
LWPOLYLINE
  5
ED
330
17
100
AcDbEntity
  8
WALL
100
AcDbPolyline
 90
4
 70
1
 10
1522.5
 20
262.5
 10
1620.0
 20
262.5
 10
1620.0
 20
247.5
 10
1522.5
 20
247.5
  0
HATCH
  5
EE
330
17
100
AcDbEntity
  8
WALL
100
AcDbHatch
 10
0.0
 20
0.0
 30
0.0
210
0.0
220
0.0
230
1.0
  2
SOLID
 70
1
 71
0
 91
1
 92
3
 72
0
 73
1
 93
4
 10
1522.5
 20
262.5
 10
1620.0
 20
262.5
 10
1620.0
 20
247.5
 10
1522.5
 20
247.5
 97
0
 75
1
 76
1
 98
0
  0
LWPOLYLINE
  5
EF
330
17
100
AcDbEntity
  8
WALL
100
AcDbPolyline
 90
4
 70
1
 10
1650.0
 20
262.5
 10
1830.0
 20
262.5
 10
1830.0
 20
247.5
 10
1650.0
 20
247.5
  0
HATCH
  5
F0
330
17
100
AcDbEntity
  8
WALL
100
AcDbHatch
 10
0.0
 20
0.0
 30
0.0
210
0.0
220
0.0
230
1.0
  2
SOLID
 70
1
 71
0
 91
1
 92
3
 72
0
 73
1
 93
4
 10
1650.0
 20
262.5
 10
1830.0
 20
262.5
 10
1830.0
 20
247.5
 10
1650.0
 20
247.5
 97
0
 75
1
 76
1
 98
0
  0
LWPOLYLINE
  5
F1
330
17
100
AcDbEntity
  8
WALL
100
AcDbPolyline
 90
4
 70
1
 10
1905.0
 20
262.5
 10
2055.0
 20
262.5
 10
2055.0
 20
247.5
 10
1905.0
 20
247.5
  0
HATCH
  5
F2
330
17
100
AcDbEntity
  8
WALL
100
AcDbHatch
 10
0.0
 20
0.0
 30
0.0
210
0.0
220
0.0
230
1.0
  2
SOLID
 70
1
 71
0
 91
1
 92
3
 72
0
 73
1
 93
4
 10
1905.0
 20
262.5
 10
2055.0
 20
262.5
 10
2055.0
 20
247.5
 10
1905.0
 20
247.5
 97
0
 75
1
 76
1
 98
0
  0
LWPOLYLINE
  5
F3
330
17
100
AcDbEntity
  8
WALL
100
AcDbPolyline
 90
4
 70
1
 10
2392.5
 20
262.5
 10
2595.0
 20
262.5
 10
2595.0
 20
247.5
 10
2392.5
 20
247.5
  0
HATCH
  5
F4
330
17
100
AcDbEntity
  8
WALL
100
AcDbHatch
 10
0.0
 20
0.0
 30
0.0
210
0.0
220
0.0
230
1.0
  2
SOLID
 70
1
 71
0
 91
1
 92
3
 72
0
 73
1
 93
4
 10
2392.5
 20
262.5
 10
2595.0
 20
262.5
 10
2595.0
 20
247.5
 10
2392.5
 20
247.5
 97
0
 75
1
 76
1
 98
0
  0
LWPOLYLINE
  5
F5
330
17
100
AcDbEntity
  8
WALL
100
AcDbPolyline
 90
4
 70
1
 10
626.25
 20
255.0
 10
690.0
 20
255.0
 10
690.0
 20
251.25
 10
626.25
 20
251.25
  0
HATCH
  5
F6
330
17
100
AcDbEntity
  8
WALL
100
AcDbHatch
 10
0.0
 20
0.0
 30
0.0
210
0.0
220
0.0
230
1.0
  2
SOLID
 70
1
 71
0
 91
1
 92
3
 72
0
 73
1
 93
4
 10
626.25
 20
255.0
 10
690.0
 20
255.0
 10
690.0
 20
251.25
 10
626.25
 20
251.25
 97
0
 75
1
 76
1
 98
0
  0
LWPOLYLINE
  5
F7
330
17
100
AcDbEntity
  8
WALL
100
AcDbPolyline
 90
4
 70
1
 10
2640.0
 20
255.0
 10
2685.0
 20
255.0
 10
2685.0
 20
251.25
 10
2640.0
 20
251.25
  0
HATCH
  5
F8
330
17
100
AcDbEntity
  8
WALL
100
AcDbHatch
 10
0.0
 20
0.0
 30
0.0
210
0.0
220
0.0
230
1.0
  2
SOLID
 70
1
 71
0
 91
1
 92
3
 72
0
 73
1
 93
4
 10
2640.0
 20
255.0
 10
2685.0
 20
255.0
 10
2685.0
 20
251.25
 10
2640.0
 20
251.25
 97
0
 75
1
 76
1
 98
0
  0
LWPOLYLINE
  5
F9
330
17
100
AcDbEntity
  8
WALL
100
AcDbPolyline
 90
4
 70
1
 10
296.25
 20
97.5
 10
348.75
 20
97.5
 10
348.75
 20
82.5
 10
296.25
 20
82.5
  0
HATCH
  5
FA
330
17
100
AcDbEntity
  8
WALL
100
AcDbHatch
 10
0.0
 20
0.0
 30
0.0
210
0.0
220
0.0
230
1.0
  2
SOLID
 70
1
 71
0
 91
1
 92
3
 72
0
 73
1
 93
4
 10
296.25
 20
97.5
 10
348.75
 20
97.5
 10
348.75
 20
82.5
 10
296.25
 20
82.5
 97
0
 75
1
 76
1
 98
0
  0
LWPOLYLINE
  5
FB
330
17
100
AcDbEntity
  8
WALL
100
AcDbPolyline
 90
4
 70
1
 10
562.5
 20
97.5
 10
641.25
 20
97.5
 10
641.25
 20
82.5
 10
562.5
 20
82.5
  0
HATCH
  5
FC
330
17
100
AcDbEntity
  8
WALL
100
AcDbHatch
 10
0.0
 20
0.0
 30
0.0
210
0.0
220
0.0
230
1.0
  2
SOLID
 70
1
 71
0
 91
1
 92
3
 72
0
 73
1
 93
4
 10
562.5
 20
97.5
 10
641.25
 20
97.5
 10
641.25
 20
82.5
 10
562.5
 20
82.5
 97
0
 75
1
 76
1
 98
0
  0
LWPOLYLINE
  5
FD
330
17
100
AcDbEntity
  8
WALL
100
AcDbPolyline
 90
4
 70
1
 10
626.25
 20
2426.25
 10
630.0
 20
2426.25
 10
630.0
 20
2381.25
 10
626.25
 20
2381.25
  0
HATCH
  5
FE
330
17
100
AcDbEntity
  8
WALL
100
AcDbHatch
 10
0.0
 20
0.0
 30
0.0
210
0.0
220
0.0
230
1.0
  2
SOLID
 70
1
 71
0
 91
1
 92
3
 72
0
 73
1
 93
4
 10
626.25
 20
2426.25
 10
630.0
 20
2426.25
 10
630.0
 20
2381.25
 10
626.25
 20
2381.25
 97
0
 75
1
 76
1
 98
0
  0
LWPOLYLINE
  5
FF
330
17
100
AcDbEntity
  8
WALL
100
AcDbPolyline
 90
4
 70
1
 10
1005.0
 20
2388.75
 10
1012.5
 20
2388.75
 10
1012.5
 20
2336.25
 10
1005.0
 20
2336.25
  0
HATCH
  5
100
330
17
100
AcDbEntity
  8
WALL
100
AcDbHatch
 10
0.0
 20
0.0
 30
0.0
210
0.0
220
0.0
230
1.0
  2
SOLID
 70
1
 71
0
 91
1
 92
3
 72
0
 73
1
 93
4
 10
1005.0
 20
2388.75
 10
1012.5
 20
2388.75
 10
1012.5
 20
2336.25
 10
1005.0
 20
2336.25
 97
0
 75
1
 76
1
 98
0
  0
LWPOLYLINE
  5
101
330
17
100
AcDbEntity
  8
WALL
100
AcDbPolyline
 90
4
 70
1
 10
1020.0
 20
2388.75
 10
1027.5
 20
2388.75
 10
1027.5
 20
2336.25
 10
1020.0
 20
2336.25
  0
HATCH
  5
102
330
17
100
AcDbEntity
  8
WALL
100
AcDbHatch
 10
0.0
 20
0.0
 30
0.0
210
0.0
220
0.0
230
1.0
  2
SOLID
 70
1
 71
0
 91
1
 92
3
 72
0
 73
1
 93
4
 10
1020.0
 20
2388.75
 10
1027.5
 20
2388.75
 10
1027.5
 20
2336.25
 10
1020.0
 20
2336.25
 97
0
 75
1
 76
1
 98
0
  0
LWPOLYLINE
  5
103
330
17
100
AcDbEntity
  8
WALL
100
AcDbPolyline
 90
4
 70
1
 10
2302.5
 20
2340.0
 10
2325.0
 20
2340.0
 10
2325.0
 20
2238.75
 10
2302.5
 20
2238.75
  0
HATCH
  5
104
330
17
100
AcDbEntity
  8
WALL
100
AcDbHatch
 10
0.0
 20
0.0
 30
0.0
210
0.0
220
0.0
230
1.0
  2
SOLID
 70
1
 71
0
 91
1
 92
3
 72
0
 73
1
 93
4
 10
2302.5
 20
2340.0
 10
2325.0
 20
2340.0
 10
2325.0
 20
2238.75
 10
2302.5
 20
2238.75
 97
0
 75
1
 76
1
 98
0
  0
LWPOLYLINE
  5
105
330
17
100
AcDbEntity
  8
WALL
100
AcDbPolyline
 90
4
 70
1
 10
1515.0
 20
2295.0
 10
1530.0
 20
2295.0
 10
1530.0
 20
2220.0
 10
1515.0
 20
2220.0
  0
HATCH
  5
106
330
17
100
AcDbEntity
  8
WALL
100
AcDbHatch
 10
0.0
 20
0.0
 30
0.0
210
0.0
220
0.0
230
1.0
  2
SOLID
 70
1
 71
0
 91
1
 92
3
 72
0
 73
1
 93
4
 10
1515.0
 20
2295.0
 10
1530.0
 20
2295.0
 10
1530.0
 20
2220.0
 10
1515.0
 20
2220.0
 97
0
 75
1
 76
1
 98
0
  0
LWPOLYLINE
  5
107
330
17
100
AcDbEntity
  8
WALL
100
AcDbPolyline
 90
4
 70
1
 10
720.0
 20
2283.75
 10
735.0
 20
2283.75
 10
735.0
 20
2223.75
 10
720.0
 20
2223.75
  0
HATCH
  5
108
330
17
100
AcDbEntity
  8
WALL
100
AcDbHatch
 10
0.0
 20
0.0
 30
0.0
210
0.0
220
0.0
230
1.0
  2
SOLID
 70
1
 71
0
 91
1
 92
3
 72
0
 73
1
 93
4
 10
720.0
 20
2283.75
 10
735.0
 20
2283.75
 10
735.0
 20
2223.75
 10
720.0
 20
2223.75
 97
0
 75
1
 76
1
 98
0
  0
LWPOLYLINE
  5
109
330
17
100
AcDbEntity
  8
WALL
100
AcDbPolyline
 90
4
 70
1
 10
1545.0
 20
2283.75
 10
1560.0
 20
2283.75
 10
1560.0
 20
2216.25
 10
1545.0
 20
2216.25
  0
HATCH
  5
10A
330
17
100
AcDbEntity
  8
WALL
100
AcDbHatch
 10
0.0
 20
0.0
 30
0.0
210
0.0
220
0.0
230
1.0
  2
SOLID
 70
1
 71
0
 91
1
 92
3
 72
0
 73
1
 93
4
 10
1545.0
 20
2283.75
 10
1560.0
 20
2283.75
 10
1560.0
 20
2216.25
 10
1545.0
 20
2216.25
 97
0
 75
1
 76
1
 98
0
  0
LWPOLYLINE
  5
10B
330
17
100
AcDbEntity
  8
WALL
100
AcDbPolyline
 90
4
 70
1
 10
2340.0
 20
2283.75
 10
2362.5
 20
2283.75
 10
2362.5
 20
2021.25
 10
2340.0
 20
2021.25
  0
HATCH
  5
10C
330
17
100
AcDbEntity
  8
WALL
100
AcDbHatch
 10
0.0
 20
0.0
 30
0.0
210
0.0
220
0.0
230
1.0
  2
SOLID
 70
1
 71
0
 91
1
 92
3
 72
0
 73
1
 93
4
 10
2340.0
 20
2283.75
 10
2362.5
 20
2283.75
 10
2362.5
 20
2021.25
 10
2340.0
 20
2021.25
 97
0
 75
1
 76
1
 98
0
  0
LWPOLYLINE
  5
10D
330
17
100
AcDbEntity
  8
WALL
100
AcDbPolyline
 90
4
 70
1
 10
2070.0
 20
2280.0
 10
2085.0
 20
2280.0
 10
2085.0
 20
2152.5
 10
2070.0
 20
2152.5
  0
HATCH
  5
10E
330
17
100
AcDbEntity
  8
WALL
100
AcDbHatch
 10
0.0
 20
0.0
 30
0.0
210
0.0
220
0.0
230
1.0
  2
SOLID
 70
1
 71
0
 91
1
 92
3
 72
0
 73
1
 93
4
 10
2070.0
 20
2280.0
 10
2085.0
 20
2280.0
 10
2085.0
 20
2152.5
 10
2070.0
 20
2152.5
 97
0
 75
1
 76
1
 98
0
  0
LWPOLYLINE
  5
10F
330
17
100
AcDbEntity
  8
WALL
100
AcDbPolyline
 90
4
 70
1
 10
2497.5
 20
2227.5
 10
2501.25
 20
2227.5
 10
2501.25
 20
2178.75
 10
2497.5
 20
2178.75
  0
HATCH
  5
110
330
17
100
AcDbEntity
  8
WALL
100
AcDbHatch
 10
0.0
 20
0.0
 30
0.0
210
0.0
220
0.0
230
1.0
  2
SOLID
 70
1
 71
0
 91
1
 92
3
 72
0
 73
1
 93
4
 10
2497.5
 20
2227.5
 10
2501.25
 20
2227.5
 10
2501.25
 20
2178.75
 10
2497.5
 20
2178.75
 97
0
 75
1
 76
1
 98
0
  0
LWPOLYLINE
  5
111
330
17
100
AcDbEntity
  8
WALL
100
AcDbPolyline
 90
4
 70
1
 10
2538.75
 20
2212.5
 10
2546.25
 20
2212.5
 10
2546.25
 20
2103.75
 10
2538.75
 20
2103.75
  0
HATCH
  5
112
330
17
100
AcDbEntity
  8
WALL
100
AcDbHatch
 10
0.0
 20
0.0
 30
0.0
210
0.0
220
0.0
230
1.0
  2
SOLID
 70
1
 71
0
 91
1
 92
3
 72
0
 73
1
 93
4
 10
2538.75
 20
2212.5
 10
2546.25
 20
2212.5
 10
2546.25
 20
2103.75
 10
2538.75
 20
2103.75
 97
0
 75
1
 76
1
 98
0
  0
LWPOLYLINE
  5
113
330
17
100
AcDbEntity
  8
WALL
100
AcDbPolyline
 90
4
 70
1
 10
2523.75
 20
2201.25
 10
2527.5
 20
2201.25
 10
2527.5
 20
2137.5
 10
2523.75
 20
2137.5
  0
HATCH
  5
114
330
17
100
AcDbEntity
  8
WALL
100
AcDbHatch
 10
0.0
 20
0.0
 30
0.0
210
0.0
220
0.0
230
1.0
  2
SOLID
 70
1
 71
0
 91
1
 92
3
 72
0
 73
1
 93
4
 10
2523.75
 20
2201.25
 10
2527.5
 20
2201.25
 10
2527.5
 20
2137.5
 10
2523.75
 20
2137.5
 97
0
 75
1
 76
1
 98
0
  0
LWPOLYLINE
  5
115
330
17
100
AcDbEntity
  8
WALL
100
AcDbPolyline
 90
4
 70
1
 10
2302.5
 20
2175.0
 10
2325.0
 20
2175.0
 10
2325.0
 20
1608.75
 10
2302.5
 20
1608.75
  0
HATCH
  5
116
330
17
100
AcDbEntity
  8
WALL
100
AcDbHatch
 10
0.0
 20
0.0
 30
0.0
210
0.0
220
0.0
230
1.0
  2
SOLID
 70
1
 71
0
 91
1
 92
3
 72
0
 73
1
 93
4
 10
2302.5
 20
2175.0
 10
2325.0
 20
2175.0
 10
2325.0
 20
1608.75
 10
2302.5
 20
1608.75
 97
0
 75
1
 76
1
 98
0
  0
LWPOLYLINE
  5
117
330
17
100
AcDbEntity
  8
WALL
100
AcDbPolyline
 90
4
 70
1
 10
900.0
 20
2167.5
 10
903.75
 20
2167.5
 10
903.75
 20
2122.5
 10
900.0
 20
2122.5
  0
HATCH
  5
118
330
17
100
AcDbEntity
  8
WALL
100
AcDbHatch
 10
0.0
 20
0.0
 30
0.0
210
0.0
220
0.0
230
1.0
  2
SOLID
 70
1
 71
0
 91
1
 92
3
 72
0
 73
1
 93
4
 10
900.0
 20
2167.5
 10
903.75
 20
2167.5
 10
903.75
 20
2122.5
 10
900.0
 20
2122.5
 97
0
 75
1
 76
1
 98
0
  0
LWPOLYLINE
  5
119
330
17
100
AcDbEntity
  8
WALL
100
AcDbPolyline
 90
4
 70
1
 10
1890.0
 20
2156.25
 10
1905.0
 20
2156.25
 10
1905.0
 20
2036.25
 10
1890.0
 20
2036.25
  0
HATCH
  5
11A
330
17
100
AcDbEntity
  8
WALL
100
AcDbHatch
 10
0.0
 20
0.0
 30
0.0
210
0.0
220
0.0
230
1.0
  2
SOLID
 70
1
 71
0
 91
1
 92
3
 72
0
 73
1
 93
4
 10
1890.0
 20
2156.25
 10
1905.0
 20
2156.25
 10
1905.0
 20
2036.25
 10
1890.0
 20
2036.25
 97
0
 75
1
 76
1
 98
0
  0
LWPOLYLINE
  5
11B
330
17
100
AcDbEntity
  8
WALL
100
AcDbPolyline
 90
4
 70
1
 10
2463.75
 20
2145.0
 10
2467.5
 20
2145.0
 10
2467.5
 20
2077.5
 10
2463.75
 20
2077.5
  0
HATCH
  5
11C
330
17
100
AcDbEntity
  8
WALL
100
AcDbHatch
 10
0.0
 20
0.0
 30
0.0
210
0.0
220
0.0
230
1.0
  2
SOLID
 70
1
 71
0
 91
1
 92
3
 72
0
 73
1
 93
4
 10
2463.75
 20
2145.0
 10
2467.5
 20
2145.0
 10
2467.5
 20
2077.5
 10
2463.75
 20
2077.5
 97
0
 75
1
 76
1
 98
0
  0
LWPOLYLINE
  5
11D
330
17
100
AcDbEntity
  8
WALL
100
AcDbPolyline
 90
4
 70
1
 10
2463.75
 20
2070.0
 10
2467.5
 20
2070.0
 10
2467.5
 20
2021.25
 10
2463.75
 20
2021.25
  0
HATCH
  5
11E
330
17
100
AcDbEntity
  8
WALL
100
AcDbHatch
 10
0.0
 20
0.0
 30
0.0
210
0.0
220
0.0
230
1.0
  2
SOLID
 70
1
 71
0
 91
1
 92
3
 72
0
 73
1
 93
4
 10
2463.75
 20
2070.0
 10
2467.5
 20
2070.0
 10
2467.5
 20
2021.25
 10
2463.75
 20
2021.25
 97
0
 75
1
 76
1
 98
0
  0
LWPOLYLINE
  5
11F
330
17
100
AcDbEntity
  8
WALL
100
AcDbPolyline
 90
4
 70
1
 10
1515.0
 20
2043.75
 10
1537.5
 20
2043.75
 10
1537.5
 20
1556.25
 10
1515.0
 20
1556.25
  0
HATCH
  5
120
330
17
100
AcDbEntity
  8
WALL
100
AcDbHatch
 10
0.0
 20
0.0
 30
0.0
210
0.0
220
0.0
230
1.0
  2
SOLID
 70
1
 71
0
 91
1
 92
3
 72
0
 73
1
 93
4
 10
1515.0
 20
2043.75
 10
1537.5
 20
2043.75
 10
1537.5
 20
1556.25
 10
1515.0
 20
1556.25
 97
0
 75
1
 76
1
 98
0
  0
LWPOLYLINE
  5
121
330
17
100
AcDbEntity
  8
WALL
100
AcDbPolyline
 90
4
 70
1
 10
896.25
 20
2032.5
 10
900.0
 20
2032.5
 10
900.0
 20
1987.5
 10
896.25
 20
1987.5
  0
HATCH
  5
122
330
17
100
AcDbEntity
  8
WALL
100
AcDbHatch
 10
0.0
 20
0.0
 30
0.0
210
0.0
220
0.0
230
1.0
  2
SOLID
 70
1
 71
0
 91
1
 92
3
 72
0
 73
1
 93
4
 10
896.25
 20
2032.5
 10
900.0
 20
2032.5
 10
900.0
 20
1987.5
 10
896.25
 20
1987.5
 97
0
 75
1
 76
1
 98
0
  0
LWPOLYLINE
  5
123
330
17
100
AcDbEntity
  8
WALL
100
AcDbPolyline
 90
4
 70
1
 10
412.5
 20
2006.25
 10
431.25
 20
2006.25
 10
431.25
 20
1938.75
 10
412.5
 20
1938.75
  0
HATCH
  5
124
330
17
100
AcDbEntity
  8
WALL
100
AcDbHatch
 10
0.0
 20
0.0
 30
0.0
210
0.0
220
0.0
230
1.0
  2
SOLID
 70
1
 71
0
 91
1
 92
3
 72
0
 73
1
 93
4
 10
412.5
 20
2006.25
 10
431.25
 20
2006.25
 10
431.25
 20
1938.75
 10
412.5
 20
1938.75
 97
0
 75
1
 76
1
 98
0
  0
LWPOLYLINE
  5
125
330
17
100
AcDbEntity
  8
WALL
100
AcDbPolyline
 90
4
 70
1
 10
495.0
 20
2006.25
 10
502.5
 20
2006.25
 10
502.5
 20
1916.25
 10
495.0
 20
1916.25
  0
HATCH
  5
126
330
17
100
AcDbEntity
  8
WALL
100
AcDbHatch
 10
0.0
 20
0.0
 30
0.0
210
0.0
220
0.0
230
1.0
  2
SOLID
 70
1
 71
0
 91
1
 92
3
 72
0
 73
1
 93
4
 10
495.0
 20
2006.25
 10
502.5
 20
2006.25
 10
502.5
 20
1916.25
 10
495.0
 20
1916.25
 97
0
 75
1
 76
1
 98
0
  0
LWPOLYLINE
  5
127
330
17
100
AcDbEntity
  8
WALL
100
AcDbPolyline
 90
4
 70
1
 10
517.5
 20
2006.25
 10
532.5
 20
2006.25
 10
532.5
 20
1946.25
 10
517.5
 20
1946.25
  0
HATCH
  5
128
330
17
100
AcDbEntity
  8
WALL
100
AcDbHatch
 10
0.0
 20
0.0
 30
0.0
210
0.0
220
0.0
230
1.0
  2
SOLID
 70
1
 71
0
 91
1
 92
3
 72
0
 73
1
 93
4
 10
517.5
 20
2006.25
 10
532.5
 20
2006.25
 10
532.5
 20
1946.25
 10
517.5
 20
1946.25
 97
0
 75
1
 76
1
 98
0
  0
LWPOLYLINE
  5
129
330
17
100
AcDbEntity
  8
WALL
100
AcDbPolyline
 90
4
 70
1
 10
536.25
 20
2002.5
 10
551.25
 20
2002.5
 10
551.25
 20
1908.75
 10
536.25
 20
1908.75
  0
HATCH
  5
12A
330
17
100
AcDbEntity
  8
WALL
100
AcDbHatch
 10
0.0
 20
0.0
 30
0.0
210
0.0
220
0.0
230
1.0
  2
SOLID
 70
1
 71
0
 91
1
 92
3
 72
0
 73
1
 93
4
 10
536.25
 20
2002.5
 10
551.25
 20
2002.5
 10
551.25
 20
1908.75
 10
536.25
 20
1908.75
 97
0
 75
1
 76
1
 98
0
  0
LWPOLYLINE
  5
12B
330
17
100
AcDbEntity
  8
WALL
100
AcDbPolyline
 90
4
 70
1
 10
2340.0
 20
1908.75
 10
2358.75
 20
1908.75
 10
2358.75
 20
1848.75
 10
2340.0
 20
1848.75
  0
HATCH
  5
12C
330
17
100
AcDbEntity
  8
WALL
100
AcDbHatch
 10
0.0
 20
0.0
 30
0.0
210
0.0
220
0.0
230
1.0
  2
SOLID
 70
1
 71
0
 91
1
 92
3
 72
0
 73
1
 93
4
 10
2340.0
 20
1908.75
 10
2358.75
 20
1908.75
 10
2358.75
 20
1848.75
 10
2340.0
 20
1848.75
 97
0
 75
1
 76
1
 98
0
  0
LWPOLYLINE
  5
12D
330
17
100
AcDbEntity
  8
WALL
100
AcDbPolyline
 90
4
 70
1
 10
363.75
 20
1901.25
 10
367.5
 20
1901.25
 10
367.5
 20
1833.75
 10
363.75
 20
1833.75
  0
HATCH
  5
12E
330
17
100
AcDbEntity
  8
WALL
100
AcDbHatch
 10
0.0
 20
0.0
 30
0.0
210
0.0
220
0.0
230
1.0
  2
SOLID
 70
1
 71
0
 91
1
 92
3
 72
0
 73
1
 93
4
 10
363.75
 20
1901.25
 10
367.5
 20
1901.25
 10
367.5
 20
1833.75
 10
363.75
 20
1833.75
 97
0
 75
1
 76
1
 98
0
  0
LWPOLYLINE
  5
12F
330
17
100
AcDbEntity
  8
WALL
100
AcDbPolyline
 90
4
 70
1
 10
487.5
 20
1893.75
 10
495.0
 20
1893.75
 10
495.0
 20
1826.25
 10
487.5
 20
1826.25
  0
HATCH
  5
130
330
17
100
AcDbEntity
  8
WALL
100
AcDbHatch
 10
0.0
 20
0.0
 30
0.0
210
0.0
220
0.0
230
1.0
  2
SOLID
 70
1
 71
0
 91
1
 92
3
 72
0
 73
1
 93
4
 10
487.5
 20
1893.75
 10
495.0
 20
1893.75
 10
495.0
 20
1826.25
 10
487.5
 20
1826.25
 97
0
 75
1
 76
1
 98
0
  0
LWPOLYLINE
  5
131
330
17
100
AcDbEntity
  8
WALL
100
AcDbPolyline
 90
4
 70
1
 10
517.5
 20
1893.75
 10
521.25
 20
1893.75
 10
521.25
 20
1848.75
 10
517.5
 20
1848.75
  0
HATCH
  5
132
330
17
100
AcDbEntity
  8
WALL
100
AcDbHatch
 10
0.0
 20
0.0
 30
0.0
210
0.0
220
0.0
230
1.0
  2
SOLID
 70
1
 71
0
 91
1
 92
3
 72
0
 73
1
 93
4
 10
517.5
 20
1893.75
 10
521.25
 20
1893.75
 10
521.25
 20
1848.75
 10
517.5
 20
1848.75
 97
0
 75
1
 76
1
 98
0
  0
LWPOLYLINE
  5
133
330
17
100
AcDbEntity
  8
WALL
100
AcDbPolyline
 90
4
 70
1
 10
536.25
 20
1893.75
 10
540.0
 20
1893.75
 10
540.0
 20
1848.75
 10
536.25
 20
1848.75
  0
HATCH
  5
134
330
17
100
AcDbEntity
  8
WALL
100
AcDbHatch
 10
0.0
 20
0.0
 30
0.0
210
0.0
220
0.0
230
1.0
  2
SOLID
 70
1
 71
0
 91
1
 92
3
 72
0
 73
1
 93
4
 10
536.25
 20
1893.75
 10
540.0
 20
1893.75
 10
540.0
 20
1848.75
 10
536.25
 20
1848.75
 97
0
 75
1
 76
1
 98
0
  0
LWPOLYLINE
  5
135
330
17
100
AcDbEntity
  8
WALL
100
AcDbPolyline
 90
4
 70
1
 10
2977.5
 20
1890.0
 10
2981.25
 20
1890.0
 10
2981.25
 20
1845.0
 10
2977.5
 20
1845.0
  0
HATCH
  5
136
330
17
100
AcDbEntity
  8
WALL
100
AcDbHatch
 10
0.0
 20
0.0
 30
0.0
210
0.0
220
0.0
230
1.0
  2
SOLID
 70
1
 71
0
 91
1
 92
3
 72
0
 73
1
 93
4
 10
2977.5
 20
1890.0
 10
2981.25
 20
1890.0
 10
2981.25
 20
1845.0
 10
2977.5
 20
1845.0
 97
0
 75
1
 76
1
 98
0
  0
LWPOLYLINE
  5
137
330
17
100
AcDbEntity
  8
WALL
100
AcDbPolyline
 90
4
 70
1
 10
2640.0
 20
1863.75
 10
2670.0
 20
1863.75
 10
2670.0
 20
1743.75
 10
2640.0
 20
1743.75
  0
HATCH
  5
138
330
17
100
AcDbEntity
  8
WALL
100
AcDbHatch
 10
0.0
 20
0.0
 30
0.0
210
0.0
220
0.0
230
1.0
  2
SOLID
 70
1
 71
0
 91
1
 92
3
 72
0
 73
1
 93
4
 10
2640.0
 20
1863.75
 10
2670.0
 20
1863.75
 10
2670.0
 20
1743.75
 10
2640.0
 20
1743.75
 97
0
 75
1
 76
1
 98
0
  0
LWPOLYLINE
  5
139
330
17
100
AcDbEntity
  8
WALL
100
AcDbPolyline
 90
4
 70
1
 10
435.0
 20
1860.0
 10
438.75
 20
1860.0
 10
438.75
 20
1803.75
 10
435.0
 20
1803.75
  0
HATCH
  5
13A
330
17
100
AcDbEntity
  8
WALL
100
AcDbHatch
 10
0.0
 20
0.0
 30
0.0
210
0.0
220
0.0
230
1.0
  2
SOLID
 70
1
 71
0
 91
1
 92
3
 72
0
 73
1
 93
4
 10
435.0
 20
1860.0
 10
438.75
 20
1860.0
 10
438.75
 20
1803.75
 10
435.0
 20
1803.75
 97
0
 75
1
 76
1
 98
0
  0
LWPOLYLINE
  5
13B
330
17
100
AcDbEntity
  8
WALL
100
AcDbPolyline
 90
4
 70
1
 10
2343.75
 20
1833.75
 10
2362.5
 20
1833.75
 10
2362.5
 20
1777.5
 10
2343.75
 20
1777.5
  0
HATCH
  5
13C
330
17
100
AcDbEntity
  8
WALL
100
AcDbHatch
 10
0.0
 20
0.0
 30
0.0
210
0.0
220
0.0
230
1.0
  2
SOLID
 70
1
 71
0
 91
1
 92
3
 72
0
 73
1
 93
4
 10
2343.75
 20
1833.75
 10
2362.5
 20
1833.75
 10
2362.5
 20
1777.5
 10
2343.75
 20
1777.5
 97
0
 75
1
 76
1
 98
0
  0
LWPOLYLINE
  5
13D
330
17
100
AcDbEntity
  8
WALL
100
AcDbPolyline
 90
4
 70
1
 10
397.5
 20
1796.25
 10
405.0
 20
1796.25
 10
405.0
 20
1698.75
 10
397.5
 20
1698.75
  0
HATCH
  5
13E
330
17
100
AcDbEntity
  8
WALL
100
AcDbHatch
 10
0.0
 20
0.0
 30
0.0
210
0.0
220
0.0
230
1.0
  2
SOLID
 70
1
 71
0
 91
1
 92
3
 72
0
 73
1
 93
4
 10
397.5
 20
1796.25
 10
405.0
 20
1796.25
 10
405.0
 20
1698.75
 10
397.5
 20
1698.75
 97
0
 75
1
 76
1
 98
0
  0
LWPOLYLINE
  5
13F
330
17
100
AcDbEntity
  8
WALL
100
AcDbPolyline
 90
4
 70
1
 10
517.5
 20
1792.5
 10
532.5
 20
1792.5
 10
532.5
 20
1698.75
 10
517.5
 20
1698.75
  0
HATCH
  5
140
330
17
100
AcDbEntity
  8
WALL
100
AcDbHatch
 10
0.0
 20
0.0
 30
0.0
210
0.0
220
0.0
230
1.0
  2
SOLID
 70
1
 71
0
 91
1
 92
3
 72
0
 73
1
 93
4
 10
517.5
 20
1792.5
 10
532.5
 20
1792.5
 10
532.5
 20
1698.75
 10
517.5
 20
1698.75
 97
0
 75
1
 76
1
 98
0
  0
LWPOLYLINE
  5
141
330
17
100
AcDbEntity
  8
WALL
100
AcDbPolyline
 90
4
 70
1
 10
412.5
 20
1766.25
 10
420.0
 20
1766.25
 10
420.0
 20
1706.25
 10
412.5
 20
1706.25
  0
HATCH
  5
142
330
17
100
AcDbEntity
  8
WALL
100
AcDbHatch
 10
0.0
 20
0.0
 30
0.0
210
0.0
220
0.0
230
1.0
  2
SOLID
 70
1
 71
0
 91
1
 92
3
 72
0
 73
1
 93
4
 10
412.5
 20
1766.25
 10
420.0
 20
1766.25
 10
420.0
 20
1706.25
 10
412.5
 20
1706.25
 97
0
 75
1
 76
1
 98
0
  0
LWPOLYLINE
  5
143
330
17
100
AcDbEntity
  8
WALL
100
AcDbPolyline
 90
4
 70
1
 10
427.5
 20
1766.25
 10
435.0
 20
1766.25
 10
435.0
 20
1706.25
 10
427.5
 20
1706.25
  0
HATCH
  5
144
330
17
100
AcDbEntity
  8
WALL
100
AcDbHatch
 10
0.0
 20
0.0
 30
0.0
210
0.0
220
0.0
230
1.0
  2
SOLID
 70
1
 71
0
 91
1
 92
3
 72
0
 73
1
 93
4
 10
427.5
 20
1766.25
 10
435.0
 20
1766.25
 10
435.0
 20
1706.25
 10
427.5
 20
1706.25
 97
0
 75
1
 76
1
 98
0
  0
LWPOLYLINE
  5
145
330
17
100
AcDbEntity
  8
WALL
100
AcDbPolyline
 90
4
 70
1
 10
2332.5
 20
1721.25
 10
2351.25
 20
1721.25
 10
2351.25
 20
1661.25
 10
2332.5
 20
1661.25
  0
HATCH
  5
146
330
17
100
AcDbEntity
  8
WALL
100
AcDbHatch
 10
0.0
 20
0.0
 30
0.0
210
0.0
220
0.0
230
1.0
  2
SOLID
 70
1
 71
0
 91
1
 92
3
 72
0
 73
1
 93
4
 10
2332.5
 20
1721.25
 10
2351.25
 20
1721.25
 10
2351.25
 20
1661.25
 10
2332.5
 20
1661.25
 97
0
 75
1
 76
1
 98
0
  0
LWPOLYLINE
  5
147
330
17
100
AcDbEntity
  8
WALL
100
AcDbPolyline
 90
4
 70
1
 10
517.5
 20
1687.5
 10
525.0
 20
1687.5
 10
525.0
 20
1638.75
 10
517.5
 20
1638.75
  0
HATCH
  5
148
330
17
100
AcDbEntity
  8
WALL
100
AcDbHatch
 10
0.0
 20
0.0
 30
0.0
210
0.0
220
0.0
230
1.0
  2
SOLID
 70
1
 71
0
 91
1
 92
3
 72
0
 73
1
 93
4
 10
517.5
 20
1687.5
 10
525.0
 20
1687.5
 10
525.0
 20
1638.75
 10
517.5
 20
1638.75
 97
0
 75
1
 76
1
 98
0
  0
LWPOLYLINE
  5
149
330
17
100
AcDbEntity
  8
WALL
100
AcDbPolyline
 90
4
 70
1
 10
2557.5
 20
1683.75
 10
2595.0
 20
1683.75
 10
2595.0
 20
1353.75
 10
2557.5
 20
1353.75
  0
HATCH
  5
14A
330
17
100
AcDbEntity
  8
WALL
100
AcDbHatch
 10
0.0
 20
0.0
 30
0.0
210
0.0
220
0.0
230
1.0
  2
SOLID
 70
1
 71
0
 91
1
 92
3
 72
0
 73
1
 93
4
 10
2557.5
 20
1683.75
 10
2595.0
 20
1683.75
 10
2595.0
 20
1353.75
 10
2557.5
 20
1353.75
 97
0
 75
1
 76
1
 98
0
  0
LWPOLYLINE
  5
14B
330
17
100
AcDbEntity
  8
WALL
100
AcDbPolyline
 90
4
 70
1
 10
502.5
 20
1676.25
 10
510.0
 20
1676.25
 10
510.0
 20
1620.0
 10
502.5
 20
1620.0
  0
HATCH
  5
14C
330
17
100
AcDbEntity
  8
WALL
100
AcDbHatch
 10
0.0
 20
0.0
 30
0.0
210
0.0
220
0.0
230
1.0
  2
SOLID
 70
1
 71
0
 91
1
 92
3
 72
0
 73
1
 93
4
 10
502.5
 20
1676.25
 10
510.0
 20
1676.25
 10
510.0
 20
1620.0
 10
502.5
 20
1620.0
 97
0
 75
1
 76
1
 98
0
  0
LWPOLYLINE
  5
14D
330
17
100
AcDbEntity
  8
WALL
100
AcDbPolyline
 90
4
 70
1
 10
2332.5
 20
1665.0
 10
2362.5
 20
1665.0
 10
2362.5
 20
1443.75
 10
2332.5
 20
1443.75
  0
HATCH
  5
14E
330
17
100
AcDbEntity
  8
WALL
100
AcDbHatch
 10
0.0
 20
0.0
 30
0.0
210
0.0
220
0.0
230
1.0
  2
SOLID
 70
1
 71
0
 91
1
 92
3
 72
0
 73
1
 93
4
 10
2332.5
 20
1665.0
 10
2362.5
 20
1665.0
 10
2362.5
 20
1443.75
 10
2332.5
 20
1443.75
 97
0
 75
1
 76
1
 98
0
  0
LWPOLYLINE
  5
14F
330
17
100
AcDbEntity
  8
WALL
100
AcDbPolyline
 90
4
 70
1
 10
491.25
 20
1653.75
 10
495.0
 20
1653.75
 10
495.0
 20
1597.5
 10
491.25
 20
1597.5
  0
HATCH
  5
150
330
17
100
AcDbEntity
  8
WALL
100
AcDbHatch
 10
0.0
 20
0.0
 30
0.0
210
0.0
220
0.0
230
1.0
  2
SOLID
 70
1
 71
0
 91
1
 92
3
 72
0
 73
1
 93
4
 10
491.25
 20
1653.75
 10
495.0
 20
1653.75
 10
495.0
 20
1597.5
 10
491.25
 20
1597.5
 97
0
 75
1
 76
1
 98
0
  0
LWPOLYLINE
  5
151
330
17
100
AcDbEntity
  8
WALL
100
AcDbPolyline
 90
4
 70
1
 10
900.0
 20
1657.5
 10
903.75
 20
1657.5
 10
903.75
 20
1601.25
 10
900.0
 20
1601.25
  0
HATCH
  5
152
330
17
100
AcDbEntity
  8
WALL
100
AcDbHatch
 10
0.0
 20
0.0
 30
0.0
210
0.0
220
0.0
230
1.0
  2
SOLID
 70
1
 71
0
 91
1
 92
3
 72
0
 73
1
 93
4
 10
900.0
 20
1657.5
 10
903.75
 20
1657.5
 10
903.75
 20
1601.25
 10
900.0
 20
1601.25
 97
0
 75
1
 76
1
 98
0
  0
LWPOLYLINE
  5
153
330
17
100
AcDbEntity
  8
WALL
100
AcDbPolyline
 90
4
 70
1
 10
881.25
 20
1623.75
 10
892.5
 20
1623.75
 10
892.5
 20
1563.75
 10
881.25
 20
1563.75
  0
HATCH
  5
154
330
17
100
AcDbEntity
  8
WALL
100
AcDbHatch
 10
0.0
 20
0.0
 30
0.0
210
0.0
220
0.0
230
1.0
  2
SOLID
 70
1
 71
0
 91
1
 92
3
 72
0
 73
1
 93
4
 10
881.25
 20
1623.75
 10
892.5
 20
1623.75
 10
892.5
 20
1563.75
 10
881.25
 20
1563.75
 97
0
 75
1
 76
1
 98
0
  0
LWPOLYLINE
  5
155
330
17
100
AcDbEntity
  8
WALL
100
AcDbPolyline
 90
4
 70
1
 10
2302.5
 20
1616.25
 10
2325.0
 20
1616.25
 10
2325.0
 20
1368.75
 10
2302.5
 20
1368.75
  0
HATCH
  5
156
330
17
100
AcDbEntity
  8
WALL
100
AcDbHatch
 10
0.0
 20
0.0
 30
0.0
210
0.0
220
0.0
230
1.0
  2
SOLID
 70
1
 71
0
 91
1
 92
3
 72
0
 73
1
 93
4
 10
2302.5
 20
1616.25
 10
2325.0
 20
1616.25
 10
2325.0
 20
1368.75
 10
2302.5
 20
1368.75
 97
0
 75
1
 76
1
 98
0
  0
LWPOLYLINE
  5
157
330
17
100
AcDbEntity
  8
WALL
100
AcDbPolyline
 90
4
 70
1
 10
2921.25
 20
1597.5
 10
2925.0
 20
1597.5
 10
2925.0
 20
1530.0
 10
2921.25
 20
1530.0
  0
HATCH
  5
158
330
17
100
AcDbEntity
  8
WALL
100
AcDbHatch
 10
0.0
 20
0.0
 30
0.0
210
0.0
220
0.0
230
1.0
  2
SOLID
 70
1
 71
0
 91
1
 92
3
 72
0
 73
1
 93
4
 10
2921.25
 20
1597.5
 10
2925.0
 20
1597.5
 10
2925.0
 20
1530.0
 10
2921.25
 20
1530.0
 97
0
 75
1
 76
1
 98
0
  0
LWPOLYLINE
  5
159
330
17
100
AcDbEntity
  8
WALL
100
AcDbPolyline
 90
4
 70
1
 10
2955.0
 20
1586.25
 10
2962.5
 20
1586.25
 10
2962.5
 20
1533.75
 10
2955.0
 20
1533.75
  0
HATCH
  5
15A
330
17
100
AcDbEntity
  8
WALL
100
AcDbHatch
 10
0.0
 20
0.0
 30
0.0
210
0.0
220
0.0
230
1.0
  2
SOLID
 70
1
 71
0
 91
1
 92
3
 72
0
 73
1
 93
4
 10
2955.0
 20
1586.25
 10
2962.5
 20
1586.25
 10
2962.5
 20
1533.75
 10
2955.0
 20
1533.75
 97
0
 75
1
 76
1
 98
0
  0
LWPOLYLINE
  5
15B
330
17
100
AcDbEntity
  8
WALL
100
AcDbPolyline
 90
4
 70
1
 10
2977.5
 20
1590.0
 10
2981.25
 20
1590.0
 10
2981.25
 20
1545.0
 10
2977.5
 20
1545.0
  0
HATCH
  5
15C
330
17
100
AcDbEntity
  8
WALL
100
AcDbHatch
 10
0.0
 20
0.0
 30
0.0
210
0.0
220
0.0
230
1.0
  2
SOLID
 70
1
 71
0
 91
1
 92
3
 72
0
 73
1
 93
4
 10
2977.5
 20
1590.0
 10
2981.25
 20
1590.0
 10
2981.25
 20
1545.0
 10
2977.5
 20
1545.0
 97
0
 75
1
 76
1
 98
0
  0
LWPOLYLINE
  5
15D
330
17
100
AcDbEntity
  8
WALL
100
AcDbPolyline
 90
4
 70
1
 10
622.5
 20
1556.25
 10
637.5
 20
1556.25
 10
637.5
 20
1462.5
 10
622.5
 20
1462.5
  0
HATCH
  5
15E
330
17
100
AcDbEntity
  8
WALL
100
AcDbHatch
 10
0.0
 20
0.0
 30
0.0
210
0.0
220
0.0
230
1.0
  2
SOLID
 70
1
 71
0
 91
1
 92
3
 72
0
 73
1
 93
4
 10
622.5
 20
1556.25
 10
637.5
 20
1556.25
 10
637.5
 20
1462.5
 10
622.5
 20
1462.5
 97
0
 75
1
 76
1
 98
0
  0
LWPOLYLINE
  5
15F
330
17
100
AcDbEntity
  8
WALL
100
AcDbPolyline
 90
4
 70
1
 10
2921.25
 20
1500.0
 10
2925.0
 20
1500.0
 10
2925.0
 20
1410.0
 10
2921.25
 20
1410.0
  0
HATCH
  5
160
330
17
100
AcDbEntity
  8
WALL
100
AcDbHatch
 10
0.0
 20
0.0
 30
0.0
210
0.0
220
0.0
230
1.0
  2
SOLID
 70
1
 71
0
 91
1
 92
3
 72
0
 73
1
 93
4
 10
2921.25
 20
1500.0
 10
2925.0
 20
1500.0
 10
2925.0
 20
1410.0
 10
2921.25
 20
1410.0
 97
0
 75
1
 76
1
 98
0
  0
LWPOLYLINE
  5
161
330
17
100
AcDbEntity
  8
WALL
100
AcDbPolyline
 90
4
 70
1
 10
2947.5
 20
1413.75
 10
2962.5
 20
1413.75
 10
2962.5
 20
1331.25
 10
2947.5
 20
1331.25
  0
HATCH
  5
162
330
17
100
AcDbEntity
  8
WALL
100
AcDbHatch
 10
0.0
 20
0.0
 30
0.0
210
0.0
220
0.0
230
1.0
  2
SOLID
 70
1
 71
0
 91
1
 92
3
 72
0
 73
1
 93
4
 10
2947.5
 20
1413.75
 10
2962.5
 20
1413.75
 10
2962.5
 20
1331.25
 10
2947.5
 20
1331.25
 97
0
 75
1
 76
1
 98
0
  0
LWPOLYLINE
  5
163
330
17
100
AcDbEntity
  8
WALL
100
AcDbPolyline
 90
4
 70
1
 10
97.5
 20
1402.5
 10
127.5
 20
1402.5
 10
127.5
 20
1305.0
 10
97.5
 20
1305.0
  0
HATCH
  5
164
330
17
100
AcDbEntity
  8
WALL
100
AcDbHatch
 10
0.0
 20
0.0
 30
0.0
210
0.0
220
0.0
230
1.0
  2
SOLID
 70
1
 71
0
 91
1
 92
3
 72
0
 73
1
 93
4
 10
97.5
 20
1402.5
 10
127.5
 20
1402.5
 10
127.5
 20
1305.0
 10
97.5
 20
1305.0
 97
0
 75
1
 76
1
 98
0
  0
LWPOLYLINE
  5
165
330
17
100
AcDbEntity
  8
WALL
100
AcDbPolyline
 90
4
 70
1
 10
150.0
 20
1395.0
 10
165.0
 20
1395.0
 10
165.0
 20
1335.0
 10
150.0
 20
1335.0
  0
HATCH
  5
166
330
17
100
AcDbEntity
  8
WALL
100
AcDbHatch
 10
0.0
 20
0.0
 30
0.0
210
0.0
220
0.0
230
1.0
  2
SOLID
 70
1
 71
0
 91
1
 92
3
 72
0
 73
1
 93
4
 10
150.0
 20
1395.0
 10
165.0
 20
1395.0
 10
165.0
 20
1335.0
 10
150.0
 20
1335.0
 97
0
 75
1
 76
1
 98
0
  0
LWPOLYLINE
  5
167
330
17
100
AcDbEntity
  8
WALL
100
AcDbPolyline
 90
4
 70
1
 10
390.0
 20
1391.25
 10
412.5
 20
1391.25
 10
412.5
 20
1263.75
 10
390.0
 20
1263.75
  0
HATCH
  5
168
330
17
100
AcDbEntity
  8
WALL
100
AcDbHatch
 10
0.0
 20
0.0
 30
0.0
210
0.0
220
0.0
230
1.0
  2
SOLID
 70
1
 71
0
 91
1
 92
3
 72
0
 73
1
 93
4
 10
390.0
 20
1391.25
 10
412.5
 20
1391.25
 10
412.5
 20
1263.75
 10
390.0
 20
1263.75
 97
0
 75
1
 76
1
 98
0
  0
LWPOLYLINE
  5
169
330
17
100
AcDbEntity
  8
WALL
100
AcDbPolyline
 90
4
 70
1
 10
206.25
 20
1383.75
 10
225.0
 20
1383.75
 10
225.0
 20
1271.25
 10
206.25
 20
1271.25
  0
HATCH
  5
16A
330
17
100
AcDbEntity
  8
WALL
100
AcDbHatch
 10
0.0
 20
0.0
 30
0.0
210
0.0
220
0.0
230
1.0
  2
SOLID
 70
1
 71
0
 91
1
 92
3
 72
0
 73
1
 93
4
 10
206.25
 20
1383.75
 10
225.0
 20
1383.75
 10
225.0
 20
1271.25
 10
206.25
 20
1271.25
 97
0
 75
1
 76
1
 98
0
  0
LWPOLYLINE
  5
16B
330
17
100
AcDbEntity
  8
WALL
100
AcDbPolyline
 90
4
 70
1
 10
573.75
 20
1335.0
 10
577.5
 20
1335.0
 10
577.5
 20
1286.25
 10
573.75
 20
1286.25
  0
HATCH
  5
16C
330
17
100
AcDbEntity
  8
WALL
100
AcDbHatch
 10
0.0
 20
0.0
 30
0.0
210
0.0
220
0.0
230
1.0
  2
SOLID
 70
1
 71
0
 91
1
 92
3
 72
0
 73
1
 93
4
 10
573.75
 20
1335.0
 10
577.5
 20
1335.0
 10
577.5
 20
1286.25
 10
573.75
 20
1286.25
 97
0
 75
1
 76
1
 98
0
  0
LWPOLYLINE
  5
16D
330
17
100
AcDbEntity
  8
WALL
100
AcDbPolyline
 90
4
 70
1
 10
2475.0
 20
1331.25
 10
2493.75
 20
1331.25
 10
2493.75
 20
1252.5
 10
2475.0
 20
1252.5
  0
HATCH
  5
16E
330
17
100
AcDbEntity
  8
WALL
100
AcDbHatch
 10
0.0
 20
0.0
 30
0.0
210
0.0
220
0.0
230
1.0
  2
SOLID
 70
1
 71
0
 91
1
 92
3
 72
0
 73
1
 93
4
 10
2475.0
 20
1331.25
 10
2493.75
 20
1331.25
 10
2493.75
 20
1252.5
 10
2475.0
 20
1252.5
 97
0
 75
1
 76
1
 98
0
  0
LWPOLYLINE
  5
16F
330
17
100
AcDbEntity
  8
WALL
100
AcDbPolyline
 90
4
 70
1
 10
2505.0
 20
1331.25
 10
2531.25
 20
1331.25
 10
2531.25
 20
1241.25
 10
2505.0
 20
1241.25
  0
HATCH
  5
170
330
17
100
AcDbEntity
  8
WALL
100
AcDbHatch
 10
0.0
 20
0.0
 30
0.0
210
0.0
220
0.0
230
1.0
  2
SOLID
 70
1
 71
0
 91
1
 92
3
 72
0
 73
1
 93
4
 10
2505.0
 20
1331.25
 10
2531.25
 20
1331.25
 10
2531.25
 20
1241.25
 10
2505.0
 20
1241.25
 97
0
 75
1
 76
1
 98
0
  0
LWPOLYLINE
  5
171
330
17
100
AcDbEntity
  8
WALL
100
AcDbPolyline
 90
4
 70
1
 10
1515.0
 20
1327.5
 10
1537.5
 20
1327.5
 10
1537.5
 20
1267.5
 10
1515.0
 20
1267.5
  0
HATCH
  5
172
330
17
100
AcDbEntity
  8
WALL
100
AcDbHatch
 10
0.0
 20
0.0
 30
0.0
210
0.0
220
0.0
230
1.0
  2
SOLID
 70
1
 71
0
 91
1
 92
3
 72
0
 73
1
 93
4
 10
1515.0
 20
1327.5
 10
1537.5
 20
1327.5
 10
1537.5
 20
1267.5
 10
1515.0
 20
1267.5
 97
0
 75
1
 76
1
 98
0
  0
LWPOLYLINE
  5
173
330
17
100
AcDbEntity
  8
WALL
100
AcDbPolyline
 90
4
 70
1
 10
885.0
 20
1293.75
 10
915.0
 20
1293.75
 10
915.0
 20
791.25
 10
885.0
 20
791.25
  0
HATCH
  5
174
330
17
100
AcDbEntity
  8
WALL
100
AcDbHatch
 10
0.0
 20
0.0
 30
0.0
210
0.0
220
0.0
230
1.0
  2
SOLID
 70
1
 71
0
 91
1
 92
3
 72
0
 73
1
 93
4
 10
885.0
 20
1293.75
 10
915.0
 20
1293.75
 10
915.0
 20
791.25
 10
885.0
 20
791.25
 97
0
 75
1
 76
1
 98
0
  0
LWPOLYLINE
  5
175
330
17
100
AcDbEntity
  8
WALL
100
AcDbPolyline
 90
4
 70
1
 10
1237.5
 20
1293.75
 10
1267.5
 20
1293.75
 10
1267.5
 20
776.25
 10
1237.5
 20
776.25
  0
HATCH
  5
176
330
17
100
AcDbEntity
  8
WALL
100
AcDbHatch
 10
0.0
 20
0.0
 30
0.0
210
0.0
220
0.0
230
1.0
  2
SOLID
 70
1
 71
0
 91
1
 92
3
 72
0
 73
1
 93
4
 10
1237.5
 20
1293.75
 10
1267.5
 20
1293.75
 10
1267.5
 20
776.25
 10
1237.5
 20
776.25
 97
0
 75
1
 76
1
 98
0
  0
LWPOLYLINE
  5
177
330
17
100
AcDbEntity
  8
WALL
100
AcDbPolyline
 90
4
 70
1
 10
97.5
 20
1252.5
 10
108.75
 20
1252.5
 10
108.75
 20
1106.25
 10
97.5
 20
1106.25
  0
HATCH
  5
178
330
17
100
AcDbEntity
  8
WALL
100
AcDbHatch
 10
0.0
 20
0.0
 30
0.0
210
0.0
220
0.0
230
1.0
  2
SOLID
 70
1
 71
0
 91
1
 92
3
 72
0
 73
1
 93
4
 10
97.5
 20
1252.5
 10
108.75
 20
1252.5
 10
108.75
 20
1106.25
 10
97.5
 20
1106.25
 97
0
 75
1
 76
1
 98
0
  0
LWPOLYLINE
  5
179
330
17
100
AcDbEntity
  8
WALL
100
AcDbPolyline
 90
4
 70
1
 10
783.75
 20
1196.25
 10
795.0
 20
1196.25
 10
795.0
 20
1098.75
 10
783.75
 20
1098.75
  0
HATCH
  5
17A
330
17
100
AcDbEntity
  8
WALL
100
AcDbHatch
 10
0.0
 20
0.0
 30
0.0
210
0.0
220
0.0
230
1.0
  2
SOLID
 70
1
 71
0
 91
1
 92
3
 72
0
 73
1
 93
4
 10
783.75
 20
1196.25
 10
795.0
 20
1196.25
 10
795.0
 20
1098.75
 10
783.75
 20
1098.75
 97
0
 75
1
 76
1
 98
0
  0
LWPOLYLINE
  5
17B
330
17
100
AcDbEntity
  8
WALL
100
AcDbPolyline
 90
4
 70
1
 10
157.5
 20
1185.0
 10
165.0
 20
1185.0
 10
165.0
 20
1125.0
 10
157.5
 20
1125.0
  0
HATCH
  5
17C
330
17
100
AcDbEntity
  8
WALL
100
AcDbHatch
 10
0.0
 20
0.0
 30
0.0
210
0.0
220
0.0
230
1.0
  2
SOLID
 70
1
 71
0
 91
1
 92
3
 72
0
 73
1
 93
4
 10
157.5
 20
1185.0
 10
165.0
 20
1185.0
 10
165.0
 20
1125.0
 10
157.5
 20
1125.0
 97
0
 75
1
 76
1
 98
0
  0
LWPOLYLINE
  5
17D
330
17
100
AcDbEntity
  8
WALL
100
AcDbPolyline
 90
4
 70
1
 10
2400.0
 20
971.25
 10
2403.75
 20
971.25
 10
2403.75
 20
903.75
 10
2400.0
 20
903.75
  0
HATCH
  5
17E
330
17
100
AcDbEntity
  8
WALL
100
AcDbHatch
 10
0.0
 20
0.0
 30
0.0
210
0.0
220
0.0
230
1.0
  2
SOLID
 70
1
 71
0
 91
1
 92
3
 72
0
 73
1
 93
4
 10
2400.0
 20
971.25
 10
2403.75
 20
971.25
 10
2403.75
 20
903.75
 10
2400.0
 20
903.75
 97
0
 75
1
 76
1
 98
0
  0
LWPOLYLINE
  5
17F
330
17
100
AcDbEntity
  8
WALL
100
AcDbPolyline
 90
4
 70
1
 10
2385.0
 20
963.75
 10
2396.25
 20
963.75
 10
2396.25
 20
855.0
 10
2385.0
 20
855.0
  0
HATCH
  5
180
330
17
100
AcDbEntity
  8
WALL
100
AcDbHatch
 10
0.0
 20
0.0
 30
0.0
210
0.0
220
0.0
230
1.0
  2
SOLID
 70
1
 71
0
 91
1
 92
3
 72
0
 73
1
 93
4
 10
2385.0
 20
963.75
 10
2396.25
 20
963.75
 10
2396.25
 20
855.0
 10
2385.0
 20
855.0
 97
0
 75
1
 76
1
 98
0
  0
LWPOLYLINE
  5
181
330
17
100
AcDbEntity
  8
WALL
100
AcDbPolyline
 90
4
 70
1
 10
2205.0
 20
956.25
 10
2212.5
 20
956.25
 10
2212.5
 20
903.75
 10
2205.0
 20
903.75
  0
HATCH
  5
182
330
17
100
AcDbEntity
  8
WALL
100
AcDbHatch
 10
0.0
 20
0.0
 30
0.0
210
0.0
220
0.0
230
1.0
  2
SOLID
 70
1
 71
0
 91
1
 92
3
 72
0
 73
1
 93
4
 10
2205.0
 20
956.25
 10
2212.5
 20
956.25
 10
2212.5
 20
903.75
 10
2205.0
 20
903.75
 97
0
 75
1
 76
1
 98
0
  0
LWPOLYLINE
  5
183
330
17
100
AcDbEntity
  8
WALL
100
AcDbPolyline
 90
4
 70
1
 10
780.0
 20
952.5
 10
795.0
 20
952.5
 10
795.0
 20
858.75
 10
780.0
 20
858.75
  0
HATCH
  5
184
330
17
100
AcDbEntity
  8
WALL
100
AcDbHatch
 10
0.0
 20
0.0
 30
0.0
210
0.0
220
0.0
230
1.0
  2
SOLID
 70
1
 71
0
 91
1
 92
3
 72
0
 73
1
 93
4
 10
780.0
 20
952.5
 10
795.0
 20
952.5
 10
795.0
 20
858.75
 10
780.0
 20
858.75
 97
0
 75
1
 76
1
 98
0
  0
LWPOLYLINE
  5
185
330
17
100
AcDbEntity
  8
WALL
100
AcDbPolyline
 90
4
 70
1
 10
2220.0
 20
941.25
 10
2235.0
 20
941.25
 10
2235.0
 20
873.75
 10
2220.0
 20
873.75
  0
HATCH
  5
186
330
17
100
AcDbEntity
  8
WALL
100
AcDbHatch
 10
0.0
 20
0.0
 30
0.0
210
0.0
220
0.0
230
1.0
  2
SOLID
 70
1
 71
0
 91
1
 92
3
 72
0
 73
1
 93
4
 10
2220.0
 20
941.25
 10
2235.0
 20
941.25
 10
2235.0
 20
873.75
 10
2220.0
 20
873.75
 97
0
 75
1
 76
1
 98
0
  0
LWPOLYLINE
  5
187
330
17
100
AcDbEntity
  8
WALL
100
AcDbPolyline
 90
4
 70
1
 10
2261.25
 20
930.0
 10
2265.0
 20
930.0
 10
2265.0
 20
885.0
 10
2261.25
 20
885.0
  0
HATCH
  5
188
330
17
100
AcDbEntity
  8
WALL
100
AcDbHatch
 10
0.0
 20
0.0
 30
0.0
210
0.0
220
0.0
230
1.0
  2
SOLID
 70
1
 71
0
 91
1
 92
3
 72
0
 73
1
 93
4
 10
2261.25
 20
930.0
 10
2265.0
 20
930.0
 10
2265.0
 20
885.0
 10
2261.25
 20
885.0
 97
0
 75
1
 76
1
 98
0
  0
LWPOLYLINE
  5
189
330
17
100
AcDbEntity
  8
WALL
100
AcDbPolyline
 90
4
 70
1
 10
2310.0
 20
866.25
 10
2325.0
 20
866.25
 10
2325.0
 20
806.25
 10
2310.0
 20
806.25
  0
HATCH
  5
18A
330
17
100
AcDbEntity
  8
WALL
100
AcDbHatch
 10
0.0
 20
0.0
 30
0.0
210
0.0
220
0.0
230
1.0
  2
SOLID
 70
1
 71
0
 91
1
 92
3
 72
0
 73
1
 93
4
 10
2310.0
 20
866.25
 10
2325.0
 20
866.25
 10
2325.0
 20
806.25
 10
2310.0
 20
806.25
 97
0
 75
1
 76
1
 98
0
  0
LWPOLYLINE
  5
18B
330
17
100
AcDbEntity
  8
WALL
100
AcDbPolyline
 90
4
 70
1
 10
888.75
 20
843.75
 10
892.5
 20
843.75
 10
892.5
 20
791.25
 10
888.75
 20
791.25
  0
HATCH
  5
18C
330
17
100
AcDbEntity
  8
WALL
100
AcDbHatch
 10
0.0
 20
0.0
 30
0.0
210
0.0
220
0.0
230
1.0
  2
SOLID
 70
1
 71
0
 91
1
 92
3
 72
0
 73
1
 93
4
 10
888.75
 20
843.75
 10
892.5
 20
843.75
 10
892.5
 20
791.25
 10
888.75
 20
791.25
 97
0
 75
1
 76
1
 98
0
  0
LWPOLYLINE
  5
18D
330
17
100
AcDbEntity
  8
WALL
100
AcDbPolyline
 90
4
 70
1
 10
2947.5
 20
847.5
 10
2966.25
 20
847.5
 10
2966.25
 20
723.75
 10
2947.5
 20
723.75
  0
HATCH
  5
18E
330
17
100
AcDbEntity
  8
WALL
100
AcDbHatch
 10
0.0
 20
0.0
 30
0.0
210
0.0
220
0.0
230
1.0
  2
SOLID
 70
1
 71
0
 91
1
 92
3
 72
0
 73
1
 93
4
 10
2947.5
 20
847.5
 10
2966.25
 20
847.5
 10
2966.25
 20
723.75
 10
2947.5
 20
723.75
 97
0
 75
1
 76
1
 98
0
  0
LWPOLYLINE
  5
18F
330
17
100
AcDbEntity
  8
WALL
100
AcDbPolyline
 90
4
 70
1
 10
2970.0
 20
787.5
 10
2985.0
 20
787.5
 10
2985.0
 20
697.5
 10
2970.0
 20
697.5
  0
HATCH
  5
190
330
17
100
AcDbEntity
  8
WALL
100
AcDbHatch
 10
0.0
 20
0.0
 30
0.0
210
0.0
220
0.0
230
1.0
  2
SOLID
 70
1
 71
0
 91
1
 92
3
 72
0
 73
1
 93
4
 10
2970.0
 20
787.5
 10
2985.0
 20
787.5
 10
2985.0
 20
697.5
 10
2970.0
 20
697.5
 97
0
 75
1
 76
1
 98
0
  0
LWPOLYLINE
  5
191
330
17
100
AcDbEntity
  8
WALL
100
AcDbPolyline
 90
4
 70
1
 10
2805.0
 20
776.25
 10
2820.0
 20
776.25
 10
2820.0
 20
716.25
 10
2805.0
 20
716.25
  0
HATCH
  5
192
330
17
100
AcDbEntity
  8
WALL
100
AcDbHatch
 10
0.0
 20
0.0
 30
0.0
210
0.0
220
0.0
230
1.0
  2
SOLID
 70
1
 71
0
 91
1
 92
3
 72
0
 73
1
 93
4
 10
2805.0
 20
776.25
 10
2820.0
 20
776.25
 10
2820.0
 20
716.25
 10
2805.0
 20
716.25
 97
0
 75
1
 76
1
 98
0
  0
LWPOLYLINE
  5
193
330
17
100
AcDbEntity
  8
WALL
100
AcDbPolyline
 90
4
 70
1
 10
2973.75
 20
682.5
 10
2985.0
 20
682.5
 10
2985.0
 20
630.0
 10
2973.75
 20
630.0
  0
HATCH
  5
194
330
17
100
AcDbEntity
  8
WALL
100
AcDbHatch
 10
0.0
 20
0.0
 30
0.0
210
0.0
220
0.0
230
1.0
  2
SOLID
 70
1
 71
0
 91
1
 92
3
 72
0
 73
1
 93
4
 10
2973.75
 20
682.5
 10
2985.0
 20
682.5
 10
2985.0
 20
630.0
 10
2973.75
 20
630.0
 97
0
 75
1
 76
1
 98
0
  0
LWPOLYLINE
  5
195
330
17
100
AcDbEntity
  8
WALL
100
AcDbPolyline
 90
4
 70
1
 10
2943.75
 20
663.75
 10
2970.0
 20
663.75
 10
2970.0
 20
423.75
 10
2943.75
 20
423.75
  0
HATCH
  5
196
330
17
100
AcDbEntity
  8
WALL
100
AcDbHatch
 10
0.0
 20
0.0
 30
0.0
210
0.0
220
0.0
230
1.0
  2
SOLID
 70
1
 71
0
 91
1
 92
3
 72
0
 73
1
 93
4
 10
2943.75
 20
663.75
 10
2970.0
 20
663.75
 10
2970.0
 20
423.75
 10
2943.75
 20
423.75
 97
0
 75
1
 76
1
 98
0
  0
LWPOLYLINE
  5
197
330
17
100
AcDbEntity
  8
WALL
100
AcDbPolyline
 90
4
 70
1
 10
2677.5
 20
641.25
 10
2707.5
 20
641.25
 10
2707.5
 20
570.0
 10
2677.5
 20
570.0
  0
HATCH
  5
198
330
17
100
AcDbEntity
  8
WALL
100
AcDbHatch
 10
0.0
 20
0.0
 30
0.0
210
0.0
220
0.0
230
1.0
  2
SOLID
 70
1
 71
0
 91
1
 92
3
 72
0
 73
1
 93
4
 10
2677.5
 20
641.25
 10
2707.5
 20
641.25
 10
2707.5
 20
570.0
 10
2677.5
 20
570.0
 97
0
 75
1
 76
1
 98
0
  0
LWPOLYLINE
  5
199
330
17
100
AcDbEntity
  8
WALL
100
AcDbPolyline
 90
4
 70
1
 10
2928.75
 20
622.5
 10
2932.5
 20
622.5
 10
2932.5
 20
577.5
 10
2928.75
 20
577.5
  0
HATCH
  5
19A
330
17
100
AcDbEntity
  8
WALL
100
AcDbHatch
 10
0.0
 20
0.0
 30
0.0
210
0.0
220
0.0
230
1.0
  2
SOLID
 70
1
 71
0
 91
1
 92
3
 72
0
 73
1
 93
4
 10
2928.75
 20
622.5
 10
2932.5
 20
622.5
 10
2932.5
 20
577.5
 10
2928.75
 20
577.5
 97
0
 75
1
 76
1
 98
0
  0
LWPOLYLINE
  5
19B
330
17
100
AcDbEntity
  8
WALL
100
AcDbPolyline
 90
4
 70
1
 10
1500.0
 20
603.75
 10
1530.0
 20
603.75
 10
1530.0
 20
303.75
 10
1500.0
 20
303.75
  0
HATCH
  5
19C
330
17
100
AcDbEntity
  8
WALL
100
AcDbHatch
 10
0.0
 20
0.0
 30
0.0
210
0.0
220
0.0
230
1.0
  2
SOLID
 70
1
 71
0
 91
1
 92
3
 72
0
 73
1
 93
4
 10
1500.0
 20
603.75
 10
1530.0
 20
603.75
 10
1530.0
 20
303.75
 10
1500.0
 20
303.75
 97
0
 75
1
 76
1
 98
0
  0
LWPOLYLINE
  5
19D
330
17
100
AcDbEntity
  8
WALL
100
AcDbPolyline
 90
4
 70
1
 10
1807.5
 20
603.75
 10
1822.5
 20
603.75
 10
1822.5
 20
303.75
 10
1807.5
 20
303.75
  0
HATCH
  5
19E
330
17
100
AcDbEntity
  8
WALL
100
AcDbHatch
 10
0.0
 20
0.0
 30
0.0
210
0.0
220
0.0
230
1.0
  2
SOLID
 70
1
 71
0
 91
1
 92
3
 72
0
 73
1
 93
4
 10
1807.5
 20
603.75
 10
1822.5
 20
603.75
 10
1822.5
 20
303.75
 10
1807.5
 20
303.75
 97
0
 75
1
 76
1
 98
0
  0
LWPOLYLINE
  5
19F
330
17
100
AcDbEntity
  8
WALL
100
AcDbPolyline
 90
4
 70
1
 10
2715.0
 20
596.25
 10
2737.5
 20
596.25
 10
2737.5
 20
303.75
 10
2715.0
 20
303.75
  0
HATCH
  5
1A0
330
17
100
AcDbEntity
  8
WALL
100
AcDbHatch
 10
0.0
 20
0.0
 30
0.0
210
0.0
220
0.0
230
1.0
  2
SOLID
 70
1
 71
0
 91
1
 92
3
 72
0
 73
1
 93
4
 10
2715.0
 20
596.25
 10
2737.5
 20
596.25
 10
2737.5
 20
303.75
 10
2715.0
 20
303.75
 97
0
 75
1
 76
1
 98
0
  0
LWPOLYLINE
  5
1A1
330
17
100
AcDbEntity
  8
WALL
100
AcDbPolyline
 90
4
 70
1
 10
360.0
 20
573.75
 10
382.5
 20
573.75
 10
382.5
 20
487.5
 10
360.0
 20
487.5
  0
HATCH
  5
1A2
330
17
100
AcDbEntity
  8
WALL
100
AcDbHatch
 10
0.0
 20
0.0
 30
0.0
210
0.0
220
0.0
230
1.0
  2
SOLID
 70
1
 71
0
 91
1
 92
3
 72
0
 73
1
 93
4
 10
360.0
 20
573.75
 10
382.5
 20
573.75
 10
382.5
 20
487.5
 10
360.0
 20
487.5
 97
0
 75
1
 76
1
 98
0
  0
LWPOLYLINE
  5
1A3
330
17
100
AcDbEntity
  8
WALL
100
AcDbPolyline
 90
4
 70
1
 10
450.0
 20
491.25
 10
461.25
 20
491.25
 10
461.25
 20
446.25
 10
450.0
 20
446.25
  0
HATCH
  5
1A4
330
17
100
AcDbEntity
  8
WALL
100
AcDbHatch
 10
0.0
 20
0.0
 30
0.0
210
0.0
220
0.0
230
1.0
  2
SOLID
 70
1
 71
0
 91
1
 92
3
 72
0
 73
1
 93
4
 10
450.0
 20
491.25
 10
461.25
 20
491.25
 10
461.25
 20
446.25
 10
450.0
 20
446.25
 97
0
 75
1
 76
1
 98
0
  0
LWPOLYLINE
  5
1A5
330
17
100
AcDbEntity
  8
WALL
100
AcDbPolyline
 90
4
 70
1
 10
1845.0
 20
487.5
 10
1860.0
 20
487.5
 10
1860.0
 20
315.0
 10
1845.0
 20
315.0
  0
HATCH
  5
1A6
330
17
100
AcDbEntity
  8
WALL
100
AcDbHatch
 10
0.0
 20
0.0
 30
0.0
210
0.0
220
0.0
230
1.0
  2
SOLID
 70
1
 71
0
 91
1
 92
3
 72
0
 73
1
 93
4
 10
1845.0
 20
487.5
 10
1860.0
 20
487.5
 10
1860.0
 20
315.0
 10
1845.0
 20
315.0
 97
0
 75
1
 76
1
 98
0
  0
LWPOLYLINE
  5
1A7
330
17
100
AcDbEntity
  8
WALL
100
AcDbPolyline
 90
4
 70
1
 10
1886.25
 20
465.0
 10
1893.75
 20
465.0
 10
1893.75
 20
412.5
 10
1886.25
 20
412.5
  0
HATCH
  5
1A8
330
17
100
AcDbEntity
  8
WALL
100
AcDbHatch
 10
0.0
 20
0.0
 30
0.0
210
0.0
220
0.0
230
1.0
  2
SOLID
 70
1
 71
0
 91
1
 92
3
 72
0
 73
1
 93
4
 10
1886.25
 20
465.0
 10
1893.75
 20
465.0
 10
1893.75
 20
412.5
 10
1886.25
 20
412.5
 97
0
 75
1
 76
1
 98
0
  0
LWPOLYLINE
  5
1A9
330
17
100
AcDbEntity
  8
WALL
100
AcDbPolyline
 90
4
 70
1
 10
626.25
 20
457.5
 10
637.5
 20
457.5
 10
637.5
 20
360.0
 10
626.25
 20
360.0
  0
HATCH
  5
1AA
330
17
100
AcDbEntity
  8
WALL
100
AcDbHatch
 10
0.0
 20
0.0
 30
0.0
210
0.0
220
0.0
230
1.0
  2
SOLID
 70
1
 71
0
 91
1
 92
3
 72
0
 73
1
 93
4
 10
626.25
 20
457.5
 10
637.5
 20
457.5
 10
637.5
 20
360.0
 10
626.25
 20
360.0
 97
0
 75
1
 76
1
 98
0
  0
LWPOLYLINE
  5
1AB
330
17
100
AcDbEntity
  8
WALL
100
AcDbPolyline
 90
4
 70
1
 10
1350.0
 20
408.75
 10
1365.0
 20
408.75
 10
1365.0
 20
303.75
 10
1350.0
 20
303.75
  0
HATCH
  5
1AC
330
17
100
AcDbEntity
  8
WALL
100
AcDbHatch
 10
0.0
 20
0.0
 30
0.0
210
0.0
220
0.0
230
1.0
  2
SOLID
 70
1
 71
0
 91
1
 92
3
 72
0
 73
1
 93
4
 10
1350.0
 20
408.75
 10
1365.0
 20
408.75
 10
1365.0
 20
303.75
 10
1350.0
 20
303.75
 97
0
 75
1
 76
1
 98
0
  0
LWPOLYLINE
  5
1AD
330
17
100
AcDbEntity
  8
WALL
100
AcDbPolyline
 90
4
 70
1
 10
540.0
 20
393.75
 10
562.5
 20
393.75
 10
562.5
 20
341.25
 10
540.0
 20
341.25
  0
HATCH
  5
1AE
330
17
100
AcDbEntity
  8
WALL
100
AcDbHatch
 10
0.0
 20
0.0
 30
0.0
210
0.0
220
0.0
230
1.0
  2
SOLID
 70
1
 71
0
 91
1
 92
3
 72
0
 73
1
 93
4
 10
540.0
 20
393.75
 10
562.5
 20
393.75
 10
562.5
 20
341.25
 10
540.0
 20
341.25
 97
0
 75
1
 76
1
 98
0
  0
LWPOLYLINE
  5
1AF
330
17
100
AcDbEntity
  8
WALL
100
AcDbPolyline
 90
4
 70
1
 10
2928.75
 20
397.5
 10
2955.0
 20
397.5
 10
2955.0
 20
330.0
 10
2928.75
 20
330.0
  0
HATCH
  5
1B0
330
17
100
AcDbEntity
  8
WALL
100
AcDbHatch
 10
0.0
 20
0.0
 30
0.0
210
0.0
220
0.0
230
1.0
  2
SOLID
 70
1
 71
0
 91
1
 92
3
 72
0
 73
1
 93
4
 10
2928.75
 20
397.5
 10
2955.0
 20
397.5
 10
2955.0
 20
330.0
 10
2928.75
 20
330.0
 97
0
 75
1
 76
1
 98
0
  0
LWPOLYLINE
  5
1B1
330
17
100
AcDbEntity
  8
WALL
100
AcDbPolyline
 90
4
 70
1
 10
1605.0
 20
311.25
 10
1608.75
 20
311.25
 10
1608.75
 20
266.25
 10
1605.0
 20
266.25
  0
HATCH
  5
1B2
330
17
100
AcDbEntity
  8
WALL
100
AcDbHatch
 10
0.0
 20
0.0
 30
0.0
210
0.0
220
0.0
230
1.0
  2
SOLID
 70
1
 71
0
 91
1
 92
3
 72
0
 73
1
 93
4
 10
1605.0
 20
311.25
 10
1608.75
 20
311.25
 10
1608.75
 20
266.25
 10
1605.0
 20
266.25
 97
0
 75
1
 76
1
 98
0
  0
LWPOLYLINE
  5
1B3
330
17
100
AcDbEntity
  8
WALL
100
AcDbPolyline
 90
4
 70
1
 10
2212.5
 20
311.25
 10
2220.0
 20
311.25
 10
2220.0
 20
258.75
 10
2212.5
 20
258.75
  0
HATCH
  5
1B4
330
17
100
AcDbEntity
  8
WALL
100
AcDbHatch
 10
0.0
 20
0.0
 30
0.0
210
0.0
220
0.0
230
1.0
  2
SOLID
 70
1
 71
0
 91
1
 92
3
 72
0
 73
1
 93
4
 10
2212.5
 20
311.25
 10
2220.0
 20
311.25
 10
2220.0
 20
258.75
 10
2212.5
 20
258.75
 97
0
 75
1
 76
1
 98
0
  0
LWPOLYLINE
  5
1B5
330
17
100
AcDbEntity
  8
WALL
100
AcDbPolyline
 90
4
 70
1
 10
2310.0
 20
311.25
 10
2340.0
 20
311.25
 10
2340.0
 20
243.75
 10
2310.0
 20
243.75
  0
HATCH
  5
1B6
330
17
100
AcDbEntity
  8
WALL
100
AcDbHatch
 10
0.0
 20
0.0
 30
0.0
210
0.0
220
0.0
230
1.0
  2
SOLID
 70
1
 71
0
 91
1
 92
3
 72
0
 73
1
 93
4
 10
2310.0
 20
311.25
 10
2340.0
 20
311.25
 10
2340.0
 20
243.75
 10
2310.0
 20
243.75
 97
0
 75
1
 76
1
 98
0
  0
LWPOLYLINE
  5
1B7
330
17
100
AcDbEntity
  8
WALL
100
AcDbPolyline
 90
4
 70
1
 10
2190.0
 20
303.75
 10
2197.5
 20
303.75
 10
2197.5
 20
243.75
 10
2190.0
 20
243.75
  0
HATCH
  5
1B8
330
17
100
AcDbEntity
  8
WALL
100
AcDbHatch
 10
0.0
 20
0.0
 30
0.0
210
0.0
220
0.0
230
1.0
  2
SOLID
 70
1
 71
0
 91
1
 92
3
 72
0
 73
1
 93
4
 10
2190.0
 20
303.75
 10
2197.5
 20
303.75
 10
2197.5
 20
243.75
 10
2190.0
 20
243.75
 97
0
 75
1
 76
1
 98
0
  0
LWPOLYLINE
  5
1B9
330
17
100
AcDbEntity
  8
WALL
100
AcDbPolyline
 90
4
 70
1
 10
2283.75
 20
307.5
 10
2287.5
 20
307.5
 10
2287.5
 20
258.75
 10
2283.75
 20
258.75
  0
HATCH
  5
1BA
330
17
100
AcDbEntity
  8
WALL
100
AcDbHatch
 10
0.0
 20
0.0
 30
0.0
210
0.0
220
0.0
230
1.0
  2
SOLID
 70
1
 71
0
 91
1
 92
3
 72
0
 73
1
 93
4
 10
2283.75
 20
307.5
 10
2287.5
 20
307.5
 10
2287.5
 20
258.75
 10
2283.75
 20
258.75
 97
0
 75
1
 76
1
 98
0
  0
LWPOLYLINE
  5
1BB
330
17
100
AcDbEntity
  8
WALL
100
AcDbPolyline
 90
4
 70
1
 10
2175.0
 20
296.25
 10
2182.5
 20
296.25
 10
2182.5
 20
243.75
 10
2175.0
 20
243.75
  0
HATCH
  5
1BC
330
17
100
AcDbEntity
  8
WALL
100
AcDbHatch
 10
0.0
 20
0.0
 30
0.0
210
0.0
220
0.0
230
1.0
  2
SOLID
 70
1
 71
0
 91
1
 92
3
 72
0
 73
1
 93
4
 10
2175.0
 20
296.25
 10
2182.5
 20
296.25
 10
2182.5
 20
243.75
 10
2175.0
 20
243.75
 97
0
 75
1
 76
1
 98
0
  0
LINE
  5
1BD
330
17
100
AcDbEntity
  8
WINDOW
100
AcDbLine
 10
697.5
 20
2167.5
 30
0.0
 11
765.0
 21
2167.5
 31
0.0
  0
LINE
  5
1BE
330
17
100
AcDbEntity
  8
WINDOW
100
AcDbLine
 10
697.5
 20
2157.5
 30
0.0
 11
765.0
 21
2157.5
 31
0.0
  0
LINE
  5
1BF
330
17
100
AcDbEntity
  8
WINDOW
100
AcDbLine
 10
697.5
 20
2147.5
 30
0.0
 11
765.0
 21
2147.5
 31
0.0
  0
LINE
  5
1C0
330
17
100
AcDbEntity
  8
WINDOW
100
AcDbLine
 10
697.5
 20
2137.5
 30
0.0
 11
765.0
 21
2137.5
 31
0.0
  0
LINE
  5
1C1
330
17
100
AcDbEntity
  8
WINDOW
100
AcDbLine
 10
697.5
 20
2167.5
 30
0.0
 11
697.5
 21
2137.5
 31
0.0
  0
LINE
  5
1C2
330
17
100
AcDbEntity
  8
WINDOW
100
AcDbLine
 10
765.0
 20
2167.5
 30
0.0
 11
765.0
 21
2137.5
 31
0.0
  0
LINE
  5
1C3
330
17
100
AcDbEntity
  8
WINDOW
100
AcDbLine
 10
2358.75
 20
1687.5
 30
0.0
 11
2415.0
 21
1687.5
 31
0.0
  0
LINE
  5
1C4
330
17
100
AcDbEntity
  8
WINDOW
100
AcDbLine
 10
2358.75
 20
1680.0
 30
0.0
 11
2415.0
 21
1680.0
 31
0.0
  0
LINE
  5
1C5
330
17
100
AcDbEntity
  8
WINDOW
100
AcDbLine
 10
2358.75
 20
1672.5
 30
0.0
 11
2415.0
 21
1672.5
 31
0.0
  0
LINE
  5
1C6
330
17
100
AcDbEntity
  8
WINDOW
100
AcDbLine
 10
2358.75
 20
1665.0
 30
0.0
 11
2415.0
 21
1665.0
 31
0.0
  0
LINE
  5
1C7
330
17
100
AcDbEntity
  8
WINDOW
100
AcDbLine
 10
2358.75
 20
1687.5
 30
0.0
 11
2358.75
 21
1665.0
 31
0.0
  0
LINE
  5
1C8
330
17
100
AcDbEntity
  8
WINDOW
100
AcDbLine
 10
2415.0
 20
1687.5
 30
0.0
 11
2415.0
 21
1665.0
 31
0.0
  0
LINE
  5
1C9
330
17
100
AcDbEntity
  8
WINDOW
100
AcDbLine
 10
1447.5
 20
562.5
 30
0.0
 11
1462.5
 21
562.5
 31
0.0
  0
LINE
  5
1CA
330
17
100
AcDbEntity
  8
WINDOW
100
AcDbLine
 10
1447.5
 20
557.4999999999999
 30
0.0
 11
1462.5
 21
557.4999999999999
 31
0.0
  0
LINE
  5
1CB
330
17
100
AcDbEntity
  8
WINDOW
100
AcDbLine
 10
1447.5
 20
552.5000000000001
 30
0.0
 11
1462.5
 21
552.5000000000001
 31
0.0
  0
LINE
  5
1CC
330
17
100
AcDbEntity
  8
WINDOW
100
AcDbLine
 10
1447.5
 20
547.5
 30
0.0
 11
1462.5
 21
547.5
 31
0.0
  0
LINE
  5
1CD
330
17
100
AcDbEntity
  8
WINDOW
100
AcDbLine
 10
1447.5
 20
562.5
 30
0.0
 11
1447.5
 21
547.5
 31
0.0
  0
LINE
  5
1CE
330
17
100
AcDbEntity
  8
WINDOW
100
AcDbLine
 10
1462.5
 20
562.5
 30
0.0
 11
1462.5
 21
547.5
 31
0.0
  0
LINE
  5
1CF
330
17
100
AcDbEntity
  8
WINDOW
100
AcDbLine
 10
2055.0
 20
270.0
 30
0.0
 11
2130.0
 21
270.0
 31
0.0
  0
LINE
  5
1D0
330
17
100
AcDbEntity
  8
WINDOW
100
AcDbLine
 10
2055.0
 20
262.5
 30
0.0
 11
2130.0
 21
262.5
 31
0.0
  0
LINE
  5
1D1
330
17
100
AcDbEntity
  8
WINDOW
100
AcDbLine
 10
2055.0
 20
255.0
 30
0.0
 11
2130.0
 21
255.0
 31
0.0
  0
LINE
  5
1D2
330
17
100
AcDbEntity
  8
WINDOW
100
AcDbLine
 10
2055.0
 20
247.5
 30
0.0
 11
2130.0
 21
247.5
 31
0.0
  0
LINE
  5
1D3
330
17
100
AcDbEntity
  8
WINDOW
100
AcDbLine
 10
2055.0
 20
270.0
 30
0.0
 11
2055.0
 21
247.5
 31
0.0
  0
LINE
  5
1D4
330
17
100
AcDbEntity
  8
WINDOW
100
AcDbLine
 10
2130.0
 20
270.0
 30
0.0
 11
2130.0
 21
247.5
 31
0.0
  0
LINE
  5
1D5
330
17
100
AcDbEntity
  8
WINDOW
100
AcDbLine
 10
2250.0
 20
285.0
 30
0.0
 11
2283.75
 21
285.0
 31
0.0
  0
LINE
  5
1D6
330
17
100
AcDbEntity
  8
WINDOW
100
AcDbLine
 10
2250.0
 20
272.4999999999999
 30
0.0
 11
2283.75
 21
272.4999999999999
 31
0.0
  0
LINE
  5
1D7
330
17
100
AcDbEntity
  8
WINDOW
100
AcDbLine
 10
2250.0
 20
260.0000000000001
 30
0.0
 11
2283.75
 21
260.0000000000001
 31
0.0
  0
LINE
  5
1D8
330
17
100
AcDbEntity
  8
WINDOW
100
AcDbLine
 10
2250.0
 20
247.5
 30
0.0
 11
2283.75
 21
247.5
 31
0.0
  0
LINE
  5
1D9
330
17
100
AcDbEntity
  8
WINDOW
100
AcDbLine
 10
2250.0
 20
285.0
 30
0.0
 11
2250.0
 21
247.5
 31
0.0
  0
LINE
  5
1DA
330
17
100
AcDbEntity
  8
WINDOW
100
AcDbLine
 10
2283.75
 20
285.0
 30
0.0
 11
2283.75
 21
247.5
 31
0.0
  0
LINE
  5
1DB
330
17
100
AcDbEntity
  8
WINDOW
100
AcDbLine
 10
2595.0
 20
277.5
 30
0.0
 11
2730.0
 21
277.5
 31
0.0
  0
LINE
  5
1DC
330
17
100
AcDbEntity
  8
WINDOW
100
AcDbLine
 10
2595.0
 20
267.5000000000001
 30
0.0
 11
2730.0
 21
267.5000000000001
 31
0.0
  0
LINE
  5
1DD
330
17
100
AcDbEntity
  8
WINDOW
100
AcDbLine
 10
2595.0
 20
257.4999999999999
 30
0.0
 11
2730.0
 21
257.4999999999999
 31
0.0
  0
LINE
  5
1DE
330
17
100
AcDbEntity
  8
WINDOW
100
AcDbLine
 10
2595.0
 20
247.5
 30
0.0
 11
2730.0
 21
247.5
 31
0.0
  0
LINE
  5
1DF
330
17
100
AcDbEntity
  8
WINDOW
100
AcDbLine
 10
2595.0
 20
277.5
 30
0.0
 11
2595.0
 21
247.5
 31
0.0
  0
LINE
  5
1E0
330
17
100
AcDbEntity
  8
WINDOW
100
AcDbLine
 10
2730.0
 20
277.5
 30
0.0
 11
2730.0
 21
247.5
 31
0.0
  0
LINE
  5
1E1
330
17
100
AcDbEntity
  8
WINDOW
100
AcDbLine
 10
97.5
 20
1305.0
 30
0.0
 11
97.5
 21
1252.5
 31
0.0
  0
LINE
  5
1E2
330
17
100
AcDbEntity
  8
WINDOW
100
AcDbLine
 10
107.5
 20
1305.0
 30
0.0
 11
107.5
 21
1252.5
 31
0.0
  0
LINE
  5
1E3
330
17
100
AcDbEntity
  8
WINDOW
100
AcDbLine
 10
117.5
 20
1305.0
 30
0.0
 11
117.5
 21
1252.5
 31
0.0
  0
LINE
  5
1E4
330
17
100
AcDbEntity
  8
WINDOW
100
AcDbLine
 10
127.5
 20
1305.0
 30
0.0
 11
127.5
 21
1252.5
 31
0.0
  0
LINE
  5
1E5
330
17
100
AcDbEntity
  8
WINDOW
100
AcDbLine
 10
97.5
 20
1305.0
 30
0.0
 11
127.5
 21
1305.0
 31
0.0
  0
LINE
  5
1E6
330
17
100
AcDbEntity
  8
WINDOW
100
AcDbLine
 10
97.5
 20
1252.5
 30
0.0
 11
127.5
 21
1252.5
 31
0.0
  0
LINE
  5
1E7
330
17
100
AcDbEntity
  8
WINDOW
100
AcDbLine
 10
2928.75
 20
577.5
 30
0.0
 11
2928.75
 21
397.5
 31
0.0
  0
LINE
  5
1E8
330
17
100
AcDbEntity
  8
WINDOW
100
AcDbLine
 10
2937.5
 20
577.5
 30
0.0
 11
2937.5
 21
397.5
 31
0.0
  0
LINE
  5
1E9
330
17
100
AcDbEntity
  8
WINDOW
100
AcDbLine
 10
2946.25
 20
577.5
 30
0.0
 11
2946.25
 21
397.5
 31
0.0
  0
LINE
  5
1EA
330
17
100
AcDbEntity
  8
WINDOW
100
AcDbLine
 10
2955.0
 20
577.5
 30
0.0
 11
2955.0
 21
397.5
 31
0.0
  0
LINE
  5
1EB
330
17
100
AcDbEntity
  8
WINDOW
100
AcDbLine
 10
2928.75
 20
577.5
 30
0.0
 11
2955.0
 21
577.5
 31
0.0
  0
LINE
  5
1EC
330
17
100
AcDbEntity
  8
WINDOW
100
AcDbLine
 10
2928.75
 20
397.5
 30
0.0
 11
2955.0
 21
397.5
 31
0.0
  0
LWPOLYLINE
  5
1EE
330
17
100
AcDbEntity
  8
DOORZONE
100
AcDbPolyline
 90
4
 70
1
 10
2182.5
 20
2484.375
 10
2291.25
 20
2484.375
 10
2291.25
 20
2266.875
 10
2182.5
 20
2266.875
  0
LWPOLYLINE
  5
1EF
330
17
100
AcDbEntity
  8
DOORZONE
100
AcDbPolyline
 90
4
 70
1
 10
2351.25
 20
1955.625
 10
2400.0
 20
1955.625
 10
2400.0
 20
1858.125
 10
2351.25
 20
1858.125
  0
LWPOLYLINE
  5
1F0
330
17
100
AcDbEntity
  8
DOORZONE
100
AcDbPolyline
 90
4
 70
1
 10
367.5
 20
1980.0
 10
461.25
 20
1980.0
 10
461.25
 20
1792.5
 10
367.5
 20
1792.5
  0
LWPOLYLINE
  5
1F1
330
17
100
AcDbEntity
  8
DOORZONE
100
AcDbPolyline
 90
4
 70
1
 10
446.25
 20
1863.75
 10
517.5
 20
1863.75
 10
517.5
 20
1721.25
 10
446.25
 20
1721.25
  0
LWPOLYLINE
  5
1F2
330
17
100
AcDbEntity
  8
DOORZONE
100
AcDbPolyline
 90
4
 70
1
 10
2325.0
 20
1790.625
 10
2366.25
 20
1790.625
 10
2366.25
 20
1708.125
 10
2325.0
 20
1708.125
  0
LWPOLYLINE
  5
1F3
330
17
100
AcDbEntity
  8
DOORZONE
100
AcDbPolyline
 90
4
 70
1
 10
2497.5
 20
1741.875
 10
2557.5
 20
1741.875
 10
2557.5
 20
1621.875
 10
2497.5
 20
1621.875
  0
LWPOLYLINE
  5
1F4
330
17
100
AcDbEntity
  8
DOORZONE
100
AcDbPolyline
 90
4
 70
1
 10
2325.0
 20
1524.375
 10
2475.0
 20
1524.375
 10
2475.0
 20
1224.375
 10
2325.0
 20
1224.375
  0
LWPOLYLINE
  5
1F5
330
17
100
AcDbEntity
  8
DOORZONE
100
AcDbPolyline
 90
4
 70
1
 10
1166.25
 20
1443.75
 10
1252.5
 20
1443.75
 10
1252.5
 20
1271.25
 10
1166.25
 20
1271.25
  0
LWPOLYLINE
  5
1F6
330
17
100
AcDbEntity
  8
DOORZONE
100
AcDbPolyline
 90
4
 70
1
 10
2426.25
 20
1338.75
 10
2475.0
 20
1338.75
 10
2475.0
 20
1241.25
 10
2426.25
 20
1241.25
  0
LWPOLYLINE
  5
1F7
330
17
100
AcDbEntity
  8
DOORZONE
100
AcDbPolyline
 90
4
 70
1
 10
577.5
 20
1357.5
 10
648.75
 20
1357.5
 10
648.75
 20
1215.0
 10
577.5
 20
1215.0
  0
LWPOLYLINE
  5
1F8
330
17
100
AcDbEntity
  8
DOORZONE
100
AcDbPolyline
 90
4
 70
1
 10
2280.0
 20
1023.75
 10
2385.0
 20
1023.75
 10
2385.0
 20
813.75
 10
2280.0
 20
813.75
  0
LWPOLYLINE
  5
1F9
330
17
100
AcDbEntity
  8
DOORZONE
100
AcDbPolyline
 90
4
 70
1
 10
382.5
 20
556.875
 10
450.0
 20
556.875
 10
450.0
 20
421.875
 10
382.5
 20
421.875
  0
LWPOLYLINE
  5
1FA
330
17
100
AcDbEntity
  8
DOORZONE
100
AcDbPolyline
 90
4
 70
1
 10
480.0
 20
513.75
 10
543.75
 20
513.75
 10
543.75
 20
386.25
 10
480.0
 20
386.25
  0
LWPOLYLINE
  5
1FB
330
17
100
AcDbEntity
  8
DOORZONE
100
AcDbPolyline
 90
4
 70
1
 10
1252.5
 20
315.0
 10
1312.5
 20
315.0
 10
1312.5
 20
195.0
 10
1252.5
 20
195.0
  0
LWPOLYLINE
  5
1FC
330
17
100
AcDbEntity
  8
DOORZONE
100
AcDbPolyline
 90
4
 70
1
 10
1830.0
 20
330.0
 10
1905.0
 20
330.0
 10
1905.0
 20
180.0
 10
1830.0
 20
180.0
  0
LWPOLYLINE
  5
1FD
330
17
100
AcDbEntity
  8
DOORZONE
100
AcDbPolyline
 90
4
 70
1
 10
2340.0
 20
307.5
 10
2392.5
 20
307.5
 10
2392.5
 20
202.5
 10
2340.0
 20
202.5
  0
LWPOLYLINE
  5
1FE
330
17
100
AcDbEntity
  8
DOORZONE
100
AcDbPolyline
 90
4
 70
1
 10
2595.0
 20
298.125
 10
2640.0
 20
298.125
 10
2640.0
 20
208.125
 10
2595.0
 20
208.125
  0
LWPOLYLINE
  5
1FF
330
17
100
AcDbEntity
  8
DOORZONE
100
AcDbPolyline
 90
4
 70
1
 10
2250.0
 20
2238.75
 10
2250.0
 20
2175.0
 10
2377.5
 20
2175.0
 10
2377.5
 20
2238.75
  0
LWPOLYLINE
  5
200
330
17
100
AcDbEntity
  8
DOORZONE
100
AcDbPolyline
 90
4
 70
1
 10
1470.0
 20
2220.0
 10
1470.0
 20
2167.5
 10
1575.0
 20
2167.5
 10
1575.0
 20
2220.0
  0
LWPOLYLINE
  5
201
330
17
100
AcDbEntity
  8
DOORZONE
100
AcDbPolyline
 90
4
 70
1
 10
656.25
 20
2355.0
 10
656.25
 20
2283.75
 10
798.75
 20
2283.75
 10
798.75
 20
2355.0
  0
LWPOLYLINE
  5
202
330
17
100
AcDbEntity
  8
DOORZONE
100
AcDbPolyline
 90
4
 70
1
 10
1503.75
 20
2216.25
 10
1503.75
 20
2167.5
 10
1601.25
 20
2167.5
 10
1601.25
 20
2216.25
  0
LWPOLYLINE
  5
203
330
17
100
AcDbEntity
  8
DOORZONE
100
AcDbPolyline
 90
4
 70
1
 10
2238.75
 20
2021.25
 10
2238.75
 20
1908.75
 10
2463.75
 20
1908.75
 10
2463.75
 20
2021.25
  0
LWPOLYLINE
  5
204
330
17
100
AcDbEntity
  8
DOORZONE
100
AcDbPolyline
 90
4
 70
1
 10
2356.875
 20
2021.25
 10
2356.875
 20
1912.5
 10
2574.375
 20
1912.5
 10
2574.375
 20
2021.25
  0
LWPOLYLINE
  5
205
330
17
100
AcDbEntity
  8
DOORZONE
100
AcDbPolyline
 90
4
 70
1
 10
1440.0
 20
2130.0
 10
1440.0
 20
2043.75
 10
1612.5
 20
2043.75
 10
1612.5
 20
2130.0
  0
LWPOLYLINE
  5
206
330
17
100
AcDbEntity
  8
DOORZONE
100
AcDbPolyline
 90
4
 70
1
 10
793.125
 20
2137.5
 10
793.125
 20
2032.5
 10
1003.125
 20
2032.5
 10
1003.125
 20
2137.5
  0
LWPOLYLINE
  5
207
330
17
100
AcDbEntity
  8
DOORZONE
100
AcDbPolyline
 90
4
 70
1
 10
2520.0
 20
1740.0
 10
2520.0
 20
1683.75
 10
2632.5
 20
1683.75
 10
2632.5
 20
1740.0
  0
LWPOLYLINE
  5
208
330
17
100
AcDbEntity
  8
DOORZONE
100
AcDbPolyline
 90
4
 70
1
 10
2838.75
 20
1533.75
 10
2838.75
 20
1413.75
 10
3078.75
 20
1413.75
 10
3078.75
 20
1533.75
  0
LWPOLYLINE
  5
209
330
17
100
AcDbEntity
  8
DOORZONE
100
AcDbPolyline
 90
4
 70
1
 10
7.5
 20
1335.0
 10
7.5
 20
1185.0
 10
307.5
 20
1185.0
 10
307.5
 20
1335.0
  0
LWPOLYLINE
  5
20A
330
17
100
AcDbEntity
  8
DOORZONE
100
AcDbPolyline
 90
4
 70
1
 10
315.0
 20
1263.75
 10
315.0
 20
1177.5
 10
487.5
 20
1177.5
 10
487.5
 20
1263.75
  0
LWPOLYLINE
  5
20B
330
17
100
AcDbEntity
  8
DOORZONE
100
AcDbPolyline
 90
4
 70
1
 10
2443.125
 20
1372.5
 10
2443.125
 20
1331.25
 10
2525.625
 20
1331.25
 10
2525.625
 20
1372.5
  0
LWPOLYLINE
  5
20C
330
17
100
AcDbEntity
  8
DOORZONE
100
AcDbPolyline
 90
4
 70
1
 10
2476.875
 20
1372.5
 10
2476.875
 20
1331.25
 10
2559.375
 20
1331.25
 10
2559.375
 20
1372.5
  0
LWPOLYLINE
  5
20D
330
17
100
AcDbEntity
  8
DOORZONE
100
AcDbPolyline
 90
4
 70
1
 10
1196.25
 20
1350.0
 10
1196.25
 20
1293.75
 10
1308.75
 20
1293.75
 10
1308.75
 20
1350.0
  0
LWPOLYLINE
  5
20E
330
17
100
AcDbEntity
  8
DOORZONE
100
AcDbPolyline
 90
4
 70
1
 10
643.125
 20
1098.75
 10
643.125
 20
952.5
 10
935.625
 20
952.5
 10
935.625
 20
1098.75
  0
LWPOLYLINE
  5
20F
330
17
100
AcDbEntity
  8
DOORZONE
100
AcDbPolyline
 90
4
 70
1
 10
710.625
 20
1275.0
 10
710.625
 20
1196.25
 10
868.125
 20
1196.25
 10
868.125
 20
1275.0
  0
LWPOLYLINE
  5
210
330
17
100
AcDbEntity
  8
DOORZONE
100
AcDbPolyline
 90
4
 70
1
 10
2896.875
 20
723.75
 10
2896.875
 20
663.75
 10
3016.875
 20
663.75
 10
3016.875
 20
723.75
  0
LWPOLYLINE
  5
211
330
17
100
AcDbEntity
  8
DOORZONE
100
AcDbPolyline
 90
4
 70
1
 10
2696.25
 20
892.5
 10
2696.25
 20
776.25
 10
2928.75
 20
776.25
 10
2928.75
 20
892.5
  0
LWPOLYLINE
  5
212
330
17
100
AcDbEntity
  8
DOORZONE
100
AcDbPolyline
 90
4
 70
1
 10
2855.625
 20
577.5
 10
2855.625
 20
502.5
 10
3005.625
 20
502.5
 10
3005.625
 20
577.5
  0
LWPOLYLINE
  5
213
330
17
100
AcDbEntity
  8
DOORZONE
100
AcDbPolyline
 90
4
 70
1
 10
1777.5
 20
577.5
 10
1777.5
 20
465.0
 10
2002.5
 20
465.0
 10
2002.5
 20
577.5
  0
LWPOLYLINE
  5
214
330
17
100
AcDbEntity
  8
DOORZONE
100
AcDbPolyline
 90
4
 70
1
 10
526.875
 20
360.0
 10
526.875
 20
255.0
 10
736.875
 20
255.0
 10
736.875
 20
360.0
  0
LWPOLYLINE
  5
215
330
17
100
AcDbEntity
  8
DOORZONE
100
AcDbPolyline
 90
4
 70
1
 10
541.875
 20
547.5
 10
541.875
 20
457.5
 10
721.875
 20
457.5
 10
721.875
 20
547.5
  0
LWPOLYLINE
  5
216
330
17
100
AcDbEntity
  8
DOORZONE
100
AcDbPolyline
 90
4
 70
1
 10
1316.25
 20
303.75
 10
1316.25
 20
262.5
 10
1398.75
 20
262.5
 10
1398.75
 20
303.75
  0
LWPOLYLINE
  5
217
330
17
100
AcDbEntity
  8
DOORZONE
100
AcDbPolyline
 90
4
 70
1
 10
1218.75
 20
547.5
 10
1218.75
 20
408.75
 10
1496.25
 20
408.75
 10
1496.25
 20
547.5
  0
ENDSEC
  0
SECTION
  2
OBJECTS
  0
DICTIONARY
  5
A
330
0
100
AcDbDictionary
281
1
  3
ACAD_COLOR
350
B
  3
ACAD_GROUP
350
C
  3
ACAD_LAYOUT
350
D
  3
ACAD_MATERIAL
350
E
  3
ACAD_MLEADERSTYLE
350
F
  3
ACAD_MLINESTYLE
350
10
  3
ACAD_PLOTSETTINGS
350
11
  3
ACAD_PLOTSTYLENAME
350
12
  3
ACAD_SCALELIST
350
14
  3
ACAD_TABLESTYLE
350
15
  3
ACAD_VISUALSTYLE
350
16
  3
EZDXF_META
350
2D
  0
DICTIONARY
  5
B
330
A
100
AcDbDictionary
281
1
  0
DICTIONARY
  5
C
330
A
100
AcDbDictionary
281
1
  0
DICTIONARY
  5
D
330
A
100
AcDbDictionary
281
1
  3
Model
350
1A
  3
Layout1
350
1E
  0
DICTIONARY
  5
E
330
A
100
AcDbDictionary
281
1
  3
ByBlock
350
1F
  3
ByLayer
350
20
  3
Global
350
21
  0
DICTIONARY
  5
F
330
A
100
AcDbDictionary
281
1
  3
Standard
350
2C
  0
DICTIONARY
  5
10
330
A
100
AcDbDictionary
281
1
  3
Standard
350
22
  0
DICTIONARY
  5
11
330
A
100
AcDbDictionary
281
1
  0
ACDBDICTIONARYWDFLT
  5
12
330
A
100
AcDbDictionary
281
1
  3
Normal
350
13
100
AcDbDictionaryWithDefault
340
13
  0
ACDBPLACEHOLDER
  5
13
330
12
  0
DICTIONARY
  5
14
330
A
100
AcDbDictionary
281
1
  0
DICTIONARY
  5
15
330
A
100
AcDbDictionary
281
1
  0
DICTIONARY
  5
16
330
A
100
AcDbDictionary
281
1
  0
LAYOUT
  5
1A
330
D
100
AcDbPlotSettings
  1

  4
A3
  6

 40
7.5
 41
20.0
 42
7.5
 43
20.0
 44
420.0
 45
297.0
 46
0.0
 47
0.0
 48
0.0
 49
0.0
140
0.0
141
0.0
142
1.0
143
1.0
 70
1024
 72
1
 73
0
 74
5
  7

 75
16
 76
0
 77
2
 78
300
147
1.0
148
0.0
149
0.0
100
AcDbLayout
  1
Model
 70
1
 71
0
 10
0.0
 20
0.0
 11
420.0
 21
297.0
 12
0.0
 22
0.0
 32
0.0
 14
1e+20
 24
1e+20
 34
1e+20
 15
-1e+20
 25
-1e+20
 35
-1e+20
146
0.0
 13
0.0
 23
0.0
 33
0.0
 16
1.0
 26
0.0
 36
0.0
 17
0.0
 27
1.0
 37
0.0
 76
1
330
17
  0
LAYOUT
  5
1E
330
D
100
AcDbPlotSettings
  1

  4
A3
  6

 40
7.5
 41
20.0
 42
7.5
 43
20.0
 44
420.0
 45
297.0
 46
0.0
 47
0.0
 48
0.0
 49
0.0
140
0.0
141
0.0
142
1.0
143
1.0
 70
0
 72
1
 73
0
 74
5
  7

 75
16
 76
0
 77
2
 78
300
147
1.0
148
0.0
149
0.0
100
AcDbLayout
  1
Layout1
 70
1
 71
1
 10
0.0
 20
0.0
 11
420.0
 21
297.0
 12
0.0
 22
0.0
 32
0.0
 14
1e+20
 24
1e+20
 34
1e+20
 15
-1e+20
 25
-1e+20
 35
-1e+20
146
0.0
 13
0.0
 23
0.0
 33
0.0
 16
1.0
 26
0.0
 36
0.0
 17
0.0
 27
1.0
 37
0.0
 76
1
330
1B
  0
MATERIAL
  5
1F
102
{ACAD_REACTORS
330
E
102
}
330
E
100
AcDbMaterial
  1
ByBlock
  2

 70
0
 40
1.0
 71
1
 41
1.0
 91
-1023410177
 42
1.0
 72
1
  3

 73
1
 74
1
 75
1
 44
0.5
 73
0
 45
1.0
 46
1.0
 77
1
  4

 78
1
 79
1
170
1
 48
1.0
171
1
  6

172
1
173
1
174
1
140
1.0
141
1.0
175
1
  7

176
1
177
1
178
1
143
1.0
179
1
  8

270
1
271
1
272
1
145
1.0
146
1.0
273
1
  9

274
1
275
1
276
1
 42
1.0
 72
1
  3

 73
1
 74
1
 75
1
 94
63
  0
MATERIAL
  5
20
102
{ACAD_REACTORS
330
E
102
}
330
E
100
AcDbMaterial
  1
ByLayer
  2

 70
0
 40
1.0
 71
1
 41
1.0
 91
-1023410177
 42
1.0
 72
1
  3

 73
1
 74
1
 75
1
 44
0.5
 73
0
 45
1.0
 46
1.0
 77
1
  4

 78
1
 79
1
170
1
 48
1.0
171
1
  6

172
1
173
1
174
1
140
1.0
141
1.0
175
1
  7

176
1
177
1
178
1
143
1.0
179
1
  8

270
1
271
1
272
1
145
1.0
146
1.0
273
1
  9

274
1
275
1
276
1
 42
1.0
 72
1
  3

 73
1
 74
1
 75
1
 94
63
  0
MATERIAL
  5
21
102
{ACAD_REACTORS
330
E
102
}
330
E
100
AcDbMaterial
  1
Global
  2

 70
0
 40
1.0
 71
1
 41
1.0
 91
-1023410177
 42
1.0
 72
1
  3

 73
1
 74
1
 75
1
 44
0.5
 73
0
 45
1.0
 46
1.0
 77
1
  4

 78
1
 79
1
170
1
 48
1.0
171
1
  6

172
1
173
1
174
1
140
1.0
141
1.0
175
1
  7

176
1
177
1
178
1
143
1.0
179
1
  8

270
1
271
1
272
1
145
1.0
146
1.0
273
1
  9

274
1
275
1
276
1
 42
1.0
 72
1
  3

 73
1
 74
1
 75
1
 94
63
  0
MLINESTYLE
  5
22
102
{ACAD_REACTORS
330
10
102
}
330
10
100
AcDbMlineStyle
  2
Standard
 70
0
  3

 62
256
 51
90.0
 52
90.0
 71
2
 49
0.5
 62
256
  6
BYLAYER
 49
-0.5
 62
256
  6
BYLAYER
  0
MLEADERSTYLE
  5
2C
102
{ACAD_REACTORS
330
F
102
}
330
F
100
AcDbMLeaderStyle
179
2
170
2
171
1
172
0
 90
2
 40
0.0
 41
0.0
173
1
 91
-1056964608
 92
-2
290
1
 42
2.0
291
1
 43
8.0
  3
Standard
 44
4.0
300

342
29
174
1
175
1
176
0
178
1
 93
-1056964608
 45
4.0
292
0
297
0
 46
4.0
 94
-1056964608
 47
1.0
 49
1.0
140
1.0
294
1
141
0.0
177
0
142
1.0
295
0
296
0
143
3.75
271
0
272
9
273
9
  0
DICTIONARY
  5
2D
330
A
100
AcDbDictionary
280
1
281
1
  3
CREATED_BY_EZDXF
350
2E
  3
WRITTEN_BY_EZDXF
350
21A
  0
DICTIONARYVAR
  5
2E
330
2D
100
DictionaryVariables
280
0
  1
1.4.4 @ 2026-07-13T09:38:56.870755+00:00
  0
DICTIONARYVAR
  5
21A
330
2D
100
DictionaryVariables
280
0
  1
1.4.4 @ 2026-07-13T09:38:56.896763+00:00
  0
ENDSEC
  0
EOF
