  0
SECTION
  2
HEADER
  9
$ACADVER
  1
AC1024
  9
$ACADMAINTVER
 70
6
  9
$DWGCODEPAGE
  3
ANSI_1252
  9
$LASTSAVEDBY
  1
ezdxf
  9
$INSBASE
 10
0.0
 20
0.0
 30
0.0
  9
$EXTMIN
 10
1e+20
 20
1e+20
 30
1e+20
  9
$EXTMAX
 10
-1e+20
 20
-1e+20
 30
-1e+20
  9
$LIMMIN
 10
0.0
 20
0.0
  9
$LIMMAX
 10
420.0
 20
297.0
  9
$ORTHOMODE
 70
0
  9
$REGENMODE
 70
1
  9
$FILLMODE
 70
1
  9
$QTEXTMODE
 70
0
  9
$MIRRTEXT
 70
1
  9
$LTSCALE
 40
1.0
  9
$ATTMODE
 70
1
  9
$TEXTSIZE
 40
2.5
  9
$TRACEWID
 40
1.0
  9
$TEXTSTYLE
  7
Standard
  9
$CLAYER
  8
0
  9
$CELTYPE
  6
ByLayer
  9
$CECOLOR
 62
256
  9
$CELTSCALE
 40
1.0
  9
$DISPSILH
 70
0
  9
$DIMSCALE
 40
1.0
  9
$DIMASZ
 40
2.5
  9
$DIMEXO
 40
0.625
  9
$DIMDLI
 40
3.75
  9
$DIMRND
 40
0.0
  9
$DIMDLE
 40
0.0
  9
$DIMEXE
 40
1.25
  9
$DIMTP
 40
0.0
  9
$DIMTM
 40
0.0
  9
$DIMTXT
 40
2.5
  9
$DIMCEN
 40
2.5
  9
$DIMTSZ
 40
0.0
  9
$DIMTOL
 70
0
  9
$DIMLIM
 70
0
  9
$DIMTIH
 70
0
  9
$DIMTOH
 70
0
  9
$DIMSE1
 70
0
  9
$DIMSE2
 70
0
  9
$DIMTAD
 70
1
  9
$DIMZIN
 70
8
  9
$DIMBLK
  1

  9
$DIMASO
 70
1
  9
$DIMSHO
 70
1
  9
$DIMPOST
  1

  9
$DIMAPOST
  1

  9
$DIMALT
 70
0
  9
$DIMALTD
 70
3
  9
$DIMALTF
 40
0.03937007874
  9
$DIMLFAC
 40
1.0
  9
$DIMTOFL
 70
1
  9
$DIMTVP
 40
0.0
  9
$DIMTIX
 70
0
  9
$DIMSOXD
 70
0
  9
$DIMSAH
 70
0
  9
$DIMBLK1
  1

  9
$DIMBLK2
  1

  9
$DIMSTYLE
  2
ISO-25
  9
$DIMCLRD
 70
0
  9
$DIMCLRE
 70
0
  9
$DIMCLRT
 70
0
  9
$DIMTFAC
 40
1.0
  9
$DIMGAP
 40
0.625
  9
$DIMJUST
 70
0
  9
$DIMSD1
 70
0
  9
$DIMSD2
 70
0
  9
$DIMTOLJ
 70
0
  9
$DIMTZIN
 70
8
  9
$DIMALTZ
 70
0
  9
$DIMALTTZ
 70
0
  9
$DIMUPT
 70
0
  9
$DIMDEC
 70
2
  9
$DIMTDEC
 70
2
  9
$DIMALTU
 70
2
  9
$DIMALTTD
 70
3
  9
$DIMTXSTY
  7
Standard
  9
$DIMAUNIT
 70
0
  9
$DIMADEC
 70
0
  9
$DIMALTRND
 40
0.0
  9
$DIMAZIN
 70
0
  9
$DIMDSEP
 70
44
  9
$DIMATFIT
 70
3
  9
$DIMFRAC
 70
0
  9
$DIMLDRBLK
  1

  9
$DIMLUNIT
 70
2
  9
$DIMLWD
 70
-2
  9
$DIMLWE
 70
-2
  9
$DIMTMOVE
 70
0
  9
$DIMFXL
 40
1.0
  9
$DIMFXLON
 70
0
  9
$DIMJOGANG
 40
0.785398163397
  9
$DIMTFILL
 70
0
  9
$DIMTFILLCLR
 70
0
  9
$DIMARCSYM
 70
0
  9
$DIMLTYPE
  6

  9
$DIMLTEX1
  6

  9
$DIMLTEX2
  6

  9
$DIMTXTDIRECTION
 70
0
  9
$LUNITS
 70
2
  9
$LUPREC
 70
4
  9
$SKETCHINC
 40
1.0
  9
$FILLETRAD
 40
10.0
  9
$AUNITS
 70
0
  9
$AUPREC
 70
2
  9
$MENU
  1
.
  9
$ELEVATION
 40
0.0
  9
$PELEVATION
 40
0.0
  9
$THICKNESS
 40
0.0
  9
$LIMCHECK
 70
0
  9
$CHAMFERA
 40
0.0
  9
$CHAMFERB
 40
0.0
  9
$CHAMFERC
 40
0.0
  9
$CHAMFERD
 40
0.0
  9
$SKPOLY
 70
0
  9
$TDCREATE
 40
2461236.6652662037
  9
$TDUCREATE
 40
2458532.153996898
  9
$TDUPDATE
 40
2461236.6652662037
  9
$TDUUPDATE
 40
2458532.1544311
  9
$TDINDWG
 40
0.0
  9
$TDUSRTIMER
 40
0.0
  9
$USRTIMER
 70
1
  9
$ANGBASE
 50
0.0
  9
$ANGDIR
 70
0
  9
$PDMODE
 70
0
  9
$PDSIZE
 40
0.0
  9
$PLINEWID
 40
0.0
  9
$SPLFRAME
 70
0
  9
$SPLINETYPE
 70
6
  9
$SPLINESEGS
 70
8
  9
$HANDSEED
  5
EF
  9
$SURFTAB1
 70
6
  9
$SURFTAB2
 70
6
  9
$SURFTYPE
 70
6
  9
$SURFU
 70
6
  9
$SURFV
 70
6
  9
$UCSBASE
  2

  9
$UCSNAME
  2

  9
$UCSORG
 10
0.0
 20
0.0
 30
0.0
  9
$UCSXDIR
 10
1.0
 20
0.0
 30
0.0
  9
$UCSYDIR
 10
0.0
 20
1.0
 30
0.0
  9
$UCSORTHOREF
  2

  9
$UCSORTHOVIEW
 70
0
  9
$UCSORGTOP
 10
0.0
 20
0.0
 30
0.0
  9
$UCSORGBOTTOM
 10
0.0
 20
0.0
 30
0.0
  9
$UCSORGLEFT
 10
0.0
 20
0.0
 30
0.0
  9
$UCSORGRIGHT
 10
0.0
 20
0.0
 30
0.0
  9
$UCSORGFRONT
 10
0.0
 20
0.0
 30
0.0
  9
$UCSORGBACK
 10
0.0
 20
0.0
 30
0.0
  9
$PUCSBASE
  2

  9
$PUCSNAME
  2

  9
$PUCSORG
 10
0.0
 20
0.0
 30
0.0
  9
$PUCSXDIR
 10
1.0
 20
0.0
 30
0.0
  9
$PUCSYDIR
 10
0.0
 20
1.0
 30
0.0
  9
$PUCSORTHOREF
  2

  9
$PUCSORTHOVIEW
 70
0
  9
$PUCSORGTOP
 10
0.0
 20
0.0
 30
0.0
  9
$PUCSORGBOTTOM
 10
0.0
 20
0.0
 30
0.0
  9
$PUCSORGLEFT
 10
0.0
 20
0.0
 30
0.0
  9
$PUCSORGRIGHT
 10
0.0
 20
0.0
 30
0.0
  9
$PUCSORGFRONT
 10
0.0
 20
0.0
 30
0.0
  9
$PUCSORGBACK
 10
0.0
 20
0.0
 30
0.0
  9
$USERI1
 70
0
  9
$USERI2
 70
0
  9
$USERI3
 70
0
  9
$USERI4
 70
0
  9
$USERI5
 70
0
  9
$USERR1
 40
0.0
  9
$USERR2
 40
0.0
  9
$USERR3
 40
0.0
  9
$USERR4
 40
0.0
  9
$USERR5
 40
0.0
  9
$WORLDVIEW
 70
1
  9
$SHADEDGE
 70
3
  9
$SHADEDIF
 70
70
  9
$TILEMODE
 70
1
  9
$MAXACTVP
 70
64
  9
$PINSBASE
 10
0.0
 20
0.0
 30
0.0
  9
$PLIMCHECK
 70
0
  9
$PEXTMIN
 10
1e+20
 20
1e+20
 30
1e+20
  9
$PEXTMAX
 10
-1e+20
 20
-1e+20
 30
-1e+20
  9
$PLIMMIN
 10
0.0
 20
0.0
  9
$PLIMMAX
 10
420.0
 20
297.0
  9
$UNITMODE
 70
0
  9
$VISRETAIN
 70
1
  9
$PLINEGEN
 70
0
  9
$PSLTSCALE
 70
1
  9
$TREEDEPTH
 70
3020
  9
$CMLSTYLE
  2
Standard
  9
$CMLJUST
 70
0
  9
$CMLSCALE
 40
20.0
  9
$PROXYGRAPHICS
 70
1
  9
$MEASUREMENT
 70
1
  9
$CELWEIGHT
370
-1
  9
$ENDCAPS
280
0
  9
$JOINSTYLE
280
0
  9
$LWDISPLAY
290
0
  9
$INSUNITS
 70
5
  9
$HYPERLINKBASE
  1

  9
$STYLESHEET
  1

  9
$XEDIT
290
1
  9
$CEPSNTYPE
380
0
  9
$PSTYLEMODE
290
1
  9
$FINGERPRINTGUID
  2
{E7FA7DDC-785B-4C76-9AC0-C90D24200E13}
  9
$VERSIONGUID
  2
{8BCD58AE-2CF2-4FC6-884F-208F2A5E38CC}
  9
$EXTNAMES
290
1
  9
$PSVPSCALE
 40
0.0
  9
$OLESTARTUP
290
0
  9
$SORTENTS
280
127
  9
$INDEXCTL
280
0
  9
$HIDETEXT
280
1
  9
$XCLIPFRAME
280
1
  9
$HALOGAP
280
0
  9
$OBSCOLOR
 70
257
  9
$OBSLTYPE
280
0
  9
$INTERSECTIONDISPLAY
280
0
  9
$INTERSECTIONCOLOR
 70
257
  9
$DIMASSOC
280
2
  9
$PROJECTNAME
  1

  9
$CAMERADISPLAY
290
0
  9
$LENSLENGTH
 40
50.0
  9
$CAMERAHEIGHT
 40
0.0
  9
$STEPSPERSEC
 40
24.0
  9
$STEPSIZE
 40
100.0
  9
$3DDWFPREC
 40
2.0
  9
$PSOLWIDTH
 40
0.005
  9
$PSOLHEIGHT
 40
0.08
  9
$LOFTANG1
 40
1.570796326795
  9
$LOFTANG2
 40
1.570796326795
  9
$LOFTMAG1
 40
0.0
  9
$LOFTMAG2
 40
0.0
  9
$LOFTPARAM
 70
7
  9
$LOFTNORMALS
280
1
  9
$LATITUDE
 40
37.795
  9
$LONGITUDE
 40
-122.394
  9
$NORTHDIRECTION
 40
0.0
  9
$TIMEZONE
 70
-8000
  9
$LIGHTGLYPHDISPLAY
280
1
  9
$TILEMODELIGHTSYNCH
280
1
  9
$CMATERIAL
347
20
  9
$SOLIDHIST
280
0
  9
$SHOWHIST
280
1
  9
$DWFFRAME
280
2
  9
$DGNFRAME
280
2
  9
$REALWORLDSCALE
290
1
  9
$INTERFERECOLOR
 62
256
  9
$CSHADOW
280
0
  9
$SHADOWPLANELOCATION
 40
0.0
  0
ENDSEC
  0
SECTION
  2
CLASSES
  0
CLASS
  1
ACDBDICTIONARYWDFLT
  2
AcDbDictionaryWithDefault
  3
ObjectDBX Classes
 90
0
 91
0
280
0
281
0
  0
CLASS
  1
SUN
  2
AcDbSun
  3
SCENEOE
 90
1153
 91
0
280
0
281
0
  0
CLASS
  1
VISUALSTYLE
  2
AcDbVisualStyle
  3
ObjectDBX Classes
 90
4095
 91
0
280
0
281
0
  0
CLASS
  1
MATERIAL
  2
AcDbMaterial
  3
ObjectDBX Classes
 90
1153
 91
0
280
0
281
0
  0
CLASS
  1
SCALE
  2
AcDbScale
  3
ObjectDBX Classes
 90
1153
 91
0
280
0
281
0
  0
CLASS
  1
TABLESTYLE
  2
AcDbTableStyle
  3
ObjectDBX Classes
 90
4095
 91
0
280
0
281
0
  0
CLASS
  1
MLEADERSTYLE
  2
AcDbMLeaderStyle
  3
ACDB_MLEADERSTYLE_CLASS
 90
4095
 91
0
280
0
281
0
  0
CLASS
  1
DICTIONARYVAR
  2
AcDbDictionaryVar
  3
ObjectDBX Classes
 90
0
 91
0
280
0
281
0
  0
CLASS
  1
CELLSTYLEMAP
  2
AcDbCellStyleMap
  3
ObjectDBX Classes
 90
1152
 91
0
280
0
281
0
  0
CLASS
  1
MENTALRAYRENDERSETTINGS
  2
AcDbMentalRayRenderSettings
  3
SCENEOE
 90
1024
 91
0
280
0
281
0
  0
CLASS
  1
ACDBDETAILVIEWSTYLE
  2
AcDbDetailViewStyle
  3
ObjectDBX Classes
 90
1025
 91
0
280
0
281
0
  0
CLASS
  1
ACDBSECTIONVIEWSTYLE
  2
AcDbSectionViewStyle
  3
ObjectDBX Classes
 90
1025
 91
0
280
0
281
0
  0
CLASS
  1
RASTERVARIABLES
  2
AcDbRasterVariables
  3
ISM
 90
0
 91
0
280
0
281
0
  0
CLASS
  1
LAYOUT
  2
AcDbLayout
  3
ObjectDBX Classes
 90
0
 91
0
280
0
281
0
  0
CLASS
  1
ACDBPLACEHOLDER
  2
AcDbPlaceHolder
  3
ObjectDBX Classes
 90
0
 91
0
280
0
281
0
  0
ENDSEC
  0
SECTION
  2
TABLES
  0
TABLE
  2
VPORT
  5
8
330
0
100
AcDbSymbolTable
 70
1
  0
VPORT
  5
23
330
8
100
AcDbSymbolTableRecord
100
AcDbViewportTableRecord
  2
*Active
 70
0
 10
0.0
 20
0.0
 11
1.0
 21
1.0
 12
0.0
 22
0.0
 13
0.0
 23
0.0
 14
0.5
 24
0.5
 15
0.5
 25
0.5
 16
0.0
 26
0.0
 36
1.0
 17
0.0
 27
0.0
 37
0.0
 40
1000.0
 41
1.34
 42
50.0
 43
0.0
 44
0.0
 50
0.0
 51
0.0
 71
0
 72
1000
 73
1
 74
3
 75
0
 76
0
 77
0
 78
0
281
0
 65
0
146
0.0
  0
ENDTAB
  0
TABLE
  2
LTYPE
  5
2
330
0
100
AcDbSymbolTable
 70
3
  0
LTYPE
  5
24
330
2
100
AcDbSymbolTableRecord
100
AcDbLinetypeTableRecord
  2
ByBlock
 70
0
  3

 72
65
 73
0
 40
0.0
  0
LTYPE
  5
25
330
2
100
AcDbSymbolTableRecord
100
AcDbLinetypeTableRecord
  2
ByLayer
 70
0
  3

 72
65
 73
0
 40
0.0
  0
LTYPE
  5
26
330
2
100
AcDbSymbolTableRecord
100
AcDbLinetypeTableRecord
  2
Continuous
 70
0
  3

 72
65
 73
0
 40
0.0
  0
ENDTAB
  0
TABLE
  2
LAYER
  5
1
330
0
100
AcDbSymbolTable
 70
3
  0
LAYER
  5
27
330
1
100
AcDbSymbolTableRecord
100
AcDbLayerTableRecord
  2
0
 70
0
 62
7
  6
Continuous
370
-3
390
13
347
21
  0
LAYER
  5
28
330
1
100
AcDbSymbolTableRecord
100
AcDbLayerTableRecord
  2
Defpoints
 70
0
 62
7
  6
Continuous
290
0
370
-3
390
13
347
21
  0
LAYER
  5
2F
330
1
100
AcDbSymbolTableRecord
100
AcDbLayerTableRecord
  2
WALL
 70
0
 62
7
  6
Continuous
370
-3
390
13
347
21
  0
ENDTAB
  0
TABLE
  2
STYLE
  5
5
330
0
100
AcDbSymbolTable
 70
1
  0
STYLE
  5
29
330
5
100
AcDbSymbolTableRecord
100
AcDbTextStyleTableRecord
  2
Standard
 70
0
 40
0.0
 41
1.0
 50
0.0
 71
0
 42
2.5
  3
txt
  4

  0
ENDTAB
  0
TABLE
  2
VIEW
  5
7
330
0
100
AcDbSymbolTable
 70
0
  0
ENDTAB
  0
TABLE
  2
UCS
  5
6
330
0
100
AcDbSymbolTable
 70
0
  0
ENDTAB
  0
TABLE
  2
APPID
  5
3
330
0
100
AcDbSymbolTable
 70
3
  0
APPID
  5
2A
330
3
100
AcDbSymbolTableRecord
100
AcDbRegAppTableRecord
  2
ACAD
 70
0
  0
APPID
  5
EC
330
3
100
AcDbSymbolTableRecord
100
AcDbRegAppTableRecord
  2
HATCHBACKGROUNDCOLOR
 70
0
  0
APPID
  5
ED
330
3
100
AcDbSymbolTableRecord
100
AcDbRegAppTableRecord
  2
EZDXF
 70
0
  0
ENDTAB
  0
TABLE
  2
DIMSTYLE
  5
4
330
0
100
AcDbSymbolTable
 70
1
100
AcDbDimStyleTable
  0
DIMSTYLE
105
2B
330
4
100
AcDbSymbolTableRecord
100
AcDbDimStyleTableRecord
  2
Standard
 70
0
 40
1.0
 41
2.5
 42
0.625
 43
3.75
 44
1.25
 45
0.0
 46
0.0
 47
0.0
 48
0.0
 49
2.5
140
2.5
141
2.5
142
0.0
143
0.03937007874
144
1.0
145
0.0
146
1.0
147
0.625
148
0.0
 69
0
 70
0
 71
0
 72
0
 73
0
 74
0
 75
0
 76
0
 77
1
 78
8
 79
3
170
0
171
3
172
1
173
0
174
0
175
0
176
0
177
0
178
0
179
2
271
2
272
2
273
2
274
3
275
0
276
0
277
2
278
44
279
0
280
0
281
0
282
0
283
0
284
8
285
0
286
0
288
0
289
3
290
0
371
-2
372
-2
  0
ENDTAB
  0
TABLE
  2
BLOCK_RECORD
  5
9
330
0
100
AcDbSymbolTable
 70
2
  0
BLOCK_RECORD
  5
17
330
9
100
AcDbSymbolTableRecord
100
AcDbBlockTableRecord
  2
*Model_Space
340
1A
 70
0
280
1
281
0
  0
BLOCK_RECORD
  5
1B
330
9
100
AcDbSymbolTableRecord
100
AcDbBlockTableRecord
  2
*Paper_Space
340
1E
 70
0
280
1
281
0
  0
ENDTAB
  0
ENDSEC
  0
SECTION
  2
BLOCKS
  0
BLOCK
  5
18
330
17
100
AcDbEntity
  8
0
100
AcDbBlockBegin
  2
*Model_Space
 70
0
 10
0.0
 20
0.0
 30
0.0
  3
*Model_Space
  1

  0
ENDBLK
  5
19
330
17
100
AcDbEntity
  8
0
100
AcDbBlockEnd
  0
BLOCK
  5
1C
330
1B
100
AcDbEntity
  8
0
100
AcDbBlockBegin
  2
*Paper_Space
 70
0
 10
0.0
 20
0.0
 30
0.0
  3
*Paper_Space
  1

  0
ENDBLK
  5
1D
330
1B
100
AcDbEntity
  8
0
100
AcDbBlockEnd
  0
ENDSEC
  0
SECTION
  2
ENTITIES
  0
LWPOLYLINE
  5
30
330
17
100
AcDbEntity
  8
WALL
100
AcDbPolyline
 90
4
 70
1
 10
665.2800000000001
 20
1072.72
 10
724.2400000000001
 20
1072.72
 10
724.2400000000001
 20
1056.88
 10
665.2800000000001
 20
1056.88
  0
HATCH
  5
31
330
17
100
AcDbEntity
  8
WALL
100
AcDbHatch
 10
0.0
 20
0.0
 30
0.0
210
0.0
220
0.0
230
1.0
  2
SOLID
 70
1
 71
0
 91
1
 92
3
 72
0
 73
1
 93
4
 10
665.2800000000001
 20
1072.72
 10
724.2400000000001
 20
1072.72
 10
724.2400000000001
 20
1056.88
 10
665.2800000000001
 20
1056.88
 97
0
 75
1
 76
1
 98
0
  0
LWPOLYLINE
  5
32
330
17
100
AcDbEntity
  8
WALL
100
AcDbPolyline
 90
4
 70
1
 10
705.7600000000001
 20
1028.72
 10
861.5200000000001
 20
1028.72
 10
861.5200000000001
 20
1021.6800000000002
 10
705.7600000000001
 20
1021.6800000000002
  0
HATCH
  5
33
330
17
100
AcDbEntity
  8
WALL
100
AcDbHatch
 10
0.0
 20
0.0
 30
0.0
210
0.0
220
0.0
230
1.0
  2
SOLID
 70
1
 71
0
 91
1
 92
3
 72
0
 73
1
 93
4
 10
705.7600000000001
 20
1028.72
 10
861.5200000000001
 20
1028.72
 10
861.5200000000001
 20
1021.6800000000002
 10
705.7600000000001
 20
1021.6800000000002
 97
0
 75
1
 76
1
 98
0
  0
LWPOLYLINE
  5
34
330
17
100
AcDbEntity
  8
WALL
100
AcDbPolyline
 90
4
 70
1
 10
851.8400000000001
 20
994.4000000000001
 10
876.4800000000001
 20
994.4000000000001
 10
876.4800000000001
 20
988.2400000000001
 10
851.8400000000001
 20
988.2400000000001
  0
HATCH
  5
35
330
17
100
AcDbEntity
  8
WALL
100
AcDbHatch
 10
0.0
 20
0.0
 30
0.0
210
0.0
220
0.0
230
1.0
  2
SOLID
 70
1
 71
0
 91
1
 92
3
 72
0
 73
1
 93
4
 10
851.8400000000001
 20
994.4000000000001
 10
876.4800000000001
 20
994.4000000000001
 10
876.4800000000001
 20
988.2400000000001
 10
851.8400000000001
 20
988.2400000000001
 97
0
 75
1
 76
1
 98
0
  0
LWPOLYLINE
  5
36
330
17
100
AcDbEntity
  8
WALL
100
AcDbPolyline
 90
4
 70
1
 10
441.76000000000005
 20
938.9600000000002
 10
470.80000000000007
 20
938.9600000000002
 10
470.80000000000007
 20
933.6800000000002
 10
441.76000000000005
 20
933.6800000000002
  0
HATCH
  5
37
330
17
100
AcDbEntity
  8
WALL
100
AcDbHatch
 10
0.0
 20
0.0
 30
0.0
210
0.0
220
0.0
230
1.0
  2
SOLID
 70
1
 71
0
 91
1
 92
3
 72
0
 73
1
 93
4
 10
441.76000000000005
 20
938.9600000000002
 10
470.80000000000007
 20
938.9600000000002
 10
470.80000000000007
 20
933.6800000000002
 10
441.76000000000005
 20
933.6800000000002
 97
0
 75
1
 76
1
 98
0
  0
LWPOLYLINE
  5
38
330
17
100
AcDbEntity
  8
WALL
100
AcDbPolyline
 90
4
 70
1
 10
893.2000000000002
 20
908.1600000000001
 10
1062.16
 20
908.1600000000001
 10
1062.16
 20
893.2000000000002
 10
893.2000000000002
 20
893.2000000000002
  0
HATCH
  5
39
330
17
100
AcDbEntity
  8
WALL
100
AcDbHatch
 10
0.0
 20
0.0
 30
0.0
210
0.0
220
0.0
230
1.0
  2
SOLID
 70
1
 71
0
 91
1
 92
3
 72
0
 73
1
 93
4
 10
893.2000000000002
 20
908.1600000000001
 10
1062.16
 20
908.1600000000001
 10
1062.16
 20
893.2000000000002
 10
893.2000000000002
 20
893.2000000000002
 97
0
 75
1
 76
1
 98
0
  0
LWPOLYLINE
  5
3A
330
17
100
AcDbEntity
  8
WALL
100
AcDbPolyline
 90
4
 70
1
 10
718.9600000000002
 20
850.9600000000002
 10
902.0000000000001
 20
850.9600000000002
 10
902.0000000000001
 20
842.1600000000001
 10
718.9600000000002
 20
842.1600000000001
  0
HATCH
  5
3B
330
17
100
AcDbEntity
  8
WALL
100
AcDbHatch
 10
0.0
 20
0.0
 30
0.0
210
0.0
220
0.0
230
1.0
  2
SOLID
 70
1
 71
0
 91
1
 92
3
 72
0
 73
1
 93
4
 10
718.9600000000002
 20
850.9600000000002
 10
902.0000000000001
 20
850.9600000000002
 10
902.0000000000001
 20
842.1600000000001
 10
718.9600000000002
 20
842.1600000000001
 97
0
 75
1
 76
1
 98
0
  0
LWPOLYLINE
  5
3C
330
17
100
AcDbEntity
  8
WALL
100
AcDbPolyline
 90
4
 70
1
 10
432.08000000000004
 20
838.6400000000001
 10
542.96
 20
838.6400000000001
 10
542.96
 20
831.6000000000001
 10
432.08000000000004
 20
831.6000000000001
  0
HATCH
  5
3D
330
17
100
AcDbEntity
  8
WALL
100
AcDbHatch
 10
0.0
 20
0.0
 30
0.0
210
0.0
220
0.0
230
1.0
  2
SOLID
 70
1
 71
0
 91
1
 92
3
 72
0
 73
1
 93
4
 10
432.08000000000004
 20
838.6400000000001
 10
542.96
 20
838.6400000000001
 10
542.96
 20
831.6000000000001
 10
432.08000000000004
 20
831.6000000000001
 97
0
 75
1
 76
1
 98
0
  0
LWPOLYLINE
  5
3E
330
17
100
AcDbEntity
  8
WALL
100
AcDbPolyline
 90
4
 70
1
 10
889.6800000000001
 20
828.0800000000002
 10
923.1200000000001
 20
828.0800000000002
 10
923.1200000000001
 20
822.8000000000001
 10
889.6800000000001
 20
822.8000000000001
  0
HATCH
  5
3F
330
17
100
AcDbEntity
  8
WALL
100
AcDbHatch
 10
0.0
 20
0.0
 30
0.0
210
0.0
220
0.0
230
1.0
  2
SOLID
 70
1
 71
0
 91
1
 92
3
 72
0
 73
1
 93
4
 10
889.6800000000001
 20
828.0800000000002
 10
923.1200000000001
 20
828.0800000000002
 10
923.1200000000001
 20
822.8000000000001
 10
889.6800000000001
 20
822.8000000000001
 97
0
 75
1
 76
1
 98
0
  0
LWPOLYLINE
  5
40
330
17
100
AcDbEntity
  8
WALL
100
AcDbPolyline
 90
4
 70
1
 10
858.0000000000001
 20
814.0000000000001
 10
885.2800000000001
 20
814.0000000000001
 10
885.2800000000001
 20
813.1200000000001
 10
858.0000000000001
 20
813.1200000000001
  0
HATCH
  5
41
330
17
100
AcDbEntity
  8
WALL
100
AcDbHatch
 10
0.0
 20
0.0
 30
0.0
210
0.0
220
0.0
230
1.0
  2
SOLID
 70
1
 71
0
 91
1
 92
3
 72
0
 73
1
 93
4
 10
858.0000000000001
 20
814.0000000000001
 10
885.2800000000001
 20
814.0000000000001
 10
885.2800000000001
 20
813.1200000000001
 10
858.0000000000001
 20
813.1200000000001
 97
0
 75
1
 76
1
 98
0
  0
LWPOLYLINE
  5
42
330
17
100
AcDbEntity
  8
WALL
100
AcDbPolyline
 90
4
 70
1
 10
464.64000000000004
 20
696.08
 10
535.9200000000001
 20
696.08
 10
535.9200000000001
 20
689.0400000000001
 10
464.64000000000004
 20
689.0400000000001
  0
HATCH
  5
43
330
17
100
AcDbEntity
  8
WALL
100
AcDbHatch
 10
0.0
 20
0.0
 30
0.0
210
0.0
220
0.0
230
1.0
  2
SOLID
 70
1
 71
0
 91
1
 92
3
 72
0
 73
1
 93
4
 10
464.64000000000004
 20
696.08
 10
535.9200000000001
 20
696.08
 10
535.9200000000001
 20
689.0400000000001
 10
464.64000000000004
 20
689.0400000000001
 97
0
 75
1
 76
1
 98
0
  0
LWPOLYLINE
  5
44
330
17
100
AcDbEntity
  8
WALL
100
AcDbPolyline
 90
4
 70
1
 10
995.2800000000001
 20
687.2800000000001
 10
1046.3200000000002
 20
687.2800000000001
 10
1046.3200000000002
 20
682.0000000000001
 10
995.2800000000001
 20
682.0000000000001
  0
HATCH
  5
45
330
17
100
AcDbEntity
  8
WALL
100
AcDbHatch
 10
0.0
 20
0.0
 30
0.0
210
0.0
220
0.0
230
1.0
  2
SOLID
 70
1
 71
0
 91
1
 92
3
 72
0
 73
1
 93
4
 10
995.2800000000001
 20
687.2800000000001
 10
1046.3200000000002
 20
687.2800000000001
 10
1046.3200000000002
 20
682.0000000000001
 10
995.2800000000001
 20
682.0000000000001
 97
0
 75
1
 76
1
 98
0
  0
LWPOLYLINE
  5
46
330
17
100
AcDbEntity
  8
WALL
100
AcDbPolyline
 90
4
 70
1
 10
645.0400000000001
 20
673.2
 10
1062.16
 20
673.2
 10
1062.16
 20
655.6000000000001
 10
645.0400000000001
 20
655.6000000000001
  0
HATCH
  5
47
330
17
100
AcDbEntity
  8
WALL
100
AcDbHatch
 10
0.0
 20
0.0
 30
0.0
210
0.0
220
0.0
230
1.0
  2
SOLID
 70
1
 71
0
 91
1
 92
3
 72
0
 73
1
 93
4
 10
645.0400000000001
 20
673.2
 10
1062.16
 20
673.2
 10
1062.16
 20
655.6000000000001
 10
645.0400000000001
 20
655.6000000000001
 97
0
 75
1
 76
1
 98
0
  0
LWPOLYLINE
  5
48
330
17
100
AcDbEntity
  8
WALL
100
AcDbPolyline
 90
4
 70
1
 10
893.2000000000002
 20
634.4800000000001
 10
975.9200000000001
 20
634.4800000000001
 10
975.9200000000001
 20
618.6400000000001
 10
893.2000000000002
 20
618.6400000000001
  0
HATCH
  5
49
330
17
100
AcDbEntity
  8
WALL
100
AcDbHatch
 10
0.0
 20
0.0
 30
0.0
210
0.0
220
0.0
230
1.0
  2
SOLID
 70
1
 71
0
 91
1
 92
3
 72
0
 73
1
 93
4
 10
893.2000000000002
 20
634.4800000000001
 10
975.9200000000001
 20
634.4800000000001
 10
975.9200000000001
 20
618.6400000000001
 10
893.2000000000002
 20
618.6400000000001
 97
0
 75
1
 76
1
 98
0
  0
LWPOLYLINE
  5
4A
330
17
100
AcDbEntity
  8
WALL
100
AcDbPolyline
 90
4
 70
1
 10
891.4400000000002
 20
610.72
 10
926.6400000000001
 20
610.72
 10
926.6400000000001
 20
601.9200000000001
 10
891.4400000000002
 20
601.9200000000001
  0
HATCH
  5
4B
330
17
100
AcDbEntity
  8
WALL
100
AcDbHatch
 10
0.0
 20
0.0
 30
0.0
210
0.0
220
0.0
230
1.0
  2
SOLID
 70
1
 71
0
 91
1
 92
3
 72
0
 73
1
 93
4
 10
891.4400000000002
 20
610.72
 10
926.6400000000001
 20
610.72
 10
926.6400000000001
 20
601.9200000000001
 10
891.4400000000002
 20
601.9200000000001
 97
0
 75
1
 76
1
 98
0
  0
LWPOLYLINE
  5
4C
330
17
100
AcDbEntity
  8
WALL
100
AcDbPolyline
 90
4
 70
1
 10
894.9600000000002
 20
594.8800000000001
 10
919.6000000000001
 20
594.8800000000001
 10
919.6000000000001
 20
594.0000000000001
 10
894.9600000000002
 20
594.0000000000001
  0
HATCH
  5
4D
330
17
100
AcDbEntity
  8
WALL
100
AcDbHatch
 10
0.0
 20
0.0
 30
0.0
210
0.0
220
0.0
230
1.0
  2
SOLID
 70
1
 71
0
 91
1
 92
3
 72
0
 73
1
 93
4
 10
894.9600000000002
 20
594.8800000000001
 10
919.6000000000001
 20
594.8800000000001
 10
919.6000000000001
 20
594.0000000000001
 10
894.9600000000002
 20
594.0000000000001
 97
0
 75
1
 76
1
 98
0
  0
LWPOLYLINE
  5
4E
330
17
100
AcDbEntity
  8
WALL
100
AcDbPolyline
 90
4
 70
1
 10
491.9200000000001
 20
586.96
 10
544.72
 20
586.96
 10
544.72
 20
576.4000000000001
 10
491.9200000000001
 20
576.4000000000001
  0
HATCH
  5
4F
330
17
100
AcDbEntity
  8
WALL
100
AcDbHatch
 10
0.0
 20
0.0
 30
0.0
210
0.0
220
0.0
230
1.0
  2
SOLID
 70
1
 71
0
 91
1
 92
3
 72
0
 73
1
 93
4
 10
491.9200000000001
 20
586.96
 10
544.72
 20
586.96
 10
544.72
 20
576.4000000000001
 10
491.9200000000001
 20
576.4000000000001
 97
0
 75
1
 76
1
 98
0
  0
LWPOLYLINE
  5
50
330
17
100
AcDbEntity
  8
WALL
100
AcDbPolyline
 90
4
 70
1
 10
374.00000000000006
 20
534.1600000000001
 10
453.20000000000005
 20
534.1600000000001
 10
453.20000000000005
 20
527.1200000000001
 10
374.00000000000006
 20
527.1200000000001
  0
HATCH
  5
51
330
17
100
AcDbEntity
  8
WALL
100
AcDbHatch
 10
0.0
 20
0.0
 30
0.0
210
0.0
220
0.0
230
1.0
  2
SOLID
 70
1
 71
0
 91
1
 92
3
 72
0
 73
1
 93
4
 10
374.00000000000006
 20
534.1600000000001
 10
453.20000000000005
 20
534.1600000000001
 10
453.20000000000005
 20
527.1200000000001
 10
374.00000000000006
 20
527.1200000000001
 97
0
 75
1
 76
1
 98
0
  0
LWPOLYLINE
  5
52
330
17
100
AcDbEntity
  8
WALL
100
AcDbPolyline
 90
4
 70
1
 10
771.7600000000001
 20
491.9200000000001
 10
824.5600000000001
 20
491.9200000000001
 10
824.5600000000001
 20
486.64000000000004
 10
771.7600000000001
 20
486.64000000000004
  0
HATCH
  5
53
330
17
100
AcDbEntity
  8
WALL
100
AcDbHatch
 10
0.0
 20
0.0
 30
0.0
210
0.0
220
0.0
230
1.0
  2
SOLID
 70
1
 71
0
 91
1
 92
3
 72
0
 73
1
 93
4
 10
771.7600000000001
 20
491.9200000000001
 10
824.5600000000001
 20
491.9200000000001
 10
824.5600000000001
 20
486.64000000000004
 10
771.7600000000001
 20
486.64000000000004
 97
0
 75
1
 76
1
 98
0
  0
LWPOLYLINE
  5
54
330
17
100
AcDbEntity
  8
WALL
100
AcDbPolyline
 90
4
 70
1
 10
826.3200000000002
 20
491.9200000000001
 10
887.9200000000001
 20
491.9200000000001
 10
887.9200000000001
 20
486.64000000000004
 10
826.3200000000002
 20
486.64000000000004
  0
HATCH
  5
55
330
17
100
AcDbEntity
  8
WALL
100
AcDbHatch
 10
0.0
 20
0.0
 30
0.0
210
0.0
220
0.0
230
1.0
  2
SOLID
 70
1
 71
0
 91
1
 92
3
 72
0
 73
1
 93
4
 10
826.3200000000002
 20
491.9200000000001
 10
887.9200000000001
 20
491.9200000000001
 10
887.9200000000001
 20
486.64000000000004
 10
826.3200000000002
 20
486.64000000000004
 97
0
 75
1
 76
1
 98
0
  0
LWPOLYLINE
  5
56
330
17
100
AcDbEntity
  8
WALL
100
AcDbPolyline
 90
4
 70
1
 10
393.36000000000007
 20
484.88000000000005
 10
423.28000000000003
 20
484.88000000000005
 10
423.28000000000003
 20
479.6000000000001
 10
393.36000000000007
 20
479.6000000000001
  0
HATCH
  5
57
330
17
100
AcDbEntity
  8
WALL
100
AcDbHatch
 10
0.0
 20
0.0
 30
0.0
210
0.0
220
0.0
230
1.0
  2
SOLID
 70
1
 71
0
 91
1
 92
3
 72
0
 73
1
 93
4
 10
393.36000000000007
 20
484.88000000000005
 10
423.28000000000003
 20
484.88000000000005
 10
423.28000000000003
 20
479.6000000000001
 10
393.36000000000007
 20
479.6000000000001
 97
0
 75
1
 76
1
 98
0
  0
LWPOLYLINE
  5
58
330
17
100
AcDbEntity
  8
WALL
100
AcDbPolyline
 90
4
 70
1
 10
645.0400000000001
 20
447.9200000000001
 10
907.2800000000001
 20
447.9200000000001
 10
907.2800000000001
 20
437.36000000000007
 10
645.0400000000001
 20
437.36000000000007
  0
HATCH
  5
59
330
17
100
AcDbEntity
  8
WALL
100
AcDbHatch
 10
0.0
 20
0.0
 30
0.0
210
0.0
220
0.0
230
1.0
  2
SOLID
 70
1
 71
0
 91
1
 92
3
 72
0
 73
1
 93
4
 10
645.0400000000001
 20
447.9200000000001
 10
907.2800000000001
 20
447.9200000000001
 10
907.2800000000001
 20
437.36000000000007
 10
645.0400000000001
 20
437.36000000000007
 97
0
 75
1
 76
1
 98
0
  0
LWPOLYLINE
  5
5A
330
17
100
AcDbEntity
  8
WALL
100
AcDbPolyline
 90
4
 70
1
 10
374.00000000000006
 20
393.36000000000007
 10
398.64000000000004
 20
393.36000000000007
 10
398.64000000000004
 20
388.08000000000004
 10
374.00000000000006
 20
388.08000000000004
  0
HATCH
  5
5B
330
17
100
AcDbEntity
  8
WALL
100
AcDbHatch
 10
0.0
 20
0.0
 30
0.0
210
0.0
220
0.0
230
1.0
  2
SOLID
 70
1
 71
0
 91
1
 92
3
 72
0
 73
1
 93
4
 10
374.00000000000006
 20
393.36000000000007
 10
398.64000000000004
 20
393.36000000000007
 10
398.64000000000004
 20
388.08000000000004
 10
374.00000000000006
 20
388.08000000000004
 97
0
 75
1
 76
1
 98
0
  0
LWPOLYLINE
  5
5C
330
17
100
AcDbEntity
  8
WALL
100
AcDbPolyline
 90
4
 70
1
 10
170.72000000000003
 20
382.80000000000007
 10
388.08000000000004
 20
382.80000000000007
 10
388.08000000000004
 20
366.08000000000004
 10
170.72000000000003
 20
366.08000000000004
  0
HATCH
  5
5D
330
17
100
AcDbEntity
  8
WALL
100
AcDbHatch
 10
0.0
 20
0.0
 30
0.0
210
0.0
220
0.0
230
1.0
  2
SOLID
 70
1
 71
0
 91
1
 92
3
 72
0
 73
1
 93
4
 10
170.72000000000003
 20
382.80000000000007
 10
388.08000000000004
 20
382.80000000000007
 10
388.08000000000004
 20
366.08000000000004
 10
170.72000000000003
 20
366.08000000000004
 97
0
 75
1
 76
1
 98
0
  0
LWPOLYLINE
  5
5E
330
17
100
AcDbEntity
  8
WALL
100
AcDbPolyline
 90
4
 70
1
 10
393.36000000000007
 20
368.72
 10
435.6000000000001
 20
368.72
 10
435.6000000000001
 20
363.44000000000005
 10
393.36000000000007
 20
363.44000000000005
  0
HATCH
  5
5F
330
17
100
AcDbEntity
  8
WALL
100
AcDbHatch
 10
0.0
 20
0.0
 30
0.0
210
0.0
220
0.0
230
1.0
  2
SOLID
 70
1
 71
0
 91
1
 92
3
 72
0
 73
1
 93
4
 10
393.36000000000007
 20
368.72
 10
435.6000000000001
 20
368.72
 10
435.6000000000001
 20
363.44000000000005
 10
393.36000000000007
 20
363.44000000000005
 97
0
 75
1
 76
1
 98
0
  0
LWPOLYLINE
  5
60
330
17
100
AcDbEntity
  8
WALL
100
AcDbPolyline
 90
4
 70
1
 10
444.40000000000003
 20
368.72
 10
483.12000000000006
 20
368.72
 10
483.12000000000006
 20
363.44000000000005
 10
444.40000000000003
 20
363.44000000000005
  0
HATCH
  5
61
330
17
100
AcDbEntity
  8
WALL
100
AcDbHatch
 10
0.0
 20
0.0
 30
0.0
210
0.0
220
0.0
230
1.0
  2
SOLID
 70
1
 71
0
 91
1
 92
3
 72
0
 73
1
 93
4
 10
444.40000000000003
 20
368.72
 10
483.12000000000006
 20
368.72
 10
483.12000000000006
 20
363.44000000000005
 10
444.40000000000003
 20
363.44000000000005
 97
0
 75
1
 76
1
 98
0
  0
LWPOLYLINE
  5
62
330
17
100
AcDbEntity
  8
WALL
100
AcDbPolyline
 90
4
 70
1
 10
729.5200000000001
 20
366.96000000000004
 10
755.9200000000001
 20
366.96000000000004
 10
755.9200000000001
 20
362.56000000000006
 10
729.5200000000001
 20
362.56000000000006
  0
HATCH
  5
63
330
17
100
AcDbEntity
  8
WALL
100
AcDbHatch
 10
0.0
 20
0.0
 30
0.0
210
0.0
220
0.0
230
1.0
  2
SOLID
 70
1
 71
0
 91
1
 92
3
 72
0
 73
1
 93
4
 10
729.5200000000001
 20
366.96000000000004
 10
755.9200000000001
 20
366.96000000000004
 10
755.9200000000001
 20
362.56000000000006
 10
729.5200000000001
 20
362.56000000000006
 97
0
 75
1
 76
1
 98
0
  0
LWPOLYLINE
  5
64
330
17
100
AcDbEntity
  8
WALL
100
AcDbPolyline
 90
4
 70
1
 10
18.480000000000004
 20
303.6
 10
161.04000000000002
 20
303.6
 10
161.04000000000002
 20
289.52000000000004
 10
18.480000000000004
 20
289.52000000000004
  0
HATCH
  5
65
330
17
100
AcDbEntity
  8
WALL
100
AcDbHatch
 10
0.0
 20
0.0
 30
0.0
210
0.0
220
0.0
230
1.0
  2
SOLID
 70
1
 71
0
 91
1
 92
3
 72
0
 73
1
 93
4
 10
18.480000000000004
 20
303.6
 10
161.04000000000002
 20
303.6
 10
161.04000000000002
 20
289.52000000000004
 10
18.480000000000004
 20
289.52000000000004
 97
0
 75
1
 76
1
 98
0
  0
LWPOLYLINE
  5
66
330
17
100
AcDbEntity
  8
WALL
100
AcDbPolyline
 90
4
 70
1
 10
296.56000000000006
 20
261.36
 10
409.20000000000005
 20
261.36
 10
409.20000000000005
 20
250.80000000000004
 10
296.56000000000006
 20
250.80000000000004
  0
HATCH
  5
67
330
17
100
AcDbEntity
  8
WALL
100
AcDbHatch
 10
0.0
 20
0.0
 30
0.0
210
0.0
220
0.0
230
1.0
  2
SOLID
 70
1
 71
0
 91
1
 92
3
 72
0
 73
1
 93
4
 10
296.56000000000006
 20
261.36
 10
409.20000000000005
 20
261.36
 10
409.20000000000005
 20
250.80000000000004
 10
296.56000000000006
 20
250.80000000000004
 97
0
 75
1
 76
1
 98
0
  0
LWPOLYLINE
  5
68
330
17
100
AcDbEntity
  8
WALL
100
AcDbPolyline
 90
4
 70
1
 10
476.96000000000004
 20
259.6
 10
560.5600000000001
 20
259.6
 10
560.5600000000001
 20
250.80000000000004
 10
476.96000000000004
 20
250.80000000000004
  0
HATCH
  5
69
330
17
100
AcDbEntity
  8
WALL
100
AcDbHatch
 10
0.0
 20
0.0
 30
0.0
210
0.0
220
0.0
230
1.0
  2
SOLID
 70
1
 71
0
 91
1
 92
3
 72
0
 73
1
 93
4
 10
476.96000000000004
 20
259.6
 10
560.5600000000001
 20
259.6
 10
560.5600000000001
 20
250.80000000000004
 10
476.96000000000004
 20
250.80000000000004
 97
0
 75
1
 76
1
 98
0
  0
LWPOLYLINE
  5
6A
330
17
100
AcDbEntity
  8
WALL
100
AcDbPolyline
 90
4
 70
1
 10
639.7600000000001
 20
259.6
 10
907.2800000000001
 20
259.6
 10
907.2800000000001
 20
249.04000000000002
 10
639.7600000000001
 20
249.04000000000002
  0
HATCH
  5
6B
330
17
100
AcDbEntity
  8
WALL
100
AcDbHatch
 10
0.0
 20
0.0
 30
0.0
210
0.0
220
0.0
230
1.0
  2
SOLID
 70
1
 71
0
 91
1
 92
3
 72
0
 73
1
 93
4
 10
639.7600000000001
 20
259.6
 10
907.2800000000001
 20
259.6
 10
907.2800000000001
 20
249.04000000000002
 10
639.7600000000001
 20
249.04000000000002
 97
0
 75
1
 76
1
 98
0
  0
LWPOLYLINE
  5
6C
330
17
100
AcDbEntity
  8
WALL
100
AcDbPolyline
 90
4
 70
1
 10
997.0400000000001
 20
254.32000000000002
 10
1023.4400000000002
 20
254.32000000000002
 10
1023.4400000000002
 20
252.56000000000003
 10
997.0400000000001
 20
252.56000000000003
  0
HATCH
  5
6D
330
17
100
AcDbEntity
  8
WALL
100
AcDbHatch
 10
0.0
 20
0.0
 30
0.0
210
0.0
220
0.0
230
1.0
  2
SOLID
 70
1
 71
0
 91
1
 92
3
 72
0
 73
1
 93
4
 10
997.0400000000001
 20
254.32000000000002
 10
1023.4400000000002
 20
254.32000000000002
 10
1023.4400000000002
 20
252.56000000000003
 10
997.0400000000001
 20
252.56000000000003
 97
0
 75
1
 76
1
 98
0
  0
LWPOLYLINE
  5
6E
330
17
100
AcDbEntity
  8
WALL
100
AcDbPolyline
 90
4
 70
1
 10
272.8
 20
175.12000000000003
 10
308.88000000000005
 20
175.12000000000003
 10
308.88000000000005
 20
168.08
 10
272.8
 20
168.08
  0
HATCH
  5
6F
330
17
100
AcDbEntity
  8
WALL
100
AcDbHatch
 10
0.0
 20
0.0
 30
0.0
210
0.0
220
0.0
230
1.0
  2
SOLID
 70
1
 71
0
 91
1
 92
3
 72
0
 73
1
 93
4
 10
272.8
 20
175.12000000000003
 10
308.88000000000005
 20
175.12000000000003
 10
308.88000000000005
 20
168.08
 10
272.8
 20
168.08
 97
0
 75
1
 76
1
 98
0
  0
LWPOLYLINE
  5
70
330
17
100
AcDbEntity
  8
WALL
100
AcDbPolyline
 90
4
 70
1
 10
891.4400000000002
 20
166.32000000000002
 10
1033.1200000000001
 20
166.32000000000002
 10
1033.1200000000001
 20
150.48000000000002
 10
891.4400000000002
 20
150.48000000000002
  0
HATCH
  5
71
330
17
100
AcDbEntity
  8
WALL
100
AcDbHatch
 10
0.0
 20
0.0
 30
0.0
210
0.0
220
0.0
230
1.0
  2
SOLID
 70
1
 71
0
 91
1
 92
3
 72
0
 73
1
 93
4
 10
891.4400000000002
 20
166.32000000000002
 10
1033.1200000000001
 20
166.32000000000002
 10
1033.1200000000001
 20
150.48000000000002
 10
891.4400000000002
 20
150.48000000000002
 97
0
 75
1
 76
1
 98
0
  0
LWPOLYLINE
  5
72
330
17
100
AcDbEntity
  8
WALL
100
AcDbPolyline
 90
4
 70
1
 10
298.32000000000005
 20
146.96
 10
405.68000000000006
 20
146.96
 10
405.68000000000006
 20
136.4
 10
298.32000000000005
 20
136.4
  0
HATCH
  5
73
330
17
100
AcDbEntity
  8
WALL
100
AcDbHatch
 10
0.0
 20
0.0
 30
0.0
210
0.0
220
0.0
230
1.0
  2
SOLID
 70
1
 71
0
 91
1
 92
3
 72
0
 73
1
 93
4
 10
298.32000000000005
 20
146.96
 10
405.68000000000006
 20
146.96
 10
405.68000000000006
 20
136.4
 10
298.32000000000005
 20
136.4
 97
0
 75
1
 76
1
 98
0
  0
LWPOLYLINE
  5
74
330
17
100
AcDbEntity
  8
WALL
100
AcDbPolyline
 90
4
 70
1
 10
18.480000000000004
 20
114.40000000000002
 10
227.92000000000002
 20
114.40000000000002
 10
227.92000000000002
 20
97.68
 10
18.480000000000004
 20
97.68
  0
HATCH
  5
75
330
17
100
AcDbEntity
  8
WALL
100
AcDbHatch
 10
0.0
 20
0.0
 30
0.0
210
0.0
220
0.0
230
1.0
  2
SOLID
 70
1
 71
0
 91
1
 92
3
 72
0
 73
1
 93
4
 10
18.480000000000004
 20
114.40000000000002
 10
227.92000000000002
 20
114.40000000000002
 10
227.92000000000002
 20
97.68
 10
18.480000000000004
 20
97.68
 97
0
 75
1
 76
1
 98
0
  0
LWPOLYLINE
  5
76
330
17
100
AcDbEntity
  8
WALL
100
AcDbPolyline
 90
4
 70
1
 10
300.96000000000004
 20
110.00000000000001
 10
338.80000000000007
 20
110.00000000000001
 10
338.80000000000007
 20
97.68
 10
300.96000000000004
 20
97.68
  0
HATCH
  5
77
330
17
100
AcDbEntity
  8
WALL
100
AcDbHatch
 10
0.0
 20
0.0
 30
0.0
210
0.0
220
0.0
230
1.0
  2
SOLID
 70
1
 71
0
 91
1
 92
3
 72
0
 73
1
 93
4
 10
300.96000000000004
 20
110.00000000000001
 10
338.80000000000007
 20
110.00000000000001
 10
338.80000000000007
 20
97.68
 10
300.96000000000004
 20
97.68
 97
0
 75
1
 76
1
 98
0
  0
LWPOLYLINE
  5
78
330
17
100
AcDbEntity
  8
WALL
100
AcDbPolyline
 90
4
 70
1
 10
545.6
 20
110.00000000000001
 10
645.9200000000001
 20
110.00000000000001
 10
645.9200000000001
 20
95.92000000000002
 10
545.6
 20
95.92000000000002
  0
HATCH
  5
79
330
17
100
AcDbEntity
  8
WALL
100
AcDbHatch
 10
0.0
 20
0.0
 30
0.0
210
0.0
220
0.0
230
1.0
  2
SOLID
 70
1
 71
0
 91
1
 92
3
 72
0
 73
1
 93
4
 10
545.6
 20
110.00000000000001
 10
645.9200000000001
 20
110.00000000000001
 10
645.9200000000001
 20
95.92000000000002
 10
545.6
 20
95.92000000000002
 97
0
 75
1
 76
1
 98
0
  0
LWPOLYLINE
  5
7A
330
17
100
AcDbEntity
  8
WALL
100
AcDbPolyline
 90
4
 70
1
 10
810.4800000000001
 20
108.24000000000001
 10
884.4000000000001
 20
108.24000000000001
 10
884.4000000000001
 20
94.16000000000001
 10
810.4800000000001
 20
94.16000000000001
  0
HATCH
  5
7B
330
17
100
AcDbEntity
  8
WALL
100
AcDbHatch
 10
0.0
 20
0.0
 30
0.0
210
0.0
220
0.0
230
1.0
  2
SOLID
 70
1
 71
0
 91
1
 92
3
 72
0
 73
1
 93
4
 10
810.4800000000001
 20
108.24000000000001
 10
884.4000000000001
 20
108.24000000000001
 10
884.4000000000001
 20
94.16000000000001
 10
810.4800000000001
 20
94.16000000000001
 97
0
 75
1
 76
1
 98
0
  0
LWPOLYLINE
  5
7C
330
17
100
AcDbEntity
  8
WALL
100
AcDbPolyline
 90
4
 70
1
 10
856.2400000000001
 20
1056.88
 10
861.5200000000001
 20
1056.88
 10
861.5200000000001
 20
1019.9200000000002
 10
856.2400000000001
 20
1019.9200000000002
  0
HATCH
  5
7D
330
17
100
AcDbEntity
  8
WALL
100
AcDbHatch
 10
0.0
 20
0.0
 30
0.0
210
0.0
220
0.0
230
1.0
  2
SOLID
 70
1
 71
0
 91
1
 92
3
 72
0
 73
1
 93
4
 10
856.2400000000001
 20
1056.88
 10
861.5200000000001
 20
1056.88
 10
861.5200000000001
 20
1019.9200000000002
 10
856.2400000000001
 20
1019.9200000000002
 97
0
 75
1
 76
1
 98
0
  0
LWPOLYLINE
  5
7E
330
17
100
AcDbEntity
  8
WALL
100
AcDbPolyline
 90
4
 70
1
 10
862.4000000000001
 20
1009.3600000000001
 10
866.8000000000001
 20
1009.3600000000001
 10
866.8000000000001
 20
982.9600000000002
 10
862.4000000000001
 20
982.9600000000002
  0
HATCH
  5
7F
330
17
100
AcDbEntity
  8
WALL
100
AcDbHatch
 10
0.0
 20
0.0
 30
0.0
210
0.0
220
0.0
230
1.0
  2
SOLID
 70
1
 71
0
 91
1
 92
3
 72
0
 73
1
 93
4
 10
862.4000000000001
 20
1009.3600000000001
 10
866.8000000000001
 20
1009.3600000000001
 10
866.8000000000001
 20
982.9600000000002
 10
862.4000000000001
 20
982.9600000000002
 97
0
 75
1
 76
1
 98
0
  0
LWPOLYLINE
  5
80
330
17
100
AcDbEntity
  8
WALL
100
AcDbPolyline
 90
4
 70
1
 10
720.7200000000001
 20
982.0800000000002
 10
721.6000000000001
 20
982.0800000000002
 10
721.6000000000001
 20
958.3200000000002
 10
720.7200000000001
 20
958.3200000000002
  0
HATCH
  5
81
330
17
100
AcDbEntity
  8
WALL
100
AcDbHatch
 10
0.0
 20
0.0
 30
0.0
210
0.0
220
0.0
230
1.0
  2
SOLID
 70
1
 71
0
 91
1
 92
3
 72
0
 73
1
 93
4
 10
720.7200000000001
 20
982.0800000000002
 10
721.6000000000001
 20
982.0800000000002
 10
721.6000000000001
 20
958.3200000000002
 10
720.7200000000001
 20
958.3200000000002
 97
0
 75
1
 76
1
 98
0
  0
LWPOLYLINE
  5
82
330
17
100
AcDbEntity
  8
WALL
100
AcDbPolyline
 90
4
 70
1
 10
643.2800000000001
 20
961.8400000000001
 10
655.6000000000001
 20
961.8400000000001
 10
655.6000000000001
 20
805.2000000000002
 10
643.2800000000001
 20
805.2000000000002
  0
HATCH
  5
83
330
17
100
AcDbEntity
  8
WALL
100
AcDbHatch
 10
0.0
 20
0.0
 30
0.0
210
0.0
220
0.0
230
1.0
  2
SOLID
 70
1
 71
0
 91
1
 92
3
 72
0
 73
1
 93
4
 10
643.2800000000001
 20
961.8400000000001
 10
655.6000000000001
 20
961.8400000000001
 10
655.6000000000001
 20
805.2000000000002
 10
643.2800000000001
 20
805.2000000000002
 97
0
 75
1
 76
1
 98
0
  0
LWPOLYLINE
  5
84
330
17
100
AcDbEntity
  8
WALL
100
AcDbPolyline
 90
4
 70
1
 10
890.5600000000002
 20
959.2000000000002
 10
907.2800000000001
 20
959.2000000000002
 10
907.2800000000001
 20
806.9600000000002
 10
890.5600000000002
 20
806.9600000000002
  0
HATCH
  5
85
330
17
100
AcDbEntity
  8
WALL
100
AcDbHatch
 10
0.0
 20
0.0
 30
0.0
210
0.0
220
0.0
230
1.0
  2
SOLID
 70
1
 71
0
 91
1
 92
3
 72
0
 73
1
 93
4
 10
890.5600000000002
 20
959.2000000000002
 10
907.2800000000001
 20
959.2000000000002
 10
907.2800000000001
 20
806.9600000000002
 10
890.5600000000002
 20
806.9600000000002
 97
0
 75
1
 76
1
 98
0
  0
LWPOLYLINE
  5
86
330
17
100
AcDbEntity
  8
WALL
100
AcDbPolyline
 90
4
 70
1
 10
374.00000000000006
 20
955.6800000000002
 10
391.6000000000001
 20
955.6800000000002
 10
391.6000000000001
 20
368.72
 10
374.00000000000006
 20
368.72
  0
HATCH
  5
87
330
17
100
AcDbEntity
  8
WALL
100
AcDbHatch
 10
0.0
 20
0.0
 30
0.0
210
0.0
220
0.0
230
1.0
  2
SOLID
 70
1
 71
0
 91
1
 92
3
 72
0
 73
1
 93
4
 10
374.00000000000006
 20
955.6800000000002
 10
391.6000000000001
 20
955.6800000000002
 10
391.6000000000001
 20
368.72
 10
374.00000000000006
 20
368.72
 97
0
 75
1
 76
1
 98
0
  0
LWPOLYLINE
  5
88
330
17
100
AcDbEntity
  8
WALL
100
AcDbPolyline
 90
4
 70
1
 10
442.64000000000004
 20
941.6000000000001
 10
447.9200000000001
 20
941.6000000000001
 10
447.9200000000001
 20
912.5600000000002
 10
442.64000000000004
 20
912.5600000000002
  0
HATCH
  5
89
330
17
100
AcDbEntity
  8
WALL
100
AcDbHatch
 10
0.0
 20
0.0
 30
0.0
210
0.0
220
0.0
230
1.0
  2
SOLID
 70
1
 71
0
 91
1
 92
3
 72
0
 73
1
 93
4
 10
442.64000000000004
 20
941.6000000000001
 10
447.9200000000001
 20
941.6000000000001
 10
447.9200000000001
 20
912.5600000000002
 10
442.64000000000004
 20
912.5600000000002
 97
0
 75
1
 76
1
 98
0
  0
LWPOLYLINE
  5
8A
330
17
100
AcDbEntity
  8
WALL
100
AcDbPolyline
 90
4
 70
1
 10
616.8800000000001
 20
939.8400000000001
 10
620.4000000000001
 20
939.8400000000001
 10
620.4000000000001
 20
903.7600000000001
 10
616.8800000000001
 20
903.7600000000001
  0
HATCH
  5
8B
330
17
100
AcDbEntity
  8
WALL
100
AcDbHatch
 10
0.0
 20
0.0
 30
0.0
210
0.0
220
0.0
230
1.0
  2
SOLID
 70
1
 71
0
 91
1
 92
3
 72
0
 73
1
 93
4
 10
616.8800000000001
 20
939.8400000000001
 10
620.4000000000001
 20
939.8400000000001
 10
620.4000000000001
 20
903.7600000000001
 10
616.8800000000001
 20
903.7600000000001
 97
0
 75
1
 76
1
 98
0
  0
LWPOLYLINE
  5
8C
330
17
100
AcDbEntity
  8
WALL
100
AcDbPolyline
 90
4
 70
1
 10
1048.0800000000002
 20
907.2800000000001
 10
1062.16
 20
907.2800000000001
 10
1062.16
 20
743.6000000000001
 10
1048.0800000000002
 20
743.6000000000001
  0
HATCH
  5
8D
330
17
100
AcDbEntity
  8
WALL
100
AcDbHatch
 10
0.0
 20
0.0
 30
0.0
210
0.0
220
0.0
230
1.0
  2
SOLID
 70
1
 71
0
 91
1
 92
3
 72
0
 73
1
 93
4
 10
1048.0800000000002
 20
907.2800000000001
 10
1062.16
 20
907.2800000000001
 10
1062.16
 20
743.6000000000001
 10
1048.0800000000002
 20
743.6000000000001
 97
0
 75
1
 76
1
 98
0
  0
LWPOLYLINE
  5
8E
330
17
100
AcDbEntity
  8
WALL
100
AcDbPolyline
 90
4
 70
1
 10
615.1200000000001
 20
890.5600000000002
 10
620.4000000000001
 20
890.5600000000002
 10
620.4000000000001
 20
858.0000000000001
 10
615.1200000000001
 20
858.0000000000001
  0
HATCH
  5
8F
330
17
100
AcDbEntity
  8
WALL
100
AcDbHatch
 10
0.0
 20
0.0
 30
0.0
210
0.0
220
0.0
230
1.0
  2
SOLID
 70
1
 71
0
 91
1
 92
3
 72
0
 73
1
 93
4
 10
615.1200000000001
 20
890.5600000000002
 10
620.4000000000001
 20
890.5600000000002
 10
620.4000000000001
 20
858.0000000000001
 10
615.1200000000001
 20
858.0000000000001
 97
0
 75
1
 76
1
 98
0
  0
LWPOLYLINE
  5
90
330
17
100
AcDbEntity
  8
WALL
100
AcDbPolyline
 90
4
 70
1
 10
718.9600000000002
 20
885.2800000000001
 10
724.2400000000001
 20
885.2800000000001
 10
724.2400000000001
 20
843.9200000000001
 10
718.9600000000002
 20
843.9200000000001
  0
HATCH
  5
91
330
17
100
AcDbEntity
  8
WALL
100
AcDbHatch
 10
0.0
 20
0.0
 30
0.0
210
0.0
220
0.0
230
1.0
  2
SOLID
 70
1
 71
0
 91
1
 92
3
 72
0
 73
1
 93
4
 10
718.9600000000002
 20
885.2800000000001
 10
724.2400000000001
 20
885.2800000000001
 10
724.2400000000001
 20
843.9200000000001
 10
718.9600000000002
 20
843.9200000000001
 97
0
 75
1
 76
1
 98
0
  0
LWPOLYLINE
  5
92
330
17
100
AcDbEntity
  8
WALL
100
AcDbPolyline
 90
4
 70
1
 10
877.3600000000001
 20
880.0000000000001
 10
881.7600000000001
 20
880.0000000000001
 10
881.7600000000001
 20
854.4800000000001
 10
877.3600000000001
 20
854.4800000000001
  0
HATCH
  5
93
330
17
100
AcDbEntity
  8
WALL
100
AcDbHatch
 10
0.0
 20
0.0
 30
0.0
210
0.0
220
0.0
230
1.0
  2
SOLID
 70
1
 71
0
 91
1
 92
3
 72
0
 73
1
 93
4
 10
877.3600000000001
 20
880.0000000000001
 10
881.7600000000001
 20
880.0000000000001
 10
881.7600000000001
 20
854.4800000000001
 10
877.3600000000001
 20
854.4800000000001
 97
0
 75
1
 76
1
 98
0
  0
LWPOLYLINE
  5
94
330
17
100
AcDbEntity
  8
WALL
100
AcDbPolyline
 90
4
 70
1
 10
432.96000000000004
 20
861.5200000000001
 10
439.12000000000006
 20
861.5200000000001
 10
439.12000000000006
 20
831.6000000000001
 10
432.96000000000004
 20
831.6000000000001
  0
HATCH
  5
95
330
17
100
AcDbEntity
  8
WALL
100
AcDbHatch
 10
0.0
 20
0.0
 30
0.0
210
0.0
220
0.0
230
1.0
  2
SOLID
 70
1
 71
0
 91
1
 92
3
 72
0
 73
1
 93
4
 10
432.96000000000004
 20
861.5200000000001
 10
439.12000000000006
 20
861.5200000000001
 10
439.12000000000006
 20
831.6000000000001
 10
432.96000000000004
 20
831.6000000000001
 97
0
 75
1
 76
1
 98
0
  0
LWPOLYLINE
  5
96
330
17
100
AcDbEntity
  8
WALL
100
AcDbPolyline
 90
4
 70
1
 10
852.7200000000001
 20
850.9600000000002
 10
858.0000000000001
 20
850.9600000000002
 10
858.0000000000001
 20
814.0000000000001
 10
852.7200000000001
 20
814.0000000000001
  0
HATCH
  5
97
330
17
100
AcDbEntity
  8
WALL
100
AcDbHatch
 10
0.0
 20
0.0
 30
0.0
210
0.0
220
0.0
230
1.0
  2
SOLID
 70
1
 71
0
 91
1
 92
3
 72
0
 73
1
 93
4
 10
852.7200000000001
 20
850.9600000000002
 10
858.0000000000001
 20
850.9600000000002
 10
858.0000000000001
 20
814.0000000000001
 10
852.7200000000001
 20
814.0000000000001
 97
0
 75
1
 76
1
 98
0
  0
LWPOLYLINE
  5
98
330
17
100
AcDbEntity
  8
WALL
100
AcDbPolyline
 90
4
 70
1
 10
859.7600000000001
 20
850.9600000000002
 10
868.5600000000001
 20
850.9600000000002
 10
868.5600000000001
 20
824.5600000000001
 10
859.7600000000001
 20
824.5600000000001
  0
HATCH
  5
99
330
17
100
AcDbEntity
  8
WALL
100
AcDbHatch
 10
0.0
 20
0.0
 30
0.0
210
0.0
220
0.0
230
1.0
  2
SOLID
 70
1
 71
0
 91
1
 92
3
 72
0
 73
1
 93
4
 10
859.7600000000001
 20
850.9600000000002
 10
868.5600000000001
 20
850.9600000000002
 10
868.5600000000001
 20
824.5600000000001
 10
859.7600000000001
 20
824.5600000000001
 97
0
 75
1
 76
1
 98
0
  0
LWPOLYLINE
  5
9A
330
17
100
AcDbEntity
  8
WALL
100
AcDbPolyline
 90
4
 70
1
 10
618.6400000000001
 20
837.7600000000001
 10
619.5200000000001
 20
837.7600000000001
 10
619.5200000000001
 20
814.0000000000001
 10
618.6400000000001
 20
814.0000000000001
  0
HATCH
  5
9B
330
17
100
AcDbEntity
  8
WALL
100
AcDbHatch
 10
0.0
 20
0.0
 30
0.0
210
0.0
220
0.0
230
1.0
  2
SOLID
 70
1
 71
0
 91
1
 92
3
 72
0
 73
1
 93
4
 10
618.6400000000001
 20
837.7600000000001
 10
619.5200000000001
 20
837.7600000000001
 10
619.5200000000001
 20
814.0000000000001
 10
618.6400000000001
 20
814.0000000000001
 97
0
 75
1
 76
1
 98
0
  0
LWPOLYLINE
  5
9C
330
17
100
AcDbEntity
  8
WALL
100
AcDbPolyline
 90
4
 70
1
 10
891.4400000000002
 20
740.08
 10
907.2800000000001
 20
740.08
 10
907.2800000000001
 20
591.3600000000001
 10
891.4400000000002
 20
591.3600000000001
  0
HATCH
  5
9D
330
17
100
AcDbEntity
  8
WALL
100
AcDbHatch
 10
0.0
 20
0.0
 30
0.0
210
0.0
220
0.0
230
1.0
  2
SOLID
 70
1
 71
0
 91
1
 92
3
 72
0
 73
1
 93
4
 10
891.4400000000002
 20
740.08
 10
907.2800000000001
 20
740.08
 10
907.2800000000001
 20
591.3600000000001
 10
891.4400000000002
 20
591.3600000000001
 97
0
 75
1
 76
1
 98
0
  0
LWPOLYLINE
  5
9E
330
17
100
AcDbEntity
  8
WALL
100
AcDbPolyline
 90
4
 70
1
 10
645.0400000000001
 20
732.1600000000001
 10
655.6000000000001
 20
732.1600000000001
 10
655.6000000000001
 20
527.1200000000001
 10
645.0400000000001
 20
527.1200000000001
  0
HATCH
  5
9F
330
17
100
AcDbEntity
  8
WALL
100
AcDbHatch
 10
0.0
 20
0.0
 30
0.0
210
0.0
220
0.0
230
1.0
  2
SOLID
 70
1
 71
0
 91
1
 92
3
 72
0
 73
1
 93
4
 10
645.0400000000001
 20
732.1600000000001
 10
655.6000000000001
 20
732.1600000000001
 10
655.6000000000001
 20
527.1200000000001
 10
645.0400000000001
 20
527.1200000000001
 97
0
 75
1
 76
1
 98
0
  0
LWPOLYLINE
  5
A0
330
17
100
AcDbEntity
  8
WALL
100
AcDbPolyline
 90
4
 70
1
 10
1048.0800000000002
 20
672.32
 10
1062.16
 20
672.32
 10
1062.16
 20
620.4000000000001
 10
1048.0800000000002
 20
620.4000000000001
  0
HATCH
  5
A1
330
17
100
AcDbEntity
  8
WALL
100
AcDbHatch
 10
0.0
 20
0.0
 30
0.0
210
0.0
220
0.0
230
1.0
  2
SOLID
 70
1
 71
0
 91
1
 92
3
 72
0
 73
1
 93
4
 10
1048.0800000000002
 20
672.32
 10
1062.16
 20
672.32
 10
1062.16
 20
620.4000000000001
 10
1048.0800000000002
 20
620.4000000000001
 97
0
 75
1
 76
1
 98
0
  0
LWPOLYLINE
  5
A2
330
17
100
AcDbEntity
  8
WALL
100
AcDbPolyline
 90
4
 70
1
 10
491.9200000000001
 20
661.7600000000001
 10
500.7200000000001
 20
661.7600000000001
 10
500.7200000000001
 20
576.4000000000001
 10
491.9200000000001
 20
576.4000000000001
  0
HATCH
  5
A3
330
17
100
AcDbEntity
  8
WALL
100
AcDbHatch
 10
0.0
 20
0.0
 30
0.0
210
0.0
220
0.0
230
1.0
  2
SOLID
 70
1
 71
0
 91
1
 92
3
 72
0
 73
1
 93
4
 10
491.9200000000001
 20
661.7600000000001
 10
500.7200000000001
 20
661.7600000000001
 10
500.7200000000001
 20
576.4000000000001
 10
491.9200000000001
 20
576.4000000000001
 97
0
 75
1
 76
1
 98
0
  0
LWPOLYLINE
  5
A4
330
17
100
AcDbEntity
  8
WALL
100
AcDbPolyline
 90
4
 70
1
 10
915.2000000000002
 20
634.4800000000001
 10
917.8400000000001
 20
634.4800000000001
 10
917.8400000000001
 20
589.6
 10
915.2000000000002
 20
589.6
  0
HATCH
  5
A5
330
17
100
AcDbEntity
  8
WALL
100
AcDbHatch
 10
0.0
 20
0.0
 30
0.0
210
0.0
220
0.0
230
1.0
  2
SOLID
 70
1
 71
0
 91
1
 92
3
 72
0
 73
1
 93
4
 10
915.2000000000002
 20
634.4800000000001
 10
917.8400000000001
 20
634.4800000000001
 10
917.8400000000001
 20
589.6
 10
915.2000000000002
 20
589.6
 97
0
 75
1
 76
1
 98
0
  0
LWPOLYLINE
  5
A6
330
17
100
AcDbEntity
  8
WALL
100
AcDbPolyline
 90
4
 70
1
 10
754.1600000000001
 20
619.5200000000001
 10
759.44
 20
619.5200000000001
 10
759.44
 20
491.9200000000001
 10
754.1600000000001
 20
491.9200000000001
  0
HATCH
  5
A7
330
17
100
AcDbEntity
  8
WALL
100
AcDbHatch
 10
0.0
 20
0.0
 30
0.0
210
0.0
220
0.0
230
1.0
  2
SOLID
 70
1
 71
0
 91
1
 92
3
 72
0
 73
1
 93
4
 10
754.1600000000001
 20
619.5200000000001
 10
759.44
 20
619.5200000000001
 10
759.44
 20
491.9200000000001
 10
754.1600000000001
 20
491.9200000000001
 97
0
 75
1
 76
1
 98
0
  0
LWPOLYLINE
  5
A8
330
17
100
AcDbEntity
  8
WALL
100
AcDbPolyline
 90
4
 70
1
 10
912.5600000000002
 20
611.6000000000001
 10
914.3200000000002
 20
611.6000000000001
 10
914.3200000000002
 20
584.32
 10
912.5600000000002
 20
584.32
  0
HATCH
  5
A9
330
17
100
AcDbEntity
  8
WALL
100
AcDbHatch
 10
0.0
 20
0.0
 30
0.0
210
0.0
220
0.0
230
1.0
  2
SOLID
 70
1
 71
0
 91
1
 92
3
 72
0
 73
1
 93
4
 10
912.5600000000002
 20
611.6000000000001
 10
914.3200000000002
 20
611.6000000000001
 10
914.3200000000002
 20
584.32
 10
912.5600000000002
 20
584.32
 97
0
 75
1
 76
1
 98
0
  0
LWPOLYLINE
  5
AA
330
17
100
AcDbEntity
  8
WALL
100
AcDbPolyline
 90
4
 70
1
 10
403.9200000000001
 20
580.8000000000001
 10
409.20000000000005
 20
580.8000000000001
 10
409.20000000000005
 20
546.48
 10
403.9200000000001
 20
546.48
  0
HATCH
  5
AB
330
17
100
AcDbEntity
  8
WALL
100
AcDbHatch
 10
0.0
 20
0.0
 30
0.0
210
0.0
220
0.0
230
1.0
  2
SOLID
 70
1
 71
0
 91
1
 92
3
 72
0
 73
1
 93
4
 10
403.9200000000001
 20
580.8000000000001
 10
409.20000000000005
 20
580.8000000000001
 10
409.20000000000005
 20
546.48
 10
403.9200000000001
 20
546.48
 97
0
 75
1
 76
1
 98
0
  0
LWPOLYLINE
  5
AC
330
17
100
AcDbEntity
  8
WALL
100
AcDbPolyline
 90
4
 70
1
 10
500.7200000000001
 20
549.1200000000001
 10
501.6000000000001
 20
549.1200000000001
 10
501.6000000000001
 20
524.48
 10
500.7200000000001
 20
524.48
  0
HATCH
  5
AD
330
17
100
AcDbEntity
  8
WALL
100
AcDbHatch
 10
0.0
 20
0.0
 30
0.0
210
0.0
220
0.0
230
1.0
  2
SOLID
 70
1
 71
0
 91
1
 92
3
 72
0
 73
1
 93
4
 10
500.7200000000001
 20
549.1200000000001
 10
501.6000000000001
 20
549.1200000000001
 10
501.6000000000001
 20
524.48
 10
500.7200000000001
 20
524.48
 97
0
 75
1
 76
1
 98
0
  0
LWPOLYLINE
  5
AE
330
17
100
AcDbEntity
  8
WALL
100
AcDbPolyline
 90
4
 70
1
 10
395.12000000000006
 20
487.52000000000004
 10
396.00000000000006
 20
487.52000000000004
 10
396.00000000000006
 20
463.76000000000005
 10
395.12000000000006
 20
463.76000000000005
  0
HATCH
  5
AF
330
17
100
AcDbEntity
  8
WALL
100
AcDbHatch
 10
0.0
 20
0.0
 30
0.0
210
0.0
220
0.0
230
1.0
  2
SOLID
 70
1
 71
0
 91
1
 92
3
 72
0
 73
1
 93
4
 10
395.12000000000006
 20
487.52000000000004
 10
396.00000000000006
 20
487.52000000000004
 10
396.00000000000006
 20
463.76000000000005
 10
395.12000000000006
 20
463.76000000000005
 97
0
 75
1
 76
1
 98
0
  0
LWPOLYLINE
  5
B0
330
17
100
AcDbEntity
  8
WALL
100
AcDbPolyline
 90
4
 70
1
 10
442.64000000000004
 20
486.64000000000004
 10
447.0400000000001
 20
486.64000000000004
 10
447.0400000000001
 20
462.00000000000006
 10
442.64000000000004
 20
462.00000000000006
  0
HATCH
  5
B1
330
17
100
AcDbEntity
  8
WALL
100
AcDbHatch
 10
0.0
 20
0.0
 30
0.0
210
0.0
220
0.0
230
1.0
  2
SOLID
 70
1
 71
0
 91
1
 92
3
 72
0
 73
1
 93
4
 10
442.64000000000004
 20
486.64000000000004
 10
447.0400000000001
 20
486.64000000000004
 10
447.0400000000001
 20
462.00000000000006
 10
442.64000000000004
 20
462.00000000000006
 97
0
 75
1
 76
1
 98
0
  0
LWPOLYLINE
  5
B2
330
17
100
AcDbEntity
  8
WALL
100
AcDbPolyline
 90
4
 70
1
 10
645.0400000000001
 20
454.08000000000004
 10
655.6000000000001
 20
454.08000000000004
 10
655.6000000000001
 20
340.56000000000006
 10
645.0400000000001
 20
340.56000000000006
  0
HATCH
  5
B3
330
17
100
AcDbEntity
  8
WALL
100
AcDbHatch
 10
0.0
 20
0.0
 30
0.0
210
0.0
220
0.0
230
1.0
  2
SOLID
 70
1
 71
0
 91
1
 92
3
 72
0
 73
1
 93
4
 10
645.0400000000001
 20
454.08000000000004
 10
655.6000000000001
 20
454.08000000000004
 10
655.6000000000001
 20
340.56000000000006
 10
645.0400000000001
 20
340.56000000000006
 97
0
 75
1
 76
1
 98
0
  0
LWPOLYLINE
  5
B4
330
17
100
AcDbEntity
  8
WALL
100
AcDbPolyline
 90
4
 70
1
 10
893.2000000000002
 20
453.20000000000005
 10
907.2800000000001
 20
453.20000000000005
 10
907.2800000000001
 20
423.28000000000003
 10
893.2000000000002
 20
423.28000000000003
  0
HATCH
  5
B5
330
17
100
AcDbEntity
  8
WALL
100
AcDbHatch
 10
0.0
 20
0.0
 30
0.0
210
0.0
220
0.0
230
1.0
  2
SOLID
 70
1
 71
0
 91
1
 92
3
 72
0
 73
1
 93
4
 10
893.2000000000002
 20
453.20000000000005
 10
907.2800000000001
 20
453.20000000000005
 10
907.2800000000001
 20
423.28000000000003
 10
893.2000000000002
 20
423.28000000000003
 97
0
 75
1
 76
1
 98
0
  0
LWPOLYLINE
  5
B6
330
17
100
AcDbEntity
  8
WALL
100
AcDbPolyline
 90
4
 70
1
 10
1048.0800000000002
 20
433.84000000000003
 10
1060.4
 20
433.84000000000003
 10
1060.4
 20
393.36000000000007
 10
1048.0800000000002
 20
393.36000000000007
  0
HATCH
  5
B7
330
17
100
AcDbEntity
  8
WALL
100
AcDbHatch
 10
0.0
 20
0.0
 30
0.0
210
0.0
220
0.0
230
1.0
  2
SOLID
 70
1
 71
0
 91
1
 92
3
 72
0
 73
1
 93
4
 10
1048.0800000000002
 20
433.84000000000003
 10
1060.4
 20
433.84000000000003
 10
1060.4
 20
393.36000000000007
 10
1048.0800000000002
 20
393.36000000000007
 97
0
 75
1
 76
1
 98
0
  0
LWPOLYLINE
  5
B8
330
17
100
AcDbEntity
  8
WALL
100
AcDbPolyline
 90
4
 70
1
 10
393.36000000000007
 20
393.36000000000007
 10
398.64000000000004
 20
393.36000000000007
 10
398.64000000000004
 20
363.44000000000005
 10
393.36000000000007
 20
363.44000000000005
  0
HATCH
  5
B9
330
17
100
AcDbEntity
  8
WALL
100
AcDbHatch
 10
0.0
 20
0.0
 30
0.0
210
0.0
220
0.0
230
1.0
  2
SOLID
 70
1
 71
0
 91
1
 92
3
 72
0
 73
1
 93
4
 10
393.36000000000007
 20
393.36000000000007
 10
398.64000000000004
 20
393.36000000000007
 10
398.64000000000004
 20
363.44000000000005
 10
393.36000000000007
 20
363.44000000000005
 97
0
 75
1
 76
1
 98
0
  0
LWPOLYLINE
  5
BA
330
17
100
AcDbEntity
  8
WALL
100
AcDbPolyline
 90
4
 70
1
 10
444.40000000000003
 20
393.36000000000007
 10
447.9200000000001
 20
393.36000000000007
 10
447.9200000000001
 20
365.20000000000005
 10
444.40000000000003
 20
365.20000000000005
  0
HATCH
  5
BB
330
17
100
AcDbEntity
  8
WALL
100
AcDbHatch
 10
0.0
 20
0.0
 30
0.0
210
0.0
220
0.0
230
1.0
  2
SOLID
 70
1
 71
0
 91
1
 92
3
 72
0
 73
1
 93
4
 10
444.40000000000003
 20
393.36000000000007
 10
447.9200000000001
 20
393.36000000000007
 10
447.9200000000001
 20
365.20000000000005
 10
444.40000000000003
 20
365.20000000000005
 97
0
 75
1
 76
1
 98
0
  0
LWPOLYLINE
  5
BC
330
17
100
AcDbEntity
  8
WALL
100
AcDbPolyline
 90
4
 70
1
 10
729.5200000000001
 20
389.84000000000003
 10
733.0400000000001
 20
389.84000000000003
 10
733.0400000000001
 20
362.56000000000006
 10
729.5200000000001
 20
362.56000000000006
  0
HATCH
  5
BD
330
17
100
AcDbEntity
  8
WALL
100
AcDbHatch
 10
0.0
 20
0.0
 30
0.0
210
0.0
220
0.0
230
1.0
  2
SOLID
 70
1
 71
0
 91
1
 92
3
 72
0
 73
1
 93
4
 10
729.5200000000001
 20
389.84000000000003
 10
733.0400000000001
 20
389.84000000000003
 10
733.0400000000001
 20
362.56000000000006
 10
729.5200000000001
 20
362.56000000000006
 97
0
 75
1
 76
1
 98
0
  0
LWPOLYLINE
  5
BE
330
17
100
AcDbEntity
  8
WALL
100
AcDbPolyline
 90
4
 70
1
 10
792.8800000000001
 20
390.72
 10
799.9200000000001
 20
390.72
 10
799.9200000000001
 20
249.04000000000002
 10
792.8800000000001
 20
249.04000000000002
  0
HATCH
  5
BF
330
17
100
AcDbEntity
  8
WALL
100
AcDbHatch
 10
0.0
 20
0.0
 30
0.0
210
0.0
220
0.0
230
1.0
  2
SOLID
 70
1
 71
0
 91
1
 92
3
 72
0
 73
1
 93
4
 10
792.8800000000001
 20
390.72
 10
799.9200000000001
 20
390.72
 10
799.9200000000001
 20
249.04000000000002
 10
792.8800000000001
 20
249.04000000000002
 97
0
 75
1
 76
1
 98
0
  0
LWPOLYLINE
  5
C0
330
17
100
AcDbEntity
  8
WALL
100
AcDbPolyline
 90
4
 70
1
 10
990.0000000000001
 20
364.32000000000005
 10
995.2800000000001
 20
364.32000000000005
 10
995.2800000000001
 20
335.28000000000003
 10
990.0000000000001
 20
335.28000000000003
  0
HATCH
  5
C1
330
17
100
AcDbEntity
  8
WALL
100
AcDbHatch
 10
0.0
 20
0.0
 30
0.0
210
0.0
220
0.0
230
1.0
  2
SOLID
 70
1
 71
0
 91
1
 92
3
 72
0
 73
1
 93
4
 10
990.0000000000001
 20
364.32000000000005
 10
995.2800000000001
 20
364.32000000000005
 10
995.2800000000001
 20
335.28000000000003
 10
990.0000000000001
 20
335.28000000000003
 97
0
 75
1
 76
1
 98
0
  0
LWPOLYLINE
  5
C2
330
17
100
AcDbEntity
  8
WALL
100
AcDbPolyline
 90
4
 70
1
 10
142.56000000000003
 20
355.52000000000004
 10
159.28000000000003
 20
355.52000000000004
 10
159.28000000000003
 20
289.52000000000004
 10
142.56000000000003
 20
289.52000000000004
  0
HATCH
  5
C3
330
17
100
AcDbEntity
  8
WALL
100
AcDbHatch
 10
0.0
 20
0.0
 30
0.0
210
0.0
220
0.0
230
1.0
  2
SOLID
 70
1
 71
0
 91
1
 92
3
 72
0
 73
1
 93
4
 10
142.56000000000003
 20
355.52000000000004
 10
159.28000000000003
 20
355.52000000000004
 10
159.28000000000003
 20
289.52000000000004
 10
142.56000000000003
 20
289.52000000000004
 97
0
 75
1
 76
1
 98
0
  0
LWPOLYLINE
  5
C4
330
17
100
AcDbEntity
  8
WALL
100
AcDbPolyline
 90
4
 70
1
 10
20.240000000000002
 20
303.6
 10
32.56
 20
303.6
 10
32.56
 20
271.92
 10
20.240000000000002
 20
271.92
  0
HATCH
  5
C5
330
17
100
AcDbEntity
  8
WALL
100
AcDbHatch
 10
0.0
 20
0.0
 30
0.0
210
0.0
220
0.0
230
1.0
  2
SOLID
 70
1
 71
0
 91
1
 92
3
 72
0
 73
1
 93
4
 10
20.240000000000002
 20
303.6
 10
32.56
 20
303.6
 10
32.56
 20
271.92
 10
20.240000000000002
 20
271.92
 97
0
 75
1
 76
1
 98
0
  0
LWPOLYLINE
  5
C6
330
17
100
AcDbEntity
  8
WALL
100
AcDbPolyline
 90
4
 70
1
 10
990.0000000000001
 20
295.68000000000006
 10
995.2800000000001
 20
295.68000000000006
 10
995.2800000000001
 20
264.88000000000005
 10
990.0000000000001
 20
264.88000000000005
  0
HATCH
  5
C7
330
17
100
AcDbEntity
  8
WALL
100
AcDbHatch
 10
0.0
 20
0.0
 30
0.0
210
0.0
220
0.0
230
1.0
  2
SOLID
 70
1
 71
0
 91
1
 92
3
 72
0
 73
1
 93
4
 10
990.0000000000001
 20
295.68000000000006
 10
995.2800000000001
 20
295.68000000000006
 10
995.2800000000001
 20
264.88000000000005
 10
990.0000000000001
 20
264.88000000000005
 97
0
 75
1
 76
1
 98
0
  0
LWPOLYLINE
  5
C8
330
17
100
AcDbEntity
  8
WALL
100
AcDbPolyline
 90
4
 70
1
 10
893.2000000000002
 20
281.6
 10
907.2800000000001
 20
281.6
 10
907.2800000000001
 20
245.52000000000004
 10
893.2000000000002
 20
245.52000000000004
  0
HATCH
  5
C9
330
17
100
AcDbEntity
  8
WALL
100
AcDbHatch
 10
0.0
 20
0.0
 30
0.0
210
0.0
220
0.0
230
1.0
  2
SOLID
 70
1
 71
0
 91
1
 92
3
 72
0
 73
1
 93
4
 10
893.2000000000002
 20
281.6
 10
907.2800000000001
 20
281.6
 10
907.2800000000001
 20
245.52000000000004
 10
893.2000000000002
 20
245.52000000000004
 97
0
 75
1
 76
1
 98
0
  0
LWPOLYLINE
  5
CA
330
17
100
AcDbEntity
  8
WALL
100
AcDbPolyline
 90
4
 70
1
 10
273.68000000000006
 20
261.36
 10
280.72
 20
261.36
 10
280.72
 20
168.08
 10
273.68000000000006
 20
168.08
  0
HATCH
  5
CB
330
17
100
AcDbEntity
  8
WALL
100
AcDbHatch
 10
0.0
 20
0.0
 30
0.0
210
0.0
220
0.0
230
1.0
  2
SOLID
 70
1
 71
0
 91
1
 92
3
 72
0
 73
1
 93
4
 10
273.68000000000006
 20
261.36
 10
280.72
 20
261.36
 10
280.72
 20
168.08
 10
273.68000000000006
 20
168.08
 97
0
 75
1
 76
1
 98
0
  0
LWPOLYLINE
  5
CC
330
17
100
AcDbEntity
  8
WALL
100
AcDbPolyline
 90
4
 70
1
 10
296.56000000000006
 20
261.36
 10
308.88000000000005
 20
261.36
 10
308.88000000000005
 20
97.68
 10
296.56000000000006
 20
97.68
  0
HATCH
  5
CD
330
17
100
AcDbEntity
  8
WALL
100
AcDbHatch
 10
0.0
 20
0.0
 30
0.0
210
0.0
220
0.0
230
1.0
  2
SOLID
 70
1
 71
0
 91
1
 92
3
 72
0
 73
1
 93
4
 10
296.56000000000006
 20
261.36
 10
308.88000000000005
 20
261.36
 10
308.88000000000005
 20
97.68
 10
296.56000000000006
 20
97.68
 97
0
 75
1
 76
1
 98
0
  0
LWPOLYLINE
  5
CE
330
17
100
AcDbEntity
  8
WALL
100
AcDbPolyline
 90
4
 70
1
 10
546.48
 20
259.6
 10
557.0400000000001
 20
259.6
 10
557.0400000000001
 20
95.92000000000002
 10
546.48
 20
95.92000000000002
  0
HATCH
  5
CF
330
17
100
AcDbEntity
  8
WALL
100
AcDbHatch
 10
0.0
 20
0.0
 30
0.0
210
0.0
220
0.0
230
1.0
  2
SOLID
 70
1
 71
0
 91
1
 92
3
 72
0
 73
1
 93
4
 10
546.48
 20
259.6
 10
557.0400000000001
 20
259.6
 10
557.0400000000001
 20
95.92000000000002
 10
546.48
 20
95.92000000000002
 97
0
 75
1
 76
1
 98
0
  0
LWPOLYLINE
  5
D0
330
17
100
AcDbEntity
  8
WALL
100
AcDbPolyline
 90
4
 70
1
 10
18.480000000000004
 20
179.52
 10
32.56
 20
179.52
 10
32.56
 20
97.68
 10
18.480000000000004
 20
97.68
  0
HATCH
  5
D1
330
17
100
AcDbEntity
  8
WALL
100
AcDbHatch
 10
0.0
 20
0.0
 30
0.0
210
0.0
220
0.0
230
1.0
  2
SOLID
 70
1
 71
0
 91
1
 92
3
 72
0
 73
1
 93
4
 10
18.480000000000004
 20
179.52
 10
32.56
 20
179.52
 10
32.56
 20
97.68
 10
18.480000000000004
 20
97.68
 97
0
 75
1
 76
1
 98
0
  0
LWPOLYLINE
  5
D2
330
17
100
AcDbEntity
  8
WALL
100
AcDbPolyline
 90
4
 70
1
 10
893.2000000000002
 20
169.84000000000003
 10
907.2800000000001
 20
169.84000000000003
 10
907.2800000000001
 20
119.68000000000002
 10
893.2000000000002
 20
119.68000000000002
  0
HATCH
  5
D3
330
17
100
AcDbEntity
  8
WALL
100
AcDbHatch
 10
0.0
 20
0.0
 30
0.0
210
0.0
220
0.0
230
1.0
  2
SOLID
 70
1
 71
0
 91
1
 92
3
 72
0
 73
1
 93
4
 10
893.2000000000002
 20
169.84000000000003
 10
907.2800000000001
 20
169.84000000000003
 10
907.2800000000001
 20
119.68000000000002
 10
893.2000000000002
 20
119.68000000000002
 97
0
 75
1
 76
1
 98
0
  0
LWPOLYLINE
  5
D4
330
17
100
AcDbEntity
  8
WALL
100
AcDbPolyline
 90
4
 70
1
 10
215.60000000000002
 20
157.52
 10
222.64000000000004
 20
157.52
 10
222.64000000000004
 20
120.56000000000002
 10
215.60000000000002
 20
120.56000000000002
  0
HATCH
  5
D5
330
17
100
AcDbEntity
  8
WALL
100
AcDbHatch
 10
0.0
 20
0.0
 30
0.0
210
0.0
220
0.0
230
1.0
  2
SOLID
 70
1
 71
0
 91
1
 92
3
 72
0
 73
1
 93
4
 10
215.60000000000002
 20
157.52
 10
222.64000000000004
 20
157.52
 10
222.64000000000004
 20
120.56000000000002
 10
215.60000000000002
 20
120.56000000000002
 97
0
 75
1
 76
1
 98
0
  0
LWPOLYLINE
  5
D6
330
17
100
AcDbEntity
  8
WALL
100
AcDbPolyline
 90
4
 70
1
 10
268.40000000000003
 20
158.40000000000003
 10
273.68000000000006
 20
158.40000000000003
 10
273.68000000000006
 20
124.96000000000002
 10
268.40000000000003
 20
124.96000000000002
  0
HATCH
  5
D7
330
17
100
AcDbEntity
  8
WALL
100
AcDbHatch
 10
0.0
 20
0.0
 30
0.0
210
0.0
220
0.0
230
1.0
  2
SOLID
 70
1
 71
0
 91
1
 92
3
 72
0
 73
1
 93
4
 10
268.40000000000003
 20
158.40000000000003
 10
273.68000000000006
 20
158.40000000000003
 10
273.68000000000006
 20
124.96000000000002
 10
268.40000000000003
 20
124.96000000000002
 97
0
 75
1
 76
1
 98
0
  0
LWPOLYLINE
  5
D8
330
17
100
AcDbEntity
  8
WALL
100
AcDbPolyline
 90
4
 70
1
 10
395.12000000000006
 20
147.84000000000003
 10
405.68000000000006
 20
147.84000000000003
 10
405.68000000000006
 20
119.68000000000002
 10
395.12000000000006
 20
119.68000000000002
  0
HATCH
  5
D9
330
17
100
AcDbEntity
  8
WALL
100
AcDbHatch
 10
0.0
 20
0.0
 30
0.0
210
0.0
220
0.0
230
1.0
  2
SOLID
 70
1
 71
0
 91
1
 92
3
 72
0
 73
1
 93
4
 10
395.12000000000006
 20
147.84000000000003
 10
405.68000000000006
 20
147.84000000000003
 10
405.68000000000006
 20
119.68000000000002
 10
395.12000000000006
 20
119.68000000000002
 97
0
 75
1
 76
1
 98
0
  0
LWPOLYLINE
  5
DA
330
17
100
AcDbEntity
  8
WALL
100
AcDbPolyline
 90
4
 70
1
 10
343.20000000000005
 20
1078.88
 10
432.08000000000004
 20
1078.88
 10
432.08000000000004
 20
956.5600000000002
 10
343.20000000000005
 20
956.5600000000002
  0
HATCH
  5
DB
330
17
100
AcDbEntity
  8
WALL
100
AcDbHatch
 10
0.0
 20
0.0
 30
0.0
210
0.0
220
0.0
230
1.0
  2
SOLID
 70
1
 71
0
 91
1
 92
3
 72
0
 73
1
 93
4
 10
343.20000000000005
 20
1078.88
 10
432.08000000000004
 20
1078.88
 10
432.08000000000004
 20
956.5600000000002
 10
343.20000000000005
 20
956.5600000000002
 97
0
 75
1
 76
1
 98
0
  0
LWPOLYLINE
  5
DC
330
17
100
AcDbEntity
  8
WALL
100
AcDbPolyline
 90
4
 70
1
 10
875.6000000000001
 20
1077.1200000000001
 10
964.4800000000001
 20
1077.1200000000001
 10
964.4800000000001
 20
960.0800000000002
 10
875.6000000000001
 20
960.0800000000002
  0
HATCH
  5
DD
330
17
100
AcDbEntity
  8
WALL
100
AcDbHatch
 10
0.0
 20
0.0
 30
0.0
210
0.0
220
0.0
230
1.0
  2
SOLID
 70
1
 71
0
 91
1
 92
3
 72
0
 73
1
 93
4
 10
875.6000000000001
 20
1077.1200000000001
 10
964.4800000000001
 20
1077.1200000000001
 10
964.4800000000001
 20
960.0800000000002
 10
875.6000000000001
 20
960.0800000000002
 97
0
 75
1
 76
1
 98
0
  0
LWPOLYLINE
  5
DE
330
17
100
AcDbEntity
  8
WALL
100
AcDbPolyline
 90
4
 70
1
 10
635.3600000000001
 20
1073.6000000000001
 10
664.4000000000001
 20
1073.6000000000001
 10
664.4000000000001
 20
1040.16
 10
635.3600000000001
 20
1040.16
  0
HATCH
  5
DF
330
17
100
AcDbEntity
  8
WALL
100
AcDbHatch
 10
0.0
 20
0.0
 30
0.0
210
0.0
220
0.0
230
1.0
  2
SOLID
 70
1
 71
0
 91
1
 92
3
 72
0
 73
1
 93
4
 10
635.3600000000001
 20
1073.6000000000001
 10
664.4000000000001
 20
1073.6000000000001
 10
664.4000000000001
 20
1040.16
 10
635.3600000000001
 20
1040.16
 97
0
 75
1
 76
1
 98
0
  0
LWPOLYLINE
  5
E0
330
17
100
AcDbEntity
  8
WALL
100
AcDbPolyline
 90
4
 70
1
 10
626.5600000000001
 20
1019.0400000000001
 10
664.4000000000001
 20
1019.0400000000001
 10
664.4000000000001
 20
962.7200000000001
 10
626.5600000000001
 20
962.7200000000001
  0
HATCH
  5
E1
330
17
100
AcDbEntity
  8
WALL
100
AcDbHatch
 10
0.0
 20
0.0
 30
0.0
210
0.0
220
0.0
230
1.0
  2
SOLID
 70
1
 71
0
 91
1
 92
3
 72
0
 73
1
 93
4
 10
626.5600000000001
 20
1019.0400000000001
 10
664.4000000000001
 20
1019.0400000000001
 10
664.4000000000001
 20
962.7200000000001
 10
626.5600000000001
 20
962.7200000000001
 97
0
 75
1
 76
1
 98
0
  0
LWPOLYLINE
  5
E2
330
17
100
AcDbEntity
  8
WALL
100
AcDbPolyline
 90
4
 70
1
 10
142.56000000000003
 20
383.68000000000006
 10
169.84000000000003
 20
383.68000000000006
 10
169.84000000000003
 20
356.40000000000003
 10
142.56000000000003
 20
356.40000000000003
  0
HATCH
  5
E3
330
17
100
AcDbEntity
  8
WALL
100
AcDbHatch
 10
0.0
 20
0.0
 30
0.0
210
0.0
220
0.0
230
1.0
  2
SOLID
 70
1
 71
0
 91
1
 92
3
 72
0
 73
1
 93
4
 10
142.56000000000003
 20
383.68000000000006
 10
169.84000000000003
 20
383.68000000000006
 10
169.84000000000003
 20
356.40000000000003
 10
142.56000000000003
 20
356.40000000000003
 97
0
 75
1
 76
1
 98
0
  0
LWPOLYLINE
  5
E4
330
17
100
AcDbEntity
  8
WALL
100
AcDbPolyline
 90
4
 70
1
 10
1032.2400000000002
 20
185.68000000000004
 10
1061.2800000000002
 20
185.68000000000004
 10
1061.2800000000002
 20
151.36
 10
1032.2400000000002
 20
151.36
  0
HATCH
  5
E5
330
17
100
AcDbEntity
  8
WALL
100
AcDbHatch
 10
0.0
 20
0.0
 30
0.0
210
0.0
220
0.0
230
1.0
  2
SOLID
 70
1
 71
0
 91
1
 92
3
 72
0
 73
1
 93
4
 10
1032.2400000000002
 20
185.68000000000004
 10
1061.2800000000002
 20
185.68000000000004
 10
1061.2800000000002
 20
151.36
 10
1032.2400000000002
 20
151.36
 97
0
 75
1
 76
1
 98
0
  0
LWPOLYLINE
  5
E6
330
17
100
AcDbEntity
  8
WALL
100
AcDbPolyline
 90
4
 70
1
 10
227.04000000000002
 20
125.84000000000002
 10
300.08000000000004
 20
125.84000000000002
 10
300.08000000000004
 20
98.56000000000002
 10
227.04000000000002
 20
98.56000000000002
  0
HATCH
  5
E7
330
17
100
AcDbEntity
  8
WALL
100
AcDbHatch
 10
0.0
 20
0.0
 30
0.0
210
0.0
220
0.0
230
1.0
  2
SOLID
 70
1
 71
0
 91
1
 92
3
 72
0
 73
1
 93
4
 10
227.04000000000002
 20
125.84000000000002
 10
300.08000000000004
 20
125.84000000000002
 10
300.08000000000004
 20
98.56000000000002
 10
227.04000000000002
 20
98.56000000000002
 97
0
 75
1
 76
1
 98
0
  0
LWPOLYLINE
  5
E8
330
17
100
AcDbEntity
  8
WALL
100
AcDbPolyline
 90
4
 70
1
 10
337.9200000000001
 20
120.56000000000002
 10
461.12000000000006
 20
120.56000000000002
 10
461.12000000000006
 20
21.120000000000005
 10
337.9200000000001
 20
21.120000000000005
  0
HATCH
  5
E9
330
17
100
AcDbEntity
  8
WALL
100
AcDbHatch
 10
0.0
 20
0.0
 30
0.0
210
0.0
220
0.0
230
1.0
  2
SOLID
 70
1
 71
0
 91
1
 92
3
 72
0
 73
1
 93
4
 10
337.9200000000001
 20
120.56000000000002
 10
461.12000000000006
 20
120.56000000000002
 10
461.12000000000006
 20
21.120000000000005
 10
337.9200000000001
 20
21.120000000000005
 97
0
 75
1
 76
1
 98
0
  0
LWPOLYLINE
  5
EA
330
17
100
AcDbEntity
  8
WALL
100
AcDbPolyline
 90
4
 70
1
 10
883.5200000000001
 20
120.56000000000002
 10
969.7600000000001
 20
120.56000000000002
 10
969.7600000000001
 20
22.880000000000003
 10
883.5200000000001
 20
22.880000000000003
  0
HATCH
  5
EB
330
17
100
AcDbEntity
  8
WALL
100
AcDbHatch
 10
0.0
 20
0.0
 30
0.0
210
0.0
220
0.0
230
1.0
  2
SOLID
 70
1
 71
0
 91
1
 92
3
 72
0
 73
1
 93
4
 10
883.5200000000001
 20
120.56000000000002
 10
969.7600000000001
 20
120.56000000000002
 10
969.7600000000001
 20
22.880000000000003
 10
883.5200000000001
 20
22.880000000000003
 97
0
 75
1
 76
1
 98
0
  0
ENDSEC
  0
SECTION
  2
OBJECTS
  0
DICTIONARY
  5
A
330
0
100
AcDbDictionary
281
1
  3
ACAD_COLOR
350
B
  3
ACAD_GROUP
350
C
  3
ACAD_LAYOUT
350
D
  3
ACAD_MATERIAL
350
E
  3
ACAD_MLEADERSTYLE
350
F
  3
ACAD_MLINESTYLE
350
10
  3
ACAD_PLOTSETTINGS
350
11
  3
ACAD_PLOTSTYLENAME
350
12
  3
ACAD_SCALELIST
350
14
  3
ACAD_TABLESTYLE
350
15
  3
ACAD_VISUALSTYLE
350
16
  3
EZDXF_META
350
2D
  0
DICTIONARY
  5
B
330
A
100
AcDbDictionary
281
1
  0
DICTIONARY
  5
C
330
A
100
AcDbDictionary
281
1
  0
DICTIONARY
  5
D
330
A
100
AcDbDictionary
281
1
  3
Model
350
1A
  3
Layout1
350
1E
  0
DICTIONARY
  5
E
330
A
100
AcDbDictionary
281
1
  3
ByBlock
350
1F
  3
ByLayer
350
20
  3
Global
350
21
  0
DICTIONARY
  5
F
330
A
100
AcDbDictionary
281
1
  3
Standard
350
2C
  0
DICTIONARY
  5
10
330
A
100
AcDbDictionary
281
1
  3
Standard
350
22
  0
DICTIONARY
  5
11
330
A
100
AcDbDictionary
281
1
  0
ACDBDICTIONARYWDFLT
  5
12
330
A
100
AcDbDictionary
281
1
  3
Normal
350
13
100
AcDbDictionaryWithDefault
340
13
  0
ACDBPLACEHOLDER
  5
13
330
12
  0
DICTIONARY
  5
14
330
A
100
AcDbDictionary
281
1
  0
DICTIONARY
  5
15
330
A
100
AcDbDictionary
281
1
  0
DICTIONARY
  5
16
330
A
100
AcDbDictionary
281
1
  0
LAYOUT
  5
1A
330
D
100
AcDbPlotSettings
  1

  4
A3
  6

 40
7.5
 41
20.0
 42
7.5
 43
20.0
 44
420.0
 45
297.0
 46
0.0
 47
0.0
 48
0.0
 49
0.0
140
0.0
141
0.0
142
1.0
143
1.0
 70
1024
 72
1
 73
0
 74
5
  7

 75
16
 76
0
 77
2
 78
300
147
1.0
148
0.0
149
0.0
100
AcDbLayout
  1
Model
 70
1
 71
0
 10
0.0
 20
0.0
 11
420.0
 21
297.0
 12
0.0
 22
0.0
 32
0.0
 14
1e+20
 24
1e+20
 34
1e+20
 15
-1e+20
 25
-1e+20
 35
-1e+20
146
0.0
 13
0.0
 23
0.0
 33
0.0
 16
1.0
 26
0.0
 36
0.0
 17
0.0
 27
1.0
 37
0.0
 76
1
330
17
  0
LAYOUT
  5
1E
330
D
100
AcDbPlotSettings
  1

  4
A3
  6

 40
7.5
 41
20.0
 42
7.5
 43
20.0
 44
420.0
 45
297.0
 46
0.0
 47
0.0
 48
0.0
 49
0.0
140
0.0
141
0.0
142
1.0
143
1.0
 70
0
 72
1
 73
0
 74
5
  7

 75
16
 76
0
 77
2
 78
300
147
1.0
148
0.0
149
0.0
100
AcDbLayout
  1
Layout1
 70
1
 71
1
 10
0.0
 20
0.0
 11
420.0
 21
297.0
 12
0.0
 22
0.0
 32
0.0
 14
1e+20
 24
1e+20
 34
1e+20
 15
-1e+20
 25
-1e+20
 35
-1e+20
146
0.0
 13
0.0
 23
0.0
 33
0.0
 16
1.0
 26
0.0
 36
0.0
 17
0.0
 27
1.0
 37
0.0
 76
1
330
1B
  0
MATERIAL
  5
1F
102
{ACAD_REACTORS
330
E
102
}
330
E
100
AcDbMaterial
  1
ByBlock
  2

 70
0
 40
1.0
 71
1
 41
1.0
 91
-1023410177
 42
1.0
 72
1
  3

 73
1
 74
1
 75
1
 44
0.5
 73
0
 45
1.0
 46
1.0
 77
1
  4

 78
1
 79
1
170
1
 48
1.0
171
1
  6

172
1
173
1
174
1
140
1.0
141
1.0
175
1
  7

176
1
177
1
178
1
143
1.0
179
1
  8

270
1
271
1
272
1
145
1.0
146
1.0
273
1
  9

274
1
275
1
276
1
 42
1.0
 72
1
  3

 73
1
 74
1
 75
1
 94
63
  0
MATERIAL
  5
20
102
{ACAD_REACTORS
330
E
102
}
330
E
100
AcDbMaterial
  1
ByLayer
  2

 70
0
 40
1.0
 71
1
 41
1.0
 91
-1023410177
 42
1.0
 72
1
  3

 73
1
 74
1
 75
1
 44
0.5
 73
0
 45
1.0
 46
1.0
 77
1
  4

 78
1
 79
1
170
1
 48
1.0
171
1
  6

172
1
173
1
174
1
140
1.0
141
1.0
175
1
  7

176
1
177
1
178
1
143
1.0
179
1
  8

270
1
271
1
272
1
145
1.0
146
1.0
273
1
  9

274
1
275
1
276
1
 42
1.0
 72
1
  3

 73
1
 74
1
 75
1
 94
63
  0
MATERIAL
  5
21
102
{ACAD_REACTORS
330
E
102
}
330
E
100
AcDbMaterial
  1
Global
  2

 70
0
 40
1.0
 71
1
 41
1.0
 91
-1023410177
 42
1.0
 72
1
  3

 73
1
 74
1
 75
1
 44
0.5
 73
0
 45
1.0
 46
1.0
 77
1
  4

 78
1
 79
1
170
1
 48
1.0
171
1
  6

172
1
173
1
174
1
140
1.0
141
1.0
175
1
  7

176
1
177
1
178
1
143
1.0
179
1
  8

270
1
271
1
272
1
145
1.0
146
1.0
273
1
  9

274
1
275
1
276
1
 42
1.0
 72
1
  3

 73
1
 74
1
 75
1
 94
63
  0
MLINESTYLE
  5
22
102
{ACAD_REACTORS
330
10
102
}
330
10
100
AcDbMlineStyle
  2
Standard
 70
0
  3

 62
256
 51
90.0
 52
90.0
 71
2
 49
0.5
 62
256
  6
BYLAYER
 49
-0.5
 62
256
  6
BYLAYER
  0
MLEADERSTYLE
  5
2C
102
{ACAD_REACTORS
330
F
102
}
330
F
100
AcDbMLeaderStyle
179
2
170
2
171
1
172
0
 90
2
 40
0.0
 41
0.0
173
1
 91
-1056964608
 92
-2
290
1
 42
2.0
291
1
 43
8.0
  3
Standard
 44
4.0
300

342
29
174
1
175
1
176
0
178
1
 93
-1056964608
 45
4.0
292
0
297
0
 46
4.0
 94
-1056964608
 47
1.0
 49
1.0
140
1.0
294
1
141
0.0
177
0
142
1.0
295
0
296
0
143
3.75
271
0
272
9
273
9
  0
DICTIONARY
  5
2D
330
A
100
AcDbDictionary
280
1
281
1
  3
CREATED_BY_EZDXF
350
2E
  3
WRITTEN_BY_EZDXF
350
EE
  0
DICTIONARYVAR
  5
2E
330
2D
100
DictionaryVariables
280
0
  1
1.4.4 @ 2026-07-14T07:57:59.464874+00:00
  0
DICTIONARYVAR
  5
EE
330
2D
100
DictionaryVariables
280
0
  1
1.4.4 @ 2026-07-14T07:57:59.496336+00:00
  0
ENDSEC
  0
EOF
