  0
SECTION
  2
HEADER
  9
$ACADVER
  1
AC1024
  9
$ACADMAINTVER
 70
6
  9
$DWGCODEPAGE
  3
ANSI_1252
  9
$LASTSAVEDBY
  1
ezdxf
  9
$INSBASE
 10
0.0
 20
0.0
 30
0.0
  9
$EXTMIN
 10
1e+20
 20
1e+20
 30
1e+20
  9
$EXTMAX
 10
-1e+20
 20
-1e+20
 30
-1e+20
  9
$LIMMIN
 10
0.0
 20
0.0
  9
$LIMMAX
 10
420.0
 20
297.0
  9
$ORTHOMODE
 70
0
  9
$REGENMODE
 70
1
  9
$FILLMODE
 70
1
  9
$QTEXTMODE
 70
0
  9
$MIRRTEXT
 70
1
  9
$LTSCALE
 40
1.0
  9
$ATTMODE
 70
1
  9
$TEXTSIZE
 40
2.5
  9
$TRACEWID
 40
1.0
  9
$TEXTSTYLE
  7
Standard
  9
$CLAYER
  8
0
  9
$CELTYPE
  6
ByLayer
  9
$CECOLOR
 62
256
  9
$CELTSCALE
 40
1.0
  9
$DISPSILH
 70
0
  9
$DIMSCALE
 40
1.0
  9
$DIMASZ
 40
2.5
  9
$DIMEXO
 40
0.625
  9
$DIMDLI
 40
3.75
  9
$DIMRND
 40
0.0
  9
$DIMDLE
 40
0.0
  9
$DIMEXE
 40
1.25
  9
$DIMTP
 40
0.0
  9
$DIMTM
 40
0.0
  9
$DIMTXT
 40
2.5
  9
$DIMCEN
 40
2.5
  9
$DIMTSZ
 40
0.0
  9
$DIMTOL
 70
0
  9
$DIMLIM
 70
0
  9
$DIMTIH
 70
0
  9
$DIMTOH
 70
0
  9
$DIMSE1
 70
0
  9
$DIMSE2
 70
0
  9
$DIMTAD
 70
1
  9
$DIMZIN
 70
8
  9
$DIMBLK
  1

  9
$DIMASO
 70
1
  9
$DIMSHO
 70
1
  9
$DIMPOST
  1

  9
$DIMAPOST
  1

  9
$DIMALT
 70
0
  9
$DIMALTD
 70
3
  9
$DIMALTF
 40
0.03937007874
  9
$DIMLFAC
 40
1.0
  9
$DIMTOFL
 70
1
  9
$DIMTVP
 40
0.0
  9
$DIMTIX
 70
0
  9
$DIMSOXD
 70
0
  9
$DIMSAH
 70
0
  9
$DIMBLK1
  1

  9
$DIMBLK2
  1

  9
$DIMSTYLE
  2
ISO-25
  9
$DIMCLRD
 70
0
  9
$DIMCLRE
 70
0
  9
$DIMCLRT
 70
0
  9
$DIMTFAC
 40
1.0
  9
$DIMGAP
 40
0.625
  9
$DIMJUST
 70
0
  9
$DIMSD1
 70
0
  9
$DIMSD2
 70
0
  9
$DIMTOLJ
 70
0
  9
$DIMTZIN
 70
8
  9
$DIMALTZ
 70
0
  9
$DIMALTTZ
 70
0
  9
$DIMUPT
 70
0
  9
$DIMDEC
 70
2
  9
$DIMTDEC
 70
2
  9
$DIMALTU
 70
2
  9
$DIMALTTD
 70
3
  9
$DIMTXSTY
  7
Standard
  9
$DIMAUNIT
 70
0
  9
$DIMADEC
 70
0
  9
$DIMALTRND
 40
0.0
  9
$DIMAZIN
 70
0
  9
$DIMDSEP
 70
44
  9
$DIMATFIT
 70
3
  9
$DIMFRAC
 70
0
  9
$DIMLDRBLK
  1

  9
$DIMLUNIT
 70
2
  9
$DIMLWD
 70
-2
  9
$DIMLWE
 70
-2
  9
$DIMTMOVE
 70
0
  9
$DIMFXL
 40
1.0
  9
$DIMFXLON
 70
0
  9
$DIMJOGANG
 40
0.785398163397
  9
$DIMTFILL
 70
0
  9
$DIMTFILLCLR
 70
0
  9
$DIMARCSYM
 70
0
  9
$DIMLTYPE
  6

  9
$DIMLTEX1
  6

  9
$DIMLTEX2
  6

  9
$DIMTXTDIRECTION
 70
0
  9
$LUNITS
 70
2
  9
$LUPREC
 70
4
  9
$SKETCHINC
 40
1.0
  9
$FILLETRAD
 40
10.0
  9
$AUNITS
 70
0
  9
$AUPREC
 70
2
  9
$MENU
  1
.
  9
$ELEVATION
 40
0.0
  9
$PELEVATION
 40
0.0
  9
$THICKNESS
 40
0.0
  9
$LIMCHECK
 70
0
  9
$CHAMFERA
 40
0.0
  9
$CHAMFERB
 40
0.0
  9
$CHAMFERC
 40
0.0
  9
$CHAMFERD
 40
0.0
  9
$SKPOLY
 70
0
  9
$TDCREATE
 40
2461234.7038078704
  9
$TDUCREATE
 40
2458532.153996898
  9
$TDUPDATE
 40
2461234.7038078704
  9
$TDUUPDATE
 40
2458532.1544311
  9
$TDINDWG
 40
0.0
  9
$TDUSRTIMER
 40
0.0
  9
$USRTIMER
 70
1
  9
$ANGBASE
 50
0.0
  9
$ANGDIR
 70
0
  9
$PDMODE
 70
0
  9
$PDSIZE
 40
0.0
  9
$PLINEWID
 40
0.0
  9
$SPLFRAME
 70
0
  9
$SPLINETYPE
 70
6
  9
$SPLINESEGS
 70
8
  9
$HANDSEED
  5
278
  9
$SURFTAB1
 70
6
  9
$SURFTAB2
 70
6
  9
$SURFTYPE
 70
6
  9
$SURFU
 70
6
  9
$SURFV
 70
6
  9
$UCSBASE
  2

  9
$UCSNAME
  2

  9
$UCSORG
 10
0.0
 20
0.0
 30
0.0
  9
$UCSXDIR
 10
1.0
 20
0.0
 30
0.0
  9
$UCSYDIR
 10
0.0
 20
1.0
 30
0.0
  9
$UCSORTHOREF
  2

  9
$UCSORTHOVIEW
 70
0
  9
$UCSORGTOP
 10
0.0
 20
0.0
 30
0.0
  9
$UCSORGBOTTOM
 10
0.0
 20
0.0
 30
0.0
  9
$UCSORGLEFT
 10
0.0
 20
0.0
 30
0.0
  9
$UCSORGRIGHT
 10
0.0
 20
0.0
 30
0.0
  9
$UCSORGFRONT
 10
0.0
 20
0.0
 30
0.0
  9
$UCSORGBACK
 10
0.0
 20
0.0
 30
0.0
  9
$PUCSBASE
  2

  9
$PUCSNAME
  2

  9
$PUCSORG
 10
0.0
 20
0.0
 30
0.0
  9
$PUCSXDIR
 10
1.0
 20
0.0
 30
0.0
  9
$PUCSYDIR
 10
0.0
 20
1.0
 30
0.0
  9
$PUCSORTHOREF
  2

  9
$PUCSORTHOVIEW
 70
0
  9
$PUCSORGTOP
 10
0.0
 20
0.0
 30
0.0
  9
$PUCSORGBOTTOM
 10
0.0
 20
0.0
 30
0.0
  9
$PUCSORGLEFT
 10
0.0
 20
0.0
 30
0.0
  9
$PUCSORGRIGHT
 10
0.0
 20
0.0
 30
0.0
  9
$PUCSORGFRONT
 10
0.0
 20
0.0
 30
0.0
  9
$PUCSORGBACK
 10
0.0
 20
0.0
 30
0.0
  9
$USERI1
 70
0
  9
$USERI2
 70
0
  9
$USERI3
 70
0
  9
$USERI4
 70
0
  9
$USERI5
 70
0
  9
$USERR1
 40
0.0
  9
$USERR2
 40
0.0
  9
$USERR3
 40
0.0
  9
$USERR4
 40
0.0
  9
$USERR5
 40
0.0
  9
$WORLDVIEW
 70
1
  9
$SHADEDGE
 70
3
  9
$SHADEDIF
 70
70
  9
$TILEMODE
 70
1
  9
$MAXACTVP
 70
64
  9
$PINSBASE
 10
0.0
 20
0.0
 30
0.0
  9
$PLIMCHECK
 70
0
  9
$PEXTMIN
 10
1e+20
 20
1e+20
 30
1e+20
  9
$PEXTMAX
 10
-1e+20
 20
-1e+20
 30
-1e+20
  9
$PLIMMIN
 10
0.0
 20
0.0
  9
$PLIMMAX
 10
420.0
 20
297.0
  9
$UNITMODE
 70
0
  9
$VISRETAIN
 70
1
  9
$PLINEGEN
 70
0
  9
$PSLTSCALE
 70
1
  9
$TREEDEPTH
 70
3020
  9
$CMLSTYLE
  2
Standard
  9
$CMLJUST
 70
0
  9
$CMLSCALE
 40
20.0
  9
$PROXYGRAPHICS
 70
1
  9
$MEASUREMENT
 70
1
  9
$CELWEIGHT
370
-1
  9
$ENDCAPS
280
0
  9
$JOINSTYLE
280
0
  9
$LWDISPLAY
290
0
  9
$INSUNITS
 70
4
  9
$HYPERLINKBASE
  1

  9
$STYLESHEET
  1

  9
$XEDIT
290
1
  9
$CEPSNTYPE
380
0
  9
$PSTYLEMODE
290
1
  9
$FINGERPRINTGUID
  2
{55523CCD-757E-4E9A-9F2A-1C49CF8BCB70}
  9
$VERSIONGUID
  2
{A0D89824-EE74-4E2A-8E99-49117F88FEE1}
  9
$EXTNAMES
290
1
  9
$PSVPSCALE
 40
0.0
  9
$OLESTARTUP
290
0
  9
$SORTENTS
280
127
  9
$INDEXCTL
280
0
  9
$HIDETEXT
280
1
  9
$XCLIPFRAME
280
1
  9
$HALOGAP
280
0
  9
$OBSCOLOR
 70
257
  9
$OBSLTYPE
280
0
  9
$INTERSECTIONDISPLAY
280
0
  9
$INTERSECTIONCOLOR
 70
257
  9
$DIMASSOC
280
2
  9
$PROJECTNAME
  1

  9
$CAMERADISPLAY
290
0
  9
$LENSLENGTH
 40
50.0
  9
$CAMERAHEIGHT
 40
0.0
  9
$STEPSPERSEC
 40
24.0
  9
$STEPSIZE
 40
100.0
  9
$3DDWFPREC
 40
2.0
  9
$PSOLWIDTH
 40
0.005
  9
$PSOLHEIGHT
 40
0.08
  9
$LOFTANG1
 40
1.570796326795
  9
$LOFTANG2
 40
1.570796326795
  9
$LOFTMAG1
 40
0.0
  9
$LOFTMAG2
 40
0.0
  9
$LOFTPARAM
 70
7
  9
$LOFTNORMALS
280
1
  9
$LATITUDE
 40
37.795
  9
$LONGITUDE
 40
-122.394
  9
$NORTHDIRECTION
 40
0.0
  9
$TIMEZONE
 70
-8000
  9
$LIGHTGLYPHDISPLAY
280
1
  9
$TILEMODELIGHTSYNCH
280
1
  9
$CMATERIAL
347
20
  9
$SOLIDHIST
280
0
  9
$SHOWHIST
280
1
  9
$DWFFRAME
280
2
  9
$DGNFRAME
280
2
  9
$REALWORLDSCALE
290
1
  9
$INTERFERECOLOR
 62
256
  9
$CSHADOW
280
0
  9
$SHADOWPLANELOCATION
 40
0.0
  0
ENDSEC
  0
SECTION
  2
CLASSES
  0
CLASS
  1
ACDBDICTIONARYWDFLT
  2
AcDbDictionaryWithDefault
  3
ObjectDBX Classes
 90
0
 91
0
280
0
281
0
  0
CLASS
  1
SUN
  2
AcDbSun
  3
SCENEOE
 90
1153
 91
0
280
0
281
0
  0
CLASS
  1
VISUALSTYLE
  2
AcDbVisualStyle
  3
ObjectDBX Classes
 90
4095
 91
0
280
0
281
0
  0
CLASS
  1
MATERIAL
  2
AcDbMaterial
  3
ObjectDBX Classes
 90
1153
 91
0
280
0
281
0
  0
CLASS
  1
SCALE
  2
AcDbScale
  3
ObjectDBX Classes
 90
1153
 91
0
280
0
281
0
  0
CLASS
  1
TABLESTYLE
  2
AcDbTableStyle
  3
ObjectDBX Classes
 90
4095
 91
0
280
0
281
0
  0
CLASS
  1
MLEADERSTYLE
  2
AcDbMLeaderStyle
  3
ACDB_MLEADERSTYLE_CLASS
 90
4095
 91
0
280
0
281
0
  0
CLASS
  1
DICTIONARYVAR
  2
AcDbDictionaryVar
  3
ObjectDBX Classes
 90
0
 91
0
280
0
281
0
  0
CLASS
  1
CELLSTYLEMAP
  2
AcDbCellStyleMap
  3
ObjectDBX Classes
 90
1152
 91
0
280
0
281
0
  0
CLASS
  1
MENTALRAYRENDERSETTINGS
  2
AcDbMentalRayRenderSettings
  3
SCENEOE
 90
1024
 91
0
280
0
281
0
  0
CLASS
  1
ACDBDETAILVIEWSTYLE
  2
AcDbDetailViewStyle
  3
ObjectDBX Classes
 90
1025
 91
0
280
0
281
0
  0
CLASS
  1
ACDBSECTIONVIEWSTYLE
  2
AcDbSectionViewStyle
  3
ObjectDBX Classes
 90
1025
 91
0
280
0
281
0
  0
CLASS
  1
RASTERVARIABLES
  2
AcDbRasterVariables
  3
ISM
 90
0
 91
0
280
0
281
0
  0
CLASS
  1
ACDBPLACEHOLDER
  2
AcDbPlaceHolder
  3
ObjectDBX Classes
 90
0
 91
0
280
0
281
0
  0
CLASS
  1
LAYOUT
  2
AcDbLayout
  3
ObjectDBX Classes
 90
0
 91
0
280
0
281
0
  0
ENDSEC
  0
SECTION
  2
TABLES
  0
TABLE
  2
VPORT
  5
8
330
0
100
AcDbSymbolTable
 70
1
  0
VPORT
  5
23
330
8
100
AcDbSymbolTableRecord
100
AcDbViewportTableRecord
  2
*Active
 70
0
 10
0.0
 20
0.0
 11
1.0
 21
1.0
 12
0.0
 22
0.0
 13
0.0
 23
0.0
 14
0.5
 24
0.5
 15
0.5
 25
0.5
 16
0.0
 26
0.0
 36
1.0
 17
0.0
 27
0.0
 37
0.0
 40
1000.0
 41
1.34
 42
50.0
 43
0.0
 44
0.0
 50
0.0
 51
0.0
 71
0
 72
1000
 73
1
 74
3
 75
0
 76
0
 77
0
 78
0
281
0
 65
0
146
0.0
  0
ENDTAB
  0
TABLE
  2
LTYPE
  5
2
330
0
100
AcDbSymbolTable
 70
3
  0
LTYPE
  5
24
330
2
100
AcDbSymbolTableRecord
100
AcDbLinetypeTableRecord
  2
ByBlock
 70
0
  3

 72
65
 73
0
 40
0.0
  0
LTYPE
  5
25
330
2
100
AcDbSymbolTableRecord
100
AcDbLinetypeTableRecord
  2
ByLayer
 70
0
  3

 72
65
 73
0
 40
0.0
  0
LTYPE
  5
26
330
2
100
AcDbSymbolTableRecord
100
AcDbLinetypeTableRecord
  2
Continuous
 70
0
  3

 72
65
 73
0
 40
0.0
  0
ENDTAB
  0
TABLE
  2
LAYER
  5
1
330
0
100
AcDbSymbolTable
 70
4
  0
LAYER
  5
27
330
1
100
AcDbSymbolTableRecord
100
AcDbLayerTableRecord
  2
0
 70
0
 62
7
  6
Continuous
370
-3
390
13
347
21
  0
LAYER
  5
28
330
1
100
AcDbSymbolTableRecord
100
AcDbLayerTableRecord
  2
Defpoints
 70
0
 62
7
  6
Continuous
290
0
370
-3
390
13
347
21
  0
LAYER
  5
2F
330
1
100
AcDbSymbolTableRecord
100
AcDbLayerTableRecord
  2
WALL
 70
0
 62
7
  6
Continuous
370
-3
390
13
347
21
  0
LAYER
  5
30
330
1
100
AcDbSymbolTableRecord
100
AcDbLayerTableRecord
  2
WINDOW
 70
0
 62
5
  6
Continuous
370
-3
390
13
347
21
  0
ENDTAB
  0
TABLE
  2
STYLE
  5
5
330
0
100
AcDbSymbolTable
 70
1
  0
STYLE
  5
29
330
5
100
AcDbSymbolTableRecord
100
AcDbTextStyleTableRecord
  2
Standard
 70
0
 40
0.0
 41
1.0
 50
0.0
 71
0
 42
2.5
  3
txt
  4

  0
ENDTAB
  0
TABLE
  2
VIEW
  5
7
330
0
100
AcDbSymbolTable
 70
0
  0
ENDTAB
  0
TABLE
  2
UCS
  5
6
330
0
100
AcDbSymbolTable
 70
0
  0
ENDTAB
  0
TABLE
  2
APPID
  5
3
330
0
100
AcDbSymbolTable
 70
3
  0
APPID
  5
2A
330
3
100
AcDbSymbolTableRecord
100
AcDbRegAppTableRecord
  2
ACAD
 70
0
  0
APPID
  5
275
330
3
100
AcDbSymbolTableRecord
100
AcDbRegAppTableRecord
  2
HATCHBACKGROUNDCOLOR
 70
0
  0
APPID
  5
276
330
3
100
AcDbSymbolTableRecord
100
AcDbRegAppTableRecord
  2
EZDXF
 70
0
  0
ENDTAB
  0
TABLE
  2
DIMSTYLE
  5
4
330
0
100
AcDbSymbolTable
 70
1
100
AcDbDimStyleTable
  0
DIMSTYLE
105
2B
330
4
100
AcDbSymbolTableRecord
100
AcDbDimStyleTableRecord
  2
Standard
 70
0
 40
1.0
 41
2.5
 42
0.625
 43
3.75
 44
1.25
 45
0.0
 46
0.0
 47
0.0
 48
0.0
 49
2.5
140
2.5
141
2.5
142
0.0
143
0.03937007874
144
1.0
145
0.0
146
1.0
147
0.625
148
0.0
 69
0
 70
0
 71
0
 72
0
 73
0
 74
0
 75
0
 76
0
 77
1
 78
8
 79
3
170
0
171
3
172
1
173
0
174
0
175
0
176
0
177
0
178
0
179
2
271
2
272
2
273
2
274
3
275
0
276
0
277
2
278
44
279
0
280
0
281
0
282
0
283
0
284
8
285
0
286
0
288
0
289
3
290
0
371
-2
372
-2
  0
ENDTAB
  0
TABLE
  2
BLOCK_RECORD
  5
9
330
0
100
AcDbSymbolTable
 70
2
  0
BLOCK_RECORD
  5
17
330
9
100
AcDbSymbolTableRecord
100
AcDbBlockTableRecord
  2
*Model_Space
340
1A
 70
0
280
1
281
0
  0
BLOCK_RECORD
  5
1B
330
9
100
AcDbSymbolTableRecord
100
AcDbBlockTableRecord
  2
*Paper_Space
340
1E
 70
0
280
1
281
0
  0
ENDTAB
  0
ENDSEC
  0
SECTION
  2
BLOCKS
  0
BLOCK
  5
18
330
17
100
AcDbEntity
  8
0
100
AcDbBlockBegin
  2
*Model_Space
 70
0
 10
0.0
 20
0.0
 30
0.0
  3
*Model_Space
  1

  0
ENDBLK
  5
19
330
17
100
AcDbEntity
  8
0
100
AcDbBlockEnd
  0
BLOCK
  5
1C
330
1B
100
AcDbEntity
  8
0
100
AcDbBlockBegin
  2
*Paper_Space
 70
0
 10
0.0
 20
0.0
 30
0.0
  3
*Paper_Space
  1

  0
ENDBLK
  5
1D
330
1B
100
AcDbEntity
  8
0
100
AcDbBlockEnd
  0
ENDSEC
  0
SECTION
  2
ENTITIES
  0
LWPOLYLINE
  5
31
330
17
100
AcDbEntity
  8
WALL
100
AcDbPolyline
 90
4
 70
1
 10
1320.0
 20
8386.400000000001
 10
3300.0000000000005
 20
8386.400000000001
 10
3300.0000000000005
 20
8263.2
 10
1320.0
 20
8263.2
  0
HATCH
  5
32
330
17
100
AcDbEntity
  8
WALL
100
AcDbHatch
 10
0.0
 20
0.0
 30
0.0
210
0.0
220
0.0
230
1.0
  2
SOLID
 70
1
 71
0
 91
1
 92
3
 72
0
 73
1
 93
4
 10
1320.0
 20
8386.400000000001
 10
3300.0000000000005
 20
8386.400000000001
 10
3300.0000000000005
 20
8263.2
 10
1320.0
 20
8263.2
 97
0
 75
1
 76
1
 98
0
  0
LWPOLYLINE
  5
33
330
17
100
AcDbEntity
  8
WALL
100
AcDbPolyline
 90
4
 70
1
 10
3898.4
 20
8386.400000000001
 10
6952.000000000001
 20
8386.400000000001
 10
6952.000000000001
 20
8263.2
 10
3898.4
 20
8263.2
  0
HATCH
  5
34
330
17
100
AcDbEntity
  8
WALL
100
AcDbHatch
 10
0.0
 20
0.0
 30
0.0
210
0.0
220
0.0
230
1.0
  2
SOLID
 70
1
 71
0
 91
1
 92
3
 72
0
 73
1
 93
4
 10
3898.4
 20
8386.400000000001
 10
6952.000000000001
 20
8386.400000000001
 10
6952.000000000001
 20
8263.2
 10
3898.4
 20
8263.2
 97
0
 75
1
 76
1
 98
0
  0
LWPOLYLINE
  5
35
330
17
100
AcDbEntity
  8
WALL
100
AcDbPolyline
 90
4
 70
1
 10
7022.400000000001
 20
8368.800000000001
 10
7198.400000000001
 20
8368.800000000001
 10
7198.400000000001
 20
8280.800000000001
 10
7022.400000000001
 20
8280.800000000001
  0
HATCH
  5
36
330
17
100
AcDbEntity
  8
WALL
100
AcDbHatch
 10
0.0
 20
0.0
 30
0.0
210
0.0
220
0.0
230
1.0
  2
SOLID
 70
1
 71
0
 91
1
 92
3
 72
0
 73
1
 93
4
 10
7022.400000000001
 20
8368.800000000001
 10
7198.400000000001
 20
8368.800000000001
 10
7198.400000000001
 20
8280.800000000001
 10
7022.400000000001
 20
8280.800000000001
 97
0
 75
1
 76
1
 98
0
  0
LWPOLYLINE
  5
37
330
17
100
AcDbEntity
  8
WALL
100
AcDbPolyline
 90
4
 70
1
 10
9416.0
 20
8351.2
 10
9583.2
 20
8351.2
 10
9583.2
 20
8236.800000000001
 10
9416.0
 20
8236.800000000001
  0
HATCH
  5
38
330
17
100
AcDbEntity
  8
WALL
100
AcDbHatch
 10
0.0
 20
0.0
 30
0.0
210
0.0
220
0.0
230
1.0
  2
SOLID
 70
1
 71
0
 91
1
 92
3
 72
0
 73
1
 93
4
 10
9416.0
 20
8351.2
 10
9583.2
 20
8351.2
 10
9583.2
 20
8236.800000000001
 10
9416.0
 20
8236.800000000001
 97
0
 75
1
 76
1
 98
0
  0
LWPOLYLINE
  5
39
330
17
100
AcDbEntity
  8
WALL
100
AcDbPolyline
 90
4
 70
1
 10
8500.800000000001
 20
8210.400000000001
 10
8668.0
 20
8210.400000000001
 10
8668.0
 20
8184.000000000001
 10
8500.800000000001
 20
8184.000000000001
  0
HATCH
  5
3A
330
17
100
AcDbEntity
  8
WALL
100
AcDbHatch
 10
0.0
 20
0.0
 30
0.0
210
0.0
220
0.0
230
1.0
  2
SOLID
 70
1
 71
0
 91
1
 92
3
 72
0
 73
1
 93
4
 10
8500.800000000001
 20
8210.400000000001
 10
8668.0
 20
8210.400000000001
 10
8668.0
 20
8184.000000000001
 10
8500.800000000001
 20
8184.000000000001
 97
0
 75
1
 76
1
 98
0
  0
LWPOLYLINE
  5
3B
330
17
100
AcDbEntity
  8
WALL
100
AcDbPolyline
 90
4
 70
1
 10
8756.0
 20
8210.400000000001
 10
8932.0
 20
8210.400000000001
 10
8932.0
 20
8184.000000000001
 10
8756.0
 20
8184.000000000001
  0
HATCH
  5
3C
330
17
100
AcDbEntity
  8
WALL
100
AcDbHatch
 10
0.0
 20
0.0
 30
0.0
210
0.0
220
0.0
230
1.0
  2
SOLID
 70
1
 71
0
 91
1
 92
3
 72
0
 73
1
 93
4
 10
8756.0
 20
8210.400000000001
 10
8932.0
 20
8210.400000000001
 10
8932.0
 20
8184.000000000001
 10
8756.0
 20
8184.000000000001
 97
0
 75
1
 76
1
 98
0
  0
LWPOLYLINE
  5
3D
330
17
100
AcDbEntity
  8
WALL
100
AcDbPolyline
 90
4
 70
1
 10
4435.200000000001
 20
8122.400000000001
 10
5209.6
 20
8122.400000000001
 10
5209.6
 20
8069.6
 10
4435.200000000001
 20
8069.6
  0
HATCH
  5
3E
330
17
100
AcDbEntity
  8
WALL
100
AcDbHatch
 10
0.0
 20
0.0
 30
0.0
210
0.0
220
0.0
230
1.0
  2
SOLID
 70
1
 71
0
 91
1
 92
3
 72
0
 73
1
 93
4
 10
4435.200000000001
 20
8122.400000000001
 10
5209.6
 20
8122.400000000001
 10
5209.6
 20
8069.6
 10
4435.200000000001
 20
8069.6
 97
0
 75
1
 76
1
 98
0
  0
LWPOLYLINE
  5
3F
330
17
100
AcDbEntity
  8
WALL
100
AcDbPolyline
 90
4
 70
1
 10
6336.000000000001
 20
8122.400000000001
 10
6494.400000000001
 20
8122.400000000001
 10
6494.400000000001
 20
8113.6
 10
6336.000000000001
 20
8113.6
  0
HATCH
  5
40
330
17
100
AcDbEntity
  8
WALL
100
AcDbHatch
 10
0.0
 20
0.0
 30
0.0
210
0.0
220
0.0
230
1.0
  2
SOLID
 70
1
 71
0
 91
1
 92
3
 72
0
 73
1
 93
4
 10
6336.000000000001
 20
8122.400000000001
 10
6494.400000000001
 20
8122.400000000001
 10
6494.400000000001
 20
8113.6
 10
6336.000000000001
 20
8113.6
 97
0
 75
1
 76
1
 98
0
  0
LWPOLYLINE
  5
41
330
17
100
AcDbEntity
  8
WALL
100
AcDbPolyline
 90
4
 70
1
 10
5579.200000000001
 20
8069.6
 10
5790.400000000001
 20
8069.6
 10
5790.400000000001
 20
8060.800000000001
 10
5579.200000000001
 20
8060.800000000001
  0
HATCH
  5
42
330
17
100
AcDbEntity
  8
WALL
100
AcDbHatch
 10
0.0
 20
0.0
 30
0.0
210
0.0
220
0.0
230
1.0
  2
SOLID
 70
1
 71
0
 91
1
 92
3
 72
0
 73
1
 93
4
 10
5579.200000000001
 20
8069.6
 10
5790.400000000001
 20
8069.6
 10
5790.400000000001
 20
8060.800000000001
 10
5579.200000000001
 20
8060.800000000001
 97
0
 75
1
 76
1
 98
0
  0
LWPOLYLINE
  5
43
330
17
100
AcDbEntity
  8
WALL
100
AcDbPolyline
 90
4
 70
1
 10
9134.400000000001
 20
7981.6
 10
9310.400000000001
 20
7981.6
 10
9310.400000000001
 20
7902.400000000001
 10
9134.400000000001
 20
7902.400000000001
  0
HATCH
  5
44
330
17
100
AcDbEntity
  8
WALL
100
AcDbHatch
 10
0.0
 20
0.0
 30
0.0
210
0.0
220
0.0
230
1.0
  2
SOLID
 70
1
 71
0
 91
1
 92
3
 72
0
 73
1
 93
4
 10
9134.400000000001
 20
7981.6
 10
9310.400000000001
 20
7981.6
 10
9310.400000000001
 20
7902.400000000001
 10
9134.400000000001
 20
7902.400000000001
 97
0
 75
1
 76
1
 98
0
  0
LWPOLYLINE
  5
45
330
17
100
AcDbEntity
  8
WALL
100
AcDbPolyline
 90
4
 70
1
 10
3977.6000000000004
 20
7946.400000000001
 10
4136.0
 20
7946.400000000001
 10
4136.0
 20
7920.000000000001
 10
3977.6000000000004
 20
7920.000000000001
  0
HATCH
  5
46
330
17
100
AcDbEntity
  8
WALL
100
AcDbHatch
 10
0.0
 20
0.0
 30
0.0
210
0.0
220
0.0
230
1.0
  2
SOLID
 70
1
 71
0
 91
1
 92
3
 72
0
 73
1
 93
4
 10
3977.6000000000004
 20
7946.400000000001
 10
4136.0
 20
7946.400000000001
 10
4136.0
 20
7920.000000000001
 10
3977.6000000000004
 20
7920.000000000001
 97
0
 75
1
 76
1
 98
0
  0
LWPOLYLINE
  5
47
330
17
100
AcDbEntity
  8
WALL
100
AcDbPolyline
 90
4
 70
1
 10
9116.800000000001
 20
7805.6
 10
9328.0
 20
7805.6
 10
9328.0
 20
7744.000000000001
 10
9116.800000000001
 20
7744.000000000001
  0
HATCH
  5
48
330
17
100
AcDbEntity
  8
WALL
100
AcDbHatch
 10
0.0
 20
0.0
 30
0.0
210
0.0
220
0.0
230
1.0
  2
SOLID
 70
1
 71
0
 91
1
 92
3
 72
0
 73
1
 93
4
 10
9116.800000000001
 20
7805.6
 10
9328.0
 20
7805.6
 10
9328.0
 20
7744.000000000001
 10
9116.800000000001
 20
7744.000000000001
 97
0
 75
1
 76
1
 98
0
  0
LWPOLYLINE
  5
49
330
17
100
AcDbEntity
  8
WALL
100
AcDbPolyline
 90
4
 70
1
 10
9363.2
 20
7339.200000000001
 10
9785.6
 20
7339.200000000001
 10
9785.6
 20
7277.6
 10
9363.2
 20
7277.6
  0
HATCH
  5
4A
330
17
100
AcDbEntity
  8
WALL
100
AcDbHatch
 10
0.0
 20
0.0
 30
0.0
210
0.0
220
0.0
230
1.0
  2
SOLID
 70
1
 71
0
 91
1
 92
3
 72
0
 73
1
 93
4
 10
9363.2
 20
7339.200000000001
 10
9785.6
 20
7339.200000000001
 10
9785.6
 20
7277.6
 10
9363.2
 20
7277.6
 97
0
 75
1
 76
1
 98
0
  0
LWPOLYLINE
  5
4B
330
17
100
AcDbEntity
  8
WALL
100
AcDbPolyline
 90
4
 70
1
 10
1320.0
 20
7260.000000000001
 10
1619.2
 20
7260.000000000001
 10
1619.2
 20
7207.200000000001
 10
1320.0
 20
7207.200000000001
  0
HATCH
  5
4C
330
17
100
AcDbEntity
  8
WALL
100
AcDbHatch
 10
0.0
 20
0.0
 30
0.0
210
0.0
220
0.0
230
1.0
  2
SOLID
 70
1
 71
0
 91
1
 92
3
 72
0
 73
1
 93
4
 10
1320.0
 20
7260.000000000001
 10
1619.2
 20
7260.000000000001
 10
1619.2
 20
7207.200000000001
 10
1320.0
 20
7207.200000000001
 97
0
 75
1
 76
1
 98
0
  0
LWPOLYLINE
  5
4D
330
17
100
AcDbEntity
  8
WALL
100
AcDbPolyline
 90
4
 70
1
 10
2868.8
 20
7260.000000000001
 10
3203.2000000000003
 20
7260.000000000001
 10
3203.2000000000003
 20
7207.200000000001
 10
2868.8
 20
7207.200000000001
  0
HATCH
  5
4E
330
17
100
AcDbEntity
  8
WALL
100
AcDbHatch
 10
0.0
 20
0.0
 30
0.0
210
0.0
220
0.0
230
1.0
  2
SOLID
 70
1
 71
0
 91
1
 92
3
 72
0
 73
1
 93
4
 10
2868.8
 20
7260.000000000001
 10
3203.2000000000003
 20
7260.000000000001
 10
3203.2000000000003
 20
7207.200000000001
 10
2868.8
 20
7207.200000000001
 97
0
 75
1
 76
1
 98
0
  0
LWPOLYLINE
  5
4F
330
17
100
AcDbEntity
  8
WALL
100
AcDbPolyline
 90
4
 70
1
 10
3907.2000000000003
 20
7260.000000000001
 10
6265.6
 20
7260.000000000001
 10
6265.6
 20
7172.000000000001
 10
3907.2000000000003
 20
7172.000000000001
  0
HATCH
  5
50
330
17
100
AcDbEntity
  8
WALL
100
AcDbHatch
 10
0.0
 20
0.0
 30
0.0
210
0.0
220
0.0
230
1.0
  2
SOLID
 70
1
 71
0
 91
1
 92
3
 72
0
 73
1
 93
4
 10
3907.2000000000003
 20
7260.000000000001
 10
6265.6
 20
7260.000000000001
 10
6265.6
 20
7172.000000000001
 10
3907.2000000000003
 20
7172.000000000001
 97
0
 75
1
 76
1
 98
0
  0
LWPOLYLINE
  5
51
330
17
100
AcDbEntity
  8
WALL
100
AcDbPolyline
 90
4
 70
1
 10
9257.6
 20
7268.8
 10
9820.800000000001
 20
7268.8
 10
9820.800000000001
 20
7154.400000000001
 10
9257.6
 20
7154.400000000001
  0
HATCH
  5
52
330
17
100
AcDbEntity
  8
WALL
100
AcDbHatch
 10
0.0
 20
0.0
 30
0.0
210
0.0
220
0.0
230
1.0
  2
SOLID
 70
1
 71
0
 91
1
 92
3
 72
0
 73
1
 93
4
 10
9257.6
 20
7268.8
 10
9820.800000000001
 20
7268.8
 10
9820.800000000001
 20
7154.400000000001
 10
9257.6
 20
7154.400000000001
 97
0
 75
1
 76
1
 98
0
  0
LWPOLYLINE
  5
53
330
17
100
AcDbEntity
  8
WALL
100
AcDbPolyline
 90
4
 70
1
 10
3238.4
 20
7242.400000000001
 10
3414.4
 20
7242.400000000001
 10
3414.4
 20
7189.6
 10
3238.4
 20
7189.6
  0
HATCH
  5
54
330
17
100
AcDbEntity
  8
WALL
100
AcDbHatch
 10
0.0
 20
0.0
 30
0.0
210
0.0
220
0.0
230
1.0
  2
SOLID
 70
1
 71
0
 91
1
 92
3
 72
0
 73
1
 93
4
 10
3238.4
 20
7242.400000000001
 10
3414.4
 20
7242.400000000001
 10
3414.4
 20
7189.6
 10
3238.4
 20
7189.6
 97
0
 75
1
 76
1
 98
0
  0
LWPOLYLINE
  5
55
330
17
100
AcDbEntity
  8
WALL
100
AcDbPolyline
 90
4
 70
1
 10
9644.800000000001
 20
7145.6
 10
9820.800000000001
 20
7145.6
 10
9820.800000000001
 20
7101.6
 10
9644.800000000001
 20
7101.6
  0
HATCH
  5
56
330
17
100
AcDbEntity
  8
WALL
100
AcDbHatch
 10
0.0
 20
0.0
 30
0.0
210
0.0
220
0.0
230
1.0
  2
SOLID
 70
1
 71
0
 91
1
 92
3
 72
0
 73
1
 93
4
 10
9644.800000000001
 20
7145.6
 10
9820.800000000001
 20
7145.6
 10
9820.800000000001
 20
7101.6
 10
9644.800000000001
 20
7101.6
 97
0
 75
1
 76
1
 98
0
  0
LWPOLYLINE
  5
57
330
17
100
AcDbEntity
  8
WALL
100
AcDbPolyline
 90
4
 70
1
 10
9609.6
 20
7092.8
 10
9820.800000000001
 20
7092.8
 10
9820.800000000001
 20
6996.000000000001
 10
9609.6
 20
6996.000000000001
  0
HATCH
  5
58
330
17
100
AcDbEntity
  8
WALL
100
AcDbHatch
 10
0.0
 20
0.0
 30
0.0
210
0.0
220
0.0
230
1.0
  2
SOLID
 70
1
 71
0
 91
1
 92
3
 72
0
 73
1
 93
4
 10
9609.6
 20
7092.8
 10
9820.800000000001
 20
7092.8
 10
9820.800000000001
 20
6996.000000000001
 10
9609.6
 20
6996.000000000001
 97
0
 75
1
 76
1
 98
0
  0
LWPOLYLINE
  5
59
330
17
100
AcDbEntity
  8
WALL
100
AcDbPolyline
 90
4
 70
1
 10
5368.0
 20
6802.400000000001
 10
5605.6
 20
6802.400000000001
 10
5605.6
 20
6732.000000000001
 10
5368.0
 20
6732.000000000001
  0
HATCH
  5
5A
330
17
100
AcDbEntity
  8
WALL
100
AcDbHatch
 10
0.0
 20
0.0
 30
0.0
210
0.0
220
0.0
230
1.0
  2
SOLID
 70
1
 71
0
 91
1
 92
3
 72
0
 73
1
 93
4
 10
5368.0
 20
6802.400000000001
 10
5605.6
 20
6802.400000000001
 10
5605.6
 20
6732.000000000001
 10
5368.0
 20
6732.000000000001
 97
0
 75
1
 76
1
 98
0
  0
LWPOLYLINE
  5
5B
330
17
100
AcDbEntity
  8
WALL
100
AcDbPolyline
 90
4
 70
1
 10
9028.800000000001
 20
6626.400000000001
 10
9662.400000000001
 20
6626.400000000001
 10
9662.400000000001
 20
6538.400000000001
 10
9028.800000000001
 20
6538.400000000001
  0
HATCH
  5
5C
330
17
100
AcDbEntity
  8
WALL
100
AcDbHatch
 10
0.0
 20
0.0
 30
0.0
210
0.0
220
0.0
230
1.0
  2
SOLID
 70
1
 71
0
 91
1
 92
3
 72
0
 73
1
 93
4
 10
9028.800000000001
 20
6626.400000000001
 10
9662.400000000001
 20
6626.400000000001
 10
9662.400000000001
 20
6538.400000000001
 10
9028.800000000001
 20
6538.400000000001
 97
0
 75
1
 76
1
 98
0
  0
LWPOLYLINE
  5
5D
330
17
100
AcDbEntity
  8
WALL
100
AcDbPolyline
 90
4
 70
1
 10
4998.400000000001
 20
6617.6
 10
5156.8
 20
6617.6
 10
5156.8
 20
6608.8
 10
4998.400000000001
 20
6608.8
  0
HATCH
  5
5E
330
17
100
AcDbEntity
  8
WALL
100
AcDbHatch
 10
0.0
 20
0.0
 30
0.0
210
0.0
220
0.0
230
1.0
  2
SOLID
 70
1
 71
0
 91
1
 92
3
 72
0
 73
1
 93
4
 10
4998.400000000001
 20
6617.6
 10
5156.8
 20
6617.6
 10
5156.8
 20
6608.8
 10
4998.400000000001
 20
6608.8
 97
0
 75
1
 76
1
 98
0
  0
LWPOLYLINE
  5
5F
330
17
100
AcDbEntity
  8
WALL
100
AcDbPolyline
 90
4
 70
1
 10
4822.400000000001
 20
6538.400000000001
 10
4998.400000000001
 20
6538.400000000001
 10
4998.400000000001
 20
6529.6
 10
4822.400000000001
 20
6529.6
  0
HATCH
  5
60
330
17
100
AcDbEntity
  8
WALL
100
AcDbHatch
 10
0.0
 20
0.0
 30
0.0
210
0.0
220
0.0
230
1.0
  2
SOLID
 70
1
 71
0
 91
1
 92
3
 72
0
 73
1
 93
4
 10
4822.400000000001
 20
6538.400000000001
 10
4998.400000000001
 20
6538.400000000001
 10
4998.400000000001
 20
6529.6
 10
4822.400000000001
 20
6529.6
 97
0
 75
1
 76
1
 98
0
  0
LWPOLYLINE
  5
61
330
17
100
AcDbEntity
  8
WALL
100
AcDbPolyline
 90
4
 70
1
 10
5156.8
 20
6485.6
 10
5315.200000000001
 20
6485.6
 10
5315.200000000001
 20
6459.200000000001
 10
5156.8
 20
6459.200000000001
  0
HATCH
  5
62
330
17
100
AcDbEntity
  8
WALL
100
AcDbHatch
 10
0.0
 20
0.0
 30
0.0
210
0.0
220
0.0
230
1.0
  2
SOLID
 70
1
 71
0
 91
1
 92
3
 72
0
 73
1
 93
4
 10
5156.8
 20
6485.6
 10
5315.200000000001
 20
6485.6
 10
5315.200000000001
 20
6459.200000000001
 10
5156.8
 20
6459.200000000001
 97
0
 75
1
 76
1
 98
0
  0
LWPOLYLINE
  5
63
330
17
100
AcDbEntity
  8
WALL
100
AcDbPolyline
 90
4
 70
1
 10
4892.8
 20
6468.000000000001
 10
5104.0
 20
6468.000000000001
 10
5104.0
 20
6459.200000000001
 10
4892.8
 20
6459.200000000001
  0
HATCH
  5
64
330
17
100
AcDbEntity
  8
WALL
100
AcDbHatch
 10
0.0
 20
0.0
 30
0.0
210
0.0
220
0.0
230
1.0
  2
SOLID
 70
1
 71
0
 91
1
 92
3
 72
0
 73
1
 93
4
 10
4892.8
 20
6468.000000000001
 10
5104.0
 20
6468.000000000001
 10
5104.0
 20
6459.200000000001
 10
4892.8
 20
6459.200000000001
 97
0
 75
1
 76
1
 98
0
  0
LWPOLYLINE
  5
65
330
17
100
AcDbEntity
  8
WALL
100
AcDbPolyline
 90
4
 70
1
 10
9644.800000000001
 20
6459.200000000001
 10
9820.800000000001
 20
6459.200000000001
 10
9820.800000000001
 20
6441.6
 10
9644.800000000001
 20
6441.6
  0
HATCH
  5
66
330
17
100
AcDbEntity
  8
WALL
100
AcDbHatch
 10
0.0
 20
0.0
 30
0.0
210
0.0
220
0.0
230
1.0
  2
SOLID
 70
1
 71
0
 91
1
 92
3
 72
0
 73
1
 93
4
 10
9644.800000000001
 20
6459.200000000001
 10
9820.800000000001
 20
6459.200000000001
 10
9820.800000000001
 20
6441.6
 10
9644.800000000001
 20
6441.6
 97
0
 75
1
 76
1
 98
0
  0
LWPOLYLINE
  5
67
330
17
100
AcDbEntity
  8
WALL
100
AcDbPolyline
 90
4
 70
1
 10
5315.200000000001
 20
6380.000000000001
 10
5508.8
 20
6380.000000000001
 10
5508.8
 20
6353.6
 10
5315.200000000001
 20
6353.6
  0
HATCH
  5
68
330
17
100
AcDbEntity
  8
WALL
100
AcDbHatch
 10
0.0
 20
0.0
 30
0.0
210
0.0
220
0.0
230
1.0
  2
SOLID
 70
1
 71
0
 91
1
 92
3
 72
0
 73
1
 93
4
 10
5315.200000000001
 20
6380.000000000001
 10
5508.8
 20
6380.000000000001
 10
5508.8
 20
6353.6
 10
5315.200000000001
 20
6353.6
 97
0
 75
1
 76
1
 98
0
  0
LWPOLYLINE
  5
69
330
17
100
AcDbEntity
  8
WALL
100
AcDbPolyline
 90
4
 70
1
 10
9644.800000000001
 20
6388.8
 10
9820.800000000001
 20
6388.8
 10
9820.800000000001
 20
6362.400000000001
 10
9644.800000000001
 20
6362.400000000001
  0
HATCH
  5
6A
330
17
100
AcDbEntity
  8
WALL
100
AcDbHatch
 10
0.0
 20
0.0
 30
0.0
210
0.0
220
0.0
230
1.0
  2
SOLID
 70
1
 71
0
 91
1
 92
3
 72
0
 73
1
 93
4
 10
9644.800000000001
 20
6388.8
 10
9820.800000000001
 20
6388.8
 10
9820.800000000001
 20
6362.400000000001
 10
9644.800000000001
 20
6362.400000000001
 97
0
 75
1
 76
1
 98
0
  0
LWPOLYLINE
  5
6B
330
17
100
AcDbEntity
  8
WALL
100
AcDbPolyline
 90
4
 70
1
 10
4769.6
 20
6300.8
 10
5614.400000000001
 20
6300.8
 10
5614.400000000001
 20
6151.200000000001
 10
4769.6
 20
6151.200000000001
  0
HATCH
  5
6C
330
17
100
AcDbEntity
  8
WALL
100
AcDbHatch
 10
0.0
 20
0.0
 30
0.0
210
0.0
220
0.0
230
1.0
  2
SOLID
 70
1
 71
0
 91
1
 92
3
 72
0
 73
1
 93
4
 10
4769.6
 20
6300.8
 10
5614.400000000001
 20
6300.8
 10
5614.400000000001
 20
6151.200000000001
 10
4769.6
 20
6151.200000000001
 97
0
 75
1
 76
1
 98
0
  0
LWPOLYLINE
  5
6D
330
17
100
AcDbEntity
  8
WALL
100
AcDbPolyline
 90
4
 70
1
 10
871.2
 20
6098.400000000001
 10
1196.8000000000002
 20
6098.400000000001
 10
1196.8000000000002
 20
6036.8
 10
871.2
 20
6036.8
  0
HATCH
  5
6E
330
17
100
AcDbEntity
  8
WALL
100
AcDbHatch
 10
0.0
 20
0.0
 30
0.0
210
0.0
220
0.0
230
1.0
  2
SOLID
 70
1
 71
0
 91
1
 92
3
 72
0
 73
1
 93
4
 10
871.2
 20
6098.400000000001
 10
1196.8000000000002
 20
6098.400000000001
 10
1196.8000000000002
 20
6036.8
 10
871.2
 20
6036.8
 97
0
 75
1
 76
1
 98
0
  0
LWPOLYLINE
  5
6F
330
17
100
AcDbEntity
  8
WALL
100
AcDbPolyline
 90
4
 70
1
 10
9275.2
 20
6080.8
 10
9512.800000000001
 20
6080.8
 10
9512.800000000001
 20
6063.200000000001
 10
9275.2
 20
6063.200000000001
  0
HATCH
  5
70
330
17
100
AcDbEntity
  8
WALL
100
AcDbHatch
 10
0.0
 20
0.0
 30
0.0
210
0.0
220
0.0
230
1.0
  2
SOLID
 70
1
 71
0
 91
1
 92
3
 72
0
 73
1
 93
4
 10
9275.2
 20
6080.8
 10
9512.800000000001
 20
6080.8
 10
9512.800000000001
 20
6063.200000000001
 10
9275.2
 20
6063.200000000001
 97
0
 75
1
 76
1
 98
0
  0
LWPOLYLINE
  5
71
330
17
100
AcDbEntity
  8
WALL
100
AcDbPolyline
 90
4
 70
1
 10
6300.8
 20
6028.000000000001
 10
6503.200000000001
 20
6028.000000000001
 10
6503.200000000001
 20
5992.8
 10
6300.8
 20
5992.8
  0
HATCH
  5
72
330
17
100
AcDbEntity
  8
WALL
100
AcDbHatch
 10
0.0
 20
0.0
 30
0.0
210
0.0
220
0.0
230
1.0
  2
SOLID
 70
1
 71
0
 91
1
 92
3
 72
0
 73
1
 93
4
 10
6300.8
 20
6028.000000000001
 10
6503.200000000001
 20
6028.000000000001
 10
6503.200000000001
 20
5992.8
 10
6300.8
 20
5992.8
 97
0
 75
1
 76
1
 98
0
  0
LWPOLYLINE
  5
73
330
17
100
AcDbEntity
  8
WALL
100
AcDbPolyline
 90
4
 70
1
 10
7286.400000000001
 20
6028.000000000001
 10
7656.000000000001
 20
6028.000000000001
 10
7656.000000000001
 20
5957.6
 10
7286.400000000001
 20
5957.6
  0
HATCH
  5
74
330
17
100
AcDbEntity
  8
WALL
100
AcDbHatch
 10
0.0
 20
0.0
 30
0.0
210
0.0
220
0.0
230
1.0
  2
SOLID
 70
1
 71
0
 91
1
 92
3
 72
0
 73
1
 93
4
 10
7286.400000000001
 20
6028.000000000001
 10
7656.000000000001
 20
6028.000000000001
 10
7656.000000000001
 20
5957.6
 10
7286.400000000001
 20
5957.6
 97
0
 75
1
 76
1
 98
0
  0
LWPOLYLINE
  5
75
330
17
100
AcDbEntity
  8
WALL
100
AcDbPolyline
 90
4
 70
1
 10
3027.2000000000003
 20
5975.200000000001
 10
3185.6000000000004
 20
5975.200000000001
 10
3185.6000000000004
 20
5948.8
 10
3027.2000000000003
 20
5948.8
  0
HATCH
  5
76
330
17
100
AcDbEntity
  8
WALL
100
AcDbHatch
 10
0.0
 20
0.0
 30
0.0
210
0.0
220
0.0
230
1.0
  2
SOLID
 70
1
 71
0
 91
1
 92
3
 72
0
 73
1
 93
4
 10
3027.2000000000003
 20
5975.200000000001
 10
3185.6000000000004
 20
5975.200000000001
 10
3185.6000000000004
 20
5948.8
 10
3027.2000000000003
 20
5948.8
 97
0
 75
1
 76
1
 98
0
  0
LWPOLYLINE
  5
77
330
17
100
AcDbEntity
  8
WALL
100
AcDbPolyline
 90
4
 70
1
 10
2428.8
 20
5957.6
 10
2657.6000000000004
 20
5957.6
 10
2657.6000000000004
 20
5922.400000000001
 10
2428.8
 20
5922.400000000001
  0
HATCH
  5
78
330
17
100
AcDbEntity
  8
WALL
100
AcDbHatch
 10
0.0
 20
0.0
 30
0.0
210
0.0
220
0.0
230
1.0
  2
SOLID
 70
1
 71
0
 91
1
 92
3
 72
0
 73
1
 93
4
 10
2428.8
 20
5957.6
 10
2657.6000000000004
 20
5957.6
 10
2657.6000000000004
 20
5922.400000000001
 10
2428.8
 20
5922.400000000001
 97
0
 75
1
 76
1
 98
0
  0
LWPOLYLINE
  5
79
330
17
100
AcDbEntity
  8
WALL
100
AcDbPolyline
 90
4
 70
1
 10
9644.800000000001
 20
5790.400000000001
 10
9820.800000000001
 20
5790.400000000001
 10
9820.800000000001
 20
5711.200000000001
 10
9644.800000000001
 20
5711.200000000001
  0
HATCH
  5
7A
330
17
100
AcDbEntity
  8
WALL
100
AcDbHatch
 10
0.0
 20
0.0
 30
0.0
210
0.0
220
0.0
230
1.0
  2
SOLID
 70
1
 71
0
 91
1
 92
3
 72
0
 73
1
 93
4
 10
9644.800000000001
 20
5790.400000000001
 10
9820.800000000001
 20
5790.400000000001
 10
9820.800000000001
 20
5711.200000000001
 10
9644.800000000001
 20
5711.200000000001
 97
0
 75
1
 76
1
 98
0
  0
LWPOLYLINE
  5
7B
330
17
100
AcDbEntity
  8
WALL
100
AcDbPolyline
 90
4
 70
1
 10
1988.8000000000002
 20
5552.8
 10
2182.4
 20
5552.8
 10
2182.4
 20
5535.200000000001
 10
1988.8000000000002
 20
5535.200000000001
  0
HATCH
  5
7C
330
17
100
AcDbEntity
  8
WALL
100
AcDbHatch
 10
0.0
 20
0.0
 30
0.0
210
0.0
220
0.0
230
1.0
  2
SOLID
 70
1
 71
0
 91
1
 92
3
 72
0
 73
1
 93
4
 10
1988.8000000000002
 20
5552.8
 10
2182.4
 20
5552.8
 10
2182.4
 20
5535.200000000001
 10
1988.8000000000002
 20
5535.200000000001
 97
0
 75
1
 76
1
 98
0
  0
LWPOLYLINE
  5
7D
330
17
100
AcDbEntity
  8
WALL
100
AcDbPolyline
 90
4
 70
1
 10
1161.6000000000001
 20
5517.6
 10
3115.2000000000003
 20
5517.6
 10
3115.2000000000003
 20
5429.6
 10
1161.6000000000001
 20
5429.6
  0
HATCH
  5
7E
330
17
100
AcDbEntity
  8
WALL
100
AcDbHatch
 10
0.0
 20
0.0
 30
0.0
210
0.0
220
0.0
230
1.0
  2
SOLID
 70
1
 71
0
 91
1
 92
3
 72
0
 73
1
 93
4
 10
1161.6000000000001
 20
5517.6
 10
3115.2000000000003
 20
5517.6
 10
3115.2000000000003
 20
5429.6
 10
1161.6000000000001
 20
5429.6
 97
0
 75
1
 76
1
 98
0
  0
LWPOLYLINE
  5
7F
330
17
100
AcDbEntity
  8
WALL
100
AcDbPolyline
 90
4
 70
1
 10
3150.4
 20
5482.400000000001
 10
3396.8
 20
5482.400000000001
 10
3396.8
 20
5429.6
 10
3150.4
 20
5429.6
  0
HATCH
  5
80
330
17
100
AcDbEntity
  8
WALL
100
AcDbHatch
 10
0.0
 20
0.0
 30
0.0
210
0.0
220
0.0
230
1.0
  2
SOLID
 70
1
 71
0
 91
1
 92
3
 72
0
 73
1
 93
4
 10
3150.4
 20
5482.400000000001
 10
3396.8
 20
5482.400000000001
 10
3396.8
 20
5429.6
 10
3150.4
 20
5429.6
 97
0
 75
1
 76
1
 98
0
  0
LWPOLYLINE
  5
81
330
17
100
AcDbEntity
  8
WALL
100
AcDbPolyline
 90
4
 70
1
 10
4276.8
 20
5482.400000000001
 10
5702.400000000001
 20
5482.400000000001
 10
5702.400000000001
 20
5429.6
 10
4276.8
 20
5429.6
  0
HATCH
  5
82
330
17
100
AcDbEntity
  8
WALL
100
AcDbHatch
 10
0.0
 20
0.0
 30
0.0
210
0.0
220
0.0
230
1.0
  2
SOLID
 70
1
 71
0
 91
1
 92
3
 72
0
 73
1
 93
4
 10
4276.8
 20
5482.400000000001
 10
5702.400000000001
 20
5482.400000000001
 10
5702.400000000001
 20
5429.6
 10
4276.8
 20
5429.6
 97
0
 75
1
 76
1
 98
0
  0
LWPOLYLINE
  5
83
330
17
100
AcDbEntity
  8
WALL
100
AcDbPolyline
 90
4
 70
1
 10
3942.4000000000005
 20
5464.8
 10
4100.8
 20
5464.8
 10
4100.8
 20
5438.400000000001
 10
3942.4000000000005
 20
5438.400000000001
  0
HATCH
  5
84
330
17
100
AcDbEntity
  8
WALL
100
AcDbHatch
 10
0.0
 20
0.0
 30
0.0
210
0.0
220
0.0
230
1.0
  2
SOLID
 70
1
 71
0
 91
1
 92
3
 72
0
 73
1
 93
4
 10
3942.4000000000005
 20
5464.8
 10
4100.8
 20
5464.8
 10
4100.8
 20
5438.400000000001
 10
3942.4000000000005
 20
5438.400000000001
 97
0
 75
1
 76
1
 98
0
  0
LWPOLYLINE
  5
85
330
17
100
AcDbEntity
  8
WALL
100
AcDbPolyline
 90
4
 70
1
 10
8289.6
 20
5464.8
 10
9662.400000000001
 20
5464.8
 10
9662.400000000001
 20
5412.0
 10
8289.6
 20
5412.0
  0
HATCH
  5
86
330
17
100
AcDbEntity
  8
WALL
100
AcDbHatch
 10
0.0
 20
0.0
 30
0.0
210
0.0
220
0.0
230
1.0
  2
SOLID
 70
1
 71
0
 91
1
 92
3
 72
0
 73
1
 93
4
 10
8289.6
 20
5464.8
 10
9662.400000000001
 20
5464.8
 10
9662.400000000001
 20
5412.0
 10
8289.6
 20
5412.0
 97
0
 75
1
 76
1
 98
0
  0
LWPOLYLINE
  5
87
330
17
100
AcDbEntity
  8
WALL
100
AcDbPolyline
 90
4
 70
1
 10
6468.000000000001
 20
5456.0
 10
6652.8
 20
5456.0
 10
6652.8
 20
5420.8
 10
6468.000000000001
 20
5420.8
  0
HATCH
  5
88
330
17
100
AcDbEntity
  8
WALL
100
AcDbHatch
 10
0.0
 20
0.0
 30
0.0
210
0.0
220
0.0
230
1.0
  2
SOLID
 70
1
 71
0
 91
1
 92
3
 72
0
 73
1
 93
4
 10
6468.000000000001
 20
5456.0
 10
6652.8
 20
5456.0
 10
6652.8
 20
5420.8
 10
6468.000000000001
 20
5420.8
 97
0
 75
1
 76
1
 98
0
  0
LWPOLYLINE
  5
89
330
17
100
AcDbEntity
  8
WALL
100
AcDbPolyline
 90
4
 70
1
 10
6969.6
 20
5456.0
 10
7251.200000000001
 20
5456.0
 10
7251.200000000001
 20
5412.0
 10
6969.6
 20
5412.0
  0
HATCH
  5
8A
330
17
100
AcDbEntity
  8
WALL
100
AcDbHatch
 10
0.0
 20
0.0
 30
0.0
210
0.0
220
0.0
230
1.0
  2
SOLID
 70
1
 71
0
 91
1
 92
3
 72
0
 73
1
 93
4
 10
6969.6
 20
5456.0
 10
7251.200000000001
 20
5456.0
 10
7251.200000000001
 20
5412.0
 10
6969.6
 20
5412.0
 97
0
 75
1
 76
1
 98
0
  0
LWPOLYLINE
  5
8B
330
17
100
AcDbEntity
  8
WALL
100
AcDbPolyline
 90
4
 70
1
 10
8078.400000000001
 20
5447.200000000001
 10
8236.800000000001
 20
5447.200000000001
 10
8236.800000000001
 20
5420.8
 10
8078.400000000001
 20
5420.8
  0
HATCH
  5
8C
330
17
100
AcDbEntity
  8
WALL
100
AcDbHatch
 10
0.0
 20
0.0
 30
0.0
210
0.0
220
0.0
230
1.0
  2
SOLID
 70
1
 71
0
 91
1
 92
3
 72
0
 73
1
 93
4
 10
8078.400000000001
 20
5447.200000000001
 10
8236.800000000001
 20
5447.200000000001
 10
8236.800000000001
 20
5420.8
 10
8078.400000000001
 20
5420.8
 97
0
 75
1
 76
1
 98
0
  0
LWPOLYLINE
  5
8D
330
17
100
AcDbEntity
  8
WALL
100
AcDbPolyline
 90
4
 70
1
 10
1161.6000000000001
 20
5420.8
 10
3555.2000000000003
 20
5420.8
 10
3555.2000000000003
 20
5341.6
 10
1161.6000000000001
 20
5341.6
  0
HATCH
  5
8E
330
17
100
AcDbEntity
  8
WALL
100
AcDbHatch
 10
0.0
 20
0.0
 30
0.0
210
0.0
220
0.0
230
1.0
  2
SOLID
 70
1
 71
0
 91
1
 92
3
 72
0
 73
1
 93
4
 10
1161.6000000000001
 20
5420.8
 10
3555.2000000000003
 20
5420.8
 10
3555.2000000000003
 20
5341.6
 10
1161.6000000000001
 20
5341.6
 97
0
 75
1
 76
1
 98
0
  0
LWPOLYLINE
  5
8F
330
17
100
AcDbEntity
  8
WALL
100
AcDbPolyline
 90
4
 70
1
 10
4276.8
 20
5412.0
 10
4928.0
 20
5412.0
 10
4928.0
 20
5341.6
 10
4276.8
 20
5341.6
  0
HATCH
  5
90
330
17
100
AcDbEntity
  8
WALL
100
AcDbHatch
 10
0.0
 20
0.0
 30
0.0
210
0.0
220
0.0
230
1.0
  2
SOLID
 70
1
 71
0
 91
1
 92
3
 72
0
 73
1
 93
4
 10
4276.8
 20
5412.0
 10
4928.0
 20
5412.0
 10
4928.0
 20
5341.6
 10
4276.8
 20
5341.6
 97
0
 75
1
 76
1
 98
0
  0
LWPOLYLINE
  5
91
330
17
100
AcDbEntity
  8
WALL
100
AcDbPolyline
 90
4
 70
1
 10
4963.200000000001
 20
5394.400000000001
 10
5684.8
 20
5394.400000000001
 10
5684.8
 20
5332.8
 10
4963.200000000001
 20
5332.8
  0
HATCH
  5
92
330
17
100
AcDbEntity
  8
WALL
100
AcDbHatch
 10
0.0
 20
0.0
 30
0.0
210
0.0
220
0.0
230
1.0
  2
SOLID
 70
1
 71
0
 91
1
 92
3
 72
0
 73
1
 93
4
 10
4963.200000000001
 20
5394.400000000001
 10
5684.8
 20
5394.400000000001
 10
5684.8
 20
5332.8
 10
4963.200000000001
 20
5332.8
 97
0
 75
1
 76
1
 98
0
  0
LWPOLYLINE
  5
93
330
17
100
AcDbEntity
  8
WALL
100
AcDbPolyline
 90
4
 70
1
 10
6600.000000000001
 20
5394.400000000001
 10
7339.200000000001
 20
5394.400000000001
 10
7339.200000000001
 20
5324.0
 10
6600.000000000001
 20
5324.0
  0
HATCH
  5
94
330
17
100
AcDbEntity
  8
WALL
100
AcDbHatch
 10
0.0
 20
0.0
 30
0.0
210
0.0
220
0.0
230
1.0
  2
SOLID
 70
1
 71
0
 91
1
 92
3
 72
0
 73
1
 93
4
 10
6600.000000000001
 20
5394.400000000001
 10
7339.200000000001
 20
5394.400000000001
 10
7339.200000000001
 20
5324.0
 10
6600.000000000001
 20
5324.0
 97
0
 75
1
 76
1
 98
0
  0
LWPOLYLINE
  5
95
330
17
100
AcDbEntity
  8
WALL
100
AcDbPolyline
 90
4
 70
1
 10
8078.400000000001
 20
5376.8
 10
9644.800000000001
 20
5376.8
 10
9644.800000000001
 20
5341.6
 10
8078.400000000001
 20
5341.6
  0
HATCH
  5
96
330
17
100
AcDbEntity
  8
WALL
100
AcDbHatch
 10
0.0
 20
0.0
 30
0.0
210
0.0
220
0.0
230
1.0
  2
SOLID
 70
1
 71
0
 91
1
 92
3
 72
0
 73
1
 93
4
 10
8078.400000000001
 20
5376.8
 10
9644.800000000001
 20
5376.8
 10
9644.800000000001
 20
5341.6
 10
8078.400000000001
 20
5341.6
 97
0
 75
1
 76
1
 98
0
  0
LWPOLYLINE
  5
97
330
17
100
AcDbEntity
  8
WALL
100
AcDbPolyline
 90
4
 70
1
 10
677.6
 20
5253.6
 10
897.6
 20
5253.6
 10
897.6
 20
5165.6
 10
677.6
 20
5165.6
  0
HATCH
  5
98
330
17
100
AcDbEntity
  8
WALL
100
AcDbHatch
 10
0.0
 20
0.0
 30
0.0
210
0.0
220
0.0
230
1.0
  2
SOLID
 70
1
 71
0
 91
1
 92
3
 72
0
 73
1
 93
4
 10
677.6
 20
5253.6
 10
897.6
 20
5253.6
 10
897.6
 20
5165.6
 10
677.6
 20
5165.6
 97
0
 75
1
 76
1
 98
0
  0
LWPOLYLINE
  5
99
330
17
100
AcDbEntity
  8
WALL
100
AcDbPolyline
 90
4
 70
1
 10
5165.6
 20
5218.400000000001
 10
5456.0
 20
5218.400000000001
 10
5456.0
 20
5165.6
 10
5165.6
 20
5165.6
  0
HATCH
  5
9A
330
17
100
AcDbEntity
  8
WALL
100
AcDbHatch
 10
0.0
 20
0.0
 30
0.0
210
0.0
220
0.0
230
1.0
  2
SOLID
 70
1
 71
0
 91
1
 92
3
 72
0
 73
1
 93
4
 10
5165.6
 20
5218.400000000001
 10
5456.0
 20
5218.400000000001
 10
5456.0
 20
5165.6
 10
5165.6
 20
5165.6
 97
0
 75
1
 76
1
 98
0
  0
LWPOLYLINE
  5
9B
330
17
100
AcDbEntity
  8
WALL
100
AcDbPolyline
 90
4
 70
1
 10
4558.400000000001
 20
5192.0
 10
4716.8
 20
5192.0
 10
4716.8
 20
5174.400000000001
 10
4558.400000000001
 20
5174.400000000001
  0
HATCH
  5
9C
330
17
100
AcDbEntity
  8
WALL
100
AcDbHatch
 10
0.0
 20
0.0
 30
0.0
210
0.0
220
0.0
230
1.0
  2
SOLID
 70
1
 71
0
 91
1
 92
3
 72
0
 73
1
 93
4
 10
4558.400000000001
 20
5192.0
 10
4716.8
 20
5192.0
 10
4716.8
 20
5174.400000000001
 10
4558.400000000001
 20
5174.400000000001
 97
0
 75
1
 76
1
 98
0
  0
LWPOLYLINE
  5
9D
330
17
100
AcDbEntity
  8
WALL
100
AcDbPolyline
 90
4
 70
1
 10
6705.6
 20
5183.200000000001
 10
7092.8
 20
5183.200000000001
 10
7092.8
 20
5130.400000000001
 10
6705.6
 20
5130.400000000001
  0
HATCH
  5
9E
330
17
100
AcDbEntity
  8
WALL
100
AcDbHatch
 10
0.0
 20
0.0
 30
0.0
210
0.0
220
0.0
230
1.0
  2
SOLID
 70
1
 71
0
 91
1
 92
3
 72
0
 73
1
 93
4
 10
6705.6
 20
5183.200000000001
 10
7092.8
 20
5183.200000000001
 10
7092.8
 20
5130.400000000001
 10
6705.6
 20
5130.400000000001
 97
0
 75
1
 76
1
 98
0
  0
LWPOLYLINE
  5
9F
330
17
100
AcDbEntity
  8
WALL
100
AcDbPolyline
 90
4
 70
1
 10
4417.6
 20
5024.8
 10
4628.8
 20
5024.8
 10
4628.8
 20
4989.6
 10
4417.6
 20
4989.6
  0
HATCH
  5
A0
330
17
100
AcDbEntity
  8
WALL
100
AcDbHatch
 10
0.0
 20
0.0
 30
0.0
210
0.0
220
0.0
230
1.0
  2
SOLID
 70
1
 71
0
 91
1
 92
3
 72
0
 73
1
 93
4
 10
4417.6
 20
5024.8
 10
4628.8
 20
5024.8
 10
4628.8
 20
4989.6
 10
4417.6
 20
4989.6
 97
0
 75
1
 76
1
 98
0
  0
LWPOLYLINE
  5
A1
330
17
100
AcDbEntity
  8
WALL
100
AcDbPolyline
 90
4
 70
1
 10
1214.4
 20
4972.0
 10
1460.8000000000002
 20
4972.0
 10
1460.8000000000002
 20
4936.8
 10
1214.4
 20
4936.8
  0
HATCH
  5
A2
330
17
100
AcDbEntity
  8
WALL
100
AcDbHatch
 10
0.0
 20
0.0
 30
0.0
210
0.0
220
0.0
230
1.0
  2
SOLID
 70
1
 71
0
 91
1
 92
3
 72
0
 73
1
 93
4
 10
1214.4
 20
4972.0
 10
1460.8000000000002
 20
4972.0
 10
1460.8000000000002
 20
4936.8
 10
1214.4
 20
4936.8
 97
0
 75
1
 76
1
 98
0
  0
LWPOLYLINE
  5
A3
330
17
100
AcDbEntity
  8
WALL
100
AcDbPolyline
 90
4
 70
1
 10
3273.6000000000004
 20
4972.0
 10
3467.2000000000003
 20
4972.0
 10
3467.2000000000003
 20
4936.8
 10
3273.6000000000004
 20
4936.8
  0
HATCH
  5
A4
330
17
100
AcDbEntity
  8
WALL
100
AcDbHatch
 10
0.0
 20
0.0
 30
0.0
210
0.0
220
0.0
230
1.0
  2
SOLID
 70
1
 71
0
 91
1
 92
3
 72
0
 73
1
 93
4
 10
3273.6000000000004
 20
4972.0
 10
3467.2000000000003
 20
4972.0
 10
3467.2000000000003
 20
4936.8
 10
3273.6000000000004
 20
4936.8
 97
0
 75
1
 76
1
 98
0
  0
LWPOLYLINE
  5
A5
330
17
100
AcDbEntity
  8
WALL
100
AcDbPolyline
 90
4
 70
1
 10
8571.2
 20
4936.8
 10
8747.2
 20
4936.8
 10
8747.2
 20
4892.8
 10
8571.2
 20
4892.8
  0
HATCH
  5
A6
330
17
100
AcDbEntity
  8
WALL
100
AcDbHatch
 10
0.0
 20
0.0
 30
0.0
210
0.0
220
0.0
230
1.0
  2
SOLID
 70
1
 71
0
 91
1
 92
3
 72
0
 73
1
 93
4
 10
8571.2
 20
4936.8
 10
8747.2
 20
4936.8
 10
8747.2
 20
4892.8
 10
8571.2
 20
4892.8
 97
0
 75
1
 76
1
 98
0
  0
LWPOLYLINE
  5
A7
330
17
100
AcDbEntity
  8
WALL
100
AcDbPolyline
 90
4
 70
1
 10
1144.0
 20
4848.8
 10
1372.8000000000002
 20
4848.8
 10
1372.8000000000002
 20
4796.0
 10
1144.0
 20
4796.0
  0
HATCH
  5
A8
330
17
100
AcDbEntity
  8
WALL
100
AcDbHatch
 10
0.0
 20
0.0
 30
0.0
210
0.0
220
0.0
230
1.0
  2
SOLID
 70
1
 71
0
 91
1
 92
3
 72
0
 73
1
 93
4
 10
1144.0
 20
4848.8
 10
1372.8000000000002
 20
4848.8
 10
1372.8000000000002
 20
4796.0
 10
1144.0
 20
4796.0
 97
0
 75
1
 76
1
 98
0
  0
LWPOLYLINE
  5
A9
330
17
100
AcDbEntity
  8
WALL
100
AcDbPolyline
 90
4
 70
1
 10
3308.8
 20
4848.8
 10
3484.8
 20
4848.8
 10
3484.8
 20
4822.400000000001
 10
3308.8
 20
4822.400000000001
  0
HATCH
  5
AA
330
17
100
AcDbEntity
  8
WALL
100
AcDbHatch
 10
0.0
 20
0.0
 30
0.0
210
0.0
220
0.0
230
1.0
  2
SOLID
 70
1
 71
0
 91
1
 92
3
 72
0
 73
1
 93
4
 10
3308.8
 20
4848.8
 10
3484.8
 20
4848.8
 10
3484.8
 20
4822.400000000001
 10
3308.8
 20
4822.400000000001
 97
0
 75
1
 76
1
 98
0
  0
LWPOLYLINE
  5
AB
330
17
100
AcDbEntity
  8
WALL
100
AcDbPolyline
 90
4
 70
1
 10
8518.400000000001
 20
4549.6
 10
8729.6
 20
4549.6
 10
8729.6
 20
4514.400000000001
 10
8518.400000000001
 20
4514.400000000001
  0
HATCH
  5
AC
330
17
100
AcDbEntity
  8
WALL
100
AcDbHatch
 10
0.0
 20
0.0
 30
0.0
210
0.0
220
0.0
230
1.0
  2
SOLID
 70
1
 71
0
 91
1
 92
3
 72
0
 73
1
 93
4
 10
8518.400000000001
 20
4549.6
 10
8729.6
 20
4549.6
 10
8729.6
 20
4514.400000000001
 10
8518.400000000001
 20
4514.400000000001
 97
0
 75
1
 76
1
 98
0
  0
LWPOLYLINE
  5
AD
330
17
100
AcDbEntity
  8
WALL
100
AcDbPolyline
 90
4
 70
1
 10
1707.2
 20
4532.0
 10
2288.0
 20
4532.0
 10
2288.0
 20
4470.400000000001
 10
1707.2
 20
4470.400000000001
  0
HATCH
  5
AE
330
17
100
AcDbEntity
  8
WALL
100
AcDbHatch
 10
0.0
 20
0.0
 30
0.0
210
0.0
220
0.0
230
1.0
  2
SOLID
 70
1
 71
0
 91
1
 92
3
 72
0
 73
1
 93
4
 10
1707.2
 20
4532.0
 10
2288.0
 20
4532.0
 10
2288.0
 20
4470.400000000001
 10
1707.2
 20
4470.400000000001
 97
0
 75
1
 76
1
 98
0
  0
LWPOLYLINE
  5
AF
330
17
100
AcDbEntity
  8
WALL
100
AcDbPolyline
 90
4
 70
1
 10
8483.2
 20
4426.400000000001
 10
8808.800000000001
 20
4426.400000000001
 10
8808.800000000001
 20
4356.0
 10
8483.2
 20
4356.0
  0
HATCH
  5
B0
330
17
100
AcDbEntity
  8
WALL
100
AcDbHatch
 10
0.0
 20
0.0
 30
0.0
210
0.0
220
0.0
230
1.0
  2
SOLID
 70
1
 71
0
 91
1
 92
3
 72
0
 73
1
 93
4
 10
8483.2
 20
4426.400000000001
 10
8808.800000000001
 20
4426.400000000001
 10
8808.800000000001
 20
4356.0
 10
8483.2
 20
4356.0
 97
0
 75
1
 76
1
 98
0
  0
LWPOLYLINE
  5
B1
330
17
100
AcDbEntity
  8
WALL
100
AcDbPolyline
 90
4
 70
1
 10
6881.6
 20
4356.0
 10
7040.000000000001
 20
4356.0
 10
7040.000000000001
 20
4347.200000000001
 10
6881.6
 20
4347.200000000001
  0
HATCH
  5
B2
330
17
100
AcDbEntity
  8
WALL
100
AcDbHatch
 10
0.0
 20
0.0
 30
0.0
210
0.0
220
0.0
230
1.0
  2
SOLID
 70
1
 71
0
 91
1
 92
3
 72
0
 73
1
 93
4
 10
6881.6
 20
4356.0
 10
7040.000000000001
 20
4356.0
 10
7040.000000000001
 20
4347.200000000001
 10
6881.6
 20
4347.200000000001
 97
0
 75
1
 76
1
 98
0
  0
LWPOLYLINE
  5
B3
330
17
100
AcDbEntity
  8
WALL
100
AcDbPolyline
 90
4
 70
1
 10
6864.000000000001
 20
4285.6
 10
7022.400000000001
 20
4285.6
 10
7022.400000000001
 20
4276.8
 10
6864.000000000001
 20
4276.8
  0
HATCH
  5
B4
330
17
100
AcDbEntity
  8
WALL
100
AcDbHatch
 10
0.0
 20
0.0
 30
0.0
210
0.0
220
0.0
230
1.0
  2
SOLID
 70
1
 71
0
 91
1
 92
3
 72
0
 73
1
 93
4
 10
6864.000000000001
 20
4285.6
 10
7022.400000000001
 20
4285.6
 10
7022.400000000001
 20
4276.8
 10
6864.000000000001
 20
4276.8
 97
0
 75
1
 76
1
 98
0
  0
LWPOLYLINE
  5
B5
330
17
100
AcDbEntity
  8
WALL
100
AcDbPolyline
 90
4
 70
1
 10
6864.000000000001
 20
4197.6
 10
7075.200000000001
 20
4197.6
 10
7075.200000000001
 20
4162.400000000001
 10
6864.000000000001
 20
4162.400000000001
  0
HATCH
  5
B6
330
17
100
AcDbEntity
  8
WALL
100
AcDbHatch
 10
0.0
 20
0.0
 30
0.0
210
0.0
220
0.0
230
1.0
  2
SOLID
 70
1
 71
0
 91
1
 92
3
 72
0
 73
1
 93
4
 10
6864.000000000001
 20
4197.6
 10
7075.200000000001
 20
4197.6
 10
7075.200000000001
 20
4162.400000000001
 10
6864.000000000001
 20
4162.400000000001
 97
0
 75
1
 76
1
 98
0
  0
LWPOLYLINE
  5
B7
330
17
100
AcDbEntity
  8
WALL
100
AcDbPolyline
 90
4
 70
1
 10
3009.6000000000004
 20
4056.8
 10
3168.0000000000005
 20
4056.8
 10
3168.0000000000005
 20
4048.0000000000005
 10
3009.6000000000004
 20
4048.0000000000005
  0
HATCH
  5
B8
330
17
100
AcDbEntity
  8
WALL
100
AcDbHatch
 10
0.0
 20
0.0
 30
0.0
210
0.0
220
0.0
230
1.0
  2
SOLID
 70
1
 71
0
 91
1
 92
3
 72
0
 73
1
 93
4
 10
3009.6000000000004
 20
4056.8
 10
3168.0000000000005
 20
4056.8
 10
3168.0000000000005
 20
4048.0000000000005
 10
3009.6000000000004
 20
4048.0000000000005
 97
0
 75
1
 76
1
 98
0
  0
LWPOLYLINE
  5
B9
330
17
100
AcDbEntity
  8
WALL
100
AcDbPolyline
 90
4
 70
1
 10
6705.6
 20
4056.8
 10
7110.400000000001
 20
4056.8
 10
7110.400000000001
 20
4021.6000000000004
 10
6705.6
 20
4021.6000000000004
  0
HATCH
  5
BA
330
17
100
AcDbEntity
  8
WALL
100
AcDbHatch
 10
0.0
 20
0.0
 30
0.0
210
0.0
220
0.0
230
1.0
  2
SOLID
 70
1
 71
0
 91
1
 92
3
 72
0
 73
1
 93
4
 10
6705.6
 20
4056.8
 10
7110.400000000001
 20
4056.8
 10
7110.400000000001
 20
4021.6000000000004
 10
6705.6
 20
4021.6000000000004
 97
0
 75
1
 76
1
 98
0
  0
LWPOLYLINE
  5
BB
330
17
100
AcDbEntity
  8
WALL
100
AcDbPolyline
 90
4
 70
1
 10
6582.400000000001
 20
3916.0000000000005
 10
7286.400000000001
 20
3916.0000000000005
 10
7286.400000000001
 20
3845.6000000000004
 10
6582.400000000001
 20
3845.6000000000004
  0
HATCH
  5
BC
330
17
100
AcDbEntity
  8
WALL
100
AcDbHatch
 10
0.0
 20
0.0
 30
0.0
210
0.0
220
0.0
230
1.0
  2
SOLID
 70
1
 71
0
 91
1
 92
3
 72
0
 73
1
 93
4
 10
6582.400000000001
 20
3916.0000000000005
 10
7286.400000000001
 20
3916.0000000000005
 10
7286.400000000001
 20
3845.6000000000004
 10
6582.400000000001
 20
3845.6000000000004
 97
0
 75
1
 76
1
 98
0
  0
LWPOLYLINE
  5
BD
330
17
100
AcDbEntity
  8
WALL
100
AcDbPolyline
 90
4
 70
1
 10
5271.200000000001
 20
3889.6000000000004
 10
5508.8
 20
3889.6000000000004
 10
5508.8
 20
3845.6000000000004
 10
5271.200000000001
 20
3845.6000000000004
  0
HATCH
  5
BE
330
17
100
AcDbEntity
  8
WALL
100
AcDbHatch
 10
0.0
 20
0.0
 30
0.0
210
0.0
220
0.0
230
1.0
  2
SOLID
 70
1
 71
0
 91
1
 92
3
 72
0
 73
1
 93
4
 10
5271.200000000001
 20
3889.6000000000004
 10
5508.8
 20
3889.6000000000004
 10
5508.8
 20
3845.6000000000004
 10
5271.200000000001
 20
3845.6000000000004
 97
0
 75
1
 76
1
 98
0
  0
LWPOLYLINE
  5
BF
330
17
100
AcDbEntity
  8
WALL
100
AcDbPolyline
 90
4
 70
1
 10
6459.200000000001
 20
3810.4
 10
7119.200000000001
 20
3810.4
 10
7119.200000000001
 20
3687.2000000000003
 10
6459.200000000001
 20
3687.2000000000003
  0
HATCH
  5
C0
330
17
100
AcDbEntity
  8
WALL
100
AcDbHatch
 10
0.0
 20
0.0
 30
0.0
210
0.0
220
0.0
230
1.0
  2
SOLID
 70
1
 71
0
 91
1
 92
3
 72
0
 73
1
 93
4
 10
6459.200000000001
 20
3810.4
 10
7119.200000000001
 20
3810.4
 10
7119.200000000001
 20
3687.2000000000003
 10
6459.200000000001
 20
3687.2000000000003
 97
0
 75
1
 76
1
 98
0
  0
LWPOLYLINE
  5
C1
330
17
100
AcDbEntity
  8
WALL
100
AcDbPolyline
 90
4
 70
1
 10
7145.6
 20
3810.4
 10
7304.000000000001
 20
3810.4
 10
7304.000000000001
 20
3784.0000000000005
 10
7145.6
 20
3784.0000000000005
  0
HATCH
  5
C2
330
17
100
AcDbEntity
  8
WALL
100
AcDbHatch
 10
0.0
 20
0.0
 30
0.0
210
0.0
220
0.0
230
1.0
  2
SOLID
 70
1
 71
0
 91
1
 92
3
 72
0
 73
1
 93
4
 10
7145.6
 20
3810.4
 10
7304.000000000001
 20
3810.4
 10
7304.000000000001
 20
3784.0000000000005
 10
7145.6
 20
3784.0000000000005
 97
0
 75
1
 76
1
 98
0
  0
LWPOLYLINE
  5
C3
330
17
100
AcDbEntity
  8
WALL
100
AcDbPolyline
 90
4
 70
1
 10
5156.8
 20
3792.8
 10
5315.200000000001
 20
3792.8
 10
5315.200000000001
 20
3784.0000000000005
 10
5156.8
 20
3784.0000000000005
  0
HATCH
  5
C4
330
17
100
AcDbEntity
  8
WALL
100
AcDbHatch
 10
0.0
 20
0.0
 30
0.0
210
0.0
220
0.0
230
1.0
  2
SOLID
 70
1
 71
0
 91
1
 92
3
 72
0
 73
1
 93
4
 10
5156.8
 20
3792.8
 10
5315.200000000001
 20
3792.8
 10
5315.200000000001
 20
3784.0000000000005
 10
5156.8
 20
3784.0000000000005
 97
0
 75
1
 76
1
 98
0
  0
LWPOLYLINE
  5
C5
330
17
100
AcDbEntity
  8
WALL
100
AcDbPolyline
 90
4
 70
1
 10
5192.0
 20
3669.6000000000004
 10
5368.0
 20
3669.6000000000004
 10
5368.0
 20
3660.8
 10
5192.0
 20
3660.8
  0
HATCH
  5
C6
330
17
100
AcDbEntity
  8
WALL
100
AcDbHatch
 10
0.0
 20
0.0
 30
0.0
210
0.0
220
0.0
230
1.0
  2
SOLID
 70
1
 71
0
 91
1
 92
3
 72
0
 73
1
 93
4
 10
5192.0
 20
3669.6000000000004
 10
5368.0
 20
3669.6000000000004
 10
5368.0
 20
3660.8
 10
5192.0
 20
3660.8
 97
0
 75
1
 76
1
 98
0
  0
LWPOLYLINE
  5
C7
330
17
100
AcDbEntity
  8
WALL
100
AcDbPolyline
 90
4
 70
1
 10
5156.8
 20
3616.8
 10
5332.8
 20
3616.8
 10
5332.8
 20
3608.0000000000005
 10
5156.8
 20
3608.0000000000005
  0
HATCH
  5
C8
330
17
100
AcDbEntity
  8
WALL
100
AcDbHatch
 10
0.0
 20
0.0
 30
0.0
210
0.0
220
0.0
230
1.0
  2
SOLID
 70
1
 71
0
 91
1
 92
3
 72
0
 73
1
 93
4
 10
5156.8
 20
3616.8
 10
5332.8
 20
3616.8
 10
5332.8
 20
3608.0000000000005
 10
5156.8
 20
3608.0000000000005
 97
0
 75
1
 76
1
 98
0
  0
LWPOLYLINE
  5
C9
330
17
100
AcDbEntity
  8
WALL
100
AcDbPolyline
 90
4
 70
1
 10
1636.8000000000002
 20
3581.6000000000004
 10
2217.6000000000004
 20
3581.6000000000004
 10
2217.6000000000004
 20
3528.8
 10
1636.8000000000002
 20
3528.8
  0
HATCH
  5
CA
330
17
100
AcDbEntity
  8
WALL
100
AcDbHatch
 10
0.0
 20
0.0
 30
0.0
210
0.0
220
0.0
230
1.0
  2
SOLID
 70
1
 71
0
 91
1
 92
3
 72
0
 73
1
 93
4
 10
1636.8000000000002
 20
3581.6000000000004
 10
2217.6000000000004
 20
3581.6000000000004
 10
2217.6000000000004
 20
3528.8
 10
1636.8000000000002
 20
3528.8
 97
0
 75
1
 76
1
 98
0
  0
LWPOLYLINE
  5
CB
330
17
100
AcDbEntity
  8
WALL
100
AcDbPolyline
 90
4
 70
1
 10
2481.6000000000004
 20
3581.6000000000004
 10
3018.4
 20
3581.6000000000004
 10
3018.4
 20
3528.8
 10
2481.6000000000004
 20
3528.8
  0
HATCH
  5
CC
330
17
100
AcDbEntity
  8
WALL
100
AcDbHatch
 10
0.0
 20
0.0
 30
0.0
210
0.0
220
0.0
230
1.0
  2
SOLID
 70
1
 71
0
 91
1
 92
3
 72
0
 73
1
 93
4
 10
2481.6000000000004
 20
3581.6000000000004
 10
3018.4
 20
3581.6000000000004
 10
3018.4
 20
3528.8
 10
2481.6000000000004
 20
3528.8
 97
0
 75
1
 76
1
 98
0
  0
LWPOLYLINE
  5
CD
330
17
100
AcDbEntity
  8
WALL
100
AcDbPolyline
 90
4
 70
1
 10
2112.0
 20
3440.8
 10
2464.0
 20
3440.8
 10
2464.0
 20
3405.6000000000004
 10
2112.0
 20
3405.6000000000004
  0
HATCH
  5
CE
330
17
100
AcDbEntity
  8
WALL
100
AcDbHatch
 10
0.0
 20
0.0
 30
0.0
210
0.0
220
0.0
230
1.0
  2
SOLID
 70
1
 71
0
 91
1
 92
3
 72
0
 73
1
 93
4
 10
2112.0
 20
3440.8
 10
2464.0
 20
3440.8
 10
2464.0
 20
3405.6000000000004
 10
2112.0
 20
3405.6000000000004
 97
0
 75
1
 76
1
 98
0
  0
LWPOLYLINE
  5
CF
330
17
100
AcDbEntity
  8
WALL
100
AcDbPolyline
 90
4
 70
1
 10
2464.0
 20
3423.2000000000003
 10
3044.8
 20
3423.2000000000003
 10
3044.8
 20
3352.8
 10
2464.0
 20
3352.8
  0
HATCH
  5
D0
330
17
100
AcDbEntity
  8
WALL
100
AcDbHatch
 10
0.0
 20
0.0
 30
0.0
210
0.0
220
0.0
230
1.0
  2
SOLID
 70
1
 71
0
 91
1
 92
3
 72
0
 73
1
 93
4
 10
2464.0
 20
3423.2000000000003
 10
3044.8
 20
3423.2000000000003
 10
3044.8
 20
3352.8
 10
2464.0
 20
3352.8
 97
0
 75
1
 76
1
 98
0
  0
LWPOLYLINE
  5
D1
330
17
100
AcDbEntity
  8
WALL
100
AcDbPolyline
 90
4
 70
1
 10
4540.8
 20
3423.2000000000003
 10
4699.200000000001
 20
3423.2000000000003
 10
4699.200000000001
 20
3414.4
 10
4540.8
 20
3414.4
  0
HATCH
  5
D2
330
17
100
AcDbEntity
  8
WALL
100
AcDbHatch
 10
0.0
 20
0.0
 30
0.0
210
0.0
220
0.0
230
1.0
  2
SOLID
 70
1
 71
0
 91
1
 92
3
 72
0
 73
1
 93
4
 10
4540.8
 20
3423.2000000000003
 10
4699.200000000001
 20
3423.2000000000003
 10
4699.200000000001
 20
3414.4
 10
4540.8
 20
3414.4
 97
0
 75
1
 76
1
 98
0
  0
LWPOLYLINE
  5
D3
330
17
100
AcDbEntity
  8
WALL
100
AcDbPolyline
 90
4
 70
1
 10
5139.200000000001
 20
3423.2000000000003
 10
5332.8
 20
3423.2000000000003
 10
5332.8
 20
3405.6000000000004
 10
5139.200000000001
 20
3405.6000000000004
  0
HATCH
  5
D4
330
17
100
AcDbEntity
  8
WALL
100
AcDbHatch
 10
0.0
 20
0.0
 30
0.0
210
0.0
220
0.0
230
1.0
  2
SOLID
 70
1
 71
0
 91
1
 92
3
 72
0
 73
1
 93
4
 10
5139.200000000001
 20
3423.2000000000003
 10
5332.8
 20
3423.2000000000003
 10
5332.8
 20
3405.6000000000004
 10
5139.200000000001
 20
3405.6000000000004
 97
0
 75
1
 76
1
 98
0
  0
LWPOLYLINE
  5
D5
330
17
100
AcDbEntity
  8
WALL
100
AcDbPolyline
 90
4
 70
1
 10
8870.400000000001
 20
3370.4
 10
9204.800000000001
 20
3370.4
 10
9204.800000000001
 20
3317.6000000000004
 10
8870.400000000001
 20
3317.6000000000004
  0
HATCH
  5
D6
330
17
100
AcDbEntity
  8
WALL
100
AcDbHatch
 10
0.0
 20
0.0
 30
0.0
210
0.0
220
0.0
230
1.0
  2
SOLID
 70
1
 71
0
 91
1
 92
3
 72
0
 73
1
 93
4
 10
8870.400000000001
 20
3370.4
 10
9204.800000000001
 20
3370.4
 10
9204.800000000001
 20
3317.6000000000004
 10
8870.400000000001
 20
3317.6000000000004
 97
0
 75
1
 76
1
 98
0
  0
LWPOLYLINE
  5
D7
330
17
100
AcDbEntity
  8
WALL
100
AcDbPolyline
 90
4
 70
1
 10
7761.6
 20
3317.6000000000004
 10
8852.800000000001
 20
3317.6000000000004
 10
8852.800000000001
 20
3212.0000000000005
 10
7761.6
 20
3212.0000000000005
  0
HATCH
  5
D8
330
17
100
AcDbEntity
  8
WALL
100
AcDbHatch
 10
0.0
 20
0.0
 30
0.0
210
0.0
220
0.0
230
1.0
  2
SOLID
 70
1
 71
0
 91
1
 92
3
 72
0
 73
1
 93
4
 10
7761.6
 20
3317.6000000000004
 10
8852.800000000001
 20
3317.6000000000004
 10
8852.800000000001
 20
3212.0000000000005
 10
7761.6
 20
3212.0000000000005
 97
0
 75
1
 76
1
 98
0
  0
LWPOLYLINE
  5
D9
330
17
100
AcDbEntity
  8
WALL
100
AcDbPolyline
 90
4
 70
1
 10
9222.400000000001
 20
3300.0000000000005
 10
9416.0
 20
3300.0000000000005
 10
9416.0
 20
3247.2000000000003
 10
9222.400000000001
 20
3247.2000000000003
  0
HATCH
  5
DA
330
17
100
AcDbEntity
  8
WALL
100
AcDbHatch
 10
0.0
 20
0.0
 30
0.0
210
0.0
220
0.0
230
1.0
  2
SOLID
 70
1
 71
0
 91
1
 92
3
 72
0
 73
1
 93
4
 10
9222.400000000001
 20
3300.0000000000005
 10
9416.0
 20
3300.0000000000005
 10
9416.0
 20
3247.2000000000003
 10
9222.400000000001
 20
3247.2000000000003
 97
0
 75
1
 76
1
 98
0
  0
LWPOLYLINE
  5
DB
330
17
100
AcDbEntity
  8
WALL
100
AcDbPolyline
 90
4
 70
1
 10
5139.200000000001
 20
3264.8
 10
5332.8
 20
3264.8
 10
5332.8
 20
3238.4
 10
5139.200000000001
 20
3238.4
  0
HATCH
  5
DC
330
17
100
AcDbEntity
  8
WALL
100
AcDbHatch
 10
0.0
 20
0.0
 30
0.0
210
0.0
220
0.0
230
1.0
  2
SOLID
 70
1
 71
0
 91
1
 92
3
 72
0
 73
1
 93
4
 10
5139.200000000001
 20
3264.8
 10
5332.8
 20
3264.8
 10
5332.8
 20
3238.4
 10
5139.200000000001
 20
3238.4
 97
0
 75
1
 76
1
 98
0
  0
LWPOLYLINE
  5
DD
330
17
100
AcDbEntity
  8
WALL
100
AcDbPolyline
 90
4
 70
1
 10
7497.6
 20
3264.8
 10
7726.400000000001
 20
3264.8
 10
7726.400000000001
 20
3229.6000000000004
 10
7497.6
 20
3229.6000000000004
  0
HATCH
  5
DE
330
17
100
AcDbEntity
  8
WALL
100
AcDbHatch
 10
0.0
 20
0.0
 30
0.0
210
0.0
220
0.0
230
1.0
  2
SOLID
 70
1
 71
0
 91
1
 92
3
 72
0
 73
1
 93
4
 10
7497.6
 20
3264.8
 10
7726.400000000001
 20
3264.8
 10
7726.400000000001
 20
3229.6000000000004
 10
7497.6
 20
3229.6000000000004
 97
0
 75
1
 76
1
 98
0
  0
LWPOLYLINE
  5
DF
330
17
100
AcDbEntity
  8
WALL
100
AcDbPolyline
 90
4
 70
1
 10
4963.200000000001
 20
3176.8
 10
5491.200000000001
 20
3176.8
 10
5491.200000000001
 20
3124.0000000000005
 10
4963.200000000001
 20
3124.0000000000005
  0
HATCH
  5
E0
330
17
100
AcDbEntity
  8
WALL
100
AcDbHatch
 10
0.0
 20
0.0
 30
0.0
210
0.0
220
0.0
230
1.0
  2
SOLID
 70
1
 71
0
 91
1
 92
3
 72
0
 73
1
 93
4
 10
4963.200000000001
 20
3176.8
 10
5491.200000000001
 20
3176.8
 10
5491.200000000001
 20
3124.0000000000005
 10
4963.200000000001
 20
3124.0000000000005
 97
0
 75
1
 76
1
 98
0
  0
LWPOLYLINE
  5
E1
330
17
100
AcDbEntity
  8
WALL
100
AcDbPolyline
 90
4
 70
1
 10
9222.400000000001
 20
3185.6000000000004
 10
9416.0
 20
3185.6000000000004
 10
9416.0
 20
3168.0000000000005
 10
9222.400000000001
 20
3168.0000000000005
  0
HATCH
  5
E2
330
17
100
AcDbEntity
  8
WALL
100
AcDbHatch
 10
0.0
 20
0.0
 30
0.0
210
0.0
220
0.0
230
1.0
  2
SOLID
 70
1
 71
0
 91
1
 92
3
 72
0
 73
1
 93
4
 10
9222.400000000001
 20
3185.6000000000004
 10
9416.0
 20
3185.6000000000004
 10
9416.0
 20
3168.0000000000005
 10
9222.400000000001
 20
3168.0000000000005
 97
0
 75
1
 76
1
 98
0
  0
LWPOLYLINE
  5
E3
330
17
100
AcDbEntity
  8
WALL
100
AcDbPolyline
 90
4
 70
1
 10
7550.400000000001
 20
3159.2000000000003
 10
8694.400000000001
 20
3159.2000000000003
 10
8694.400000000001
 20
3106.4
 10
7550.400000000001
 20
3106.4
  0
HATCH
  5
E4
330
17
100
AcDbEntity
  8
WALL
100
AcDbHatch
 10
0.0
 20
0.0
 30
0.0
210
0.0
220
0.0
230
1.0
  2
SOLID
 70
1
 71
0
 91
1
 92
3
 72
0
 73
1
 93
4
 10
7550.400000000001
 20
3159.2000000000003
 10
8694.400000000001
 20
3159.2000000000003
 10
8694.400000000001
 20
3106.4
 10
7550.400000000001
 20
3106.4
 97
0
 75
1
 76
1
 98
0
  0
LWPOLYLINE
  5
E5
330
17
100
AcDbEntity
  8
WALL
100
AcDbPolyline
 90
4
 70
1
 10
9046.400000000001
 20
3159.2000000000003
 10
9204.800000000001
 20
3159.2000000000003
 10
9204.800000000001
 20
3150.4
 10
9046.400000000001
 20
3150.4
  0
HATCH
  5
E6
330
17
100
AcDbEntity
  8
WALL
100
AcDbHatch
 10
0.0
 20
0.0
 30
0.0
210
0.0
220
0.0
230
1.0
  2
SOLID
 70
1
 71
0
 91
1
 92
3
 72
0
 73
1
 93
4
 10
9046.400000000001
 20
3159.2000000000003
 10
9204.800000000001
 20
3159.2000000000003
 10
9204.800000000001
 20
3150.4
 10
9046.400000000001
 20
3150.4
 97
0
 75
1
 76
1
 98
0
  0
LWPOLYLINE
  5
E7
330
17
100
AcDbEntity
  8
WALL
100
AcDbPolyline
 90
4
 70
1
 10
4875.200000000001
 20
3088.8
 10
5209.6
 20
3088.8
 10
5209.6
 20
3018.4
 10
4875.200000000001
 20
3018.4
  0
HATCH
  5
E8
330
17
100
AcDbEntity
  8
WALL
100
AcDbHatch
 10
0.0
 20
0.0
 30
0.0
210
0.0
220
0.0
230
1.0
  2
SOLID
 70
1
 71
0
 91
1
 92
3
 72
0
 73
1
 93
4
 10
4875.200000000001
 20
3088.8
 10
5209.6
 20
3088.8
 10
5209.6
 20
3018.4
 10
4875.200000000001
 20
3018.4
 97
0
 75
1
 76
1
 98
0
  0
LWPOLYLINE
  5
E9
330
17
100
AcDbEntity
  8
WALL
100
AcDbPolyline
 90
4
 70
1
 10
6644.000000000001
 20
3088.8
 10
7321.6
 20
3088.8
 10
7321.6
 20
2983.2000000000003
 10
6644.000000000001
 20
2983.2000000000003
  0
HATCH
  5
EA
330
17
100
AcDbEntity
  8
WALL
100
AcDbHatch
 10
0.0
 20
0.0
 30
0.0
210
0.0
220
0.0
230
1.0
  2
SOLID
 70
1
 71
0
 91
1
 92
3
 72
0
 73
1
 93
4
 10
6644.000000000001
 20
3088.8
 10
7321.6
 20
3088.8
 10
7321.6
 20
2983.2000000000003
 10
6644.000000000001
 20
2983.2000000000003
 97
0
 75
1
 76
1
 98
0
  0
LWPOLYLINE
  5
EB
330
17
100
AcDbEntity
  8
WALL
100
AcDbPolyline
 90
4
 70
1
 10
8729.6
 20
3088.8
 10
9275.2
 20
3088.8
 10
9275.2
 20
3000.8
 10
8729.6
 20
3000.8
  0
HATCH
  5
EC
330
17
100
AcDbEntity
  8
WALL
100
AcDbHatch
 10
0.0
 20
0.0
 30
0.0
210
0.0
220
0.0
230
1.0
  2
SOLID
 70
1
 71
0
 91
1
 92
3
 72
0
 73
1
 93
4
 10
8729.6
 20
3088.8
 10
9275.2
 20
3088.8
 10
9275.2
 20
3000.8
 10
8729.6
 20
3000.8
 97
0
 75
1
 76
1
 98
0
  0
LWPOLYLINE
  5
ED
330
17
100
AcDbEntity
  8
WALL
100
AcDbPolyline
 90
4
 70
1
 10
1936.0000000000002
 20
3036.0000000000005
 10
3511.2000000000003
 20
3036.0000000000005
 10
3511.2000000000003
 20
2983.2000000000003
 10
1936.0000000000002
 20
2983.2000000000003
  0
HATCH
  5
EE
330
17
100
AcDbEntity
  8
WALL
100
AcDbHatch
 10
0.0
 20
0.0
 30
0.0
210
0.0
220
0.0
230
1.0
  2
SOLID
 70
1
 71
0
 91
1
 92
3
 72
0
 73
1
 93
4
 10
1936.0000000000002
 20
3036.0000000000005
 10
3511.2000000000003
 20
3036.0000000000005
 10
3511.2000000000003
 20
2983.2000000000003
 10
1936.0000000000002
 20
2983.2000000000003
 97
0
 75
1
 76
1
 98
0
  0
LWPOLYLINE
  5
EF
330
17
100
AcDbEntity
  8
WALL
100
AcDbPolyline
 90
4
 70
1
 10
4470.400000000001
 20
3036.0000000000005
 10
4769.6
 20
3036.0000000000005
 10
4769.6
 20
3000.8
 10
4470.400000000001
 20
3000.8
  0
HATCH
  5
F0
330
17
100
AcDbEntity
  8
WALL
100
AcDbHatch
 10
0.0
 20
0.0
 30
0.0
210
0.0
220
0.0
230
1.0
  2
SOLID
 70
1
 71
0
 91
1
 92
3
 72
0
 73
1
 93
4
 10
4470.400000000001
 20
3036.0000000000005
 10
4769.6
 20
3036.0000000000005
 10
4769.6
 20
3000.8
 10
4470.400000000001
 20
3000.8
 97
0
 75
1
 76
1
 98
0
  0
LWPOLYLINE
  5
F1
330
17
100
AcDbEntity
  8
WALL
100
AcDbPolyline
 90
4
 70
1
 10
3722.4
 20
2983.2000000000003
 10
4769.6
 20
2983.2000000000003
 10
4769.6
 20
2860.0000000000005
 10
3722.4
 20
2860.0000000000005
  0
HATCH
  5
F2
330
17
100
AcDbEntity
  8
WALL
100
AcDbHatch
 10
0.0
 20
0.0
 30
0.0
210
0.0
220
0.0
230
1.0
  2
SOLID
 70
1
 71
0
 91
1
 92
3
 72
0
 73
1
 93
4
 10
3722.4
 20
2983.2000000000003
 10
4769.6
 20
2983.2000000000003
 10
4769.6
 20
2860.0000000000005
 10
3722.4
 20
2860.0000000000005
 97
0
 75
1
 76
1
 98
0
  0
LWPOLYLINE
  5
F3
330
17
100
AcDbEntity
  8
WALL
100
AcDbPolyline
 90
4
 70
1
 10
985.6000000000001
 20
2965.6000000000004
 10
1214.4
 20
2965.6000000000004
 10
1214.4
 20
2956.8
 10
985.6000000000001
 20
2956.8
  0
HATCH
  5
F4
330
17
100
AcDbEntity
  8
WALL
100
AcDbHatch
 10
0.0
 20
0.0
 30
0.0
210
0.0
220
0.0
230
1.0
  2
SOLID
 70
1
 71
0
 91
1
 92
3
 72
0
 73
1
 93
4
 10
985.6000000000001
 20
2965.6000000000004
 10
1214.4
 20
2965.6000000000004
 10
1214.4
 20
2956.8
 10
985.6000000000001
 20
2956.8
 97
0
 75
1
 76
1
 98
0
  0
LWPOLYLINE
  5
F5
330
17
100
AcDbEntity
  8
WALL
100
AcDbPolyline
 90
4
 70
1
 10
1936.0000000000002
 20
2965.6000000000004
 10
3493.6000000000004
 20
2965.6000000000004
 10
3493.6000000000004
 20
2912.8
 10
1936.0000000000002
 20
2912.8
  0
HATCH
  5
F6
330
17
100
AcDbEntity
  8
WALL
100
AcDbHatch
 10
0.0
 20
0.0
 30
0.0
210
0.0
220
0.0
230
1.0
  2
SOLID
 70
1
 71
0
 91
1
 92
3
 72
0
 73
1
 93
4
 10
1936.0000000000002
 20
2965.6000000000004
 10
3493.6000000000004
 20
2965.6000000000004
 10
3493.6000000000004
 20
2912.8
 10
1936.0000000000002
 20
2912.8
 97
0
 75
1
 76
1
 98
0
  0
LWPOLYLINE
  5
F7
330
17
100
AcDbEntity
  8
WALL
100
AcDbPolyline
 90
4
 70
1
 10
4989.6
 20
2974.4
 10
5183.200000000001
 20
2974.4
 10
5183.200000000001
 20
2912.8
 10
4989.6
 20
2912.8
  0
HATCH
  5
F8
330
17
100
AcDbEntity
  8
WALL
100
AcDbHatch
 10
0.0
 20
0.0
 30
0.0
210
0.0
220
0.0
230
1.0
  2
SOLID
 70
1
 71
0
 91
1
 92
3
 72
0
 73
1
 93
4
 10
4989.6
 20
2974.4
 10
5183.200000000001
 20
2974.4
 10
5183.200000000001
 20
2912.8
 10
4989.6
 20
2912.8
 97
0
 75
1
 76
1
 98
0
  0
LWPOLYLINE
  5
F9
330
17
100
AcDbEntity
  8
WALL
100
AcDbPolyline
 90
4
 70
1
 10
6714.400000000001
 20
2965.6000000000004
 10
7321.6
 20
2965.6000000000004
 10
7321.6
 20
2842.4
 10
6714.400000000001
 20
2842.4
  0
HATCH
  5
FA
330
17
100
AcDbEntity
  8
WALL
100
AcDbHatch
 10
0.0
 20
0.0
 30
0.0
210
0.0
220
0.0
230
1.0
  2
SOLID
 70
1
 71
0
 91
1
 92
3
 72
0
 73
1
 93
4
 10
6714.400000000001
 20
2965.6000000000004
 10
7321.6
 20
2965.6000000000004
 10
7321.6
 20
2842.4
 10
6714.400000000001
 20
2842.4
 97
0
 75
1
 76
1
 98
0
  0
LWPOLYLINE
  5
FB
330
17
100
AcDbEntity
  8
WALL
100
AcDbPolyline
 90
4
 70
1
 10
985.6000000000001
 20
2921.6000000000004
 10
1161.6000000000001
 20
2921.6000000000004
 10
1161.6000000000001
 20
2904.0000000000005
 10
985.6000000000001
 20
2904.0000000000005
  0
HATCH
  5
FC
330
17
100
AcDbEntity
  8
WALL
100
AcDbHatch
 10
0.0
 20
0.0
 30
0.0
210
0.0
220
0.0
230
1.0
  2
SOLID
 70
1
 71
0
 91
1
 92
3
 72
0
 73
1
 93
4
 10
985.6000000000001
 20
2921.6000000000004
 10
1161.6000000000001
 20
2921.6000000000004
 10
1161.6000000000001
 20
2904.0000000000005
 10
985.6000000000001
 20
2904.0000000000005
 97
0
 75
1
 76
1
 98
0
  0
LWPOLYLINE
  5
FD
330
17
100
AcDbEntity
  8
WALL
100
AcDbPolyline
 90
4
 70
1
 10
985.6000000000001
 20
2886.4
 10
1161.6000000000001
 20
2886.4
 10
1161.6000000000001
 20
2868.8
 10
985.6000000000001
 20
2868.8
  0
HATCH
  5
FE
330
17
100
AcDbEntity
  8
WALL
100
AcDbHatch
 10
0.0
 20
0.0
 30
0.0
210
0.0
220
0.0
230
1.0
  2
SOLID
 70
1
 71
0
 91
1
 92
3
 72
0
 73
1
 93
4
 10
985.6000000000001
 20
2886.4
 10
1161.6000000000001
 20
2886.4
 10
1161.6000000000001
 20
2868.8
 10
985.6000000000001
 20
2868.8
 97
0
 75
1
 76
1
 98
0
  0
LWPOLYLINE
  5
FF
330
17
100
AcDbEntity
  8
WALL
100
AcDbPolyline
 90
4
 70
1
 10
985.6000000000001
 20
2156.0
 10
1161.6000000000001
 20
2156.0
 10
1161.6000000000001
 20
2147.2000000000003
 10
985.6000000000001
 20
2147.2000000000003
  0
HATCH
  5
100
330
17
100
AcDbEntity
  8
WALL
100
AcDbHatch
 10
0.0
 20
0.0
 30
0.0
210
0.0
220
0.0
230
1.0
  2
SOLID
 70
1
 71
0
 91
1
 92
3
 72
0
 73
1
 93
4
 10
985.6000000000001
 20
2156.0
 10
1161.6000000000001
 20
2156.0
 10
1161.6000000000001
 20
2147.2000000000003
 10
985.6000000000001
 20
2147.2000000000003
 97
0
 75
1
 76
1
 98
0
  0
LWPOLYLINE
  5
101
330
17
100
AcDbEntity
  8
WALL
100
AcDbPolyline
 90
4
 70
1
 10
985.6000000000001
 20
2112.0
 10
1161.6000000000001
 20
2112.0
 10
1161.6000000000001
 20
2015.2000000000003
 10
985.6000000000001
 20
2015.2000000000003
  0
HATCH
  5
102
330
17
100
AcDbEntity
  8
WALL
100
AcDbHatch
 10
0.0
 20
0.0
 30
0.0
210
0.0
220
0.0
230
1.0
  2
SOLID
 70
1
 71
0
 91
1
 92
3
 72
0
 73
1
 93
4
 10
985.6000000000001
 20
2112.0
 10
1161.6000000000001
 20
2112.0
 10
1161.6000000000001
 20
2015.2000000000003
 10
985.6000000000001
 20
2015.2000000000003
 97
0
 75
1
 76
1
 98
0
  0
LWPOLYLINE
  5
103
330
17
100
AcDbEntity
  8
WALL
100
AcDbPolyline
 90
4
 70
1
 10
985.6000000000001
 20
1936.0000000000002
 10
1161.6000000000001
 20
1936.0000000000002
 10
1161.6000000000001
 20
1892.0000000000002
 10
985.6000000000001
 20
1892.0000000000002
  0
HATCH
  5
104
330
17
100
AcDbEntity
  8
WALL
100
AcDbHatch
 10
0.0
 20
0.0
 30
0.0
210
0.0
220
0.0
230
1.0
  2
SOLID
 70
1
 71
0
 91
1
 92
3
 72
0
 73
1
 93
4
 10
985.6000000000001
 20
1936.0000000000002
 10
1161.6000000000001
 20
1936.0000000000002
 10
1161.6000000000001
 20
1892.0000000000002
 10
985.6000000000001
 20
1892.0000000000002
 97
0
 75
1
 76
1
 98
0
  0
LWPOLYLINE
  5
105
330
17
100
AcDbEntity
  8
WALL
100
AcDbPolyline
 90
4
 70
1
 10
1355.2
 20
1909.6000000000001
 10
1672.0000000000002
 20
1909.6000000000001
 10
1672.0000000000002
 20
1874.4
 10
1355.2
 20
1874.4
  0
HATCH
  5
106
330
17
100
AcDbEntity
  8
WALL
100
AcDbHatch
 10
0.0
 20
0.0
 30
0.0
210
0.0
220
0.0
230
1.0
  2
SOLID
 70
1
 71
0
 91
1
 92
3
 72
0
 73
1
 93
4
 10
1355.2
 20
1909.6000000000001
 10
1672.0000000000002
 20
1909.6000000000001
 10
1672.0000000000002
 20
1874.4
 10
1355.2
 20
1874.4
 97
0
 75
1
 76
1
 98
0
  0
LWPOLYLINE
  5
107
330
17
100
AcDbEntity
  8
WALL
100
AcDbPolyline
 90
4
 70
1
 10
369.6
 20
1540.0000000000002
 10
528.0
 20
1540.0000000000002
 10
528.0
 20
1513.6000000000001
 10
369.6
 20
1513.6000000000001
  0
HATCH
  5
108
330
17
100
AcDbEntity
  8
WALL
100
AcDbHatch
 10
0.0
 20
0.0
 30
0.0
210
0.0
220
0.0
230
1.0
  2
SOLID
 70
1
 71
0
 91
1
 92
3
 72
0
 73
1
 93
4
 10
369.6
 20
1540.0000000000002
 10
528.0
 20
1540.0000000000002
 10
528.0
 20
1513.6000000000001
 10
369.6
 20
1513.6000000000001
 97
0
 75
1
 76
1
 98
0
  0
LWPOLYLINE
  5
109
330
17
100
AcDbEntity
  8
WALL
100
AcDbPolyline
 90
4
 70
1
 10
4364.8
 20
1540.0000000000002
 10
4593.6
 20
1540.0000000000002
 10
4593.6
 20
1504.8000000000002
 10
4364.8
 20
1504.8000000000002
  0
HATCH
  5
10A
330
17
100
AcDbEntity
  8
WALL
100
AcDbHatch
 10
0.0
 20
0.0
 30
0.0
210
0.0
220
0.0
230
1.0
  2
SOLID
 70
1
 71
0
 91
1
 92
3
 72
0
 73
1
 93
4
 10
4364.8
 20
1540.0000000000002
 10
4593.6
 20
1540.0000000000002
 10
4593.6
 20
1504.8000000000002
 10
4364.8
 20
1504.8000000000002
 97
0
 75
1
 76
1
 98
0
  0
LWPOLYLINE
  5
10B
330
17
100
AcDbEntity
  8
WALL
100
AcDbPolyline
 90
4
 70
1
 10
369.6
 20
1487.2
 10
572.0
 20
1487.2
 10
572.0
 20
1399.2
 10
369.6
 20
1399.2
  0
HATCH
  5
10C
330
17
100
AcDbEntity
  8
WALL
100
AcDbHatch
 10
0.0
 20
0.0
 30
0.0
210
0.0
220
0.0
230
1.0
  2
SOLID
 70
1
 71
0
 91
1
 92
3
 72
0
 73
1
 93
4
 10
369.6
 20
1487.2
 10
572.0
 20
1487.2
 10
572.0
 20
1399.2
 10
369.6
 20
1399.2
 97
0
 75
1
 76
1
 98
0
  0
LWPOLYLINE
  5
10D
330
17
100
AcDbEntity
  8
WALL
100
AcDbPolyline
 90
4
 70
1
 10
1900.8000000000002
 20
1487.2
 10
2094.4
 20
1487.2
 10
2094.4
 20
1452.0000000000002
 10
1900.8000000000002
 20
1452.0000000000002
  0
HATCH
  5
10E
330
17
100
AcDbEntity
  8
WALL
100
AcDbHatch
 10
0.0
 20
0.0
 30
0.0
210
0.0
220
0.0
230
1.0
  2
SOLID
 70
1
 71
0
 91
1
 92
3
 72
0
 73
1
 93
4
 10
1900.8000000000002
 20
1487.2
 10
2094.4
 20
1487.2
 10
2094.4
 20
1452.0000000000002
 10
1900.8000000000002
 20
1452.0000000000002
 97
0
 75
1
 76
1
 98
0
  0
LWPOLYLINE
  5
10F
330
17
100
AcDbEntity
  8
WALL
100
AcDbPolyline
 90
4
 70
1
 10
4646.400000000001
 20
1487.2
 10
4804.8
 20
1487.2
 10
4804.8
 20
1478.4
 10
4646.400000000001
 20
1478.4
  0
HATCH
  5
110
330
17
100
AcDbEntity
  8
WALL
100
AcDbHatch
 10
0.0
 20
0.0
 30
0.0
210
0.0
220
0.0
230
1.0
  2
SOLID
 70
1
 71
0
 91
1
 92
3
 72
0
 73
1
 93
4
 10
4646.400000000001
 20
1487.2
 10
4804.8
 20
1487.2
 10
4804.8
 20
1478.4
 10
4646.400000000001
 20
1478.4
 97
0
 75
1
 76
1
 98
0
  0
LWPOLYLINE
  5
111
330
17
100
AcDbEntity
  8
WALL
100
AcDbPolyline
 90
4
 70
1
 10
2921.6000000000004
 20
1469.6000000000001
 10
3203.2000000000003
 20
1469.6000000000001
 10
3203.2000000000003
 20
1443.2
 10
2921.6000000000004
 20
1443.2
  0
HATCH
  5
112
330
17
100
AcDbEntity
  8
WALL
100
AcDbHatch
 10
0.0
 20
0.0
 30
0.0
210
0.0
220
0.0
230
1.0
  2
SOLID
 70
1
 71
0
 91
1
 92
3
 72
0
 73
1
 93
4
 10
2921.6000000000004
 20
1469.6000000000001
 10
3203.2000000000003
 20
1469.6000000000001
 10
3203.2000000000003
 20
1443.2
 10
2921.6000000000004
 20
1443.2
 97
0
 75
1
 76
1
 98
0
  0
LWPOLYLINE
  5
113
330
17
100
AcDbEntity
  8
WALL
100
AcDbPolyline
 90
4
 70
1
 10
3977.6000000000004
 20
1452.0000000000002
 10
4136.0
 20
1452.0000000000002
 10
4136.0
 20
1425.6000000000001
 10
3977.6000000000004
 20
1425.6000000000001
  0
HATCH
  5
114
330
17
100
AcDbEntity
  8
WALL
100
AcDbHatch
 10
0.0
 20
0.0
 30
0.0
210
0.0
220
0.0
230
1.0
  2
SOLID
 70
1
 71
0
 91
1
 92
3
 72
0
 73
1
 93
4
 10
3977.6000000000004
 20
1452.0000000000002
 10
4136.0
 20
1452.0000000000002
 10
4136.0
 20
1425.6000000000001
 10
3977.6000000000004
 20
1425.6000000000001
 97
0
 75
1
 76
1
 98
0
  0
LWPOLYLINE
  5
115
330
17
100
AcDbEntity
  8
WALL
100
AcDbPolyline
 90
4
 70
1
 10
1126.4
 20
1434.4
 10
1372.8000000000002
 20
1434.4
 10
1372.8000000000002
 20
1399.2
 10
1126.4
 20
1399.2
  0
HATCH
  5
116
330
17
100
AcDbEntity
  8
WALL
100
AcDbHatch
 10
0.0
 20
0.0
 30
0.0
210
0.0
220
0.0
230
1.0
  2
SOLID
 70
1
 71
0
 91
1
 92
3
 72
0
 73
1
 93
4
 10
1126.4
 20
1434.4
 10
1372.8000000000002
 20
1434.4
 10
1372.8000000000002
 20
1399.2
 10
1126.4
 20
1399.2
 97
0
 75
1
 76
1
 98
0
  0
LWPOLYLINE
  5
117
330
17
100
AcDbEntity
  8
WALL
100
AcDbPolyline
 90
4
 70
1
 10
1689.6000000000001
 20
1434.4
 10
1856.8000000000002
 20
1434.4
 10
1856.8000000000002
 20
1408.0
 10
1689.6000000000001
 20
1408.0
  0
HATCH
  5
118
330
17
100
AcDbEntity
  8
WALL
100
AcDbHatch
 10
0.0
 20
0.0
 30
0.0
210
0.0
220
0.0
230
1.0
  2
SOLID
 70
1
 71
0
 91
1
 92
3
 72
0
 73
1
 93
4
 10
1689.6000000000001
 20
1434.4
 10
1856.8000000000002
 20
1434.4
 10
1856.8000000000002
 20
1408.0
 10
1689.6000000000001
 20
1408.0
 97
0
 75
1
 76
1
 98
0
  0
LWPOLYLINE
  5
119
330
17
100
AcDbEntity
  8
WALL
100
AcDbPolyline
 90
4
 70
1
 10
2772.0
 20
1434.4
 10
3027.2000000000003
 20
1434.4
 10
3027.2000000000003
 20
1425.6000000000001
 10
2772.0
 20
1425.6000000000001
  0
HATCH
  5
11A
330
17
100
AcDbEntity
  8
WALL
100
AcDbHatch
 10
0.0
 20
0.0
 30
0.0
210
0.0
220
0.0
230
1.0
  2
SOLID
 70
1
 71
0
 91
1
 92
3
 72
0
 73
1
 93
4
 10
2772.0
 20
1434.4
 10
3027.2000000000003
 20
1434.4
 10
3027.2000000000003
 20
1425.6000000000001
 10
2772.0
 20
1425.6000000000001
 97
0
 75
1
 76
1
 98
0
  0
LWPOLYLINE
  5
11B
330
17
100
AcDbEntity
  8
WALL
100
AcDbPolyline
 90
4
 70
1
 10
3238.4
 20
1443.2
 10
3960.0000000000005
 20
1443.2
 10
3960.0000000000005
 20
1399.2
 10
3238.4
 20
1399.2
  0
HATCH
  5
11C
330
17
100
AcDbEntity
  8
WALL
100
AcDbHatch
 10
0.0
 20
0.0
 30
0.0
210
0.0
220
0.0
230
1.0
  2
SOLID
 70
1
 71
0
 91
1
 92
3
 72
0
 73
1
 93
4
 10
3238.4
 20
1443.2
 10
3960.0000000000005
 20
1443.2
 10
3960.0000000000005
 20
1399.2
 10
3238.4
 20
1399.2
 97
0
 75
1
 76
1
 98
0
  0
LWPOLYLINE
  5
11D
330
17
100
AcDbEntity
  8
WALL
100
AcDbPolyline
 90
4
 70
1
 10
1144.0
 20
1381.6000000000001
 10
1856.8000000000002
 20
1381.6000000000001
 10
1856.8000000000002
 20
1293.6000000000001
 10
1144.0
 20
1293.6000000000001
  0
HATCH
  5
11E
330
17
100
AcDbEntity
  8
WALL
100
AcDbHatch
 10
0.0
 20
0.0
 30
0.0
210
0.0
220
0.0
230
1.0
  2
SOLID
 70
1
 71
0
 91
1
 92
3
 72
0
 73
1
 93
4
 10
1144.0
 20
1381.6000000000001
 10
1856.8000000000002
 20
1381.6000000000001
 10
1856.8000000000002
 20
1293.6000000000001
 10
1144.0
 20
1293.6000000000001
 97
0
 75
1
 76
1
 98
0
  0
LWPOLYLINE
  5
11F
330
17
100
AcDbEntity
  8
WALL
100
AcDbPolyline
 90
4
 70
1
 10
2085.6000000000004
 20
1381.6000000000001
 10
2684.0
 20
1381.6000000000001
 10
2684.0
 20
1293.6000000000001
 10
2085.6000000000004
 20
1293.6000000000001
  0
HATCH
  5
120
330
17
100
AcDbEntity
  8
WALL
100
AcDbHatch
 10
0.0
 20
0.0
 30
0.0
210
0.0
220
0.0
230
1.0
  2
SOLID
 70
1
 71
0
 91
1
 92
3
 72
0
 73
1
 93
4
 10
2085.6000000000004
 20
1381.6000000000001
 10
2684.0
 20
1381.6000000000001
 10
2684.0
 20
1293.6000000000001
 10
2085.6000000000004
 20
1293.6000000000001
 97
0
 75
1
 76
1
 98
0
  0
LWPOLYLINE
  5
121
330
17
100
AcDbEntity
  8
WALL
100
AcDbPolyline
 90
4
 70
1
 10
3018.4
 20
1381.6000000000001
 10
3995.2000000000003
 20
1381.6000000000001
 10
3995.2000000000003
 20
1293.6000000000001
 10
3018.4
 20
1293.6000000000001
  0
HATCH
  5
122
330
17
100
AcDbEntity
  8
WALL
100
AcDbHatch
 10
0.0
 20
0.0
 30
0.0
210
0.0
220
0.0
230
1.0
  2
SOLID
 70
1
 71
0
 91
1
 92
3
 72
0
 73
1
 93
4
 10
3018.4
 20
1381.6000000000001
 10
3995.2000000000003
 20
1381.6000000000001
 10
3995.2000000000003
 20
1293.6000000000001
 10
3018.4
 20
1293.6000000000001
 97
0
 75
1
 76
1
 98
0
  0
LWPOLYLINE
  5
123
330
17
100
AcDbEntity
  8
WALL
100
AcDbPolyline
 90
4
 70
1
 10
3018.4
 20
1276.0
 10
4188.8
 20
1276.0
 10
4188.8
 20
1240.8000000000002
 10
3018.4
 20
1240.8000000000002
  0
HATCH
  5
124
330
17
100
AcDbEntity
  8
WALL
100
AcDbHatch
 10
0.0
 20
0.0
 30
0.0
210
0.0
220
0.0
230
1.0
  2
SOLID
 70
1
 71
0
 91
1
 92
3
 72
0
 73
1
 93
4
 10
3018.4
 20
1276.0
 10
4188.8
 20
1276.0
 10
4188.8
 20
1240.8000000000002
 10
3018.4
 20
1240.8000000000002
 97
0
 75
1
 76
1
 98
0
  0
LWPOLYLINE
  5
125
330
17
100
AcDbEntity
  8
WALL
100
AcDbPolyline
 90
4
 70
1
 10
4065.6000000000004
 20
1196.8000000000002
 10
4224.0
 20
1196.8000000000002
 10
4224.0
 20
1179.2
 10
4065.6000000000004
 20
1179.2
  0
HATCH
  5
126
330
17
100
AcDbEntity
  8
WALL
100
AcDbHatch
 10
0.0
 20
0.0
 30
0.0
210
0.0
220
0.0
230
1.0
  2
SOLID
 70
1
 71
0
 91
1
 92
3
 72
0
 73
1
 93
4
 10
4065.6000000000004
 20
1196.8000000000002
 10
4224.0
 20
1196.8000000000002
 10
4224.0
 20
1179.2
 10
4065.6000000000004
 20
1179.2
 97
0
 75
1
 76
1
 98
0
  0
LWPOLYLINE
  5
127
330
17
100
AcDbEntity
  8
WALL
100
AcDbPolyline
 90
4
 70
1
 10
3238.4
 20
836.0000000000001
 10
3414.4
 20
836.0000000000001
 10
3414.4
 20
800.8000000000001
 10
3238.4
 20
800.8000000000001
  0
HATCH
  5
128
330
17
100
AcDbEntity
  8
WALL
100
AcDbHatch
 10
0.0
 20
0.0
 30
0.0
210
0.0
220
0.0
230
1.0
  2
SOLID
 70
1
 71
0
 91
1
 92
3
 72
0
 73
1
 93
4
 10
3238.4
 20
836.0000000000001
 10
3414.4
 20
836.0000000000001
 10
3414.4
 20
800.8000000000001
 10
3238.4
 20
800.8000000000001
 97
0
 75
1
 76
1
 98
0
  0
LWPOLYLINE
  5
129
330
17
100
AcDbEntity
  8
WALL
100
AcDbPolyline
 90
4
 70
1
 10
3238.4
 20
792.0000000000001
 10
3414.4
 20
792.0000000000001
 10
3414.4
 20
748.0000000000001
 10
3238.4
 20
748.0000000000001
  0
HATCH
  5
12A
330
17
100
AcDbEntity
  8
WALL
100
AcDbHatch
 10
0.0
 20
0.0
 30
0.0
210
0.0
220
0.0
230
1.0
  2
SOLID
 70
1
 71
0
 91
1
 92
3
 72
0
 73
1
 93
4
 10
3238.4
 20
792.0000000000001
 10
3414.4
 20
792.0000000000001
 10
3414.4
 20
748.0000000000001
 10
3238.4
 20
748.0000000000001
 97
0
 75
1
 76
1
 98
0
  0
LWPOLYLINE
  5
12B
330
17
100
AcDbEntity
  8
WALL
100
AcDbPolyline
 90
4
 70
1
 10
3238.4
 20
598.4000000000001
 10
3414.4
 20
598.4000000000001
 10
3414.4
 20
572.0
 10
3238.4
 20
572.0
  0
HATCH
  5
12C
330
17
100
AcDbEntity
  8
WALL
100
AcDbHatch
 10
0.0
 20
0.0
 30
0.0
210
0.0
220
0.0
230
1.0
  2
SOLID
 70
1
 71
0
 91
1
 92
3
 72
0
 73
1
 93
4
 10
3238.4
 20
598.4000000000001
 10
3414.4
 20
598.4000000000001
 10
3414.4
 20
572.0
 10
3238.4
 20
572.0
 97
0
 75
1
 76
1
 98
0
  0
LWPOLYLINE
  5
12D
330
17
100
AcDbEntity
  8
WALL
100
AcDbPolyline
 90
4
 70
1
 10
378.40000000000003
 20
308.0
 10
765.6
 20
308.0
 10
765.6
 20
220.00000000000003
 10
378.40000000000003
 20
220.00000000000003
  0
HATCH
  5
12E
330
17
100
AcDbEntity
  8
WALL
100
AcDbHatch
 10
0.0
 20
0.0
 30
0.0
210
0.0
220
0.0
230
1.0
  2
SOLID
 70
1
 71
0
 91
1
 92
3
 72
0
 73
1
 93
4
 10
378.40000000000003
 20
308.0
 10
765.6
 20
308.0
 10
765.6
 20
220.00000000000003
 10
378.40000000000003
 20
220.00000000000003
 97
0
 75
1
 76
1
 98
0
  0
LWPOLYLINE
  5
12F
330
17
100
AcDbEntity
  8
WALL
100
AcDbPolyline
 90
4
 70
1
 10
422.40000000000003
 20
184.8
 10
774.4000000000001
 20
184.8
 10
774.4000000000001
 20
149.60000000000002
 10
422.40000000000003
 20
149.60000000000002
  0
HATCH
  5
130
330
17
100
AcDbEntity
  8
WALL
100
AcDbHatch
 10
0.0
 20
0.0
 30
0.0
210
0.0
220
0.0
230
1.0
  2
SOLID
 70
1
 71
0
 91
1
 92
3
 72
0
 73
1
 93
4
 10
422.40000000000003
 20
184.8
 10
774.4000000000001
 20
184.8
 10
774.4000000000001
 20
149.60000000000002
 10
422.40000000000003
 20
149.60000000000002
 97
0
 75
1
 76
1
 98
0
  0
LWPOLYLINE
  5
131
330
17
100
AcDbEntity
  8
WALL
100
AcDbPolyline
 90
4
 70
1
 10
1276.0
 20
8140.000000000001
 10
1311.2
 20
8140.000000000001
 10
1311.2
 20
7312.8
 10
1276.0
 20
7312.8
  0
HATCH
  5
132
330
17
100
AcDbEntity
  8
WALL
100
AcDbHatch
 10
0.0
 20
0.0
 30
0.0
210
0.0
220
0.0
230
1.0
  2
SOLID
 70
1
 71
0
 91
1
 92
3
 72
0
 73
1
 93
4
 10
1276.0
 20
8140.000000000001
 10
1311.2
 20
8140.000000000001
 10
1311.2
 20
7312.8
 10
1276.0
 20
7312.8
 97
0
 75
1
 76
1
 98
0
  0
LWPOLYLINE
  5
133
330
17
100
AcDbEntity
  8
WALL
100
AcDbPolyline
 90
4
 70
1
 10
9213.6
 20
8140.000000000001
 10
9301.6
 20
8140.000000000001
 10
9301.6
 20
7198.400000000001
 10
9213.6
 20
7198.400000000001
  0
HATCH
  5
134
330
17
100
AcDbEntity
  8
WALL
100
AcDbHatch
 10
0.0
 20
0.0
 30
0.0
210
0.0
220
0.0
230
1.0
  2
SOLID
 70
1
 71
0
 91
1
 92
3
 72
0
 73
1
 93
4
 10
9213.6
 20
8140.000000000001
 10
9301.6
 20
8140.000000000001
 10
9301.6
 20
7198.400000000001
 10
9213.6
 20
7198.400000000001
 97
0
 75
1
 76
1
 98
0
  0
LWPOLYLINE
  5
135
330
17
100
AcDbEntity
  8
WALL
100
AcDbPolyline
 90
4
 70
1
 10
9336.800000000001
 20
8140.000000000001
 10
9389.6
 20
8140.000000000001
 10
9389.6
 20
7286.400000000001
 10
9336.800000000001
 20
7286.400000000001
  0
HATCH
  5
136
330
17
100
AcDbEntity
  8
WALL
100
AcDbHatch
 10
0.0
 20
0.0
 30
0.0
210
0.0
220
0.0
230
1.0
  2
SOLID
 70
1
 71
0
 91
1
 92
3
 72
0
 73
1
 93
4
 10
9336.800000000001
 20
8140.000000000001
 10
9389.6
 20
8140.000000000001
 10
9389.6
 20
7286.400000000001
 10
9336.800000000001
 20
7286.400000000001
 97
0
 75
1
 76
1
 98
0
  0
LWPOLYLINE
  5
137
330
17
100
AcDbEntity
  8
WALL
100
AcDbPolyline
 90
4
 70
1
 10
8192.800000000001
 20
8122.400000000001
 10
8245.6
 20
8122.400000000001
 10
8245.6
 20
6230.400000000001
 10
8192.800000000001
 20
6230.400000000001
  0
HATCH
  5
138
330
17
100
AcDbEntity
  8
WALL
100
AcDbHatch
 10
0.0
 20
0.0
 30
0.0
210
0.0
220
0.0
230
1.0
  2
SOLID
 70
1
 71
0
 91
1
 92
3
 72
0
 73
1
 93
4
 10
8192.800000000001
 20
8122.400000000001
 10
8245.6
 20
8122.400000000001
 10
8245.6
 20
6230.400000000001
 10
8192.800000000001
 20
6230.400000000001
 97
0
 75
1
 76
1
 98
0
  0
LWPOLYLINE
  5
139
330
17
100
AcDbEntity
  8
WALL
100
AcDbPolyline
 90
4
 70
1
 10
8280.800000000001
 20
8122.400000000001
 10
8333.6
 20
8122.400000000001
 10
8333.6
 20
6230.400000000001
 10
8280.800000000001
 20
6230.400000000001
  0
HATCH
  5
13A
330
17
100
AcDbEntity
  8
WALL
100
AcDbHatch
 10
0.0
 20
0.0
 30
0.0
210
0.0
220
0.0
230
1.0
  2
SOLID
 70
1
 71
0
 91
1
 92
3
 72
0
 73
1
 93
4
 10
8280.800000000001
 20
8122.400000000001
 10
8333.6
 20
8122.400000000001
 10
8333.6
 20
6230.400000000001
 10
8280.800000000001
 20
6230.400000000001
 97
0
 75
1
 76
1
 98
0
  0
LWPOLYLINE
  5
13B
330
17
100
AcDbEntity
  8
WALL
100
AcDbPolyline
 90
4
 70
1
 10
3968.8
 20
8113.6
 10
4021.6000000000004
 20
8113.6
 10
4021.6000000000004
 20
7708.8
 10
3968.8
 20
7708.8
  0
HATCH
  5
13C
330
17
100
AcDbEntity
  8
WALL
100
AcDbHatch
 10
0.0
 20
0.0
 30
0.0
210
0.0
220
0.0
230
1.0
  2
SOLID
 70
1
 71
0
 91
1
 92
3
 72
0
 73
1
 93
4
 10
3968.8
 20
8113.6
 10
4021.6000000000004
 20
8113.6
 10
4021.6000000000004
 20
7708.8
 10
3968.8
 20
7708.8
 97
0
 75
1
 76
1
 98
0
  0
LWPOLYLINE
  5
13D
330
17
100
AcDbEntity
  8
WALL
100
AcDbPolyline
 90
4
 70
1
 10
3344.0000000000005
 20
8043.200000000001
 10
3352.8
 20
8043.200000000001
 10
3352.8
 20
7884.800000000001
 10
3344.0000000000005
 20
7884.800000000001
  0
HATCH
  5
13E
330
17
100
AcDbEntity
  8
WALL
100
AcDbHatch
 10
0.0
 20
0.0
 30
0.0
210
0.0
220
0.0
230
1.0
  2
SOLID
 70
1
 71
0
 91
1
 92
3
 72
0
 73
1
 93
4
 10
3344.0000000000005
 20
8043.200000000001
 10
3352.8
 20
8043.200000000001
 10
3352.8
 20
7884.800000000001
 10
3344.0000000000005
 20
7884.800000000001
 97
0
 75
1
 76
1
 98
0
  0
LWPOLYLINE
  5
13F
330
17
100
AcDbEntity
  8
WALL
100
AcDbPolyline
 90
4
 70
1
 10
6010.400000000001
 20
7972.800000000001
 10
6045.6
 20
7972.800000000001
 10
6045.6
 20
7796.8
 10
6010.400000000001
 20
7796.8
  0
HATCH
  5
140
330
17
100
AcDbEntity
  8
WALL
100
AcDbHatch
 10
0.0
 20
0.0
 30
0.0
210
0.0
220
0.0
230
1.0
  2
SOLID
 70
1
 71
0
 91
1
 92
3
 72
0
 73
1
 93
4
 10
6010.400000000001
 20
7972.800000000001
 10
6045.6
 20
7972.800000000001
 10
6045.6
 20
7796.8
 10
6010.400000000001
 20
7796.8
 97
0
 75
1
 76
1
 98
0
  0
LWPOLYLINE
  5
141
330
17
100
AcDbEntity
  8
WALL
100
AcDbPolyline
 90
4
 70
1
 10
6221.6
 20
7656.000000000001
 10
6274.400000000001
 20
7656.000000000001
 10
6274.400000000001
 20
7242.400000000001
 10
6221.6
 20
7242.400000000001
  0
HATCH
  5
142
330
17
100
AcDbEntity
  8
WALL
100
AcDbHatch
 10
0.0
 20
0.0
 30
0.0
210
0.0
220
0.0
230
1.0
  2
SOLID
 70
1
 71
0
 91
1
 92
3
 72
0
 73
1
 93
4
 10
6221.6
 20
7656.000000000001
 10
6274.400000000001
 20
7656.000000000001
 10
6274.400000000001
 20
7242.400000000001
 10
6221.6
 20
7242.400000000001
 97
0
 75
1
 76
1
 98
0
  0
LWPOLYLINE
  5
143
330
17
100
AcDbEntity
  8
WALL
100
AcDbPolyline
 90
4
 70
1
 10
6028.000000000001
 20
7603.200000000001
 10
6063.200000000001
 20
7603.200000000001
 10
6063.200000000001
 20
7427.200000000001
 10
6028.000000000001
 20
7427.200000000001
  0
HATCH
  5
144
330
17
100
AcDbEntity
  8
WALL
100
AcDbHatch
 10
0.0
 20
0.0
 30
0.0
210
0.0
220
0.0
230
1.0
  2
SOLID
 70
1
 71
0
 91
1
 92
3
 72
0
 73
1
 93
4
 10
6028.000000000001
 20
7603.200000000001
 10
6063.200000000001
 20
7603.200000000001
 10
6063.200000000001
 20
7427.200000000001
 10
6028.000000000001
 20
7427.200000000001
 97
0
 75
1
 76
1
 98
0
  0
LWPOLYLINE
  5
145
330
17
100
AcDbEntity
  8
WALL
100
AcDbPolyline
 90
4
 70
1
 10
9636.0
 20
7453.6
 10
9812.0
 20
7453.6
 10
9812.0
 20
5535.200000000001
 10
9636.0
 20
5535.200000000001
  0
HATCH
  5
146
330
17
100
AcDbEntity
  8
WALL
100
AcDbHatch
 10
0.0
 20
0.0
 30
0.0
210
0.0
220
0.0
230
1.0
  2
SOLID
 70
1
 71
0
 91
1
 92
3
 72
0
 73
1
 93
4
 10
9636.0
 20
7453.6
 10
9812.0
 20
7453.6
 10
9812.0
 20
5535.200000000001
 10
9636.0
 20
5535.200000000001
 97
0
 75
1
 76
1
 98
0
  0
LWPOLYLINE
  5
147
330
17
100
AcDbEntity
  8
WALL
100
AcDbPolyline
 90
4
 70
1
 10
3828.0000000000005
 20
7444.8
 10
3863.2000000000003
 20
7444.8
 10
3863.2000000000003
 20
7145.6
 10
3828.0000000000005
 20
7145.6
  0
HATCH
  5
148
330
17
100
AcDbEntity
  8
WALL
100
AcDbHatch
 10
0.0
 20
0.0
 30
0.0
210
0.0
220
0.0
230
1.0
  2
SOLID
 70
1
 71
0
 91
1
 92
3
 72
0
 73
1
 93
4
 10
3828.0000000000005
 20
7444.8
 10
3863.2000000000003
 20
7444.8
 10
3863.2000000000003
 20
7145.6
 10
3828.0000000000005
 20
7145.6
 97
0
 75
1
 76
1
 98
0
  0
LWPOLYLINE
  5
149
330
17
100
AcDbEntity
  8
WALL
100
AcDbPolyline
 90
4
 70
1
 10
3352.8
 20
7356.8
 10
3370.4
 20
7356.8
 10
3370.4
 20
7163.200000000001
 10
3352.8
 20
7163.200000000001
  0
HATCH
  5
14A
330
17
100
AcDbEntity
  8
WALL
100
AcDbHatch
 10
0.0
 20
0.0
 30
0.0
210
0.0
220
0.0
230
1.0
  2
SOLID
 70
1
 71
0
 91
1
 92
3
 72
0
 73
1
 93
4
 10
3352.8
 20
7356.8
 10
3370.4
 20
7356.8
 10
3370.4
 20
7163.200000000001
 10
3352.8
 20
7163.200000000001
 97
0
 75
1
 76
1
 98
0
  0
LWPOLYLINE
  5
14B
330
17
100
AcDbEntity
  8
WALL
100
AcDbPolyline
 90
4
 70
1
 10
9636.0
 20
7356.8
 10
9671.2
 20
7356.8
 10
9671.2
 20
6978.400000000001
 10
9636.0
 20
6978.400000000001
  0
HATCH
  5
14C
330
17
100
AcDbEntity
  8
WALL
100
AcDbHatch
 10
0.0
 20
0.0
 30
0.0
210
0.0
220
0.0
230
1.0
  2
SOLID
 70
1
 71
0
 91
1
 92
3
 72
0
 73
1
 93
4
 10
9636.0
 20
7356.8
 10
9671.2
 20
7356.8
 10
9671.2
 20
6978.400000000001
 10
9636.0
 20
6978.400000000001
 97
0
 75
1
 76
1
 98
0
  0
LWPOLYLINE
  5
14D
330
17
100
AcDbEntity
  8
WALL
100
AcDbPolyline
 90
4
 70
1
 10
7154.400000000001
 20
6952.000000000001
 10
7189.6
 20
6952.000000000001
 10
7189.6
 20
6740.8
 10
7154.400000000001
 20
6740.8
  0
HATCH
  5
14E
330
17
100
AcDbEntity
  8
WALL
100
AcDbHatch
 10
0.0
 20
0.0
 30
0.0
210
0.0
220
0.0
230
1.0
  2
SOLID
 70
1
 71
0
 91
1
 92
3
 72
0
 73
1
 93
4
 10
7154.400000000001
 20
6952.000000000001
 10
7189.6
 20
6952.000000000001
 10
7189.6
 20
6740.8
 10
7154.400000000001
 20
6740.8
 97
0
 75
1
 76
1
 98
0
  0
LWPOLYLINE
  5
14F
330
17
100
AcDbEntity
  8
WALL
100
AcDbPolyline
 90
4
 70
1
 10
9618.400000000001
 20
6820.000000000001
 10
9653.6
 20
6820.000000000001
 10
9653.6
 20
6635.200000000001
 10
9618.400000000001
 20
6635.200000000001
  0
HATCH
  5
150
330
17
100
AcDbEntity
  8
WALL
100
AcDbHatch
 10
0.0
 20
0.0
 30
0.0
210
0.0
220
0.0
230
1.0
  2
SOLID
 70
1
 71
0
 91
1
 92
3
 72
0
 73
1
 93
4
 10
9618.400000000001
 20
6820.000000000001
 10
9653.6
 20
6820.000000000001
 10
9653.6
 20
6635.200000000001
 10
9618.400000000001
 20
6635.200000000001
 97
0
 75
1
 76
1
 98
0
  0
LWPOLYLINE
  5
151
330
17
100
AcDbEntity
  8
WALL
100
AcDbPolyline
 90
4
 70
1
 10
4549.6
 20
6767.200000000001
 10
4584.8
 20
6767.200000000001
 10
4584.8
 20
6353.6
 10
4549.6
 20
6353.6
  0
HATCH
  5
152
330
17
100
AcDbEntity
  8
WALL
100
AcDbHatch
 10
0.0
 20
0.0
 30
0.0
210
0.0
220
0.0
230
1.0
  2
SOLID
 70
1
 71
0
 91
1
 92
3
 72
0
 73
1
 93
4
 10
4549.6
 20
6767.200000000001
 10
4584.8
 20
6767.200000000001
 10
4584.8
 20
6353.6
 10
4549.6
 20
6353.6
 97
0
 75
1
 76
1
 98
0
  0
LWPOLYLINE
  5
153
330
17
100
AcDbEntity
  8
WALL
100
AcDbPolyline
 90
4
 70
1
 10
7295.200000000001
 20
6688.000000000001
 10
7348.000000000001
 20
6688.000000000001
 10
7348.000000000001
 20
6485.6
 10
7295.200000000001
 20
6485.6
  0
HATCH
  5
154
330
17
100
AcDbEntity
  8
WALL
100
AcDbHatch
 10
0.0
 20
0.0
 30
0.0
210
0.0
220
0.0
230
1.0
  2
SOLID
 70
1
 71
0
 91
1
 92
3
 72
0
 73
1
 93
4
 10
7295.200000000001
 20
6688.000000000001
 10
7348.000000000001
 20
6688.000000000001
 10
7348.000000000001
 20
6485.6
 10
7295.200000000001
 20
6485.6
 97
0
 75
1
 76
1
 98
0
  0
LWPOLYLINE
  5
155
330
17
100
AcDbEntity
  8
WALL
100
AcDbPolyline
 90
4
 70
1
 10
5007.200000000001
 20
6644.000000000001
 10
5042.400000000001
 20
6644.000000000001
 10
5042.400000000001
 20
6441.6
 10
5007.200000000001
 20
6441.6
  0
HATCH
  5
156
330
17
100
AcDbEntity
  8
WALL
100
AcDbHatch
 10
0.0
 20
0.0
 30
0.0
210
0.0
220
0.0
230
1.0
  2
SOLID
 70
1
 71
0
 91
1
 92
3
 72
0
 73
1
 93
4
 10
5007.200000000001
 20
6644.000000000001
 10
5042.400000000001
 20
6644.000000000001
 10
5042.400000000001
 20
6441.6
 10
5007.200000000001
 20
6441.6
 97
0
 75
1
 76
1
 98
0
  0
LWPOLYLINE
  5
157
330
17
100
AcDbEntity
  8
WALL
100
AcDbPolyline
 90
4
 70
1
 10
5623.200000000001
 20
6652.8
 10
5658.400000000001
 20
6652.8
 10
5658.400000000001
 20
6432.8
 10
5623.200000000001
 20
6432.8
  0
HATCH
  5
158
330
17
100
AcDbEntity
  8
WALL
100
AcDbHatch
 10
0.0
 20
0.0
 30
0.0
210
0.0
220
0.0
230
1.0
  2
SOLID
 70
1
 71
0
 91
1
 92
3
 72
0
 73
1
 93
4
 10
5623.200000000001
 20
6652.8
 10
5658.400000000001
 20
6652.8
 10
5658.400000000001
 20
6432.8
 10
5623.200000000001
 20
6432.8
 97
0
 75
1
 76
1
 98
0
  0
LWPOLYLINE
  5
159
330
17
100
AcDbEntity
  8
WALL
100
AcDbPolyline
 90
4
 70
1
 10
9636.0
 20
6626.400000000001
 10
9653.6
 20
6626.400000000001
 10
9653.6
 20
6424.000000000001
 10
9636.0
 20
6424.000000000001
  0
HATCH
  5
15A
330
17
100
AcDbEntity
  8
WALL
100
AcDbHatch
 10
0.0
 20
0.0
 30
0.0
210
0.0
220
0.0
230
1.0
  2
SOLID
 70
1
 71
0
 91
1
 92
3
 72
0
 73
1
 93
4
 10
9636.0
 20
6626.400000000001
 10
9653.6
 20
6626.400000000001
 10
9653.6
 20
6424.000000000001
 10
9636.0
 20
6424.000000000001
 97
0
 75
1
 76
1
 98
0
  0
LWPOLYLINE
  5
15B
330
17
100
AcDbEntity
  8
WALL
100
AcDbPolyline
 90
4
 70
1
 10
5711.200000000001
 20
6617.6
 10
5746.400000000001
 20
6617.6
 10
5746.400000000001
 20
6380.000000000001
 10
5711.200000000001
 20
6380.000000000001
  0
HATCH
  5
15C
330
17
100
AcDbEntity
  8
WALL
100
AcDbHatch
 10
0.0
 20
0.0
 30
0.0
210
0.0
220
0.0
230
1.0
  2
SOLID
 70
1
 71
0
 91
1
 92
3
 72
0
 73
1
 93
4
 10
5711.200000000001
 20
6617.6
 10
5746.400000000001
 20
6617.6
 10
5746.400000000001
 20
6380.000000000001
 10
5711.200000000001
 20
6380.000000000001
 97
0
 75
1
 76
1
 98
0
  0
LWPOLYLINE
  5
15D
330
17
100
AcDbEntity
  8
WALL
100
AcDbPolyline
 90
4
 70
1
 10
6186.400000000001
 20
6503.200000000001
 10
6221.6
 20
6503.200000000001
 10
6221.6
 20
6318.400000000001
 10
6186.400000000001
 20
6318.400000000001
  0
HATCH
  5
15E
330
17
100
AcDbEntity
  8
WALL
100
AcDbHatch
 10
0.0
 20
0.0
 30
0.0
210
0.0
220
0.0
230
1.0
  2
SOLID
 70
1
 71
0
 91
1
 92
3
 72
0
 73
1
 93
4
 10
6186.400000000001
 20
6503.200000000001
 10
6221.6
 20
6503.200000000001
 10
6221.6
 20
6318.400000000001
 10
6186.400000000001
 20
6318.400000000001
 97
0
 75
1
 76
1
 98
0
  0
LWPOLYLINE
  5
15F
330
17
100
AcDbEntity
  8
WALL
100
AcDbPolyline
 90
4
 70
1
 10
7559.200000000001
 20
6494.400000000001
 10
7612.000000000001
 20
6494.400000000001
 10
7612.000000000001
 20
5948.8
 10
7559.200000000001
 20
5948.8
  0
HATCH
  5
160
330
17
100
AcDbEntity
  8
WALL
100
AcDbHatch
 10
0.0
 20
0.0
 30
0.0
210
0.0
220
0.0
230
1.0
  2
SOLID
 70
1
 71
0
 91
1
 92
3
 72
0
 73
1
 93
4
 10
7559.200000000001
 20
6494.400000000001
 10
7612.000000000001
 20
6494.400000000001
 10
7612.000000000001
 20
5948.8
 10
7559.200000000001
 20
5948.8
 97
0
 75
1
 76
1
 98
0
  0
LWPOLYLINE
  5
161
330
17
100
AcDbEntity
  8
WALL
100
AcDbPolyline
 90
4
 70
1
 10
2789.6000000000004
 20
6327.200000000001
 10
2824.8
 20
6327.200000000001
 10
2824.8
 20
6054.400000000001
 10
2789.6000000000004
 20
6054.400000000001
  0
HATCH
  5
162
330
17
100
AcDbEntity
  8
WALL
100
AcDbHatch
 10
0.0
 20
0.0
 30
0.0
210
0.0
220
0.0
230
1.0
  2
SOLID
 70
1
 71
0
 91
1
 92
3
 72
0
 73
1
 93
4
 10
2789.6000000000004
 20
6327.200000000001
 10
2824.8
 20
6327.200000000001
 10
2824.8
 20
6054.400000000001
 10
2789.6000000000004
 20
6054.400000000001
 97
0
 75
1
 76
1
 98
0
  0
LWPOLYLINE
  5
163
330
17
100
AcDbEntity
  8
WALL
100
AcDbPolyline
 90
4
 70
1
 10
2912.8
 20
6318.400000000001
 10
2965.6000000000004
 20
6318.400000000001
 10
2965.6000000000004
 20
5931.200000000001
 10
2912.8
 20
5931.200000000001
  0
HATCH
  5
164
330
17
100
AcDbEntity
  8
WALL
100
AcDbHatch
 10
0.0
 20
0.0
 30
0.0
210
0.0
220
0.0
230
1.0
  2
SOLID
 70
1
 71
0
 91
1
 92
3
 72
0
 73
1
 93
4
 10
2912.8
 20
6318.400000000001
 10
2965.6000000000004
 20
6318.400000000001
 10
2965.6000000000004
 20
5931.200000000001
 10
2912.8
 20
5931.200000000001
 97
0
 75
1
 76
1
 98
0
  0
LWPOLYLINE
  5
165
330
17
100
AcDbEntity
  8
WALL
100
AcDbPolyline
 90
4
 70
1
 10
9090.400000000001
 20
6151.200000000001
 10
9125.6
 20
6151.200000000001
 10
9125.6
 20
5984.000000000001
 10
9090.400000000001
 20
5984.000000000001
  0
HATCH
  5
166
330
17
100
AcDbEntity
  8
WALL
100
AcDbHatch
 10
0.0
 20
0.0
 30
0.0
210
0.0
220
0.0
230
1.0
  2
SOLID
 70
1
 71
0
 91
1
 92
3
 72
0
 73
1
 93
4
 10
9090.400000000001
 20
6151.200000000001
 10
9125.6
 20
6151.200000000001
 10
9125.6
 20
5984.000000000001
 10
9090.400000000001
 20
5984.000000000001
 97
0
 75
1
 76
1
 98
0
  0
LWPOLYLINE
  5
167
330
17
100
AcDbEntity
  8
WALL
100
AcDbPolyline
 90
4
 70
1
 10
9213.6
 20
6045.6
 10
9248.800000000001
 20
6045.6
 10
9248.800000000001
 20
5816.8
 10
9213.6
 20
5816.8
  0
HATCH
  5
168
330
17
100
AcDbEntity
  8
WALL
100
AcDbHatch
 10
0.0
 20
0.0
 30
0.0
210
0.0
220
0.0
230
1.0
  2
SOLID
 70
1
 71
0
 91
1
 92
3
 72
0
 73
1
 93
4
 10
9213.6
 20
6045.6
 10
9248.800000000001
 20
6045.6
 10
9248.800000000001
 20
5816.8
 10
9213.6
 20
5816.8
 97
0
 75
1
 76
1
 98
0
  0
LWPOLYLINE
  5
169
330
17
100
AcDbEntity
  8
WALL
100
AcDbPolyline
 90
4
 70
1
 10
6476.8
 20
6019.200000000001
 10
6485.6
 20
6019.200000000001
 10
6485.6
 20
5860.8
 10
6476.8
 20
5860.8
  0
HATCH
  5
16A
330
17
100
AcDbEntity
  8
WALL
100
AcDbHatch
 10
0.0
 20
0.0
 30
0.0
210
0.0
220
0.0
230
1.0
  2
SOLID
 70
1
 71
0
 91
1
 92
3
 72
0
 73
1
 93
4
 10
6476.8
 20
6019.200000000001
 10
6485.6
 20
6019.200000000001
 10
6485.6
 20
5860.8
 10
6476.8
 20
5860.8
 97
0
 75
1
 76
1
 98
0
  0
LWPOLYLINE
  5
16B
330
17
100
AcDbEntity
  8
WALL
100
AcDbPolyline
 90
4
 70
1
 10
7277.6
 20
6001.6
 10
7365.6
 20
6001.6
 10
7365.6
 20
5288.8
 10
7277.6
 20
5288.8
  0
HATCH
  5
16C
330
17
100
AcDbEntity
  8
WALL
100
AcDbHatch
 10
0.0
 20
0.0
 30
0.0
210
0.0
220
0.0
230
1.0
  2
SOLID
 70
1
 71
0
 91
1
 92
3
 72
0
 73
1
 93
4
 10
7277.6
 20
6001.6
 10
7365.6
 20
6001.6
 10
7365.6
 20
5288.8
 10
7277.6
 20
5288.8
 97
0
 75
1
 76
1
 98
0
  0
LWPOLYLINE
  5
16D
330
17
100
AcDbEntity
  8
WALL
100
AcDbPolyline
 90
4
 70
1
 10
1223.2
 20
5869.6
 10
1293.6000000000001
 20
5869.6
 10
1293.6000000000001
 20
5350.400000000001
 10
1223.2
 20
5350.400000000001
  0
HATCH
  5
16E
330
17
100
AcDbEntity
  8
WALL
100
AcDbHatch
 10
0.0
 20
0.0
 30
0.0
210
0.0
220
0.0
230
1.0
  2
SOLID
 70
1
 71
0
 91
1
 92
3
 72
0
 73
1
 93
4
 10
1223.2
 20
5869.6
 10
1293.6000000000001
 20
5869.6
 10
1293.6000000000001
 20
5350.400000000001
 10
1223.2
 20
5350.400000000001
 97
0
 75
1
 76
1
 98
0
  0
LWPOLYLINE
  5
16F
330
17
100
AcDbEntity
  8
WALL
100
AcDbPolyline
 90
4
 70
1
 10
3405.6000000000004
 20
5878.400000000001
 10
3458.4
 20
5878.400000000001
 10
3458.4
 20
5491.200000000001
 10
3405.6000000000004
 20
5491.200000000001
  0
HATCH
  5
170
330
17
100
AcDbEntity
  8
WALL
100
AcDbHatch
 10
0.0
 20
0.0
 30
0.0
210
0.0
220
0.0
230
1.0
  2
SOLID
 70
1
 71
0
 91
1
 92
3
 72
0
 73
1
 93
4
 10
3405.6000000000004
 20
5878.400000000001
 10
3458.4
 20
5878.400000000001
 10
3458.4
 20
5491.200000000001
 10
3405.6000000000004
 20
5491.200000000001
 97
0
 75
1
 76
1
 98
0
  0
LWPOLYLINE
  5
171
330
17
100
AcDbEntity
  8
WALL
100
AcDbPolyline
 90
4
 70
1
 10
1135.2
 20
5816.8
 10
1170.4
 20
5816.8
 10
1170.4
 20
5500.0
 10
1135.2
 20
5500.0
  0
HATCH
  5
172
330
17
100
AcDbEntity
  8
WALL
100
AcDbHatch
 10
0.0
 20
0.0
 30
0.0
210
0.0
220
0.0
230
1.0
  2
SOLID
 70
1
 71
0
 91
1
 92
3
 72
0
 73
1
 93
4
 10
1135.2
 20
5816.8
 10
1170.4
 20
5816.8
 10
1170.4
 20
5500.0
 10
1135.2
 20
5500.0
 97
0
 75
1
 76
1
 98
0
  0
LWPOLYLINE
  5
173
330
17
100
AcDbEntity
  8
WALL
100
AcDbPolyline
 90
4
 70
1
 10
7189.6
 20
5746.400000000001
 10
7224.8
 20
5746.400000000001
 10
7224.8
 20
5579.200000000001
 10
7189.6
 20
5579.200000000001
  0
HATCH
  5
174
330
17
100
AcDbEntity
  8
WALL
100
AcDbHatch
 10
0.0
 20
0.0
 30
0.0
210
0.0
220
0.0
230
1.0
  2
SOLID
 70
1
 71
0
 91
1
 92
3
 72
0
 73
1
 93
4
 10
7189.6
 20
5746.400000000001
 10
7224.8
 20
5746.400000000001
 10
7224.8
 20
5579.200000000001
 10
7189.6
 20
5579.200000000001
 97
0
 75
1
 76
1
 98
0
  0
LWPOLYLINE
  5
175
330
17
100
AcDbEntity
  8
WALL
100
AcDbPolyline
 90
4
 70
1
 10
994.4000000000001
 20
5711.200000000001
 10
1100.0
 20
5711.200000000001
 10
1100.0
 20
5192.0
 10
994.4000000000001
 20
5192.0
  0
HATCH
  5
176
330
17
100
AcDbEntity
  8
WALL
100
AcDbHatch
 10
0.0
 20
0.0
 30
0.0
210
0.0
220
0.0
230
1.0
  2
SOLID
 70
1
 71
0
 91
1
 92
3
 72
0
 73
1
 93
4
 10
994.4000000000001
 20
5711.200000000001
 10
1100.0
 20
5711.200000000001
 10
1100.0
 20
5192.0
 10
994.4000000000001
 20
5192.0
 97
0
 75
1
 76
1
 98
0
  0
LWPOLYLINE
  5
177
330
17
100
AcDbEntity
  8
WALL
100
AcDbPolyline
 90
4
 70
1
 10
1971.2000000000003
 20
5702.400000000001
 10
1980.0000000000002
 20
5702.400000000001
 10
1980.0000000000002
 20
5544.0
 10
1971.2000000000003
 20
5544.0
  0
HATCH
  5
178
330
17
100
AcDbEntity
  8
WALL
100
AcDbHatch
 10
0.0
 20
0.0
 30
0.0
210
0.0
220
0.0
230
1.0
  2
SOLID
 70
1
 71
0
 91
1
 92
3
 72
0
 73
1
 93
4
 10
1971.2000000000003
 20
5702.400000000001
 10
1980.0000000000002
 20
5702.400000000001
 10
1980.0000000000002
 20
5544.0
 10
1971.2000000000003
 20
5544.0
 97
0
 75
1
 76
1
 98
0
  0
LWPOLYLINE
  5
179
330
17
100
AcDbEntity
  8
WALL
100
AcDbPolyline
 90
4
 70
1
 10
1909.6000000000001
 20
5605.6
 10
1927.2
 20
5605.6
 10
1927.2
 20
5420.8
 10
1909.6000000000001
 20
5420.8
  0
HATCH
  5
17A
330
17
100
AcDbEntity
  8
WALL
100
AcDbHatch
 10
0.0
 20
0.0
 30
0.0
210
0.0
220
0.0
230
1.0
  2
SOLID
 70
1
 71
0
 91
1
 92
3
 72
0
 73
1
 93
4
 10
1909.6000000000001
 20
5605.6
 10
1927.2
 20
5605.6
 10
1927.2
 20
5420.8
 10
1909.6000000000001
 20
5420.8
 97
0
 75
1
 76
1
 98
0
  0
LWPOLYLINE
  5
17B
330
17
100
AcDbEntity
  8
WALL
100
AcDbPolyline
 90
4
 70
1
 10
6485.6
 20
5535.200000000001
 10
6556.000000000001
 20
5535.200000000001
 10
6556.000000000001
 20
3748.8
 10
6485.6
 20
3748.8
  0
HATCH
  5
17C
330
17
100
AcDbEntity
  8
WALL
100
AcDbHatch
 10
0.0
 20
0.0
 30
0.0
210
0.0
220
0.0
230
1.0
  2
SOLID
 70
1
 71
0
 91
1
 92
3
 72
0
 73
1
 93
4
 10
6485.6
 20
5535.200000000001
 10
6556.000000000001
 20
5535.200000000001
 10
6556.000000000001
 20
3748.8
 10
6485.6
 20
3748.8
 97
0
 75
1
 76
1
 98
0
  0
LWPOLYLINE
  5
17D
330
17
100
AcDbEntity
  8
WALL
100
AcDbPolyline
 90
4
 70
1
 10
1311.2
 20
5526.400000000001
 10
1328.8000000000002
 20
5526.400000000001
 10
1328.8000000000002
 20
5350.400000000001
 10
1311.2
 20
5350.400000000001
  0
HATCH
  5
17E
330
17
100
AcDbEntity
  8
WALL
100
AcDbHatch
 10
0.0
 20
0.0
 30
0.0
210
0.0
220
0.0
230
1.0
  2
SOLID
 70
1
 71
0
 91
1
 92
3
 72
0
 73
1
 93
4
 10
1311.2
 20
5526.400000000001
 10
1328.8000000000002
 20
5526.400000000001
 10
1328.8000000000002
 20
5350.400000000001
 10
1311.2
 20
5350.400000000001
 97
0
 75
1
 76
1
 98
0
  0
LWPOLYLINE
  5
17F
330
17
100
AcDbEntity
  8
WALL
100
AcDbPolyline
 90
4
 70
1
 10
1161.6000000000001
 20
5491.200000000001
 10
1170.4
 20
5491.200000000001
 10
1170.4
 20
5332.8
 10
1161.6000000000001
 20
5332.8
  0
HATCH
  5
180
330
17
100
AcDbEntity
  8
WALL
100
AcDbHatch
 10
0.0
 20
0.0
 30
0.0
210
0.0
220
0.0
230
1.0
  2
SOLID
 70
1
 71
0
 91
1
 92
3
 72
0
 73
1
 93
4
 10
1161.6000000000001
 20
5491.200000000001
 10
1170.4
 20
5491.200000000001
 10
1170.4
 20
5332.8
 10
1161.6000000000001
 20
5332.8
 97
0
 75
1
 76
1
 98
0
  0
LWPOLYLINE
  5
181
330
17
100
AcDbEntity
  8
WALL
100
AcDbPolyline
 90
4
 70
1
 10
7207.200000000001
 20
5491.200000000001
 10
7242.400000000001
 20
5491.200000000001
 10
7242.400000000001
 20
5297.6
 10
7207.200000000001
 20
5297.6
  0
HATCH
  5
182
330
17
100
AcDbEntity
  8
WALL
100
AcDbHatch
 10
0.0
 20
0.0
 30
0.0
210
0.0
220
0.0
230
1.0
  2
SOLID
 70
1
 71
0
 91
1
 92
3
 72
0
 73
1
 93
4
 10
7207.200000000001
 20
5491.200000000001
 10
7242.400000000001
 20
5491.200000000001
 10
7242.400000000001
 20
5297.6
 10
7207.200000000001
 20
5297.6
 97
0
 75
1
 76
1
 98
0
  0
LWPOLYLINE
  5
183
330
17
100
AcDbEntity
  8
WALL
100
AcDbPolyline
 90
4
 70
1
 10
4303.200000000001
 20
5473.6
 10
4338.400000000001
 20
5473.6
 10
4338.400000000001
 20
5297.6
 10
4303.200000000001
 20
5297.6
  0
HATCH
  5
184
330
17
100
AcDbEntity
  8
WALL
100
AcDbHatch
 10
0.0
 20
0.0
 30
0.0
210
0.0
220
0.0
230
1.0
  2
SOLID
 70
1
 71
0
 91
1
 92
3
 72
0
 73
1
 93
4
 10
4303.200000000001
 20
5473.6
 10
4338.400000000001
 20
5473.6
 10
4338.400000000001
 20
5297.6
 10
4303.200000000001
 20
5297.6
 97
0
 75
1
 76
1
 98
0
  0
LWPOLYLINE
  5
185
330
17
100
AcDbEntity
  8
WALL
100
AcDbPolyline
 90
4
 70
1
 10
5623.200000000001
 20
5473.6
 10
5640.8
 20
5473.6
 10
5640.8
 20
5306.400000000001
 10
5623.200000000001
 20
5306.400000000001
  0
HATCH
  5
186
330
17
100
AcDbEntity
  8
WALL
100
AcDbHatch
 10
0.0
 20
0.0
 30
0.0
210
0.0
220
0.0
230
1.0
  2
SOLID
 70
1
 71
0
 91
1
 92
3
 72
0
 73
1
 93
4
 10
5623.200000000001
 20
5473.6
 10
5640.8
 20
5473.6
 10
5640.8
 20
5306.400000000001
 10
5623.200000000001
 20
5306.400000000001
 97
0
 75
1
 76
1
 98
0
  0
LWPOLYLINE
  5
187
330
17
100
AcDbEntity
  8
WALL
100
AcDbPolyline
 90
4
 70
1
 10
4866.400000000001
 20
5385.6
 10
4919.200000000001
 20
5385.6
 10
4919.200000000001
 20
3027.2000000000003
 10
4866.400000000001
 20
3027.2000000000003
  0
HATCH
  5
188
330
17
100
AcDbEntity
  8
WALL
100
AcDbHatch
 10
0.0
 20
0.0
 30
0.0
210
0.0
220
0.0
230
1.0
  2
SOLID
 70
1
 71
0
 91
1
 92
3
 72
0
 73
1
 93
4
 10
4866.400000000001
 20
5385.6
 10
4919.200000000001
 20
5385.6
 10
4919.200000000001
 20
3027.2000000000003
 10
4866.400000000001
 20
3027.2000000000003
 97
0
 75
1
 76
1
 98
0
  0
LWPOLYLINE
  5
189
330
17
100
AcDbEntity
  8
WALL
100
AcDbPolyline
 90
4
 70
1
 10
6573.6
 20
5385.6
 10
6644.000000000001
 20
5385.6
 10
6644.000000000001
 20
3836.8
 10
6573.6
 20
3836.8
  0
HATCH
  5
18A
330
17
100
AcDbEntity
  8
WALL
100
AcDbHatch
 10
0.0
 20
0.0
 30
0.0
210
0.0
220
0.0
230
1.0
  2
SOLID
 70
1
 71
0
 91
1
 92
3
 72
0
 73
1
 93
4
 10
6573.6
 20
5385.6
 10
6644.000000000001
 20
5385.6
 10
6644.000000000001
 20
3836.8
 10
6573.6
 20
3836.8
 97
0
 75
1
 76
1
 98
0
  0
LWPOLYLINE
  5
18B
330
17
100
AcDbEntity
  8
WALL
100
AcDbPolyline
 90
4
 70
1
 10
800.8000000000001
 20
5306.400000000001
 10
871.2
 20
5306.400000000001
 10
871.2
 20
5051.200000000001
 10
800.8000000000001
 20
5051.200000000001
  0
HATCH
  5
18C
330
17
100
AcDbEntity
  8
WALL
100
AcDbHatch
 10
0.0
 20
0.0
 30
0.0
210
0.0
220
0.0
230
1.0
  2
SOLID
 70
1
 71
0
 91
1
 92
3
 72
0
 73
1
 93
4
 10
800.8000000000001
 20
5306.400000000001
 10
871.2
 20
5306.400000000001
 10
871.2
 20
5051.200000000001
 10
800.8000000000001
 20
5051.200000000001
 97
0
 75
1
 76
1
 98
0
  0
LWPOLYLINE
  5
18D
330
17
100
AcDbEntity
  8
WALL
100
AcDbPolyline
 90
4
 70
1
 10
5605.6
 20
5297.6
 10
5676.000000000001
 20
5297.6
 10
5676.000000000001
 20
2992.0000000000005
 10
5605.6
 20
2992.0000000000005
  0
HATCH
  5
18E
330
17
100
AcDbEntity
  8
WALL
100
AcDbHatch
 10
0.0
 20
0.0
 30
0.0
210
0.0
220
0.0
230
1.0
  2
SOLID
 70
1
 71
0
 91
1
 92
3
 72
0
 73
1
 93
4
 10
5605.6
 20
5297.6
 10
5676.000000000001
 20
5297.6
 10
5676.000000000001
 20
2992.0000000000005
 10
5605.6
 20
2992.0000000000005
 97
0
 75
1
 76
1
 98
0
  0
LWPOLYLINE
  5
18F
330
17
100
AcDbEntity
  8
WALL
100
AcDbPolyline
 90
4
 70
1
 10
9776.800000000001
 20
5288.8
 10
9812.0
 20
5288.8
 10
9812.0
 20
5077.6
 10
9776.800000000001
 20
5077.6
  0
HATCH
  5
190
330
17
100
AcDbEntity
  8
WALL
100
AcDbHatch
 10
0.0
 20
0.0
 30
0.0
210
0.0
220
0.0
230
1.0
  2
SOLID
 70
1
 71
0
 91
1
 92
3
 72
0
 73
1
 93
4
 10
9776.800000000001
 20
5288.8
 10
9812.0
 20
5288.8
 10
9812.0
 20
5077.6
 10
9776.800000000001
 20
5077.6
 97
0
 75
1
 76
1
 98
0
  0
LWPOLYLINE
  5
191
330
17
100
AcDbEntity
  8
WALL
100
AcDbPolyline
 90
4
 70
1
 10
5500.0
 20
5236.0
 10
5570.400000000001
 20
5236.0
 10
5570.400000000001
 20
4672.8
 10
5500.0
 20
4672.8
  0
HATCH
  5
192
330
17
100
AcDbEntity
  8
WALL
100
AcDbHatch
 10
0.0
 20
0.0
 30
0.0
210
0.0
220
0.0
230
1.0
  2
SOLID
 70
1
 71
0
 91
1
 92
3
 72
0
 73
1
 93
4
 10
5500.0
 20
5236.0
 10
5570.400000000001
 20
5236.0
 10
5570.400000000001
 20
4672.8
 10
5500.0
 20
4672.8
 97
0
 75
1
 76
1
 98
0
  0
LWPOLYLINE
  5
193
330
17
100
AcDbEntity
  8
WALL
100
AcDbPolyline
 90
4
 70
1
 10
4954.400000000001
 20
5095.200000000001
 10
5016.0
 20
5095.200000000001
 10
5016.0
 20
4056.8
 10
4954.400000000001
 20
4056.8
  0
HATCH
  5
194
330
17
100
AcDbEntity
  8
WALL
100
AcDbHatch
 10
0.0
 20
0.0
 30
0.0
210
0.0
220
0.0
230
1.0
  2
SOLID
 70
1
 71
0
 91
1
 92
3
 72
0
 73
1
 93
4
 10
4954.400000000001
 20
5095.200000000001
 10
5016.0
 20
5095.200000000001
 10
5016.0
 20
4056.8
 10
4954.400000000001
 20
4056.8
 97
0
 75
1
 76
1
 98
0
  0
LWPOLYLINE
  5
195
330
17
100
AcDbEntity
  8
WALL
100
AcDbPolyline
 90
4
 70
1
 10
5042.400000000001
 20
5095.200000000001
 10
5095.200000000001
 20
5095.200000000001
 10
5095.200000000001
 20
4558.400000000001
 10
5042.400000000001
 20
4558.400000000001
  0
HATCH
  5
196
330
17
100
AcDbEntity
  8
WALL
100
AcDbHatch
 10
0.0
 20
0.0
 30
0.0
210
0.0
220
0.0
230
1.0
  2
SOLID
 70
1
 71
0
 91
1
 92
3
 72
0
 73
1
 93
4
 10
5042.400000000001
 20
5095.200000000001
 10
5095.200000000001
 20
5095.200000000001
 10
5095.200000000001
 20
4558.400000000001
 10
5042.400000000001
 20
4558.400000000001
 97
0
 75
1
 76
1
 98
0
  0
LWPOLYLINE
  5
197
330
17
100
AcDbEntity
  8
WALL
100
AcDbPolyline
 90
4
 70
1
 10
8377.6
 20
4928.0
 10
8386.400000000001
 20
4928.0
 10
8386.400000000001
 20
4769.6
 10
8377.6
 20
4769.6
  0
HATCH
  5
198
330
17
100
AcDbEntity
  8
WALL
100
AcDbHatch
 10
0.0
 20
0.0
 30
0.0
210
0.0
220
0.0
230
1.0
  2
SOLID
 70
1
 71
0
 91
1
 92
3
 72
0
 73
1
 93
4
 10
8377.6
 20
4928.0
 10
8386.400000000001
 20
4928.0
 10
8386.400000000001
 20
4769.6
 10
8377.6
 20
4769.6
 97
0
 75
1
 76
1
 98
0
  0
LWPOLYLINE
  5
199
330
17
100
AcDbEntity
  8
WALL
100
AcDbPolyline
 90
4
 70
1
 10
7260.000000000001
 20
4910.400000000001
 10
7312.8
 20
4910.400000000001
 10
7312.8
 20
4576.0
 10
7260.000000000001
 20
4576.0
  0
HATCH
  5
19A
330
17
100
AcDbEntity
  8
WALL
100
AcDbHatch
 10
0.0
 20
0.0
 30
0.0
210
0.0
220
0.0
230
1.0
  2
SOLID
 70
1
 71
0
 91
1
 92
3
 72
0
 73
1
 93
4
 10
7260.000000000001
 20
4910.400000000001
 10
7312.8
 20
4910.400000000001
 10
7312.8
 20
4576.0
 10
7260.000000000001
 20
4576.0
 97
0
 75
1
 76
1
 98
0
  0
LWPOLYLINE
  5
19B
330
17
100
AcDbEntity
  8
WALL
100
AcDbPolyline
 90
4
 70
1
 10
3036.0000000000005
 20
4884.0
 10
3053.6000000000004
 20
4884.0
 10
3053.6000000000004
 20
4690.400000000001
 10
3036.0000000000005
 20
4690.400000000001
  0
HATCH
  5
19C
330
17
100
AcDbEntity
  8
WALL
100
AcDbHatch
 10
0.0
 20
0.0
 30
0.0
210
0.0
220
0.0
230
1.0
  2
SOLID
 70
1
 71
0
 91
1
 92
3
 72
0
 73
1
 93
4
 10
3036.0000000000005
 20
4884.0
 10
3053.6000000000004
 20
4884.0
 10
3053.6000000000004
 20
4690.400000000001
 10
3036.0000000000005
 20
4690.400000000001
 97
0
 75
1
 76
1
 98
0
  0
LWPOLYLINE
  5
19D
330
17
100
AcDbEntity
  8
WALL
100
AcDbPolyline
 90
4
 70
1
 10
3141.6000000000004
 20
4857.6
 10
3176.8
 20
4857.6
 10
3176.8
 20
4593.6
 10
3141.6000000000004
 20
4593.6
  0
HATCH
  5
19E
330
17
100
AcDbEntity
  8
WALL
100
AcDbHatch
 10
0.0
 20
0.0
 30
0.0
210
0.0
220
0.0
230
1.0
  2
SOLID
 70
1
 71
0
 91
1
 92
3
 72
0
 73
1
 93
4
 10
3141.6000000000004
 20
4857.6
 10
3176.8
 20
4857.6
 10
3176.8
 20
4593.6
 10
3141.6000000000004
 20
4593.6
 97
0
 75
1
 76
1
 98
0
  0
LWPOLYLINE
  5
19F
330
17
100
AcDbEntity
  8
WALL
100
AcDbPolyline
 90
4
 70
1
 10
9301.6
 20
4549.6
 10
9424.800000000001
 20
4549.6
 10
9424.800000000001
 20
4285.6
 10
9301.6
 20
4285.6
  0
HATCH
  5
1A0
330
17
100
AcDbEntity
  8
WALL
100
AcDbHatch
 10
0.0
 20
0.0
 30
0.0
210
0.0
220
0.0
230
1.0
  2
SOLID
 70
1
 71
0
 91
1
 92
3
 72
0
 73
1
 93
4
 10
9301.6
 20
4549.6
 10
9424.800000000001
 20
4549.6
 10
9424.800000000001
 20
4285.6
 10
9301.6
 20
4285.6
 97
0
 75
1
 76
1
 98
0
  0
LWPOLYLINE
  5
1A1
330
17
100
AcDbEntity
  8
WALL
100
AcDbPolyline
 90
4
 70
1
 10
7242.400000000001
 20
4540.8
 10
7277.6
 20
4540.8
 10
7277.6
 20
3995.2000000000003
 10
7242.400000000001
 20
3995.2000000000003
  0
HATCH
  5
1A2
330
17
100
AcDbEntity
  8
WALL
100
AcDbHatch
 10
0.0
 20
0.0
 30
0.0
210
0.0
220
0.0
230
1.0
  2
SOLID
 70
1
 71
0
 91
1
 92
3
 72
0
 73
1
 93
4
 10
7242.400000000001
 20
4540.8
 10
7277.6
 20
4540.8
 10
7277.6
 20
3995.2000000000003
 10
7242.400000000001
 20
3995.2000000000003
 97
0
 75
1
 76
1
 98
0
  0
LWPOLYLINE
  5
1A3
330
17
100
AcDbEntity
  8
WALL
100
AcDbPolyline
 90
4
 70
1
 10
8773.6
 20
4408.8
 10
8791.2
 20
4408.8
 10
8791.2
 20
4224.0
 10
8773.6
 20
4224.0
  0
HATCH
  5
1A4
330
17
100
AcDbEntity
  8
WALL
100
AcDbHatch
 10
0.0
 20
0.0
 30
0.0
210
0.0
220
0.0
230
1.0
  2
SOLID
 70
1
 71
0
 91
1
 92
3
 72
0
 73
1
 93
4
 10
8773.6
 20
4408.8
 10
8791.2
 20
4408.8
 10
8791.2
 20
4224.0
 10
8773.6
 20
4224.0
 97
0
 75
1
 76
1
 98
0
  0
LWPOLYLINE
  5
1A5
330
17
100
AcDbEntity
  8
WALL
100
AcDbPolyline
 90
4
 70
1
 10
4285.6
 20
4338.400000000001
 10
4320.8
 20
4338.400000000001
 10
4320.8
 20
4118.400000000001
 10
4285.6
 20
4118.400000000001
  0
HATCH
  5
1A6
330
17
100
AcDbEntity
  8
WALL
100
AcDbHatch
 10
0.0
 20
0.0
 30
0.0
210
0.0
220
0.0
230
1.0
  2
SOLID
 70
1
 71
0
 91
1
 92
3
 72
0
 73
1
 93
4
 10
4285.6
 20
4338.400000000001
 10
4320.8
 20
4338.400000000001
 10
4320.8
 20
4118.400000000001
 10
4285.6
 20
4118.400000000001
 97
0
 75
1
 76
1
 98
0
  0
LWPOLYLINE
  5
1A7
330
17
100
AcDbEntity
  8
WALL
100
AcDbPolyline
 90
4
 70
1
 10
5535.200000000001
 20
4347.200000000001
 10
5570.400000000001
 20
4347.200000000001
 10
5570.400000000001
 20
4136.0
 10
5535.200000000001
 20
4136.0
  0
HATCH
  5
1A8
330
17
100
AcDbEntity
  8
WALL
100
AcDbHatch
 10
0.0
 20
0.0
 30
0.0
210
0.0
220
0.0
230
1.0
  2
SOLID
 70
1
 71
0
 91
1
 92
3
 72
0
 73
1
 93
4
 10
5535.200000000001
 20
4347.200000000001
 10
5570.400000000001
 20
4347.200000000001
 10
5570.400000000001
 20
4136.0
 10
5535.200000000001
 20
4136.0
 97
0
 75
1
 76
1
 98
0
  0
LWPOLYLINE
  5
1A9
330
17
100
AcDbEntity
  8
WALL
100
AcDbPolyline
 90
4
 70
1
 10
8844.0
 20
4276.8
 10
8879.2
 20
4276.8
 10
8879.2
 20
4100.8
 10
8844.0
 20
4100.8
  0
HATCH
  5
1AA
330
17
100
AcDbEntity
  8
WALL
100
AcDbHatch
 10
0.0
 20
0.0
 30
0.0
210
0.0
220
0.0
230
1.0
  2
SOLID
 70
1
 71
0
 91
1
 92
3
 72
0
 73
1
 93
4
 10
8844.0
 20
4276.8
 10
8879.2
 20
4276.8
 10
8879.2
 20
4100.8
 10
8844.0
 20
4100.8
 97
0
 75
1
 76
1
 98
0
  0
LWPOLYLINE
  5
1AB
330
17
100
AcDbEntity
  8
WALL
100
AcDbPolyline
 90
4
 70
1
 10
7154.400000000001
 20
4136.0
 10
7189.6
 20
4136.0
 10
7189.6
 20
3924.8
 10
7154.400000000001
 20
3924.8
  0
HATCH
  5
1AC
330
17
100
AcDbEntity
  8
WALL
100
AcDbHatch
 10
0.0
 20
0.0
 30
0.0
210
0.0
220
0.0
230
1.0
  2
SOLID
 70
1
 71
0
 91
1
 92
3
 72
0
 73
1
 93
4
 10
7154.400000000001
 20
4136.0
 10
7189.6
 20
4136.0
 10
7189.6
 20
3924.8
 10
7154.400000000001
 20
3924.8
 97
0
 75
1
 76
1
 98
0
  0
LWPOLYLINE
  5
1AD
330
17
100
AcDbEntity
  8
WALL
100
AcDbPolyline
 90
4
 70
1
 10
7488.8
 20
4118.400000000001
 10
7524.000000000001
 20
4118.400000000001
 10
7524.000000000001
 20
3924.8
 10
7488.8
 20
3924.8
  0
HATCH
  5
1AE
330
17
100
AcDbEntity
  8
WALL
100
AcDbHatch
 10
0.0
 20
0.0
 30
0.0
210
0.0
220
0.0
230
1.0
  2
SOLID
 70
1
 71
0
 91
1
 92
3
 72
0
 73
1
 93
4
 10
7488.8
 20
4118.400000000001
 10
7524.000000000001
 20
4118.400000000001
 10
7524.000000000001
 20
3924.8
 10
7488.8
 20
3924.8
 97
0
 75
1
 76
1
 98
0
  0
LWPOLYLINE
  5
1AF
330
17
100
AcDbEntity
  8
WALL
100
AcDbPolyline
 90
4
 70
1
 10
8826.400000000001
 20
4083.2000000000003
 10
8861.6
 20
4083.2000000000003
 10
8861.6
 20
3713.6000000000004
 10
8826.400000000001
 20
3713.6000000000004
  0
HATCH
  5
1B0
330
17
100
AcDbEntity
  8
WALL
100
AcDbHatch
 10
0.0
 20
0.0
 30
0.0
210
0.0
220
0.0
230
1.0
  2
SOLID
 70
1
 71
0
 91
1
 92
3
 72
0
 73
1
 93
4
 10
8826.400000000001
 20
4083.2000000000003
 10
8861.6
 20
4083.2000000000003
 10
8861.6
 20
3713.6000000000004
 10
8826.400000000001
 20
3713.6000000000004
 97
0
 75
1
 76
1
 98
0
  0
LWPOLYLINE
  5
1B1
330
17
100
AcDbEntity
  8
WALL
100
AcDbPolyline
 90
4
 70
1
 10
3106.4
 20
4048.0000000000005
 10
3141.6000000000004
 20
4048.0000000000005
 10
3141.6000000000004
 20
3810.4
 10
3106.4
 20
3810.4
  0
HATCH
  5
1B2
330
17
100
AcDbEntity
  8
WALL
100
AcDbHatch
 10
0.0
 20
0.0
 30
0.0
210
0.0
220
0.0
230
1.0
  2
SOLID
 70
1
 71
0
 91
1
 92
3
 72
0
 73
1
 93
4
 10
3106.4
 20
4048.0000000000005
 10
3141.6000000000004
 20
4048.0000000000005
 10
3141.6000000000004
 20
3810.4
 10
3106.4
 20
3810.4
 97
0
 75
1
 76
1
 98
0
  0
LWPOLYLINE
  5
1B3
330
17
100
AcDbEntity
  8
WALL
100
AcDbPolyline
 90
4
 70
1
 10
5535.200000000001
 20
3968.8
 10
5570.400000000001
 20
3968.8
 10
5570.400000000001
 20
3784.0000000000005
 10
5535.200000000001
 20
3784.0000000000005
  0
HATCH
  5
1B4
330
17
100
AcDbEntity
  8
WALL
100
AcDbHatch
 10
0.0
 20
0.0
 30
0.0
210
0.0
220
0.0
230
1.0
  2
SOLID
 70
1
 71
0
 91
1
 92
3
 72
0
 73
1
 93
4
 10
5535.200000000001
 20
3968.8
 10
5570.400000000001
 20
3968.8
 10
5570.400000000001
 20
3784.0000000000005
 10
5535.200000000001
 20
3784.0000000000005
 97
0
 75
1
 76
1
 98
0
  0
LWPOLYLINE
  5
1B5
330
17
100
AcDbEntity
  8
WALL
100
AcDbPolyline
 90
4
 70
1
 10
1117.6000000000001
 20
3960.0000000000005
 10
1170.4
 20
3960.0000000000005
 10
1170.4
 20
2860.0000000000005
 10
1117.6000000000001
 20
2860.0000000000005
  0
HATCH
  5
1B6
330
17
100
AcDbEntity
  8
WALL
100
AcDbHatch
 10
0.0
 20
0.0
 30
0.0
210
0.0
220
0.0
230
1.0
  2
SOLID
 70
1
 71
0
 91
1
 92
3
 72
0
 73
1
 93
4
 10
1117.6000000000001
 20
3960.0000000000005
 10
1170.4
 20
3960.0000000000005
 10
1170.4
 20
2860.0000000000005
 10
1117.6000000000001
 20
2860.0000000000005
 97
0
 75
1
 76
1
 98
0
  0
LWPOLYLINE
  5
1B7
330
17
100
AcDbEntity
  8
WALL
100
AcDbPolyline
 90
4
 70
1
 10
7136.8
 20
3916.0000000000005
 10
7189.6
 20
3916.0000000000005
 10
7189.6
 20
2974.4
 10
7136.8
 20
2974.4
  0
HATCH
  5
1B8
330
17
100
AcDbEntity
  8
WALL
100
AcDbHatch
 10
0.0
 20
0.0
 30
0.0
210
0.0
220
0.0
230
1.0
  2
SOLID
 70
1
 71
0
 91
1
 92
3
 72
0
 73
1
 93
4
 10
7136.8
 20
3916.0000000000005
 10
7189.6
 20
3916.0000000000005
 10
7189.6
 20
2974.4
 10
7136.8
 20
2974.4
 97
0
 75
1
 76
1
 98
0
  0
LWPOLYLINE
  5
1B9
330
17
100
AcDbEntity
  8
WALL
100
AcDbPolyline
 90
4
 70
1
 10
5429.6
 20
3889.6000000000004
 10
5500.0
 20
3889.6000000000004
 10
5500.0
 20
3361.6000000000004
 10
5429.6
 20
3361.6000000000004
  0
HATCH
  5
1BA
330
17
100
AcDbEntity
  8
WALL
100
AcDbHatch
 10
0.0
 20
0.0
 30
0.0
210
0.0
220
0.0
230
1.0
  2
SOLID
 70
1
 71
0
 91
1
 92
3
 72
0
 73
1
 93
4
 10
5429.6
 20
3889.6000000000004
 10
5500.0
 20
3889.6000000000004
 10
5500.0
 20
3361.6000000000004
 10
5429.6
 20
3361.6000000000004
 97
0
 75
1
 76
1
 98
0
  0
LWPOLYLINE
  5
1BB
330
17
100
AcDbEntity
  8
WALL
100
AcDbPolyline
 90
4
 70
1
 10
9108.0
 20
3854.4
 10
9213.6
 20
3854.4
 10
9213.6
 20
3326.4
 10
9108.0
 20
3326.4
  0
HATCH
  5
1BC
330
17
100
AcDbEntity
  8
WALL
100
AcDbHatch
 10
0.0
 20
0.0
 30
0.0
210
0.0
220
0.0
230
1.0
  2
SOLID
 70
1
 71
0
 91
1
 92
3
 72
0
 73
1
 93
4
 10
9108.0
 20
3854.4
 10
9213.6
 20
3854.4
 10
9213.6
 20
3326.4
 10
9108.0
 20
3326.4
 97
0
 75
1
 76
1
 98
0
  0
LWPOLYLINE
  5
1BD
330
17
100
AcDbEntity
  8
WALL
100
AcDbPolyline
 90
4
 70
1
 10
7013.6
 20
3801.6000000000004
 10
7101.6
 20
3801.6000000000004
 10
7101.6
 20
2833.6000000000004
 10
7013.6
 20
2833.6000000000004
  0
HATCH
  5
1BE
330
17
100
AcDbEntity
  8
WALL
100
AcDbHatch
 10
0.0
 20
0.0
 30
0.0
210
0.0
220
0.0
230
1.0
  2
SOLID
 70
1
 71
0
 91
1
 92
3
 72
0
 73
1
 93
4
 10
7013.6
 20
3801.6000000000004
 10
7101.6
 20
3801.6000000000004
 10
7101.6
 20
2833.6000000000004
 10
7013.6
 20
2833.6000000000004
 97
0
 75
1
 76
1
 98
0
  0
LWPOLYLINE
  5
1BF
330
17
100
AcDbEntity
  8
WALL
100
AcDbPolyline
 90
4
 70
1
 10
5148.0
 20
3784.0000000000005
 10
5165.6
 20
3784.0000000000005
 10
5165.6
 20
3590.4
 10
5148.0
 20
3590.4
  0
HATCH
  5
1C0
330
17
100
AcDbEntity
  8
WALL
100
AcDbHatch
 10
0.0
 20
0.0
 30
0.0
210
0.0
220
0.0
230
1.0
  2
SOLID
 70
1
 71
0
 91
1
 92
3
 72
0
 73
1
 93
4
 10
5148.0
 20
3784.0000000000005
 10
5165.6
 20
3784.0000000000005
 10
5165.6
 20
3590.4
 10
5148.0
 20
3590.4
 97
0
 75
1
 76
1
 98
0
  0
LWPOLYLINE
  5
1C1
330
17
100
AcDbEntity
  8
WALL
100
AcDbPolyline
 90
4
 70
1
 10
5535.200000000001
 20
3757.6000000000004
 10
5588.0
 20
3757.6000000000004
 10
5588.0
 20
3203.2000000000003
 10
5535.200000000001
 20
3203.2000000000003
  0
HATCH
  5
1C2
330
17
100
AcDbEntity
  8
WALL
100
AcDbHatch
 10
0.0
 20
0.0
 30
0.0
210
0.0
220
0.0
230
1.0
  2
SOLID
 70
1
 71
0
 91
1
 92
3
 72
0
 73
1
 93
4
 10
5535.200000000001
 20
3757.6000000000004
 10
5588.0
 20
3757.6000000000004
 10
5588.0
 20
3203.2000000000003
 10
5535.200000000001
 20
3203.2000000000003
 97
0
 75
1
 76
1
 98
0
  0
LWPOLYLINE
  5
1C3
330
17
100
AcDbEntity
  8
WALL
100
AcDbPolyline
 90
4
 70
1
 10
4954.400000000001
 20
3740.0000000000005
 10
5077.6
 20
3740.0000000000005
 10
5077.6
 20
2886.4
 10
4954.400000000001
 20
2886.4
  0
HATCH
  5
1C4
330
17
100
AcDbEntity
  8
WALL
100
AcDbHatch
 10
0.0
 20
0.0
 30
0.0
210
0.0
220
0.0
230
1.0
  2
SOLID
 70
1
 71
0
 91
1
 92
3
 72
0
 73
1
 93
4
 10
4954.400000000001
 20
3740.0000000000005
 10
5077.6
 20
3740.0000000000005
 10
5077.6
 20
2886.4
 10
4954.400000000001
 20
2886.4
 97
0
 75
1
 76
1
 98
0
  0
LWPOLYLINE
  5
1C5
330
17
100
AcDbEntity
  8
WALL
100
AcDbPolyline
 90
4
 70
1
 10
5042.400000000001
 20
3740.0000000000005
 10
5077.6
 20
3740.0000000000005
 10
5077.6
 20
3273.6000000000004
 10
5042.400000000001
 20
3273.6000000000004
  0
HATCH
  5
1C6
330
17
100
AcDbEntity
  8
WALL
100
AcDbHatch
 10
0.0
 20
0.0
 30
0.0
210
0.0
220
0.0
230
1.0
  2
SOLID
 70
1
 71
0
 91
1
 92
3
 72
0
 73
1
 93
4
 10
5042.400000000001
 20
3740.0000000000005
 10
5077.6
 20
3740.0000000000005
 10
5077.6
 20
3273.6000000000004
 10
5042.400000000001
 20
3273.6000000000004
 97
0
 75
1
 76
1
 98
0
  0
LWPOLYLINE
  5
1C7
330
17
100
AcDbEntity
  8
WALL
100
AcDbPolyline
 90
4
 70
1
 10
6512.000000000001
 20
3608.0000000000005
 10
6538.400000000001
 20
3608.0000000000005
 10
6538.400000000001
 20
3449.6000000000004
 10
6512.000000000001
 20
3449.6000000000004
  0
HATCH
  5
1C8
330
17
100
AcDbEntity
  8
WALL
100
AcDbHatch
 10
0.0
 20
0.0
 30
0.0
210
0.0
220
0.0
230
1.0
  2
SOLID
 70
1
 71
0
 91
1
 92
3
 72
0
 73
1
 93
4
 10
6512.000000000001
 20
3608.0000000000005
 10
6538.400000000001
 20
3608.0000000000005
 10
6538.400000000001
 20
3449.6000000000004
 10
6512.000000000001
 20
3449.6000000000004
 97
0
 75
1
 76
1
 98
0
  0
LWPOLYLINE
  5
1C9
330
17
100
AcDbEntity
  8
WALL
100
AcDbPolyline
 90
4
 70
1
 10
5271.200000000001
 20
3432.0000000000005
 10
5324.0
 20
3432.0000000000005
 10
5324.0
 20
3220.8
 10
5271.200000000001
 20
3220.8
  0
HATCH
  5
1CA
330
17
100
AcDbEntity
  8
WALL
100
AcDbHatch
 10
0.0
 20
0.0
 30
0.0
210
0.0
220
0.0
230
1.0
  2
SOLID
 70
1
 71
0
 91
1
 92
3
 72
0
 73
1
 93
4
 10
5271.200000000001
 20
3432.0000000000005
 10
5324.0
 20
3432.0000000000005
 10
5324.0
 20
3220.8
 10
5271.200000000001
 20
3220.8
 97
0
 75
1
 76
1
 98
0
  0
LWPOLYLINE
  5
1CB
330
17
100
AcDbEntity
  8
WALL
100
AcDbPolyline
 90
4
 70
1
 10
8791.2
 20
3423.2000000000003
 10
8826.400000000001
 20
3423.2000000000003
 10
8826.400000000001
 20
3203.2000000000003
 10
8791.2
 20
3203.2000000000003
  0
HATCH
  5
1CC
330
17
100
AcDbEntity
  8
WALL
100
AcDbHatch
 10
0.0
 20
0.0
 30
0.0
210
0.0
220
0.0
230
1.0
  2
SOLID
 70
1
 71
0
 91
1
 92
3
 72
0
 73
1
 93
4
 10
8791.2
 20
3423.2000000000003
 10
8826.400000000001
 20
3423.2000000000003
 10
8826.400000000001
 20
3203.2000000000003
 10
8791.2
 20
3203.2000000000003
 97
0
 75
1
 76
1
 98
0
  0
LWPOLYLINE
  5
1CD
330
17
100
AcDbEntity
  8
WALL
100
AcDbPolyline
 90
4
 70
1
 10
6520.8
 20
3361.6000000000004
 10
6573.6
 20
3361.6000000000004
 10
6573.6
 20
3053.6000000000004
 10
6520.8
 20
3053.6000000000004
  0
HATCH
  5
1CE
330
17
100
AcDbEntity
  8
WALL
100
AcDbHatch
 10
0.0
 20
0.0
 30
0.0
210
0.0
220
0.0
230
1.0
  2
SOLID
 70
1
 71
0
 91
1
 92
3
 72
0
 73
1
 93
4
 10
6520.8
 20
3361.6000000000004
 10
6573.6
 20
3361.6000000000004
 10
6573.6
 20
3053.6000000000004
 10
6520.8
 20
3053.6000000000004
 97
0
 75
1
 76
1
 98
0
  0
LWPOLYLINE
  5
1CF
330
17
100
AcDbEntity
  8
WALL
100
AcDbPolyline
 90
4
 70
1
 10
9284.0
 20
3352.8
 10
9407.2
 20
3352.8
 10
9407.2
 20
3053.6000000000004
 10
9284.0
 20
3053.6000000000004
  0
HATCH
  5
1D0
330
17
100
AcDbEntity
  8
WALL
100
AcDbHatch
 10
0.0
 20
0.0
 30
0.0
210
0.0
220
0.0
230
1.0
  2
SOLID
 70
1
 71
0
 91
1
 92
3
 72
0
 73
1
 93
4
 10
9284.0
 20
3352.8
 10
9407.2
 20
3352.8
 10
9407.2
 20
3053.6000000000004
 10
9284.0
 20
3053.6000000000004
 97
0
 75
1
 76
1
 98
0
  0
LWPOLYLINE
  5
1D1
330
17
100
AcDbEntity
  8
WALL
100
AcDbPolyline
 90
4
 70
1
 10
5447.200000000001
 20
3326.4
 10
5482.400000000001
 20
3326.4
 10
5482.400000000001
 20
3132.8
 10
5447.200000000001
 20
3132.8
  0
HATCH
  5
1D2
330
17
100
AcDbEntity
  8
WALL
100
AcDbHatch
 10
0.0
 20
0.0
 30
0.0
210
0.0
220
0.0
230
1.0
  2
SOLID
 70
1
 71
0
 91
1
 92
3
 72
0
 73
1
 93
4
 10
5447.200000000001
 20
3326.4
 10
5482.400000000001
 20
3326.4
 10
5482.400000000001
 20
3132.8
 10
5447.200000000001
 20
3132.8
 97
0
 75
1
 76
1
 98
0
  0
LWPOLYLINE
  5
1D3
330
17
100
AcDbEntity
  8
WALL
100
AcDbPolyline
 90
4
 70
1
 10
976.8000000000001
 20
3159.2000000000003
 10
1012.0000000000001
 20
3159.2000000000003
 10
1012.0000000000001
 20
2833.6000000000004
 10
976.8000000000001
 20
2833.6000000000004
  0
HATCH
  5
1D4
330
17
100
AcDbEntity
  8
WALL
100
AcDbHatch
 10
0.0
 20
0.0
 30
0.0
210
0.0
220
0.0
230
1.0
  2
SOLID
 70
1
 71
0
 91
1
 92
3
 72
0
 73
1
 93
4
 10
976.8000000000001
 20
3159.2000000000003
 10
1012.0000000000001
 20
3159.2000000000003
 10
1012.0000000000001
 20
2833.6000000000004
 10
976.8000000000001
 20
2833.6000000000004
 97
0
 75
1
 76
1
 98
0
  0
LWPOLYLINE
  5
1D5
330
17
100
AcDbEntity
  8
WALL
100
AcDbPolyline
 90
4
 70
1
 10
1029.6000000000001
 20
3150.4
 10
1100.0
 20
3150.4
 10
1100.0
 20
2842.4
 10
1029.6000000000001
 20
2842.4
  0
HATCH
  5
1D6
330
17
100
AcDbEntity
  8
WALL
100
AcDbHatch
 10
0.0
 20
0.0
 30
0.0
210
0.0
220
0.0
230
1.0
  2
SOLID
 70
1
 71
0
 91
1
 92
3
 72
0
 73
1
 93
4
 10
1029.6000000000001
 20
3150.4
 10
1100.0
 20
3150.4
 10
1100.0
 20
2842.4
 10
1029.6000000000001
 20
2842.4
 97
0
 75
1
 76
1
 98
0
  0
LWPOLYLINE
  5
1D7
330
17
100
AcDbEntity
  8
WALL
100
AcDbPolyline
 90
4
 70
1
 10
5552.8
 20
3062.4
 10
5588.0
 20
3062.4
 10
5588.0
 20
2842.4
 10
5552.8
 20
2842.4
  0
HATCH
  5
1D8
330
17
100
AcDbEntity
  8
WALL
100
AcDbHatch
 10
0.0
 20
0.0
 30
0.0
210
0.0
220
0.0
230
1.0
  2
SOLID
 70
1
 71
0
 91
1
 92
3
 72
0
 73
1
 93
4
 10
5552.8
 20
3062.4
 10
5588.0
 20
3062.4
 10
5588.0
 20
2842.4
 10
5552.8
 20
2842.4
 97
0
 75
1
 76
1
 98
0
  0
LWPOLYLINE
  5
1D9
330
17
100
AcDbEntity
  8
WALL
100
AcDbPolyline
 90
4
 70
1
 10
6732.000000000001
 20
3062.4
 10
6767.200000000001
 20
3062.4
 10
6767.200000000001
 20
2833.6000000000004
 10
6732.000000000001
 20
2833.6000000000004
  0
HATCH
  5
1DA
330
17
100
AcDbEntity
  8
WALL
100
AcDbHatch
 10
0.0
 20
0.0
 30
0.0
210
0.0
220
0.0
230
1.0
  2
SOLID
 70
1
 71
0
 91
1
 92
3
 72
0
 73
1
 93
4
 10
6732.000000000001
 20
3062.4
 10
6767.200000000001
 20
3062.4
 10
6767.200000000001
 20
2833.6000000000004
 10
6732.000000000001
 20
2833.6000000000004
 97
0
 75
1
 76
1
 98
0
  0
LWPOLYLINE
  5
1DB
330
17
100
AcDbEntity
  8
WALL
100
AcDbPolyline
 90
4
 70
1
 10
4602.400000000001
 20
3036.0000000000005
 10
4637.6
 20
3036.0000000000005
 10
4637.6
 20
2851.2000000000003
 10
4602.400000000001
 20
2851.2000000000003
  0
HATCH
  5
1DC
330
17
100
AcDbEntity
  8
WALL
100
AcDbHatch
 10
0.0
 20
0.0
 30
0.0
210
0.0
220
0.0
230
1.0
  2
SOLID
 70
1
 71
0
 91
1
 92
3
 72
0
 73
1
 93
4
 10
4602.400000000001
 20
3036.0000000000005
 10
4637.6
 20
3036.0000000000005
 10
4637.6
 20
2851.2000000000003
 10
4602.400000000001
 20
2851.2000000000003
 97
0
 75
1
 76
1
 98
0
  0
LWPOLYLINE
  5
1DD
330
17
100
AcDbEntity
  8
WALL
100
AcDbPolyline
 90
4
 70
1
 10
5482.400000000001
 20
3027.2000000000003
 10
5517.6
 20
3027.2000000000003
 10
5517.6
 20
2842.4
 10
5482.400000000001
 20
2842.4
  0
HATCH
  5
1DE
330
17
100
AcDbEntity
  8
WALL
100
AcDbHatch
 10
0.0
 20
0.0
 30
0.0
210
0.0
220
0.0
230
1.0
  2
SOLID
 70
1
 71
0
 91
1
 92
3
 72
0
 73
1
 93
4
 10
5482.400000000001
 20
3027.2000000000003
 10
5517.6
 20
3027.2000000000003
 10
5517.6
 20
2842.4
 10
5482.400000000001
 20
2842.4
 97
0
 75
1
 76
1
 98
0
  0
LWPOLYLINE
  5
1DF
330
17
100
AcDbEntity
  8
WALL
100
AcDbPolyline
 90
4
 70
1
 10
7277.6
 20
3009.6000000000004
 10
7312.8
 20
3009.6000000000004
 10
7312.8
 20
2833.6000000000004
 10
7277.6
 20
2833.6000000000004
  0
HATCH
  5
1E0
330
17
100
AcDbEntity
  8
WALL
100
AcDbHatch
 10
0.0
 20
0.0
 30
0.0
210
0.0
220
0.0
230
1.0
  2
SOLID
 70
1
 71
0
 91
1
 92
3
 72
0
 73
1
 93
4
 10
7277.6
 20
3009.6000000000004
 10
7312.8
 20
3009.6000000000004
 10
7312.8
 20
2833.6000000000004
 10
7277.6
 20
2833.6000000000004
 97
0
 75
1
 76
1
 98
0
  0
LWPOLYLINE
  5
1E1
330
17
100
AcDbEntity
  8
WALL
100
AcDbPolyline
 90
4
 70
1
 10
3564.0000000000005
 20
2349.6000000000004
 10
3669.6000000000004
 20
2349.6000000000004
 10
3669.6000000000004
 20
1232.0
 10
3564.0000000000005
 20
1232.0
  0
HATCH
  5
1E2
330
17
100
AcDbEntity
  8
WALL
100
AcDbHatch
 10
0.0
 20
0.0
 30
0.0
210
0.0
220
0.0
230
1.0
  2
SOLID
 70
1
 71
0
 91
1
 92
3
 72
0
 73
1
 93
4
 10
3564.0000000000005
 20
2349.6000000000004
 10
3669.6000000000004
 20
2349.6000000000004
 10
3669.6000000000004
 20
1232.0
 10
3564.0000000000005
 20
1232.0
 97
0
 75
1
 76
1
 98
0
  0
LWPOLYLINE
  5
1E3
330
17
100
AcDbEntity
  8
WALL
100
AcDbPolyline
 90
4
 70
1
 10
976.8000000000001
 20
2164.8
 10
1012.0000000000001
 20
2164.8
 10
1012.0000000000001
 20
1742.4
 10
976.8000000000001
 20
1742.4
  0
HATCH
  5
1E4
330
17
100
AcDbEntity
  8
WALL
100
AcDbHatch
 10
0.0
 20
0.0
 30
0.0
210
0.0
220
0.0
230
1.0
  2
SOLID
 70
1
 71
0
 91
1
 92
3
 72
0
 73
1
 93
4
 10
976.8000000000001
 20
2164.8
 10
1012.0000000000001
 20
2164.8
 10
1012.0000000000001
 20
1742.4
 10
976.8000000000001
 20
1742.4
 97
0
 75
1
 76
1
 98
0
  0
LWPOLYLINE
  5
1E5
330
17
100
AcDbEntity
  8
WALL
100
AcDbPolyline
 90
4
 70
1
 10
994.4000000000001
 20
2164.8
 10
1100.0
 20
2164.8
 10
1100.0
 20
1302.4
 10
994.4000000000001
 20
1302.4
  0
HATCH
  5
1E6
330
17
100
AcDbEntity
  8
WALL
100
AcDbHatch
 10
0.0
 20
0.0
 30
0.0
210
0.0
220
0.0
230
1.0
  2
SOLID
 70
1
 71
0
 91
1
 92
3
 72
0
 73
1
 93
4
 10
994.4000000000001
 20
2164.8
 10
1100.0
 20
2164.8
 10
1100.0
 20
1302.4
 10
994.4000000000001
 20
1302.4
 97
0
 75
1
 76
1
 98
0
  0
LWPOLYLINE
  5
1E7
330
17
100
AcDbEntity
  8
WALL
100
AcDbPolyline
 90
4
 70
1
 10
1117.6000000000001
 20
2164.8
 10
1135.2
 20
2164.8
 10
1135.2
 20
2006.4
 10
1117.6000000000001
 20
2006.4
  0
HATCH
  5
1E8
330
17
100
AcDbEntity
  8
WALL
100
AcDbHatch
 10
0.0
 20
0.0
 30
0.0
210
0.0
220
0.0
230
1.0
  2
SOLID
 70
1
 71
0
 91
1
 92
3
 72
0
 73
1
 93
4
 10
1117.6000000000001
 20
2164.8
 10
1135.2
 20
2164.8
 10
1135.2
 20
2006.4
 10
1117.6000000000001
 20
2006.4
 97
0
 75
1
 76
1
 98
0
  0
LWPOLYLINE
  5
1E9
330
17
100
AcDbEntity
  8
WALL
100
AcDbPolyline
 90
4
 70
1
 10
3511.2000000000003
 20
2050.4
 10
3546.4
 20
2050.4
 10
3546.4
 20
1584.0000000000002
 10
3511.2000000000003
 20
1584.0000000000002
  0
HATCH
  5
1EA
330
17
100
AcDbEntity
  8
WALL
100
AcDbHatch
 10
0.0
 20
0.0
 30
0.0
210
0.0
220
0.0
230
1.0
  2
SOLID
 70
1
 71
0
 91
1
 92
3
 72
0
 73
1
 93
4
 10
3511.2000000000003
 20
2050.4
 10
3546.4
 20
2050.4
 10
3546.4
 20
1584.0000000000002
 10
3511.2000000000003
 20
1584.0000000000002
 97
0
 75
1
 76
1
 98
0
  0
LWPOLYLINE
  5
1EB
330
17
100
AcDbEntity
  8
WALL
100
AcDbPolyline
 90
4
 70
1
 10
1962.4
 20
1936.0000000000002
 10
2050.4
 20
1936.0000000000002
 10
2050.4
 20
1434.4
 10
1962.4
 20
1434.4
  0
HATCH
  5
1EC
330
17
100
AcDbEntity
  8
WALL
100
AcDbHatch
 10
0.0
 20
0.0
 30
0.0
210
0.0
220
0.0
230
1.0
  2
SOLID
 70
1
 71
0
 91
1
 92
3
 72
0
 73
1
 93
4
 10
1962.4
 20
1936.0000000000002
 10
2050.4
 20
1936.0000000000002
 10
2050.4
 20
1434.4
 10
1962.4
 20
1434.4
 97
0
 75
1
 76
1
 98
0
  0
LWPOLYLINE
  5
1ED
330
17
100
AcDbEntity
  8
WALL
100
AcDbPolyline
 90
4
 70
1
 10
5429.6
 20
1557.6000000000001
 10
5464.8
 20
1557.6000000000001
 10
5464.8
 20
1355.2
 10
5429.6
 20
1355.2
  0
HATCH
  5
1EE
330
17
100
AcDbEntity
  8
WALL
100
AcDbHatch
 10
0.0
 20
0.0
 30
0.0
210
0.0
220
0.0
230
1.0
  2
SOLID
 70
1
 71
0
 91
1
 92
3
 72
0
 73
1
 93
4
 10
5429.6
 20
1557.6000000000001
 10
5464.8
 20
1557.6000000000001
 10
5464.8
 20
1355.2
 10
5429.6
 20
1355.2
 97
0
 75
1
 76
1
 98
0
  0
LWPOLYLINE
  5
1EF
330
17
100
AcDbEntity
  8
WALL
100
AcDbPolyline
 90
4
 70
1
 10
1170.4
 20
1425.6000000000001
 10
1223.2
 20
1425.6000000000001
 10
1223.2
 20
1249.6000000000001
 10
1170.4
 20
1249.6000000000001
  0
HATCH
  5
1F0
330
17
100
AcDbEntity
  8
WALL
100
AcDbHatch
 10
0.0
 20
0.0
 30
0.0
210
0.0
220
0.0
230
1.0
  2
SOLID
 70
1
 71
0
 91
1
 92
3
 72
0
 73
1
 93
4
 10
1170.4
 20
1425.6000000000001
 10
1223.2
 20
1425.6000000000001
 10
1223.2
 20
1249.6000000000001
 10
1170.4
 20
1249.6000000000001
 97
0
 75
1
 76
1
 98
0
  0
LWPOLYLINE
  5
1F1
330
17
100
AcDbEntity
  8
WALL
100
AcDbPolyline
 90
4
 70
1
 10
1293.6000000000001
 20
1425.6000000000001
 10
1328.8000000000002
 20
1425.6000000000001
 10
1328.8000000000002
 20
1249.6000000000001
 10
1293.6000000000001
 20
1249.6000000000001
  0
HATCH
  5
1F2
330
17
100
AcDbEntity
  8
WALL
100
AcDbHatch
 10
0.0
 20
0.0
 30
0.0
210
0.0
220
0.0
230
1.0
  2
SOLID
 70
1
 71
0
 91
1
 92
3
 72
0
 73
1
 93
4
 10
1293.6000000000001
 20
1425.6000000000001
 10
1328.8000000000002
 20
1425.6000000000001
 10
1328.8000000000002
 20
1249.6000000000001
 10
1293.6000000000001
 20
1249.6000000000001
 97
0
 75
1
 76
1
 98
0
  0
LWPOLYLINE
  5
1F3
330
17
100
AcDbEntity
  8
WALL
100
AcDbPolyline
 90
4
 70
1
 10
1416.8000000000002
 20
1425.6000000000001
 10
1469.6000000000001
 20
1425.6000000000001
 10
1469.6000000000001
 20
1249.6000000000001
 10
1416.8000000000002
 20
1249.6000000000001
  0
HATCH
  5
1F4
330
17
100
AcDbEntity
  8
WALL
100
AcDbHatch
 10
0.0
 20
0.0
 30
0.0
210
0.0
220
0.0
230
1.0
  2
SOLID
 70
1
 71
0
 91
1
 92
3
 72
0
 73
1
 93
4
 10
1416.8000000000002
 20
1425.6000000000001
 10
1469.6000000000001
 20
1425.6000000000001
 10
1469.6000000000001
 20
1249.6000000000001
 10
1416.8000000000002
 20
1249.6000000000001
 97
0
 75
1
 76
1
 98
0
  0
LWPOLYLINE
  5
1F5
330
17
100
AcDbEntity
  8
WALL
100
AcDbPolyline
 90
4
 70
1
 10
1786.4
 20
1425.6000000000001
 10
1804.0000000000002
 20
1425.6000000000001
 10
1804.0000000000002
 20
1249.6000000000001
 10
1786.4
 20
1249.6000000000001
  0
HATCH
  5
1F6
330
17
100
AcDbEntity
  8
WALL
100
AcDbHatch
 10
0.0
 20
0.0
 30
0.0
210
0.0
220
0.0
230
1.0
  2
SOLID
 70
1
 71
0
 91
1
 92
3
 72
0
 73
1
 93
4
 10
1786.4
 20
1425.6000000000001
 10
1804.0000000000002
 20
1425.6000000000001
 10
1804.0000000000002
 20
1249.6000000000001
 10
1786.4
 20
1249.6000000000001
 97
0
 75
1
 76
1
 98
0
  0
LWPOLYLINE
  5
1F7
330
17
100
AcDbEntity
  8
WALL
100
AcDbPolyline
 90
4
 70
1
 10
4215.200000000001
 20
1408.0
 10
4232.8
 20
1408.0
 10
4232.8
 20
1223.2
 10
4215.200000000001
 20
1223.2
  0
HATCH
  5
1F8
330
17
100
AcDbEntity
  8
WALL
100
AcDbHatch
 10
0.0
 20
0.0
 30
0.0
210
0.0
220
0.0
230
1.0
  2
SOLID
 70
1
 71
0
 91
1
 92
3
 72
0
 73
1
 93
4
 10
4215.200000000001
 20
1408.0
 10
4232.8
 20
1408.0
 10
4232.8
 20
1223.2
 10
4215.200000000001
 20
1223.2
 97
0
 75
1
 76
1
 98
0
  0
LWPOLYLINE
  5
1F9
330
17
100
AcDbEntity
  8
WALL
100
AcDbPolyline
 90
4
 70
1
 10
4910.400000000001
 20
1346.4
 10
4936.8
 20
1346.4
 10
4936.8
 20
1179.2
 10
4910.400000000001
 20
1179.2
  0
HATCH
  5
1FA
330
17
100
AcDbEntity
  8
WALL
100
AcDbHatch
 10
0.0
 20
0.0
 30
0.0
210
0.0
220
0.0
230
1.0
  2
SOLID
 70
1
 71
0
 91
1
 92
3
 72
0
 73
1
 93
4
 10
4910.400000000001
 20
1346.4
 10
4936.8
 20
1346.4
 10
4936.8
 20
1179.2
 10
4910.400000000001
 20
1179.2
 97
0
 75
1
 76
1
 98
0
  0
LWPOLYLINE
  5
1FB
330
17
100
AcDbEntity
  8
WALL
100
AcDbPolyline
 90
4
 70
1
 10
4127.200000000001
 20
1267.2
 10
4180.0
 20
1267.2
 10
4180.0
 20
1091.2
 10
4127.200000000001
 20
1091.2
  0
HATCH
  5
1FC
330
17
100
AcDbEntity
  8
WALL
100
AcDbHatch
 10
0.0
 20
0.0
 30
0.0
210
0.0
220
0.0
230
1.0
  2
SOLID
 70
1
 71
0
 91
1
 92
3
 72
0
 73
1
 93
4
 10
4127.200000000001
 20
1267.2
 10
4180.0
 20
1267.2
 10
4180.0
 20
1091.2
 10
4127.200000000001
 20
1091.2
 97
0
 75
1
 76
1
 98
0
  0
LWPOLYLINE
  5
1FD
330
17
100
AcDbEntity
  8
WALL
100
AcDbPolyline
 90
4
 70
1
 10
624.8000000000001
 20
1020.8000000000001
 10
660.0
 20
1020.8000000000001
 10
660.0
 20
844.8000000000001
 10
624.8000000000001
 20
844.8000000000001
  0
HATCH
  5
1FE
330
17
100
AcDbEntity
  8
WALL
100
AcDbHatch
 10
0.0
 20
0.0
 30
0.0
210
0.0
220
0.0
230
1.0
  2
SOLID
 70
1
 71
0
 91
1
 92
3
 72
0
 73
1
 93
4
 10
624.8000000000001
 20
1020.8000000000001
 10
660.0
 20
1020.8000000000001
 10
660.0
 20
844.8000000000001
 10
624.8000000000001
 20
844.8000000000001
 97
0
 75
1
 76
1
 98
0
  0
LWPOLYLINE
  5
1FF
330
17
100
AcDbEntity
  8
WALL
100
AcDbPolyline
 90
4
 70
1
 10
3229.6000000000004
 20
836.0000000000001
 10
3264.8
 20
836.0000000000001
 10
3264.8
 20
554.4000000000001
 10
3229.6000000000004
 20
554.4000000000001
  0
HATCH
  5
200
330
17
100
AcDbEntity
  8
WALL
100
AcDbHatch
 10
0.0
 20
0.0
 30
0.0
210
0.0
220
0.0
230
1.0
  2
SOLID
 70
1
 71
0
 91
1
 92
3
 72
0
 73
1
 93
4
 10
3229.6000000000004
 20
836.0000000000001
 10
3264.8
 20
836.0000000000001
 10
3264.8
 20
554.4000000000001
 10
3229.6000000000004
 20
554.4000000000001
 97
0
 75
1
 76
1
 98
0
  0
LWPOLYLINE
  5
201
330
17
100
AcDbEntity
  8
WALL
100
AcDbPolyline
 90
4
 70
1
 10
3282.4
 20
844.8000000000001
 10
3352.8
 20
844.8000000000001
 10
3352.8
 20
554.4000000000001
 10
3282.4
 20
554.4000000000001
  0
HATCH
  5
202
330
17
100
AcDbEntity
  8
WALL
100
AcDbHatch
 10
0.0
 20
0.0
 30
0.0
210
0.0
220
0.0
230
1.0
  2
SOLID
 70
1
 71
0
 91
1
 92
3
 72
0
 73
1
 93
4
 10
3282.4
 20
844.8000000000001
 10
3352.8
 20
844.8000000000001
 10
3352.8
 20
554.4000000000001
 10
3282.4
 20
554.4000000000001
 97
0
 75
1
 76
1
 98
0
  0
LWPOLYLINE
  5
203
330
17
100
AcDbEntity
  8
WALL
100
AcDbPolyline
 90
4
 70
1
 10
3370.4
 20
844.8000000000001
 10
3405.6000000000004
 20
844.8000000000001
 10
3405.6000000000004
 20
528.0
 10
3370.4
 20
528.0
  0
HATCH
  5
204
330
17
100
AcDbEntity
  8
WALL
100
AcDbHatch
 10
0.0
 20
0.0
 30
0.0
210
0.0
220
0.0
230
1.0
  2
SOLID
 70
1
 71
0
 91
1
 92
3
 72
0
 73
1
 93
4
 10
3370.4
 20
844.8000000000001
 10
3405.6000000000004
 20
844.8000000000001
 10
3405.6000000000004
 20
528.0
 10
3370.4
 20
528.0
 97
0
 75
1
 76
1
 98
0
  0
LWPOLYLINE
  5
205
330
17
100
AcDbEntity
  8
WALL
100
AcDbPolyline
 90
4
 70
1
 10
4092.0000000000005
 20
554.4000000000001
 10
4180.0
 20
554.4000000000001
 10
4180.0
 20
343.20000000000005
 10
4092.0000000000005
 20
343.20000000000005
  0
HATCH
  5
206
330
17
100
AcDbEntity
  8
WALL
100
AcDbHatch
 10
0.0
 20
0.0
 30
0.0
210
0.0
220
0.0
230
1.0
  2
SOLID
 70
1
 71
0
 91
1
 92
3
 72
0
 73
1
 93
4
 10
4092.0000000000005
 20
554.4000000000001
 10
4180.0
 20
554.4000000000001
 10
4180.0
 20
343.20000000000005
 10
4092.0000000000005
 20
343.20000000000005
 97
0
 75
1
 76
1
 98
0
  0
LWPOLYLINE
  5
207
330
17
100
AcDbEntity
  8
WALL
100
AcDbPolyline
 90
4
 70
1
 10
642.4000000000001
 20
334.40000000000003
 10
677.6
 20
334.40000000000003
 10
677.6
 20
140.8
 10
642.4000000000001
 20
140.8
  0
HATCH
  5
208
330
17
100
AcDbEntity
  8
WALL
100
AcDbHatch
 10
0.0
 20
0.0
 30
0.0
210
0.0
220
0.0
230
1.0
  2
SOLID
 70
1
 71
0
 91
1
 92
3
 72
0
 73
1
 93
4
 10
642.4000000000001
 20
334.40000000000003
 10
677.6
 20
334.40000000000003
 10
677.6
 20
140.8
 10
642.4000000000001
 20
140.8
 97
0
 75
1
 76
1
 98
0
  0
LINE
  5
209
330
17
100
AcDbEntity
  8
WINDOW
100
AcDbLine
 10
6952.000000000001
 20
8386.400000000001
 30
0.0
 11
7022.400000000001
 21
8386.400000000001
 31
0.0
  0
LINE
  5
20A
330
17
100
AcDbEntity
  8
WINDOW
100
AcDbLine
 10
6952.000000000001
 20
8345.333333333334
 30
0.0
 11
7022.400000000001
 21
8345.333333333334
 31
0.0
  0
LINE
  5
20B
330
17
100
AcDbEntity
  8
WINDOW
100
AcDbLine
 10
6952.000000000001
 20
8304.266666666666
 30
0.0
 11
7022.400000000001
 21
8304.266666666666
 31
0.0
  0
LINE
  5
20C
330
17
100
AcDbEntity
  8
WINDOW
100
AcDbLine
 10
6952.000000000001
 20
8263.2
 30
0.0
 11
7022.400000000001
 21
8263.2
 31
0.0
  0
LINE
  5
20D
330
17
100
AcDbEntity
  8
WINDOW
100
AcDbLine
 10
6952.000000000001
 20
8386.400000000001
 30
0.0
 11
6952.000000000001
 21
8263.2
 31
0.0
  0
LINE
  5
20E
330
17
100
AcDbEntity
  8
WINDOW
100
AcDbLine
 10
7022.400000000001
 20
8386.400000000001
 30
0.0
 11
7022.400000000001
 21
8263.2
 31
0.0
  0
LINE
  5
20F
330
17
100
AcDbEntity
  8
WINDOW
100
AcDbLine
 10
2657.6000000000004
 20
5975.200000000001
 30
0.0
 11
3027.2000000000003
 21
5975.200000000001
 31
0.0
  0
LINE
  5
210
330
17
100
AcDbEntity
  8
WINDOW
100
AcDbLine
 10
2657.6000000000004
 20
5957.6
 30
0.0
 11
3027.2000000000003
 21
5957.6
 31
0.0
  0
LINE
  5
211
330
17
100
AcDbEntity
  8
WINDOW
100
AcDbLine
 10
2657.6000000000004
 20
5940.000000000001
 30
0.0
 11
3027.2000000000003
 21
5940.000000000001
 31
0.0
  0
LINE
  5
212
330
17
100
AcDbEntity
  8
WINDOW
100
AcDbLine
 10
2657.6000000000004
 20
5922.400000000001
 30
0.0
 11
3027.2000000000003
 21
5922.400000000001
 31
0.0
  0
LINE
  5
213
330
17
100
AcDbEntity
  8
WINDOW
100
AcDbLine
 10
2657.6000000000004
 20
5975.200000000001
 30
0.0
 11
2657.6000000000004
 21
5922.400000000001
 31
0.0
  0
LINE
  5
214
330
17
100
AcDbEntity
  8
WINDOW
100
AcDbLine
 10
3027.2000000000003
 20
5975.200000000001
 30
0.0
 11
3027.2000000000003
 21
5922.400000000001
 31
0.0
  0
LINE
  5
215
330
17
100
AcDbEntity
  8
WINDOW
100
AcDbLine
 10
4100.8
 20
5482.400000000001
 30
0.0
 11
4276.8
 21
5482.400000000001
 31
0.0
  0
LINE
  5
216
330
17
100
AcDbEntity
  8
WINDOW
100
AcDbLine
 10
4100.8
 20
5464.8
 30
0.0
 11
4276.8
 21
5464.8
 31
0.0
  0
LINE
  5
217
330
17
100
AcDbEntity
  8
WINDOW
100
AcDbLine
 10
4100.8
 20
5447.200000000001
 30
0.0
 11
4276.8
 21
5447.200000000001
 31
0.0
  0
LINE
  5
218
330
17
100
AcDbEntity
  8
WINDOW
100
AcDbLine
 10
4100.8
 20
5429.6
 30
0.0
 11
4276.8
 21
5429.6
 31
0.0
  0
LINE
  5
219
330
17
100
AcDbEntity
  8
WINDOW
100
AcDbLine
 10
4100.8
 20
5482.400000000001
 30
0.0
 11
4100.8
 21
5429.6
 31
0.0
  0
LINE
  5
21A
330
17
100
AcDbEntity
  8
WINDOW
100
AcDbLine
 10
4276.8
 20
5482.400000000001
 30
0.0
 11
4276.8
 21
5429.6
 31
0.0
  0
LINE
  5
21B
330
17
100
AcDbEntity
  8
WINDOW
100
AcDbLine
 10
6652.8
 20
5456.0
 30
0.0
 11
6969.6
 21
5456.0
 31
0.0
  0
LINE
  5
21C
330
17
100
AcDbEntity
  8
WINDOW
100
AcDbLine
 10
6652.8
 20
5441.333333333333
 30
0.0
 11
6969.6
 21
5441.333333333333
 31
0.0
  0
LINE
  5
21D
330
17
100
AcDbEntity
  8
WINDOW
100
AcDbLine
 10
6652.8
 20
5426.666666666668
 30
0.0
 11
6969.6
 21
5426.666666666668
 31
0.0
  0
LINE
  5
21E
330
17
100
AcDbEntity
  8
WINDOW
100
AcDbLine
 10
6652.8
 20
5412.0
 30
0.0
 11
6969.6
 21
5412.0
 31
0.0
  0
LINE
  5
21F
330
17
100
AcDbEntity
  8
WINDOW
100
AcDbLine
 10
6652.8
 20
5456.0
 30
0.0
 11
6652.8
 21
5412.0
 31
0.0
  0
LINE
  5
220
330
17
100
AcDbEntity
  8
WINDOW
100
AcDbLine
 10
6969.6
 20
5456.0
 30
0.0
 11
6969.6
 21
5412.0
 31
0.0
  0
LINE
  5
221
330
17
100
AcDbEntity
  8
WINDOW
100
AcDbLine
 10
8236.800000000001
 20
5464.8
 30
0.0
 11
8289.6
 21
5464.8
 31
0.0
  0
LINE
  5
222
330
17
100
AcDbEntity
  8
WINDOW
100
AcDbLine
 10
8236.800000000001
 20
5447.200000000001
 30
0.0
 11
8289.6
 21
5447.200000000001
 31
0.0
  0
LINE
  5
223
330
17
100
AcDbEntity
  8
WINDOW
100
AcDbLine
 10
8236.800000000001
 20
5429.6
 30
0.0
 11
8289.6
 21
5429.6
 31
0.0
  0
LINE
  5
224
330
17
100
AcDbEntity
  8
WINDOW
100
AcDbLine
 10
8236.800000000001
 20
5412.0
 30
0.0
 11
8289.6
 21
5412.0
 31
0.0
  0
LINE
  5
225
330
17
100
AcDbEntity
  8
WINDOW
100
AcDbLine
 10
8236.800000000001
 20
5464.8
 30
0.0
 11
8236.800000000001
 21
5412.0
 31
0.0
  0
LINE
  5
226
330
17
100
AcDbEntity
  8
WINDOW
100
AcDbLine
 10
8289.6
 20
5464.8
 30
0.0
 11
8289.6
 21
5412.0
 31
0.0
  0
LINE
  5
227
330
17
100
AcDbEntity
  8
WINDOW
100
AcDbLine
 10
2217.6000000000004
 20
3581.6000000000004
 30
0.0
 11
2481.6000000000004
 21
3581.6000000000004
 31
0.0
  0
LINE
  5
228
330
17
100
AcDbEntity
  8
WINDOW
100
AcDbLine
 10
2217.6000000000004
 20
3564.0000000000005
 30
0.0
 11
2481.6000000000004
 21
3564.0000000000005
 31
0.0
  0
LINE
  5
229
330
17
100
AcDbEntity
  8
WINDOW
100
AcDbLine
 10
2217.6000000000004
 20
3546.4
 30
0.0
 11
2481.6000000000004
 21
3546.4
 31
0.0
  0
LINE
  5
22A
330
17
100
AcDbEntity
  8
WINDOW
100
AcDbLine
 10
2217.6000000000004
 20
3528.8
 30
0.0
 11
2481.6000000000004
 21
3528.8
 31
0.0
  0
LINE
  5
22B
330
17
100
AcDbEntity
  8
WINDOW
100
AcDbLine
 10
2217.6000000000004
 20
3581.6000000000004
 30
0.0
 11
2217.6000000000004
 21
3528.8
 31
0.0
  0
LINE
  5
22C
330
17
100
AcDbEntity
  8
WINDOW
100
AcDbLine
 10
2481.6000000000004
 20
3581.6000000000004
 30
0.0
 11
2481.6000000000004
 21
3528.8
 31
0.0
  0
LINE
  5
22D
330
17
100
AcDbEntity
  8
WINDOW
100
AcDbLine
 10
8694.400000000001
 20
3159.2000000000003
 30
0.0
 11
9046.400000000001
 21
3159.2000000000003
 31
0.0
  0
LINE
  5
22E
330
17
100
AcDbEntity
  8
WINDOW
100
AcDbLine
 10
8694.400000000001
 20
3141.6000000000004
 30
0.0
 11
9046.400000000001
 21
3141.6000000000004
 31
0.0
  0
LINE
  5
22F
330
17
100
AcDbEntity
  8
WINDOW
100
AcDbLine
 10
8694.400000000001
 20
3124.0000000000005
 30
0.0
 11
9046.400000000001
 21
3124.0000000000005
 31
0.0
  0
LINE
  5
230
330
17
100
AcDbEntity
  8
WINDOW
100
AcDbLine
 10
8694.400000000001
 20
3106.4
 30
0.0
 11
9046.400000000001
 21
3106.4
 31
0.0
  0
LINE
  5
231
330
17
100
AcDbEntity
  8
WINDOW
100
AcDbLine
 10
8694.400000000001
 20
3159.2000000000003
 30
0.0
 11
8694.400000000001
 21
3106.4
 31
0.0
  0
LINE
  5
232
330
17
100
AcDbEntity
  8
WINDOW
100
AcDbLine
 10
9046.400000000001
 20
3159.2000000000003
 30
0.0
 11
9046.400000000001
 21
3106.4
 31
0.0
  0
LINE
  5
233
330
17
100
AcDbEntity
  8
WINDOW
100
AcDbLine
 10
3511.2000000000003
 20
3036.0000000000005
 30
0.0
 11
4470.400000000001
 21
3036.0000000000005
 31
0.0
  0
LINE
  5
234
330
17
100
AcDbEntity
  8
WINDOW
100
AcDbLine
 10
3511.2000000000003
 20
3018.4
 30
0.0
 11
4470.400000000001
 21
3018.4
 31
0.0
  0
LINE
  5
235
330
17
100
AcDbEntity
  8
WINDOW
100
AcDbLine
 10
3511.2000000000003
 20
3000.8
 30
0.0
 11
4470.400000000001
 21
3000.8
 31
0.0
  0
LINE
  5
236
330
17
100
AcDbEntity
  8
WINDOW
100
AcDbLine
 10
3511.2000000000003
 20
2983.2000000000003
 30
0.0
 11
4470.400000000001
 21
2983.2000000000003
 31
0.0
  0
LINE
  5
237
330
17
100
AcDbEntity
  8
WINDOW
100
AcDbLine
 10
3511.2000000000003
 20
3036.0000000000005
 30
0.0
 11
3511.2000000000003
 21
2983.2000000000003
 31
0.0
  0
LINE
  5
238
330
17
100
AcDbEntity
  8
WINDOW
100
AcDbLine
 10
4470.400000000001
 20
3036.0000000000005
 30
0.0
 11
4470.400000000001
 21
2983.2000000000003
 31
0.0
  0
LINE
  5
239
330
17
100
AcDbEntity
  8
WINDOW
100
AcDbLine
 10
3027.2000000000003
 20
1443.2
 30
0.0
 11
3238.4
 21
1443.2
 31
0.0
  0
LINE
  5
23A
330
17
100
AcDbEntity
  8
WINDOW
100
AcDbLine
 10
3027.2000000000003
 20
1428.5333333333338
 30
0.0
 11
3238.4
 21
1428.5333333333338
 31
0.0
  0
LINE
  5
23B
330
17
100
AcDbEntity
  8
WINDOW
100
AcDbLine
 10
3027.2000000000003
 20
1413.8666666666666
 30
0.0
 11
3238.4
 21
1413.8666666666666
 31
0.0
  0
LINE
  5
23C
330
17
100
AcDbEntity
  8
WINDOW
100
AcDbLine
 10
3027.2000000000003
 20
1399.2
 30
0.0
 11
3238.4
 21
1399.2
 31
0.0
  0
LINE
  5
23D
330
17
100
AcDbEntity
  8
WINDOW
100
AcDbLine
 10
3027.2000000000003
 20
1443.2
 30
0.0
 11
3027.2000000000003
 21
1399.2
 31
0.0
  0
LINE
  5
23E
330
17
100
AcDbEntity
  8
WINDOW
100
AcDbLine
 10
3238.4
 20
1443.2
 30
0.0
 11
3238.4
 21
1399.2
 31
0.0
  0
LINE
  5
23F
330
17
100
AcDbEntity
  8
WINDOW
100
AcDbLine
 10
1117.6000000000001
 20
2006.4
 30
0.0
 11
1117.6000000000001
 21
1425.6000000000001
 31
0.0
  0
LINE
  5
240
330
17
100
AcDbEntity
  8
WINDOW
100
AcDbLine
 10
1152.8000000000002
 20
2006.4
 30
0.0
 11
1152.8000000000002
 21
1425.6000000000001
 31
0.0
  0
LINE
  5
241
330
17
100
AcDbEntity
  8
WINDOW
100
AcDbLine
 10
1188.0
 20
2006.4
 30
0.0
 11
1188.0
 21
1425.6000000000001
 31
0.0
  0
LINE
  5
242
330
17
100
AcDbEntity
  8
WINDOW
100
AcDbLine
 10
1223.2
 20
2006.4
 30
0.0
 11
1223.2
 21
1425.6000000000001
 31
0.0
  0
LINE
  5
243
330
17
100
AcDbEntity
  8
WINDOW
100
AcDbLine
 10
1117.6000000000001
 20
2006.4
 30
0.0
 11
1223.2
 21
2006.4
 31
0.0
  0
LINE
  5
244
330
17
100
AcDbEntity
  8
WINDOW
100
AcDbLine
 10
1117.6000000000001
 20
1425.6000000000001
 30
0.0
 11
1223.2
 21
1425.6000000000001
 31
0.0
  0
LINE
  5
245
330
17
100
AcDbEntity
  8
WINDOW
100
AcDbLine
 10
5535.200000000001
 20
3203.2000000000003
 30
0.0
 11
5535.200000000001
 21
3062.4
 31
0.0
  0
LINE
  5
246
330
17
100
AcDbEntity
  8
WINDOW
100
AcDbLine
 10
5552.8
 20
3203.2000000000003
 30
0.0
 11
5552.8
 21
3062.4
 31
0.0
  0
LINE
  5
247
330
17
100
AcDbEntity
  8
WINDOW
100
AcDbLine
 10
5570.400000000001
 20
3203.2000000000003
 30
0.0
 11
5570.400000000001
 21
3062.4
 31
0.0
  0
LINE
  5
248
330
17
100
AcDbEntity
  8
WINDOW
100
AcDbLine
 10
5588.0
 20
3203.2000000000003
 30
0.0
 11
5588.0
 21
3062.4
 31
0.0
  0
LINE
  5
249
330
17
100
AcDbEntity
  8
WINDOW
100
AcDbLine
 10
5535.200000000001
 20
3203.2000000000003
 30
0.0
 11
5588.0
 21
3203.2000000000003
 31
0.0
  0
LINE
  5
24A
330
17
100
AcDbEntity
  8
WINDOW
100
AcDbLine
 10
5535.200000000001
 20
3062.4
 30
0.0
 11
5588.0
 21
3062.4
 31
0.0
  0
LINE
  5
24B
330
17
100
AcDbEntity
  8
WINDOW
100
AcDbLine
 10
6010.400000000001
 20
7796.8
 30
0.0
 11
6010.400000000001
 21
7603.200000000001
 31
0.0
  0
LINE
  5
24C
330
17
100
AcDbEntity
  8
WINDOW
100
AcDbLine
 10
6028.000000000001
 20
7796.8
 30
0.0
 11
6028.000000000001
 21
7603.200000000001
 31
0.0
  0
LINE
  5
24D
330
17
100
AcDbEntity
  8
WINDOW
100
AcDbLine
 10
6045.6
 20
7796.8
 30
0.0
 11
6045.6
 21
7603.200000000001
 31
0.0
  0
LINE
  5
24E
330
17
100
AcDbEntity
  8
WINDOW
100
AcDbLine
 10
6063.200000000001
 20
7796.8
 30
0.0
 11
6063.200000000001
 21
7603.200000000001
 31
0.0
  0
LINE
  5
24F
330
17
100
AcDbEntity
  8
WINDOW
100
AcDbLine
 10
6010.400000000001
 20
7796.8
 30
0.0
 11
6063.200000000001
 21
7796.8
 31
0.0
  0
LINE
  5
250
330
17
100
AcDbEntity
  8
WINDOW
100
AcDbLine
 10
6010.400000000001
 20
7603.200000000001
 30
0.0
 11
6063.200000000001
 21
7603.200000000001
 31
0.0
  0
LINE
  5
251
330
17
100
AcDbEntity
  8
WINDOW
100
AcDbLine
 10
6476.8
 20
5860.8
 30
0.0
 11
6476.8
 21
5535.200000000001
 31
0.0
  0
LINE
  5
252
330
17
100
AcDbEntity
  8
WINDOW
100
AcDbLine
 10
6503.200000000001
 20
5860.8
 30
0.0
 11
6503.200000000001
 21
5535.200000000001
 31
0.0
  0
LINE
  5
253
330
17
100
AcDbEntity
  8
WINDOW
100
AcDbLine
 10
6529.6
 20
5860.8
 30
0.0
 11
6529.6
 21
5535.200000000001
 31
0.0
  0
LINE
  5
254
330
17
100
AcDbEntity
  8
WINDOW
100
AcDbLine
 10
6556.000000000001
 20
5860.8
 30
0.0
 11
6556.000000000001
 21
5535.200000000001
 31
0.0
  0
LINE
  5
255
330
17
100
AcDbEntity
  8
WINDOW
100
AcDbLine
 10
6476.8
 20
5860.8
 30
0.0
 11
6556.000000000001
 21
5860.8
 31
0.0
  0
LINE
  5
256
330
17
100
AcDbEntity
  8
WINDOW
100
AcDbLine
 10
6476.8
 20
5535.200000000001
 30
0.0
 11
6556.000000000001
 21
5535.200000000001
 31
0.0
  0
LINE
  5
257
330
17
100
AcDbEntity
  8
WINDOW
100
AcDbLine
 10
6485.6
 20
3748.8
 30
0.0
 11
6485.6
 21
3608.0000000000005
 31
0.0
  0
LINE
  5
258
330
17
100
AcDbEntity
  8
WINDOW
100
AcDbLine
 10
6509.066666666667
 20
3748.8
 30
0.0
 11
6509.066666666667
 21
3608.0000000000005
 31
0.0
  0
LINE
  5
259
330
17
100
AcDbEntity
  8
WINDOW
100
AcDbLine
 10
6532.533333333334
 20
3748.8
 30
0.0
 11
6532.533333333334
 21
3608.0000000000005
 31
0.0
  0
LINE
  5
25A
330
17
100
AcDbEntity
  8
WINDOW
100
AcDbLine
 10
6556.000000000001
 20
3748.8
 30
0.0
 11
6556.000000000001
 21
3608.0000000000005
 31
0.0
  0
LINE
  5
25B
330
17
100
AcDbEntity
  8
WINDOW
100
AcDbLine
 10
6485.6
 20
3748.8
 30
0.0
 11
6556.000000000001
 21
3748.8
 31
0.0
  0
LINE
  5
25C
330
17
100
AcDbEntity
  8
WINDOW
100
AcDbLine
 10
6485.6
 20
3608.0000000000005
 30
0.0
 11
6556.000000000001
 21
3608.0000000000005
 31
0.0
  0
LINE
  5
25D
330
17
100
AcDbEntity
  8
WINDOW
100
AcDbLine
 10
6512.000000000001
 20
3449.6000000000004
 30
0.0
 11
6512.000000000001
 21
3361.6000000000004
 31
0.0
  0
LINE
  5
25E
330
17
100
AcDbEntity
  8
WINDOW
100
AcDbLine
 10
6532.533333333334
 20
3449.6000000000004
 30
0.0
 11
6532.533333333334
 21
3361.6000000000004
 31
0.0
  0
LINE
  5
25F
330
17
100
AcDbEntity
  8
WINDOW
100
AcDbLine
 10
6553.066666666667
 20
3449.6000000000004
 30
0.0
 11
6553.066666666667
 21
3361.6000000000004
 31
0.0
  0
LINE
  5
260
330
17
100
AcDbEntity
  8
WINDOW
100
AcDbLine
 10
6573.6
 20
3449.6000000000004
 30
0.0
 11
6573.6
 21
3361.6000000000004
 31
0.0
  0
LINE
  5
261
330
17
100
AcDbEntity
  8
WINDOW
100
AcDbLine
 10
6512.000000000001
 20
3449.6000000000004
 30
0.0
 11
6573.6
 21
3449.6000000000004
 31
0.0
  0
LINE
  5
262
330
17
100
AcDbEntity
  8
WINDOW
100
AcDbLine
 10
6512.000000000001
 20
3361.6000000000004
 30
0.0
 11
6573.6
 21
3361.6000000000004
 31
0.0
  0
LINE
  5
263
330
17
100
AcDbEntity
  8
WINDOW
100
AcDbLine
 10
7154.400000000001
 20
5297.6
 30
0.0
 11
7154.400000000001
 21
4136.0
 31
0.0
  0
LINE
  5
264
330
17
100
AcDbEntity
  8
WINDOW
100
AcDbLine
 10
7183.7333333333345
 20
5297.6
 30
0.0
 11
7183.7333333333345
 21
4136.0
 31
0.0
  0
LINE
  5
265
330
17
100
AcDbEntity
  8
WINDOW
100
AcDbLine
 10
7213.066666666667
 20
5297.6
 30
0.0
 11
7213.066666666667
 21
4136.0
 31
0.0
  0
LINE
  5
266
330
17
100
AcDbEntity
  8
WINDOW
100
AcDbLine
 10
7242.400000000001
 20
5297.6
 30
0.0
 11
7242.400000000001
 21
4136.0
 31
0.0
  0
LINE
  5
267
330
17
100
AcDbEntity
  8
WINDOW
100
AcDbLine
 10
7154.400000000001
 20
5297.6
 30
0.0
 11
7242.400000000001
 21
5297.6
 31
0.0
  0
LINE
  5
268
330
17
100
AcDbEntity
  8
WINDOW
100
AcDbLine
 10
7154.400000000001
 20
4136.0
 30
0.0
 11
7242.400000000001
 21
4136.0
 31
0.0
  0
LINE
  5
269
330
17
100
AcDbEntity
  8
WINDOW
100
AcDbLine
 10
8773.6
 20
4224.0
 30
0.0
 11
8773.6
 21
4083.2000000000003
 31
0.0
  0
LINE
  5
26A
330
17
100
AcDbEntity
  8
WINDOW
100
AcDbLine
 10
8802.933333333334
 20
4224.0
 30
0.0
 11
8802.933333333334
 21
4083.2000000000003
 31
0.0
  0
LINE
  5
26B
330
17
100
AcDbEntity
  8
WINDOW
100
AcDbLine
 10
8832.266666666666
 20
4224.0
 30
0.0
 11
8832.266666666666
 21
4083.2000000000003
 31
0.0
  0
LINE
  5
26C
330
17
100
AcDbEntity
  8
WINDOW
100
AcDbLine
 10
8861.6
 20
4224.0
 30
0.0
 11
8861.6
 21
4083.2000000000003
 31
0.0
  0
LINE
  5
26D
330
17
100
AcDbEntity
  8
WINDOW
100
AcDbLine
 10
8773.6
 20
4224.0
 30
0.0
 11
8861.6
 21
4224.0
 31
0.0
  0
LINE
  5
26E
330
17
100
AcDbEntity
  8
WINDOW
100
AcDbLine
 10
8773.6
 20
4083.2000000000003
 30
0.0
 11
8861.6
 21
4083.2000000000003
 31
0.0
  0
LINE
  5
26F
330
17
100
AcDbEntity
  8
WINDOW
100
AcDbLine
 10
9618.400000000001
 20
6978.400000000001
 30
0.0
 11
9618.400000000001
 21
6820.000000000001
 31
0.0
  0
LINE
  5
270
330
17
100
AcDbEntity
  8
WINDOW
100
AcDbLine
 10
9636.0
 20
6978.400000000001
 30
0.0
 11
9636.0
 21
6820.000000000001
 31
0.0
  0
LINE
  5
271
330
17
100
AcDbEntity
  8
WINDOW
100
AcDbLine
 10
9653.6
 20
6978.400000000001
 30
0.0
 11
9653.6
 21
6820.000000000001
 31
0.0
  0
LINE
  5
272
330
17
100
AcDbEntity
  8
WINDOW
100
AcDbLine
 10
9671.2
 20
6978.400000000001
 30
0.0
 11
9671.2
 21
6820.000000000001
 31
0.0
  0
LINE
  5
273
330
17
100
AcDbEntity
  8
WINDOW
100
AcDbLine
 10
9618.400000000001
 20
6978.400000000001
 30
0.0
 11
9671.2
 21
6978.400000000001
 31
0.0
  0
LINE
  5
274
330
17
100
AcDbEntity
  8
WINDOW
100
AcDbLine
 10
9618.400000000001
 20
6820.000000000001
 30
0.0
 11
9671.2
 21
6820.000000000001
 31
0.0
  0
ENDSEC
  0
SECTION
  2
OBJECTS
  0
DICTIONARY
  5
A
330
0
100
AcDbDictionary
281
1
  3
ACAD_COLOR
350
B
  3
ACAD_GROUP
350
C
  3
ACAD_LAYOUT
350
D
  3
ACAD_MATERIAL
350
E
  3
ACAD_MLEADERSTYLE
350
F
  3
ACAD_MLINESTYLE
350
10
  3
ACAD_PLOTSETTINGS
350
11
  3
ACAD_PLOTSTYLENAME
350
12
  3
ACAD_SCALELIST
350
14
  3
ACAD_TABLESTYLE
350
15
  3
ACAD_VISUALSTYLE
350
16
  3
EZDXF_META
350
2D
  0
DICTIONARY
  5
B
330
A
100
AcDbDictionary
281
1
  0
DICTIONARY
  5
C
330
A
100
AcDbDictionary
281
1
  0
DICTIONARY
  5
D
330
A
100
AcDbDictionary
281
1
  3
Model
350
1A
  3
Layout1
350
1E
  0
DICTIONARY
  5
E
330
A
100
AcDbDictionary
281
1
  3
ByBlock
350
1F
  3
ByLayer
350
20
  3
Global
350
21
  0
DICTIONARY
  5
F
330
A
100
AcDbDictionary
281
1
  3
Standard
350
2C
  0
DICTIONARY
  5
10
330
A
100
AcDbDictionary
281
1
  3
Standard
350
22
  0
DICTIONARY
  5
11
330
A
100
AcDbDictionary
281
1
  0
ACDBDICTIONARYWDFLT
  5
12
330
A
100
AcDbDictionary
281
1
  3
Normal
350
13
100
AcDbDictionaryWithDefault
340
13
  0
ACDBPLACEHOLDER
  5
13
330
12
  0
DICTIONARY
  5
14
330
A
100
AcDbDictionary
281
1
  0
DICTIONARY
  5
15
330
A
100
AcDbDictionary
281
1
  0
DICTIONARY
  5
16
330
A
100
AcDbDictionary
281
1
  0
LAYOUT
  5
1A
330
D
100
AcDbPlotSettings
  1

  4
A3
  6

 40
7.5
 41
20.0
 42
7.5
 43
20.0
 44
420.0
 45
297.0
 46
0.0
 47
0.0
 48
0.0
 49
0.0
140
0.0
141
0.0
142
1.0
143
1.0
 70
1024
 72
1
 73
0
 74
5
  7

 75
16
 76
0
 77
2
 78
300
147
1.0
148
0.0
149
0.0
100
AcDbLayout
  1
Model
 70
1
 71
0
 10
0.0
 20
0.0
 11
420.0
 21
297.0
 12
0.0
 22
0.0
 32
0.0
 14
1e+20
 24
1e+20
 34
1e+20
 15
-1e+20
 25
-1e+20
 35
-1e+20
146
0.0
 13
0.0
 23
0.0
 33
0.0
 16
1.0
 26
0.0
 36
0.0
 17
0.0
 27
1.0
 37
0.0
 76
1
330
17
  0
LAYOUT
  5
1E
330
D
100
AcDbPlotSettings
  1

  4
A3
  6

 40
7.5
 41
20.0
 42
7.5
 43
20.0
 44
420.0
 45
297.0
 46
0.0
 47
0.0
 48
0.0
 49
0.0
140
0.0
141
0.0
142
1.0
143
1.0
 70
0
 72
1
 73
0
 74
5
  7

 75
16
 76
0
 77
2
 78
300
147
1.0
148
0.0
149
0.0
100
AcDbLayout
  1
Layout1
 70
1
 71
1
 10
0.0
 20
0.0
 11
420.0
 21
297.0
 12
0.0
 22
0.0
 32
0.0
 14
1e+20
 24
1e+20
 34
1e+20
 15
-1e+20
 25
-1e+20
 35
-1e+20
146
0.0
 13
0.0
 23
0.0
 33
0.0
 16
1.0
 26
0.0
 36
0.0
 17
0.0
 27
1.0
 37
0.0
 76
1
330
1B
  0
MATERIAL
  5
1F
102
{ACAD_REACTORS
330
E
102
}
330
E
100
AcDbMaterial
  1
ByBlock
  2

 70
0
 40
1.0
 71
1
 41
1.0
 91
-1023410177
 42
1.0
 72
1
  3

 73
1
 74
1
 75
1
 44
0.5
 73
0
 45
1.0
 46
1.0
 77
1
  4

 78
1
 79
1
170
1
 48
1.0
171
1
  6

172
1
173
1
174
1
140
1.0
141
1.0
175
1
  7

176
1
177
1
178
1
143
1.0
179
1
  8

270
1
271
1
272
1
145
1.0
146
1.0
273
1
  9

274
1
275
1
276
1
 42
1.0
 72
1
  3

 73
1
 74
1
 75
1
 94
63
  0
MATERIAL
  5
20
102
{ACAD_REACTORS
330
E
102
}
330
E
100
AcDbMaterial
  1
ByLayer
  2

 70
0
 40
1.0
 71
1
 41
1.0
 91
-1023410177
 42
1.0
 72
1
  3

 73
1
 74
1
 75
1
 44
0.5
 73
0
 45
1.0
 46
1.0
 77
1
  4

 78
1
 79
1
170
1
 48
1.0
171
1
  6

172
1
173
1
174
1
140
1.0
141
1.0
175
1
  7

176
1
177
1
178
1
143
1.0
179
1
  8

270
1
271
1
272
1
145
1.0
146
1.0
273
1
  9

274
1
275
1
276
1
 42
1.0
 72
1
  3

 73
1
 74
1
 75
1
 94
63
  0
MATERIAL
  5
21
102
{ACAD_REACTORS
330
E
102
}
330
E
100
AcDbMaterial
  1
Global
  2

 70
0
 40
1.0
 71
1
 41
1.0
 91
-1023410177
 42
1.0
 72
1
  3

 73
1
 74
1
 75
1
 44
0.5
 73
0
 45
1.0
 46
1.0
 77
1
  4

 78
1
 79
1
170
1
 48
1.0
171
1
  6

172
1
173
1
174
1
140
1.0
141
1.0
175
1
  7

176
1
177
1
178
1
143
1.0
179
1
  8

270
1
271
1
272
1
145
1.0
146
1.0
273
1
  9

274
1
275
1
276
1
 42
1.0
 72
1
  3

 73
1
 74
1
 75
1
 94
63
  0
MLINESTYLE
  5
22
102
{ACAD_REACTORS
330
10
102
}
330
10
100
AcDbMlineStyle
  2
Standard
 70
0
  3

 62
256
 51
90.0
 52
90.0
 71
2
 49
0.5
 62
256
  6
BYLAYER
 49
-0.5
 62
256
  6
BYLAYER
  0
MLEADERSTYLE
  5
2C
102
{ACAD_REACTORS
330
F
102
}
330
F
100
AcDbMLeaderStyle
179
2
170
2
171
1
172
0
 90
2
 40
0.0
 41
0.0
173
1
 91
-1056964608
 92
-2
290
1
 42
2.0
291
1
 43
8.0
  3
Standard
 44
4.0
300

342
29
174
1
175
1
176
0
178
1
 93
-1056964608
 45
4.0
292
0
297
0
 46
4.0
 94
-1056964608
 47
1.0
 49
1.0
140
1.0
294
1
141
0.0
177
0
142
1.0
295
0
296
0
143
3.75
271
0
272
9
273
9
  0
DICTIONARY
  5
2D
330
A
100
AcDbDictionary
280
1
281
1
  3
CREATED_BY_EZDXF
350
2E
  3
WRITTEN_BY_EZDXF
350
277
  0
DICTIONARYVAR
  5
2E
330
2D
100
DictionaryVariables
280
0
  1
1.4.4 @ 2026-07-12T08:53:29.257582+00:00
  0
DICTIONARYVAR
  5
277
330
2D
100
DictionaryVariables
280
0
  1
1.4.4 @ 2026-07-12T08:53:29.268129+00:00
  0
ENDSEC
  0
EOF
