  0
SECTION
  2
HEADER
  9
$ACADVER
  1
AC1024
  9
$ACADMAINTVER
 70
6
  9
$DWGCODEPAGE
  3
ANSI_1252
  9
$LASTSAVEDBY
  1
ezdxf
  9
$INSBASE
 10
0.0
 20
0.0
 30
0.0
  9
$EXTMIN
 10
1e+20
 20
1e+20
 30
1e+20
  9
$EXTMAX
 10
-1e+20
 20
-1e+20
 30
-1e+20
  9
$LIMMIN
 10
0.0
 20
0.0
  9
$LIMMAX
 10
420.0
 20
297.0
  9
$ORTHOMODE
 70
0
  9
$REGENMODE
 70
1
  9
$FILLMODE
 70
1
  9
$QTEXTMODE
 70
0
  9
$MIRRTEXT
 70
1
  9
$LTSCALE
 40
1.0
  9
$ATTMODE
 70
1
  9
$TEXTSIZE
 40
2.5
  9
$TRACEWID
 40
1.0
  9
$TEXTSTYLE
  7
Standard
  9
$CLAYER
  8
0
  9
$CELTYPE
  6
ByLayer
  9
$CECOLOR
 62
256
  9
$CELTSCALE
 40
1.0
  9
$DISPSILH
 70
0
  9
$DIMSCALE
 40
1.0
  9
$DIMASZ
 40
2.5
  9
$DIMEXO
 40
0.625
  9
$DIMDLI
 40
3.75
  9
$DIMRND
 40
0.0
  9
$DIMDLE
 40
0.0
  9
$DIMEXE
 40
1.25
  9
$DIMTP
 40
0.0
  9
$DIMTM
 40
0.0
  9
$DIMTXT
 40
2.5
  9
$DIMCEN
 40
2.5
  9
$DIMTSZ
 40
0.0
  9
$DIMTOL
 70
0
  9
$DIMLIM
 70
0
  9
$DIMTIH
 70
0
  9
$DIMTOH
 70
0
  9
$DIMSE1
 70
0
  9
$DIMSE2
 70
0
  9
$DIMTAD
 70
1
  9
$DIMZIN
 70
8
  9
$DIMBLK
  1

  9
$DIMASO
 70
1
  9
$DIMSHO
 70
1
  9
$DIMPOST
  1

  9
$DIMAPOST
  1

  9
$DIMALT
 70
0
  9
$DIMALTD
 70
3
  9
$DIMALTF
 40
0.03937007874
  9
$DIMLFAC
 40
1.0
  9
$DIMTOFL
 70
1
  9
$DIMTVP
 40
0.0
  9
$DIMTIX
 70
0
  9
$DIMSOXD
 70
0
  9
$DIMSAH
 70
0
  9
$DIMBLK1
  1

  9
$DIMBLK2
  1

  9
$DIMSTYLE
  2
ISO-25
  9
$DIMCLRD
 70
0
  9
$DIMCLRE
 70
0
  9
$DIMCLRT
 70
0
  9
$DIMTFAC
 40
1.0
  9
$DIMGAP
 40
0.625
  9
$DIMJUST
 70
0
  9
$DIMSD1
 70
0
  9
$DIMSD2
 70
0
  9
$DIMTOLJ
 70
0
  9
$DIMTZIN
 70
8
  9
$DIMALTZ
 70
0
  9
$DIMALTTZ
 70
0
  9
$DIMUPT
 70
0
  9
$DIMDEC
 70
2
  9
$DIMTDEC
 70
2
  9
$DIMALTU
 70
2
  9
$DIMALTTD
 70
3
  9
$DIMTXSTY
  7
Standard
  9
$DIMAUNIT
 70
0
  9
$DIMADEC
 70
0
  9
$DIMALTRND
 40
0.0
  9
$DIMAZIN
 70
0
  9
$DIMDSEP
 70
44
  9
$DIMATFIT
 70
3
  9
$DIMFRAC
 70
0
  9
$DIMLDRBLK
  1

  9
$DIMLUNIT
 70
2
  9
$DIMLWD
 70
-2
  9
$DIMLWE
 70
-2
  9
$DIMTMOVE
 70
0
  9
$DIMFXL
 40
1.0
  9
$DIMFXLON
 70
0
  9
$DIMJOGANG
 40
0.785398163397
  9
$DIMTFILL
 70
0
  9
$DIMTFILLCLR
 70
0
  9
$DIMARCSYM
 70
0
  9
$DIMLTYPE
  6

  9
$DIMLTEX1
  6

  9
$DIMLTEX2
  6

  9
$DIMTXTDIRECTION
 70
0
  9
$LUNITS
 70
2
  9
$LUPREC
 70
4
  9
$SKETCHINC
 40
1.0
  9
$FILLETRAD
 40
10.0
  9
$AUNITS
 70
0
  9
$AUPREC
 70
2
  9
$MENU
  1
.
  9
$ELEVATION
 40
0.0
  9
$PELEVATION
 40
0.0
  9
$THICKNESS
 40
0.0
  9
$LIMCHECK
 70
0
  9
$CHAMFERA
 40
0.0
  9
$CHAMFERB
 40
0.0
  9
$CHAMFERC
 40
0.0
  9
$CHAMFERD
 40
0.0
  9
$SKPOLY
 70
0
  9
$TDCREATE
 40
2461234.70375
  9
$TDUCREATE
 40
2458532.153996898
  9
$TDUPDATE
 40
2461234.70375
  9
$TDUUPDATE
 40
2458532.1544311
  9
$TDINDWG
 40
0.0
  9
$TDUSRTIMER
 40
0.0
  9
$USRTIMER
 70
1
  9
$ANGBASE
 50
0.0
  9
$ANGDIR
 70
0
  9
$PDMODE
 70
0
  9
$PDSIZE
 40
0.0
  9
$PLINEWID
 40
0.0
  9
$SPLFRAME
 70
0
  9
$SPLINETYPE
 70
6
  9
$SPLINESEGS
 70
8
  9
$HANDSEED
  5
2E2
  9
$SURFTAB1
 70
6
  9
$SURFTAB2
 70
6
  9
$SURFTYPE
 70
6
  9
$SURFU
 70
6
  9
$SURFV
 70
6
  9
$UCSBASE
  2

  9
$UCSNAME
  2

  9
$UCSORG
 10
0.0
 20
0.0
 30
0.0
  9
$UCSXDIR
 10
1.0
 20
0.0
 30
0.0
  9
$UCSYDIR
 10
0.0
 20
1.0
 30
0.0
  9
$UCSORTHOREF
  2

  9
$UCSORTHOVIEW
 70
0
  9
$UCSORGTOP
 10
0.0
 20
0.0
 30
0.0
  9
$UCSORGBOTTOM
 10
0.0
 20
0.0
 30
0.0
  9
$UCSORGLEFT
 10
0.0
 20
0.0
 30
0.0
  9
$UCSORGRIGHT
 10
0.0
 20
0.0
 30
0.0
  9
$UCSORGFRONT
 10
0.0
 20
0.0
 30
0.0
  9
$UCSORGBACK
 10
0.0
 20
0.0
 30
0.0
  9
$PUCSBASE
  2

  9
$PUCSNAME
  2

  9
$PUCSORG
 10
0.0
 20
0.0
 30
0.0
  9
$PUCSXDIR
 10
1.0
 20
0.0
 30
0.0
  9
$PUCSYDIR
 10
0.0
 20
1.0
 30
0.0
  9
$PUCSORTHOREF
  2

  9
$PUCSORTHOVIEW
 70
0
  9
$PUCSORGTOP
 10
0.0
 20
0.0
 30
0.0
  9
$PUCSORGBOTTOM
 10
0.0
 20
0.0
 30
0.0
  9
$PUCSORGLEFT
 10
0.0
 20
0.0
 30
0.0
  9
$PUCSORGRIGHT
 10
0.0
 20
0.0
 30
0.0
  9
$PUCSORGFRONT
 10
0.0
 20
0.0
 30
0.0
  9
$PUCSORGBACK
 10
0.0
 20
0.0
 30
0.0
  9
$USERI1
 70
0
  9
$USERI2
 70
0
  9
$USERI3
 70
0
  9
$USERI4
 70
0
  9
$USERI5
 70
0
  9
$USERR1
 40
0.0
  9
$USERR2
 40
0.0
  9
$USERR3
 40
0.0
  9
$USERR4
 40
0.0
  9
$USERR5
 40
0.0
  9
$WORLDVIEW
 70
1
  9
$SHADEDGE
 70
3
  9
$SHADEDIF
 70
70
  9
$TILEMODE
 70
1
  9
$MAXACTVP
 70
64
  9
$PINSBASE
 10
0.0
 20
0.0
 30
0.0
  9
$PLIMCHECK
 70
0
  9
$PEXTMIN
 10
1e+20
 20
1e+20
 30
1e+20
  9
$PEXTMAX
 10
-1e+20
 20
-1e+20
 30
-1e+20
  9
$PLIMMIN
 10
0.0
 20
0.0
  9
$PLIMMAX
 10
420.0
 20
297.0
  9
$UNITMODE
 70
0
  9
$VISRETAIN
 70
1
  9
$PLINEGEN
 70
0
  9
$PSLTSCALE
 70
1
  9
$TREEDEPTH
 70
3020
  9
$CMLSTYLE
  2
Standard
  9
$CMLJUST
 70
0
  9
$CMLSCALE
 40
20.0
  9
$PROXYGRAPHICS
 70
1
  9
$MEASUREMENT
 70
1
  9
$CELWEIGHT
370
-1
  9
$ENDCAPS
280
0
  9
$JOINSTYLE
280
0
  9
$LWDISPLAY
290
0
  9
$INSUNITS
 70
4
  9
$HYPERLINKBASE
  1

  9
$STYLESHEET
  1

  9
$XEDIT
290
1
  9
$CEPSNTYPE
380
0
  9
$PSTYLEMODE
290
1
  9
$FINGERPRINTGUID
  2
{ACFCC81B-029D-4354-BF69-D5D915FF3674}
  9
$VERSIONGUID
  2
{2DEDBF15-8B82-4638-8F95-6C1854C2D739}
  9
$EXTNAMES
290
1
  9
$PSVPSCALE
 40
0.0
  9
$OLESTARTUP
290
0
  9
$SORTENTS
280
127
  9
$INDEXCTL
280
0
  9
$HIDETEXT
280
1
  9
$XCLIPFRAME
280
1
  9
$HALOGAP
280
0
  9
$OBSCOLOR
 70
257
  9
$OBSLTYPE
280
0
  9
$INTERSECTIONDISPLAY
280
0
  9
$INTERSECTIONCOLOR
 70
257
  9
$DIMASSOC
280
2
  9
$PROJECTNAME
  1

  9
$CAMERADISPLAY
290
0
  9
$LENSLENGTH
 40
50.0
  9
$CAMERAHEIGHT
 40
0.0
  9
$STEPSPERSEC
 40
24.0
  9
$STEPSIZE
 40
100.0
  9
$3DDWFPREC
 40
2.0
  9
$PSOLWIDTH
 40
0.005
  9
$PSOLHEIGHT
 40
0.08
  9
$LOFTANG1
 40
1.570796326795
  9
$LOFTANG2
 40
1.570796326795
  9
$LOFTMAG1
 40
0.0
  9
$LOFTMAG2
 40
0.0
  9
$LOFTPARAM
 70
7
  9
$LOFTNORMALS
280
1
  9
$LATITUDE
 40
37.795
  9
$LONGITUDE
 40
-122.394
  9
$NORTHDIRECTION
 40
0.0
  9
$TIMEZONE
 70
-8000
  9
$LIGHTGLYPHDISPLAY
280
1
  9
$TILEMODELIGHTSYNCH
280
1
  9
$CMATERIAL
347
20
  9
$SOLIDHIST
280
0
  9
$SHOWHIST
280
1
  9
$DWFFRAME
280
2
  9
$DGNFRAME
280
2
  9
$REALWORLDSCALE
290
1
  9
$INTERFERECOLOR
 62
256
  9
$CSHADOW
280
0
  9
$SHADOWPLANELOCATION
 40
0.0
  0
ENDSEC
  0
SECTION
  2
CLASSES
  0
CLASS
  1
ACDBDICTIONARYWDFLT
  2
AcDbDictionaryWithDefault
  3
ObjectDBX Classes
 90
0
 91
0
280
0
281
0
  0
CLASS
  1
SUN
  2
AcDbSun
  3
SCENEOE
 90
1153
 91
0
280
0
281
0
  0
CLASS
  1
VISUALSTYLE
  2
AcDbVisualStyle
  3
ObjectDBX Classes
 90
4095
 91
0
280
0
281
0
  0
CLASS
  1
MATERIAL
  2
AcDbMaterial
  3
ObjectDBX Classes
 90
1153
 91
0
280
0
281
0
  0
CLASS
  1
SCALE
  2
AcDbScale
  3
ObjectDBX Classes
 90
1153
 91
0
280
0
281
0
  0
CLASS
  1
TABLESTYLE
  2
AcDbTableStyle
  3
ObjectDBX Classes
 90
4095
 91
0
280
0
281
0
  0
CLASS
  1
MLEADERSTYLE
  2
AcDbMLeaderStyle
  3
ACDB_MLEADERSTYLE_CLASS
 90
4095
 91
0
280
0
281
0
  0
CLASS
  1
DICTIONARYVAR
  2
AcDbDictionaryVar
  3
ObjectDBX Classes
 90
0
 91
0
280
0
281
0
  0
CLASS
  1
CELLSTYLEMAP
  2
AcDbCellStyleMap
  3
ObjectDBX Classes
 90
1152
 91
0
280
0
281
0
  0
CLASS
  1
MENTALRAYRENDERSETTINGS
  2
AcDbMentalRayRenderSettings
  3
SCENEOE
 90
1024
 91
0
280
0
281
0
  0
CLASS
  1
ACDBDETAILVIEWSTYLE
  2
AcDbDetailViewStyle
  3
ObjectDBX Classes
 90
1025
 91
0
280
0
281
0
  0
CLASS
  1
ACDBSECTIONVIEWSTYLE
  2
AcDbSectionViewStyle
  3
ObjectDBX Classes
 90
1025
 91
0
280
0
281
0
  0
CLASS
  1
RASTERVARIABLES
  2
AcDbRasterVariables
  3
ISM
 90
0
 91
0
280
0
281
0
  0
CLASS
  1
ACDBPLACEHOLDER
  2
AcDbPlaceHolder
  3
ObjectDBX Classes
 90
0
 91
0
280
0
281
0
  0
CLASS
  1
LAYOUT
  2
AcDbLayout
  3
ObjectDBX Classes
 90
0
 91
0
280
0
281
0
  0
ENDSEC
  0
SECTION
  2
TABLES
  0
TABLE
  2
VPORT
  5
8
330
0
100
AcDbSymbolTable
 70
1
  0
VPORT
  5
23
330
8
100
AcDbSymbolTableRecord
100
AcDbViewportTableRecord
  2
*Active
 70
0
 10
0.0
 20
0.0
 11
1.0
 21
1.0
 12
0.0
 22
0.0
 13
0.0
 23
0.0
 14
0.5
 24
0.5
 15
0.5
 25
0.5
 16
0.0
 26
0.0
 36
1.0
 17
0.0
 27
0.0
 37
0.0
 40
1000.0
 41
1.34
 42
50.0
 43
0.0
 44
0.0
 50
0.0
 51
0.0
 71
0
 72
1000
 73
1
 74
3
 75
0
 76
0
 77
0
 78
0
281
0
 65
0
146
0.0
  0
ENDTAB
  0
TABLE
  2
LTYPE
  5
2
330
0
100
AcDbSymbolTable
 70
3
  0
LTYPE
  5
24
330
2
100
AcDbSymbolTableRecord
100
AcDbLinetypeTableRecord
  2
ByBlock
 70
0
  3

 72
65
 73
0
 40
0.0
  0
LTYPE
  5
25
330
2
100
AcDbSymbolTableRecord
100
AcDbLinetypeTableRecord
  2
ByLayer
 70
0
  3

 72
65
 73
0
 40
0.0
  0
LTYPE
  5
26
330
2
100
AcDbSymbolTableRecord
100
AcDbLinetypeTableRecord
  2
Continuous
 70
0
  3

 72
65
 73
0
 40
0.0
  0
ENDTAB
  0
TABLE
  2
LAYER
  5
1
330
0
100
AcDbSymbolTable
 70
4
  0
LAYER
  5
27
330
1
100
AcDbSymbolTableRecord
100
AcDbLayerTableRecord
  2
0
 70
0
 62
7
  6
Continuous
370
-3
390
13
347
21
  0
LAYER
  5
28
330
1
100
AcDbSymbolTableRecord
100
AcDbLayerTableRecord
  2
Defpoints
 70
0
 62
7
  6
Continuous
290
0
370
-3
390
13
347
21
  0
LAYER
  5
2F
330
1
100
AcDbSymbolTableRecord
100
AcDbLayerTableRecord
  2
WALL
 70
0
 62
7
  6
Continuous
370
-3
390
13
347
21
  0
LAYER
  5
30
330
1
100
AcDbSymbolTableRecord
100
AcDbLayerTableRecord
  2
WINDOW
 70
0
 62
5
  6
Continuous
370
-3
390
13
347
21
  0
ENDTAB
  0
TABLE
  2
STYLE
  5
5
330
0
100
AcDbSymbolTable
 70
1
  0
STYLE
  5
29
330
5
100
AcDbSymbolTableRecord
100
AcDbTextStyleTableRecord
  2
Standard
 70
0
 40
0.0
 41
1.0
 50
0.0
 71
0
 42
2.5
  3
txt
  4

  0
ENDTAB
  0
TABLE
  2
VIEW
  5
7
330
0
100
AcDbSymbolTable
 70
0
  0
ENDTAB
  0
TABLE
  2
UCS
  5
6
330
0
100
AcDbSymbolTable
 70
0
  0
ENDTAB
  0
TABLE
  2
APPID
  5
3
330
0
100
AcDbSymbolTable
 70
3
  0
APPID
  5
2A
330
3
100
AcDbSymbolTableRecord
100
AcDbRegAppTableRecord
  2
ACAD
 70
0
  0
APPID
  5
2DF
330
3
100
AcDbSymbolTableRecord
100
AcDbRegAppTableRecord
  2
HATCHBACKGROUNDCOLOR
 70
0
  0
APPID
  5
2E0
330
3
100
AcDbSymbolTableRecord
100
AcDbRegAppTableRecord
  2
EZDXF
 70
0
  0
ENDTAB
  0
TABLE
  2
DIMSTYLE
  5
4
330
0
100
AcDbSymbolTable
 70
1
100
AcDbDimStyleTable
  0
DIMSTYLE
105
2B
330
4
100
AcDbSymbolTableRecord
100
AcDbDimStyleTableRecord
  2
Standard
 70
0
 40
1.0
 41
2.5
 42
0.625
 43
3.75
 44
1.25
 45
0.0
 46
0.0
 47
0.0
 48
0.0
 49
2.5
140
2.5
141
2.5
142
0.0
143
0.03937007874
144
1.0
145
0.0
146
1.0
147
0.625
148
0.0
 69
0
 70
0
 71
0
 72
0
 73
0
 74
0
 75
0
 76
0
 77
1
 78
8
 79
3
170
0
171
3
172
1
173
0
174
0
175
0
176
0
177
0
178
0
179
2
271
2
272
2
273
2
274
3
275
0
276
0
277
2
278
44
279
0
280
0
281
0
282
0
283
0
284
8
285
0
286
0
288
0
289
3
290
0
371
-2
372
-2
  0
ENDTAB
  0
TABLE
  2
BLOCK_RECORD
  5
9
330
0
100
AcDbSymbolTable
 70
2
  0
BLOCK_RECORD
  5
17
330
9
100
AcDbSymbolTableRecord
100
AcDbBlockTableRecord
  2
*Model_Space
340
1A
 70
0
280
1
281
0
  0
BLOCK_RECORD
  5
1B
330
9
100
AcDbSymbolTableRecord
100
AcDbBlockTableRecord
  2
*Paper_Space
340
1E
 70
0
280
1
281
0
  0
ENDTAB
  0
ENDSEC
  0
SECTION
  2
BLOCKS
  0
BLOCK
  5
18
330
17
100
AcDbEntity
  8
0
100
AcDbBlockBegin
  2
*Model_Space
 70
0
 10
0.0
 20
0.0
 30
0.0
  3
*Model_Space
  1

  0
ENDBLK
  5
19
330
17
100
AcDbEntity
  8
0
100
AcDbBlockEnd
  0
BLOCK
  5
1C
330
1B
100
AcDbEntity
  8
0
100
AcDbBlockBegin
  2
*Paper_Space
 70
0
 10
0.0
 20
0.0
 30
0.0
  3
*Paper_Space
  1

  0
ENDBLK
  5
1D
330
1B
100
AcDbEntity
  8
0
100
AcDbBlockEnd
  0
ENDSEC
  0
SECTION
  2
ENTITIES
  0
LWPOLYLINE
  5
31
330
17
100
AcDbEntity
  8
WALL
100
AcDbPolyline
 90
4
 70
1
 10
184.8
 20
7172.000000000001
 10
404.8
 20
7172.000000000001
 10
404.8
 20
7092.8
 10
184.8
 20
7092.8
  0
HATCH
  5
32
330
17
100
AcDbEntity
  8
WALL
100
AcDbHatch
 10
0.0
 20
0.0
 30
0.0
210
0.0
220
0.0
230
1.0
  2
SOLID
 70
1
 71
0
 91
1
 92
3
 72
0
 73
1
 93
4
 10
184.8
 20
7172.000000000001
 10
404.8
 20
7172.000000000001
 10
404.8
 20
7092.8
 10
184.8
 20
7092.8
 97
0
 75
1
 76
1
 98
0
  0
LWPOLYLINE
  5
33
330
17
100
AcDbEntity
  8
WALL
100
AcDbPolyline
 90
4
 70
1
 10
431.20000000000005
 20
7145.6
 10
1267.2
 20
7145.6
 10
1267.2
 20
7057.6
 10
431.20000000000005
 20
7057.6
  0
HATCH
  5
34
330
17
100
AcDbEntity
  8
WALL
100
AcDbHatch
 10
0.0
 20
0.0
 30
0.0
210
0.0
220
0.0
230
1.0
  2
SOLID
 70
1
 71
0
 91
1
 92
3
 72
0
 73
1
 93
4
 10
431.20000000000005
 20
7145.6
 10
1267.2
 20
7145.6
 10
1267.2
 20
7057.6
 10
431.20000000000005
 20
7057.6
 97
0
 75
1
 76
1
 98
0
  0
LWPOLYLINE
  5
35
330
17
100
AcDbEntity
  8
WALL
100
AcDbPolyline
 90
4
 70
1
 10
1636.8000000000002
 20
7145.6
 10
1812.8000000000002
 20
7145.6
 10
1812.8000000000002
 20
7092.8
 10
1636.8000000000002
 20
7092.8
  0
HATCH
  5
36
330
17
100
AcDbEntity
  8
WALL
100
AcDbHatch
 10
0.0
 20
0.0
 30
0.0
210
0.0
220
0.0
230
1.0
  2
SOLID
 70
1
 71
0
 91
1
 92
3
 72
0
 73
1
 93
4
 10
1636.8000000000002
 20
7145.6
 10
1812.8000000000002
 20
7145.6
 10
1812.8000000000002
 20
7092.8
 10
1636.8000000000002
 20
7092.8
 97
0
 75
1
 76
1
 98
0
  0
LWPOLYLINE
  5
37
330
17
100
AcDbEntity
  8
WALL
100
AcDbPolyline
 90
4
 70
1
 10
2965.6000000000004
 20
7048.8
 10
3141.6000000000004
 20
7048.8
 10
3141.6000000000004
 20
6987.200000000001
 10
2965.6000000000004
 20
6987.200000000001
  0
HATCH
  5
38
330
17
100
AcDbEntity
  8
WALL
100
AcDbHatch
 10
0.0
 20
0.0
 30
0.0
210
0.0
220
0.0
230
1.0
  2
SOLID
 70
1
 71
0
 91
1
 92
3
 72
0
 73
1
 93
4
 10
2965.6000000000004
 20
7048.8
 10
3141.6000000000004
 20
7048.8
 10
3141.6000000000004
 20
6987.200000000001
 10
2965.6000000000004
 20
6987.200000000001
 97
0
 75
1
 76
1
 98
0
  0
LWPOLYLINE
  5
39
330
17
100
AcDbEntity
  8
WALL
100
AcDbPolyline
 90
4
 70
1
 10
4725.6
 20
7048.8
 10
4831.200000000001
 20
7048.8
 10
4831.200000000001
 20
7031.200000000001
 10
4725.6
 20
7031.200000000001
  0
HATCH
  5
3A
330
17
100
AcDbEntity
  8
WALL
100
AcDbHatch
 10
0.0
 20
0.0
 30
0.0
210
0.0
220
0.0
230
1.0
  2
SOLID
 70
1
 71
0
 91
1
 92
3
 72
0
 73
1
 93
4
 10
4725.6
 20
7048.8
 10
4831.200000000001
 20
7048.8
 10
4831.200000000001
 20
7031.200000000001
 10
4725.6
 20
7031.200000000001
 97
0
 75
1
 76
1
 98
0
  0
LWPOLYLINE
  5
3B
330
17
100
AcDbEntity
  8
WALL
100
AcDbPolyline
 90
4
 70
1
 10
3731.2000000000003
 20
7031.200000000001
 10
4804.8
 20
7031.200000000001
 10
4804.8
 20
6952.000000000001
 10
3731.2000000000003
 20
6952.000000000001
  0
HATCH
  5
3C
330
17
100
AcDbEntity
  8
WALL
100
AcDbHatch
 10
0.0
 20
0.0
 30
0.0
210
0.0
220
0.0
230
1.0
  2
SOLID
 70
1
 71
0
 91
1
 92
3
 72
0
 73
1
 93
4
 10
3731.2000000000003
 20
7031.200000000001
 10
4804.8
 20
7031.200000000001
 10
4804.8
 20
6952.000000000001
 10
3731.2000000000003
 20
6952.000000000001
 97
0
 75
1
 76
1
 98
0
  0
LWPOLYLINE
  5
3D
330
17
100
AcDbEntity
  8
WALL
100
AcDbPolyline
 90
4
 70
1
 10
4822.400000000001
 20
7022.400000000001
 10
5693.6
 20
7022.400000000001
 10
5693.6
 20
6952.000000000001
 10
4822.400000000001
 20
6952.000000000001
  0
HATCH
  5
3E
330
17
100
AcDbEntity
  8
WALL
100
AcDbHatch
 10
0.0
 20
0.0
 30
0.0
210
0.0
220
0.0
230
1.0
  2
SOLID
 70
1
 71
0
 91
1
 92
3
 72
0
 73
1
 93
4
 10
4822.400000000001
 20
7022.400000000001
 10
5693.6
 20
7022.400000000001
 10
5693.6
 20
6952.000000000001
 10
4822.400000000001
 20
6952.000000000001
 97
0
 75
1
 76
1
 98
0
  0
LWPOLYLINE
  5
3F
330
17
100
AcDbEntity
  8
WALL
100
AcDbPolyline
 90
4
 70
1
 10
6397.6
 20
7022.400000000001
 10
7128.000000000001
 20
7022.400000000001
 10
7128.000000000001
 20
6952.000000000001
 10
6397.6
 20
6952.000000000001
  0
HATCH
  5
40
330
17
100
AcDbEntity
  8
WALL
100
AcDbHatch
 10
0.0
 20
0.0
 30
0.0
210
0.0
220
0.0
230
1.0
  2
SOLID
 70
1
 71
0
 91
1
 92
3
 72
0
 73
1
 93
4
 10
6397.6
 20
7022.400000000001
 10
7128.000000000001
 20
7022.400000000001
 10
7128.000000000001
 20
6952.000000000001
 10
6397.6
 20
6952.000000000001
 97
0
 75
1
 76
1
 98
0
  0
LWPOLYLINE
  5
41
330
17
100
AcDbEntity
  8
WALL
100
AcDbPolyline
 90
4
 70
1
 10
7356.8
 20
7022.400000000001
 10
8430.400000000001
 20
7022.400000000001
 10
8430.400000000001
 20
6952.000000000001
 10
7356.8
 20
6952.000000000001
  0
HATCH
  5
42
330
17
100
AcDbEntity
  8
WALL
100
AcDbHatch
 10
0.0
 20
0.0
 30
0.0
210
0.0
220
0.0
230
1.0
  2
SOLID
 70
1
 71
0
 91
1
 92
3
 72
0
 73
1
 93
4
 10
7356.8
 20
7022.400000000001
 10
8430.400000000001
 20
7022.400000000001
 10
8430.400000000001
 20
6952.000000000001
 10
7356.8
 20
6952.000000000001
 97
0
 75
1
 76
1
 98
0
  0
LWPOLYLINE
  5
43
330
17
100
AcDbEntity
  8
WALL
100
AcDbPolyline
 90
4
 70
1
 10
8483.2
 20
7022.400000000001
 10
8729.6
 20
7022.400000000001
 10
8729.6
 20
6952.000000000001
 10
8483.2
 20
6952.000000000001
  0
HATCH
  5
44
330
17
100
AcDbEntity
  8
WALL
100
AcDbHatch
 10
0.0
 20
0.0
 30
0.0
210
0.0
220
0.0
230
1.0
  2
SOLID
 70
1
 71
0
 91
1
 92
3
 72
0
 73
1
 93
4
 10
8483.2
 20
7022.400000000001
 10
8729.6
 20
7022.400000000001
 10
8729.6
 20
6952.000000000001
 10
8483.2
 20
6952.000000000001
 97
0
 75
1
 76
1
 98
0
  0
LWPOLYLINE
  5
45
330
17
100
AcDbEntity
  8
WALL
100
AcDbPolyline
 90
4
 70
1
 10
3132.8
 20
6987.200000000001
 10
3564.0000000000005
 20
6987.200000000001
 10
3564.0000000000005
 20
6952.000000000001
 10
3132.8
 20
6952.000000000001
  0
HATCH
  5
46
330
17
100
AcDbEntity
  8
WALL
100
AcDbHatch
 10
0.0
 20
0.0
 30
0.0
210
0.0
220
0.0
230
1.0
  2
SOLID
 70
1
 71
0
 91
1
 92
3
 72
0
 73
1
 93
4
 10
3132.8
 20
6987.200000000001
 10
3564.0000000000005
 20
6987.200000000001
 10
3564.0000000000005
 20
6952.000000000001
 10
3132.8
 20
6952.000000000001
 97
0
 75
1
 76
1
 98
0
  0
LWPOLYLINE
  5
47
330
17
100
AcDbEntity
  8
WALL
100
AcDbPolyline
 90
4
 70
1
 10
211.20000000000002
 20
6960.8
 10
475.20000000000005
 20
6960.8
 10
475.20000000000005
 20
6881.6
 10
211.20000000000002
 20
6881.6
  0
HATCH
  5
48
330
17
100
AcDbEntity
  8
WALL
100
AcDbHatch
 10
0.0
 20
0.0
 30
0.0
210
0.0
220
0.0
230
1.0
  2
SOLID
 70
1
 71
0
 91
1
 92
3
 72
0
 73
1
 93
4
 10
211.20000000000002
 20
6960.8
 10
475.20000000000005
 20
6960.8
 10
475.20000000000005
 20
6881.6
 10
211.20000000000002
 20
6881.6
 97
0
 75
1
 76
1
 98
0
  0
LWPOLYLINE
  5
49
330
17
100
AcDbEntity
  8
WALL
100
AcDbPolyline
 90
4
 70
1
 10
7075.200000000001
 20
6969.6
 10
7198.400000000001
 20
6969.6
 10
7198.400000000001
 20
6960.8
 10
7075.200000000001
 20
6960.8
  0
HATCH
  5
4A
330
17
100
AcDbEntity
  8
WALL
100
AcDbHatch
 10
0.0
 20
0.0
 30
0.0
210
0.0
220
0.0
230
1.0
  2
SOLID
 70
1
 71
0
 91
1
 92
3
 72
0
 73
1
 93
4
 10
7075.200000000001
 20
6969.6
 10
7198.400000000001
 20
6969.6
 10
7198.400000000001
 20
6960.8
 10
7075.200000000001
 20
6960.8
 97
0
 75
1
 76
1
 98
0
  0
LWPOLYLINE
  5
4B
330
17
100
AcDbEntity
  8
WALL
100
AcDbPolyline
 90
4
 70
1
 10
1900.8000000000002
 20
6943.200000000001
 10
2015.2000000000003
 20
6943.200000000001
 10
2015.2000000000003
 20
6925.6
 10
1900.8000000000002
 20
6925.6
  0
HATCH
  5
4C
330
17
100
AcDbEntity
  8
WALL
100
AcDbHatch
 10
0.0
 20
0.0
 30
0.0
210
0.0
220
0.0
230
1.0
  2
SOLID
 70
1
 71
0
 91
1
 92
3
 72
0
 73
1
 93
4
 10
1900.8000000000002
 20
6943.200000000001
 10
2015.2000000000003
 20
6943.200000000001
 10
2015.2000000000003
 20
6925.6
 10
1900.8000000000002
 20
6925.6
 97
0
 75
1
 76
1
 98
0
  0
LWPOLYLINE
  5
4D
330
17
100
AcDbEntity
  8
WALL
100
AcDbPolyline
 90
4
 70
1
 10
2182.4
 20
6943.200000000001
 10
2332.0
 20
6943.200000000001
 10
2332.0
 20
6925.6
 10
2182.4
 20
6925.6
  0
HATCH
  5
4E
330
17
100
AcDbEntity
  8
WALL
100
AcDbHatch
 10
0.0
 20
0.0
 30
0.0
210
0.0
220
0.0
230
1.0
  2
SOLID
 70
1
 71
0
 91
1
 92
3
 72
0
 73
1
 93
4
 10
2182.4
 20
6943.200000000001
 10
2332.0
 20
6943.200000000001
 10
2332.0
 20
6925.6
 10
2182.4
 20
6925.6
 97
0
 75
1
 76
1
 98
0
  0
LWPOLYLINE
  5
4F
330
17
100
AcDbEntity
  8
WALL
100
AcDbPolyline
 90
4
 70
1
 10
2587.2000000000003
 20
6952.000000000001
 10
2965.6000000000004
 20
6952.000000000001
 10
2965.6000000000004
 20
6916.8
 10
2587.2000000000003
 20
6916.8
  0
HATCH
  5
50
330
17
100
AcDbEntity
  8
WALL
100
AcDbHatch
 10
0.0
 20
0.0
 30
0.0
210
0.0
220
0.0
230
1.0
  2
SOLID
 70
1
 71
0
 91
1
 92
3
 72
0
 73
1
 93
4
 10
2587.2000000000003
 20
6952.000000000001
 10
2965.6000000000004
 20
6952.000000000001
 10
2965.6000000000004
 20
6916.8
 10
2587.2000000000003
 20
6916.8
 97
0
 75
1
 76
1
 98
0
  0
LWPOLYLINE
  5
51
330
17
100
AcDbEntity
  8
WALL
100
AcDbPolyline
 90
4
 70
1
 10
651.2
 20
6934.400000000001
 10
1566.4
 20
6934.400000000001
 10
1566.4
 20
6881.6
 10
651.2
 20
6881.6
  0
HATCH
  5
52
330
17
100
AcDbEntity
  8
WALL
100
AcDbHatch
 10
0.0
 20
0.0
 30
0.0
210
0.0
220
0.0
230
1.0
  2
SOLID
 70
1
 71
0
 91
1
 92
3
 72
0
 73
1
 93
4
 10
651.2
 20
6934.400000000001
 10
1566.4
 20
6934.400000000001
 10
1566.4
 20
6881.6
 10
651.2
 20
6881.6
 97
0
 75
1
 76
1
 98
0
  0
LWPOLYLINE
  5
53
330
17
100
AcDbEntity
  8
WALL
100
AcDbPolyline
 90
4
 70
1
 10
2648.8
 20
6899.200000000001
 10
2798.4
 20
6899.200000000001
 10
2798.4
 20
6855.200000000001
 10
2648.8
 20
6855.200000000001
  0
HATCH
  5
54
330
17
100
AcDbEntity
  8
WALL
100
AcDbHatch
 10
0.0
 20
0.0
 30
0.0
210
0.0
220
0.0
230
1.0
  2
SOLID
 70
1
 71
0
 91
1
 92
3
 72
0
 73
1
 93
4
 10
2648.8
 20
6899.200000000001
 10
2798.4
 20
6899.200000000001
 10
2798.4
 20
6855.200000000001
 10
2648.8
 20
6855.200000000001
 97
0
 75
1
 76
1
 98
0
  0
LWPOLYLINE
  5
55
330
17
100
AcDbEntity
  8
WALL
100
AcDbPolyline
 90
4
 70
1
 10
8474.400000000001
 20
6828.8
 10
8668.0
 20
6828.8
 10
8668.0
 20
6793.6
 10
8474.400000000001
 20
6793.6
  0
HATCH
  5
56
330
17
100
AcDbEntity
  8
WALL
100
AcDbHatch
 10
0.0
 20
0.0
 30
0.0
210
0.0
220
0.0
230
1.0
  2
SOLID
 70
1
 71
0
 91
1
 92
3
 72
0
 73
1
 93
4
 10
8474.400000000001
 20
6828.8
 10
8668.0
 20
6828.8
 10
8668.0
 20
6793.6
 10
8474.400000000001
 20
6793.6
 97
0
 75
1
 76
1
 98
0
  0
LWPOLYLINE
  5
57
330
17
100
AcDbEntity
  8
WALL
100
AcDbPolyline
 90
4
 70
1
 10
6089.6
 20
6811.200000000001
 10
6327.200000000001
 20
6811.200000000001
 10
6327.200000000001
 20
6740.8
 10
6089.6
 20
6740.8
  0
HATCH
  5
58
330
17
100
AcDbEntity
  8
WALL
100
AcDbHatch
 10
0.0
 20
0.0
 30
0.0
210
0.0
220
0.0
230
1.0
  2
SOLID
 70
1
 71
0
 91
1
 92
3
 72
0
 73
1
 93
4
 10
6089.6
 20
6811.200000000001
 10
6327.200000000001
 20
6811.200000000001
 10
6327.200000000001
 20
6740.8
 10
6089.6
 20
6740.8
 97
0
 75
1
 76
1
 98
0
  0
LWPOLYLINE
  5
59
330
17
100
AcDbEntity
  8
WALL
100
AcDbPolyline
 90
4
 70
1
 10
8562.400000000001
 20
6776.000000000001
 10
8668.0
 20
6776.000000000001
 10
8668.0
 20
6767.200000000001
 10
8562.400000000001
 20
6767.200000000001
  0
HATCH
  5
5A
330
17
100
AcDbEntity
  8
WALL
100
AcDbHatch
 10
0.0
 20
0.0
 30
0.0
210
0.0
220
0.0
230
1.0
  2
SOLID
 70
1
 71
0
 91
1
 92
3
 72
0
 73
1
 93
4
 10
8562.400000000001
 20
6776.000000000001
 10
8668.0
 20
6776.000000000001
 10
8668.0
 20
6767.200000000001
 10
8562.400000000001
 20
6767.200000000001
 97
0
 75
1
 76
1
 98
0
  0
LWPOLYLINE
  5
5B
330
17
100
AcDbEntity
  8
WALL
100
AcDbPolyline
 90
4
 70
1
 10
8474.400000000001
 20
6740.8
 10
8632.800000000001
 20
6740.8
 10
8632.800000000001
 20
6705.6
 10
8474.400000000001
 20
6705.6
  0
HATCH
  5
5C
330
17
100
AcDbEntity
  8
WALL
100
AcDbHatch
 10
0.0
 20
0.0
 30
0.0
210
0.0
220
0.0
230
1.0
  2
SOLID
 70
1
 71
0
 91
1
 92
3
 72
0
 73
1
 93
4
 10
8474.400000000001
 20
6740.8
 10
8632.800000000001
 20
6740.8
 10
8632.800000000001
 20
6705.6
 10
8474.400000000001
 20
6705.6
 97
0
 75
1
 76
1
 98
0
  0
LWPOLYLINE
  5
5D
330
17
100
AcDbEntity
  8
WALL
100
AcDbPolyline
 90
4
 70
1
 10
5957.6
 20
6705.6
 10
6151.200000000001
 20
6705.6
 10
6151.200000000001
 20
6652.8
 10
5957.6
 20
6652.8
  0
HATCH
  5
5E
330
17
100
AcDbEntity
  8
WALL
100
AcDbHatch
 10
0.0
 20
0.0
 30
0.0
210
0.0
220
0.0
230
1.0
  2
SOLID
 70
1
 71
0
 91
1
 92
3
 72
0
 73
1
 93
4
 10
5957.6
 20
6705.6
 10
6151.200000000001
 20
6705.6
 10
6151.200000000001
 20
6652.8
 10
5957.6
 20
6652.8
 97
0
 75
1
 76
1
 98
0
  0
LWPOLYLINE
  5
5F
330
17
100
AcDbEntity
  8
WALL
100
AcDbPolyline
 90
4
 70
1
 10
5605.6
 20
6635.200000000001
 10
5711.200000000001
 20
6635.200000000001
 10
5711.200000000001
 20
6626.400000000001
 10
5605.6
 20
6626.400000000001
  0
HATCH
  5
60
330
17
100
AcDbEntity
  8
WALL
100
AcDbHatch
 10
0.0
 20
0.0
 30
0.0
210
0.0
220
0.0
230
1.0
  2
SOLID
 70
1
 71
0
 91
1
 92
3
 72
0
 73
1
 93
4
 10
5605.6
 20
6635.200000000001
 10
5711.200000000001
 20
6635.200000000001
 10
5711.200000000001
 20
6626.400000000001
 10
5605.6
 20
6626.400000000001
 97
0
 75
1
 76
1
 98
0
  0
LWPOLYLINE
  5
61
330
17
100
AcDbEntity
  8
WALL
100
AcDbPolyline
 90
4
 70
1
 10
8474.400000000001
 20
6608.8
 10
8668.0
 20
6608.8
 10
8668.0
 20
6564.8
 10
8474.400000000001
 20
6564.8
  0
HATCH
  5
62
330
17
100
AcDbEntity
  8
WALL
100
AcDbHatch
 10
0.0
 20
0.0
 30
0.0
210
0.0
220
0.0
230
1.0
  2
SOLID
 70
1
 71
0
 91
1
 92
3
 72
0
 73
1
 93
4
 10
8474.400000000001
 20
6608.8
 10
8668.0
 20
6608.8
 10
8668.0
 20
6564.8
 10
8474.400000000001
 20
6564.8
 97
0
 75
1
 76
1
 98
0
  0
LWPOLYLINE
  5
63
330
17
100
AcDbEntity
  8
WALL
100
AcDbPolyline
 90
4
 70
1
 10
8474.400000000001
 20
6520.8
 10
8668.0
 20
6520.8
 10
8668.0
 20
6459.200000000001
 10
8474.400000000001
 20
6459.200000000001
  0
HATCH
  5
64
330
17
100
AcDbEntity
  8
WALL
100
AcDbHatch
 10
0.0
 20
0.0
 30
0.0
210
0.0
220
0.0
230
1.0
  2
SOLID
 70
1
 71
0
 91
1
 92
3
 72
0
 73
1
 93
4
 10
8474.400000000001
 20
6520.8
 10
8668.0
 20
6520.8
 10
8668.0
 20
6459.200000000001
 10
8474.400000000001
 20
6459.200000000001
 97
0
 75
1
 76
1
 98
0
  0
LWPOLYLINE
  5
65
330
17
100
AcDbEntity
  8
WALL
100
AcDbPolyline
 90
4
 70
1
 10
3713.6000000000004
 20
6485.6
 10
5561.6
 20
6485.6
 10
5561.6
 20
6441.6
 10
3713.6000000000004
 20
6441.6
  0
HATCH
  5
66
330
17
100
AcDbEntity
  8
WALL
100
AcDbHatch
 10
0.0
 20
0.0
 30
0.0
210
0.0
220
0.0
230
1.0
  2
SOLID
 70
1
 71
0
 91
1
 92
3
 72
0
 73
1
 93
4
 10
3713.6000000000004
 20
6485.6
 10
5561.6
 20
6485.6
 10
5561.6
 20
6441.6
 10
3713.6000000000004
 20
6441.6
 97
0
 75
1
 76
1
 98
0
  0
LWPOLYLINE
  5
67
330
17
100
AcDbEntity
  8
WALL
100
AcDbPolyline
 90
4
 70
1
 10
3546.4
 20
6476.8
 10
3678.4
 20
6476.8
 10
3678.4
 20
6441.6
 10
3546.4
 20
6441.6
  0
HATCH
  5
68
330
17
100
AcDbEntity
  8
WALL
100
AcDbHatch
 10
0.0
 20
0.0
 30
0.0
210
0.0
220
0.0
230
1.0
  2
SOLID
 70
1
 71
0
 91
1
 92
3
 72
0
 73
1
 93
4
 10
3546.4
 20
6476.8
 10
3678.4
 20
6476.8
 10
3678.4
 20
6441.6
 10
3546.4
 20
6441.6
 97
0
 75
1
 76
1
 98
0
  0
LWPOLYLINE
  5
69
330
17
100
AcDbEntity
  8
WALL
100
AcDbPolyline
 90
4
 70
1
 10
2138.4
 20
6459.200000000001
 10
2622.4
 20
6459.200000000001
 10
2622.4
 20
6424.000000000001
 10
2138.4
 20
6424.000000000001
  0
HATCH
  5
6A
330
17
100
AcDbEntity
  8
WALL
100
AcDbHatch
 10
0.0
 20
0.0
 30
0.0
210
0.0
220
0.0
230
1.0
  2
SOLID
 70
1
 71
0
 91
1
 92
3
 72
0
 73
1
 93
4
 10
2138.4
 20
6459.200000000001
 10
2622.4
 20
6459.200000000001
 10
2622.4
 20
6424.000000000001
 10
2138.4
 20
6424.000000000001
 97
0
 75
1
 76
1
 98
0
  0
LWPOLYLINE
  5
6B
330
17
100
AcDbEntity
  8
WALL
100
AcDbPolyline
 90
4
 70
1
 10
2640.0
 20
6459.200000000001
 10
2816.0
 20
6459.200000000001
 10
2816.0
 20
6424.000000000001
 10
2640.0
 20
6424.000000000001
  0
HATCH
  5
6C
330
17
100
AcDbEntity
  8
WALL
100
AcDbHatch
 10
0.0
 20
0.0
 30
0.0
210
0.0
220
0.0
230
1.0
  2
SOLID
 70
1
 71
0
 91
1
 92
3
 72
0
 73
1
 93
4
 10
2640.0
 20
6459.200000000001
 10
2816.0
 20
6459.200000000001
 10
2816.0
 20
6424.000000000001
 10
2640.0
 20
6424.000000000001
 97
0
 75
1
 76
1
 98
0
  0
LWPOLYLINE
  5
6D
330
17
100
AcDbEntity
  8
WALL
100
AcDbPolyline
 90
4
 70
1
 10
2851.2000000000003
 20
6459.200000000001
 10
2983.2000000000003
 20
6459.200000000001
 10
2983.2000000000003
 20
6424.000000000001
 10
2851.2000000000003
 20
6424.000000000001
  0
HATCH
  5
6E
330
17
100
AcDbEntity
  8
WALL
100
AcDbHatch
 10
0.0
 20
0.0
 30
0.0
210
0.0
220
0.0
230
1.0
  2
SOLID
 70
1
 71
0
 91
1
 92
3
 72
0
 73
1
 93
4
 10
2851.2000000000003
 20
6459.200000000001
 10
2983.2000000000003
 20
6459.200000000001
 10
2983.2000000000003
 20
6424.000000000001
 10
2851.2000000000003
 20
6424.000000000001
 97
0
 75
1
 76
1
 98
0
  0
LWPOLYLINE
  5
6F
330
17
100
AcDbEntity
  8
WALL
100
AcDbPolyline
 90
4
 70
1
 10
8263.2
 20
6397.6
 10
8421.6
 20
6397.6
 10
8421.6
 20
6388.8
 10
8263.2
 20
6388.8
  0
HATCH
  5
70
330
17
100
AcDbEntity
  8
WALL
100
AcDbHatch
 10
0.0
 20
0.0
 30
0.0
210
0.0
220
0.0
230
1.0
  2
SOLID
 70
1
 71
0
 91
1
 92
3
 72
0
 73
1
 93
4
 10
8263.2
 20
6397.6
 10
8421.6
 20
6397.6
 10
8421.6
 20
6388.8
 10
8263.2
 20
6388.8
 97
0
 75
1
 76
1
 98
0
  0
LWPOLYLINE
  5
71
330
17
100
AcDbEntity
  8
WALL
100
AcDbPolyline
 90
4
 70
1
 10
3036.0000000000005
 20
6380.000000000001
 10
3432.0000000000005
 20
6380.000000000001
 10
3432.0000000000005
 20
6353.6
 10
3036.0000000000005
 20
6353.6
  0
HATCH
  5
72
330
17
100
AcDbEntity
  8
WALL
100
AcDbHatch
 10
0.0
 20
0.0
 30
0.0
210
0.0
220
0.0
230
1.0
  2
SOLID
 70
1
 71
0
 91
1
 92
3
 72
0
 73
1
 93
4
 10
3036.0000000000005
 20
6380.000000000001
 10
3432.0000000000005
 20
6380.000000000001
 10
3432.0000000000005
 20
6353.6
 10
3036.0000000000005
 20
6353.6
 97
0
 75
1
 76
1
 98
0
  0
LWPOLYLINE
  5
73
330
17
100
AcDbEntity
  8
WALL
100
AcDbPolyline
 90
4
 70
1
 10
3449.6000000000004
 20
6371.200000000001
 10
3564.0000000000005
 20
6371.200000000001
 10
3564.0000000000005
 20
6353.6
 10
3449.6000000000004
 20
6353.6
  0
HATCH
  5
74
330
17
100
AcDbEntity
  8
WALL
100
AcDbHatch
 10
0.0
 20
0.0
 30
0.0
210
0.0
220
0.0
230
1.0
  2
SOLID
 70
1
 71
0
 91
1
 92
3
 72
0
 73
1
 93
4
 10
3449.6000000000004
 20
6371.200000000001
 10
3564.0000000000005
 20
6371.200000000001
 10
3564.0000000000005
 20
6353.6
 10
3449.6000000000004
 20
6353.6
 97
0
 75
1
 76
1
 98
0
  0
LWPOLYLINE
  5
75
330
17
100
AcDbEntity
  8
WALL
100
AcDbPolyline
 90
4
 70
1
 10
8456.800000000001
 20
6371.200000000001
 10
8668.0
 20
6371.200000000001
 10
8668.0
 20
6336.000000000001
 10
8456.800000000001
 20
6336.000000000001
  0
HATCH
  5
76
330
17
100
AcDbEntity
  8
WALL
100
AcDbHatch
 10
0.0
 20
0.0
 30
0.0
210
0.0
220
0.0
230
1.0
  2
SOLID
 70
1
 71
0
 91
1
 92
3
 72
0
 73
1
 93
4
 10
8456.800000000001
 20
6371.200000000001
 10
8668.0
 20
6371.200000000001
 10
8668.0
 20
6336.000000000001
 10
8456.800000000001
 20
6336.000000000001
 97
0
 75
1
 76
1
 98
0
  0
LWPOLYLINE
  5
77
330
17
100
AcDbEntity
  8
WALL
100
AcDbPolyline
 90
4
 70
1
 10
7453.6
 20
6353.6
 10
8069.6
 20
6353.6
 10
8069.6
 20
6318.400000000001
 10
7453.6
 20
6318.400000000001
  0
HATCH
  5
78
330
17
100
AcDbEntity
  8
WALL
100
AcDbHatch
 10
0.0
 20
0.0
 30
0.0
210
0.0
220
0.0
230
1.0
  2
SOLID
 70
1
 71
0
 91
1
 92
3
 72
0
 73
1
 93
4
 10
7453.6
 20
6353.6
 10
8069.6
 20
6353.6
 10
8069.6
 20
6318.400000000001
 10
7453.6
 20
6318.400000000001
 97
0
 75
1
 76
1
 98
0
  0
LWPOLYLINE
  5
79
330
17
100
AcDbEntity
  8
WALL
100
AcDbPolyline
 90
4
 70
1
 10
2965.6000000000004
 20
6318.400000000001
 10
3071.2000000000003
 20
6318.400000000001
 10
3071.2000000000003
 20
6309.6
 10
2965.6000000000004
 20
6309.6
  0
HATCH
  5
7A
330
17
100
AcDbEntity
  8
WALL
100
AcDbHatch
 10
0.0
 20
0.0
 30
0.0
210
0.0
220
0.0
230
1.0
  2
SOLID
 70
1
 71
0
 91
1
 92
3
 72
0
 73
1
 93
4
 10
2965.6000000000004
 20
6318.400000000001
 10
3071.2000000000003
 20
6318.400000000001
 10
3071.2000000000003
 20
6309.6
 10
2965.6000000000004
 20
6309.6
 97
0
 75
1
 76
1
 98
0
  0
LWPOLYLINE
  5
7B
330
17
100
AcDbEntity
  8
WALL
100
AcDbPolyline
 90
4
 70
1
 10
8280.800000000001
 20
6283.200000000001
 10
8421.6
 20
6283.200000000001
 10
8421.6
 20
6265.6
 10
8280.800000000001
 20
6265.6
  0
HATCH
  5
7C
330
17
100
AcDbEntity
  8
WALL
100
AcDbHatch
 10
0.0
 20
0.0
 30
0.0
210
0.0
220
0.0
230
1.0
  2
SOLID
 70
1
 71
0
 91
1
 92
3
 72
0
 73
1
 93
4
 10
8280.800000000001
 20
6283.200000000001
 10
8421.6
 20
6283.200000000001
 10
8421.6
 20
6265.6
 10
8280.800000000001
 20
6265.6
 97
0
 75
1
 76
1
 98
0
  0
LWPOLYLINE
  5
7D
330
17
100
AcDbEntity
  8
WALL
100
AcDbPolyline
 90
4
 70
1
 10
8474.400000000001
 20
5913.6
 10
8668.0
 20
5913.6
 10
8668.0
 20
5896.000000000001
 10
8474.400000000001
 20
5896.000000000001
  0
HATCH
  5
7E
330
17
100
AcDbEntity
  8
WALL
100
AcDbHatch
 10
0.0
 20
0.0
 30
0.0
210
0.0
220
0.0
230
1.0
  2
SOLID
 70
1
 71
0
 91
1
 92
3
 72
0
 73
1
 93
4
 10
8474.400000000001
 20
5913.6
 10
8668.0
 20
5913.6
 10
8668.0
 20
5896.000000000001
 10
8474.400000000001
 20
5896.000000000001
 97
0
 75
1
 76
1
 98
0
  0
LWPOLYLINE
  5
7F
330
17
100
AcDbEntity
  8
WALL
100
AcDbPolyline
 90
4
 70
1
 10
8509.6
 20
5878.400000000001
 10
8668.0
 20
5878.400000000001
 10
8668.0
 20
5860.8
 10
8509.6
 20
5860.8
  0
HATCH
  5
80
330
17
100
AcDbEntity
  8
WALL
100
AcDbHatch
 10
0.0
 20
0.0
 30
0.0
210
0.0
220
0.0
230
1.0
  2
SOLID
 70
1
 71
0
 91
1
 92
3
 72
0
 73
1
 93
4
 10
8509.6
 20
5878.400000000001
 10
8668.0
 20
5878.400000000001
 10
8668.0
 20
5860.8
 10
8509.6
 20
5860.8
 97
0
 75
1
 76
1
 98
0
  0
LWPOLYLINE
  5
81
330
17
100
AcDbEntity
  8
WALL
100
AcDbPolyline
 90
4
 70
1
 10
8562.400000000001
 20
5799.200000000001
 10
8668.0
 20
5799.200000000001
 10
8668.0
 20
5781.6
 10
8562.400000000001
 20
5781.6
  0
HATCH
  5
82
330
17
100
AcDbEntity
  8
WALL
100
AcDbHatch
 10
0.0
 20
0.0
 30
0.0
210
0.0
220
0.0
230
1.0
  2
SOLID
 70
1
 71
0
 91
1
 92
3
 72
0
 73
1
 93
4
 10
8562.400000000001
 20
5799.200000000001
 10
8668.0
 20
5799.200000000001
 10
8668.0
 20
5781.6
 10
8562.400000000001
 20
5781.6
 97
0
 75
1
 76
1
 98
0
  0
LWPOLYLINE
  5
83
330
17
100
AcDbEntity
  8
WALL
100
AcDbPolyline
 90
4
 70
1
 10
1848.0000000000002
 20
5764.000000000001
 10
2076.8
 20
5764.000000000001
 10
2076.8
 20
5720.000000000001
 10
1848.0000000000002
 20
5720.000000000001
  0
HATCH
  5
84
330
17
100
AcDbEntity
  8
WALL
100
AcDbHatch
 10
0.0
 20
0.0
 30
0.0
210
0.0
220
0.0
230
1.0
  2
SOLID
 70
1
 71
0
 91
1
 92
3
 72
0
 73
1
 93
4
 10
1848.0000000000002
 20
5764.000000000001
 10
2076.8
 20
5764.000000000001
 10
2076.8
 20
5720.000000000001
 10
1848.0000000000002
 20
5720.000000000001
 97
0
 75
1
 76
1
 98
0
  0
LWPOLYLINE
  5
85
330
17
100
AcDbEntity
  8
WALL
100
AcDbPolyline
 90
4
 70
1
 10
316.8
 20
5684.8
 10
440.00000000000006
 20
5684.8
 10
440.00000000000006
 20
5658.400000000001
 10
316.8
 20
5658.400000000001
  0
HATCH
  5
86
330
17
100
AcDbEntity
  8
WALL
100
AcDbHatch
 10
0.0
 20
0.0
 30
0.0
210
0.0
220
0.0
230
1.0
  2
SOLID
 70
1
 71
0
 91
1
 92
3
 72
0
 73
1
 93
4
 10
316.8
 20
5684.8
 10
440.00000000000006
 20
5684.8
 10
440.00000000000006
 20
5658.400000000001
 10
316.8
 20
5658.400000000001
 97
0
 75
1
 76
1
 98
0
  0
LWPOLYLINE
  5
87
330
17
100
AcDbEntity
  8
WALL
100
AcDbPolyline
 90
4
 70
1
 10
8280.800000000001
 20
5640.8
 10
8412.800000000001
 20
5640.8
 10
8412.800000000001
 20
5632.0
 10
8280.800000000001
 20
5632.0
  0
HATCH
  5
88
330
17
100
AcDbEntity
  8
WALL
100
AcDbHatch
 10
0.0
 20
0.0
 30
0.0
210
0.0
220
0.0
230
1.0
  2
SOLID
 70
1
 71
0
 91
1
 92
3
 72
0
 73
1
 93
4
 10
8280.800000000001
 20
5640.8
 10
8412.800000000001
 20
5640.8
 10
8412.800000000001
 20
5632.0
 10
8280.800000000001
 20
5632.0
 97
0
 75
1
 76
1
 98
0
  0
LWPOLYLINE
  5
89
330
17
100
AcDbEntity
  8
WALL
100
AcDbPolyline
 90
4
 70
1
 10
8694.400000000001
 20
5640.8
 10
8800.0
 20
5640.8
 10
8800.0
 20
5632.0
 10
8694.400000000001
 20
5632.0
  0
HATCH
  5
8A
330
17
100
AcDbEntity
  8
WALL
100
AcDbHatch
 10
0.0
 20
0.0
 30
0.0
210
0.0
220
0.0
230
1.0
  2
SOLID
 70
1
 71
0
 91
1
 92
3
 72
0
 73
1
 93
4
 10
8694.400000000001
 20
5640.8
 10
8800.0
 20
5640.8
 10
8800.0
 20
5632.0
 10
8694.400000000001
 20
5632.0
 97
0
 75
1
 76
1
 98
0
  0
LWPOLYLINE
  5
8B
330
17
100
AcDbEntity
  8
WALL
100
AcDbPolyline
 90
4
 70
1
 10
6978.400000000001
 20
5570.400000000001
 10
7084.000000000001
 20
5570.400000000001
 10
7084.000000000001
 20
5561.6
 10
6978.400000000001
 20
5561.6
  0
HATCH
  5
8C
330
17
100
AcDbEntity
  8
WALL
100
AcDbHatch
 10
0.0
 20
0.0
 30
0.0
210
0.0
220
0.0
230
1.0
  2
SOLID
 70
1
 71
0
 91
1
 92
3
 72
0
 73
1
 93
4
 10
6978.400000000001
 20
5570.400000000001
 10
7084.000000000001
 20
5570.400000000001
 10
7084.000000000001
 20
5561.6
 10
6978.400000000001
 20
5561.6
 97
0
 75
1
 76
1
 98
0
  0
LWPOLYLINE
  5
8D
330
17
100
AcDbEntity
  8
WALL
100
AcDbPolyline
 90
4
 70
1
 10
7761.6
 20
5561.6
 10
8008.000000000001
 20
5561.6
 10
8008.000000000001
 20
5508.8
 10
7761.6
 20
5508.8
  0
HATCH
  5
8E
330
17
100
AcDbEntity
  8
WALL
100
AcDbHatch
 10
0.0
 20
0.0
 30
0.0
210
0.0
220
0.0
230
1.0
  2
SOLID
 70
1
 71
0
 91
1
 92
3
 72
0
 73
1
 93
4
 10
7761.6
 20
5561.6
 10
8008.000000000001
 20
5561.6
 10
8008.000000000001
 20
5508.8
 10
7761.6
 20
5508.8
 97
0
 75
1
 76
1
 98
0
  0
LWPOLYLINE
  5
8F
330
17
100
AcDbEntity
  8
WALL
100
AcDbPolyline
 90
4
 70
1
 10
5244.8
 20
5517.6
 10
5350.400000000001
 20
5517.6
 10
5350.400000000001
 20
5508.8
 10
5244.8
 20
5508.8
  0
HATCH
  5
90
330
17
100
AcDbEntity
  8
WALL
100
AcDbHatch
 10
0.0
 20
0.0
 30
0.0
210
0.0
220
0.0
230
1.0
  2
SOLID
 70
1
 71
0
 91
1
 92
3
 72
0
 73
1
 93
4
 10
5244.8
 20
5517.6
 10
5350.400000000001
 20
5517.6
 10
5350.400000000001
 20
5508.8
 10
5244.8
 20
5508.8
 97
0
 75
1
 76
1
 98
0
  0
LWPOLYLINE
  5
91
330
17
100
AcDbEntity
  8
WALL
100
AcDbPolyline
 90
4
 70
1
 10
6248.000000000001
 20
5517.6
 10
6415.200000000001
 20
5517.6
 10
6415.200000000001
 20
5482.400000000001
 10
6248.000000000001
 20
5482.400000000001
  0
HATCH
  5
92
330
17
100
AcDbEntity
  8
WALL
100
AcDbHatch
 10
0.0
 20
0.0
 30
0.0
210
0.0
220
0.0
230
1.0
  2
SOLID
 70
1
 71
0
 91
1
 92
3
 72
0
 73
1
 93
4
 10
6248.000000000001
 20
5517.6
 10
6415.200000000001
 20
5517.6
 10
6415.200000000001
 20
5482.400000000001
 10
6248.000000000001
 20
5482.400000000001
 97
0
 75
1
 76
1
 98
0
  0
LWPOLYLINE
  5
93
330
17
100
AcDbEntity
  8
WALL
100
AcDbPolyline
 90
4
 70
1
 10
6591.200000000001
 20
5526.400000000001
 10
6732.000000000001
 20
5526.400000000001
 10
6732.000000000001
 20
5473.6
 10
6591.200000000001
 20
5473.6
  0
HATCH
  5
94
330
17
100
AcDbEntity
  8
WALL
100
AcDbHatch
 10
0.0
 20
0.0
 30
0.0
210
0.0
220
0.0
230
1.0
  2
SOLID
 70
1
 71
0
 91
1
 92
3
 72
0
 73
1
 93
4
 10
6591.200000000001
 20
5526.400000000001
 10
6732.000000000001
 20
5526.400000000001
 10
6732.000000000001
 20
5473.6
 10
6591.200000000001
 20
5473.6
 97
0
 75
1
 76
1
 98
0
  0
LWPOLYLINE
  5
95
330
17
100
AcDbEntity
  8
WALL
100
AcDbPolyline
 90
4
 70
1
 10
4215.200000000001
 20
5464.8
 10
4338.400000000001
 20
5464.8
 10
4338.400000000001
 20
5456.0
 10
4215.200000000001
 20
5456.0
  0
HATCH
  5
96
330
17
100
AcDbEntity
  8
WALL
100
AcDbHatch
 10
0.0
 20
0.0
 30
0.0
210
0.0
220
0.0
230
1.0
  2
SOLID
 70
1
 71
0
 91
1
 92
3
 72
0
 73
1
 93
4
 10
4215.200000000001
 20
5464.8
 10
4338.400000000001
 20
5464.8
 10
4338.400000000001
 20
5456.0
 10
4215.200000000001
 20
5456.0
 97
0
 75
1
 76
1
 98
0
  0
LWPOLYLINE
  5
97
330
17
100
AcDbEntity
  8
WALL
100
AcDbPolyline
 90
4
 70
1
 10
6256.8
 20
5456.0
 10
6415.200000000001
 20
5456.0
 10
6415.200000000001
 20
5420.8
 10
6256.8
 20
5420.8
  0
HATCH
  5
98
330
17
100
AcDbEntity
  8
WALL
100
AcDbHatch
 10
0.0
 20
0.0
 30
0.0
210
0.0
220
0.0
230
1.0
  2
SOLID
 70
1
 71
0
 91
1
 92
3
 72
0
 73
1
 93
4
 10
6256.8
 20
5456.0
 10
6415.200000000001
 20
5456.0
 10
6415.200000000001
 20
5420.8
 10
6256.8
 20
5420.8
 97
0
 75
1
 76
1
 98
0
  0
LWPOLYLINE
  5
99
330
17
100
AcDbEntity
  8
WALL
100
AcDbPolyline
 90
4
 70
1
 10
4206.400000000001
 20
5438.400000000001
 10
4347.200000000001
 20
5438.400000000001
 10
4347.200000000001
 20
5429.6
 10
4206.400000000001
 20
5429.6
  0
HATCH
  5
9A
330
17
100
AcDbEntity
  8
WALL
100
AcDbHatch
 10
0.0
 20
0.0
 30
0.0
210
0.0
220
0.0
230
1.0
  2
SOLID
 70
1
 71
0
 91
1
 92
3
 72
0
 73
1
 93
4
 10
4206.400000000001
 20
5438.400000000001
 10
4347.200000000001
 20
5438.400000000001
 10
4347.200000000001
 20
5429.6
 10
4206.400000000001
 20
5429.6
 97
0
 75
1
 76
1
 98
0
  0
LWPOLYLINE
  5
9B
330
17
100
AcDbEntity
  8
WALL
100
AcDbPolyline
 90
4
 70
1
 10
4646.400000000001
 20
5438.400000000001
 10
4910.400000000001
 20
5438.400000000001
 10
4910.400000000001
 20
5429.6
 10
4646.400000000001
 20
5429.6
  0
HATCH
  5
9C
330
17
100
AcDbEntity
  8
WALL
100
AcDbHatch
 10
0.0
 20
0.0
 30
0.0
210
0.0
220
0.0
230
1.0
  2
SOLID
 70
1
 71
0
 91
1
 92
3
 72
0
 73
1
 93
4
 10
4646.400000000001
 20
5438.400000000001
 10
4910.400000000001
 20
5438.400000000001
 10
4910.400000000001
 20
5429.6
 10
4646.400000000001
 20
5429.6
 97
0
 75
1
 76
1
 98
0
  0
LWPOLYLINE
  5
9D
330
17
100
AcDbEntity
  8
WALL
100
AcDbPolyline
 90
4
 70
1
 10
4347.200000000001
 20
5385.6
 10
4496.8
 20
5385.6
 10
4496.8
 20
5368.0
 10
4347.200000000001
 20
5368.0
  0
HATCH
  5
9E
330
17
100
AcDbEntity
  8
WALL
100
AcDbHatch
 10
0.0
 20
0.0
 30
0.0
210
0.0
220
0.0
230
1.0
  2
SOLID
 70
1
 71
0
 91
1
 92
3
 72
0
 73
1
 93
4
 10
4347.200000000001
 20
5385.6
 10
4496.8
 20
5385.6
 10
4496.8
 20
5368.0
 10
4347.200000000001
 20
5368.0
 97
0
 75
1
 76
1
 98
0
  0
LWPOLYLINE
  5
9F
330
17
100
AcDbEntity
  8
WALL
100
AcDbPolyline
 90
4
 70
1
 10
7928.800000000001
 20
5385.6
 10
8104.800000000001
 20
5385.6
 10
8104.800000000001
 20
5350.400000000001
 10
7928.800000000001
 20
5350.400000000001
  0
HATCH
  5
A0
330
17
100
AcDbEntity
  8
WALL
100
AcDbHatch
 10
0.0
 20
0.0
 30
0.0
210
0.0
220
0.0
230
1.0
  2
SOLID
 70
1
 71
0
 91
1
 92
3
 72
0
 73
1
 93
4
 10
7928.800000000001
 20
5385.6
 10
8104.800000000001
 20
5385.6
 10
8104.800000000001
 20
5350.400000000001
 10
7928.800000000001
 20
5350.400000000001
 97
0
 75
1
 76
1
 98
0
  0
LWPOLYLINE
  5
A1
330
17
100
AcDbEntity
  8
WALL
100
AcDbPolyline
 90
4
 70
1
 10
4831.200000000001
 20
5016.0
 10
5447.200000000001
 20
5016.0
 10
5447.200000000001
 20
4980.8
 10
4831.200000000001
 20
4980.8
  0
HATCH
  5
A2
330
17
100
AcDbEntity
  8
WALL
100
AcDbHatch
 10
0.0
 20
0.0
 30
0.0
210
0.0
220
0.0
230
1.0
  2
SOLID
 70
1
 71
0
 91
1
 92
3
 72
0
 73
1
 93
4
 10
4831.200000000001
 20
5016.0
 10
5447.200000000001
 20
5016.0
 10
5447.200000000001
 20
4980.8
 10
4831.200000000001
 20
4980.8
 97
0
 75
1
 76
1
 98
0
  0
LWPOLYLINE
  5
A3
330
17
100
AcDbEntity
  8
WALL
100
AcDbPolyline
 90
4
 70
1
 10
6256.8
 20
5016.0
 10
6688.000000000001
 20
5016.0
 10
6688.000000000001
 20
4980.8
 10
6256.8
 20
4980.8
  0
HATCH
  5
A4
330
17
100
AcDbEntity
  8
WALL
100
AcDbHatch
 10
0.0
 20
0.0
 30
0.0
210
0.0
220
0.0
230
1.0
  2
SOLID
 70
1
 71
0
 91
1
 92
3
 72
0
 73
1
 93
4
 10
6256.8
 20
5016.0
 10
6688.000000000001
 20
5016.0
 10
6688.000000000001
 20
4980.8
 10
6256.8
 20
4980.8
 97
0
 75
1
 76
1
 98
0
  0
LWPOLYLINE
  5
A5
330
17
100
AcDbEntity
  8
WALL
100
AcDbPolyline
 90
4
 70
1
 10
6705.6
 20
5007.200000000001
 10
6864.000000000001
 20
5007.200000000001
 10
6864.000000000001
 20
4998.400000000001
 10
6705.6
 20
4998.400000000001
  0
HATCH
  5
A6
330
17
100
AcDbEntity
  8
WALL
100
AcDbHatch
 10
0.0
 20
0.0
 30
0.0
210
0.0
220
0.0
230
1.0
  2
SOLID
 70
1
 71
0
 91
1
 92
3
 72
0
 73
1
 93
4
 10
6705.6
 20
5007.200000000001
 10
6864.000000000001
 20
5007.200000000001
 10
6864.000000000001
 20
4998.400000000001
 10
6705.6
 20
4998.400000000001
 97
0
 75
1
 76
1
 98
0
  0
LWPOLYLINE
  5
A7
330
17
100
AcDbEntity
  8
WALL
100
AcDbPolyline
 90
4
 70
1
 10
4056.8
 20
4945.6
 10
4162.400000000001
 20
4945.6
 10
4162.400000000001
 20
4936.8
 10
4056.8
 20
4936.8
  0
HATCH
  5
A8
330
17
100
AcDbEntity
  8
WALL
100
AcDbHatch
 10
0.0
 20
0.0
 30
0.0
210
0.0
220
0.0
230
1.0
  2
SOLID
 70
1
 71
0
 91
1
 92
3
 72
0
 73
1
 93
4
 10
4056.8
 20
4945.6
 10
4162.400000000001
 20
4945.6
 10
4162.400000000001
 20
4936.8
 10
4056.8
 20
4936.8
 97
0
 75
1
 76
1
 98
0
  0
LWPOLYLINE
  5
A9
330
17
100
AcDbEntity
  8
WALL
100
AcDbPolyline
 90
4
 70
1
 10
8333.6
 20
4945.6
 10
8492.0
 20
4945.6
 10
8492.0
 20
4892.8
 10
8333.6
 20
4892.8
  0
HATCH
  5
AA
330
17
100
AcDbEntity
  8
WALL
100
AcDbHatch
 10
0.0
 20
0.0
 30
0.0
210
0.0
220
0.0
230
1.0
  2
SOLID
 70
1
 71
0
 91
1
 92
3
 72
0
 73
1
 93
4
 10
8333.6
 20
4945.6
 10
8492.0
 20
4945.6
 10
8492.0
 20
4892.8
 10
8333.6
 20
4892.8
 97
0
 75
1
 76
1
 98
0
  0
LWPOLYLINE
  5
AB
330
17
100
AcDbEntity
  8
WALL
100
AcDbPolyline
 90
4
 70
1
 10
8835.2
 20
4945.6
 10
9090.400000000001
 20
4945.6
 10
9090.400000000001
 20
4892.8
 10
8835.2
 20
4892.8
  0
HATCH
  5
AC
330
17
100
AcDbEntity
  8
WALL
100
AcDbHatch
 10
0.0
 20
0.0
 30
0.0
210
0.0
220
0.0
230
1.0
  2
SOLID
 70
1
 71
0
 91
1
 92
3
 72
0
 73
1
 93
4
 10
8835.2
 20
4945.6
 10
9090.400000000001
 20
4945.6
 10
9090.400000000001
 20
4892.8
 10
8835.2
 20
4892.8
 97
0
 75
1
 76
1
 98
0
  0
LWPOLYLINE
  5
AD
330
17
100
AcDbEntity
  8
WALL
100
AcDbPolyline
 90
4
 70
1
 10
5746.400000000001
 20
4928.0
 10
5940.000000000001
 20
4928.0
 10
5940.000000000001
 20
4875.200000000001
 10
5746.400000000001
 20
4875.200000000001
  0
HATCH
  5
AE
330
17
100
AcDbEntity
  8
WALL
100
AcDbHatch
 10
0.0
 20
0.0
 30
0.0
210
0.0
220
0.0
230
1.0
  2
SOLID
 70
1
 71
0
 91
1
 92
3
 72
0
 73
1
 93
4
 10
5746.400000000001
 20
4928.0
 10
5940.000000000001
 20
4928.0
 10
5940.000000000001
 20
4875.200000000001
 10
5746.400000000001
 20
4875.200000000001
 97
0
 75
1
 76
1
 98
0
  0
LWPOLYLINE
  5
AF
330
17
100
AcDbEntity
  8
WALL
100
AcDbPolyline
 90
4
 70
1
 10
7172.000000000001
 20
4840.0
 10
7339.200000000001
 20
4840.0
 10
7339.200000000001
 20
4822.400000000001
 10
7172.000000000001
 20
4822.400000000001
  0
HATCH
  5
B0
330
17
100
AcDbEntity
  8
WALL
100
AcDbHatch
 10
0.0
 20
0.0
 30
0.0
210
0.0
220
0.0
230
1.0
  2
SOLID
 70
1
 71
0
 91
1
 92
3
 72
0
 73
1
 93
4
 10
7172.000000000001
 20
4840.0
 10
7339.200000000001
 20
4840.0
 10
7339.200000000001
 20
4822.400000000001
 10
7172.000000000001
 20
4822.400000000001
 97
0
 75
1
 76
1
 98
0
  0
LWPOLYLINE
  5
B1
330
17
100
AcDbEntity
  8
WALL
100
AcDbPolyline
 90
4
 70
1
 10
8984.800000000001
 20
4620.0
 10
9090.400000000001
 20
4620.0
 10
9090.400000000001
 20
4558.400000000001
 10
8984.800000000001
 20
4558.400000000001
  0
HATCH
  5
B2
330
17
100
AcDbEntity
  8
WALL
100
AcDbHatch
 10
0.0
 20
0.0
 30
0.0
210
0.0
220
0.0
230
1.0
  2
SOLID
 70
1
 71
0
 91
1
 92
3
 72
0
 73
1
 93
4
 10
8984.800000000001
 20
4620.0
 10
9090.400000000001
 20
4620.0
 10
9090.400000000001
 20
4558.400000000001
 10
8984.800000000001
 20
4558.400000000001
 97
0
 75
1
 76
1
 98
0
  0
LWPOLYLINE
  5
B3
330
17
100
AcDbEntity
  8
WALL
100
AcDbPolyline
 90
4
 70
1
 10
2560.8
 20
4470.400000000001
 10
2684.0
 20
4470.400000000001
 10
2684.0
 20
4452.8
 10
2560.8
 20
4452.8
  0
HATCH
  5
B4
330
17
100
AcDbEntity
  8
WALL
100
AcDbHatch
 10
0.0
 20
0.0
 30
0.0
210
0.0
220
0.0
230
1.0
  2
SOLID
 70
1
 71
0
 91
1
 92
3
 72
0
 73
1
 93
4
 10
2560.8
 20
4470.400000000001
 10
2684.0
 20
4470.400000000001
 10
2684.0
 20
4452.8
 10
2560.8
 20
4452.8
 97
0
 75
1
 76
1
 98
0
  0
LWPOLYLINE
  5
B5
330
17
100
AcDbEntity
  8
WALL
100
AcDbPolyline
 90
4
 70
1
 10
8984.800000000001
 20
4417.6
 10
9090.400000000001
 20
4417.6
 10
9090.400000000001
 20
4347.200000000001
 10
8984.800000000001
 20
4347.200000000001
  0
HATCH
  5
B6
330
17
100
AcDbEntity
  8
WALL
100
AcDbHatch
 10
0.0
 20
0.0
 30
0.0
210
0.0
220
0.0
230
1.0
  2
SOLID
 70
1
 71
0
 91
1
 92
3
 72
0
 73
1
 93
4
 10
8984.800000000001
 20
4417.6
 10
9090.400000000001
 20
4417.6
 10
9090.400000000001
 20
4347.200000000001
 10
8984.800000000001
 20
4347.200000000001
 97
0
 75
1
 76
1
 98
0
  0
LWPOLYLINE
  5
B7
330
17
100
AcDbEntity
  8
WALL
100
AcDbPolyline
 90
4
 70
1
 10
3740.0000000000005
 20
4224.0
 10
3863.2000000000003
 20
4224.0
 10
3863.2000000000003
 20
4206.400000000001
 10
3740.0000000000005
 20
4206.400000000001
  0
HATCH
  5
B8
330
17
100
AcDbEntity
  8
WALL
100
AcDbHatch
 10
0.0
 20
0.0
 30
0.0
210
0.0
220
0.0
230
1.0
  2
SOLID
 70
1
 71
0
 91
1
 92
3
 72
0
 73
1
 93
4
 10
3740.0000000000005
 20
4224.0
 10
3863.2000000000003
 20
4224.0
 10
3863.2000000000003
 20
4206.400000000001
 10
3740.0000000000005
 20
4206.400000000001
 97
0
 75
1
 76
1
 98
0
  0
LWPOLYLINE
  5
B9
330
17
100
AcDbEntity
  8
WALL
100
AcDbPolyline
 90
4
 70
1
 10
8060.800000000001
 20
4197.6
 10
8175.200000000001
 20
4197.6
 10
8175.200000000001
 20
4188.8
 10
8060.800000000001
 20
4188.8
  0
HATCH
  5
BA
330
17
100
AcDbEntity
  8
WALL
100
AcDbHatch
 10
0.0
 20
0.0
 30
0.0
210
0.0
220
0.0
230
1.0
  2
SOLID
 70
1
 71
0
 91
1
 92
3
 72
0
 73
1
 93
4
 10
8060.800000000001
 20
4197.6
 10
8175.200000000001
 20
4197.6
 10
8175.200000000001
 20
4188.8
 10
8060.800000000001
 20
4188.8
 97
0
 75
1
 76
1
 98
0
  0
LWPOLYLINE
  5
BB
330
17
100
AcDbEntity
  8
WALL
100
AcDbPolyline
 90
4
 70
1
 10
4259.200000000001
 20
4171.200000000001
 10
4488.0
 20
4171.200000000001
 10
4488.0
 20
4136.0
 10
4259.200000000001
 20
4136.0
  0
HATCH
  5
BC
330
17
100
AcDbEntity
  8
WALL
100
AcDbHatch
 10
0.0
 20
0.0
 30
0.0
210
0.0
220
0.0
230
1.0
  2
SOLID
 70
1
 71
0
 91
1
 92
3
 72
0
 73
1
 93
4
 10
4259.200000000001
 20
4171.200000000001
 10
4488.0
 20
4171.200000000001
 10
4488.0
 20
4136.0
 10
4259.200000000001
 20
4136.0
 97
0
 75
1
 76
1
 98
0
  0
LWPOLYLINE
  5
BD
330
17
100
AcDbEntity
  8
WALL
100
AcDbPolyline
 90
4
 70
1
 10
5614.400000000001
 20
4162.400000000001
 10
5825.6
 20
4162.400000000001
 10
5825.6
 20
4136.0
 10
5614.400000000001
 20
4136.0
  0
HATCH
  5
BE
330
17
100
AcDbEntity
  8
WALL
100
AcDbHatch
 10
0.0
 20
0.0
 30
0.0
210
0.0
220
0.0
230
1.0
  2
SOLID
 70
1
 71
0
 91
1
 92
3
 72
0
 73
1
 93
4
 10
5614.400000000001
 20
4162.400000000001
 10
5825.6
 20
4162.400000000001
 10
5825.6
 20
4136.0
 10
5614.400000000001
 20
4136.0
 97
0
 75
1
 76
1
 98
0
  0
LWPOLYLINE
  5
BF
330
17
100
AcDbEntity
  8
WALL
100
AcDbPolyline
 90
4
 70
1
 10
7233.6
 20
4153.6
 10
8984.800000000001
 20
4153.6
 10
8984.800000000001
 20
4100.8
 10
7233.6
 20
4100.8
  0
HATCH
  5
C0
330
17
100
AcDbEntity
  8
WALL
100
AcDbHatch
 10
0.0
 20
0.0
 30
0.0
210
0.0
220
0.0
230
1.0
  2
SOLID
 70
1
 71
0
 91
1
 92
3
 72
0
 73
1
 93
4
 10
7233.6
 20
4153.6
 10
8984.800000000001
 20
4153.6
 10
8984.800000000001
 20
4100.8
 10
7233.6
 20
4100.8
 97
0
 75
1
 76
1
 98
0
  0
LWPOLYLINE
  5
C1
330
17
100
AcDbEntity
  8
WALL
100
AcDbPolyline
 90
4
 70
1
 10
8588.800000000001
 20
4100.8
 10
8888.0
 20
4100.8
 10
8888.0
 20
4012.8
 10
8588.800000000001
 20
4012.8
  0
HATCH
  5
C2
330
17
100
AcDbEntity
  8
WALL
100
AcDbHatch
 10
0.0
 20
0.0
 30
0.0
210
0.0
220
0.0
230
1.0
  2
SOLID
 70
1
 71
0
 91
1
 92
3
 72
0
 73
1
 93
4
 10
8588.800000000001
 20
4100.8
 10
8888.0
 20
4100.8
 10
8888.0
 20
4012.8
 10
8588.800000000001
 20
4012.8
 97
0
 75
1
 76
1
 98
0
  0
LWPOLYLINE
  5
C3
330
17
100
AcDbEntity
  8
WALL
100
AcDbPolyline
 90
4
 70
1
 10
184.8
 20
3731.2000000000003
 10
290.40000000000003
 20
3731.2000000000003
 10
290.40000000000003
 20
3696.0000000000005
 10
184.8
 20
3696.0000000000005
  0
HATCH
  5
C4
330
17
100
AcDbEntity
  8
WALL
100
AcDbHatch
 10
0.0
 20
0.0
 30
0.0
210
0.0
220
0.0
230
1.0
  2
SOLID
 70
1
 71
0
 91
1
 92
3
 72
0
 73
1
 93
4
 10
184.8
 20
3731.2000000000003
 10
290.40000000000003
 20
3731.2000000000003
 10
290.40000000000003
 20
3696.0000000000005
 10
184.8
 20
3696.0000000000005
 97
0
 75
1
 76
1
 98
0
  0
LWPOLYLINE
  5
C5
330
17
100
AcDbEntity
  8
WALL
100
AcDbPolyline
 90
4
 70
1
 10
1768.8000000000002
 20
3616.8
 10
1980.0000000000002
 20
3616.8
 10
1980.0000000000002
 20
3572.8
 10
1768.8000000000002
 20
3572.8
  0
HATCH
  5
C6
330
17
100
AcDbEntity
  8
WALL
100
AcDbHatch
 10
0.0
 20
0.0
 30
0.0
210
0.0
220
0.0
230
1.0
  2
SOLID
 70
1
 71
0
 91
1
 92
3
 72
0
 73
1
 93
4
 10
1768.8000000000002
 20
3616.8
 10
1980.0000000000002
 20
3616.8
 10
1980.0000000000002
 20
3572.8
 10
1768.8000000000002
 20
3572.8
 97
0
 75
1
 76
1
 98
0
  0
LWPOLYLINE
  5
C7
330
17
100
AcDbEntity
  8
WALL
100
AcDbPolyline
 90
4
 70
1
 10
184.8
 20
3590.4
 10
422.40000000000003
 20
3590.4
 10
422.40000000000003
 20
3537.6000000000004
 10
184.8
 20
3537.6000000000004
  0
HATCH
  5
C8
330
17
100
AcDbEntity
  8
WALL
100
AcDbHatch
 10
0.0
 20
0.0
 30
0.0
210
0.0
220
0.0
230
1.0
  2
SOLID
 70
1
 71
0
 91
1
 92
3
 72
0
 73
1
 93
4
 10
184.8
 20
3590.4
 10
422.40000000000003
 20
3590.4
 10
422.40000000000003
 20
3537.6000000000004
 10
184.8
 20
3537.6000000000004
 97
0
 75
1
 76
1
 98
0
  0
LWPOLYLINE
  5
C9
330
17
100
AcDbEntity
  8
WALL
100
AcDbPolyline
 90
4
 70
1
 10
8386.400000000001
 20
3502.4
 10
8615.2
 20
3502.4
 10
8615.2
 20
3467.2000000000003
 10
8386.400000000001
 20
3467.2000000000003
  0
HATCH
  5
CA
330
17
100
AcDbEntity
  8
WALL
100
AcDbHatch
 10
0.0
 20
0.0
 30
0.0
210
0.0
220
0.0
230
1.0
  2
SOLID
 70
1
 71
0
 91
1
 92
3
 72
0
 73
1
 93
4
 10
8386.400000000001
 20
3502.4
 10
8615.2
 20
3502.4
 10
8615.2
 20
3467.2000000000003
 10
8386.400000000001
 20
3467.2000000000003
 97
0
 75
1
 76
1
 98
0
  0
LWPOLYLINE
  5
CB
330
17
100
AcDbEntity
  8
WALL
100
AcDbPolyline
 90
4
 70
1
 10
184.8
 20
3414.4
 10
290.40000000000003
 20
3414.4
 10
290.40000000000003
 20
3405.6000000000004
 10
184.8
 20
3405.6000000000004
  0
HATCH
  5
CC
330
17
100
AcDbEntity
  8
WALL
100
AcDbHatch
 10
0.0
 20
0.0
 30
0.0
210
0.0
220
0.0
230
1.0
  2
SOLID
 70
1
 71
0
 91
1
 92
3
 72
0
 73
1
 93
4
 10
184.8
 20
3414.4
 10
290.40000000000003
 20
3414.4
 10
290.40000000000003
 20
3405.6000000000004
 10
184.8
 20
3405.6000000000004
 97
0
 75
1
 76
1
 98
0
  0
LWPOLYLINE
  5
CD
330
17
100
AcDbEntity
  8
WALL
100
AcDbPolyline
 90
4
 70
1
 10
2120.8
 20
3396.8
 10
2525.6000000000004
 20
3396.8
 10
2525.6000000000004
 20
3344.0000000000005
 10
2120.8
 20
3344.0000000000005
  0
HATCH
  5
CE
330
17
100
AcDbEntity
  8
WALL
100
AcDbHatch
 10
0.0
 20
0.0
 30
0.0
210
0.0
220
0.0
230
1.0
  2
SOLID
 70
1
 71
0
 91
1
 92
3
 72
0
 73
1
 93
4
 10
2120.8
 20
3396.8
 10
2525.6000000000004
 20
3396.8
 10
2525.6000000000004
 20
3344.0000000000005
 10
2120.8
 20
3344.0000000000005
 97
0
 75
1
 76
1
 98
0
  0
LWPOLYLINE
  5
CF
330
17
100
AcDbEntity
  8
WALL
100
AcDbPolyline
 90
4
 70
1
 10
6054.400000000001
 20
3352.8
 10
6160.000000000001
 20
3352.8
 10
6160.000000000001
 20
3344.0000000000005
 10
6054.400000000001
 20
3344.0000000000005
  0
HATCH
  5
D0
330
17
100
AcDbEntity
  8
WALL
100
AcDbHatch
 10
0.0
 20
0.0
 30
0.0
210
0.0
220
0.0
230
1.0
  2
SOLID
 70
1
 71
0
 91
1
 92
3
 72
0
 73
1
 93
4
 10
6054.400000000001
 20
3352.8
 10
6160.000000000001
 20
3352.8
 10
6160.000000000001
 20
3344.0000000000005
 10
6054.400000000001
 20
3344.0000000000005
 97
0
 75
1
 76
1
 98
0
  0
LWPOLYLINE
  5
D1
330
17
100
AcDbEntity
  8
WALL
100
AcDbPolyline
 90
4
 70
1
 10
3361.6000000000004
 20
3326.4
 10
3502.4
 20
3326.4
 10
3502.4
 20
3291.2000000000003
 10
3361.6000000000004
 20
3291.2000000000003
  0
HATCH
  5
D2
330
17
100
AcDbEntity
  8
WALL
100
AcDbHatch
 10
0.0
 20
0.0
 30
0.0
210
0.0
220
0.0
230
1.0
  2
SOLID
 70
1
 71
0
 91
1
 92
3
 72
0
 73
1
 93
4
 10
3361.6000000000004
 20
3326.4
 10
3502.4
 20
3326.4
 10
3502.4
 20
3291.2000000000003
 10
3361.6000000000004
 20
3291.2000000000003
 97
0
 75
1
 76
1
 98
0
  0
LWPOLYLINE
  5
D3
330
17
100
AcDbEntity
  8
WALL
100
AcDbPolyline
 90
4
 70
1
 10
6124.8
 20
3317.6000000000004
 10
6309.6
 20
3317.6000000000004
 10
6309.6
 20
3308.8
 10
6124.8
 20
3308.8
  0
HATCH
  5
D4
330
17
100
AcDbEntity
  8
WALL
100
AcDbHatch
 10
0.0
 20
0.0
 30
0.0
210
0.0
220
0.0
230
1.0
  2
SOLID
 70
1
 71
0
 91
1
 92
3
 72
0
 73
1
 93
4
 10
6124.8
 20
3317.6000000000004
 10
6309.6
 20
3317.6000000000004
 10
6309.6
 20
3308.8
 10
6124.8
 20
3308.8
 97
0
 75
1
 76
1
 98
0
  0
LWPOLYLINE
  5
D5
330
17
100
AcDbEntity
  8
WALL
100
AcDbPolyline
 90
4
 70
1
 10
2622.4
 20
3273.6000000000004
 10
3625.6000000000004
 20
3273.6000000000004
 10
3625.6000000000004
 20
3220.8
 10
2622.4
 20
3220.8
  0
HATCH
  5
D6
330
17
100
AcDbEntity
  8
WALL
100
AcDbHatch
 10
0.0
 20
0.0
 30
0.0
210
0.0
220
0.0
230
1.0
  2
SOLID
 70
1
 71
0
 91
1
 92
3
 72
0
 73
1
 93
4
 10
2622.4
 20
3273.6000000000004
 10
3625.6000000000004
 20
3273.6000000000004
 10
3625.6000000000004
 20
3220.8
 10
2622.4
 20
3220.8
 97
0
 75
1
 76
1
 98
0
  0
LWPOLYLINE
  5
D7
330
17
100
AcDbEntity
  8
WALL
100
AcDbPolyline
 90
4
 70
1
 10
5262.400000000001
 20
3273.6000000000004
 10
6432.8
 20
3273.6000000000004
 10
6432.8
 20
3220.8
 10
5262.400000000001
 20
3220.8
  0
HATCH
  5
D8
330
17
100
AcDbEntity
  8
WALL
100
AcDbHatch
 10
0.0
 20
0.0
 30
0.0
210
0.0
220
0.0
230
1.0
  2
SOLID
 70
1
 71
0
 91
1
 92
3
 72
0
 73
1
 93
4
 10
5262.400000000001
 20
3273.6000000000004
 10
6432.8
 20
3273.6000000000004
 10
6432.8
 20
3220.8
 10
5262.400000000001
 20
3220.8
 97
0
 75
1
 76
1
 98
0
  0
LWPOLYLINE
  5
D9
330
17
100
AcDbEntity
  8
WALL
100
AcDbPolyline
 90
4
 70
1
 10
184.8
 20
3256.0000000000005
 10
308.0
 20
3256.0000000000005
 10
308.0
 20
3238.4
 10
184.8
 20
3238.4
  0
HATCH
  5
DA
330
17
100
AcDbEntity
  8
WALL
100
AcDbHatch
 10
0.0
 20
0.0
 30
0.0
210
0.0
220
0.0
230
1.0
  2
SOLID
 70
1
 71
0
 91
1
 92
3
 72
0
 73
1
 93
4
 10
184.8
 20
3256.0000000000005
 10
308.0
 20
3256.0000000000005
 10
308.0
 20
3238.4
 10
184.8
 20
3238.4
 97
0
 75
1
 76
1
 98
0
  0
LWPOLYLINE
  5
DB
330
17
100
AcDbEntity
  8
WALL
100
AcDbPolyline
 90
4
 70
1
 10
2094.4
 20
3229.6000000000004
 10
2200.0
 20
3229.6000000000004
 10
2200.0
 20
3220.8
 10
2094.4
 20
3220.8
  0
HATCH
  5
DC
330
17
100
AcDbEntity
  8
WALL
100
AcDbHatch
 10
0.0
 20
0.0
 30
0.0
210
0.0
220
0.0
230
1.0
  2
SOLID
 70
1
 71
0
 91
1
 92
3
 72
0
 73
1
 93
4
 10
2094.4
 20
3229.6000000000004
 10
2200.0
 20
3229.6000000000004
 10
2200.0
 20
3220.8
 10
2094.4
 20
3220.8
 97
0
 75
1
 76
1
 98
0
  0
LWPOLYLINE
  5
DD
330
17
100
AcDbEntity
  8
WALL
100
AcDbPolyline
 90
4
 70
1
 10
2296.8
 20
3238.4
 10
2437.6000000000004
 20
3238.4
 10
2437.6000000000004
 20
3203.2000000000003
 10
2296.8
 20
3203.2000000000003
  0
HATCH
  5
DE
330
17
100
AcDbEntity
  8
WALL
100
AcDbHatch
 10
0.0
 20
0.0
 30
0.0
210
0.0
220
0.0
230
1.0
  2
SOLID
 70
1
 71
0
 91
1
 92
3
 72
0
 73
1
 93
4
 10
2296.8
 20
3238.4
 10
2437.6000000000004
 20
3238.4
 10
2437.6000000000004
 20
3203.2000000000003
 10
2296.8
 20
3203.2000000000003
 97
0
 75
1
 76
1
 98
0
  0
LWPOLYLINE
  5
DF
330
17
100
AcDbEntity
  8
WALL
100
AcDbPolyline
 90
4
 70
1
 10
3528.8
 20
3194.4
 10
3634.4
 20
3194.4
 10
3634.4
 20
3176.8
 10
3528.8
 20
3176.8
  0
HATCH
  5
E0
330
17
100
AcDbEntity
  8
WALL
100
AcDbHatch
 10
0.0
 20
0.0
 30
0.0
210
0.0
220
0.0
230
1.0
  2
SOLID
 70
1
 71
0
 91
1
 92
3
 72
0
 73
1
 93
4
 10
3528.8
 20
3194.4
 10
3634.4
 20
3194.4
 10
3634.4
 20
3176.8
 10
3528.8
 20
3176.8
 97
0
 75
1
 76
1
 98
0
  0
LWPOLYLINE
  5
E1
330
17
100
AcDbEntity
  8
WALL
100
AcDbPolyline
 90
4
 70
1
 10
8720.800000000001
 20
3185.6000000000004
 10
8835.2
 20
3185.6000000000004
 10
8835.2
 20
3168.0000000000005
 10
8720.800000000001
 20
3168.0000000000005
  0
HATCH
  5
E2
330
17
100
AcDbEntity
  8
WALL
100
AcDbHatch
 10
0.0
 20
0.0
 30
0.0
210
0.0
220
0.0
230
1.0
  2
SOLID
 70
1
 71
0
 91
1
 92
3
 72
0
 73
1
 93
4
 10
8720.800000000001
 20
3185.6000000000004
 10
8835.2
 20
3185.6000000000004
 10
8835.2
 20
3168.0000000000005
 10
8720.800000000001
 20
3168.0000000000005
 97
0
 75
1
 76
1
 98
0
  0
LWPOLYLINE
  5
E3
330
17
100
AcDbEntity
  8
WALL
100
AcDbPolyline
 90
4
 70
1
 10
4391.200000000001
 20
3150.4
 10
4496.8
 20
3150.4
 10
4496.8
 20
3097.6000000000004
 10
4391.200000000001
 20
3097.6000000000004
  0
HATCH
  5
E4
330
17
100
AcDbEntity
  8
WALL
100
AcDbHatch
 10
0.0
 20
0.0
 30
0.0
210
0.0
220
0.0
230
1.0
  2
SOLID
 70
1
 71
0
 91
1
 92
3
 72
0
 73
1
 93
4
 10
4391.200000000001
 20
3150.4
 10
4496.8
 20
3150.4
 10
4496.8
 20
3097.6000000000004
 10
4391.200000000001
 20
3097.6000000000004
 97
0
 75
1
 76
1
 98
0
  0
LWPOLYLINE
  5
E5
330
17
100
AcDbEntity
  8
WALL
100
AcDbPolyline
 90
4
 70
1
 10
7761.6
 20
2974.4
 10
8518.400000000001
 20
2974.4
 10
8518.400000000001
 20
2921.6000000000004
 10
7761.6
 20
2921.6000000000004
  0
HATCH
  5
E6
330
17
100
AcDbEntity
  8
WALL
100
AcDbHatch
 10
0.0
 20
0.0
 30
0.0
210
0.0
220
0.0
230
1.0
  2
SOLID
 70
1
 71
0
 91
1
 92
3
 72
0
 73
1
 93
4
 10
7761.6
 20
2974.4
 10
8518.400000000001
 20
2974.4
 10
8518.400000000001
 20
2921.6000000000004
 10
7761.6
 20
2921.6000000000004
 97
0
 75
1
 76
1
 98
0
  0
LWPOLYLINE
  5
E7
330
17
100
AcDbEntity
  8
WALL
100
AcDbPolyline
 90
4
 70
1
 10
1152.8000000000002
 20
2798.4
 10
1346.4
 20
2798.4
 10
1346.4
 20
2780.8
 10
1152.8000000000002
 20
2780.8
  0
HATCH
  5
E8
330
17
100
AcDbEntity
  8
WALL
100
AcDbHatch
 10
0.0
 20
0.0
 30
0.0
210
0.0
220
0.0
230
1.0
  2
SOLID
 70
1
 71
0
 91
1
 92
3
 72
0
 73
1
 93
4
 10
1152.8000000000002
 20
2798.4
 10
1346.4
 20
2798.4
 10
1346.4
 20
2780.8
 10
1152.8000000000002
 20
2780.8
 97
0
 75
1
 76
1
 98
0
  0
LWPOLYLINE
  5
E9
330
17
100
AcDbEntity
  8
WALL
100
AcDbPolyline
 90
4
 70
1
 10
2675.2000000000003
 20
2780.8
 10
2798.4
 20
2780.8
 10
2798.4
 20
2754.4
 10
2675.2000000000003
 20
2754.4
  0
HATCH
  5
EA
330
17
100
AcDbEntity
  8
WALL
100
AcDbHatch
 10
0.0
 20
0.0
 30
0.0
210
0.0
220
0.0
230
1.0
  2
SOLID
 70
1
 71
0
 91
1
 92
3
 72
0
 73
1
 93
4
 10
2675.2000000000003
 20
2780.8
 10
2798.4
 20
2780.8
 10
2798.4
 20
2754.4
 10
2675.2000000000003
 20
2754.4
 97
0
 75
1
 76
1
 98
0
  0
LWPOLYLINE
  5
EB
330
17
100
AcDbEntity
  8
WALL
100
AcDbPolyline
 90
4
 70
1
 10
6019.200000000001
 20
2780.8
 10
6432.8
 20
2780.8
 10
6432.8
 20
2745.6000000000004
 10
6019.200000000001
 20
2745.6000000000004
  0
HATCH
  5
EC
330
17
100
AcDbEntity
  8
WALL
100
AcDbHatch
 10
0.0
 20
0.0
 30
0.0
210
0.0
220
0.0
230
1.0
  2
SOLID
 70
1
 71
0
 91
1
 92
3
 72
0
 73
1
 93
4
 10
6019.200000000001
 20
2780.8
 10
6432.8
 20
2780.8
 10
6432.8
 20
2745.6000000000004
 10
6019.200000000001
 20
2745.6000000000004
 97
0
 75
1
 76
1
 98
0
  0
LWPOLYLINE
  5
ED
330
17
100
AcDbEntity
  8
WALL
100
AcDbPolyline
 90
4
 70
1
 10
5834.400000000001
 20
2710.4
 10
6063.200000000001
 20
2710.4
 10
6063.200000000001
 20
2657.6000000000004
 10
5834.400000000001
 20
2657.6000000000004
  0
HATCH
  5
EE
330
17
100
AcDbEntity
  8
WALL
100
AcDbHatch
 10
0.0
 20
0.0
 30
0.0
210
0.0
220
0.0
230
1.0
  2
SOLID
 70
1
 71
0
 91
1
 92
3
 72
0
 73
1
 93
4
 10
5834.400000000001
 20
2710.4
 10
6063.200000000001
 20
2710.4
 10
6063.200000000001
 20
2657.6000000000004
 10
5834.400000000001
 20
2657.6000000000004
 97
0
 75
1
 76
1
 98
0
  0
LWPOLYLINE
  5
EF
330
17
100
AcDbEntity
  8
WALL
100
AcDbPolyline
 90
4
 70
1
 10
2543.2000000000003
 20
2587.2000000000003
 10
2648.8
 20
2587.2000000000003
 10
2648.8
 20
2569.6000000000004
 10
2543.2000000000003
 20
2569.6000000000004
  0
HATCH
  5
F0
330
17
100
AcDbEntity
  8
WALL
100
AcDbHatch
 10
0.0
 20
0.0
 30
0.0
210
0.0
220
0.0
230
1.0
  2
SOLID
 70
1
 71
0
 91
1
 92
3
 72
0
 73
1
 93
4
 10
2543.2000000000003
 20
2587.2000000000003
 10
2648.8
 20
2587.2000000000003
 10
2648.8
 20
2569.6000000000004
 10
2543.2000000000003
 20
2569.6000000000004
 97
0
 75
1
 76
1
 98
0
  0
LWPOLYLINE
  5
F1
330
17
100
AcDbEntity
  8
WALL
100
AcDbPolyline
 90
4
 70
1
 10
2543.2000000000003
 20
2552.0
 10
2648.8
 20
2552.0
 10
2648.8
 20
2534.4
 10
2543.2000000000003
 20
2534.4
  0
HATCH
  5
F2
330
17
100
AcDbEntity
  8
WALL
100
AcDbHatch
 10
0.0
 20
0.0
 30
0.0
210
0.0
220
0.0
230
1.0
  2
SOLID
 70
1
 71
0
 91
1
 92
3
 72
0
 73
1
 93
4
 10
2543.2000000000003
 20
2552.0
 10
2648.8
 20
2552.0
 10
2648.8
 20
2534.4
 10
2543.2000000000003
 20
2534.4
 97
0
 75
1
 76
1
 98
0
  0
LWPOLYLINE
  5
F3
330
17
100
AcDbEntity
  8
WALL
100
AcDbPolyline
 90
4
 70
1
 10
5869.6
 20
2288.0
 10
6063.200000000001
 20
2288.0
 10
6063.200000000001
 20
2252.8
 10
5869.6
 20
2252.8
  0
HATCH
  5
F4
330
17
100
AcDbEntity
  8
WALL
100
AcDbHatch
 10
0.0
 20
0.0
 30
0.0
210
0.0
220
0.0
230
1.0
  2
SOLID
 70
1
 71
0
 91
1
 92
3
 72
0
 73
1
 93
4
 10
5869.6
 20
2288.0
 10
6063.200000000001
 20
2288.0
 10
6063.200000000001
 20
2252.8
 10
5869.6
 20
2252.8
 97
0
 75
1
 76
1
 98
0
  0
LWPOLYLINE
  5
F5
330
17
100
AcDbEntity
  8
WALL
100
AcDbPolyline
 90
4
 70
1
 10
4479.200000000001
 20
2270.4
 10
5852.000000000001
 20
2270.4
 10
5852.000000000001
 20
2200.0
 10
4479.200000000001
 20
2200.0
  0
HATCH
  5
F6
330
17
100
AcDbEntity
  8
WALL
100
AcDbHatch
 10
0.0
 20
0.0
 30
0.0
210
0.0
220
0.0
230
1.0
  2
SOLID
 70
1
 71
0
 91
1
 92
3
 72
0
 73
1
 93
4
 10
4479.200000000001
 20
2270.4
 10
5852.000000000001
 20
2270.4
 10
5852.000000000001
 20
2200.0
 10
4479.200000000001
 20
2200.0
 97
0
 75
1
 76
1
 98
0
  0
LWPOLYLINE
  5
F7
330
17
100
AcDbEntity
  8
WALL
100
AcDbPolyline
 90
4
 70
1
 10
3599.2000000000003
 20
2244.0
 10
4408.8
 20
2244.0
 10
4408.8
 20
2200.0
 10
3599.2000000000003
 20
2200.0
  0
HATCH
  5
F8
330
17
100
AcDbEntity
  8
WALL
100
AcDbHatch
 10
0.0
 20
0.0
 30
0.0
210
0.0
220
0.0
230
1.0
  2
SOLID
 70
1
 71
0
 91
1
 92
3
 72
0
 73
1
 93
4
 10
3599.2000000000003
 20
2244.0
 10
4408.8
 20
2244.0
 10
4408.8
 20
2200.0
 10
3599.2000000000003
 20
2200.0
 97
0
 75
1
 76
1
 98
0
  0
LWPOLYLINE
  5
F9
330
17
100
AcDbEntity
  8
WALL
100
AcDbPolyline
 90
4
 70
1
 10
3009.6000000000004
 20
2235.2000000000003
 10
3282.4
 20
2235.2000000000003
 10
3282.4
 20
2200.0
 10
3009.6000000000004
 20
2200.0
  0
HATCH
  5
FA
330
17
100
AcDbEntity
  8
WALL
100
AcDbHatch
 10
0.0
 20
0.0
 30
0.0
210
0.0
220
0.0
230
1.0
  2
SOLID
 70
1
 71
0
 91
1
 92
3
 72
0
 73
1
 93
4
 10
3009.6000000000004
 20
2235.2000000000003
 10
3282.4
 20
2235.2000000000003
 10
3282.4
 20
2200.0
 10
3009.6000000000004
 20
2200.0
 97
0
 75
1
 76
1
 98
0
  0
LWPOLYLINE
  5
FB
330
17
100
AcDbEntity
  8
WALL
100
AcDbPolyline
 90
4
 70
1
 10
2824.8
 20
2217.6000000000004
 10
2974.4
 20
2217.6000000000004
 10
2974.4
 20
2182.4
 10
2824.8
 20
2182.4
  0
HATCH
  5
FC
330
17
100
AcDbEntity
  8
WALL
100
AcDbHatch
 10
0.0
 20
0.0
 30
0.0
210
0.0
220
0.0
230
1.0
  2
SOLID
 70
1
 71
0
 91
1
 92
3
 72
0
 73
1
 93
4
 10
2824.8
 20
2217.6000000000004
 10
2974.4
 20
2217.6000000000004
 10
2974.4
 20
2182.4
 10
2824.8
 20
2182.4
 97
0
 75
1
 76
1
 98
0
  0
LWPOLYLINE
  5
FD
330
17
100
AcDbEntity
  8
WALL
100
AcDbPolyline
 90
4
 70
1
 10
8984.800000000001
 20
1733.6000000000001
 10
9090.400000000001
 20
1733.6000000000001
 10
9090.400000000001
 20
1716.0000000000002
 10
8984.800000000001
 20
1716.0000000000002
  0
HATCH
  5
FE
330
17
100
AcDbEntity
  8
WALL
100
AcDbHatch
 10
0.0
 20
0.0
 30
0.0
210
0.0
220
0.0
230
1.0
  2
SOLID
 70
1
 71
0
 91
1
 92
3
 72
0
 73
1
 93
4
 10
8984.800000000001
 20
1733.6000000000001
 10
9090.400000000001
 20
1733.6000000000001
 10
9090.400000000001
 20
1716.0000000000002
 10
8984.800000000001
 20
1716.0000000000002
 97
0
 75
1
 76
1
 98
0
  0
LWPOLYLINE
  5
FF
330
17
100
AcDbEntity
  8
WALL
100
AcDbPolyline
 90
4
 70
1
 10
8536.0
 20
1672.0000000000002
 10
8984.800000000001
 20
1672.0000000000002
 10
8984.800000000001
 20
1636.8000000000002
 10
8536.0
 20
1636.8000000000002
  0
HATCH
  5
100
330
17
100
AcDbEntity
  8
WALL
100
AcDbHatch
 10
0.0
 20
0.0
 30
0.0
210
0.0
220
0.0
230
1.0
  2
SOLID
 70
1
 71
0
 91
1
 92
3
 72
0
 73
1
 93
4
 10
8536.0
 20
1672.0000000000002
 10
8984.800000000001
 20
1672.0000000000002
 10
8984.800000000001
 20
1636.8000000000002
 10
8536.0
 20
1636.8000000000002
 97
0
 75
1
 76
1
 98
0
  0
LWPOLYLINE
  5
101
330
17
100
AcDbEntity
  8
WALL
100
AcDbPolyline
 90
4
 70
1
 10
7770.400000000001
 20
1654.4
 10
7876.000000000001
 20
1654.4
 10
7876.000000000001
 20
1645.6000000000001
 10
7770.400000000001
 20
1645.6000000000001
  0
HATCH
  5
102
330
17
100
AcDbEntity
  8
WALL
100
AcDbHatch
 10
0.0
 20
0.0
 30
0.0
210
0.0
220
0.0
230
1.0
  2
SOLID
 70
1
 71
0
 91
1
 92
3
 72
0
 73
1
 93
4
 10
7770.400000000001
 20
1654.4
 10
7876.000000000001
 20
1654.4
 10
7876.000000000001
 20
1645.6000000000001
 10
7770.400000000001
 20
1645.6000000000001
 97
0
 75
1
 76
1
 98
0
  0
LWPOLYLINE
  5
103
330
17
100
AcDbEntity
  8
WALL
100
AcDbPolyline
 90
4
 70
1
 10
8720.800000000001
 20
1566.4
 10
8835.2
 20
1566.4
 10
8835.2
 20
1548.8000000000002
 10
8720.800000000001
 20
1548.8000000000002
  0
HATCH
  5
104
330
17
100
AcDbEntity
  8
WALL
100
AcDbHatch
 10
0.0
 20
0.0
 30
0.0
210
0.0
220
0.0
230
1.0
  2
SOLID
 70
1
 71
0
 91
1
 92
3
 72
0
 73
1
 93
4
 10
8720.800000000001
 20
1566.4
 10
8835.2
 20
1566.4
 10
8835.2
 20
1548.8000000000002
 10
8720.800000000001
 20
1548.8000000000002
 97
0
 75
1
 76
1
 98
0
  0
LWPOLYLINE
  5
105
330
17
100
AcDbEntity
  8
WALL
100
AcDbPolyline
 90
4
 70
1
 10
4532.0
 20
1548.8000000000002
 10
4690.400000000001
 20
1548.8000000000002
 10
4690.400000000001
 20
1496.0000000000002
 10
4532.0
 20
1496.0000000000002
  0
HATCH
  5
106
330
17
100
AcDbEntity
  8
WALL
100
AcDbHatch
 10
0.0
 20
0.0
 30
0.0
210
0.0
220
0.0
230
1.0
  2
SOLID
 70
1
 71
0
 91
1
 92
3
 72
0
 73
1
 93
4
 10
4532.0
 20
1548.8000000000002
 10
4690.400000000001
 20
1548.8000000000002
 10
4690.400000000001
 20
1496.0000000000002
 10
4532.0
 20
1496.0000000000002
 97
0
 75
1
 76
1
 98
0
  0
LWPOLYLINE
  5
107
330
17
100
AcDbEntity
  8
WALL
100
AcDbPolyline
 90
4
 70
1
 10
202.4
 20
1460.8000000000002
 10
308.0
 20
1460.8000000000002
 10
308.0
 20
1434.4
 10
202.4
 20
1434.4
  0
HATCH
  5
108
330
17
100
AcDbEntity
  8
WALL
100
AcDbHatch
 10
0.0
 20
0.0
 30
0.0
210
0.0
220
0.0
230
1.0
  2
SOLID
 70
1
 71
0
 91
1
 92
3
 72
0
 73
1
 93
4
 10
202.4
 20
1460.8000000000002
 10
308.0
 20
1460.8000000000002
 10
308.0
 20
1434.4
 10
202.4
 20
1434.4
 97
0
 75
1
 76
1
 98
0
  0
LWPOLYLINE
  5
109
330
17
100
AcDbEntity
  8
WALL
100
AcDbPolyline
 90
4
 70
1
 10
2261.6000000000004
 20
1372.8000000000002
 10
2464.0
 20
1372.8000000000002
 10
2464.0
 20
1320.0
 10
2261.6000000000004
 20
1320.0
  0
HATCH
  5
10A
330
17
100
AcDbEntity
  8
WALL
100
AcDbHatch
 10
0.0
 20
0.0
 30
0.0
210
0.0
220
0.0
230
1.0
  2
SOLID
 70
1
 71
0
 91
1
 92
3
 72
0
 73
1
 93
4
 10
2261.6000000000004
 20
1372.8000000000002
 10
2464.0
 20
1372.8000000000002
 10
2464.0
 20
1320.0
 10
2261.6000000000004
 20
1320.0
 97
0
 75
1
 76
1
 98
0
  0
LWPOLYLINE
  5
10B
330
17
100
AcDbEntity
  8
WALL
100
AcDbPolyline
 90
4
 70
1
 10
431.20000000000005
 20
1337.6000000000001
 10
616.0
 20
1337.6000000000001
 10
616.0
 20
1302.4
 10
431.20000000000005
 20
1302.4
  0
HATCH
  5
10C
330
17
100
AcDbEntity
  8
WALL
100
AcDbHatch
 10
0.0
 20
0.0
 30
0.0
210
0.0
220
0.0
230
1.0
  2
SOLID
 70
1
 71
0
 91
1
 92
3
 72
0
 73
1
 93
4
 10
431.20000000000005
 20
1337.6000000000001
 10
616.0
 20
1337.6000000000001
 10
616.0
 20
1302.4
 10
431.20000000000005
 20
1302.4
 97
0
 75
1
 76
1
 98
0
  0
LWPOLYLINE
  5
10D
330
17
100
AcDbEntity
  8
WALL
100
AcDbPolyline
 90
4
 70
1
 10
4532.0
 20
1337.6000000000001
 10
4690.400000000001
 20
1337.6000000000001
 10
4690.400000000001
 20
1302.4
 10
4532.0
 20
1302.4
  0
HATCH
  5
10E
330
17
100
AcDbEntity
  8
WALL
100
AcDbHatch
 10
0.0
 20
0.0
 30
0.0
210
0.0
220
0.0
230
1.0
  2
SOLID
 70
1
 71
0
 91
1
 92
3
 72
0
 73
1
 93
4
 10
4532.0
 20
1337.6000000000001
 10
4690.400000000001
 20
1337.6000000000001
 10
4690.400000000001
 20
1302.4
 10
4532.0
 20
1302.4
 97
0
 75
1
 76
1
 98
0
  0
LWPOLYLINE
  5
10F
330
17
100
AcDbEntity
  8
WALL
100
AcDbPolyline
 90
4
 70
1
 10
4514.400000000001
 20
1144.0
 10
4708.0
 20
1144.0
 10
4708.0
 20
1091.2
 10
4514.400000000001
 20
1091.2
  0
HATCH
  5
110
330
17
100
AcDbEntity
  8
WALL
100
AcDbHatch
 10
0.0
 20
0.0
 30
0.0
210
0.0
220
0.0
230
1.0
  2
SOLID
 70
1
 71
0
 91
1
 92
3
 72
0
 73
1
 93
4
 10
4514.400000000001
 20
1144.0
 10
4708.0
 20
1144.0
 10
4708.0
 20
1091.2
 10
4514.400000000001
 20
1091.2
 97
0
 75
1
 76
1
 98
0
  0
LWPOLYLINE
  5
111
330
17
100
AcDbEntity
  8
WALL
100
AcDbPolyline
 90
4
 70
1
 10
6380.000000000001
 20
915.2
 10
6670.400000000001
 20
915.2
 10
6670.400000000001
 20
827.2
 10
6380.000000000001
 20
827.2
  0
HATCH
  5
112
330
17
100
AcDbEntity
  8
WALL
100
AcDbHatch
 10
0.0
 20
0.0
 30
0.0
210
0.0
220
0.0
230
1.0
  2
SOLID
 70
1
 71
0
 91
1
 92
3
 72
0
 73
1
 93
4
 10
6380.000000000001
 20
915.2
 10
6670.400000000001
 20
915.2
 10
6670.400000000001
 20
827.2
 10
6380.000000000001
 20
827.2
 97
0
 75
1
 76
1
 98
0
  0
LWPOLYLINE
  5
113
330
17
100
AcDbEntity
  8
WALL
100
AcDbPolyline
 90
4
 70
1
 10
3757.6000000000004
 20
712.8000000000001
 10
3863.2000000000003
 20
712.8000000000001
 10
3863.2000000000003
 20
704.0
 10
3757.6000000000004
 20
704.0
  0
HATCH
  5
114
330
17
100
AcDbEntity
  8
WALL
100
AcDbHatch
 10
0.0
 20
0.0
 30
0.0
210
0.0
220
0.0
230
1.0
  2
SOLID
 70
1
 71
0
 91
1
 92
3
 72
0
 73
1
 93
4
 10
3757.6000000000004
 20
712.8000000000001
 10
3863.2000000000003
 20
712.8000000000001
 10
3863.2000000000003
 20
704.0
 10
3757.6000000000004
 20
704.0
 97
0
 75
1
 76
1
 98
0
  0
LWPOLYLINE
  5
115
330
17
100
AcDbEntity
  8
WALL
100
AcDbPolyline
 90
4
 70
1
 10
4004.0000000000005
 20
721.6
 10
4127.200000000001
 20
721.6
 10
4127.200000000001
 20
704.0
 10
4004.0000000000005
 20
704.0
  0
HATCH
  5
116
330
17
100
AcDbEntity
  8
WALL
100
AcDbHatch
 10
0.0
 20
0.0
 30
0.0
210
0.0
220
0.0
230
1.0
  2
SOLID
 70
1
 71
0
 91
1
 92
3
 72
0
 73
1
 93
4
 10
4004.0000000000005
 20
721.6
 10
4127.200000000001
 20
721.6
 10
4127.200000000001
 20
704.0
 10
4004.0000000000005
 20
704.0
 97
0
 75
1
 76
1
 98
0
  0
LWPOLYLINE
  5
117
330
17
100
AcDbEntity
  8
WALL
100
AcDbPolyline
 90
4
 70
1
 10
4004.0000000000005
 20
686.4000000000001
 10
4127.200000000001
 20
686.4000000000001
 10
4127.200000000001
 20
668.8000000000001
 10
4004.0000000000005
 20
668.8000000000001
  0
HATCH
  5
118
330
17
100
AcDbEntity
  8
WALL
100
AcDbHatch
 10
0.0
 20
0.0
 30
0.0
210
0.0
220
0.0
230
1.0
  2
SOLID
 70
1
 71
0
 91
1
 92
3
 72
0
 73
1
 93
4
 10
4004.0000000000005
 20
686.4000000000001
 10
4127.200000000001
 20
686.4000000000001
 10
4127.200000000001
 20
668.8000000000001
 10
4004.0000000000005
 20
668.8000000000001
 97
0
 75
1
 76
1
 98
0
  0
LWPOLYLINE
  5
119
330
17
100
AcDbEntity
  8
WALL
100
AcDbPolyline
 90
4
 70
1
 10
3282.4
 20
668.8000000000001
 10
3476.0000000000005
 20
668.8000000000001
 10
3476.0000000000005
 20
563.2
 10
3282.4
 20
563.2
  0
HATCH
  5
11A
330
17
100
AcDbEntity
  8
WALL
100
AcDbHatch
 10
0.0
 20
0.0
 30
0.0
210
0.0
220
0.0
230
1.0
  2
SOLID
 70
1
 71
0
 91
1
 92
3
 72
0
 73
1
 93
4
 10
3282.4
 20
668.8000000000001
 10
3476.0000000000005
 20
668.8000000000001
 10
3476.0000000000005
 20
563.2
 10
3282.4
 20
563.2
 97
0
 75
1
 76
1
 98
0
  0
LWPOLYLINE
  5
11B
330
17
100
AcDbEntity
  8
WALL
100
AcDbPolyline
 90
4
 70
1
 10
3968.8
 20
660.0
 10
4127.200000000001
 20
660.0
 10
4127.200000000001
 20
633.6
 10
3968.8
 20
633.6
  0
HATCH
  5
11C
330
17
100
AcDbEntity
  8
WALL
100
AcDbHatch
 10
0.0
 20
0.0
 30
0.0
210
0.0
220
0.0
230
1.0
  2
SOLID
 70
1
 71
0
 91
1
 92
3
 72
0
 73
1
 93
4
 10
3968.8
 20
660.0
 10
4127.200000000001
 20
660.0
 10
4127.200000000001
 20
633.6
 10
3968.8
 20
633.6
 97
0
 75
1
 76
1
 98
0
  0
LWPOLYLINE
  5
11D
330
17
100
AcDbEntity
  8
WALL
100
AcDbPolyline
 90
4
 70
1
 10
2323.2000000000003
 20
633.6
 10
2508.0
 20
633.6
 10
2508.0
 20
580.8000000000001
 10
2323.2000000000003
 20
580.8000000000001
  0
HATCH
  5
11E
330
17
100
AcDbEntity
  8
WALL
100
AcDbHatch
 10
0.0
 20
0.0
 30
0.0
210
0.0
220
0.0
230
1.0
  2
SOLID
 70
1
 71
0
 91
1
 92
3
 72
0
 73
1
 93
4
 10
2323.2000000000003
 20
633.6
 10
2508.0
 20
633.6
 10
2508.0
 20
580.8000000000001
 10
2323.2000000000003
 20
580.8000000000001
 97
0
 75
1
 76
1
 98
0
  0
LWPOLYLINE
  5
11F
330
17
100
AcDbEntity
  8
WALL
100
AcDbPolyline
 90
4
 70
1
 10
3071.2000000000003
 20
633.6
 10
3247.2000000000003
 20
633.6
 10
3247.2000000000003
 20
598.4000000000001
 10
3071.2000000000003
 20
598.4000000000001
  0
HATCH
  5
120
330
17
100
AcDbEntity
  8
WALL
100
AcDbHatch
 10
0.0
 20
0.0
 30
0.0
210
0.0
220
0.0
230
1.0
  2
SOLID
 70
1
 71
0
 91
1
 92
3
 72
0
 73
1
 93
4
 10
3071.2000000000003
 20
633.6
 10
3247.2000000000003
 20
633.6
 10
3247.2000000000003
 20
598.4000000000001
 10
3071.2000000000003
 20
598.4000000000001
 97
0
 75
1
 76
1
 98
0
  0
LWPOLYLINE
  5
121
330
17
100
AcDbEntity
  8
WALL
100
AcDbPolyline
 90
4
 70
1
 10
3511.2000000000003
 20
616.0
 10
3687.2000000000003
 20
616.0
 10
3687.2000000000003
 20
580.8000000000001
 10
3511.2000000000003
 20
580.8000000000001
  0
HATCH
  5
122
330
17
100
AcDbEntity
  8
WALL
100
AcDbHatch
 10
0.0
 20
0.0
 30
0.0
210
0.0
220
0.0
230
1.0
  2
SOLID
 70
1
 71
0
 91
1
 92
3
 72
0
 73
1
 93
4
 10
3511.2000000000003
 20
616.0
 10
3687.2000000000003
 20
616.0
 10
3687.2000000000003
 20
580.8000000000001
 10
3511.2000000000003
 20
580.8000000000001
 97
0
 75
1
 76
1
 98
0
  0
LWPOLYLINE
  5
123
330
17
100
AcDbEntity
  8
WALL
100
AcDbPolyline
 90
4
 70
1
 10
3080.0000000000005
 20
572.0
 10
3247.2000000000003
 20
572.0
 10
3247.2000000000003
 20
563.2
 10
3080.0000000000005
 20
563.2
  0
HATCH
  5
124
330
17
100
AcDbEntity
  8
WALL
100
AcDbHatch
 10
0.0
 20
0.0
 30
0.0
210
0.0
220
0.0
230
1.0
  2
SOLID
 70
1
 71
0
 91
1
 92
3
 72
0
 73
1
 93
4
 10
3080.0000000000005
 20
572.0
 10
3247.2000000000003
 20
572.0
 10
3247.2000000000003
 20
563.2
 10
3080.0000000000005
 20
563.2
 97
0
 75
1
 76
1
 98
0
  0
LWPOLYLINE
  5
125
330
17
100
AcDbEntity
  8
WALL
100
AcDbPolyline
 90
4
 70
1
 10
3572.8
 20
563.2
 10
3696.0000000000005
 20
563.2
 10
3696.0000000000005
 20
554.4000000000001
 10
3572.8
 20
554.4000000000001
  0
HATCH
  5
126
330
17
100
AcDbEntity
  8
WALL
100
AcDbHatch
 10
0.0
 20
0.0
 30
0.0
210
0.0
220
0.0
230
1.0
  2
SOLID
 70
1
 71
0
 91
1
 92
3
 72
0
 73
1
 93
4
 10
3572.8
 20
563.2
 10
3696.0000000000005
 20
563.2
 10
3696.0000000000005
 20
554.4000000000001
 10
3572.8
 20
554.4000000000001
 97
0
 75
1
 76
1
 98
0
  0
LWPOLYLINE
  5
127
330
17
100
AcDbEntity
  8
WALL
100
AcDbPolyline
 90
4
 70
1
 10
959.2
 20
492.80000000000007
 10
1091.2
 20
492.80000000000007
 10
1091.2
 20
457.6
 10
959.2
 20
457.6
  0
HATCH
  5
128
330
17
100
AcDbEntity
  8
WALL
100
AcDbHatch
 10
0.0
 20
0.0
 30
0.0
210
0.0
220
0.0
230
1.0
  2
SOLID
 70
1
 71
0
 91
1
 92
3
 72
0
 73
1
 93
4
 10
959.2
 20
492.80000000000007
 10
1091.2
 20
492.80000000000007
 10
1091.2
 20
457.6
 10
959.2
 20
457.6
 97
0
 75
1
 76
1
 98
0
  0
LWPOLYLINE
  5
129
330
17
100
AcDbEntity
  8
WALL
100
AcDbPolyline
 90
4
 70
1
 10
3317.6000000000004
 20
475.20000000000005
 10
3458.4
 20
475.20000000000005
 10
3458.4
 20
440.00000000000006
 10
3317.6000000000004
 20
440.00000000000006
  0
HATCH
  5
12A
330
17
100
AcDbEntity
  8
WALL
100
AcDbHatch
 10
0.0
 20
0.0
 30
0.0
210
0.0
220
0.0
230
1.0
  2
SOLID
 70
1
 71
0
 91
1
 92
3
 72
0
 73
1
 93
4
 10
3317.6000000000004
 20
475.20000000000005
 10
3458.4
 20
475.20000000000005
 10
3458.4
 20
440.00000000000006
 10
3317.6000000000004
 20
440.00000000000006
 97
0
 75
1
 76
1
 98
0
  0
LWPOLYLINE
  5
12B
330
17
100
AcDbEntity
  8
WALL
100
AcDbPolyline
 90
4
 70
1
 10
3740.0000000000005
 20
475.20000000000005
 10
3845.6000000000004
 20
475.20000000000005
 10
3845.6000000000004
 20
457.6
 10
3740.0000000000005
 20
457.6
  0
HATCH
  5
12C
330
17
100
AcDbEntity
  8
WALL
100
AcDbHatch
 10
0.0
 20
0.0
 30
0.0
210
0.0
220
0.0
230
1.0
  2
SOLID
 70
1
 71
0
 91
1
 92
3
 72
0
 73
1
 93
4
 10
3740.0000000000005
 20
475.20000000000005
 10
3845.6000000000004
 20
475.20000000000005
 10
3845.6000000000004
 20
457.6
 10
3740.0000000000005
 20
457.6
 97
0
 75
1
 76
1
 98
0
  0
LWPOLYLINE
  5
12D
330
17
100
AcDbEntity
  8
WALL
100
AcDbPolyline
 90
4
 70
1
 10
3810.4
 20
448.8
 10
3916.0000000000005
 20
448.8
 10
3916.0000000000005
 20
440.00000000000006
 10
3810.4
 20
440.00000000000006
  0
HATCH
  5
12E
330
17
100
AcDbEntity
  8
WALL
100
AcDbHatch
 10
0.0
 20
0.0
 30
0.0
210
0.0
220
0.0
230
1.0
  2
SOLID
 70
1
 71
0
 91
1
 92
3
 72
0
 73
1
 93
4
 10
3810.4
 20
448.8
 10
3916.0000000000005
 20
448.8
 10
3916.0000000000005
 20
440.00000000000006
 10
3810.4
 20
440.00000000000006
 97
0
 75
1
 76
1
 98
0
  0
LWPOLYLINE
  5
12F
330
17
100
AcDbEntity
  8
WALL
100
AcDbPolyline
 90
4
 70
1
 10
1821.6000000000001
 20
431.20000000000005
 10
1927.2
 20
431.20000000000005
 10
1927.2
 20
422.40000000000003
 10
1821.6000000000001
 20
422.40000000000003
  0
HATCH
  5
130
330
17
100
AcDbEntity
  8
WALL
100
AcDbHatch
 10
0.0
 20
0.0
 30
0.0
210
0.0
220
0.0
230
1.0
  2
SOLID
 70
1
 71
0
 91
1
 92
3
 72
0
 73
1
 93
4
 10
1821.6000000000001
 20
431.20000000000005
 10
1927.2
 20
431.20000000000005
 10
1927.2
 20
422.40000000000003
 10
1821.6000000000001
 20
422.40000000000003
 97
0
 75
1
 76
1
 98
0
  0
LWPOLYLINE
  5
131
330
17
100
AcDbEntity
  8
WALL
100
AcDbPolyline
 90
4
 70
1
 10
3282.4
 20
404.8
 10
3476.0000000000005
 20
404.8
 10
3476.0000000000005
 20
352.0
 10
3282.4
 20
352.0
  0
HATCH
  5
132
330
17
100
AcDbEntity
  8
WALL
100
AcDbHatch
 10
0.0
 20
0.0
 30
0.0
210
0.0
220
0.0
230
1.0
  2
SOLID
 70
1
 71
0
 91
1
 92
3
 72
0
 73
1
 93
4
 10
3282.4
 20
404.8
 10
3476.0000000000005
 20
404.8
 10
3476.0000000000005
 20
352.0
 10
3282.4
 20
352.0
 97
0
 75
1
 76
1
 98
0
  0
LWPOLYLINE
  5
133
330
17
100
AcDbEntity
  8
WALL
100
AcDbPolyline
 90
4
 70
1
 10
968.0000000000001
 20
387.20000000000005
 10
1100.0
 20
387.20000000000005
 10
1100.0
 20
369.6
 10
968.0000000000001
 20
369.6
  0
HATCH
  5
134
330
17
100
AcDbEntity
  8
WALL
100
AcDbHatch
 10
0.0
 20
0.0
 30
0.0
210
0.0
220
0.0
230
1.0
  2
SOLID
 70
1
 71
0
 91
1
 92
3
 72
0
 73
1
 93
4
 10
968.0000000000001
 20
387.20000000000005
 10
1100.0
 20
387.20000000000005
 10
1100.0
 20
369.6
 10
968.0000000000001
 20
369.6
 97
0
 75
1
 76
1
 98
0
  0
LWPOLYLINE
  5
135
330
17
100
AcDbEntity
  8
WALL
100
AcDbPolyline
 90
4
 70
1
 10
941.6
 20
360.8
 10
1205.6000000000001
 20
360.8
 10
1205.6000000000001
 20
316.8
 10
941.6
 20
316.8
  0
HATCH
  5
136
330
17
100
AcDbEntity
  8
WALL
100
AcDbHatch
 10
0.0
 20
0.0
 30
0.0
210
0.0
220
0.0
230
1.0
  2
SOLID
 70
1
 71
0
 91
1
 92
3
 72
0
 73
1
 93
4
 10
941.6
 20
360.8
 10
1205.6000000000001
 20
360.8
 10
1205.6000000000001
 20
316.8
 10
941.6
 20
316.8
 97
0
 75
1
 76
1
 98
0
  0
LWPOLYLINE
  5
137
330
17
100
AcDbEntity
  8
WALL
100
AcDbPolyline
 90
4
 70
1
 10
1768.8000000000002
 20
352.0
 10
1936.0000000000002
 20
352.0
 10
1936.0000000000002
 20
325.6
 10
1768.8000000000002
 20
325.6
  0
HATCH
  5
138
330
17
100
AcDbEntity
  8
WALL
100
AcDbHatch
 10
0.0
 20
0.0
 30
0.0
210
0.0
220
0.0
230
1.0
  2
SOLID
 70
1
 71
0
 91
1
 92
3
 72
0
 73
1
 93
4
 10
1768.8000000000002
 20
352.0
 10
1936.0000000000002
 20
352.0
 10
1936.0000000000002
 20
325.6
 10
1768.8000000000002
 20
325.6
 97
0
 75
1
 76
1
 98
0
  0
LWPOLYLINE
  5
139
330
17
100
AcDbEntity
  8
WALL
100
AcDbPolyline
 90
4
 70
1
 10
2340.8
 20
334.40000000000003
 10
2455.2000000000003
 20
334.40000000000003
 10
2455.2000000000003
 20
325.6
 10
2340.8
 20
325.6
  0
HATCH
  5
13A
330
17
100
AcDbEntity
  8
WALL
100
AcDbHatch
 10
0.0
 20
0.0
 30
0.0
210
0.0
220
0.0
230
1.0
  2
SOLID
 70
1
 71
0
 91
1
 92
3
 72
0
 73
1
 93
4
 10
2340.8
 20
334.40000000000003
 10
2455.2000000000003
 20
334.40000000000003
 10
2455.2000000000003
 20
325.6
 10
2340.8
 20
325.6
 97
0
 75
1
 76
1
 98
0
  0
LWPOLYLINE
  5
13B
330
17
100
AcDbEntity
  8
WALL
100
AcDbPolyline
 90
4
 70
1
 10
466.40000000000003
 20
228.8
 10
624.8000000000001
 20
228.8
 10
624.8000000000001
 20
193.60000000000002
 10
466.40000000000003
 20
193.60000000000002
  0
HATCH
  5
13C
330
17
100
AcDbEntity
  8
WALL
100
AcDbHatch
 10
0.0
 20
0.0
 30
0.0
210
0.0
220
0.0
230
1.0
  2
SOLID
 70
1
 71
0
 91
1
 92
3
 72
0
 73
1
 93
4
 10
466.40000000000003
 20
228.8
 10
624.8000000000001
 20
228.8
 10
624.8000000000001
 20
193.60000000000002
 10
466.40000000000003
 20
193.60000000000002
 97
0
 75
1
 76
1
 98
0
  0
LWPOLYLINE
  5
13D
330
17
100
AcDbEntity
  8
WALL
100
AcDbPolyline
 90
4
 70
1
 10
8562.400000000001
 20
228.8
 10
8782.400000000001
 20
228.8
 10
8782.400000000001
 20
193.60000000000002
 10
8562.400000000001
 20
193.60000000000002
  0
HATCH
  5
13E
330
17
100
AcDbEntity
  8
WALL
100
AcDbHatch
 10
0.0
 20
0.0
 30
0.0
210
0.0
220
0.0
230
1.0
  2
SOLID
 70
1
 71
0
 91
1
 92
3
 72
0
 73
1
 93
4
 10
8562.400000000001
 20
228.8
 10
8782.400000000001
 20
228.8
 10
8782.400000000001
 20
193.60000000000002
 10
8562.400000000001
 20
193.60000000000002
 97
0
 75
1
 76
1
 98
0
  0
LWPOLYLINE
  5
13F
330
17
100
AcDbEntity
  8
WALL
100
AcDbPolyline
 90
4
 70
1
 10
228.8
 20
158.4
 10
528.0
 20
158.4
 10
528.0
 20
105.60000000000001
 10
228.8
 20
105.60000000000001
  0
HATCH
  5
140
330
17
100
AcDbEntity
  8
WALL
100
AcDbHatch
 10
0.0
 20
0.0
 30
0.0
210
0.0
220
0.0
230
1.0
  2
SOLID
 70
1
 71
0
 91
1
 92
3
 72
0
 73
1
 93
4
 10
228.8
 20
158.4
 10
528.0
 20
158.4
 10
528.0
 20
105.60000000000001
 10
228.8
 20
105.60000000000001
 97
0
 75
1
 76
1
 98
0
  0
LWPOLYLINE
  5
141
330
17
100
AcDbEntity
  8
WALL
100
AcDbPolyline
 90
4
 70
1
 10
8571.2
 20
158.4
 10
8835.2
 20
158.4
 10
8835.2
 20
105.60000000000001
 10
8571.2
 20
105.60000000000001
  0
HATCH
  5
142
330
17
100
AcDbEntity
  8
WALL
100
AcDbHatch
 10
0.0
 20
0.0
 30
0.0
210
0.0
220
0.0
230
1.0
  2
SOLID
 70
1
 71
0
 91
1
 92
3
 72
0
 73
1
 93
4
 10
8571.2
 20
158.4
 10
8835.2
 20
158.4
 10
8835.2
 20
105.60000000000001
 10
8571.2
 20
105.60000000000001
 97
0
 75
1
 76
1
 98
0
  0
LWPOLYLINE
  5
143
330
17
100
AcDbEntity
  8
WALL
100
AcDbPolyline
 90
4
 70
1
 10
211.20000000000002
 20
7154.400000000001
 10
246.40000000000003
 20
7154.400000000001
 10
246.40000000000003
 20
7022.400000000001
 10
211.20000000000002
 20
7022.400000000001
  0
HATCH
  5
144
330
17
100
AcDbEntity
  8
WALL
100
AcDbHatch
 10
0.0
 20
0.0
 30
0.0
210
0.0
220
0.0
230
1.0
  2
SOLID
 70
1
 71
0
 91
1
 92
3
 72
0
 73
1
 93
4
 10
211.20000000000002
 20
7154.400000000001
 10
246.40000000000003
 20
7154.400000000001
 10
246.40000000000003
 20
7022.400000000001
 10
211.20000000000002
 20
7022.400000000001
 97
0
 75
1
 76
1
 98
0
  0
LWPOLYLINE
  5
145
330
17
100
AcDbEntity
  8
WALL
100
AcDbPolyline
 90
4
 70
1
 10
3273.6000000000004
 20
7066.400000000001
 10
3308.8
 20
7066.400000000001
 10
3308.8
 20
6943.200000000001
 10
3273.6000000000004
 20
6943.200000000001
  0
HATCH
  5
146
330
17
100
AcDbEntity
  8
WALL
100
AcDbHatch
 10
0.0
 20
0.0
 30
0.0
210
0.0
220
0.0
230
1.0
  2
SOLID
 70
1
 71
0
 91
1
 92
3
 72
0
 73
1
 93
4
 10
3273.6000000000004
 20
7066.400000000001
 10
3308.8
 20
7066.400000000001
 10
3308.8
 20
6943.200000000001
 10
3273.6000000000004
 20
6943.200000000001
 97
0
 75
1
 76
1
 98
0
  0
LWPOLYLINE
  5
147
330
17
100
AcDbEntity
  8
WALL
100
AcDbPolyline
 90
4
 70
1
 10
3344.0000000000005
 20
7048.8
 10
3388.0000000000005
 20
7048.8
 10
3388.0000000000005
 20
6943.200000000001
 10
3344.0000000000005
 20
6943.200000000001
  0
HATCH
  5
148
330
17
100
AcDbEntity
  8
WALL
100
AcDbHatch
 10
0.0
 20
0.0
 30
0.0
210
0.0
220
0.0
230
1.0
  2
SOLID
 70
1
 71
0
 91
1
 92
3
 72
0
 73
1
 93
4
 10
3344.0000000000005
 20
7048.8
 10
3388.0000000000005
 20
7048.8
 10
3388.0000000000005
 20
6943.200000000001
 10
3344.0000000000005
 20
6943.200000000001
 97
0
 75
1
 76
1
 98
0
  0
LWPOLYLINE
  5
149
330
17
100
AcDbEntity
  8
WALL
100
AcDbPolyline
 90
4
 70
1
 10
3907.2000000000003
 20
7048.8
 10
3951.2000000000003
 20
7048.8
 10
3951.2000000000003
 20
6943.200000000001
 10
3907.2000000000003
 20
6943.200000000001
  0
HATCH
  5
14A
330
17
100
AcDbEntity
  8
WALL
100
AcDbHatch
 10
0.0
 20
0.0
 30
0.0
210
0.0
220
0.0
230
1.0
  2
SOLID
 70
1
 71
0
 91
1
 92
3
 72
0
 73
1
 93
4
 10
3907.2000000000003
 20
7048.8
 10
3951.2000000000003
 20
7048.8
 10
3951.2000000000003
 20
6943.200000000001
 10
3907.2000000000003
 20
6943.200000000001
 97
0
 75
1
 76
1
 98
0
  0
LWPOLYLINE
  5
14B
330
17
100
AcDbEntity
  8
WALL
100
AcDbPolyline
 90
4
 70
1
 10
4162.400000000001
 20
7048.8
 10
4180.0
 20
7048.8
 10
4180.0
 20
6943.200000000001
 10
4162.400000000001
 20
6943.200000000001
  0
HATCH
  5
14C
330
17
100
AcDbEntity
  8
WALL
100
AcDbHatch
 10
0.0
 20
0.0
 30
0.0
210
0.0
220
0.0
230
1.0
  2
SOLID
 70
1
 71
0
 91
1
 92
3
 72
0
 73
1
 93
4
 10
4162.400000000001
 20
7048.8
 10
4180.0
 20
7048.8
 10
4180.0
 20
6943.200000000001
 10
4162.400000000001
 20
6943.200000000001
 97
0
 75
1
 76
1
 98
0
  0
LWPOLYLINE
  5
14D
330
17
100
AcDbEntity
  8
WALL
100
AcDbPolyline
 90
4
 70
1
 10
4470.400000000001
 20
7048.8
 10
4514.400000000001
 20
7048.8
 10
4514.400000000001
 20
6943.200000000001
 10
4470.400000000001
 20
6943.200000000001
  0
HATCH
  5
14E
330
17
100
AcDbEntity
  8
WALL
100
AcDbHatch
 10
0.0
 20
0.0
 30
0.0
210
0.0
220
0.0
230
1.0
  2
SOLID
 70
1
 71
0
 91
1
 92
3
 72
0
 73
1
 93
4
 10
4470.400000000001
 20
7048.8
 10
4514.400000000001
 20
7048.8
 10
4514.400000000001
 20
6943.200000000001
 10
4470.400000000001
 20
6943.200000000001
 97
0
 75
1
 76
1
 98
0
  0
LWPOLYLINE
  5
14F
330
17
100
AcDbEntity
  8
WALL
100
AcDbPolyline
 90
4
 70
1
 10
4725.6
 20
7048.8
 10
4752.0
 20
7048.8
 10
4752.0
 20
6943.200000000001
 10
4725.6
 20
6943.200000000001
  0
HATCH
  5
150
330
17
100
AcDbEntity
  8
WALL
100
AcDbHatch
 10
0.0
 20
0.0
 30
0.0
210
0.0
220
0.0
230
1.0
  2
SOLID
 70
1
 71
0
 91
1
 92
3
 72
0
 73
1
 93
4
 10
4725.6
 20
7048.8
 10
4752.0
 20
7048.8
 10
4752.0
 20
6943.200000000001
 10
4725.6
 20
6943.200000000001
 97
0
 75
1
 76
1
 98
0
  0
LWPOLYLINE
  5
151
330
17
100
AcDbEntity
  8
WALL
100
AcDbPolyline
 90
4
 70
1
 10
6978.400000000001
 20
7048.8
 10
6996.000000000001
 20
7048.8
 10
6996.000000000001
 20
6943.200000000001
 10
6978.400000000001
 20
6943.200000000001
  0
HATCH
  5
152
330
17
100
AcDbEntity
  8
WALL
100
AcDbHatch
 10
0.0
 20
0.0
 30
0.0
210
0.0
220
0.0
230
1.0
  2
SOLID
 70
1
 71
0
 91
1
 92
3
 72
0
 73
1
 93
4
 10
6978.400000000001
 20
7048.8
 10
6996.000000000001
 20
7048.8
 10
6996.000000000001
 20
6943.200000000001
 10
6978.400000000001
 20
6943.200000000001
 97
0
 75
1
 76
1
 98
0
  0
LWPOLYLINE
  5
153
330
17
100
AcDbEntity
  8
WALL
100
AcDbPolyline
 90
4
 70
1
 10
299.20000000000005
 20
6978.400000000001
 10
316.8
 20
6978.400000000001
 10
316.8
 20
6855.200000000001
 10
299.20000000000005
 20
6855.200000000001
  0
HATCH
  5
154
330
17
100
AcDbEntity
  8
WALL
100
AcDbHatch
 10
0.0
 20
0.0
 30
0.0
210
0.0
220
0.0
230
1.0
  2
SOLID
 70
1
 71
0
 91
1
 92
3
 72
0
 73
1
 93
4
 10
299.20000000000005
 20
6978.400000000001
 10
316.8
 20
6978.400000000001
 10
316.8
 20
6855.200000000001
 10
299.20000000000005
 20
6855.200000000001
 97
0
 75
1
 76
1
 98
0
  0
LWPOLYLINE
  5
155
330
17
100
AcDbEntity
  8
WALL
100
AcDbPolyline
 90
4
 70
1
 10
2904.0000000000005
 20
6978.400000000001
 10
2956.8
 20
6978.400000000001
 10
2956.8
 20
6652.8
 10
2904.0000000000005
 20
6652.8
  0
HATCH
  5
156
330
17
100
AcDbEntity
  8
WALL
100
AcDbHatch
 10
0.0
 20
0.0
 30
0.0
210
0.0
220
0.0
230
1.0
  2
SOLID
 70
1
 71
0
 91
1
 92
3
 72
0
 73
1
 93
4
 10
2904.0000000000005
 20
6978.400000000001
 10
2956.8
 20
6978.400000000001
 10
2956.8
 20
6652.8
 10
2904.0000000000005
 20
6652.8
 97
0
 75
1
 76
1
 98
0
  0
LWPOLYLINE
  5
157
330
17
100
AcDbEntity
  8
WALL
100
AcDbPolyline
 90
4
 70
1
 10
2516.8
 20
6960.8
 10
2552.0
 20
6960.8
 10
2552.0
 20
6828.8
 10
2516.8
 20
6828.8
  0
HATCH
  5
158
330
17
100
AcDbEntity
  8
WALL
100
AcDbHatch
 10
0.0
 20
0.0
 30
0.0
210
0.0
220
0.0
230
1.0
  2
SOLID
 70
1
 71
0
 91
1
 92
3
 72
0
 73
1
 93
4
 10
2516.8
 20
6960.8
 10
2552.0
 20
6960.8
 10
2552.0
 20
6828.8
 10
2516.8
 20
6828.8
 97
0
 75
1
 76
1
 98
0
  0
LWPOLYLINE
  5
159
330
17
100
AcDbEntity
  8
WALL
100
AcDbPolyline
 90
4
 70
1
 10
3537.6000000000004
 20
6934.400000000001
 10
3572.8
 20
6934.400000000001
 10
3572.8
 20
6344.8
 10
3537.6000000000004
 20
6344.8
  0
HATCH
  5
15A
330
17
100
AcDbEntity
  8
WALL
100
AcDbHatch
 10
0.0
 20
0.0
 30
0.0
210
0.0
220
0.0
230
1.0
  2
SOLID
 70
1
 71
0
 91
1
 92
3
 72
0
 73
1
 93
4
 10
3537.6000000000004
 20
6934.400000000001
 10
3572.8
 20
6934.400000000001
 10
3572.8
 20
6344.8
 10
3537.6000000000004
 20
6344.8
 97
0
 75
1
 76
1
 98
0
  0
LWPOLYLINE
  5
15B
330
17
100
AcDbEntity
  8
WALL
100
AcDbPolyline
 90
4
 70
1
 10
3924.8
 20
6925.6
 10
3960.0000000000005
 20
6925.6
 10
3960.0000000000005
 20
6732.000000000001
 10
3924.8
 20
6732.000000000001
  0
HATCH
  5
15C
330
17
100
AcDbEntity
  8
WALL
100
AcDbHatch
 10
0.0
 20
0.0
 30
0.0
210
0.0
220
0.0
230
1.0
  2
SOLID
 70
1
 71
0
 91
1
 92
3
 72
0
 73
1
 93
4
 10
3924.8
 20
6925.6
 10
3960.0000000000005
 20
6925.6
 10
3960.0000000000005
 20
6732.000000000001
 10
3924.8
 20
6732.000000000001
 97
0
 75
1
 76
1
 98
0
  0
LWPOLYLINE
  5
15D
330
17
100
AcDbEntity
  8
WALL
100
AcDbPolyline
 90
4
 70
1
 10
7409.6
 20
6925.6
 10
7462.400000000001
 20
6925.6
 10
7462.400000000001
 20
6327.200000000001
 10
7409.6
 20
6327.200000000001
  0
HATCH
  5
15E
330
17
100
AcDbEntity
  8
WALL
100
AcDbHatch
 10
0.0
 20
0.0
 30
0.0
210
0.0
220
0.0
230
1.0
  2
SOLID
 70
1
 71
0
 91
1
 92
3
 72
0
 73
1
 93
4
 10
7409.6
 20
6925.6
 10
7462.400000000001
 20
6925.6
 10
7462.400000000001
 20
6327.200000000001
 10
7409.6
 20
6327.200000000001
 97
0
 75
1
 76
1
 98
0
  0
LWPOLYLINE
  5
15F
330
17
100
AcDbEntity
  8
WALL
100
AcDbPolyline
 90
4
 70
1
 10
6177.6
 20
6872.8
 10
6230.400000000001
 20
6872.8
 10
6230.400000000001
 20
6732.000000000001
 10
6177.6
 20
6732.000000000001
  0
HATCH
  5
160
330
17
100
AcDbEntity
  8
WALL
100
AcDbHatch
 10
0.0
 20
0.0
 30
0.0
210
0.0
220
0.0
230
1.0
  2
SOLID
 70
1
 71
0
 91
1
 92
3
 72
0
 73
1
 93
4
 10
6177.6
 20
6872.8
 10
6230.400000000001
 20
6872.8
 10
6230.400000000001
 20
6732.000000000001
 10
6177.6
 20
6732.000000000001
 97
0
 75
1
 76
1
 98
0
  0
LWPOLYLINE
  5
161
330
17
100
AcDbEntity
  8
WALL
100
AcDbPolyline
 90
4
 70
1
 10
6292.000000000001
 20
6872.8
 10
6300.8
 20
6872.8
 10
6300.8
 20
6758.400000000001
 10
6292.000000000001
 20
6758.400000000001
  0
HATCH
  5
162
330
17
100
AcDbEntity
  8
WALL
100
AcDbHatch
 10
0.0
 20
0.0
 30
0.0
210
0.0
220
0.0
230
1.0
  2
SOLID
 70
1
 71
0
 91
1
 92
3
 72
0
 73
1
 93
4
 10
6292.000000000001
 20
6872.8
 10
6300.8
 20
6872.8
 10
6300.8
 20
6758.400000000001
 10
6292.000000000001
 20
6758.400000000001
 97
0
 75
1
 76
1
 98
0
  0
LWPOLYLINE
  5
163
330
17
100
AcDbEntity
  8
WALL
100
AcDbPolyline
 90
4
 70
1
 10
8571.2
 20
6820.000000000001
 10
8588.800000000001
 20
6820.000000000001
 10
8588.800000000001
 20
6696.8
 10
8571.2
 20
6696.8
  0
HATCH
  5
164
330
17
100
AcDbEntity
  8
WALL
100
AcDbHatch
 10
0.0
 20
0.0
 30
0.0
210
0.0
220
0.0
230
1.0
  2
SOLID
 70
1
 71
0
 91
1
 92
3
 72
0
 73
1
 93
4
 10
8571.2
 20
6820.000000000001
 10
8588.800000000001
 20
6820.000000000001
 10
8588.800000000001
 20
6696.8
 10
8571.2
 20
6696.8
 97
0
 75
1
 76
1
 98
0
  0
LWPOLYLINE
  5
165
330
17
100
AcDbEntity
  8
WALL
100
AcDbPolyline
 90
4
 70
1
 10
6124.8
 20
6802.400000000001
 10
6151.200000000001
 20
6802.400000000001
 10
6151.200000000001
 20
6679.200000000001
 10
6124.8
 20
6679.200000000001
  0
HATCH
  5
166
330
17
100
AcDbEntity
  8
WALL
100
AcDbHatch
 10
0.0
 20
0.0
 30
0.0
210
0.0
220
0.0
230
1.0
  2
SOLID
 70
1
 71
0
 91
1
 92
3
 72
0
 73
1
 93
4
 10
6124.8
 20
6802.400000000001
 10
6151.200000000001
 20
6802.400000000001
 10
6151.200000000001
 20
6679.200000000001
 10
6124.8
 20
6679.200000000001
 97
0
 75
1
 76
1
 98
0
  0
LWPOLYLINE
  5
167
330
17
100
AcDbEntity
  8
WALL
100
AcDbPolyline
 90
4
 70
1
 10
7550.400000000001
 20
6784.8
 10
7585.6
 20
6784.8
 10
7585.6
 20
6556.000000000001
 10
7550.400000000001
 20
6556.000000000001
  0
HATCH
  5
168
330
17
100
AcDbEntity
  8
WALL
100
AcDbHatch
 10
0.0
 20
0.0
 30
0.0
210
0.0
220
0.0
230
1.0
  2
SOLID
 70
1
 71
0
 91
1
 92
3
 72
0
 73
1
 93
4
 10
7550.400000000001
 20
6784.8
 10
7585.6
 20
6784.8
 10
7585.6
 20
6556.000000000001
 10
7550.400000000001
 20
6556.000000000001
 97
0
 75
1
 76
1
 98
0
  0
LWPOLYLINE
  5
169
330
17
100
AcDbEntity
  8
WALL
100
AcDbPolyline
 90
4
 70
1
 10
7920.000000000001
 20
6784.8
 10
7972.800000000001
 20
6784.8
 10
7972.800000000001
 20
6538.400000000001
 10
7920.000000000001
 20
6538.400000000001
  0
HATCH
  5
16A
330
17
100
AcDbEntity
  8
WALL
100
AcDbHatch
 10
0.0
 20
0.0
 30
0.0
210
0.0
220
0.0
230
1.0
  2
SOLID
 70
1
 71
0
 91
1
 92
3
 72
0
 73
1
 93
4
 10
7920.000000000001
 20
6784.8
 10
7972.800000000001
 20
6784.8
 10
7972.800000000001
 20
6538.400000000001
 10
7920.000000000001
 20
6538.400000000001
 97
0
 75
1
 76
1
 98
0
  0
LWPOLYLINE
  5
16B
330
17
100
AcDbEntity
  8
WALL
100
AcDbPolyline
 90
4
 70
1
 10
5596.8
 20
6732.000000000001
 10
5676.000000000001
 20
6732.000000000001
 10
5676.000000000001
 20
6512.000000000001
 10
5596.8
 20
6512.000000000001
  0
HATCH
  5
16C
330
17
100
AcDbEntity
  8
WALL
100
AcDbHatch
 10
0.0
 20
0.0
 30
0.0
210
0.0
220
0.0
230
1.0
  2
SOLID
 70
1
 71
0
 91
1
 92
3
 72
0
 73
1
 93
4
 10
5596.8
 20
6732.000000000001
 10
5676.000000000001
 20
6732.000000000001
 10
5676.000000000001
 20
6512.000000000001
 10
5596.8
 20
6512.000000000001
 97
0
 75
1
 76
1
 98
0
  0
LWPOLYLINE
  5
16D
330
17
100
AcDbEntity
  8
WALL
100
AcDbPolyline
 90
4
 70
1
 10
8536.0
 20
6608.8
 10
8553.6
 20
6608.8
 10
8553.6
 20
6415.200000000001
 10
8536.0
 20
6415.200000000001
  0
HATCH
  5
16E
330
17
100
AcDbEntity
  8
WALL
100
AcDbHatch
 10
0.0
 20
0.0
 30
0.0
210
0.0
220
0.0
230
1.0
  2
SOLID
 70
1
 71
0
 91
1
 92
3
 72
0
 73
1
 93
4
 10
8536.0
 20
6608.8
 10
8553.6
 20
6608.8
 10
8553.6
 20
6415.200000000001
 10
8536.0
 20
6415.200000000001
 97
0
 75
1
 76
1
 98
0
  0
LWPOLYLINE
  5
16F
330
17
100
AcDbEntity
  8
WALL
100
AcDbPolyline
 90
4
 70
1
 10
8588.800000000001
 20
6608.8
 10
8606.400000000001
 20
6608.8
 10
8606.400000000001
 20
6485.6
 10
8588.800000000001
 20
6485.6
  0
HATCH
  5
170
330
17
100
AcDbEntity
  8
WALL
100
AcDbHatch
 10
0.0
 20
0.0
 30
0.0
210
0.0
220
0.0
230
1.0
  2
SOLID
 70
1
 71
0
 91
1
 92
3
 72
0
 73
1
 93
4
 10
8588.800000000001
 20
6608.8
 10
8606.400000000001
 20
6608.8
 10
8606.400000000001
 20
6485.6
 10
8588.800000000001
 20
6485.6
 97
0
 75
1
 76
1
 98
0
  0
LWPOLYLINE
  5
171
330
17
100
AcDbEntity
  8
WALL
100
AcDbPolyline
 90
4
 70
1
 10
8465.6
 20
6600.000000000001
 10
8518.400000000001
 20
6600.000000000001
 10
8518.400000000001
 20
6415.200000000001
 10
8465.6
 20
6415.200000000001
  0
HATCH
  5
172
330
17
100
AcDbEntity
  8
WALL
100
AcDbHatch
 10
0.0
 20
0.0
 30
0.0
210
0.0
220
0.0
230
1.0
  2
SOLID
 70
1
 71
0
 91
1
 92
3
 72
0
 73
1
 93
4
 10
8465.6
 20
6600.000000000001
 10
8518.400000000001
 20
6600.000000000001
 10
8518.400000000001
 20
6415.200000000001
 10
8465.6
 20
6415.200000000001
 97
0
 75
1
 76
1
 98
0
  0
LWPOLYLINE
  5
173
330
17
100
AcDbEntity
  8
WALL
100
AcDbPolyline
 90
4
 70
1
 10
2939.2000000000003
 20
6476.8
 10
2956.8
 20
6476.8
 10
2956.8
 20
6344.8
 10
2939.2000000000003
 20
6344.8
  0
HATCH
  5
174
330
17
100
AcDbEntity
  8
WALL
100
AcDbHatch
 10
0.0
 20
0.0
 30
0.0
210
0.0
220
0.0
230
1.0
  2
SOLID
 70
1
 71
0
 91
1
 92
3
 72
0
 73
1
 93
4
 10
2939.2000000000003
 20
6476.8
 10
2956.8
 20
6476.8
 10
2956.8
 20
6344.8
 10
2939.2000000000003
 20
6344.8
 97
0
 75
1
 76
1
 98
0
  0
LWPOLYLINE
  5
175
330
17
100
AcDbEntity
  8
WALL
100
AcDbPolyline
 90
4
 70
1
 10
8395.2
 20
6397.6
 10
8412.800000000001
 20
6397.6
 10
8412.800000000001
 20
6230.400000000001
 10
8395.2
 20
6230.400000000001
  0
HATCH
  5
176
330
17
100
AcDbEntity
  8
WALL
100
AcDbHatch
 10
0.0
 20
0.0
 30
0.0
210
0.0
220
0.0
230
1.0
  2
SOLID
 70
1
 71
0
 91
1
 92
3
 72
0
 73
1
 93
4
 10
8395.2
 20
6397.6
 10
8412.800000000001
 20
6397.6
 10
8412.800000000001
 20
6230.400000000001
 10
8395.2
 20
6230.400000000001
 97
0
 75
1
 76
1
 98
0
  0
LWPOLYLINE
  5
177
330
17
100
AcDbEntity
  8
WALL
100
AcDbPolyline
 90
4
 70
1
 10
8500.800000000001
 20
6380.000000000001
 10
8509.6
 20
6380.000000000001
 10
8509.6
 20
6274.400000000001
 10
8500.800000000001
 20
6274.400000000001
  0
HATCH
  5
178
330
17
100
AcDbEntity
  8
WALL
100
AcDbHatch
 10
0.0
 20
0.0
 30
0.0
210
0.0
220
0.0
230
1.0
  2
SOLID
 70
1
 71
0
 91
1
 92
3
 72
0
 73
1
 93
4
 10
8500.800000000001
 20
6380.000000000001
 10
8509.6
 20
6380.000000000001
 10
8509.6
 20
6274.400000000001
 10
8500.800000000001
 20
6274.400000000001
 97
0
 75
1
 76
1
 98
0
  0
LWPOLYLINE
  5
179
330
17
100
AcDbEntity
  8
WALL
100
AcDbPolyline
 90
4
 70
1
 10
8580.0
 20
6380.000000000001
 10
8588.800000000001
 20
6380.000000000001
 10
8588.800000000001
 20
6274.400000000001
 10
8580.0
 20
6274.400000000001
  0
HATCH
  5
17A
330
17
100
AcDbEntity
  8
WALL
100
AcDbHatch
 10
0.0
 20
0.0
 30
0.0
210
0.0
220
0.0
230
1.0
  2
SOLID
 70
1
 71
0
 91
1
 92
3
 72
0
 73
1
 93
4
 10
8580.0
 20
6380.000000000001
 10
8588.800000000001
 20
6380.000000000001
 10
8588.800000000001
 20
6274.400000000001
 10
8580.0
 20
6274.400000000001
 97
0
 75
1
 76
1
 98
0
  0
LWPOLYLINE
  5
17B
330
17
100
AcDbEntity
  8
WALL
100
AcDbPolyline
 90
4
 70
1
 10
8606.400000000001
 20
6380.000000000001
 10
8615.2
 20
6380.000000000001
 10
8615.2
 20
6274.400000000001
 10
8606.400000000001
 20
6274.400000000001
  0
HATCH
  5
17C
330
17
100
AcDbEntity
  8
WALL
100
AcDbHatch
 10
0.0
 20
0.0
 30
0.0
210
0.0
220
0.0
230
1.0
  2
SOLID
 70
1
 71
0
 91
1
 92
3
 72
0
 73
1
 93
4
 10
8606.400000000001
 20
6380.000000000001
 10
8615.2
 20
6380.000000000001
 10
8615.2
 20
6274.400000000001
 10
8606.400000000001
 20
6274.400000000001
 97
0
 75
1
 76
1
 98
0
  0
LWPOLYLINE
  5
17D
330
17
100
AcDbEntity
  8
WALL
100
AcDbPolyline
 90
4
 70
1
 10
8245.6
 20
6168.8
 10
8254.400000000001
 20
6168.8
 10
8254.400000000001
 20
5984.000000000001
 10
8245.6
 20
5984.000000000001
  0
HATCH
  5
17E
330
17
100
AcDbEntity
  8
WALL
100
AcDbHatch
 10
0.0
 20
0.0
 30
0.0
210
0.0
220
0.0
230
1.0
  2
SOLID
 70
1
 71
0
 91
1
 92
3
 72
0
 73
1
 93
4
 10
8245.6
 20
6168.8
 10
8254.400000000001
 20
6168.8
 10
8254.400000000001
 20
5984.000000000001
 10
8245.6
 20
5984.000000000001
 97
0
 75
1
 76
1
 98
0
  0
LWPOLYLINE
  5
17F
330
17
100
AcDbEntity
  8
WALL
100
AcDbPolyline
 90
4
 70
1
 10
8324.800000000001
 20
6168.8
 10
8342.400000000001
 20
6168.8
 10
8342.400000000001
 20
5975.200000000001
 10
8324.800000000001
 20
5975.200000000001
  0
HATCH
  5
180
330
17
100
AcDbEntity
  8
WALL
100
AcDbHatch
 10
0.0
 20
0.0
 30
0.0
210
0.0
220
0.0
230
1.0
  2
SOLID
 70
1
 71
0
 91
1
 92
3
 72
0
 73
1
 93
4
 10
8324.800000000001
 20
6168.8
 10
8342.400000000001
 20
6168.8
 10
8342.400000000001
 20
5975.200000000001
 10
8324.800000000001
 20
5975.200000000001
 97
0
 75
1
 76
1
 98
0
  0
LWPOLYLINE
  5
181
330
17
100
AcDbEntity
  8
WALL
100
AcDbPolyline
 90
4
 70
1
 10
8571.2
 20
6168.8
 10
8597.6
 20
6168.8
 10
8597.6
 20
5975.200000000001
 10
8571.2
 20
5975.200000000001
  0
HATCH
  5
182
330
17
100
AcDbEntity
  8
WALL
100
AcDbHatch
 10
0.0
 20
0.0
 30
0.0
210
0.0
220
0.0
230
1.0
  2
SOLID
 70
1
 71
0
 91
1
 92
3
 72
0
 73
1
 93
4
 10
8571.2
 20
6168.8
 10
8597.6
 20
6168.8
 10
8597.6
 20
5975.200000000001
 10
8571.2
 20
5975.200000000001
 97
0
 75
1
 76
1
 98
0
  0
LWPOLYLINE
  5
183
330
17
100
AcDbEntity
  8
WALL
100
AcDbPolyline
 90
4
 70
1
 10
1707.2
 20
6089.6
 10
1760.0000000000002
 20
6089.6
 10
1760.0000000000002
 20
5799.200000000001
 10
1707.2
 20
5799.200000000001
  0
HATCH
  5
184
330
17
100
AcDbEntity
  8
WALL
100
AcDbHatch
 10
0.0
 20
0.0
 30
0.0
210
0.0
220
0.0
230
1.0
  2
SOLID
 70
1
 71
0
 91
1
 92
3
 72
0
 73
1
 93
4
 10
1707.2
 20
6089.6
 10
1760.0000000000002
 20
6089.6
 10
1760.0000000000002
 20
5799.200000000001
 10
1707.2
 20
5799.200000000001
 97
0
 75
1
 76
1
 98
0
  0
LWPOLYLINE
  5
185
330
17
100
AcDbEntity
  8
WALL
100
AcDbPolyline
 90
4
 70
1
 10
8588.800000000001
 20
5940.000000000001
 10
8606.400000000001
 20
5940.000000000001
 10
8606.400000000001
 20
5764.000000000001
 10
8588.800000000001
 20
5764.000000000001
  0
HATCH
  5
186
330
17
100
AcDbEntity
  8
WALL
100
AcDbHatch
 10
0.0
 20
0.0
 30
0.0
210
0.0
220
0.0
230
1.0
  2
SOLID
 70
1
 71
0
 91
1
 92
3
 72
0
 73
1
 93
4
 10
8588.800000000001
 20
5940.000000000001
 10
8606.400000000001
 20
5940.000000000001
 10
8606.400000000001
 20
5764.000000000001
 10
8588.800000000001
 20
5764.000000000001
 97
0
 75
1
 76
1
 98
0
  0
LWPOLYLINE
  5
187
330
17
100
AcDbEntity
  8
WALL
100
AcDbPolyline
 90
4
 70
1
 10
8492.0
 20
5852.000000000001
 10
8500.800000000001
 20
5852.000000000001
 10
8500.800000000001
 20
5746.400000000001
 10
8492.0
 20
5746.400000000001
  0
HATCH
  5
188
330
17
100
AcDbEntity
  8
WALL
100
AcDbHatch
 10
0.0
 20
0.0
 30
0.0
210
0.0
220
0.0
230
1.0
  2
SOLID
 70
1
 71
0
 91
1
 92
3
 72
0
 73
1
 93
4
 10
8492.0
 20
5852.000000000001
 10
8500.800000000001
 20
5852.000000000001
 10
8500.800000000001
 20
5746.400000000001
 10
8492.0
 20
5746.400000000001
 97
0
 75
1
 76
1
 98
0
  0
LWPOLYLINE
  5
189
330
17
100
AcDbEntity
  8
WALL
100
AcDbPolyline
 90
4
 70
1
 10
5676.000000000001
 20
5711.200000000001
 10
5693.6
 20
5711.200000000001
 10
5693.6
 20
5570.400000000001
 10
5676.000000000001
 20
5570.400000000001
  0
HATCH
  5
18A
330
17
100
AcDbEntity
  8
WALL
100
AcDbHatch
 10
0.0
 20
0.0
 30
0.0
210
0.0
220
0.0
230
1.0
  2
SOLID
 70
1
 71
0
 91
1
 92
3
 72
0
 73
1
 93
4
 10
5676.000000000001
 20
5711.200000000001
 10
5693.6
 20
5711.200000000001
 10
5693.6
 20
5570.400000000001
 10
5676.000000000001
 20
5570.400000000001
 97
0
 75
1
 76
1
 98
0
  0
LWPOLYLINE
  5
18B
330
17
100
AcDbEntity
  8
WALL
100
AcDbPolyline
 90
4
 70
1
 10
8280.800000000001
 20
5640.8
 10
8289.6
 20
5640.8
 10
8289.6
 20
5535.200000000001
 10
8280.800000000001
 20
5535.200000000001
  0
HATCH
  5
18C
330
17
100
AcDbEntity
  8
WALL
100
AcDbHatch
 10
0.0
 20
0.0
 30
0.0
210
0.0
220
0.0
230
1.0
  2
SOLID
 70
1
 71
0
 91
1
 92
3
 72
0
 73
1
 93
4
 10
8280.800000000001
 20
5640.8
 10
8289.6
 20
5640.8
 10
8289.6
 20
5535.200000000001
 10
8280.800000000001
 20
5535.200000000001
 97
0
 75
1
 76
1
 98
0
  0
LWPOLYLINE
  5
18D
330
17
100
AcDbEntity
  8
WALL
100
AcDbPolyline
 90
4
 70
1
 10
6248.000000000001
 20
5552.8
 10
6283.200000000001
 20
5552.8
 10
6283.200000000001
 20
5403.200000000001
 10
6248.000000000001
 20
5403.200000000001
  0
HATCH
  5
18E
330
17
100
AcDbEntity
  8
WALL
100
AcDbHatch
 10
0.0
 20
0.0
 30
0.0
210
0.0
220
0.0
230
1.0
  2
SOLID
 70
1
 71
0
 91
1
 92
3
 72
0
 73
1
 93
4
 10
6248.000000000001
 20
5552.8
 10
6283.200000000001
 20
5552.8
 10
6283.200000000001
 20
5403.200000000001
 10
6248.000000000001
 20
5403.200000000001
 97
0
 75
1
 76
1
 98
0
  0
LWPOLYLINE
  5
18F
330
17
100
AcDbEntity
  8
WALL
100
AcDbPolyline
 90
4
 70
1
 10
4224.0
 20
5517.6
 10
4232.8
 20
5517.6
 10
4232.8
 20
5412.0
 10
4224.0
 20
5412.0
  0
HATCH
  5
190
330
17
100
AcDbEntity
  8
WALL
100
AcDbHatch
 10
0.0
 20
0.0
 30
0.0
210
0.0
220
0.0
230
1.0
  2
SOLID
 70
1
 71
0
 91
1
 92
3
 72
0
 73
1
 93
4
 10
4224.0
 20
5517.6
 10
4232.8
 20
5517.6
 10
4232.8
 20
5412.0
 10
4224.0
 20
5412.0
 97
0
 75
1
 76
1
 98
0
  0
LWPOLYLINE
  5
191
330
17
100
AcDbEntity
  8
WALL
100
AcDbPolyline
 90
4
 70
1
 10
6318.400000000001
 20
5517.6
 10
6388.8
 20
5517.6
 10
6388.8
 20
5412.0
 10
6318.400000000001
 20
5412.0
  0
HATCH
  5
192
330
17
100
AcDbEntity
  8
WALL
100
AcDbHatch
 10
0.0
 20
0.0
 30
0.0
210
0.0
220
0.0
230
1.0
  2
SOLID
 70
1
 71
0
 91
1
 92
3
 72
0
 73
1
 93
4
 10
6318.400000000001
 20
5517.6
 10
6388.8
 20
5517.6
 10
6388.8
 20
5412.0
 10
6318.400000000001
 20
5412.0
 97
0
 75
1
 76
1
 98
0
  0
LWPOLYLINE
  5
193
330
17
100
AcDbEntity
  8
WALL
100
AcDbPolyline
 90
4
 70
1
 10
6652.8
 20
5517.6
 10
6661.6
 20
5517.6
 10
6661.6
 20
5412.0
 10
6652.8
 20
5412.0
  0
HATCH
  5
194
330
17
100
AcDbEntity
  8
WALL
100
AcDbHatch
 10
0.0
 20
0.0
 30
0.0
210
0.0
220
0.0
230
1.0
  2
SOLID
 70
1
 71
0
 91
1
 92
3
 72
0
 73
1
 93
4
 10
6652.8
 20
5517.6
 10
6661.6
 20
5517.6
 10
6661.6
 20
5412.0
 10
6652.8
 20
5412.0
 97
0
 75
1
 76
1
 98
0
  0
LWPOLYLINE
  5
195
330
17
100
AcDbEntity
  8
WALL
100
AcDbPolyline
 90
4
 70
1
 10
4523.200000000001
 20
5464.8
 10
4532.0
 20
5464.8
 10
4532.0
 20
5341.6
 10
4523.200000000001
 20
5341.6
  0
HATCH
  5
196
330
17
100
AcDbEntity
  8
WALL
100
AcDbHatch
 10
0.0
 20
0.0
 30
0.0
210
0.0
220
0.0
230
1.0
  2
SOLID
 70
1
 71
0
 91
1
 92
3
 72
0
 73
1
 93
4
 10
4523.200000000001
 20
5464.8
 10
4532.0
 20
5464.8
 10
4532.0
 20
5341.6
 10
4523.200000000001
 20
5341.6
 97
0
 75
1
 76
1
 98
0
  0
LWPOLYLINE
  5
197
330
17
100
AcDbEntity
  8
WALL
100
AcDbPolyline
 90
4
 70
1
 10
6899.200000000001
 20
5429.6
 10
6934.400000000001
 20
5429.6
 10
6934.400000000001
 20
4989.6
 10
6899.200000000001
 20
4989.6
  0
HATCH
  5
198
330
17
100
AcDbEntity
  8
WALL
100
AcDbHatch
 10
0.0
 20
0.0
 30
0.0
210
0.0
220
0.0
230
1.0
  2
SOLID
 70
1
 71
0
 91
1
 92
3
 72
0
 73
1
 93
4
 10
6899.200000000001
 20
5429.6
 10
6934.400000000001
 20
5429.6
 10
6934.400000000001
 20
4989.6
 10
6899.200000000001
 20
4989.6
 97
0
 75
1
 76
1
 98
0
  0
LWPOLYLINE
  5
199
330
17
100
AcDbEntity
  8
WALL
100
AcDbPolyline
 90
4
 70
1
 10
7075.200000000001
 20
5412.0
 10
7128.000000000001
 20
5412.0
 10
7128.000000000001
 20
4901.6
 10
7075.200000000001
 20
4901.6
  0
HATCH
  5
19A
330
17
100
AcDbEntity
  8
WALL
100
AcDbHatch
 10
0.0
 20
0.0
 30
0.0
210
0.0
220
0.0
230
1.0
  2
SOLID
 70
1
 71
0
 91
1
 92
3
 72
0
 73
1
 93
4
 10
7075.200000000001
 20
5412.0
 10
7128.000000000001
 20
5412.0
 10
7128.000000000001
 20
4901.6
 10
7075.200000000001
 20
4901.6
 97
0
 75
1
 76
1
 98
0
  0
LWPOLYLINE
  5
19B
330
17
100
AcDbEntity
  8
WALL
100
AcDbPolyline
 90
4
 70
1
 10
7427.200000000001
 20
5403.200000000001
 10
7462.400000000001
 20
5403.200000000001
 10
7462.400000000001
 20
4901.6
 10
7427.200000000001
 20
4901.6
  0
HATCH
  5
19C
330
17
100
AcDbEntity
  8
WALL
100
AcDbHatch
 10
0.0
 20
0.0
 30
0.0
210
0.0
220
0.0
230
1.0
  2
SOLID
 70
1
 71
0
 91
1
 92
3
 72
0
 73
1
 93
4
 10
7427.200000000001
 20
5403.200000000001
 10
7462.400000000001
 20
5403.200000000001
 10
7462.400000000001
 20
4901.6
 10
7427.200000000001
 20
4901.6
 97
0
 75
1
 76
1
 98
0
  0
LWPOLYLINE
  5
19D
330
17
100
AcDbEntity
  8
WALL
100
AcDbPolyline
 90
4
 70
1
 10
9081.6
 20
5403.200000000001
 10
9116.800000000001
 20
5403.200000000001
 10
9116.800000000001
 20
5262.400000000001
 10
9081.6
 20
5262.400000000001
  0
HATCH
  5
19E
330
17
100
AcDbEntity
  8
WALL
100
AcDbHatch
 10
0.0
 20
0.0
 30
0.0
210
0.0
220
0.0
230
1.0
  2
SOLID
 70
1
 71
0
 91
1
 92
3
 72
0
 73
1
 93
4
 10
9081.6
 20
5403.200000000001
 10
9116.800000000001
 20
5403.200000000001
 10
9116.800000000001
 20
5262.400000000001
 10
9081.6
 20
5262.400000000001
 97
0
 75
1
 76
1
 98
0
  0
LWPOLYLINE
  5
19F
330
17
100
AcDbEntity
  8
WALL
100
AcDbPolyline
 90
4
 70
1
 10
4426.400000000001
 20
5376.8
 10
4470.400000000001
 20
5376.8
 10
4470.400000000001
 20
5253.6
 10
4426.400000000001
 20
5253.6
  0
HATCH
  5
1A0
330
17
100
AcDbEntity
  8
WALL
100
AcDbHatch
 10
0.0
 20
0.0
 30
0.0
210
0.0
220
0.0
230
1.0
  2
SOLID
 70
1
 71
0
 91
1
 92
3
 72
0
 73
1
 93
4
 10
4426.400000000001
 20
5376.8
 10
4470.400000000001
 20
5376.8
 10
4470.400000000001
 20
5253.6
 10
4426.400000000001
 20
5253.6
 97
0
 75
1
 76
1
 98
0
  0
LWPOLYLINE
  5
1A1
330
17
100
AcDbEntity
  8
WALL
100
AcDbPolyline
 90
4
 70
1
 10
5684.8
 20
5385.6
 10
5720.000000000001
 20
5385.6
 10
5720.000000000001
 20
4919.200000000001
 10
5684.8
 20
4919.200000000001
  0
HATCH
  5
1A2
330
17
100
AcDbEntity
  8
WALL
100
AcDbHatch
 10
0.0
 20
0.0
 30
0.0
210
0.0
220
0.0
230
1.0
  2
SOLID
 70
1
 71
0
 91
1
 92
3
 72
0
 73
1
 93
4
 10
5684.8
 20
5385.6
 10
5720.000000000001
 20
5385.6
 10
5720.000000000001
 20
4919.200000000001
 10
5684.8
 20
4919.200000000001
 97
0
 75
1
 76
1
 98
0
  0
LWPOLYLINE
  5
1A3
330
17
100
AcDbEntity
  8
WALL
100
AcDbPolyline
 90
4
 70
1
 10
6248.000000000001
 20
5385.6
 10
6283.200000000001
 20
5385.6
 10
6283.200000000001
 20
5174.400000000001
 10
6248.000000000001
 20
5174.400000000001
  0
HATCH
  5
1A4
330
17
100
AcDbEntity
  8
WALL
100
AcDbHatch
 10
0.0
 20
0.0
 30
0.0
210
0.0
220
0.0
230
1.0
  2
SOLID
 70
1
 71
0
 91
1
 92
3
 72
0
 73
1
 93
4
 10
6248.000000000001
 20
5385.6
 10
6283.200000000001
 20
5385.6
 10
6283.200000000001
 20
5174.400000000001
 10
6248.000000000001
 20
5174.400000000001
 97
0
 75
1
 76
1
 98
0
  0
LWPOLYLINE
  5
1A5
330
17
100
AcDbEntity
  8
WALL
100
AcDbPolyline
 90
4
 70
1
 10
7955.200000000001
 20
5376.8
 10
7981.6
 20
5376.8
 10
7981.6
 20
5253.6
 10
7955.200000000001
 20
5253.6
  0
HATCH
  5
1A6
330
17
100
AcDbEntity
  8
WALL
100
AcDbHatch
 10
0.0
 20
0.0
 30
0.0
210
0.0
220
0.0
230
1.0
  2
SOLID
 70
1
 71
0
 91
1
 92
3
 72
0
 73
1
 93
4
 10
7955.200000000001
 20
5376.8
 10
7981.6
 20
5376.8
 10
7981.6
 20
5253.6
 10
7955.200000000001
 20
5253.6
 97
0
 75
1
 76
1
 98
0
  0
LWPOLYLINE
  5
1A7
330
17
100
AcDbEntity
  8
WALL
100
AcDbPolyline
 90
4
 70
1
 10
4752.0
 20
5368.0
 10
4787.200000000001
 20
5368.0
 10
4787.200000000001
 20
4980.8
 10
4752.0
 20
4980.8
  0
HATCH
  5
1A8
330
17
100
AcDbEntity
  8
WALL
100
AcDbHatch
 10
0.0
 20
0.0
 30
0.0
210
0.0
220
0.0
230
1.0
  2
SOLID
 70
1
 71
0
 91
1
 92
3
 72
0
 73
1
 93
4
 10
4752.0
 20
5368.0
 10
4787.200000000001
 20
5368.0
 10
4787.200000000001
 20
4980.8
 10
4752.0
 20
4980.8
 97
0
 75
1
 76
1
 98
0
  0
LWPOLYLINE
  5
1A9
330
17
100
AcDbEntity
  8
WALL
100
AcDbPolyline
 90
4
 70
1
 10
3115.2000000000003
 20
5324.0
 10
3150.4
 20
5324.0
 10
3150.4
 20
5165.6
 10
3115.2000000000003
 20
5165.6
  0
HATCH
  5
1AA
330
17
100
AcDbEntity
  8
WALL
100
AcDbHatch
 10
0.0
 20
0.0
 30
0.0
210
0.0
220
0.0
230
1.0
  2
SOLID
 70
1
 71
0
 91
1
 92
3
 72
0
 73
1
 93
4
 10
3115.2000000000003
 20
5324.0
 10
3150.4
 20
5324.0
 10
3150.4
 20
5165.6
 10
3115.2000000000003
 20
5165.6
 97
0
 75
1
 76
1
 98
0
  0
LWPOLYLINE
  5
1AB
330
17
100
AcDbEntity
  8
WALL
100
AcDbPolyline
 90
4
 70
1
 10
3625.6000000000004
 20
5324.0
 10
3660.8
 20
5324.0
 10
3660.8
 20
5165.6
 10
3625.6000000000004
 20
5165.6
  0
HATCH
  5
1AC
330
17
100
AcDbEntity
  8
WALL
100
AcDbHatch
 10
0.0
 20
0.0
 30
0.0
210
0.0
220
0.0
230
1.0
  2
SOLID
 70
1
 71
0
 91
1
 92
3
 72
0
 73
1
 93
4
 10
3625.6000000000004
 20
5324.0
 10
3660.8
 20
5324.0
 10
3660.8
 20
5165.6
 10
3625.6000000000004
 20
5165.6
 97
0
 75
1
 76
1
 98
0
  0
LWPOLYLINE
  5
1AD
330
17
100
AcDbEntity
  8
WALL
100
AcDbPolyline
 90
4
 70
1
 10
2631.2000000000003
 20
5288.8
 10
2657.6000000000004
 20
5288.8
 10
2657.6000000000004
 20
5165.6
 10
2631.2000000000003
 20
5165.6
  0
HATCH
  5
1AE
330
17
100
AcDbEntity
  8
WALL
100
AcDbHatch
 10
0.0
 20
0.0
 30
0.0
210
0.0
220
0.0
230
1.0
  2
SOLID
 70
1
 71
0
 91
1
 92
3
 72
0
 73
1
 93
4
 10
2631.2000000000003
 20
5288.8
 10
2657.6000000000004
 20
5288.8
 10
2657.6000000000004
 20
5165.6
 10
2631.2000000000003
 20
5165.6
 97
0
 75
1
 76
1
 98
0
  0
LWPOLYLINE
  5
1AF
330
17
100
AcDbEntity
  8
WALL
100
AcDbPolyline
 90
4
 70
1
 10
8272.0
 20
5209.6
 10
8307.2
 20
5209.6
 10
8307.2
 20
4945.6
 10
8272.0
 20
4945.6
  0
HATCH
  5
1B0
330
17
100
AcDbEntity
  8
WALL
100
AcDbHatch
 10
0.0
 20
0.0
 30
0.0
210
0.0
220
0.0
230
1.0
  2
SOLID
 70
1
 71
0
 91
1
 92
3
 72
0
 73
1
 93
4
 10
8272.0
 20
5209.6
 10
8307.2
 20
5209.6
 10
8307.2
 20
4945.6
 10
8272.0
 20
4945.6
 97
0
 75
1
 76
1
 98
0
  0
LWPOLYLINE
  5
1B1
330
17
100
AcDbEntity
  8
WALL
100
AcDbPolyline
 90
4
 70
1
 10
4048.0000000000005
 20
5174.400000000001
 10
4074.4000000000005
 20
5174.400000000001
 10
4074.4000000000005
 20
4892.8
 10
4048.0000000000005
 20
4892.8
  0
HATCH
  5
1B2
330
17
100
AcDbEntity
  8
WALL
100
AcDbHatch
 10
0.0
 20
0.0
 30
0.0
210
0.0
220
0.0
230
1.0
  2
SOLID
 70
1
 71
0
 91
1
 92
3
 72
0
 73
1
 93
4
 10
4048.0000000000005
 20
5174.400000000001
 10
4074.4000000000005
 20
5174.400000000001
 10
4074.4000000000005
 20
4892.8
 10
4048.0000000000005
 20
4892.8
 97
0
 75
1
 76
1
 98
0
  0
LWPOLYLINE
  5
1B3
330
17
100
AcDbEntity
  8
WALL
100
AcDbPolyline
 90
4
 70
1
 10
2534.4
 20
5139.200000000001
 10
2569.6000000000004
 20
5139.200000000001
 10
2569.6000000000004
 20
4444.0
 10
2534.4
 20
4444.0
  0
HATCH
  5
1B4
330
17
100
AcDbEntity
  8
WALL
100
AcDbHatch
 10
0.0
 20
0.0
 30
0.0
210
0.0
220
0.0
230
1.0
  2
SOLID
 70
1
 71
0
 91
1
 92
3
 72
0
 73
1
 93
4
 10
2534.4
 20
5139.200000000001
 10
2569.6000000000004
 20
5139.200000000001
 10
2569.6000000000004
 20
4444.0
 10
2534.4
 20
4444.0
 97
0
 75
1
 76
1
 98
0
  0
LWPOLYLINE
  5
1B5
330
17
100
AcDbEntity
  8
WALL
100
AcDbPolyline
 90
4
 70
1
 10
6265.6
 20
5139.200000000001
 10
6274.400000000001
 20
5139.200000000001
 10
6274.400000000001
 20
4954.400000000001
 10
6265.6
 20
4954.400000000001
  0
HATCH
  5
1B6
330
17
100
AcDbEntity
  8
WALL
100
AcDbHatch
 10
0.0
 20
0.0
 30
0.0
210
0.0
220
0.0
230
1.0
  2
SOLID
 70
1
 71
0
 91
1
 92
3
 72
0
 73
1
 93
4
 10
6265.6
 20
5139.200000000001
 10
6274.400000000001
 20
5139.200000000001
 10
6274.400000000001
 20
4954.400000000001
 10
6265.6
 20
4954.400000000001
 97
0
 75
1
 76
1
 98
0
  0
LWPOLYLINE
  5
1B7
330
17
100
AcDbEntity
  8
WALL
100
AcDbPolyline
 90
4
 70
1
 10
281.6
 20
5112.8
 10
316.8
 20
5112.8
 10
316.8
 20
4972.0
 10
281.6
 20
4972.0
  0
HATCH
  5
1B8
330
17
100
AcDbEntity
  8
WALL
100
AcDbHatch
 10
0.0
 20
0.0
 30
0.0
210
0.0
220
0.0
230
1.0
  2
SOLID
 70
1
 71
0
 91
1
 92
3
 72
0
 73
1
 93
4
 10
281.6
 20
5112.8
 10
316.8
 20
5112.8
 10
316.8
 20
4972.0
 10
281.6
 20
4972.0
 97
0
 75
1
 76
1
 98
0
  0
LWPOLYLINE
  5
1B9
330
17
100
AcDbEntity
  8
WALL
100
AcDbPolyline
 90
4
 70
1
 10
6265.6
 20
4936.8
 10
6274.400000000001
 20
4936.8
 10
6274.400000000001
 20
4822.400000000001
 10
6265.6
 20
4822.400000000001
  0
HATCH
  5
1BA
330
17
100
AcDbEntity
  8
WALL
100
AcDbHatch
 10
0.0
 20
0.0
 30
0.0
210
0.0
220
0.0
230
1.0
  2
SOLID
 70
1
 71
0
 91
1
 92
3
 72
0
 73
1
 93
4
 10
6265.6
 20
4936.8
 10
6274.400000000001
 20
4936.8
 10
6274.400000000001
 20
4822.400000000001
 10
6265.6
 20
4822.400000000001
 97
0
 75
1
 76
1
 98
0
  0
LWPOLYLINE
  5
1BB
330
17
100
AcDbEntity
  8
WALL
100
AcDbPolyline
 90
4
 70
1
 10
8307.2
 20
4936.8
 10
8360.0
 20
4936.8
 10
8360.0
 20
4488.0
 10
8307.2
 20
4488.0
  0
HATCH
  5
1BC
330
17
100
AcDbEntity
  8
WALL
100
AcDbHatch
 10
0.0
 20
0.0
 30
0.0
210
0.0
220
0.0
230
1.0
  2
SOLID
 70
1
 71
0
 91
1
 92
3
 72
0
 73
1
 93
4
 10
8307.2
 20
4936.8
 10
8360.0
 20
4936.8
 10
8360.0
 20
4488.0
 10
8307.2
 20
4488.0
 97
0
 75
1
 76
1
 98
0
  0
LWPOLYLINE
  5
1BD
330
17
100
AcDbEntity
  8
WALL
100
AcDbPolyline
 90
4
 70
1
 10
3414.4
 20
4919.200000000001
 10
3432.0000000000005
 20
4919.200000000001
 10
3432.0000000000005
 20
4796.0
 10
3414.4
 20
4796.0
  0
HATCH
  5
1BE
330
17
100
AcDbEntity
  8
WALL
100
AcDbHatch
 10
0.0
 20
0.0
 30
0.0
210
0.0
220
0.0
230
1.0
  2
SOLID
 70
1
 71
0
 91
1
 92
3
 72
0
 73
1
 93
4
 10
3414.4
 20
4919.200000000001
 10
3432.0000000000005
 20
4919.200000000001
 10
3432.0000000000005
 20
4796.0
 10
3414.4
 20
4796.0
 97
0
 75
1
 76
1
 98
0
  0
LWPOLYLINE
  5
1BF
330
17
100
AcDbEntity
  8
WALL
100
AcDbPolyline
 90
4
 70
1
 10
281.6
 20
4831.200000000001
 10
316.8
 20
4831.200000000001
 10
316.8
 20
4690.400000000001
 10
281.6
 20
4690.400000000001
  0
HATCH
  5
1C0
330
17
100
AcDbEntity
  8
WALL
100
AcDbHatch
 10
0.0
 20
0.0
 30
0.0
210
0.0
220
0.0
230
1.0
  2
SOLID
 70
1
 71
0
 91
1
 92
3
 72
0
 73
1
 93
4
 10
281.6
 20
4831.200000000001
 10
316.8
 20
4831.200000000001
 10
316.8
 20
4690.400000000001
 10
281.6
 20
4690.400000000001
 97
0
 75
1
 76
1
 98
0
  0
LWPOLYLINE
  5
1C1
330
17
100
AcDbEntity
  8
WALL
100
AcDbPolyline
 90
4
 70
1
 10
4048.0000000000005
 20
4840.0
 10
4074.4000000000005
 20
4840.0
 10
4074.4000000000005
 20
4611.200000000001
 10
4048.0000000000005
 20
4611.200000000001
  0
HATCH
  5
1C2
330
17
100
AcDbEntity
  8
WALL
100
AcDbHatch
 10
0.0
 20
0.0
 30
0.0
210
0.0
220
0.0
230
1.0
  2
SOLID
 70
1
 71
0
 91
1
 92
3
 72
0
 73
1
 93
4
 10
4048.0000000000005
 20
4840.0
 10
4074.4000000000005
 20
4840.0
 10
4074.4000000000005
 20
4611.200000000001
 10
4048.0000000000005
 20
4611.200000000001
 97
0
 75
1
 76
1
 98
0
  0
LWPOLYLINE
  5
1C3
330
17
100
AcDbEntity
  8
WALL
100
AcDbPolyline
 90
4
 70
1
 10
8606.400000000001
 20
4813.6
 10
8694.400000000001
 20
4813.6
 10
8694.400000000001
 20
4224.0
 10
8606.400000000001
 20
4224.0
  0
HATCH
  5
1C4
330
17
100
AcDbEntity
  8
WALL
100
AcDbHatch
 10
0.0
 20
0.0
 30
0.0
210
0.0
220
0.0
230
1.0
  2
SOLID
 70
1
 71
0
 91
1
 92
3
 72
0
 73
1
 93
4
 10
8606.400000000001
 20
4813.6
 10
8694.400000000001
 20
4813.6
 10
8694.400000000001
 20
4224.0
 10
8606.400000000001
 20
4224.0
 97
0
 75
1
 76
1
 98
0
  0
LWPOLYLINE
  5
1C5
330
17
100
AcDbEntity
  8
WALL
100
AcDbPolyline
 90
4
 70
1
 10
6195.200000000001
 20
4804.8
 10
6248.000000000001
 20
4804.8
 10
6248.000000000001
 20
4364.8
 10
6195.200000000001
 20
4364.8
  0
HATCH
  5
1C6
330
17
100
AcDbEntity
  8
WALL
100
AcDbHatch
 10
0.0
 20
0.0
 30
0.0
210
0.0
220
0.0
230
1.0
  2
SOLID
 70
1
 71
0
 91
1
 92
3
 72
0
 73
1
 93
4
 10
6195.200000000001
 20
4804.8
 10
6248.000000000001
 20
4804.8
 10
6248.000000000001
 20
4364.8
 10
6195.200000000001
 20
4364.8
 97
0
 75
1
 76
1
 98
0
  0
LWPOLYLINE
  5
1C7
330
17
100
AcDbEntity
  8
WALL
100
AcDbPolyline
 90
4
 70
1
 10
6265.6
 20
4804.8
 10
6274.400000000001
 20
4804.8
 10
6274.400000000001
 20
4699.200000000001
 10
6265.6
 20
4699.200000000001
  0
HATCH
  5
1C8
330
17
100
AcDbEntity
  8
WALL
100
AcDbHatch
 10
0.0
 20
0.0
 30
0.0
210
0.0
220
0.0
230
1.0
  2
SOLID
 70
1
 71
0
 91
1
 92
3
 72
0
 73
1
 93
4
 10
6265.6
 20
4804.8
 10
6274.400000000001
 20
4804.8
 10
6274.400000000001
 20
4699.200000000001
 10
6265.6
 20
4699.200000000001
 97
0
 75
1
 76
1
 98
0
  0
LWPOLYLINE
  5
1C9
330
17
100
AcDbEntity
  8
WALL
100
AcDbPolyline
 90
4
 70
1
 10
8976.0
 20
4620.0
 10
9081.6
 20
4620.0
 10
9081.6
 20
4241.6
 10
8976.0
 20
4241.6
  0
HATCH
  5
1CA
330
17
100
AcDbEntity
  8
WALL
100
AcDbHatch
 10
0.0
 20
0.0
 30
0.0
210
0.0
220
0.0
230
1.0
  2
SOLID
 70
1
 71
0
 91
1
 92
3
 72
0
 73
1
 93
4
 10
8976.0
 20
4620.0
 10
9081.6
 20
4620.0
 10
9081.6
 20
4241.6
 10
8976.0
 20
4241.6
 97
0
 75
1
 76
1
 98
0
  0
LWPOLYLINE
  5
1CB
330
17
100
AcDbEntity
  8
WALL
100
AcDbPolyline
 90
4
 70
1
 10
2622.4
 20
4461.6
 10
2657.6000000000004
 20
4461.6
 10
2657.6000000000004
 20
4285.6
 10
2622.4
 20
4285.6
  0
HATCH
  5
1CC
330
17
100
AcDbEntity
  8
WALL
100
AcDbHatch
 10
0.0
 20
0.0
 30
0.0
210
0.0
220
0.0
230
1.0
  2
SOLID
 70
1
 71
0
 91
1
 92
3
 72
0
 73
1
 93
4
 10
2622.4
 20
4461.6
 10
2657.6000000000004
 20
4461.6
 10
2657.6000000000004
 20
4285.6
 10
2622.4
 20
4285.6
 97
0
 75
1
 76
1
 98
0
  0
LWPOLYLINE
  5
1CD
330
17
100
AcDbEntity
  8
WALL
100
AcDbPolyline
 90
4
 70
1
 10
3115.2000000000003
 20
4461.6
 10
3159.2000000000003
 20
4461.6
 10
3159.2000000000003
 20
4268.0
 10
3115.2000000000003
 20
4268.0
  0
HATCH
  5
1CE
330
17
100
AcDbEntity
  8
WALL
100
AcDbHatch
 10
0.0
 20
0.0
 30
0.0
210
0.0
220
0.0
230
1.0
  2
SOLID
 70
1
 71
0
 91
1
 92
3
 72
0
 73
1
 93
4
 10
3115.2000000000003
 20
4461.6
 10
3159.2000000000003
 20
4461.6
 10
3159.2000000000003
 20
4268.0
 10
3115.2000000000003
 20
4268.0
 97
0
 75
1
 76
1
 98
0
  0
LWPOLYLINE
  5
1CF
330
17
100
AcDbEntity
  8
WALL
100
AcDbPolyline
 90
4
 70
1
 10
3608.0000000000005
 20
4461.6
 10
3660.8
 20
4461.6
 10
3660.8
 20
4268.0
 10
3608.0000000000005
 20
4268.0
  0
HATCH
  5
1D0
330
17
100
AcDbEntity
  8
WALL
100
AcDbHatch
 10
0.0
 20
0.0
 30
0.0
210
0.0
220
0.0
230
1.0
  2
SOLID
 70
1
 71
0
 91
1
 92
3
 72
0
 73
1
 93
4
 10
3608.0000000000005
 20
4461.6
 10
3660.8
 20
4461.6
 10
3660.8
 20
4268.0
 10
3608.0000000000005
 20
4268.0
 97
0
 75
1
 76
1
 98
0
  0
LWPOLYLINE
  5
1D1
330
17
100
AcDbEntity
  8
WALL
100
AcDbPolyline
 90
4
 70
1
 10
6265.6
 20
4452.8
 10
6274.400000000001
 20
4452.8
 10
6274.400000000001
 20
4347.200000000001
 10
6265.6
 20
4347.200000000001
  0
HATCH
  5
1D2
330
17
100
AcDbEntity
  8
WALL
100
AcDbHatch
 10
0.0
 20
0.0
 30
0.0
210
0.0
220
0.0
230
1.0
  2
SOLID
 70
1
 71
0
 91
1
 92
3
 72
0
 73
1
 93
4
 10
6265.6
 20
4452.8
 10
6274.400000000001
 20
4452.8
 10
6274.400000000001
 20
4347.200000000001
 10
6265.6
 20
4347.200000000001
 97
0
 75
1
 76
1
 98
0
  0
LWPOLYLINE
  5
1D3
330
17
100
AcDbEntity
  8
WALL
100
AcDbPolyline
 90
4
 70
1
 10
704.0
 20
4426.400000000001
 10
739.2
 20
4426.400000000001
 10
739.2
 20
2481.6000000000004
 10
704.0
 20
2481.6000000000004
  0
HATCH
  5
1D4
330
17
100
AcDbEntity
  8
WALL
100
AcDbHatch
 10
0.0
 20
0.0
 30
0.0
210
0.0
220
0.0
230
1.0
  2
SOLID
 70
1
 71
0
 91
1
 92
3
 72
0
 73
1
 93
4
 10
704.0
 20
4426.400000000001
 10
739.2
 20
4426.400000000001
 10
739.2
 20
2481.6000000000004
 10
704.0
 20
2481.6000000000004
 97
0
 75
1
 76
1
 98
0
  0
LWPOLYLINE
  5
1D5
330
17
100
AcDbEntity
  8
WALL
100
AcDbPolyline
 90
4
 70
1
 10
8316.0
 20
4435.200000000001
 10
8324.800000000001
 20
4435.200000000001
 10
8324.800000000001
 20
4276.8
 10
8316.0
 20
4276.8
  0
HATCH
  5
1D6
330
17
100
AcDbEntity
  8
WALL
100
AcDbHatch
 10
0.0
 20
0.0
 30
0.0
210
0.0
220
0.0
230
1.0
  2
SOLID
 70
1
 71
0
 91
1
 92
3
 72
0
 73
1
 93
4
 10
8316.0
 20
4435.200000000001
 10
8324.800000000001
 20
4435.200000000001
 10
8324.800000000001
 20
4276.8
 10
8316.0
 20
4276.8
 97
0
 75
1
 76
1
 98
0
  0
LWPOLYLINE
  5
1D7
330
17
100
AcDbEntity
  8
WALL
100
AcDbPolyline
 90
4
 70
1
 10
8342.400000000001
 20
4435.200000000001
 10
8351.2
 20
4435.200000000001
 10
8351.2
 20
4224.0
 10
8342.400000000001
 20
4224.0
  0
HATCH
  5
1D8
330
17
100
AcDbEntity
  8
WALL
100
AcDbHatch
 10
0.0
 20
0.0
 30
0.0
210
0.0
220
0.0
230
1.0
  2
SOLID
 70
1
 71
0
 91
1
 92
3
 72
0
 73
1
 93
4
 10
8342.400000000001
 20
4435.200000000001
 10
8351.2
 20
4435.200000000001
 10
8351.2
 20
4224.0
 10
8342.400000000001
 20
4224.0
 97
0
 75
1
 76
1
 98
0
  0
LWPOLYLINE
  5
1D9
330
17
100
AcDbEntity
  8
WALL
100
AcDbPolyline
 90
4
 70
1
 10
8492.0
 20
4144.8
 10
8500.800000000001
 20
4144.8
 10
8500.800000000001
 20
4004.0000000000005
 10
8492.0
 20
4004.0000000000005
  0
HATCH
  5
1DA
330
17
100
AcDbEntity
  8
WALL
100
AcDbHatch
 10
0.0
 20
0.0
 30
0.0
210
0.0
220
0.0
230
1.0
  2
SOLID
 70
1
 71
0
 91
1
 92
3
 72
0
 73
1
 93
4
 10
8492.0
 20
4144.8
 10
8500.800000000001
 20
4144.8
 10
8500.800000000001
 20
4004.0000000000005
 10
8492.0
 20
4004.0000000000005
 97
0
 75
1
 76
1
 98
0
  0
LWPOLYLINE
  5
1DB
330
17
100
AcDbEntity
  8
WALL
100
AcDbPolyline
 90
4
 70
1
 10
8940.800000000001
 20
4153.6
 10
8976.0
 20
4153.6
 10
8976.0
 20
3977.6000000000004
 10
8940.800000000001
 20
3977.6000000000004
  0
HATCH
  5
1DC
330
17
100
AcDbEntity
  8
WALL
100
AcDbHatch
 10
0.0
 20
0.0
 30
0.0
210
0.0
220
0.0
230
1.0
  2
SOLID
 70
1
 71
0
 91
1
 92
3
 72
0
 73
1
 93
4
 10
8940.800000000001
 20
4153.6
 10
8976.0
 20
4153.6
 10
8976.0
 20
3977.6000000000004
 10
8940.800000000001
 20
3977.6000000000004
 97
0
 75
1
 76
1
 98
0
  0
LWPOLYLINE
  5
1DD
330
17
100
AcDbEntity
  8
WALL
100
AcDbPolyline
 90
4
 70
1
 10
8773.6
 20
4092.0000000000005
 10
8800.0
 20
4092.0000000000005
 10
8800.0
 20
3986.4000000000005
 10
8773.6
 20
3986.4000000000005
  0
HATCH
  5
1DE
330
17
100
AcDbEntity
  8
WALL
100
AcDbHatch
 10
0.0
 20
0.0
 30
0.0
210
0.0
220
0.0
230
1.0
  2
SOLID
 70
1
 71
0
 91
1
 92
3
 72
0
 73
1
 93
4
 10
8773.6
 20
4092.0000000000005
 10
8800.0
 20
4092.0000000000005
 10
8800.0
 20
3986.4000000000005
 10
8773.6
 20
3986.4000000000005
 97
0
 75
1
 76
1
 98
0
  0
LWPOLYLINE
  5
1DF
330
17
100
AcDbEntity
  8
WALL
100
AcDbPolyline
 90
4
 70
1
 10
7260.000000000001
 20
4048.0000000000005
 10
7277.6
 20
4048.0000000000005
 10
7277.6
 20
3924.8
 10
7260.000000000001
 20
3924.8
  0
HATCH
  5
1E0
330
17
100
AcDbEntity
  8
WALL
100
AcDbHatch
 10
0.0
 20
0.0
 30
0.0
210
0.0
220
0.0
230
1.0
  2
SOLID
 70
1
 71
0
 91
1
 92
3
 72
0
 73
1
 93
4
 10
7260.000000000001
 20
4048.0000000000005
 10
7277.6
 20
4048.0000000000005
 10
7277.6
 20
3924.8
 10
7260.000000000001
 20
3924.8
 97
0
 75
1
 76
1
 98
0
  0
LWPOLYLINE
  5
1E1
330
17
100
AcDbEntity
  8
WALL
100
AcDbPolyline
 90
4
 70
1
 10
7832.000000000001
 20
4048.0000000000005
 10
7840.8
 20
4048.0000000000005
 10
7840.8
 20
3916.0000000000005
 10
7832.000000000001
 20
3916.0000000000005
  0
HATCH
  5
1E2
330
17
100
AcDbEntity
  8
WALL
100
AcDbHatch
 10
0.0
 20
0.0
 30
0.0
210
0.0
220
0.0
230
1.0
  2
SOLID
 70
1
 71
0
 91
1
 92
3
 72
0
 73
1
 93
4
 10
7832.000000000001
 20
4048.0000000000005
 10
7840.8
 20
4048.0000000000005
 10
7840.8
 20
3916.0000000000005
 10
7832.000000000001
 20
3916.0000000000005
 97
0
 75
1
 76
1
 98
0
  0
LWPOLYLINE
  5
1E3
330
17
100
AcDbEntity
  8
WALL
100
AcDbPolyline
 90
4
 70
1
 10
9020.0
 20
3995.2000000000003
 10
9028.800000000001
 20
3995.2000000000003
 10
9028.800000000001
 20
3889.6000000000004
 10
9020.0
 20
3889.6000000000004
  0
HATCH
  5
1E4
330
17
100
AcDbEntity
  8
WALL
100
AcDbHatch
 10
0.0
 20
0.0
 30
0.0
210
0.0
220
0.0
230
1.0
  2
SOLID
 70
1
 71
0
 91
1
 92
3
 72
0
 73
1
 93
4
 10
9020.0
 20
3995.2000000000003
 10
9028.800000000001
 20
3995.2000000000003
 10
9028.800000000001
 20
3889.6000000000004
 10
9020.0
 20
3889.6000000000004
 97
0
 75
1
 76
1
 98
0
  0
LWPOLYLINE
  5
1E5
330
17
100
AcDbEntity
  8
WALL
100
AcDbPolyline
 90
4
 70
1
 10
9046.400000000001
 20
3898.4
 10
9064.0
 20
3898.4
 10
9064.0
 20
3784.0000000000005
 10
9046.400000000001
 20
3784.0000000000005
  0
HATCH
  5
1E6
330
17
100
AcDbEntity
  8
WALL
100
AcDbHatch
 10
0.0
 20
0.0
 30
0.0
210
0.0
220
0.0
230
1.0
  2
SOLID
 70
1
 71
0
 91
1
 92
3
 72
0
 73
1
 93
4
 10
9046.400000000001
 20
3898.4
 10
9064.0
 20
3898.4
 10
9064.0
 20
3784.0000000000005
 10
9046.400000000001
 20
3784.0000000000005
 97
0
 75
1
 76
1
 98
0
  0
LWPOLYLINE
  5
1E7
330
17
100
AcDbEntity
  8
WALL
100
AcDbPolyline
 90
4
 70
1
 10
7110.400000000001
 20
3810.4
 10
7145.6
 20
3810.4
 10
7145.6
 20
3669.6000000000004
 10
7110.400000000001
 20
3669.6000000000004
  0
HATCH
  5
1E8
330
17
100
AcDbEntity
  8
WALL
100
AcDbHatch
 10
0.0
 20
0.0
 30
0.0
210
0.0
220
0.0
230
1.0
  2
SOLID
 70
1
 71
0
 91
1
 92
3
 72
0
 73
1
 93
4
 10
7110.400000000001
 20
3810.4
 10
7145.6
 20
3810.4
 10
7145.6
 20
3669.6000000000004
 10
7110.400000000001
 20
3669.6000000000004
 97
0
 75
1
 76
1
 98
0
  0
LWPOLYLINE
  5
1E9
330
17
100
AcDbEntity
  8
WALL
100
AcDbPolyline
 90
4
 70
1
 10
8553.6
 20
3634.4
 10
8606.400000000001
 20
3634.4
 10
8606.400000000001
 20
2912.8
 10
8553.6
 20
2912.8
  0
HATCH
  5
1EA
330
17
100
AcDbEntity
  8
WALL
100
AcDbHatch
 10
0.0
 20
0.0
 30
0.0
210
0.0
220
0.0
230
1.0
  2
SOLID
 70
1
 71
0
 91
1
 92
3
 72
0
 73
1
 93
4
 10
8553.6
 20
3634.4
 10
8606.400000000001
 20
3634.4
 10
8606.400000000001
 20
2912.8
 10
8553.6
 20
2912.8
 97
0
 75
1
 76
1
 98
0
  0
LWPOLYLINE
  5
1EB
330
17
100
AcDbEntity
  8
WALL
100
AcDbPolyline
 90
4
 70
1
 10
193.60000000000002
 20
3476.0000000000005
 10
246.40000000000003
 20
3476.0000000000005
 10
246.40000000000003
 20
3352.8
 10
193.60000000000002
 20
3352.8
  0
HATCH
  5
1EC
330
17
100
AcDbEntity
  8
WALL
100
AcDbHatch
 10
0.0
 20
0.0
 30
0.0
210
0.0
220
0.0
230
1.0
  2
SOLID
 70
1
 71
0
 91
1
 92
3
 72
0
 73
1
 93
4
 10
193.60000000000002
 20
3476.0000000000005
 10
246.40000000000003
 20
3476.0000000000005
 10
246.40000000000003
 20
3352.8
 10
193.60000000000002
 20
3352.8
 97
0
 75
1
 76
1
 98
0
  0
LWPOLYLINE
  5
1ED
330
17
100
AcDbEntity
  8
WALL
100
AcDbPolyline
 90
4
 70
1
 10
1628.0000000000002
 20
3476.0000000000005
 10
1636.8000000000002
 20
3476.0000000000005
 10
1636.8000000000002
 20
3335.2000000000003
 10
1628.0000000000002
 20
3335.2000000000003
  0
HATCH
  5
1EE
330
17
100
AcDbEntity
  8
WALL
100
AcDbHatch
 10
0.0
 20
0.0
 30
0.0
210
0.0
220
0.0
230
1.0
  2
SOLID
 70
1
 71
0
 91
1
 92
3
 72
0
 73
1
 93
4
 10
1628.0000000000002
 20
3476.0000000000005
 10
1636.8000000000002
 20
3476.0000000000005
 10
1636.8000000000002
 20
3335.2000000000003
 10
1628.0000000000002
 20
3335.2000000000003
 97
0
 75
1
 76
1
 98
0
  0
LWPOLYLINE
  5
1EF
330
17
100
AcDbEntity
  8
WALL
100
AcDbPolyline
 90
4
 70
1
 10
8342.400000000001
 20
3458.4
 10
8377.6
 20
3458.4
 10
8377.6
 20
3132.8
 10
8342.400000000001
 20
3132.8
  0
HATCH
  5
1F0
330
17
100
AcDbEntity
  8
WALL
100
AcDbHatch
 10
0.0
 20
0.0
 30
0.0
210
0.0
220
0.0
230
1.0
  2
SOLID
 70
1
 71
0
 91
1
 92
3
 72
0
 73
1
 93
4
 10
8342.400000000001
 20
3458.4
 10
8377.6
 20
3458.4
 10
8377.6
 20
3132.8
 10
8342.400000000001
 20
3132.8
 97
0
 75
1
 76
1
 98
0
  0
LWPOLYLINE
  5
1F1
330
17
100
AcDbEntity
  8
WALL
100
AcDbPolyline
 90
4
 70
1
 10
5262.400000000001
 20
3317.6000000000004
 10
5350.400000000001
 20
3317.6000000000004
 10
5350.400000000001
 20
2939.2000000000003
 10
5262.400000000001
 20
2939.2000000000003
  0
HATCH
  5
1F2
330
17
100
AcDbEntity
  8
WALL
100
AcDbHatch
 10
0.0
 20
0.0
 30
0.0
210
0.0
220
0.0
230
1.0
  2
SOLID
 70
1
 71
0
 91
1
 92
3
 72
0
 73
1
 93
4
 10
5262.400000000001
 20
3317.6000000000004
 10
5350.400000000001
 20
3317.6000000000004
 10
5350.400000000001
 20
2939.2000000000003
 10
5262.400000000001
 20
2939.2000000000003
 97
0
 75
1
 76
1
 98
0
  0
LWPOLYLINE
  5
1F3
330
17
100
AcDbEntity
  8
WALL
100
AcDbPolyline
 90
4
 70
1
 10
3537.6000000000004
 20
3264.8
 10
3608.0000000000005
 20
3264.8
 10
3608.0000000000005
 20
2789.6000000000004
 10
3537.6000000000004
 20
2789.6000000000004
  0
HATCH
  5
1F4
330
17
100
AcDbEntity
  8
WALL
100
AcDbHatch
 10
0.0
 20
0.0
 30
0.0
210
0.0
220
0.0
230
1.0
  2
SOLID
 70
1
 71
0
 91
1
 92
3
 72
0
 73
1
 93
4
 10
3537.6000000000004
 20
3264.8
 10
3608.0000000000005
 20
3264.8
 10
3608.0000000000005
 20
2789.6000000000004
 10
3537.6000000000004
 20
2789.6000000000004
 97
0
 75
1
 76
1
 98
0
  0
LWPOLYLINE
  5
1F5
330
17
100
AcDbEntity
  8
WALL
100
AcDbPolyline
 90
4
 70
1
 10
6388.8
 20
3273.6000000000004
 10
6424.000000000001
 20
3273.6000000000004
 10
6424.000000000001
 20
3062.4
 10
6388.8
 20
3062.4
  0
HATCH
  5
1F6
330
17
100
AcDbEntity
  8
WALL
100
AcDbHatch
 10
0.0
 20
0.0
 30
0.0
210
0.0
220
0.0
230
1.0
  2
SOLID
 70
1
 71
0
 91
1
 92
3
 72
0
 73
1
 93
4
 10
6388.8
 20
3273.6000000000004
 10
6424.000000000001
 20
3273.6000000000004
 10
6424.000000000001
 20
3062.4
 10
6388.8
 20
3062.4
 97
0
 75
1
 76
1
 98
0
  0
LWPOLYLINE
  5
1F7
330
17
100
AcDbEntity
  8
WALL
100
AcDbPolyline
 90
4
 70
1
 10
211.20000000000002
 20
3247.2000000000003
 10
299.20000000000005
 20
3247.2000000000003
 10
299.20000000000005
 20
3088.8
 10
211.20000000000002
 20
3088.8
  0
HATCH
  5
1F8
330
17
100
AcDbEntity
  8
WALL
100
AcDbHatch
 10
0.0
 20
0.0
 30
0.0
210
0.0
220
0.0
230
1.0
  2
SOLID
 70
1
 71
0
 91
1
 92
3
 72
0
 73
1
 93
4
 10
211.20000000000002
 20
3247.2000000000003
 10
299.20000000000005
 20
3247.2000000000003
 10
299.20000000000005
 20
3088.8
 10
211.20000000000002
 20
3088.8
 97
0
 75
1
 76
1
 98
0
  0
LWPOLYLINE
  5
1F9
330
17
100
AcDbEntity
  8
WALL
100
AcDbPolyline
 90
4
 70
1
 10
9072.800000000001
 20
3238.4
 10
9081.6
 20
3238.4
 10
9081.6
 20
3132.8
 10
9072.800000000001
 20
3132.8
  0
HATCH
  5
1FA
330
17
100
AcDbEntity
  8
WALL
100
AcDbHatch
 10
0.0
 20
0.0
 30
0.0
210
0.0
220
0.0
230
1.0
  2
SOLID
 70
1
 71
0
 91
1
 92
3
 72
0
 73
1
 93
4
 10
9072.800000000001
 20
3238.4
 10
9081.6
 20
3238.4
 10
9081.6
 20
3132.8
 10
9072.800000000001
 20
3132.8
 97
0
 75
1
 76
1
 98
0
  0
LWPOLYLINE
  5
1FB
330
17
100
AcDbEntity
  8
WALL
100
AcDbPolyline
 90
4
 70
1
 10
9099.2
 20
3238.4
 10
9108.0
 20
3238.4
 10
9108.0
 20
3132.8
 10
9099.2
 20
3132.8
  0
HATCH
  5
1FC
330
17
100
AcDbEntity
  8
WALL
100
AcDbHatch
 10
0.0
 20
0.0
 30
0.0
210
0.0
220
0.0
230
1.0
  2
SOLID
 70
1
 71
0
 91
1
 92
3
 72
0
 73
1
 93
4
 10
9099.2
 20
3238.4
 10
9108.0
 20
3238.4
 10
9108.0
 20
3132.8
 10
9099.2
 20
3132.8
 97
0
 75
1
 76
1
 98
0
  0
LWPOLYLINE
  5
1FD
330
17
100
AcDbEntity
  8
WALL
100
AcDbPolyline
 90
4
 70
1
 10
325.6
 20
3203.2000000000003
 10
360.8
 20
3203.2000000000003
 10
360.8
 20
3053.6000000000004
 10
325.6
 20
3053.6000000000004
  0
HATCH
  5
1FE
330
17
100
AcDbEntity
  8
WALL
100
AcDbHatch
 10
0.0
 20
0.0
 30
0.0
210
0.0
220
0.0
230
1.0
  2
SOLID
 70
1
 71
0
 91
1
 92
3
 72
0
 73
1
 93
4
 10
325.6
 20
3203.2000000000003
 10
360.8
 20
3203.2000000000003
 10
360.8
 20
3053.6000000000004
 10
325.6
 20
3053.6000000000004
 97
0
 75
1
 76
1
 98
0
  0
LWPOLYLINE
  5
1FF
330
17
100
AcDbEntity
  8
WALL
100
AcDbPolyline
 90
4
 70
1
 10
5755.200000000001
 20
3159.2000000000003
 10
5790.400000000001
 20
3159.2000000000003
 10
5790.400000000001
 20
3027.2000000000003
 10
5755.200000000001
 20
3027.2000000000003
  0
HATCH
  5
200
330
17
100
AcDbEntity
  8
WALL
100
AcDbHatch
 10
0.0
 20
0.0
 30
0.0
210
0.0
220
0.0
230
1.0
  2
SOLID
 70
1
 71
0
 91
1
 92
3
 72
0
 73
1
 93
4
 10
5755.200000000001
 20
3159.2000000000003
 10
5790.400000000001
 20
3159.2000000000003
 10
5790.400000000001
 20
3027.2000000000003
 10
5755.200000000001
 20
3027.2000000000003
 97
0
 75
1
 76
1
 98
0
  0
LWPOLYLINE
  5
201
330
17
100
AcDbEntity
  8
WALL
100
AcDbPolyline
 90
4
 70
1
 10
8703.2
 20
3159.2000000000003
 10
8712.0
 20
3159.2000000000003
 10
8712.0
 20
3036.0000000000005
 10
8703.2
 20
3036.0000000000005
  0
HATCH
  5
202
330
17
100
AcDbEntity
  8
WALL
100
AcDbHatch
 10
0.0
 20
0.0
 30
0.0
210
0.0
220
0.0
230
1.0
  2
SOLID
 70
1
 71
0
 91
1
 92
3
 72
0
 73
1
 93
4
 10
8703.2
 20
3159.2000000000003
 10
8712.0
 20
3159.2000000000003
 10
8712.0
 20
3036.0000000000005
 10
8703.2
 20
3036.0000000000005
 97
0
 75
1
 76
1
 98
0
  0
LWPOLYLINE
  5
203
330
17
100
AcDbEntity
  8
WALL
100
AcDbPolyline
 90
4
 70
1
 10
1760.0000000000002
 20
3150.4
 10
1795.2
 20
3150.4
 10
1795.2
 20
1443.2
 10
1760.0000000000002
 20
1443.2
  0
HATCH
  5
204
330
17
100
AcDbEntity
  8
WALL
100
AcDbHatch
 10
0.0
 20
0.0
 30
0.0
210
0.0
220
0.0
230
1.0
  2
SOLID
 70
1
 71
0
 91
1
 92
3
 72
0
 73
1
 93
4
 10
1760.0000000000002
 20
3150.4
 10
1795.2
 20
3150.4
 10
1795.2
 20
1443.2
 10
1760.0000000000002
 20
1443.2
 97
0
 75
1
 76
1
 98
0
  0
LWPOLYLINE
  5
205
330
17
100
AcDbEntity
  8
WALL
100
AcDbPolyline
 90
4
 70
1
 10
7392.000000000001
 20
2877.6000000000004
 10
7427.200000000001
 20
2877.6000000000004
 10
7427.200000000001
 20
2640.0
 10
7392.000000000001
 20
2640.0
  0
HATCH
  5
206
330
17
100
AcDbEntity
  8
WALL
100
AcDbHatch
 10
0.0
 20
0.0
 30
0.0
210
0.0
220
0.0
230
1.0
  2
SOLID
 70
1
 71
0
 91
1
 92
3
 72
0
 73
1
 93
4
 10
7392.000000000001
 20
2877.6000000000004
 10
7427.200000000001
 20
2877.6000000000004
 10
7427.200000000001
 20
2640.0
 10
7392.000000000001
 20
2640.0
 97
0
 75
1
 76
1
 98
0
  0
LWPOLYLINE
  5
207
330
17
100
AcDbEntity
  8
WALL
100
AcDbPolyline
 90
4
 70
1
 10
8976.0
 20
2868.8
 10
9011.2
 20
2868.8
 10
9011.2
 20
2613.6000000000004
 10
8976.0
 20
2613.6000000000004
  0
HATCH
  5
208
330
17
100
AcDbEntity
  8
WALL
100
AcDbHatch
 10
0.0
 20
0.0
 30
0.0
210
0.0
220
0.0
230
1.0
  2
SOLID
 70
1
 71
0
 91
1
 92
3
 72
0
 73
1
 93
4
 10
8976.0
 20
2868.8
 10
9011.2
 20
2868.8
 10
9011.2
 20
2613.6000000000004
 10
8976.0
 20
2613.6000000000004
 97
0
 75
1
 76
1
 98
0
  0
LWPOLYLINE
  5
209
330
17
100
AcDbEntity
  8
WALL
100
AcDbPolyline
 90
4
 70
1
 10
9064.0
 20
2868.8
 10
9081.6
 20
2868.8
 10
9081.6
 20
2745.6000000000004
 10
9064.0
 20
2745.6000000000004
  0
HATCH
  5
20A
330
17
100
AcDbEntity
  8
WALL
100
AcDbHatch
 10
0.0
 20
0.0
 30
0.0
210
0.0
220
0.0
230
1.0
  2
SOLID
 70
1
 71
0
 91
1
 92
3
 72
0
 73
1
 93
4
 10
9064.0
 20
2868.8
 10
9081.6
 20
2868.8
 10
9081.6
 20
2745.6000000000004
 10
9064.0
 20
2745.6000000000004
 97
0
 75
1
 76
1
 98
0
  0
LWPOLYLINE
  5
20B
330
17
100
AcDbEntity
  8
WALL
100
AcDbPolyline
 90
4
 70
1
 10
6019.200000000001
 20
2772.0
 10
6054.400000000001
 20
2772.0
 10
6054.400000000001
 20
2569.6000000000004
 10
6019.200000000001
 20
2569.6000000000004
  0
HATCH
  5
20C
330
17
100
AcDbEntity
  8
WALL
100
AcDbHatch
 10
0.0
 20
0.0
 30
0.0
210
0.0
220
0.0
230
1.0
  2
SOLID
 70
1
 71
0
 91
1
 92
3
 72
0
 73
1
 93
4
 10
6019.200000000001
 20
2772.0
 10
6054.400000000001
 20
2772.0
 10
6054.400000000001
 20
2569.6000000000004
 10
6019.200000000001
 20
2569.6000000000004
 97
0
 75
1
 76
1
 98
0
  0
LWPOLYLINE
  5
20D
330
17
100
AcDbEntity
  8
WALL
100
AcDbPolyline
 90
4
 70
1
 10
3220.8
 20
2684.0
 10
3256.0000000000005
 20
2684.0
 10
3256.0000000000005
 20
2323.2000000000003
 10
3220.8
 20
2323.2000000000003
  0
HATCH
  5
20E
330
17
100
AcDbEntity
  8
WALL
100
AcDbHatch
 10
0.0
 20
0.0
 30
0.0
210
0.0
220
0.0
230
1.0
  2
SOLID
 70
1
 71
0
 91
1
 92
3
 72
0
 73
1
 93
4
 10
3220.8
 20
2684.0
 10
3256.0000000000005
 20
2684.0
 10
3256.0000000000005
 20
2323.2000000000003
 10
3220.8
 20
2323.2000000000003
 97
0
 75
1
 76
1
 98
0
  0
LWPOLYLINE
  5
20F
330
17
100
AcDbEntity
  8
WALL
100
AcDbPolyline
 90
4
 70
1
 10
2992.0000000000005
 20
2666.4
 10
3053.6000000000004
 20
2666.4
 10
3053.6000000000004
 20
2191.2000000000003
 10
2992.0000000000005
 20
2191.2000000000003
  0
HATCH
  5
210
330
17
100
AcDbEntity
  8
WALL
100
AcDbHatch
 10
0.0
 20
0.0
 30
0.0
210
0.0
220
0.0
230
1.0
  2
SOLID
 70
1
 71
0
 91
1
 92
3
 72
0
 73
1
 93
4
 10
2992.0000000000005
 20
2666.4
 10
3053.6000000000004
 20
2666.4
 10
3053.6000000000004
 20
2191.2000000000003
 10
2992.0000000000005
 20
2191.2000000000003
 97
0
 75
1
 76
1
 98
0
  0
LWPOLYLINE
  5
211
330
17
100
AcDbEntity
  8
WALL
100
AcDbPolyline
 90
4
 70
1
 10
2569.6000000000004
 20
2657.6000000000004
 10
2604.8
 20
2657.6000000000004
 10
2604.8
 20
2525.6000000000004
 10
2569.6000000000004
 20
2525.6000000000004
  0
HATCH
  5
212
330
17
100
AcDbEntity
  8
WALL
100
AcDbHatch
 10
0.0
 20
0.0
 30
0.0
210
0.0
220
0.0
230
1.0
  2
SOLID
 70
1
 71
0
 91
1
 92
3
 72
0
 73
1
 93
4
 10
2569.6000000000004
 20
2657.6000000000004
 10
2604.8
 20
2657.6000000000004
 10
2604.8
 20
2525.6000000000004
 10
2569.6000000000004
 20
2525.6000000000004
 97
0
 75
1
 76
1
 98
0
  0
LWPOLYLINE
  5
213
330
17
100
AcDbEntity
  8
WALL
100
AcDbPolyline
 90
4
 70
1
 10
2622.4
 20
2657.6000000000004
 10
2631.2000000000003
 20
2657.6000000000004
 10
2631.2000000000003
 20
2464.0
 10
2622.4
 20
2464.0
  0
HATCH
  5
214
330
17
100
AcDbEntity
  8
WALL
100
AcDbHatch
 10
0.0
 20
0.0
 30
0.0
210
0.0
220
0.0
230
1.0
  2
SOLID
 70
1
 71
0
 91
1
 92
3
 72
0
 73
1
 93
4
 10
2622.4
 20
2657.6000000000004
 10
2631.2000000000003
 20
2657.6000000000004
 10
2631.2000000000003
 20
2464.0
 10
2622.4
 20
2464.0
 97
0
 75
1
 76
1
 98
0
  0
LWPOLYLINE
  5
215
330
17
100
AcDbEntity
  8
WALL
100
AcDbPolyline
 90
4
 70
1
 10
220.00000000000003
 20
2613.6000000000004
 10
299.20000000000005
 20
2613.6000000000004
 10
299.20000000000005
 20
2472.8
 10
220.00000000000003
 20
2472.8
  0
HATCH
  5
216
330
17
100
AcDbEntity
  8
WALL
100
AcDbHatch
 10
0.0
 20
0.0
 30
0.0
210
0.0
220
0.0
230
1.0
  2
SOLID
 70
1
 71
0
 91
1
 92
3
 72
0
 73
1
 93
4
 10
220.00000000000003
 20
2613.6000000000004
 10
299.20000000000005
 20
2613.6000000000004
 10
299.20000000000005
 20
2472.8
 10
220.00000000000003
 20
2472.8
 97
0
 75
1
 76
1
 98
0
  0
LWPOLYLINE
  5
217
330
17
100
AcDbEntity
  8
WALL
100
AcDbPolyline
 90
4
 70
1
 10
2543.2000000000003
 20
2604.8
 10
2552.0
 20
2604.8
 10
2552.0
 20
2428.8
 10
2543.2000000000003
 20
2428.8
  0
HATCH
  5
218
330
17
100
AcDbEntity
  8
WALL
100
AcDbHatch
 10
0.0
 20
0.0
 30
0.0
210
0.0
220
0.0
230
1.0
  2
SOLID
 70
1
 71
0
 91
1
 92
3
 72
0
 73
1
 93
4
 10
2543.2000000000003
 20
2604.8
 10
2552.0
 20
2604.8
 10
2552.0
 20
2428.8
 10
2543.2000000000003
 20
2428.8
 97
0
 75
1
 76
1
 98
0
  0
LWPOLYLINE
  5
219
330
17
100
AcDbEntity
  8
WALL
100
AcDbPolyline
 90
4
 70
1
 10
360.8
 20
2516.8
 10
378.40000000000003
 20
2516.8
 10
378.40000000000003
 20
2402.4
 10
360.8
 20
2402.4
  0
HATCH
  5
21A
330
17
100
AcDbEntity
  8
WALL
100
AcDbHatch
 10
0.0
 20
0.0
 30
0.0
210
0.0
220
0.0
230
1.0
  2
SOLID
 70
1
 71
0
 91
1
 92
3
 72
0
 73
1
 93
4
 10
360.8
 20
2516.8
 10
378.40000000000003
 20
2516.8
 10
378.40000000000003
 20
2402.4
 10
360.8
 20
2402.4
 97
0
 75
1
 76
1
 98
0
  0
LWPOLYLINE
  5
21B
330
17
100
AcDbEntity
  8
WALL
100
AcDbPolyline
 90
4
 70
1
 10
2578.4
 20
2472.8
 10
2587.2000000000003
 20
2472.8
 10
2587.2000000000003
 20
2367.2000000000003
 10
2578.4
 20
2367.2000000000003
  0
HATCH
  5
21C
330
17
100
AcDbEntity
  8
WALL
100
AcDbHatch
 10
0.0
 20
0.0
 30
0.0
210
0.0
220
0.0
230
1.0
  2
SOLID
 70
1
 71
0
 91
1
 92
3
 72
0
 73
1
 93
4
 10
2578.4
 20
2472.8
 10
2587.2000000000003
 20
2472.8
 10
2587.2000000000003
 20
2367.2000000000003
 10
2578.4
 20
2367.2000000000003
 97
0
 75
1
 76
1
 98
0
  0
LWPOLYLINE
  5
21D
330
17
100
AcDbEntity
  8
WALL
100
AcDbPolyline
 90
4
 70
1
 10
2622.4
 20
2411.2000000000003
 10
2631.2000000000003
 20
2411.2000000000003
 10
2631.2000000000003
 20
2235.2000000000003
 10
2622.4
 20
2235.2000000000003
  0
HATCH
  5
21E
330
17
100
AcDbEntity
  8
WALL
100
AcDbHatch
 10
0.0
 20
0.0
 30
0.0
210
0.0
220
0.0
230
1.0
  2
SOLID
 70
1
 71
0
 91
1
 92
3
 72
0
 73
1
 93
4
 10
2622.4
 20
2411.2000000000003
 10
2631.2000000000003
 20
2411.2000000000003
 10
2631.2000000000003
 20
2235.2000000000003
 10
2622.4
 20
2235.2000000000003
 97
0
 75
1
 76
1
 98
0
  0
LWPOLYLINE
  5
21F
330
17
100
AcDbEntity
  8
WALL
100
AcDbPolyline
 90
4
 70
1
 10
6142.400000000001
 20
2402.4
 10
6160.000000000001
 20
2402.4
 10
6160.000000000001
 20
2288.0
 10
6142.400000000001
 20
2288.0
  0
HATCH
  5
220
330
17
100
AcDbEntity
  8
WALL
100
AcDbHatch
 10
0.0
 20
0.0
 30
0.0
210
0.0
220
0.0
230
1.0
  2
SOLID
 70
1
 71
0
 91
1
 92
3
 72
0
 73
1
 93
4
 10
6142.400000000001
 20
2402.4
 10
6160.000000000001
 20
2402.4
 10
6160.000000000001
 20
2288.0
 10
6142.400000000001
 20
2288.0
 97
0
 75
1
 76
1
 98
0
  0
LWPOLYLINE
  5
221
330
17
100
AcDbEntity
  8
WALL
100
AcDbPolyline
 90
4
 70
1
 10
8976.0
 20
2402.4
 10
9046.400000000001
 20
2402.4
 10
9046.400000000001
 20
2226.4
 10
8976.0
 20
2226.4
  0
HATCH
  5
222
330
17
100
AcDbEntity
  8
WALL
100
AcDbHatch
 10
0.0
 20
0.0
 30
0.0
210
0.0
220
0.0
230
1.0
  2
SOLID
 70
1
 71
0
 91
1
 92
3
 72
0
 73
1
 93
4
 10
8976.0
 20
2402.4
 10
9046.400000000001
 20
2402.4
 10
9046.400000000001
 20
2226.4
 10
8976.0
 20
2226.4
 97
0
 75
1
 76
1
 98
0
  0
LWPOLYLINE
  5
223
330
17
100
AcDbEntity
  8
WALL
100
AcDbPolyline
 90
4
 70
1
 10
704.0
 20
2358.4
 10
739.2
 20
2358.4
 10
739.2
 20
1399.2
 10
704.0
 20
1399.2
  0
HATCH
  5
224
330
17
100
AcDbEntity
  8
WALL
100
AcDbHatch
 10
0.0
 20
0.0
 30
0.0
210
0.0
220
0.0
230
1.0
  2
SOLID
 70
1
 71
0
 91
1
 92
3
 72
0
 73
1
 93
4
 10
704.0
 20
2358.4
 10
739.2
 20
2358.4
 10
739.2
 20
1399.2
 10
704.0
 20
1399.2
 97
0
 75
1
 76
1
 98
0
  0
LWPOLYLINE
  5
225
330
17
100
AcDbEntity
  8
WALL
100
AcDbPolyline
 90
4
 70
1
 10
1064.8000000000002
 20
2323.2000000000003
 10
1073.6000000000001
 20
2323.2000000000003
 10
1073.6000000000001
 20
2129.6000000000004
 10
1064.8000000000002
 20
2129.6000000000004
  0
HATCH
  5
226
330
17
100
AcDbEntity
  8
WALL
100
AcDbHatch
 10
0.0
 20
0.0
 30
0.0
210
0.0
220
0.0
230
1.0
  2
SOLID
 70
1
 71
0
 91
1
 92
3
 72
0
 73
1
 93
4
 10
1064.8000000000002
 20
2323.2000000000003
 10
1073.6000000000001
 20
2323.2000000000003
 10
1073.6000000000001
 20
2129.6000000000004
 10
1064.8000000000002
 20
2129.6000000000004
 97
0
 75
1
 76
1
 98
0
  0
LWPOLYLINE
  5
227
330
17
100
AcDbEntity
  8
WALL
100
AcDbPolyline
 90
4
 70
1
 10
6036.8
 20
2305.6000000000004
 10
6045.6
 20
2305.6000000000004
 10
6045.6
 20
2200.0
 10
6036.8
 20
2200.0
  0
HATCH
  5
228
330
17
100
AcDbEntity
  8
WALL
100
AcDbHatch
 10
0.0
 20
0.0
 30
0.0
210
0.0
220
0.0
230
1.0
  2
SOLID
 70
1
 71
0
 91
1
 92
3
 72
0
 73
1
 93
4
 10
6036.8
 20
2305.6000000000004
 10
6045.6
 20
2305.6000000000004
 10
6045.6
 20
2200.0
 10
6036.8
 20
2200.0
 97
0
 75
1
 76
1
 98
0
  0
LWPOLYLINE
  5
229
330
17
100
AcDbEntity
  8
WALL
100
AcDbPolyline
 90
4
 70
1
 10
6424.000000000001
 20
2182.4
 10
6494.400000000001
 20
2182.4
 10
6494.400000000001
 20
2024.0000000000002
 10
6424.000000000001
 20
2024.0000000000002
  0
HATCH
  5
22A
330
17
100
AcDbEntity
  8
WALL
100
AcDbHatch
 10
0.0
 20
0.0
 30
0.0
210
0.0
220
0.0
230
1.0
  2
SOLID
 70
1
 71
0
 91
1
 92
3
 72
0
 73
1
 93
4
 10
6424.000000000001
 20
2182.4
 10
6494.400000000001
 20
2182.4
 10
6494.400000000001
 20
2024.0000000000002
 10
6424.000000000001
 20
2024.0000000000002
 97
0
 75
1
 76
1
 98
0
  0
LWPOLYLINE
  5
22B
330
17
100
AcDbEntity
  8
WALL
100
AcDbPolyline
 90
4
 70
1
 10
6432.8
 20
1971.2000000000003
 10
6441.6
 20
1971.2000000000003
 10
6441.6
 20
1830.4
 10
6432.8
 20
1830.4
  0
HATCH
  5
22C
330
17
100
AcDbEntity
  8
WALL
100
AcDbHatch
 10
0.0
 20
0.0
 30
0.0
210
0.0
220
0.0
230
1.0
  2
SOLID
 70
1
 71
0
 91
1
 92
3
 72
0
 73
1
 93
4
 10
6432.8
 20
1971.2000000000003
 10
6441.6
 20
1971.2000000000003
 10
6441.6
 20
1830.4
 10
6432.8
 20
1830.4
 97
0
 75
1
 76
1
 98
0
  0
LWPOLYLINE
  5
22D
330
17
100
AcDbEntity
  8
WALL
100
AcDbPolyline
 90
4
 70
1
 10
6424.000000000001
 20
1795.2
 10
6503.200000000001
 20
1795.2
 10
6503.200000000001
 20
1460.8000000000002
 10
6424.000000000001
 20
1460.8000000000002
  0
HATCH
  5
22E
330
17
100
AcDbEntity
  8
WALL
100
AcDbHatch
 10
0.0
 20
0.0
 30
0.0
210
0.0
220
0.0
230
1.0
  2
SOLID
 70
1
 71
0
 91
1
 92
3
 72
0
 73
1
 93
4
 10
6424.000000000001
 20
1795.2
 10
6503.200000000001
 20
1795.2
 10
6503.200000000001
 20
1460.8000000000002
 10
6424.000000000001
 20
1460.8000000000002
 97
0
 75
1
 76
1
 98
0
  0
LWPOLYLINE
  5
22F
330
17
100
AcDbEntity
  8
WALL
100
AcDbPolyline
 90
4
 70
1
 10
8571.2
 20
1663.2
 10
8606.400000000001
 20
1663.2
 10
8606.400000000001
 20
968.0000000000001
 10
8571.2
 20
968.0000000000001
  0
HATCH
  5
230
330
17
100
AcDbEntity
  8
WALL
100
AcDbHatch
 10
0.0
 20
0.0
 30
0.0
210
0.0
220
0.0
230
1.0
  2
SOLID
 70
1
 71
0
 91
1
 92
3
 72
0
 73
1
 93
4
 10
8571.2
 20
1663.2
 10
8606.400000000001
 20
1663.2
 10
8606.400000000001
 20
968.0000000000001
 10
8571.2
 20
968.0000000000001
 97
0
 75
1
 76
1
 98
0
  0
LWPOLYLINE
  5
231
330
17
100
AcDbEntity
  8
WALL
100
AcDbPolyline
 90
4
 70
1
 10
8703.2
 20
1540.0000000000002
 10
8712.0
 20
1540.0000000000002
 10
8712.0
 20
1416.8000000000002
 10
8703.2
 20
1416.8000000000002
  0
HATCH
  5
232
330
17
100
AcDbEntity
  8
WALL
100
AcDbHatch
 10
0.0
 20
0.0
 30
0.0
210
0.0
220
0.0
230
1.0
  2
SOLID
 70
1
 71
0
 91
1
 92
3
 72
0
 73
1
 93
4
 10
8703.2
 20
1540.0000000000002
 10
8712.0
 20
1540.0000000000002
 10
8712.0
 20
1416.8000000000002
 10
8703.2
 20
1416.8000000000002
 97
0
 75
1
 76
1
 98
0
  0
LWPOLYLINE
  5
233
330
17
100
AcDbEntity
  8
WALL
100
AcDbPolyline
 90
4
 70
1
 10
193.60000000000002
 20
1522.4
 10
264.0
 20
1522.4
 10
264.0
 20
1381.6000000000001
 10
193.60000000000002
 20
1381.6000000000001
  0
HATCH
  5
234
330
17
100
AcDbEntity
  8
WALL
100
AcDbHatch
 10
0.0
 20
0.0
 30
0.0
210
0.0
220
0.0
230
1.0
  2
SOLID
 70
1
 71
0
 91
1
 92
3
 72
0
 73
1
 93
4
 10
193.60000000000002
 20
1522.4
 10
264.0
 20
1522.4
 10
264.0
 20
1381.6000000000001
 10
193.60000000000002
 20
1381.6000000000001
 97
0
 75
1
 76
1
 98
0
  0
LWPOLYLINE
  5
235
330
17
100
AcDbEntity
  8
WALL
100
AcDbPolyline
 90
4
 70
1
 10
6424.000000000001
 20
1460.8000000000002
 10
6494.400000000001
 20
1460.8000000000002
 10
6494.400000000001
 20
1179.2
 10
6424.000000000001
 20
1179.2
  0
HATCH
  5
236
330
17
100
AcDbEntity
  8
WALL
100
AcDbHatch
 10
0.0
 20
0.0
 30
0.0
210
0.0
220
0.0
230
1.0
  2
SOLID
 70
1
 71
0
 91
1
 92
3
 72
0
 73
1
 93
4
 10
6424.000000000001
 20
1460.8000000000002
 10
6494.400000000001
 20
1460.8000000000002
 10
6494.400000000001
 20
1179.2
 10
6424.000000000001
 20
1179.2
 97
0
 75
1
 76
1
 98
0
  0
LWPOLYLINE
  5
237
330
17
100
AcDbEntity
  8
WALL
100
AcDbPolyline
 90
4
 70
1
 10
9064.0
 20
1460.8000000000002
 10
9081.6
 20
1460.8000000000002
 10
9081.6
 20
1337.6000000000001
 10
9064.0
 20
1337.6000000000001
  0
HATCH
  5
238
330
17
100
AcDbEntity
  8
WALL
100
AcDbHatch
 10
0.0
 20
0.0
 30
0.0
210
0.0
220
0.0
230
1.0
  2
SOLID
 70
1
 71
0
 91
1
 92
3
 72
0
 73
1
 93
4
 10
9064.0
 20
1460.8000000000002
 10
9081.6
 20
1460.8000000000002
 10
9081.6
 20
1337.6000000000001
 10
9064.0
 20
1337.6000000000001
 97
0
 75
1
 76
1
 98
0
  0
LWPOLYLINE
  5
239
330
17
100
AcDbEntity
  8
WALL
100
AcDbPolyline
 90
4
 70
1
 10
176.0
 20
1232.0
 10
246.40000000000003
 20
1232.0
 10
246.40000000000003
 20
915.2
 10
176.0
 20
915.2
  0
HATCH
  5
23A
330
17
100
AcDbEntity
  8
WALL
100
AcDbHatch
 10
0.0
 20
0.0
 30
0.0
210
0.0
220
0.0
230
1.0
  2
SOLID
 70
1
 71
0
 91
1
 92
3
 72
0
 73
1
 93
4
 10
176.0
 20
1232.0
 10
246.40000000000003
 20
1232.0
 10
246.40000000000003
 20
915.2
 10
176.0
 20
915.2
 97
0
 75
1
 76
1
 98
0
  0
LWPOLYLINE
  5
23B
330
17
100
AcDbEntity
  8
WALL
100
AcDbPolyline
 90
4
 70
1
 10
2508.0
 20
1161.6000000000001
 10
2516.8
 20
1161.6000000000001
 10
2516.8
 20
1056.0
 10
2508.0
 20
1056.0
  0
HATCH
  5
23C
330
17
100
AcDbEntity
  8
WALL
100
AcDbHatch
 10
0.0
 20
0.0
 30
0.0
210
0.0
220
0.0
230
1.0
  2
SOLID
 70
1
 71
0
 91
1
 92
3
 72
0
 73
1
 93
4
 10
2508.0
 20
1161.6000000000001
 10
2516.8
 20
1161.6000000000001
 10
2516.8
 20
1056.0
 10
2508.0
 20
1056.0
 97
0
 75
1
 76
1
 98
0
  0
LWPOLYLINE
  5
23D
330
17
100
AcDbEntity
  8
WALL
100
AcDbPolyline
 90
4
 70
1
 10
6459.200000000001
 20
1126.4
 10
6494.400000000001
 20
1126.4
 10
6494.400000000001
 20
985.6000000000001
 10
6459.200000000001
 20
985.6000000000001
  0
HATCH
  5
23E
330
17
100
AcDbEntity
  8
WALL
100
AcDbHatch
 10
0.0
 20
0.0
 30
0.0
210
0.0
220
0.0
230
1.0
  2
SOLID
 70
1
 71
0
 91
1
 92
3
 72
0
 73
1
 93
4
 10
6459.200000000001
 20
1126.4
 10
6494.400000000001
 20
1126.4
 10
6494.400000000001
 20
985.6000000000001
 10
6459.200000000001
 20
985.6000000000001
 97
0
 75
1
 76
1
 98
0
  0
LWPOLYLINE
  5
23F
330
17
100
AcDbEntity
  8
WALL
100
AcDbPolyline
 90
4
 70
1
 10
2499.2000000000003
 20
1038.4
 10
2534.4
 20
1038.4
 10
2534.4
 20
897.6
 10
2499.2000000000003
 20
897.6
  0
HATCH
  5
240
330
17
100
AcDbEntity
  8
WALL
100
AcDbHatch
 10
0.0
 20
0.0
 30
0.0
210
0.0
220
0.0
230
1.0
  2
SOLID
 70
1
 71
0
 91
1
 92
3
 72
0
 73
1
 93
4
 10
2499.2000000000003
 20
1038.4
 10
2534.4
 20
1038.4
 10
2534.4
 20
897.6
 10
2499.2000000000003
 20
897.6
 97
0
 75
1
 76
1
 98
0
  0
LWPOLYLINE
  5
241
330
17
100
AcDbEntity
  8
WALL
100
AcDbPolyline
 90
4
 70
1
 10
2560.8
 20
1003.2
 10
2569.6000000000004
 20
1003.2
 10
2569.6000000000004
 20
897.6
 10
2560.8
 20
897.6
  0
HATCH
  5
242
330
17
100
AcDbEntity
  8
WALL
100
AcDbHatch
 10
0.0
 20
0.0
 30
0.0
210
0.0
220
0.0
230
1.0
  2
SOLID
 70
1
 71
0
 91
1
 92
3
 72
0
 73
1
 93
4
 10
2560.8
 20
1003.2
 10
2569.6000000000004
 20
1003.2
 10
2569.6000000000004
 20
897.6
 10
2560.8
 20
897.6
 97
0
 75
1
 76
1
 98
0
  0
LWPOLYLINE
  5
243
330
17
100
AcDbEntity
  8
WALL
100
AcDbPolyline
 90
4
 70
1
 10
4259.200000000001
 20
941.6
 10
4303.200000000001
 20
941.6
 10
4303.200000000001
 20
800.8000000000001
 10
4259.200000000001
 20
800.8000000000001
  0
HATCH
  5
244
330
17
100
AcDbEntity
  8
WALL
100
AcDbHatch
 10
0.0
 20
0.0
 30
0.0
210
0.0
220
0.0
230
1.0
  2
SOLID
 70
1
 71
0
 91
1
 92
3
 72
0
 73
1
 93
4
 10
4259.200000000001
 20
941.6
 10
4303.200000000001
 20
941.6
 10
4303.200000000001
 20
800.8000000000001
 10
4259.200000000001
 20
800.8000000000001
 97
0
 75
1
 76
1
 98
0
  0
LWPOLYLINE
  5
245
330
17
100
AcDbEntity
  8
WALL
100
AcDbPolyline
 90
4
 70
1
 10
9046.400000000001
 20
950.4000000000001
 10
9081.6
 20
950.4000000000001
 10
9081.6
 20
668.8000000000001
 10
9046.400000000001
 20
668.8000000000001
  0
HATCH
  5
246
330
17
100
AcDbEntity
  8
WALL
100
AcDbHatch
 10
0.0
 20
0.0
 30
0.0
210
0.0
220
0.0
230
1.0
  2
SOLID
 70
1
 71
0
 91
1
 92
3
 72
0
 73
1
 93
4
 10
9046.400000000001
 20
950.4000000000001
 10
9081.6
 20
950.4000000000001
 10
9081.6
 20
668.8000000000001
 10
9046.400000000001
 20
668.8000000000001
 97
0
 75
1
 76
1
 98
0
  0
LWPOLYLINE
  5
247
330
17
100
AcDbEntity
  8
WALL
100
AcDbPolyline
 90
4
 70
1
 10
607.2
 20
888.8000000000001
 10
642.4000000000001
 20
888.8000000000001
 10
642.4000000000001
 20
783.2
 10
607.2
 20
783.2
  0
HATCH
  5
248
330
17
100
AcDbEntity
  8
WALL
100
AcDbHatch
 10
0.0
 20
0.0
 30
0.0
210
0.0
220
0.0
230
1.0
  2
SOLID
 70
1
 71
0
 91
1
 92
3
 72
0
 73
1
 93
4
 10
607.2
 20
888.8000000000001
 10
642.4000000000001
 20
888.8000000000001
 10
642.4000000000001
 20
783.2
 10
607.2
 20
783.2
 97
0
 75
1
 76
1
 98
0
  0
LWPOLYLINE
  5
249
330
17
100
AcDbEntity
  8
WALL
100
AcDbPolyline
 90
4
 70
1
 10
3291.2000000000003
 20
730.4000000000001
 10
3308.8
 20
730.4000000000001
 10
3308.8
 20
589.6
 10
3291.2000000000003
 20
589.6
  0
HATCH
  5
24A
330
17
100
AcDbEntity
  8
WALL
100
AcDbHatch
 10
0.0
 20
0.0
 30
0.0
210
0.0
220
0.0
230
1.0
  2
SOLID
 70
1
 71
0
 91
1
 92
3
 72
0
 73
1
 93
4
 10
3291.2000000000003
 20
730.4000000000001
 10
3308.8
 20
730.4000000000001
 10
3308.8
 20
589.6
 10
3291.2000000000003
 20
589.6
 97
0
 75
1
 76
1
 98
0
  0
LWPOLYLINE
  5
24B
330
17
100
AcDbEntity
  8
WALL
100
AcDbPolyline
 90
4
 70
1
 10
3344.0000000000005
 20
721.6
 10
3396.8
 20
721.6
 10
3396.8
 20
536.8000000000001
 10
3344.0000000000005
 20
536.8000000000001
  0
HATCH
  5
24C
330
17
100
AcDbEntity
  8
WALL
100
AcDbHatch
 10
0.0
 20
0.0
 30
0.0
210
0.0
220
0.0
230
1.0
  2
SOLID
 70
1
 71
0
 91
1
 92
3
 72
0
 73
1
 93
4
 10
3344.0000000000005
 20
721.6
 10
3396.8
 20
721.6
 10
3396.8
 20
536.8000000000001
 10
3344.0000000000005
 20
536.8000000000001
 97
0
 75
1
 76
1
 98
0
  0
LWPOLYLINE
  5
24D
330
17
100
AcDbEntity
  8
WALL
100
AcDbPolyline
 90
4
 70
1
 10
3405.6000000000004
 20
712.8000000000001
 10
3449.6000000000004
 20
712.8000000000001
 10
3449.6000000000004
 20
536.8000000000001
 10
3405.6000000000004
 20
536.8000000000001
  0
HATCH
  5
24E
330
17
100
AcDbEntity
  8
WALL
100
AcDbHatch
 10
0.0
 20
0.0
 30
0.0
210
0.0
220
0.0
230
1.0
  2
SOLID
 70
1
 71
0
 91
1
 92
3
 72
0
 73
1
 93
4
 10
3405.6000000000004
 20
712.8000000000001
 10
3449.6000000000004
 20
712.8000000000001
 10
3449.6000000000004
 20
536.8000000000001
 10
3405.6000000000004
 20
536.8000000000001
 97
0
 75
1
 76
1
 98
0
  0
LWPOLYLINE
  5
24F
330
17
100
AcDbEntity
  8
WALL
100
AcDbPolyline
 90
4
 70
1
 10
4065.6000000000004
 20
712.8000000000001
 10
4083.2000000000003
 20
712.8000000000001
 10
4083.2000000000003
 20
589.6
 10
4065.6000000000004
 20
589.6
  0
HATCH
  5
250
330
17
100
AcDbEntity
  8
WALL
100
AcDbHatch
 10
0.0
 20
0.0
 30
0.0
210
0.0
220
0.0
230
1.0
  2
SOLID
 70
1
 71
0
 91
1
 92
3
 72
0
 73
1
 93
4
 10
4065.6000000000004
 20
712.8000000000001
 10
4083.2000000000003
 20
712.8000000000001
 10
4083.2000000000003
 20
589.6
 10
4065.6000000000004
 20
589.6
 97
0
 75
1
 76
1
 98
0
  0
LWPOLYLINE
  5
251
330
17
100
AcDbEntity
  8
WALL
100
AcDbPolyline
 90
4
 70
1
 10
2411.2000000000003
 20
642.4000000000001
 10
2472.8
 20
642.4000000000001
 10
2472.8
 20
466.40000000000003
 10
2411.2000000000003
 20
466.40000000000003
  0
HATCH
  5
252
330
17
100
AcDbEntity
  8
WALL
100
AcDbHatch
 10
0.0
 20
0.0
 30
0.0
210
0.0
220
0.0
230
1.0
  2
SOLID
 70
1
 71
0
 91
1
 92
3
 72
0
 73
1
 93
4
 10
2411.2000000000003
 20
642.4000000000001
 10
2472.8
 20
642.4000000000001
 10
2472.8
 20
466.40000000000003
 10
2411.2000000000003
 20
466.40000000000003
 97
0
 75
1
 76
1
 98
0
  0
LWPOLYLINE
  5
253
330
17
100
AcDbEntity
  8
WALL
100
AcDbPolyline
 90
4
 70
1
 10
3599.2000000000003
 20
642.4000000000001
 10
3608.0000000000005
 20
642.4000000000001
 10
3608.0000000000005
 20
536.8000000000001
 10
3599.2000000000003
 20
536.8000000000001
  0
HATCH
  5
254
330
17
100
AcDbEntity
  8
WALL
100
AcDbHatch
 10
0.0
 20
0.0
 30
0.0
210
0.0
220
0.0
230
1.0
  2
SOLID
 70
1
 71
0
 91
1
 92
3
 72
0
 73
1
 93
4
 10
3599.2000000000003
 20
642.4000000000001
 10
3608.0000000000005
 20
642.4000000000001
 10
3608.0000000000005
 20
536.8000000000001
 10
3599.2000000000003
 20
536.8000000000001
 97
0
 75
1
 76
1
 98
0
  0
LWPOLYLINE
  5
255
330
17
100
AcDbEntity
  8
WALL
100
AcDbPolyline
 90
4
 70
1
 10
176.0
 20
580.8000000000001
 10
211.20000000000002
 20
580.8000000000001
 10
211.20000000000002
 20
316.8
 10
176.0
 20
316.8
  0
HATCH
  5
256
330
17
100
AcDbEntity
  8
WALL
100
AcDbHatch
 10
0.0
 20
0.0
 30
0.0
210
0.0
220
0.0
230
1.0
  2
SOLID
 70
1
 71
0
 91
1
 92
3
 72
0
 73
1
 93
4
 10
176.0
 20
580.8000000000001
 10
211.20000000000002
 20
580.8000000000001
 10
211.20000000000002
 20
316.8
 10
176.0
 20
316.8
 97
0
 75
1
 76
1
 98
0
  0
LWPOLYLINE
  5
257
330
17
100
AcDbEntity
  8
WALL
100
AcDbPolyline
 90
4
 70
1
 10
959.2
 20
554.4000000000001
 10
985.6000000000001
 20
554.4000000000001
 10
985.6000000000001
 20
431.20000000000005
 10
959.2
 20
431.20000000000005
  0
HATCH
  5
258
330
17
100
AcDbEntity
  8
WALL
100
AcDbHatch
 10
0.0
 20
0.0
 30
0.0
210
0.0
220
0.0
230
1.0
  2
SOLID
 70
1
 71
0
 91
1
 92
3
 72
0
 73
1
 93
4
 10
959.2
 20
554.4000000000001
 10
985.6000000000001
 20
554.4000000000001
 10
985.6000000000001
 20
431.20000000000005
 10
959.2
 20
431.20000000000005
 97
0
 75
1
 76
1
 98
0
  0
LWPOLYLINE
  5
259
330
17
100
AcDbEntity
  8
WALL
100
AcDbPolyline
 90
4
 70
1
 10
1003.2
 20
501.6
 10
1029.6000000000001
 20
501.6
 10
1029.6000000000001
 20
308.0
 10
1003.2
 20
308.0
  0
HATCH
  5
25A
330
17
100
AcDbEntity
  8
WALL
100
AcDbHatch
 10
0.0
 20
0.0
 30
0.0
210
0.0
220
0.0
230
1.0
  2
SOLID
 70
1
 71
0
 91
1
 92
3
 72
0
 73
1
 93
4
 10
1003.2
 20
501.6
 10
1029.6000000000001
 20
501.6
 10
1029.6000000000001
 20
308.0
 10
1003.2
 20
308.0
 97
0
 75
1
 76
1
 98
0
  0
LWPOLYLINE
  5
25B
330
17
100
AcDbEntity
  8
WALL
100
AcDbPolyline
 90
4
 70
1
 10
3308.8
 20
501.6
 10
3361.6000000000004
 20
501.6
 10
3361.6000000000004
 20
316.8
 10
3308.8
 20
316.8
  0
HATCH
  5
25C
330
17
100
AcDbEntity
  8
WALL
100
AcDbHatch
 10
0.0
 20
0.0
 30
0.0
210
0.0
220
0.0
230
1.0
  2
SOLID
 70
1
 71
0
 91
1
 92
3
 72
0
 73
1
 93
4
 10
3308.8
 20
501.6
 10
3361.6000000000004
 20
501.6
 10
3361.6000000000004
 20
316.8
 10
3308.8
 20
316.8
 97
0
 75
1
 76
1
 98
0
  0
LWPOLYLINE
  5
25D
330
17
100
AcDbEntity
  8
WALL
100
AcDbPolyline
 90
4
 70
1
 10
3660.8
 20
501.6
 10
3669.6000000000004
 20
501.6
 10
3669.6000000000004
 20
369.6
 10
3660.8
 20
369.6
  0
HATCH
  5
25E
330
17
100
AcDbEntity
  8
WALL
100
AcDbHatch
 10
0.0
 20
0.0
 30
0.0
210
0.0
220
0.0
230
1.0
  2
SOLID
 70
1
 71
0
 91
1
 92
3
 72
0
 73
1
 93
4
 10
3660.8
 20
501.6
 10
3669.6000000000004
 20
501.6
 10
3669.6000000000004
 20
369.6
 10
3660.8
 20
369.6
 97
0
 75
1
 76
1
 98
0
  0
LWPOLYLINE
  5
25F
330
17
100
AcDbEntity
  8
WALL
100
AcDbPolyline
 90
4
 70
1
 10
3731.2000000000003
 20
501.6
 10
3766.4
 20
501.6
 10
3766.4
 20
378.40000000000003
 10
3731.2000000000003
 20
378.40000000000003
  0
HATCH
  5
260
330
17
100
AcDbEntity
  8
WALL
100
AcDbHatch
 10
0.0
 20
0.0
 30
0.0
210
0.0
220
0.0
230
1.0
  2
SOLID
 70
1
 71
0
 91
1
 92
3
 72
0
 73
1
 93
4
 10
3731.2000000000003
 20
501.6
 10
3766.4
 20
501.6
 10
3766.4
 20
378.40000000000003
 10
3731.2000000000003
 20
378.40000000000003
 97
0
 75
1
 76
1
 98
0
  0
LWPOLYLINE
  5
261
330
17
100
AcDbEntity
  8
WALL
100
AcDbPolyline
 90
4
 70
1
 10
3810.4
 20
492.80000000000007
 10
3819.2000000000003
 20
492.80000000000007
 10
3819.2000000000003
 20
325.6
 10
3810.4
 20
325.6
  0
HATCH
  5
262
330
17
100
AcDbEntity
  8
WALL
100
AcDbHatch
 10
0.0
 20
0.0
 30
0.0
210
0.0
220
0.0
230
1.0
  2
SOLID
 70
1
 71
0
 91
1
 92
3
 72
0
 73
1
 93
4
 10
3810.4
 20
492.80000000000007
 10
3819.2000000000003
 20
492.80000000000007
 10
3819.2000000000003
 20
325.6
 10
3810.4
 20
325.6
 97
0
 75
1
 76
1
 98
0
  0
LWPOLYLINE
  5
263
330
17
100
AcDbEntity
  8
WALL
100
AcDbPolyline
 90
4
 70
1
 10
9099.2
 20
492.80000000000007
 10
9108.0
 20
492.80000000000007
 10
9108.0
 20
387.20000000000005
 10
9099.2
 20
387.20000000000005
  0
HATCH
  5
264
330
17
100
AcDbEntity
  8
WALL
100
AcDbHatch
 10
0.0
 20
0.0
 30
0.0
210
0.0
220
0.0
230
1.0
  2
SOLID
 70
1
 71
0
 91
1
 92
3
 72
0
 73
1
 93
4
 10
9099.2
 20
492.80000000000007
 10
9108.0
 20
492.80000000000007
 10
9108.0
 20
387.20000000000005
 10
9099.2
 20
387.20000000000005
 97
0
 75
1
 76
1
 98
0
  0
LWPOLYLINE
  5
265
330
17
100
AcDbEntity
  8
WALL
100
AcDbPolyline
 90
4
 70
1
 10
1760.0000000000002
 20
475.20000000000005
 10
1795.2
 20
475.20000000000005
 10
1795.2
 20
325.6
 10
1760.0000000000002
 20
325.6
  0
HATCH
  5
266
330
17
100
AcDbEntity
  8
WALL
100
AcDbHatch
 10
0.0
 20
0.0
 30
0.0
210
0.0
220
0.0
230
1.0
  2
SOLID
 70
1
 71
0
 91
1
 92
3
 72
0
 73
1
 93
4
 10
1760.0000000000002
 20
475.20000000000005
 10
1795.2
 20
475.20000000000005
 10
1795.2
 20
325.6
 10
1760.0000000000002
 20
325.6
 97
0
 75
1
 76
1
 98
0
  0
LWPOLYLINE
  5
267
330
17
100
AcDbEntity
  8
WALL
100
AcDbPolyline
 90
4
 70
1
 10
3388.0000000000005
 20
466.40000000000003
 10
3405.6000000000004
 20
466.40000000000003
 10
3405.6000000000004
 20
308.0
 10
3388.0000000000005
 20
308.0
  0
HATCH
  5
268
330
17
100
AcDbEntity
  8
WALL
100
AcDbHatch
 10
0.0
 20
0.0
 30
0.0
210
0.0
220
0.0
230
1.0
  2
SOLID
 70
1
 71
0
 91
1
 92
3
 72
0
 73
1
 93
4
 10
3388.0000000000005
 20
466.40000000000003
 10
3405.6000000000004
 20
466.40000000000003
 10
3405.6000000000004
 20
308.0
 10
3388.0000000000005
 20
308.0
 97
0
 75
1
 76
1
 98
0
  0
LWPOLYLINE
  5
269
330
17
100
AcDbEntity
  8
WALL
100
AcDbPolyline
 90
4
 70
1
 10
2446.4
 20
448.8
 10
2472.8
 20
448.8
 10
2472.8
 20
325.6
 10
2446.4
 20
325.6
  0
HATCH
  5
26A
330
17
100
AcDbEntity
  8
WALL
100
AcDbHatch
 10
0.0
 20
0.0
 30
0.0
210
0.0
220
0.0
230
1.0
  2
SOLID
 70
1
 71
0
 91
1
 92
3
 72
0
 73
1
 93
4
 10
2446.4
 20
448.8
 10
2472.8
 20
448.8
 10
2472.8
 20
325.6
 10
2446.4
 20
325.6
 97
0
 75
1
 76
1
 98
0
  0
LWPOLYLINE
  5
26B
330
17
100
AcDbEntity
  8
WALL
100
AcDbPolyline
 90
4
 70
1
 10
3872.0000000000005
 20
448.8
 10
3880.8
 20
448.8
 10
3880.8
 20
325.6
 10
3872.0000000000005
 20
325.6
  0
HATCH
  5
26C
330
17
100
AcDbEntity
  8
WALL
100
AcDbHatch
 10
0.0
 20
0.0
 30
0.0
210
0.0
220
0.0
230
1.0
  2
SOLID
 70
1
 71
0
 91
1
 92
3
 72
0
 73
1
 93
4
 10
3872.0000000000005
 20
448.8
 10
3880.8
 20
448.8
 10
3880.8
 20
325.6
 10
3872.0000000000005
 20
325.6
 97
0
 75
1
 76
1
 98
0
  0
LWPOLYLINE
  5
26D
330
17
100
AcDbEntity
  8
WALL
100
AcDbPolyline
 90
4
 70
1
 10
1126.4
 20
440.00000000000006
 10
1161.6000000000001
 20
440.00000000000006
 10
1161.6000000000001
 20
308.0
 10
1126.4
 20
308.0
  0
HATCH
  5
26E
330
17
100
AcDbEntity
  8
WALL
100
AcDbHatch
 10
0.0
 20
0.0
 30
0.0
210
0.0
220
0.0
230
1.0
  2
SOLID
 70
1
 71
0
 91
1
 92
3
 72
0
 73
1
 93
4
 10
1126.4
 20
440.00000000000006
 10
1161.6000000000001
 20
440.00000000000006
 10
1161.6000000000001
 20
308.0
 10
1126.4
 20
308.0
 97
0
 75
1
 76
1
 98
0
  0
LWPOLYLINE
  5
26F
330
17
100
AcDbEntity
  8
WALL
100
AcDbPolyline
 90
4
 70
1
 10
1883.2
 20
440.00000000000006
 10
1918.4
 20
440.00000000000006
 10
1918.4
 20
308.0
 10
1883.2
 20
308.0
  0
HATCH
  5
270
330
17
100
AcDbEntity
  8
WALL
100
AcDbHatch
 10
0.0
 20
0.0
 30
0.0
210
0.0
220
0.0
230
1.0
  2
SOLID
 70
1
 71
0
 91
1
 92
3
 72
0
 73
1
 93
4
 10
1883.2
 20
440.00000000000006
 10
1918.4
 20
440.00000000000006
 10
1918.4
 20
308.0
 10
1883.2
 20
308.0
 97
0
 75
1
 76
1
 98
0
  0
LWPOLYLINE
  5
271
330
17
100
AcDbEntity
  8
WALL
100
AcDbPolyline
 90
4
 70
1
 10
2428.8
 20
413.6
 10
2437.6000000000004
 20
413.6
 10
2437.6000000000004
 20
308.0
 10
2428.8
 20
308.0
  0
HATCH
  5
272
330
17
100
AcDbEntity
  8
WALL
100
AcDbHatch
 10
0.0
 20
0.0
 30
0.0
210
0.0
220
0.0
230
1.0
  2
SOLID
 70
1
 71
0
 91
1
 92
3
 72
0
 73
1
 93
4
 10
2428.8
 20
413.6
 10
2437.6000000000004
 20
413.6
 10
2437.6000000000004
 20
308.0
 10
2428.8
 20
308.0
 97
0
 75
1
 76
1
 98
0
  0
LINE
  5
273
330
17
100
AcDbEntity
  8
WINDOW
100
AcDbLine
 10
1267.2
 20
7145.6
 30
0.0
 11
1636.8000000000002
 21
7145.6
 31
0.0
  0
LINE
  5
274
330
17
100
AcDbEntity
  8
WINDOW
100
AcDbLine
 10
1267.2
 20
7116.266666666667
 30
0.0
 11
1636.8000000000002
 21
7116.266666666667
 31
0.0
  0
LINE
  5
275
330
17
100
AcDbEntity
  8
WINDOW
100
AcDbLine
 10
1267.2
 20
7086.933333333334
 30
0.0
 11
1636.8000000000002
 21
7086.933333333334
 31
0.0
  0
LINE
  5
276
330
17
100
AcDbEntity
  8
WINDOW
100
AcDbLine
 10
1267.2
 20
7057.6
 30
0.0
 11
1636.8000000000002
 21
7057.6
 31
0.0
  0
LINE
  5
277
330
17
100
AcDbEntity
  8
WINDOW
100
AcDbLine
 10
1267.2
 20
7145.6
 30
0.0
 11
1267.2
 21
7057.6
 31
0.0
  0
LINE
  5
278
330
17
100
AcDbEntity
  8
WINDOW
100
AcDbLine
 10
1636.8000000000002
 20
7145.6
 30
0.0
 11
1636.8000000000002
 21
7057.6
 31
0.0
  0
LINE
  5
279
330
17
100
AcDbEntity
  8
WINDOW
100
AcDbLine
 10
3564.0000000000005
 20
7022.400000000001
 30
0.0
 11
4822.400000000001
 21
7022.400000000001
 31
0.0
  0
LINE
  5
27A
330
17
100
AcDbEntity
  8
WINDOW
100
AcDbLine
 10
3564.0000000000005
 20
6998.933333333334
 30
0.0
 11
4822.400000000001
 21
6998.933333333334
 31
0.0
  0
LINE
  5
27B
330
17
100
AcDbEntity
  8
WINDOW
100
AcDbLine
 10
3564.0000000000005
 20
6975.466666666667
 30
0.0
 11
4822.400000000001
 21
6975.466666666667
 31
0.0
  0
LINE
  5
27C
330
17
100
AcDbEntity
  8
WINDOW
100
AcDbLine
 10
3564.0000000000005
 20
6952.000000000001
 30
0.0
 11
4822.400000000001
 21
6952.000000000001
 31
0.0
  0
LINE
  5
27D
330
17
100
AcDbEntity
  8
WINDOW
100
AcDbLine
 10
3564.0000000000005
 20
7022.400000000001
 30
0.0
 11
3564.0000000000005
 21
6952.000000000001
 31
0.0
  0
LINE
  5
27E
330
17
100
AcDbEntity
  8
WINDOW
100
AcDbLine
 10
4822.400000000001
 20
7022.400000000001
 30
0.0
 11
4822.400000000001
 21
6952.000000000001
 31
0.0
  0
LINE
  5
27F
330
17
100
AcDbEntity
  8
WINDOW
100
AcDbLine
 10
7198.400000000001
 20
7022.400000000001
 30
0.0
 11
7356.8
 21
7022.400000000001
 31
0.0
  0
LINE
  5
280
330
17
100
AcDbEntity
  8
WINDOW
100
AcDbLine
 10
7198.400000000001
 20
6998.933333333334
 30
0.0
 11
7356.8
 21
6998.933333333334
 31
0.0
  0
LINE
  5
281
330
17
100
AcDbEntity
  8
WINDOW
100
AcDbLine
 10
7198.400000000001
 20
6975.466666666667
 30
0.0
 11
7356.8
 21
6975.466666666667
 31
0.0
  0
LINE
  5
282
330
17
100
AcDbEntity
  8
WINDOW
100
AcDbLine
 10
7198.400000000001
 20
6952.000000000001
 30
0.0
 11
7356.8
 21
6952.000000000001
 31
0.0
  0
LINE
  5
283
330
17
100
AcDbEntity
  8
WINDOW
100
AcDbLine
 10
7198.400000000001
 20
7022.400000000001
 30
0.0
 11
7198.400000000001
 21
6952.000000000001
 31
0.0
  0
LINE
  5
284
330
17
100
AcDbEntity
  8
WINDOW
100
AcDbLine
 10
7356.8
 20
7022.400000000001
 30
0.0
 11
7356.8
 21
6952.000000000001
 31
0.0
  0
LINE
  5
285
330
17
100
AcDbEntity
  8
WINDOW
100
AcDbLine
 10
8430.400000000001
 20
7022.400000000001
 30
0.0
 11
8483.2
 21
7022.400000000001
 31
0.0
  0
LINE
  5
286
330
17
100
AcDbEntity
  8
WINDOW
100
AcDbLine
 10
8430.400000000001
 20
6998.933333333334
 30
0.0
 11
8483.2
 21
6998.933333333334
 31
0.0
  0
LINE
  5
287
330
17
100
AcDbEntity
  8
WINDOW
100
AcDbLine
 10
8430.400000000001
 20
6975.466666666667
 30
0.0
 11
8483.2
 21
6975.466666666667
 31
0.0
  0
LINE
  5
288
330
17
100
AcDbEntity
  8
WINDOW
100
AcDbLine
 10
8430.400000000001
 20
6952.000000000001
 30
0.0
 11
8483.2
 21
6952.000000000001
 31
0.0
  0
LINE
  5
289
330
17
100
AcDbEntity
  8
WINDOW
100
AcDbLine
 10
8430.400000000001
 20
7022.400000000001
 30
0.0
 11
8430.400000000001
 21
6952.000000000001
 31
0.0
  0
LINE
  5
28A
330
17
100
AcDbEntity
  8
WINDOW
100
AcDbLine
 10
8483.2
 20
7022.400000000001
 30
0.0
 11
8483.2
 21
6952.000000000001
 31
0.0
  0
LINE
  5
28B
330
17
100
AcDbEntity
  8
WINDOW
100
AcDbLine
 10
475.20000000000005
 20
6960.8
 30
0.0
 11
651.2
 21
6960.8
 31
0.0
  0
LINE
  5
28C
330
17
100
AcDbEntity
  8
WINDOW
100
AcDbLine
 10
475.20000000000005
 20
6934.400000000001
 30
0.0
 11
651.2
 21
6934.400000000001
 31
0.0
  0
LINE
  5
28D
330
17
100
AcDbEntity
  8
WINDOW
100
AcDbLine
 10
475.20000000000005
 20
6908.000000000001
 30
0.0
 11
651.2
 21
6908.000000000001
 31
0.0
  0
LINE
  5
28E
330
17
100
AcDbEntity
  8
WINDOW
100
AcDbLine
 10
475.20000000000005
 20
6881.6
 30
0.0
 11
651.2
 21
6881.6
 31
0.0
  0
LINE
  5
28F
330
17
100
AcDbEntity
  8
WINDOW
100
AcDbLine
 10
475.20000000000005
 20
6960.8
 30
0.0
 11
475.20000000000005
 21
6881.6
 31
0.0
  0
LINE
  5
290
330
17
100
AcDbEntity
  8
WINDOW
100
AcDbLine
 10
651.2
 20
6960.8
 30
0.0
 11
651.2
 21
6881.6
 31
0.0
  0
LINE
  5
291
330
17
100
AcDbEntity
  8
WINDOW
100
AcDbLine
 10
1566.4
 20
6943.200000000001
 30
0.0
 11
1900.8000000000002
 21
6943.200000000001
 31
0.0
  0
LINE
  5
292
330
17
100
AcDbEntity
  8
WINDOW
100
AcDbLine
 10
1566.4
 20
6922.666666666667
 30
0.0
 11
1900.8000000000002
 21
6922.666666666667
 31
0.0
  0
LINE
  5
293
330
17
100
AcDbEntity
  8
WINDOW
100
AcDbLine
 10
1566.4
 20
6902.133333333334
 30
0.0
 11
1900.8000000000002
 21
6902.133333333334
 31
0.0
  0
LINE
  5
294
330
17
100
AcDbEntity
  8
WINDOW
100
AcDbLine
 10
1566.4
 20
6881.6
 30
0.0
 11
1900.8000000000002
 21
6881.6
 31
0.0
  0
LINE
  5
295
330
17
100
AcDbEntity
  8
WINDOW
100
AcDbLine
 10
1566.4
 20
6943.200000000001
 30
0.0
 11
1566.4
 21
6881.6
 31
0.0
  0
LINE
  5
296
330
17
100
AcDbEntity
  8
WINDOW
100
AcDbLine
 10
1900.8000000000002
 20
6943.200000000001
 30
0.0
 11
1900.8000000000002
 21
6881.6
 31
0.0
  0
LINE
  5
297
330
17
100
AcDbEntity
  8
WINDOW
100
AcDbLine
 10
4338.400000000001
 20
5464.8
 30
0.0
 11
4646.400000000001
 21
5464.8
 31
0.0
  0
LINE
  5
298
330
17
100
AcDbEntity
  8
WINDOW
100
AcDbLine
 10
4338.400000000001
 20
5453.066666666667
 30
0.0
 11
4646.400000000001
 21
5453.066666666667
 31
0.0
  0
LINE
  5
299
330
17
100
AcDbEntity
  8
WINDOW
100
AcDbLine
 10
4338.400000000001
 20
5441.333333333334
 30
0.0
 11
4646.400000000001
 21
5441.333333333334
 31
0.0
  0
LINE
  5
29A
330
17
100
AcDbEntity
  8
WINDOW
100
AcDbLine
 10
4338.400000000001
 20
5429.6
 30
0.0
 11
4646.400000000001
 21
5429.6
 31
0.0
  0
LINE
  5
29B
330
17
100
AcDbEntity
  8
WINDOW
100
AcDbLine
 10
4338.400000000001
 20
5464.8
 30
0.0
 11
4338.400000000001
 21
5429.6
 31
0.0
  0
LINE
  5
29C
330
17
100
AcDbEntity
  8
WINDOW
100
AcDbLine
 10
4646.400000000001
 20
5464.8
 30
0.0
 11
4646.400000000001
 21
5429.6
 31
0.0
  0
LINE
  5
29D
330
17
100
AcDbEntity
  8
WINDOW
100
AcDbLine
 10
4910.400000000001
 20
5456.0
 30
0.0
 11
6256.8
 21
5456.0
 31
0.0
  0
LINE
  5
29E
330
17
100
AcDbEntity
  8
WINDOW
100
AcDbLine
 10
4910.400000000001
 20
5444.266666666666
 30
0.0
 11
6256.8
 21
5444.266666666666
 31
0.0
  0
LINE
  5
29F
330
17
100
AcDbEntity
  8
WINDOW
100
AcDbLine
 10
4910.400000000001
 20
5432.533333333334
 30
0.0
 11
6256.8
 21
5432.533333333334
 31
0.0
  0
LINE
  5
2A0
330
17
100
AcDbEntity
  8
WINDOW
100
AcDbLine
 10
4910.400000000001
 20
5420.8
 30
0.0
 11
6256.8
 21
5420.8
 31
0.0
  0
LINE
  5
2A1
330
17
100
AcDbEntity
  8
WINDOW
100
AcDbLine
 10
4910.400000000001
 20
5456.0
 30
0.0
 11
4910.400000000001
 21
5420.8
 31
0.0
  0
LINE
  5
2A2
330
17
100
AcDbEntity
  8
WINDOW
100
AcDbLine
 10
6256.8
 20
5456.0
 30
0.0
 11
6256.8
 21
5420.8
 31
0.0
  0
LINE
  5
2A3
330
17
100
AcDbEntity
  8
WINDOW
100
AcDbLine
 10
5825.6
 20
4162.400000000001
 30
0.0
 11
6283.200000000001
 21
4162.400000000001
 31
0.0
  0
LINE
  5
2A4
330
17
100
AcDbEntity
  8
WINDOW
100
AcDbLine
 10
5825.6
 20
4141.866666666667
 30
0.0
 11
6283.200000000001
 21
4141.866666666667
 31
0.0
  0
LINE
  5
2A5
330
17
100
AcDbEntity
  8
WINDOW
100
AcDbLine
 10
5825.6
 20
4121.333333333334
 30
0.0
 11
6283.200000000001
 21
4121.333333333334
 31
0.0
  0
LINE
  5
2A6
330
17
100
AcDbEntity
  8
WINDOW
100
AcDbLine
 10
5825.6
 20
4100.8
 30
0.0
 11
6283.200000000001
 21
4100.8
 31
0.0
  0
LINE
  5
2A7
330
17
100
AcDbEntity
  8
WINDOW
100
AcDbLine
 10
5825.6
 20
4162.400000000001
 30
0.0
 11
5825.6
 21
4100.8
 31
0.0
  0
LINE
  5
2A8
330
17
100
AcDbEntity
  8
WINDOW
100
AcDbLine
 10
6283.200000000001
 20
4162.400000000001
 30
0.0
 11
6283.200000000001
 21
4100.8
 31
0.0
  0
LINE
  5
2A9
330
17
100
AcDbEntity
  8
WINDOW
100
AcDbLine
 10
704.0
 20
2481.6000000000004
 30
0.0
 11
704.0
 21
2358.4
 31
0.0
  0
LINE
  5
2AA
330
17
100
AcDbEntity
  8
WINDOW
100
AcDbLine
 10
715.7333333333333
 20
2481.6000000000004
 30
0.0
 11
715.7333333333333
 21
2358.4
 31
0.0
  0
LINE
  5
2AB
330
17
100
AcDbEntity
  8
WINDOW
100
AcDbLine
 10
727.4666666666668
 20
2481.6000000000004
 30
0.0
 11
727.4666666666668
 21
2358.4
 31
0.0
  0
LINE
  5
2AC
330
17
100
AcDbEntity
  8
WINDOW
100
AcDbLine
 10
739.2
 20
2481.6000000000004
 30
0.0
 11
739.2
 21
2358.4
 31
0.0
  0
LINE
  5
2AD
330
17
100
AcDbEntity
  8
WINDOW
100
AcDbLine
 10
704.0
 20
2481.6000000000004
 30
0.0
 11
739.2
 21
2481.6000000000004
 31
0.0
  0
LINE
  5
2AE
330
17
100
AcDbEntity
  8
WINDOW
100
AcDbLine
 10
704.0
 20
2358.4
 30
0.0
 11
739.2
 21
2358.4
 31
0.0
  0
LINE
  5
2AF
330
17
100
AcDbEntity
  8
WINDOW
100
AcDbLine
 10
2569.6000000000004
 20
2525.6000000000004
 30
0.0
 11
2569.6000000000004
 21
2472.8
 31
0.0
  0
LINE
  5
2B0
330
17
100
AcDbEntity
  8
WINDOW
100
AcDbLine
 10
2581.3333333333335
 20
2525.6000000000004
 30
0.0
 11
2581.3333333333335
 21
2472.8
 31
0.0
  0
LINE
  5
2B1
330
17
100
AcDbEntity
  8
WINDOW
100
AcDbLine
 10
2593.066666666667
 20
2525.6000000000004
 30
0.0
 11
2593.066666666667
 21
2472.8
 31
0.0
  0
LINE
  5
2B2
330
17
100
AcDbEntity
  8
WINDOW
100
AcDbLine
 10
2604.8
 20
2525.6000000000004
 30
0.0
 11
2604.8
 21
2472.8
 31
0.0
  0
LINE
  5
2B3
330
17
100
AcDbEntity
  8
WINDOW
100
AcDbLine
 10
2569.6000000000004
 20
2525.6000000000004
 30
0.0
 11
2604.8
 21
2525.6000000000004
 31
0.0
  0
LINE
  5
2B4
330
17
100
AcDbEntity
  8
WINDOW
100
AcDbLine
 10
2569.6000000000004
 20
2472.8
 30
0.0
 11
2604.8
 21
2472.8
 31
0.0
  0
LINE
  5
2B5
330
17
100
AcDbEntity
  8
WINDOW
100
AcDbLine
 10
6424.000000000001
 20
2024.0000000000002
 30
0.0
 11
6424.000000000001
 21
1795.2
 31
0.0
  0
LINE
  5
2B6
330
17
100
AcDbEntity
  8
WINDOW
100
AcDbLine
 10
6450.400000000001
 20
2024.0000000000002
 30
0.0
 11
6450.400000000001
 21
1795.2
 31
0.0
  0
LINE
  5
2B7
330
17
100
AcDbEntity
  8
WINDOW
100
AcDbLine
 10
6476.8
 20
2024.0000000000002
 30
0.0
 11
6476.8
 21
1795.2
 31
0.0
  0
LINE
  5
2B8
330
17
100
AcDbEntity
  8
WINDOW
100
AcDbLine
 10
6503.200000000001
 20
2024.0000000000002
 30
0.0
 11
6503.200000000001
 21
1795.2
 31
0.0
  0
LINE
  5
2B9
330
17
100
AcDbEntity
  8
WINDOW
100
AcDbLine
 10
6424.000000000001
 20
2024.0000000000002
 30
0.0
 11
6503.200000000001
 21
2024.0000000000002
 31
0.0
  0
LINE
  5
2BA
330
17
100
AcDbEntity
  8
WINDOW
100
AcDbLine
 10
6424.000000000001
 20
1795.2
 30
0.0
 11
6503.200000000001
 21
1795.2
 31
0.0
  0
LINE
  5
2BB
330
17
100
AcDbEntity
  8
WINDOW
100
AcDbLine
 10
6424.000000000001
 20
1179.2
 30
0.0
 11
6424.000000000001
 21
1126.4
 31
0.0
  0
LINE
  5
2BC
330
17
100
AcDbEntity
  8
WINDOW
100
AcDbLine
 10
6447.466666666667
 20
1179.2
 30
0.0
 11
6447.466666666667
 21
1126.4
 31
0.0
  0
LINE
  5
2BD
330
17
100
AcDbEntity
  8
WINDOW
100
AcDbLine
 10
6470.933333333334
 20
1179.2
 30
0.0
 11
6470.933333333334
 21
1126.4
 31
0.0
  0
LINE
  5
2BE
330
17
100
AcDbEntity
  8
WINDOW
100
AcDbLine
 10
6494.400000000001
 20
1179.2
 30
0.0
 11
6494.400000000001
 21
1126.4
 31
0.0
  0
LINE
  5
2BF
330
17
100
AcDbEntity
  8
WINDOW
100
AcDbLine
 10
6424.000000000001
 20
1179.2
 30
0.0
 11
6494.400000000001
 21
1179.2
 31
0.0
  0
LINE
  5
2C0
330
17
100
AcDbEntity
  8
WINDOW
100
AcDbLine
 10
6424.000000000001
 20
1126.4
 30
0.0
 11
6494.400000000001
 21
1126.4
 31
0.0
  0
LINE
  5
2C1
330
17
100
AcDbEntity
  8
WINDOW
100
AcDbLine
 10
8307.2
 20
4488.0
 30
0.0
 11
8307.2
 21
4435.200000000001
 31
0.0
  0
LINE
  5
2C2
330
17
100
AcDbEntity
  8
WINDOW
100
AcDbLine
 10
8324.800000000001
 20
4488.0
 30
0.0
 11
8324.800000000001
 21
4435.200000000001
 31
0.0
  0
LINE
  5
2C3
330
17
100
AcDbEntity
  8
WINDOW
100
AcDbLine
 10
8342.400000000001
 20
4488.0
 30
0.0
 11
8342.400000000001
 21
4435.200000000001
 31
0.0
  0
LINE
  5
2C4
330
17
100
AcDbEntity
  8
WINDOW
100
AcDbLine
 10
8360.0
 20
4488.0
 30
0.0
 11
8360.0
 21
4435.200000000001
 31
0.0
  0
LINE
  5
2C5
330
17
100
AcDbEntity
  8
WINDOW
100
AcDbLine
 10
8307.2
 20
4488.0
 30
0.0
 11
8360.0
 21
4488.0
 31
0.0
  0
LINE
  5
2C6
330
17
100
AcDbEntity
  8
WINDOW
100
AcDbLine
 10
8307.2
 20
4435.200000000001
 30
0.0
 11
8360.0
 21
4435.200000000001
 31
0.0
  0
LINE
  5
2C7
330
17
100
AcDbEntity
  8
WINDOW
100
AcDbLine
 10
8976.0
 20
4241.6
 30
0.0
 11
8976.0
 21
3995.2000000000003
 31
0.0
  0
LINE
  5
2C8
330
17
100
AcDbEntity
  8
WINDOW
100
AcDbLine
 10
9011.2
 20
4241.6
 30
0.0
 11
9011.2
 21
3995.2000000000003
 31
0.0
  0
LINE
  5
2C9
330
17
100
AcDbEntity
  8
WINDOW
100
AcDbLine
 10
9046.400000000001
 20
4241.6
 30
0.0
 11
9046.400000000001
 21
3995.2000000000003
 31
0.0
  0
LINE
  5
2CA
330
17
100
AcDbEntity
  8
WINDOW
100
AcDbLine
 10
9081.6
 20
4241.6
 30
0.0
 11
9081.6
 21
3995.2000000000003
 31
0.0
  0
LINE
  5
2CB
330
17
100
AcDbEntity
  8
WINDOW
100
AcDbLine
 10
8976.0
 20
4241.6
 30
0.0
 11
9081.6
 21
4241.6
 31
0.0
  0
LINE
  5
2CC
330
17
100
AcDbEntity
  8
WINDOW
100
AcDbLine
 10
8976.0
 20
3995.2000000000003
 30
0.0
 11
9081.6
 21
3995.2000000000003
 31
0.0
  0
LINE
  5
2CD
330
17
100
AcDbEntity
  8
WINDOW
100
AcDbLine
 10
9064.0
 20
3132.8
 30
0.0
 11
9064.0
 21
2868.8
 31
0.0
  0
LINE
  5
2CE
330
17
100
AcDbEntity
  8
WINDOW
100
AcDbLine
 10
9078.666666666668
 20
3132.8
 30
0.0
 11
9078.666666666668
 21
2868.8
 31
0.0
  0
LINE
  5
2CF
330
17
100
AcDbEntity
  8
WINDOW
100
AcDbLine
 10
9093.333333333334
 20
3132.8
 30
0.0
 11
9093.333333333334
 21
2868.8
 31
0.0
  0
LINE
  5
2D0
330
17
100
AcDbEntity
  8
WINDOW
100
AcDbLine
 10
9108.0
 20
3132.8
 30
0.0
 11
9108.0
 21
2868.8
 31
0.0
  0
LINE
  5
2D1
330
17
100
AcDbEntity
  8
WINDOW
100
AcDbLine
 10
9064.0
 20
3132.8
 30
0.0
 11
9108.0
 21
3132.8
 31
0.0
  0
LINE
  5
2D2
330
17
100
AcDbEntity
  8
WINDOW
100
AcDbLine
 10
9064.0
 20
2868.8
 30
0.0
 11
9108.0
 21
2868.8
 31
0.0
  0
LINE
  5
2D3
330
17
100
AcDbEntity
  8
WINDOW
100
AcDbLine
 10
9046.400000000001
 20
668.8000000000001
 30
0.0
 11
9046.400000000001
 21
492.80000000000007
 31
0.0
  0
LINE
  5
2D4
330
17
100
AcDbEntity
  8
WINDOW
100
AcDbLine
 10
9066.933333333334
 20
668.8000000000001
 30
0.0
 11
9066.933333333334
 21
492.80000000000007
 31
0.0
  0
LINE
  5
2D5
330
17
100
AcDbEntity
  8
WINDOW
100
AcDbLine
 10
9087.466666666669
 20
668.8000000000001
 30
0.0
 11
9087.466666666669
 21
492.80000000000007
 31
0.0
  0
LINE
  5
2D6
330
17
100
AcDbEntity
  8
WINDOW
100
AcDbLine
 10
9108.0
 20
668.8000000000001
 30
0.0
 11
9108.0
 21
492.80000000000007
 31
0.0
  0
LINE
  5
2D7
330
17
100
AcDbEntity
  8
WINDOW
100
AcDbLine
 10
9046.400000000001
 20
668.8000000000001
 30
0.0
 11
9108.0
 21
668.8000000000001
 31
0.0
  0
LINE
  5
2D8
330
17
100
AcDbEntity
  8
WINDOW
100
AcDbLine
 10
9046.400000000001
 20
492.80000000000007
 30
0.0
 11
9108.0
 21
492.80000000000007
 31
0.0
  0
LINE
  5
2D9
330
17
100
AcDbEntity
  8
WINDOW
100
AcDbLine
 10
2552.0
 20
7013.6
 30
0.0
 11
2904.0000000000005
 21
7013.6
 31
0.0
  0
LINE
  5
2DA
330
17
100
AcDbEntity
  8
WINDOW
100
AcDbLine
 10
2552.0
 20
6990.133333333334
 30
0.0
 11
2904.0000000000005
 21
6990.133333333334
 31
0.0
  0
LINE
  5
2DB
330
17
100
AcDbEntity
  8
WINDOW
100
AcDbLine
 10
2552.0
 20
6966.666666666667
 30
0.0
 11
2904.0000000000005
 21
6966.666666666667
 31
0.0
  0
LINE
  5
2DC
330
17
100
AcDbEntity
  8
WINDOW
100
AcDbLine
 10
2552.0
 20
6943.200000000001
 30
0.0
 11
2904.0000000000005
 21
6943.200000000001
 31
0.0
  0
LINE
  5
2DD
330
17
100
AcDbEntity
  8
WINDOW
100
AcDbLine
 10
2552.0
 20
7013.6
 30
0.0
 11
2552.0
 21
6943.200000000001
 31
0.0
  0
LINE
  5
2DE
330
17
100
AcDbEntity
  8
WINDOW
100
AcDbLine
 10
2904.0000000000005
 20
7013.6
 30
0.0
 11
2904.0000000000005
 21
6943.200000000001
 31
0.0
  0
ENDSEC
  0
SECTION
  2
OBJECTS
  0
DICTIONARY
  5
A
330
0
100
AcDbDictionary
281
1
  3
ACAD_COLOR
350
B
  3
ACAD_GROUP
350
C
  3
ACAD_LAYOUT
350
D
  3
ACAD_MATERIAL
350
E
  3
ACAD_MLEADERSTYLE
350
F
  3
ACAD_MLINESTYLE
350
10
  3
ACAD_PLOTSETTINGS
350
11
  3
ACAD_PLOTSTYLENAME
350
12
  3
ACAD_SCALELIST
350
14
  3
ACAD_TABLESTYLE
350
15
  3
ACAD_VISUALSTYLE
350
16
  3
EZDXF_META
350
2D
  0
DICTIONARY
  5
B
330
A
100
AcDbDictionary
281
1
  0
DICTIONARY
  5
C
330
A
100
AcDbDictionary
281
1
  0
DICTIONARY
  5
D
330
A
100
AcDbDictionary
281
1
  3
Model
350
1A
  3
Layout1
350
1E
  0
DICTIONARY
  5
E
330
A
100
AcDbDictionary
281
1
  3
ByBlock
350
1F
  3
ByLayer
350
20
  3
Global
350
21
  0
DICTIONARY
  5
F
330
A
100
AcDbDictionary
281
1
  3
Standard
350
2C
  0
DICTIONARY
  5
10
330
A
100
AcDbDictionary
281
1
  3
Standard
350
22
  0
DICTIONARY
  5
11
330
A
100
AcDbDictionary
281
1
  0
ACDBDICTIONARYWDFLT
  5
12
330
A
100
AcDbDictionary
281
1
  3
Normal
350
13
100
AcDbDictionaryWithDefault
340
13
  0
ACDBPLACEHOLDER
  5
13
330
12
  0
DICTIONARY
  5
14
330
A
100
AcDbDictionary
281
1
  0
DICTIONARY
  5
15
330
A
100
AcDbDictionary
281
1
  0
DICTIONARY
  5
16
330
A
100
AcDbDictionary
281
1
  0
LAYOUT
  5
1A
330
D
100
AcDbPlotSettings
  1

  4
A3
  6

 40
7.5
 41
20.0
 42
7.5
 43
20.0
 44
420.0
 45
297.0
 46
0.0
 47
0.0
 48
0.0
 49
0.0
140
0.0
141
0.0
142
1.0
143
1.0
 70
1024
 72
1
 73
0
 74
5
  7

 75
16
 76
0
 77
2
 78
300
147
1.0
148
0.0
149
0.0
100
AcDbLayout
  1
Model
 70
1
 71
0
 10
0.0
 20
0.0
 11
420.0
 21
297.0
 12
0.0
 22
0.0
 32
0.0
 14
1e+20
 24
1e+20
 34
1e+20
 15
-1e+20
 25
-1e+20
 35
-1e+20
146
0.0
 13
0.0
 23
0.0
 33
0.0
 16
1.0
 26
0.0
 36
0.0
 17
0.0
 27
1.0
 37
0.0
 76
1
330
17
  0
LAYOUT
  5
1E
330
D
100
AcDbPlotSettings
  1

  4
A3
  6

 40
7.5
 41
20.0
 42
7.5
 43
20.0
 44
420.0
 45
297.0
 46
0.0
 47
0.0
 48
0.0
 49
0.0
140
0.0
141
0.0
142
1.0
143
1.0
 70
0
 72
1
 73
0
 74
5
  7

 75
16
 76
0
 77
2
 78
300
147
1.0
148
0.0
149
0.0
100
AcDbLayout
  1
Layout1
 70
1
 71
1
 10
0.0
 20
0.0
 11
420.0
 21
297.0
 12
0.0
 22
0.0
 32
0.0
 14
1e+20
 24
1e+20
 34
1e+20
 15
-1e+20
 25
-1e+20
 35
-1e+20
146
0.0
 13
0.0
 23
0.0
 33
0.0
 16
1.0
 26
0.0
 36
0.0
 17
0.0
 27
1.0
 37
0.0
 76
1
330
1B
  0
MATERIAL
  5
1F
102
{ACAD_REACTORS
330
E
102
}
330
E
100
AcDbMaterial
  1
ByBlock
  2

 70
0
 40
1.0
 71
1
 41
1.0
 91
-1023410177
 42
1.0
 72
1
  3

 73
1
 74
1
 75
1
 44
0.5
 73
0
 45
1.0
 46
1.0
 77
1
  4

 78
1
 79
1
170
1
 48
1.0
171
1
  6

172
1
173
1
174
1
140
1.0
141
1.0
175
1
  7

176
1
177
1
178
1
143
1.0
179
1
  8

270
1
271
1
272
1
145
1.0
146
1.0
273
1
  9

274
1
275
1
276
1
 42
1.0
 72
1
  3

 73
1
 74
1
 75
1
 94
63
  0
MATERIAL
  5
20
102
{ACAD_REACTORS
330
E
102
}
330
E
100
AcDbMaterial
  1
ByLayer
  2

 70
0
 40
1.0
 71
1
 41
1.0
 91
-1023410177
 42
1.0
 72
1
  3

 73
1
 74
1
 75
1
 44
0.5
 73
0
 45
1.0
 46
1.0
 77
1
  4

 78
1
 79
1
170
1
 48
1.0
171
1
  6

172
1
173
1
174
1
140
1.0
141
1.0
175
1
  7

176
1
177
1
178
1
143
1.0
179
1
  8

270
1
271
1
272
1
145
1.0
146
1.0
273
1
  9

274
1
275
1
276
1
 42
1.0
 72
1
  3

 73
1
 74
1
 75
1
 94
63
  0
MATERIAL
  5
21
102
{ACAD_REACTORS
330
E
102
}
330
E
100
AcDbMaterial
  1
Global
  2

 70
0
 40
1.0
 71
1
 41
1.0
 91
-1023410177
 42
1.0
 72
1
  3

 73
1
 74
1
 75
1
 44
0.5
 73
0
 45
1.0
 46
1.0
 77
1
  4

 78
1
 79
1
170
1
 48
1.0
171
1
  6

172
1
173
1
174
1
140
1.0
141
1.0
175
1
  7

176
1
177
1
178
1
143
1.0
179
1
  8

270
1
271
1
272
1
145
1.0
146
1.0
273
1
  9

274
1
275
1
276
1
 42
1.0
 72
1
  3

 73
1
 74
1
 75
1
 94
63
  0
MLINESTYLE
  5
22
102
{ACAD_REACTORS
330
10
102
}
330
10
100
AcDbMlineStyle
  2
Standard
 70
0
  3

 62
256
 51
90.0
 52
90.0
 71
2
 49
0.5
 62
256
  6
BYLAYER
 49
-0.5
 62
256
  6
BYLAYER
  0
MLEADERSTYLE
  5
2C
102
{ACAD_REACTORS
330
F
102
}
330
F
100
AcDbMLeaderStyle
179
2
170
2
171
1
172
0
 90
2
 40
0.0
 41
0.0
173
1
 91
-1056964608
 92
-2
290
1
 42
2.0
291
1
 43
8.0
  3
Standard
 44
4.0
300

342
29
174
1
175
1
176
0
178
1
 93
-1056964608
 45
4.0
292
0
297
0
 46
4.0
 94
-1056964608
 47
1.0
 49
1.0
140
1.0
294
1
141
0.0
177
0
142
1.0
295
0
296
0
143
3.75
271
0
272
9
273
9
  0
DICTIONARY
  5
2D
330
A
100
AcDbDictionary
280
1
281
1
  3
CREATED_BY_EZDXF
350
2E
  3
WRITTEN_BY_EZDXF
350
2E1
  0
DICTIONARYVAR
  5
2E
330
2D
100
DictionaryVariables
280
0
  1
1.4.4 @ 2026-07-12T08:53:24.953793+00:00
  0
DICTIONARYVAR
  5
2E1
330
2D
100
DictionaryVariables
280
0
  1
1.4.4 @ 2026-07-12T08:53:24.966516+00:00
  0
ENDSEC
  0
EOF
