  0
SECTION
  2
HEADER
  9
$ACADVER
  1
AC1024
  9
$ACADMAINTVER
 70
6
  9
$DWGCODEPAGE
  3
ANSI_1252
  9
$LASTSAVEDBY
  1
ezdxf
  9
$INSBASE
 10
0.0
 20
0.0
 30
0.0
  9
$EXTMIN
 10
1e+20
 20
1e+20
 30
1e+20
  9
$EXTMAX
 10
-1e+20
 20
-1e+20
 30
-1e+20
  9
$LIMMIN
 10
0.0
 20
0.0
  9
$LIMMAX
 10
420.0
 20
297.0
  9
$ORTHOMODE
 70
0
  9
$REGENMODE
 70
1
  9
$FILLMODE
 70
1
  9
$QTEXTMODE
 70
0
  9
$MIRRTEXT
 70
1
  9
$LTSCALE
 40
1.0
  9
$ATTMODE
 70
1
  9
$TEXTSIZE
 40
2.5
  9
$TRACEWID
 40
1.0
  9
$TEXTSTYLE
  7
Standard
  9
$CLAYER
  8
0
  9
$CELTYPE
  6
ByLayer
  9
$CECOLOR
 62
256
  9
$CELTSCALE
 40
1.0
  9
$DISPSILH
 70
0
  9
$DIMSCALE
 40
1.0
  9
$DIMASZ
 40
2.5
  9
$DIMEXO
 40
0.625
  9
$DIMDLI
 40
3.75
  9
$DIMRND
 40
0.0
  9
$DIMDLE
 40
0.0
  9
$DIMEXE
 40
1.25
  9
$DIMTP
 40
0.0
  9
$DIMTM
 40
0.0
  9
$DIMTXT
 40
2.5
  9
$DIMCEN
 40
2.5
  9
$DIMTSZ
 40
0.0
  9
$DIMTOL
 70
0
  9
$DIMLIM
 70
0
  9
$DIMTIH
 70
0
  9
$DIMTOH
 70
0
  9
$DIMSE1
 70
0
  9
$DIMSE2
 70
0
  9
$DIMTAD
 70
1
  9
$DIMZIN
 70
8
  9
$DIMBLK
  1

  9
$DIMASO
 70
1
  9
$DIMSHO
 70
1
  9
$DIMPOST
  1

  9
$DIMAPOST
  1

  9
$DIMALT
 70
0
  9
$DIMALTD
 70
3
  9
$DIMALTF
 40
0.03937007874
  9
$DIMLFAC
 40
1.0
  9
$DIMTOFL
 70
1
  9
$DIMTVP
 40
0.0
  9
$DIMTIX
 70
0
  9
$DIMSOXD
 70
0
  9
$DIMSAH
 70
0
  9
$DIMBLK1
  1

  9
$DIMBLK2
  1

  9
$DIMSTYLE
  2
ISO-25
  9
$DIMCLRD
 70
0
  9
$DIMCLRE
 70
0
  9
$DIMCLRT
 70
0
  9
$DIMTFAC
 40
1.0
  9
$DIMGAP
 40
0.625
  9
$DIMJUST
 70
0
  9
$DIMSD1
 70
0
  9
$DIMSD2
 70
0
  9
$DIMTOLJ
 70
0
  9
$DIMTZIN
 70
8
  9
$DIMALTZ
 70
0
  9
$DIMALTTZ
 70
0
  9
$DIMUPT
 70
0
  9
$DIMDEC
 70
2
  9
$DIMTDEC
 70
2
  9
$DIMALTU
 70
2
  9
$DIMALTTD
 70
3
  9
$DIMTXSTY
  7
Standard
  9
$DIMAUNIT
 70
0
  9
$DIMADEC
 70
0
  9
$DIMALTRND
 40
0.0
  9
$DIMAZIN
 70
0
  9
$DIMDSEP
 70
44
  9
$DIMATFIT
 70
3
  9
$DIMFRAC
 70
0
  9
$DIMLDRBLK
  1

  9
$DIMLUNIT
 70
2
  9
$DIMLWD
 70
-2
  9
$DIMLWE
 70
-2
  9
$DIMTMOVE
 70
0
  9
$DIMFXL
 40
1.0
  9
$DIMFXLON
 70
0
  9
$DIMJOGANG
 40
0.785398163397
  9
$DIMTFILL
 70
0
  9
$DIMTFILLCLR
 70
0
  9
$DIMARCSYM
 70
0
  9
$DIMLTYPE
  6

  9
$DIMLTEX1
  6

  9
$DIMLTEX2
  6

  9
$DIMTXTDIRECTION
 70
0
  9
$LUNITS
 70
2
  9
$LUPREC
 70
4
  9
$SKETCHINC
 40
1.0
  9
$FILLETRAD
 40
10.0
  9
$AUNITS
 70
0
  9
$AUPREC
 70
2
  9
$MENU
  1
.
  9
$ELEVATION
 40
0.0
  9
$PELEVATION
 40
0.0
  9
$THICKNESS
 40
0.0
  9
$LIMCHECK
 70
0
  9
$CHAMFERA
 40
0.0
  9
$CHAMFERB
 40
0.0
  9
$CHAMFERC
 40
0.0
  9
$CHAMFERD
 40
0.0
  9
$SKPOLY
 70
0
  9
$TDCREATE
 40
2461234.703761574
  9
$TDUCREATE
 40
2458532.153996898
  9
$TDUPDATE
 40
2461234.703761574
  9
$TDUUPDATE
 40
2458532.1544311
  9
$TDINDWG
 40
0.0
  9
$TDUSRTIMER
 40
0.0
  9
$USRTIMER
 70
1
  9
$ANGBASE
 50
0.0
  9
$ANGDIR
 70
0
  9
$PDMODE
 70
0
  9
$PDSIZE
 40
0.0
  9
$PLINEWID
 40
0.0
  9
$SPLFRAME
 70
0
  9
$SPLINETYPE
 70
6
  9
$SPLINESEGS
 70
8
  9
$HANDSEED
  5
17E
  9
$SURFTAB1
 70
6
  9
$SURFTAB2
 70
6
  9
$SURFTYPE
 70
6
  9
$SURFU
 70
6
  9
$SURFV
 70
6
  9
$UCSBASE
  2

  9
$UCSNAME
  2

  9
$UCSORG
 10
0.0
 20
0.0
 30
0.0
  9
$UCSXDIR
 10
1.0
 20
0.0
 30
0.0
  9
$UCSYDIR
 10
0.0
 20
1.0
 30
0.0
  9
$UCSORTHOREF
  2

  9
$UCSORTHOVIEW
 70
0
  9
$UCSORGTOP
 10
0.0
 20
0.0
 30
0.0
  9
$UCSORGBOTTOM
 10
0.0
 20
0.0
 30
0.0
  9
$UCSORGLEFT
 10
0.0
 20
0.0
 30
0.0
  9
$UCSORGRIGHT
 10
0.0
 20
0.0
 30
0.0
  9
$UCSORGFRONT
 10
0.0
 20
0.0
 30
0.0
  9
$UCSORGBACK
 10
0.0
 20
0.0
 30
0.0
  9
$PUCSBASE
  2

  9
$PUCSNAME
  2

  9
$PUCSORG
 10
0.0
 20
0.0
 30
0.0
  9
$PUCSXDIR
 10
1.0
 20
0.0
 30
0.0
  9
$PUCSYDIR
 10
0.0
 20
1.0
 30
0.0
  9
$PUCSORTHOREF
  2

  9
$PUCSORTHOVIEW
 70
0
  9
$PUCSORGTOP
 10
0.0
 20
0.0
 30
0.0
  9
$PUCSORGBOTTOM
 10
0.0
 20
0.0
 30
0.0
  9
$PUCSORGLEFT
 10
0.0
 20
0.0
 30
0.0
  9
$PUCSORGRIGHT
 10
0.0
 20
0.0
 30
0.0
  9
$PUCSORGFRONT
 10
0.0
 20
0.0
 30
0.0
  9
$PUCSORGBACK
 10
0.0
 20
0.0
 30
0.0
  9
$USERI1
 70
0
  9
$USERI2
 70
0
  9
$USERI3
 70
0
  9
$USERI4
 70
0
  9
$USERI5
 70
0
  9
$USERR1
 40
0.0
  9
$USERR2
 40
0.0
  9
$USERR3
 40
0.0
  9
$USERR4
 40
0.0
  9
$USERR5
 40
0.0
  9
$WORLDVIEW
 70
1
  9
$SHADEDGE
 70
3
  9
$SHADEDIF
 70
70
  9
$TILEMODE
 70
1
  9
$MAXACTVP
 70
64
  9
$PINSBASE
 10
0.0
 20
0.0
 30
0.0
  9
$PLIMCHECK
 70
0
  9
$PEXTMIN
 10
1e+20
 20
1e+20
 30
1e+20
  9
$PEXTMAX
 10
-1e+20
 20
-1e+20
 30
-1e+20
  9
$PLIMMIN
 10
0.0
 20
0.0
  9
$PLIMMAX
 10
420.0
 20
297.0
  9
$UNITMODE
 70
0
  9
$VISRETAIN
 70
1
  9
$PLINEGEN
 70
0
  9
$PSLTSCALE
 70
1
  9
$TREEDEPTH
 70
3020
  9
$CMLSTYLE
  2
Standard
  9
$CMLJUST
 70
0
  9
$CMLSCALE
 40
20.0
  9
$PROXYGRAPHICS
 70
1
  9
$MEASUREMENT
 70
1
  9
$CELWEIGHT
370
-1
  9
$ENDCAPS
280
0
  9
$JOINSTYLE
280
0
  9
$LWDISPLAY
290
0
  9
$INSUNITS
 70
4
  9
$HYPERLINKBASE
  1

  9
$STYLESHEET
  1

  9
$XEDIT
290
1
  9
$CEPSNTYPE
380
0
  9
$PSTYLEMODE
290
1
  9
$FINGERPRINTGUID
  2
{C42EF16D-6045-4D3E-A9CE-E3EB892512BE}
  9
$VERSIONGUID
  2
{A377B3F2-1008-4BBC-A498-1A9319BD0430}
  9
$EXTNAMES
290
1
  9
$PSVPSCALE
 40
0.0
  9
$OLESTARTUP
290
0
  9
$SORTENTS
280
127
  9
$INDEXCTL
280
0
  9
$HIDETEXT
280
1
  9
$XCLIPFRAME
280
1
  9
$HALOGAP
280
0
  9
$OBSCOLOR
 70
257
  9
$OBSLTYPE
280
0
  9
$INTERSECTIONDISPLAY
280
0
  9
$INTERSECTIONCOLOR
 70
257
  9
$DIMASSOC
280
2
  9
$PROJECTNAME
  1

  9
$CAMERADISPLAY
290
0
  9
$LENSLENGTH
 40
50.0
  9
$CAMERAHEIGHT
 40
0.0
  9
$STEPSPERSEC
 40
24.0
  9
$STEPSIZE
 40
100.0
  9
$3DDWFPREC
 40
2.0
  9
$PSOLWIDTH
 40
0.005
  9
$PSOLHEIGHT
 40
0.08
  9
$LOFTANG1
 40
1.570796326795
  9
$LOFTANG2
 40
1.570796326795
  9
$LOFTMAG1
 40
0.0
  9
$LOFTMAG2
 40
0.0
  9
$LOFTPARAM
 70
7
  9
$LOFTNORMALS
280
1
  9
$LATITUDE
 40
37.795
  9
$LONGITUDE
 40
-122.394
  9
$NORTHDIRECTION
 40
0.0
  9
$TIMEZONE
 70
-8000
  9
$LIGHTGLYPHDISPLAY
280
1
  9
$TILEMODELIGHTSYNCH
280
1
  9
$CMATERIAL
347
20
  9
$SOLIDHIST
280
0
  9
$SHOWHIST
280
1
  9
$DWFFRAME
280
2
  9
$DGNFRAME
280
2
  9
$REALWORLDSCALE
290
1
  9
$INTERFERECOLOR
 62
256
  9
$CSHADOW
280
0
  9
$SHADOWPLANELOCATION
 40
0.0
  0
ENDSEC
  0
SECTION
  2
CLASSES
  0
CLASS
  1
ACDBDICTIONARYWDFLT
  2
AcDbDictionaryWithDefault
  3
ObjectDBX Classes
 90
0
 91
0
280
0
281
0
  0
CLASS
  1
SUN
  2
AcDbSun
  3
SCENEOE
 90
1153
 91
0
280
0
281
0
  0
CLASS
  1
VISUALSTYLE
  2
AcDbVisualStyle
  3
ObjectDBX Classes
 90
4095
 91
0
280
0
281
0
  0
CLASS
  1
MATERIAL
  2
AcDbMaterial
  3
ObjectDBX Classes
 90
1153
 91
0
280
0
281
0
  0
CLASS
  1
SCALE
  2
AcDbScale
  3
ObjectDBX Classes
 90
1153
 91
0
280
0
281
0
  0
CLASS
  1
TABLESTYLE
  2
AcDbTableStyle
  3
ObjectDBX Classes
 90
4095
 91
0
280
0
281
0
  0
CLASS
  1
MLEADERSTYLE
  2
AcDbMLeaderStyle
  3
ACDB_MLEADERSTYLE_CLASS
 90
4095
 91
0
280
0
281
0
  0
CLASS
  1
DICTIONARYVAR
  2
AcDbDictionaryVar
  3
ObjectDBX Classes
 90
0
 91
0
280
0
281
0
  0
CLASS
  1
CELLSTYLEMAP
  2
AcDbCellStyleMap
  3
ObjectDBX Classes
 90
1152
 91
0
280
0
281
0
  0
CLASS
  1
MENTALRAYRENDERSETTINGS
  2
AcDbMentalRayRenderSettings
  3
SCENEOE
 90
1024
 91
0
280
0
281
0
  0
CLASS
  1
ACDBDETAILVIEWSTYLE
  2
AcDbDetailViewStyle
  3
ObjectDBX Classes
 90
1025
 91
0
280
0
281
0
  0
CLASS
  1
ACDBSECTIONVIEWSTYLE
  2
AcDbSectionViewStyle
  3
ObjectDBX Classes
 90
1025
 91
0
280
0
281
0
  0
CLASS
  1
RASTERVARIABLES
  2
AcDbRasterVariables
  3
ISM
 90
0
 91
0
280
0
281
0
  0
CLASS
  1
LAYOUT
  2
AcDbLayout
  3
ObjectDBX Classes
 90
0
 91
0
280
0
281
0
  0
CLASS
  1
ACDBPLACEHOLDER
  2
AcDbPlaceHolder
  3
ObjectDBX Classes
 90
0
 91
0
280
0
281
0
  0
ENDSEC
  0
SECTION
  2
TABLES
  0
TABLE
  2
VPORT
  5
8
330
0
100
AcDbSymbolTable
 70
1
  0
VPORT
  5
23
330
8
100
AcDbSymbolTableRecord
100
AcDbViewportTableRecord
  2
*Active
 70
0
 10
0.0
 20
0.0
 11
1.0
 21
1.0
 12
0.0
 22
0.0
 13
0.0
 23
0.0
 14
0.5
 24
0.5
 15
0.5
 25
0.5
 16
0.0
 26
0.0
 36
1.0
 17
0.0
 27
0.0
 37
0.0
 40
1000.0
 41
1.34
 42
50.0
 43
0.0
 44
0.0
 50
0.0
 51
0.0
 71
0
 72
1000
 73
1
 74
3
 75
0
 76
0
 77
0
 78
0
281
0
 65
0
146
0.0
  0
ENDTAB
  0
TABLE
  2
LTYPE
  5
2
330
0
100
AcDbSymbolTable
 70
3
  0
LTYPE
  5
24
330
2
100
AcDbSymbolTableRecord
100
AcDbLinetypeTableRecord
  2
ByBlock
 70
0
  3

 72
65
 73
0
 40
0.0
  0
LTYPE
  5
25
330
2
100
AcDbSymbolTableRecord
100
AcDbLinetypeTableRecord
  2
ByLayer
 70
0
  3

 72
65
 73
0
 40
0.0
  0
LTYPE
  5
26
330
2
100
AcDbSymbolTableRecord
100
AcDbLinetypeTableRecord
  2
Continuous
 70
0
  3

 72
65
 73
0
 40
0.0
  0
ENDTAB
  0
TABLE
  2
LAYER
  5
1
330
0
100
AcDbSymbolTable
 70
4
  0
LAYER
  5
27
330
1
100
AcDbSymbolTableRecord
100
AcDbLayerTableRecord
  2
0
 70
0
 62
7
  6
Continuous
370
-3
390
13
347
21
  0
LAYER
  5
28
330
1
100
AcDbSymbolTableRecord
100
AcDbLayerTableRecord
  2
Defpoints
 70
0
 62
7
  6
Continuous
290
0
370
-3
390
13
347
21
  0
LAYER
  5
2F
330
1
100
AcDbSymbolTableRecord
100
AcDbLayerTableRecord
  2
WALL
 70
0
 62
7
  6
Continuous
370
-3
390
13
347
21
  0
LAYER
  5
30
330
1
100
AcDbSymbolTableRecord
100
AcDbLayerTableRecord
  2
WINDOW
 70
0
 62
5
  6
Continuous
370
-3
390
13
347
21
  0
ENDTAB
  0
TABLE
  2
STYLE
  5
5
330
0
100
AcDbSymbolTable
 70
1
  0
STYLE
  5
29
330
5
100
AcDbSymbolTableRecord
100
AcDbTextStyleTableRecord
  2
Standard
 70
0
 40
0.0
 41
1.0
 50
0.0
 71
0
 42
2.5
  3
txt
  4

  0
ENDTAB
  0
TABLE
  2
VIEW
  5
7
330
0
100
AcDbSymbolTable
 70
0
  0
ENDTAB
  0
TABLE
  2
UCS
  5
6
330
0
100
AcDbSymbolTable
 70
0
  0
ENDTAB
  0
TABLE
  2
APPID
  5
3
330
0
100
AcDbSymbolTable
 70
3
  0
APPID
  5
2A
330
3
100
AcDbSymbolTableRecord
100
AcDbRegAppTableRecord
  2
ACAD
 70
0
  0
APPID
  5
17B
330
3
100
AcDbSymbolTableRecord
100
AcDbRegAppTableRecord
  2
HATCHBACKGROUNDCOLOR
 70
0
  0
APPID
  5
17C
330
3
100
AcDbSymbolTableRecord
100
AcDbRegAppTableRecord
  2
EZDXF
 70
0
  0
ENDTAB
  0
TABLE
  2
DIMSTYLE
  5
4
330
0
100
AcDbSymbolTable
 70
1
100
AcDbDimStyleTable
  0
DIMSTYLE
105
2B
330
4
100
AcDbSymbolTableRecord
100
AcDbDimStyleTableRecord
  2
Standard
 70
0
 40
1.0
 41
2.5
 42
0.625
 43
3.75
 44
1.25
 45
0.0
 46
0.0
 47
0.0
 48
0.0
 49
2.5
140
2.5
141
2.5
142
0.0
143
0.03937007874
144
1.0
145
0.0
146
1.0
147
0.625
148
0.0
 69
0
 70
0
 71
0
 72
0
 73
0
 74
0
 75
0
 76
0
 77
1
 78
8
 79
3
170
0
171
3
172
1
173
0
174
0
175
0
176
0
177
0
178
0
179
2
271
2
272
2
273
2
274
3
275
0
276
0
277
2
278
44
279
0
280
0
281
0
282
0
283
0
284
8
285
0
286
0
288
0
289
3
290
0
371
-2
372
-2
  0
ENDTAB
  0
TABLE
  2
BLOCK_RECORD
  5
9
330
0
100
AcDbSymbolTable
 70
2
  0
BLOCK_RECORD
  5
17
330
9
100
AcDbSymbolTableRecord
100
AcDbBlockTableRecord
  2
*Model_Space
340
1A
 70
0
280
1
281
0
  0
BLOCK_RECORD
  5
1B
330
9
100
AcDbSymbolTableRecord
100
AcDbBlockTableRecord
  2
*Paper_Space
340
1E
 70
0
280
1
281
0
  0
ENDTAB
  0
ENDSEC
  0
SECTION
  2
BLOCKS
  0
BLOCK
  5
18
330
17
100
AcDbEntity
  8
0
100
AcDbBlockBegin
  2
*Model_Space
 70
0
 10
0.0
 20
0.0
 30
0.0
  3
*Model_Space
  1

  0
ENDBLK
  5
19
330
17
100
AcDbEntity
  8
0
100
AcDbBlockEnd
  0
BLOCK
  5
1C
330
1B
100
AcDbEntity
  8
0
100
AcDbBlockBegin
  2
*Paper_Space
 70
0
 10
0.0
 20
0.0
 30
0.0
  3
*Paper_Space
  1

  0
ENDBLK
  5
1D
330
1B
100
AcDbEntity
  8
0
100
AcDbBlockEnd
  0
ENDSEC
  0
SECTION
  2
ENTITIES
  0
LWPOLYLINE
  5
31
330
17
100
AcDbEntity
  8
WALL
100
AcDbPolyline
 90
4
 70
1
 10
4760.8
 20
9380.800000000001
 10
5016.0
 20
9380.800000000001
 10
5016.0
 20
9301.6
 10
4760.8
 20
9301.6
  0
HATCH
  5
32
330
17
100
AcDbEntity
  8
WALL
100
AcDbHatch
 10
0.0
 20
0.0
 30
0.0
210
0.0
220
0.0
230
1.0
  2
SOLID
 70
1
 71
0
 91
1
 92
3
 72
0
 73
1
 93
4
 10
4760.8
 20
9380.800000000001
 10
5016.0
 20
9380.800000000001
 10
5016.0
 20
9301.6
 10
4760.8
 20
9301.6
 97
0
 75
1
 76
1
 98
0
  0
LWPOLYLINE
  5
33
330
17
100
AcDbEntity
  8
WALL
100
AcDbPolyline
 90
4
 70
1
 10
4778.400000000001
 20
9292.800000000001
 10
5016.0
 20
9292.800000000001
 10
5016.0
 20
9284.0
 10
4778.400000000001
 20
9284.0
  0
HATCH
  5
34
330
17
100
AcDbEntity
  8
WALL
100
AcDbHatch
 10
0.0
 20
0.0
 30
0.0
210
0.0
220
0.0
230
1.0
  2
SOLID
 70
1
 71
0
 91
1
 92
3
 72
0
 73
1
 93
4
 10
4778.400000000001
 20
9292.800000000001
 10
5016.0
 20
9292.800000000001
 10
5016.0
 20
9284.0
 10
4778.400000000001
 20
9284.0
 97
0
 75
1
 76
1
 98
0
  0
LWPOLYLINE
  5
35
330
17
100
AcDbEntity
  8
WALL
100
AcDbPolyline
 90
4
 70
1
 10
10005.6
 20
9037.6
 10
10216.800000000001
 20
9037.6
 10
10216.800000000001
 20
9028.800000000001
 10
10005.6
 20
9028.800000000001
  0
HATCH
  5
36
330
17
100
AcDbEntity
  8
WALL
100
AcDbHatch
 10
0.0
 20
0.0
 30
0.0
210
0.0
220
0.0
230
1.0
  2
SOLID
 70
1
 71
0
 91
1
 92
3
 72
0
 73
1
 93
4
 10
10005.6
 20
9037.6
 10
10216.800000000001
 20
9037.6
 10
10216.800000000001
 20
9028.800000000001
 10
10005.6
 20
9028.800000000001
 97
0
 75
1
 76
1
 98
0
  0
LWPOLYLINE
  5
37
330
17
100
AcDbEntity
  8
WALL
100
AcDbPolyline
 90
4
 70
1
 10
9935.2
 20
8984.800000000001
 10
10146.400000000001
 20
8984.800000000001
 10
10146.400000000001
 20
8976.0
 10
9935.2
 20
8976.0
  0
HATCH
  5
38
330
17
100
AcDbEntity
  8
WALL
100
AcDbHatch
 10
0.0
 20
0.0
 30
0.0
210
0.0
220
0.0
230
1.0
  2
SOLID
 70
1
 71
0
 91
1
 92
3
 72
0
 73
1
 93
4
 10
9935.2
 20
8984.800000000001
 10
10146.400000000001
 20
8984.800000000001
 10
10146.400000000001
 20
8976.0
 10
9935.2
 20
8976.0
 97
0
 75
1
 76
1
 98
0
  0
LWPOLYLINE
  5
39
330
17
100
AcDbEntity
  8
WALL
100
AcDbPolyline
 90
4
 70
1
 10
2842.4
 20
8826.400000000001
 10
4796.0
 20
8826.400000000001
 10
4796.0
 20
8650.400000000001
 10
2842.4
 20
8650.400000000001
  0
HATCH
  5
3A
330
17
100
AcDbEntity
  8
WALL
100
AcDbHatch
 10
0.0
 20
0.0
 30
0.0
210
0.0
220
0.0
230
1.0
  2
SOLID
 70
1
 71
0
 91
1
 92
3
 72
0
 73
1
 93
4
 10
2842.4
 20
8826.400000000001
 10
4796.0
 20
8826.400000000001
 10
4796.0
 20
8650.400000000001
 10
2842.4
 20
8650.400000000001
 97
0
 75
1
 76
1
 98
0
  0
LWPOLYLINE
  5
3B
330
17
100
AcDbEntity
  8
WALL
100
AcDbPolyline
 90
4
 70
1
 10
5456.0
 20
8826.400000000001
 10
5904.8
 20
8826.400000000001
 10
5904.8
 20
8650.400000000001
 10
5456.0
 20
8650.400000000001
  0
HATCH
  5
3C
330
17
100
AcDbEntity
  8
WALL
100
AcDbHatch
 10
0.0
 20
0.0
 30
0.0
210
0.0
220
0.0
230
1.0
  2
SOLID
 70
1
 71
0
 91
1
 92
3
 72
0
 73
1
 93
4
 10
5456.0
 20
8826.400000000001
 10
5904.8
 20
8826.400000000001
 10
5904.8
 20
8650.400000000001
 10
5456.0
 20
8650.400000000001
 97
0
 75
1
 76
1
 98
0
  0
LWPOLYLINE
  5
3D
330
17
100
AcDbEntity
  8
WALL
100
AcDbPolyline
 90
4
 70
1
 10
7101.6
 20
8826.400000000001
 10
8588.800000000001
 20
8826.400000000001
 10
8588.800000000001
 20
8650.400000000001
 10
7101.6
 20
8650.400000000001
  0
HATCH
  5
3E
330
17
100
AcDbEntity
  8
WALL
100
AcDbHatch
 10
0.0
 20
0.0
 30
0.0
210
0.0
220
0.0
230
1.0
  2
SOLID
 70
1
 71
0
 91
1
 92
3
 72
0
 73
1
 93
4
 10
7101.6
 20
8826.400000000001
 10
8588.800000000001
 20
8826.400000000001
 10
8588.800000000001
 20
8650.400000000001
 10
7101.6
 20
8650.400000000001
 97
0
 75
1
 76
1
 98
0
  0
LWPOLYLINE
  5
3F
330
17
100
AcDbEntity
  8
WALL
100
AcDbPolyline
 90
4
 70
1
 10
6089.6
 20
8632.800000000001
 10
6820.000000000001
 20
8632.800000000001
 10
6820.000000000001
 20
8580.0
 10
6089.6
 20
8580.0
  0
HATCH
  5
40
330
17
100
AcDbEntity
  8
WALL
100
AcDbHatch
 10
0.0
 20
0.0
 30
0.0
210
0.0
220
0.0
230
1.0
  2
SOLID
 70
1
 71
0
 91
1
 92
3
 72
0
 73
1
 93
4
 10
6089.6
 20
8632.800000000001
 10
6820.000000000001
 20
8632.800000000001
 10
6820.000000000001
 20
8580.0
 10
6089.6
 20
8580.0
 97
0
 75
1
 76
1
 98
0
  0
LWPOLYLINE
  5
41
330
17
100
AcDbEntity
  8
WALL
100
AcDbPolyline
 90
4
 70
1
 10
4417.6
 20
8580.0
 10
4945.6
 20
8580.0
 10
4945.6
 20
8527.2
 10
4417.6
 20
8527.2
  0
HATCH
  5
42
330
17
100
AcDbEntity
  8
WALL
100
AcDbHatch
 10
0.0
 20
0.0
 30
0.0
210
0.0
220
0.0
230
1.0
  2
SOLID
 70
1
 71
0
 91
1
 92
3
 72
0
 73
1
 93
4
 10
4417.6
 20
8580.0
 10
4945.6
 20
8580.0
 10
4945.6
 20
8527.2
 10
4417.6
 20
8527.2
 97
0
 75
1
 76
1
 98
0
  0
LWPOLYLINE
  5
43
330
17
100
AcDbEntity
  8
WALL
100
AcDbPolyline
 90
4
 70
1
 10
6547.200000000001
 20
8456.800000000001
 10
6969.6
 20
8456.800000000001
 10
6969.6
 20
8386.400000000001
 10
6547.200000000001
 20
8386.400000000001
  0
HATCH
  5
44
330
17
100
AcDbEntity
  8
WALL
100
AcDbHatch
 10
0.0
 20
0.0
 30
0.0
210
0.0
220
0.0
230
1.0
  2
SOLID
 70
1
 71
0
 91
1
 92
3
 72
0
 73
1
 93
4
 10
6547.200000000001
 20
8456.800000000001
 10
6969.6
 20
8456.800000000001
 10
6969.6
 20
8386.400000000001
 10
6547.200000000001
 20
8386.400000000001
 97
0
 75
1
 76
1
 98
0
  0
LWPOLYLINE
  5
45
330
17
100
AcDbEntity
  8
WALL
100
AcDbPolyline
 90
4
 70
1
 10
1953.6000000000001
 20
8175.200000000001
 10
2499.2000000000003
 20
8175.200000000001
 10
2499.2000000000003
 20
8078.400000000001
 10
1953.6000000000001
 20
8078.400000000001
  0
HATCH
  5
46
330
17
100
AcDbEntity
  8
WALL
100
AcDbHatch
 10
0.0
 20
0.0
 30
0.0
210
0.0
220
0.0
230
1.0
  2
SOLID
 70
1
 71
0
 91
1
 92
3
 72
0
 73
1
 93
4
 10
1953.6000000000001
 20
8175.200000000001
 10
2499.2000000000003
 20
8175.200000000001
 10
2499.2000000000003
 20
8078.400000000001
 10
1953.6000000000001
 20
8078.400000000001
 97
0
 75
1
 76
1
 98
0
  0
LWPOLYLINE
  5
47
330
17
100
AcDbEntity
  8
WALL
100
AcDbPolyline
 90
4
 70
1
 10
4901.6
 20
8122.400000000001
 10
5280.0
 20
8122.400000000001
 10
5280.0
 20
8016.800000000001
 10
4901.6
 20
8016.800000000001
  0
HATCH
  5
48
330
17
100
AcDbEntity
  8
WALL
100
AcDbHatch
 10
0.0
 20
0.0
 30
0.0
210
0.0
220
0.0
230
1.0
  2
SOLID
 70
1
 71
0
 91
1
 92
3
 72
0
 73
1
 93
4
 10
4901.6
 20
8122.400000000001
 10
5280.0
 20
8122.400000000001
 10
5280.0
 20
8016.800000000001
 10
4901.6
 20
8016.800000000001
 97
0
 75
1
 76
1
 98
0
  0
LWPOLYLINE
  5
49
330
17
100
AcDbEntity
  8
WALL
100
AcDbPolyline
 90
4
 70
1
 10
6019.200000000001
 20
8122.400000000001
 10
6371.200000000001
 20
8122.400000000001
 10
6371.200000000001
 20
8034.400000000001
 10
6019.200000000001
 20
8034.400000000001
  0
HATCH
  5
4A
330
17
100
AcDbEntity
  8
WALL
100
AcDbHatch
 10
0.0
 20
0.0
 30
0.0
210
0.0
220
0.0
230
1.0
  2
SOLID
 70
1
 71
0
 91
1
 92
3
 72
0
 73
1
 93
4
 10
6019.200000000001
 20
8122.400000000001
 10
6371.200000000001
 20
8122.400000000001
 10
6371.200000000001
 20
8034.400000000001
 10
6019.200000000001
 20
8034.400000000001
 97
0
 75
1
 76
1
 98
0
  0
LWPOLYLINE
  5
4B
330
17
100
AcDbEntity
  8
WALL
100
AcDbPolyline
 90
4
 70
1
 10
4171.200000000001
 20
8104.800000000001
 10
4699.200000000001
 20
8104.800000000001
 10
4699.200000000001
 20
7981.6
 10
4171.200000000001
 20
7981.6
  0
HATCH
  5
4C
330
17
100
AcDbEntity
  8
WALL
100
AcDbHatch
 10
0.0
 20
0.0
 30
0.0
210
0.0
220
0.0
230
1.0
  2
SOLID
 70
1
 71
0
 91
1
 92
3
 72
0
 73
1
 93
4
 10
4171.200000000001
 20
8104.800000000001
 10
4699.200000000001
 20
8104.800000000001
 10
4699.200000000001
 20
7981.6
 10
4171.200000000001
 20
7981.6
 97
0
 75
1
 76
1
 98
0
  0
LWPOLYLINE
  5
4D
330
17
100
AcDbEntity
  8
WALL
100
AcDbPolyline
 90
4
 70
1
 10
4118.400000000001
 20
7849.6
 10
4400.0
 20
7849.6
 10
4400.0
 20
7770.400000000001
 10
4118.400000000001
 20
7770.400000000001
  0
HATCH
  5
4E
330
17
100
AcDbEntity
  8
WALL
100
AcDbHatch
 10
0.0
 20
0.0
 30
0.0
210
0.0
220
0.0
230
1.0
  2
SOLID
 70
1
 71
0
 91
1
 92
3
 72
0
 73
1
 93
4
 10
4118.400000000001
 20
7849.6
 10
4400.0
 20
7849.6
 10
4400.0
 20
7770.400000000001
 10
4118.400000000001
 20
7770.400000000001
 97
0
 75
1
 76
1
 98
0
  0
LWPOLYLINE
  5
4F
330
17
100
AcDbEntity
  8
WALL
100
AcDbPolyline
 90
4
 70
1
 10
4426.400000000001
 20
7700.000000000001
 10
5016.0
 20
7700.000000000001
 10
5016.0
 20
7576.8
 10
4426.400000000001
 20
7576.8
  0
HATCH
  5
50
330
17
100
AcDbEntity
  8
WALL
100
AcDbHatch
 10
0.0
 20
0.0
 30
0.0
210
0.0
220
0.0
230
1.0
  2
SOLID
 70
1
 71
0
 91
1
 92
3
 72
0
 73
1
 93
4
 10
4426.400000000001
 20
7700.000000000001
 10
5016.0
 20
7700.000000000001
 10
5016.0
 20
7576.8
 10
4426.400000000001
 20
7576.8
 97
0
 75
1
 76
1
 98
0
  0
LWPOLYLINE
  5
51
330
17
100
AcDbEntity
  8
WALL
100
AcDbPolyline
 90
4
 70
1
 10
4136.0
 20
7647.200000000001
 10
4364.8
 20
7647.200000000001
 10
4364.8
 20
7612.000000000001
 10
4136.0
 20
7612.000000000001
  0
HATCH
  5
52
330
17
100
AcDbEntity
  8
WALL
100
AcDbHatch
 10
0.0
 20
0.0
 30
0.0
210
0.0
220
0.0
230
1.0
  2
SOLID
 70
1
 71
0
 91
1
 92
3
 72
0
 73
1
 93
4
 10
4136.0
 20
7647.200000000001
 10
4364.8
 20
7647.200000000001
 10
4364.8
 20
7612.000000000001
 10
4136.0
 20
7612.000000000001
 97
0
 75
1
 76
1
 98
0
  0
LWPOLYLINE
  5
53
330
17
100
AcDbEntity
  8
WALL
100
AcDbPolyline
 90
4
 70
1
 10
6204.000000000001
 20
7656.000000000001
 10
6547.200000000001
 20
7656.000000000001
 10
6547.200000000001
 20
7612.000000000001
 10
6204.000000000001
 20
7612.000000000001
  0
HATCH
  5
54
330
17
100
AcDbEntity
  8
WALL
100
AcDbHatch
 10
0.0
 20
0.0
 30
0.0
210
0.0
220
0.0
230
1.0
  2
SOLID
 70
1
 71
0
 91
1
 92
3
 72
0
 73
1
 93
4
 10
6204.000000000001
 20
7656.000000000001
 10
6547.200000000001
 20
7656.000000000001
 10
6547.200000000001
 20
7612.000000000001
 10
6204.000000000001
 20
7612.000000000001
 97
0
 75
1
 76
1
 98
0
  0
LWPOLYLINE
  5
55
330
17
100
AcDbEntity
  8
WALL
100
AcDbPolyline
 90
4
 70
1
 10
7682.400000000001
 20
6696.8
 10
8342.400000000001
 20
6696.8
 10
8342.400000000001
 20
6635.200000000001
 10
7682.400000000001
 20
6635.200000000001
  0
HATCH
  5
56
330
17
100
AcDbEntity
  8
WALL
100
AcDbHatch
 10
0.0
 20
0.0
 30
0.0
210
0.0
220
0.0
230
1.0
  2
SOLID
 70
1
 71
0
 91
1
 92
3
 72
0
 73
1
 93
4
 10
7682.400000000001
 20
6696.8
 10
8342.400000000001
 20
6696.8
 10
8342.400000000001
 20
6635.200000000001
 10
7682.400000000001
 20
6635.200000000001
 97
0
 75
1
 76
1
 98
0
  0
LWPOLYLINE
  5
57
330
17
100
AcDbEntity
  8
WALL
100
AcDbPolyline
 90
4
 70
1
 10
8492.0
 20
5834.400000000001
 10
8905.6
 20
5834.400000000001
 10
8905.6
 20
5781.6
 10
8492.0
 20
5781.6
  0
HATCH
  5
58
330
17
100
AcDbEntity
  8
WALL
100
AcDbHatch
 10
0.0
 20
0.0
 30
0.0
210
0.0
220
0.0
230
1.0
  2
SOLID
 70
1
 71
0
 91
1
 92
3
 72
0
 73
1
 93
4
 10
8492.0
 20
5834.400000000001
 10
8905.6
 20
5834.400000000001
 10
8905.6
 20
5781.6
 10
8492.0
 20
5781.6
 97
0
 75
1
 76
1
 98
0
  0
LWPOLYLINE
  5
59
330
17
100
AcDbEntity
  8
WALL
100
AcDbPolyline
 90
4
 70
1
 10
8932.0
 20
5834.400000000001
 10
9169.6
 20
5834.400000000001
 10
9169.6
 20
5781.6
 10
8932.0
 20
5781.6
  0
HATCH
  5
5A
330
17
100
AcDbEntity
  8
WALL
100
AcDbHatch
 10
0.0
 20
0.0
 30
0.0
210
0.0
220
0.0
230
1.0
  2
SOLID
 70
1
 71
0
 91
1
 92
3
 72
0
 73
1
 93
4
 10
8932.0
 20
5834.400000000001
 10
9169.6
 20
5834.400000000001
 10
9169.6
 20
5781.6
 10
8932.0
 20
5781.6
 97
0
 75
1
 76
1
 98
0
  0
LWPOLYLINE
  5
5B
330
17
100
AcDbEntity
  8
WALL
100
AcDbPolyline
 90
4
 70
1
 10
6749.6
 20
5623.200000000001
 10
7057.6
 20
5623.200000000001
 10
7057.6
 20
5570.400000000001
 10
6749.6
 20
5570.400000000001
  0
HATCH
  5
5C
330
17
100
AcDbEntity
  8
WALL
100
AcDbHatch
 10
0.0
 20
0.0
 30
0.0
210
0.0
220
0.0
230
1.0
  2
SOLID
 70
1
 71
0
 91
1
 92
3
 72
0
 73
1
 93
4
 10
6749.6
 20
5623.200000000001
 10
7057.6
 20
5623.200000000001
 10
7057.6
 20
5570.400000000001
 10
6749.6
 20
5570.400000000001
 97
0
 75
1
 76
1
 98
0
  0
LWPOLYLINE
  5
5D
330
17
100
AcDbEntity
  8
WALL
100
AcDbPolyline
 90
4
 70
1
 10
7189.6
 20
5517.6
 10
7620.8
 20
5517.6
 10
7620.8
 20
5447.200000000001
 10
7189.6
 20
5447.200000000001
  0
HATCH
  5
5E
330
17
100
AcDbEntity
  8
WALL
100
AcDbHatch
 10
0.0
 20
0.0
 30
0.0
210
0.0
220
0.0
230
1.0
  2
SOLID
 70
1
 71
0
 91
1
 92
3
 72
0
 73
1
 93
4
 10
7189.6
 20
5517.6
 10
7620.8
 20
5517.6
 10
7620.8
 20
5447.200000000001
 10
7189.6
 20
5447.200000000001
 97
0
 75
1
 76
1
 98
0
  0
LWPOLYLINE
  5
5F
330
17
100
AcDbEntity
  8
WALL
100
AcDbPolyline
 90
4
 70
1
 10
334.40000000000003
 20
5500.0
 10
968.0000000000001
 20
5500.0
 10
968.0000000000001
 20
5359.200000000001
 10
334.40000000000003
 20
5359.200000000001
  0
HATCH
  5
60
330
17
100
AcDbEntity
  8
WALL
100
AcDbHatch
 10
0.0
 20
0.0
 30
0.0
210
0.0
220
0.0
230
1.0
  2
SOLID
 70
1
 71
0
 91
1
 92
3
 72
0
 73
1
 93
4
 10
334.40000000000003
 20
5500.0
 10
968.0000000000001
 20
5500.0
 10
968.0000000000001
 20
5359.200000000001
 10
334.40000000000003
 20
5359.200000000001
 97
0
 75
1
 76
1
 98
0
  0
LWPOLYLINE
  5
61
330
17
100
AcDbEntity
  8
WALL
100
AcDbPolyline
 90
4
 70
1
 10
2956.8
 20
5447.200000000001
 10
3907.2000000000003
 20
5447.200000000001
 10
3907.2000000000003
 20
5359.200000000001
 10
2956.8
 20
5359.200000000001
  0
HATCH
  5
62
330
17
100
AcDbEntity
  8
WALL
100
AcDbHatch
 10
0.0
 20
0.0
 30
0.0
210
0.0
220
0.0
230
1.0
  2
SOLID
 70
1
 71
0
 91
1
 92
3
 72
0
 73
1
 93
4
 10
2956.8
 20
5447.200000000001
 10
3907.2000000000003
 20
5447.200000000001
 10
3907.2000000000003
 20
5359.200000000001
 10
2956.8
 20
5359.200000000001
 97
0
 75
1
 76
1
 98
0
  0
LWPOLYLINE
  5
63
330
17
100
AcDbEntity
  8
WALL
100
AcDbPolyline
 90
4
 70
1
 10
2094.4
 20
5420.8
 10
2622.4
 20
5420.8
 10
2622.4
 20
5359.200000000001
 10
2094.4
 20
5359.200000000001
  0
HATCH
  5
64
330
17
100
AcDbEntity
  8
WALL
100
AcDbHatch
 10
0.0
 20
0.0
 30
0.0
210
0.0
220
0.0
230
1.0
  2
SOLID
 70
1
 71
0
 91
1
 92
3
 72
0
 73
1
 93
4
 10
2094.4
 20
5420.8
 10
2622.4
 20
5420.8
 10
2622.4
 20
5359.200000000001
 10
2094.4
 20
5359.200000000001
 97
0
 75
1
 76
1
 98
0
  0
LWPOLYLINE
  5
65
330
17
100
AcDbEntity
  8
WALL
100
AcDbPolyline
 90
4
 70
1
 10
2657.6000000000004
 20
5412.0
 10
2886.4
 20
5412.0
 10
2886.4
 20
5368.0
 10
2657.6000000000004
 20
5368.0
  0
HATCH
  5
66
330
17
100
AcDbEntity
  8
WALL
100
AcDbHatch
 10
0.0
 20
0.0
 30
0.0
210
0.0
220
0.0
230
1.0
  2
SOLID
 70
1
 71
0
 91
1
 92
3
 72
0
 73
1
 93
4
 10
2657.6000000000004
 20
5412.0
 10
2886.4
 20
5412.0
 10
2886.4
 20
5368.0
 10
2657.6000000000004
 20
5368.0
 97
0
 75
1
 76
1
 98
0
  0
LWPOLYLINE
  5
67
330
17
100
AcDbEntity
  8
WALL
100
AcDbPolyline
 90
4
 70
1
 10
6564.8
 20
5412.0
 10
6952.000000000001
 20
5412.0
 10
6952.000000000001
 20
5359.200000000001
 10
6564.8
 20
5359.200000000001
  0
HATCH
  5
68
330
17
100
AcDbEntity
  8
WALL
100
AcDbHatch
 10
0.0
 20
0.0
 30
0.0
210
0.0
220
0.0
230
1.0
  2
SOLID
 70
1
 71
0
 91
1
 92
3
 72
0
 73
1
 93
4
 10
6564.8
 20
5412.0
 10
6952.000000000001
 20
5412.0
 10
6952.000000000001
 20
5359.200000000001
 10
6564.8
 20
5359.200000000001
 97
0
 75
1
 76
1
 98
0
  0
LWPOLYLINE
  5
69
330
17
100
AcDbEntity
  8
WALL
100
AcDbPolyline
 90
4
 70
1
 10
6969.6
 20
5412.0
 10
7198.400000000001
 20
5412.0
 10
7198.400000000001
 20
5368.0
 10
6969.6
 20
5368.0
  0
HATCH
  5
6A
330
17
100
AcDbEntity
  8
WALL
100
AcDbHatch
 10
0.0
 20
0.0
 30
0.0
210
0.0
220
0.0
230
1.0
  2
SOLID
 70
1
 71
0
 91
1
 92
3
 72
0
 73
1
 93
4
 10
6969.6
 20
5412.0
 10
7198.400000000001
 20
5412.0
 10
7198.400000000001
 20
5368.0
 10
6969.6
 20
5368.0
 97
0
 75
1
 76
1
 98
0
  0
LWPOLYLINE
  5
6B
330
17
100
AcDbEntity
  8
WALL
100
AcDbPolyline
 90
4
 70
1
 10
7207.200000000001
 20
5420.8
 10
9363.2
 20
5420.8
 10
9363.2
 20
5324.0
 10
7207.200000000001
 20
5324.0
  0
HATCH
  5
6C
330
17
100
AcDbEntity
  8
WALL
100
AcDbHatch
 10
0.0
 20
0.0
 30
0.0
210
0.0
220
0.0
230
1.0
  2
SOLID
 70
1
 71
0
 91
1
 92
3
 72
0
 73
1
 93
4
 10
7207.200000000001
 20
5420.8
 10
9363.2
 20
5420.8
 10
9363.2
 20
5324.0
 10
7207.200000000001
 20
5324.0
 97
0
 75
1
 76
1
 98
0
  0
LWPOLYLINE
  5
6D
330
17
100
AcDbEntity
  8
WALL
100
AcDbPolyline
 90
4
 70
1
 10
1848.0000000000002
 20
4699.200000000001
 10
2252.8
 20
4699.200000000001
 10
2252.8
 20
4637.6
 10
1848.0000000000002
 20
4637.6
  0
HATCH
  5
6E
330
17
100
AcDbEntity
  8
WALL
100
AcDbHatch
 10
0.0
 20
0.0
 30
0.0
210
0.0
220
0.0
230
1.0
  2
SOLID
 70
1
 71
0
 91
1
 92
3
 72
0
 73
1
 93
4
 10
1848.0000000000002
 20
4699.200000000001
 10
2252.8
 20
4699.200000000001
 10
2252.8
 20
4637.6
 10
1848.0000000000002
 20
4637.6
 97
0
 75
1
 76
1
 98
0
  0
LWPOLYLINE
  5
6F
330
17
100
AcDbEntity
  8
WALL
100
AcDbPolyline
 90
4
 70
1
 10
2499.2000000000003
 20
4690.400000000001
 10
3044.8
 20
4690.400000000001
 10
3044.8
 20
4637.6
 10
2499.2000000000003
 20
4637.6
  0
HATCH
  5
70
330
17
100
AcDbEntity
  8
WALL
100
AcDbHatch
 10
0.0
 20
0.0
 30
0.0
210
0.0
220
0.0
230
1.0
  2
SOLID
 70
1
 71
0
 91
1
 92
3
 72
0
 73
1
 93
4
 10
2499.2000000000003
 20
4690.400000000001
 10
3044.8
 20
4690.400000000001
 10
3044.8
 20
4637.6
 10
2499.2000000000003
 20
4637.6
 97
0
 75
1
 76
1
 98
0
  0
LWPOLYLINE
  5
71
330
17
100
AcDbEntity
  8
WALL
100
AcDbPolyline
 90
4
 70
1
 10
3185.6000000000004
 20
4690.400000000001
 10
3960.0000000000005
 20
4690.400000000001
 10
3960.0000000000005
 20
4637.6
 10
3185.6000000000004
 20
4637.6
  0
HATCH
  5
72
330
17
100
AcDbEntity
  8
WALL
100
AcDbHatch
 10
0.0
 20
0.0
 30
0.0
210
0.0
220
0.0
230
1.0
  2
SOLID
 70
1
 71
0
 91
1
 92
3
 72
0
 73
1
 93
4
 10
3185.6000000000004
 20
4690.400000000001
 10
3960.0000000000005
 20
4690.400000000001
 10
3960.0000000000005
 20
4637.6
 10
3185.6000000000004
 20
4637.6
 97
0
 75
1
 76
1
 98
0
  0
LWPOLYLINE
  5
73
330
17
100
AcDbEntity
  8
WALL
100
AcDbPolyline
 90
4
 70
1
 10
3977.6000000000004
 20
4690.400000000001
 10
4364.8
 20
4690.400000000001
 10
4364.8
 20
4637.6
 10
3977.6000000000004
 20
4637.6
  0
HATCH
  5
74
330
17
100
AcDbEntity
  8
WALL
100
AcDbHatch
 10
0.0
 20
0.0
 30
0.0
210
0.0
220
0.0
230
1.0
  2
SOLID
 70
1
 71
0
 91
1
 92
3
 72
0
 73
1
 93
4
 10
3977.6000000000004
 20
4690.400000000001
 10
4364.8
 20
4690.400000000001
 10
4364.8
 20
4637.6
 10
3977.6000000000004
 20
4637.6
 97
0
 75
1
 76
1
 98
0
  0
LWPOLYLINE
  5
75
330
17
100
AcDbEntity
  8
WALL
100
AcDbPolyline
 90
4
 70
1
 10
2270.4
 20
4681.6
 10
2481.6000000000004
 20
4681.6
 10
2481.6000000000004
 20
4655.200000000001
 10
2270.4
 20
4655.200000000001
  0
HATCH
  5
76
330
17
100
AcDbEntity
  8
WALL
100
AcDbHatch
 10
0.0
 20
0.0
 30
0.0
210
0.0
220
0.0
230
1.0
  2
SOLID
 70
1
 71
0
 91
1
 92
3
 72
0
 73
1
 93
4
 10
2270.4
 20
4681.6
 10
2481.6000000000004
 20
4681.6
 10
2481.6000000000004
 20
4655.200000000001
 10
2270.4
 20
4655.200000000001
 97
0
 75
1
 76
1
 98
0
  0
LWPOLYLINE
  5
77
330
17
100
AcDbEntity
  8
WALL
100
AcDbPolyline
 90
4
 70
1
 10
5649.6
 20
4153.6
 10
6512.000000000001
 20
4153.6
 10
6512.000000000001
 20
4092.0000000000005
 10
5649.6
 20
4092.0000000000005
  0
HATCH
  5
78
330
17
100
AcDbEntity
  8
WALL
100
AcDbHatch
 10
0.0
 20
0.0
 30
0.0
210
0.0
220
0.0
230
1.0
  2
SOLID
 70
1
 71
0
 91
1
 92
3
 72
0
 73
1
 93
4
 10
5649.6
 20
4153.6
 10
6512.000000000001
 20
4153.6
 10
6512.000000000001
 20
4092.0000000000005
 10
5649.6
 20
4092.0000000000005
 97
0
 75
1
 76
1
 98
0
  0
LWPOLYLINE
  5
79
330
17
100
AcDbEntity
  8
WALL
100
AcDbPolyline
 90
4
 70
1
 10
8219.2
 20
4109.6
 10
9363.2
 20
4109.6
 10
9363.2
 20
3968.8
 10
8219.2
 20
3968.8
  0
HATCH
  5
7A
330
17
100
AcDbEntity
  8
WALL
100
AcDbHatch
 10
0.0
 20
0.0
 30
0.0
210
0.0
220
0.0
230
1.0
  2
SOLID
 70
1
 71
0
 91
1
 92
3
 72
0
 73
1
 93
4
 10
8219.2
 20
4109.6
 10
9363.2
 20
4109.6
 10
9363.2
 20
3968.8
 10
8219.2
 20
3968.8
 97
0
 75
1
 76
1
 98
0
  0
LWPOLYLINE
  5
7B
330
17
100
AcDbEntity
  8
WALL
100
AcDbPolyline
 90
4
 70
1
 10
8606.400000000001
 20
3845.6000000000004
 10
9750.400000000001
 20
3845.6000000000004
 10
9750.400000000001
 20
3687.2000000000003
 10
8606.400000000001
 20
3687.2000000000003
  0
HATCH
  5
7C
330
17
100
AcDbEntity
  8
WALL
100
AcDbHatch
 10
0.0
 20
0.0
 30
0.0
210
0.0
220
0.0
230
1.0
  2
SOLID
 70
1
 71
0
 91
1
 92
3
 72
0
 73
1
 93
4
 10
8606.400000000001
 20
3845.6000000000004
 10
9750.400000000001
 20
3845.6000000000004
 10
9750.400000000001
 20
3687.2000000000003
 10
8606.400000000001
 20
3687.2000000000003
 97
0
 75
1
 76
1
 98
0
  0
LWPOLYLINE
  5
7D
330
17
100
AcDbEntity
  8
WALL
100
AcDbPolyline
 90
4
 70
1
 10
7251.200000000001
 20
3792.8
 10
8588.800000000001
 20
3792.8
 10
8588.800000000001
 20
3687.2000000000003
 10
7251.200000000001
 20
3687.2000000000003
  0
HATCH
  5
7E
330
17
100
AcDbEntity
  8
WALL
100
AcDbHatch
 10
0.0
 20
0.0
 30
0.0
210
0.0
220
0.0
230
1.0
  2
SOLID
 70
1
 71
0
 91
1
 92
3
 72
0
 73
1
 93
4
 10
7251.200000000001
 20
3792.8
 10
8588.800000000001
 20
3792.8
 10
8588.800000000001
 20
3687.2000000000003
 10
7251.200000000001
 20
3687.2000000000003
 97
0
 75
1
 76
1
 98
0
  0
LWPOLYLINE
  5
7F
330
17
100
AcDbEntity
  8
WALL
100
AcDbPolyline
 90
4
 70
1
 10
6652.8
 20
3757.6000000000004
 10
7216.000000000001
 20
3757.6000000000004
 10
7216.000000000001
 20
3687.2000000000003
 10
6652.8
 20
3687.2000000000003
  0
HATCH
  5
80
330
17
100
AcDbEntity
  8
WALL
100
AcDbHatch
 10
0.0
 20
0.0
 30
0.0
210
0.0
220
0.0
230
1.0
  2
SOLID
 70
1
 71
0
 91
1
 92
3
 72
0
 73
1
 93
4
 10
6652.8
 20
3757.6000000000004
 10
7216.000000000001
 20
3757.6000000000004
 10
7216.000000000001
 20
3687.2000000000003
 10
6652.8
 20
3687.2000000000003
 97
0
 75
1
 76
1
 98
0
  0
LWPOLYLINE
  5
81
330
17
100
AcDbEntity
  8
WALL
100
AcDbPolyline
 90
4
 70
1
 10
9539.2
 20
3713.6000000000004
 10
9750.400000000001
 20
3713.6000000000004
 10
9750.400000000001
 20
3660.8
 10
9539.2
 20
3660.8
  0
HATCH
  5
82
330
17
100
AcDbEntity
  8
WALL
100
AcDbHatch
 10
0.0
 20
0.0
 30
0.0
210
0.0
220
0.0
230
1.0
  2
SOLID
 70
1
 71
0
 91
1
 92
3
 72
0
 73
1
 93
4
 10
9539.2
 20
3713.6000000000004
 10
9750.400000000001
 20
3713.6000000000004
 10
9750.400000000001
 20
3660.8
 10
9539.2
 20
3660.8
 97
0
 75
1
 76
1
 98
0
  0
LWPOLYLINE
  5
83
330
17
100
AcDbEntity
  8
WALL
100
AcDbPolyline
 90
4
 70
1
 10
9521.6
 20
3467.2000000000003
 10
9750.400000000001
 20
3467.2000000000003
 10
9750.400000000001
 20
3414.4
 10
9521.6
 20
3414.4
  0
HATCH
  5
84
330
17
100
AcDbEntity
  8
WALL
100
AcDbHatch
 10
0.0
 20
0.0
 30
0.0
210
0.0
220
0.0
230
1.0
  2
SOLID
 70
1
 71
0
 91
1
 92
3
 72
0
 73
1
 93
4
 10
9521.6
 20
3467.2000000000003
 10
9750.400000000001
 20
3467.2000000000003
 10
9750.400000000001
 20
3414.4
 10
9521.6
 20
3414.4
 97
0
 75
1
 76
1
 98
0
  0
LWPOLYLINE
  5
85
330
17
100
AcDbEntity
  8
WALL
100
AcDbPolyline
 90
4
 70
1
 10
2349.6000000000004
 20
3388.0000000000005
 10
4347.200000000001
 20
3388.0000000000005
 10
4347.200000000001
 20
3247.2000000000003
 10
2349.6000000000004
 20
3247.2000000000003
  0
HATCH
  5
86
330
17
100
AcDbEntity
  8
WALL
100
AcDbHatch
 10
0.0
 20
0.0
 30
0.0
210
0.0
220
0.0
230
1.0
  2
SOLID
 70
1
 71
0
 91
1
 92
3
 72
0
 73
1
 93
4
 10
2349.6000000000004
 20
3388.0000000000005
 10
4347.200000000001
 20
3388.0000000000005
 10
4347.200000000001
 20
3247.2000000000003
 10
2349.6000000000004
 20
3247.2000000000003
 97
0
 75
1
 76
1
 98
0
  0
LWPOLYLINE
  5
87
330
17
100
AcDbEntity
  8
WALL
100
AcDbPolyline
 90
4
 70
1
 10
9521.6
 20
3352.8
 10
9750.400000000001
 20
3352.8
 10
9750.400000000001
 20
3335.2000000000003
 10
9521.6
 20
3335.2000000000003
  0
HATCH
  5
88
330
17
100
AcDbEntity
  8
WALL
100
AcDbHatch
 10
0.0
 20
0.0
 30
0.0
210
0.0
220
0.0
230
1.0
  2
SOLID
 70
1
 71
0
 91
1
 92
3
 72
0
 73
1
 93
4
 10
9521.6
 20
3352.8
 10
9750.400000000001
 20
3352.8
 10
9750.400000000001
 20
3335.2000000000003
 10
9521.6
 20
3335.2000000000003
 97
0
 75
1
 76
1
 98
0
  0
LWPOLYLINE
  5
89
330
17
100
AcDbEntity
  8
WALL
100
AcDbPolyline
 90
4
 70
1
 10
8747.2
 20
3273.6000000000004
 10
9231.2
 20
3273.6000000000004
 10
9231.2
 20
3194.4
 10
8747.2
 20
3194.4
  0
HATCH
  5
8A
330
17
100
AcDbEntity
  8
WALL
100
AcDbHatch
 10
0.0
 20
0.0
 30
0.0
210
0.0
220
0.0
230
1.0
  2
SOLID
 70
1
 71
0
 91
1
 92
3
 72
0
 73
1
 93
4
 10
8747.2
 20
3273.6000000000004
 10
9231.2
 20
3273.6000000000004
 10
9231.2
 20
3194.4
 10
8747.2
 20
3194.4
 97
0
 75
1
 76
1
 98
0
  0
LWPOLYLINE
  5
8B
330
17
100
AcDbEntity
  8
WALL
100
AcDbPolyline
 90
4
 70
1
 10
2631.2000000000003
 20
3256.0000000000005
 10
3062.4
 20
3256.0000000000005
 10
3062.4
 20
3194.4
 10
2631.2000000000003
 20
3194.4
  0
HATCH
  5
8C
330
17
100
AcDbEntity
  8
WALL
100
AcDbHatch
 10
0.0
 20
0.0
 30
0.0
210
0.0
220
0.0
230
1.0
  2
SOLID
 70
1
 71
0
 91
1
 92
3
 72
0
 73
1
 93
4
 10
2631.2000000000003
 20
3256.0000000000005
 10
3062.4
 20
3256.0000000000005
 10
3062.4
 20
3194.4
 10
2631.2000000000003
 20
3194.4
 97
0
 75
1
 76
1
 98
0
  0
LWPOLYLINE
  5
8D
330
17
100
AcDbEntity
  8
WALL
100
AcDbPolyline
 90
4
 70
1
 10
9521.6
 20
3238.4
 10
9750.400000000001
 20
3238.4
 10
9750.400000000001
 20
3176.8
 10
9521.6
 20
3176.8
  0
HATCH
  5
8E
330
17
100
AcDbEntity
  8
WALL
100
AcDbHatch
 10
0.0
 20
0.0
 30
0.0
210
0.0
220
0.0
230
1.0
  2
SOLID
 70
1
 71
0
 91
1
 92
3
 72
0
 73
1
 93
4
 10
9521.6
 20
3238.4
 10
9750.400000000001
 20
3238.4
 10
9750.400000000001
 20
3176.8
 10
9521.6
 20
3176.8
 97
0
 75
1
 76
1
 98
0
  0
LWPOLYLINE
  5
8F
330
17
100
AcDbEntity
  8
WALL
100
AcDbPolyline
 90
4
 70
1
 10
9072.800000000001
 20
3203.2000000000003
 10
9328.0
 20
3203.2000000000003
 10
9328.0
 20
3168.0000000000005
 10
9072.800000000001
 20
3168.0000000000005
  0
HATCH
  5
90
330
17
100
AcDbEntity
  8
WALL
100
AcDbHatch
 10
0.0
 20
0.0
 30
0.0
210
0.0
220
0.0
230
1.0
  2
SOLID
 70
1
 71
0
 91
1
 92
3
 72
0
 73
1
 93
4
 10
9072.800000000001
 20
3203.2000000000003
 10
9328.0
 20
3203.2000000000003
 10
9328.0
 20
3168.0000000000005
 10
9072.800000000001
 20
3168.0000000000005
 97
0
 75
1
 76
1
 98
0
  0
LWPOLYLINE
  5
91
330
17
100
AcDbEntity
  8
WALL
100
AcDbPolyline
 90
4
 70
1
 10
9521.6
 20
3097.6000000000004
 10
9750.400000000001
 20
3097.6000000000004
 10
9750.400000000001
 20
3027.2000000000003
 10
9521.6
 20
3027.2000000000003
  0
HATCH
  5
92
330
17
100
AcDbEntity
  8
WALL
100
AcDbHatch
 10
0.0
 20
0.0
 30
0.0
210
0.0
220
0.0
230
1.0
  2
SOLID
 70
1
 71
0
 91
1
 92
3
 72
0
 73
1
 93
4
 10
9521.6
 20
3097.6000000000004
 10
9750.400000000001
 20
3097.6000000000004
 10
9750.400000000001
 20
3027.2000000000003
 10
9521.6
 20
3027.2000000000003
 97
0
 75
1
 76
1
 98
0
  0
LWPOLYLINE
  5
93
330
17
100
AcDbEntity
  8
WALL
100
AcDbPolyline
 90
4
 70
1
 10
5948.8
 20
2965.6000000000004
 10
6371.200000000001
 20
2965.6000000000004
 10
6371.200000000001
 20
2895.2000000000003
 10
5948.8
 20
2895.2000000000003
  0
HATCH
  5
94
330
17
100
AcDbEntity
  8
WALL
100
AcDbHatch
 10
0.0
 20
0.0
 30
0.0
210
0.0
220
0.0
230
1.0
  2
SOLID
 70
1
 71
0
 91
1
 92
3
 72
0
 73
1
 93
4
 10
5948.8
 20
2965.6000000000004
 10
6371.200000000001
 20
2965.6000000000004
 10
6371.200000000001
 20
2895.2000000000003
 10
5948.8
 20
2895.2000000000003
 97
0
 75
1
 76
1
 98
0
  0
LWPOLYLINE
  5
95
330
17
100
AcDbEntity
  8
WALL
100
AcDbPolyline
 90
4
 70
1
 10
387.20000000000005
 20
2860.0000000000005
 10
1056.0
 20
2860.0000000000005
 10
1056.0
 20
2772.0
 10
387.20000000000005
 20
2772.0
  0
HATCH
  5
96
330
17
100
AcDbEntity
  8
WALL
100
AcDbHatch
 10
0.0
 20
0.0
 30
0.0
210
0.0
220
0.0
230
1.0
  2
SOLID
 70
1
 71
0
 91
1
 92
3
 72
0
 73
1
 93
4
 10
387.20000000000005
 20
2860.0000000000005
 10
1056.0
 20
2860.0000000000005
 10
1056.0
 20
2772.0
 10
387.20000000000005
 20
2772.0
 97
0
 75
1
 76
1
 98
0
  0
LWPOLYLINE
  5
97
330
17
100
AcDbEntity
  8
WALL
100
AcDbPolyline
 90
4
 70
1
 10
6512.000000000001
 20
2824.8
 10
6881.6
 20
2824.8
 10
6881.6
 20
2772.0
 10
6512.000000000001
 20
2772.0
  0
HATCH
  5
98
330
17
100
AcDbEntity
  8
WALL
100
AcDbHatch
 10
0.0
 20
0.0
 30
0.0
210
0.0
220
0.0
230
1.0
  2
SOLID
 70
1
 71
0
 91
1
 92
3
 72
0
 73
1
 93
4
 10
6512.000000000001
 20
2824.8
 10
6881.6
 20
2824.8
 10
6881.6
 20
2772.0
 10
6512.000000000001
 20
2772.0
 97
0
 75
1
 76
1
 98
0
  0
LWPOLYLINE
  5
99
330
17
100
AcDbEntity
  8
WALL
100
AcDbPolyline
 90
4
 70
1
 10
7110.400000000001
 20
2824.8
 10
7409.6
 20
2824.8
 10
7409.6
 20
2728.0
 10
7110.400000000001
 20
2728.0
  0
HATCH
  5
9A
330
17
100
AcDbEntity
  8
WALL
100
AcDbHatch
 10
0.0
 20
0.0
 30
0.0
210
0.0
220
0.0
230
1.0
  2
SOLID
 70
1
 71
0
 91
1
 92
3
 72
0
 73
1
 93
4
 10
7110.400000000001
 20
2824.8
 10
7409.6
 20
2824.8
 10
7409.6
 20
2728.0
 10
7110.400000000001
 20
2728.0
 97
0
 75
1
 76
1
 98
0
  0
LWPOLYLINE
  5
9B
330
17
100
AcDbEntity
  8
WALL
100
AcDbPolyline
 90
4
 70
1
 10
7972.800000000001
 20
2824.8
 10
8219.2
 20
2824.8
 10
8219.2
 20
2763.2000000000003
 10
7972.800000000001
 20
2763.2000000000003
  0
HATCH
  5
9C
330
17
100
AcDbEntity
  8
WALL
100
AcDbHatch
 10
0.0
 20
0.0
 30
0.0
210
0.0
220
0.0
230
1.0
  2
SOLID
 70
1
 71
0
 91
1
 92
3
 72
0
 73
1
 93
4
 10
7972.800000000001
 20
2824.8
 10
8219.2
 20
2824.8
 10
8219.2
 20
2763.2000000000003
 10
7972.800000000001
 20
2763.2000000000003
 97
0
 75
1
 76
1
 98
0
  0
LWPOLYLINE
  5
9D
330
17
100
AcDbEntity
  8
WALL
100
AcDbPolyline
 90
4
 70
1
 10
3405.6000000000004
 20
2349.6000000000004
 10
3669.6000000000004
 20
2349.6000000000004
 10
3669.6000000000004
 20
2305.6000000000004
 10
3405.6000000000004
 20
2305.6000000000004
  0
HATCH
  5
9E
330
17
100
AcDbEntity
  8
WALL
100
AcDbHatch
 10
0.0
 20
0.0
 30
0.0
210
0.0
220
0.0
230
1.0
  2
SOLID
 70
1
 71
0
 91
1
 92
3
 72
0
 73
1
 93
4
 10
3405.6000000000004
 20
2349.6000000000004
 10
3669.6000000000004
 20
2349.6000000000004
 10
3669.6000000000004
 20
2305.6000000000004
 10
3405.6000000000004
 20
2305.6000000000004
 97
0
 75
1
 76
1
 98
0
  0
LWPOLYLINE
  5
9F
330
17
100
AcDbEntity
  8
WALL
100
AcDbPolyline
 90
4
 70
1
 10
7057.6
 20
2349.6000000000004
 10
7902.400000000001
 20
2349.6000000000004
 10
7902.400000000001
 20
2226.4
 10
7057.6
 20
2226.4
  0
HATCH
  5
A0
330
17
100
AcDbEntity
  8
WALL
100
AcDbHatch
 10
0.0
 20
0.0
 30
0.0
210
0.0
220
0.0
230
1.0
  2
SOLID
 70
1
 71
0
 91
1
 92
3
 72
0
 73
1
 93
4
 10
7057.6
 20
2349.6000000000004
 10
7902.400000000001
 20
2349.6000000000004
 10
7902.400000000001
 20
2226.4
 10
7057.6
 20
2226.4
 97
0
 75
1
 76
1
 98
0
  0
LWPOLYLINE
  5
A1
330
17
100
AcDbEntity
  8
WALL
100
AcDbPolyline
 90
4
 70
1
 10
7057.6
 20
2217.6000000000004
 10
7286.400000000001
 20
2217.6000000000004
 10
7286.400000000001
 20
2173.6000000000004
 10
7057.6
 20
2173.6000000000004
  0
HATCH
  5
A2
330
17
100
AcDbEntity
  8
WALL
100
AcDbHatch
 10
0.0
 20
0.0
 30
0.0
210
0.0
220
0.0
230
1.0
  2
SOLID
 70
1
 71
0
 91
1
 92
3
 72
0
 73
1
 93
4
 10
7057.6
 20
2217.6000000000004
 10
7286.400000000001
 20
2217.6000000000004
 10
7286.400000000001
 20
2173.6000000000004
 10
7057.6
 20
2173.6000000000004
 97
0
 75
1
 76
1
 98
0
  0
LWPOLYLINE
  5
A3
330
17
100
AcDbEntity
  8
WALL
100
AcDbPolyline
 90
4
 70
1
 10
6987.200000000001
 20
2129.6000000000004
 10
7251.200000000001
 20
2129.6000000000004
 10
7251.200000000001
 20
2050.4
 10
6987.200000000001
 20
2050.4
  0
HATCH
  5
A4
330
17
100
AcDbEntity
  8
WALL
100
AcDbHatch
 10
0.0
 20
0.0
 30
0.0
210
0.0
220
0.0
230
1.0
  2
SOLID
 70
1
 71
0
 91
1
 92
3
 72
0
 73
1
 93
4
 10
6987.200000000001
 20
2129.6000000000004
 10
7251.200000000001
 20
2129.6000000000004
 10
7251.200000000001
 20
2050.4
 10
6987.200000000001
 20
2050.4
 97
0
 75
1
 76
1
 98
0
  0
LWPOLYLINE
  5
A5
330
17
100
AcDbEntity
  8
WALL
100
AcDbPolyline
 90
4
 70
1
 10
8694.400000000001
 20
2103.2000000000003
 10
9081.6
 20
2103.2000000000003
 10
9081.6
 20
2015.2000000000003
 10
8694.400000000001
 20
2015.2000000000003
  0
HATCH
  5
A6
330
17
100
AcDbEntity
  8
WALL
100
AcDbHatch
 10
0.0
 20
0.0
 30
0.0
210
0.0
220
0.0
230
1.0
  2
SOLID
 70
1
 71
0
 91
1
 92
3
 72
0
 73
1
 93
4
 10
8694.400000000001
 20
2103.2000000000003
 10
9081.6
 20
2103.2000000000003
 10
9081.6
 20
2015.2000000000003
 10
8694.400000000001
 20
2015.2000000000003
 97
0
 75
1
 76
1
 98
0
  0
LWPOLYLINE
  5
A7
330
17
100
AcDbEntity
  8
WALL
100
AcDbPolyline
 90
4
 70
1
 10
8712.0
 20
1848.0000000000002
 10
8958.400000000001
 20
1848.0000000000002
 10
8958.400000000001
 20
1821.6000000000001
 10
8712.0
 20
1821.6000000000001
  0
HATCH
  5
A8
330
17
100
AcDbEntity
  8
WALL
100
AcDbHatch
 10
0.0
 20
0.0
 30
0.0
210
0.0
220
0.0
230
1.0
  2
SOLID
 70
1
 71
0
 91
1
 92
3
 72
0
 73
1
 93
4
 10
8712.0
 20
1848.0000000000002
 10
8958.400000000001
 20
1848.0000000000002
 10
8958.400000000001
 20
1821.6000000000001
 10
8712.0
 20
1821.6000000000001
 97
0
 75
1
 76
1
 98
0
  0
LWPOLYLINE
  5
A9
330
17
100
AcDbEntity
  8
WALL
100
AcDbPolyline
 90
4
 70
1
 10
2692.8
 20
1804.0000000000002
 10
3036.0000000000005
 20
1804.0000000000002
 10
3036.0000000000005
 20
1751.2
 10
2692.8
 20
1751.2
  0
HATCH
  5
AA
330
17
100
AcDbEntity
  8
WALL
100
AcDbHatch
 10
0.0
 20
0.0
 30
0.0
210
0.0
220
0.0
230
1.0
  2
SOLID
 70
1
 71
0
 91
1
 92
3
 72
0
 73
1
 93
4
 10
2692.8
 20
1804.0000000000002
 10
3036.0000000000005
 20
1804.0000000000002
 10
3036.0000000000005
 20
1751.2
 10
2692.8
 20
1751.2
 97
0
 75
1
 76
1
 98
0
  0
LWPOLYLINE
  5
AB
330
17
100
AcDbEntity
  8
WALL
100
AcDbPolyline
 90
4
 70
1
 10
3150.4
 20
1707.2
 10
3995.2000000000003
 20
1707.2
 10
3995.2000000000003
 20
1645.6000000000001
 10
3150.4
 20
1645.6000000000001
  0
HATCH
  5
AC
330
17
100
AcDbEntity
  8
WALL
100
AcDbHatch
 10
0.0
 20
0.0
 30
0.0
210
0.0
220
0.0
230
1.0
  2
SOLID
 70
1
 71
0
 91
1
 92
3
 72
0
 73
1
 93
4
 10
3150.4
 20
1707.2
 10
3995.2000000000003
 20
1707.2
 10
3995.2000000000003
 20
1645.6000000000001
 10
3150.4
 20
1645.6000000000001
 97
0
 75
1
 76
1
 98
0
  0
LWPOLYLINE
  5
AD
330
17
100
AcDbEntity
  8
WALL
100
AcDbPolyline
 90
4
 70
1
 10
6635.200000000001
 20
1284.8000000000002
 10
6916.8
 20
1284.8000000000002
 10
6916.8
 20
1240.8000000000002
 10
6635.200000000001
 20
1240.8000000000002
  0
HATCH
  5
AE
330
17
100
AcDbEntity
  8
WALL
100
AcDbHatch
 10
0.0
 20
0.0
 30
0.0
210
0.0
220
0.0
230
1.0
  2
SOLID
 70
1
 71
0
 91
1
 92
3
 72
0
 73
1
 93
4
 10
6635.200000000001
 20
1284.8000000000002
 10
6916.8
 20
1284.8000000000002
 10
6916.8
 20
1240.8000000000002
 10
6635.200000000001
 20
1240.8000000000002
 97
0
 75
1
 76
1
 98
0
  0
LWPOLYLINE
  5
AF
330
17
100
AcDbEntity
  8
WALL
100
AcDbPolyline
 90
4
 70
1
 10
8175.200000000001
 20
1284.8000000000002
 10
8518.400000000001
 20
1284.8000000000002
 10
8518.400000000001
 20
1196.8000000000002
 10
8175.200000000001
 20
1196.8000000000002
  0
HATCH
  5
B0
330
17
100
AcDbEntity
  8
WALL
100
AcDbHatch
 10
0.0
 20
0.0
 30
0.0
210
0.0
220
0.0
230
1.0
  2
SOLID
 70
1
 71
0
 91
1
 92
3
 72
0
 73
1
 93
4
 10
8175.200000000001
 20
1284.8000000000002
 10
8518.400000000001
 20
1284.8000000000002
 10
8518.400000000001
 20
1196.8000000000002
 10
8175.200000000001
 20
1196.8000000000002
 97
0
 75
1
 76
1
 98
0
  0
LWPOLYLINE
  5
B1
330
17
100
AcDbEntity
  8
WALL
100
AcDbPolyline
 90
4
 70
1
 10
4602.400000000001
 20
836.0000000000001
 10
4822.400000000001
 20
836.0000000000001
 10
4822.400000000001
 20
792.0000000000001
 10
4602.400000000001
 20
792.0000000000001
  0
HATCH
  5
B2
330
17
100
AcDbEntity
  8
WALL
100
AcDbHatch
 10
0.0
 20
0.0
 30
0.0
210
0.0
220
0.0
230
1.0
  2
SOLID
 70
1
 71
0
 91
1
 92
3
 72
0
 73
1
 93
4
 10
4602.400000000001
 20
836.0000000000001
 10
4822.400000000001
 20
836.0000000000001
 10
4822.400000000001
 20
792.0000000000001
 10
4602.400000000001
 20
792.0000000000001
 97
0
 75
1
 76
1
 98
0
  0
LWPOLYLINE
  5
B3
330
17
100
AcDbEntity
  8
WALL
100
AcDbPolyline
 90
4
 70
1
 10
4831.200000000001
 20
836.0000000000001
 10
5051.200000000001
 20
836.0000000000001
 10
5051.200000000001
 20
792.0000000000001
 10
4831.200000000001
 20
792.0000000000001
  0
HATCH
  5
B4
330
17
100
AcDbEntity
  8
WALL
100
AcDbHatch
 10
0.0
 20
0.0
 30
0.0
210
0.0
220
0.0
230
1.0
  2
SOLID
 70
1
 71
0
 91
1
 92
3
 72
0
 73
1
 93
4
 10
4831.200000000001
 20
836.0000000000001
 10
5051.200000000001
 20
836.0000000000001
 10
5051.200000000001
 20
792.0000000000001
 10
4831.200000000001
 20
792.0000000000001
 97
0
 75
1
 76
1
 98
0
  0
LWPOLYLINE
  5
B5
330
17
100
AcDbEntity
  8
WALL
100
AcDbPolyline
 90
4
 70
1
 10
6564.8
 20
809.6
 10
6899.200000000001
 20
809.6
 10
6899.200000000001
 20
748.0000000000001
 10
6564.8
 20
748.0000000000001
  0
HATCH
  5
B6
330
17
100
AcDbEntity
  8
WALL
100
AcDbHatch
 10
0.0
 20
0.0
 30
0.0
210
0.0
220
0.0
230
1.0
  2
SOLID
 70
1
 71
0
 91
1
 92
3
 72
0
 73
1
 93
4
 10
6564.8
 20
809.6
 10
6899.200000000001
 20
809.6
 10
6899.200000000001
 20
748.0000000000001
 10
6564.8
 20
748.0000000000001
 97
0
 75
1
 76
1
 98
0
  0
LWPOLYLINE
  5
B7
330
17
100
AcDbEntity
  8
WALL
100
AcDbPolyline
 90
4
 70
1
 10
8597.6
 20
800.8000000000001
 10
8817.6
 20
800.8000000000001
 10
8817.6
 20
756.8000000000001
 10
8597.6
 20
756.8000000000001
  0
HATCH
  5
B8
330
17
100
AcDbEntity
  8
WALL
100
AcDbHatch
 10
0.0
 20
0.0
 30
0.0
210
0.0
220
0.0
230
1.0
  2
SOLID
 70
1
 71
0
 91
1
 92
3
 72
0
 73
1
 93
4
 10
8597.6
 20
800.8000000000001
 10
8817.6
 20
800.8000000000001
 10
8817.6
 20
756.8000000000001
 10
8597.6
 20
756.8000000000001
 97
0
 75
1
 76
1
 98
0
  0
LWPOLYLINE
  5
B9
330
17
100
AcDbEntity
  8
WALL
100
AcDbPolyline
 90
4
 70
1
 10
8148.800000000001
 20
536.8000000000001
 10
8553.6
 20
536.8000000000001
 10
8553.6
 20
484.00000000000006
 10
8148.800000000001
 20
484.00000000000006
  0
HATCH
  5
BA
330
17
100
AcDbEntity
  8
WALL
100
AcDbHatch
 10
0.0
 20
0.0
 30
0.0
210
0.0
220
0.0
230
1.0
  2
SOLID
 70
1
 71
0
 91
1
 92
3
 72
0
 73
1
 93
4
 10
8148.800000000001
 20
536.8000000000001
 10
8553.6
 20
536.8000000000001
 10
8553.6
 20
484.00000000000006
 10
8148.800000000001
 20
484.00000000000006
 97
0
 75
1
 76
1
 98
0
  0
LWPOLYLINE
  5
BB
330
17
100
AcDbEntity
  8
WALL
100
AcDbPolyline
 90
4
 70
1
 10
2833.6000000000004
 20
325.6
 10
5403.200000000001
 20
325.6
 10
5403.200000000001
 20
202.4
 10
2833.6000000000004
 20
202.4
  0
HATCH
  5
BC
330
17
100
AcDbEntity
  8
WALL
100
AcDbHatch
 10
0.0
 20
0.0
 30
0.0
210
0.0
220
0.0
230
1.0
  2
SOLID
 70
1
 71
0
 91
1
 92
3
 72
0
 73
1
 93
4
 10
2833.6000000000004
 20
325.6
 10
5403.200000000001
 20
325.6
 10
5403.200000000001
 20
202.4
 10
2833.6000000000004
 20
202.4
 97
0
 75
1
 76
1
 98
0
  0
LWPOLYLINE
  5
BD
330
17
100
AcDbEntity
  8
WALL
100
AcDbPolyline
 90
4
 70
1
 10
6617.6
 20
325.6
 10
8747.2
 20
325.6
 10
8747.2
 20
202.4
 10
6617.6
 20
202.4
  0
HATCH
  5
BE
330
17
100
AcDbEntity
  8
WALL
100
AcDbHatch
 10
0.0
 20
0.0
 30
0.0
210
0.0
220
0.0
230
1.0
  2
SOLID
 70
1
 71
0
 91
1
 92
3
 72
0
 73
1
 93
4
 10
6617.6
 20
325.6
 10
8747.2
 20
325.6
 10
8747.2
 20
202.4
 10
6617.6
 20
202.4
 97
0
 75
1
 76
1
 98
0
  0
LWPOLYLINE
  5
BF
330
17
100
AcDbEntity
  8
WALL
100
AcDbPolyline
 90
4
 70
1
 10
281.6
 20
220.00000000000003
 10
880.0000000000001
 20
220.00000000000003
 10
880.0000000000001
 20
61.60000000000001
 10
281.6
 20
61.60000000000001
  0
HATCH
  5
C0
330
17
100
AcDbEntity
  8
WALL
100
AcDbHatch
 10
0.0
 20
0.0
 30
0.0
210
0.0
220
0.0
230
1.0
  2
SOLID
 70
1
 71
0
 91
1
 92
3
 72
0
 73
1
 93
4
 10
281.6
 20
220.00000000000003
 10
880.0000000000001
 20
220.00000000000003
 10
880.0000000000001
 20
61.60000000000001
 10
281.6
 20
61.60000000000001
 97
0
 75
1
 76
1
 98
0
  0
LWPOLYLINE
  5
C1
330
17
100
AcDbEntity
  8
WALL
100
AcDbPolyline
 90
4
 70
1
 10
1179.2
 20
228.8
 10
1742.4
 20
228.8
 10
1742.4
 20
96.80000000000001
 10
1179.2
 20
96.80000000000001
  0
HATCH
  5
C2
330
17
100
AcDbEntity
  8
WALL
100
AcDbHatch
 10
0.0
 20
0.0
 30
0.0
210
0.0
220
0.0
230
1.0
  2
SOLID
 70
1
 71
0
 91
1
 92
3
 72
0
 73
1
 93
4
 10
1179.2
 20
228.8
 10
1742.4
 20
228.8
 10
1742.4
 20
96.80000000000001
 10
1179.2
 20
96.80000000000001
 97
0
 75
1
 76
1
 98
0
  0
LWPOLYLINE
  5
C3
330
17
100
AcDbEntity
  8
WALL
100
AcDbPolyline
 90
4
 70
1
 10
4840.0
 20
9380.800000000001
 10
4919.200000000001
 20
9380.800000000001
 10
4919.200000000001
 20
9152.0
 10
4840.0
 20
9152.0
  0
HATCH
  5
C4
330
17
100
AcDbEntity
  8
WALL
100
AcDbHatch
 10
0.0
 20
0.0
 30
0.0
210
0.0
220
0.0
230
1.0
  2
SOLID
 70
1
 71
0
 91
1
 92
3
 72
0
 73
1
 93
4
 10
4840.0
 20
9380.800000000001
 10
4919.200000000001
 20
9380.800000000001
 10
4919.200000000001
 20
9152.0
 10
4840.0
 20
9152.0
 97
0
 75
1
 76
1
 98
0
  0
LWPOLYLINE
  5
C5
330
17
100
AcDbEntity
  8
WALL
100
AcDbPolyline
 90
4
 70
1
 10
4928.0
 20
9380.800000000001
 10
5007.200000000001
 20
9380.800000000001
 10
5007.200000000001
 20
9134.400000000001
 10
4928.0
 20
9134.400000000001
  0
HATCH
  5
C6
330
17
100
AcDbEntity
  8
WALL
100
AcDbHatch
 10
0.0
 20
0.0
 30
0.0
210
0.0
220
0.0
230
1.0
  2
SOLID
 70
1
 71
0
 91
1
 92
3
 72
0
 73
1
 93
4
 10
4928.0
 20
9380.800000000001
 10
5007.200000000001
 20
9380.800000000001
 10
5007.200000000001
 20
9134.400000000001
 10
4928.0
 20
9134.400000000001
 97
0
 75
1
 76
1
 98
0
  0
LWPOLYLINE
  5
C7
330
17
100
AcDbEntity
  8
WALL
100
AcDbPolyline
 90
4
 70
1
 10
6344.8
 20
9196.0
 10
6468.000000000001
 20
9196.0
 10
6468.000000000001
 20
8896.800000000001
 10
6344.8
 20
8896.800000000001
  0
HATCH
  5
C8
330
17
100
AcDbEntity
  8
WALL
100
AcDbHatch
 10
0.0
 20
0.0
 30
0.0
210
0.0
220
0.0
230
1.0
  2
SOLID
 70
1
 71
0
 91
1
 92
3
 72
0
 73
1
 93
4
 10
6344.8
 20
9196.0
 10
6468.000000000001
 20
9196.0
 10
6468.000000000001
 20
8896.800000000001
 10
6344.8
 20
8896.800000000001
 97
0
 75
1
 76
1
 98
0
  0
LWPOLYLINE
  5
C9
330
17
100
AcDbEntity
  8
WALL
100
AcDbPolyline
 90
4
 70
1
 10
4461.6
 20
9187.2
 10
4584.8
 20
9187.2
 10
4584.8
 20
8676.800000000001
 10
4461.6
 20
8676.800000000001
  0
HATCH
  5
CA
330
17
100
AcDbEntity
  8
WALL
100
AcDbHatch
 10
0.0
 20
0.0
 30
0.0
210
0.0
220
0.0
230
1.0
  2
SOLID
 70
1
 71
0
 91
1
 92
3
 72
0
 73
1
 93
4
 10
4461.6
 20
9187.2
 10
4584.8
 20
9187.2
 10
4584.8
 20
8676.800000000001
 10
4461.6
 20
8676.800000000001
 97
0
 75
1
 76
1
 98
0
  0
LWPOLYLINE
  5
CB
330
17
100
AcDbEntity
  8
WALL
100
AcDbPolyline
 90
4
 70
1
 10
6767.200000000001
 20
9160.800000000001
 10
6890.400000000001
 20
9160.800000000001
 10
6890.400000000001
 20
8888.0
 10
6767.200000000001
 20
8888.0
  0
HATCH
  5
CC
330
17
100
AcDbEntity
  8
WALL
100
AcDbHatch
 10
0.0
 20
0.0
 30
0.0
210
0.0
220
0.0
230
1.0
  2
SOLID
 70
1
 71
0
 91
1
 92
3
 72
0
 73
1
 93
4
 10
6767.200000000001
 20
9160.800000000001
 10
6890.400000000001
 20
9160.800000000001
 10
6890.400000000001
 20
8888.0
 10
6767.200000000001
 20
8888.0
 97
0
 75
1
 76
1
 98
0
  0
LWPOLYLINE
  5
CD
330
17
100
AcDbEntity
  8
WALL
100
AcDbPolyline
 90
4
 70
1
 10
4919.200000000001
 20
9125.6
 10
4980.8
 20
9125.6
 10
4980.8
 20
8905.6
 10
4919.200000000001
 20
8905.6
  0
HATCH
  5
CE
330
17
100
AcDbEntity
  8
WALL
100
AcDbHatch
 10
0.0
 20
0.0
 30
0.0
210
0.0
220
0.0
230
1.0
  2
SOLID
 70
1
 71
0
 91
1
 92
3
 72
0
 73
1
 93
4
 10
4919.200000000001
 20
9125.6
 10
4980.8
 20
9125.6
 10
4980.8
 20
8905.6
 10
4919.200000000001
 20
8905.6
 97
0
 75
1
 76
1
 98
0
  0
LWPOLYLINE
  5
CF
330
17
100
AcDbEntity
  8
WALL
100
AcDbPolyline
 90
4
 70
1
 10
2402.4
 20
8588.800000000001
 10
2490.4
 20
8588.800000000001
 10
2490.4
 20
8052.000000000001
 10
2402.4
 20
8052.000000000001
  0
HATCH
  5
D0
330
17
100
AcDbEntity
  8
WALL
100
AcDbHatch
 10
0.0
 20
0.0
 30
0.0
210
0.0
220
0.0
230
1.0
  2
SOLID
 70
1
 71
0
 91
1
 92
3
 72
0
 73
1
 93
4
 10
2402.4
 20
8588.800000000001
 10
2490.4
 20
8588.800000000001
 10
2490.4
 20
8052.000000000001
 10
2402.4
 20
8052.000000000001
 97
0
 75
1
 76
1
 98
0
  0
LWPOLYLINE
  5
D1
330
17
100
AcDbEntity
  8
WALL
100
AcDbPolyline
 90
4
 70
1
 10
9204.800000000001
 20
8562.400000000001
 10
9354.400000000001
 20
8562.400000000001
 10
9354.400000000001
 20
8113.6
 10
9204.800000000001
 20
8113.6
  0
HATCH
  5
D2
330
17
100
AcDbEntity
  8
WALL
100
AcDbHatch
 10
0.0
 20
0.0
 30
0.0
210
0.0
220
0.0
230
1.0
  2
SOLID
 70
1
 71
0
 91
1
 92
3
 72
0
 73
1
 93
4
 10
9204.800000000001
 20
8562.400000000001
 10
9354.400000000001
 20
8562.400000000001
 10
9354.400000000001
 20
8113.6
 10
9204.800000000001
 20
8113.6
 97
0
 75
1
 76
1
 98
0
  0
LWPOLYLINE
  5
D3
330
17
100
AcDbEntity
  8
WALL
100
AcDbPolyline
 90
4
 70
1
 10
8544.800000000001
 20
8553.6
 10
8597.6
 20
8553.6
 10
8597.6
 20
8236.800000000001
 10
8544.800000000001
 20
8236.800000000001
  0
HATCH
  5
D4
330
17
100
AcDbEntity
  8
WALL
100
AcDbHatch
 10
0.0
 20
0.0
 30
0.0
210
0.0
220
0.0
230
1.0
  2
SOLID
 70
1
 71
0
 91
1
 92
3
 72
0
 73
1
 93
4
 10
8544.800000000001
 20
8553.6
 10
8597.6
 20
8553.6
 10
8597.6
 20
8236.800000000001
 10
8544.800000000001
 20
8236.800000000001
 97
0
 75
1
 76
1
 98
0
  0
LWPOLYLINE
  5
D5
330
17
100
AcDbEntity
  8
WALL
100
AcDbPolyline
 90
4
 70
1
 10
8668.0
 20
8544.800000000001
 10
8720.800000000001
 20
8544.800000000001
 10
8720.800000000001
 20
8201.6
 10
8668.0
 20
8201.6
  0
HATCH
  5
D6
330
17
100
AcDbEntity
  8
WALL
100
AcDbHatch
 10
0.0
 20
0.0
 30
0.0
210
0.0
220
0.0
230
1.0
  2
SOLID
 70
1
 71
0
 91
1
 92
3
 72
0
 73
1
 93
4
 10
8668.0
 20
8544.800000000001
 10
8720.800000000001
 20
8544.800000000001
 10
8720.800000000001
 20
8201.6
 10
8668.0
 20
8201.6
 97
0
 75
1
 76
1
 98
0
  0
LWPOLYLINE
  5
D7
330
17
100
AcDbEntity
  8
WALL
100
AcDbPolyline
 90
4
 70
1
 10
1980.0000000000002
 20
8474.400000000001
 10
2006.4
 20
8474.400000000001
 10
2006.4
 20
8254.400000000001
 10
1980.0000000000002
 20
8254.400000000001
  0
HATCH
  5
D8
330
17
100
AcDbEntity
  8
WALL
100
AcDbHatch
 10
0.0
 20
0.0
 30
0.0
210
0.0
220
0.0
230
1.0
  2
SOLID
 70
1
 71
0
 91
1
 92
3
 72
0
 73
1
 93
4
 10
1980.0000000000002
 20
8474.400000000001
 10
2006.4
 20
8474.400000000001
 10
2006.4
 20
8254.400000000001
 10
1980.0000000000002
 20
8254.400000000001
 97
0
 75
1
 76
1
 98
0
  0
LWPOLYLINE
  5
D9
330
17
100
AcDbEntity
  8
WALL
100
AcDbPolyline
 90
4
 70
1
 10
5306.400000000001
 20
8316.0
 10
5350.400000000001
 20
8316.0
 10
5350.400000000001
 20
8078.400000000001
 10
5306.400000000001
 20
8078.400000000001
  0
HATCH
  5
DA
330
17
100
AcDbEntity
  8
WALL
100
AcDbHatch
 10
0.0
 20
0.0
 30
0.0
210
0.0
220
0.0
230
1.0
  2
SOLID
 70
1
 71
0
 91
1
 92
3
 72
0
 73
1
 93
4
 10
5306.400000000001
 20
8316.0
 10
5350.400000000001
 20
8316.0
 10
5350.400000000001
 20
8078.400000000001
 10
5306.400000000001
 20
8078.400000000001
 97
0
 75
1
 76
1
 98
0
  0
LWPOLYLINE
  5
DB
330
17
100
AcDbEntity
  8
WALL
100
AcDbPolyline
 90
4
 70
1
 10
6107.200000000001
 20
8113.6
 10
6204.000000000001
 20
8113.6
 10
6204.000000000001
 20
7673.6
 10
6107.200000000001
 20
7673.6
  0
HATCH
  5
DC
330
17
100
AcDbEntity
  8
WALL
100
AcDbHatch
 10
0.0
 20
0.0
 30
0.0
210
0.0
220
0.0
230
1.0
  2
SOLID
 70
1
 71
0
 91
1
 92
3
 72
0
 73
1
 93
4
 10
6107.200000000001
 20
8113.6
 10
6204.000000000001
 20
8113.6
 10
6204.000000000001
 20
7673.6
 10
6107.200000000001
 20
7673.6
 97
0
 75
1
 76
1
 98
0
  0
LWPOLYLINE
  5
DD
330
17
100
AcDbEntity
  8
WALL
100
AcDbPolyline
 90
4
 70
1
 10
6855.200000000001
 20
8104.800000000001
 10
6960.8
 20
8104.800000000001
 10
6960.8
 20
7392.000000000001
 10
6855.200000000001
 20
7392.000000000001
  0
HATCH
  5
DE
330
17
100
AcDbEntity
  8
WALL
100
AcDbHatch
 10
0.0
 20
0.0
 30
0.0
210
0.0
220
0.0
230
1.0
  2
SOLID
 70
1
 71
0
 91
1
 92
3
 72
0
 73
1
 93
4
 10
6855.200000000001
 20
8104.800000000001
 10
6960.8
 20
8104.800000000001
 10
6960.8
 20
7392.000000000001
 10
6855.200000000001
 20
7392.000000000001
 97
0
 75
1
 76
1
 98
0
  0
LWPOLYLINE
  5
DF
330
17
100
AcDbEntity
  8
WALL
100
AcDbPolyline
 90
4
 70
1
 10
4127.200000000001
 20
8096.000000000001
 10
4268.0
 20
8096.000000000001
 10
4268.0
 20
7550.400000000001
 10
4127.200000000001
 20
7550.400000000001
  0
HATCH
  5
E0
330
17
100
AcDbEntity
  8
WALL
100
AcDbHatch
 10
0.0
 20
0.0
 30
0.0
210
0.0
220
0.0
230
1.0
  2
SOLID
 70
1
 71
0
 91
1
 92
3
 72
0
 73
1
 93
4
 10
4127.200000000001
 20
8096.000000000001
 10
4268.0
 20
8096.000000000001
 10
4268.0
 20
7550.400000000001
 10
4127.200000000001
 20
7550.400000000001
 97
0
 75
1
 76
1
 98
0
  0
LWPOLYLINE
  5
E1
330
17
100
AcDbEntity
  8
WALL
100
AcDbPolyline
 90
4
 70
1
 10
4285.6
 20
7946.400000000001
 10
4294.400000000001
 20
7946.400000000001
 10
4294.400000000001
 20
7735.200000000001
 10
4285.6
 20
7735.200000000001
  0
HATCH
  5
E2
330
17
100
AcDbEntity
  8
WALL
100
AcDbHatch
 10
0.0
 20
0.0
 30
0.0
210
0.0
220
0.0
230
1.0
  2
SOLID
 70
1
 71
0
 91
1
 92
3
 72
0
 73
1
 93
4
 10
4285.6
 20
7946.400000000001
 10
4294.400000000001
 20
7946.400000000001
 10
4294.400000000001
 20
7735.200000000001
 10
4285.6
 20
7735.200000000001
 97
0
 75
1
 76
1
 98
0
  0
LWPOLYLINE
  5
E3
330
17
100
AcDbEntity
  8
WALL
100
AcDbPolyline
 90
4
 70
1
 10
6212.8
 20
7884.800000000001
 10
6221.6
 20
7884.800000000001
 10
6221.6
 20
7620.8
 10
6212.8
 20
7620.8
  0
HATCH
  5
E4
330
17
100
AcDbEntity
  8
WALL
100
AcDbHatch
 10
0.0
 20
0.0
 30
0.0
210
0.0
220
0.0
230
1.0
  2
SOLID
 70
1
 71
0
 91
1
 92
3
 72
0
 73
1
 93
4
 10
6212.8
 20
7884.800000000001
 10
6221.6
 20
7884.800000000001
 10
6221.6
 20
7620.8
 10
6212.8
 20
7620.8
 97
0
 75
1
 76
1
 98
0
  0
LWPOLYLINE
  5
E5
330
17
100
AcDbEntity
  8
WALL
100
AcDbPolyline
 90
4
 70
1
 10
5306.400000000001
 20
7691.200000000001
 10
5359.200000000001
 20
7691.200000000001
 10
5359.200000000001
 20
7444.8
 10
5306.400000000001
 20
7444.8
  0
HATCH
  5
E6
330
17
100
AcDbEntity
  8
WALL
100
AcDbHatch
 10
0.0
 20
0.0
 30
0.0
210
0.0
220
0.0
230
1.0
  2
SOLID
 70
1
 71
0
 91
1
 92
3
 72
0
 73
1
 93
4
 10
5306.400000000001
 20
7691.200000000001
 10
5359.200000000001
 20
7691.200000000001
 10
5359.200000000001
 20
7444.8
 10
5306.400000000001
 20
7444.8
 97
0
 75
1
 76
1
 98
0
  0
LWPOLYLINE
  5
E7
330
17
100
AcDbEntity
  8
WALL
100
AcDbPolyline
 90
4
 70
1
 10
6890.400000000001
 20
7400.8
 10
6952.000000000001
 20
7400.8
 10
6952.000000000001
 20
7163.200000000001
 10
6890.400000000001
 20
7163.200000000001
  0
HATCH
  5
E8
330
17
100
AcDbEntity
  8
WALL
100
AcDbHatch
 10
0.0
 20
0.0
 30
0.0
210
0.0
220
0.0
230
1.0
  2
SOLID
 70
1
 71
0
 91
1
 92
3
 72
0
 73
1
 93
4
 10
6890.400000000001
 20
7400.8
 10
6952.000000000001
 20
7400.8
 10
6952.000000000001
 20
7163.200000000001
 10
6890.400000000001
 20
7163.200000000001
 97
0
 75
1
 76
1
 98
0
  0
LWPOLYLINE
  5
E9
330
17
100
AcDbEntity
  8
WALL
100
AcDbPolyline
 90
4
 70
1
 10
4109.6
 20
7260.000000000001
 10
4215.200000000001
 20
7260.000000000001
 10
4215.200000000001
 20
6564.8
 10
4109.6
 20
6564.8
  0
HATCH
  5
EA
330
17
100
AcDbEntity
  8
WALL
100
AcDbHatch
 10
0.0
 20
0.0
 30
0.0
210
0.0
220
0.0
230
1.0
  2
SOLID
 70
1
 71
0
 91
1
 92
3
 72
0
 73
1
 93
4
 10
4109.6
 20
7260.000000000001
 10
4215.200000000001
 20
7260.000000000001
 10
4215.200000000001
 20
6564.8
 10
4109.6
 20
6564.8
 97
0
 75
1
 76
1
 98
0
  0
LWPOLYLINE
  5
EB
330
17
100
AcDbEntity
  8
WALL
100
AcDbPolyline
 90
4
 70
1
 10
4232.8
 20
7092.8
 10
4250.400000000001
 20
7092.8
 10
4250.400000000001
 20
6872.8
 10
4232.8
 20
6872.8
  0
HATCH
  5
EC
330
17
100
AcDbEntity
  8
WALL
100
AcDbHatch
 10
0.0
 20
0.0
 30
0.0
210
0.0
220
0.0
230
1.0
  2
SOLID
 70
1
 71
0
 91
1
 92
3
 72
0
 73
1
 93
4
 10
4232.8
 20
7092.8
 10
4250.400000000001
 20
7092.8
 10
4250.400000000001
 20
6872.8
 10
4232.8
 20
6872.8
 97
0
 75
1
 76
1
 98
0
  0
LWPOLYLINE
  5
ED
330
17
100
AcDbEntity
  8
WALL
100
AcDbPolyline
 90
4
 70
1
 10
4268.0
 20
5869.6
 10
4391.200000000001
 20
5869.6
 10
4391.200000000001
 20
5385.6
 10
4268.0
 20
5385.6
  0
HATCH
  5
EE
330
17
100
AcDbEntity
  8
WALL
100
AcDbHatch
 10
0.0
 20
0.0
 30
0.0
210
0.0
220
0.0
230
1.0
  2
SOLID
 70
1
 71
0
 91
1
 92
3
 72
0
 73
1
 93
4
 10
4268.0
 20
5869.6
 10
4391.200000000001
 20
5869.6
 10
4391.200000000001
 20
5385.6
 10
4268.0
 20
5385.6
 97
0
 75
1
 76
1
 98
0
  0
LWPOLYLINE
  5
EF
330
17
100
AcDbEntity
  8
WALL
100
AcDbPolyline
 90
4
 70
1
 10
9222.400000000001
 20
5878.400000000001
 10
9354.400000000001
 20
5878.400000000001
 10
9354.400000000001
 20
5315.200000000001
 10
9222.400000000001
 20
5315.200000000001
  0
HATCH
  5
F0
330
17
100
AcDbEntity
  8
WALL
100
AcDbHatch
 10
0.0
 20
0.0
 30
0.0
210
0.0
220
0.0
230
1.0
  2
SOLID
 70
1
 71
0
 91
1
 92
3
 72
0
 73
1
 93
4
 10
9222.400000000001
 20
5878.400000000001
 10
9354.400000000001
 20
5878.400000000001
 10
9354.400000000001
 20
5315.200000000001
 10
9222.400000000001
 20
5315.200000000001
 97
0
 75
1
 76
1
 98
0
  0
LWPOLYLINE
  5
F1
330
17
100
AcDbEntity
  8
WALL
100
AcDbPolyline
 90
4
 70
1
 10
1848.0000000000002
 20
5843.200000000001
 10
1909.6000000000001
 20
5843.200000000001
 10
1909.6000000000001
 20
5544.0
 10
1848.0000000000002
 20
5544.0
  0
HATCH
  5
F2
330
17
100
AcDbEntity
  8
WALL
100
AcDbHatch
 10
0.0
 20
0.0
 30
0.0
210
0.0
220
0.0
230
1.0
  2
SOLID
 70
1
 71
0
 91
1
 92
3
 72
0
 73
1
 93
4
 10
1848.0000000000002
 20
5843.200000000001
 10
1909.6000000000001
 20
5843.200000000001
 10
1909.6000000000001
 20
5544.0
 10
1848.0000000000002
 20
5544.0
 97
0
 75
1
 76
1
 98
0
  0
LWPOLYLINE
  5
F3
330
17
100
AcDbEntity
  8
WALL
100
AcDbPolyline
 90
4
 70
1
 10
1804.0000000000002
 20
5640.8
 10
1839.2
 20
5640.8
 10
1839.2
 20
5350.400000000001
 10
1804.0000000000002
 20
5350.400000000001
  0
HATCH
  5
F4
330
17
100
AcDbEntity
  8
WALL
100
AcDbHatch
 10
0.0
 20
0.0
 30
0.0
210
0.0
220
0.0
230
1.0
  2
SOLID
 70
1
 71
0
 91
1
 92
3
 72
0
 73
1
 93
4
 10
1804.0000000000002
 20
5640.8
 10
1839.2
 20
5640.8
 10
1839.2
 20
5350.400000000001
 10
1804.0000000000002
 20
5350.400000000001
 97
0
 75
1
 76
1
 98
0
  0
LWPOLYLINE
  5
F5
330
17
100
AcDbEntity
  8
WALL
100
AcDbPolyline
 90
4
 70
1
 10
5420.8
 20
5640.8
 10
5456.0
 20
5640.8
 10
5456.0
 20
5420.8
 10
5420.8
 20
5420.8
  0
HATCH
  5
F6
330
17
100
AcDbEntity
  8
WALL
100
AcDbHatch
 10
0.0
 20
0.0
 30
0.0
210
0.0
220
0.0
230
1.0
  2
SOLID
 70
1
 71
0
 91
1
 92
3
 72
0
 73
1
 93
4
 10
5420.8
 20
5640.8
 10
5456.0
 20
5640.8
 10
5456.0
 20
5420.8
 10
5420.8
 20
5420.8
 97
0
 75
1
 76
1
 98
0
  0
LWPOLYLINE
  5
F7
330
17
100
AcDbEntity
  8
WALL
100
AcDbPolyline
 90
4
 70
1
 10
862.4000000000001
 20
5341.6
 10
941.6
 20
5341.6
 10
941.6
 20
4646.400000000001
 10
862.4000000000001
 20
4646.400000000001
  0
HATCH
  5
F8
330
17
100
AcDbEntity
  8
WALL
100
AcDbHatch
 10
0.0
 20
0.0
 30
0.0
210
0.0
220
0.0
230
1.0
  2
SOLID
 70
1
 71
0
 91
1
 92
3
 72
0
 73
1
 93
4
 10
862.4000000000001
 20
5341.6
 10
941.6
 20
5341.6
 10
941.6
 20
4646.400000000001
 10
862.4000000000001
 20
4646.400000000001
 97
0
 75
1
 76
1
 98
0
  0
LWPOLYLINE
  5
F9
330
17
100
AcDbEntity
  8
WALL
100
AcDbPolyline
 90
4
 70
1
 10
4303.200000000001
 20
5262.400000000001
 10
4356.0
 20
5262.400000000001
 10
4356.0
 20
4628.8
 10
4303.200000000001
 20
4628.8
  0
HATCH
  5
FA
330
17
100
AcDbEntity
  8
WALL
100
AcDbHatch
 10
0.0
 20
0.0
 30
0.0
210
0.0
220
0.0
230
1.0
  2
SOLID
 70
1
 71
0
 91
1
 92
3
 72
0
 73
1
 93
4
 10
4303.200000000001
 20
5262.400000000001
 10
4356.0
 20
5262.400000000001
 10
4356.0
 20
4628.8
 10
4303.200000000001
 20
4628.8
 97
0
 75
1
 76
1
 98
0
  0
LWPOLYLINE
  5
FB
330
17
100
AcDbEntity
  8
WALL
100
AcDbPolyline
 90
4
 70
1
 10
79.2
 20
5244.8
 10
237.60000000000002
 20
5244.8
 10
237.60000000000002
 20
3062.4
 10
79.2
 20
3062.4
  0
HATCH
  5
FC
330
17
100
AcDbEntity
  8
WALL
100
AcDbHatch
 10
0.0
 20
0.0
 30
0.0
210
0.0
220
0.0
230
1.0
  2
SOLID
 70
1
 71
0
 91
1
 92
3
 72
0
 73
1
 93
4
 10
79.2
 20
5244.8
 10
237.60000000000002
 20
5244.8
 10
237.60000000000002
 20
3062.4
 10
79.2
 20
3062.4
 97
0
 75
1
 76
1
 98
0
  0
LWPOLYLINE
  5
FD
330
17
100
AcDbEntity
  8
WALL
100
AcDbPolyline
 90
4
 70
1
 10
343.20000000000005
 20
5165.6
 10
396.00000000000006
 20
5165.6
 10
396.00000000000006
 20
4787.200000000001
 10
343.20000000000005
 20
4787.200000000001
  0
HATCH
  5
FE
330
17
100
AcDbEntity
  8
WALL
100
AcDbHatch
 10
0.0
 20
0.0
 30
0.0
210
0.0
220
0.0
230
1.0
  2
SOLID
 70
1
 71
0
 91
1
 92
3
 72
0
 73
1
 93
4
 10
343.20000000000005
 20
5165.6
 10
396.00000000000006
 20
5165.6
 10
396.00000000000006
 20
4787.200000000001
 10
343.20000000000005
 20
4787.200000000001
 97
0
 75
1
 76
1
 98
0
  0
LWPOLYLINE
  5
FF
330
17
100
AcDbEntity
  8
WALL
100
AcDbPolyline
 90
4
 70
1
 10
9178.400000000001
 20
4523.200000000001
 10
9354.400000000001
 20
4523.200000000001
 10
9354.400000000001
 20
3678.4
 10
9178.400000000001
 20
3678.4
  0
HATCH
  5
100
330
17
100
AcDbEntity
  8
WALL
100
AcDbHatch
 10
0.0
 20
0.0
 30
0.0
210
0.0
220
0.0
230
1.0
  2
SOLID
 70
1
 71
0
 91
1
 92
3
 72
0
 73
1
 93
4
 10
9178.400000000001
 20
4523.200000000001
 10
9354.400000000001
 20
4523.200000000001
 10
9354.400000000001
 20
3678.4
 10
9178.400000000001
 20
3678.4
 97
0
 75
1
 76
1
 98
0
  0
LWPOLYLINE
  5
101
330
17
100
AcDbEntity
  8
WALL
100
AcDbPolyline
 90
4
 70
1
 10
7647.200000000001
 20
4408.8
 10
7735.200000000001
 20
4408.8
 10
7735.200000000001
 20
3678.4
 10
7647.200000000001
 20
3678.4
  0
HATCH
  5
102
330
17
100
AcDbEntity
  8
WALL
100
AcDbHatch
 10
0.0
 20
0.0
 30
0.0
210
0.0
220
0.0
230
1.0
  2
SOLID
 70
1
 71
0
 91
1
 92
3
 72
0
 73
1
 93
4
 10
7647.200000000001
 20
4408.8
 10
7735.200000000001
 20
4408.8
 10
7735.200000000001
 20
3678.4
 10
7647.200000000001
 20
3678.4
 97
0
 75
1
 76
1
 98
0
  0
LWPOLYLINE
  5
103
330
17
100
AcDbEntity
  8
WALL
100
AcDbPolyline
 90
4
 70
1
 10
976.8000000000001
 20
4320.8
 10
1020.8000000000001
 20
4320.8
 10
1020.8000000000001
 20
4100.8
 10
976.8000000000001
 20
4100.8
  0
HATCH
  5
104
330
17
100
AcDbEntity
  8
WALL
100
AcDbHatch
 10
0.0
 20
0.0
 30
0.0
210
0.0
220
0.0
230
1.0
  2
SOLID
 70
1
 71
0
 91
1
 92
3
 72
0
 73
1
 93
4
 10
976.8000000000001
 20
4320.8
 10
1020.8000000000001
 20
4320.8
 10
1020.8000000000001
 20
4100.8
 10
976.8000000000001
 20
4100.8
 97
0
 75
1
 76
1
 98
0
  0
LWPOLYLINE
  5
105
330
17
100
AcDbEntity
  8
WALL
100
AcDbPolyline
 90
4
 70
1
 10
8069.6
 20
4303.200000000001
 10
8122.400000000001
 20
4303.200000000001
 10
8122.400000000001
 20
3995.2000000000003
 10
8069.6
 20
3995.2000000000003
  0
HATCH
  5
106
330
17
100
AcDbEntity
  8
WALL
100
AcDbHatch
 10
0.0
 20
0.0
 30
0.0
210
0.0
220
0.0
230
1.0
  2
SOLID
 70
1
 71
0
 91
1
 92
3
 72
0
 73
1
 93
4
 10
8069.6
 20
4303.200000000001
 10
8122.400000000001
 20
4303.200000000001
 10
8122.400000000001
 20
3995.2000000000003
 10
8069.6
 20
3995.2000000000003
 97
0
 75
1
 76
1
 98
0
  0
LWPOLYLINE
  5
107
330
17
100
AcDbEntity
  8
WALL
100
AcDbPolyline
 90
4
 70
1
 10
8210.400000000001
 20
4118.400000000001
 10
8333.6
 20
4118.400000000001
 10
8333.6
 20
3678.4
 10
8210.400000000001
 20
3678.4
  0
HATCH
  5
108
330
17
100
AcDbEntity
  8
WALL
100
AcDbHatch
 10
0.0
 20
0.0
 30
0.0
210
0.0
220
0.0
230
1.0
  2
SOLID
 70
1
 71
0
 91
1
 92
3
 72
0
 73
1
 93
4
 10
8210.400000000001
 20
4118.400000000001
 10
8333.6
 20
4118.400000000001
 10
8333.6
 20
3678.4
 10
8210.400000000001
 20
3678.4
 97
0
 75
1
 76
1
 98
0
  0
LWPOLYLINE
  5
109
330
17
100
AcDbEntity
  8
WALL
100
AcDbPolyline
 90
4
 70
1
 10
369.6
 20
3854.4
 10
431.20000000000005
 20
3854.4
 10
431.20000000000005
 20
3625.6000000000004
 10
369.6
 20
3625.6000000000004
  0
HATCH
  5
10A
330
17
100
AcDbEntity
  8
WALL
100
AcDbHatch
 10
0.0
 20
0.0
 30
0.0
210
0.0
220
0.0
230
1.0
  2
SOLID
 70
1
 71
0
 91
1
 92
3
 72
0
 73
1
 93
4
 10
369.6
 20
3854.4
 10
431.20000000000005
 20
3854.4
 10
431.20000000000005
 20
3625.6000000000004
 10
369.6
 20
3625.6000000000004
 97
0
 75
1
 76
1
 98
0
  0
LWPOLYLINE
  5
10B
330
17
100
AcDbEntity
  8
WALL
100
AcDbPolyline
 90
4
 70
1
 10
9574.400000000001
 20
3836.8
 10
9741.6
 20
3836.8
 10
9741.6
 20
3009.6000000000004
 10
9574.400000000001
 20
3009.6000000000004
  0
HATCH
  5
10C
330
17
100
AcDbEntity
  8
WALL
100
AcDbHatch
 10
0.0
 20
0.0
 30
0.0
210
0.0
220
0.0
230
1.0
  2
SOLID
 70
1
 71
0
 91
1
 92
3
 72
0
 73
1
 93
4
 10
9574.400000000001
 20
3836.8
 10
9741.6
 20
3836.8
 10
9741.6
 20
3009.6000000000004
 10
9574.400000000001
 20
3009.6000000000004
 97
0
 75
1
 76
1
 98
0
  0
LWPOLYLINE
  5
10D
330
17
100
AcDbEntity
  8
WALL
100
AcDbPolyline
 90
4
 70
1
 10
2138.4
 20
3731.2000000000003
 10
2296.8
 20
3731.2000000000003
 10
2296.8
 20
3062.4
 10
2138.4
 20
3062.4
  0
HATCH
  5
10E
330
17
100
AcDbEntity
  8
WALL
100
AcDbHatch
 10
0.0
 20
0.0
 30
0.0
210
0.0
220
0.0
230
1.0
  2
SOLID
 70
1
 71
0
 91
1
 92
3
 72
0
 73
1
 93
4
 10
2138.4
 20
3731.2000000000003
 10
2296.8
 20
3731.2000000000003
 10
2296.8
 20
3062.4
 10
2138.4
 20
3062.4
 97
0
 75
1
 76
1
 98
0
  0
LWPOLYLINE
  5
10F
330
17
100
AcDbEntity
  8
WALL
100
AcDbPolyline
 90
4
 70
1
 10
2349.6000000000004
 20
3731.2000000000003
 10
2402.4
 20
3731.2000000000003
 10
2402.4
 20
3379.2000000000003
 10
2349.6000000000004
 20
3379.2000000000003
  0
HATCH
  5
110
330
17
100
AcDbEntity
  8
WALL
100
AcDbHatch
 10
0.0
 20
0.0
 30
0.0
210
0.0
220
0.0
230
1.0
  2
SOLID
 70
1
 71
0
 91
1
 92
3
 72
0
 73
1
 93
4
 10
2349.6000000000004
 20
3731.2000000000003
 10
2402.4
 20
3731.2000000000003
 10
2402.4
 20
3379.2000000000003
 10
2349.6000000000004
 20
3379.2000000000003
 97
0
 75
1
 76
1
 98
0
  0
LWPOLYLINE
  5
111
330
17
100
AcDbEntity
  8
WALL
100
AcDbPolyline
 90
4
 70
1
 10
6494.400000000001
 20
3493.6000000000004
 10
6556.000000000001
 20
3493.6000000000004
 10
6556.000000000001
 20
3203.2000000000003
 10
6494.400000000001
 20
3203.2000000000003
  0
HATCH
  5
112
330
17
100
AcDbEntity
  8
WALL
100
AcDbHatch
 10
0.0
 20
0.0
 30
0.0
210
0.0
220
0.0
230
1.0
  2
SOLID
 70
1
 71
0
 91
1
 92
3
 72
0
 73
1
 93
4
 10
6494.400000000001
 20
3493.6000000000004
 10
6556.000000000001
 20
3493.6000000000004
 10
6556.000000000001
 20
3203.2000000000003
 10
6494.400000000001
 20
3203.2000000000003
 97
0
 75
1
 76
1
 98
0
  0
LWPOLYLINE
  5
113
330
17
100
AcDbEntity
  8
WALL
100
AcDbPolyline
 90
4
 70
1
 10
9539.2
 20
3476.0000000000005
 10
9565.6
 20
3476.0000000000005
 10
9565.6
 20
3168.0000000000005
 10
9539.2
 20
3168.0000000000005
  0
HATCH
  5
114
330
17
100
AcDbEntity
  8
WALL
100
AcDbHatch
 10
0.0
 20
0.0
 30
0.0
210
0.0
220
0.0
230
1.0
  2
SOLID
 70
1
 71
0
 91
1
 92
3
 72
0
 73
1
 93
4
 10
9539.2
 20
3476.0000000000005
 10
9565.6
 20
3476.0000000000005
 10
9565.6
 20
3168.0000000000005
 10
9539.2
 20
3168.0000000000005
 97
0
 75
1
 76
1
 98
0
  0
LWPOLYLINE
  5
115
330
17
100
AcDbEntity
  8
WALL
100
AcDbPolyline
 90
4
 70
1
 10
8738.400000000001
 20
3467.2000000000003
 10
8773.6
 20
3467.2000000000003
 10
8773.6
 20
3159.2000000000003
 10
8738.400000000001
 20
3159.2000000000003
  0
HATCH
  5
116
330
17
100
AcDbEntity
  8
WALL
100
AcDbHatch
 10
0.0
 20
0.0
 30
0.0
210
0.0
220
0.0
230
1.0
  2
SOLID
 70
1
 71
0
 91
1
 92
3
 72
0
 73
1
 93
4
 10
8738.400000000001
 20
3467.2000000000003
 10
8773.6
 20
3467.2000000000003
 10
8773.6
 20
3159.2000000000003
 10
8738.400000000001
 20
3159.2000000000003
 97
0
 75
1
 76
1
 98
0
  0
LWPOLYLINE
  5
117
330
17
100
AcDbEntity
  8
WALL
100
AcDbPolyline
 90
4
 70
1
 10
9064.0
 20
3396.8
 10
9072.800000000001
 20
3396.8
 10
9072.800000000001
 20
3185.6000000000004
 10
9064.0
 20
3185.6000000000004
  0
HATCH
  5
118
330
17
100
AcDbEntity
  8
WALL
100
AcDbHatch
 10
0.0
 20
0.0
 30
0.0
210
0.0
220
0.0
230
1.0
  2
SOLID
 70
1
 71
0
 91
1
 92
3
 72
0
 73
1
 93
4
 10
9064.0
 20
3396.8
 10
9072.800000000001
 20
3396.8
 10
9072.800000000001
 20
3185.6000000000004
 10
9064.0
 20
3185.6000000000004
 97
0
 75
1
 76
1
 98
0
  0
LWPOLYLINE
  5
119
330
17
100
AcDbEntity
  8
WALL
100
AcDbPolyline
 90
4
 70
1
 10
6450.400000000001
 20
3379.2000000000003
 10
6485.6
 20
3379.2000000000003
 10
6485.6
 20
3150.4
 10
6450.400000000001
 20
3150.4
  0
HATCH
  5
11A
330
17
100
AcDbEntity
  8
WALL
100
AcDbHatch
 10
0.0
 20
0.0
 30
0.0
210
0.0
220
0.0
230
1.0
  2
SOLID
 70
1
 71
0
 91
1
 92
3
 72
0
 73
1
 93
4
 10
6450.400000000001
 20
3379.2000000000003
 10
6485.6
 20
3379.2000000000003
 10
6485.6
 20
3150.4
 10
6450.400000000001
 20
3150.4
 97
0
 75
1
 76
1
 98
0
  0
LWPOLYLINE
  5
11B
330
17
100
AcDbEntity
  8
WALL
100
AcDbPolyline
 90
4
 70
1
 10
2912.8
 20
3361.6000000000004
 10
3053.6000000000004
 20
3361.6000000000004
 10
3053.6000000000004
 20
2164.8
 10
2912.8
 20
2164.8
  0
HATCH
  5
11C
330
17
100
AcDbEntity
  8
WALL
100
AcDbHatch
 10
0.0
 20
0.0
 30
0.0
210
0.0
220
0.0
230
1.0
  2
SOLID
 70
1
 71
0
 91
1
 92
3
 72
0
 73
1
 93
4
 10
2912.8
 20
3361.6000000000004
 10
3053.6000000000004
 20
3361.6000000000004
 10
3053.6000000000004
 20
2164.8
 10
2912.8
 20
2164.8
 97
0
 75
1
 76
1
 98
0
  0
LWPOLYLINE
  5
11D
330
17
100
AcDbEntity
  8
WALL
100
AcDbPolyline
 90
4
 70
1
 10
5887.200000000001
 20
3247.2000000000003
 10
5940.000000000001
 20
3247.2000000000003
 10
5940.000000000001
 20
2956.8
 10
5887.200000000001
 20
2956.8
  0
HATCH
  5
11E
330
17
100
AcDbEntity
  8
WALL
100
AcDbHatch
 10
0.0
 20
0.0
 30
0.0
210
0.0
220
0.0
230
1.0
  2
SOLID
 70
1
 71
0
 91
1
 92
3
 72
0
 73
1
 93
4
 10
5887.200000000001
 20
3247.2000000000003
 10
5940.000000000001
 20
3247.2000000000003
 10
5940.000000000001
 20
2956.8
 10
5887.200000000001
 20
2956.8
 97
0
 75
1
 76
1
 98
0
  0
LWPOLYLINE
  5
11F
330
17
100
AcDbEntity
  8
WALL
100
AcDbPolyline
 90
4
 70
1
 10
4303.200000000001
 20
3044.8
 10
4373.6
 20
3044.8
 10
4373.6
 20
2640.0
 10
4303.200000000001
 20
2640.0
  0
HATCH
  5
120
330
17
100
AcDbEntity
  8
WALL
100
AcDbHatch
 10
0.0
 20
0.0
 30
0.0
210
0.0
220
0.0
230
1.0
  2
SOLID
 70
1
 71
0
 91
1
 92
3
 72
0
 73
1
 93
4
 10
4303.200000000001
 20
3044.8
 10
4373.6
 20
3044.8
 10
4373.6
 20
2640.0
 10
4303.200000000001
 20
2640.0
 97
0
 75
1
 76
1
 98
0
  0
LWPOLYLINE
  5
121
330
17
100
AcDbEntity
  8
WALL
100
AcDbPolyline
 90
4
 70
1
 10
8676.800000000001
 20
2719.2000000000003
 10
8720.800000000001
 20
2719.2000000000003
 10
8720.800000000001
 20
2481.6000000000004
 10
8676.800000000001
 20
2481.6000000000004
  0
HATCH
  5
122
330
17
100
AcDbEntity
  8
WALL
100
AcDbHatch
 10
0.0
 20
0.0
 30
0.0
210
0.0
220
0.0
230
1.0
  2
SOLID
 70
1
 71
0
 91
1
 92
3
 72
0
 73
1
 93
4
 10
8676.800000000001
 20
2719.2000000000003
 10
8720.800000000001
 20
2719.2000000000003
 10
8720.800000000001
 20
2481.6000000000004
 10
8676.800000000001
 20
2481.6000000000004
 97
0
 75
1
 76
1
 98
0
  0
LWPOLYLINE
  5
123
330
17
100
AcDbEntity
  8
WALL
100
AcDbPolyline
 90
4
 70
1
 10
3916.0000000000005
 20
2666.4
 10
3968.8
 20
2666.4
 10
3968.8
 20
2358.4
 10
3916.0000000000005
 20
2358.4
  0
HATCH
  5
124
330
17
100
AcDbEntity
  8
WALL
100
AcDbHatch
 10
0.0
 20
0.0
 30
0.0
210
0.0
220
0.0
230
1.0
  2
SOLID
 70
1
 71
0
 91
1
 92
3
 72
0
 73
1
 93
4
 10
3916.0000000000005
 20
2666.4
 10
3968.8
 20
2666.4
 10
3968.8
 20
2358.4
 10
3916.0000000000005
 20
2358.4
 97
0
 75
1
 76
1
 98
0
  0
LWPOLYLINE
  5
125
330
17
100
AcDbEntity
  8
WALL
100
AcDbPolyline
 90
4
 70
1
 10
7981.6
 20
2358.4
 10
8034.400000000001
 20
2358.4
 10
8034.400000000001
 20
1812.8000000000002
 10
7981.6
 20
1812.8000000000002
  0
HATCH
  5
126
330
17
100
AcDbEntity
  8
WALL
100
AcDbHatch
 10
0.0
 20
0.0
 30
0.0
210
0.0
220
0.0
230
1.0
  2
SOLID
 70
1
 71
0
 91
1
 92
3
 72
0
 73
1
 93
4
 10
7981.6
 20
2358.4
 10
8034.400000000001
 20
2358.4
 10
8034.400000000001
 20
1812.8000000000002
 10
7981.6
 20
1812.8000000000002
 97
0
 75
1
 76
1
 98
0
  0
LWPOLYLINE
  5
127
330
17
100
AcDbEntity
  8
WALL
100
AcDbPolyline
 90
4
 70
1
 10
4303.200000000001
 20
2314.4
 10
4373.6
 20
2314.4
 10
4373.6
 20
1918.4
 10
4303.200000000001
 20
1918.4
  0
HATCH
  5
128
330
17
100
AcDbEntity
  8
WALL
100
AcDbHatch
 10
0.0
 20
0.0
 30
0.0
210
0.0
220
0.0
230
1.0
  2
SOLID
 70
1
 71
0
 91
1
 92
3
 72
0
 73
1
 93
4
 10
4303.200000000001
 20
2314.4
 10
4373.6
 20
2314.4
 10
4373.6
 20
1918.4
 10
4303.200000000001
 20
1918.4
 97
0
 75
1
 76
1
 98
0
  0
LWPOLYLINE
  5
129
330
17
100
AcDbEntity
  8
WALL
100
AcDbPolyline
 90
4
 70
1
 10
7207.200000000001
 20
2314.4
 10
7242.400000000001
 20
2314.4
 10
7242.400000000001
 20
2041.6000000000001
 10
7207.200000000001
 20
2041.6000000000001
  0
HATCH
  5
12A
330
17
100
AcDbEntity
  8
WALL
100
AcDbHatch
 10
0.0
 20
0.0
 30
0.0
210
0.0
220
0.0
230
1.0
  2
SOLID
 70
1
 71
0
 91
1
 92
3
 72
0
 73
1
 93
4
 10
7207.200000000001
 20
2314.4
 10
7242.400000000001
 20
2314.4
 10
7242.400000000001
 20
2041.6000000000001
 10
7207.200000000001
 20
2041.6000000000001
 97
0
 75
1
 76
1
 98
0
  0
LWPOLYLINE
  5
12B
330
17
100
AcDbEntity
  8
WALL
100
AcDbPolyline
 90
4
 70
1
 10
8043.200000000001
 20
2244.0
 10
8104.800000000001
 20
2244.0
 10
8104.800000000001
 20
1804.0000000000002
 10
8043.200000000001
 20
1804.0000000000002
  0
HATCH
  5
12C
330
17
100
AcDbEntity
  8
WALL
100
AcDbHatch
 10
0.0
 20
0.0
 30
0.0
210
0.0
220
0.0
230
1.0
  2
SOLID
 70
1
 71
0
 91
1
 92
3
 72
0
 73
1
 93
4
 10
8043.200000000001
 20
2244.0
 10
8104.800000000001
 20
2244.0
 10
8104.800000000001
 20
1804.0000000000002
 10
8043.200000000001
 20
1804.0000000000002
 97
0
 75
1
 76
1
 98
0
  0
LWPOLYLINE
  5
12D
330
17
100
AcDbEntity
  8
WALL
100
AcDbPolyline
 90
4
 70
1
 10
2930.4
 20
2138.4
 10
3018.4
 20
2138.4
 10
3018.4
 20
1742.4
 10
2930.4
 20
1742.4
  0
HATCH
  5
12E
330
17
100
AcDbEntity
  8
WALL
100
AcDbHatch
 10
0.0
 20
0.0
 30
0.0
210
0.0
220
0.0
230
1.0
  2
SOLID
 70
1
 71
0
 91
1
 92
3
 72
0
 73
1
 93
4
 10
2930.4
 20
2138.4
 10
3018.4
 20
2138.4
 10
3018.4
 20
1742.4
 10
2930.4
 20
1742.4
 97
0
 75
1
 76
1
 98
0
  0
LWPOLYLINE
  5
12F
330
17
100
AcDbEntity
  8
WALL
100
AcDbPolyline
 90
4
 70
1
 10
3933.6000000000004
 20
1856.8000000000002
 10
3942.4000000000005
 20
1856.8000000000002
 10
3942.4000000000005
 20
1645.6000000000001
 10
3933.6000000000004
 20
1645.6000000000001
  0
HATCH
  5
130
330
17
100
AcDbEntity
  8
WALL
100
AcDbHatch
 10
0.0
 20
0.0
 30
0.0
210
0.0
220
0.0
230
1.0
  2
SOLID
 70
1
 71
0
 91
1
 92
3
 72
0
 73
1
 93
4
 10
3933.6000000000004
 20
1856.8000000000002
 10
3942.4000000000005
 20
1856.8000000000002
 10
3942.4000000000005
 20
1645.6000000000001
 10
3933.6000000000004
 20
1645.6000000000001
 97
0
 75
1
 76
1
 98
0
  0
LWPOLYLINE
  5
131
330
17
100
AcDbEntity
  8
WALL
100
AcDbPolyline
 90
4
 70
1
 10
158.4
 20
748.0000000000001
 10
211.20000000000002
 20
748.0000000000001
 10
211.20000000000002
 20
536.8000000000001
 10
158.4
 20
536.8000000000001
  0
HATCH
  5
132
330
17
100
AcDbEntity
  8
WALL
100
AcDbHatch
 10
0.0
 20
0.0
 30
0.0
210
0.0
220
0.0
230
1.0
  2
SOLID
 70
1
 71
0
 91
1
 92
3
 72
0
 73
1
 93
4
 10
158.4
 20
748.0000000000001
 10
211.20000000000002
 20
748.0000000000001
 10
211.20000000000002
 20
536.8000000000001
 10
158.4
 20
536.8000000000001
 97
0
 75
1
 76
1
 98
0
  0
LINE
  5
133
330
17
100
AcDbEntity
  8
WINDOW
100
AcDbLine
 10
4699.200000000001
 20
8122.400000000001
 30
0.0
 11
4901.6
 21
8122.400000000001
 31
0.0
  0
LINE
  5
134
330
17
100
AcDbEntity
  8
WINDOW
100
AcDbLine
 10
4699.200000000001
 20
8075.466666666667
 30
0.0
 11
4901.6
 21
8075.466666666667
 31
0.0
  0
LINE
  5
135
330
17
100
AcDbEntity
  8
WINDOW
100
AcDbLine
 10
4699.200000000001
 20
8028.533333333335
 30
0.0
 11
4901.6
 21
8028.533333333335
 31
0.0
  0
LINE
  5
136
330
17
100
AcDbEntity
  8
WINDOW
100
AcDbLine
 10
4699.200000000001
 20
7981.6
 30
0.0
 11
4901.6
 21
7981.6
 31
0.0
  0
LINE
  5
137
330
17
100
AcDbEntity
  8
WINDOW
100
AcDbLine
 10
4699.200000000001
 20
8122.400000000001
 30
0.0
 11
4699.200000000001
 21
7981.6
 31
0.0
  0
LINE
  5
138
330
17
100
AcDbEntity
  8
WINDOW
100
AcDbLine
 10
4901.6
 20
8122.400000000001
 30
0.0
 11
4901.6
 21
7981.6
 31
0.0
  0
LINE
  5
139
330
17
100
AcDbEntity
  8
WINDOW
100
AcDbLine
 10
4364.8
 20
7700.000000000001
 30
0.0
 11
4426.400000000001
 21
7700.000000000001
 31
0.0
  0
LINE
  5
13A
330
17
100
AcDbEntity
  8
WINDOW
100
AcDbLine
 10
4364.8
 20
7658.933333333334
 30
0.0
 11
4426.400000000001
 21
7658.933333333334
 31
0.0
  0
LINE
  5
13B
330
17
100
AcDbEntity
  8
WINDOW
100
AcDbLine
 10
4364.8
 20
7617.866666666667
 30
0.0
 11
4426.400000000001
 21
7617.866666666667
 31
0.0
  0
LINE
  5
13C
330
17
100
AcDbEntity
  8
WINDOW
100
AcDbLine
 10
4364.8
 20
7576.8
 30
0.0
 11
4426.400000000001
 21
7576.8
 31
0.0
  0
LINE
  5
13D
330
17
100
AcDbEntity
  8
WINDOW
100
AcDbLine
 10
4364.8
 20
7700.000000000001
 30
0.0
 11
4364.8
 21
7576.8
 31
0.0
  0
LINE
  5
13E
330
17
100
AcDbEntity
  8
WINDOW
100
AcDbLine
 10
4426.400000000001
 20
7700.000000000001
 30
0.0
 11
4426.400000000001
 21
7576.8
 31
0.0
  0
LINE
  5
13F
330
17
100
AcDbEntity
  8
WINDOW
100
AcDbLine
 10
968.0000000000001
 20
5500.0
 30
0.0
 11
2094.4
 21
5500.0
 31
0.0
  0
LINE
  5
140
330
17
100
AcDbEntity
  8
WINDOW
100
AcDbLine
 10
968.0000000000001
 20
5453.0666666666675
 30
0.0
 11
2094.4
 21
5453.0666666666675
 31
0.0
  0
LINE
  5
141
330
17
100
AcDbEntity
  8
WINDOW
100
AcDbLine
 10
968.0000000000001
 20
5406.133333333333
 30
0.0
 11
2094.4
 21
5406.133333333333
 31
0.0
  0
LINE
  5
142
330
17
100
AcDbEntity
  8
WINDOW
100
AcDbLine
 10
968.0000000000001
 20
5359.200000000001
 30
0.0
 11
2094.4
 21
5359.200000000001
 31
0.0
  0
LINE
  5
143
330
17
100
AcDbEntity
  8
WINDOW
100
AcDbLine
 10
968.0000000000001
 20
5500.0
 30
0.0
 11
968.0000000000001
 21
5359.200000000001
 31
0.0
  0
LINE
  5
144
330
17
100
AcDbEntity
  8
WINDOW
100
AcDbLine
 10
2094.4
 20
5500.0
 30
0.0
 11
2094.4
 21
5359.200000000001
 31
0.0
  0
LINE
  5
145
330
17
100
AcDbEntity
  8
WINDOW
100
AcDbLine
 10
2886.4
 20
5447.200000000001
 30
0.0
 11
2956.8
 21
5447.200000000001
 31
0.0
  0
LINE
  5
146
330
17
100
AcDbEntity
  8
WINDOW
100
AcDbLine
 10
2886.4
 20
5417.866666666668
 30
0.0
 11
2956.8
 21
5417.866666666668
 31
0.0
  0
LINE
  5
147
330
17
100
AcDbEntity
  8
WINDOW
100
AcDbLine
 10
2886.4
 20
5388.533333333333
 30
0.0
 11
2956.8
 21
5388.533333333333
 31
0.0
  0
LINE
  5
148
330
17
100
AcDbEntity
  8
WINDOW
100
AcDbLine
 10
2886.4
 20
5359.200000000001
 30
0.0
 11
2956.8
 21
5359.200000000001
 31
0.0
  0
LINE
  5
149
330
17
100
AcDbEntity
  8
WINDOW
100
AcDbLine
 10
2886.4
 20
5447.200000000001
 30
0.0
 11
2886.4
 21
5359.200000000001
 31
0.0
  0
LINE
  5
14A
330
17
100
AcDbEntity
  8
WINDOW
100
AcDbLine
 10
2956.8
 20
5447.200000000001
 30
0.0
 11
2956.8
 21
5359.200000000001
 31
0.0
  0
LINE
  5
14B
330
17
100
AcDbEntity
  8
WINDOW
100
AcDbLine
 10
6881.6
 20
2824.8
 30
0.0
 11
7110.400000000001
 21
2824.8
 31
0.0
  0
LINE
  5
14C
330
17
100
AcDbEntity
  8
WINDOW
100
AcDbLine
 10
6881.6
 20
2792.5333333333338
 30
0.0
 11
7110.400000000001
 21
2792.5333333333338
 31
0.0
  0
LINE
  5
14D
330
17
100
AcDbEntity
  8
WINDOW
100
AcDbLine
 10
6881.6
 20
2760.2666666666664
 30
0.0
 11
7110.400000000001
 21
2760.2666666666664
 31
0.0
  0
LINE
  5
14E
330
17
100
AcDbEntity
  8
WINDOW
100
AcDbLine
 10
6881.6
 20
2728.0
 30
0.0
 11
7110.400000000001
 21
2728.0
 31
0.0
  0
LINE
  5
14F
330
17
100
AcDbEntity
  8
WINDOW
100
AcDbLine
 10
6881.6
 20
2824.8
 30
0.0
 11
6881.6
 21
2728.0
 31
0.0
  0
LINE
  5
150
330
17
100
AcDbEntity
  8
WINDOW
100
AcDbLine
 10
7110.400000000001
 20
2824.8
 30
0.0
 11
7110.400000000001
 21
2728.0
 31
0.0
  0
LINE
  5
151
330
17
100
AcDbEntity
  8
WINDOW
100
AcDbLine
 10
7409.6
 20
2824.8
 30
0.0
 11
7972.800000000001
 21
2824.8
 31
0.0
  0
LINE
  5
152
330
17
100
AcDbEntity
  8
WINDOW
100
AcDbLine
 10
7409.6
 20
2792.5333333333338
 30
0.0
 11
7972.800000000001
 21
2792.5333333333338
 31
0.0
  0
LINE
  5
153
330
17
100
AcDbEntity
  8
WINDOW
100
AcDbLine
 10
7409.6
 20
2760.2666666666664
 30
0.0
 11
7972.800000000001
 21
2760.2666666666664
 31
0.0
  0
LINE
  5
154
330
17
100
AcDbEntity
  8
WINDOW
100
AcDbLine
 10
7409.6
 20
2728.0
 30
0.0
 11
7972.800000000001
 21
2728.0
 31
0.0
  0
LINE
  5
155
330
17
100
AcDbEntity
  8
WINDOW
100
AcDbLine
 10
7409.6
 20
2824.8
 30
0.0
 11
7409.6
 21
2728.0
 31
0.0
  0
LINE
  5
156
330
17
100
AcDbEntity
  8
WINDOW
100
AcDbLine
 10
7972.800000000001
 20
2824.8
 30
0.0
 11
7972.800000000001
 21
2728.0
 31
0.0
  0
LINE
  5
157
330
17
100
AcDbEntity
  8
WINDOW
100
AcDbLine
 10
6916.8
 20
1284.8000000000002
 30
0.0
 11
8175.200000000001
 21
1284.8000000000002
 31
0.0
  0
LINE
  5
158
330
17
100
AcDbEntity
  8
WINDOW
100
AcDbLine
 10
6916.8
 20
1255.4666666666665
 30
0.0
 11
8175.200000000001
 21
1255.4666666666665
 31
0.0
  0
LINE
  5
159
330
17
100
AcDbEntity
  8
WINDOW
100
AcDbLine
 10
6916.8
 20
1226.1333333333337
 30
0.0
 11
8175.200000000001
 21
1226.1333333333337
 31
0.0
  0
LINE
  5
15A
330
17
100
AcDbEntity
  8
WINDOW
100
AcDbLine
 10
6916.8
 20
1196.8000000000002
 30
0.0
 11
8175.200000000001
 21
1196.8000000000002
 31
0.0
  0
LINE
  5
15B
330
17
100
AcDbEntity
  8
WINDOW
100
AcDbLine
 10
6916.8
 20
1284.8000000000002
 30
0.0
 11
6916.8
 21
1196.8000000000002
 31
0.0
  0
LINE
  5
15C
330
17
100
AcDbEntity
  8
WINDOW
100
AcDbLine
 10
8175.200000000001
 20
1284.8000000000002
 30
0.0
 11
8175.200000000001
 21
1196.8000000000002
 31
0.0
  0
LINE
  5
15D
330
17
100
AcDbEntity
  8
WINDOW
100
AcDbLine
 10
5403.200000000001
 20
325.6
 30
0.0
 11
6617.6
 21
325.6
 31
0.0
  0
LINE
  5
15E
330
17
100
AcDbEntity
  8
WINDOW
100
AcDbLine
 10
5403.200000000001
 20
284.5333333333327
 30
0.0
 11
6617.6
 21
284.5333333333327
 31
0.0
  0
LINE
  5
15F
330
17
100
AcDbEntity
  8
WINDOW
100
AcDbLine
 10
5403.200000000001
 20
243.46666666666735
 30
0.0
 11
6617.6
 21
243.46666666666735
 31
0.0
  0
LINE
  5
160
330
17
100
AcDbEntity
  8
WINDOW
100
AcDbLine
 10
5403.200000000001
 20
202.4
 30
0.0
 11
6617.6
 21
202.4
 31
0.0
  0
LINE
  5
161
330
17
100
AcDbEntity
  8
WINDOW
100
AcDbLine
 10
5403.200000000001
 20
325.6
 30
0.0
 11
5403.200000000001
 21
202.4
 31
0.0
  0
LINE
  5
162
330
17
100
AcDbEntity
  8
WINDOW
100
AcDbLine
 10
6617.6
 20
325.6
 30
0.0
 11
6617.6
 21
202.4
 31
0.0
  0
LINE
  5
163
330
17
100
AcDbEntity
  8
WINDOW
100
AcDbLine
 10
4268.0
 20
5385.6
 30
0.0
 11
4268.0
 21
5262.400000000001
 31
0.0
  0
LINE
  5
164
330
17
100
AcDbEntity
  8
WINDOW
100
AcDbLine
 10
4309.0666666666675
 20
5385.6
 30
0.0
 11
4309.0666666666675
 21
5262.400000000001
 31
0.0
  0
LINE
  5
165
330
17
100
AcDbEntity
  8
WINDOW
100
AcDbLine
 10
4350.133333333333
 20
5385.6
 30
0.0
 11
4350.133333333333
 21
5262.400000000001
 31
0.0
  0
LINE
  5
166
330
17
100
AcDbEntity
  8
WINDOW
100
AcDbLine
 10
4391.200000000001
 20
5385.6
 30
0.0
 11
4391.200000000001
 21
5262.400000000001
 31
0.0
  0
LINE
  5
167
330
17
100
AcDbEntity
  8
WINDOW
100
AcDbLine
 10
4268.0
 20
5385.6
 30
0.0
 11
4391.200000000001
 21
5385.6
 31
0.0
  0
LINE
  5
168
330
17
100
AcDbEntity
  8
WINDOW
100
AcDbLine
 10
4268.0
 20
5262.400000000001
 30
0.0
 11
4391.200000000001
 21
5262.400000000001
 31
0.0
  0
LINE
  5
169
330
17
100
AcDbEntity
  8
WINDOW
100
AcDbLine
 10
8676.800000000001
 20
3159.2000000000003
 30
0.0
 11
8676.800000000001
 21
2719.2000000000003
 31
0.0
  0
LINE
  5
16A
330
17
100
AcDbEntity
  8
WINDOW
100
AcDbLine
 10
8709.066666666668
 20
3159.2000000000003
 30
0.0
 11
8709.066666666668
 21
2719.2000000000003
 31
0.0
  0
LINE
  5
16B
330
17
100
AcDbEntity
  8
WINDOW
100
AcDbLine
 10
8741.333333333334
 20
3159.2000000000003
 30
0.0
 11
8741.333333333334
 21
2719.2000000000003
 31
0.0
  0
LINE
  5
16C
330
17
100
AcDbEntity
  8
WINDOW
100
AcDbLine
 10
8773.6
 20
3159.2000000000003
 30
0.0
 11
8773.6
 21
2719.2000000000003
 31
0.0
  0
LINE
  5
16D
330
17
100
AcDbEntity
  8
WINDOW
100
AcDbLine
 10
8676.800000000001
 20
3159.2000000000003
 30
0.0
 11
8773.6
 21
3159.2000000000003
 31
0.0
  0
LINE
  5
16E
330
17
100
AcDbEntity
  8
WINDOW
100
AcDbLine
 10
8676.800000000001
 20
2719.2000000000003
 30
0.0
 11
8773.6
 21
2719.2000000000003
 31
0.0
  0
LINE
  5
16F
330
17
100
AcDbEntity
  8
WINDOW
100
AcDbLine
 10
9204.800000000001
 20
8113.6
 30
0.0
 11
9204.800000000001
 21
5878.400000000001
 31
0.0
  0
LINE
  5
170
330
17
100
AcDbEntity
  8
WINDOW
100
AcDbLine
 10
9254.666666666668
 20
8113.6
 30
0.0
 11
9254.666666666668
 21
5878.400000000001
 31
0.0
  0
LINE
  5
171
330
17
100
AcDbEntity
  8
WINDOW
100
AcDbLine
 10
9304.533333333333
 20
8113.6
 30
0.0
 11
9304.533333333333
 21
5878.400000000001
 31
0.0
  0
LINE
  5
172
330
17
100
AcDbEntity
  8
WINDOW
100
AcDbLine
 10
9354.400000000001
 20
8113.6
 30
0.0
 11
9354.400000000001
 21
5878.400000000001
 31
0.0
  0
LINE
  5
173
330
17
100
AcDbEntity
  8
WINDOW
100
AcDbLine
 10
9204.800000000001
 20
8113.6
 30
0.0
 11
9354.400000000001
 21
8113.6
 31
0.0
  0
LINE
  5
174
330
17
100
AcDbEntity
  8
WINDOW
100
AcDbLine
 10
9204.800000000001
 20
5878.400000000001
 30
0.0
 11
9354.400000000001
 21
5878.400000000001
 31
0.0
  0
LINE
  5
175
330
17
100
AcDbEntity
  8
WINDOW
100
AcDbLine
 10
9178.400000000001
 20
5315.200000000001
 30
0.0
 11
9178.400000000001
 21
4523.200000000001
 31
0.0
  0
LINE
  5
176
330
17
100
AcDbEntity
  8
WINDOW
100
AcDbLine
 10
9237.066666666668
 20
5315.200000000001
 30
0.0
 11
9237.066666666668
 21
4523.200000000001
 31
0.0
  0
LINE
  5
177
330
17
100
AcDbEntity
  8
WINDOW
100
AcDbLine
 10
9295.733333333334
 20
5315.200000000001
 30
0.0
 11
9295.733333333334
 21
4523.200000000001
 31
0.0
  0
LINE
  5
178
330
17
100
AcDbEntity
  8
WINDOW
100
AcDbLine
 10
9354.400000000001
 20
5315.200000000001
 30
0.0
 11
9354.400000000001
 21
4523.200000000001
 31
0.0
  0
LINE
  5
179
330
17
100
AcDbEntity
  8
WINDOW
100
AcDbLine
 10
9178.400000000001
 20
5315.200000000001
 30
0.0
 11
9354.400000000001
 21
5315.200000000001
 31
0.0
  0
LINE
  5
17A
330
17
100
AcDbEntity
  8
WINDOW
100
AcDbLine
 10
9178.400000000001
 20
4523.200000000001
 30
0.0
 11
9354.400000000001
 21
4523.200000000001
 31
0.0
  0
ENDSEC
  0
SECTION
  2
OBJECTS
  0
DICTIONARY
  5
A
330
0
100
AcDbDictionary
281
1
  3
ACAD_COLOR
350
B
  3
ACAD_GROUP
350
C
  3
ACAD_LAYOUT
350
D
  3
ACAD_MATERIAL
350
E
  3
ACAD_MLEADERSTYLE
350
F
  3
ACAD_MLINESTYLE
350
10
  3
ACAD_PLOTSETTINGS
350
11
  3
ACAD_PLOTSTYLENAME
350
12
  3
ACAD_SCALELIST
350
14
  3
ACAD_TABLESTYLE
350
15
  3
ACAD_VISUALSTYLE
350
16
  3
EZDXF_META
350
2D
  0
DICTIONARY
  5
B
330
A
100
AcDbDictionary
281
1
  0
DICTIONARY
  5
C
330
A
100
AcDbDictionary
281
1
  0
DICTIONARY
  5
D
330
A
100
AcDbDictionary
281
1
  3
Model
350
1A
  3
Layout1
350
1E
  0
DICTIONARY
  5
E
330
A
100
AcDbDictionary
281
1
  3
ByBlock
350
1F
  3
ByLayer
350
20
  3
Global
350
21
  0
DICTIONARY
  5
F
330
A
100
AcDbDictionary
281
1
  3
Standard
350
2C
  0
DICTIONARY
  5
10
330
A
100
AcDbDictionary
281
1
  3
Standard
350
22
  0
DICTIONARY
  5
11
330
A
100
AcDbDictionary
281
1
  0
ACDBDICTIONARYWDFLT
  5
12
330
A
100
AcDbDictionary
281
1
  3
Normal
350
13
100
AcDbDictionaryWithDefault
340
13
  0
ACDBPLACEHOLDER
  5
13
330
12
  0
DICTIONARY
  5
14
330
A
100
AcDbDictionary
281
1
  0
DICTIONARY
  5
15
330
A
100
AcDbDictionary
281
1
  0
DICTIONARY
  5
16
330
A
100
AcDbDictionary
281
1
  0
LAYOUT
  5
1A
330
D
100
AcDbPlotSettings
  1

  4
A3
  6

 40
7.5
 41
20.0
 42
7.5
 43
20.0
 44
420.0
 45
297.0
 46
0.0
 47
0.0
 48
0.0
 49
0.0
140
0.0
141
0.0
142
1.0
143
1.0
 70
1024
 72
1
 73
0
 74
5
  7

 75
16
 76
0
 77
2
 78
300
147
1.0
148
0.0
149
0.0
100
AcDbLayout
  1
Model
 70
1
 71
0
 10
0.0
 20
0.0
 11
420.0
 21
297.0
 12
0.0
 22
0.0
 32
0.0
 14
1e+20
 24
1e+20
 34
1e+20
 15
-1e+20
 25
-1e+20
 35
-1e+20
146
0.0
 13
0.0
 23
0.0
 33
0.0
 16
1.0
 26
0.0
 36
0.0
 17
0.0
 27
1.0
 37
0.0
 76
1
330
17
  0
LAYOUT
  5
1E
330
D
100
AcDbPlotSettings
  1

  4
A3
  6

 40
7.5
 41
20.0
 42
7.5
 43
20.0
 44
420.0
 45
297.0
 46
0.0
 47
0.0
 48
0.0
 49
0.0
140
0.0
141
0.0
142
1.0
143
1.0
 70
0
 72
1
 73
0
 74
5
  7

 75
16
 76
0
 77
2
 78
300
147
1.0
148
0.0
149
0.0
100
AcDbLayout
  1
Layout1
 70
1
 71
1
 10
0.0
 20
0.0
 11
420.0
 21
297.0
 12
0.0
 22
0.0
 32
0.0
 14
1e+20
 24
1e+20
 34
1e+20
 15
-1e+20
 25
-1e+20
 35
-1e+20
146
0.0
 13
0.0
 23
0.0
 33
0.0
 16
1.0
 26
0.0
 36
0.0
 17
0.0
 27
1.0
 37
0.0
 76
1
330
1B
  0
MATERIAL
  5
1F
102
{ACAD_REACTORS
330
E
102
}
330
E
100
AcDbMaterial
  1
ByBlock
  2

 70
0
 40
1.0
 71
1
 41
1.0
 91
-1023410177
 42
1.0
 72
1
  3

 73
1
 74
1
 75
1
 44
0.5
 73
0
 45
1.0
 46
1.0
 77
1
  4

 78
1
 79
1
170
1
 48
1.0
171
1
  6

172
1
173
1
174
1
140
1.0
141
1.0
175
1
  7

176
1
177
1
178
1
143
1.0
179
1
  8

270
1
271
1
272
1
145
1.0
146
1.0
273
1
  9

274
1
275
1
276
1
 42
1.0
 72
1
  3

 73
1
 74
1
 75
1
 94
63
  0
MATERIAL
  5
20
102
{ACAD_REACTORS
330
E
102
}
330
E
100
AcDbMaterial
  1
ByLayer
  2

 70
0
 40
1.0
 71
1
 41
1.0
 91
-1023410177
 42
1.0
 72
1
  3

 73
1
 74
1
 75
1
 44
0.5
 73
0
 45
1.0
 46
1.0
 77
1
  4

 78
1
 79
1
170
1
 48
1.0
171
1
  6

172
1
173
1
174
1
140
1.0
141
1.0
175
1
  7

176
1
177
1
178
1
143
1.0
179
1
  8

270
1
271
1
272
1
145
1.0
146
1.0
273
1
  9

274
1
275
1
276
1
 42
1.0
 72
1
  3

 73
1
 74
1
 75
1
 94
63
  0
MATERIAL
  5
21
102
{ACAD_REACTORS
330
E
102
}
330
E
100
AcDbMaterial
  1
Global
  2

 70
0
 40
1.0
 71
1
 41
1.0
 91
-1023410177
 42
1.0
 72
1
  3

 73
1
 74
1
 75
1
 44
0.5
 73
0
 45
1.0
 46
1.0
 77
1
  4

 78
1
 79
1
170
1
 48
1.0
171
1
  6

172
1
173
1
174
1
140
1.0
141
1.0
175
1
  7

176
1
177
1
178
1
143
1.0
179
1
  8

270
1
271
1
272
1
145
1.0
146
1.0
273
1
  9

274
1
275
1
276
1
 42
1.0
 72
1
  3

 73
1
 74
1
 75
1
 94
63
  0
MLINESTYLE
  5
22
102
{ACAD_REACTORS
330
10
102
}
330
10
100
AcDbMlineStyle
  2
Standard
 70
0
  3

 62
256
 51
90.0
 52
90.0
 71
2
 49
0.5
 62
256
  6
BYLAYER
 49
-0.5
 62
256
  6
BYLAYER
  0
MLEADERSTYLE
  5
2C
102
{ACAD_REACTORS
330
F
102
}
330
F
100
AcDbMLeaderStyle
179
2
170
2
171
1
172
0
 90
2
 40
0.0
 41
0.0
173
1
 91
-1056964608
 92
-2
290
1
 42
2.0
291
1
 43
8.0
  3
Standard
 44
4.0
300

342
29
174
1
175
1
176
0
178
1
 93
-1056964608
 45
4.0
292
0
297
0
 46
4.0
 94
-1056964608
 47
1.0
 49
1.0
140
1.0
294
1
141
0.0
177
0
142
1.0
295
0
296
0
143
3.75
271
0
272
9
273
9
  0
DICTIONARY
  5
2D
330
A
100
AcDbDictionary
280
1
281
1
  3
CREATED_BY_EZDXF
350
2E
  3
WRITTEN_BY_EZDXF
350
17D
  0
DICTIONARYVAR
  5
2E
330
2D
100
DictionaryVariables
280
0
  1
1.4.4 @ 2026-07-12T08:53:25.541353+00:00
  0
DICTIONARYVAR
  5
17D
330
2D
100
DictionaryVariables
280
0
  1
1.4.4 @ 2026-07-12T08:53:25.547531+00:00
  0
ENDSEC
  0
EOF
