  0
SECTION
  2
HEADER
  9
$ACADVER
  1
AC1024
  9
$ACADMAINTVER
 70
6
  9
$DWGCODEPAGE
  3
ANSI_1252
  9
$LASTSAVEDBY
  1
ezdxf
  9
$INSBASE
 10
0.0
 20
0.0
 30
0.0
  9
$EXTMIN
 10
1e+20
 20
1e+20
 30
1e+20
  9
$EXTMAX
 10
-1e+20
 20
-1e+20
 30
-1e+20
  9
$LIMMIN
 10
0.0
 20
0.0
  9
$LIMMAX
 10
420.0
 20
297.0
  9
$ORTHOMODE
 70
0
  9
$REGENMODE
 70
1
  9
$FILLMODE
 70
1
  9
$QTEXTMODE
 70
0
  9
$MIRRTEXT
 70
1
  9
$LTSCALE
 40
1.0
  9
$ATTMODE
 70
1
  9
$TEXTSIZE
 40
2.5
  9
$TRACEWID
 40
1.0
  9
$TEXTSTYLE
  7
Standard
  9
$CLAYER
  8
0
  9
$CELTYPE
  6
ByLayer
  9
$CECOLOR
 62
256
  9
$CELTSCALE
 40
1.0
  9
$DISPSILH
 70
0
  9
$DIMSCALE
 40
1.0
  9
$DIMASZ
 40
2.5
  9
$DIMEXO
 40
0.625
  9
$DIMDLI
 40
3.75
  9
$DIMRND
 40
0.0
  9
$DIMDLE
 40
0.0
  9
$DIMEXE
 40
1.25
  9
$DIMTP
 40
0.0
  9
$DIMTM
 40
0.0
  9
$DIMTXT
 40
2.5
  9
$DIMCEN
 40
2.5
  9
$DIMTSZ
 40
0.0
  9
$DIMTOL
 70
0
  9
$DIMLIM
 70
0
  9
$DIMTIH
 70
0
  9
$DIMTOH
 70
0
  9
$DIMSE1
 70
0
  9
$DIMSE2
 70
0
  9
$DIMTAD
 70
1
  9
$DIMZIN
 70
8
  9
$DIMBLK
  1

  9
$DIMASO
 70
1
  9
$DIMSHO
 70
1
  9
$DIMPOST
  1

  9
$DIMAPOST
  1

  9
$DIMALT
 70
0
  9
$DIMALTD
 70
3
  9
$DIMALTF
 40
0.03937007874
  9
$DIMLFAC
 40
1.0
  9
$DIMTOFL
 70
1
  9
$DIMTVP
 40
0.0
  9
$DIMTIX
 70
0
  9
$DIMSOXD
 70
0
  9
$DIMSAH
 70
0
  9
$DIMBLK1
  1

  9
$DIMBLK2
  1

  9
$DIMSTYLE
  2
ISO-25
  9
$DIMCLRD
 70
0
  9
$DIMCLRE
 70
0
  9
$DIMCLRT
 70
0
  9
$DIMTFAC
 40
1.0
  9
$DIMGAP
 40
0.625
  9
$DIMJUST
 70
0
  9
$DIMSD1
 70
0
  9
$DIMSD2
 70
0
  9
$DIMTOLJ
 70
0
  9
$DIMTZIN
 70
8
  9
$DIMALTZ
 70
0
  9
$DIMALTTZ
 70
0
  9
$DIMUPT
 70
0
  9
$DIMDEC
 70
2
  9
$DIMTDEC
 70
2
  9
$DIMALTU
 70
2
  9
$DIMALTTD
 70
3
  9
$DIMTXSTY
  7
Standard
  9
$DIMAUNIT
 70
0
  9
$DIMADEC
 70
0
  9
$DIMALTRND
 40
0.0
  9
$DIMAZIN
 70
0
  9
$DIMDSEP
 70
44
  9
$DIMATFIT
 70
3
  9
$DIMFRAC
 70
0
  9
$DIMLDRBLK
  1

  9
$DIMLUNIT
 70
2
  9
$DIMLWD
 70
-2
  9
$DIMLWE
 70
-2
  9
$DIMTMOVE
 70
0
  9
$DIMFXL
 40
1.0
  9
$DIMFXLON
 70
0
  9
$DIMJOGANG
 40
0.785398163397
  9
$DIMTFILL
 70
0
  9
$DIMTFILLCLR
 70
0
  9
$DIMARCSYM
 70
0
  9
$DIMLTYPE
  6

  9
$DIMLTEX1
  6

  9
$DIMLTEX2
  6

  9
$DIMTXTDIRECTION
 70
0
  9
$LUNITS
 70
2
  9
$LUPREC
 70
4
  9
$SKETCHINC
 40
1.0
  9
$FILLETRAD
 40
10.0
  9
$AUNITS
 70
0
  9
$AUPREC
 70
2
  9
$MENU
  1
.
  9
$ELEVATION
 40
0.0
  9
$PELEVATION
 40
0.0
  9
$THICKNESS
 40
0.0
  9
$LIMCHECK
 70
0
  9
$CHAMFERA
 40
0.0
  9
$CHAMFERB
 40
0.0
  9
$CHAMFERC
 40
0.0
  9
$CHAMFERD
 40
0.0
  9
$SKPOLY
 70
0
  9
$TDCREATE
 40
2461234.7037731484
  9
$TDUCREATE
 40
2458532.153996898
  9
$TDUPDATE
 40
2461234.7037731484
  9
$TDUUPDATE
 40
2458532.1544311
  9
$TDINDWG
 40
0.0
  9
$TDUSRTIMER
 40
0.0
  9
$USRTIMER
 70
1
  9
$ANGBASE
 50
0.0
  9
$ANGDIR
 70
0
  9
$PDMODE
 70
0
  9
$PDSIZE
 40
0.0
  9
$PLINEWID
 40
0.0
  9
$SPLFRAME
 70
0
  9
$SPLINETYPE
 70
6
  9
$SPLINESEGS
 70
8
  9
$HANDSEED
  5
320
  9
$SURFTAB1
 70
6
  9
$SURFTAB2
 70
6
  9
$SURFTYPE
 70
6
  9
$SURFU
 70
6
  9
$SURFV
 70
6
  9
$UCSBASE
  2

  9
$UCSNAME
  2

  9
$UCSORG
 10
0.0
 20
0.0
 30
0.0
  9
$UCSXDIR
 10
1.0
 20
0.0
 30
0.0
  9
$UCSYDIR
 10
0.0
 20
1.0
 30
0.0
  9
$UCSORTHOREF
  2

  9
$UCSORTHOVIEW
 70
0
  9
$UCSORGTOP
 10
0.0
 20
0.0
 30
0.0
  9
$UCSORGBOTTOM
 10
0.0
 20
0.0
 30
0.0
  9
$UCSORGLEFT
 10
0.0
 20
0.0
 30
0.0
  9
$UCSORGRIGHT
 10
0.0
 20
0.0
 30
0.0
  9
$UCSORGFRONT
 10
0.0
 20
0.0
 30
0.0
  9
$UCSORGBACK
 10
0.0
 20
0.0
 30
0.0
  9
$PUCSBASE
  2

  9
$PUCSNAME
  2

  9
$PUCSORG
 10
0.0
 20
0.0
 30
0.0
  9
$PUCSXDIR
 10
1.0
 20
0.0
 30
0.0
  9
$PUCSYDIR
 10
0.0
 20
1.0
 30
0.0
  9
$PUCSORTHOREF
  2

  9
$PUCSORTHOVIEW
 70
0
  9
$PUCSORGTOP
 10
0.0
 20
0.0
 30
0.0
  9
$PUCSORGBOTTOM
 10
0.0
 20
0.0
 30
0.0
  9
$PUCSORGLEFT
 10
0.0
 20
0.0
 30
0.0
  9
$PUCSORGRIGHT
 10
0.0
 20
0.0
 30
0.0
  9
$PUCSORGFRONT
 10
0.0
 20
0.0
 30
0.0
  9
$PUCSORGBACK
 10
0.0
 20
0.0
 30
0.0
  9
$USERI1
 70
0
  9
$USERI2
 70
0
  9
$USERI3
 70
0
  9
$USERI4
 70
0
  9
$USERI5
 70
0
  9
$USERR1
 40
0.0
  9
$USERR2
 40
0.0
  9
$USERR3
 40
0.0
  9
$USERR4
 40
0.0
  9
$USERR5
 40
0.0
  9
$WORLDVIEW
 70
1
  9
$SHADEDGE
 70
3
  9
$SHADEDIF
 70
70
  9
$TILEMODE
 70
1
  9
$MAXACTVP
 70
64
  9
$PINSBASE
 10
0.0
 20
0.0
 30
0.0
  9
$PLIMCHECK
 70
0
  9
$PEXTMIN
 10
1e+20
 20
1e+20
 30
1e+20
  9
$PEXTMAX
 10
-1e+20
 20
-1e+20
 30
-1e+20
  9
$PLIMMIN
 10
0.0
 20
0.0
  9
$PLIMMAX
 10
420.0
 20
297.0
  9
$UNITMODE
 70
0
  9
$VISRETAIN
 70
1
  9
$PLINEGEN
 70
0
  9
$PSLTSCALE
 70
1
  9
$TREEDEPTH
 70
3020
  9
$CMLSTYLE
  2
Standard
  9
$CMLJUST
 70
0
  9
$CMLSCALE
 40
20.0
  9
$PROXYGRAPHICS
 70
1
  9
$MEASUREMENT
 70
1
  9
$CELWEIGHT
370
-1
  9
$ENDCAPS
280
0
  9
$JOINSTYLE
280
0
  9
$LWDISPLAY
290
0
  9
$INSUNITS
 70
4
  9
$HYPERLINKBASE
  1

  9
$STYLESHEET
  1

  9
$XEDIT
290
1
  9
$CEPSNTYPE
380
0
  9
$PSTYLEMODE
290
1
  9
$FINGERPRINTGUID
  2
{030BAC2A-95E2-4C3E-9D3B-6D39586BB15E}
  9
$VERSIONGUID
  2
{F18BED42-11D5-48B6-8174-3A1BC28FF72E}
  9
$EXTNAMES
290
1
  9
$PSVPSCALE
 40
0.0
  9
$OLESTARTUP
290
0
  9
$SORTENTS
280
127
  9
$INDEXCTL
280
0
  9
$HIDETEXT
280
1
  9
$XCLIPFRAME
280
1
  9
$HALOGAP
280
0
  9
$OBSCOLOR
 70
257
  9
$OBSLTYPE
280
0
  9
$INTERSECTIONDISPLAY
280
0
  9
$INTERSECTIONCOLOR
 70
257
  9
$DIMASSOC
280
2
  9
$PROJECTNAME
  1

  9
$CAMERADISPLAY
290
0
  9
$LENSLENGTH
 40
50.0
  9
$CAMERAHEIGHT
 40
0.0
  9
$STEPSPERSEC
 40
24.0
  9
$STEPSIZE
 40
100.0
  9
$3DDWFPREC
 40
2.0
  9
$PSOLWIDTH
 40
0.005
  9
$PSOLHEIGHT
 40
0.08
  9
$LOFTANG1
 40
1.570796326795
  9
$LOFTANG2
 40
1.570796326795
  9
$LOFTMAG1
 40
0.0
  9
$LOFTMAG2
 40
0.0
  9
$LOFTPARAM
 70
7
  9
$LOFTNORMALS
280
1
  9
$LATITUDE
 40
37.795
  9
$LONGITUDE
 40
-122.394
  9
$NORTHDIRECTION
 40
0.0
  9
$TIMEZONE
 70
-8000
  9
$LIGHTGLYPHDISPLAY
280
1
  9
$TILEMODELIGHTSYNCH
280
1
  9
$CMATERIAL
347
20
  9
$SOLIDHIST
280
0
  9
$SHOWHIST
280
1
  9
$DWFFRAME
280
2
  9
$DGNFRAME
280
2
  9
$REALWORLDSCALE
290
1
  9
$INTERFERECOLOR
 62
256
  9
$CSHADOW
280
0
  9
$SHADOWPLANELOCATION
 40
0.0
  0
ENDSEC
  0
SECTION
  2
CLASSES
  0
CLASS
  1
ACDBDICTIONARYWDFLT
  2
AcDbDictionaryWithDefault
  3
ObjectDBX Classes
 90
0
 91
0
280
0
281
0
  0
CLASS
  1
SUN
  2
AcDbSun
  3
SCENEOE
 90
1153
 91
0
280
0
281
0
  0
CLASS
  1
VISUALSTYLE
  2
AcDbVisualStyle
  3
ObjectDBX Classes
 90
4095
 91
0
280
0
281
0
  0
CLASS
  1
MATERIAL
  2
AcDbMaterial
  3
ObjectDBX Classes
 90
1153
 91
0
280
0
281
0
  0
CLASS
  1
SCALE
  2
AcDbScale
  3
ObjectDBX Classes
 90
1153
 91
0
280
0
281
0
  0
CLASS
  1
TABLESTYLE
  2
AcDbTableStyle
  3
ObjectDBX Classes
 90
4095
 91
0
280
0
281
0
  0
CLASS
  1
MLEADERSTYLE
  2
AcDbMLeaderStyle
  3
ACDB_MLEADERSTYLE_CLASS
 90
4095
 91
0
280
0
281
0
  0
CLASS
  1
DICTIONARYVAR
  2
AcDbDictionaryVar
  3
ObjectDBX Classes
 90
0
 91
0
280
0
281
0
  0
CLASS
  1
CELLSTYLEMAP
  2
AcDbCellStyleMap
  3
ObjectDBX Classes
 90
1152
 91
0
280
0
281
0
  0
CLASS
  1
MENTALRAYRENDERSETTINGS
  2
AcDbMentalRayRenderSettings
  3
SCENEOE
 90
1024
 91
0
280
0
281
0
  0
CLASS
  1
ACDBDETAILVIEWSTYLE
  2
AcDbDetailViewStyle
  3
ObjectDBX Classes
 90
1025
 91
0
280
0
281
0
  0
CLASS
  1
ACDBSECTIONVIEWSTYLE
  2
AcDbSectionViewStyle
  3
ObjectDBX Classes
 90
1025
 91
0
280
0
281
0
  0
CLASS
  1
RASTERVARIABLES
  2
AcDbRasterVariables
  3
ISM
 90
0
 91
0
280
0
281
0
  0
CLASS
  1
ACDBPLACEHOLDER
  2
AcDbPlaceHolder
  3
ObjectDBX Classes
 90
0
 91
0
280
0
281
0
  0
CLASS
  1
LAYOUT
  2
AcDbLayout
  3
ObjectDBX Classes
 90
0
 91
0
280
0
281
0
  0
ENDSEC
  0
SECTION
  2
TABLES
  0
TABLE
  2
VPORT
  5
8
330
0
100
AcDbSymbolTable
 70
1
  0
VPORT
  5
23
330
8
100
AcDbSymbolTableRecord
100
AcDbViewportTableRecord
  2
*Active
 70
0
 10
0.0
 20
0.0
 11
1.0
 21
1.0
 12
0.0
 22
0.0
 13
0.0
 23
0.0
 14
0.5
 24
0.5
 15
0.5
 25
0.5
 16
0.0
 26
0.0
 36
1.0
 17
0.0
 27
0.0
 37
0.0
 40
1000.0
 41
1.34
 42
50.0
 43
0.0
 44
0.0
 50
0.0
 51
0.0
 71
0
 72
1000
 73
1
 74
3
 75
0
 76
0
 77
0
 78
0
281
0
 65
0
146
0.0
  0
ENDTAB
  0
TABLE
  2
LTYPE
  5
2
330
0
100
AcDbSymbolTable
 70
3
  0
LTYPE
  5
24
330
2
100
AcDbSymbolTableRecord
100
AcDbLinetypeTableRecord
  2
ByBlock
 70
0
  3

 72
65
 73
0
 40
0.0
  0
LTYPE
  5
25
330
2
100
AcDbSymbolTableRecord
100
AcDbLinetypeTableRecord
  2
ByLayer
 70
0
  3

 72
65
 73
0
 40
0.0
  0
LTYPE
  5
26
330
2
100
AcDbSymbolTableRecord
100
AcDbLinetypeTableRecord
  2
Continuous
 70
0
  3

 72
65
 73
0
 40
0.0
  0
ENDTAB
  0
TABLE
  2
LAYER
  5
1
330
0
100
AcDbSymbolTable
 70
4
  0
LAYER
  5
27
330
1
100
AcDbSymbolTableRecord
100
AcDbLayerTableRecord
  2
0
 70
0
 62
7
  6
Continuous
370
-3
390
13
347
21
  0
LAYER
  5
28
330
1
100
AcDbSymbolTableRecord
100
AcDbLayerTableRecord
  2
Defpoints
 70
0
 62
7
  6
Continuous
290
0
370
-3
390
13
347
21
  0
LAYER
  5
2F
330
1
100
AcDbSymbolTableRecord
100
AcDbLayerTableRecord
  2
WALL
 70
0
 62
7
  6
Continuous
370
-3
390
13
347
21
  0
LAYER
  5
30
330
1
100
AcDbSymbolTableRecord
100
AcDbLayerTableRecord
  2
WINDOW
 70
0
 62
5
  6
Continuous
370
-3
390
13
347
21
  0
ENDTAB
  0
TABLE
  2
STYLE
  5
5
330
0
100
AcDbSymbolTable
 70
1
  0
STYLE
  5
29
330
5
100
AcDbSymbolTableRecord
100
AcDbTextStyleTableRecord
  2
Standard
 70
0
 40
0.0
 41
1.0
 50
0.0
 71
0
 42
2.5
  3
txt
  4

  0
ENDTAB
  0
TABLE
  2
VIEW
  5
7
330
0
100
AcDbSymbolTable
 70
0
  0
ENDTAB
  0
TABLE
  2
UCS
  5
6
330
0
100
AcDbSymbolTable
 70
0
  0
ENDTAB
  0
TABLE
  2
APPID
  5
3
330
0
100
AcDbSymbolTable
 70
3
  0
APPID
  5
2A
330
3
100
AcDbSymbolTableRecord
100
AcDbRegAppTableRecord
  2
ACAD
 70
0
  0
APPID
  5
31D
330
3
100
AcDbSymbolTableRecord
100
AcDbRegAppTableRecord
  2
HATCHBACKGROUNDCOLOR
 70
0
  0
APPID
  5
31E
330
3
100
AcDbSymbolTableRecord
100
AcDbRegAppTableRecord
  2
EZDXF
 70
0
  0
ENDTAB
  0
TABLE
  2
DIMSTYLE
  5
4
330
0
100
AcDbSymbolTable
 70
1
100
AcDbDimStyleTable
  0
DIMSTYLE
105
2B
330
4
100
AcDbSymbolTableRecord
100
AcDbDimStyleTableRecord
  2
Standard
 70
0
 40
1.0
 41
2.5
 42
0.625
 43
3.75
 44
1.25
 45
0.0
 46
0.0
 47
0.0
 48
0.0
 49
2.5
140
2.5
141
2.5
142
0.0
143
0.03937007874
144
1.0
145
0.0
146
1.0
147
0.625
148
0.0
 69
0
 70
0
 71
0
 72
0
 73
0
 74
0
 75
0
 76
0
 77
1
 78
8
 79
3
170
0
171
3
172
1
173
0
174
0
175
0
176
0
177
0
178
0
179
2
271
2
272
2
273
2
274
3
275
0
276
0
277
2
278
44
279
0
280
0
281
0
282
0
283
0
284
8
285
0
286
0
288
0
289
3
290
0
371
-2
372
-2
  0
ENDTAB
  0
TABLE
  2
BLOCK_RECORD
  5
9
330
0
100
AcDbSymbolTable
 70
2
  0
BLOCK_RECORD
  5
17
330
9
100
AcDbSymbolTableRecord
100
AcDbBlockTableRecord
  2
*Model_Space
340
1A
 70
0
280
1
281
0
  0
BLOCK_RECORD
  5
1B
330
9
100
AcDbSymbolTableRecord
100
AcDbBlockTableRecord
  2
*Paper_Space
340
1E
 70
0
280
1
281
0
  0
ENDTAB
  0
ENDSEC
  0
SECTION
  2
BLOCKS
  0
BLOCK
  5
18
330
17
100
AcDbEntity
  8
0
100
AcDbBlockBegin
  2
*Model_Space
 70
0
 10
0.0
 20
0.0
 30
0.0
  3
*Model_Space
  1

  0
ENDBLK
  5
19
330
17
100
AcDbEntity
  8
0
100
AcDbBlockEnd
  0
BLOCK
  5
1C
330
1B
100
AcDbEntity
  8
0
100
AcDbBlockBegin
  2
*Paper_Space
 70
0
 10
0.0
 20
0.0
 30
0.0
  3
*Paper_Space
  1

  0
ENDBLK
  5
1D
330
1B
100
AcDbEntity
  8
0
100
AcDbBlockEnd
  0
ENDSEC
  0
SECTION
  2
ENTITIES
  0
LWPOLYLINE
  5
31
330
17
100
AcDbEntity
  8
WALL
100
AcDbPolyline
 90
4
 70
1
 10
2763.2000000000003
 20
12513.6
 10
3308.8
 20
12513.6
 10
3308.8
 20
12416.800000000001
 10
2763.2000000000003
 20
12416.800000000001
  0
HATCH
  5
32
330
17
100
AcDbEntity
  8
WALL
100
AcDbHatch
 10
0.0
 20
0.0
 30
0.0
210
0.0
220
0.0
230
1.0
  2
SOLID
 70
1
 71
0
 91
1
 92
3
 72
0
 73
1
 93
4
 10
2763.2000000000003
 20
12513.6
 10
3308.8
 20
12513.6
 10
3308.8
 20
12416.800000000001
 10
2763.2000000000003
 20
12416.800000000001
 97
0
 75
1
 76
1
 98
0
  0
LWPOLYLINE
  5
33
330
17
100
AcDbEntity
  8
WALL
100
AcDbPolyline
 90
4
 70
1
 10
4329.6
 20
12513.6
 10
5016.0
 20
12513.6
 10
5016.0
 20
12408.000000000002
 10
4329.6
 20
12408.000000000002
  0
HATCH
  5
34
330
17
100
AcDbEntity
  8
WALL
100
AcDbHatch
 10
0.0
 20
0.0
 30
0.0
210
0.0
220
0.0
230
1.0
  2
SOLID
 70
1
 71
0
 91
1
 92
3
 72
0
 73
1
 93
4
 10
4329.6
 20
12513.6
 10
5016.0
 20
12513.6
 10
5016.0
 20
12408.000000000002
 10
4329.6
 20
12408.000000000002
 97
0
 75
1
 76
1
 98
0
  0
LWPOLYLINE
  5
35
330
17
100
AcDbEntity
  8
WALL
100
AcDbPolyline
 90
4
 70
1
 10
5350.400000000001
 20
12513.6
 10
6952.000000000001
 20
12513.6
 10
6952.000000000001
 20
12408.000000000002
 10
5350.400000000001
 20
12408.000000000002
  0
HATCH
  5
36
330
17
100
AcDbEntity
  8
WALL
100
AcDbHatch
 10
0.0
 20
0.0
 30
0.0
210
0.0
220
0.0
230
1.0
  2
SOLID
 70
1
 71
0
 91
1
 92
3
 72
0
 73
1
 93
4
 10
5350.400000000001
 20
12513.6
 10
6952.000000000001
 20
12513.6
 10
6952.000000000001
 20
12408.000000000002
 10
5350.400000000001
 20
12408.000000000002
 97
0
 75
1
 76
1
 98
0
  0
LWPOLYLINE
  5
37
330
17
100
AcDbEntity
  8
WALL
100
AcDbPolyline
 90
4
 70
1
 10
4523.200000000001
 20
12390.400000000001
 10
4787.200000000001
 20
12390.400000000001
 10
4787.200000000001
 20
12337.6
 10
4523.200000000001
 20
12337.6
  0
HATCH
  5
38
330
17
100
AcDbEntity
  8
WALL
100
AcDbHatch
 10
0.0
 20
0.0
 30
0.0
210
0.0
220
0.0
230
1.0
  2
SOLID
 70
1
 71
0
 91
1
 92
3
 72
0
 73
1
 93
4
 10
4523.200000000001
 20
12390.400000000001
 10
4787.200000000001
 20
12390.400000000001
 10
4787.200000000001
 20
12337.6
 10
4523.200000000001
 20
12337.6
 97
0
 75
1
 76
1
 98
0
  0
LWPOLYLINE
  5
39
330
17
100
AcDbEntity
  8
WALL
100
AcDbPolyline
 90
4
 70
1
 10
4320.8
 20
12372.800000000001
 10
4505.6
 20
12372.800000000001
 10
4505.6
 20
12355.2
 10
4320.8
 20
12355.2
  0
HATCH
  5
3A
330
17
100
AcDbEntity
  8
WALL
100
AcDbHatch
 10
0.0
 20
0.0
 30
0.0
210
0.0
220
0.0
230
1.0
  2
SOLID
 70
1
 71
0
 91
1
 92
3
 72
0
 73
1
 93
4
 10
4320.8
 20
12372.800000000001
 10
4505.6
 20
12372.800000000001
 10
4505.6
 20
12355.2
 10
4320.8
 20
12355.2
 97
0
 75
1
 76
1
 98
0
  0
LWPOLYLINE
  5
3B
330
17
100
AcDbEntity
  8
WALL
100
AcDbPolyline
 90
4
 70
1
 10
5350.400000000001
 20
12364.000000000002
 10
5966.400000000001
 20
12364.000000000002
 10
5966.400000000001
 20
12320.000000000002
 10
5350.400000000001
 20
12320.000000000002
  0
HATCH
  5
3C
330
17
100
AcDbEntity
  8
WALL
100
AcDbHatch
 10
0.0
 20
0.0
 30
0.0
210
0.0
220
0.0
230
1.0
  2
SOLID
 70
1
 71
0
 91
1
 92
3
 72
0
 73
1
 93
4
 10
5350.400000000001
 20
12364.000000000002
 10
5966.400000000001
 20
12364.000000000002
 10
5966.400000000001
 20
12320.000000000002
 10
5350.400000000001
 20
12320.000000000002
 97
0
 75
1
 76
1
 98
0
  0
LWPOLYLINE
  5
3D
330
17
100
AcDbEntity
  8
WALL
100
AcDbPolyline
 90
4
 70
1
 10
6529.6
 20
12372.800000000001
 10
6952.000000000001
 20
12372.800000000001
 10
6952.000000000001
 20
12337.6
 10
6529.6
 20
12337.6
  0
HATCH
  5
3E
330
17
100
AcDbEntity
  8
WALL
100
AcDbHatch
 10
0.0
 20
0.0
 30
0.0
210
0.0
220
0.0
230
1.0
  2
SOLID
 70
1
 71
0
 91
1
 92
3
 72
0
 73
1
 93
4
 10
6529.6
 20
12372.800000000001
 10
6952.000000000001
 20
12372.800000000001
 10
6952.000000000001
 20
12337.6
 10
6529.6
 20
12337.6
 97
0
 75
1
 76
1
 98
0
  0
LWPOLYLINE
  5
3F
330
17
100
AcDbEntity
  8
WALL
100
AcDbPolyline
 90
4
 70
1
 10
5438.400000000001
 20
12302.400000000001
 10
5772.8
 20
12302.400000000001
 10
5772.8
 20
12267.2
 10
5438.400000000001
 20
12267.2
  0
HATCH
  5
40
330
17
100
AcDbEntity
  8
WALL
100
AcDbHatch
 10
0.0
 20
0.0
 30
0.0
210
0.0
220
0.0
230
1.0
  2
SOLID
 70
1
 71
0
 91
1
 92
3
 72
0
 73
1
 93
4
 10
5438.400000000001
 20
12302.400000000001
 10
5772.8
 20
12302.400000000001
 10
5772.8
 20
12267.2
 10
5438.400000000001
 20
12267.2
 97
0
 75
1
 76
1
 98
0
  0
LWPOLYLINE
  5
41
330
17
100
AcDbEntity
  8
WALL
100
AcDbPolyline
 90
4
 70
1
 10
6195.200000000001
 20
12284.800000000001
 10
6617.6
 20
12284.800000000001
 10
6617.6
 20
12232.000000000002
 10
6195.200000000001
 20
12232.000000000002
  0
HATCH
  5
42
330
17
100
AcDbEntity
  8
WALL
100
AcDbHatch
 10
0.0
 20
0.0
 30
0.0
210
0.0
220
0.0
230
1.0
  2
SOLID
 70
1
 71
0
 91
1
 92
3
 72
0
 73
1
 93
4
 10
6195.200000000001
 20
12284.800000000001
 10
6617.6
 20
12284.800000000001
 10
6617.6
 20
12232.000000000002
 10
6195.200000000001
 20
12232.000000000002
 97
0
 75
1
 76
1
 98
0
  0
LWPOLYLINE
  5
43
330
17
100
AcDbEntity
  8
WALL
100
AcDbPolyline
 90
4
 70
1
 10
6793.6
 20
12284.800000000001
 10
7022.400000000001
 20
12284.800000000001
 10
7022.400000000001
 20
12232.000000000002
 10
6793.6
 20
12232.000000000002
  0
HATCH
  5
44
330
17
100
AcDbEntity
  8
WALL
100
AcDbHatch
 10
0.0
 20
0.0
 30
0.0
210
0.0
220
0.0
230
1.0
  2
SOLID
 70
1
 71
0
 91
1
 92
3
 72
0
 73
1
 93
4
 10
6793.6
 20
12284.800000000001
 10
7022.400000000001
 20
12284.800000000001
 10
7022.400000000001
 20
12232.000000000002
 10
6793.6
 20
12232.000000000002
 97
0
 75
1
 76
1
 98
0
  0
LWPOLYLINE
  5
45
330
17
100
AcDbEntity
  8
WALL
100
AcDbPolyline
 90
4
 70
1
 10
6054.400000000001
 20
12196.800000000001
 10
6353.6
 20
12196.800000000001
 10
6353.6
 20
12161.6
 10
6054.400000000001
 20
12161.6
  0
HATCH
  5
46
330
17
100
AcDbEntity
  8
WALL
100
AcDbHatch
 10
0.0
 20
0.0
 30
0.0
210
0.0
220
0.0
230
1.0
  2
SOLID
 70
1
 71
0
 91
1
 92
3
 72
0
 73
1
 93
4
 10
6054.400000000001
 20
12196.800000000001
 10
6353.6
 20
12196.800000000001
 10
6353.6
 20
12161.6
 10
6054.400000000001
 20
12161.6
 97
0
 75
1
 76
1
 98
0
  0
LWPOLYLINE
  5
47
330
17
100
AcDbEntity
  8
WALL
100
AcDbPolyline
 90
4
 70
1
 10
6916.8
 20
12161.6
 10
7110.400000000001
 20
12161.6
 10
7110.400000000001
 20
12144.000000000002
 10
6916.8
 20
12144.000000000002
  0
HATCH
  5
48
330
17
100
AcDbEntity
  8
WALL
100
AcDbHatch
 10
0.0
 20
0.0
 30
0.0
210
0.0
220
0.0
230
1.0
  2
SOLID
 70
1
 71
0
 91
1
 92
3
 72
0
 73
1
 93
4
 10
6916.8
 20
12161.6
 10
7110.400000000001
 20
12161.6
 10
7110.400000000001
 20
12144.000000000002
 10
6916.8
 20
12144.000000000002
 97
0
 75
1
 76
1
 98
0
  0
LWPOLYLINE
  5
49
330
17
100
AcDbEntity
  8
WALL
100
AcDbPolyline
 90
4
 70
1
 10
3889.6000000000004
 20
12144.000000000002
 10
4136.0
 20
12144.000000000002
 10
4136.0
 20
12135.2
 10
3889.6000000000004
 20
12135.2
  0
HATCH
  5
4A
330
17
100
AcDbEntity
  8
WALL
100
AcDbHatch
 10
0.0
 20
0.0
 30
0.0
210
0.0
220
0.0
230
1.0
  2
SOLID
 70
1
 71
0
 91
1
 92
3
 72
0
 73
1
 93
4
 10
3889.6000000000004
 20
12144.000000000002
 10
4136.0
 20
12144.000000000002
 10
4136.0
 20
12135.2
 10
3889.6000000000004
 20
12135.2
 97
0
 75
1
 76
1
 98
0
  0
LWPOLYLINE
  5
4B
330
17
100
AcDbEntity
  8
WALL
100
AcDbPolyline
 90
4
 70
1
 10
7128.000000000001
 20
12073.6
 10
7321.6
 20
12073.6
 10
7321.6
 20
12020.800000000001
 10
7128.000000000001
 20
12020.800000000001
  0
HATCH
  5
4C
330
17
100
AcDbEntity
  8
WALL
100
AcDbHatch
 10
0.0
 20
0.0
 30
0.0
210
0.0
220
0.0
230
1.0
  2
SOLID
 70
1
 71
0
 91
1
 92
3
 72
0
 73
1
 93
4
 10
7128.000000000001
 20
12073.6
 10
7321.6
 20
12073.6
 10
7321.6
 20
12020.800000000001
 10
7128.000000000001
 20
12020.800000000001
 97
0
 75
1
 76
1
 98
0
  0
LWPOLYLINE
  5
4D
330
17
100
AcDbEntity
  8
WALL
100
AcDbPolyline
 90
4
 70
1
 10
7128.000000000001
 20
11880.000000000002
 10
7321.6
 20
11880.000000000002
 10
7321.6
 20
11844.800000000001
 10
7128.000000000001
 20
11844.800000000001
  0
HATCH
  5
4E
330
17
100
AcDbEntity
  8
WALL
100
AcDbHatch
 10
0.0
 20
0.0
 30
0.0
210
0.0
220
0.0
230
1.0
  2
SOLID
 70
1
 71
0
 91
1
 92
3
 72
0
 73
1
 93
4
 10
7128.000000000001
 20
11880.000000000002
 10
7321.6
 20
11880.000000000002
 10
7321.6
 20
11844.800000000001
 10
7128.000000000001
 20
11844.800000000001
 97
0
 75
1
 76
1
 98
0
  0
LWPOLYLINE
  5
4F
330
17
100
AcDbEntity
  8
WALL
100
AcDbPolyline
 90
4
 70
1
 10
7128.000000000001
 20
11827.2
 10
7321.6
 20
11827.2
 10
7321.6
 20
11818.400000000001
 10
7128.000000000001
 20
11818.400000000001
  0
HATCH
  5
50
330
17
100
AcDbEntity
  8
WALL
100
AcDbHatch
 10
0.0
 20
0.0
 30
0.0
210
0.0
220
0.0
230
1.0
  2
SOLID
 70
1
 71
0
 91
1
 92
3
 72
0
 73
1
 93
4
 10
7128.000000000001
 20
11827.2
 10
7321.6
 20
11827.2
 10
7321.6
 20
11818.400000000001
 10
7128.000000000001
 20
11818.400000000001
 97
0
 75
1
 76
1
 98
0
  0
LWPOLYLINE
  5
51
330
17
100
AcDbEntity
  8
WALL
100
AcDbPolyline
 90
4
 70
1
 10
7110.400000000001
 20
11792.000000000002
 10
7321.6
 20
11792.000000000002
 10
7321.6
 20
11774.400000000001
 10
7110.400000000001
 20
11774.400000000001
  0
HATCH
  5
52
330
17
100
AcDbEntity
  8
WALL
100
AcDbHatch
 10
0.0
 20
0.0
 30
0.0
210
0.0
220
0.0
230
1.0
  2
SOLID
 70
1
 71
0
 91
1
 92
3
 72
0
 73
1
 93
4
 10
7110.400000000001
 20
11792.000000000002
 10
7321.6
 20
11792.000000000002
 10
7321.6
 20
11774.400000000001
 10
7110.400000000001
 20
11774.400000000001
 97
0
 75
1
 76
1
 98
0
  0
LWPOLYLINE
  5
53
330
17
100
AcDbEntity
  8
WALL
100
AcDbPolyline
 90
4
 70
1
 10
4347.200000000001
 20
11721.6
 10
5156.8
 20
11721.6
 10
5156.8
 20
11598.400000000001
 10
4347.200000000001
 20
11598.400000000001
  0
HATCH
  5
54
330
17
100
AcDbEntity
  8
WALL
100
AcDbHatch
 10
0.0
 20
0.0
 30
0.0
210
0.0
220
0.0
230
1.0
  2
SOLID
 70
1
 71
0
 91
1
 92
3
 72
0
 73
1
 93
4
 10
4347.200000000001
 20
11721.6
 10
5156.8
 20
11721.6
 10
5156.8
 20
11598.400000000001
 10
4347.200000000001
 20
11598.400000000001
 97
0
 75
1
 76
1
 98
0
  0
LWPOLYLINE
  5
55
330
17
100
AcDbEntity
  8
WALL
100
AcDbPolyline
 90
4
 70
1
 10
4276.8
 20
11616.000000000002
 10
5139.200000000001
 20
11616.000000000002
 10
5139.200000000001
 20
11510.400000000001
 10
4276.8
 20
11510.400000000001
  0
HATCH
  5
56
330
17
100
AcDbEntity
  8
WALL
100
AcDbHatch
 10
0.0
 20
0.0
 30
0.0
210
0.0
220
0.0
230
1.0
  2
SOLID
 70
1
 71
0
 91
1
 92
3
 72
0
 73
1
 93
4
 10
4276.8
 20
11616.000000000002
 10
5139.200000000001
 20
11616.000000000002
 10
5139.200000000001
 20
11510.400000000001
 10
4276.8
 20
11510.400000000001
 97
0
 75
1
 76
1
 98
0
  0
LWPOLYLINE
  5
57
330
17
100
AcDbEntity
  8
WALL
100
AcDbPolyline
 90
4
 70
1
 10
4822.400000000001
 20
11457.6
 10
5086.400000000001
 20
11457.6
 10
5086.400000000001
 20
11352.000000000002
 10
4822.400000000001
 20
11352.000000000002
  0
HATCH
  5
58
330
17
100
AcDbEntity
  8
WALL
100
AcDbHatch
 10
0.0
 20
0.0
 30
0.0
210
0.0
220
0.0
230
1.0
  2
SOLID
 70
1
 71
0
 91
1
 92
3
 72
0
 73
1
 93
4
 10
4822.400000000001
 20
11457.6
 10
5086.400000000001
 20
11457.6
 10
5086.400000000001
 20
11352.000000000002
 10
4822.400000000001
 20
11352.000000000002
 97
0
 75
1
 76
1
 98
0
  0
LWPOLYLINE
  5
59
330
17
100
AcDbEntity
  8
WALL
100
AcDbPolyline
 90
4
 70
1
 10
4470.400000000001
 20
11387.2
 10
4734.400000000001
 20
11387.2
 10
4734.400000000001
 20
11352.000000000002
 10
4470.400000000001
 20
11352.000000000002
  0
HATCH
  5
5A
330
17
100
AcDbEntity
  8
WALL
100
AcDbHatch
 10
0.0
 20
0.0
 30
0.0
210
0.0
220
0.0
230
1.0
  2
SOLID
 70
1
 71
0
 91
1
 92
3
 72
0
 73
1
 93
4
 10
4470.400000000001
 20
11387.2
 10
4734.400000000001
 20
11387.2
 10
4734.400000000001
 20
11352.000000000002
 10
4470.400000000001
 20
11352.000000000002
 97
0
 75
1
 76
1
 98
0
  0
LWPOLYLINE
  5
5B
330
17
100
AcDbEntity
  8
WALL
100
AcDbPolyline
 90
4
 70
1
 10
4840.0
 20
11334.400000000001
 10
5086.400000000001
 20
11334.400000000001
 10
5086.400000000001
 20
11246.400000000001
 10
4840.0
 20
11246.400000000001
  0
HATCH
  5
5C
330
17
100
AcDbEntity
  8
WALL
100
AcDbHatch
 10
0.0
 20
0.0
 30
0.0
210
0.0
220
0.0
230
1.0
  2
SOLID
 70
1
 71
0
 91
1
 92
3
 72
0
 73
1
 93
4
 10
4840.0
 20
11334.400000000001
 10
5086.400000000001
 20
11334.400000000001
 10
5086.400000000001
 20
11246.400000000001
 10
4840.0
 20
11246.400000000001
 97
0
 75
1
 76
1
 98
0
  0
LWPOLYLINE
  5
5D
330
17
100
AcDbEntity
  8
WALL
100
AcDbPolyline
 90
4
 70
1
 10
4470.400000000001
 20
11228.800000000001
 10
5068.8
 20
11228.800000000001
 10
5068.8
 20
11176.0
 10
4470.400000000001
 20
11176.0
  0
HATCH
  5
5E
330
17
100
AcDbEntity
  8
WALL
100
AcDbHatch
 10
0.0
 20
0.0
 30
0.0
210
0.0
220
0.0
230
1.0
  2
SOLID
 70
1
 71
0
 91
1
 92
3
 72
0
 73
1
 93
4
 10
4470.400000000001
 20
11228.800000000001
 10
5068.8
 20
11228.800000000001
 10
5068.8
 20
11176.0
 10
4470.400000000001
 20
11176.0
 97
0
 75
1
 76
1
 98
0
  0
LWPOLYLINE
  5
5F
330
17
100
AcDbEntity
  8
WALL
100
AcDbPolyline
 90
4
 70
1
 10
4769.6
 20
11070.400000000001
 10
5086.400000000001
 20
11070.400000000001
 10
5086.400000000001
 20
11017.6
 10
4769.6
 20
11017.6
  0
HATCH
  5
60
330
17
100
AcDbEntity
  8
WALL
100
AcDbHatch
 10
0.0
 20
0.0
 30
0.0
210
0.0
220
0.0
230
1.0
  2
SOLID
 70
1
 71
0
 91
1
 92
3
 72
0
 73
1
 93
4
 10
4769.6
 20
11070.400000000001
 10
5086.400000000001
 20
11070.400000000001
 10
5086.400000000001
 20
11017.6
 10
4769.6
 20
11017.6
 97
0
 75
1
 76
1
 98
0
  0
LWPOLYLINE
  5
61
330
17
100
AcDbEntity
  8
WALL
100
AcDbPolyline
 90
4
 70
1
 10
4840.0
 20
10718.400000000001
 10
5086.400000000001
 20
10718.400000000001
 10
5086.400000000001
 20
10692.0
 10
4840.0
 20
10692.0
  0
HATCH
  5
62
330
17
100
AcDbEntity
  8
WALL
100
AcDbHatch
 10
0.0
 20
0.0
 30
0.0
210
0.0
220
0.0
230
1.0
  2
SOLID
 70
1
 71
0
 91
1
 92
3
 72
0
 73
1
 93
4
 10
4840.0
 20
10718.400000000001
 10
5086.400000000001
 20
10718.400000000001
 10
5086.400000000001
 20
10692.0
 10
4840.0
 20
10692.0
 97
0
 75
1
 76
1
 98
0
  0
LWPOLYLINE
  5
63
330
17
100
AcDbEntity
  8
WALL
100
AcDbPolyline
 90
4
 70
1
 10
5649.6
 20
10445.6
 10
5860.8
 20
10445.6
 10
5860.8
 20
10384.0
 10
5649.6
 20
10384.0
  0
HATCH
  5
64
330
17
100
AcDbEntity
  8
WALL
100
AcDbHatch
 10
0.0
 20
0.0
 30
0.0
210
0.0
220
0.0
230
1.0
  2
SOLID
 70
1
 71
0
 91
1
 92
3
 72
0
 73
1
 93
4
 10
5649.6
 20
10445.6
 10
5860.8
 20
10445.6
 10
5860.8
 20
10384.0
 10
5649.6
 20
10384.0
 97
0
 75
1
 76
1
 98
0
  0
LWPOLYLINE
  5
65
330
17
100
AcDbEntity
  8
WALL
100
AcDbPolyline
 90
4
 70
1
 10
5121.6
 20
10419.2
 10
5561.6
 20
10419.2
 10
5561.6
 20
10384.0
 10
5121.6
 20
10384.0
  0
HATCH
  5
66
330
17
100
AcDbEntity
  8
WALL
100
AcDbHatch
 10
0.0
 20
0.0
 30
0.0
210
0.0
220
0.0
230
1.0
  2
SOLID
 70
1
 71
0
 91
1
 92
3
 72
0
 73
1
 93
4
 10
5121.6
 20
10419.2
 10
5561.6
 20
10419.2
 10
5561.6
 20
10384.0
 10
5121.6
 20
10384.0
 97
0
 75
1
 76
1
 98
0
  0
LWPOLYLINE
  5
67
330
17
100
AcDbEntity
  8
WALL
100
AcDbPolyline
 90
4
 70
1
 10
6036.8
 20
10419.2
 10
6388.8
 20
10419.2
 10
6388.8
 20
10384.0
 10
6036.8
 20
10384.0
  0
HATCH
  5
68
330
17
100
AcDbEntity
  8
WALL
100
AcDbHatch
 10
0.0
 20
0.0
 30
0.0
210
0.0
220
0.0
230
1.0
  2
SOLID
 70
1
 71
0
 91
1
 92
3
 72
0
 73
1
 93
4
 10
6036.8
 20
10419.2
 10
6388.8
 20
10419.2
 10
6388.8
 20
10384.0
 10
6036.8
 20
10384.0
 97
0
 75
1
 76
1
 98
0
  0
LWPOLYLINE
  5
69
330
17
100
AcDbEntity
  8
WALL
100
AcDbPolyline
 90
4
 70
1
 10
1848.0000000000002
 20
10366.400000000001
 10
2200.0
 20
10366.400000000001
 10
2200.0
 20
10260.800000000001
 10
1848.0000000000002
 20
10260.800000000001
  0
HATCH
  5
6A
330
17
100
AcDbEntity
  8
WALL
100
AcDbHatch
 10
0.0
 20
0.0
 30
0.0
210
0.0
220
0.0
230
1.0
  2
SOLID
 70
1
 71
0
 91
1
 92
3
 72
0
 73
1
 93
4
 10
1848.0000000000002
 20
10366.400000000001
 10
2200.0
 20
10366.400000000001
 10
2200.0
 20
10260.800000000001
 10
1848.0000000000002
 20
10260.800000000001
 97
0
 75
1
 76
1
 98
0
  0
LWPOLYLINE
  5
6B
330
17
100
AcDbEntity
  8
WALL
100
AcDbPolyline
 90
4
 70
1
 10
10929.6
 20
10366.400000000001
 10
11211.2
 20
10366.400000000001
 10
11211.2
 20
10313.6
 10
10929.6
 20
10313.6
  0
HATCH
  5
6C
330
17
100
AcDbEntity
  8
WALL
100
AcDbHatch
 10
0.0
 20
0.0
 30
0.0
210
0.0
220
0.0
230
1.0
  2
SOLID
 70
1
 71
0
 91
1
 92
3
 72
0
 73
1
 93
4
 10
10929.6
 20
10366.400000000001
 10
11211.2
 20
10366.400000000001
 10
11211.2
 20
10313.6
 10
10929.6
 20
10313.6
 97
0
 75
1
 76
1
 98
0
  0
LWPOLYLINE
  5
6D
330
17
100
AcDbEntity
  8
WALL
100
AcDbPolyline
 90
4
 70
1
 10
11422.400000000001
 20
10366.400000000001
 10
11616.000000000002
 20
10366.400000000001
 10
11616.000000000002
 20
10348.800000000001
 10
11422.400000000001
 20
10348.800000000001
  0
HATCH
  5
6E
330
17
100
AcDbEntity
  8
WALL
100
AcDbHatch
 10
0.0
 20
0.0
 30
0.0
210
0.0
220
0.0
230
1.0
  2
SOLID
 70
1
 71
0
 91
1
 92
3
 72
0
 73
1
 93
4
 10
11422.400000000001
 20
10366.400000000001
 10
11616.000000000002
 20
10366.400000000001
 10
11616.000000000002
 20
10348.800000000001
 10
11422.400000000001
 20
10348.800000000001
 97
0
 75
1
 76
1
 98
0
  0
LWPOLYLINE
  5
6F
330
17
100
AcDbEntity
  8
WALL
100
AcDbPolyline
 90
4
 70
1
 10
10172.800000000001
 20
10331.2
 10
10595.2
 20
10331.2
 10
10595.2
 20
10190.400000000001
 10
10172.800000000001
 20
10190.400000000001
  0
HATCH
  5
70
330
17
100
AcDbEntity
  8
WALL
100
AcDbHatch
 10
0.0
 20
0.0
 30
0.0
210
0.0
220
0.0
230
1.0
  2
SOLID
 70
1
 71
0
 91
1
 92
3
 72
0
 73
1
 93
4
 10
10172.800000000001
 20
10331.2
 10
10595.2
 20
10331.2
 10
10595.2
 20
10190.400000000001
 10
10172.800000000001
 20
10190.400000000001
 97
0
 75
1
 76
1
 98
0
  0
LWPOLYLINE
  5
71
330
17
100
AcDbEntity
  8
WALL
100
AcDbPolyline
 90
4
 70
1
 10
11422.400000000001
 20
10313.6
 10
11704.000000000002
 20
10313.6
 10
11704.000000000002
 20
10225.6
 10
11422.400000000001
 20
10225.6
  0
HATCH
  5
72
330
17
100
AcDbEntity
  8
WALL
100
AcDbHatch
 10
0.0
 20
0.0
 30
0.0
210
0.0
220
0.0
230
1.0
  2
SOLID
 70
1
 71
0
 91
1
 92
3
 72
0
 73
1
 93
4
 10
11422.400000000001
 20
10313.6
 10
11704.000000000002
 20
10313.6
 10
11704.000000000002
 20
10225.6
 10
11422.400000000001
 20
10225.6
 97
0
 75
1
 76
1
 98
0
  0
LWPOLYLINE
  5
73
330
17
100
AcDbEntity
  8
WALL
100
AcDbPolyline
 90
4
 70
1
 10
3625.6000000000004
 20
10296.0
 10
3819.2000000000003
 20
10296.0
 10
3819.2000000000003
 20
10269.6
 10
3625.6000000000004
 20
10269.6
  0
HATCH
  5
74
330
17
100
AcDbEntity
  8
WALL
100
AcDbHatch
 10
0.0
 20
0.0
 30
0.0
210
0.0
220
0.0
230
1.0
  2
SOLID
 70
1
 71
0
 91
1
 92
3
 72
0
 73
1
 93
4
 10
3625.6000000000004
 20
10296.0
 10
3819.2000000000003
 20
10296.0
 10
3819.2000000000003
 20
10269.6
 10
3625.6000000000004
 20
10269.6
 97
0
 75
1
 76
1
 98
0
  0
LWPOLYLINE
  5
75
330
17
100
AcDbEntity
  8
WALL
100
AcDbPolyline
 90
4
 70
1
 10
2481.6000000000004
 20
10278.400000000001
 10
2692.8
 20
10278.400000000001
 10
2692.8
 20
10260.800000000001
 10
2481.6000000000004
 20
10260.800000000001
  0
HATCH
  5
76
330
17
100
AcDbEntity
  8
WALL
100
AcDbHatch
 10
0.0
 20
0.0
 30
0.0
210
0.0
220
0.0
230
1.0
  2
SOLID
 70
1
 71
0
 91
1
 92
3
 72
0
 73
1
 93
4
 10
2481.6000000000004
 20
10278.400000000001
 10
2692.8
 20
10278.400000000001
 10
2692.8
 20
10260.800000000001
 10
2481.6000000000004
 20
10260.800000000001
 97
0
 75
1
 76
1
 98
0
  0
LWPOLYLINE
  5
77
330
17
100
AcDbEntity
  8
WALL
100
AcDbPolyline
 90
4
 70
1
 10
3361.6000000000004
 20
10260.800000000001
 10
3555.2000000000003
 20
10260.800000000001
 10
3555.2000000000003
 20
10243.2
 10
3361.6000000000004
 20
10243.2
  0
HATCH
  5
78
330
17
100
AcDbEntity
  8
WALL
100
AcDbHatch
 10
0.0
 20
0.0
 30
0.0
210
0.0
220
0.0
230
1.0
  2
SOLID
 70
1
 71
0
 91
1
 92
3
 72
0
 73
1
 93
4
 10
3361.6000000000004
 20
10260.800000000001
 10
3555.2000000000003
 20
10260.800000000001
 10
3555.2000000000003
 20
10243.2
 10
3361.6000000000004
 20
10243.2
 97
0
 75
1
 76
1
 98
0
  0
LWPOLYLINE
  5
79
330
17
100
AcDbEntity
  8
WALL
100
AcDbPolyline
 90
4
 70
1
 10
6916.8
 20
10260.800000000001
 10
7110.400000000001
 20
10260.800000000001
 10
7110.400000000001
 20
10243.2
 10
6916.8
 20
10243.2
  0
HATCH
  5
7A
330
17
100
AcDbEntity
  8
WALL
100
AcDbHatch
 10
0.0
 20
0.0
 30
0.0
210
0.0
220
0.0
230
1.0
  2
SOLID
 70
1
 71
0
 91
1
 92
3
 72
0
 73
1
 93
4
 10
6916.8
 20
10260.800000000001
 10
7110.400000000001
 20
10260.800000000001
 10
7110.400000000001
 20
10243.2
 10
6916.8
 20
10243.2
 97
0
 75
1
 76
1
 98
0
  0
LWPOLYLINE
  5
7B
330
17
100
AcDbEntity
  8
WALL
100
AcDbPolyline
 90
4
 70
1
 10
7462.400000000001
 20
10234.400000000001
 10
8588.800000000001
 20
10234.400000000001
 10
8588.800000000001
 20
10137.6
 10
7462.400000000001
 20
10137.6
  0
HATCH
  5
7C
330
17
100
AcDbEntity
  8
WALL
100
AcDbHatch
 10
0.0
 20
0.0
 30
0.0
210
0.0
220
0.0
230
1.0
  2
SOLID
 70
1
 71
0
 91
1
 92
3
 72
0
 73
1
 93
4
 10
7462.400000000001
 20
10234.400000000001
 10
8588.800000000001
 20
10234.400000000001
 10
8588.800000000001
 20
10137.6
 10
7462.400000000001
 20
10137.6
 97
0
 75
1
 76
1
 98
0
  0
LWPOLYLINE
  5
7D
330
17
100
AcDbEntity
  8
WALL
100
AcDbPolyline
 90
4
 70
1
 10
8993.6
 20
10243.2
 10
9891.2
 20
10243.2
 10
9891.2
 20
10102.400000000001
 10
8993.6
 20
10102.400000000001
  0
HATCH
  5
7E
330
17
100
AcDbEntity
  8
WALL
100
AcDbHatch
 10
0.0
 20
0.0
 30
0.0
210
0.0
220
0.0
230
1.0
  2
SOLID
 70
1
 71
0
 91
1
 92
3
 72
0
 73
1
 93
4
 10
8993.6
 20
10243.2
 10
9891.2
 20
10243.2
 10
9891.2
 20
10102.400000000001
 10
8993.6
 20
10102.400000000001
 97
0
 75
1
 76
1
 98
0
  0
LWPOLYLINE
  5
7F
330
17
100
AcDbEntity
  8
WALL
100
AcDbPolyline
 90
4
 70
1
 10
5280.0
 20
10225.6
 10
6283.200000000001
 20
10225.6
 10
6283.200000000001
 20
10137.6
 10
5280.0
 20
10137.6
  0
HATCH
  5
80
330
17
100
AcDbEntity
  8
WALL
100
AcDbHatch
 10
0.0
 20
0.0
 30
0.0
210
0.0
220
0.0
230
1.0
  2
SOLID
 70
1
 71
0
 91
1
 92
3
 72
0
 73
1
 93
4
 10
5280.0
 20
10225.6
 10
6283.200000000001
 20
10225.6
 10
6283.200000000001
 20
10137.6
 10
5280.0
 20
10137.6
 97
0
 75
1
 76
1
 98
0
  0
LWPOLYLINE
  5
81
330
17
100
AcDbEntity
  8
WALL
100
AcDbPolyline
 90
4
 70
1
 10
6300.8
 20
10225.6
 10
7022.400000000001
 20
10225.6
 10
7022.400000000001
 20
10172.800000000001
 10
6300.8
 20
10172.800000000001
  0
HATCH
  5
82
330
17
100
AcDbEntity
  8
WALL
100
AcDbHatch
 10
0.0
 20
0.0
 30
0.0
210
0.0
220
0.0
230
1.0
  2
SOLID
 70
1
 71
0
 91
1
 92
3
 72
0
 73
1
 93
4
 10
6300.8
 20
10225.6
 10
7022.400000000001
 20
10225.6
 10
7022.400000000001
 20
10172.800000000001
 10
6300.8
 20
10172.800000000001
 97
0
 75
1
 76
1
 98
0
  0
LWPOLYLINE
  5
83
330
17
100
AcDbEntity
  8
WALL
100
AcDbPolyline
 90
4
 70
1
 10
2305.6000000000004
 20
10111.2
 10
2499.2000000000003
 20
10111.2
 10
2499.2000000000003
 20
10067.2
 10
2305.6000000000004
 20
10067.2
  0
HATCH
  5
84
330
17
100
AcDbEntity
  8
WALL
100
AcDbHatch
 10
0.0
 20
0.0
 30
0.0
210
0.0
220
0.0
230
1.0
  2
SOLID
 70
1
 71
0
 91
1
 92
3
 72
0
 73
1
 93
4
 10
2305.6000000000004
 20
10111.2
 10
2499.2000000000003
 20
10111.2
 10
2499.2000000000003
 20
10067.2
 10
2305.6000000000004
 20
10067.2
 97
0
 75
1
 76
1
 98
0
  0
LWPOLYLINE
  5
85
330
17
100
AcDbEntity
  8
WALL
100
AcDbPolyline
 90
4
 70
1
 10
1830.4
 20
10102.400000000001
 10
2200.0
 20
10102.400000000001
 10
2200.0
 20
10049.6
 10
1830.4
 20
10049.6
  0
HATCH
  5
86
330
17
100
AcDbEntity
  8
WALL
100
AcDbHatch
 10
0.0
 20
0.0
 30
0.0
210
0.0
220
0.0
230
1.0
  2
SOLID
 70
1
 71
0
 91
1
 92
3
 72
0
 73
1
 93
4
 10
1830.4
 20
10102.400000000001
 10
2200.0
 20
10102.400000000001
 10
2200.0
 20
10049.6
 10
1830.4
 20
10049.6
 97
0
 75
1
 76
1
 98
0
  0
LWPOLYLINE
  5
87
330
17
100
AcDbEntity
  8
WALL
100
AcDbPolyline
 90
4
 70
1
 10
9328.0
 20
10102.400000000001
 10
9592.0
 20
10102.400000000001
 10
9592.0
 20
10067.2
 10
9328.0
 20
10067.2
  0
HATCH
  5
88
330
17
100
AcDbEntity
  8
WALL
100
AcDbHatch
 10
0.0
 20
0.0
 30
0.0
210
0.0
220
0.0
230
1.0
  2
SOLID
 70
1
 71
0
 91
1
 92
3
 72
0
 73
1
 93
4
 10
9328.0
 20
10102.400000000001
 10
9592.0
 20
10102.400000000001
 10
9592.0
 20
10067.2
 10
9328.0
 20
10067.2
 97
0
 75
1
 76
1
 98
0
  0
LWPOLYLINE
  5
89
330
17
100
AcDbEntity
  8
WALL
100
AcDbPolyline
 90
4
 70
1
 10
10049.6
 20
10102.400000000001
 10
10348.800000000001
 20
10102.400000000001
 10
10348.800000000001
 20
10049.6
 10
10049.6
 20
10049.6
  0
HATCH
  5
8A
330
17
100
AcDbEntity
  8
WALL
100
AcDbHatch
 10
0.0
 20
0.0
 30
0.0
210
0.0
220
0.0
230
1.0
  2
SOLID
 70
1
 71
0
 91
1
 92
3
 72
0
 73
1
 93
4
 10
10049.6
 20
10102.400000000001
 10
10348.800000000001
 20
10102.400000000001
 10
10348.800000000001
 20
10049.6
 10
10049.6
 20
10049.6
 97
0
 75
1
 76
1
 98
0
  0
LWPOLYLINE
  5
8B
330
17
100
AcDbEntity
  8
WALL
100
AcDbPolyline
 90
4
 70
1
 10
6828.8
 20
10084.800000000001
 10
7128.000000000001
 20
10084.800000000001
 10
7128.000000000001
 20
10049.6
 10
6828.8
 20
10049.6
  0
HATCH
  5
8C
330
17
100
AcDbEntity
  8
WALL
100
AcDbHatch
 10
0.0
 20
0.0
 30
0.0
210
0.0
220
0.0
230
1.0
  2
SOLID
 70
1
 71
0
 91
1
 92
3
 72
0
 73
1
 93
4
 10
6828.8
 20
10084.800000000001
 10
7128.000000000001
 20
10084.800000000001
 10
7128.000000000001
 20
10049.6
 10
6828.8
 20
10049.6
 97
0
 75
1
 76
1
 98
0
  0
LWPOLYLINE
  5
8D
330
17
100
AcDbEntity
  8
WALL
100
AcDbPolyline
 90
4
 70
1
 10
2675.2000000000003
 20
10040.800000000001
 10
2868.8
 20
10040.800000000001
 10
2868.8
 20
10023.2
 10
2675.2000000000003
 20
10023.2
  0
HATCH
  5
8E
330
17
100
AcDbEntity
  8
WALL
100
AcDbHatch
 10
0.0
 20
0.0
 30
0.0
210
0.0
220
0.0
230
1.0
  2
SOLID
 70
1
 71
0
 91
1
 92
3
 72
0
 73
1
 93
4
 10
2675.2000000000003
 20
10040.800000000001
 10
2868.8
 20
10040.800000000001
 10
2868.8
 20
10023.2
 10
2675.2000000000003
 20
10023.2
 97
0
 75
1
 76
1
 98
0
  0
LWPOLYLINE
  5
8F
330
17
100
AcDbEntity
  8
WALL
100
AcDbPolyline
 90
4
 70
1
 10
2147.2000000000003
 20
10005.6
 10
2393.6000000000004
 20
10005.6
 10
2393.6000000000004
 20
9979.2
 10
2147.2000000000003
 20
9979.2
  0
HATCH
  5
90
330
17
100
AcDbEntity
  8
WALL
100
AcDbHatch
 10
0.0
 20
0.0
 30
0.0
210
0.0
220
0.0
230
1.0
  2
SOLID
 70
1
 71
0
 91
1
 92
3
 72
0
 73
1
 93
4
 10
2147.2000000000003
 20
10005.6
 10
2393.6000000000004
 20
10005.6
 10
2393.6000000000004
 20
9979.2
 10
2147.2000000000003
 20
9979.2
 97
0
 75
1
 76
1
 98
0
  0
LWPOLYLINE
  5
91
330
17
100
AcDbEntity
  8
WALL
100
AcDbPolyline
 90
4
 70
1
 10
1865.6000000000001
 20
9979.2
 10
2059.2000000000003
 20
9979.2
 10
2059.2000000000003
 20
9970.400000000001
 10
1865.6000000000001
 20
9970.400000000001
  0
HATCH
  5
92
330
17
100
AcDbEntity
  8
WALL
100
AcDbHatch
 10
0.0
 20
0.0
 30
0.0
210
0.0
220
0.0
230
1.0
  2
SOLID
 70
1
 71
0
 91
1
 92
3
 72
0
 73
1
 93
4
 10
1865.6000000000001
 20
9979.2
 10
2059.2000000000003
 20
9979.2
 10
2059.2000000000003
 20
9970.400000000001
 10
1865.6000000000001
 20
9970.400000000001
 97
0
 75
1
 76
1
 98
0
  0
LWPOLYLINE
  5
93
330
17
100
AcDbEntity
  8
WALL
100
AcDbPolyline
 90
4
 70
1
 10
3801.6000000000004
 20
9979.2
 10
4030.4000000000005
 20
9979.2
 10
4030.4000000000005
 20
9944.0
 10
3801.6000000000004
 20
9944.0
  0
HATCH
  5
94
330
17
100
AcDbEntity
  8
WALL
100
AcDbHatch
 10
0.0
 20
0.0
 30
0.0
210
0.0
220
0.0
230
1.0
  2
SOLID
 70
1
 71
0
 91
1
 92
3
 72
0
 73
1
 93
4
 10
3801.6000000000004
 20
9979.2
 10
4030.4000000000005
 20
9979.2
 10
4030.4000000000005
 20
9944.0
 10
3801.6000000000004
 20
9944.0
 97
0
 75
1
 76
1
 98
0
  0
LWPOLYLINE
  5
95
330
17
100
AcDbEntity
  8
WALL
100
AcDbPolyline
 90
4
 70
1
 10
3238.4
 20
9961.6
 10
3537.6000000000004
 20
9961.6
 10
3537.6000000000004
 20
9926.400000000001
 10
3238.4
 20
9926.400000000001
  0
HATCH
  5
96
330
17
100
AcDbEntity
  8
WALL
100
AcDbHatch
 10
0.0
 20
0.0
 30
0.0
210
0.0
220
0.0
230
1.0
  2
SOLID
 70
1
 71
0
 91
1
 92
3
 72
0
 73
1
 93
4
 10
3238.4
 20
9961.6
 10
3537.6000000000004
 20
9961.6
 10
3537.6000000000004
 20
9926.400000000001
 10
3238.4
 20
9926.400000000001
 97
0
 75
1
 76
1
 98
0
  0
LWPOLYLINE
  5
97
330
17
100
AcDbEntity
  8
WALL
100
AcDbPolyline
 90
4
 70
1
 10
1848.0000000000002
 20
9944.0
 10
2041.6000000000001
 20
9944.0
 10
2041.6000000000001
 20
9917.6
 10
1848.0000000000002
 20
9917.6
  0
HATCH
  5
98
330
17
100
AcDbEntity
  8
WALL
100
AcDbHatch
 10
0.0
 20
0.0
 30
0.0
210
0.0
220
0.0
230
1.0
  2
SOLID
 70
1
 71
0
 91
1
 92
3
 72
0
 73
1
 93
4
 10
1848.0000000000002
 20
9944.0
 10
2041.6000000000001
 20
9944.0
 10
2041.6000000000001
 20
9917.6
 10
1848.0000000000002
 20
9917.6
 97
0
 75
1
 76
1
 98
0
  0
LWPOLYLINE
  5
99
330
17
100
AcDbEntity
  8
WALL
100
AcDbPolyline
 90
4
 70
1
 10
2270.4
 20
9768.0
 10
2499.2000000000003
 20
9768.0
 10
2499.2000000000003
 20
9706.400000000001
 10
2270.4
 20
9706.400000000001
  0
HATCH
  5
9A
330
17
100
AcDbEntity
  8
WALL
100
AcDbHatch
 10
0.0
 20
0.0
 30
0.0
210
0.0
220
0.0
230
1.0
  2
SOLID
 70
1
 71
0
 91
1
 92
3
 72
0
 73
1
 93
4
 10
2270.4
 20
9768.0
 10
2499.2000000000003
 20
9768.0
 10
2499.2000000000003
 20
9706.400000000001
 10
2270.4
 20
9706.400000000001
 97
0
 75
1
 76
1
 98
0
  0
LWPOLYLINE
  5
9B
330
17
100
AcDbEntity
  8
WALL
100
AcDbPolyline
 90
4
 70
1
 10
3801.6000000000004
 20
9732.800000000001
 10
4030.4000000000005
 20
9732.800000000001
 10
4030.4000000000005
 20
9706.400000000001
 10
3801.6000000000004
 20
9706.400000000001
  0
HATCH
  5
9C
330
17
100
AcDbEntity
  8
WALL
100
AcDbHatch
 10
0.0
 20
0.0
 30
0.0
210
0.0
220
0.0
230
1.0
  2
SOLID
 70
1
 71
0
 91
1
 92
3
 72
0
 73
1
 93
4
 10
3801.6000000000004
 20
9732.800000000001
 10
4030.4000000000005
 20
9732.800000000001
 10
4030.4000000000005
 20
9706.400000000001
 10
3801.6000000000004
 20
9706.400000000001
 97
0
 75
1
 76
1
 98
0
  0
LWPOLYLINE
  5
9D
330
17
100
AcDbEntity
  8
WALL
100
AcDbPolyline
 90
4
 70
1
 10
3801.6000000000004
 20
9574.400000000001
 10
4083.2000000000003
 20
9574.400000000001
 10
4083.2000000000003
 20
9521.6
 10
3801.6000000000004
 20
9521.6
  0
HATCH
  5
9E
330
17
100
AcDbEntity
  8
WALL
100
AcDbHatch
 10
0.0
 20
0.0
 30
0.0
210
0.0
220
0.0
230
1.0
  2
SOLID
 70
1
 71
0
 91
1
 92
3
 72
0
 73
1
 93
4
 10
3801.6000000000004
 20
9574.400000000001
 10
4083.2000000000003
 20
9574.400000000001
 10
4083.2000000000003
 20
9521.6
 10
3801.6000000000004
 20
9521.6
 97
0
 75
1
 76
1
 98
0
  0
LWPOLYLINE
  5
9F
330
17
100
AcDbEntity
  8
WALL
100
AcDbPolyline
 90
4
 70
1
 10
10032.0
 20
9468.800000000001
 10
10436.800000000001
 20
9468.800000000001
 10
10436.800000000001
 20
9416.0
 10
10032.0
 20
9416.0
  0
HATCH
  5
A0
330
17
100
AcDbEntity
  8
WALL
100
AcDbHatch
 10
0.0
 20
0.0
 30
0.0
210
0.0
220
0.0
230
1.0
  2
SOLID
 70
1
 71
0
 91
1
 92
3
 72
0
 73
1
 93
4
 10
10032.0
 20
9468.800000000001
 10
10436.800000000001
 20
9468.800000000001
 10
10436.800000000001
 20
9416.0
 10
10032.0
 20
9416.0
 97
0
 75
1
 76
1
 98
0
  0
LWPOLYLINE
  5
A1
330
17
100
AcDbEntity
  8
WALL
100
AcDbPolyline
 90
4
 70
1
 10
3801.6000000000004
 20
9451.2
 10
4100.8
 20
9451.2
 10
4100.8
 20
9380.800000000001
 10
3801.6000000000004
 20
9380.800000000001
  0
HATCH
  5
A2
330
17
100
AcDbEntity
  8
WALL
100
AcDbHatch
 10
0.0
 20
0.0
 30
0.0
210
0.0
220
0.0
230
1.0
  2
SOLID
 70
1
 71
0
 91
1
 92
3
 72
0
 73
1
 93
4
 10
3801.6000000000004
 20
9451.2
 10
4100.8
 20
9451.2
 10
4100.8
 20
9380.800000000001
 10
3801.6000000000004
 20
9380.800000000001
 97
0
 75
1
 76
1
 98
0
  0
LWPOLYLINE
  5
A3
330
17
100
AcDbEntity
  8
WALL
100
AcDbPolyline
 90
4
 70
1
 10
6811.200000000001
 20
9451.2
 10
7216.000000000001
 20
9451.2
 10
7216.000000000001
 20
9407.2
 10
6811.200000000001
 20
9407.2
  0
HATCH
  5
A4
330
17
100
AcDbEntity
  8
WALL
100
AcDbHatch
 10
0.0
 20
0.0
 30
0.0
210
0.0
220
0.0
230
1.0
  2
SOLID
 70
1
 71
0
 91
1
 92
3
 72
0
 73
1
 93
4
 10
6811.200000000001
 20
9451.2
 10
7216.000000000001
 20
9451.2
 10
7216.000000000001
 20
9407.2
 10
6811.200000000001
 20
9407.2
 97
0
 75
1
 76
1
 98
0
  0
LWPOLYLINE
  5
A5
330
17
100
AcDbEntity
  8
WALL
100
AcDbPolyline
 90
4
 70
1
 10
10032.0
 20
9336.800000000001
 10
10243.2
 20
9336.800000000001
 10
10243.2
 20
9310.400000000001
 10
10032.0
 20
9310.400000000001
  0
HATCH
  5
A6
330
17
100
AcDbEntity
  8
WALL
100
AcDbHatch
 10
0.0
 20
0.0
 30
0.0
210
0.0
220
0.0
230
1.0
  2
SOLID
 70
1
 71
0
 91
1
 92
3
 72
0
 73
1
 93
4
 10
10032.0
 20
9336.800000000001
 10
10243.2
 20
9336.800000000001
 10
10243.2
 20
9310.400000000001
 10
10032.0
 20
9310.400000000001
 97
0
 75
1
 76
1
 98
0
  0
LWPOLYLINE
  5
A7
330
17
100
AcDbEntity
  8
WALL
100
AcDbPolyline
 90
4
 70
1
 10
6881.6
 20
9328.0
 10
7233.6
 20
9328.0
 10
7233.6
 20
9292.800000000001
 10
6881.6
 20
9292.800000000001
  0
HATCH
  5
A8
330
17
100
AcDbEntity
  8
WALL
100
AcDbHatch
 10
0.0
 20
0.0
 30
0.0
210
0.0
220
0.0
230
1.0
  2
SOLID
 70
1
 71
0
 91
1
 92
3
 72
0
 73
1
 93
4
 10
6881.6
 20
9328.0
 10
7233.6
 20
9328.0
 10
7233.6
 20
9292.800000000001
 10
6881.6
 20
9292.800000000001
 97
0
 75
1
 76
1
 98
0
  0
LWPOLYLINE
  5
A9
330
17
100
AcDbEntity
  8
WALL
100
AcDbPolyline
 90
4
 70
1
 10
4716.8
 20
9275.2
 10
5104.0
 20
9275.2
 10
5104.0
 20
9187.2
 10
4716.8
 20
9187.2
  0
HATCH
  5
AA
330
17
100
AcDbEntity
  8
WALL
100
AcDbHatch
 10
0.0
 20
0.0
 30
0.0
210
0.0
220
0.0
230
1.0
  2
SOLID
 70
1
 71
0
 91
1
 92
3
 72
0
 73
1
 93
4
 10
4716.8
 20
9275.2
 10
5104.0
 20
9275.2
 10
5104.0
 20
9187.2
 10
4716.8
 20
9187.2
 97
0
 75
1
 76
1
 98
0
  0
LWPOLYLINE
  5
AB
330
17
100
AcDbEntity
  8
WALL
100
AcDbPolyline
 90
4
 70
1
 10
7532.8
 20
9169.6
 10
7726.400000000001
 20
9169.6
 10
7726.400000000001
 20
9143.2
 10
7532.8
 20
9143.2
  0
HATCH
  5
AC
330
17
100
AcDbEntity
  8
WALL
100
AcDbHatch
 10
0.0
 20
0.0
 30
0.0
210
0.0
220
0.0
230
1.0
  2
SOLID
 70
1
 71
0
 91
1
 92
3
 72
0
 73
1
 93
4
 10
7532.8
 20
9169.6
 10
7726.400000000001
 20
9169.6
 10
7726.400000000001
 20
9143.2
 10
7532.8
 20
9143.2
 97
0
 75
1
 76
1
 98
0
  0
LWPOLYLINE
  5
AD
330
17
100
AcDbEntity
  8
WALL
100
AcDbPolyline
 90
4
 70
1
 10
7673.6
 20
8940.800000000001
 10
7955.200000000001
 20
8940.800000000001
 10
7955.200000000001
 20
8905.6
 10
7673.6
 20
8905.6
  0
HATCH
  5
AE
330
17
100
AcDbEntity
  8
WALL
100
AcDbHatch
 10
0.0
 20
0.0
 30
0.0
210
0.0
220
0.0
230
1.0
  2
SOLID
 70
1
 71
0
 91
1
 92
3
 72
0
 73
1
 93
4
 10
7673.6
 20
8940.800000000001
 10
7955.200000000001
 20
8940.800000000001
 10
7955.200000000001
 20
8905.6
 10
7673.6
 20
8905.6
 97
0
 75
1
 76
1
 98
0
  0
LWPOLYLINE
  5
AF
330
17
100
AcDbEntity
  8
WALL
100
AcDbPolyline
 90
4
 70
1
 10
6811.200000000001
 20
8720.800000000001
 10
7233.6
 20
8720.800000000001
 10
7233.6
 20
8641.6
 10
6811.200000000001
 20
8641.6
  0
HATCH
  5
B0
330
17
100
AcDbEntity
  8
WALL
100
AcDbHatch
 10
0.0
 20
0.0
 30
0.0
210
0.0
220
0.0
230
1.0
  2
SOLID
 70
1
 71
0
 91
1
 92
3
 72
0
 73
1
 93
4
 10
6811.200000000001
 20
8720.800000000001
 10
7233.6
 20
8720.800000000001
 10
7233.6
 20
8641.6
 10
6811.200000000001
 20
8641.6
 97
0
 75
1
 76
1
 98
0
  0
LWPOLYLINE
  5
B1
330
17
100
AcDbEntity
  8
WALL
100
AcDbPolyline
 90
4
 70
1
 10
10032.0
 20
8729.6
 10
10454.400000000001
 20
8729.6
 10
10454.400000000001
 20
8641.6
 10
10032.0
 20
8641.6
  0
HATCH
  5
B2
330
17
100
AcDbEntity
  8
WALL
100
AcDbHatch
 10
0.0
 20
0.0
 30
0.0
210
0.0
220
0.0
230
1.0
  2
SOLID
 70
1
 71
0
 91
1
 92
3
 72
0
 73
1
 93
4
 10
10032.0
 20
8729.6
 10
10454.400000000001
 20
8729.6
 10
10454.400000000001
 20
8641.6
 10
10032.0
 20
8641.6
 97
0
 75
1
 76
1
 98
0
  0
LWPOLYLINE
  5
B3
330
17
100
AcDbEntity
  8
WALL
100
AcDbPolyline
 90
4
 70
1
 10
6036.8
 20
8553.6
 10
6776.000000000001
 20
8553.6
 10
6776.000000000001
 20
8448.0
 10
6036.8
 20
8448.0
  0
HATCH
  5
B4
330
17
100
AcDbEntity
  8
WALL
100
AcDbHatch
 10
0.0
 20
0.0
 30
0.0
210
0.0
220
0.0
230
1.0
  2
SOLID
 70
1
 71
0
 91
1
 92
3
 72
0
 73
1
 93
4
 10
6036.8
 20
8553.6
 10
6776.000000000001
 20
8553.6
 10
6776.000000000001
 20
8448.0
 10
6036.8
 20
8448.0
 97
0
 75
1
 76
1
 98
0
  0
LWPOLYLINE
  5
B5
330
17
100
AcDbEntity
  8
WALL
100
AcDbPolyline
 90
4
 70
1
 10
9292.800000000001
 20
8553.6
 10
10084.800000000001
 20
8553.6
 10
10084.800000000001
 20
8448.0
 10
9292.800000000001
 20
8448.0
  0
HATCH
  5
B6
330
17
100
AcDbEntity
  8
WALL
100
AcDbHatch
 10
0.0
 20
0.0
 30
0.0
210
0.0
220
0.0
230
1.0
  2
SOLID
 70
1
 71
0
 91
1
 92
3
 72
0
 73
1
 93
4
 10
9292.800000000001
 20
8553.6
 10
10084.800000000001
 20
8553.6
 10
10084.800000000001
 20
8448.0
 10
9292.800000000001
 20
8448.0
 97
0
 75
1
 76
1
 98
0
  0
LWPOLYLINE
  5
B7
330
17
100
AcDbEntity
  8
WALL
100
AcDbPolyline
 90
4
 70
1
 10
6371.200000000001
 20
8184.000000000001
 10
6776.000000000001
 20
8184.000000000001
 10
6776.000000000001
 20
8131.200000000001
 10
6371.200000000001
 20
8131.200000000001
  0
HATCH
  5
B8
330
17
100
AcDbEntity
  8
WALL
100
AcDbHatch
 10
0.0
 20
0.0
 30
0.0
210
0.0
220
0.0
230
1.0
  2
SOLID
 70
1
 71
0
 91
1
 92
3
 72
0
 73
1
 93
4
 10
6371.200000000001
 20
8184.000000000001
 10
6776.000000000001
 20
8184.000000000001
 10
6776.000000000001
 20
8131.200000000001
 10
6371.200000000001
 20
8131.200000000001
 97
0
 75
1
 76
1
 98
0
  0
LWPOLYLINE
  5
B9
330
17
100
AcDbEntity
  8
WALL
100
AcDbPolyline
 90
4
 70
1
 10
9820.800000000001
 20
8113.6
 10
10032.0
 20
8113.6
 10
10032.0
 20
8078.400000000001
 10
9820.800000000001
 20
8078.400000000001
  0
HATCH
  5
BA
330
17
100
AcDbEntity
  8
WALL
100
AcDbHatch
 10
0.0
 20
0.0
 30
0.0
210
0.0
220
0.0
230
1.0
  2
SOLID
 70
1
 71
0
 91
1
 92
3
 72
0
 73
1
 93
4
 10
9820.800000000001
 20
8113.6
 10
10032.0
 20
8113.6
 10
10032.0
 20
8078.400000000001
 10
9820.800000000001
 20
8078.400000000001
 97
0
 75
1
 76
1
 98
0
  0
LWPOLYLINE
  5
BB
330
17
100
AcDbEntity
  8
WALL
100
AcDbPolyline
 90
4
 70
1
 10
5068.8
 20
7920.000000000001
 10
5420.8
 20
7920.000000000001
 10
5420.8
 20
7849.6
 10
5068.8
 20
7849.6
  0
HATCH
  5
BC
330
17
100
AcDbEntity
  8
WALL
100
AcDbHatch
 10
0.0
 20
0.0
 30
0.0
210
0.0
220
0.0
230
1.0
  2
SOLID
 70
1
 71
0
 91
1
 92
3
 72
0
 73
1
 93
4
 10
5068.8
 20
7920.000000000001
 10
5420.8
 20
7920.000000000001
 10
5420.8
 20
7849.6
 10
5068.8
 20
7849.6
 97
0
 75
1
 76
1
 98
0
  0
LWPOLYLINE
  5
BD
330
17
100
AcDbEntity
  8
WALL
100
AcDbPolyline
 90
4
 70
1
 10
9785.6
 20
7884.800000000001
 10
10032.0
 20
7884.800000000001
 10
10032.0
 20
7814.400000000001
 10
9785.6
 20
7814.400000000001
  0
HATCH
  5
BE
330
17
100
AcDbEntity
  8
WALL
100
AcDbHatch
 10
0.0
 20
0.0
 30
0.0
210
0.0
220
0.0
230
1.0
  2
SOLID
 70
1
 71
0
 91
1
 92
3
 72
0
 73
1
 93
4
 10
9785.6
 20
7884.800000000001
 10
10032.0
 20
7884.800000000001
 10
10032.0
 20
7814.400000000001
 10
9785.6
 20
7814.400000000001
 97
0
 75
1
 76
1
 98
0
  0
LWPOLYLINE
  5
BF
330
17
100
AcDbEntity
  8
WALL
100
AcDbPolyline
 90
4
 70
1
 10
5139.200000000001
 20
7796.8
 10
5420.8
 20
7796.8
 10
5420.8
 20
7752.8
 10
5139.200000000001
 20
7752.8
  0
HATCH
  5
C0
330
17
100
AcDbEntity
  8
WALL
100
AcDbHatch
 10
0.0
 20
0.0
 30
0.0
210
0.0
220
0.0
230
1.0
  2
SOLID
 70
1
 71
0
 91
1
 92
3
 72
0
 73
1
 93
4
 10
5139.200000000001
 20
7796.8
 10
5420.8
 20
7796.8
 10
5420.8
 20
7752.8
 10
5139.200000000001
 20
7752.8
 97
0
 75
1
 76
1
 98
0
  0
LWPOLYLINE
  5
C1
330
17
100
AcDbEntity
  8
WALL
100
AcDbPolyline
 90
4
 70
1
 10
9820.800000000001
 20
7796.8
 10
10067.2
 20
7796.8
 10
10067.2
 20
7691.200000000001
 10
9820.800000000001
 20
7691.200000000001
  0
HATCH
  5
C2
330
17
100
AcDbEntity
  8
WALL
100
AcDbHatch
 10
0.0
 20
0.0
 30
0.0
210
0.0
220
0.0
230
1.0
  2
SOLID
 70
1
 71
0
 91
1
 92
3
 72
0
 73
1
 93
4
 10
9820.800000000001
 20
7796.8
 10
10067.2
 20
7796.8
 10
10067.2
 20
7691.200000000001
 10
9820.800000000001
 20
7691.200000000001
 97
0
 75
1
 76
1
 98
0
  0
LWPOLYLINE
  5
C3
330
17
100
AcDbEntity
  8
WALL
100
AcDbPolyline
 90
4
 70
1
 10
6758.400000000001
 20
7427.200000000001
 10
6969.6
 20
7427.200000000001
 10
6969.6
 20
7400.8
 10
6758.400000000001
 20
7400.8
  0
HATCH
  5
C4
330
17
100
AcDbEntity
  8
WALL
100
AcDbHatch
 10
0.0
 20
0.0
 30
0.0
210
0.0
220
0.0
230
1.0
  2
SOLID
 70
1
 71
0
 91
1
 92
3
 72
0
 73
1
 93
4
 10
6758.400000000001
 20
7427.200000000001
 10
6969.6
 20
7427.200000000001
 10
6969.6
 20
7400.8
 10
6758.400000000001
 20
7400.8
 97
0
 75
1
 76
1
 98
0
  0
LWPOLYLINE
  5
C5
330
17
100
AcDbEntity
  8
WALL
100
AcDbPolyline
 90
4
 70
1
 10
10929.6
 20
7392.000000000001
 10
11316.800000000001
 20
7392.000000000001
 10
11316.800000000001
 20
7286.400000000001
 10
10929.6
 20
7286.400000000001
  0
HATCH
  5
C6
330
17
100
AcDbEntity
  8
WALL
100
AcDbHatch
 10
0.0
 20
0.0
 30
0.0
210
0.0
220
0.0
230
1.0
  2
SOLID
 70
1
 71
0
 91
1
 92
3
 72
0
 73
1
 93
4
 10
10929.6
 20
7392.000000000001
 10
11316.800000000001
 20
7392.000000000001
 10
11316.800000000001
 20
7286.400000000001
 10
10929.6
 20
7286.400000000001
 97
0
 75
1
 76
1
 98
0
  0
LWPOLYLINE
  5
C7
330
17
100
AcDbEntity
  8
WALL
100
AcDbPolyline
 90
4
 70
1
 10
5086.400000000001
 20
7339.200000000001
 10
5297.6
 20
7339.200000000001
 10
5297.6
 20
7321.6
 10
5086.400000000001
 20
7321.6
  0
HATCH
  5
C8
330
17
100
AcDbEntity
  8
WALL
100
AcDbHatch
 10
0.0
 20
0.0
 30
0.0
210
0.0
220
0.0
230
1.0
  2
SOLID
 70
1
 71
0
 91
1
 92
3
 72
0
 73
1
 93
4
 10
5086.400000000001
 20
7339.200000000001
 10
5297.6
 20
7339.200000000001
 10
5297.6
 20
7321.6
 10
5086.400000000001
 20
7321.6
 97
0
 75
1
 76
1
 98
0
  0
LWPOLYLINE
  5
C9
330
17
100
AcDbEntity
  8
WALL
100
AcDbPolyline
 90
4
 70
1
 10
8518.400000000001
 20
7268.8
 10
10595.2
 20
7268.8
 10
10595.2
 20
7128.000000000001
 10
8518.400000000001
 20
7128.000000000001
  0
HATCH
  5
CA
330
17
100
AcDbEntity
  8
WALL
100
AcDbHatch
 10
0.0
 20
0.0
 30
0.0
210
0.0
220
0.0
230
1.0
  2
SOLID
 70
1
 71
0
 91
1
 92
3
 72
0
 73
1
 93
4
 10
8518.400000000001
 20
7268.8
 10
10595.2
 20
7268.8
 10
10595.2
 20
7128.000000000001
 10
8518.400000000001
 20
7128.000000000001
 97
0
 75
1
 76
1
 98
0
  0
LWPOLYLINE
  5
CB
330
17
100
AcDbEntity
  8
WALL
100
AcDbPolyline
 90
4
 70
1
 10
6864.000000000001
 20
7101.6
 10
7180.8
 20
7101.6
 10
7180.8
 20
7075.200000000001
 10
6864.000000000001
 20
7075.200000000001
  0
HATCH
  5
CC
330
17
100
AcDbEntity
  8
WALL
100
AcDbHatch
 10
0.0
 20
0.0
 30
0.0
210
0.0
220
0.0
230
1.0
  2
SOLID
 70
1
 71
0
 91
1
 92
3
 72
0
 73
1
 93
4
 10
6864.000000000001
 20
7101.6
 10
7180.8
 20
7101.6
 10
7180.8
 20
7075.200000000001
 10
6864.000000000001
 20
7075.200000000001
 97
0
 75
1
 76
1
 98
0
  0
LWPOLYLINE
  5
CD
330
17
100
AcDbEntity
  8
WALL
100
AcDbPolyline
 90
4
 70
1
 10
3396.8
 20
6767.200000000001
 10
4083.2000000000003
 20
6767.200000000001
 10
4083.2000000000003
 20
6635.200000000001
 10
3396.8
 20
6635.200000000001
  0
HATCH
  5
CE
330
17
100
AcDbEntity
  8
WALL
100
AcDbHatch
 10
0.0
 20
0.0
 30
0.0
210
0.0
220
0.0
230
1.0
  2
SOLID
 70
1
 71
0
 91
1
 92
3
 72
0
 73
1
 93
4
 10
3396.8
 20
6767.200000000001
 10
4083.2000000000003
 20
6767.200000000001
 10
4083.2000000000003
 20
6635.200000000001
 10
3396.8
 20
6635.200000000001
 97
0
 75
1
 76
1
 98
0
  0
LWPOLYLINE
  5
CF
330
17
100
AcDbEntity
  8
WALL
100
AcDbPolyline
 90
4
 70
1
 10
9750.400000000001
 20
6696.8
 10
10137.6
 20
6696.8
 10
10137.6
 20
6652.8
 10
9750.400000000001
 20
6652.8
  0
HATCH
  5
D0
330
17
100
AcDbEntity
  8
WALL
100
AcDbHatch
 10
0.0
 20
0.0
 30
0.0
210
0.0
220
0.0
230
1.0
  2
SOLID
 70
1
 71
0
 91
1
 92
3
 72
0
 73
1
 93
4
 10
9750.400000000001
 20
6696.8
 10
10137.6
 20
6696.8
 10
10137.6
 20
6652.8
 10
9750.400000000001
 20
6652.8
 97
0
 75
1
 76
1
 98
0
  0
LWPOLYLINE
  5
D1
330
17
100
AcDbEntity
  8
WALL
100
AcDbPolyline
 90
4
 70
1
 10
9768.0
 20
6635.200000000001
 10
10560.0
 20
6635.200000000001
 10
10560.0
 20
6494.400000000001
 10
9768.0
 20
6494.400000000001
  0
HATCH
  5
D2
330
17
100
AcDbEntity
  8
WALL
100
AcDbHatch
 10
0.0
 20
0.0
 30
0.0
210
0.0
220
0.0
230
1.0
  2
SOLID
 70
1
 71
0
 91
1
 92
3
 72
0
 73
1
 93
4
 10
9768.0
 20
6635.200000000001
 10
10560.0
 20
6635.200000000001
 10
10560.0
 20
6494.400000000001
 10
9768.0
 20
6494.400000000001
 97
0
 75
1
 76
1
 98
0
  0
LWPOLYLINE
  5
D3
330
17
100
AcDbEntity
  8
WALL
100
AcDbPolyline
 90
4
 70
1
 10
10630.400000000001
 20
6336.000000000001
 10
10841.6
 20
6336.000000000001
 10
10841.6
 20
6300.8
 10
10630.400000000001
 20
6300.8
  0
HATCH
  5
D4
330
17
100
AcDbEntity
  8
WALL
100
AcDbHatch
 10
0.0
 20
0.0
 30
0.0
210
0.0
220
0.0
230
1.0
  2
SOLID
 70
1
 71
0
 91
1
 92
3
 72
0
 73
1
 93
4
 10
10630.400000000001
 20
6336.000000000001
 10
10841.6
 20
6336.000000000001
 10
10841.6
 20
6300.8
 10
10630.400000000001
 20
6300.8
 97
0
 75
1
 76
1
 98
0
  0
LWPOLYLINE
  5
D5
330
17
100
AcDbEntity
  8
WALL
100
AcDbPolyline
 90
4
 70
1
 10
6740.8
 20
6177.6
 10
7356.8
 20
6177.6
 10
7356.8
 20
6107.200000000001
 10
6740.8
 20
6107.200000000001
  0
HATCH
  5
D6
330
17
100
AcDbEntity
  8
WALL
100
AcDbHatch
 10
0.0
 20
0.0
 30
0.0
210
0.0
220
0.0
230
1.0
  2
SOLID
 70
1
 71
0
 91
1
 92
3
 72
0
 73
1
 93
4
 10
6740.8
 20
6177.6
 10
7356.8
 20
6177.6
 10
7356.8
 20
6107.200000000001
 10
6740.8
 20
6107.200000000001
 97
0
 75
1
 76
1
 98
0
  0
LWPOLYLINE
  5
D7
330
17
100
AcDbEntity
  8
WALL
100
AcDbPolyline
 90
4
 70
1
 10
9785.6
 20
6133.6
 10
10120.0
 20
6133.6
 10
10120.0
 20
6089.6
 10
9785.6
 20
6089.6
  0
HATCH
  5
D8
330
17
100
AcDbEntity
  8
WALL
100
AcDbHatch
 10
0.0
 20
0.0
 30
0.0
210
0.0
220
0.0
230
1.0
  2
SOLID
 70
1
 71
0
 91
1
 92
3
 72
0
 73
1
 93
4
 10
9785.6
 20
6133.6
 10
10120.0
 20
6133.6
 10
10120.0
 20
6089.6
 10
9785.6
 20
6089.6
 97
0
 75
1
 76
1
 98
0
  0
LWPOLYLINE
  5
D9
330
17
100
AcDbEntity
  8
WALL
100
AcDbPolyline
 90
4
 70
1
 10
6177.6
 20
6089.6
 10
7585.6
 20
6089.6
 10
7585.6
 20
5966.400000000001
 10
6177.6
 20
5966.400000000001
  0
HATCH
  5
DA
330
17
100
AcDbEntity
  8
WALL
100
AcDbHatch
 10
0.0
 20
0.0
 30
0.0
210
0.0
220
0.0
230
1.0
  2
SOLID
 70
1
 71
0
 91
1
 92
3
 72
0
 73
1
 93
4
 10
6177.6
 20
6089.6
 10
7585.6
 20
6089.6
 10
7585.6
 20
5966.400000000001
 10
6177.6
 20
5966.400000000001
 97
0
 75
1
 76
1
 98
0
  0
LWPOLYLINE
  5
DB
330
17
100
AcDbEntity
  8
WALL
100
AcDbPolyline
 90
4
 70
1
 10
10718.400000000001
 20
6072.000000000001
 10
11316.800000000001
 20
6072.000000000001
 10
11316.800000000001
 20
6001.6
 10
10718.400000000001
 20
6001.6
  0
HATCH
  5
DC
330
17
100
AcDbEntity
  8
WALL
100
AcDbHatch
 10
0.0
 20
0.0
 30
0.0
210
0.0
220
0.0
230
1.0
  2
SOLID
 70
1
 71
0
 91
1
 92
3
 72
0
 73
1
 93
4
 10
10718.400000000001
 20
6072.000000000001
 10
11316.800000000001
 20
6072.000000000001
 10
11316.800000000001
 20
6001.6
 10
10718.400000000001
 20
6001.6
 97
0
 75
1
 76
1
 98
0
  0
LWPOLYLINE
  5
DD
330
17
100
AcDbEntity
  8
WALL
100
AcDbPolyline
 90
4
 70
1
 10
8694.400000000001
 20
6019.200000000001
 10
9134.400000000001
 20
6019.200000000001
 10
9134.400000000001
 20
5966.400000000001
 10
8694.400000000001
 20
5966.400000000001
  0
HATCH
  5
DE
330
17
100
AcDbEntity
  8
WALL
100
AcDbHatch
 10
0.0
 20
0.0
 30
0.0
210
0.0
220
0.0
230
1.0
  2
SOLID
 70
1
 71
0
 91
1
 92
3
 72
0
 73
1
 93
4
 10
8694.400000000001
 20
6019.200000000001
 10
9134.400000000001
 20
6019.200000000001
 10
9134.400000000001
 20
5966.400000000001
 10
8694.400000000001
 20
5966.400000000001
 97
0
 75
1
 76
1
 98
0
  0
LWPOLYLINE
  5
DF
330
17
100
AcDbEntity
  8
WALL
100
AcDbPolyline
 90
4
 70
1
 10
10331.2
 20
5596.8
 10
10560.0
 20
5596.8
 10
10560.0
 20
5579.200000000001
 10
10331.2
 20
5579.200000000001
  0
HATCH
  5
E0
330
17
100
AcDbEntity
  8
WALL
100
AcDbHatch
 10
0.0
 20
0.0
 30
0.0
210
0.0
220
0.0
230
1.0
  2
SOLID
 70
1
 71
0
 91
1
 92
3
 72
0
 73
1
 93
4
 10
10331.2
 20
5596.8
 10
10560.0
 20
5596.8
 10
10560.0
 20
5579.200000000001
 10
10331.2
 20
5579.200000000001
 97
0
 75
1
 76
1
 98
0
  0
LWPOLYLINE
  5
E1
330
17
100
AcDbEntity
  8
WALL
100
AcDbPolyline
 90
4
 70
1
 10
2428.8
 20
5526.400000000001
 10
2763.2000000000003
 20
5526.400000000001
 10
2763.2000000000003
 20
5482.400000000001
 10
2428.8
 20
5482.400000000001
  0
HATCH
  5
E2
330
17
100
AcDbEntity
  8
WALL
100
AcDbHatch
 10
0.0
 20
0.0
 30
0.0
210
0.0
220
0.0
230
1.0
  2
SOLID
 70
1
 71
0
 91
1
 92
3
 72
0
 73
1
 93
4
 10
2428.8
 20
5526.400000000001
 10
2763.2000000000003
 20
5526.400000000001
 10
2763.2000000000003
 20
5482.400000000001
 10
2428.8
 20
5482.400000000001
 97
0
 75
1
 76
1
 98
0
  0
LWPOLYLINE
  5
E3
330
17
100
AcDbEntity
  8
WALL
100
AcDbPolyline
 90
4
 70
1
 10
5684.8
 20
5394.400000000001
 10
6353.6
 20
5394.400000000001
 10
6353.6
 20
5262.400000000001
 10
5684.8
 20
5262.400000000001
  0
HATCH
  5
E4
330
17
100
AcDbEntity
  8
WALL
100
AcDbHatch
 10
0.0
 20
0.0
 30
0.0
210
0.0
220
0.0
230
1.0
  2
SOLID
 70
1
 71
0
 91
1
 92
3
 72
0
 73
1
 93
4
 10
5684.8
 20
5394.400000000001
 10
6353.6
 20
5394.400000000001
 10
6353.6
 20
5262.400000000001
 10
5684.8
 20
5262.400000000001
 97
0
 75
1
 76
1
 98
0
  0
LWPOLYLINE
  5
E5
330
17
100
AcDbEntity
  8
WALL
100
AcDbPolyline
 90
4
 70
1
 10
4664.0
 20
5350.400000000001
 10
4998.400000000001
 20
5350.400000000001
 10
4998.400000000001
 20
5253.6
 10
4664.0
 20
5253.6
  0
HATCH
  5
E6
330
17
100
AcDbEntity
  8
WALL
100
AcDbHatch
 10
0.0
 20
0.0
 30
0.0
210
0.0
220
0.0
230
1.0
  2
SOLID
 70
1
 71
0
 91
1
 92
3
 72
0
 73
1
 93
4
 10
4664.0
 20
5350.400000000001
 10
4998.400000000001
 20
5350.400000000001
 10
4998.400000000001
 20
5253.6
 10
4664.0
 20
5253.6
 97
0
 75
1
 76
1
 98
0
  0
LWPOLYLINE
  5
E7
330
17
100
AcDbEntity
  8
WALL
100
AcDbPolyline
 90
4
 70
1
 10
5297.6
 20
5350.400000000001
 10
5755.200000000001
 20
5350.400000000001
 10
5755.200000000001
 20
5218.400000000001
 10
5297.6
 20
5218.400000000001
  0
HATCH
  5
E8
330
17
100
AcDbEntity
  8
WALL
100
AcDbHatch
 10
0.0
 20
0.0
 30
0.0
210
0.0
220
0.0
230
1.0
  2
SOLID
 70
1
 71
0
 91
1
 92
3
 72
0
 73
1
 93
4
 10
5297.6
 20
5350.400000000001
 10
5755.200000000001
 20
5350.400000000001
 10
5755.200000000001
 20
5218.400000000001
 10
5297.6
 20
5218.400000000001
 97
0
 75
1
 76
1
 98
0
  0
LWPOLYLINE
  5
E9
330
17
100
AcDbEntity
  8
WALL
100
AcDbPolyline
 90
4
 70
1
 10
5561.6
 20
5209.6
 10
5948.8
 20
5209.6
 10
5948.8
 20
5112.8
 10
5561.6
 20
5112.8
  0
HATCH
  5
EA
330
17
100
AcDbEntity
  8
WALL
100
AcDbHatch
 10
0.0
 20
0.0
 30
0.0
210
0.0
220
0.0
230
1.0
  2
SOLID
 70
1
 71
0
 91
1
 92
3
 72
0
 73
1
 93
4
 10
5561.6
 20
5209.6
 10
5948.8
 20
5209.6
 10
5948.8
 20
5112.8
 10
5561.6
 20
5112.8
 97
0
 75
1
 76
1
 98
0
  0
LWPOLYLINE
  5
EB
330
17
100
AcDbEntity
  8
WALL
100
AcDbPolyline
 90
4
 70
1
 10
4822.400000000001
 20
5130.400000000001
 10
5033.6
 20
5130.400000000001
 10
5033.6
 20
5112.8
 10
4822.400000000001
 20
5112.8
  0
HATCH
  5
EC
330
17
100
AcDbEntity
  8
WALL
100
AcDbHatch
 10
0.0
 20
0.0
 30
0.0
210
0.0
220
0.0
230
1.0
  2
SOLID
 70
1
 71
0
 91
1
 92
3
 72
0
 73
1
 93
4
 10
4822.400000000001
 20
5130.400000000001
 10
5033.6
 20
5130.400000000001
 10
5033.6
 20
5112.8
 10
4822.400000000001
 20
5112.8
 97
0
 75
1
 76
1
 98
0
  0
LWPOLYLINE
  5
ED
330
17
100
AcDbEntity
  8
WALL
100
AcDbPolyline
 90
4
 70
1
 10
6001.6
 20
5139.200000000001
 10
6195.200000000001
 20
5139.200000000001
 10
6195.200000000001
 20
5112.8
 10
6001.6
 20
5112.8
  0
HATCH
  5
EE
330
17
100
AcDbEntity
  8
WALL
100
AcDbHatch
 10
0.0
 20
0.0
 30
0.0
210
0.0
220
0.0
230
1.0
  2
SOLID
 70
1
 71
0
 91
1
 92
3
 72
0
 73
1
 93
4
 10
6001.6
 20
5139.200000000001
 10
6195.200000000001
 20
5139.200000000001
 10
6195.200000000001
 20
5112.8
 10
6001.6
 20
5112.8
 97
0
 75
1
 76
1
 98
0
  0
LWPOLYLINE
  5
EF
330
17
100
AcDbEntity
  8
WALL
100
AcDbPolyline
 90
4
 70
1
 10
8465.6
 20
5086.400000000001
 10
10577.6
 20
5086.400000000001
 10
10577.6
 20
4963.200000000001
 10
8465.6
 20
4963.200000000001
  0
HATCH
  5
F0
330
17
100
AcDbEntity
  8
WALL
100
AcDbHatch
 10
0.0
 20
0.0
 30
0.0
210
0.0
220
0.0
230
1.0
  2
SOLID
 70
1
 71
0
 91
1
 92
3
 72
0
 73
1
 93
4
 10
8465.6
 20
5086.400000000001
 10
10577.6
 20
5086.400000000001
 10
10577.6
 20
4963.200000000001
 10
8465.6
 20
4963.200000000001
 97
0
 75
1
 76
1
 98
0
  0
LWPOLYLINE
  5
F1
330
17
100
AcDbEntity
  8
WALL
100
AcDbPolyline
 90
4
 70
1
 10
5843.200000000001
 20
4928.0
 10
6036.8
 20
4928.0
 10
6036.8
 20
4919.200000000001
 10
5843.200000000001
 20
4919.200000000001
  0
HATCH
  5
F2
330
17
100
AcDbEntity
  8
WALL
100
AcDbHatch
 10
0.0
 20
0.0
 30
0.0
210
0.0
220
0.0
230
1.0
  2
SOLID
 70
1
 71
0
 91
1
 92
3
 72
0
 73
1
 93
4
 10
5843.200000000001
 20
4928.0
 10
6036.8
 20
4928.0
 10
6036.8
 20
4919.200000000001
 10
5843.200000000001
 20
4919.200000000001
 97
0
 75
1
 76
1
 98
0
  0
LWPOLYLINE
  5
F3
330
17
100
AcDbEntity
  8
WALL
100
AcDbPolyline
 90
4
 70
1
 10
11809.6
 20
4734.400000000001
 10
12020.800000000001
 20
4734.400000000001
 10
12020.800000000001
 20
4716.8
 10
11809.6
 20
4716.8
  0
HATCH
  5
F4
330
17
100
AcDbEntity
  8
WALL
100
AcDbHatch
 10
0.0
 20
0.0
 30
0.0
210
0.0
220
0.0
230
1.0
  2
SOLID
 70
1
 71
0
 91
1
 92
3
 72
0
 73
1
 93
4
 10
11809.6
 20
4734.400000000001
 10
12020.800000000001
 20
4734.400000000001
 10
12020.800000000001
 20
4716.8
 10
11809.6
 20
4716.8
 97
0
 75
1
 76
1
 98
0
  0
LWPOLYLINE
  5
F5
330
17
100
AcDbEntity
  8
WALL
100
AcDbPolyline
 90
4
 70
1
 10
5913.6
 20
4664.0
 10
6124.8
 20
4664.0
 10
6124.8
 20
4611.200000000001
 10
5913.6
 20
4611.200000000001
  0
HATCH
  5
F6
330
17
100
AcDbEntity
  8
WALL
100
AcDbHatch
 10
0.0
 20
0.0
 30
0.0
210
0.0
220
0.0
230
1.0
  2
SOLID
 70
1
 71
0
 91
1
 92
3
 72
0
 73
1
 93
4
 10
5913.6
 20
4664.0
 10
6124.8
 20
4664.0
 10
6124.8
 20
4611.200000000001
 10
5913.6
 20
4611.200000000001
 97
0
 75
1
 76
1
 98
0
  0
LWPOLYLINE
  5
F7
330
17
100
AcDbEntity
  8
WALL
100
AcDbPolyline
 90
4
 70
1
 10
4470.400000000001
 20
4628.8
 10
4681.6
 20
4628.8
 10
4681.6
 20
4611.200000000001
 10
4470.400000000001
 20
4611.200000000001
  0
HATCH
  5
F8
330
17
100
AcDbEntity
  8
WALL
100
AcDbHatch
 10
0.0
 20
0.0
 30
0.0
210
0.0
220
0.0
230
1.0
  2
SOLID
 70
1
 71
0
 91
1
 92
3
 72
0
 73
1
 93
4
 10
4470.400000000001
 20
4628.8
 10
4681.6
 20
4628.8
 10
4681.6
 20
4611.200000000001
 10
4470.400000000001
 20
4611.200000000001
 97
0
 75
1
 76
1
 98
0
  0
LWPOLYLINE
  5
F9
330
17
100
AcDbEntity
  8
WALL
100
AcDbPolyline
 90
4
 70
1
 10
11774.400000000001
 20
4593.6
 10
12161.6
 20
4593.6
 10
12161.6
 20
4540.8
 10
11774.400000000001
 20
4540.8
  0
HATCH
  5
FA
330
17
100
AcDbEntity
  8
WALL
100
AcDbHatch
 10
0.0
 20
0.0
 30
0.0
210
0.0
220
0.0
230
1.0
  2
SOLID
 70
1
 71
0
 91
1
 92
3
 72
0
 73
1
 93
4
 10
11774.400000000001
 20
4593.6
 10
12161.6
 20
4593.6
 10
12161.6
 20
4540.8
 10
11774.400000000001
 20
4540.8
 97
0
 75
1
 76
1
 98
0
  0
LWPOLYLINE
  5
FB
330
17
100
AcDbEntity
  8
WALL
100
AcDbPolyline
 90
4
 70
1
 10
5896.000000000001
 20
4435.200000000001
 10
6107.200000000001
 20
4435.200000000001
 10
6107.200000000001
 20
4417.6
 10
5896.000000000001
 20
4417.6
  0
HATCH
  5
FC
330
17
100
AcDbEntity
  8
WALL
100
AcDbHatch
 10
0.0
 20
0.0
 30
0.0
210
0.0
220
0.0
230
1.0
  2
SOLID
 70
1
 71
0
 91
1
 92
3
 72
0
 73
1
 93
4
 10
5896.000000000001
 20
4435.200000000001
 10
6107.200000000001
 20
4435.200000000001
 10
6107.200000000001
 20
4417.6
 10
5896.000000000001
 20
4417.6
 97
0
 75
1
 76
1
 98
0
  0
LWPOLYLINE
  5
FD
330
17
100
AcDbEntity
  8
WALL
100
AcDbPolyline
 90
4
 70
1
 10
11017.6
 20
4382.400000000001
 10
11211.2
 20
4382.400000000001
 10
11211.2
 20
4338.400000000001
 10
11017.6
 20
4338.400000000001
  0
HATCH
  5
FE
330
17
100
AcDbEntity
  8
WALL
100
AcDbHatch
 10
0.0
 20
0.0
 30
0.0
210
0.0
220
0.0
230
1.0
  2
SOLID
 70
1
 71
0
 91
1
 92
3
 72
0
 73
1
 93
4
 10
11017.6
 20
4382.400000000001
 10
11211.2
 20
4382.400000000001
 10
11211.2
 20
4338.400000000001
 10
11017.6
 20
4338.400000000001
 97
0
 75
1
 76
1
 98
0
  0
LWPOLYLINE
  5
FF
330
17
100
AcDbEntity
  8
WALL
100
AcDbPolyline
 90
4
 70
1
 10
4505.6
 20
4259.200000000001
 10
4910.400000000001
 20
4259.200000000001
 10
4910.400000000001
 20
4171.200000000001
 10
4505.6
 20
4171.200000000001
  0
HATCH
  5
100
330
17
100
AcDbEntity
  8
WALL
100
AcDbHatch
 10
0.0
 20
0.0
 30
0.0
210
0.0
220
0.0
230
1.0
  2
SOLID
 70
1
 71
0
 91
1
 92
3
 72
0
 73
1
 93
4
 10
4505.6
 20
4259.200000000001
 10
4910.400000000001
 20
4259.200000000001
 10
4910.400000000001
 20
4171.200000000001
 10
4505.6
 20
4171.200000000001
 97
0
 75
1
 76
1
 98
0
  0
LWPOLYLINE
  5
101
330
17
100
AcDbEntity
  8
WALL
100
AcDbPolyline
 90
4
 70
1
 10
5368.0
 20
4259.200000000001
 10
5684.8
 20
4259.200000000001
 10
5684.8
 20
4153.6
 10
5368.0
 20
4153.6
  0
HATCH
  5
102
330
17
100
AcDbEntity
  8
WALL
100
AcDbHatch
 10
0.0
 20
0.0
 30
0.0
210
0.0
220
0.0
230
1.0
  2
SOLID
 70
1
 71
0
 91
1
 92
3
 72
0
 73
1
 93
4
 10
5368.0
 20
4259.200000000001
 10
5684.8
 20
4259.200000000001
 10
5684.8
 20
4153.6
 10
5368.0
 20
4153.6
 97
0
 75
1
 76
1
 98
0
  0
LWPOLYLINE
  5
103
330
17
100
AcDbEntity
  8
WALL
100
AcDbPolyline
 90
4
 70
1
 10
5473.6
 20
4118.400000000001
 10
5825.6
 20
4118.400000000001
 10
5825.6
 20
4030.4000000000005
 10
5473.6
 20
4030.4000000000005
  0
HATCH
  5
104
330
17
100
AcDbEntity
  8
WALL
100
AcDbHatch
 10
0.0
 20
0.0
 30
0.0
210
0.0
220
0.0
230
1.0
  2
SOLID
 70
1
 71
0
 91
1
 92
3
 72
0
 73
1
 93
4
 10
5473.6
 20
4118.400000000001
 10
5825.6
 20
4118.400000000001
 10
5825.6
 20
4030.4000000000005
 10
5473.6
 20
4030.4000000000005
 97
0
 75
1
 76
1
 98
0
  0
LWPOLYLINE
  5
105
330
17
100
AcDbEntity
  8
WALL
100
AcDbPolyline
 90
4
 70
1
 10
11158.400000000001
 20
4118.400000000001
 10
11369.6
 20
4118.400000000001
 10
11369.6
 20
4100.8
 10
11158.400000000001
 20
4100.8
  0
HATCH
  5
106
330
17
100
AcDbEntity
  8
WALL
100
AcDbHatch
 10
0.0
 20
0.0
 30
0.0
210
0.0
220
0.0
230
1.0
  2
SOLID
 70
1
 71
0
 91
1
 92
3
 72
0
 73
1
 93
4
 10
11158.400000000001
 20
4118.400000000001
 10
11369.6
 20
4118.400000000001
 10
11369.6
 20
4100.8
 10
11158.400000000001
 20
4100.8
 97
0
 75
1
 76
1
 98
0
  0
LWPOLYLINE
  5
107
330
17
100
AcDbEntity
  8
WALL
100
AcDbPolyline
 90
4
 70
1
 10
4646.400000000001
 20
3942.4000000000005
 10
4910.400000000001
 20
3942.4000000000005
 10
4910.400000000001
 20
3845.6000000000004
 10
4646.400000000001
 20
3845.6000000000004
  0
HATCH
  5
108
330
17
100
AcDbEntity
  8
WALL
100
AcDbHatch
 10
0.0
 20
0.0
 30
0.0
210
0.0
220
0.0
230
1.0
  2
SOLID
 70
1
 71
0
 91
1
 92
3
 72
0
 73
1
 93
4
 10
4646.400000000001
 20
3942.4000000000005
 10
4910.400000000001
 20
3942.4000000000005
 10
4910.400000000001
 20
3845.6000000000004
 10
4646.400000000001
 20
3845.6000000000004
 97
0
 75
1
 76
1
 98
0
  0
LWPOLYLINE
  5
109
330
17
100
AcDbEntity
  8
WALL
100
AcDbPolyline
 90
4
 70
1
 10
5262.400000000001
 20
3942.4000000000005
 10
5772.8
 20
3942.4000000000005
 10
5772.8
 20
3836.8
 10
5262.400000000001
 20
3836.8
  0
HATCH
  5
10A
330
17
100
AcDbEntity
  8
WALL
100
AcDbHatch
 10
0.0
 20
0.0
 30
0.0
210
0.0
220
0.0
230
1.0
  2
SOLID
 70
1
 71
0
 91
1
 92
3
 72
0
 73
1
 93
4
 10
5262.400000000001
 20
3942.4000000000005
 10
5772.8
 20
3942.4000000000005
 10
5772.8
 20
3836.8
 10
5262.400000000001
 20
3836.8
 97
0
 75
1
 76
1
 98
0
  0
LWPOLYLINE
  5
10B
330
17
100
AcDbEntity
  8
WALL
100
AcDbPolyline
 90
4
 70
1
 10
5790.400000000001
 20
3942.4000000000005
 10
6283.200000000001
 20
3942.4000000000005
 10
6283.200000000001
 20
3845.6000000000004
 10
5790.400000000001
 20
3845.6000000000004
  0
HATCH
  5
10C
330
17
100
AcDbEntity
  8
WALL
100
AcDbHatch
 10
0.0
 20
0.0
 30
0.0
210
0.0
220
0.0
230
1.0
  2
SOLID
 70
1
 71
0
 91
1
 92
3
 72
0
 73
1
 93
4
 10
5790.400000000001
 20
3942.4000000000005
 10
6283.200000000001
 20
3942.4000000000005
 10
6283.200000000001
 20
3845.6000000000004
 10
5790.400000000001
 20
3845.6000000000004
 97
0
 75
1
 76
1
 98
0
  0
LWPOLYLINE
  5
10D
330
17
100
AcDbEntity
  8
WALL
100
AcDbPolyline
 90
4
 70
1
 10
8377.6
 20
3942.4000000000005
 10
9011.2
 20
3942.4000000000005
 10
9011.2
 20
3854.4
 10
8377.6
 20
3854.4
  0
HATCH
  5
10E
330
17
100
AcDbEntity
  8
WALL
100
AcDbHatch
 10
0.0
 20
0.0
 30
0.0
210
0.0
220
0.0
230
1.0
  2
SOLID
 70
1
 71
0
 91
1
 92
3
 72
0
 73
1
 93
4
 10
8377.6
 20
3942.4000000000005
 10
9011.2
 20
3942.4000000000005
 10
9011.2
 20
3854.4
 10
8377.6
 20
3854.4
 97
0
 75
1
 76
1
 98
0
  0
LWPOLYLINE
  5
10F
330
17
100
AcDbEntity
  8
WALL
100
AcDbPolyline
 90
4
 70
1
 10
11440.000000000002
 20
3924.8
 10
11704.000000000002
 20
3924.8
 10
11704.000000000002
 20
3836.8
 10
11440.000000000002
 20
3836.8
  0
HATCH
  5
110
330
17
100
AcDbEntity
  8
WALL
100
AcDbHatch
 10
0.0
 20
0.0
 30
0.0
210
0.0
220
0.0
230
1.0
  2
SOLID
 70
1
 71
0
 91
1
 92
3
 72
0
 73
1
 93
4
 10
11440.000000000002
 20
3924.8
 10
11704.000000000002
 20
3924.8
 10
11704.000000000002
 20
3836.8
 10
11440.000000000002
 20
3836.8
 97
0
 75
1
 76
1
 98
0
  0
LWPOLYLINE
  5
111
330
17
100
AcDbEntity
  8
WALL
100
AcDbPolyline
 90
4
 70
1
 10
10736.0
 20
3872.0000000000005
 10
10929.6
 20
3872.0000000000005
 10
10929.6
 20
3863.2000000000003
 10
10736.0
 20
3863.2000000000003
  0
HATCH
  5
112
330
17
100
AcDbEntity
  8
WALL
100
AcDbHatch
 10
0.0
 20
0.0
 30
0.0
210
0.0
220
0.0
230
1.0
  2
SOLID
 70
1
 71
0
 91
1
 92
3
 72
0
 73
1
 93
4
 10
10736.0
 20
3872.0000000000005
 10
10929.6
 20
3872.0000000000005
 10
10929.6
 20
3863.2000000000003
 10
10736.0
 20
3863.2000000000003
 97
0
 75
1
 76
1
 98
0
  0
LWPOLYLINE
  5
113
330
17
100
AcDbEntity
  8
WALL
100
AcDbPolyline
 90
4
 70
1
 10
11475.2
 20
3819.2000000000003
 10
11704.000000000002
 20
3819.2000000000003
 10
11704.000000000002
 20
3784.0000000000005
 10
11475.2
 20
3784.0000000000005
  0
HATCH
  5
114
330
17
100
AcDbEntity
  8
WALL
100
AcDbHatch
 10
0.0
 20
0.0
 30
0.0
210
0.0
220
0.0
230
1.0
  2
SOLID
 70
1
 71
0
 91
1
 92
3
 72
0
 73
1
 93
4
 10
11475.2
 20
3819.2000000000003
 10
11704.000000000002
 20
3819.2000000000003
 10
11704.000000000002
 20
3784.0000000000005
 10
11475.2
 20
3784.0000000000005
 97
0
 75
1
 76
1
 98
0
  0
LWPOLYLINE
  5
115
330
17
100
AcDbEntity
  8
WALL
100
AcDbPolyline
 90
4
 70
1
 10
10771.2
 20
3766.4
 10
11035.2
 20
3766.4
 10
11035.2
 20
3748.8
 10
10771.2
 20
3748.8
  0
HATCH
  5
116
330
17
100
AcDbEntity
  8
WALL
100
AcDbHatch
 10
0.0
 20
0.0
 30
0.0
210
0.0
220
0.0
230
1.0
  2
SOLID
 70
1
 71
0
 91
1
 92
3
 72
0
 73
1
 93
4
 10
10771.2
 20
3766.4
 10
11035.2
 20
3766.4
 10
11035.2
 20
3748.8
 10
10771.2
 20
3748.8
 97
0
 75
1
 76
1
 98
0
  0
LWPOLYLINE
  5
117
330
17
100
AcDbEntity
  8
WALL
100
AcDbPolyline
 90
4
 70
1
 10
10771.2
 20
3731.2000000000003
 10
11052.800000000001
 20
3731.2000000000003
 10
11052.800000000001
 20
3722.4
 10
10771.2
 20
3722.4
  0
HATCH
  5
118
330
17
100
AcDbEntity
  8
WALL
100
AcDbHatch
 10
0.0
 20
0.0
 30
0.0
210
0.0
220
0.0
230
1.0
  2
SOLID
 70
1
 71
0
 91
1
 92
3
 72
0
 73
1
 93
4
 10
10771.2
 20
3731.2000000000003
 10
11052.800000000001
 20
3731.2000000000003
 10
11052.800000000001
 20
3722.4
 10
10771.2
 20
3722.4
 97
0
 75
1
 76
1
 98
0
  0
LWPOLYLINE
  5
119
330
17
100
AcDbEntity
  8
WALL
100
AcDbPolyline
 90
4
 70
1
 10
11968.000000000002
 20
3625.6000000000004
 10
12179.2
 20
3625.6000000000004
 10
12179.2
 20
3608.0000000000005
 10
11968.000000000002
 20
3608.0000000000005
  0
HATCH
  5
11A
330
17
100
AcDbEntity
  8
WALL
100
AcDbHatch
 10
0.0
 20
0.0
 30
0.0
210
0.0
220
0.0
230
1.0
  2
SOLID
 70
1
 71
0
 91
1
 92
3
 72
0
 73
1
 93
4
 10
11968.000000000002
 20
3625.6000000000004
 10
12179.2
 20
3625.6000000000004
 10
12179.2
 20
3608.0000000000005
 10
11968.000000000002
 20
3608.0000000000005
 97
0
 75
1
 76
1
 98
0
  0
LWPOLYLINE
  5
11B
330
17
100
AcDbEntity
  8
WALL
100
AcDbPolyline
 90
4
 70
1
 10
1566.4
 20
3502.4
 10
1936.0000000000002
 20
3502.4
 10
1936.0000000000002
 20
3449.6000000000004
 10
1566.4
 20
3449.6000000000004
  0
HATCH
  5
11C
330
17
100
AcDbEntity
  8
WALL
100
AcDbHatch
 10
0.0
 20
0.0
 30
0.0
210
0.0
220
0.0
230
1.0
  2
SOLID
 70
1
 71
0
 91
1
 92
3
 72
0
 73
1
 93
4
 10
1566.4
 20
3502.4
 10
1936.0000000000002
 20
3502.4
 10
1936.0000000000002
 20
3449.6000000000004
 10
1566.4
 20
3449.6000000000004
 97
0
 75
1
 76
1
 98
0
  0
LWPOLYLINE
  5
11D
330
17
100
AcDbEntity
  8
WALL
100
AcDbPolyline
 90
4
 70
1
 10
792.0000000000001
 20
3476.0000000000005
 10
1003.2
 20
3476.0000000000005
 10
1003.2
 20
3440.8
 10
792.0000000000001
 20
3440.8
  0
HATCH
  5
11E
330
17
100
AcDbEntity
  8
WALL
100
AcDbHatch
 10
0.0
 20
0.0
 30
0.0
210
0.0
220
0.0
230
1.0
  2
SOLID
 70
1
 71
0
 91
1
 92
3
 72
0
 73
1
 93
4
 10
792.0000000000001
 20
3476.0000000000005
 10
1003.2
 20
3476.0000000000005
 10
1003.2
 20
3440.8
 10
792.0000000000001
 20
3440.8
 97
0
 75
1
 76
1
 98
0
  0
LWPOLYLINE
  5
11F
330
17
100
AcDbEntity
  8
WALL
100
AcDbPolyline
 90
4
 70
1
 10
8395.2
 20
3458.4
 10
8624.0
 20
3458.4
 10
8624.0
 20
3414.4
 10
8395.2
 20
3414.4
  0
HATCH
  5
120
330
17
100
AcDbEntity
  8
WALL
100
AcDbHatch
 10
0.0
 20
0.0
 30
0.0
210
0.0
220
0.0
230
1.0
  2
SOLID
 70
1
 71
0
 91
1
 92
3
 72
0
 73
1
 93
4
 10
8395.2
 20
3458.4
 10
8624.0
 20
3458.4
 10
8624.0
 20
3414.4
 10
8395.2
 20
3414.4
 97
0
 75
1
 76
1
 98
0
  0
LWPOLYLINE
  5
121
330
17
100
AcDbEntity
  8
WALL
100
AcDbPolyline
 90
4
 70
1
 10
11968.000000000002
 20
3467.2000000000003
 10
12161.6
 20
3467.2000000000003
 10
12161.6
 20
3449.6000000000004
 10
11968.000000000002
 20
3449.6000000000004
  0
HATCH
  5
122
330
17
100
AcDbEntity
  8
WALL
100
AcDbHatch
 10
0.0
 20
0.0
 30
0.0
210
0.0
220
0.0
230
1.0
  2
SOLID
 70
1
 71
0
 91
1
 92
3
 72
0
 73
1
 93
4
 10
11968.000000000002
 20
3467.2000000000003
 10
12161.6
 20
3467.2000000000003
 10
12161.6
 20
3449.6000000000004
 10
11968.000000000002
 20
3449.6000000000004
 97
0
 75
1
 76
1
 98
0
  0
LWPOLYLINE
  5
123
330
17
100
AcDbEntity
  8
WALL
100
AcDbPolyline
 90
4
 70
1
 10
8712.0
 20
3449.6000000000004
 10
9011.2
 20
3449.6000000000004
 10
9011.2
 20
3423.2000000000003
 10
8712.0
 20
3423.2000000000003
  0
HATCH
  5
124
330
17
100
AcDbEntity
  8
WALL
100
AcDbHatch
 10
0.0
 20
0.0
 30
0.0
210
0.0
220
0.0
230
1.0
  2
SOLID
 70
1
 71
0
 91
1
 92
3
 72
0
 73
1
 93
4
 10
8712.0
 20
3449.6000000000004
 10
9011.2
 20
3449.6000000000004
 10
9011.2
 20
3423.2000000000003
 10
8712.0
 20
3423.2000000000003
 97
0
 75
1
 76
1
 98
0
  0
LWPOLYLINE
  5
125
330
17
100
AcDbEntity
  8
WALL
100
AcDbPolyline
 90
4
 70
1
 10
7937.6
 20
3396.8
 10
8289.6
 20
3396.8
 10
8289.6
 20
3352.8
 10
7937.6
 20
3352.8
  0
HATCH
  5
126
330
17
100
AcDbEntity
  8
WALL
100
AcDbHatch
 10
0.0
 20
0.0
 30
0.0
210
0.0
220
0.0
230
1.0
  2
SOLID
 70
1
 71
0
 91
1
 92
3
 72
0
 73
1
 93
4
 10
7937.6
 20
3396.8
 10
8289.6
 20
3396.8
 10
8289.6
 20
3352.8
 10
7937.6
 20
3352.8
 97
0
 75
1
 76
1
 98
0
  0
LWPOLYLINE
  5
127
330
17
100
AcDbEntity
  8
WALL
100
AcDbPolyline
 90
4
 70
1
 10
9609.6
 20
3352.8
 10
9891.2
 20
3352.8
 10
9891.2
 20
3326.4
 10
9609.6
 20
3326.4
  0
HATCH
  5
128
330
17
100
AcDbEntity
  8
WALL
100
AcDbHatch
 10
0.0
 20
0.0
 30
0.0
210
0.0
220
0.0
230
1.0
  2
SOLID
 70
1
 71
0
 91
1
 92
3
 72
0
 73
1
 93
4
 10
9609.6
 20
3352.8
 10
9891.2
 20
3352.8
 10
9891.2
 20
3326.4
 10
9609.6
 20
3326.4
 97
0
 75
1
 76
1
 98
0
  0
LWPOLYLINE
  5
129
330
17
100
AcDbEntity
  8
WALL
100
AcDbPolyline
 90
4
 70
1
 10
10366.400000000001
 20
3335.2000000000003
 10
10612.800000000001
 20
3335.2000000000003
 10
10612.800000000001
 20
3317.6000000000004
 10
10366.400000000001
 20
3317.6000000000004
  0
HATCH
  5
12A
330
17
100
AcDbEntity
  8
WALL
100
AcDbHatch
 10
0.0
 20
0.0
 30
0.0
210
0.0
220
0.0
230
1.0
  2
SOLID
 70
1
 71
0
 91
1
 92
3
 72
0
 73
1
 93
4
 10
10366.400000000001
 20
3335.2000000000003
 10
10612.800000000001
 20
3335.2000000000003
 10
10612.800000000001
 20
3317.6000000000004
 10
10366.400000000001
 20
3317.6000000000004
 97
0
 75
1
 76
1
 98
0
  0
LWPOLYLINE
  5
12B
330
17
100
AcDbEntity
  8
WALL
100
AcDbPolyline
 90
4
 70
1
 10
510.40000000000003
 20
3317.6000000000004
 10
915.2
 20
3317.6000000000004
 10
915.2
 20
3291.2000000000003
 10
510.40000000000003
 20
3291.2000000000003
  0
HATCH
  5
12C
330
17
100
AcDbEntity
  8
WALL
100
AcDbHatch
 10
0.0
 20
0.0
 30
0.0
210
0.0
220
0.0
230
1.0
  2
SOLID
 70
1
 71
0
 91
1
 92
3
 72
0
 73
1
 93
4
 10
510.40000000000003
 20
3317.6000000000004
 10
915.2
 20
3317.6000000000004
 10
915.2
 20
3291.2000000000003
 10
510.40000000000003
 20
3291.2000000000003
 97
0
 75
1
 76
1
 98
0
  0
LWPOLYLINE
  5
12D
330
17
100
AcDbEntity
  8
WALL
100
AcDbPolyline
 90
4
 70
1
 10
7779.200000000001
 20
3264.8
 10
9486.400000000001
 20
3264.8
 10
9486.400000000001
 20
3097.6000000000004
 10
7779.200000000001
 20
3097.6000000000004
  0
HATCH
  5
12E
330
17
100
AcDbEntity
  8
WALL
100
AcDbHatch
 10
0.0
 20
0.0
 30
0.0
210
0.0
220
0.0
230
1.0
  2
SOLID
 70
1
 71
0
 91
1
 92
3
 72
0
 73
1
 93
4
 10
7779.200000000001
 20
3264.8
 10
9486.400000000001
 20
3264.8
 10
9486.400000000001
 20
3097.6000000000004
 10
7779.200000000001
 20
3097.6000000000004
 97
0
 75
1
 76
1
 98
0
  0
LWPOLYLINE
  5
12F
330
17
100
AcDbEntity
  8
WALL
100
AcDbPolyline
 90
4
 70
1
 10
7040.000000000001
 20
3256.0000000000005
 10
7515.200000000001
 20
3256.0000000000005
 10
7515.200000000001
 20
3115.2000000000003
 10
7040.000000000001
 20
3115.2000000000003
  0
HATCH
  5
130
330
17
100
AcDbEntity
  8
WALL
100
AcDbHatch
 10
0.0
 20
0.0
 30
0.0
210
0.0
220
0.0
230
1.0
  2
SOLID
 70
1
 71
0
 91
1
 92
3
 72
0
 73
1
 93
4
 10
7040.000000000001
 20
3256.0000000000005
 10
7515.200000000001
 20
3256.0000000000005
 10
7515.200000000001
 20
3115.2000000000003
 10
7040.000000000001
 20
3115.2000000000003
 97
0
 75
1
 76
1
 98
0
  0
LWPOLYLINE
  5
131
330
17
100
AcDbEntity
  8
WALL
100
AcDbPolyline
 90
4
 70
1
 10
4188.8
 20
3238.4
 10
5297.6
 20
3238.4
 10
5297.6
 20
3097.6000000000004
 10
4188.8
 20
3097.6000000000004
  0
HATCH
  5
132
330
17
100
AcDbEntity
  8
WALL
100
AcDbHatch
 10
0.0
 20
0.0
 30
0.0
210
0.0
220
0.0
230
1.0
  2
SOLID
 70
1
 71
0
 91
1
 92
3
 72
0
 73
1
 93
4
 10
4188.8
 20
3238.4
 10
5297.6
 20
3238.4
 10
5297.6
 20
3097.6000000000004
 10
4188.8
 20
3097.6000000000004
 97
0
 75
1
 76
1
 98
0
  0
LWPOLYLINE
  5
133
330
17
100
AcDbEntity
  8
WALL
100
AcDbPolyline
 90
4
 70
1
 10
1513.6000000000001
 20
3115.2000000000003
 10
1760.0000000000002
 20
3115.2000000000003
 10
1760.0000000000002
 20
3062.4
 10
1513.6000000000001
 20
3062.4
  0
HATCH
  5
134
330
17
100
AcDbEntity
  8
WALL
100
AcDbHatch
 10
0.0
 20
0.0
 30
0.0
210
0.0
220
0.0
230
1.0
  2
SOLID
 70
1
 71
0
 91
1
 92
3
 72
0
 73
1
 93
4
 10
1513.6000000000001
 20
3115.2000000000003
 10
1760.0000000000002
 20
3115.2000000000003
 10
1760.0000000000002
 20
3062.4
 10
1513.6000000000001
 20
3062.4
 97
0
 75
1
 76
1
 98
0
  0
LWPOLYLINE
  5
135
330
17
100
AcDbEntity
  8
WALL
100
AcDbPolyline
 90
4
 70
1
 10
9944.0
 20
2780.8
 10
10137.6
 20
2780.8
 10
10137.6
 20
2754.4
 10
9944.0
 20
2754.4
  0
HATCH
  5
136
330
17
100
AcDbEntity
  8
WALL
100
AcDbHatch
 10
0.0
 20
0.0
 30
0.0
210
0.0
220
0.0
230
1.0
  2
SOLID
 70
1
 71
0
 91
1
 92
3
 72
0
 73
1
 93
4
 10
9944.0
 20
2780.8
 10
10137.6
 20
2780.8
 10
10137.6
 20
2754.4
 10
9944.0
 20
2754.4
 97
0
 75
1
 76
1
 98
0
  0
LWPOLYLINE
  5
137
330
17
100
AcDbEntity
  8
WALL
100
AcDbPolyline
 90
4
 70
1
 10
11633.6
 20
2736.8
 10
12056.000000000002
 20
2736.8
 10
12056.000000000002
 20
2666.4
 10
11633.6
 20
2666.4
  0
HATCH
  5
138
330
17
100
AcDbEntity
  8
WALL
100
AcDbHatch
 10
0.0
 20
0.0
 30
0.0
210
0.0
220
0.0
230
1.0
  2
SOLID
 70
1
 71
0
 91
1
 92
3
 72
0
 73
1
 93
4
 10
11633.6
 20
2736.8
 10
12056.000000000002
 20
2736.8
 10
12056.000000000002
 20
2666.4
 10
11633.6
 20
2666.4
 97
0
 75
1
 76
1
 98
0
  0
LWPOLYLINE
  5
139
330
17
100
AcDbEntity
  8
WALL
100
AcDbPolyline
 90
4
 70
1
 10
10982.400000000001
 20
2657.6000000000004
 10
11352.000000000002
 20
2657.6000000000004
 10
11352.000000000002
 20
2516.8
 10
10982.400000000001
 20
2516.8
  0
HATCH
  5
13A
330
17
100
AcDbEntity
  8
WALL
100
AcDbHatch
 10
0.0
 20
0.0
 30
0.0
210
0.0
220
0.0
230
1.0
  2
SOLID
 70
1
 71
0
 91
1
 92
3
 72
0
 73
1
 93
4
 10
10982.400000000001
 20
2657.6000000000004
 10
11352.000000000002
 20
2657.6000000000004
 10
11352.000000000002
 20
2516.8
 10
10982.400000000001
 20
2516.8
 97
0
 75
1
 76
1
 98
0
  0
LWPOLYLINE
  5
13B
330
17
100
AcDbEntity
  8
WALL
100
AcDbPolyline
 90
4
 70
1
 10
4505.6
 20
2587.2000000000003
 10
4804.8
 20
2587.2000000000003
 10
4804.8
 20
2516.8
 10
4505.6
 20
2516.8
  0
HATCH
  5
13C
330
17
100
AcDbEntity
  8
WALL
100
AcDbHatch
 10
0.0
 20
0.0
 30
0.0
210
0.0
220
0.0
230
1.0
  2
SOLID
 70
1
 71
0
 91
1
 92
3
 72
0
 73
1
 93
4
 10
4505.6
 20
2587.2000000000003
 10
4804.8
 20
2587.2000000000003
 10
4804.8
 20
2516.8
 10
4505.6
 20
2516.8
 97
0
 75
1
 76
1
 98
0
  0
LWPOLYLINE
  5
13D
330
17
100
AcDbEntity
  8
WALL
100
AcDbPolyline
 90
4
 70
1
 10
3537.6000000000004
 20
2481.6000000000004
 10
3766.4
 20
2481.6000000000004
 10
3766.4
 20
2455.2000000000003
 10
3537.6000000000004
 20
2455.2000000000003
  0
HATCH
  5
13E
330
17
100
AcDbEntity
  8
WALL
100
AcDbHatch
 10
0.0
 20
0.0
 30
0.0
210
0.0
220
0.0
230
1.0
  2
SOLID
 70
1
 71
0
 91
1
 92
3
 72
0
 73
1
 93
4
 10
3537.6000000000004
 20
2481.6000000000004
 10
3766.4
 20
2481.6000000000004
 10
3766.4
 20
2455.2000000000003
 10
3537.6000000000004
 20
2455.2000000000003
 97
0
 75
1
 76
1
 98
0
  0
LWPOLYLINE
  5
13F
330
17
100
AcDbEntity
  8
WALL
100
AcDbPolyline
 90
4
 70
1
 10
9275.2
 20
2420.0
 10
10366.400000000001
 20
2420.0
 10
10366.400000000001
 20
2164.8
 10
9275.2
 20
2164.8
  0
HATCH
  5
140
330
17
100
AcDbEntity
  8
WALL
100
AcDbHatch
 10
0.0
 20
0.0
 30
0.0
210
0.0
220
0.0
230
1.0
  2
SOLID
 70
1
 71
0
 91
1
 92
3
 72
0
 73
1
 93
4
 10
9275.2
 20
2420.0
 10
10366.400000000001
 20
2420.0
 10
10366.400000000001
 20
2164.8
 10
9275.2
 20
2164.8
 97
0
 75
1
 76
1
 98
0
  0
LWPOLYLINE
  5
141
330
17
100
AcDbEntity
  8
WALL
100
AcDbPolyline
 90
4
 70
1
 10
8958.400000000001
 20
2376.0
 10
9204.800000000001
 20
2376.0
 10
9204.800000000001
 20
2358.4
 10
8958.400000000001
 20
2358.4
  0
HATCH
  5
142
330
17
100
AcDbEntity
  8
WALL
100
AcDbHatch
 10
0.0
 20
0.0
 30
0.0
210
0.0
220
0.0
230
1.0
  2
SOLID
 70
1
 71
0
 91
1
 92
3
 72
0
 73
1
 93
4
 10
8958.400000000001
 20
2376.0
 10
9204.800000000001
 20
2376.0
 10
9204.800000000001
 20
2358.4
 10
8958.400000000001
 20
2358.4
 97
0
 75
1
 76
1
 98
0
  0
LWPOLYLINE
  5
143
330
17
100
AcDbEntity
  8
WALL
100
AcDbPolyline
 90
4
 70
1
 10
9028.800000000001
 20
2288.0
 10
9222.400000000001
 20
2288.0
 10
9222.400000000001
 20
2270.4
 10
9028.800000000001
 20
2270.4
  0
HATCH
  5
144
330
17
100
AcDbEntity
  8
WALL
100
AcDbHatch
 10
0.0
 20
0.0
 30
0.0
210
0.0
220
0.0
230
1.0
  2
SOLID
 70
1
 71
0
 91
1
 92
3
 72
0
 73
1
 93
4
 10
9028.800000000001
 20
2288.0
 10
9222.400000000001
 20
2288.0
 10
9222.400000000001
 20
2270.4
 10
9028.800000000001
 20
2270.4
 97
0
 75
1
 76
1
 98
0
  0
LWPOLYLINE
  5
145
330
17
100
AcDbEntity
  8
WALL
100
AcDbPolyline
 90
4
 70
1
 10
9556.800000000001
 20
2270.4
 10
9768.0
 20
2270.4
 10
9768.0
 20
2235.2000000000003
 10
9556.800000000001
 20
2235.2000000000003
  0
HATCH
  5
146
330
17
100
AcDbEntity
  8
WALL
100
AcDbHatch
 10
0.0
 20
0.0
 30
0.0
210
0.0
220
0.0
230
1.0
  2
SOLID
 70
1
 71
0
 91
1
 92
3
 72
0
 73
1
 93
4
 10
9556.800000000001
 20
2270.4
 10
9768.0
 20
2270.4
 10
9768.0
 20
2235.2000000000003
 10
9556.800000000001
 20
2235.2000000000003
 97
0
 75
1
 76
1
 98
0
  0
LWPOLYLINE
  5
147
330
17
100
AcDbEntity
  8
WALL
100
AcDbPolyline
 90
4
 70
1
 10
9644.800000000001
 20
2129.6000000000004
 10
9944.0
 20
2129.6000000000004
 10
9944.0
 20
2085.6000000000004
 10
9644.800000000001
 20
2085.6000000000004
  0
HATCH
  5
148
330
17
100
AcDbEntity
  8
WALL
100
AcDbHatch
 10
0.0
 20
0.0
 30
0.0
210
0.0
220
0.0
230
1.0
  2
SOLID
 70
1
 71
0
 91
1
 92
3
 72
0
 73
1
 93
4
 10
9644.800000000001
 20
2129.6000000000004
 10
9944.0
 20
2129.6000000000004
 10
9944.0
 20
2085.6000000000004
 10
9644.800000000001
 20
2085.6000000000004
 97
0
 75
1
 76
1
 98
0
  0
LWPOLYLINE
  5
149
330
17
100
AcDbEntity
  8
WALL
100
AcDbPolyline
 90
4
 70
1
 10
8078.400000000001
 20
2059.2000000000003
 10
8386.400000000001
 20
2059.2000000000003
 10
8386.400000000001
 20
1971.2000000000003
 10
8078.400000000001
 20
1971.2000000000003
  0
HATCH
  5
14A
330
17
100
AcDbEntity
  8
WALL
100
AcDbHatch
 10
0.0
 20
0.0
 30
0.0
210
0.0
220
0.0
230
1.0
  2
SOLID
 70
1
 71
0
 91
1
 92
3
 72
0
 73
1
 93
4
 10
8078.400000000001
 20
2059.2000000000003
 10
8386.400000000001
 20
2059.2000000000003
 10
8386.400000000001
 20
1971.2000000000003
 10
8078.400000000001
 20
1971.2000000000003
 97
0
 75
1
 76
1
 98
0
  0
LWPOLYLINE
  5
14B
330
17
100
AcDbEntity
  8
WALL
100
AcDbPolyline
 90
4
 70
1
 10
9926.400000000001
 20
1971.2000000000003
 10
10137.6
 20
1971.2000000000003
 10
10137.6
 20
1936.0000000000002
 10
9926.400000000001
 20
1936.0000000000002
  0
HATCH
  5
14C
330
17
100
AcDbEntity
  8
WALL
100
AcDbHatch
 10
0.0
 20
0.0
 30
0.0
210
0.0
220
0.0
230
1.0
  2
SOLID
 70
1
 71
0
 91
1
 92
3
 72
0
 73
1
 93
4
 10
9926.400000000001
 20
1971.2000000000003
 10
10137.6
 20
1971.2000000000003
 10
10137.6
 20
1936.0000000000002
 10
9926.400000000001
 20
1936.0000000000002
 97
0
 75
1
 76
1
 98
0
  0
LWPOLYLINE
  5
14D
330
17
100
AcDbEntity
  8
WALL
100
AcDbPolyline
 90
4
 70
1
 10
6142.400000000001
 20
1724.8000000000002
 10
6705.6
 20
1724.8000000000002
 10
6705.6
 20
1672.0000000000002
 10
6142.400000000001
 20
1672.0000000000002
  0
HATCH
  5
14E
330
17
100
AcDbEntity
  8
WALL
100
AcDbHatch
 10
0.0
 20
0.0
 30
0.0
210
0.0
220
0.0
230
1.0
  2
SOLID
 70
1
 71
0
 91
1
 92
3
 72
0
 73
1
 93
4
 10
6142.400000000001
 20
1724.8000000000002
 10
6705.6
 20
1724.8000000000002
 10
6705.6
 20
1672.0000000000002
 10
6142.400000000001
 20
1672.0000000000002
 97
0
 75
1
 76
1
 98
0
  0
LWPOLYLINE
  5
14F
330
17
100
AcDbEntity
  8
WALL
100
AcDbPolyline
 90
4
 70
1
 10
7233.6
 20
1724.8000000000002
 10
7673.6
 20
1724.8000000000002
 10
7673.6
 20
1672.0000000000002
 10
7233.6
 20
1672.0000000000002
  0
HATCH
  5
150
330
17
100
AcDbEntity
  8
WALL
100
AcDbHatch
 10
0.0
 20
0.0
 30
0.0
210
0.0
220
0.0
230
1.0
  2
SOLID
 70
1
 71
0
 91
1
 92
3
 72
0
 73
1
 93
4
 10
7233.6
 20
1724.8000000000002
 10
7673.6
 20
1724.8000000000002
 10
7673.6
 20
1672.0000000000002
 10
7233.6
 20
1672.0000000000002
 97
0
 75
1
 76
1
 98
0
  0
LWPOLYLINE
  5
151
330
17
100
AcDbEntity
  8
WALL
100
AcDbPolyline
 90
4
 70
1
 10
9785.6
 20
1654.4
 10
10454.400000000001
 20
1654.4
 10
10454.400000000001
 20
1566.4
 10
9785.6
 20
1566.4
  0
HATCH
  5
152
330
17
100
AcDbEntity
  8
WALL
100
AcDbHatch
 10
0.0
 20
0.0
 30
0.0
210
0.0
220
0.0
230
1.0
  2
SOLID
 70
1
 71
0
 91
1
 92
3
 72
0
 73
1
 93
4
 10
9785.6
 20
1654.4
 10
10454.400000000001
 20
1654.4
 10
10454.400000000001
 20
1566.4
 10
9785.6
 20
1566.4
 97
0
 75
1
 76
1
 98
0
  0
LWPOLYLINE
  5
153
330
17
100
AcDbEntity
  8
WALL
100
AcDbPolyline
 90
4
 70
1
 10
9169.6
 20
1636.8000000000002
 10
9609.6
 20
1636.8000000000002
 10
9609.6
 20
1557.6000000000001
 10
9169.6
 20
1557.6000000000001
  0
HATCH
  5
154
330
17
100
AcDbEntity
  8
WALL
100
AcDbHatch
 10
0.0
 20
0.0
 30
0.0
210
0.0
220
0.0
230
1.0
  2
SOLID
 70
1
 71
0
 91
1
 92
3
 72
0
 73
1
 93
4
 10
9169.6
 20
1636.8000000000002
 10
9609.6
 20
1636.8000000000002
 10
9609.6
 20
1557.6000000000001
 10
9169.6
 20
1557.6000000000001
 97
0
 75
1
 76
1
 98
0
  0
LWPOLYLINE
  5
155
330
17
100
AcDbEntity
  8
WALL
100
AcDbPolyline
 90
4
 70
1
 10
10595.2
 20
1320.0
 10
10859.2
 20
1320.0
 10
10859.2
 20
1249.6000000000001
 10
10595.2
 20
1249.6000000000001
  0
HATCH
  5
156
330
17
100
AcDbEntity
  8
WALL
100
AcDbHatch
 10
0.0
 20
0.0
 30
0.0
210
0.0
220
0.0
230
1.0
  2
SOLID
 70
1
 71
0
 91
1
 92
3
 72
0
 73
1
 93
4
 10
10595.2
 20
1320.0
 10
10859.2
 20
1320.0
 10
10859.2
 20
1249.6000000000001
 10
10595.2
 20
1249.6000000000001
 97
0
 75
1
 76
1
 98
0
  0
LWPOLYLINE
  5
157
330
17
100
AcDbEntity
  8
WALL
100
AcDbPolyline
 90
4
 70
1
 10
9028.800000000001
 20
1302.4
 10
9715.2
 20
1302.4
 10
9715.2
 20
1214.4
 10
9028.800000000001
 20
1214.4
  0
HATCH
  5
158
330
17
100
AcDbEntity
  8
WALL
100
AcDbHatch
 10
0.0
 20
0.0
 30
0.0
210
0.0
220
0.0
230
1.0
  2
SOLID
 70
1
 71
0
 91
1
 92
3
 72
0
 73
1
 93
4
 10
9028.800000000001
 20
1302.4
 10
9715.2
 20
1302.4
 10
9715.2
 20
1214.4
 10
9028.800000000001
 20
1214.4
 97
0
 75
1
 76
1
 98
0
  0
LWPOLYLINE
  5
159
330
17
100
AcDbEntity
  8
WALL
100
AcDbPolyline
 90
4
 70
1
 10
9785.6
 20
1302.4
 10
10366.400000000001
 20
1302.4
 10
10366.400000000001
 20
1232.0
 10
9785.6
 20
1232.0
  0
HATCH
  5
15A
330
17
100
AcDbEntity
  8
WALL
100
AcDbHatch
 10
0.0
 20
0.0
 30
0.0
210
0.0
220
0.0
230
1.0
  2
SOLID
 70
1
 71
0
 91
1
 92
3
 72
0
 73
1
 93
4
 10
9785.6
 20
1302.4
 10
10366.400000000001
 20
1302.4
 10
10366.400000000001
 20
1232.0
 10
9785.6
 20
1232.0
 97
0
 75
1
 76
1
 98
0
  0
LWPOLYLINE
  5
15B
330
17
100
AcDbEntity
  8
WALL
100
AcDbPolyline
 90
4
 70
1
 10
11211.2
 20
1267.2
 10
11633.6
 20
1267.2
 10
11633.6
 20
1214.4
 10
11211.2
 20
1214.4
  0
HATCH
  5
15C
330
17
100
AcDbEntity
  8
WALL
100
AcDbHatch
 10
0.0
 20
0.0
 30
0.0
210
0.0
220
0.0
230
1.0
  2
SOLID
 70
1
 71
0
 91
1
 92
3
 72
0
 73
1
 93
4
 10
11211.2
 20
1267.2
 10
11633.6
 20
1267.2
 10
11633.6
 20
1214.4
 10
11211.2
 20
1214.4
 97
0
 75
1
 76
1
 98
0
  0
LWPOLYLINE
  5
15D
330
17
100
AcDbEntity
  8
WALL
100
AcDbPolyline
 90
4
 70
1
 10
10542.400000000001
 20
1214.4
 10
10753.6
 20
1214.4
 10
10753.6
 20
1179.2
 10
10542.400000000001
 20
1179.2
  0
HATCH
  5
15E
330
17
100
AcDbEntity
  8
WALL
100
AcDbHatch
 10
0.0
 20
0.0
 30
0.0
210
0.0
220
0.0
230
1.0
  2
SOLID
 70
1
 71
0
 91
1
 92
3
 72
0
 73
1
 93
4
 10
10542.400000000001
 20
1214.4
 10
10753.6
 20
1214.4
 10
10753.6
 20
1179.2
 10
10542.400000000001
 20
1179.2
 97
0
 75
1
 76
1
 98
0
  0
LWPOLYLINE
  5
15F
330
17
100
AcDbEntity
  8
WALL
100
AcDbPolyline
 90
4
 70
1
 10
8888.0
 20
1144.0
 10
10577.6
 20
1144.0
 10
10577.6
 20
1073.6000000000001
 10
8888.0
 20
1073.6000000000001
  0
HATCH
  5
160
330
17
100
AcDbEntity
  8
WALL
100
AcDbHatch
 10
0.0
 20
0.0
 30
0.0
210
0.0
220
0.0
230
1.0
  2
SOLID
 70
1
 71
0
 91
1
 92
3
 72
0
 73
1
 93
4
 10
8888.0
 20
1144.0
 10
10577.6
 20
1144.0
 10
10577.6
 20
1073.6000000000001
 10
8888.0
 20
1073.6000000000001
 97
0
 75
1
 76
1
 98
0
  0
LWPOLYLINE
  5
161
330
17
100
AcDbEntity
  8
WALL
100
AcDbPolyline
 90
4
 70
1
 10
1760.0000000000002
 20
1108.8000000000002
 10
2112.0
 20
1108.8000000000002
 10
2112.0
 20
1064.8000000000002
 10
1760.0000000000002
 20
1064.8000000000002
  0
HATCH
  5
162
330
17
100
AcDbEntity
  8
WALL
100
AcDbHatch
 10
0.0
 20
0.0
 30
0.0
210
0.0
220
0.0
230
1.0
  2
SOLID
 70
1
 71
0
 91
1
 92
3
 72
0
 73
1
 93
4
 10
1760.0000000000002
 20
1108.8000000000002
 10
2112.0
 20
1108.8000000000002
 10
2112.0
 20
1064.8000000000002
 10
1760.0000000000002
 20
1064.8000000000002
 97
0
 75
1
 76
1
 98
0
  0
LWPOLYLINE
  5
163
330
17
100
AcDbEntity
  8
WALL
100
AcDbPolyline
 90
4
 70
1
 10
6336.000000000001
 20
1108.8000000000002
 10
6758.400000000001
 20
1108.8000000000002
 10
6758.400000000001
 20
1056.0
 10
6336.000000000001
 20
1056.0
  0
HATCH
  5
164
330
17
100
AcDbEntity
  8
WALL
100
AcDbHatch
 10
0.0
 20
0.0
 30
0.0
210
0.0
220
0.0
230
1.0
  2
SOLID
 70
1
 71
0
 91
1
 92
3
 72
0
 73
1
 93
4
 10
6336.000000000001
 20
1108.8000000000002
 10
6758.400000000001
 20
1108.8000000000002
 10
6758.400000000001
 20
1056.0
 10
6336.000000000001
 20
1056.0
 97
0
 75
1
 76
1
 98
0
  0
LWPOLYLINE
  5
165
330
17
100
AcDbEntity
  8
WALL
100
AcDbPolyline
 90
4
 70
1
 10
2516.8
 20
1091.2
 10
2816.0
 20
1091.2
 10
2816.0
 20
1064.8000000000002
 10
2516.8
 20
1064.8000000000002
  0
HATCH
  5
166
330
17
100
AcDbEntity
  8
WALL
100
AcDbHatch
 10
0.0
 20
0.0
 30
0.0
210
0.0
220
0.0
230
1.0
  2
SOLID
 70
1
 71
0
 91
1
 92
3
 72
0
 73
1
 93
4
 10
2516.8
 20
1091.2
 10
2816.0
 20
1091.2
 10
2816.0
 20
1064.8000000000002
 10
2516.8
 20
1064.8000000000002
 97
0
 75
1
 76
1
 98
0
  0
LWPOLYLINE
  5
167
330
17
100
AcDbEntity
  8
WALL
100
AcDbPolyline
 90
4
 70
1
 10
5156.8
 20
1073.6000000000001
 10
6265.6
 20
1073.6000000000001
 10
6265.6
 20
932.8000000000001
 10
5156.8
 20
932.8000000000001
  0
HATCH
  5
168
330
17
100
AcDbEntity
  8
WALL
100
AcDbHatch
 10
0.0
 20
0.0
 30
0.0
210
0.0
220
0.0
230
1.0
  2
SOLID
 70
1
 71
0
 91
1
 92
3
 72
0
 73
1
 93
4
 10
5156.8
 20
1073.6000000000001
 10
6265.6
 20
1073.6000000000001
 10
6265.6
 20
932.8000000000001
 10
5156.8
 20
932.8000000000001
 97
0
 75
1
 76
1
 98
0
  0
LWPOLYLINE
  5
169
330
17
100
AcDbEntity
  8
WALL
100
AcDbPolyline
 90
4
 70
1
 10
3960.0000000000005
 20
1056.0
 10
4928.0
 20
1056.0
 10
4928.0
 20
1003.2
 10
3960.0000000000005
 20
1003.2
  0
HATCH
  5
16A
330
17
100
AcDbEntity
  8
WALL
100
AcDbHatch
 10
0.0
 20
0.0
 30
0.0
210
0.0
220
0.0
230
1.0
  2
SOLID
 70
1
 71
0
 91
1
 92
3
 72
0
 73
1
 93
4
 10
3960.0000000000005
 20
1056.0
 10
4928.0
 20
1056.0
 10
4928.0
 20
1003.2
 10
3960.0000000000005
 20
1003.2
 97
0
 75
1
 76
1
 98
0
  0
LWPOLYLINE
  5
16B
330
17
100
AcDbEntity
  8
WALL
100
AcDbPolyline
 90
4
 70
1
 10
10155.2
 20
1038.4
 10
10436.800000000001
 20
1038.4
 10
10436.800000000001
 20
1003.2
 10
10155.2
 20
1003.2
  0
HATCH
  5
16C
330
17
100
AcDbEntity
  8
WALL
100
AcDbHatch
 10
0.0
 20
0.0
 30
0.0
210
0.0
220
0.0
230
1.0
  2
SOLID
 70
1
 71
0
 91
1
 92
3
 72
0
 73
1
 93
4
 10
10155.2
 20
1038.4
 10
10436.800000000001
 20
1038.4
 10
10436.800000000001
 20
1003.2
 10
10155.2
 20
1003.2
 97
0
 75
1
 76
1
 98
0
  0
LWPOLYLINE
  5
16D
330
17
100
AcDbEntity
  8
WALL
100
AcDbPolyline
 90
4
 70
1
 10
8606.400000000001
 20
1020.8000000000001
 10
8923.2
 20
1020.8000000000001
 10
8923.2
 20
968.0000000000001
 10
8606.400000000001
 20
968.0000000000001
  0
HATCH
  5
16E
330
17
100
AcDbEntity
  8
WALL
100
AcDbHatch
 10
0.0
 20
0.0
 30
0.0
210
0.0
220
0.0
230
1.0
  2
SOLID
 70
1
 71
0
 91
1
 92
3
 72
0
 73
1
 93
4
 10
8606.400000000001
 20
1020.8000000000001
 10
8923.2
 20
1020.8000000000001
 10
8923.2
 20
968.0000000000001
 10
8606.400000000001
 20
968.0000000000001
 97
0
 75
1
 76
1
 98
0
  0
LWPOLYLINE
  5
16F
330
17
100
AcDbEntity
  8
WALL
100
AcDbPolyline
 90
4
 70
1
 10
7444.8
 20
12628.000000000002
 10
7532.8
 20
12628.000000000002
 10
7532.8
 20
11378.400000000001
 10
7444.8
 20
11378.400000000001
  0
HATCH
  5
170
330
17
100
AcDbEntity
  8
WALL
100
AcDbHatch
 10
0.0
 20
0.0
 30
0.0
210
0.0
220
0.0
230
1.0
  2
SOLID
 70
1
 71
0
 91
1
 92
3
 72
0
 73
1
 93
4
 10
7444.8
 20
12628.000000000002
 10
7532.8
 20
12628.000000000002
 10
7532.8
 20
11378.400000000001
 10
7444.8
 20
11378.400000000001
 97
0
 75
1
 76
1
 98
0
  0
LWPOLYLINE
  5
171
330
17
100
AcDbEntity
  8
WALL
100
AcDbPolyline
 90
4
 70
1
 10
6265.6
 20
12531.2
 10
6300.8
 20
12531.2
 10
6300.8
 20
12337.6
 10
6265.6
 20
12337.6
  0
HATCH
  5
172
330
17
100
AcDbEntity
  8
WALL
100
AcDbHatch
 10
0.0
 20
0.0
 30
0.0
210
0.0
220
0.0
230
1.0
  2
SOLID
 70
1
 71
0
 91
1
 92
3
 72
0
 73
1
 93
4
 10
6265.6
 20
12531.2
 10
6300.8
 20
12531.2
 10
6300.8
 20
12337.6
 10
6265.6
 20
12337.6
 97
0
 75
1
 76
1
 98
0
  0
LWPOLYLINE
  5
173
330
17
100
AcDbEntity
  8
WALL
100
AcDbPolyline
 90
4
 70
1
 10
6353.6
 20
12531.2
 10
6388.8
 20
12531.2
 10
6388.8
 20
12232.000000000002
 10
6353.6
 20
12232.000000000002
  0
HATCH
  5
174
330
17
100
AcDbEntity
  8
WALL
100
AcDbHatch
 10
0.0
 20
0.0
 30
0.0
210
0.0
220
0.0
230
1.0
  2
SOLID
 70
1
 71
0
 91
1
 92
3
 72
0
 73
1
 93
4
 10
6353.6
 20
12531.2
 10
6388.8
 20
12531.2
 10
6388.8
 20
12232.000000000002
 10
6353.6
 20
12232.000000000002
 97
0
 75
1
 76
1
 98
0
  0
LWPOLYLINE
  5
175
330
17
100
AcDbEntity
  8
WALL
100
AcDbPolyline
 90
4
 70
1
 10
2499.2000000000003
 20
12513.6
 10
2604.8
 20
12513.6
 10
2604.8
 20
10375.2
 10
2499.2000000000003
 20
10375.2
  0
HATCH
  5
176
330
17
100
AcDbEntity
  8
WALL
100
AcDbHatch
 10
0.0
 20
0.0
 30
0.0
210
0.0
220
0.0
230
1.0
  2
SOLID
 70
1
 71
0
 91
1
 92
3
 72
0
 73
1
 93
4
 10
2499.2000000000003
 20
12513.6
 10
2604.8
 20
12513.6
 10
2604.8
 20
10375.2
 10
2499.2000000000003
 20
10375.2
 97
0
 75
1
 76
1
 98
0
  0
LWPOLYLINE
  5
177
330
17
100
AcDbEntity
  8
WALL
100
AcDbPolyline
 90
4
 70
1
 10
4338.400000000001
 20
12513.6
 10
4364.8
 20
12513.6
 10
4364.8
 20
12320.000000000002
 10
4338.400000000001
 20
12320.000000000002
  0
HATCH
  5
178
330
17
100
AcDbEntity
  8
WALL
100
AcDbHatch
 10
0.0
 20
0.0
 30
0.0
210
0.0
220
0.0
230
1.0
  2
SOLID
 70
1
 71
0
 91
1
 92
3
 72
0
 73
1
 93
4
 10
4338.400000000001
 20
12513.6
 10
4364.8
 20
12513.6
 10
4364.8
 20
12320.000000000002
 10
4338.400000000001
 20
12320.000000000002
 97
0
 75
1
 76
1
 98
0
  0
LWPOLYLINE
  5
179
330
17
100
AcDbEntity
  8
WALL
100
AcDbPolyline
 90
4
 70
1
 10
4540.8
 20
12513.6
 10
4558.400000000001
 20
12513.6
 10
4558.400000000001
 20
12328.800000000001
 10
4540.8
 20
12328.800000000001
  0
HATCH
  5
17A
330
17
100
AcDbEntity
  8
WALL
100
AcDbHatch
 10
0.0
 20
0.0
 30
0.0
210
0.0
220
0.0
230
1.0
  2
SOLID
 70
1
 71
0
 91
1
 92
3
 72
0
 73
1
 93
4
 10
4540.8
 20
12513.6
 10
4558.400000000001
 20
12513.6
 10
4558.400000000001
 20
12328.800000000001
 10
4540.8
 20
12328.800000000001
 97
0
 75
1
 76
1
 98
0
  0
LWPOLYLINE
  5
17B
330
17
100
AcDbEntity
  8
WALL
100
AcDbPolyline
 90
4
 70
1
 10
4593.6
 20
12513.6
 10
4628.8
 20
12513.6
 10
4628.8
 20
12276.000000000002
 10
4593.6
 20
12276.000000000002
  0
HATCH
  5
17C
330
17
100
AcDbEntity
  8
WALL
100
AcDbHatch
 10
0.0
 20
0.0
 30
0.0
210
0.0
220
0.0
230
1.0
  2
SOLID
 70
1
 71
0
 91
1
 92
3
 72
0
 73
1
 93
4
 10
4593.6
 20
12513.6
 10
4628.8
 20
12513.6
 10
4628.8
 20
12276.000000000002
 10
4593.6
 20
12276.000000000002
 97
0
 75
1
 76
1
 98
0
  0
LWPOLYLINE
  5
17D
330
17
100
AcDbEntity
  8
WALL
100
AcDbPolyline
 90
4
 70
1
 10
4699.200000000001
 20
12513.6
 10
4716.8
 20
12513.6
 10
4716.8
 20
12320.000000000002
 10
4699.200000000001
 20
12320.000000000002
  0
HATCH
  5
17E
330
17
100
AcDbEntity
  8
WALL
100
AcDbHatch
 10
0.0
 20
0.0
 30
0.0
210
0.0
220
0.0
230
1.0
  2
SOLID
 70
1
 71
0
 91
1
 92
3
 72
0
 73
1
 93
4
 10
4699.200000000001
 20
12513.6
 10
4716.8
 20
12513.6
 10
4716.8
 20
12320.000000000002
 10
4699.200000000001
 20
12320.000000000002
 97
0
 75
1
 76
1
 98
0
  0
LWPOLYLINE
  5
17F
330
17
100
AcDbEntity
  8
WALL
100
AcDbPolyline
 90
4
 70
1
 10
4734.400000000001
 20
12513.6
 10
4769.6
 20
12513.6
 10
4769.6
 20
12276.000000000002
 10
4734.400000000001
 20
12276.000000000002
  0
HATCH
  5
180
330
17
100
AcDbEntity
  8
WALL
100
AcDbHatch
 10
0.0
 20
0.0
 30
0.0
210
0.0
220
0.0
230
1.0
  2
SOLID
 70
1
 71
0
 91
1
 92
3
 72
0
 73
1
 93
4
 10
4734.400000000001
 20
12513.6
 10
4769.6
 20
12513.6
 10
4769.6
 20
12276.000000000002
 10
4734.400000000001
 20
12276.000000000002
 97
0
 75
1
 76
1
 98
0
  0
LWPOLYLINE
  5
181
330
17
100
AcDbEntity
  8
WALL
100
AcDbPolyline
 90
4
 70
1
 10
4840.0
 20
12513.6
 10
4892.8
 20
12513.6
 10
4892.8
 20
12240.800000000001
 10
4840.0
 20
12240.800000000001
  0
HATCH
  5
182
330
17
100
AcDbEntity
  8
WALL
100
AcDbHatch
 10
0.0
 20
0.0
 30
0.0
210
0.0
220
0.0
230
1.0
  2
SOLID
 70
1
 71
0
 91
1
 92
3
 72
0
 73
1
 93
4
 10
4840.0
 20
12513.6
 10
4892.8
 20
12513.6
 10
4892.8
 20
12240.800000000001
 10
4840.0
 20
12240.800000000001
 97
0
 75
1
 76
1
 98
0
  0
LWPOLYLINE
  5
183
330
17
100
AcDbEntity
  8
WALL
100
AcDbPolyline
 90
4
 70
1
 10
4963.200000000001
 20
12513.6
 10
4980.8
 20
12513.6
 10
4980.8
 20
12328.800000000001
 10
4963.200000000001
 20
12328.800000000001
  0
HATCH
  5
184
330
17
100
AcDbEntity
  8
WALL
100
AcDbHatch
 10
0.0
 20
0.0
 30
0.0
210
0.0
220
0.0
230
1.0
  2
SOLID
 70
1
 71
0
 91
1
 92
3
 72
0
 73
1
 93
4
 10
4963.200000000001
 20
12513.6
 10
4980.8
 20
12513.6
 10
4980.8
 20
12328.800000000001
 10
4963.200000000001
 20
12328.800000000001
 97
0
 75
1
 76
1
 98
0
  0
LWPOLYLINE
  5
185
330
17
100
AcDbEntity
  8
WALL
100
AcDbPolyline
 90
4
 70
1
 10
5667.200000000001
 20
12513.6
 10
5772.8
 20
12513.6
 10
5772.8
 20
12170.400000000001
 10
5667.200000000001
 20
12170.400000000001
  0
HATCH
  5
186
330
17
100
AcDbEntity
  8
WALL
100
AcDbHatch
 10
0.0
 20
0.0
 30
0.0
210
0.0
220
0.0
230
1.0
  2
SOLID
 70
1
 71
0
 91
1
 92
3
 72
0
 73
1
 93
4
 10
5667.200000000001
 20
12513.6
 10
5772.8
 20
12513.6
 10
5772.8
 20
12170.400000000001
 10
5667.200000000001
 20
12170.400000000001
 97
0
 75
1
 76
1
 98
0
  0
LWPOLYLINE
  5
187
330
17
100
AcDbEntity
  8
WALL
100
AcDbPolyline
 90
4
 70
1
 10
5878.400000000001
 20
12513.6
 10
5931.200000000001
 20
12513.6
 10
5931.200000000001
 20
12284.800000000001
 10
5878.400000000001
 20
12284.800000000001
  0
HATCH
  5
188
330
17
100
AcDbEntity
  8
WALL
100
AcDbHatch
 10
0.0
 20
0.0
 30
0.0
210
0.0
220
0.0
230
1.0
  2
SOLID
 70
1
 71
0
 91
1
 92
3
 72
0
 73
1
 93
4
 10
5878.400000000001
 20
12513.6
 10
5931.200000000001
 20
12513.6
 10
5931.200000000001
 20
12284.800000000001
 10
5878.400000000001
 20
12284.800000000001
 97
0
 75
1
 76
1
 98
0
  0
LWPOLYLINE
  5
189
330
17
100
AcDbEntity
  8
WALL
100
AcDbPolyline
 90
4
 70
1
 10
6582.400000000001
 20
12513.6
 10
6617.6
 20
12513.6
 10
6617.6
 20
12179.2
 10
6582.400000000001
 20
12179.2
  0
HATCH
  5
18A
330
17
100
AcDbEntity
  8
WALL
100
AcDbHatch
 10
0.0
 20
0.0
 30
0.0
210
0.0
220
0.0
230
1.0
  2
SOLID
 70
1
 71
0
 91
1
 92
3
 72
0
 73
1
 93
4
 10
6582.400000000001
 20
12513.6
 10
6617.6
 20
12513.6
 10
6617.6
 20
12179.2
 10
6582.400000000001
 20
12179.2
 97
0
 75
1
 76
1
 98
0
  0
LWPOLYLINE
  5
18B
330
17
100
AcDbEntity
  8
WALL
100
AcDbPolyline
 90
4
 70
1
 10
6670.400000000001
 20
12513.6
 10
6723.200000000001
 20
12513.6
 10
6723.200000000001
 20
12302.400000000001
 10
6670.400000000001
 20
12302.400000000001
  0
HATCH
  5
18C
330
17
100
AcDbEntity
  8
WALL
100
AcDbHatch
 10
0.0
 20
0.0
 30
0.0
210
0.0
220
0.0
230
1.0
  2
SOLID
 70
1
 71
0
 91
1
 92
3
 72
0
 73
1
 93
4
 10
6670.400000000001
 20
12513.6
 10
6723.200000000001
 20
12513.6
 10
6723.200000000001
 20
12302.400000000001
 10
6670.400000000001
 20
12302.400000000001
 97
0
 75
1
 76
1
 98
0
  0
LWPOLYLINE
  5
18D
330
17
100
AcDbEntity
  8
WALL
100
AcDbPolyline
 90
4
 70
1
 10
6793.6
 20
12513.6
 10
6811.200000000001
 20
12513.6
 10
6811.200000000001
 20
12328.800000000001
 10
6793.6
 20
12328.800000000001
  0
HATCH
  5
18E
330
17
100
AcDbEntity
  8
WALL
100
AcDbHatch
 10
0.0
 20
0.0
 30
0.0
210
0.0
220
0.0
230
1.0
  2
SOLID
 70
1
 71
0
 91
1
 92
3
 72
0
 73
1
 93
4
 10
6793.6
 20
12513.6
 10
6811.200000000001
 20
12513.6
 10
6811.200000000001
 20
12328.800000000001
 10
6793.6
 20
12328.800000000001
 97
0
 75
1
 76
1
 98
0
  0
LWPOLYLINE
  5
18F
330
17
100
AcDbEntity
  8
WALL
100
AcDbPolyline
 90
4
 70
1
 10
6846.400000000001
 20
12513.6
 10
6916.8
 20
12513.6
 10
6916.8
 20
12214.400000000001
 10
6846.400000000001
 20
12214.400000000001
  0
HATCH
  5
190
330
17
100
AcDbEntity
  8
WALL
100
AcDbHatch
 10
0.0
 20
0.0
 30
0.0
210
0.0
220
0.0
230
1.0
  2
SOLID
 70
1
 71
0
 91
1
 92
3
 72
0
 73
1
 93
4
 10
6846.400000000001
 20
12513.6
 10
6916.8
 20
12513.6
 10
6916.8
 20
12214.400000000001
 10
6846.400000000001
 20
12214.400000000001
 97
0
 75
1
 76
1
 98
0
  0
LWPOLYLINE
  5
191
330
17
100
AcDbEntity
  8
WALL
100
AcDbPolyline
 90
4
 70
1
 10
6934.400000000001
 20
12381.6
 10
6960.8
 20
12381.6
 10
6960.8
 20
12126.400000000001
 10
6934.400000000001
 20
12126.400000000001
  0
HATCH
  5
192
330
17
100
AcDbEntity
  8
WALL
100
AcDbHatch
 10
0.0
 20
0.0
 30
0.0
210
0.0
220
0.0
230
1.0
  2
SOLID
 70
1
 71
0
 91
1
 92
3
 72
0
 73
1
 93
4
 10
6934.400000000001
 20
12381.6
 10
6960.8
 20
12381.6
 10
6960.8
 20
12126.400000000001
 10
6934.400000000001
 20
12126.400000000001
 97
0
 75
1
 76
1
 98
0
  0
LWPOLYLINE
  5
193
330
17
100
AcDbEntity
  8
WALL
100
AcDbPolyline
 90
4
 70
1
 10
6124.8
 20
12320.000000000002
 10
6142.400000000001
 20
12320.000000000002
 10
6142.400000000001
 20
12135.2
 10
6124.8
 20
12135.2
  0
HATCH
  5
194
330
17
100
AcDbEntity
  8
WALL
100
AcDbHatch
 10
0.0
 20
0.0
 30
0.0
210
0.0
220
0.0
230
1.0
  2
SOLID
 70
1
 71
0
 91
1
 92
3
 72
0
 73
1
 93
4
 10
6124.8
 20
12320.000000000002
 10
6142.400000000001
 20
12320.000000000002
 10
6142.400000000001
 20
12135.2
 10
6124.8
 20
12135.2
 97
0
 75
1
 76
1
 98
0
  0
LWPOLYLINE
  5
195
330
17
100
AcDbEntity
  8
WALL
100
AcDbPolyline
 90
4
 70
1
 10
7057.6
 20
12205.6
 10
7110.400000000001
 20
12205.6
 10
7110.400000000001
 20
11871.2
 10
7057.6
 20
11871.2
  0
HATCH
  5
196
330
17
100
AcDbEntity
  8
WALL
100
AcDbHatch
 10
0.0
 20
0.0
 30
0.0
210
0.0
220
0.0
230
1.0
  2
SOLID
 70
1
 71
0
 91
1
 92
3
 72
0
 73
1
 93
4
 10
7057.6
 20
12205.6
 10
7110.400000000001
 20
12205.6
 10
7110.400000000001
 20
11871.2
 10
7057.6
 20
11871.2
 97
0
 75
1
 76
1
 98
0
  0
LWPOLYLINE
  5
197
330
17
100
AcDbEntity
  8
WALL
100
AcDbPolyline
 90
4
 70
1
 10
7180.8
 20
12144.000000000002
 10
7321.6
 20
12144.000000000002
 10
7321.6
 20
10648.0
 10
7180.8
 20
10648.0
  0
HATCH
  5
198
330
17
100
AcDbEntity
  8
WALL
100
AcDbHatch
 10
0.0
 20
0.0
 30
0.0
210
0.0
220
0.0
230
1.0
  2
SOLID
 70
1
 71
0
 91
1
 92
3
 72
0
 73
1
 93
4
 10
7180.8
 20
12144.000000000002
 10
7321.6
 20
12144.000000000002
 10
7321.6
 20
10648.0
 10
7180.8
 20
10648.0
 97
0
 75
1
 76
1
 98
0
  0
LWPOLYLINE
  5
199
330
17
100
AcDbEntity
  8
WALL
100
AcDbPolyline
 90
4
 70
1
 10
4030.4000000000005
 20
11994.400000000001
 10
4100.8
 20
11994.400000000001
 10
4100.8
 20
11668.800000000001
 10
4030.4000000000005
 20
11668.800000000001
  0
HATCH
  5
19A
330
17
100
AcDbEntity
  8
WALL
100
AcDbHatch
 10
0.0
 20
0.0
 30
0.0
210
0.0
220
0.0
230
1.0
  2
SOLID
 70
1
 71
0
 91
1
 92
3
 72
0
 73
1
 93
4
 10
4030.4000000000005
 20
11994.400000000001
 10
4100.8
 20
11994.400000000001
 10
4100.8
 20
11668.800000000001
 10
4030.4000000000005
 20
11668.800000000001
 97
0
 75
1
 76
1
 98
0
  0
LWPOLYLINE
  5
19B
330
17
100
AcDbEntity
  8
WALL
100
AcDbPolyline
 90
4
 70
1
 10
5561.6
 20
11853.6
 10
5596.8
 20
11853.6
 10
5596.8
 20
11598.400000000001
 10
5561.6
 20
11598.400000000001
  0
HATCH
  5
19C
330
17
100
AcDbEntity
  8
WALL
100
AcDbHatch
 10
0.0
 20
0.0
 30
0.0
210
0.0
220
0.0
230
1.0
  2
SOLID
 70
1
 71
0
 91
1
 92
3
 72
0
 73
1
 93
4
 10
5561.6
 20
11853.6
 10
5596.8
 20
11853.6
 10
5596.8
 20
11598.400000000001
 10
5561.6
 20
11598.400000000001
 97
0
 75
1
 76
1
 98
0
  0
LWPOLYLINE
  5
19D
330
17
100
AcDbEntity
  8
WALL
100
AcDbPolyline
 90
4
 70
1
 10
4576.0
 20
11774.400000000001
 10
4734.400000000001
 20
11774.400000000001
 10
4734.400000000001
 20
11343.2
 10
4576.0
 20
11343.2
  0
HATCH
  5
19E
330
17
100
AcDbEntity
  8
WALL
100
AcDbHatch
 10
0.0
 20
0.0
 30
0.0
210
0.0
220
0.0
230
1.0
  2
SOLID
 70
1
 71
0
 91
1
 92
3
 72
0
 73
1
 93
4
 10
4576.0
 20
11774.400000000001
 10
4734.400000000001
 20
11774.400000000001
 10
4734.400000000001
 20
11343.2
 10
4576.0
 20
11343.2
 97
0
 75
1
 76
1
 98
0
  0
LWPOLYLINE
  5
19F
330
17
100
AcDbEntity
  8
WALL
100
AcDbPolyline
 90
4
 70
1
 10
4963.200000000001
 20
11748.000000000002
 10
5068.8
 20
11748.000000000002
 10
5068.8
 20
11140.800000000001
 10
4963.200000000001
 20
11140.800000000001
  0
HATCH
  5
1A0
330
17
100
AcDbEntity
  8
WALL
100
AcDbHatch
 10
0.0
 20
0.0
 30
0.0
210
0.0
220
0.0
230
1.0
  2
SOLID
 70
1
 71
0
 91
1
 92
3
 72
0
 73
1
 93
4
 10
4963.200000000001
 20
11748.000000000002
 10
5068.8
 20
11748.000000000002
 10
5068.8
 20
11140.800000000001
 10
4963.200000000001
 20
11140.800000000001
 97
0
 75
1
 76
1
 98
0
  0
LWPOLYLINE
  5
1A1
330
17
100
AcDbEntity
  8
WALL
100
AcDbPolyline
 90
4
 70
1
 10
4523.200000000001
 20
11721.6
 10
4540.8
 20
11721.6
 10
4540.8
 20
11492.800000000001
 10
4523.200000000001
 20
11492.800000000001
  0
HATCH
  5
1A2
330
17
100
AcDbEntity
  8
WALL
100
AcDbHatch
 10
0.0
 20
0.0
 30
0.0
210
0.0
220
0.0
230
1.0
  2
SOLID
 70
1
 71
0
 91
1
 92
3
 72
0
 73
1
 93
4
 10
4523.200000000001
 20
11721.6
 10
4540.8
 20
11721.6
 10
4540.8
 20
11492.800000000001
 10
4523.200000000001
 20
11492.800000000001
 97
0
 75
1
 76
1
 98
0
  0
LWPOLYLINE
  5
1A3
330
17
100
AcDbEntity
  8
WALL
100
AcDbPolyline
 90
4
 70
1
 10
4875.200000000001
 20
11466.400000000001
 10
4945.6
 20
11466.400000000001
 10
4945.6
 20
11176.0
 10
4875.200000000001
 20
11176.0
  0
HATCH
  5
1A4
330
17
100
AcDbEntity
  8
WALL
100
AcDbHatch
 10
0.0
 20
0.0
 30
0.0
210
0.0
220
0.0
230
1.0
  2
SOLID
 70
1
 71
0
 91
1
 92
3
 72
0
 73
1
 93
4
 10
4875.200000000001
 20
11466.400000000001
 10
4945.6
 20
11466.400000000001
 10
4945.6
 20
11176.0
 10
4875.200000000001
 20
11176.0
 97
0
 75
1
 76
1
 98
0
  0
LWPOLYLINE
  5
1A5
330
17
100
AcDbEntity
  8
WALL
100
AcDbPolyline
 90
4
 70
1
 10
7444.8
 20
11343.2
 10
7515.200000000001
 20
11343.2
 10
7515.200000000001
 20
11061.6
 10
7444.8
 20
11061.6
  0
HATCH
  5
1A6
330
17
100
AcDbEntity
  8
WALL
100
AcDbHatch
 10
0.0
 20
0.0
 30
0.0
210
0.0
220
0.0
230
1.0
  2
SOLID
 70
1
 71
0
 91
1
 92
3
 72
0
 73
1
 93
4
 10
7444.8
 20
11343.2
 10
7515.200000000001
 20
11343.2
 10
7515.200000000001
 20
11061.6
 10
7444.8
 20
11061.6
 97
0
 75
1
 76
1
 98
0
  0
LWPOLYLINE
  5
1A7
330
17
100
AcDbEntity
  8
WALL
100
AcDbPolyline
 90
4
 70
1
 10
7444.8
 20
10850.400000000001
 10
7515.200000000001
 20
10850.400000000001
 10
7515.200000000001
 20
10348.800000000001
 10
7444.8
 20
10348.800000000001
  0
HATCH
  5
1A8
330
17
100
AcDbEntity
  8
WALL
100
AcDbHatch
 10
0.0
 20
0.0
 30
0.0
210
0.0
220
0.0
230
1.0
  2
SOLID
 70
1
 71
0
 91
1
 92
3
 72
0
 73
1
 93
4
 10
7444.8
 20
10850.400000000001
 10
7515.200000000001
 20
10850.400000000001
 10
7515.200000000001
 20
10348.800000000001
 10
7444.8
 20
10348.800000000001
 97
0
 75
1
 76
1
 98
0
  0
LWPOLYLINE
  5
1A9
330
17
100
AcDbEntity
  8
WALL
100
AcDbPolyline
 90
4
 70
1
 10
5860.8
 20
10674.400000000001
 10
5913.6
 20
10674.400000000001
 10
5913.6
 20
10410.400000000001
 10
5860.8
 20
10410.400000000001
  0
HATCH
  5
1AA
330
17
100
AcDbEntity
  8
WALL
100
AcDbHatch
 10
0.0
 20
0.0
 30
0.0
210
0.0
220
0.0
230
1.0
  2
SOLID
 70
1
 71
0
 91
1
 92
3
 72
0
 73
1
 93
4
 10
5860.8
 20
10674.400000000001
 10
5913.6
 20
10674.400000000001
 10
5913.6
 20
10410.400000000001
 10
5860.8
 20
10410.400000000001
 97
0
 75
1
 76
1
 98
0
  0
LWPOLYLINE
  5
1AB
330
17
100
AcDbEntity
  8
WALL
100
AcDbPolyline
 90
4
 70
1
 10
7198.400000000001
 20
10586.400000000001
 10
7251.200000000001
 20
10586.400000000001
 10
7251.200000000001
 20
10366.400000000001
 10
7198.400000000001
 20
10366.400000000001
  0
HATCH
  5
1AC
330
17
100
AcDbEntity
  8
WALL
100
AcDbHatch
 10
0.0
 20
0.0
 30
0.0
210
0.0
220
0.0
230
1.0
  2
SOLID
 70
1
 71
0
 91
1
 92
3
 72
0
 73
1
 93
4
 10
7198.400000000001
 20
10586.400000000001
 10
7251.200000000001
 20
10586.400000000001
 10
7251.200000000001
 20
10366.400000000001
 10
7198.400000000001
 20
10366.400000000001
 97
0
 75
1
 76
1
 98
0
  0
LWPOLYLINE
  5
1AD
330
17
100
AcDbEntity
  8
WALL
100
AcDbPolyline
 90
4
 70
1
 10
3643.2000000000003
 20
10428.0
 10
3766.4
 20
10428.0
 10
3766.4
 20
9380.800000000001
 10
3643.2000000000003
 20
9380.800000000001
  0
HATCH
  5
1AE
330
17
100
AcDbEntity
  8
WALL
100
AcDbHatch
 10
0.0
 20
0.0
 30
0.0
210
0.0
220
0.0
230
1.0
  2
SOLID
 70
1
 71
0
 91
1
 92
3
 72
0
 73
1
 93
4
 10
3643.2000000000003
 20
10428.0
 10
3766.4
 20
10428.0
 10
3766.4
 20
9380.800000000001
 10
3643.2000000000003
 20
9380.800000000001
 97
0
 75
1
 76
1
 98
0
  0
LWPOLYLINE
  5
1AF
330
17
100
AcDbEntity
  8
WALL
100
AcDbPolyline
 90
4
 70
1
 10
5068.8
 20
10392.800000000001
 10
5104.0
 20
10392.800000000001
 10
5104.0
 20
10190.400000000001
 10
5068.8
 20
10190.400000000001
  0
HATCH
  5
1B0
330
17
100
AcDbEntity
  8
WALL
100
AcDbHatch
 10
0.0
 20
0.0
 30
0.0
210
0.0
220
0.0
230
1.0
  2
SOLID
 70
1
 71
0
 91
1
 92
3
 72
0
 73
1
 93
4
 10
5068.8
 20
10392.800000000001
 10
5104.0
 20
10392.800000000001
 10
5104.0
 20
10190.400000000001
 10
5068.8
 20
10190.400000000001
 97
0
 75
1
 76
1
 98
0
  0
LWPOLYLINE
  5
1B1
330
17
100
AcDbEntity
  8
WALL
100
AcDbPolyline
 90
4
 70
1
 10
1848.0000000000002
 20
10366.400000000001
 10
1936.0000000000002
 20
10366.400000000001
 10
1936.0000000000002
 20
9336.800000000001
 10
1848.0000000000002
 20
9336.800000000001
  0
HATCH
  5
1B2
330
17
100
AcDbEntity
  8
WALL
100
AcDbHatch
 10
0.0
 20
0.0
 30
0.0
210
0.0
220
0.0
230
1.0
  2
SOLID
 70
1
 71
0
 91
1
 92
3
 72
0
 73
1
 93
4
 10
1848.0000000000002
 20
10366.400000000001
 10
1936.0000000000002
 20
10366.400000000001
 10
1936.0000000000002
 20
9336.800000000001
 10
1848.0000000000002
 20
9336.800000000001
 97
0
 75
1
 76
1
 98
0
  0
LWPOLYLINE
  5
1B3
330
17
100
AcDbEntity
  8
WALL
100
AcDbPolyline
 90
4
 70
1
 10
10524.800000000001
 20
10331.2
 10
10577.6
 20
10331.2
 10
10577.6
 20
8509.6
 10
10524.800000000001
 20
8509.6
  0
HATCH
  5
1B4
330
17
100
AcDbEntity
  8
WALL
100
AcDbHatch
 10
0.0
 20
0.0
 30
0.0
210
0.0
220
0.0
230
1.0
  2
SOLID
 70
1
 71
0
 91
1
 92
3
 72
0
 73
1
 93
4
 10
10524.800000000001
 20
10331.2
 10
10577.6
 20
10331.2
 10
10577.6
 20
8509.6
 10
10524.800000000001
 20
8509.6
 97
0
 75
1
 76
1
 98
0
  0
LWPOLYLINE
  5
1B5
330
17
100
AcDbEntity
  8
WALL
100
AcDbPolyline
 90
4
 70
1
 10
8060.800000000001
 20
10234.400000000001
 10
8166.400000000001
 20
10234.400000000001
 10
8166.400000000001
 20
8289.6
 10
8060.800000000001
 20
8289.6
  0
HATCH
  5
1B6
330
17
100
AcDbEntity
  8
WALL
100
AcDbHatch
 10
0.0
 20
0.0
 30
0.0
210
0.0
220
0.0
230
1.0
  2
SOLID
 70
1
 71
0
 91
1
 92
3
 72
0
 73
1
 93
4
 10
8060.800000000001
 20
10234.400000000001
 10
8166.400000000001
 20
10234.400000000001
 10
8166.400000000001
 20
8289.6
 10
8060.800000000001
 20
8289.6
 97
0
 75
1
 76
1
 98
0
  0
LWPOLYLINE
  5
1B7
330
17
100
AcDbEntity
  8
WALL
100
AcDbPolyline
 90
4
 70
1
 10
5280.0
 20
10225.6
 10
5368.0
 20
10225.6
 10
5368.0
 20
9328.0
 10
5280.0
 20
9328.0
  0
HATCH
  5
1B8
330
17
100
AcDbEntity
  8
WALL
100
AcDbHatch
 10
0.0
 20
0.0
 30
0.0
210
0.0
220
0.0
230
1.0
  2
SOLID
 70
1
 71
0
 91
1
 92
3
 72
0
 73
1
 93
4
 10
5280.0
 20
10225.6
 10
5368.0
 20
10225.6
 10
5368.0
 20
9328.0
 10
5280.0
 20
9328.0
 97
0
 75
1
 76
1
 98
0
  0
LWPOLYLINE
  5
1B9
330
17
100
AcDbEntity
  8
WALL
100
AcDbPolyline
 90
4
 70
1
 10
9363.2
 20
10225.6
 10
9433.6
 20
10225.6
 10
9433.6
 20
9979.2
 10
9363.2
 20
9979.2
  0
HATCH
  5
1BA
330
17
100
AcDbEntity
  8
WALL
100
AcDbHatch
 10
0.0
 20
0.0
 30
0.0
210
0.0
220
0.0
230
1.0
  2
SOLID
 70
1
 71
0
 91
1
 92
3
 72
0
 73
1
 93
4
 10
9363.2
 20
10225.6
 10
9433.6
 20
10225.6
 10
9433.6
 20
9979.2
 10
9363.2
 20
9979.2
 97
0
 75
1
 76
1
 98
0
  0
LWPOLYLINE
  5
1BB
330
17
100
AcDbEntity
  8
WALL
100
AcDbPolyline
 90
4
 70
1
 10
9486.400000000001
 20
10225.6
 10
9504.0
 20
10225.6
 10
9504.0
 20
9996.800000000001
 10
9486.400000000001
 20
9996.800000000001
  0
HATCH
  5
1BC
330
17
100
AcDbEntity
  8
WALL
100
AcDbHatch
 10
0.0
 20
0.0
 30
0.0
210
0.0
220
0.0
230
1.0
  2
SOLID
 70
1
 71
0
 91
1
 92
3
 72
0
 73
1
 93
4
 10
9486.400000000001
 20
10225.6
 10
9504.0
 20
10225.6
 10
9504.0
 20
9996.800000000001
 10
9486.400000000001
 20
9996.800000000001
 97
0
 75
1
 76
1
 98
0
  0
LWPOLYLINE
  5
1BD
330
17
100
AcDbEntity
  8
WALL
100
AcDbPolyline
 90
4
 70
1
 10
7304.000000000001
 20
10208.0
 10
7356.8
 20
10208.0
 10
7356.8
 20
9284.0
 10
7304.000000000001
 20
9284.0
  0
HATCH
  5
1BE
330
17
100
AcDbEntity
  8
WALL
100
AcDbHatch
 10
0.0
 20
0.0
 30
0.0
210
0.0
220
0.0
230
1.0
  2
SOLID
 70
1
 71
0
 91
1
 92
3
 72
0
 73
1
 93
4
 10
7304.000000000001
 20
10208.0
 10
7356.8
 20
10208.0
 10
7356.8
 20
9284.0
 10
7304.000000000001
 20
9284.0
 97
0
 75
1
 76
1
 98
0
  0
LWPOLYLINE
  5
1BF
330
17
100
AcDbEntity
  8
WALL
100
AcDbPolyline
 90
4
 70
1
 10
1953.6000000000001
 20
10190.400000000001
 10
2024.0000000000002
 20
10190.400000000001
 10
2024.0000000000002
 20
9900.0
 10
1953.6000000000001
 20
9900.0
  0
HATCH
  5
1C0
330
17
100
AcDbEntity
  8
WALL
100
AcDbHatch
 10
0.0
 20
0.0
 30
0.0
210
0.0
220
0.0
230
1.0
  2
SOLID
 70
1
 71
0
 91
1
 92
3
 72
0
 73
1
 93
4
 10
1953.6000000000001
 20
10190.400000000001
 10
2024.0000000000002
 20
10190.400000000001
 10
2024.0000000000002
 20
9900.0
 10
1953.6000000000001
 20
9900.0
 97
0
 75
1
 76
1
 98
0
  0
LWPOLYLINE
  5
1C1
330
17
100
AcDbEntity
  8
WALL
100
AcDbPolyline
 90
4
 70
1
 10
3801.6000000000004
 20
10093.6
 10
3942.4000000000005
 20
10093.6
 10
3942.4000000000005
 20
9380.800000000001
 10
3801.6000000000004
 20
9380.800000000001
  0
HATCH
  5
1C2
330
17
100
AcDbEntity
  8
WALL
100
AcDbHatch
 10
0.0
 20
0.0
 30
0.0
210
0.0
220
0.0
230
1.0
  2
SOLID
 70
1
 71
0
 91
1
 92
3
 72
0
 73
1
 93
4
 10
3801.6000000000004
 20
10093.6
 10
3942.4000000000005
 20
10093.6
 10
3942.4000000000005
 20
9380.800000000001
 10
3801.6000000000004
 20
9380.800000000001
 97
0
 75
1
 76
1
 98
0
  0
LWPOLYLINE
  5
1C3
330
17
100
AcDbEntity
  8
WALL
100
AcDbPolyline
 90
4
 70
1
 10
10366.400000000001
 20
10102.400000000001
 10
10436.800000000001
 20
10102.400000000001
 10
10436.800000000001
 20
9416.0
 10
10366.400000000001
 20
9416.0
  0
HATCH
  5
1C4
330
17
100
AcDbEntity
  8
WALL
100
AcDbHatch
 10
0.0
 20
0.0
 30
0.0
210
0.0
220
0.0
230
1.0
  2
SOLID
 70
1
 71
0
 91
1
 92
3
 72
0
 73
1
 93
4
 10
10366.400000000001
 20
10102.400000000001
 10
10436.800000000001
 20
10102.400000000001
 10
10436.800000000001
 20
9416.0
 10
10366.400000000001
 20
9416.0
 97
0
 75
1
 76
1
 98
0
  0
LWPOLYLINE
  5
1C5
330
17
100
AcDbEntity
  8
WALL
100
AcDbPolyline
 90
4
 70
1
 10
7145.6
 20
10084.800000000001
 10
7216.000000000001
 20
10084.800000000001
 10
7216.000000000001
 20
9398.400000000001
 10
7145.6
 20
9398.400000000001
  0
HATCH
  5
1C6
330
17
100
AcDbEntity
  8
WALL
100
AcDbHatch
 10
0.0
 20
0.0
 30
0.0
210
0.0
220
0.0
230
1.0
  2
SOLID
 70
1
 71
0
 91
1
 92
3
 72
0
 73
1
 93
4
 10
7145.6
 20
10084.800000000001
 10
7216.000000000001
 20
10084.800000000001
 10
7216.000000000001
 20
9398.400000000001
 10
7145.6
 20
9398.400000000001
 97
0
 75
1
 76
1
 98
0
  0
LWPOLYLINE
  5
1C7
330
17
100
AcDbEntity
  8
WALL
100
AcDbPolyline
 90
4
 70
1
 10
6793.6
 20
9952.800000000001
 10
6881.6
 20
9952.800000000001
 10
6881.6
 20
9477.6
 10
6793.6
 20
9477.6
  0
HATCH
  5
1C8
330
17
100
AcDbEntity
  8
WALL
100
AcDbHatch
 10
0.0
 20
0.0
 30
0.0
210
0.0
220
0.0
230
1.0
  2
SOLID
 70
1
 71
0
 91
1
 92
3
 72
0
 73
1
 93
4
 10
6793.6
 20
9952.800000000001
 10
6881.6
 20
9952.800000000001
 10
6881.6
 20
9477.6
 10
6793.6
 20
9477.6
 97
0
 75
1
 76
1
 98
0
  0
LWPOLYLINE
  5
1C9
330
17
100
AcDbEntity
  8
WALL
100
AcDbPolyline
 90
4
 70
1
 10
6089.6
 20
9935.2
 10
6212.8
 20
9935.2
 10
6212.8
 20
9627.2
 10
6089.6
 20
9627.2
  0
HATCH
  5
1CA
330
17
100
AcDbEntity
  8
WALL
100
AcDbHatch
 10
0.0
 20
0.0
 30
0.0
210
0.0
220
0.0
230
1.0
  2
SOLID
 70
1
 71
0
 91
1
 92
3
 72
0
 73
1
 93
4
 10
6089.6
 20
9935.2
 10
6212.8
 20
9935.2
 10
6212.8
 20
9627.2
 10
6089.6
 20
9627.2
 97
0
 75
1
 76
1
 98
0
  0
LWPOLYLINE
  5
1CB
330
17
100
AcDbEntity
  8
WALL
100
AcDbPolyline
 90
4
 70
1
 10
10014.400000000001
 20
9935.2
 10
10102.400000000001
 20
9935.2
 10
10102.400000000001
 20
9512.800000000001
 10
10014.400000000001
 20
9512.800000000001
  0
HATCH
  5
1CC
330
17
100
AcDbEntity
  8
WALL
100
AcDbHatch
 10
0.0
 20
0.0
 30
0.0
210
0.0
220
0.0
230
1.0
  2
SOLID
 70
1
 71
0
 91
1
 92
3
 72
0
 73
1
 93
4
 10
10014.400000000001
 20
9935.2
 10
10102.400000000001
 20
9935.2
 10
10102.400000000001
 20
9512.800000000001
 10
10014.400000000001
 20
9512.800000000001
 97
0
 75
1
 76
1
 98
0
  0
LWPOLYLINE
  5
1CD
330
17
100
AcDbEntity
  8
WALL
100
AcDbPolyline
 90
4
 70
1
 10
5790.400000000001
 20
9864.800000000001
 10
5896.000000000001
 20
9864.800000000001
 10
5896.000000000001
 20
9574.400000000001
 10
5790.400000000001
 20
9574.400000000001
  0
HATCH
  5
1CE
330
17
100
AcDbEntity
  8
WALL
100
AcDbHatch
 10
0.0
 20
0.0
 30
0.0
210
0.0
220
0.0
230
1.0
  2
SOLID
 70
1
 71
0
 91
1
 92
3
 72
0
 73
1
 93
4
 10
5790.400000000001
 20
9864.800000000001
 10
5896.000000000001
 20
9864.800000000001
 10
5896.000000000001
 20
9574.400000000001
 10
5790.400000000001
 20
9574.400000000001
 97
0
 75
1
 76
1
 98
0
  0
LWPOLYLINE
  5
1CF
330
17
100
AcDbEntity
  8
WALL
100
AcDbPolyline
 90
4
 70
1
 10
9363.2
 20
9847.2
 10
9451.2
 20
9847.2
 10
9451.2
 20
9574.400000000001
 10
9363.2
 20
9574.400000000001
  0
HATCH
  5
1D0
330
17
100
AcDbEntity
  8
WALL
100
AcDbHatch
 10
0.0
 20
0.0
 30
0.0
210
0.0
220
0.0
230
1.0
  2
SOLID
 70
1
 71
0
 91
1
 92
3
 72
0
 73
1
 93
4
 10
9363.2
 20
9847.2
 10
9451.2
 20
9847.2
 10
9451.2
 20
9574.400000000001
 10
9363.2
 20
9574.400000000001
 97
0
 75
1
 76
1
 98
0
  0
LWPOLYLINE
  5
1D1
330
17
100
AcDbEntity
  8
WALL
100
AcDbPolyline
 90
4
 70
1
 10
10366.400000000001
 20
9363.2
 10
10436.800000000001
 20
9363.2
 10
10436.800000000001
 20
8641.6
 10
10366.400000000001
 20
8641.6
  0
HATCH
  5
1D2
330
17
100
AcDbEntity
  8
WALL
100
AcDbHatch
 10
0.0
 20
0.0
 30
0.0
210
0.0
220
0.0
230
1.0
  2
SOLID
 70
1
 71
0
 91
1
 92
3
 72
0
 73
1
 93
4
 10
10366.400000000001
 20
9363.2
 10
10436.800000000001
 20
9363.2
 10
10436.800000000001
 20
8641.6
 10
10366.400000000001
 20
8641.6
 97
0
 75
1
 76
1
 98
0
  0
LWPOLYLINE
  5
1D3
330
17
100
AcDbEntity
  8
WALL
100
AcDbPolyline
 90
4
 70
1
 10
7163.200000000001
 20
9345.6
 10
7216.000000000001
 20
9345.6
 10
7216.000000000001
 20
8896.800000000001
 10
7163.200000000001
 20
8896.800000000001
  0
HATCH
  5
1D4
330
17
100
AcDbEntity
  8
WALL
100
AcDbHatch
 10
0.0
 20
0.0
 30
0.0
210
0.0
220
0.0
230
1.0
  2
SOLID
 70
1
 71
0
 91
1
 92
3
 72
0
 73
1
 93
4
 10
7163.200000000001
 20
9345.6
 10
7216.000000000001
 20
9345.6
 10
7216.000000000001
 20
8896.800000000001
 10
7163.200000000001
 20
8896.800000000001
 97
0
 75
1
 76
1
 98
0
  0
LWPOLYLINE
  5
1D5
330
17
100
AcDbEntity
  8
WALL
100
AcDbPolyline
 90
4
 70
1
 10
9486.400000000001
 20
9275.2
 10
9539.2
 20
9275.2
 10
9539.2
 20
9064.0
 10
9486.400000000001
 20
9064.0
  0
HATCH
  5
1D6
330
17
100
AcDbEntity
  8
WALL
100
AcDbHatch
 10
0.0
 20
0.0
 30
0.0
210
0.0
220
0.0
230
1.0
  2
SOLID
 70
1
 71
0
 91
1
 92
3
 72
0
 73
1
 93
4
 10
9486.400000000001
 20
9275.2
 10
9539.2
 20
9275.2
 10
9539.2
 20
9064.0
 10
9486.400000000001
 20
9064.0
 97
0
 75
1
 76
1
 98
0
  0
LWPOLYLINE
  5
1D7
330
17
100
AcDbEntity
  8
WALL
100
AcDbPolyline
 90
4
 70
1
 10
6793.6
 20
9178.400000000001
 10
6864.000000000001
 20
9178.400000000001
 10
6864.000000000001
 20
8800.0
 10
6793.6
 20
8800.0
  0
HATCH
  5
1D8
330
17
100
AcDbEntity
  8
WALL
100
AcDbHatch
 10
0.0
 20
0.0
 30
0.0
210
0.0
220
0.0
230
1.0
  2
SOLID
 70
1
 71
0
 91
1
 92
3
 72
0
 73
1
 93
4
 10
6793.6
 20
9178.400000000001
 10
6864.000000000001
 20
9178.400000000001
 10
6864.000000000001
 20
8800.0
 10
6793.6
 20
8800.0
 97
0
 75
1
 76
1
 98
0
  0
LWPOLYLINE
  5
1D9
330
17
100
AcDbEntity
  8
WALL
100
AcDbPolyline
 90
4
 70
1
 10
10014.400000000001
 20
9178.400000000001
 10
10084.800000000001
 20
9178.400000000001
 10
10084.800000000001
 20
8808.800000000001
 10
10014.400000000001
 20
8808.800000000001
  0
HATCH
  5
1DA
330
17
100
AcDbEntity
  8
WALL
100
AcDbHatch
 10
0.0
 20
0.0
 30
0.0
210
0.0
220
0.0
230
1.0
  2
SOLID
 70
1
 71
0
 91
1
 92
3
 72
0
 73
1
 93
4
 10
10014.400000000001
 20
9178.400000000001
 10
10084.800000000001
 20
9178.400000000001
 10
10084.800000000001
 20
8808.800000000001
 10
10014.400000000001
 20
8808.800000000001
 97
0
 75
1
 76
1
 98
0
  0
LWPOLYLINE
  5
1DB
330
17
100
AcDbEntity
  8
WALL
100
AcDbPolyline
 90
4
 70
1
 10
5948.8
 20
9169.6
 10
6019.200000000001
 20
9169.6
 10
6019.200000000001
 20
8896.800000000001
 10
5948.8
 20
8896.800000000001
  0
HATCH
  5
1DC
330
17
100
AcDbEntity
  8
WALL
100
AcDbHatch
 10
0.0
 20
0.0
 30
0.0
210
0.0
220
0.0
230
1.0
  2
SOLID
 70
1
 71
0
 91
1
 92
3
 72
0
 73
1
 93
4
 10
5948.8
 20
9169.6
 10
6019.200000000001
 20
9169.6
 10
6019.200000000001
 20
8896.800000000001
 10
5948.8
 20
8896.800000000001
 97
0
 75
1
 76
1
 98
0
  0
LWPOLYLINE
  5
1DD
330
17
100
AcDbEntity
  8
WALL
100
AcDbPolyline
 90
4
 70
1
 10
9046.400000000001
 20
9099.2
 10
9116.800000000001
 20
9099.2
 10
9116.800000000001
 20
8888.0
 10
9046.400000000001
 20
8888.0
  0
HATCH
  5
1DE
330
17
100
AcDbEntity
  8
WALL
100
AcDbHatch
 10
0.0
 20
0.0
 30
0.0
210
0.0
220
0.0
230
1.0
  2
SOLID
 70
1
 71
0
 91
1
 92
3
 72
0
 73
1
 93
4
 10
9046.400000000001
 20
9099.2
 10
9116.800000000001
 20
9099.2
 10
9116.800000000001
 20
8888.0
 10
9046.400000000001
 20
8888.0
 97
0
 75
1
 76
1
 98
0
  0
LWPOLYLINE
  5
1DF
330
17
100
AcDbEntity
  8
WALL
100
AcDbPolyline
 90
4
 70
1
 10
5280.0
 20
8764.800000000001
 10
5420.8
 20
8764.800000000001
 10
5420.8
 20
7744.000000000001
 10
5280.0
 20
7744.000000000001
  0
HATCH
  5
1E0
330
17
100
AcDbEntity
  8
WALL
100
AcDbHatch
 10
0.0
 20
0.0
 30
0.0
210
0.0
220
0.0
230
1.0
  2
SOLID
 70
1
 71
0
 91
1
 92
3
 72
0
 73
1
 93
4
 10
5280.0
 20
8764.800000000001
 10
5420.8
 20
8764.800000000001
 10
5420.8
 20
7744.000000000001
 10
5280.0
 20
7744.000000000001
 97
0
 75
1
 76
1
 98
0
  0
LWPOLYLINE
  5
1E1
330
17
100
AcDbEntity
  8
WALL
100
AcDbPolyline
 90
4
 70
1
 10
10736.0
 20
8588.800000000001
 10
10841.6
 20
8588.800000000001
 10
10841.6
 20
7462.400000000001
 10
10736.0
 20
7462.400000000001
  0
HATCH
  5
1E2
330
17
100
AcDbEntity
  8
WALL
100
AcDbHatch
 10
0.0
 20
0.0
 30
0.0
210
0.0
220
0.0
230
1.0
  2
SOLID
 70
1
 71
0
 91
1
 92
3
 72
0
 73
1
 93
4
 10
10736.0
 20
8588.800000000001
 10
10841.6
 20
8588.800000000001
 10
10841.6
 20
7462.400000000001
 10
10736.0
 20
7462.400000000001
 97
0
 75
1
 76
1
 98
0
  0
LWPOLYLINE
  5
1E3
330
17
100
AcDbEntity
  8
WALL
100
AcDbPolyline
 90
4
 70
1
 10
11211.2
 20
8536.0
 10
11316.800000000001
 20
8536.0
 10
11316.800000000001
 20
7260.000000000001
 10
11211.2
 20
7260.000000000001
  0
HATCH
  5
1E4
330
17
100
AcDbEntity
  8
WALL
100
AcDbHatch
 10
0.0
 20
0.0
 30
0.0
210
0.0
220
0.0
230
1.0
  2
SOLID
 70
1
 71
0
 91
1
 92
3
 72
0
 73
1
 93
4
 10
11211.2
 20
8536.0
 10
11316.800000000001
 20
8536.0
 10
11316.800000000001
 20
7260.000000000001
 10
11211.2
 20
7260.000000000001
 97
0
 75
1
 76
1
 98
0
  0
LWPOLYLINE
  5
1E5
330
17
100
AcDbEntity
  8
WALL
100
AcDbPolyline
 90
4
 70
1
 10
9891.2
 20
8131.200000000001
 10
9944.0
 20
8131.200000000001
 10
9944.0
 20
7928.800000000001
 10
9891.2
 20
7928.800000000001
  0
HATCH
  5
1E6
330
17
100
AcDbEntity
  8
WALL
100
AcDbHatch
 10
0.0
 20
0.0
 30
0.0
210
0.0
220
0.0
230
1.0
  2
SOLID
 70
1
 71
0
 91
1
 92
3
 72
0
 73
1
 93
4
 10
9891.2
 20
8131.200000000001
 10
9944.0
 20
8131.200000000001
 10
9944.0
 20
7928.800000000001
 10
9891.2
 20
7928.800000000001
 97
0
 75
1
 76
1
 98
0
  0
LWPOLYLINE
  5
1E7
330
17
100
AcDbEntity
  8
WALL
100
AcDbPolyline
 90
4
 70
1
 10
5139.200000000001
 20
7981.6
 10
5262.400000000001
 20
7981.6
 10
5262.400000000001
 20
7286.400000000001
 10
5139.200000000001
 20
7286.400000000001
  0
HATCH
  5
1E8
330
17
100
AcDbEntity
  8
WALL
100
AcDbHatch
 10
0.0
 20
0.0
 30
0.0
210
0.0
220
0.0
230
1.0
  2
SOLID
 70
1
 71
0
 91
1
 92
3
 72
0
 73
1
 93
4
 10
5139.200000000001
 20
7981.6
 10
5262.400000000001
 20
7981.6
 10
5262.400000000001
 20
7286.400000000001
 10
5139.200000000001
 20
7286.400000000001
 97
0
 75
1
 76
1
 98
0
  0
LWPOLYLINE
  5
1E9
330
17
100
AcDbEntity
  8
WALL
100
AcDbPolyline
 90
4
 70
1
 10
6688.000000000001
 20
7964.000000000001
 10
6758.400000000001
 20
7964.000000000001
 10
6758.400000000001
 20
7682.400000000001
 10
6688.000000000001
 20
7682.400000000001
  0
HATCH
  5
1EA
330
17
100
AcDbEntity
  8
WALL
100
AcDbHatch
 10
0.0
 20
0.0
 30
0.0
210
0.0
220
0.0
230
1.0
  2
SOLID
 70
1
 71
0
 91
1
 92
3
 72
0
 73
1
 93
4
 10
6688.000000000001
 20
7964.000000000001
 10
6758.400000000001
 20
7964.000000000001
 10
6758.400000000001
 20
7682.400000000001
 10
6688.000000000001
 20
7682.400000000001
 97
0
 75
1
 76
1
 98
0
  0
LWPOLYLINE
  5
1EB
330
17
100
AcDbEntity
  8
WALL
100
AcDbPolyline
 90
4
 70
1
 10
7462.400000000001
 20
7972.800000000001
 10
7585.6
 20
7972.800000000001
 10
7585.6
 20
6160.000000000001
 10
7462.400000000001
 20
6160.000000000001
  0
HATCH
  5
1EC
330
17
100
AcDbEntity
  8
WALL
100
AcDbHatch
 10
0.0
 20
0.0
 30
0.0
210
0.0
220
0.0
230
1.0
  2
SOLID
 70
1
 71
0
 91
1
 92
3
 72
0
 73
1
 93
4
 10
7462.400000000001
 20
7972.800000000001
 10
7585.6
 20
7972.800000000001
 10
7585.6
 20
6160.000000000001
 10
7462.400000000001
 20
6160.000000000001
 97
0
 75
1
 76
1
 98
0
  0
LWPOLYLINE
  5
1ED
330
17
100
AcDbEntity
  8
WALL
100
AcDbPolyline
 90
4
 70
1
 10
9873.6
 20
7911.200000000001
 10
9944.0
 20
7911.200000000001
 10
9944.0
 20
7664.8
 10
9873.6
 20
7664.8
  0
HATCH
  5
1EE
330
17
100
AcDbEntity
  8
WALL
100
AcDbHatch
 10
0.0
 20
0.0
 30
0.0
210
0.0
220
0.0
230
1.0
  2
SOLID
 70
1
 71
0
 91
1
 92
3
 72
0
 73
1
 93
4
 10
9873.6
 20
7911.200000000001
 10
9944.0
 20
7911.200000000001
 10
9944.0
 20
7664.8
 10
9873.6
 20
7664.8
 97
0
 75
1
 76
1
 98
0
  0
LWPOLYLINE
  5
1EF
330
17
100
AcDbEntity
  8
WALL
100
AcDbPolyline
 90
4
 70
1
 10
9979.2
 20
7876.000000000001
 10
10049.6
 20
7876.000000000001
 10
10049.6
 20
7620.8
 10
9979.2
 20
7620.8
  0
HATCH
  5
1F0
330
17
100
AcDbEntity
  8
WALL
100
AcDbHatch
 10
0.0
 20
0.0
 30
0.0
210
0.0
220
0.0
230
1.0
  2
SOLID
 70
1
 71
0
 91
1
 92
3
 72
0
 73
1
 93
4
 10
9979.2
 20
7876.000000000001
 10
10049.6
 20
7876.000000000001
 10
10049.6
 20
7620.8
 10
9979.2
 20
7620.8
 97
0
 75
1
 76
1
 98
0
  0
LWPOLYLINE
  5
1F1
330
17
100
AcDbEntity
  8
WALL
100
AcDbPolyline
 90
4
 70
1
 10
3942.4000000000005
 20
7752.8
 10
4065.6000000000004
 20
7752.8
 10
4065.6000000000004
 20
6635.200000000001
 10
3942.4000000000005
 20
6635.200000000001
  0
HATCH
  5
1F2
330
17
100
AcDbEntity
  8
WALL
100
AcDbHatch
 10
0.0
 20
0.0
 30
0.0
210
0.0
220
0.0
230
1.0
  2
SOLID
 70
1
 71
0
 91
1
 92
3
 72
0
 73
1
 93
4
 10
3942.4000000000005
 20
7752.8
 10
4065.6000000000004
 20
7752.8
 10
4065.6000000000004
 20
6635.200000000001
 10
3942.4000000000005
 20
6635.200000000001
 97
0
 75
1
 76
1
 98
0
  0
LWPOLYLINE
  5
1F3
330
17
100
AcDbEntity
  8
WALL
100
AcDbPolyline
 90
4
 70
1
 10
6758.400000000001
 20
7480.000000000001
 10
6811.200000000001
 20
7480.000000000001
 10
6811.200000000001
 20
7040.000000000001
 10
6758.400000000001
 20
7040.000000000001
  0
HATCH
  5
1F4
330
17
100
AcDbEntity
  8
WALL
100
AcDbHatch
 10
0.0
 20
0.0
 30
0.0
210
0.0
220
0.0
230
1.0
  2
SOLID
 70
1
 71
0
 91
1
 92
3
 72
0
 73
1
 93
4
 10
6758.400000000001
 20
7480.000000000001
 10
6811.200000000001
 20
7480.000000000001
 10
6811.200000000001
 20
7040.000000000001
 10
6758.400000000001
 20
7040.000000000001
 97
0
 75
1
 76
1
 98
0
  0
LWPOLYLINE
  5
1F5
330
17
100
AcDbEntity
  8
WALL
100
AcDbPolyline
 90
4
 70
1
 10
5315.200000000001
 20
7356.8
 10
5420.8
 20
7356.8
 10
5420.8
 20
6705.6
 10
5315.200000000001
 20
6705.6
  0
HATCH
  5
1F6
330
17
100
AcDbEntity
  8
WALL
100
AcDbHatch
 10
0.0
 20
0.0
 30
0.0
210
0.0
220
0.0
230
1.0
  2
SOLID
 70
1
 71
0
 91
1
 92
3
 72
0
 73
1
 93
4
 10
5315.200000000001
 20
7356.8
 10
5420.8
 20
7356.8
 10
5420.8
 20
6705.6
 10
5315.200000000001
 20
6705.6
 97
0
 75
1
 76
1
 98
0
  0
LWPOLYLINE
  5
1F7
330
17
100
AcDbEntity
  8
WALL
100
AcDbPolyline
 90
4
 70
1
 10
11211.2
 20
7207.200000000001
 10
11316.800000000001
 20
7207.200000000001
 10
11316.800000000001
 20
6001.6
 10
11211.2
 20
6001.6
  0
HATCH
  5
1F8
330
17
100
AcDbEntity
  8
WALL
100
AcDbHatch
 10
0.0
 20
0.0
 30
0.0
210
0.0
220
0.0
230
1.0
  2
SOLID
 70
1
 71
0
 91
1
 92
3
 72
0
 73
1
 93
4
 10
11211.2
 20
7207.200000000001
 10
11316.800000000001
 20
7207.200000000001
 10
11316.800000000001
 20
6001.6
 10
11211.2
 20
6001.6
 97
0
 75
1
 76
1
 98
0
  0
LWPOLYLINE
  5
1F9
330
17
100
AcDbEntity
  8
WALL
100
AcDbPolyline
 90
4
 70
1
 10
7304.000000000001
 20
7189.6
 10
7356.8
 20
7189.6
 10
7356.8
 20
6556.000000000001
 10
7304.000000000001
 20
6556.000000000001
  0
HATCH
  5
1FA
330
17
100
AcDbEntity
  8
WALL
100
AcDbHatch
 10
0.0
 20
0.0
 30
0.0
210
0.0
220
0.0
230
1.0
  2
SOLID
 70
1
 71
0
 91
1
 92
3
 72
0
 73
1
 93
4
 10
7304.000000000001
 20
7189.6
 10
7356.8
 20
7189.6
 10
7356.8
 20
6556.000000000001
 10
7304.000000000001
 20
6556.000000000001
 97
0
 75
1
 76
1
 98
0
  0
LWPOLYLINE
  5
1FB
330
17
100
AcDbEntity
  8
WALL
100
AcDbPolyline
 90
4
 70
1
 10
10718.400000000001
 20
7180.8
 10
10841.6
 20
7180.8
 10
10841.6
 20
5790.400000000001
 10
10718.400000000001
 20
5790.400000000001
  0
HATCH
  5
1FC
330
17
100
AcDbEntity
  8
WALL
100
AcDbHatch
 10
0.0
 20
0.0
 30
0.0
210
0.0
220
0.0
230
1.0
  2
SOLID
 70
1
 71
0
 91
1
 92
3
 72
0
 73
1
 93
4
 10
10718.400000000001
 20
7180.8
 10
10841.6
 20
7180.8
 10
10841.6
 20
5790.400000000001
 10
10718.400000000001
 20
5790.400000000001
 97
0
 75
1
 76
1
 98
0
  0
LWPOLYLINE
  5
1FD
330
17
100
AcDbEntity
  8
WALL
100
AcDbPolyline
 90
4
 70
1
 10
6758.400000000001
 20
7022.400000000001
 10
6811.200000000001
 20
7022.400000000001
 10
6811.200000000001
 20
6010.400000000001
 10
6758.400000000001
 20
6010.400000000001
  0
HATCH
  5
1FE
330
17
100
AcDbEntity
  8
WALL
100
AcDbHatch
 10
0.0
 20
0.0
 30
0.0
210
0.0
220
0.0
230
1.0
  2
SOLID
 70
1
 71
0
 91
1
 92
3
 72
0
 73
1
 93
4
 10
6758.400000000001
 20
7022.400000000001
 10
6811.200000000001
 20
7022.400000000001
 10
6811.200000000001
 20
6010.400000000001
 10
6758.400000000001
 20
6010.400000000001
 97
0
 75
1
 76
1
 98
0
  0
LWPOLYLINE
  5
1FF
330
17
100
AcDbEntity
  8
WALL
100
AcDbPolyline
 90
4
 70
1
 10
10348.800000000001
 20
6802.400000000001
 10
10436.800000000001
 20
6802.400000000001
 10
10436.800000000001
 20
6485.6
 10
10348.800000000001
 20
6485.6
  0
HATCH
  5
200
330
17
100
AcDbEntity
  8
WALL
100
AcDbHatch
 10
0.0
 20
0.0
 30
0.0
210
0.0
220
0.0
230
1.0
  2
SOLID
 70
1
 71
0
 91
1
 92
3
 72
0
 73
1
 93
4
 10
10348.800000000001
 20
6802.400000000001
 10
10436.800000000001
 20
6802.400000000001
 10
10436.800000000001
 20
6485.6
 10
10348.800000000001
 20
6485.6
 97
0
 75
1
 76
1
 98
0
  0
LWPOLYLINE
  5
201
330
17
100
AcDbEntity
  8
WALL
100
AcDbPolyline
 90
4
 70
1
 10
7198.400000000001
 20
6740.8
 10
7233.6
 20
6740.8
 10
7233.6
 20
6450.400000000001
 10
7198.400000000001
 20
6450.400000000001
  0
HATCH
  5
202
330
17
100
AcDbEntity
  8
WALL
100
AcDbHatch
 10
0.0
 20
0.0
 30
0.0
210
0.0
220
0.0
230
1.0
  2
SOLID
 70
1
 71
0
 91
1
 92
3
 72
0
 73
1
 93
4
 10
7198.400000000001
 20
6740.8
 10
7233.6
 20
6740.8
 10
7233.6
 20
6450.400000000001
 10
7198.400000000001
 20
6450.400000000001
 97
0
 75
1
 76
1
 98
0
  0
LWPOLYLINE
  5
203
330
17
100
AcDbEntity
  8
WALL
100
AcDbPolyline
 90
4
 70
1
 10
9873.6
 20
6732.000000000001
 10
9891.2
 20
6732.000000000001
 10
9891.2
 20
6538.400000000001
 10
9873.6
 20
6538.400000000001
  0
HATCH
  5
204
330
17
100
AcDbEntity
  8
WALL
100
AcDbHatch
 10
0.0
 20
0.0
 30
0.0
210
0.0
220
0.0
230
1.0
  2
SOLID
 70
1
 71
0
 91
1
 92
3
 72
0
 73
1
 93
4
 10
9873.6
 20
6732.000000000001
 10
9891.2
 20
6732.000000000001
 10
9891.2
 20
6538.400000000001
 10
9873.6
 20
6538.400000000001
 97
0
 75
1
 76
1
 98
0
  0
LWPOLYLINE
  5
205
330
17
100
AcDbEntity
  8
WALL
100
AcDbPolyline
 90
4
 70
1
 10
9908.800000000001
 20
6705.6
 10
9961.6
 20
6705.6
 10
9961.6
 20
6503.200000000001
 10
9908.800000000001
 20
6503.200000000001
  0
HATCH
  5
206
330
17
100
AcDbEntity
  8
WALL
100
AcDbHatch
 10
0.0
 20
0.0
 30
0.0
210
0.0
220
0.0
230
1.0
  2
SOLID
 70
1
 71
0
 91
1
 92
3
 72
0
 73
1
 93
4
 10
9908.800000000001
 20
6705.6
 10
9961.6
 20
6705.6
 10
9961.6
 20
6503.200000000001
 10
9908.800000000001
 20
6503.200000000001
 97
0
 75
1
 76
1
 98
0
  0
LWPOLYLINE
  5
207
330
17
100
AcDbEntity
  8
WALL
100
AcDbPolyline
 90
4
 70
1
 10
10084.800000000001
 20
6688.000000000001
 10
10120.0
 20
6688.000000000001
 10
10120.0
 20
6494.400000000001
 10
10084.800000000001
 20
6494.400000000001
  0
HATCH
  5
208
330
17
100
AcDbEntity
  8
WALL
100
AcDbHatch
 10
0.0
 20
0.0
 30
0.0
210
0.0
220
0.0
230
1.0
  2
SOLID
 70
1
 71
0
 91
1
 92
3
 72
0
 73
1
 93
4
 10
10084.800000000001
 20
6688.000000000001
 10
10120.0
 20
6688.000000000001
 10
10120.0
 20
6494.400000000001
 10
10084.800000000001
 20
6494.400000000001
 97
0
 75
1
 76
1
 98
0
  0
LWPOLYLINE
  5
209
330
17
100
AcDbEntity
  8
WALL
100
AcDbPolyline
 90
4
 70
1
 10
7304.000000000001
 20
6547.200000000001
 10
7356.8
 20
6547.200000000001
 10
7356.8
 20
6010.400000000001
 10
7304.000000000001
 20
6010.400000000001
  0
HATCH
  5
20A
330
17
100
AcDbEntity
  8
WALL
100
AcDbHatch
 10
0.0
 20
0.0
 30
0.0
210
0.0
220
0.0
230
1.0
  2
SOLID
 70
1
 71
0
 91
1
 92
3
 72
0
 73
1
 93
4
 10
7304.000000000001
 20
6547.200000000001
 10
7356.8
 20
6547.200000000001
 10
7356.8
 20
6010.400000000001
 10
7304.000000000001
 20
6010.400000000001
 97
0
 75
1
 76
1
 98
0
  0
LWPOLYLINE
  5
20B
330
17
100
AcDbEntity
  8
WALL
100
AcDbPolyline
 90
4
 70
1
 10
8536.0
 20
6450.400000000001
 10
8624.0
 20
6450.400000000001
 10
8624.0
 20
6204.000000000001
 10
8536.0
 20
6204.000000000001
  0
HATCH
  5
20C
330
17
100
AcDbEntity
  8
WALL
100
AcDbHatch
 10
0.0
 20
0.0
 30
0.0
210
0.0
220
0.0
230
1.0
  2
SOLID
 70
1
 71
0
 91
1
 92
3
 72
0
 73
1
 93
4
 10
8536.0
 20
6450.400000000001
 10
8624.0
 20
6450.400000000001
 10
8624.0
 20
6204.000000000001
 10
8536.0
 20
6204.000000000001
 97
0
 75
1
 76
1
 98
0
  0
LWPOLYLINE
  5
20D
330
17
100
AcDbEntity
  8
WALL
100
AcDbPolyline
 90
4
 70
1
 10
5315.200000000001
 20
6388.8
 10
5420.8
 20
6388.8
 10
5420.8
 20
6001.6
 10
5315.200000000001
 20
6001.6
  0
HATCH
  5
20E
330
17
100
AcDbEntity
  8
WALL
100
AcDbHatch
 10
0.0
 20
0.0
 30
0.0
210
0.0
220
0.0
230
1.0
  2
SOLID
 70
1
 71
0
 91
1
 92
3
 72
0
 73
1
 93
4
 10
5315.200000000001
 20
6388.8
 10
5420.8
 20
6388.8
 10
5420.8
 20
6001.6
 10
5315.200000000001
 20
6001.6
 97
0
 75
1
 76
1
 98
0
  0
LWPOLYLINE
  5
20F
330
17
100
AcDbEntity
  8
WALL
100
AcDbPolyline
 90
4
 70
1
 10
8448.0
 20
6327.200000000001
 10
8483.2
 20
6327.200000000001
 10
8483.2
 20
6133.6
 10
8448.0
 20
6133.6
  0
HATCH
  5
210
330
17
100
AcDbEntity
  8
WALL
100
AcDbHatch
 10
0.0
 20
0.0
 30
0.0
210
0.0
220
0.0
230
1.0
  2
SOLID
 70
1
 71
0
 91
1
 92
3
 72
0
 73
1
 93
4
 10
8448.0
 20
6327.200000000001
 10
8483.2
 20
6327.200000000001
 10
8483.2
 20
6133.6
 10
8448.0
 20
6133.6
 97
0
 75
1
 76
1
 98
0
  0
LWPOLYLINE
  5
211
330
17
100
AcDbEntity
  8
WALL
100
AcDbPolyline
 90
4
 70
1
 10
7057.6
 20
6177.6
 10
7075.200000000001
 20
6177.6
 10
7075.200000000001
 20
5992.8
 10
7057.6
 20
5992.8
  0
HATCH
  5
212
330
17
100
AcDbEntity
  8
WALL
100
AcDbHatch
 10
0.0
 20
0.0
 30
0.0
210
0.0
220
0.0
230
1.0
  2
SOLID
 70
1
 71
0
 91
1
 92
3
 72
0
 73
1
 93
4
 10
7057.6
 20
6177.6
 10
7075.200000000001
 20
6177.6
 10
7075.200000000001
 20
5992.8
 10
7057.6
 20
5992.8
 97
0
 75
1
 76
1
 98
0
  0
LWPOLYLINE
  5
213
330
17
100
AcDbEntity
  8
WALL
100
AcDbPolyline
 90
4
 70
1
 10
7198.400000000001
 20
6177.6
 10
7216.000000000001
 20
6177.6
 10
7216.000000000001
 20
5992.8
 10
7198.400000000001
 20
5992.8
  0
HATCH
  5
214
330
17
100
AcDbEntity
  8
WALL
100
AcDbHatch
 10
0.0
 20
0.0
 30
0.0
210
0.0
220
0.0
230
1.0
  2
SOLID
 70
1
 71
0
 91
1
 92
3
 72
0
 73
1
 93
4
 10
7198.400000000001
 20
6177.6
 10
7216.000000000001
 20
6177.6
 10
7216.000000000001
 20
5992.8
 10
7198.400000000001
 20
5992.8
 97
0
 75
1
 76
1
 98
0
  0
LWPOLYLINE
  5
215
330
17
100
AcDbEntity
  8
WALL
100
AcDbPolyline
 90
4
 70
1
 10
12161.6
 20
6133.6
 10
12232.000000000002
 20
6133.6
 10
12232.000000000002
 20
5764.000000000001
 10
12161.6
 20
5764.000000000001
  0
HATCH
  5
216
330
17
100
AcDbEntity
  8
WALL
100
AcDbHatch
 10
0.0
 20
0.0
 30
0.0
210
0.0
220
0.0
230
1.0
  2
SOLID
 70
1
 71
0
 91
1
 92
3
 72
0
 73
1
 93
4
 10
12161.6
 20
6133.6
 10
12232.000000000002
 20
6133.6
 10
12232.000000000002
 20
5764.000000000001
 10
12161.6
 20
5764.000000000001
 97
0
 75
1
 76
1
 98
0
  0
LWPOLYLINE
  5
217
330
17
100
AcDbEntity
  8
WALL
100
AcDbPolyline
 90
4
 70
1
 10
9363.2
 20
6124.8
 10
9416.0
 20
6124.8
 10
9416.0
 20
5772.8
 10
9363.2
 20
5772.8
  0
HATCH
  5
218
330
17
100
AcDbEntity
  8
WALL
100
AcDbHatch
 10
0.0
 20
0.0
 30
0.0
210
0.0
220
0.0
230
1.0
  2
SOLID
 70
1
 71
0
 91
1
 92
3
 72
0
 73
1
 93
4
 10
9363.2
 20
6124.8
 10
9416.0
 20
6124.8
 10
9416.0
 20
5772.8
 10
9363.2
 20
5772.8
 97
0
 75
1
 76
1
 98
0
  0
LWPOLYLINE
  5
219
330
17
100
AcDbEntity
  8
WALL
100
AcDbPolyline
 90
4
 70
1
 10
2006.4
 20
6036.8
 10
2147.2000000000003
 20
6036.8
 10
2147.2000000000003
 20
4012.8
 10
2006.4
 20
4012.8
  0
HATCH
  5
21A
330
17
100
AcDbEntity
  8
WALL
100
AcDbHatch
 10
0.0
 20
0.0
 30
0.0
210
0.0
220
0.0
230
1.0
  2
SOLID
 70
1
 71
0
 91
1
 92
3
 72
0
 73
1
 93
4
 10
2006.4
 20
6036.8
 10
2147.2000000000003
 20
6036.8
 10
2147.2000000000003
 20
4012.8
 10
2006.4
 20
4012.8
 97
0
 75
1
 76
1
 98
0
  0
LWPOLYLINE
  5
21B
330
17
100
AcDbEntity
  8
WALL
100
AcDbPolyline
 90
4
 70
1
 10
2816.0
 20
5984.000000000001
 10
2868.8
 20
5984.000000000001
 10
2868.8
 20
5561.6
 10
2816.0
 20
5561.6
  0
HATCH
  5
21C
330
17
100
AcDbEntity
  8
WALL
100
AcDbHatch
 10
0.0
 20
0.0
 30
0.0
210
0.0
220
0.0
230
1.0
  2
SOLID
 70
1
 71
0
 91
1
 92
3
 72
0
 73
1
 93
4
 10
2816.0
 20
5984.000000000001
 10
2868.8
 20
5984.000000000001
 10
2868.8
 20
5561.6
 10
2816.0
 20
5561.6
 97
0
 75
1
 76
1
 98
0
  0
LWPOLYLINE
  5
21D
330
17
100
AcDbEntity
  8
WALL
100
AcDbPolyline
 90
4
 70
1
 10
9363.2
 20
5614.400000000001
 10
9433.6
 20
5614.400000000001
 10
9433.6
 20
5192.0
 10
9363.2
 20
5192.0
  0
HATCH
  5
21E
330
17
100
AcDbEntity
  8
WALL
100
AcDbHatch
 10
0.0
 20
0.0
 30
0.0
210
0.0
220
0.0
230
1.0
  2
SOLID
 70
1
 71
0
 91
1
 92
3
 72
0
 73
1
 93
4
 10
9363.2
 20
5614.400000000001
 10
9433.6
 20
5614.400000000001
 10
9433.6
 20
5192.0
 10
9363.2
 20
5192.0
 97
0
 75
1
 76
1
 98
0
  0
LWPOLYLINE
  5
21F
330
17
100
AcDbEntity
  8
WALL
100
AcDbPolyline
 90
4
 70
1
 10
5368.0
 20
5456.0
 10
5403.200000000001
 20
5456.0
 10
5403.200000000001
 20
5253.6
 10
5368.0
 20
5253.6
  0
HATCH
  5
220
330
17
100
AcDbEntity
  8
WALL
100
AcDbHatch
 10
0.0
 20
0.0
 30
0.0
210
0.0
220
0.0
230
1.0
  2
SOLID
 70
1
 71
0
 91
1
 92
3
 72
0
 73
1
 93
4
 10
5368.0
 20
5456.0
 10
5403.200000000001
 20
5456.0
 10
5403.200000000001
 20
5253.6
 10
5368.0
 20
5253.6
 97
0
 75
1
 76
1
 98
0
  0
LWPOLYLINE
  5
221
330
17
100
AcDbEntity
  8
WALL
100
AcDbPolyline
 90
4
 70
1
 10
5579.200000000001
 20
5456.0
 10
5667.200000000001
 20
5456.0
 10
5667.200000000001
 20
5104.0
 10
5579.200000000001
 20
5104.0
  0
HATCH
  5
222
330
17
100
AcDbEntity
  8
WALL
100
AcDbHatch
 10
0.0
 20
0.0
 30
0.0
210
0.0
220
0.0
230
1.0
  2
SOLID
 70
1
 71
0
 91
1
 92
3
 72
0
 73
1
 93
4
 10
5579.200000000001
 20
5456.0
 10
5667.200000000001
 20
5456.0
 10
5667.200000000001
 20
5104.0
 10
5579.200000000001
 20
5104.0
 97
0
 75
1
 76
1
 98
0
  0
LWPOLYLINE
  5
223
330
17
100
AcDbEntity
  8
WALL
100
AcDbPolyline
 90
4
 70
1
 10
5878.400000000001
 20
5456.0
 10
5896.000000000001
 20
5456.0
 10
5896.000000000001
 20
5271.200000000001
 10
5878.400000000001
 20
5271.200000000001
  0
HATCH
  5
224
330
17
100
AcDbEntity
  8
WALL
100
AcDbHatch
 10
0.0
 20
0.0
 30
0.0
210
0.0
220
0.0
230
1.0
  2
SOLID
 70
1
 71
0
 91
1
 92
3
 72
0
 73
1
 93
4
 10
5878.400000000001
 20
5456.0
 10
5896.000000000001
 20
5456.0
 10
5896.000000000001
 20
5271.200000000001
 10
5878.400000000001
 20
5271.200000000001
 97
0
 75
1
 76
1
 98
0
  0
LWPOLYLINE
  5
225
330
17
100
AcDbEntity
  8
WALL
100
AcDbPolyline
 90
4
 70
1
 10
6072.000000000001
 20
5456.0
 10
6089.6
 20
5456.0
 10
6089.6
 20
5253.6
 10
6072.000000000001
 20
5253.6
  0
HATCH
  5
226
330
17
100
AcDbEntity
  8
WALL
100
AcDbHatch
 10
0.0
 20
0.0
 30
0.0
210
0.0
220
0.0
230
1.0
  2
SOLID
 70
1
 71
0
 91
1
 92
3
 72
0
 73
1
 93
4
 10
6072.000000000001
 20
5456.0
 10
6089.6
 20
5456.0
 10
6089.6
 20
5253.6
 10
6072.000000000001
 20
5253.6
 97
0
 75
1
 76
1
 98
0
  0
LWPOLYLINE
  5
227
330
17
100
AcDbEntity
  8
WALL
100
AcDbPolyline
 90
4
 70
1
 10
6195.200000000001
 20
5456.0
 10
6353.6
 20
5456.0
 10
6353.6
 20
5104.0
 10
6195.200000000001
 20
5104.0
  0
HATCH
  5
228
330
17
100
AcDbEntity
  8
WALL
100
AcDbHatch
 10
0.0
 20
0.0
 30
0.0
210
0.0
220
0.0
230
1.0
  2
SOLID
 70
1
 71
0
 91
1
 92
3
 72
0
 73
1
 93
4
 10
6195.200000000001
 20
5456.0
 10
6353.6
 20
5456.0
 10
6353.6
 20
5104.0
 10
6195.200000000001
 20
5104.0
 97
0
 75
1
 76
1
 98
0
  0
LWPOLYLINE
  5
229
330
17
100
AcDbEntity
  8
WALL
100
AcDbPolyline
 90
4
 70
1
 10
4681.6
 20
5438.400000000001
 10
4699.200000000001
 20
5438.400000000001
 10
4699.200000000001
 20
5244.8
 10
4681.6
 20
5244.8
  0
HATCH
  5
22A
330
17
100
AcDbEntity
  8
WALL
100
AcDbHatch
 10
0.0
 20
0.0
 30
0.0
210
0.0
220
0.0
230
1.0
  2
SOLID
 70
1
 71
0
 91
1
 92
3
 72
0
 73
1
 93
4
 10
4681.6
 20
5438.400000000001
 10
4699.200000000001
 20
5438.400000000001
 10
4699.200000000001
 20
5244.8
 10
4681.6
 20
5244.8
 97
0
 75
1
 76
1
 98
0
  0
LWPOLYLINE
  5
22B
330
17
100
AcDbEntity
  8
WALL
100
AcDbPolyline
 90
4
 70
1
 10
5684.8
 20
5438.400000000001
 10
5755.200000000001
 20
5438.400000000001
 10
5755.200000000001
 20
5104.0
 10
5684.8
 20
5104.0
  0
HATCH
  5
22C
330
17
100
AcDbEntity
  8
WALL
100
AcDbHatch
 10
0.0
 20
0.0
 30
0.0
210
0.0
220
0.0
230
1.0
  2
SOLID
 70
1
 71
0
 91
1
 92
3
 72
0
 73
1
 93
4
 10
5684.8
 20
5438.400000000001
 10
5755.200000000001
 20
5438.400000000001
 10
5755.200000000001
 20
5104.0
 10
5684.8
 20
5104.0
 97
0
 75
1
 76
1
 98
0
  0
LWPOLYLINE
  5
22D
330
17
100
AcDbEntity
  8
WALL
100
AcDbPolyline
 90
4
 70
1
 10
6424.000000000001
 20
5112.8
 10
6547.200000000001
 20
5112.8
 10
6547.200000000001
 20
4136.0
 10
6424.000000000001
 20
4136.0
  0
HATCH
  5
22E
330
17
100
AcDbEntity
  8
WALL
100
AcDbHatch
 10
0.0
 20
0.0
 30
0.0
210
0.0
220
0.0
230
1.0
  2
SOLID
 70
1
 71
0
 91
1
 92
3
 72
0
 73
1
 93
4
 10
6424.000000000001
 20
5112.8
 10
6547.200000000001
 20
5112.8
 10
6547.200000000001
 20
4136.0
 10
6424.000000000001
 20
4136.0
 97
0
 75
1
 76
1
 98
0
  0
LWPOLYLINE
  5
22F
330
17
100
AcDbEntity
  8
WALL
100
AcDbPolyline
 90
4
 70
1
 10
11968.000000000002
 20
4796.0
 10
12038.400000000001
 20
4796.0
 10
12038.400000000001
 20
4250.400000000001
 10
11968.000000000002
 20
4250.400000000001
  0
HATCH
  5
230
330
17
100
AcDbEntity
  8
WALL
100
AcDbHatch
 10
0.0
 20
0.0
 30
0.0
210
0.0
220
0.0
230
1.0
  2
SOLID
 70
1
 71
0
 91
1
 92
3
 72
0
 73
1
 93
4
 10
11968.000000000002
 20
4796.0
 10
12038.400000000001
 20
4796.0
 10
12038.400000000001
 20
4250.400000000001
 10
11968.000000000002
 20
4250.400000000001
 97
0
 75
1
 76
1
 98
0
  0
LWPOLYLINE
  5
231
330
17
100
AcDbEntity
  8
WALL
100
AcDbPolyline
 90
4
 70
1
 10
12073.6
 20
4804.8
 10
12161.6
 20
4804.8
 10
12161.6
 20
4162.400000000001
 10
12073.6
 20
4162.400000000001
  0
HATCH
  5
232
330
17
100
AcDbEntity
  8
WALL
100
AcDbHatch
 10
0.0
 20
0.0
 30
0.0
210
0.0
220
0.0
230
1.0
  2
SOLID
 70
1
 71
0
 91
1
 92
3
 72
0
 73
1
 93
4
 10
12073.6
 20
4804.8
 10
12161.6
 20
4804.8
 10
12161.6
 20
4162.400000000001
 10
12073.6
 20
4162.400000000001
 97
0
 75
1
 76
1
 98
0
  0
LWPOLYLINE
  5
233
330
17
100
AcDbEntity
  8
WALL
100
AcDbPolyline
 90
4
 70
1
 10
5931.200000000001
 20
4760.8
 10
5966.400000000001
 20
4760.8
 10
5966.400000000001
 20
4567.200000000001
 10
5931.200000000001
 20
4567.200000000001
  0
HATCH
  5
234
330
17
100
AcDbEntity
  8
WALL
100
AcDbHatch
 10
0.0
 20
0.0
 30
0.0
210
0.0
220
0.0
230
1.0
  2
SOLID
 70
1
 71
0
 91
1
 92
3
 72
0
 73
1
 93
4
 10
5931.200000000001
 20
4760.8
 10
5966.400000000001
 20
4760.8
 10
5966.400000000001
 20
4567.200000000001
 10
5931.200000000001
 20
4567.200000000001
 97
0
 75
1
 76
1
 98
0
  0
LWPOLYLINE
  5
235
330
17
100
AcDbEntity
  8
WALL
100
AcDbPolyline
 90
4
 70
1
 10
4558.400000000001
 20
4558.400000000001
 10
4593.6
 20
4558.400000000001
 10
4593.6
 20
4364.8
 10
4558.400000000001
 20
4364.8
  0
HATCH
  5
236
330
17
100
AcDbEntity
  8
WALL
100
AcDbHatch
 10
0.0
 20
0.0
 30
0.0
210
0.0
220
0.0
230
1.0
  2
SOLID
 70
1
 71
0
 91
1
 92
3
 72
0
 73
1
 93
4
 10
4558.400000000001
 20
4558.400000000001
 10
4593.6
 20
4558.400000000001
 10
4593.6
 20
4364.8
 10
4558.400000000001
 20
4364.8
 97
0
 75
1
 76
1
 98
0
  0
LWPOLYLINE
  5
237
330
17
100
AcDbEntity
  8
WALL
100
AcDbPolyline
 90
4
 70
1
 10
11140.800000000001
 20
4426.400000000001
 10
11193.6
 20
4426.400000000001
 10
11193.6
 20
4092.0000000000005
 10
11140.800000000001
 20
4092.0000000000005
  0
HATCH
  5
238
330
17
100
AcDbEntity
  8
WALL
100
AcDbHatch
 10
0.0
 20
0.0
 30
0.0
210
0.0
220
0.0
230
1.0
  2
SOLID
 70
1
 71
0
 91
1
 92
3
 72
0
 73
1
 93
4
 10
11140.800000000001
 20
4426.400000000001
 10
11193.6
 20
4426.400000000001
 10
11193.6
 20
4092.0000000000005
 10
11140.800000000001
 20
4092.0000000000005
 97
0
 75
1
 76
1
 98
0
  0
LWPOLYLINE
  5
239
330
17
100
AcDbEntity
  8
WALL
100
AcDbPolyline
 90
4
 70
1
 10
11017.6
 20
4391.200000000001
 10
11035.2
 20
4391.200000000001
 10
11035.2
 20
4197.6
 10
11017.6
 20
4197.6
  0
HATCH
  5
23A
330
17
100
AcDbEntity
  8
WALL
100
AcDbHatch
 10
0.0
 20
0.0
 30
0.0
210
0.0
220
0.0
230
1.0
  2
SOLID
 70
1
 71
0
 91
1
 92
3
 72
0
 73
1
 93
4
 10
11017.6
 20
4391.200000000001
 10
11035.2
 20
4391.200000000001
 10
11035.2
 20
4197.6
 10
11017.6
 20
4197.6
 97
0
 75
1
 76
1
 98
0
  0
LWPOLYLINE
  5
23B
330
17
100
AcDbEntity
  8
WALL
100
AcDbPolyline
 90
4
 70
1
 10
11334.400000000001
 20
4373.6
 10
11352.000000000002
 20
4373.6
 10
11352.000000000002
 20
4048.0000000000005
 10
11334.400000000001
 20
4048.0000000000005
  0
HATCH
  5
23C
330
17
100
AcDbEntity
  8
WALL
100
AcDbHatch
 10
0.0
 20
0.0
 30
0.0
210
0.0
220
0.0
230
1.0
  2
SOLID
 70
1
 71
0
 91
1
 92
3
 72
0
 73
1
 93
4
 10
11334.400000000001
 20
4373.6
 10
11352.000000000002
 20
4373.6
 10
11352.000000000002
 20
4048.0000000000005
 10
11334.400000000001
 20
4048.0000000000005
 97
0
 75
1
 76
1
 98
0
  0
LWPOLYLINE
  5
23D
330
17
100
AcDbEntity
  8
WALL
100
AcDbPolyline
 90
4
 70
1
 10
4804.8
 20
4338.400000000001
 10
4840.0
 20
4338.400000000001
 10
4840.0
 20
4127.200000000001
 10
4804.8
 20
4127.200000000001
  0
HATCH
  5
23E
330
17
100
AcDbEntity
  8
WALL
100
AcDbHatch
 10
0.0
 20
0.0
 30
0.0
210
0.0
220
0.0
230
1.0
  2
SOLID
 70
1
 71
0
 91
1
 92
3
 72
0
 73
1
 93
4
 10
4804.8
 20
4338.400000000001
 10
4840.0
 20
4338.400000000001
 10
4840.0
 20
4127.200000000001
 10
4804.8
 20
4127.200000000001
 97
0
 75
1
 76
1
 98
0
  0
LWPOLYLINE
  5
23F
330
17
100
AcDbEntity
  8
WALL
100
AcDbPolyline
 90
4
 70
1
 10
5684.8
 20
4276.8
 10
5825.6
 20
4276.8
 10
5825.6
 20
3845.6000000000004
 10
5684.8
 20
3845.6000000000004
  0
HATCH
  5
240
330
17
100
AcDbEntity
  8
WALL
100
AcDbHatch
 10
0.0
 20
0.0
 30
0.0
210
0.0
220
0.0
230
1.0
  2
SOLID
 70
1
 71
0
 91
1
 92
3
 72
0
 73
1
 93
4
 10
5684.8
 20
4276.8
 10
5825.6
 20
4276.8
 10
5825.6
 20
3845.6000000000004
 10
5684.8
 20
3845.6000000000004
 97
0
 75
1
 76
1
 98
0
  0
LWPOLYLINE
  5
241
330
17
100
AcDbEntity
  8
WALL
100
AcDbPolyline
 90
4
 70
1
 10
5614.400000000001
 20
4250.400000000001
 10
5667.200000000001
 20
4250.400000000001
 10
5667.200000000001
 20
3810.4
 10
5614.400000000001
 20
3810.4
  0
HATCH
  5
242
330
17
100
AcDbEntity
  8
WALL
100
AcDbHatch
 10
0.0
 20
0.0
 30
0.0
210
0.0
220
0.0
230
1.0
  2
SOLID
 70
1
 71
0
 91
1
 92
3
 72
0
 73
1
 93
4
 10
5614.400000000001
 20
4250.400000000001
 10
5667.200000000001
 20
4250.400000000001
 10
5667.200000000001
 20
3810.4
 10
5614.400000000001
 20
3810.4
 97
0
 75
1
 76
1
 98
0
  0
LWPOLYLINE
  5
243
330
17
100
AcDbEntity
  8
WALL
100
AcDbPolyline
 90
4
 70
1
 10
8201.6
 20
4118.400000000001
 10
8289.6
 20
4118.400000000001
 10
8289.6
 20
3352.8
 10
8201.6
 20
3352.8
  0
HATCH
  5
244
330
17
100
AcDbEntity
  8
WALL
100
AcDbHatch
 10
0.0
 20
0.0
 30
0.0
210
0.0
220
0.0
230
1.0
  2
SOLID
 70
1
 71
0
 91
1
 92
3
 72
0
 73
1
 93
4
 10
8201.6
 20
4118.400000000001
 10
8289.6
 20
4118.400000000001
 10
8289.6
 20
3352.8
 10
8201.6
 20
3352.8
 97
0
 75
1
 76
1
 98
0
  0
LWPOLYLINE
  5
245
330
17
100
AcDbEntity
  8
WALL
100
AcDbPolyline
 90
4
 70
1
 10
10753.6
 20
4048.0000000000005
 10
10912.0
 20
4048.0000000000005
 10
10912.0
 20
3625.6000000000004
 10
10753.6
 20
3625.6000000000004
  0
HATCH
  5
246
330
17
100
AcDbEntity
  8
WALL
100
AcDbHatch
 10
0.0
 20
0.0
 30
0.0
210
0.0
220
0.0
230
1.0
  2
SOLID
 70
1
 71
0
 91
1
 92
3
 72
0
 73
1
 93
4
 10
10753.6
 20
4048.0000000000005
 10
10912.0
 20
4048.0000000000005
 10
10912.0
 20
3625.6000000000004
 10
10753.6
 20
3625.6000000000004
 97
0
 75
1
 76
1
 98
0
  0
LWPOLYLINE
  5
247
330
17
100
AcDbEntity
  8
WALL
100
AcDbPolyline
 90
4
 70
1
 10
11633.6
 20
4004.0000000000005
 10
11686.400000000001
 20
4004.0000000000005
 10
11686.400000000001
 20
3643.2000000000003
 10
11633.6
 20
3643.2000000000003
  0
HATCH
  5
248
330
17
100
AcDbEntity
  8
WALL
100
AcDbHatch
 10
0.0
 20
0.0
 30
0.0
210
0.0
220
0.0
230
1.0
  2
SOLID
 70
1
 71
0
 91
1
 92
3
 72
0
 73
1
 93
4
 10
11633.6
 20
4004.0000000000005
 10
11686.400000000001
 20
4004.0000000000005
 10
11686.400000000001
 20
3643.2000000000003
 10
11633.6
 20
3643.2000000000003
 97
0
 75
1
 76
1
 98
0
  0
LWPOLYLINE
  5
249
330
17
100
AcDbEntity
  8
WALL
100
AcDbPolyline
 90
4
 70
1
 10
10560.0
 20
3968.8
 10
10612.800000000001
 20
3968.8
 10
10612.800000000001
 20
3599.2000000000003
 10
10560.0
 20
3599.2000000000003
  0
HATCH
  5
24A
330
17
100
AcDbEntity
  8
WALL
100
AcDbHatch
 10
0.0
 20
0.0
 30
0.0
210
0.0
220
0.0
230
1.0
  2
SOLID
 70
1
 71
0
 91
1
 92
3
 72
0
 73
1
 93
4
 10
10560.0
 20
3968.8
 10
10612.800000000001
 20
3968.8
 10
10612.800000000001
 20
3599.2000000000003
 10
10560.0
 20
3599.2000000000003
 97
0
 75
1
 76
1
 98
0
  0
LWPOLYLINE
  5
24B
330
17
100
AcDbEntity
  8
WALL
100
AcDbPolyline
 90
4
 70
1
 10
11492.800000000001
 20
3942.4000000000005
 10
11545.6
 20
3942.4000000000005
 10
11545.6
 20
3748.8
 10
11492.800000000001
 20
3748.8
  0
HATCH
  5
24C
330
17
100
AcDbEntity
  8
WALL
100
AcDbHatch
 10
0.0
 20
0.0
 30
0.0
210
0.0
220
0.0
230
1.0
  2
SOLID
 70
1
 71
0
 91
1
 92
3
 72
0
 73
1
 93
4
 10
11492.800000000001
 20
3942.4000000000005
 10
11545.6
 20
3942.4000000000005
 10
11545.6
 20
3748.8
 10
11492.800000000001
 20
3748.8
 97
0
 75
1
 76
1
 98
0
  0
LWPOLYLINE
  5
24D
330
17
100
AcDbEntity
  8
WALL
100
AcDbPolyline
 90
4
 70
1
 10
8342.400000000001
 20
3898.4
 10
8412.800000000001
 20
3898.4
 10
8412.800000000001
 20
3537.6000000000004
 10
8342.400000000001
 20
3537.6000000000004
  0
HATCH
  5
24E
330
17
100
AcDbEntity
  8
WALL
100
AcDbHatch
 10
0.0
 20
0.0
 30
0.0
210
0.0
220
0.0
230
1.0
  2
SOLID
 70
1
 71
0
 91
1
 92
3
 72
0
 73
1
 93
4
 10
8342.400000000001
 20
3898.4
 10
8412.800000000001
 20
3898.4
 10
8412.800000000001
 20
3537.6000000000004
 10
8342.400000000001
 20
3537.6000000000004
 97
0
 75
1
 76
1
 98
0
  0
LWPOLYLINE
  5
24F
330
17
100
AcDbEntity
  8
WALL
100
AcDbPolyline
 90
4
 70
1
 10
8993.6
 20
3898.4
 10
9081.6
 20
3898.4
 10
9081.6
 20
3476.0000000000005
 10
8993.6
 20
3476.0000000000005
  0
HATCH
  5
250
330
17
100
AcDbEntity
  8
WALL
100
AcDbHatch
 10
0.0
 20
0.0
 30
0.0
210
0.0
220
0.0
230
1.0
  2
SOLID
 70
1
 71
0
 91
1
 92
3
 72
0
 73
1
 93
4
 10
8993.6
 20
3898.4
 10
9081.6
 20
3898.4
 10
9081.6
 20
3476.0000000000005
 10
8993.6
 20
3476.0000000000005
 97
0
 75
1
 76
1
 98
0
  0
LWPOLYLINE
  5
251
330
17
100
AcDbEntity
  8
WALL
100
AcDbPolyline
 90
4
 70
1
 10
11968.000000000002
 20
3722.4
 10
12056.000000000002
 20
3722.4
 10
12056.000000000002
 20
3335.2000000000003
 10
11968.000000000002
 20
3335.2000000000003
  0
HATCH
  5
252
330
17
100
AcDbEntity
  8
WALL
100
AcDbHatch
 10
0.0
 20
0.0
 30
0.0
210
0.0
220
0.0
230
1.0
  2
SOLID
 70
1
 71
0
 91
1
 92
3
 72
0
 73
1
 93
4
 10
11968.000000000002
 20
3722.4
 10
12056.000000000002
 20
3722.4
 10
12056.000000000002
 20
3335.2000000000003
 10
11968.000000000002
 20
3335.2000000000003
 97
0
 75
1
 76
1
 98
0
  0
LWPOLYLINE
  5
253
330
17
100
AcDbEntity
  8
WALL
100
AcDbPolyline
 90
4
 70
1
 10
11827.2
 20
3704.8
 10
11844.800000000001
 20
3704.8
 10
11844.800000000001
 20
3493.6000000000004
 10
11827.2
 20
3493.6000000000004
  0
HATCH
  5
254
330
17
100
AcDbEntity
  8
WALL
100
AcDbHatch
 10
0.0
 20
0.0
 30
0.0
210
0.0
220
0.0
230
1.0
  2
SOLID
 70
1
 71
0
 91
1
 92
3
 72
0
 73
1
 93
4
 10
11827.2
 20
3704.8
 10
11844.800000000001
 20
3704.8
 10
11844.800000000001
 20
3493.6000000000004
 10
11827.2
 20
3493.6000000000004
 97
0
 75
1
 76
1
 98
0
  0
LWPOLYLINE
  5
255
330
17
100
AcDbEntity
  8
WALL
100
AcDbPolyline
 90
4
 70
1
 10
12073.6
 20
3652.0000000000005
 10
12144.000000000002
 20
3652.0000000000005
 10
12144.000000000002
 20
3212.0000000000005
 10
12073.6
 20
3212.0000000000005
  0
HATCH
  5
256
330
17
100
AcDbEntity
  8
WALL
100
AcDbHatch
 10
0.0
 20
0.0
 30
0.0
210
0.0
220
0.0
230
1.0
  2
SOLID
 70
1
 71
0
 91
1
 92
3
 72
0
 73
1
 93
4
 10
12073.6
 20
3652.0000000000005
 10
12144.000000000002
 20
3652.0000000000005
 10
12144.000000000002
 20
3212.0000000000005
 10
12073.6
 20
3212.0000000000005
 97
0
 75
1
 76
1
 98
0
  0
LWPOLYLINE
  5
257
330
17
100
AcDbEntity
  8
WALL
100
AcDbPolyline
 90
4
 70
1
 10
8465.6
 20
3599.2000000000003
 10
8500.800000000001
 20
3599.2000000000003
 10
8500.800000000001
 20
3414.4
 10
8465.6
 20
3414.4
  0
HATCH
  5
258
330
17
100
AcDbEntity
  8
WALL
100
AcDbHatch
 10
0.0
 20
0.0
 30
0.0
210
0.0
220
0.0
230
1.0
  2
SOLID
 70
1
 71
0
 91
1
 92
3
 72
0
 73
1
 93
4
 10
8465.6
 20
3599.2000000000003
 10
8500.800000000001
 20
3599.2000000000003
 10
8500.800000000001
 20
3414.4
 10
8465.6
 20
3414.4
 97
0
 75
1
 76
1
 98
0
  0
LWPOLYLINE
  5
259
330
17
100
AcDbEntity
  8
WALL
100
AcDbPolyline
 90
4
 70
1
 10
8465.6
 20
3317.6000000000004
 10
8483.2
 20
3317.6000000000004
 10
8483.2
 20
3132.8
 10
8465.6
 20
3132.8
  0
HATCH
  5
25A
330
17
100
AcDbEntity
  8
WALL
100
AcDbHatch
 10
0.0
 20
0.0
 30
0.0
210
0.0
220
0.0
230
1.0
  2
SOLID
 70
1
 71
0
 91
1
 92
3
 72
0
 73
1
 93
4
 10
8465.6
 20
3317.6000000000004
 10
8483.2
 20
3317.6000000000004
 10
8483.2
 20
3132.8
 10
8465.6
 20
3132.8
 97
0
 75
1
 76
1
 98
0
  0
LWPOLYLINE
  5
25B
330
17
100
AcDbEntity
  8
WALL
100
AcDbPolyline
 90
4
 70
1
 10
211.20000000000002
 20
3300.0000000000005
 10
228.8
 20
3300.0000000000005
 10
228.8
 20
3106.4
 10
211.20000000000002
 20
3106.4
  0
HATCH
  5
25C
330
17
100
AcDbEntity
  8
WALL
100
AcDbHatch
 10
0.0
 20
0.0
 30
0.0
210
0.0
220
0.0
230
1.0
  2
SOLID
 70
1
 71
0
 91
1
 92
3
 72
0
 73
1
 93
4
 10
211.20000000000002
 20
3300.0000000000005
 10
228.8
 20
3300.0000000000005
 10
228.8
 20
3106.4
 10
211.20000000000002
 20
3106.4
 97
0
 75
1
 76
1
 98
0
  0
LWPOLYLINE
  5
25D
330
17
100
AcDbEntity
  8
WALL
100
AcDbPolyline
 90
4
 70
1
 10
3819.2000000000003
 20
3300.0000000000005
 10
3872.0000000000005
 20
3300.0000000000005
 10
3872.0000000000005
 20
2860.0000000000005
 10
3819.2000000000003
 20
2860.0000000000005
  0
HATCH
  5
25E
330
17
100
AcDbEntity
  8
WALL
100
AcDbHatch
 10
0.0
 20
0.0
 30
0.0
210
0.0
220
0.0
230
1.0
  2
SOLID
 70
1
 71
0
 91
1
 92
3
 72
0
 73
1
 93
4
 10
3819.2000000000003
 20
3300.0000000000005
 10
3872.0000000000005
 20
3300.0000000000005
 10
3872.0000000000005
 20
2860.0000000000005
 10
3819.2000000000003
 20
2860.0000000000005
 97
0
 75
1
 76
1
 98
0
  0
LWPOLYLINE
  5
25F
330
17
100
AcDbEntity
  8
WALL
100
AcDbPolyline
 90
4
 70
1
 10
8712.0
 20
3308.8
 10
8729.6
 20
3308.8
 10
8729.6
 20
3124.0000000000005
 10
8712.0
 20
3124.0000000000005
  0
HATCH
  5
260
330
17
100
AcDbEntity
  8
WALL
100
AcDbHatch
 10
0.0
 20
0.0
 30
0.0
210
0.0
220
0.0
230
1.0
  2
SOLID
 70
1
 71
0
 91
1
 92
3
 72
0
 73
1
 93
4
 10
8712.0
 20
3308.8
 10
8729.6
 20
3308.8
 10
8729.6
 20
3124.0000000000005
 10
8712.0
 20
3124.0000000000005
 97
0
 75
1
 76
1
 98
0
  0
LWPOLYLINE
  5
261
330
17
100
AcDbEntity
  8
WALL
100
AcDbPolyline
 90
4
 70
1
 10
6142.400000000001
 20
3238.4
 10
6212.8
 20
3238.4
 10
6212.8
 20
1328.8000000000002
 10
6142.400000000001
 20
1328.8000000000002
  0
HATCH
  5
262
330
17
100
AcDbEntity
  8
WALL
100
AcDbHatch
 10
0.0
 20
0.0
 30
0.0
210
0.0
220
0.0
230
1.0
  2
SOLID
 70
1
 71
0
 91
1
 92
3
 72
0
 73
1
 93
4
 10
6142.400000000001
 20
3238.4
 10
6212.8
 20
3238.4
 10
6212.8
 20
1328.8000000000002
 10
6142.400000000001
 20
1328.8000000000002
 97
0
 75
1
 76
1
 98
0
  0
LWPOLYLINE
  5
263
330
17
100
AcDbEntity
  8
WALL
100
AcDbPolyline
 90
4
 70
1
 10
12126.400000000001
 20
3088.8
 10
12179.2
 20
3088.8
 10
12179.2
 20
2772.0
 10
12126.400000000001
 20
2772.0
  0
HATCH
  5
264
330
17
100
AcDbEntity
  8
WALL
100
AcDbHatch
 10
0.0
 20
0.0
 30
0.0
210
0.0
220
0.0
230
1.0
  2
SOLID
 70
1
 71
0
 91
1
 92
3
 72
0
 73
1
 93
4
 10
12126.400000000001
 20
3088.8
 10
12179.2
 20
3088.8
 10
12179.2
 20
2772.0
 10
12126.400000000001
 20
2772.0
 97
0
 75
1
 76
1
 98
0
  0
LWPOLYLINE
  5
265
330
17
100
AcDbEntity
  8
WALL
100
AcDbPolyline
 90
4
 70
1
 10
4699.200000000001
 20
2833.6000000000004
 10
4804.8
 20
2833.6000000000004
 10
4804.8
 20
2508.0
 10
4699.200000000001
 20
2508.0
  0
HATCH
  5
266
330
17
100
AcDbEntity
  8
WALL
100
AcDbHatch
 10
0.0
 20
0.0
 30
0.0
210
0.0
220
0.0
230
1.0
  2
SOLID
 70
1
 71
0
 91
1
 92
3
 72
0
 73
1
 93
4
 10
4699.200000000001
 20
2833.6000000000004
 10
4804.8
 20
2833.6000000000004
 10
4804.8
 20
2508.0
 10
4699.200000000001
 20
2508.0
 97
0
 75
1
 76
1
 98
0
  0
LWPOLYLINE
  5
267
330
17
100
AcDbEntity
  8
WALL
100
AcDbPolyline
 90
4
 70
1
 10
9292.800000000001
 20
2692.8
 10
9328.0
 20
2692.8
 10
9328.0
 20
2499.2000000000003
 10
9292.800000000001
 20
2499.2000000000003
  0
HATCH
  5
268
330
17
100
AcDbEntity
  8
WALL
100
AcDbHatch
 10
0.0
 20
0.0
 30
0.0
210
0.0
220
0.0
230
1.0
  2
SOLID
 70
1
 71
0
 91
1
 92
3
 72
0
 73
1
 93
4
 10
9292.800000000001
 20
2692.8
 10
9328.0
 20
2692.8
 10
9328.0
 20
2499.2000000000003
 10
9292.800000000001
 20
2499.2000000000003
 97
0
 75
1
 76
1
 98
0
  0
LWPOLYLINE
  5
269
330
17
100
AcDbEntity
  8
WALL
100
AcDbPolyline
 90
4
 70
1
 10
9345.6
 20
2464.0
 10
9398.400000000001
 20
2464.0
 10
9398.400000000001
 20
2226.4
 10
9345.6
 20
2226.4
  0
HATCH
  5
26A
330
17
100
AcDbEntity
  8
WALL
100
AcDbHatch
 10
0.0
 20
0.0
 30
0.0
210
0.0
220
0.0
230
1.0
  2
SOLID
 70
1
 71
0
 91
1
 92
3
 72
0
 73
1
 93
4
 10
9345.6
 20
2464.0
 10
9398.400000000001
 20
2464.0
 10
9398.400000000001
 20
2226.4
 10
9345.6
 20
2226.4
 97
0
 75
1
 76
1
 98
0
  0
LWPOLYLINE
  5
26B
330
17
100
AcDbEntity
  8
WALL
100
AcDbPolyline
 90
4
 70
1
 10
9046.400000000001
 20
2446.4
 10
9081.6
 20
2446.4
 10
9081.6
 20
2235.2000000000003
 10
9046.400000000001
 20
2235.2000000000003
  0
HATCH
  5
26C
330
17
100
AcDbEntity
  8
WALL
100
AcDbHatch
 10
0.0
 20
0.0
 30
0.0
210
0.0
220
0.0
230
1.0
  2
SOLID
 70
1
 71
0
 91
1
 92
3
 72
0
 73
1
 93
4
 10
9046.400000000001
 20
2446.4
 10
9081.6
 20
2446.4
 10
9081.6
 20
2235.2000000000003
 10
9046.400000000001
 20
2235.2000000000003
 97
0
 75
1
 76
1
 98
0
  0
LWPOLYLINE
  5
26D
330
17
100
AcDbEntity
  8
WALL
100
AcDbPolyline
 90
4
 70
1
 10
9732.800000000001
 20
2428.8
 10
9768.0
 20
2428.8
 10
9768.0
 20
2208.8
 10
9732.800000000001
 20
2208.8
  0
HATCH
  5
26E
330
17
100
AcDbEntity
  8
WALL
100
AcDbHatch
 10
0.0
 20
0.0
 30
0.0
210
0.0
220
0.0
230
1.0
  2
SOLID
 70
1
 71
0
 91
1
 92
3
 72
0
 73
1
 93
4
 10
9732.800000000001
 20
2428.8
 10
9768.0
 20
2428.8
 10
9768.0
 20
2208.8
 10
9732.800000000001
 20
2208.8
 97
0
 75
1
 76
1
 98
0
  0
LWPOLYLINE
  5
26F
330
17
100
AcDbEntity
  8
WALL
100
AcDbPolyline
 90
4
 70
1
 10
9944.0
 20
2420.0
 10
9961.6
 20
2420.0
 10
9961.6
 20
2182.4
 10
9944.0
 20
2182.4
  0
HATCH
  5
270
330
17
100
AcDbEntity
  8
WALL
100
AcDbHatch
 10
0.0
 20
0.0
 30
0.0
210
0.0
220
0.0
230
1.0
  2
SOLID
 70
1
 71
0
 91
1
 92
3
 72
0
 73
1
 93
4
 10
9944.0
 20
2420.0
 10
9961.6
 20
2420.0
 10
9961.6
 20
2182.4
 10
9944.0
 20
2182.4
 97
0
 75
1
 76
1
 98
0
  0
LWPOLYLINE
  5
271
330
17
100
AcDbEntity
  8
WALL
100
AcDbPolyline
 90
4
 70
1
 10
9803.2
 20
2411.2000000000003
 10
9908.800000000001
 20
2411.2000000000003
 10
9908.800000000001
 20
2164.8
 10
9803.2
 20
2164.8
  0
HATCH
  5
272
330
17
100
AcDbEntity
  8
WALL
100
AcDbHatch
 10
0.0
 20
0.0
 30
0.0
210
0.0
220
0.0
230
1.0
  2
SOLID
 70
1
 71
0
 91
1
 92
3
 72
0
 73
1
 93
4
 10
9803.2
 20
2411.2000000000003
 10
9908.800000000001
 20
2411.2000000000003
 10
9908.800000000001
 20
2164.8
 10
9803.2
 20
2164.8
 97
0
 75
1
 76
1
 98
0
  0
LWPOLYLINE
  5
273
330
17
100
AcDbEntity
  8
WALL
100
AcDbPolyline
 90
4
 70
1
 10
10665.6
 20
2411.2000000000003
 10
10859.2
 20
2411.2000000000003
 10
10859.2
 20
1038.4
 10
10665.6
 20
1038.4
  0
HATCH
  5
274
330
17
100
AcDbEntity
  8
WALL
100
AcDbHatch
 10
0.0
 20
0.0
 30
0.0
210
0.0
220
0.0
230
1.0
  2
SOLID
 70
1
 71
0
 91
1
 92
3
 72
0
 73
1
 93
4
 10
10665.6
 20
2411.2000000000003
 10
10859.2
 20
2411.2000000000003
 10
10859.2
 20
1038.4
 10
10665.6
 20
1038.4
 97
0
 75
1
 76
1
 98
0
  0
LWPOLYLINE
  5
275
330
17
100
AcDbEntity
  8
WALL
100
AcDbPolyline
 90
4
 70
1
 10
10032.0
 20
2384.8
 10
10102.400000000001
 20
2384.8
 10
10102.400000000001
 20
2120.8
 10
10032.0
 20
2120.8
  0
HATCH
  5
276
330
17
100
AcDbEntity
  8
WALL
100
AcDbHatch
 10
0.0
 20
0.0
 30
0.0
210
0.0
220
0.0
230
1.0
  2
SOLID
 70
1
 71
0
 91
1
 92
3
 72
0
 73
1
 93
4
 10
10032.0
 20
2384.8
 10
10102.400000000001
 20
2384.8
 10
10102.400000000001
 20
2120.8
 10
10032.0
 20
2120.8
 97
0
 75
1
 76
1
 98
0
  0
LWPOLYLINE
  5
277
330
17
100
AcDbEntity
  8
WALL
100
AcDbPolyline
 90
4
 70
1
 10
10155.2
 20
2384.8
 10
10278.400000000001
 20
2384.8
 10
10278.400000000001
 20
2050.4
 10
10155.2
 20
2050.4
  0
HATCH
  5
278
330
17
100
AcDbEntity
  8
WALL
100
AcDbHatch
 10
0.0
 20
0.0
 30
0.0
210
0.0
220
0.0
230
1.0
  2
SOLID
 70
1
 71
0
 91
1
 92
3
 72
0
 73
1
 93
4
 10
10155.2
 20
2384.8
 10
10278.400000000001
 20
2384.8
 10
10278.400000000001
 20
2050.4
 10
10155.2
 20
2050.4
 97
0
 75
1
 76
1
 98
0
  0
LWPOLYLINE
  5
279
330
17
100
AcDbEntity
  8
WALL
100
AcDbPolyline
 90
4
 70
1
 10
9662.400000000001
 20
2376.0
 10
9680.0
 20
2376.0
 10
9680.0
 20
2112.0
 10
9662.400000000001
 20
2112.0
  0
HATCH
  5
27A
330
17
100
AcDbEntity
  8
WALL
100
AcDbHatch
 10
0.0
 20
0.0
 30
0.0
210
0.0
220
0.0
230
1.0
  2
SOLID
 70
1
 71
0
 91
1
 92
3
 72
0
 73
1
 93
4
 10
9662.400000000001
 20
2376.0
 10
9680.0
 20
2376.0
 10
9680.0
 20
2112.0
 10
9662.400000000001
 20
2112.0
 97
0
 75
1
 76
1
 98
0
  0
LWPOLYLINE
  5
27B
330
17
100
AcDbEntity
  8
WALL
100
AcDbPolyline
 90
4
 70
1
 10
9979.2
 20
2340.8
 10
9996.800000000001
 20
2340.8
 10
9996.800000000001
 20
2147.2000000000003
 10
9979.2
 20
2147.2000000000003
  0
HATCH
  5
27C
330
17
100
AcDbEntity
  8
WALL
100
AcDbHatch
 10
0.0
 20
0.0
 30
0.0
210
0.0
220
0.0
230
1.0
  2
SOLID
 70
1
 71
0
 91
1
 92
3
 72
0
 73
1
 93
4
 10
9979.2
 20
2340.8
 10
9996.800000000001
 20
2340.8
 10
9996.800000000001
 20
2147.2000000000003
 10
9979.2
 20
2147.2000000000003
 97
0
 75
1
 76
1
 98
0
  0
LWPOLYLINE
  5
27D
330
17
100
AcDbEntity
  8
WALL
100
AcDbPolyline
 90
4
 70
1
 10
3801.6000000000004
 20
2138.4
 10
3854.4
 20
2138.4
 10
3854.4
 20
1698.4
 10
3801.6000000000004
 20
1698.4
  0
HATCH
  5
27E
330
17
100
AcDbEntity
  8
WALL
100
AcDbHatch
 10
0.0
 20
0.0
 30
0.0
210
0.0
220
0.0
230
1.0
  2
SOLID
 70
1
 71
0
 91
1
 92
3
 72
0
 73
1
 93
4
 10
3801.6000000000004
 20
2138.4
 10
3854.4
 20
2138.4
 10
3854.4
 20
1698.4
 10
3801.6000000000004
 20
1698.4
 97
0
 75
1
 76
1
 98
0
  0
LWPOLYLINE
  5
27F
330
17
100
AcDbEntity
  8
WALL
100
AcDbPolyline
 90
4
 70
1
 10
8096.000000000001
 20
2103.2000000000003
 10
8113.6
 20
2103.2000000000003
 10
8113.6
 20
1865.6000000000001
 10
8096.000000000001
 20
1865.6000000000001
  0
HATCH
  5
280
330
17
100
AcDbEntity
  8
WALL
100
AcDbHatch
 10
0.0
 20
0.0
 30
0.0
210
0.0
220
0.0
230
1.0
  2
SOLID
 70
1
 71
0
 91
1
 92
3
 72
0
 73
1
 93
4
 10
8096.000000000001
 20
2103.2000000000003
 10
8113.6
 20
2103.2000000000003
 10
8113.6
 20
1865.6000000000001
 10
8096.000000000001
 20
1865.6000000000001
 97
0
 75
1
 76
1
 98
0
  0
LWPOLYLINE
  5
281
330
17
100
AcDbEntity
  8
WALL
100
AcDbPolyline
 90
4
 70
1
 10
3960.0000000000005
 20
2041.6000000000001
 10
4100.8
 20
2041.6000000000001
 10
4100.8
 20
1020.8000000000001
 10
3960.0000000000005
 20
1020.8000000000001
  0
HATCH
  5
282
330
17
100
AcDbEntity
  8
WALL
100
AcDbHatch
 10
0.0
 20
0.0
 30
0.0
210
0.0
220
0.0
230
1.0
  2
SOLID
 70
1
 71
0
 91
1
 92
3
 72
0
 73
1
 93
4
 10
3960.0000000000005
 20
2041.6000000000001
 10
4100.8
 20
2041.6000000000001
 10
4100.8
 20
1020.8000000000001
 10
3960.0000000000005
 20
1020.8000000000001
 97
0
 75
1
 76
1
 98
0
  0
LWPOLYLINE
  5
283
330
17
100
AcDbEntity
  8
WALL
100
AcDbPolyline
 90
4
 70
1
 10
10384.0
 20
1936.0000000000002
 10
10577.6
 20
1936.0000000000002
 10
10577.6
 20
1276.0
 10
10384.0
 20
1276.0
  0
HATCH
  5
284
330
17
100
AcDbEntity
  8
WALL
100
AcDbHatch
 10
0.0
 20
0.0
 30
0.0
210
0.0
220
0.0
230
1.0
  2
SOLID
 70
1
 71
0
 91
1
 92
3
 72
0
 73
1
 93
4
 10
10384.0
 20
1936.0000000000002
 10
10577.6
 20
1936.0000000000002
 10
10577.6
 20
1276.0
 10
10384.0
 20
1276.0
 97
0
 75
1
 76
1
 98
0
  0
LWPOLYLINE
  5
285
330
17
100
AcDbEntity
  8
WALL
100
AcDbPolyline
 90
4
 70
1
 10
8483.2
 20
1883.2
 10
8606.400000000001
 20
1883.2
 10
8606.400000000001
 20
1636.8000000000002
 10
8483.2
 20
1636.8000000000002
  0
HATCH
  5
286
330
17
100
AcDbEntity
  8
WALL
100
AcDbHatch
 10
0.0
 20
0.0
 30
0.0
210
0.0
220
0.0
230
1.0
  2
SOLID
 70
1
 71
0
 91
1
 92
3
 72
0
 73
1
 93
4
 10
8483.2
 20
1883.2
 10
8606.400000000001
 20
1883.2
 10
8606.400000000001
 20
1636.8000000000002
 10
8483.2
 20
1636.8000000000002
 97
0
 75
1
 76
1
 98
0
  0
LWPOLYLINE
  5
287
330
17
100
AcDbEntity
  8
WALL
100
AcDbPolyline
 90
4
 70
1
 10
5825.6
 20
1856.8000000000002
 10
5913.6
 20
1856.8000000000002
 10
5913.6
 20
1443.2
 10
5825.6
 20
1443.2
  0
HATCH
  5
288
330
17
100
AcDbEntity
  8
WALL
100
AcDbHatch
 10
0.0
 20
0.0
 30
0.0
210
0.0
220
0.0
230
1.0
  2
SOLID
 70
1
 71
0
 91
1
 92
3
 72
0
 73
1
 93
4
 10
5825.6
 20
1856.8000000000002
 10
5913.6
 20
1856.8000000000002
 10
5913.6
 20
1443.2
 10
5825.6
 20
1443.2
 97
0
 75
1
 76
1
 98
0
  0
LWPOLYLINE
  5
289
330
17
100
AcDbEntity
  8
WALL
100
AcDbPolyline
 90
4
 70
1
 10
8888.0
 20
1645.6000000000001
 10
8940.800000000001
 20
1645.6000000000001
 10
8940.800000000001
 20
1082.4
 10
8888.0
 20
1082.4
  0
HATCH
  5
28A
330
17
100
AcDbEntity
  8
WALL
100
AcDbHatch
 10
0.0
 20
0.0
 30
0.0
210
0.0
220
0.0
230
1.0
  2
SOLID
 70
1
 71
0
 91
1
 92
3
 72
0
 73
1
 93
4
 10
8888.0
 20
1645.6000000000001
 10
8940.800000000001
 20
1645.6000000000001
 10
8940.800000000001
 20
1082.4
 10
8888.0
 20
1082.4
 97
0
 75
1
 76
1
 98
0
  0
LWPOLYLINE
  5
28B
330
17
100
AcDbEntity
  8
WALL
100
AcDbPolyline
 90
4
 70
1
 10
9662.400000000001
 20
1575.2
 10
9715.2
 20
1575.2
 10
9715.2
 20
1311.2
 10
9662.400000000001
 20
1311.2
  0
HATCH
  5
28C
330
17
100
AcDbEntity
  8
WALL
100
AcDbHatch
 10
0.0
 20
0.0
 30
0.0
210
0.0
220
0.0
230
1.0
  2
SOLID
 70
1
 71
0
 91
1
 92
3
 72
0
 73
1
 93
4
 10
9662.400000000001
 20
1575.2
 10
9715.2
 20
1575.2
 10
9715.2
 20
1311.2
 10
9662.400000000001
 20
1311.2
 97
0
 75
1
 76
1
 98
0
  0
LWPOLYLINE
  5
28D
330
17
100
AcDbEntity
  8
WALL
100
AcDbPolyline
 90
4
 70
1
 10
228.8
 20
1469.6000000000001
 10
299.20000000000005
 20
1469.6000000000001
 10
299.20000000000005
 20
1170.4
 10
228.8
 20
1170.4
  0
HATCH
  5
28E
330
17
100
AcDbEntity
  8
WALL
100
AcDbHatch
 10
0.0
 20
0.0
 30
0.0
210
0.0
220
0.0
230
1.0
  2
SOLID
 70
1
 71
0
 91
1
 92
3
 72
0
 73
1
 93
4
 10
228.8
 20
1469.6000000000001
 10
299.20000000000005
 20
1469.6000000000001
 10
299.20000000000005
 20
1170.4
 10
228.8
 20
1170.4
 97
0
 75
1
 76
1
 98
0
  0
LWPOLYLINE
  5
28F
330
17
100
AcDbEntity
  8
WALL
100
AcDbPolyline
 90
4
 70
1
 10
10542.400000000001
 20
1276.0
 10
10577.6
 20
1276.0
 10
10577.6
 20
1073.6000000000001
 10
10542.400000000001
 20
1073.6000000000001
  0
HATCH
  5
290
330
17
100
AcDbEntity
  8
WALL
100
AcDbHatch
 10
0.0
 20
0.0
 30
0.0
210
0.0
220
0.0
230
1.0
  2
SOLID
 70
1
 71
0
 91
1
 92
3
 72
0
 73
1
 93
4
 10
10542.400000000001
 20
1276.0
 10
10577.6
 20
1276.0
 10
10577.6
 20
1073.6000000000001
 10
10542.400000000001
 20
1073.6000000000001
 97
0
 75
1
 76
1
 98
0
  0
LWPOLYLINE
  5
291
330
17
100
AcDbEntity
  8
WALL
100
AcDbPolyline
 90
4
 70
1
 10
10155.2
 20
1144.0
 10
10208.0
 20
1144.0
 10
10208.0
 20
950.4000000000001
 10
10155.2
 20
950.4000000000001
  0
HATCH
  5
292
330
17
100
AcDbEntity
  8
WALL
100
AcDbHatch
 10
0.0
 20
0.0
 30
0.0
210
0.0
220
0.0
230
1.0
  2
SOLID
 70
1
 71
0
 91
1
 92
3
 72
0
 73
1
 93
4
 10
10155.2
 20
1144.0
 10
10208.0
 20
1144.0
 10
10208.0
 20
950.4000000000001
 10
10155.2
 20
950.4000000000001
 97
0
 75
1
 76
1
 98
0
  0
LINE
  5
293
330
17
100
AcDbEntity
  8
WINDOW
100
AcDbLine
 10
4734.400000000001
 20
11457.6
 30
0.0
 11
4822.400000000001
 21
11457.6
 31
0.0
  0
LINE
  5
294
330
17
100
AcDbEntity
  8
WINDOW
100
AcDbLine
 10
4734.400000000001
 20
11422.400000000001
 30
0.0
 11
4822.400000000001
 21
11422.400000000001
 31
0.0
  0
LINE
  5
295
330
17
100
AcDbEntity
  8
WINDOW
100
AcDbLine
 10
4734.400000000001
 20
11387.2
 30
0.0
 11
4822.400000000001
 21
11387.2
 31
0.0
  0
LINE
  5
296
330
17
100
AcDbEntity
  8
WINDOW
100
AcDbLine
 10
4734.400000000001
 20
11352.000000000002
 30
0.0
 11
4822.400000000001
 21
11352.000000000002
 31
0.0
  0
LINE
  5
297
330
17
100
AcDbEntity
  8
WINDOW
100
AcDbLine
 10
4734.400000000001
 20
11457.6
 30
0.0
 11
4734.400000000001
 21
11352.000000000002
 31
0.0
  0
LINE
  5
298
330
17
100
AcDbEntity
  8
WINDOW
100
AcDbLine
 10
4822.400000000001
 20
11457.6
 30
0.0
 11
4822.400000000001
 21
11352.000000000002
 31
0.0
  0
LINE
  5
299
330
17
100
AcDbEntity
  8
WINDOW
100
AcDbLine
 10
5561.6
 20
10445.6
 30
0.0
 11
5649.6
 21
10445.6
 31
0.0
  0
LINE
  5
29A
330
17
100
AcDbEntity
  8
WINDOW
100
AcDbLine
 10
5561.6
 20
10425.066666666668
 30
0.0
 11
5649.6
 21
10425.066666666668
 31
0.0
  0
LINE
  5
29B
330
17
100
AcDbEntity
  8
WINDOW
100
AcDbLine
 10
5561.6
 20
10404.533333333333
 30
0.0
 11
5649.6
 21
10404.533333333333
 31
0.0
  0
LINE
  5
29C
330
17
100
AcDbEntity
  8
WINDOW
100
AcDbLine
 10
5561.6
 20
10384.0
 30
0.0
 11
5649.6
 21
10384.0
 31
0.0
  0
LINE
  5
29D
330
17
100
AcDbEntity
  8
WINDOW
100
AcDbLine
 10
5561.6
 20
10445.6
 30
0.0
 11
5561.6
 21
10384.0
 31
0.0
  0
LINE
  5
29E
330
17
100
AcDbEntity
  8
WINDOW
100
AcDbLine
 10
5649.6
 20
10445.6
 30
0.0
 11
5649.6
 21
10384.0
 31
0.0
  0
LINE
  5
29F
330
17
100
AcDbEntity
  8
WINDOW
100
AcDbLine
 10
5860.8
 20
10445.6
 30
0.0
 11
6036.8
 21
10445.6
 31
0.0
  0
LINE
  5
2A0
330
17
100
AcDbEntity
  8
WINDOW
100
AcDbLine
 10
5860.8
 20
10425.066666666668
 30
0.0
 11
6036.8
 21
10425.066666666668
 31
0.0
  0
LINE
  5
2A1
330
17
100
AcDbEntity
  8
WINDOW
100
AcDbLine
 10
5860.8
 20
10404.533333333333
 30
0.0
 11
6036.8
 21
10404.533333333333
 31
0.0
  0
LINE
  5
2A2
330
17
100
AcDbEntity
  8
WINDOW
100
AcDbLine
 10
5860.8
 20
10384.0
 30
0.0
 11
6036.8
 21
10384.0
 31
0.0
  0
LINE
  5
2A3
330
17
100
AcDbEntity
  8
WINDOW
100
AcDbLine
 10
5860.8
 20
10445.6
 30
0.0
 11
5860.8
 21
10384.0
 31
0.0
  0
LINE
  5
2A4
330
17
100
AcDbEntity
  8
WINDOW
100
AcDbLine
 10
6036.8
 20
10445.6
 30
0.0
 11
6036.8
 21
10384.0
 31
0.0
  0
LINE
  5
2A5
330
17
100
AcDbEntity
  8
WINDOW
100
AcDbLine
 10
2200.0
 20
10366.400000000001
 30
0.0
 11
2481.6000000000004
 21
10366.400000000001
 31
0.0
  0
LINE
  5
2A6
330
17
100
AcDbEntity
  8
WINDOW
100
AcDbLine
 10
2200.0
 20
10331.2
 30
0.0
 11
2481.6000000000004
 21
10331.2
 31
0.0
  0
LINE
  5
2A7
330
17
100
AcDbEntity
  8
WINDOW
100
AcDbLine
 10
2200.0
 20
10296.0
 30
0.0
 11
2481.6000000000004
 21
10296.0
 31
0.0
  0
LINE
  5
2A8
330
17
100
AcDbEntity
  8
WINDOW
100
AcDbLine
 10
2200.0
 20
10260.800000000001
 30
0.0
 11
2481.6000000000004
 21
10260.800000000001
 31
0.0
  0
LINE
  5
2A9
330
17
100
AcDbEntity
  8
WINDOW
100
AcDbLine
 10
2200.0
 20
10366.400000000001
 30
0.0
 11
2200.0
 21
10260.800000000001
 31
0.0
  0
LINE
  5
2AA
330
17
100
AcDbEntity
  8
WINDOW
100
AcDbLine
 10
2481.6000000000004
 20
10366.400000000001
 30
0.0
 11
2481.6000000000004
 21
10260.800000000001
 31
0.0
  0
LINE
  5
2AB
330
17
100
AcDbEntity
  8
WINDOW
100
AcDbLine
 10
7110.400000000001
 20
10331.2
 30
0.0
 11
10172.800000000001
 21
10331.2
 31
0.0
  0
LINE
  5
2AC
330
17
100
AcDbEntity
  8
WINDOW
100
AcDbLine
 10
7110.400000000001
 20
10284.266666666668
 30
0.0
 11
10172.800000000001
 21
10284.266666666668
 31
0.0
  0
LINE
  5
2AD
330
17
100
AcDbEntity
  8
WINDOW
100
AcDbLine
 10
7110.400000000001
 20
10237.333333333334
 30
0.0
 11
10172.800000000001
 21
10237.333333333334
 31
0.0
  0
LINE
  5
2AE
330
17
100
AcDbEntity
  8
WINDOW
100
AcDbLine
 10
7110.400000000001
 20
10190.400000000001
 30
0.0
 11
10172.800000000001
 21
10190.400000000001
 31
0.0
  0
LINE
  5
2AF
330
17
100
AcDbEntity
  8
WINDOW
100
AcDbLine
 10
7110.400000000001
 20
10331.2
 30
0.0
 11
7110.400000000001
 21
10190.400000000001
 31
0.0
  0
LINE
  5
2B0
330
17
100
AcDbEntity
  8
WINDOW
100
AcDbLine
 10
10172.800000000001
 20
10331.2
 30
0.0
 11
10172.800000000001
 21
10190.400000000001
 31
0.0
  0
LINE
  5
2B1
330
17
100
AcDbEntity
  8
WINDOW
100
AcDbLine
 10
2200.0
 20
10111.2
 30
0.0
 11
2305.6000000000004
 21
10111.2
 31
0.0
  0
LINE
  5
2B2
330
17
100
AcDbEntity
  8
WINDOW
100
AcDbLine
 10
2200.0
 20
10090.666666666668
 30
0.0
 11
2305.6000000000004
 21
10090.666666666668
 31
0.0
  0
LINE
  5
2B3
330
17
100
AcDbEntity
  8
WINDOW
100
AcDbLine
 10
2200.0
 20
10070.133333333333
 30
0.0
 11
2305.6000000000004
 21
10070.133333333333
 31
0.0
  0
LINE
  5
2B4
330
17
100
AcDbEntity
  8
WINDOW
100
AcDbLine
 10
2200.0
 20
10049.6
 30
0.0
 11
2305.6000000000004
 21
10049.6
 31
0.0
  0
LINE
  5
2B5
330
17
100
AcDbEntity
  8
WINDOW
100
AcDbLine
 10
2200.0
 20
10111.2
 30
0.0
 11
2200.0
 21
10049.6
 31
0.0
  0
LINE
  5
2B6
330
17
100
AcDbEntity
  8
WINDOW
100
AcDbLine
 10
2305.6000000000004
 20
10111.2
 30
0.0
 11
2305.6000000000004
 21
10049.6
 31
0.0
  0
LINE
  5
2B7
330
17
100
AcDbEntity
  8
WINDOW
100
AcDbLine
 10
2499.2000000000003
 20
10111.2
 30
0.0
 11
2675.2000000000003
 21
10111.2
 31
0.0
  0
LINE
  5
2B8
330
17
100
AcDbEntity
  8
WINDOW
100
AcDbLine
 10
2499.2000000000003
 20
10081.866666666669
 30
0.0
 11
2675.2000000000003
 21
10081.866666666669
 31
0.0
  0
LINE
  5
2B9
330
17
100
AcDbEntity
  8
WINDOW
100
AcDbLine
 10
2499.2000000000003
 20
10052.533333333333
 30
0.0
 11
2675.2000000000003
 21
10052.533333333333
 31
0.0
  0
LINE
  5
2BA
330
17
100
AcDbEntity
  8
WINDOW
100
AcDbLine
 10
2499.2000000000003
 20
10023.2
 30
0.0
 11
2675.2000000000003
 21
10023.2
 31
0.0
  0
LINE
  5
2BB
330
17
100
AcDbEntity
  8
WINDOW
100
AcDbLine
 10
2499.2000000000003
 20
10111.2
 30
0.0
 11
2499.2000000000003
 21
10023.2
 31
0.0
  0
LINE
  5
2BC
330
17
100
AcDbEntity
  8
WINDOW
100
AcDbLine
 10
2675.2000000000003
 20
10111.2
 30
0.0
 11
2675.2000000000003
 21
10023.2
 31
0.0
  0
LINE
  5
2BD
330
17
100
AcDbEntity
  8
WINDOW
100
AcDbLine
 10
1003.2
 20
3502.4
 30
0.0
 11
1566.4
 21
3502.4
 31
0.0
  0
LINE
  5
2BE
330
17
100
AcDbEntity
  8
WINDOW
100
AcDbLine
 10
1003.2
 20
3481.8666666666677
 30
0.0
 11
1566.4
 21
3481.8666666666677
 31
0.0
  0
LINE
  5
2BF
330
17
100
AcDbEntity
  8
WINDOW
100
AcDbLine
 10
1003.2
 20
3461.333333333333
 30
0.0
 11
1566.4
 21
3461.333333333333
 31
0.0
  0
LINE
  5
2C0
330
17
100
AcDbEntity
  8
WINDOW
100
AcDbLine
 10
1003.2
 20
3440.8
 30
0.0
 11
1566.4
 21
3440.8
 31
0.0
  0
LINE
  5
2C1
330
17
100
AcDbEntity
  8
WINDOW
100
AcDbLine
 10
1003.2
 20
3502.4
 30
0.0
 11
1003.2
 21
3440.8
 31
0.0
  0
LINE
  5
2C2
330
17
100
AcDbEntity
  8
WINDOW
100
AcDbLine
 10
1566.4
 20
3502.4
 30
0.0
 11
1566.4
 21
3440.8
 31
0.0
  0
LINE
  5
2C3
330
17
100
AcDbEntity
  8
WINDOW
100
AcDbLine
 10
8289.6
 20
3396.8
 30
0.0
 11
9609.6
 21
3396.8
 31
0.0
  0
LINE
  5
2C4
330
17
100
AcDbEntity
  8
WINDOW
100
AcDbLine
 10
8289.6
 20
3373.333333333333
 30
0.0
 11
9609.6
 21
3373.333333333333
 31
0.0
  0
LINE
  5
2C5
330
17
100
AcDbEntity
  8
WINDOW
100
AcDbLine
 10
8289.6
 20
3349.8666666666677
 30
0.0
 11
9609.6
 21
3349.8666666666677
 31
0.0
  0
LINE
  5
2C6
330
17
100
AcDbEntity
  8
WINDOW
100
AcDbLine
 10
8289.6
 20
3326.4
 30
0.0
 11
9609.6
 21
3326.4
 31
0.0
  0
LINE
  5
2C7
330
17
100
AcDbEntity
  8
WINDOW
100
AcDbLine
 10
8289.6
 20
3396.8
 30
0.0
 11
8289.6
 21
3326.4
 31
0.0
  0
LINE
  5
2C8
330
17
100
AcDbEntity
  8
WINDOW
100
AcDbLine
 10
9609.6
 20
3396.8
 30
0.0
 11
9609.6
 21
3326.4
 31
0.0
  0
LINE
  5
2C9
330
17
100
AcDbEntity
  8
WINDOW
100
AcDbLine
 10
9732.800000000001
 20
2059.2000000000003
 30
0.0
 11
9926.400000000001
 21
2059.2000000000003
 31
0.0
  0
LINE
  5
2CA
330
17
100
AcDbEntity
  8
WINDOW
100
AcDbLine
 10
9732.800000000001
 20
2018.1333333333328
 30
0.0
 11
9926.400000000001
 21
2018.1333333333328
 31
0.0
  0
LINE
  5
2CB
330
17
100
AcDbEntity
  8
WINDOW
100
AcDbLine
 10
9732.800000000001
 20
1977.0666666666675
 30
0.0
 11
9926.400000000001
 21
1977.0666666666675
 31
0.0
  0
LINE
  5
2CC
330
17
100
AcDbEntity
  8
WINDOW
100
AcDbLine
 10
9732.800000000001
 20
1936.0000000000002
 30
0.0
 11
9926.400000000001
 21
1936.0000000000002
 31
0.0
  0
LINE
  5
2CD
330
17
100
AcDbEntity
  8
WINDOW
100
AcDbLine
 10
9732.800000000001
 20
2059.2000000000003
 30
0.0
 11
9732.800000000001
 21
1936.0000000000002
 31
0.0
  0
LINE
  5
2CE
330
17
100
AcDbEntity
  8
WINDOW
100
AcDbLine
 10
9926.400000000001
 20
2059.2000000000003
 30
0.0
 11
9926.400000000001
 21
1936.0000000000002
 31
0.0
  0
LINE
  5
2CF
330
17
100
AcDbEntity
  8
WINDOW
100
AcDbLine
 10
9609.6
 20
1654.4
 30
0.0
 11
9785.6
 21
1654.4
 31
0.0
  0
LINE
  5
2D0
330
17
100
AcDbEntity
  8
WINDOW
100
AcDbLine
 10
9609.6
 20
1622.1333333333328
 30
0.0
 11
9785.6
 21
1622.1333333333328
 31
0.0
  0
LINE
  5
2D1
330
17
100
AcDbEntity
  8
WINDOW
100
AcDbLine
 10
9609.6
 20
1589.8666666666675
 30
0.0
 11
9785.6
 21
1589.8666666666675
 31
0.0
  0
LINE
  5
2D2
330
17
100
AcDbEntity
  8
WINDOW
100
AcDbLine
 10
9609.6
 20
1557.6000000000001
 30
0.0
 11
9785.6
 21
1557.6000000000001
 31
0.0
  0
LINE
  5
2D3
330
17
100
AcDbEntity
  8
WINDOW
100
AcDbLine
 10
9609.6
 20
1654.4
 30
0.0
 11
9609.6
 21
1557.6000000000001
 31
0.0
  0
LINE
  5
2D4
330
17
100
AcDbEntity
  8
WINDOW
100
AcDbLine
 10
9785.6
 20
1654.4
 30
0.0
 11
9785.6
 21
1557.6000000000001
 31
0.0
  0
LINE
  5
2D5
330
17
100
AcDbEntity
  8
WINDOW
100
AcDbLine
 10
4928.0
 20
1108.8000000000002
 30
0.0
 11
6336.000000000001
 21
1108.8000000000002
 31
0.0
  0
LINE
  5
2D6
330
17
100
AcDbEntity
  8
WINDOW
100
AcDbLine
 10
4928.0
 20
1073.6000000000001
 30
0.0
 11
6336.000000000001
 21
1073.6000000000001
 31
0.0
  0
LINE
  5
2D7
330
17
100
AcDbEntity
  8
WINDOW
100
AcDbLine
 10
4928.0
 20
1038.4
 30
0.0
 11
6336.000000000001
 21
1038.4
 31
0.0
  0
LINE
  5
2D8
330
17
100
AcDbEntity
  8
WINDOW
100
AcDbLine
 10
4928.0
 20
1003.2
 30
0.0
 11
6336.000000000001
 21
1003.2
 31
0.0
  0
LINE
  5
2D9
330
17
100
AcDbEntity
  8
WINDOW
100
AcDbLine
 10
4928.0
 20
1108.8000000000002
 30
0.0
 11
4928.0
 21
1003.2
 31
0.0
  0
LINE
  5
2DA
330
17
100
AcDbEntity
  8
WINDOW
100
AcDbLine
 10
6336.000000000001
 20
1108.8000000000002
 30
0.0
 11
6336.000000000001
 21
1003.2
 31
0.0
  0
LINE
  5
2DB
330
17
100
AcDbEntity
  8
WINDOW
100
AcDbLine
 10
6758.400000000001
 20
1144.0
 30
0.0
 11
8888.0
 21
1144.0
 31
0.0
  0
LINE
  5
2DC
330
17
100
AcDbEntity
  8
WINDOW
100
AcDbLine
 10
6758.400000000001
 20
1114.6666666666674
 30
0.0
 11
8888.0
 21
1114.6666666666674
 31
0.0
  0
LINE
  5
2DD
330
17
100
AcDbEntity
  8
WINDOW
100
AcDbLine
 10
6758.400000000001
 20
1085.3333333333328
 30
0.0
 11
8888.0
 21
1085.3333333333328
 31
0.0
  0
LINE
  5
2DE
330
17
100
AcDbEntity
  8
WINDOW
100
AcDbLine
 10
6758.400000000001
 20
1056.0
 30
0.0
 11
8888.0
 21
1056.0
 31
0.0
  0
LINE
  5
2DF
330
17
100
AcDbEntity
  8
WINDOW
100
AcDbLine
 10
6758.400000000001
 20
1144.0
 30
0.0
 11
6758.400000000001
 21
1056.0
 31
0.0
  0
LINE
  5
2E0
330
17
100
AcDbEntity
  8
WINDOW
100
AcDbLine
 10
8888.0
 20
1144.0
 30
0.0
 11
8888.0
 21
1056.0
 31
0.0
  0
LINE
  5
2E1
330
17
100
AcDbEntity
  8
WINDOW
100
AcDbLine
 10
3801.6000000000004
 20
2860.0000000000005
 30
0.0
 11
3801.6000000000004
 21
2138.4
 31
0.0
  0
LINE
  5
2E2
330
17
100
AcDbEntity
  8
WINDOW
100
AcDbLine
 10
3825.066666666667
 20
2860.0000000000005
 30
0.0
 11
3825.066666666667
 21
2138.4
 31
0.0
  0
LINE
  5
2E3
330
17
100
AcDbEntity
  8
WINDOW
100
AcDbLine
 10
3848.5333333333333
 20
2860.0000000000005
 30
0.0
 11
3848.5333333333333
 21
2138.4
 31
0.0
  0
LINE
  5
2E4
330
17
100
AcDbEntity
  8
WINDOW
100
AcDbLine
 10
3872.0000000000005
 20
2860.0000000000005
 30
0.0
 11
3872.0000000000005
 21
2138.4
 31
0.0
  0
LINE
  5
2E5
330
17
100
AcDbEntity
  8
WINDOW
100
AcDbLine
 10
3801.6000000000004
 20
2860.0000000000005
 30
0.0
 11
3872.0000000000005
 21
2860.0000000000005
 31
0.0
  0
LINE
  5
2E6
330
17
100
AcDbEntity
  8
WINDOW
100
AcDbLine
 10
3801.6000000000004
 20
2138.4
 30
0.0
 11
3872.0000000000005
 21
2138.4
 31
0.0
  0
LINE
  5
2E7
330
17
100
AcDbEntity
  8
WINDOW
100
AcDbLine
 10
6793.6
 20
9477.6
 30
0.0
 11
6793.6
 21
9178.400000000001
 31
0.0
  0
LINE
  5
2E8
330
17
100
AcDbEntity
  8
WINDOW
100
AcDbLine
 10
6822.933333333334
 20
9477.6
 30
0.0
 11
6822.933333333334
 21
9178.400000000001
 31
0.0
  0
LINE
  5
2E9
330
17
100
AcDbEntity
  8
WINDOW
100
AcDbLine
 10
6852.266666666667
 20
9477.6
 30
0.0
 11
6852.266666666667
 21
9178.400000000001
 31
0.0
  0
LINE
  5
2EA
330
17
100
AcDbEntity
  8
WINDOW
100
AcDbLine
 10
6881.6
 20
9477.6
 30
0.0
 11
6881.6
 21
9178.400000000001
 31
0.0
  0
LINE
  5
2EB
330
17
100
AcDbEntity
  8
WINDOW
100
AcDbLine
 10
6793.6
 20
9477.6
 30
0.0
 11
6881.6
 21
9477.6
 31
0.0
  0
LINE
  5
2EC
330
17
100
AcDbEntity
  8
WINDOW
100
AcDbLine
 10
6793.6
 20
9178.400000000001
 30
0.0
 11
6881.6
 21
9178.400000000001
 31
0.0
  0
LINE
  5
2ED
330
17
100
AcDbEntity
  8
WINDOW
100
AcDbLine
 10
6758.400000000001
 20
8800.0
 30
0.0
 11
6758.400000000001
 21
7480.000000000001
 31
0.0
  0
LINE
  5
2EE
330
17
100
AcDbEntity
  8
WINDOW
100
AcDbLine
 10
6793.6
 20
8800.0
 30
0.0
 11
6793.6
 21
7480.000000000001
 31
0.0
  0
LINE
  5
2EF
330
17
100
AcDbEntity
  8
WINDOW
100
AcDbLine
 10
6828.8
 20
8800.0
 30
0.0
 11
6828.8
 21
7480.000000000001
 31
0.0
  0
LINE
  5
2F0
330
17
100
AcDbEntity
  8
WINDOW
100
AcDbLine
 10
6864.000000000001
 20
8800.0
 30
0.0
 11
6864.000000000001
 21
7480.000000000001
 31
0.0
  0
LINE
  5
2F1
330
17
100
AcDbEntity
  8
WINDOW
100
AcDbLine
 10
6758.400000000001
 20
8800.0
 30
0.0
 11
6864.000000000001
 21
8800.0
 31
0.0
  0
LINE
  5
2F2
330
17
100
AcDbEntity
  8
WINDOW
100
AcDbLine
 10
6758.400000000001
 20
7480.000000000001
 30
0.0
 11
6864.000000000001
 21
7480.000000000001
 31
0.0
  0
LINE
  5
2F3
330
17
100
AcDbEntity
  8
WINDOW
100
AcDbLine
 10
7180.8
 20
10648.0
 30
0.0
 11
7180.8
 21
10586.400000000001
 31
0.0
  0
LINE
  5
2F4
330
17
100
AcDbEntity
  8
WINDOW
100
AcDbLine
 10
7227.7333333333345
 20
10648.0
 30
0.0
 11
7227.7333333333345
 21
10586.400000000001
 31
0.0
  0
LINE
  5
2F5
330
17
100
AcDbEntity
  8
WINDOW
100
AcDbLine
 10
7274.666666666667
 20
10648.0
 30
0.0
 11
7274.666666666667
 21
10586.400000000001
 31
0.0
  0
LINE
  5
2F6
330
17
100
AcDbEntity
  8
WINDOW
100
AcDbLine
 10
7321.6
 20
10648.0
 30
0.0
 11
7321.6
 21
10586.400000000001
 31
0.0
  0
LINE
  5
2F7
330
17
100
AcDbEntity
  8
WINDOW
100
AcDbLine
 10
7180.8
 20
10648.0
 30
0.0
 11
7321.6
 21
10648.0
 31
0.0
  0
LINE
  5
2F8
330
17
100
AcDbEntity
  8
WINDOW
100
AcDbLine
 10
7180.8
 20
10586.400000000001
 30
0.0
 11
7321.6
 21
10586.400000000001
 31
0.0
  0
LINE
  5
2F9
330
17
100
AcDbEntity
  8
WINDOW
100
AcDbLine
 10
7444.8
 20
11061.6
 30
0.0
 11
7444.8
 21
10850.400000000001
 31
0.0
  0
LINE
  5
2FA
330
17
100
AcDbEntity
  8
WINDOW
100
AcDbLine
 10
7468.266666666667
 20
11061.6
 30
0.0
 11
7468.266666666667
 21
10850.400000000001
 31
0.0
  0
LINE
  5
2FB
330
17
100
AcDbEntity
  8
WINDOW
100
AcDbLine
 10
7491.7333333333345
 20
11061.6
 30
0.0
 11
7491.7333333333345
 21
10850.400000000001
 31
0.0
  0
LINE
  5
2FC
330
17
100
AcDbEntity
  8
WINDOW
100
AcDbLine
 10
7515.200000000001
 20
11061.6
 30
0.0
 11
7515.200000000001
 21
10850.400000000001
 31
0.0
  0
LINE
  5
2FD
330
17
100
AcDbEntity
  8
WINDOW
100
AcDbLine
 10
7444.8
 20
11061.6
 30
0.0
 11
7515.200000000001
 21
11061.6
 31
0.0
  0
LINE
  5
2FE
330
17
100
AcDbEntity
  8
WINDOW
100
AcDbLine
 10
7444.8
 20
10850.400000000001
 30
0.0
 11
7515.200000000001
 21
10850.400000000001
 31
0.0
  0
LINE
  5
2FF
330
17
100
AcDbEntity
  8
WINDOW
100
AcDbLine
 10
7444.8
 20
10348.800000000001
 30
0.0
 11
7444.8
 21
7972.800000000001
 31
0.0
  0
LINE
  5
300
330
17
100
AcDbEntity
  8
WINDOW
100
AcDbLine
 10
7491.7333333333345
 20
10348.800000000001
 30
0.0
 11
7491.7333333333345
 21
7972.800000000001
 31
0.0
  0
LINE
  5
301
330
17
100
AcDbEntity
  8
WINDOW
100
AcDbLine
 10
7538.666666666667
 20
10348.800000000001
 30
0.0
 11
7538.666666666667
 21
7972.800000000001
 31
0.0
  0
LINE
  5
302
330
17
100
AcDbEntity
  8
WINDOW
100
AcDbLine
 10
7585.6
 20
10348.800000000001
 30
0.0
 11
7585.6
 21
7972.800000000001
 31
0.0
  0
LINE
  5
303
330
17
100
AcDbEntity
  8
WINDOW
100
AcDbLine
 10
7444.8
 20
10348.800000000001
 30
0.0
 11
7585.6
 21
10348.800000000001
 31
0.0
  0
LINE
  5
304
330
17
100
AcDbEntity
  8
WINDOW
100
AcDbLine
 10
7444.8
 20
7972.800000000001
 30
0.0
 11
7585.6
 21
7972.800000000001
 31
0.0
  0
LINE
  5
305
330
17
100
AcDbEntity
  8
WINDOW
100
AcDbLine
 10
10014.400000000001
 20
9512.800000000001
 30
0.0
 11
10014.400000000001
 21
9178.400000000001
 31
0.0
  0
LINE
  5
306
330
17
100
AcDbEntity
  8
WINDOW
100
AcDbLine
 10
10043.733333333334
 20
9512.800000000001
 30
0.0
 11
10043.733333333334
 21
9178.400000000001
 31
0.0
  0
LINE
  5
307
330
17
100
AcDbEntity
  8
WINDOW
100
AcDbLine
 10
10073.066666666668
 20
9512.800000000001
 30
0.0
 11
10073.066666666668
 21
9178.400000000001
 31
0.0
  0
LINE
  5
308
330
17
100
AcDbEntity
  8
WINDOW
100
AcDbLine
 10
10102.400000000001
 20
9512.800000000001
 30
0.0
 11
10102.400000000001
 21
9178.400000000001
 31
0.0
  0
LINE
  5
309
330
17
100
AcDbEntity
  8
WINDOW
100
AcDbLine
 10
10014.400000000001
 20
9512.800000000001
 30
0.0
 11
10102.400000000001
 21
9512.800000000001
 31
0.0
  0
LINE
  5
30A
330
17
100
AcDbEntity
  8
WINDOW
100
AcDbLine
 10
10014.400000000001
 20
9178.400000000001
 30
0.0
 11
10102.400000000001
 21
9178.400000000001
 31
0.0
  0
LINE
  5
30B
330
17
100
AcDbEntity
  8
WINDOW
100
AcDbLine
 10
11968.000000000002
 20
4250.400000000001
 30
0.0
 11
11968.000000000002
 21
3722.4
 31
0.0
  0
LINE
  5
30C
330
17
100
AcDbEntity
  8
WINDOW
100
AcDbLine
 10
11997.333333333334
 20
4250.400000000001
 30
0.0
 11
11997.333333333334
 21
3722.4
 31
0.0
  0
LINE
  5
30D
330
17
100
AcDbEntity
  8
WINDOW
100
AcDbLine
 10
12026.666666666668
 20
4250.400000000001
 30
0.0
 11
12026.666666666668
 21
3722.4
 31
0.0
  0
LINE
  5
30E
330
17
100
AcDbEntity
  8
WINDOW
100
AcDbLine
 10
12056.000000000002
 20
4250.400000000001
 30
0.0
 11
12056.000000000002
 21
3722.4
 31
0.0
  0
LINE
  5
30F
330
17
100
AcDbEntity
  8
WINDOW
100
AcDbLine
 10
11968.000000000002
 20
4250.400000000001
 30
0.0
 11
12056.000000000002
 21
4250.400000000001
 31
0.0
  0
LINE
  5
310
330
17
100
AcDbEntity
  8
WINDOW
100
AcDbLine
 10
11968.000000000002
 20
3722.4
 30
0.0
 11
12056.000000000002
 21
3722.4
 31
0.0
  0
LINE
  5
311
330
17
100
AcDbEntity
  8
WINDOW
100
AcDbLine
 10
12073.6
 20
4162.400000000001
 30
0.0
 11
12073.6
 21
3652.0000000000005
 31
0.0
  0
LINE
  5
312
330
17
100
AcDbEntity
  8
WINDOW
100
AcDbLine
 10
12102.933333333334
 20
4162.400000000001
 30
0.0
 11
12102.933333333334
 21
3652.0000000000005
 31
0.0
  0
LINE
  5
313
330
17
100
AcDbEntity
  8
WINDOW
100
AcDbLine
 10
12132.266666666668
 20
4162.400000000001
 30
0.0
 11
12132.266666666668
 21
3652.0000000000005
 31
0.0
  0
LINE
  5
314
330
17
100
AcDbEntity
  8
WINDOW
100
AcDbLine
 10
12161.6
 20
4162.400000000001
 30
0.0
 11
12161.6
 21
3652.0000000000005
 31
0.0
  0
LINE
  5
315
330
17
100
AcDbEntity
  8
WINDOW
100
AcDbLine
 10
12073.6
 20
4162.400000000001
 30
0.0
 11
12161.6
 21
4162.400000000001
 31
0.0
  0
LINE
  5
316
330
17
100
AcDbEntity
  8
WINDOW
100
AcDbLine
 10
12073.6
 20
3652.0000000000005
 30
0.0
 11
12161.6
 21
3652.0000000000005
 31
0.0
  0
LINE
  5
317
330
17
100
AcDbEntity
  8
WINDOW
100
AcDbLine
 10
12073.6
 20
3212.0000000000005
 30
0.0
 11
12073.6
 21
3088.8
 31
0.0
  0
LINE
  5
318
330
17
100
AcDbEntity
  8
WINDOW
100
AcDbLine
 10
12108.800000000001
 20
3212.0000000000005
 30
0.0
 11
12108.800000000001
 21
3088.8
 31
0.0
  0
LINE
  5
319
330
17
100
AcDbEntity
  8
WINDOW
100
AcDbLine
 10
12144.000000000002
 20
3212.0000000000005
 30
0.0
 11
12144.000000000002
 21
3088.8
 31
0.0
  0
LINE
  5
31A
330
17
100
AcDbEntity
  8
WINDOW
100
AcDbLine
 10
12179.2
 20
3212.0000000000005
 30
0.0
 11
12179.2
 21
3088.8
 31
0.0
  0
LINE
  5
31B
330
17
100
AcDbEntity
  8
WINDOW
100
AcDbLine
 10
12073.6
 20
3212.0000000000005
 30
0.0
 11
12179.2
 21
3212.0000000000005
 31
0.0
  0
LINE
  5
31C
330
17
100
AcDbEntity
  8
WINDOW
100
AcDbLine
 10
12073.6
 20
3088.8
 30
0.0
 11
12179.2
 21
3088.8
 31
0.0
  0
ENDSEC
  0
SECTION
  2
OBJECTS
  0
DICTIONARY
  5
A
330
0
100
AcDbDictionary
281
1
  3
ACAD_COLOR
350
B
  3
ACAD_GROUP
350
C
  3
ACAD_LAYOUT
350
D
  3
ACAD_MATERIAL
350
E
  3
ACAD_MLEADERSTYLE
350
F
  3
ACAD_MLINESTYLE
350
10
  3
ACAD_PLOTSETTINGS
350
11
  3
ACAD_PLOTSTYLENAME
350
12
  3
ACAD_SCALELIST
350
14
  3
ACAD_TABLESTYLE
350
15
  3
ACAD_VISUALSTYLE
350
16
  3
EZDXF_META
350
2D
  0
DICTIONARY
  5
B
330
A
100
AcDbDictionary
281
1
  0
DICTIONARY
  5
C
330
A
100
AcDbDictionary
281
1
  0
DICTIONARY
  5
D
330
A
100
AcDbDictionary
281
1
  3
Model
350
1A
  3
Layout1
350
1E
  0
DICTIONARY
  5
E
330
A
100
AcDbDictionary
281
1
  3
ByBlock
350
1F
  3
ByLayer
350
20
  3
Global
350
21
  0
DICTIONARY
  5
F
330
A
100
AcDbDictionary
281
1
  3
Standard
350
2C
  0
DICTIONARY
  5
10
330
A
100
AcDbDictionary
281
1
  3
Standard
350
22
  0
DICTIONARY
  5
11
330
A
100
AcDbDictionary
281
1
  0
ACDBDICTIONARYWDFLT
  5
12
330
A
100
AcDbDictionary
281
1
  3
Normal
350
13
100
AcDbDictionaryWithDefault
340
13
  0
ACDBPLACEHOLDER
  5
13
330
12
  0
DICTIONARY
  5
14
330
A
100
AcDbDictionary
281
1
  0
DICTIONARY
  5
15
330
A
100
AcDbDictionary
281
1
  0
DICTIONARY
  5
16
330
A
100
AcDbDictionary
281
1
  0
LAYOUT
  5
1A
330
D
100
AcDbPlotSettings
  1

  4
A3
  6

 40
7.5
 41
20.0
 42
7.5
 43
20.0
 44
420.0
 45
297.0
 46
0.0
 47
0.0
 48
0.0
 49
0.0
140
0.0
141
0.0
142
1.0
143
1.0
 70
1024
 72
1
 73
0
 74
5
  7

 75
16
 76
0
 77
2
 78
300
147
1.0
148
0.0
149
0.0
100
AcDbLayout
  1
Model
 70
1
 71
0
 10
0.0
 20
0.0
 11
420.0
 21
297.0
 12
0.0
 22
0.0
 32
0.0
 14
1e+20
 24
1e+20
 34
1e+20
 15
-1e+20
 25
-1e+20
 35
-1e+20
146
0.0
 13
0.0
 23
0.0
 33
0.0
 16
1.0
 26
0.0
 36
0.0
 17
0.0
 27
1.0
 37
0.0
 76
1
330
17
  0
LAYOUT
  5
1E
330
D
100
AcDbPlotSettings
  1

  4
A3
  6

 40
7.5
 41
20.0
 42
7.5
 43
20.0
 44
420.0
 45
297.0
 46
0.0
 47
0.0
 48
0.0
 49
0.0
140
0.0
141
0.0
142
1.0
143
1.0
 70
0
 72
1
 73
0
 74
5
  7

 75
16
 76
0
 77
2
 78
300
147
1.0
148
0.0
149
0.0
100
AcDbLayout
  1
Layout1
 70
1
 71
1
 10
0.0
 20
0.0
 11
420.0
 21
297.0
 12
0.0
 22
0.0
 32
0.0
 14
1e+20
 24
1e+20
 34
1e+20
 15
-1e+20
 25
-1e+20
 35
-1e+20
146
0.0
 13
0.0
 23
0.0
 33
0.0
 16
1.0
 26
0.0
 36
0.0
 17
0.0
 27
1.0
 37
0.0
 76
1
330
1B
  0
MATERIAL
  5
1F
102
{ACAD_REACTORS
330
E
102
}
330
E
100
AcDbMaterial
  1
ByBlock
  2

 70
0
 40
1.0
 71
1
 41
1.0
 91
-1023410177
 42
1.0
 72
1
  3

 73
1
 74
1
 75
1
 44
0.5
 73
0
 45
1.0
 46
1.0
 77
1
  4

 78
1
 79
1
170
1
 48
1.0
171
1
  6

172
1
173
1
174
1
140
1.0
141
1.0
175
1
  7

176
1
177
1
178
1
143
1.0
179
1
  8

270
1
271
1
272
1
145
1.0
146
1.0
273
1
  9

274
1
275
1
276
1
 42
1.0
 72
1
  3

 73
1
 74
1
 75
1
 94
63
  0
MATERIAL
  5
20
102
{ACAD_REACTORS
330
E
102
}
330
E
100
AcDbMaterial
  1
ByLayer
  2

 70
0
 40
1.0
 71
1
 41
1.0
 91
-1023410177
 42
1.0
 72
1
  3

 73
1
 74
1
 75
1
 44
0.5
 73
0
 45
1.0
 46
1.0
 77
1
  4

 78
1
 79
1
170
1
 48
1.0
171
1
  6

172
1
173
1
174
1
140
1.0
141
1.0
175
1
  7

176
1
177
1
178
1
143
1.0
179
1
  8

270
1
271
1
272
1
145
1.0
146
1.0
273
1
  9

274
1
275
1
276
1
 42
1.0
 72
1
  3

 73
1
 74
1
 75
1
 94
63
  0
MATERIAL
  5
21
102
{ACAD_REACTORS
330
E
102
}
330
E
100
AcDbMaterial
  1
Global
  2

 70
0
 40
1.0
 71
1
 41
1.0
 91
-1023410177
 42
1.0
 72
1
  3

 73
1
 74
1
 75
1
 44
0.5
 73
0
 45
1.0
 46
1.0
 77
1
  4

 78
1
 79
1
170
1
 48
1.0
171
1
  6

172
1
173
1
174
1
140
1.0
141
1.0
175
1
  7

176
1
177
1
178
1
143
1.0
179
1
  8

270
1
271
1
272
1
145
1.0
146
1.0
273
1
  9

274
1
275
1
276
1
 42
1.0
 72
1
  3

 73
1
 74
1
 75
1
 94
63
  0
MLINESTYLE
  5
22
102
{ACAD_REACTORS
330
10
102
}
330
10
100
AcDbMlineStyle
  2
Standard
 70
0
  3

 62
256
 51
90.0
 52
90.0
 71
2
 49
0.5
 62
256
  6
BYLAYER
 49
-0.5
 62
256
  6
BYLAYER
  0
MLEADERSTYLE
  5
2C
102
{ACAD_REACTORS
330
F
102
}
330
F
100
AcDbMLeaderStyle
179
2
170
2
171
1
172
0
 90
2
 40
0.0
 41
0.0
173
1
 91
-1056964608
 92
-2
290
1
 42
2.0
291
1
 43
8.0
  3
Standard
 44
4.0
300

342
29
174
1
175
1
176
0
178
1
 93
-1056964608
 45
4.0
292
0
297
0
 46
4.0
 94
-1056964608
 47
1.0
 49
1.0
140
1.0
294
1
141
0.0
177
0
142
1.0
295
0
296
0
143
3.75
271
0
272
9
273
9
  0
DICTIONARY
  5
2D
330
A
100
AcDbDictionary
280
1
281
1
  3
CREATED_BY_EZDXF
350
2E
  3
WRITTEN_BY_EZDXF
350
31F
  0
DICTIONARYVAR
  5
2E
330
2D
100
DictionaryVariables
280
0
  1
1.4.4 @ 2026-07-12T08:53:26.944529+00:00
  0
DICTIONARYVAR
  5
31F
330
2D
100
DictionaryVariables
280
0
  1
1.4.4 @ 2026-07-12T08:53:26.958625+00:00
  0
ENDSEC
  0
EOF
