<?xml version="1.0" ?>
<svg xmlns="http://www.w3.org/2000/svg" xmlns:xlink="http://www.w3.org/1999/xlink" width="575" height="800" viewBox="0 0 575 800">
 <image xlink:href="F1_scaled.png" x="0" y="0" width="575" height="800"/>
 <g id="Model" class="Model">
  <g id="Wall" class="Wall">
   <polygon points="34.0,33.0 136.0,33.0 136.0,45.0 34.0,45.0 " fill="#cc2222" fill-opacity="0.45" stroke="#cc2222" stroke-width="2"/>
  </g>
  <g id="Wall" class="Wall">
   <polygon points="197.0,33.0 385.0,33.0 385.0,45.0 197.0,45.0 " fill="#cc2222" fill-opacity="0.45" stroke="#cc2222" stroke-width="2"/>
  </g>
  <g id="Wall" class="Wall">
   <polygon points="446.0,33.0 548.0,33.0 548.0,45.0 446.0,45.0 " fill="#cc2222" fill-opacity="0.45" stroke="#cc2222" stroke-width="2"/>
  </g>
  <g id="Wall" class="Wall">
   <polygon points="127.0,259.0 218.0,259.0 218.0,267.0 127.0,267.0 " fill="#cc2222" fill-opacity="0.45" stroke="#cc2222" stroke-width="2"/>
  </g>
  <g id="Wall" class="Wall">
   <polygon points="362.0,259.0 548.0,259.0 548.0,267.0 362.0,267.0 " fill="#cc2222" fill-opacity="0.45" stroke="#cc2222" stroke-width="2"/>
  </g>
  <g id="Wall" class="Wall">
   <polygon points="34.0,300.0 136.0,300.0 136.0,312.0 34.0,312.0 " fill="#cc2222" fill-opacity="0.45" stroke="#cc2222" stroke-width="2"/>
  </g>
  <g id="Wall" class="Wall">
   <polygon points="127.0,338.0 248.0,338.0 248.0,346.0 127.0,346.0 " fill="#cc2222" fill-opacity="0.45" stroke="#cc2222" stroke-width="2"/>
  </g>
  <g id="Wall" class="Wall">
   <polygon points="34.0,469.0 248.0,469.0 248.0,477.0 34.0,477.0 " fill="#cc2222" fill-opacity="0.45" stroke="#cc2222" stroke-width="2"/>
  </g>
  <g id="Wall" class="Wall">
   <polygon points="34.0,636.0 73.0,636.0 73.0,648.0 34.0,648.0 " fill="#cc2222" fill-opacity="0.45" stroke="#cc2222" stroke-width="2"/>
  </g>
  <g id="Wall" class="Wall">
   <polygon points="198.0,636.0 332.0,636.0 332.0,648.0 198.0,648.0 " fill="#cc2222" fill-opacity="0.45" stroke="#cc2222" stroke-width="2"/>
  </g>
  <g id="Wall" class="Wall">
   <polygon points="451.0,636.0 548.0,636.0 548.0,648.0 451.0,648.0 " fill="#cc2222" fill-opacity="0.45" stroke="#cc2222" stroke-width="2"/>
  </g>
  <g id="Wall" class="Wall">
   <polygon points="33.0,34.0 45.0,34.0 45.0,649.0 33.0,649.0 " fill="#cc2222" fill-opacity="0.45" stroke="#cc2222" stroke-width="2"/>
  </g>
  <g id="Wall" class="Wall">
   <polygon points="285.0,34.0 293.0,34.0 293.0,268.0 285.0,268.0 " fill="#cc2222" fill-opacity="0.45" stroke="#cc2222" stroke-width="2"/>
  </g>
  <g id="Wall" class="Wall">
   <polygon points="535.0,34.0 547.0,34.0 547.0,86.0 535.0,86.0 " fill="#cc2222" fill-opacity="0.45" stroke="#cc2222" stroke-width="2"/>
  </g>
  <g id="Wall" class="Wall">
   <polygon points="535.0,205.0 547.0,205.0 547.0,282.0 535.0,282.0 " fill="#cc2222" fill-opacity="0.45" stroke="#cc2222" stroke-width="2"/>
  </g>
  <g id="Wall" class="Wall">
   <polygon points="465.0,219.0 474.0,219.0 474.0,268.0 465.0,268.0 " fill="#cc2222" fill-opacity="0.45" stroke="#cc2222" stroke-width="2"/>
  </g>
  <g id="Wall" class="Wall">
   <polygon points="126.0,259.0 135.0,259.0 135.0,347.0 126.0,347.0 " fill="#cc2222" fill-opacity="0.45" stroke="#cc2222" stroke-width="2"/>
  </g>
  <g id="Wall" class="Wall">
   <polygon points="535.0,400.0 547.0,400.0 547.0,477.0 535.0,477.0 " fill="#cc2222" fill-opacity="0.45" stroke="#cc2222" stroke-width="2"/>
  </g>
  <g id="Wall" class="Wall">
   <polygon points="147.0,418.0 155.0,418.0 155.0,478.0 147.0,478.0 " fill="#cc2222" fill-opacity="0.45" stroke="#cc2222" stroke-width="2"/>
  </g>
  <g id="Wall" class="Wall">
   <polygon points="238.0,418.0 247.0,418.0 247.0,478.0 238.0,478.0 " fill="#cc2222" fill-opacity="0.45" stroke="#cc2222" stroke-width="2"/>
  </g>
  <g id="Wall" class="Wall">
   <polygon points="535.0,596.0 547.0,596.0 547.0,649.0 535.0,649.0 " fill="#cc2222" fill-opacity="0.45" stroke="#cc2222" stroke-width="2"/>
  </g>
  <g id="Window" class="Window">
   <polygon points="136.0,33.0 197.0,33.0 197.0,45.0 136.0,45.0 " fill="#22aa22" fill-opacity="0.6" stroke="#22aa22" stroke-width="2"/>
  </g>
  <g id="Window" class="Window">
   <polygon points="385.0,33.0 446.0,33.0 446.0,45.0 385.0,45.0 " fill="#22aa22" fill-opacity="0.6" stroke="#22aa22" stroke-width="2"/>
  </g>
  <g id="Window" class="Window">
   <polygon points="73.0,636.0 198.0,636.0 198.0,648.0 73.0,648.0 " fill="#22aa22" fill-opacity="0.6" stroke="#22aa22" stroke-width="2"/>
  </g>
  <g id="Window" class="Window">
   <polygon points="332.0,636.0 396.0,636.0 396.0,648.0 332.0,648.0 " fill="#22aa22" fill-opacity="0.6" stroke="#22aa22" stroke-width="2"/>
  </g>
  <g id="Window" class="Window">
   <polygon points="535.0,86.0 547.0,86.0 547.0,205.0 535.0,205.0 " fill="#22aa22" fill-opacity="0.6" stroke="#22aa22" stroke-width="2"/>
  </g>
  <g id="Window" class="Window">
   <polygon points="535.0,282.0 547.0,282.0 547.0,400.0 535.0,400.0 " fill="#22aa22" fill-opacity="0.6" stroke="#22aa22" stroke-width="2"/>
  </g>
  <g id="Window" class="Window">
   <polygon points="535.0,477.0 547.0,477.0 547.0,596.0 535.0,596.0 " fill="#22aa22" fill-opacity="0.6" stroke="#22aa22" stroke-width="2"/>
  </g>
  <g id="Door" class="Door">
   <polygon points="293.0,194.0 362.0,194.0 362.0,332.0 293.0,332.0 " fill="#ddaa00" fill-opacity="0.6" stroke="#ddaa00" stroke-width="2"/>
  </g>
  <g id="Door" class="Door">
   <polygon points="79.0,346.0 79.0,418.0 223.0,418.0 223.0,346.0 " fill="#ddaa00" fill-opacity="0.6" stroke="#ddaa00" stroke-width="2"/>
  </g>
  <g id="Door" class="Door">
   <polygon points="84.5,478.0 84.5,636.0 400.5,636.0 400.5,478.0 " fill="#ddaa00" fill-opacity="0.6" stroke="#ddaa00" stroke-width="2"/>
  </g>
  <g id="Door" class="Door">
   <polygon points="170.5,346.0 170.5,418.0 314.5,418.0 314.5,346.0 " fill="#ddaa00" fill-opacity="0.6" stroke="#ddaa00" stroke-width="2"/>
  </g>
  <g class="Space Kitchen">
   <polygon points="136.0,46.0 136.0,258.0 284.0,258.0 284.0,46.0 " fill="#e8843c" fill-opacity="0.35" stroke="#e8843c" stroke-width="2"/>
   <text x="210" y="152" font-size="22" text-anchor="middle" fill="#000000">Kitchen</text>
  </g>
  <g class="Space Kitchen">
   <polygon points="294.0,46.0 294.0,258.0 464.0,258.0 464.0,46.0 " fill="#e8843c" fill-opacity="0.35" stroke="#e8843c" stroke-width="2"/>
   <text x="379" y="152" font-size="22" text-anchor="middle" fill="#000000">Kitchen</text>
  </g>
  <g class="Space LivingRoom">
   <polygon points="249.0,269.0 248.0,635.0 534.0,635.0 534.0,269.0 " fill="#7dc37d" fill-opacity="0.35" stroke="#7dc37d" stroke-width="2"/>
   <text x="391" y="452" font-size="22" text-anchor="middle" fill="#000000">LivingRoom</text>
  </g>
  <g class="Space Bath">
   <polygon points="156.0,347.0 156.0,468.0 237.0,468.0 237.0,347.0 " fill="#3dbdbd" fill-opacity="0.35" stroke="#3dbdbd" stroke-width="2"/>
   <text x="196" y="408" font-size="22" text-anchor="middle" fill="#000000">Bath</text>
  </g>
  <g class="Space Kitchen">
   <polygon points="88.0,479.0 88.0,635.0 237.0,635.0 237.0,478.0 " fill="#e8843c" fill-opacity="0.35" stroke="#e8843c" stroke-width="2"/>
   <text x="162" y="557" font-size="22" text-anchor="middle" fill="#000000">Kitchen</text>
  </g>
 </g>
</svg>
