<?xml version="1.0" ?><svg xmlns:inkscape="http://www.inkscape.org/namespaces/inkscape" xmlns:sodipodi="http://sodipodi.sourceforge.net/DTD/sodipodi-0.dtd" xmlns:xlink="http://www.w3.org/1999/xlink" xmlns="http://www.w3.org/2000/svg" xmlns:svg="http://www.w3.org/2000/svg" width="757" height="677" viewBox="0 0 757 677" version="1.1" id="svg24" sodipodi:docname="model.svg" inkscape:version="1.4.4 (dcaf3e7, 2026-05-05)">
  <defs id="defs24"/>
  <sodipodi:namedview id="namedview24" pagecolor="#ffffff" bordercolor="#000000" borderopacity="0.25" inkscape:showpageshadow="2" inkscape:pageopacity="0.0" inkscape:pagecheckerboard="0" inkscape:deskcolor="#d1d1d1" inkscape:zoom="0.85124376" inkscape:cx="237.29983" inkscape:cy="273.12975" inkscape:window-width="1920" inkscape:window-height="1017" inkscape:window-x="-8" inkscape:window-y="-8" inkscape:window-maximized="1" inkscape:current-layer="Model"/>
  <image xlink:href="F1_scaled.png" x="0" y="0" width="757" height="677" id="image1"/>
  <g id="Model" class="Model">
    <g id="Wall" class="Wall">
      <polygon points="0.0,1.0 141.0,1.0 141.0,13.0 0.0,13.0 " fill="#cc2222" fill-opacity="0.45" stroke="#cc2222" stroke-width="2" id="polygon1"/>
    </g>
    <g id="g2" class="Wall">
      <polygon points="239.0,1.0 380.0,1.0 380.0,13.0 239.0,13.0 " fill="#cc2222" fill-opacity="0.45" stroke="#cc2222" stroke-width="2" id="polygon2"/>
    </g>
    <g id="g3" class="Wall">
      <polygon points="478.0,1.0 583.0,1.0 583.0,12.0 478.0,12.0 " fill="#cc2222" fill-opacity="0.45" stroke="#cc2222" stroke-width="2" id="polygon3"/>
    </g>
    <g id="g4" class="Wall">
      <polygon points="681.0,1.0 757.0,1.0 757.0,12.0 681.0,12.0 " fill="#cc2222" fill-opacity="0.45" stroke="#cc2222" stroke-width="2" id="polygon4"/>
    </g>
    <g id="g5" class="Wall">
      <polygon points="0.0,426.0 137.0,426.0 137.0,438.0 0.0,438.0 " fill="#cc2222" fill-opacity="0.45" stroke="#cc2222" stroke-width="2" id="polygon5"/>
    </g>
    <g id="g6" class="Wall">
      <polygon points="239.0,426.0 376.0,426.0 376.0,438.0 239.0,438.0 " fill="#cc2222" fill-opacity="0.45" stroke="#cc2222" stroke-width="2" id="polygon6"/>
    </g>
    <g id="g7" class="Wall">
      <polygon points="0.0,505.0 217.0,505.0 217.0,516.0 0.0,516.0 " fill="#cc2222" fill-opacity="0.45" stroke="#cc2222" stroke-width="2" id="polygon7"/>
    </g>
    <g id="g8" class="Wall">
      <polygon points="435.0,505.0 757.0,505.0 757.0,517.0 435.0,517.0 " fill="#cc2222" fill-opacity="0.45" stroke="#cc2222" stroke-width="2" id="polygon8"/>
    </g>
    <g id="g9" class="Wall">
      <polygon points="0.0,664.0 757.0,664.0 757.0,676.0 0.0,676.0 " fill="#cc2222" fill-opacity="0.45" stroke="#cc2222" stroke-width="2" id="polygon9"/>
    </g>
    <g id="g10" class="Wall">
      <polygon points="0.0,1.0 12.0,1.0 12.0,676.0 0.0,676.0 " fill="#cc2222" fill-opacity="0.45" stroke="#cc2222" stroke-width="2" id="polygon10"/>
    </g>
    <g id="g11" class="Wall">
      <polygon points="239.0,1.0 251.0,1.0 251.0,438.0 239.0,438.0 " fill="#cc2222" fill-opacity="0.45" stroke="#cc2222" stroke-width="2" id="polygon11"/>
    </g>
    <g id="g12" class="Wall">
      <polygon points="479.0,1.0 491.0,1.0 491.0,438.0 479.0,438.0 " fill="#cc2222" fill-opacity="0.45" stroke="#cc2222" stroke-width="2" id="polygon12"/>
    </g>
    <g id="g13" class="Wall">
      <polygon points="745.0,1.0 757.0,1.0 757.0,676.0 745.0,676.0 " fill="#cc2222" fill-opacity="0.45" stroke="#cc2222" stroke-width="2" id="polygon13"/>
    </g>
    <g id="g14" class="Wall">
      <polygon points="320.0,505.0 332.0,505.0 332.0,676.0 320.0,676.0 " fill="#cc2222" fill-opacity="0.45" stroke="#cc2222" stroke-width="2" id="polygon14"/>
    </g>
    <g id="Window" class="Window">
      <polygon points="141.0,1.0 239.0,1.0 239.0,13.0 141.0,13.0 " fill="#22aa22" fill-opacity="0.6" stroke="#22aa22" stroke-width="2" id="polygon15"/>
    </g>
    <g id="g16" class="Window">
      <polygon points="380.0,1.0 478.0,1.0 478.0,13.0 380.0,13.0 " fill="#22aa22" fill-opacity="0.6" stroke="#22aa22" stroke-width="2" id="polygon16"/>
    </g>
    <g id="g17" class="Window">
      <polygon points="583.0,1.0 681.0,1.0 681.0,12.0 583.0,12.0 " fill="#22aa22" fill-opacity="0.6" stroke="#22aa22" stroke-width="2" id="polygon17"/>
    </g>
    <g class="Space LivingRoom" id="g18">
      <polygon points="493,14 491,503 743,503 743,14 " fill="#d9d9d9" fill-opacity="0.35" stroke="#d9d9d9" stroke-width="2" id="polygon18" style="fill:#7ec37e;fill-opacity:0.34999999;stroke:#7ec37e;stroke-opacity:1"/>
      <text x="618" y="258" font-size="22" text-anchor="middle" fill="#000000" id="text18" style="-inkscape-font-specification:'sans-serif, Normal';font-family:sans-serif;font-weight:normal;font-style:normal;font-stretch:normal;font-variant:normal;font-size:22px;font-variant-ligatures:normal;font-variant-caps:normal;font-variant-numeric:normal;font-variant-east-asian:normal;text-anchor:middle;fill:#000000"><tspan sodipodi:role="line" id="tspan27">Living Room</tspan></text>
    </g>
    <g class="Space Bedroom" id="g19">
      <text x="493.92053" y="255.73758" font-size="22px" text-anchor="middle" fill="#000000" id="text19" style="font-style:normal;font-variant:normal;font-weight:normal;font-stretch:normal;font-size:22px;font-family:sans-serif;-inkscape-font-specification:'sans-serif, Normal';font-variant-ligatures:normal;font-variant-caps:normal;font-variant-numeric:normal;font-variant-east-asian:normal;text-anchor:middle;fill:#000000" transform="translate(-367.69726,-29.368791)"><tspan sodipodi:role="line" id="tspan26" x="493.92053" y="255.73758">Bedroom</tspan></text>
      <polygon points="14,15 14,424 138,424 139,432 237,432 237,15 " style="fill:#498ed9;fill-opacity:0.35;stroke:#498ed9;stroke-width:1.99154"/>
    </g>
    <g class="Space Bedroom" id="g19-7">
      <text x="493.92053" y="255.73758" font-size="22px" text-anchor="middle" fill="#000000" id="text19-9" style="font-style:normal;font-variant:normal;font-weight:normal;font-stretch:normal;font-size:22px;font-family:sans-serif;-inkscape-font-specification:'sans-serif, Normal';font-variant-ligatures:normal;font-variant-caps:normal;font-variant-numeric:normal;font-variant-east-asian:normal;text-anchor:middle;fill:#000000" transform="translate(-128.44538,-26.931622)"><tspan sodipodi:role="line" id="tspan26-5" x="493.92053" y="255.73758">Bedroom</tspan></text>
      <polygon points="253,15 253,424 377,424 378,433 477,433 477,15 " style="fill:#498ed9;fill-opacity:0.35;stroke:#498ed9;stroke-width:1.99154"/>
    </g>
    <g class="Space Bath" id="g21">
      <text x="522.20221" y="827.10577" font-size="22px" text-anchor="middle" fill="#000000" id="text21" transform="translate(-377.09527,-234.95033)">Bath</text>
      <polygon points="318,509 219,509 218,518 14,518 14,662 318,662 " style="fill:#3ebcbc;fill-opacity:0.35;stroke:#3dbdbd;stroke-width:2;stroke-opacity:1"/>
    </g>
    <g class="Space Undefined" id="g21-6">
      <text x="465.81412" y="991.57098" font-size="22px" text-anchor="middle" fill="#000000" id="text21-1" style="font-style:normal;font-variant:normal;font-weight:normal;font-stretch:normal;font-size:22px;font-family:sans-serif;-inkscape-font-specification:'sans-serif, Normal';font-variant-ligatures:normal;font-variant-caps:normal;font-variant-numeric:normal;font-variant-east-asian:normal;text-anchor:middle;fill:#000000" transform="translate(-244.44479,-511.94098)"><tspan sodipodi:role="line" id="tspan25" x="465.81412" y="991.57098">Hallway</tspan></text>
      <polygon points="14,440 14,503 218,503 219,508 318,508 319,503 333,503 334,510 433,510 434,503 490,503 490,440 478,440 477,434 378,434 377,440 238,440 237,433 139,433 138,440 " style="fill:#d9d9d9;fill-opacity:0.35;stroke:#d9d9d9;stroke-width:1.6322;stroke-opacity:1"/>
    </g>
    <g class="Space Kitchen" id="g22">
      <polygon points="334,511 334,662 743,662 743,519 434,519 433,511 " fill="#d9d9d9" fill-opacity="0.35" stroke="#d9d9d9" stroke-width="2" id="polygon22" style="fill:#e8833b;fill-opacity:0.34999999;stroke:#e8833b;stroke-opacity:1"/>
      <text x="538" y="590" font-size="22" text-anchor="middle" fill="#000000" id="text22" style="-inkscape-font-specification:'sans-serif, Normal';font-family:sans-serif;font-weight:normal;font-style:normal;font-stretch:normal;font-variant:normal;font-size:22px;font-variant-ligatures:normal;font-variant-caps:normal;font-variant-numeric:normal;font-variant-east-asian:normal;text-anchor:middle;fill:#000000"><tspan sodipodi:role="line" id="tspan24">Kitchen</tspan></text>
    </g>
  </g>
</svg>